<?xml version="1.0" ?>
<svg xmlns="http://www.w3.org/2000/svg" version="1.1" width="512" height="512" viewBox="0 0 512 512">
  <defs/>
  <g>
    <path d="M 279.21972656 330.83523560 C 277.21173096 336.54336548 275.50555420 342.44494629 273.57299805 347.95895386 C 271.58605957 353.56082153 270.19573975 359.16036987 268.50897217 364.51739502 C 267.04132080 369.70773315 265.48736572 374.53625488 263.84057617 379.06137085 C 262.59683228 383.17379761 261.31155396 386.87252808 260.26165771 390.09274292 C 259.56054688 392.90408325 258.51245117 395.17147827 257.66543579 396.72674561 C 256.56192017 397.50033569 255.43240356 397.81118774 254.43336487 397.32815552 C 253.20729065 395.80145264 252.14018250 393.49243164 251.36495972 390.37747192 C 250.16934204 386.77615356 248.73039246 383.02844238 247.46482849 378.84988403 C 245.99609375 374.23812866 244.34391785 369.64489746 242.79214478 364.75918579 C 240.97860718 359.75384521 239.27314758 354.80554199 237.93081665 349.62854004 C 236.33979797 344.37866211 234.83815002 339.06582642 233.25665283 333.70822144 C 231.15852356 328.47933960 229.22265625 322.99618530 227.62625122 317.52789307 C 225.83300781 312.08584595 224.29078674 306.63949585 222.75155640 301.32034302 C 221.31568909 296.20520020 219.47975159 291.41165161 217.82017517 286.83590698 C 216.19178772 282.48324585 214.56266785 278.47293091 213.46556091 274.63668823 C 212.60440063 270.97366333 211.60327148 267.74926758 210.96171570 264.94360352 C 211.33898926 262.36837769 212.46653748 260.01342773 214.17080688 257.78720093 C 216.51710510 255.74427795 219.30993652 253.88984680 222.49354553 252.25712585 C 226.06956482 250.79421997 230.02565002 249.46769714 234.24165344 248.40312195 C 238.62707520 247.66203308 243.18695068 247.15106201 247.86566162 246.78538513 C 252.56101990 246.66909790 257.32455444 246.83145142 262.15246582 247.25456238 C 266.94284058 247.92362976 271.50836182 248.82785034 275.77066040 249.96734619 C 279.73876953 251.32975769 283.47634888 252.92774963 287.02374268 254.69154358 C 290.26119995 256.43624878 293.09945679 258.09475708 295.52386475 259.63677979 C 297.55722046 260.95761108 299.02813721 262.03927612 299.49844360 263.20593262 C 298.58648682 264.99234009 297.27896118 267.60348511 296.54183960 271.11856079 C 295.23046875 275.03277588 293.73422241 279.21270752 292.46975708 283.96783447 C 291.19168091 288.91217041 289.56445312 293.87759399 287.83340454 299.08901978 C 286.66729736 304.38684082 285.23104858 309.65332031 283.47451782 314.94461060 C 281.99496460 320.41690063 280.41195679 325.73635864 279.21972656 330.83523560" stroke-width="2.00000000" fill="rgb(213, 166, 112)" opacity="1.0" stroke="rgb(61, 24, 0)" stroke-opacity="0.81407857" stroke-linecap="round" stroke-linejoin="round"/>
    <path d="M 266.55477905 154.35119629 C 269.69564819 157.37425232 272.86788940 160.35980225 276.08761597 163.28382874 C 279.29116821 166.24655151 282.45718384 169.22619629 285.59106445 172.20246887 C 288.71893311 175.14648438 291.77893066 178.11093140 294.83294678 181.07536316 C 297.84759521 184.01657104 300.73724365 187.02172852 303.46514893 190.13607788 C 305.81939697 193.64581299 307.92755127 197.27859497 309.74078369 201.13911438 C 311.36300659 205.11274719 312.47677612 209.19491577 313.32598877 213.34515381 C 313.80947876 217.47453308 313.87963867 221.53976440 313.79394531 225.60394287 C 313.93405151 229.58422852 313.05426025 233.62615967 311.76394653 237.87127686 C 310.49462891 242.34828186 308.43875122 246.70997620 305.81155396 251.15824890 C 303.04843140 255.84550476 299.44104004 259.85565186 295.26959229 262.96453857 C 292.87603760 266.85028076 290.98968506 269.35845947 287.82849121 269.34494019 C 284.13919067 268.25012207 281.17443848 269.78033447 278.23510742 272.75357056 C 274.18429565 271.99682617 271.00314331 272.74957275 268.09484863 274.67291260 C 265.12670898 272.57525635 262.35107422 271.64190674 258.95858765 273.74972534 C 254.80403137 273.73181152 250.09307861 272.85037231 244.89105225 273.71862793 C 239.21495056 272.68911743 233.60266113 271.38739014 228.45729065 269.41558838 C 223.37014771 268.71109009 219.49649048 267.00531006 217.19178772 264.32177734 C 216.59635925 261.47857666 215.13882446 260.45886230 212.37911987 260.54223633 C 210.33648682 258.40237427 208.02346802 255.12487793 205.29212952 251.61224365 C 202.86048889 248.15612793 200.93289185 244.51843262 199.42433167 240.96983337 C 198.06530762 237.53543091 197.09757996 233.86412048 196.46304321 230.24530029 C 195.79637146 226.66096497 195.41410828 223.01228333 195.54269409 219.35163879 C 195.92472839 215.61463928 196.23339844 211.91154480 197.01509094 208.24360657 C 198.00984192 204.63548279 198.98968506 201.00630188 200.49487305 197.64620972 C 202.14030457 194.16366577 203.97195435 190.63896179 206.15808105 187.51829529 C 208.89990234 184.66217041 211.90188599 181.92257690 215.11921692 179.27629089 C 218.49070740 176.57200623 221.93972778 173.77825928 225.43426514 170.95343018 C 228.89920044 168.10346985 232.45907593 165.27925110 236.07150269 162.44549561 C 239.76333618 159.60304260 243.48800659 156.80964661 247.24679565 154.03192139 C 250.93319702 151.23904419 254.61061096 148.40846252 266.55477905 154.35119629" stroke-width="1.83869541" fill="rgb(245, 178, 202)" opacity="1.0" stroke="rgb(38, 4, 8)" stroke-opacity="0.65037507" stroke-linecap="round" stroke-linejoin="round"/>
    <path d="M 300.70458984 182.88238525 C 298.48693848 185.60641479 296.24890137 188.31153870 293.75646973 190.68309021 C 291.15817261 192.86145020 288.22808838 194.73236084 285.23730469 196.51127625 C 282.12753296 198.19995117 278.87725830 199.66503906 275.45803833 200.80685425 C 272.03341675 201.99281311 268.61965942 203.06265259 265.11239624 203.60253906 C 261.58917236 204.15640259 257.95825195 204.31623840 254.30944824 204.23794556 C 250.63755798 204.14788818 246.93057251 203.87437439 243.15351868 203.29837036 C 239.38294983 202.27404785 235.47686768 201.20199585 231.74661255 199.78103638 C 228.27539062 198.17333984 224.94918823 196.33274841 221.84207153 194.43020630 C 218.74226379 192.75251770 216.00747681 190.48144531 213.55708313 187.95036316 C 211.34925842 185.15788269 209.40296936 182.05151367 207.40794373 178.98101807 C 205.86824036 175.70564270 204.36749268 172.32585144 203.41174316 168.70706177 C 202.46708679 165.04025269 201.77798462 161.23817444 201.44920349 157.40945435 C 201.24543762 153.68464661 201.59149170 149.97508240 202.18716431 146.12509155 C 202.53512573 142.21926880 203.28353882 138.60266113 204.36045837 134.97035217 C 205.92491150 131.65647888 207.48966980 128.37652588 208.81266785 125.13392639 C 210.40068054 122.09234619 212.40394592 119.41941071 214.71588135 116.91455078 C 217.28639221 114.60381317 220.08454895 112.50813293 222.99951172 110.51669312 C 225.99401855 108.64197540 229.10858154 106.98610687 232.38615417 105.56516266 C 235.80285645 104.34523010 239.29670715 103.33441925 242.83132935 102.53897858 C 246.42887878 102.00090027 250.12408447 101.69481659 253.90702820 101.58177185 C 257.69567871 101.71297455 261.42352295 102.12655640 265.06848145 102.76206207 C 268.71484375 103.56118774 272.38363647 104.57704163 276.01055908 105.79818726 C 279.50149536 107.17804718 282.79891968 108.78554535 285.96896362 110.66520691 C 289.01861572 112.62888336 291.88592529 114.59905243 294.62692261 116.63774109 C 297.21957397 118.78755188 299.14431763 121.29680634 300.63220215 124.34018707 C 302.51580811 127.32615662 304.17672729 130.51341248 305.56829834 133.83140564 C 306.85345459 137.14190674 307.64639282 140.56687927 308.49270630 143.96847534 C 309.01748657 147.46153259 309.02740479 151.02511597 309.12722778 154.55683899 C 309.04895020 158.01293945 308.73947144 161.42155457 308.07443237 164.61457825 C 307.42556763 167.97546387 306.85827637 171.29255676 300.70458984 182.88238525" stroke-width="1.79487014" fill="rgb(142, 81, 57)" opacity="1.0" stroke="rgb(47, 17, 9)" stroke-opacity="0.87612236" stroke-linecap="round" stroke-linejoin="round"/>
    <path d="M 290.10501099 126.20767975 C 287.98516846 128.23149109 285.88684082 130.24510193 283.57998657 131.98536682 C 281.11996460 133.68229675 278.62396240 135.17706299 275.85708618 136.51329041 C 273.23345947 137.73773193 270.40505981 138.79519653 267.63070679 139.89727783 C 264.78802490 140.75100708 261.81832886 141.33166504 258.62811279 141.53787231 C 255.32693481 141.56529236 252.00456238 141.77473450 248.58715820 141.39704895 C 244.97146606 140.58012390 241.30224609 139.86251831 237.65701294 138.97229004 C 234.42237854 137.59948730 231.25674438 135.86856079 228.20079041 134.13591003 C 225.28919983 132.28608704 222.80763245 130.03356934 220.41539001 127.60139465 C 218.06944275 125.15914917 216.19271851 122.49748993 214.66122437 119.44565582 C 213.24252319 116.62663269 212.37463379 113.58691406 211.08593750 110.61190796 C 210.19589233 107.43209839 209.54112244 104.17665863 209.30332947 100.90621948 C 208.98127747 97.62916565 209.03414917 94.32474518 209.23086548 90.97718811 C 209.36869812 87.77823639 210.09587097 84.64574432 210.57037354 81.37271118 C 211.43014526 78.29290009 212.47409058 75.26460266 213.96952820 72.38522339 C 215.54307556 69.62181091 217.26159668 66.94457245 219.08033752 64.29887390 C 221.04983521 61.86693192 223.11001587 59.43989182 225.36962891 57.22867584 C 227.83158875 55.21431351 230.51884460 53.30812454 233.26106262 51.61917496 C 236.18511963 50.14663315 239.19993591 48.89161301 242.24377441 47.87313461 C 245.29595947 47.13512802 248.34219360 46.62414932 251.29504395 46.23818207 C 254.14508057 46.04275513 257.04205322 46.02544022 259.86465454 46.55597305 C 262.83200073 47.20297623 265.89395142 47.92477417 268.96609497 48.87740326 C 271.95022583 50.00797272 274.84887695 51.53049469 277.70202637 53.16160202 C 280.44351196 55.09907150 283.12429810 57.21849823 285.61972046 59.50181961 C 287.95596313 61.85969543 289.99749756 64.59578705 291.97103882 67.32212830 C 293.74417114 70.17286682 295.28164673 73.16713715 296.70275879 76.15953827 C 297.70819092 79.33995819 298.69537354 82.37651825 299.41375732 85.42839813 C 299.61581421 88.49693298 299.67382812 91.55471802 299.91851807 94.63002014 C 299.87969971 97.85790253 299.74722290 101.17138672 299.26257324 104.49060822 C 298.26907349 107.83802795 297.09701538 111.25174713 295.78521729 114.43644714 C 295.20181274 117.72899628 294.61163330 121.17980957 290.10501099 126.20767975" stroke-width="1.69030321" fill="rgb(251, 246, 215)" opacity="1.0" stroke="rgb(44, 38, 22)" stroke-opacity="0.6735649" stroke-linecap="round" stroke-linejoin="round"/>
    <path d="M 454.76992798 502.83264160 C 443.63278198 503.01538086 432.53567505 503.21365356 421.39486694 503.44433594 C 410.26989746 503.62857056 399.09057617 503.88052368 387.89547729 504.09298706 C 376.60430908 504.34469604 365.26641846 504.59561157 353.82339478 504.86575317 C 342.27172852 505.12704468 330.60430908 505.44421387 318.80303955 505.74774170 C 306.84469604 506.09591675 294.76562500 506.42984009 282.52386475 506.78604126 C 270.12902832 507.14782715 257.62783813 507.52386475 245.00296021 507.87603760 C 232.27816772 508.23611450 219.52101135 508.58901978 206.74400330 508.92025757 C 193.97273254 509.22708130 181.30966187 509.50457764 168.77876282 509.73394775 C 156.43974304 509.92276001 144.39141846 510.03533936 132.67968750 510.09970093 C 121.39887238 510.09985352 110.65336609 510.01681519 100.44511414 509.88400269 C 90.94454956 509.65286255 82.17925262 509.35263062 74.21450043 508.98489380 C 67.14379883 508.54147339 61.02280045 507.99780273 55.88574982 507.45919800 C 51.79838562 506.79562378 48.77748489 506.10015869 46.86398315 505.35934448 C 46.04999924 504.58718872 46.33498764 503.76181030 47.73671341 502.93072510 C 50.18692780 502.09512329 53.69489288 501.23236084 58.22446442 500.41601562 C 63.71864700 499.57192993 70.11047363 498.80606079 77.37542725 498.04522705 C 85.42317963 497.35617065 94.18568420 496.72720337 103.60465240 496.15582275 C 113.60819244 495.67102051 124.11199188 495.25265503 135.05223083 494.91488647 C 146.38195801 494.67309570 157.98658752 494.51519775 169.87222290 494.43972778 C 181.90177917 494.41036987 194.09054565 494.38317871 206.35556030 494.42416382 C 218.65420532 494.39392090 230.96604919 494.42175293 243.23306274 494.44503784 C 255.44703674 494.42718506 267.56445312 494.44128418 279.57040405 494.47814941 C 291.44146729 494.50921631 303.18008423 494.58724976 314.72912598 494.72219849 C 326.15383911 494.88040161 337.35766602 495.09106445 348.40698242 495.32293701 C 359.27703857 495.52084351 369.95352173 495.74108887 380.46932983 495.94671631 C 390.80313110 496.13983154 400.98733521 496.31900024 411.02713013 496.47564697 C 420.92898560 496.61605835 430.69747925 496.78622437 440.38375854 496.97537231 C 449.94653320 497.17416382 459.45046997 497.40863037 468.89282227 497.63671875 C 478.29653931 497.89337158 487.64425659 498.14978027 497.02133179 498.42358398 C 506.36264038 498.72286987 515.69494629 498.95614624 454.76992798 502.83264160" stroke-width="2.00000000" fill="rgb(255, 255, 255)" opacity="1.0" stroke="rgb(251, 251, 251)" stroke-opacity="0.016554322" stroke-linecap="round" stroke-linejoin="round"/>
    <path d="M 264.08923340 346.81341553 C 264.44366455 347.49472046 264.89053345 347.92486572 265.45980835 348.20849609 C 265.99850464 348.53530884 266.61233521 348.80075073 266.94757080 349.11560059 C 267.08996582 349.48773193 267.19573975 349.71749878 267.25488281 350.02459717 C 266.89144897 350.42691040 266.28607178 350.90063477 265.46044922 351.49444580 C 264.58050537 352.32260132 263.70639038 353.21096802 262.65744019 354.11709595 C 261.63372803 355.17605591 260.62463379 356.32095337 259.43896484 357.37692261 C 258.19592285 358.39233398 257.13284302 359.32635498 256.37478638 360.13073730 C 255.99278259 360.87014771 255.65200806 361.08435059 255.43893433 361.02139282 C 255.50840759 360.59329224 255.45477295 360.15994263 254.92680359 359.61767578 C 254.06289673 358.85879517 253.09257507 358.16998291 252.37936401 357.27810669 C 251.81382751 356.14569092 250.87384033 355.17559814 249.75387573 354.25781250 C 248.91239929 353.18539429 248.24627686 352.20223999 247.59594727 351.45623779 C 247.07476807 350.74148560 246.61238098 350.07452393 246.06632996 349.79028320 C 245.56994629 349.57968140 245.33631897 349.32284546 245.40679932 349.03335571 C 245.77809143 348.64385986 246.37673950 348.16918945 247.11491394 347.64422607 C 247.76197815 346.91381836 248.50909424 346.11880493 249.46333313 345.55874634 C 250.49002075 344.87680054 251.42526245 344.21203613 252.26791382 343.50061035 C 253.26786804 342.93084717 254.07594299 342.28900146 254.72186279 341.67593384 C 255.42602539 341.39401245 256.14733887 341.14920044 256.40103149 340.72143555 C 256.30529785 340.28341675 256.20330811 339.87036133 264.08923340 346.81341553" stroke-width="1.45524228" fill="rgb(235, 187, 127)" opacity="1.0" stroke="rgb(62, 20, 0)" stroke-opacity="0.8775056" stroke-linecap="round" stroke-linejoin="round"/>
  </g>
</svg>
