<svg xmlns="http://www.w3.org/2000/svg" viewBox="0 0 512 512" height="512.0px" width="512.0px">
<path id="" fill="#D2691E" fill-opacity="1.0" stroke="#000000" stroke-width="0.0" stroke-opacity="1.0" stroke-linecap="round" stroke-linejoin="round"  filling="0" d="M256.000 400.000 C239.333 350.000 222.667 300.000 206.000 250.000 C239.333 250.000 272.667 250.000 306.000 250.000 C289.333 300.000 272.667 350.000 256.000 400.000"></path>
<path id="" fill="#FFB6C1" fill-opacity="1.0" stroke="#000000" stroke-width="0.0" stroke-opacity="1.0" stroke-linecap="round" stroke-linejoin="round"  filling="0" d="M316.000 220.000 C316.000 235.907 309.674 251.179 298.426 262.426 C287.179 273.674 271.907 280.000 256.000 280.000 C240.093 280.000 224.821 273.674 213.574 262.426 C202.326 251.179 196.000 235.907 196.000 220.000 C196.000 204.093 202.326 188.821 213.574 177.574 C224.821 166.326 240.093 160.000 256.000 160.000 C271.907 160.000 287.179 166.326 298.426 177.574 C309.674 188.821 316.000 204.093 316.000 220.000"></path>
<path id="" fill="#8B4513" fill-opacity="1.0" stroke="#000000" stroke-width="0.0" stroke-opacity="1.0" stroke-linecap="round" stroke-linejoin="round"  filling="0" d="M311.000 150.000 C311.000 164.581 305.201 178.580 294.891 188.891 C284.580 199.201 270.581 205.000 256.000 205.000 C241.419 205.000 227.420 199.201 217.109 188.891 C206.799 178.580 201.000 164.581 201.000 150.000 C201.000 135.419 206.799 121.420 217.109 111.109 C227.420 100.799 241.419 95.000 256.000 95.000 C270.581 95.000 284.580 100.799 294.891 111.109 C305.201 121.420 311.000 135.419 311.000 150.000"></path>
<path id="" fill="#FFFAF0" fill-opacity="1.0" stroke="#000000" stroke-width="0.0" stroke-opacity="1.0" stroke-linecap="round" stroke-linejoin="round"  filling="0" d="M306.000 90.000 C306.000 103.256 300.729 115.982 291.355 125.355 C281.982 134.729 269.256 140.000 256.000 140.000 C242.744 140.000 230.018 134.729 220.645 125.355 C211.271 115.982 206.000 103.256 206.000 90.000 C206.000 76.744 211.271 64.018 220.645 54.645 C230.018 45.271 242.744 40.000 256.000 40.000 C269.256 40.000 281.982 45.271 291.355 54.645 C300.729 64.018 306.000 76.744 306.000 90.000"></path>
<path id="" fill="#ffffff" fill-opacity="1.0" stroke="#000000" stroke-width="0.0" stroke-opacity="1.0" stroke-linecap="round" stroke-linejoin="round"  filling="0" d="M0.000 510.500 C1.667 507.167 3.333 503.833 5.000 500.500 C15.667 499.500 26.333 498.500 37.000 497.500 C180.667 497.500 324.333 497.500 468.000 497.500 C482.333 498.500 496.667 499.500 511.000 500.500 C340.667 503.833 170.333 507.167 0.000 510.500"></path>
<path id="" fill="#efb977" fill-opacity="1.0" stroke="#000000" stroke-width="0.0" stroke-opacity="1.0" stroke-linecap="round" stroke-linejoin="round"  filling="0" d="M257.000 359.500 C256.000 359.500 255.000 359.500 254.000 359.500 C253.500 359.000 253.000 358.500 252.500 358.000 C252.500 357.667 252.500 357.333 252.500 357.000 C250.833 355.333 249.167 353.667 247.500 352.000 C247.500 351.667 247.500 351.333 247.500 351.000 C246.833 350.333 246.167 349.667 245.500 349.000 C245.500 348.667 245.500 348.333 245.500 348.000 C247.000 346.500 248.500 345.000 250.000 343.500 C250.333 343.500 250.667 343.500 251.000 343.500 C252.000 342.500 253.000 341.500 254.000 340.500 C255.000 340.500 256.000 340.500 257.000 340.500 C257.333 340.833 257.667 341.167 258.000 341.500 C258.333 341.500 258.667 341.500 259.000 341.500 C261.500 344.000 264.000 346.500 266.500 349.000 C266.500 349.333 266.500 349.667 266.500 350.000 C263.333 353.167 260.167 356.333 257.000 359.500"></path>
</svg>