<?xml version="1.0" ?>
<svg xmlns="http://www.w3.org/2000/svg" version="1.1" width="256" height="256" viewBox="0 0 256 256">
  <defs/>
  <g>
    <path d="M 173.91677856 221.70083618 C 172.41705322 225.34120178 162.40299988 223.53207397 149.05108643 224.06755066 C 140.55839539 223.78274536 133.39071655 223.96365356 120.08558655 223.92877197 C 112.84846497 224.19580078 103.01298523 224.09991455 91.83885193 223.85653687 C 79.57553101 224.96948242 74.35481262 221.96148682 76.23442078 209.30302429 C 76.25793457 200.98182678 75.49917603 190.33644104 79.40713501 181.75039673 C 86.81773376 174.65399170 92.01191711 173.84777832 101.33351135 174.99038696 C 113.83782959 175.15681458 119.73199463 174.74337769 130.05964661 174.53025818 C 141.12315369 174.50065613 150.22181702 174.89556885 158.50961304 174.77784729 C 171.21749878 174.96607971 177.45928955 178.46620178 176.22668457 191.14848328 C 175.89854431 198.64912415 178.14486694 206.44761658 173.91677856 221.70083618" stroke-width="0.96078688" fill="rgb(7, 0, 9)" opacity="1.0" stroke="rgb(0, 0, 5)" stroke-opacity="0.3963869" stroke-linecap="round" stroke-linejoin="round"/>
    <path d="M 170.76870728 217.73469543 C 165.20698547 217.90745544 158.87489319 215.03378296 146.10281372 215.55886841 C 137.01007080 215.47148132 129.22711182 215.97071838 117.14512634 215.24893188 C 107.73447418 216.09388733 101.88229370 217.56518555 89.75744629 220.67001343 C 76.01656342 223.66401672 76.04354858 226.95930481 76.47211456 211.33854675 C 76.26107788 206.22067261 75.07823181 189.96321106 75.41531372 183.66447449 C 79.43781281 175.29957581 85.57289124 178.50045776 93.91697693 180.17173767 C 103.65090179 179.96195984 111.82552338 181.05117798 121.98468781 181.77345276 C 130.22987366 181.44383240 140.52178955 180.74037170 151.00640869 180.10597229 C 165.36106873 179.39851379 171.34475708 180.31312561 171.59143066 191.39547729 C 171.56854248 204.22662354 175.13639832 212.47386169 170.76870728 217.73469543" stroke-width="1.59686542" fill="rgb(175, 71, 0)" opacity="1.0" stroke="rgb(3, 0, 0)" stroke-opacity="0.89815664" stroke-linecap="round" stroke-linejoin="round"/>
    <path d="M 158.10249329 222.36770630 C 153.81442261 222.31796265 150.25782776 222.42593384 140.59774780 222.54100037 C 133.36853027 222.08584595 127.24208069 222.67889404 120.06500244 222.36859131 C 110.03048706 222.15379333 108.90171051 222.69717407 98.43474579 222.33438110 C 92.87229156 222.04765320 85.16442871 224.06448364 77.87672424 220.16175842 C 75.59587860 211.72669983 79.08731079 213.28630066 89.55784607 214.34518433 C 98.11162567 214.92582703 101.07678986 214.77494812 106.15743256 214.50057983 C 114.93509674 214.24998474 120.66394806 214.31086731 126.75525665 213.94281006 C 135.21107483 212.94329834 140.17135620 214.33540344 148.22259521 214.02514648 C 155.63687134 214.69819641 162.49493408 212.48475647 169.45825195 214.23117065 C 175.18367004 219.34783936 172.06105042 223.74505615 158.10249329 222.36770630" stroke-width="0.55666471" fill="rgb(174, 70, 3)" opacity="1.0" stroke="rgb(177, 71, 23)" stroke-opacity="0.5108756" stroke-linecap="round" stroke-linejoin="round"/>
    <path d="M 123.20844269 144.23242188 C 123.14757538 153.69366455 124.22106171 163.06799316 130.55387878 174.24124146 C 131.79290771 186.67965698 122.61045074 177.62863159 120.64150238 164.83683777 C 117.28078461 152.96592712 118.31400299 145.85720825 119.39762115 131.87863159 C 121.06067657 120.45281219 123.16303253 113.53642273 126.28907013 98.67858124 C 126.10261536 85.75788879 125.58744812 80.44754028 124.18409729 64.95954895 C 125.04802704 49.34443665 126.79151917 52.09568405 121.36927795 38.54109955 C 116.31336975 19.01318359 128.61485291 30.03813934 131.80123901 43.55831528 C 135.35864258 56.88611603 132.13603210 65.04219055 129.94308472 76.75392151 C 128.89735413 87.75328064 131.17747498 96.25225830 127.87013245 107.98846436 C 126.27853394 119.90640259 123.77848053 126.47824860 123.20844269 144.23242188" stroke-width="1.66243744" fill="rgb(210, 171, 121)" opacity="1.0" stroke="rgb(5, 1, 0)" stroke-opacity="0.895316" stroke-linecap="round" stroke-linejoin="round"/>
    <path d="M 98.70025635 118.39951324 C 100.98479462 117.89424133 102.60250092 117.30047607 104.84898376 117.00206757 C 107.38198090 116.72136688 109.34426117 117.07282257 111.59808350 117.67333221 C 114.27545166 118.33705139 116.21762848 118.63927460 118.29646301 119.38388062 C 120.57611084 119.86974335 122.62248230 120.14778137 124.76199341 120.95879364 C 124.83728027 122.51065063 126.05018616 125.23728943 123.46179962 124.66738892 C 120.12995911 123.34088898 120.41360474 123.28556824 118.73292542 121.98228455 C 115.50656891 120.43495941 115.77812195 120.44307709 112.27883148 120.02321625 C 109.83338928 119.73828888 108.33742523 119.41419220 105.41098785 120.55165100 C 103.62448120 121.21596527 101.81730652 122.24977875 99.22059631 121.77056885 C 96.75395203 120.20700073 95.24844360 119.12356567 98.70025635 118.39951324" stroke-width="1.61289811" fill="rgb(197, 161, 113)" opacity="1.0" stroke="rgb(89, 72, 55)" stroke-opacity="1.0" stroke-linecap="round" stroke-linejoin="round"/>
    <path d="M 150.21078491 96.41525269 C 147.25814819 96.03567505 145.86231995 95.88684082 143.02159119 96.41854095 C 140.17683411 97.23575592 138.06356812 97.09378052 135.39294434 97.73404694 C 132.09486389 98.44018555 130.81651306 98.89321899 128.51921082 100.41165924 C 125.23814392 101.87583923 124.51382446 98.98853302 127.17890167 97.72686768 C 130.48484802 96.35750580 132.91276550 95.62263489 134.83840942 95.12963104 C 138.81831360 94.04517365 138.72230530 93.96763611 140.61750793 92.55494690 C 143.30987549 91.06877899 145.63943481 91.58539581 148.61775208 91.50822449 C 150.72444153 91.68195343 153.09690857 91.59010315 156.16020203 92.25250244 C 159.55526733 93.40241241 161.22816467 95.15768433 158.55534363 96.68190765 C 155.23236084 98.08957672 152.65299988 97.12035370 150.21078491 96.41525269" stroke-width="1.51437545" fill="rgb(216, 166, 113)" opacity="1.0" stroke="rgb(84, 70, 60)" stroke-opacity="1.0" stroke-linecap="round" stroke-linejoin="round"/>
    <path d="M 122.61829376 77.74841309 C 121.11175537 77.26866913 118.86132050 76.95092773 116.57038116 77.15715027 C 114.39992523 77.42362976 112.56095886 77.46951294 110.19346619 77.56698608 C 107.70494843 77.25677490 105.50048828 76.96502686 104.14645386 77.24607849 C 103.49803162 75.99422455 103.48122406 74.34928131 104.58673859 72.73543549 C 106.17676544 71.71942902 108.14380646 70.74911499 110.44497681 69.88543701 C 112.85174561 69.12232971 113.39202881 69.04357910 115.46112823 68.36306763 C 117.53114319 67.75695801 119.48805237 67.04467010 121.99520111 68.63284302 C 124.32348633 70.08132935 125.30955505 71.24586487 127.09489441 72.78095245 C 129.09100342 74.31669617 130.64494324 76.13416290 129.29747009 77.84706879 C 127.92870331 78.76831818 125.35154724 78.99107361 122.61829376 77.74841309" stroke-width="1.50991797" fill="rgb(78, 97, 29)" opacity="1.0" stroke="rgb(255, 255, 99)" stroke-opacity="1.0" stroke-linecap="round" stroke-linejoin="round"/>
    <path d="M 110.17044830 125.34366608 C 109.71995544 126.29139709 107.46150208 130.69676208 103.66969299 133.57156372 C 100.65304565 135.76458740 98.51123047 136.68116760 93.35303497 137.31747437 C 88.02484894 137.22563171 87.11771393 137.44482422 81.86357117 134.43470764 C 79.31505585 132.76435852 76.67800140 130.00398254 75.08491516 125.18466187 C 74.34991455 122.73590851 73.60833740 117.74577332 75.42603302 113.22415161 C 76.89192963 110.00217438 78.00692749 107.42306519 80.55506897 105.70233154 C 84.21763611 102.60832977 87.38036346 101.38362885 91.56572723 101.14082336 C 94.92842865 100.96250916 99.08699799 101.31728363 102.92826080 103.78510284 C 106.44338989 106.05481720 107.97273254 107.82156372 110.36404419 112.31629181 C 111.67488098 115.88971710 111.83215332 118.49243927 110.17044830 125.34366608" stroke-width="1.48736405" fill="rgb(66, 143, 49)" opacity="1.0" stroke="rgb(8, 13, 8)" stroke-opacity="0.9415721" stroke-linecap="round" stroke-linejoin="round"/>
    <path d="M 119.27707672 66.98345184 C 114.52255249 64.31163025 113.02334595 62.52110672 107.80477142 56.62203979 C 104.67012024 50.82464981 100.48768616 47.60055923 100.26818085 41.83604050 C 99.65456390 35.04621887 101.67469788 28.88407516 104.71810913 25.19878006 C 110.40955353 18.02449226 112.93609619 17.04410172 119.45510864 14.30690765 C 127.63432312 12.61760330 131.40281677 12.99677467 136.78039551 14.41044807 C 146.69299316 19.15109634 144.36039734 17.41196060 149.94203186 22.93816566 C 154.42231750 29.00765610 156.19223022 33.46122742 156.78210449 39.68111420 C 156.91537476 44.82218933 155.47410583 52.26997375 152.01200867 56.79362488 C 148.42843628 61.65967560 144.04386902 65.02112579 138.09498596 67.48768616 C 133.55900574 69.04344177 128.50862122 70.60913849 119.27707672 66.98345184" stroke-width="1.54759133" fill="rgb(74, 156, 59)" opacity="1.0" stroke="rgb(0, 5, 0)" stroke-opacity="0.90019363" stroke-linecap="round" stroke-linejoin="round"/>
    <path d="M 185.08283997 93.77895355 C 185.61508179 95.16791534 184.32910156 101.42168427 181.86140442 105.83216095 C 179.21583557 110.34459686 175.40274048 114.01175690 171.10540771 115.52275085 C 166.08450317 117.51446533 160.96768188 118.34555054 156.95625305 117.02823639 C 151.82760620 116.17686462 148.33078003 113.74256897 144.53866577 109.78153992 C 140.92912292 104.48226929 139.48292542 100.75532532 139.73883057 95.97454834 C 140.33378601 89.78749084 140.34226990 87.85635376 142.49983215 83.61839294 C 145.49983215 78.83706665 146.71234131 76.75560760 152.70835876 72.73464203 C 155.40386963 71.37728882 160.63580322 69.56679535 166.65904236 71.38549042 C 171.60195923 72.59288025 174.32644653 73.83306122 178.90232849 78.31092834 C 182.16917419 82.31721497 184.32652283 86.00015259 185.08283997 93.77895355" stroke-width="1.54275477" fill="rgb(64, 145, 51)" opacity="1.0" stroke="rgb(8, 13, 7)" stroke-opacity="0.9367442" stroke-linecap="round" stroke-linejoin="round"/>
    <path d="M 98.99341583 93.89494324 C 96.74575043 94.69930267 91.15633392 94.60955048 87.10142517 92.79356384 C 83.66432953 91.20227814 79.70130157 87.96500397 77.83918762 83.52631378 C 76.59822083 80.57137299 75.21643829 76.26720428 76.66368866 70.93997192 C 77.15017700 67.84885406 78.96789551 63.35597610 82.95714569 59.05242538 C 85.39295959 56.90428925 88.42853546 54.58080292 94.78797150 53.34043884 C 99.74224091 53.39579391 101.08383179 52.85202026 105.06620026 55.15453339 C 109.86005402 57.91604614 112.83171844 60.55481339 115.16462708 63.87416840 C 117.77905273 68.00538635 119.15668488 72.93712616 118.36890411 76.32126617 C 117.34835052 80.85555267 114.75849915 84.87562561 111.71228027 87.47213745 C 108.58730316 90.37447357 104.93293762 91.93381500 98.99341583 93.89494324" stroke-width="1.57547235" fill="rgb(97, 175, 76)" opacity="1.0" stroke="rgb(7, 9, 5)" stroke-opacity="0.9200344" stroke-linecap="round" stroke-linejoin="round"/>
    <path d="M 151.26693726 70.01605225 C 147.86892700 70.54470825 144.34339905 69.64164734 141.44329834 68.19512177 C 138.56878662 65.96568298 137.44483948 64.06098938 135.97164917 60.28930664 C 134.57580566 56.19230270 134.46356201 52.21218872 135.79730225 49.79140854 C 137.09249878 45.47935486 139.78269958 42.41318130 142.39086914 40.38238525 C 145.69195557 37.90975189 148.10043335 37.01502228 153.04280090 36.31467819 C 159.55384827 36.91504669 158.35887146 36.43504333 162.17898560 38.61204147 C 165.89775085 41.00641251 168.32763672 44.19195175 169.74647522 47.58057404 C 170.95884705 52.72578430 170.95381165 53.77250290 169.69985962 58.94486237 C 167.74380493 62.18072891 166.55627441 64.14570618 162.55297852 67.13192749 C 158.02996826 69.49814606 155.49281311 69.76122284 151.26693726 70.01605225" stroke-width="1.43465841" fill="rgb(97, 175, 79)" opacity="1.0" stroke="rgb(22, 25, 22)" stroke-opacity="0.95649797" stroke-linecap="round" stroke-linejoin="round"/>
    <path d="M 119.91537476 95.20934296 C 119.02729797 95.79413605 115.49613953 96.68730164 112.53187561 96.50571442 C 110.08252716 96.27563477 107.03570557 95.59217072 104.74908447 93.28466797 C 103.06210327 91.33796692 101.71309662 89.88513947 101.06091309 86.02576447 C 100.81575012 83.44309998 100.64718628 81.52081299 102.41952515 77.61882782 C 103.74731445 75.72061157 105.14762878 73.82035828 108.68724060 71.78723145 C 111.63806915 70.76466370 112.64064026 70.09262085 115.07604218 70.38877869 C 118.28051758 70.53948975 121.17252350 71.36341858 123.57382202 73.20598602 C 126.28231049 75.44573975 127.61013794 77.89615631 127.85359955 80.17024231 C 127.89185333 82.74135590 127.49649048 85.38128662 126.36795044 88.68510437 C 125.53155518 90.65583801 123.74311829 92.78968811 119.91537476 95.20934296" stroke-width="1.42143142" fill="rgb(102, 179, 81)" opacity="1.0" stroke="rgb(18, 15, 16)" stroke-opacity="0.9398489" stroke-linecap="round" stroke-linejoin="round"/>
    <path d="M 154.71803284 83.77145386 C 152.90559387 85.68403625 149.15101624 87.27255249 146.21588135 87.72705078 C 142.62533569 88.09273529 139.87205505 88.06016541 136.84844971 86.60179138 C 134.79827881 85.40334320 131.64378357 83.90911102 130.25520325 80.66146088 C 128.69224548 78.27392578 128.30279541 75.14507294 128.91514587 71.41777802 C 130.12004089 67.65388489 130.80944824 66.13795471 133.42973328 63.22873306 C 138.18746948 59.72515488 136.71620178 60.14310074 140.48027039 59.01227188 C 144.01274109 58.06050110 147.34620667 58.27622223 150.53320312 59.50256348 C 153.82856750 61.02843475 156.47250366 63.59004593 157.50027466 65.70019531 C 159.25921631 69.02350616 159.64166260 72.26311493 159.36442566 75.20025635 C 159.01507568 78.38989258 157.10723877 81.73517609 154.71803284 83.77145386" stroke-width="1.37173665" fill="rgb(101, 179, 79)" opacity="1.0" stroke="rgb(13, 8, 13)" stroke-opacity="0.9651062" stroke-linecap="round" stroke-linejoin="round"/>
    <path d="M 118.45290375 107.83088684 C 118.02914429 107.95743561 116.45896912 108.42987061 115.65397644 108.75876617 C 114.25079346 108.90872192 113.63582611 109.58915710 113.01782990 109.06848145 C 113.01788330 107.95961761 113.01128387 107.05432892 112.94380188 105.77101135 C 112.88302612 104.45908356 112.87364960 103.40509796 113.21325684 102.39966583 C 113.83125305 101.38785553 114.11807251 101.19324493 115.41527557 100.06747437 C 116.56450653 99.37922668 116.74700165 99.19291687 117.56155396 98.82098389 C 118.41864014 98.33483124 119.79181671 99.21457672 120.50750732 99.73719025 C 121.47348785 100.82116699 120.98716736 101.43436432 120.91011047 102.54594421 C 120.86669922 103.47654724 121.02430725 104.73343658 121.09655762 105.76400757 C 120.94487000 106.86174011 120.01206970 106.92962646 118.45290375 107.83088684" stroke-width="0.54123014" fill="rgb(255, 255, 255)" opacity="1.0" stroke="rgb(255, 255, 255)" stroke-opacity="0.0" stroke-linecap="round" stroke-linejoin="round"/>
    <path d="M 134.39471436 32.18377686 C 134.39466858 32.17967224 134.39352417 32.17164230 134.39283752 32.16083527 C 134.39334106 32.15031052 134.39384460 32.14661407 134.40017700 32.14155579 C 134.40679932 32.13658142 134.41525269 32.13311005 134.42524719 32.13285828 C 134.43389893 32.13154221 134.44406128 32.13477325 134.45231628 32.13796997 C 134.46179199 32.14214706 134.46719360 32.14765167 134.47200012 32.15666962 C 134.47509766 32.17211914 134.47511292 32.16932678 134.47210693 32.17759323 C 134.46847534 32.18682480 134.46336365 32.19501877 134.45727539 32.20301437 C 134.44792175 32.21158218 134.44300842 32.21552658 134.43528748 32.21771240 C 134.42677307 32.21923447 134.41790771 32.21509933 134.41064453 32.20967102 C 134.40298462 32.20448303 134.39880371 32.19834518 134.39471436 32.18377686" stroke-width="1.17067122" fill="rgb(63, 178, 46)" opacity="1.0" stroke="rgb(58, 183, 39)" stroke-opacity="0.08964751" stroke-linecap="round" stroke-linejoin="round"/>
    <path d="M 171.86367798 181.50885010 C 165.73840332 181.88493347 161.69784546 181.32238770 149.91427612 181.57765198 C 143.44181824 181.60597229 136.85527039 181.82423401 126.18254852 181.42344666 C 119.64099884 181.47592163 113.21068573 181.97737122 103.62615967 181.69004822 C 94.45379639 181.27272034 87.79521942 181.51202393 77.55827332 181.85829163 C 69.95022583 183.05752563 68.87193298 173.90763855 78.32627869 175.74308777 C 90.64439392 175.56855774 90.10940552 176.15840149 98.88375854 175.80201721 C 110.10548401 175.75935364 111.91550446 175.52282715 121.37805176 176.07501221 C 130.42790222 175.36543274 135.69914246 176.26457214 145.86267090 175.74604797 C 155.40766907 176.24226379 161.48194885 175.60131836 169.14726257 175.66595459 C 179.63906860 175.03001404 183.66175842 180.12802124 171.86367798 181.50885010" stroke-width="1.81939089" fill="rgb(189, 69, 3)" opacity="1.0" stroke="rgb(22, 11, 17)" stroke-opacity="0.92105573" stroke-linecap="round" stroke-linejoin="round"/>
    <path d="M 176.44842529 189.01414490 C 176.13261414 192.79486084 176.21481323 192.80044556 175.84112549 197.43218994 C 175.69284058 200.21195984 175.39073181 202.36233521 175.08435059 206.61677551 C 175.23202515 208.71836853 174.89851379 212.71479797 174.80509949 215.28970337 C 174.07481384 218.73007202 175.54714966 222.54589844 172.96138000 222.78579712 C 169.31193542 222.83224487 167.67343140 220.81504822 169.09339905 216.96726990 C 170.15792847 212.75810242 169.60067749 212.40295410 170.12440491 209.76492310 C 170.22163391 206.18972778 170.41098022 203.74299622 170.53833008 201.01339722 C 170.22093201 198.06440735 170.75677490 195.14831543 170.70980835 191.85797119 C 171.04695129 188.69610596 169.87051392 185.47387695 172.12684631 183.35671997 C 176.18258667 182.25764465 177.25491333 184.27101135 176.44842529 189.01414490" stroke-width="1.75164509" fill="rgb(250, 167, 74)" opacity="1.0" stroke="rgb(102, 39, 11)" stroke-opacity="0.9047141" stroke-linecap="round" stroke-linejoin="round"/>
    <path d="M 119.45391083 69.71107483 C 118.96302795 69.39605713 117.90231323 69.11030579 116.21886444 68.66909790 C 114.78475189 68.43442535 114.90232849 67.48394775 115.02241516 66.18824005 C 115.05538177 64.63829041 114.51764679 63.64290237 113.95922852 62.71218872 C 113.11819458 60.89057541 112.62607574 60.88171005 111.86019897 59.24291229 C 112.27621460 58.80138016 114.24720001 60.10716248 115.22404480 60.18262863 C 117.48628235 61.07007217 117.04389954 60.86714935 118.39280701 61.24615097 C 119.83085632 61.38814163 121.55610657 61.54780197 121.81504059 62.43285751 C 122.37889099 64.31185913 122.11829376 64.95423126 122.37805176 66.28340149 C 122.57965851 68.06278229 122.52641296 68.87307739 122.72908783 70.04428101 C 122.42868805 71.51685333 121.54378510 70.12335968 119.45391083 69.71107483" stroke-width="1.47640765" fill="rgb(251, 253, 253)" opacity="1.0" stroke="rgb(22, 24, 24)" stroke-opacity="1.0" stroke-linecap="round" stroke-linejoin="round"/>
    <path d="M 126.33483124 68.25701904 C 126.21965790 67.35591125 126.10096741 66.72187805 125.93348694 65.82788086 C 125.80091858 64.82334900 125.90576935 64.13728333 125.42860413 63.11358643 C 125.07676697 61.97346878 125.57342529 61.93490219 126.64866638 62.47789001 C 127.64749146 63.32588196 127.15637207 63.59827423 127.01525116 64.65331268 C 126.91643524 66.13247681 126.97290802 66.24267578 127.10035706 67.55899048 C 127.43553925 68.96176147 127.14202881 69.11352539 128.05340576 69.41966248 C 129.10362244 70.09729767 129.29176331 70.75043488 128.86477661 71.82569122 C 128.47962952 72.72194672 128.59495544 73.97659302 127.56034088 73.53659058 C 126.59655762 73.12718964 126.70127106 72.11918640 126.63140106 71.07839203 C 126.39801025 70.01815033 126.51757812 69.16556549 126.33483124 68.25701904" stroke-width="2.00000000" fill="rgb(29, 22, 16)" opacity="1.0" stroke="rgb(255, 180, 197)" stroke-opacity="0.42635873" stroke-linecap="round" stroke-linejoin="round"/>
    <path d="M 179.22668457 177.86543274 C 179.15541077 178.65596008 178.99877930 178.95649719 178.96197510 179.91328430 C 178.80439758 180.60310364 179.13337708 181.37040710 178.42266846 181.47445679 C 177.78465271 181.35823059 177.31933594 181.34617615 176.38494873 181.35061646 C 175.69122314 181.31488037 174.78117371 181.47241211 174.39605713 181.21554565 C 174.38177490 180.19380188 174.42878723 180.09191895 174.58036804 179.15219116 C 174.74441528 178.03086853 174.65377808 178.27841187 174.61840820 177.40084839 C 174.64123535 176.54467773 174.26873779 175.92466736 174.96911621 175.84159851 C 175.76916504 175.81956482 176.19470215 175.89257812 176.88435364 175.70721436 C 177.71740723 175.67153931 178.26223755 175.61773682 178.84439087 175.90190125 C 179.30502319 176.33248901 179.26878357 177.21067810 179.22668457 177.86543274" stroke-width="1.87242770" fill="rgb(255, 174, 83)" opacity="1.0" stroke="rgb(53, 26, 18)" stroke-opacity="1.0" stroke-linecap="round" stroke-linejoin="round"/>
  </g>
</svg>
