<?xml version="1.0" ?>
<svg xmlns="http://www.w3.org/2000/svg" version="1.1" width="256" height="256" viewBox="0 0 256 256">
  <defs/>
  <g>
    <path d="M 177.84426880 219.68615723 C 176.04956055 227.84938049 161.12887573 225.61666870 152.13572693 225.10371399 C 142.51553345 224.65325928 134.35731506 224.84474182 122.94812775 224.81332397 C 114.15414429 225.07357788 103.48690796 225.45332336 94.02262115 224.96237183 C 82.08110046 226.37403870 75.60566711 223.72317505 77.96934509 208.30549622 C 78.40150452 203.50759888 76.49000549 188.07504272 79.20242310 180.70195007 C 87.69956970 172.84129333 92.68722534 174.84458923 102.40733337 175.08111572 C 115.80850220 175.20260620 120.35422516 175.01533508 132.10771179 174.86280823 C 143.95046997 174.74029541 150.51481628 175.49624634 161.31402588 174.89624023 C 175.55700684 173.00917053 179.03262329 178.66076660 177.70121765 189.64898682 C 177.48342896 198.96739197 179.72261047 210.41813660 177.84426880 219.68615723" stroke-width="1.00000000" fill="rgb(211, 47, 47)" opacity="1.0"/>
    <path d="M 177.34500122 222.01287842 C 175.58239746 225.86744690 160.81088257 221.84347534 150.85937500 220.86074829 C 140.85508728 220.65362549 133.36340332 220.00646973 120.54798126 219.69111633 C 111.66577148 220.35044861 101.02812958 221.50085449 91.03306580 222.83370972 C 78.94425201 226.06071472 75.63425446 222.88395691 77.87149048 207.15943909 C 78.61894226 201.81448364 76.16567993 184.36451721 80.02604675 178.88061523 C 88.86748505 174.98374939 93.35821533 177.35848999 103.66573334 178.82833862 C 116.65579224 180.29147339 121.95300293 180.13809204 134.22888184 179.89573669 C 146.33227539 179.05140686 153.28788757 178.98805237 164.10684204 177.42660522 C 177.51538086 174.31579590 179.52438354 176.99290466 177.96151733 192.22203064 C 176.50547791 198.00616455 180.61161804 215.49104309 177.34500122 222.01287842" stroke-width="1.00000000" fill="rgb(183, 28, 28)" opacity="1.0"/>
    <path d="M 162.17868042 224.76780701 C 155.12045288 224.81364441 151.71882629 225.38308716 142.57212830 225.11837769 C 136.53788757 224.62521362 129.67642212 225.05317688 123.15029907 225.11206055 C 115.21350861 225.27394104 109.85438538 224.97822571 103.60240936 224.42906189 C 93.32829285 224.29774475 91.66708374 227.30079651 81.58628845 225.15264893 C 76.98399353 218.78799438 87.32684326 219.63337708 93.12226868 220.18093872 C 105.13380432 220.39349365 104.33050537 220.25469971 111.39724731 219.67941284 C 121.44338989 219.79800415 124.19573975 220.20091248 132.09552002 220.14637756 C 141.75920105 219.13288879 143.98614502 220.58045959 152.80422974 220.00688171 C 160.59465027 220.94981384 165.44567871 218.79814148 173.43981934 219.66810608 C 180.92214966 225.35638428 170.72760010 226.22569275 162.17868042 224.76780701" stroke-width="1.00000000" fill="rgb(139, 0, 0)" opacity="1.0"/>
    <path d="M 125.38565826 136.43093872 C 124.92916870 147.42645264 125.80357361 155.08447266 128.97482300 166.75119019 C 131.19380188 182.87278748 120.44786072 172.78955078 119.64955902 160.62068176 C 116.46965027 149.10841370 117.95538330 140.76995850 118.60549164 128.28833008 C 120.46652222 116.96121979 121.60586548 110.14437866 123.62869263 96.83574677 C 123.65242767 86.05122375 124.76022339 77.55363464 124.65388489 64.29566956 C 126.75760651 47.84910965 127.43065643 48.11078644 125.67678833 36.12377930 C 123.34980774 15.41901398 134.20213318 27.89497375 134.54763794 40.91821671 C 135.59992981 52.68745422 133.35612488 60.84815216 132.25617981 71.47084045 C 131.01432800 82.81951904 131.93074036 93.78344727 130.14077759 103.42163849 C 128.78697205 117.38601685 126.38810730 120.57598877 125.38565826 136.43093872" stroke-width="1.00000000" fill="rgb(93, 64, 55)" opacity="1.0"/>
    <path d="M 94.50426483 117.62816620 C 96.34204102 117.06021881 99.09586334 116.65222168 101.23715210 116.50308228 C 104.38781738 116.36586761 106.13760376 116.23605347 108.40105438 116.44392395 C 111.21084595 116.84122467 113.04537201 117.04399872 115.49388123 117.95235443 C 118.18263245 118.97647858 119.99472046 119.98072815 121.97651672 121.36910248 C 123.73723602 122.60980225 125.03975677 125.64776611 121.59485626 125.24835968 C 117.71587372 124.01091003 118.21769714 124.14260101 116.30923462 122.60807800 C 112.78990936 121.07759857 112.89976501 121.31010437 108.83471680 120.73558044 C 106.47806549 120.41020966 105.02184296 119.85980988 101.58871460 120.43011475 C 99.30111694 120.69425201 97.87483215 121.38965607 94.79250336 121.71302032 C 91.45300293 121.14354706 91.97497559 118.25069427 94.50426483 117.62816620" stroke-width="1.00000000" fill="rgb(93, 64, 55)" opacity="1.0"/>
    <path d="M 154.02754211 95.51576996 C 151.10043335 95.11450195 149.31326294 95.18653870 146.14477539 95.54145813 C 143.18232727 96.11438751 141.24905396 96.10470581 138.31538391 97.18776703 C 135.47021484 97.98096466 133.64796448 99.34610748 130.99278259 100.55420685 C 127.46144867 101.39842224 125.49862671 99.06700134 128.40843201 97.40364838 C 132.36106873 94.77153015 132.30296326 95.16573334 136.35859680 93.69094086 C 139.73289490 92.72003174 140.17298889 92.53482819 142.71411133 91.93611908 C 146.84324646 91.27605438 147.81825256 91.29800415 151.56088257 91.39695740 C 155.07212830 91.55871582 155.53002930 91.50816345 159.80845642 92.03684998 C 163.17355347 92.29460144 165.69755554 94.67708588 162.69029236 96.50215149 C 159.20201111 97.07859802 157.73941040 95.87351227 154.02754211 95.51576996" stroke-width="1.00000000" fill="rgb(93, 64, 55)" opacity="1.0"/>
    <path d="M 119.23668671 72.33809662 C 117.64375305 71.86357880 115.71759796 71.44901276 112.84965515 71.56996155 C 110.17666626 71.56106567 109.19807434 71.88163757 105.96537781 72.59410858 C 103.44998169 73.58462524 102.39564514 74.56774902 99.79572296 75.59960175 C 97.38804626 75.47631073 96.65771484 73.35275269 99.79846191 72.12203979 C 102.34692383 70.80339050 102.89382935 70.51985931 106.51704407 69.39120483 C 109.30851746 68.73796082 110.08204651 68.64778137 112.43692017 68.43556213 C 115.88037872 68.66567230 115.80792999 68.39604187 119.68615723 69.49033356 C 122.46208191 70.33559418 124.27497101 70.83739471 126.44664764 72.14949036 C 128.43881226 73.35830688 131.26734924 76.21626282 126.83753967 75.74221039 C 124.52746582 75.00157928 122.70336914 73.98047638 119.23668671 72.33809662" stroke-width="1.00000000" fill="rgb(93, 64, 55)" opacity="1.0"/>
    <path d="M 110.57865143 129.86645508 C 107.89999390 133.87088013 107.44857788 134.48075867 101.81665802 137.99784851 C 98.00627899 139.61804199 95.46842194 140.50276184 89.73213959 139.77775574 C 85.07749939 138.72854614 82.96080017 138.00772095 78.46476746 133.73373413 C 76.07650757 131.24963379 73.83683014 128.00411987 73.07817078 122.46743774 C 72.81450653 119.76323700 73.34730530 113.66236877 75.87063599 110.37866974 C 78.54415894 106.27893066 80.55762482 104.12816620 83.38276672 102.84314728 C 88.45476532 100.35629272 91.46675110 99.51726532 95.86483002 100.33197784 C 99.74710083 100.96834564 104.39217377 102.70569611 107.34062195 105.93713379 C 110.32437134 109.73430634 110.88269806 110.91415405 113.18609619 117.06800842 C 113.64768982 121.78841400 112.78356934 123.54664612 110.57865143 129.86645508" stroke-width="1.00000000" fill="rgb(27, 94, 32)" opacity="1.0"/>
    <path d="M 116.20886230 67.68712616 C 112.65895844 66.15550995 107.60974884 62.86864471 103.16321564 57.07805634 C 99.64123535 51.41693115 98.24269104 46.36462784 98.13003540 39.96304703 C 97.35748291 31.93408394 100.78962708 26.28953171 103.55795288 22.76204491 C 110.25249481 15.21738815 112.24206543 14.18987274 119.21821594 11.01450729 C 129.07048035 9.25730515 130.21166992 9.57244301 138.08418274 11.99985695 C 148.53613281 17.94506454 145.72058105 15.40055847 151.61491394 22.10515022 C 156.22126770 29.35760117 157.97038269 33.43556213 158.15296936 39.90421295 C 157.90631104 46.12715530 155.82066345 54.01675034 152.34498596 57.91241455 C 147.77503967 63.29881287 142.85061646 66.44254303 136.89730835 68.95591736 C 129.08815002 71.03141785 127.29715729 70.44003296 116.20886230 67.68712616" stroke-width="1.00000000" fill="rgb(46, 125, 50)" opacity="1.0"/>
    <path d="M 187.64407349 98.99390411 C 187.44279480 101.57588196 185.68782043 107.11623383 181.81509399 111.60667419 C 178.60011292 115.47487640 173.41146851 118.71449280 168.30538940 119.47714233 C 163.54438782 120.33678436 157.60003662 120.37237549 152.75987244 117.61411285 C 148.56854248 116.11953735 143.90054321 112.40698242 141.12480164 107.46942139 C 139.07302856 103.13066101 137.81318665 97.16112518 138.65460205 91.62767792 C 139.96871948 85.43930054 140.68713379 82.56455231 144.25164795 79.26996613 C 149.66157532 74.27005768 151.20359802 72.55751801 157.64970398 70.54441833 C 163.72105408 69.84748840 165.65847778 69.29856873 172.88659668 72.06175995 C 178.89851379 75.32741547 180.01995850 75.98617554 185.44477844 82.14262390 C 187.98904419 87.65917969 187.85166931 90.89322662 187.64407349 98.99390411" stroke-width="1.00000000" fill="rgb(56, 142, 60)" opacity="1.0"/>
    <path d="M 100.77657318 97.35297394 C 96.99975586 98.11730957 91.34204102 96.95416260 87.21633911 94.60260773 C 82.97631836 92.38679504 80.12522125 89.68128967 77.63214111 84.49573517 C 76.18190765 80.23312378 74.73264313 76.56821442 76.06028748 70.90563202 C 76.36199951 66.67304993 78.95930481 62.04508591 82.59526062 58.58123016 C 86.45925903 55.56184006 89.21091461 53.45885468 95.45099640 52.67043304 C 104.12284851 53.28186417 101.52677155 52.40962982 107.68518066 55.05838776 C 113.20788574 58.22130966 115.90853882 60.38685608 118.23925781 64.76770782 C 120.35885620 68.99575043 121.11717987 75.52361298 120.44675446 78.42120361 C 119.30389404 84.06465149 116.81867218 87.67103577 113.75637817 91.12596893 C 110.59650421 94.42983246 105.68788910 96.87268066 100.77657318 97.35297394" stroke-width="1.00000000" fill="rgb(67, 160, 71)" opacity="1.0"/>
    <path d="M 156.14836121 74.71361542 C 152.84164429 75.50821686 147.92776489 74.66620636 144.09132385 72.94438934 C 140.48104858 70.71672058 137.68942261 68.61808014 135.45249939 64.69061279 C 133.00433350 59.73522568 132.81291199 56.73987961 133.20407104 53.28406525 C 134.28089905 46.93643188 135.99725342 44.44968796 137.94361877 41.36195755 C 141.64141846 37.73976135 145.64729309 36.07555389 149.90122986 35.25584793 C 157.26678467 35.36708832 155.50788879 34.82369995 160.86555481 36.88187408 C 165.85537720 39.42574692 168.37750244 41.68850708 170.61601257 45.17365646 C 172.89793396 50.04904556 173.36273193 53.10649490 173.21318054 57.70869827 C 171.52500916 63.22517395 170.17388916 65.21985626 167.58876038 68.64929199 C 164.82443237 72.04386902 160.69366455 74.11465454 156.14836121 74.71361542" stroke-width="1.00000000" fill="rgb(76, 175, 80)" opacity="1.0"/>
    <path d="M 118.08190918 96.43395996 C 116.24108124 97.32164001 113.05198669 97.74327850 110.41769409 97.24378204 C 107.83373260 96.59112549 105.89162445 95.70449829 103.79323578 93.34741211 C 101.93572998 91.03923035 101.06743622 90.01335907 100.61637878 86.37350464 C 100.56417847 83.54255676 100.51108551 82.12506104 102.22083282 78.47837830 C 103.49422455 76.72109222 104.82131958 75.04447937 108.23934937 73.43705750 C 112.51354218 72.63761139 111.53373718 72.29306030 114.80954742 72.74864197 C 118.06970215 73.36412811 120.41084290 74.73788452 122.01335144 76.08889771 C 124.44589233 78.84894562 125.33034515 81.14219666 125.46763611 83.35381317 C 125.76877594 85.77402496 125.07427979 89.11521149 124.00627136 90.99328613 C 122.48533630 93.69654846 120.77479553 95.18236542 118.08190918 96.43395996" stroke-width="1.00000000" fill="rgb(102, 187, 106)" opacity="1.0"/>
    <path d="M 153.71409607 85.54478455 C 152.00303650 87.46469116 148.63644409 89.19337463 145.49340820 89.76819611 C 142.57479858 90.34644318 139.33262634 90.05107880 136.35076904 88.39035797 C 134.13589478 86.89733124 130.95611572 85.10220337 129.85646057 82.06476593 C 128.17593384 79.27682495 127.79770660 76.10047913 128.11247253 72.83992004 C 129.01364136 69.27005768 129.59033203 67.55799866 132.23428345 64.59533691 C 137.15780640 61.21870041 135.45556641 61.78056335 139.74838257 60.67544556 C 143.83074951 59.99578476 146.30075073 60.04424286 149.39186096 61.31398010 C 152.34797668 62.69499207 155.26332092 65.61547852 156.21388245 67.54953766 C 157.93948364 70.94926453 158.03543091 74.07215881 157.91784668 76.97355652 C 157.61396790 80.13780212 156.12460327 83.03505707 153.71409607 85.54478455" stroke-width="1.00000000" fill="rgb(129, 199, 132)" opacity="1.0"/>
    <path d="M 127.08888245 114.16299438 C 125.77802277 114.78773499 122.73388672 115.17687988 121.00205231 114.80417633 C 118.60858917 114.45397186 117.04955292 113.45170593 115.76878357 111.75854492 C 114.45675659 110.13726044 113.13876343 108.31228638 113.09502411 106.26914215 C 112.80163574 104.17375183 113.27369690 101.83864594 114.25429535 100.03728485 C 115.35600281 98.39885712 116.90465546 96.64790344 119.34690857 95.76488495 C 121.39443970 95.36059570 122.48736572 94.87712097 124.39961243 95.26110840 C 127.24450684 95.77339935 128.81666565 96.60237122 130.18185425 97.91834259 C 132.12622070 100.41351318 132.83026123 101.80844879 132.95373535 103.60787964 C 133.28240967 105.58892822 132.50628662 108.34235382 131.84323120 109.70977783 C 130.47436523 112.21566772 129.59547424 112.88919067 127.08888245 114.16299438" stroke-width="1.00000000" fill="rgb(165, 214, 167)" opacity="1.0"/>
    <path d="M 130.93055725 37.59265900 C 130.64553833 36.26863098 130.58569336 35.40036011 130.65403748 33.32675934 C 131.08827209 31.99574471 131.60369873 30.64883232 132.89964294 29.56429291 C 134.31452942 28.25091553 135.48597717 27.81956100 136.77375793 27.62940598 C 139.28533936 27.35145950 139.91380310 27.89674377 141.50717163 28.22248459 C 143.31280518 29.14289284 144.32313538 30.59316444 144.87686157 31.91001511 C 145.45285034 34.77344131 145.42333984 33.96742249 145.29978943 35.90456772 C 145.13601685 37.68893433 144.08105469 39.59494400 143.34954834 40.43650055 C 141.67881775 41.84734726 140.42977905 42.35522079 138.91966248 42.45986938 C 137.47067261 42.58043289 135.74877930 42.24438095 134.24772644 41.59308624 C 132.75794983 40.80612564 132.16258240 40.18325043 130.93055725 37.59265900" stroke-width="1.00000000" fill="rgb(200, 230, 201)" opacity="1.0"/>
    <path d="M 173.06536865 182.06269836 C 166.26651001 182.17987061 158.32402039 182.80372620 149.99641418 182.28532410 C 141.34989929 182.20703125 136.62409973 182.43057251 126.84909821 181.94030762 C 118.27389526 182.48995972 113.12902069 182.90560913 104.10735321 182.18148804 C 94.27145386 181.66050720 88.31779480 181.92523193 78.99797058 183.17224121 C 69.74353027 184.76760864 67.67434692 174.70445251 78.51187134 174.25538635 C 90.39835358 173.76046753 91.30500793 174.57209778 98.77243042 174.11718750 C 109.80831909 174.44931030 115.06115723 174.31442261 122.43042755 174.46136475 C 133.27665710 173.49525452 136.68721008 174.94302368 146.74617004 174.62738037 C 154.58795166 175.07897949 161.72183228 173.17729187 170.43646240 174.11454773 C 179.49920654 173.49954224 185.32283020 182.82458496 173.06536865 182.06269836" stroke-width="1.00000000" fill="rgb(191, 68, 1)" opacity="1.0"/>
    <path d="M 176.60575867 188.21847534 C 176.26988220 191.34436035 176.23204041 193.63163757 176.01448059 196.86988831 C 175.76313782 200.36289978 175.62750244 201.74813843 175.29359436 205.97872925 C 175.24887085 208.58894348 175.07431030 212.14222717 174.88420105 214.89736938 C 174.23765564 218.23941040 175.47608948 221.45307922 172.90632629 222.72070312 C 169.55206299 223.26246643 168.17356873 220.77401733 168.81202698 216.75418091 C 169.50173950 212.46276855 169.13880920 212.16612244 169.48521423 209.42004395 C 169.72021484 205.12770081 169.91694641 203.32374573 170.03340149 200.53973389 C 170.03392029 196.86221313 170.52033997 194.20890808 170.60974121 191.03320312 C 170.94070435 187.52441406 169.84161377 184.74270630 172.15795898 182.64300537 C 176.44129944 181.88327026 177.34199524 184.72924805 176.60575867 188.21847534" stroke-width="1.00000000" fill="rgb(254, 166, 74)" opacity="1.0"/>
    <path d="M 119.36260223 69.63510895 C 118.94494629 69.33586884 117.84789276 69.03930664 116.26815796 68.68991852 C 115.02496338 68.55767059 114.70339203 67.82567596 114.68080902 66.32113647 C 114.56269073 64.77433777 114.30314636 64.25217438 113.71656799 62.99437714 C 113.09706116 61.26952744 112.67204285 61.14791870 112.25403595 59.50478363 C 112.75108337 58.73213959 114.76776886 59.70982361 115.63404083 59.81730270 C 117.90850830 60.67159271 117.38588715 60.40354156 118.72524261 60.83356094 C 120.13433838 60.92272568 121.65473938 61.55059052 121.75866699 62.42533875 C 122.17735291 64.16249847 121.87141418 64.95782471 122.17608643 66.19419861 C 122.40580750 67.41478729 122.58925629 68.97583008 122.67100525 69.83235931 C 122.32741547 71.27812958 121.29238892 69.89112854 119.36260223 69.63510895" stroke-width="1.00000000" fill="rgb(252, 253, 252)" opacity="1.0"/>
    <path d="M 122.44155884 67.55242920 C 122.30994415 66.22924805 122.43598175 66.20376587 122.13739777 64.52381134 C 122.03464508 63.48972702 121.70485687 62.60653305 122.07324219 61.58119202 C 123.26067352 61.13771820 123.95047760 61.27457428 125.14157867 61.28046799 C 126.91577911 61.43278503 126.69152832 62.45465088 126.75955963 63.50650787 C 126.80923462 64.90411377 127.05826569 65.72247314 127.03482819 67.00791931 C 127.10797882 69.10633087 127.16970825 68.70589447 127.28430939 69.93894196 C 127.33794403 71.34097290 127.37509918 72.40432739 127.17759705 73.37770081 C 126.87659454 75.02346802 126.32094574 74.60710144 125.18981171 73.58484650 C 124.09226227 72.56151581 124.11219788 72.37860107 123.25994110 71.10055542 C 122.76052094 69.89379120 122.86820221 69.11631775 122.44155884 67.55242920" stroke-width="1.00000000" fill="rgb(222, 194, 124)" opacity="1.0"/>
    <path d="M 179.45472717 177.67854309 C 179.46882629 178.56169128 179.40269470 178.74177551 179.21998596 179.82057190 C 178.98193359 180.66758728 179.08181763 181.12408447 178.19889832 181.28356934 C 177.27128601 181.28929138 177.08244324 181.28936768 175.96551514 181.27362061 C 175.37382507 181.14363098 174.48310852 181.26846313 173.83540344 180.98753357 C 173.76531982 179.98393250 173.86944580 179.75152588 174.08183289 178.82794189 C 174.31823730 177.62782288 174.20597839 177.92082214 174.29344177 176.98829651 C 174.47982788 176.15043640 174.07682800 175.46919250 174.76654053 175.31437683 C 175.65988159 175.33061218 176.12789917 175.33831787 176.86697388 175.25009155 C 177.73696899 175.24031067 178.32104492 175.14923096 178.91702271 175.50053406 C 179.26782227 176.09069824 179.33810425 176.93737793 179.45472717 177.67854309" stroke-width="1.00000000" fill="rgb(252, 170, 78)" opacity="1.0"/>
  </g>
</svg>
