<?xml version="1.0" ?>
<svg xmlns="http://www.w3.org/2000/svg" version="1.1" width="256" height="256" viewBox="0 0 256 256">
  <defs/>
  <g>
    <path d="M 174.09770203 218.66380310 C 172.21661377 226.27502441 158.01084900 224.24940491 149.18475342 223.97503662 C 139.70286560 223.73538208 132.23542786 223.95222473 120.95881653 223.86956787 C 112.97692108 224.25331116 102.07620239 224.41787720 93.04804993 223.81742859 C 81.25815582 225.03521729 75.76080322 222.13415527 77.94595337 207.27581787 C 78.19883728 202.52584839 76.56761169 188.87496948 79.69150543 180.88356018 C 87.56472015 173.84577942 92.37512207 174.41180420 101.48390961 174.88940430 C 113.93544769 174.91188049 119.40170288 174.84695435 130.19329834 174.61607361 C 141.70565796 174.53230286 147.83752441 175.09689331 158.37277222 175.05287170 C 171.93016052 174.48068237 175.65095520 178.60105896 174.12176514 189.39886475 C 174.07493591 198.32653809 176.12339783 209.39590454 174.09770203 218.66380310" stroke-width="1.06855607" fill="rgb(11, 4, 7)" opacity="1.0" stroke="rgb(9, 18, 28)" stroke-opacity="0.38394114" stroke-linecap="round" stroke-linejoin="round"/>
    <path d="M 172.06584167 219.83108521 C 165.24800110 222.44088745 156.83093262 219.45048523 146.45474243 219.55303955 C 136.81358337 219.61878967 129.33276367 220.19003296 115.83811951 219.76068115 C 108.72222900 220.68777466 100.79782867 220.99655151 87.77342224 222.90393066 C 74.18710327 223.78100586 75.91838074 224.04135132 76.05293274 208.29675293 C 75.98399353 203.55375671 73.88449860 186.88456726 76.27098083 181.29096985 C 83.19163513 176.27368164 87.92152405 177.97367859 97.63905334 179.81983948 C 105.65295410 179.64198303 113.09102631 180.62574768 126.43305969 181.61393738 C 134.48002625 180.41398621 142.86349487 180.30480957 155.65832520 179.13270569 C 169.91683960 177.28587341 174.65966797 178.80900574 172.82069397 190.42025757 C 172.26837158 202.15556335 174.80366516 210.57562256 172.06584167 219.83108521" stroke-width="1.19272637" fill="rgb(173, 72, 3)" opacity="1.0" stroke="rgb(0, 0, 26)" stroke-opacity="1.0" stroke-linecap="round" stroke-linejoin="round"/>
    <path d="M 160.78573608 222.06138611 C 154.62449646 222.22230530 150.80581665 222.91618347 142.73872375 223.14405823 C 137.35134888 223.07575989 131.16564941 223.52404785 125.11254120 222.94091797 C 117.95948029 222.40229797 112.94210815 222.22027588 107.17695618 221.79330444 C 97.75357056 221.59773254 96.40841675 223.90498352 86.68571472 222.60424805 C 82.13685608 217.99728394 93.44985199 219.50161743 97.95809174 219.99777222 C 108.85619354 220.50900269 108.40890503 219.96127319 114.78177643 219.51216125 C 123.49157715 219.45074463 127.13648987 219.91479492 133.56852722 219.34315491 C 142.39295959 217.60867310 144.90791321 218.37854004 152.72074890 218.65956116 C 159.86083984 219.93702698 164.67288208 218.23300171 171.91523743 218.55885315 C 179.17422485 222.65174866 168.50698853 223.04890442 160.78573608 222.06138611" stroke-width="0.63914412" fill="rgb(176, 72, 4)" opacity="1.0" stroke="rgb(132, 42, 0)" stroke-opacity="0.4454073" stroke-linecap="round" stroke-linejoin="round"/>
    <path d="M 123.12674713 142.90652466 C 123.21202850 151.28900146 124.12509155 162.07281494 129.88340759 173.36727905 C 133.78344727 188.64746094 123.35372925 178.67736816 120.88425446 166.01893616 C 116.97522736 154.15902710 118.33374023 145.83496094 119.40763855 131.44723511 C 121.35334015 119.35836792 123.17612457 112.41550446 126.44355774 98.81194305 C 125.83131409 86.18690491 126.55019379 79.72907257 125.69355011 63.21840668 C 126.98933411 48.38917160 127.50490570 49.41469193 125.03149414 34.85349274 C 122.45890045 13.30813599 133.93563843 27.04087830 134.33488464 40.27815628 C 136.33135986 53.78128815 133.54470825 61.99542999 131.03633118 73.34063721 C 129.40509033 84.85446167 130.24415588 95.66123962 128.17111206 106.07502747 C 126.59193420 121.24142456 123.96864319 124.19208527 123.12674713 142.90652466" stroke-width="1.60431957" fill="rgb(207, 165, 115)" opacity="1.0" stroke="rgb(6, 0, 0)" stroke-opacity="0.9042547" stroke-linecap="round" stroke-linejoin="round"/>
    <path d="M 96.93872070 118.67212677 C 99.23979187 118.17144775 100.93577576 117.96113586 103.44575500 117.65785980 C 106.19780731 117.55679321 108.04828644 117.53977203 110.26779175 117.82529449 C 112.89808655 118.35774231 114.65451813 118.44866943 117.01728058 119.14678192 C 119.93429565 119.91340637 121.51802826 120.08987427 123.81169128 120.92948151 C 125.96004486 122.37817383 125.43670654 124.97724915 122.36377716 124.13070679 C 118.96008301 122.81327057 119.55493164 122.58798218 117.67716980 121.37820435 C 114.23435211 120.05451965 114.28306580 120.26314545 110.53165436 120.05181885 C 107.99682617 119.99140167 107.07661438 119.73138428 103.74159241 120.54405212 C 100.87248230 121.16359711 100.27224731 121.53520203 97.09863281 121.84772491 C 93.16561890 121.42733002 94.08304596 119.09275818 96.93872070 118.67212677" stroke-width="1.65780973" fill="rgb(217, 169, 118)" opacity="1.0" stroke="rgb(85, 76, 62)" stroke-opacity="1.0" stroke-linecap="round" stroke-linejoin="round"/>
    <path d="M 152.29202271 96.08477783 C 149.41204834 95.63400269 147.63977051 95.78697205 144.52061462 96.21530151 C 141.59094238 96.87882996 139.52139282 96.92658997 136.61029053 97.57853699 C 133.32846069 98.08330536 131.47564697 98.68128967 129.02224731 100.20826721 C 125.39440155 101.87466431 124.11958313 99.14667511 127.14875793 97.90686035 C 130.82595825 96.06964111 132.33103943 95.72645569 135.04678345 95.04068756 C 139.18132019 93.98292542 138.99110413 93.76716614 141.38960266 92.96300507 C 144.94107056 92.02111816 146.98957825 92.15595245 150.07667542 92.17958069 C 153.11711121 92.21279907 154.27139282 92.17221069 158.29228210 92.70146942 C 161.67855835 93.29940033 163.78878784 95.78403473 160.81065369 97.08651733 C 158.16864014 97.76007843 155.30880737 96.63426208 152.29202271 96.08477783" stroke-width="1.54089272" fill="rgb(207, 163, 114)" opacity="1.0" stroke="rgb(90, 76, 60)" stroke-opacity="1.0" stroke-linecap="round" stroke-linejoin="round"/>
    <path d="M 121.95131683 75.92389679 C 120.53841400 75.25023651 118.16389465 74.80279541 115.28411102 74.99983978 C 112.71868896 75.44306183 111.01168060 75.46957397 108.18448639 76.36710358 C 105.61375427 76.83690643 103.39976501 77.59909058 101.29750824 77.66823578 C 99.83992004 75.99460602 99.52241516 73.82377625 101.73786163 72.47675323 C 103.76201630 71.59367371 105.94373322 70.65509033 108.74024200 69.48337555 C 111.56372070 68.72321320 112.07357025 68.69165039 114.63265991 68.23719788 C 116.80179596 67.78750610 119.40393066 67.51998901 122.16668701 68.67723083 C 125.14875031 69.95564270 126.19468689 70.56456757 128.36054993 72.25437927 C 130.60778809 73.64142609 132.45941162 76.45734406 129.73934937 77.68842316 C 127.69165039 78.28526306 124.75655365 77.57477570 121.95131683 75.92389679" stroke-width="1.83735096" fill="rgb(165, 145, 36)" opacity="1.0" stroke="rgb(231, 214, 64)" stroke-opacity="1.0" stroke-linecap="round" stroke-linejoin="round"/>
    <path d="M 108.81150055 127.65617371 C 106.55786896 130.99218750 105.77839661 131.93544006 100.93303680 134.95620728 C 98.32890320 136.27638245 94.84210968 137.55673218 89.87519836 137.08988953 C 86.71276855 136.60214233 83.27449799 135.88934326 79.52866364 132.17160034 C 77.26467896 129.97174072 75.50337982 127.02972412 74.67791748 122.09477997 C 74.41581726 119.16065216 74.56833649 113.78823853 76.73793793 110.74396515 C 79.03829956 107.07909393 80.83927917 105.07192230 83.38233948 103.85477448 C 87.76436615 101.51763916 90.81587982 100.92576599 94.80899048 101.39781189 C 98.46845245 101.85282898 102.59138489 103.17652130 105.55175781 105.99821472 C 107.83168030 107.85176086 109.66705322 110.80461121 111.24052429 115.63270569 C 111.83234406 119.36904144 111.30152130 121.39488220 108.81150055 127.65617371" stroke-width="1.76209843" fill="rgb(65, 143, 51)" opacity="1.0" stroke="rgb(14, 21, 10)" stroke-opacity="0.9318379" stroke-linecap="round" stroke-linejoin="round"/>
    <path d="M 120.12417603 68.02703094 C 114.39368439 64.90621185 113.67565918 64.21844482 107.57147217 57.62465286 C 104.68252563 52.46739960 100.75592804 48.69245911 99.85256195 42.48172760 C 98.50409698 34.98023987 101.00375366 29.00763321 103.89015198 25.11513138 C 109.69786072 17.49660110 112.46492004 16.32330894 118.30986786 13.74489784 C 126.95994568 11.92578506 131.46508789 12.19347954 136.65480042 13.70205688 C 147.15293884 18.46200752 144.40286255 16.48500443 150.26802063 22.28396225 C 154.98583984 28.73252487 156.89398193 33.24719620 157.53961182 39.26148605 C 157.86209106 45.12901688 156.50032043 52.73957825 153.47332764 56.91106415 C 149.59518433 62.36785126 145.21820068 65.60060120 138.99859619 68.54180908 C 131.44299316 70.76235962 130.68809509 70.88993835 120.12417603 68.02703094" stroke-width="0.70888913" fill="rgb(76, 152, 59)" opacity="1.0" stroke="rgb(0, 0, 0)" stroke-opacity="0.96031964" stroke-linecap="round" stroke-linejoin="round"/>
    <path d="M 186.14355469 97.16362762 C 186.10755920 99.47796631 184.22760010 104.84973907 180.87466431 109.33160400 C 177.30194092 113.59108734 173.13636780 116.59795380 168.49295044 117.70280457 C 163.82379150 119.08899689 158.11238098 119.30127716 153.63290405 117.17197418 C 148.86827087 115.81150818 144.61854553 112.44369507 141.70718384 107.96273804 C 139.17488098 102.91559601 137.99188232 98.36230469 138.67416382 92.52867889 C 139.81855774 87.04416656 140.34051514 84.50888062 143.53416443 80.74089050 C 148.16519165 75.72956085 149.74249268 73.90295410 155.84489441 71.14939117 C 159.93353271 69.81317139 163.84965515 68.63182068 170.44438171 71.37146759 C 175.68467712 73.54824829 177.58476257 75.19282532 182.15518188 80.50292206 C 184.64208984 85.11496735 186.22619629 88.00108337 186.14355469 97.16362762" stroke-width="0.53793609" fill="rgb(63, 137, 50)" opacity="1.0" stroke="rgb(0, 0, 0)" stroke-opacity="0.66205055" stroke-linecap="round" stroke-linejoin="round"/>
    <path d="M 98.85117340 93.97549438 C 96.87709808 94.81938171 91.31320190 94.61917877 87.06276703 92.80146027 C 83.53571320 91.14186096 80.41229248 88.53421021 77.97597504 83.92573547 C 76.12242889 78.66744995 75.44779968 77.62415314 76.57459259 71.41168213 C 77.02310181 67.92973328 78.76538086 63.73674774 82.46536255 59.68885422 C 85.83441162 56.76188278 87.33715057 55.27879333 93.64524841 53.44098663 C 101.51327515 53.25001526 99.19791412 52.70692444 104.73612976 55.01011658 C 109.86081696 58.01625824 112.04478455 59.85723877 114.65201569 63.76542664 C 116.90216827 67.46049500 118.32530212 73.20317841 117.73481750 76.01745605 C 116.81398010 81.22764587 114.37090302 84.63320923 111.50977325 87.32508850 C 108.53531647 90.16189575 104.80834198 92.13346100 98.85117340 93.97549438" stroke-width="1.56064141" fill="rgb(97, 171, 73)" opacity="1.0" stroke="rgb(8, 9, 7)" stroke-opacity="0.8931597" stroke-linecap="round" stroke-linejoin="round"/>
    <path d="M 153.01454163 70.82136536 C 150.40428162 71.76681519 145.92692566 70.98720551 142.53512573 69.55467987 C 139.35522461 67.32235718 137.26564026 65.68215942 136.00164795 62.00691986 C 134.75271606 57.29367828 134.52566528 53.90890884 135.30072021 51.44239426 C 136.30911255 46.51633835 138.80418396 43.29784393 140.80244446 41.35313416 C 144.20874023 38.72250366 146.90502930 37.41291046 151.55107117 36.38090515 C 158.10295105 36.28485107 156.72251892 35.92595673 161.19538879 37.83636475 C 165.35162354 40.25305176 167.44256592 42.80213165 169.16386414 46.12017441 C 170.76831055 50.68487549 170.85128784 53.49352264 170.24928284 57.60118866 C 167.84417725 62.40680695 167.28450012 63.02069855 164.06309509 65.93224335 C 159.96688843 68.99824524 157.05699158 70.25460815 153.01454163 70.82136536" stroke-width="1.40866256" fill="rgb(100, 175, 76)" opacity="1.0" stroke="rgb(23, 16, 22)" stroke-opacity="1.0" stroke-linecap="round" stroke-linejoin="round"/>
    <path d="M 119.66717529 95.22052002 C 117.47126007 96.20507050 114.23762512 96.68228149 111.47317505 96.33035278 C 108.92620087 95.93865967 106.27325439 94.98119354 104.18942261 92.40509033 C 102.88821411 90.84948730 101.20867157 88.44602203 101.08766174 84.95123291 C 101.10227966 81.93754578 101.00075531 80.62614441 103.01767731 76.72289276 C 105.22819519 74.01878357 105.58192444 73.55054474 109.58823395 71.40295410 C 114.06919861 70.36732483 113.08405304 70.04875946 116.41953278 70.37680817 C 119.73302460 70.80308533 122.79797363 72.38535309 124.24761963 73.59873962 C 127.12113953 76.42337036 127.98678589 78.89960480 127.91230774 81.27663422 C 127.81921387 83.90459442 127.17926788 87.14408875 126.01231384 89.54252625 C 124.68801117 92.06452942 122.47809601 93.90029144 119.66717529 95.22052002" stroke-width="1.42502022" fill="rgb(103, 176, 81)" opacity="1.0" stroke="rgb(19, 14, 21)" stroke-opacity="0.95943904" stroke-linecap="round" stroke-linejoin="round"/>
    <path d="M 153.90202332 84.42240906 C 152.16215515 86.01651764 148.54579163 87.52047729 145.29098511 87.92618561 C 142.17927551 88.25000000 138.90754700 87.90257263 136.06362915 86.33946991 C 133.90081787 84.92514038 130.76762390 83.03124237 129.77030945 79.86809540 C 128.27467346 77.15418243 128.08448792 73.79335022 128.97703552 70.56285095 C 130.57164001 66.64366913 132.05773926 64.58964539 134.11500549 62.57853699 C 138.94583130 59.37947464 137.41789246 59.71508026 141.54556274 58.78438568 C 145.53648376 58.16809464 148.17156982 58.48258972 151.27587891 59.93552399 C 154.23518372 61.51971436 157.04612732 64.50775909 157.92156982 66.62091064 C 159.49723816 70.02947235 159.44572449 73.11823273 159.08390808 76.15287781 C 158.62057495 79.26672363 156.75961304 82.16973114 153.90202332 84.42240906" stroke-width="1.39962351" fill="rgb(102, 179, 76)" opacity="1.0" stroke="rgb(11, 1, 8)" stroke-opacity="0.9235905" stroke-linecap="round" stroke-linejoin="round"/>
    <path d="M 117.73332214 107.02138519 C 117.28146362 107.26131439 115.78500366 107.68782806 114.99833679 107.95244598 C 113.68788910 108.13914490 112.62287140 108.64176941 112.41317749 107.66860199 C 112.14079285 106.53986359 112.04361725 105.61108398 112.13157654 104.55242157 C 112.19300842 103.27828217 112.54582977 102.35993195 112.91529083 101.32203674 C 113.39984894 100.41977692 113.90098572 99.79424286 115.14836121 98.99830627 C 116.42658234 98.43681335 116.49248505 98.32855225 117.54031372 97.90827942 C 118.65129852 97.33132935 119.60266876 97.96240997 120.27674103 98.83636475 C 121.01377106 100.24012756 120.99807739 100.63971710 120.91264343 101.72348785 C 120.94504547 102.66123199 120.64372253 103.93962097 120.22743225 104.73461151 C 119.72711945 105.87532043 119.17180634 106.06110382 117.73332214 107.02138519" stroke-width="0.43801713" fill="rgb(255, 255, 255)" opacity="1.0" stroke="rgb(248, 247, 247)" stroke-opacity="0.027502658" stroke-linecap="round" stroke-linejoin="round"/>
    <path d="M 133.53408813 33.06446457 C 133.57077026 32.71409225 133.49600220 31.97893333 133.42172241 31.10783768 C 133.49134827 30.51400566 133.10586548 29.63504410 133.85490417 29.43487358 C 134.62409973 29.24711990 135.41893005 29.02387619 135.96643066 28.92391396 C 137.00988770 28.70743561 137.68229675 28.95495987 138.29837036 29.12635231 C 139.08731079 29.49601746 139.54592896 30.19428825 139.82353210 30.83819771 C 140.07789612 32.22673798 140.07440186 31.88603020 139.99104309 32.68403244 C 139.89045715 33.40146255 139.30020142 34.41311646 138.94973755 34.85489273 C 138.08055115 35.62503052 137.68667603 35.83682251 136.93795776 35.80775833 C 136.37242126 35.80723572 135.45530701 35.56213760 134.80821228 35.18817902 C 134.02833557 34.84646988 133.86302185 34.36827469 133.53408813 33.06446457" stroke-width="0.00000000" fill="rgb(83, 156, 62)" opacity="1.0" stroke="rgb(212, 255, 191)" stroke-opacity="0.0" stroke-linecap="round" stroke-linejoin="round"/>
    <path d="M 170.80793762 181.60514832 C 166.27227783 181.52958679 159.45816040 181.56039429 149.43801880 181.51792908 C 142.11018372 181.66844177 136.26065063 182.02758789 125.86889648 181.31359863 C 118.19709015 181.45945740 112.59928894 182.10298157 103.66310883 181.70332336 C 93.92429352 181.15681458 87.84941864 181.53276062 78.03450775 182.01943970 C 69.49395752 182.97604370 68.54725647 174.07955933 78.43783569 175.69927979 C 90.78907776 175.65864563 90.71649170 176.39004517 98.64022827 175.83102417 C 110.00515747 175.62942505 113.96876526 175.78807068 121.54981995 175.98483276 C 131.19915771 175.16165161 135.83926392 176.34733582 146.18841553 175.82044983 C 154.99848938 176.27671814 161.34992981 175.11518860 169.38191223 175.85450745 C 179.63586426 175.56002808 184.27105713 181.64163208 170.80793762 181.60514832" stroke-width="1.81774688" fill="rgb(189, 72, 3)" opacity="1.0" stroke="rgb(18, 13, 15)" stroke-opacity="0.91351557" stroke-linecap="round" stroke-linejoin="round"/>
    <path d="M 176.40975952 188.83801270 C 176.07775879 192.23791504 176.17346191 193.24821472 175.79315186 197.26556396 C 175.63246155 200.33204651 175.41246033 202.00671387 175.06861877 206.32563782 C 175.18029785 208.47338867 174.83982849 212.51213074 174.73309326 215.04341125 C 173.99133301 218.42272949 175.35551453 221.99929810 172.93438721 222.67507935 C 169.42155457 222.89762878 167.53401184 220.84707642 169.09764099 217.07630920 C 170.16271973 212.96969604 169.62796021 212.54856873 170.14888000 209.90502930 C 170.21740723 205.81683350 170.41899109 203.82119751 170.53802490 201.22508240 C 170.31018066 197.72900391 170.81904602 194.70809937 170.75341797 191.66722107 C 171.04885864 188.36851501 169.90773010 185.56915283 172.19413757 183.41333008 C 176.05834961 182.56227112 177.26138306 184.51560974 176.40975952 188.83801270" stroke-width="1.81244481" fill="rgb(251, 169, 78)" opacity="1.0" stroke="rgb(111, 50, 12)" stroke-opacity="1.0" stroke-linecap="round" stroke-linejoin="round"/>
    <path d="M 119.57579041 69.72443390 C 118.96469116 69.38899994 117.94761658 69.06228638 116.27613831 68.66352081 C 114.94689941 68.51745605 114.74332428 67.63643646 115.00210571 66.17971039 C 115.02726746 64.56134796 114.66003418 64.04266357 113.90995026 62.70459747 C 113.20893097 61.08056641 112.59156036 60.75660706 111.76288605 59.28688812 C 112.21739960 58.82073975 114.25865173 59.99593735 115.22002411 60.10456848 C 117.54027557 61.01549911 117.04277802 60.79679871 118.41014862 61.20846939 C 119.82552338 61.32180786 121.54600525 61.46578217 121.80133820 62.38695908 C 122.31738281 64.05628967 122.03061676 64.97241974 122.32345581 66.33499146 C 122.53960419 67.69886780 122.58159637 69.30926514 122.72670746 70.04303741 C 122.57032776 71.55081940 121.39898682 69.94038391 119.57579041 69.72443390" stroke-width="1.49091280" fill="rgb(248, 248, 248)" opacity="1.0" stroke="rgb(26, 29, 23)" stroke-opacity="1.0" stroke-linecap="round" stroke-linejoin="round"/>
    <path d="M 126.19087219 68.31154633 C 126.13190460 67.66936493 125.98279572 67.11890411 125.77648926 66.10530853 C 125.62978363 65.27429962 125.36706543 64.53081512 125.05876923 63.55558395 C 125.49136353 63.15861893 126.08084106 63.58750534 127.16620636 63.64839554 C 128.44654846 63.98133087 127.73309326 64.45124817 127.37189484 65.35936737 C 126.94023895 66.45661926 127.40038300 67.13027954 127.46619415 68.07525635 C 127.95674896 69.64598083 127.85797882 69.32914734 128.32743835 70.22903442 C 128.89767456 71.19749451 129.29843140 71.66652679 129.27458191 72.74898529 C 128.99017334 74.02436829 128.16514587 74.02825928 127.51567078 73.36485291 C 126.90740967 72.85977173 126.69130707 72.27254486 126.55312347 71.17343140 C 126.48848724 70.10726166 126.50717163 69.96057129 126.19087219 68.31154633" stroke-width="1.81099653" fill="rgb(63, 48, 37)" opacity="1.0" stroke="rgb(255, 211, 204)" stroke-opacity="0.4948985" stroke-linecap="round" stroke-linejoin="round"/>
    <path d="M 179.15293884 178.05667114 C 179.11578369 178.88265991 179.03665161 178.97937012 178.93391418 180.06579590 C 178.79002380 180.70188904 179.04899597 181.45051575 178.28353882 181.52517700 C 177.57423401 181.42633057 177.22860718 181.43887329 176.24888611 181.43719482 C 175.63349915 181.37475586 174.68560791 181.54264832 174.25497437 181.32800293 C 174.29635620 180.32666016 174.39675903 180.24697876 174.61817932 179.27296448 C 174.82531738 178.20274353 174.73890686 178.42895508 174.73007202 177.53724670 C 174.82214355 176.64784241 174.39334106 176.19924927 174.96633911 175.99668884 C 175.75772095 176.00773621 176.19422913 176.03880310 176.89213562 175.87614441 C 177.73280334 175.80499268 178.29124451 175.67463684 178.81355286 175.95021057 C 179.13433838 176.50860596 179.09822083 177.39254761 179.15293884 178.05667114" stroke-width="1.94223702" fill="rgb(255, 175, 89)" opacity="1.0" stroke="rgb(67, 30, 18)" stroke-opacity="1.0" stroke-linecap="round" stroke-linejoin="round"/>
  </g>
</svg>
