<?xml version="1.0" ?>
<svg xmlns="http://www.w3.org/2000/svg" version="1.1" width="256" height="256" viewBox="0 0 256 256">
  <defs/>
  <g>
    <path d="M 174.10719299 221.56544495 C 172.91099548 225.32148743 162.56079102 223.66308594 149.48548889 224.03993225 C 140.71095276 223.80755615 133.43928528 223.97593689 120.49688721 223.95558167 C 112.94914246 224.19343567 103.48881531 224.10726929 92.31162262 223.86552429 C 80.14968109 225.00929260 74.49404907 222.27264404 76.20852661 209.58648682 C 76.10260010 200.77165222 75.30050659 190.57192993 79.81613922 182.11250305 C 87.16364288 175.44578552 92.08204651 173.55311584 101.15515137 174.91711426 C 113.26545715 175.09411621 120.55418396 174.69520569 130.17059326 174.52145386 C 141.03491211 174.50437927 150.72529602 174.83326721 158.30911255 174.71775818 C 171.21752930 175.10043335 178.15876770 178.60942078 176.40850830 190.25602722 C 176.10671997 197.80709839 177.98396301 206.13670349 174.10719299 221.56544495" stroke-width="0.99849057" fill="rgb(6, 0, 6)" opacity="1.0" stroke="rgb(0, 0, 3)" stroke-opacity="0.41100433" stroke-linecap="round" stroke-linejoin="round"/>
    <path d="M 170.82888794 217.15332031 C 165.08572388 217.27685547 159.07209778 214.62580872 146.03800964 215.17843628 C 137.30172729 215.23484802 129.16372681 215.59048462 117.20913696 214.91307068 C 107.56785583 215.67816162 101.87972260 217.40176392 89.89447021 220.58834839 C 76.12158203 223.65946960 76.07628632 227.07273865 76.50825500 211.47471619 C 76.25614166 206.27484131 75.07447052 190.05438232 75.44629669 183.82202148 C 79.61038208 175.55792236 85.93840027 178.66629028 94.07339478 180.32150269 C 103.88819122 180.09535217 112.07183838 181.20838928 122.23857880 181.78733826 C 130.58987427 181.44303894 140.64067078 180.81745911 151.01199341 180.09002686 C 164.99092102 179.42584229 171.24304199 180.08044434 171.82580566 191.07026672 C 171.96058655 203.73129272 176.11061096 212.91664124 170.82888794 217.15332031" stroke-width="1.59760308" fill="rgb(178, 74, 1)" opacity="1.0" stroke="rgb(6, 0, 2)" stroke-opacity="0.8900654" stroke-linecap="round" stroke-linejoin="round"/>
    <path d="M 158.08830261 222.39620972 C 153.82824707 222.29220581 150.39242554 222.46948242 140.70068359 222.54873657 C 133.60440063 222.13508606 127.39069366 222.63276672 120.11291504 222.39247131 C 110.05570984 222.17524719 108.53325653 222.81903076 98.58477020 222.36314392 C 92.17481995 222.02658081 85.47853088 224.19947815 77.93075562 220.10301208 C 75.45041656 211.56764221 78.84885406 213.00291443 89.61110687 213.76515198 C 98.09772491 214.33961487 101.00209808 214.22880554 106.09411621 214.27059937 C 114.75341034 214.17924500 120.58310699 214.48747253 126.80503845 213.87028503 C 135.27258301 212.40551758 140.05635071 213.46234131 148.32777405 213.20445251 C 155.49285889 213.80078125 162.83967590 211.92207336 169.45565796 213.94082642 C 175.11732483 219.40142822 172.24391174 223.74751282 158.08830261 222.39620972" stroke-width="0.58214277" fill="rgb(176, 69, 3)" opacity="1.0" stroke="rgb(177, 71, 23)" stroke-opacity="0.5290135" stroke-linecap="round" stroke-linejoin="round"/>
    <path d="M 123.17960358 144.98696899 C 123.23023224 154.40600586 124.54518127 163.97746277 130.83479309 174.74948120 C 131.54750061 186.15509033 122.51276398 177.28668213 120.64213562 164.72775269 C 117.21884155 152.76588440 118.31204224 145.90252686 119.38591766 131.92475891 C 121.08876038 120.29312134 123.25459290 113.99673462 126.33106232 98.73242950 C 126.28948975 85.98582458 125.83478546 80.34506989 124.08446503 64.94895935 C 124.37353516 49.78321075 125.59548950 52.22722626 119.88356781 38.82945251 C 115.11160278 20.43921661 127.34977722 31.88983154 131.07989502 44.78871536 C 135.27307129 57.72845840 132.12139893 65.78980255 129.95144653 77.57799530 C 129.10363770 88.67202759 131.05952454 97.12354279 127.71456146 108.86377716 C 125.96120453 120.72929382 123.65885925 127.36063385 123.17960358 144.98696899" stroke-width="1.64924932" fill="rgb(207, 164, 118)" opacity="1.0" stroke="rgb(7, 2, 0)" stroke-opacity="0.8908772" stroke-linecap="round" stroke-linejoin="round"/>
    <path d="M 99.32411194 118.41066742 C 101.54853821 117.94915771 103.12252808 117.30129242 105.27018738 117.00590515 C 107.72397614 116.66590881 109.65812683 117.13558960 111.84920502 117.74759674 C 114.48713684 118.42600250 116.38091278 118.71728516 118.39013672 119.45722198 C 120.60244751 119.92488098 122.66407013 120.14444733 124.64254761 120.98251343 C 124.75311279 122.58170319 125.85544586 125.32262421 123.25773621 124.57710266 C 120.03437805 123.29578400 120.27850342 123.24169159 118.67231750 122.03309631 C 115.61595917 120.56025696 115.73958588 120.53558350 112.46518707 120.07132721 C 110.05480194 119.71025848 108.61044312 119.35801697 105.75630188 120.54364777 C 104.05006409 121.24161530 102.27173615 122.34536743 99.78603363 121.77523804 C 97.51173401 120.09430695 95.89973450 119.13086700 99.32411194 118.41066742" stroke-width="1.59306037" fill="rgb(212, 168, 117)" opacity="1.0" stroke="rgb(90, 72, 54)" stroke-opacity="1.0" stroke-linecap="round" stroke-linejoin="round"/>
    <path d="M 149.99279785 96.61735535 C 146.99746704 96.18948364 145.77577209 95.90881348 142.89643860 96.45314789 C 140.12789917 97.33659363 137.92462158 97.18662262 135.31097412 97.81868744 C 132.00079346 98.59419250 130.85159302 98.95246124 128.57447815 100.47579956 C 125.40849304 101.94919586 124.59092712 99.15421295 127.21017456 97.81661224 C 130.46771240 96.48345184 133.03747559 95.63497162 134.86041260 95.18061066 C 138.83258057 94.09057617 138.80294800 94.07801056 140.55516052 92.53921509 C 142.98394775 90.86668396 145.49964905 91.47975922 148.42935181 91.37799835 C 150.56649780 91.55981445 152.91955566 91.47734070 155.90834045 92.20224762 C 159.33123779 93.38934326 160.96171570 95.10816956 158.33932495 96.68271637 C 154.94473267 98.25074005 152.28956604 97.41445160 149.99279785 96.61735535" stroke-width="1.53192902" fill="rgb(216, 170, 121)" opacity="1.0" stroke="rgb(83, 72, 59)" stroke-opacity="1.0" stroke-linecap="round" stroke-linejoin="round"/>
    <path d="M 122.81314850 78.00523376 C 121.55625153 77.60939026 119.37001038 77.35555267 117.17394257 77.47524261 C 115.12541199 77.65305328 113.28266144 77.74761963 111.12397003 77.66929626 C 108.76867676 77.29107666 106.72787476 76.80869293 105.51150513 77.02045441 C 104.93570709 75.89761353 104.98001862 74.42166901 105.97642517 72.90658569 C 107.42897034 71.92925262 109.25309753 70.98447418 111.41684723 70.11117554 C 113.66179657 69.36767578 114.21848297 69.32134247 116.13143158 68.63931274 C 118.09432983 68.06516266 119.95033264 67.36044312 122.25888062 69.00254059 C 124.39347839 70.44184113 125.27684021 71.60207367 127.02335358 72.94123840 C 128.91969299 74.27167511 130.32537842 75.87826538 129.05470276 77.71238708 C 127.93981934 78.73265839 125.59968567 79.14608002 122.81314850 78.00523376" stroke-width="1.49100149" fill="rgb(111, 118, 46)" opacity="1.0" stroke="rgb(255, 255, 87)" stroke-opacity="1.0" stroke-linecap="round" stroke-linejoin="round"/>
    <path d="M 110.17008972 125.41786957 C 109.74292755 126.26332855 107.41989136 130.76898193 103.65100098 133.62266541 C 100.57389832 135.82446289 98.52487183 136.69427490 93.36017609 137.33908081 C 87.85044098 137.21124268 87.18132782 137.47779846 81.85658264 134.44079590 C 79.42222595 132.89009094 76.59083557 129.90280151 75.07801819 125.12020874 C 74.34617615 122.67292786 73.65737915 117.94054413 75.42878723 113.21228027 C 77.02697754 109.97023010 77.86339569 107.61399841 80.55143738 105.70984650 C 84.10695648 102.67896271 87.19445038 101.40290833 91.60243988 101.10231018 C 94.85919189 100.94783020 98.87722015 101.15710449 102.89698792 103.71130371 C 106.69744110 106.26824951 107.92801666 107.70169830 110.39189148 112.33250427 C 111.67657471 115.86337280 111.88315582 118.52074432 110.17008972 125.41786957" stroke-width="1.49024880" fill="rgb(64, 141, 50)" opacity="1.0" stroke="rgb(10, 13, 8)" stroke-opacity="0.94350904" stroke-linecap="round" stroke-linejoin="round"/>
    <path d="M 119.00761414 66.87080383 C 114.99334717 64.95809937 112.52683258 62.21058273 107.68763733 56.55610275 C 104.57038879 50.51505280 100.52848053 47.49246979 100.29954529 41.81393814 C 99.72059631 35.04757690 101.68659973 28.83531570 104.74371338 25.17411804 C 110.45597076 18.01486206 112.81854248 17.08398438 119.52703094 14.31260109 C 127.54619598 12.60404778 131.43702698 13.04155350 136.76972961 14.44641304 C 146.62028503 19.17955399 144.33491516 17.53893089 149.82786560 22.92198944 C 154.29515076 28.87603188 156.15467834 33.53598022 156.72683716 39.72557068 C 156.85482788 44.81590652 155.41963196 51.86460876 151.85975647 56.52287674 C 148.34239197 61.26482773 143.83064270 65.07255554 137.96998596 67.59399414 C 133.45013428 69.30981445 128.22235107 70.60559082 119.00761414 66.87080383" stroke-width="1.53212428" fill="rgb(75, 157, 62)" opacity="1.0" stroke="rgb(2, 6, 0)" stroke-opacity="0.89512664" stroke-linecap="round" stroke-linejoin="round"/>
    <path d="M 185.06202698 93.47692871 C 185.55490112 95.71050262 184.47027588 100.82820892 181.99356079 105.62133026 C 179.47457886 109.98499298 175.53889465 114.02268982 171.24095154 115.52748108 C 166.13305664 117.51542664 161.13374329 118.38822937 157.11872864 117.12932587 C 152.00216675 116.29135895 148.56130981 114.07290649 144.60476685 110.02987671 C 141.09751892 105.01143646 139.32638550 100.86854553 139.71319580 96.17913818 C 140.28862000 90.05240631 140.31892395 88.08663177 142.36941528 83.86962128 C 145.57246399 78.82714081 146.59518433 76.96041107 152.36642456 72.95263672 C 155.10043335 71.54460144 160.77690125 69.51795959 166.57443237 71.32421875 C 171.00460815 72.28495026 174.29565430 73.82687378 178.77099609 78.17319489 C 182.06704712 82.13220215 184.19436646 85.75553894 185.06202698 93.47692871" stroke-width="1.54324746" fill="rgb(65, 142, 53)" opacity="1.0" stroke="rgb(12, 17, 12)" stroke-opacity="0.9706448" stroke-linecap="round" stroke-linejoin="round"/>
    <path d="M 99.07425690 93.91365814 C 96.87551880 94.69076538 91.28073120 94.61164856 87.16648102 92.79256439 C 83.81366730 91.25019073 79.77555847 88.02890015 77.86396790 83.54756927 C 76.63079834 80.57389069 75.21694946 76.24930573 76.65785217 70.89721680 C 77.10441589 67.85874176 78.97631836 63.27638245 82.99134827 58.99580383 C 85.33070374 56.91826248 88.55725861 54.47727203 94.87438202 53.31624603 C 99.65718842 53.36809540 101.30698395 52.87812042 105.06849670 55.14260101 C 109.81388855 57.83737564 112.96413422 60.63594818 115.26958466 63.85855103 C 117.99961090 68.11895752 119.39604950 72.84062195 118.57493591 76.26633453 C 117.53197479 80.65846252 114.94375610 84.66999054 111.84720612 87.38997650 C 108.79028320 90.25801086 105.10970306 91.91421509 99.07425690 93.91365814" stroke-width="1.57953382" fill="rgb(98, 174, 77)" opacity="1.0" stroke="rgb(6, 7, 5)" stroke-opacity="0.9117667" stroke-linecap="round" stroke-linejoin="round"/>
    <path d="M 151.21751404 69.83567810 C 147.71018982 70.26170349 144.31517029 69.30372620 141.46990967 67.95505524 C 138.60050964 65.72217560 137.43963623 63.84666061 135.94047546 60.15823746 C 134.49685669 56.13805008 134.43551636 52.06491470 135.78529358 49.65727234 C 137.13101196 45.25172806 139.89927673 42.29484177 142.39427185 40.32241058 C 145.73709106 37.78419113 148.07995605 36.96640015 153.05345154 36.24830627 C 159.56900024 36.84945679 158.43078613 36.38435364 162.11686707 38.49606705 C 165.81092834 40.79407501 168.30622864 43.99471283 169.77899170 47.55962753 C 170.98454285 52.69899750 170.99200439 53.57427216 169.71635437 58.87042999 C 167.81773376 62.06911469 166.59216309 64.04595184 162.57290649 67.02487183 C 157.99627686 69.41970825 155.52149963 69.66575623 151.21751404 69.83567810" stroke-width="1.42165840" fill="rgb(97, 174, 75)" opacity="1.0" stroke="rgb(19, 18, 18)" stroke-opacity="0.9700655" stroke-linecap="round" stroke-linejoin="round"/>
    <path d="M 119.99059296 95.24128723 C 119.36196899 95.66531372 115.91761780 96.62552643 112.86312866 96.48188782 C 110.42028809 96.26354218 107.21943665 95.65037537 104.96183777 93.33940125 C 103.36569977 91.60411072 101.82822418 89.93467712 101.16491699 86.19657135 C 100.86496735 83.71000671 100.66561890 81.66113281 102.37089539 77.80152130 C 103.77876282 75.74855042 105.01924133 73.99418640 108.58409119 71.88465118 C 111.28753662 70.91696167 112.65170288 70.16474915 114.91481781 70.44879150 C 118.09256744 70.54125214 120.96621704 71.25429535 123.45636749 73.14985657 C 126.18190765 75.34284210 127.56862640 77.75759888 127.88849640 80.03092194 C 128.04029846 82.50182343 127.61097717 85.18543243 126.55158997 88.55440521 C 125.65902710 90.62294006 124.23346710 92.46818542 119.99059296 95.24128723" stroke-width="1.42741704" fill="rgb(103, 177, 81)" opacity="1.0" stroke="rgb(13, 12, 13)" stroke-opacity="0.9485331" stroke-linecap="round" stroke-linejoin="round"/>
    <path d="M 154.71345520 83.77943420 C 152.86502075 85.72996521 149.13107300 87.29468536 146.22195435 87.74090576 C 142.62330627 88.12041473 139.87077332 88.10800934 136.87944031 86.65605164 C 134.86082458 85.49553680 131.60125732 83.94060516 130.24012756 80.73320007 C 128.67652893 78.35021210 128.32716370 75.25084686 128.91967773 71.47782135 C 130.08203125 67.76637268 130.70497131 66.27458954 133.36639404 63.29617691 C 138.11549377 59.78237915 136.64183044 60.20643234 140.38008118 59.05149078 C 143.86125183 58.06293488 147.33445740 58.32046127 150.47087097 59.51709747 C 153.83229065 61.06398392 156.37939453 63.56174469 157.42034912 65.66416168 C 159.17233276 68.96591949 159.59434509 72.21597290 159.31390381 75.17390442 C 158.97604370 78.36339569 157.03651428 81.78123474 154.71345520 83.77943420" stroke-width="1.35658574" fill="rgb(101, 177, 79)" opacity="1.0" stroke="rgb(14, 11, 15)" stroke-opacity="0.9785368" stroke-linecap="round" stroke-linejoin="round"/>
    <path d="M 118.47325134 107.86621857 C 118.02269745 108.00303650 116.46232605 108.46421051 115.65036774 108.81639862 C 114.25427246 108.90911865 113.70101929 109.51453400 112.97234344 109.16678619 C 113.00429535 108.06618500 113.00518036 107.18046570 112.95355988 105.87127686 C 112.88916016 104.54573822 112.90291595 103.49954987 113.17432404 102.53797150 C 113.67992401 101.52908325 114.17826843 101.18896484 115.40685272 100.11817932 C 116.42086029 99.53241730 116.78515625 99.23584747 117.55651855 98.86381531 C 118.42816162 98.35540009 119.71841431 99.27787781 120.47816467 99.77776337 C 121.47505951 100.81110382 120.99389648 101.43006897 120.88723755 102.55056763 C 120.83034515 103.49416351 120.90740204 104.72484589 121.07516479 105.76995087 C 120.98444366 106.89351654 119.97657013 106.95889282 118.47325134 107.86621857" stroke-width="0.54030865" fill="rgb(255, 255, 255)" opacity="1.0" stroke="rgb(255, 255, 255)" stroke-opacity="0.0" stroke-linecap="round" stroke-linejoin="round"/>
    <path d="M 133.14955139 30.63130379 C 133.14955139 30.63178253 133.14974976 30.63295937 133.14990234 30.63434410 C 133.14985657 30.63575363 133.15002441 30.63621330 133.14912415 30.63695145 C 133.14826965 30.63760567 133.14707947 30.63793564 133.14576721 30.63790703 C 133.14463806 30.63803101 133.14326477 30.63756180 133.14218140 30.63715935 C 133.14093018 30.63664436 133.14009094 30.63591576 133.13948059 30.63480568 C 133.13896179 30.63274384 133.13899231 30.63314819 133.13937378 30.63201523 C 133.13986206 30.63085747 133.14062500 30.62966537 133.14137268 30.62867165 C 133.14273071 30.62741661 133.14295959 30.62709618 133.14422607 30.62663841 C 133.14541626 30.62643814 133.14657593 30.62703514 133.14749146 30.62778664 C 133.14852905 30.62849808 133.14900208 30.62937164 133.14955139 30.63130379" stroke-width="2.00000000" fill="rgb(64, 202, 0)" opacity="1.0" stroke="rgb(75, 158, 59)" stroke-opacity="0.6253192" stroke-linecap="round" stroke-linejoin="round"/>
    <path d="M 172.15145874 181.45536804 C 166.06546021 181.90290833 161.93931580 181.34600830 150.08653259 181.57611084 C 143.57870483 181.61401367 136.98495483 181.80259705 126.25938416 181.41558838 C 119.72834778 181.45935059 113.25675201 181.94245911 103.58878326 181.64627075 C 94.40406799 181.23590088 87.67835999 181.51490784 77.41812897 181.94067383 C 69.88360596 183.20823669 68.80279541 173.94538879 78.13408661 175.77919006 C 90.54698181 175.58393860 89.91082764 176.19105530 98.83235168 175.84474182 C 109.95554352 175.79000854 111.75573730 175.46800232 121.42787170 176.04879761 C 130.40367126 175.35162354 135.73466492 176.24813843 145.88873291 175.77604675 C 155.48907471 176.28524780 161.60391235 175.68353271 169.27416992 175.69824219 C 179.70629883 175.00317383 183.75624084 179.98658752 172.15145874 181.45536804" stroke-width="1.81154633" fill="rgb(190, 69, 4)" opacity="1.0" stroke="rgb(20, 12, 17)" stroke-opacity="0.9113571" stroke-linecap="round" stroke-linejoin="round"/>
    <path d="M 176.42887878 189.07424927 C 176.10713196 192.82627869 176.17639160 192.82765198 175.79846191 197.45494080 C 175.64723206 200.28610229 175.34353638 202.37829590 175.03459167 206.65820312 C 175.18168640 208.76191711 174.84892273 212.74589539 174.74559021 215.32408142 C 174.01568604 218.79853821 175.47477722 222.65499878 172.82307434 222.76029968 C 169.16026306 222.77943420 167.60588074 220.81077576 169.01449585 216.94534302 C 170.10505676 212.63565063 169.52738953 212.34333801 170.05213928 209.71820068 C 170.14993286 206.20364380 170.32629395 203.73312378 170.47839355 200.89349365 C 170.18141174 198.04823303 170.70027161 195.14520264 170.65783691 191.79403687 C 170.98930359 188.69810486 169.83166504 185.39767456 172.13381958 183.30661011 C 176.27735901 182.23063660 177.21414185 184.28662109 176.42887878 189.07424927" stroke-width="1.75725269" fill="rgb(250, 162, 79)" opacity="1.0" stroke="rgb(101, 41, 11)" stroke-opacity="0.86372155" stroke-linecap="round" stroke-linejoin="round"/>
    <path d="M 119.41837311 69.68815613 C 118.95500946 69.37113953 117.87719727 69.10140991 116.18543243 68.67161560 C 114.70847321 68.39521790 114.94507599 67.42323303 115.03369141 66.16083527 C 115.06582642 64.62667847 114.49095154 63.53243256 113.96968842 62.68344116 C 113.11233521 60.85700989 112.60872650 60.82978058 111.88256073 59.19178009 C 112.30096436 58.76053619 114.24661255 60.09465027 115.23853302 60.16522598 C 117.48773193 61.04410172 117.06593323 60.83948135 118.40103149 61.22455978 C 119.84107208 61.37877274 121.56509399 61.53136063 121.82822418 62.39468384 C 122.39894867 64.27529144 122.14782715 64.93737030 122.39066315 66.25806427 C 122.57608795 68.04643250 122.51372528 68.82739258 122.71765900 70.03353882 C 122.41120911 71.51676941 121.51744843 70.11668396 119.41837311 69.68815613" stroke-width="1.50696516" fill="rgb(249, 247, 249)" opacity="1.0" stroke="rgb(24, 29, 23)" stroke-opacity="1.0" stroke-linecap="round" stroke-linejoin="round"/>
    <path d="M 126.42625427 68.55402374 C 126.24742889 67.57366943 126.17109680 67.19856262 125.97653198 66.19597626 C 125.88172150 65.15192413 125.98435974 64.49115753 125.59628296 63.47436142 C 125.16550446 62.31750107 125.39175415 61.72478867 126.58359528 62.48221970 C 127.26402283 62.98439789 127.28431702 63.69737244 127.05935669 64.95551300 C 126.99486542 65.99466705 126.91687012 66.01342773 127.05656433 67.51955414 C 127.39611053 68.58154297 127.13597870 69.15287018 128.15232849 69.06481934 C 129.21218872 69.67437744 129.17588806 70.32759094 128.74525452 71.36309052 C 128.29849243 72.25169373 128.71296692 73.61611938 127.81201935 73.56282043 C 126.73399353 73.48727417 126.77403259 72.39184570 126.70628357 71.42825317 C 126.49560547 70.19611359 126.60578918 69.53205872 126.42625427 68.55402374" stroke-width="2.00000000" fill="rgb(36, 26, 17)" opacity="1.0" stroke="rgb(255, 182, 197)" stroke-opacity="0.43857503" stroke-linecap="round" stroke-linejoin="round"/>
    <path d="M 179.17662048 177.87760925 C 179.10446167 178.61705017 178.92904663 179.07005310 178.92630005 179.92770386 C 178.78463745 180.67216492 179.13491821 181.37980652 178.42640686 181.50621033 C 177.75950623 181.39346313 177.32011414 181.37750244 176.37664795 181.39689636 C 175.68949890 181.36470032 174.79742432 181.54129028 174.37355042 181.27589417 C 174.33265686 180.27613831 174.38017273 180.12469482 174.52738953 179.23039246 C 174.69212341 178.09950256 174.60629272 178.34423828 174.55932617 177.48167419 C 174.55369568 176.65290833 174.21313477 176.00372314 174.92669678 175.91171265 C 175.71241760 175.87648010 176.14132690 175.95310974 176.82853699 175.75062561 C 177.65936279 175.70472717 178.21269226 175.65518188 178.77894592 175.94476318 C 179.26263428 176.37113953 179.24642944 177.21929932 179.17662048 177.87760925" stroke-width="1.87849045" fill="rgb(255, 170, 88)" opacity="1.0" stroke="rgb(59, 22, 13)" stroke-opacity="1.0" stroke-linecap="round" stroke-linejoin="round"/>
  </g>
</svg>
