<?xml version="1.0" ?>
<svg xmlns="http://www.w3.org/2000/svg" version="1.1" width="256" height="256" viewBox="0 0 256 256">
  <defs/>
  <g>
    <path d="M 174.20536804 221.70462036 C 172.64059448 225.58287048 162.97973633 223.54222107 149.68183899 224.16648865 C 141.26826477 223.86439514 134.28906250 224.05187988 120.86394501 223.92166138 C 113.82737732 224.23159790 103.73363495 224.15753174 92.78124237 223.89512634 C 80.43880463 224.87728882 75.51622009 221.85072327 77.49917603 209.11401367 C 77.64924622 201.24929810 76.70204163 190.13198853 80.07655334 181.51773071 C 87.37046814 174.17837524 92.56150818 173.96127319 101.96308136 174.92584229 C 114.36219025 175.11050415 119.77587128 174.75822449 130.43092346 174.50805664 C 141.44952393 174.46669006 150.46446228 174.86491394 158.80168152 174.82934570 C 171.61547852 174.94233704 177.12528992 178.85610962 175.94702148 191.18930054 C 175.64036560 198.58621216 178.05325317 206.51715088 174.20536804 221.70462036" stroke-width="0.97417849" fill="rgb(11, 0, 4)" opacity="1.0" stroke="rgb(0, 0, 3)" stroke-opacity="0.3998047" stroke-linecap="round" stroke-linejoin="round"/>
    <path d="M 171.06127930 218.63034058 C 165.02713013 219.30982971 158.62496948 216.48318481 146.10334778 216.87954712 C 137.00933838 216.87110901 129.34091187 217.56719971 116.72870636 216.96899414 C 108.16908264 218.02618408 101.64928436 218.84764099 89.27692413 221.57910156 C 75.19462585 223.84320068 76.20135498 226.35787964 76.42967224 210.36212158 C 76.29595184 205.90989685 74.80474091 189.12213135 75.54130554 182.61103821 C 80.10328674 175.51329041 86.10908508 178.40499878 94.43484497 180.18342590 C 104.27244568 179.73896790 112.30008698 180.88446045 122.41589355 181.75588989 C 130.64862061 181.62327576 141.32925415 180.65045166 151.44947815 180.15000916 C 165.17387390 179.28788757 171.88897705 180.79295349 171.64186096 191.72181702 C 171.45700073 203.90097046 174.61972046 212.80130005 171.06127930 218.63034058" stroke-width="1.61458302" fill="rgb(174, 74, 3)" opacity="1.0" stroke="rgb(2, 0, 0)" stroke-opacity="0.9300279" stroke-linecap="round" stroke-linejoin="round"/>
    <path d="M 158.53684998 222.36997986 C 153.74465942 222.50740051 150.89031982 222.45123291 141.44624329 222.58699036 C 134.75683594 222.20993042 128.95391846 222.74945068 122.04589844 222.45756531 C 112.49932098 222.25987244 111.50350952 222.87504578 101.35138702 222.44540405 C 95.97467041 222.28013611 88.92112732 223.84463501 81.50350952 220.92932129 C 78.88993835 213.39625549 82.66687012 215.09811401 92.21807098 216.09584045 C 100.71457672 216.73756409 103.24905396 216.43254089 108.46097565 216.10241699 C 117.50398254 215.87351990 121.92787170 215.95397949 127.57472992 215.84893799 C 136.20925903 214.82202148 140.89825439 216.08668518 148.47045898 215.94686890 C 155.88224792 216.77648926 161.81683350 214.77153015 168.59570312 215.70524597 C 174.77386475 219.77922058 171.07518005 223.85552979 158.53684998 222.36997986" stroke-width="0.58241838" fill="rgb(176, 70, 4)" opacity="1.0" stroke="rgb(181, 73, 17)" stroke-opacity="0.5461734" stroke-linecap="round" stroke-linejoin="round"/>
    <path d="M 123.22476196 143.47828674 C 123.17955017 152.80227661 124.03611755 162.42486572 130.38047791 174.04470825 C 131.97694397 187.56036377 123.01547241 178.31628418 120.78240967 165.20520020 C 117.39163208 153.52551270 118.21781158 145.95843506 119.45886993 131.88285828 C 121.12088776 120.44921112 123.29963684 113.22541809 126.39406586 98.57778931 C 126.02435303 84.21495056 125.27970886 80.98155975 124.32978058 64.78459930 C 126.11833191 48.09886169 127.77095795 51.66407394 123.32299042 37.17252350 C 118.31495667 16.28673553 130.40670776 27.94580841 132.80552673 41.73344803 C 135.69485474 55.64352036 132.62126160 63.75592041 130.26644897 75.33023834 C 128.91537476 86.41290283 131.06758118 95.55039215 128.04817200 106.99418640 C 126.49825287 119.49034882 123.79835510 125.53445435 123.22476196 143.47828674" stroke-width="1.65909016" fill="rgb(209, 164, 118)" opacity="1.0" stroke="rgb(4, 0, 0)" stroke-opacity="0.89795786" stroke-linecap="round" stroke-linejoin="round"/>
    <path d="M 97.48463440 118.43505859 C 99.86608124 117.93108368 101.36830902 117.39310455 103.81723022 117.21553040 C 106.28479004 117.07091522 108.44619751 117.35329437 110.66143036 117.71847534 C 113.39293671 118.24932098 115.24034882 118.39855957 117.35696411 119.14489746 C 120.41960907 120.02845764 121.66249084 119.84638214 124.04424286 120.93183136 C 125.64343262 122.51274109 125.67313385 125.38925934 122.79589844 124.49702454 C 119.36528778 122.96616364 120.03216553 122.84258270 117.97486877 121.59447479 C 114.49706268 120.23579407 115.10984039 120.35020447 111.25022125 119.95097351 C 108.79697418 119.71041107 107.46047211 119.44650269 104.32410431 120.55138397 C 102.37289429 121.14461517 100.74037933 122.03774261 97.84899902 121.71517181 C 94.71783447 120.44037628 94.15060425 119.11556244 97.48463440 118.43505859" stroke-width="1.62085581" fill="rgb(203, 163, 116)" opacity="1.0" stroke="rgb(94, 77, 58)" stroke-opacity="1.0" stroke-linecap="round" stroke-linejoin="round"/>
    <path d="M 150.98101807 96.25176239 C 148.17292786 95.89163208 146.33087158 95.95372772 143.52146912 96.44083405 C 140.67518616 97.13262939 138.56739807 97.07176971 135.81269836 97.73069000 C 132.52426147 98.38854218 131.00686646 98.96081543 128.69862366 100.46365356 C 125.24242401 102.02584076 124.52123260 99.02115631 127.24125671 97.84357452 C 130.59649658 96.35540771 132.81781006 95.70830536 134.92013550 95.19231415 C 138.96185303 94.07437897 138.80096436 93.93225861 140.89036560 92.78440094 C 143.94868469 91.58967590 146.19696045 91.89849854 149.18444824 91.88013458 C 151.33937073 91.97972870 153.51655579 91.90772247 156.92123413 92.45180511 C 160.31278992 93.41186523 162.09347534 95.30213165 159.29849243 96.79260254 C 156.11720276 97.95080566 153.62200928 96.87638855 150.98101807 96.25176239" stroke-width="1.55873334" fill="rgb(215, 162, 119)" opacity="1.0" stroke="rgb(86, 77, 62)" stroke-opacity="1.0" stroke-linecap="round" stroke-linejoin="round"/>
    <path d="M 122.13045502 77.25216675 C 120.50356293 76.65044403 118.21817017 76.23615265 115.82839966 76.43977356 C 113.53046417 76.75092316 111.77011871 76.72119904 109.19474030 77.08026123 C 106.68529510 76.94738007 104.42713165 77.02772522 102.88837433 77.37201691 C 102.05119324 75.89757538 102.05702209 74.09584808 103.37754059 72.40222168 C 105.09625244 71.37026215 107.12557983 70.33332062 109.53208160 69.48004913 C 112.07720947 68.71871185 112.62393188 68.61495972 114.80913544 67.99195862 C 116.93843842 67.36208344 119.00985718 66.72571564 121.60708618 68.26671600 C 124.05204010 69.72498322 125.14149475 70.88713074 126.91118622 72.58195496 C 128.89901733 74.35899353 130.51135254 76.31418610 129.05252075 77.96423340 C 127.45166016 78.80226898 124.64354706 78.66255951 122.13045502 77.25216675" stroke-width="1.44614410" fill="rgb(79, 97, 32)" opacity="1.0" stroke="rgb(255, 255, 117)" stroke-opacity="1.0" stroke-linecap="round" stroke-linejoin="round"/>
    <path d="M 109.83618164 125.98161316 C 109.28530121 127.16286469 106.98696899 131.23097229 103.03086853 134.01153564 C 100.06185913 136.02853394 97.61800385 136.98770142 92.41780090 137.34164429 C 87.78882599 137.16687012 86.08389282 137.21411133 81.30279541 133.98005676 C 78.44015503 131.76780701 76.45678711 129.40242004 74.94872284 124.47517395 C 74.27940369 121.71509552 73.80395508 116.45590210 75.68222046 112.74099731 C 77.41515350 109.07086945 78.91315460 106.63002014 81.32366943 105.06758118 C 85.32550049 102.06636810 88.45164490 101.17239380 92.46257019 101.10104370 C 95.95097351 101.06111145 100.16398621 101.69917297 103.76371765 104.33889771 C 106.58277893 106.15150452 108.64539337 108.71221924 110.70668793 113.10427094 C 111.90855408 116.84566498 111.71711731 119.32604218 109.83618164 125.98161316" stroke-width="1.49757695" fill="rgb(64, 143, 52)" opacity="1.0" stroke="rgb(13, 19, 12)" stroke-opacity="0.96898496" stroke-linecap="round" stroke-linejoin="round"/>
    <path d="M 119.42091370 66.94917297 C 114.37306976 63.82946777 113.39777374 62.62395477 107.81160736 56.47390747 C 104.69816589 50.90733719 100.66169739 47.59906769 100.38275146 41.65815353 C 99.70300293 34.52603912 101.96895599 28.51350212 104.83716583 25.06208229 C 110.67577362 17.81949234 113.05028534 16.99226952 119.57133484 14.22872543 C 128.11125183 12.62756920 131.14549255 12.92869949 136.92361450 14.49888229 C 146.85136414 19.36083031 144.36566162 17.44135094 150.12223816 23.25012207 C 154.58308411 29.51062202 156.08596802 33.69075394 156.61167908 39.76568985 C 156.64277649 45.12385559 155.23225403 52.69937897 151.86541748 57.10585403 C 148.54322815 61.92589569 143.98187256 65.16292572 137.98025513 67.66574097 C 133.21751404 69.26206207 128.76361084 70.58158112 119.42091370 66.94917297" stroke-width="1.55031037" fill="rgb(78, 152, 62)" opacity="1.0" stroke="rgb(2, 8, 0)" stroke-opacity="0.8904951" stroke-linecap="round" stroke-linejoin="round"/>
    <path d="M 185.15428162 94.53627014 C 185.63713074 95.78085327 184.02467346 102.37026215 181.50012207 106.51284027 C 178.49778748 111.19939423 174.81745911 114.38467407 170.52359009 115.80953217 C 165.51571655 117.76154327 160.26991272 118.35091400 156.40780640 116.94982910 C 150.94926453 115.87854004 147.49778748 113.11531067 144.08201599 109.26976013 C 140.49552917 103.71918488 139.55206299 100.38259888 139.73750305 95.36875916 C 140.50242615 89.23612976 140.55526733 87.33851624 142.94119263 83.10831451 C 145.90290833 78.60492706 147.23397827 76.32192993 153.42164612 72.54502106 C 156.44842529 71.09911346 161.19549561 69.65934753 167.37512207 71.63964081 C 172.31829834 72.90642548 174.96937561 74.34653473 179.41680908 78.90205383 C 182.52079773 83.06005859 184.59965515 86.61870575 185.15428162 94.53627014" stroke-width="1.54602039" fill="rgb(65, 144, 52)" opacity="1.0" stroke="rgb(15, 19, 14)" stroke-opacity="0.96492034" stroke-linecap="round" stroke-linejoin="round"/>
    <path d="M 99.35259247 93.87805176 C 96.53038025 94.81616211 91.13076019 94.64666748 87.07342529 92.81158447 C 83.60448456 91.15466309 79.84764099 88.02322388 77.78713989 83.37794495 C 76.67132568 80.42811584 75.23455048 76.49966431 76.63540649 71.04375458 C 77.07126617 67.83292389 78.98509216 63.34043884 82.83870697 59.12916565 C 85.98817444 56.44902420 87.79451752 55.05269623 94.43527985 53.36917496 C 101.61328888 53.49639130 100.06591034 52.75543976 105.06273651 55.12196732 C 109.87476349 57.93428802 112.66522217 60.44726562 115.12879944 63.99157333 C 117.56478882 67.94267273 118.99941254 73.09209442 118.23371887 76.28959656 C 117.11221313 81.14985657 114.48928070 84.94403076 111.61099243 87.48773193 C 108.53814697 90.36754608 104.68302155 92.05920410 99.35259247 93.87805176" stroke-width="1.59349334" fill="rgb(96, 175, 77)" opacity="1.0" stroke="rgb(5, 7, 3)" stroke-opacity="0.9151177" stroke-linecap="round" stroke-linejoin="round"/>
    <path d="M 151.31440735 70.35620117 C 148.05346680 71.02740479 144.20878601 70.06687927 141.25747681 68.51198578 C 138.36677551 66.24691010 137.29124451 64.26265717 135.87303162 60.46520233 C 134.55880737 56.26350784 134.33607483 52.35142899 135.66200256 49.89842987 C 136.91867065 45.67864609 139.62875366 42.46102524 142.27471924 40.39092636 C 145.55227661 37.94029999 148.04975891 36.94553375 152.95571899 36.25387573 C 159.50521851 36.82596588 158.26133728 36.32288361 162.25146484 38.58340454 C 166.05335999 41.13043213 168.33674622 44.15121460 169.75473022 47.50728989 C 170.93914795 52.52592087 170.88507080 54.09440231 169.67703247 58.93957520 C 167.49592590 62.38536072 166.56970215 63.95604706 162.51287842 67.04130554 C 158.15702820 69.49294281 155.25103760 70.00917053 151.31440735 70.35620117" stroke-width="1.45335484" fill="rgb(99, 176, 79)" opacity="1.0" stroke="rgb(18, 16, 17)" stroke-opacity="0.97607064" stroke-linecap="round" stroke-linejoin="round"/>
    <path d="M 120.39611816 94.97265625 C 118.20229340 96.15091705 114.90193939 96.71356201 112.20119476 96.44015503 C 109.61129761 96.17742920 106.73181915 95.40540314 104.59436798 93.07754517 C 103.13568115 91.37129974 101.58605957 89.44461060 101.13763428 85.74959564 C 100.95268250 83.11870575 100.79508972 81.26980591 102.64418793 77.37182617 C 103.95914459 75.56179047 105.46197510 73.64038849 109.05087280 71.70664978 C 112.02418518 70.75402832 112.97850037 70.09828186 115.51196289 70.46318054 C 118.78778076 70.72599792 121.72522736 71.81130981 123.73662567 73.36571503 C 126.60814667 75.88105011 127.78060150 78.33988953 127.91539764 80.47236633 C 127.85503387 83.23973846 127.42594910 85.98213196 126.31918335 88.87334442 C 125.33404541 91.12348938 123.08547974 93.47811890 120.39611816 94.97265625" stroke-width="1.44771862" fill="rgb(99, 176, 79)" opacity="1.0" stroke="rgb(13, 12, 13)" stroke-opacity="0.9601302" stroke-linecap="round" stroke-linejoin="round"/>
    <path d="M 154.33587646 84.08986664 C 152.58638000 85.84525299 148.77194214 87.41662598 145.75695801 87.80733490 C 142.27230835 88.05356598 139.42210388 87.86582947 136.41581726 86.35099792 C 134.35592651 85.08476257 131.39862061 83.60044861 130.07899475 80.25358582 C 128.58374023 77.80670166 128.22418213 74.61570740 128.97145081 70.93630981 C 130.39773560 66.98648834 131.62260437 65.22454834 133.81033325 62.90835190 C 138.61103821 59.61096573 137.16983032 59.96882629 141.01362610 58.96854401 C 144.68559265 58.15727234 147.72962952 58.40137482 150.93287659 59.74649429 C 154.07310486 61.31934357 156.77049255 64.07408142 157.72470093 66.20716095 C 159.40544128 69.57735443 159.58856201 72.79282379 159.22976685 75.70627594 C 158.78471375 78.88592529 156.92176819 81.98986053 154.33587646 84.08986664" stroke-width="1.37304688" fill="rgb(99, 181, 79)" opacity="1.0" stroke="rgb(13, 7, 13)" stroke-opacity="0.94821244" stroke-linecap="round" stroke-linejoin="round"/>
    <path d="M 118.54100037 107.80859375 C 118.00542450 107.97196960 116.50747681 108.40231323 115.71704102 108.70600891 C 114.34393311 108.87541962 113.57585144 109.63660431 113.15655518 108.90457916 C 113.07108307 107.80075073 113.05396271 106.80891418 112.97122955 105.64215088 C 112.91092682 104.33588409 112.94189453 103.34322357 113.29433441 102.32269287 C 113.87531281 101.36302948 114.19545746 101.07455444 115.47357178 100.02693939 C 116.62601471 99.38000488 116.80351257 99.22375488 117.64490509 98.85298157 C 118.54619598 98.33441925 119.89255524 99.11006165 120.57135773 99.75686646 C 121.42256927 101.00013733 121.06106567 101.51737213 121.04664612 102.59131622 C 121.04651642 103.48491669 121.20862579 104.72466278 121.12652588 105.75452423 C 120.91819763 106.81093597 120.06484222 106.93585968 118.54100037 107.80859375" stroke-width="0.93120372" fill="rgb(255, 255, 255)" opacity="1.0" stroke="rgb(255, 255, 255)" stroke-opacity="0.0" stroke-linecap="round" stroke-linejoin="round"/>
    <path d="M 134.48896790 34.05524826 C 134.48965454 33.93157196 134.46446228 33.71767426 134.44723511 33.41608429 C 134.46478271 33.13914490 134.49737549 33.04082489 134.68618774 32.91298676 C 134.87886047 32.79811478 135.09931946 32.69520569 135.38378906 32.68242264 C 135.63008118 32.64214706 135.90567017 32.72335434 136.13961792 32.82074738 C 136.40034485 32.94872284 136.52491760 33.10355377 136.66275024 33.36957932 C 136.73730469 33.79825211 136.74270630 33.72563934 136.66879272 33.95102310 C 136.56796265 34.22440720 136.42683411 34.43487167 136.25144958 34.64759445 C 135.98275757 34.86868286 135.80172729 34.96998215 135.60215759 35.00215912 C 135.37608337 35.02848434 135.12911987 34.92121887 134.92468262 34.77034760 C 134.70921326 34.62991333 134.59869385 34.46272659 134.48896790 34.05524826" stroke-width="0.00000000" fill="rgb(77, 156, 57)" opacity="1.0" stroke="rgb(215, 255, 185)" stroke-opacity="0.0" stroke-linecap="round" stroke-linejoin="round"/>
    <path d="M 170.72883606 181.51831055 C 164.72427368 181.85499573 160.58352661 181.33570862 149.11540222 181.54258728 C 142.59300232 181.54542542 135.99127197 181.83421326 125.60770416 181.37084961 C 118.92494965 181.46562195 112.63202667 181.94557190 103.24636078 181.63688660 C 94.10385895 181.18180847 87.63172150 181.44122314 77.43714142 181.88237000 C 69.73176575 183.12866211 68.67898560 173.85780334 78.35676575 175.73623657 C 90.86077118 175.56660461 89.91145325 176.18266296 98.70162964 175.82258606 C 109.86814880 175.73982239 111.58801270 175.49497986 120.87850189 176.01033020 C 129.66928101 175.39927673 135.17739868 176.22303772 145.11158752 175.73265076 C 154.92649841 176.16470337 160.19458008 175.75758362 168.11869812 175.65025330 C 179.08963013 175.11730957 182.82112122 180.28881836 170.72883606 181.51831055" stroke-width="1.81222928" fill="rgb(188, 72, 4)" opacity="1.0" stroke="rgb(19, 11, 16)" stroke-opacity="0.91410816" stroke-linecap="round" stroke-linejoin="round"/>
    <path d="M 176.43333435 188.83026123 C 176.11962891 192.43544006 176.22476196 193.01124573 175.82763672 197.29168701 C 175.67222595 200.24693298 175.39590454 202.19537354 175.07334900 206.47532654 C 175.20552063 208.58772278 174.86056519 212.62246704 174.76239014 215.17762756 C 174.01908875 218.52188110 175.48645020 222.32330322 173.00318909 222.70733643 C 169.35841370 222.78144836 167.58628845 220.73759460 169.04339600 216.96437073 C 170.14503479 212.70539856 169.59255981 212.40374756 170.12959290 209.73635864 C 170.20465088 206.03439331 170.33369446 203.67312622 170.51353455 201.05067444 C 170.21220398 197.94656372 170.77326965 195.00102234 170.71823120 191.79966736 C 171.05513000 188.50398254 169.88578796 185.42012024 172.13958740 183.31921387 C 176.14671326 182.21911621 177.28822327 184.34408569 176.43333435 188.83026123" stroke-width="1.77339721" fill="rgb(253, 167, 74)" opacity="1.0" stroke="rgb(103, 42, 10)" stroke-opacity="0.9136462" stroke-linecap="round" stroke-linejoin="round"/>
    <path d="M 119.49130249 69.65820312 C 118.96923828 69.34265900 117.91663361 69.02690125 116.26049042 68.59695435 C 114.89048004 68.38008118 114.89888000 67.45167542 115.06375885 66.10149384 C 115.08406067 64.52641296 114.61869812 63.74116516 113.99135590 62.64727402 C 113.21794128 60.90483475 112.66986847 60.81472015 111.87614441 59.23563385 C 112.32765198 58.79665756 114.31134033 60.00816727 115.26728058 60.10646057 C 117.53928375 61.00312042 117.06849670 60.79295731 118.42327881 61.18613815 C 119.84628296 61.31511688 121.56407166 61.49710846 121.81420898 62.38435745 C 122.35898590 64.15204620 122.05890656 65.07789612 122.33761597 66.26194000 C 122.54076385 67.82634735 122.53292084 69.03430939 122.68506622 69.94225311 C 122.43675995 71.46422577 121.47848511 69.99557495 119.49130249 69.65820312" stroke-width="1.50747418" fill="rgb(246, 247, 246)" opacity="1.0" stroke="rgb(25, 29, 23)" stroke-opacity="1.0" stroke-linecap="round" stroke-linejoin="round"/>
    <path d="M 126.30628967 68.04312897 C 126.26813507 67.32325745 126.09107208 66.37511444 125.98854828 65.52328491 C 125.84088135 64.46602631 125.77198792 63.68540955 125.31617737 62.72586060 C 125.28230286 61.73887253 125.85445404 62.39713669 126.89939880 62.64321136 C 127.91281128 63.14068985 127.27076721 63.83110809 127.09407806 64.68520355 C 126.82366943 65.91533661 127.15064240 66.78997040 127.17947388 67.56737518 C 127.57167816 69.23210144 127.30868530 68.95868683 128.05789185 69.71270752 C 129.00106812 70.47593689 129.54081726 71.03127289 129.21748352 72.22069550 C 128.84149170 73.34784698 128.72827148 73.95814514 127.49477386 73.43555450 C 126.65427399 72.96903229 126.76567841 72.03955841 126.64405060 70.93263245 C 126.42070007 70.06233978 126.50718689 69.27061462 126.30628967 68.04312897" stroke-width="2.00000000" fill="rgb(44, 39, 24)" opacity="1.0" stroke="rgb(255, 180, 200)" stroke-opacity="0.43764088" stroke-linecap="round" stroke-linejoin="round"/>
    <path d="M 179.14216614 177.95715332 C 179.08660889 178.78086853 178.97216797 178.95907593 178.91500854 180.00772095 C 178.76690674 180.66726685 179.09396362 181.45989990 178.34895325 181.54373169 C 177.71479797 181.43804932 177.24732971 181.44224548 176.30610657 181.43981934 C 175.61714172 181.40107727 174.68966675 181.55062866 174.30039978 181.30665588 C 174.27781677 180.26690674 174.34242249 180.25250244 174.49639893 179.22204590 C 174.66050720 178.12406921 174.56648254 178.35775757 174.53837585 177.47151184 C 174.58953857 176.58662415 174.18258667 176.00929260 174.85237122 175.90335083 C 175.66154480 175.89053345 176.10617065 175.95166016 176.78369141 175.77540588 C 177.64173889 175.73902893 178.19029236 175.67192078 178.75581360 175.91830444 C 179.18745422 176.39494324 179.13095093 177.31301880 179.14216614 177.95715332" stroke-width="1.86536598" fill="rgb(246, 170, 82)" opacity="1.0" stroke="rgb(56, 29, 19)" stroke-opacity="1.0" stroke-linecap="round" stroke-linejoin="round"/>
  </g>
</svg>
