<?xml version="1.0" ?>
<svg xmlns="http://www.w3.org/2000/svg" version="1.1" width="256" height="256" viewBox="0 0 256 256">
  <defs/>
  <g>
    <path d="M 177.84426880 219.68615723 C 176.04959106 227.84938049 161.12887573 225.61666870 152.13574219 225.10371399 C 142.51554871 224.65324402 134.35731506 224.84474182 122.94813538 224.81332397 C 114.15414429 225.07357788 103.48691559 225.45333862 94.02262878 224.96237183 C 82.08110046 226.37403870 75.60567474 223.72317505 77.96934509 208.30551147 C 78.40151215 203.50759888 76.49001312 188.07504272 79.20242310 180.70195007 C 87.69956970 172.84129333 92.68724060 174.84458923 102.40734863 175.08111572 C 115.80850983 175.20260620 120.35423279 175.01533508 132.10772705 174.86279297 C 143.95046997 174.74029541 150.51481628 175.49624634 161.31404114 174.89622498 C 175.55700684 173.00917053 179.03262329 178.66078186 177.70123291 189.64898682 C 177.48342896 198.96739197 179.72262573 210.41812134 177.84426880 219.68615723" stroke-width="0.80000001" fill="rgb(211, 47, 47)" opacity="1.0" stroke="rgb(0, 0, 0)" stroke-opacity="1.0" stroke-linecap="round" stroke-linejoin="round"/>
    <path d="M 177.34497070 222.01286316 C 175.58238220 225.86744690 160.81088257 221.84344482 150.85937500 220.86074829 C 140.85507202 220.65362549 133.36338806 220.00646973 120.54798126 219.69111633 C 111.66577148 220.35043335 101.02812958 221.50082397 91.03305817 222.83370972 C 78.94423676 226.06069946 75.63424683 222.88394165 77.87148285 207.15942383 C 78.61894226 201.81446838 76.16567230 184.36450195 80.02603149 178.88059998 C 88.86747742 174.98374939 93.35820770 177.35847473 103.66572571 178.82832336 C 116.65578461 180.29147339 121.95299530 180.13807678 134.22888184 179.89572144 C 146.33227539 179.05139160 153.28787231 178.98803711 164.10684204 177.42658997 C 177.51535034 174.31578064 179.52438354 176.99290466 177.96150208 192.22203064 C 176.50546265 198.00616455 180.61160278 215.49104309 177.34497070 222.01286316" stroke-width="0.80000001" fill="rgb(183, 28, 28)" opacity="1.0" stroke="rgb(0, 0, 0)" stroke-opacity="1.0" stroke-linecap="round" stroke-linejoin="round"/>
    <path d="M 162.17868042 224.76779175 C 155.12045288 224.81362915 151.71884155 225.38308716 142.57212830 225.11834717 C 136.53788757 224.62519836 129.67643738 225.05316162 123.15029907 225.11204529 C 115.21351624 225.27392578 109.85439301 224.97822571 103.60240173 224.42906189 C 93.32830048 224.29772949 91.66708374 227.30079651 81.58628082 225.15263367 C 76.98399353 218.78797913 87.32685089 219.63336182 93.12227631 220.18092346 C 105.13381195 220.39349365 104.33050537 220.25469971 111.39724731 219.67939758 C 121.44338989 219.79798889 124.19574738 220.20091248 132.09552002 220.14636230 C 141.75921631 219.13287354 143.98614502 220.58045959 152.80422974 220.00686646 C 160.59465027 220.94979858 165.44567871 218.79812622 173.43981934 219.66809082 C 180.92216492 225.35636902 170.72760010 226.22567749 162.17868042 224.76779175" stroke-width="0.80000001" fill="rgb(139, 0, 0)" opacity="1.0" stroke="rgb(0, 0, 0)" stroke-opacity="1.0" stroke-linecap="round" stroke-linejoin="round"/>
    <path d="M 125.38566589 136.43095398 C 124.92917633 147.42646790 125.80358124 155.08448792 128.97482300 166.75120544 C 131.19381714 182.87280273 120.44786835 172.78953552 119.64957428 160.62068176 C 116.46965027 149.10839844 117.95538330 140.76995850 118.60549927 128.28833008 C 120.46652222 116.96121979 121.60587311 110.14437103 123.62870026 96.83574677 C 123.65242767 86.05122375 124.76022339 77.55364227 124.65390015 64.29566956 C 126.75761414 47.84909821 127.43066406 48.11077499 125.67678833 36.12377930 C 123.34981537 15.41901398 134.20213318 27.89497375 134.54765320 40.91821671 C 135.59992981 52.68745041 133.35614014 60.84816742 132.25617981 71.47084808 C 131.01432800 82.81953430 131.93074036 93.78346252 130.14079285 103.42163086 C 128.78698730 117.38601685 126.38812256 120.57600403 125.38566589 136.43095398" stroke-width="0.80000001" fill="rgb(93, 64, 55)" opacity="1.0" stroke="rgb(0, 0, 0)" stroke-opacity="1.0" stroke-linecap="round" stroke-linejoin="round"/>
    <path d="M 94.50423431 117.62817383 C 96.34201813 117.06021881 99.09584808 116.65222168 101.23713684 116.50308228 C 104.38780212 116.36586761 106.13758850 116.23605347 108.40103912 116.44392395 C 111.21083069 116.84122467 113.04535675 117.04399872 115.49386597 117.95235443 C 118.18261719 118.97648621 119.99470520 119.98072815 121.97650146 121.36910248 C 123.73722839 122.60980225 125.03974152 125.64775848 121.59484863 125.24835968 C 117.71585846 124.01091003 118.21768188 124.14260101 116.30921936 122.60807800 C 112.78989410 121.07759857 112.89974213 121.31010437 108.83469391 120.73557281 C 106.47805023 120.41020966 105.02182007 119.85980988 101.58869171 120.43011475 C 99.30110168 120.69425201 97.87480927 121.38965607 94.79248047 121.71302032 C 91.45298004 121.14354706 91.97496033 118.25069427 94.50423431 117.62817383" stroke-width="0.80000001" fill="rgb(93, 64, 55)" opacity="1.0" stroke="rgb(0, 0, 0)" stroke-opacity="1.0" stroke-linecap="round" stroke-linejoin="round"/>
    <path d="M 154.02754211 95.51578522 C 151.10043335 95.11451721 149.31326294 95.18655396 146.14477539 95.54146576 C 143.18231201 96.11440277 141.24905396 96.10472107 138.31538391 97.18778229 C 135.47021484 97.98097992 133.64794922 99.34613037 130.99276733 100.55421448 C 127.46144104 101.39843750 125.49861908 99.06701660 128.40843201 97.40366364 C 132.36106873 94.77153778 132.30296326 95.16574097 136.35859680 93.69094849 C 139.73289490 92.72004700 140.17298889 92.53483582 142.71411133 91.93613434 C 146.84324646 91.27606201 147.81825256 91.29801178 151.56088257 91.39697266 C 155.07212830 91.55873108 155.53002930 91.50817871 159.80844116 92.03686523 C 163.17355347 92.29460907 165.69755554 94.67710114 162.69029236 96.50216675 C 159.20201111 97.07861328 157.73942566 95.87352753 154.02754211 95.51578522" stroke-width="0.80000001" fill="rgb(93, 64, 55)" opacity="1.0" stroke="rgb(0, 0, 0)" stroke-opacity="1.0" stroke-linecap="round" stroke-linejoin="round"/>
    <path d="M 119.23666382 72.33809662 C 117.64373779 71.86357880 115.71758270 71.44901276 112.84963989 71.56996155 C 110.17664337 71.56106567 109.19805908 71.88163757 105.96536255 72.59410858 C 103.44995880 73.58463287 102.39562988 74.56775665 99.79570007 75.59960938 C 97.38802338 75.47631073 96.65769196 73.35276031 99.79844666 72.12204742 C 102.34690857 70.80339050 102.89380646 70.51985931 106.51702881 69.39120483 C 109.30850220 68.73796844 110.08203125 68.64778137 112.43691254 68.43556213 C 115.88037109 68.66567993 115.80792236 68.39604187 119.68614197 69.49033356 C 122.46206665 70.33559418 124.27496338 70.83740234 126.44664001 72.14949036 C 128.43879700 73.35831451 131.26733398 76.21626282 126.83753204 75.74221802 C 124.52745056 75.00157928 122.70336151 73.98048401 119.23666382 72.33809662" stroke-width="0.80000001" fill="rgb(93, 64, 55)" opacity="1.0" stroke="rgb(0, 0, 0)" stroke-opacity="1.0" stroke-linecap="round" stroke-linejoin="round"/>
    <path d="M 110.57865906 129.86643982 C 107.90000916 133.87088013 107.44859314 134.48077393 101.81666565 137.99786377 C 98.00628662 139.61804199 95.46842957 140.50276184 89.73215485 139.77777100 C 85.07751465 138.72854614 82.96081543 138.00773621 78.46478271 133.73373413 C 76.07652283 131.24963379 73.83683777 128.00411987 73.07818604 122.46743774 C 72.81452179 119.76323700 73.34731293 113.66236877 75.87064362 110.37866974 C 78.54417419 106.27893066 80.55764008 104.12816620 83.38278198 102.84314728 C 88.45478058 100.35629272 91.46675873 99.51727295 95.86484528 100.33197784 C 99.74710846 100.96834564 104.39218903 102.70568848 107.34063721 105.93713379 C 110.32439423 109.73430634 110.88270569 110.91414642 113.18611145 117.06800842 C 113.64770508 121.78842163 112.78357697 123.54664612 110.57865906 129.86643982" stroke-width="0.80000001" fill="rgb(27, 94, 32)" opacity="1.0" stroke="rgb(0, 0, 0)" stroke-opacity="1.0" stroke-linecap="round" stroke-linejoin="round"/>
    <path d="M 116.20886230 67.68714142 C 112.65896606 66.15551758 107.60974121 62.86865997 103.16322327 57.07806396 C 99.64124298 51.41694260 98.24268341 46.36463547 98.13003540 39.96305847 C 97.35747528 31.93409348 100.78961945 26.28953934 103.55795288 22.76205254 C 110.25250244 15.21739578 112.24206543 14.18988037 119.21821594 11.01451492 C 129.07048035 9.25730324 130.21166992 9.57244873 138.08418274 11.99986458 C 148.53613281 17.94507790 145.72059631 15.40056992 151.61491394 22.10515785 C 156.22126770 29.35761261 157.97038269 33.43557739 158.15296936 39.90422821 C 157.90631104 46.12716293 155.82066345 54.01675797 152.34500122 57.91243744 C 147.77503967 63.29882050 142.85060120 66.44255066 136.89730835 68.95591736 C 129.08815002 71.03142548 127.29714966 70.44004059 116.20886230 67.68714142" stroke-width="0.80000001" fill="rgb(46, 125, 50)" opacity="1.0" stroke="rgb(0, 0, 0)" stroke-opacity="1.0" stroke-linecap="round" stroke-linejoin="round"/>
    <path d="M 187.64408875 98.99391174 C 187.44281006 101.57588959 185.68782043 107.11624146 181.81510925 111.60668945 C 178.60011292 115.47487640 173.41146851 118.71450806 168.30538940 119.47714996 C 163.54438782 120.33679199 157.60003662 120.37239075 152.75987244 117.61412048 C 148.56854248 116.11953735 143.90055847 112.40699768 141.12480164 107.46942139 C 139.07304382 103.13067627 137.81318665 97.16113281 138.65460205 91.62767792 C 139.96870422 85.43931580 140.68713379 82.56455231 144.25164795 79.26996613 C 149.66157532 74.27005768 151.20359802 72.55751801 157.64970398 70.54441833 C 163.72105408 69.84748077 165.65847778 69.29856873 172.88659668 72.06175995 C 178.89852905 75.32741547 180.01997375 75.98618317 185.44479370 82.14262390 C 187.98904419 87.65918732 187.85168457 90.89324188 187.64408875 98.99391174" stroke-width="0.80000001" fill="rgb(56, 142, 60)" opacity="1.0" stroke="rgb(0, 0, 0)" stroke-opacity="1.0" stroke-linecap="round" stroke-linejoin="round"/>
    <path d="M 100.77657318 97.35298920 C 96.99976349 98.11730194 91.34204102 96.95416260 87.21633911 94.60260773 C 82.97632599 92.38679504 80.12522888 89.68129730 77.63214874 84.49573517 C 76.18190765 80.23312378 74.73263550 76.56821442 76.06029510 70.90563202 C 76.36199951 66.67304993 78.95930481 62.04508209 82.59525299 58.58123016 C 86.45925903 55.56183624 89.21091461 53.45885468 95.45099640 52.67043304 C 104.12284088 53.28186035 101.52677155 52.40962601 107.68517303 55.05838394 C 113.20788574 58.22130966 115.90854645 60.38685608 118.23925781 64.76770782 C 120.35886383 68.99575806 121.11717987 75.52361298 120.44676208 78.42121124 C 119.30389404 84.06465149 116.81867218 87.67103577 113.75637817 91.12596130 C 110.59651184 94.42983246 105.68789673 96.87268066 100.77657318 97.35298920" stroke-width="0.80000001" fill="rgb(67, 160, 71)" opacity="1.0" stroke="rgb(0, 0, 0)" stroke-opacity="1.0" stroke-linecap="round" stroke-linejoin="round"/>
    <path d="M 156.14837646 74.71361542 C 152.84164429 75.50821686 147.92776489 74.66621399 144.09132385 72.94439697 C 140.48104858 70.71673584 137.68942261 68.61808777 135.45249939 64.69062042 C 133.00433350 59.73523712 132.81292725 56.73989105 133.20407104 53.28407288 C 134.28088379 46.93644333 135.99725342 44.44969940 137.94361877 41.36196899 C 141.64141846 37.73976517 145.64727783 36.07556915 149.90121460 35.25585938 C 157.26676941 35.36709976 155.50788879 34.82370758 160.86557007 36.88188171 C 165.85537720 39.42575455 168.37750244 41.68851471 170.61601257 45.17366409 C 172.89793396 50.04905701 173.36273193 53.10650253 173.21318054 57.70870590 C 171.52500916 63.22518539 170.17388916 65.21986389 167.58876038 68.64929199 C 164.82441711 72.04386902 160.69367981 74.11466980 156.14837646 74.71361542" stroke-width="0.80000001" fill="rgb(76, 175, 80)" opacity="1.0" stroke="rgb(0, 0, 0)" stroke-opacity="1.0" stroke-linecap="round" stroke-linejoin="round"/>
    <path d="M 118.08190918 96.43395233 C 116.24108124 97.32164764 113.05198669 97.74328613 110.41769409 97.24378967 C 107.83373260 96.59112549 105.89162445 95.70449829 103.79324341 93.34741211 C 101.93572998 91.03923798 101.06743622 90.01335144 100.61637878 86.37349701 C 100.56417084 83.54256439 100.51107788 82.12504578 102.22083282 78.47837830 C 103.49421692 76.72109985 104.82131958 75.04447174 108.23934937 73.43705750 C 112.51353455 72.63761139 111.53373718 72.29305267 114.80954742 72.74864197 C 118.06970215 73.36412811 120.41084290 74.73788452 122.01335144 76.08889771 C 124.44589233 78.84894562 125.33034515 81.14219666 125.46763611 83.35381317 C 125.76878357 85.77402496 125.07427979 89.11521149 124.00627136 90.99328613 C 122.48533630 93.69654846 120.77479553 95.18236542 118.08190918 96.43395233" stroke-width="0.80000001" fill="rgb(102, 187, 106)" opacity="1.0" stroke="rgb(0, 0, 0)" stroke-opacity="1.0" stroke-linecap="round" stroke-linejoin="round"/>
    <path d="M 153.71409607 85.54478455 C 152.00303650 87.46469879 148.63645935 89.19338226 145.49340820 89.76820374 C 142.57481384 90.34645081 139.33262634 90.05107880 136.35076904 88.39035797 C 134.13589478 86.89733124 130.95611572 85.10221100 129.85646057 82.06476593 C 128.17593384 79.27682495 127.79770660 76.10047150 128.11247253 72.83992767 C 129.01364136 69.27005768 129.59033203 67.55799866 132.23428345 64.59533691 C 137.15780640 61.21870041 135.45556641 61.78056335 139.74838257 60.67544556 C 143.83076477 59.99578857 146.30075073 60.04423904 149.39187622 61.31398010 C 152.34797668 62.69499588 155.26332092 65.61547852 156.21388245 67.54953003 C 157.93948364 70.94927216 158.03543091 74.07215881 157.91784668 76.97355652 C 157.61396790 80.13780975 156.12460327 83.03505707 153.71409607 85.54478455" stroke-width="0.80000001" fill="rgb(129, 199, 132)" opacity="1.0" stroke="rgb(0, 0, 0)" stroke-opacity="1.0" stroke-linecap="round" stroke-linejoin="round"/>
    <path d="M 127.08888245 114.16300201 C 125.77802277 114.78773499 122.73388672 115.17687988 121.00205231 114.80417633 C 118.60858917 114.45397186 117.04955292 113.45170593 115.76878357 111.75855255 C 114.45675659 110.13726044 113.13876343 108.31228638 113.09502411 106.26913452 C 112.80163574 104.17375183 113.27369690 101.83864594 114.25429535 100.03729248 C 115.35599518 98.39885712 116.90465546 96.64790344 119.34690857 95.76488495 C 121.39443970 95.36059570 122.48736572 94.87712097 124.39962006 95.26110840 C 127.24451447 95.77339935 128.81666565 96.60237122 130.18185425 97.91834259 C 132.12620544 100.41350555 132.83026123 101.80845642 132.95372009 103.60787964 C 133.28240967 105.58892822 132.50628662 108.34235382 131.84323120 109.70977783 C 130.47438049 112.21566772 129.59547424 112.88919830 127.08888245 114.16300201" stroke-width="0.80000001" fill="rgb(165, 214, 167)" opacity="1.0" stroke="rgb(0, 0, 0)" stroke-opacity="1.0" stroke-linecap="round" stroke-linejoin="round"/>
    <path d="M 130.93055725 37.59267426 C 130.64553833 36.26865005 130.58567810 35.40037918 130.65403748 33.32677841 C 131.08825684 31.99575806 131.60369873 30.64884758 132.89964294 29.56430626 C 134.31452942 28.25092697 135.48597717 27.81957626 136.77375793 27.62941742 C 139.28533936 27.35147285 139.91380310 27.89675713 141.50717163 28.22250366 C 143.31280518 29.14291000 144.32313538 30.59317780 144.87686157 31.91003036 C 145.45285034 34.77345657 145.42333984 33.96744156 145.29978943 35.90458679 C 145.13601685 37.68895340 144.08105469 39.59495926 143.34954834 40.43651581 C 141.67881775 41.84736252 140.42977905 42.35523987 138.91966248 42.45988846 C 137.47067261 42.58045197 135.74877930 42.24439621 134.24772644 41.59310150 C 132.75794983 40.80614471 132.16258240 40.18326569 130.93055725 37.59267426" stroke-width="0.80000001" fill="rgb(200, 230, 201)" opacity="1.0" stroke="rgb(0, 0, 0)" stroke-opacity="1.0" stroke-linecap="round" stroke-linejoin="round"/>
    <path d="M 173.06538391 182.06269836 C 166.26652527 182.17987061 158.32402039 182.80371094 149.99642944 182.28532410 C 141.34989929 182.20703125 136.62409973 182.43057251 126.84910583 181.94030762 C 118.27389526 182.48995972 113.12902832 182.90559387 104.10736847 182.18147278 C 94.27144623 181.66049194 88.31780243 181.92523193 78.99797058 183.17224121 C 69.74353027 184.76760864 67.67434692 174.70445251 78.51187134 174.25537109 C 90.39834595 173.76046753 91.30501556 174.57209778 98.77242279 174.11717224 C 109.80831909 174.44931030 115.06114960 174.31442261 122.43042755 174.46136475 C 133.27665710 173.49525452 136.68721008 174.94302368 146.74617004 174.62738037 C 154.58795166 175.07897949 161.72184753 173.17729187 170.43646240 174.11454773 C 179.49920654 173.49952698 185.32283020 182.82458496 173.06538391 182.06269836" stroke-width="0.80000001" fill="rgb(191, 68, 1)" opacity="1.0" stroke="rgb(0, 0, 0)" stroke-opacity="1.0" stroke-linecap="round" stroke-linejoin="round"/>
    <path d="M 176.60575867 188.21847534 C 176.26988220 191.34436035 176.23204041 193.63163757 176.01448059 196.86990356 C 175.76313782 200.36289978 175.62750244 201.74813843 175.29359436 205.97872925 C 175.24887085 208.58894348 175.07431030 212.14222717 174.88420105 214.89736938 C 174.23765564 218.23941040 175.47608948 221.45309448 172.90632629 222.72070312 C 169.55204773 223.26246643 168.17356873 220.77401733 168.81202698 216.75418091 C 169.50173950 212.46278381 169.13880920 212.16613770 169.48521423 209.42004395 C 169.72021484 205.12768555 169.91694641 203.32376099 170.03340149 200.53973389 C 170.03392029 196.86221313 170.52033997 194.20890808 170.60974121 191.03320312 C 170.94070435 187.52441406 169.84161377 184.74270630 172.15795898 182.64300537 C 176.44129944 181.88327026 177.34199524 184.72924805 176.60575867 188.21847534" stroke-width="0.80000001" fill="rgb(254, 166, 74)" opacity="1.0" stroke="rgb(0, 0, 0)" stroke-opacity="1.0" stroke-linecap="round" stroke-linejoin="round"/>
    <path d="M 119.36260223 69.63512421 C 118.94494629 69.33588409 117.84789276 69.03932953 116.26815796 68.68993378 C 115.02496338 68.55768585 114.70339203 67.82569122 114.68080902 66.32115173 C 114.56269073 64.77435303 114.30314636 64.25218964 113.71656799 62.99439240 C 113.09706116 61.26953888 112.67204285 61.14793396 112.25403595 59.50479889 C 112.75108337 58.73215485 114.76777649 59.70983887 115.63404083 59.81731415 C 117.90850830 60.67160797 117.38587952 60.40355682 118.72525024 60.83357239 C 120.13433838 60.92274094 121.65473938 61.55060577 121.75866699 62.42535400 C 122.17735291 64.16251373 121.87141418 64.95783997 122.17608643 66.19421387 C 122.40579987 67.41480255 122.58925629 68.97584534 122.67100525 69.83237457 C 122.32741547 71.27815247 121.29238892 69.89114380 119.36260223 69.63512421" stroke-width="0.80000001" fill="rgb(252, 253, 252)" opacity="1.0" stroke="rgb(0, 0, 0)" stroke-opacity="1.0" stroke-linecap="round" stroke-linejoin="round"/>
    <path d="M 122.44155121 67.55244446 C 122.30994415 66.22926331 122.43597412 66.20377350 122.13739777 64.52381897 C 122.03463745 63.48973083 121.70485687 62.60654449 122.07324219 61.58119965 C 123.26067352 61.13772583 123.95048523 61.27458191 125.14157867 61.28047180 C 126.91578674 61.43278885 126.69152832 62.45465469 126.75955963 63.50651550 C 126.80923462 64.90412903 127.05826569 65.72248077 127.03482819 67.00792694 C 127.10798645 69.10634613 127.16970825 68.70590210 127.28430939 69.93894958 C 127.33794403 71.34098816 127.37509918 72.40433502 127.17759705 73.37770844 C 126.87659454 75.02347565 126.32094574 74.60710907 125.18981934 73.58484650 C 124.09226990 72.56152344 124.11220551 72.37860870 123.25994110 71.10056305 C 122.76051331 69.89379883 122.86820221 69.11633301 122.44155121 67.55244446" stroke-width="0.80000001" fill="rgb(222, 194, 124)" opacity="1.0" stroke="rgb(0, 0, 0)" stroke-opacity="1.0" stroke-linecap="round" stroke-linejoin="round"/>
    <path d="M 179.45472717 177.67854309 C 179.46882629 178.56169128 179.40269470 178.74177551 179.21998596 179.82057190 C 178.98193359 180.66758728 179.08181763 181.12408447 178.19889832 181.28356934 C 177.27128601 181.28929138 177.08244324 181.28936768 175.96551514 181.27362061 C 175.37382507 181.14363098 174.48310852 181.26846313 173.83540344 180.98753357 C 173.76531982 179.98393250 173.86944580 179.75152588 174.08183289 178.82794189 C 174.31823730 177.62782288 174.20596313 177.92082214 174.29344177 176.98829651 C 174.47982788 176.15043640 174.07682800 175.46919250 174.76654053 175.31437683 C 175.65988159 175.33061218 176.12789917 175.33831787 176.86697388 175.25009155 C 177.73696899 175.24031067 178.32104492 175.14923096 178.91702271 175.50053406 C 179.26783752 176.09069824 179.33810425 176.93737793 179.45472717 177.67854309" stroke-width="0.80000001" fill="rgb(252, 170, 78)" opacity="1.0" stroke="rgb(0, 0, 0)" stroke-opacity="1.0" stroke-linecap="round" stroke-linejoin="round"/>
  </g>
</svg>
