<?xml version="1.0" ?>
<svg xmlns="http://www.w3.org/2000/svg" version="1.1" width="256" height="256" viewBox="0 0 256 256">
  <defs/>
  <g>
    <path d="M 175.32928467 221.73559570 C 174.94918823 225.70953369 164.07200623 223.88633728 150.91117859 224.19252014 C 140.97933960 223.94805908 134.47592163 224.17892456 121.37354279 224.17912292 C 113.53429413 224.52493286 103.37916565 224.27333069 92.45316315 224.09600830 C 79.44819641 225.27760315 74.21151733 222.44647217 76.17189789 209.86596680 C 76.23503876 199.78720093 75.07948303 190.05661011 79.44020844 182.00692749 C 87.12805176 174.98597717 91.90325928 173.36585999 101.21254730 174.58764648 C 113.61320496 174.84349060 121.11930847 174.68003845 130.20785522 174.33416748 C 140.93104553 174.31983948 151.70182800 174.61837769 158.91091919 174.60873413 C 172.16404724 175.28744507 180.10543823 176.93797302 177.49978638 189.61535645 C 176.51094055 199.29022217 178.27328491 205.10729980 175.32928467 221.73559570" stroke-width="0.84601265" fill="rgb(13, 8, 14)" opacity="1.0" stroke="rgb(36, 42, 43)" stroke-opacity="0.3406962" stroke-linecap="round" stroke-linejoin="round"/>
    <path d="M 170.83662415 216.78300476 C 165.41123962 217.11663818 158.96102905 214.50895691 145.94189453 215.04342651 C 137.01387024 215.24456787 129.02746582 215.44703674 117.05014801 214.85760498 C 107.47437286 215.61045837 101.72348785 217.37109375 89.75253296 220.54193115 C 76.00312042 223.62113953 76.01530457 226.97450256 76.46251678 211.38107300 C 76.24382019 206.22792053 75.05095673 189.98695374 75.46552277 183.73309326 C 79.69168091 175.62295532 85.96044922 178.70783997 94.13229370 180.33363342 C 103.87479401 180.14735413 112.01825714 181.27107239 122.17947388 181.85102844 C 130.53826904 181.47450256 140.69024658 180.89309692 151.10043335 180.14572144 C 165.10626221 179.43780518 171.42474365 179.93344116 171.98458862 190.92333984 C 172.04188538 203.44053650 176.45559692 213.05590820 170.83662415 216.78300476" stroke-width="1.59741724" fill="rgb(178, 73, 0)" opacity="1.0" stroke="rgb(7, 0, 4)" stroke-opacity="0.91249543" stroke-linecap="round" stroke-linejoin="round"/>
    <path d="M 159.17388916 222.42564392 C 154.74319458 222.28274536 151.16105652 222.44258118 141.49652100 222.57388306 C 134.45202637 222.25120544 127.96296692 222.70123291 120.77206421 222.40649414 C 110.65637970 222.13830566 108.31885529 222.87101746 98.99237823 222.34788513 C 91.60653687 221.90672302 85.92554474 224.39814758 78.01145172 220.04711914 C 75.45217896 211.28176880 78.85630798 212.46231079 89.90104675 213.31794739 C 98.49311829 213.97785950 101.26574707 214.03195190 106.59428406 214.14355469 C 115.31050873 214.10385132 121.06499481 214.40573120 127.48664856 213.87095642 C 135.99162292 212.41247559 140.88020325 213.39108276 149.30601501 213.00375366 C 156.53585815 213.46818542 164.13815308 211.49227905 170.64607239 213.75288391 C 176.20741272 219.67474365 173.53138733 223.91897583 159.17388916 222.42564392" stroke-width="0.60986215" fill="rgb(178, 72, 0)" opacity="1.0" stroke="rgb(183, 73, 15)" stroke-opacity="0.50635594" stroke-linecap="round" stroke-linejoin="round"/>
    <path d="M 123.20162201 145.54881287 C 123.33596039 154.83715820 124.78814697 164.78100586 131.08732605 175.07107544 C 131.38583374 185.84002686 122.51491547 176.99093628 120.70978546 164.60900879 C 117.18492126 152.45214844 118.48173523 145.97940063 119.40782166 131.90240479 C 121.10298157 120.26161957 123.20079803 114.03462982 126.29143524 98.57225037 C 126.35522461 86.09520721 125.99018097 79.93980408 123.94083405 64.69472504 C 123.86471558 49.93698883 124.58625793 52.09463501 118.70659637 38.99414825 C 114.15671539 21.52991486 126.65677643 33.09876251 130.75357056 45.64192963 C 135.36196899 58.16684723 132.08389282 66.18000793 129.92744446 78.07579041 C 129.19085693 89.24511719 131.02783203 97.71239471 127.64611053 109.42736053 C 125.85389709 121.26542664 123.65121460 127.85102081 123.20162201 145.54881287" stroke-width="1.65737414" fill="rgb(208, 165, 115)" opacity="1.0" stroke="rgb(4, 0, 0)" stroke-opacity="0.9005301" stroke-linecap="round" stroke-linejoin="round"/>
    <path d="M 99.50151062 118.33509064 C 101.66921234 117.88323975 103.28851318 117.20574188 105.41226196 116.95293427 C 107.85061646 116.61093140 109.79949188 117.12528229 111.98474884 117.73371887 C 114.62051392 118.42104340 116.50746918 118.71768188 118.50014496 119.46223450 C 120.67973328 119.92613983 122.76889038 120.12085724 124.73976135 120.95600891 C 124.79930115 122.57991028 125.91949463 125.37834167 123.28095245 124.53056335 C 120.07427979 123.25025940 120.29840851 123.19030762 118.71119690 122.00897217 C 115.65346527 120.57250977 115.80895996 120.53796387 112.52580261 120.08274078 C 110.13432312 119.71953583 108.62992859 119.34033966 105.82070923 120.51793671 C 104.12202454 121.22835541 102.35338593 122.36088562 99.91052246 121.77307892 C 97.69538116 120.06629944 96.07295227 119.04459381 99.50151062 118.33509064" stroke-width="1.58883178" fill="rgb(213, 169, 120)" opacity="1.0" stroke="rgb(87, 72, 54)" stroke-opacity="1.0" stroke-linecap="round" stroke-linejoin="round"/>
    <path d="M 149.64619446 96.59382629 C 146.60137939 96.04468536 145.53761292 95.63587189 142.64501953 96.28213501 C 139.98075867 97.28598022 137.69590759 97.16498566 135.12524414 97.80229950 C 131.77618408 98.58155823 130.77256775 98.83051300 128.57205200 100.47193146 C 125.45236969 101.94891357 124.44980621 99.14904022 126.98065186 97.76174164 C 130.17185974 96.48530579 132.99641418 95.55138397 134.70637512 95.14863586 C 138.68624878 94.04269409 138.66564941 94.03249359 140.34277344 92.37075043 C 142.65412903 90.51316833 145.16899109 91.21026611 148.11605835 91.11591339 C 150.27098083 91.32494354 152.70129395 91.23757935 155.58879089 92.03854370 C 158.97439575 93.36475372 160.58151245 95.04676056 158.04992676 96.66564941 C 154.44885254 98.30821228 151.84111023 97.53957367 149.64619446 96.59382629" stroke-width="1.54424012" fill="rgb(211, 170, 121)" opacity="1.0" stroke="rgb(82, 70, 53)" stroke-opacity="1.0" stroke-linecap="round" stroke-linejoin="round"/>
    <path d="M 123.34639740 78.11312103 C 122.17720795 77.72917175 120.04281616 77.47819519 117.90986633 77.57227325 C 115.90627289 77.71504211 114.10610962 77.84455872 112.07744598 77.68662262 C 109.78739166 77.29484558 107.83048248 76.80750275 106.63892365 77.02655029 C 106.04207611 75.88375854 106.19567871 74.46649170 107.16640472 73.02148438 C 108.54743958 72.02082825 110.26016235 71.14739227 112.37313843 70.26450348 C 114.54809570 69.53942108 115.10513306 69.49891663 116.92736816 68.79240417 C 118.82743073 68.20466614 120.68320465 67.50363159 122.79290771 69.26019287 C 124.79071045 70.75620270 125.60695648 71.90652466 127.38155365 73.06451416 C 129.26919556 74.23596191 130.63485718 75.71562958 129.28143311 77.57418823 C 128.22407532 78.70067596 125.99412537 79.28719330 123.34639740 78.11312103" stroke-width="1.61962116" fill="rgb(78, 97, 29)" opacity="1.0" stroke="rgb(255, 255, 111)" stroke-opacity="1.0" stroke-linecap="round" stroke-linejoin="round"/>
    <path d="M 110.09723663 125.49275208 C 109.69317627 126.27582550 107.33553314 130.82975769 103.57893372 133.64413452 C 100.46613312 135.84307861 98.43433380 136.70111084 93.28922272 137.32135010 C 87.75502014 137.18104553 87.12160492 137.44386292 81.80046844 134.40852356 C 79.40718079 132.90283203 76.52253723 129.83084106 75.04533386 125.06894684 C 74.32523346 122.61243439 73.65802002 117.91448975 75.43472290 113.18464661 C 77.03540039 109.96051788 77.94641876 107.50447845 80.53625488 105.76335144 C 83.94667053 102.79862976 86.96055603 101.49703979 91.64532471 101.13367462 C 94.79914856 100.98973083 98.74272156 101.14788818 102.87213898 103.73704529 C 106.72325134 106.32646942 107.93102264 107.75452423 110.36656189 112.38030243 C 111.64806366 115.93865967 111.84094238 118.62435913 110.09723663 125.49275208" stroke-width="1.47779775" fill="rgb(66, 142, 52)" opacity="1.0" stroke="rgb(10, 14, 10)" stroke-opacity="0.9491713" stroke-linecap="round" stroke-linejoin="round"/>
    <path d="M 118.94767761 66.91062927 C 115.34774780 65.40233612 112.43142700 62.22206497 107.64739990 56.58034897 C 104.62512207 50.60879135 100.53372192 47.55494690 100.27798462 41.84083557 C 99.68386841 35.14662170 101.61678314 28.87139893 104.70700836 25.18906212 C 110.42681122 18.02350807 112.72331238 17.11854744 119.51773834 14.33063126 C 127.50026703 12.58407974 131.53976440 13.04610062 136.76261902 14.43564224 C 146.61782837 19.14270210 144.34538269 17.55312157 149.81640625 22.86372948 C 154.30886841 28.73324966 156.21803284 33.59654236 156.77577209 39.68825531 C 156.90065002 44.82455444 155.49305725 51.62275696 151.89012146 56.38137817 C 148.45622253 61.00530624 143.91453552 65.07424927 137.91119385 67.70484924 C 133.46528625 69.46181488 128.22085571 70.73301697 118.94767761 66.91062927" stroke-width="1.53890693" fill="rgb(77, 154, 62)" opacity="1.0" stroke="rgb(1, 6, 0)" stroke-opacity="0.8995537" stroke-linecap="round" stroke-linejoin="round"/>
    <path d="M 185.08293152 92.62590027 C 185.29371643 96.84722900 184.91154480 99.21250153 182.41992188 105.01522064 C 180.26373291 108.93705750 176.34269714 113.61312103 171.87844849 115.29797363 C 166.94834900 117.30529022 161.86610413 118.42218018 157.75993347 117.20277405 C 152.77128601 116.46981049 149.25335693 114.57177734 145.07000732 110.53497314 C 141.64108276 105.94863129 139.33999634 101.32074738 139.76684570 96.72142792 C 140.15171814 90.73449707 140.16043091 88.65145111 141.98278809 84.48445892 C 145.52758789 78.77661133 146.52261353 76.97335815 151.60679626 73.39816284 C 154.73883057 71.69132996 160.37344360 69.60118866 166.01470947 71.25056458 C 170.19097900 72.07169342 173.74792480 73.51167297 178.40299988 77.79020691 C 181.56341553 81.34338379 183.87991333 84.99582672 185.08293152 92.62590027" stroke-width="1.52846754" fill="rgb(66, 144, 51)" opacity="1.0" stroke="rgb(15, 19, 14)" stroke-opacity="0.9827807" stroke-linecap="round" stroke-linejoin="round"/>
    <path d="M 99.22662354 93.89296722 C 96.83757019 94.67781830 91.28752136 94.62727356 87.17197418 92.82265472 C 83.88390350 91.32090759 79.85755157 88.12216187 77.85928345 83.56475830 C 76.59663391 80.55239868 75.24084473 76.45570374 76.65902710 70.94647217 C 77.10817719 67.97875977 78.97470093 63.34716797 83.00537109 59.05206299 C 85.36027527 56.95290375 88.53446198 54.54934692 94.87574005 53.37196350 C 99.57921600 53.41880798 101.38216400 52.94762039 105.00585938 55.18244934 C 109.71495056 57.82347107 112.98510742 60.72320938 115.24463654 63.85618210 C 118.06271362 68.20633698 119.45759583 72.75914764 118.60929108 76.24563599 C 117.55730438 80.50730133 115.04180908 84.48984528 111.85791016 87.32575226 C 108.93268585 90.10455322 105.18104553 91.88639069 99.22662354 93.89296722" stroke-width="1.56283700" fill="rgb(95, 174, 74)" opacity="1.0" stroke="rgb(10, 12, 8)" stroke-opacity="0.92788076" stroke-linecap="round" stroke-linejoin="round"/>
    <path d="M 151.19430542 69.79833984 C 147.59408569 70.16821289 144.30946350 69.18549347 141.50080872 67.89794922 C 138.61386108 65.65628815 137.43981934 63.76676941 135.92277527 60.11668777 C 134.42208862 56.14516449 134.40272522 52.05482483 135.75991821 49.65475082 C 137.12599182 45.23002625 139.87670898 42.30144501 142.35952759 40.33524704 C 145.71347046 37.77754211 147.99784851 37.00659943 153.01037598 36.26999664 C 159.52236938 36.86046982 158.41528320 36.39945221 162.07752991 38.49052429 C 165.75994873 40.75838470 168.28646851 43.98863983 169.75765991 47.54634857 C 170.96427917 52.73757553 170.99200439 53.42984009 169.71466064 58.86783981 C 167.86836243 62.01616669 166.61009216 64.05260468 162.61584473 67.03031158 C 158.07730103 69.45278168 155.51698303 69.65913391 151.19430542 69.79833984" stroke-width="1.42798674" fill="rgb(99, 174, 77)" opacity="1.0" stroke="rgb(15, 15, 14)" stroke-opacity="0.97319734" stroke-linecap="round" stroke-linejoin="round"/>
    <path d="M 120.19226074 95.11021423 C 119.19533539 95.71210480 116.21706390 96.56908417 113.01981354 96.51663208 C 110.57601166 96.31624603 107.30458832 95.79743958 105.05986023 93.45618439 C 103.45094299 91.73871613 101.86779022 90.04942322 101.18125916 86.33882904 C 100.87008667 83.80394745 100.64086151 81.84761810 102.29625702 77.96780396 C 103.83670807 75.65785217 104.83566284 74.16500092 108.41909790 71.92655182 C 111.20674896 70.90875244 112.43690491 70.18052673 114.73446655 70.41765594 C 117.90073395 70.46693420 120.73983002 71.09926605 123.29851532 73.00504303 C 126.01473999 75.15380096 127.49909210 77.52536011 127.83470917 79.87805939 C 128.03486633 82.21881866 127.57395935 84.91229248 126.56436157 88.39916229 C 125.52696228 90.68858337 124.57947540 92.03409576 120.19226074 95.11021423" stroke-width="1.44170785" fill="rgb(100, 180, 78)" opacity="1.0" stroke="rgb(13, 12, 17)" stroke-opacity="0.9505095" stroke-linecap="round" stroke-linejoin="round"/>
    <path d="M 154.76425171 83.75170135 C 152.92164612 85.68735504 149.16516113 87.28905487 146.25941467 87.73651886 C 142.65657043 88.12117767 139.91444397 88.13358307 136.90368652 86.66846466 C 134.91070557 85.49087524 131.60377502 83.95487213 130.22584534 80.76628113 C 128.64788818 78.38710022 128.34387207 75.27928162 128.93746948 71.52857971 C 130.07635498 67.81835175 130.68855286 66.26372528 133.33851624 63.30928040 C 138.07817078 59.80611038 136.62553406 60.22136307 140.33984375 59.06762695 C 143.80101013 58.06295395 147.32794189 58.31003571 150.46296692 59.49271011 C 153.83593750 61.03043365 156.36550903 63.50125122 157.44000244 65.63204956 C 159.17352295 68.88694000 159.63920593 72.14304352 159.35057068 75.12527466 C 159.03678894 78.29424286 157.09350586 81.73466492 154.76425171 83.75170135" stroke-width="1.35445499" fill="rgb(102, 177, 78)" opacity="1.0" stroke="rgb(14, 11, 17)" stroke-opacity="0.97691643" stroke-linecap="round" stroke-linejoin="round"/>
    <path d="M 118.54718781 107.84249878 C 118.15049744 107.96082306 116.55461884 108.44982147 115.74089813 108.79390717 C 114.35476685 108.87472534 113.81967926 109.43240356 113.02577209 109.13018799 C 113.02671814 108.03376770 113.03330231 107.14850616 112.99163055 105.83475494 C 112.92749786 104.50531769 112.95379639 103.46565247 113.20372009 102.51107025 C 113.69454193 101.48985291 114.22550964 101.13352966 115.43915558 100.05846405 C 116.43141937 99.48613739 116.82287598 99.16904449 117.60255432 98.80051422 C 118.48986816 98.28281403 119.75957489 99.20659637 120.52326965 99.71746826 C 121.50328064 100.76725769 121.05438995 101.38639832 120.94519043 102.50776672 C 120.88391876 103.46397400 120.91533661 104.66701508 121.14089203 105.71225739 C 121.08935547 106.85574341 120.00458527 106.91364288 118.54718781 107.84249878" stroke-width="0.99804282" fill="rgb(255, 255, 255)" opacity="1.0" stroke="rgb(255, 255, 255)" stroke-opacity="0.0" stroke-linecap="round" stroke-linejoin="round"/>
    <path d="M 132.35626221 30.96930122 C 132.35624695 30.97012329 132.35658264 30.97204971 132.35679626 30.97439766 C 132.35673523 30.97678185 132.35704041 30.97756577 132.35557556 30.97883034 C 132.35415649 30.97997284 132.35215759 30.98051071 132.34994507 30.98044205 C 132.34808350 30.98060226 132.34579468 30.97979736 132.34396362 30.97909355 C 132.34187317 30.97820473 132.34045410 30.97699356 132.33941650 30.97513580 C 132.33851624 30.97168922 132.33857727 30.97237015 132.33920288 30.97047043 C 132.34002686 30.96852875 132.34130859 30.96653175 132.34255981 30.96487236 C 132.34483337 30.96277618 132.34519958 30.96225739 132.34733582 30.96149063 C 132.34938049 30.96115494 132.35131836 30.96213531 132.35282898 30.96338844 C 132.35456848 30.96457863 132.35536194 30.96605492 132.35626221 30.96930122" stroke-width="2.00000000" fill="rgb(61, 209, 0)" opacity="1.0" stroke="rgb(76, 156, 58)" stroke-opacity="1.0" stroke-linecap="round" stroke-linejoin="round"/>
    <path d="M 172.30718994 181.43608093 C 166.23413086 181.90293884 162.04548645 181.31907654 150.21499634 181.57907104 C 143.68489075 181.63740540 137.13024902 181.81880188 126.38472748 181.45793152 C 119.85477448 181.48255920 113.32385254 181.97946167 103.64920807 181.67271423 C 94.45528412 181.26016235 87.72908020 181.53858948 77.47425842 181.92138672 C 69.92718506 183.15757751 68.79222870 173.89695740 78.03999329 175.78497314 C 90.45698547 175.63554382 89.81744385 176.23193359 98.75449371 175.90065002 C 109.91664886 175.85929871 111.57981110 175.52420044 121.39569092 176.04315186 C 130.44128418 175.30218506 135.54484558 176.23605347 145.79147339 175.75698853 C 155.45367432 176.25588989 161.52157593 175.68507385 169.19567871 175.67658997 C 179.59773254 174.99044800 183.72691345 179.88442993 172.30718994 181.43608093" stroke-width="1.82195318" fill="rgb(189, 71, 5)" opacity="1.0" stroke="rgb(19, 10, 16)" stroke-opacity="0.91765344" stroke-linecap="round" stroke-linejoin="round"/>
    <path d="M 176.51739502 189.03176880 C 176.19567871 192.64031982 176.24818420 193.18582153 175.87144470 197.44184875 C 175.71490479 200.55122375 175.42352295 202.39942932 175.11579895 206.68382263 C 175.23373413 208.81416321 174.91664124 212.76347351 174.79296875 215.38584900 C 174.06320190 218.90357971 175.54077148 222.76139832 172.69514465 222.76391602 C 168.90325928 222.84130859 167.85679626 220.77900696 169.14691162 216.91226196 C 170.25585938 212.51391602 169.63793945 212.22579956 170.05725098 209.65908813 C 170.07653809 206.23046875 170.38423157 203.60749817 170.55618286 200.81712341 C 170.31210327 197.94392395 170.85183716 195.14982605 170.82757568 191.75613403 C 171.22528076 188.59162903 169.94024658 185.29797363 172.16717529 183.23640442 C 176.25854492 182.23622131 177.31958008 184.32397461 176.51739502 189.03176880" stroke-width="1.68229783" fill="rgb(249, 166, 76)" opacity="1.0" stroke="rgb(109, 33, 1)" stroke-opacity="0.42405003" stroke-linecap="round" stroke-linejoin="round"/>
    <path d="M 119.43501282 69.65897369 C 119.02888489 69.35485077 117.87937164 69.07752991 116.20417786 68.65512848 C 114.72256470 68.38159180 114.98834229 67.39857483 115.06372833 66.12312317 C 115.09259796 64.58999634 114.51290894 63.49676895 113.99227905 62.65023422 C 113.12980652 60.83001328 112.62612152 60.81122971 111.90338898 59.16347504 C 112.30567169 58.71563721 114.25599670 60.07344437 115.24808502 60.14199066 C 117.48845673 61.01858139 117.06592560 60.81218338 118.40461731 61.20434189 C 119.85655212 61.36864853 121.56445312 61.50542831 121.84168243 62.36506653 C 122.41972351 64.23955536 122.17344666 64.89183044 122.41915894 66.21891022 C 122.61015320 68.02375793 122.53659058 68.75787354 122.74122620 70.01004791 C 122.49264526 71.53782654 121.53072357 70.09858704 119.43501282 69.65897369" stroke-width="1.51162374" fill="rgb(251, 252, 249)" opacity="1.0" stroke="rgb(27, 28, 26)" stroke-opacity="1.0" stroke-linecap="round" stroke-linejoin="round"/>
    <path d="M 126.50330353 68.92399597 C 126.33657837 67.91879272 126.27281952 67.55654144 126.06938171 66.48771667 C 125.95410919 65.37886810 126.04002380 64.72329712 125.66369629 63.71406937 C 125.26181030 62.44382477 125.37896729 61.73482895 126.55456543 62.43848038 C 127.24383545 62.92614365 127.31661987 63.90627670 127.06637573 65.12065887 C 127.03881073 65.79871368 126.89318085 66.36139679 127.06729126 67.63311768 C 127.39871979 68.50318146 127.12918091 69.29364014 128.18290710 69.05497742 C 129.28648376 69.68350983 129.11698914 70.18751526 128.70697021 71.28376007 C 128.22900391 72.28005981 128.88551331 73.59331512 128.11637878 73.74750519 C 126.96185303 73.94211578 126.86152649 72.79878998 126.76084900 71.88985443 C 126.54747009 70.52594757 126.67707825 70.02642059 126.50330353 68.92399597" stroke-width="2.00000000" fill="rgb(25, 20, 18)" opacity="1.0" stroke="rgb(255, 183, 193)" stroke-opacity="0.42838922" stroke-linecap="round" stroke-linejoin="round"/>
    <path d="M 179.25990295 177.82218933 C 179.18119812 178.53797913 179.00546265 179.05647278 178.99903870 179.87652588 C 178.84521484 180.66409302 179.19718933 181.30715942 178.48239136 181.46493530 C 177.81588745 181.36837769 177.36889648 181.34793091 176.42875671 181.37705994 C 175.74148560 181.34646606 174.86151123 181.54142761 174.42114258 181.26466370 C 174.38864136 180.26293945 174.43148804 180.09190369 174.57731628 179.21513367 C 174.73703003 178.07585144 174.65150452 178.32553101 174.61013794 177.46459961 C 174.61080933 176.63935852 174.30284119 175.97785950 175.00907898 175.86622620 C 175.79090881 175.83656311 176.22016907 175.92358398 176.91181946 175.72413635 C 177.72851562 175.67616272 178.28782654 175.62127686 178.87048340 175.91249084 C 179.35906982 176.32933044 179.34587097 177.15866089 179.25990295 177.82218933" stroke-width="1.86710906" fill="rgb(255, 179, 81)" opacity="1.0" stroke="rgb(53, 24, 15)" stroke-opacity="0.97549725" stroke-linecap="round" stroke-linejoin="round"/>
  </g>
</svg>
