<svg xmlns="http://www.w3.org/2000/svg" viewBox="0 0 256 256" height="256.0px" width="256.0px">
<path id="" fill="#D32F2F" fill-opacity="1.0" stroke="#000000" stroke-width="0.0" stroke-opacity="1.0" stroke-linecap="round" stroke-linejoin="round"  filling="0" d="M83.000 175.000 C113.000 175.000 143.000 175.000 173.000 175.000 C174.326 175.000 175.598 175.527 176.536 176.464 C177.473 177.402 178.000 178.674 178.000 180.000 C178.000 193.333 178.000 206.667 178.000 220.000 C178.000 221.326 177.473 222.598 176.536 223.536 C175.598 224.473 174.326 225.000 173.000 225.000 C143.000 225.000 113.000 225.000 83.000 225.000 C81.674 225.000 80.402 224.473 79.465 223.536 C78.527 222.598 78.000 221.326 78.000 220.000 C78.000 206.667 78.000 193.333 78.000 180.000 C78.000 178.674 78.527 177.402 79.465 176.464 C80.402 175.527 81.674 175.000 83.000 175.000"></path>
<path id="" fill="#B71C1C" fill-opacity="1.0" stroke="#000000" stroke-width="0.0" stroke-opacity="1.0" stroke-linecap="round" stroke-linejoin="round"  filling="0" d="M78.000 175.000 C111.334 181.667 144.667 181.667 178.000 175.000 C178.000 191.667 178.000 208.333 178.000 225.000 C144.667 218.333 111.334 218.333 78.000 225.000 C78.000 208.333 78.000 191.667 78.000 175.000"></path>
<path id="" fill="#8B0000" fill-opacity="1.0" stroke="#000000" stroke-width="0.0" stroke-opacity="1.0" stroke-linecap="round" stroke-linejoin="round"  filling="0" d="M80.500 220.000 C112.166 220.000 143.833 220.000 175.500 220.000 C175.500 221.667 175.500 223.333 175.500 225.000 C143.833 225.000 112.166 225.000 80.500 225.000 C80.500 223.333 80.500 221.667 80.500 220.000"></path>
<path id="" fill="#5D4037" fill-opacity="1.0" stroke="#000000" stroke-width="0.0" stroke-opacity="1.0" stroke-linecap="round" stroke-linejoin="round"  filling="0" d="M124.518 176.393 C117.576 159.036 115.843 141.660 119.323 124.265 C122.607 107.840 124.250 91.419 124.250 75.000 C124.250 74.876 124.250 74.753 124.250 74.629 C124.274 74.507 124.299 74.386 124.323 74.265 C127.558 58.088 127.558 41.912 124.323 25.736 C126.774 25.245 129.225 24.755 131.677 24.264 C135.085 41.300 135.109 58.335 131.749 75.370 C131.725 92.161 130.035 108.950 126.677 125.735 C123.490 141.673 125.091 157.631 131.482 173.607 C129.161 174.536 126.840 175.464 124.518 176.393"></path>
<path id="" fill="#5D4037" fill-opacity="1.0" stroke="#000000" stroke-width="0.0" stroke-opacity="1.0" stroke-linecap="round" stroke-linejoin="round"  filling="0" d="M121.586 126.414 C115.453 120.282 106.086 118.790 93.485 121.940 C93.161 120.647 92.839 119.353 92.515 118.060 C106.580 114.543 117.214 116.385 124.414 123.586 C123.471 124.529 122.529 125.471 121.586 126.414"></path>
<path id="" fill="#5D4037" fill-opacity="1.0" stroke="#000000" stroke-width="0.0" stroke-opacity="1.0" stroke-linecap="round" stroke-linejoin="round"  filling="0" d="M126.891 98.336 C137.381 91.342 149.579 89.583 163.485 93.060 C163.161 94.353 162.839 95.647 162.515 96.940 C149.753 93.750 138.618 95.325 129.109 101.664 C128.370 100.554 127.630 99.446 126.891 98.336"></path>
<path id="" fill="#5D4037" fill-opacity="1.0" stroke="#000000" stroke-width="0.0" stroke-opacity="1.0" stroke-linecap="round" stroke-linejoin="round"  filling="0" d="M127.168 76.248 C117.723 69.951 108.277 69.951 98.832 76.248 C98.277 75.416 97.723 74.584 97.168 73.752 C107.723 66.715 118.277 66.715 128.832 73.752 C128.277 74.584 127.723 75.416 127.168 76.248"></path>
<path id="" fill="#1B5E20" fill-opacity="1.0" stroke="#000000" stroke-width="0.0" stroke-opacity="1.0" stroke-linecap="round" stroke-linejoin="round"  filling="0" d="M113.000 120.000 C113.000 125.302 110.892 130.393 107.142 134.142 C103.393 137.891 98.302 140.000 93.000 140.000 C87.698 140.000 82.607 137.891 78.858 134.142 C75.108 130.393 73.000 125.302 73.000 120.000 C73.000 114.698 75.108 109.607 78.858 105.858 C82.607 102.108 87.698 100.000 93.000 100.000 C98.302 100.000 103.393 102.108 107.142 105.858 C110.892 109.607 113.000 114.698 113.000 120.000"></path>
<path id="" fill="#2E7D32" fill-opacity="1.0" stroke="#000000" stroke-width="0.0" stroke-opacity="1.0" stroke-linecap="round" stroke-linejoin="round"  filling="0" d="M158.000 40.000 C158.000 47.953 154.837 55.590 149.213 61.213 C143.589 66.837 135.954 70.000 128.000 70.000 C120.047 70.000 112.410 66.837 106.787 61.213 C101.163 55.590 98.000 47.953 98.000 40.000 C98.000 32.047 101.163 24.410 106.787 18.787 C112.410 13.163 120.047 10.000 128.000 10.000 C135.954 10.000 143.589 13.163 149.213 18.787 C154.837 24.410 158.000 32.047 158.000 40.000"></path>
<path id="" fill="#388E3C" fill-opacity="1.0" stroke="#000000" stroke-width="0.0" stroke-opacity="1.0" stroke-linecap="round" stroke-linejoin="round"  filling="0" d="M188.000 95.000 C188.000 101.628 185.365 107.991 180.678 112.677 C175.991 117.365 169.628 120.000 163.000 120.000 C156.372 120.000 150.009 117.365 145.322 112.677 C140.635 107.991 138.000 101.628 138.000 95.000 C138.000 88.372 140.635 82.009 145.322 77.323 C150.009 72.635 156.372 70.000 163.000 70.000 C169.628 70.000 175.991 72.635 180.678 77.323 C185.365 82.009 188.000 88.372 188.000 95.000"></path>
<path id="" fill="#43A047" fill-opacity="1.0" stroke="#000000" stroke-width="0.0" stroke-opacity="1.0" stroke-linecap="round" stroke-linejoin="round"  filling="0" d="M120.500 75.000 C120.500 80.965 118.128 86.692 113.910 90.910 C109.692 95.128 103.965 97.500 98.000 97.500 C92.035 97.500 86.308 95.128 82.090 90.910 C77.872 86.692 75.500 80.965 75.500 75.000 C75.500 69.035 77.872 63.308 82.090 59.090 C86.308 54.872 92.035 52.500 98.000 52.500 C103.965 52.500 109.692 54.872 113.910 59.090 C118.128 63.308 120.500 69.035 120.500 75.000"></path>
<path id="" fill="#4CAF50" fill-opacity="1.0" stroke="#000000" stroke-width="0.0" stroke-opacity="1.0" stroke-linecap="round" stroke-linejoin="round"  filling="0" d="M173.000 55.000 C173.000 60.303 170.891 65.393 167.142 69.142 C163.393 72.892 158.303 75.000 153.000 75.000 C147.697 75.000 142.607 72.892 138.858 69.142 C135.109 65.393 133.000 60.303 133.000 55.000 C133.000 49.697 135.109 44.607 138.858 40.858 C142.607 37.109 147.697 35.000 153.000 35.000 C158.303 35.000 163.393 37.109 167.142 40.858 C170.891 44.607 173.000 49.697 173.000 55.000"></path>
<path id="" fill="#66BB6A" fill-opacity="1.0" stroke="#000000" stroke-width="0.0" stroke-opacity="1.0" stroke-linecap="round" stroke-linejoin="round"  filling="0" d="M125.500 85.000 C125.500 88.314 124.182 91.495 121.839 93.839 C119.495 96.182 116.314 97.500 113.000 97.500 C109.686 97.500 106.505 96.182 104.161 93.839 C101.818 91.495 100.500 88.314 100.500 85.000 C100.500 81.686 101.818 78.505 104.161 76.161 C106.505 73.818 109.686 72.500 113.000 72.500 C116.314 72.500 119.495 73.818 121.839 76.161 C124.182 78.505 125.500 81.686 125.500 85.000"></path>
<path id="" fill="#81C784" fill-opacity="1.0" stroke="#000000" stroke-width="0.0" stroke-opacity="1.0" stroke-linecap="round" stroke-linejoin="round"  filling="0" d="M158.000 75.000 C158.000 78.977 156.419 82.795 153.607 85.606 C150.794 88.419 146.977 90.000 143.000 90.000 C139.023 90.000 135.206 88.419 132.393 85.606 C129.581 82.795 128.000 78.977 128.000 75.000 C128.000 71.023 129.581 67.205 132.393 64.394 C135.206 61.581 139.023 60.000 143.000 60.000 C146.977 60.000 150.794 61.581 153.607 64.394 C156.419 67.205 158.000 71.023 158.000 75.000"></path>
<path id="" fill="#A5D6A7" fill-opacity="1.0" stroke="#000000" stroke-width="0.0" stroke-opacity="1.0" stroke-linecap="round" stroke-linejoin="round"  filling="0" d="M133.000 105.000 C133.000 107.651 131.945 110.197 130.071 112.071 C128.197 113.946 125.651 115.000 123.000 115.000 C120.349 115.000 117.803 113.946 115.929 112.071 C114.054 110.197 113.000 107.651 113.000 105.000 C113.000 102.349 114.054 99.803 115.929 97.929 C117.803 96.054 120.349 95.000 123.000 95.000 C125.651 95.000 128.197 96.054 130.071 97.929 C131.945 99.803 133.000 102.349 133.000 105.000"></path>
<path id="" fill="#C8E6C9" fill-opacity="1.0" stroke="#000000" stroke-width="0.0" stroke-opacity="1.0" stroke-linecap="round" stroke-linejoin="round"  filling="0" d="M145.500 35.000 C145.500 36.988 144.710 38.897 143.303 40.303 C141.898 41.710 139.988 42.500 138.000 42.500 C136.012 42.500 134.102 41.710 132.697 40.303 C131.290 38.897 130.500 36.988 130.500 35.000 C130.500 33.012 131.290 31.103 132.697 29.697 C134.102 28.290 136.012 27.500 138.000 27.500 C139.988 27.500 141.898 28.290 143.303 29.697 C144.710 31.103 145.500 33.012 145.500 35.000"></path>
<path id="" fill="#bf4401" fill-opacity="1.0" stroke="#000000" stroke-width="0.0" stroke-opacity="1.0" stroke-linecap="round" stroke-linejoin="round"  filling="0" d="M70.750 181.000 C70.750 179.000 70.750 177.000 70.750 175.000 C71.000 174.750 71.250 174.500 71.500 174.250 C107.584 174.333 143.667 174.417 179.750 174.500 C179.750 176.833 179.750 179.167 179.750 181.500 C179.500 181.750 179.250 182.000 179.000 182.250 C144.333 182.250 109.666 182.250 75.000 182.250 C74.166 182.417 73.334 182.583 72.500 182.750 C71.916 182.167 71.334 181.583 70.750 181.000"></path>
<path id="" fill="#fea64a" fill-opacity="1.0" stroke="#000000" stroke-width="0.0" stroke-opacity="1.0" stroke-linecap="round" stroke-linejoin="round"  filling="0" d="M170.000 222.750 C169.583 222.500 169.167 222.250 168.750 222.000 C168.750 220.667 168.750 219.333 168.750 218.000 C168.917 217.833 169.083 217.667 169.250 217.500 C169.250 215.000 169.250 212.500 169.250 210.000 C169.417 209.833 169.583 209.667 169.750 209.500 C169.750 206.833 169.750 204.167 169.750 201.500 C169.917 201.333 170.083 201.167 170.250 201.000 C170.250 198.000 170.250 195.000 170.250 192.000 C170.417 191.833 170.583 191.667 170.750 191.500 C170.750 188.833 170.750 186.167 170.750 183.500 C170.833 183.417 170.917 183.333 171.000 183.250 C172.833 183.250 174.667 183.250 176.500 183.250 C176.583 183.333 176.667 183.417 176.750 183.500 C176.750 185.000 176.750 186.500 176.750 188.000 C176.583 188.167 176.417 188.333 176.250 188.500 C176.250 191.333 176.250 194.167 176.250 197.000 C176.083 197.167 175.917 197.333 175.750 197.500 C175.750 199.500 175.750 201.500 175.750 203.500 C175.583 203.667 175.417 203.833 175.250 204.000 C175.250 206.500 175.250 209.000 175.250 211.500 C175.083 211.667 174.917 211.833 174.750 212.000 C174.750 214.667 174.750 217.333 174.750 220.000 C174.583 220.167 174.417 220.333 174.250 220.500 C174.250 221.000 174.250 221.500 174.250 222.000 C174.167 222.083 174.083 222.167 174.000 222.250 C173.833 222.250 173.667 222.250 173.500 222.250 C173.333 222.417 173.167 222.583 173.000 222.750 C172.667 222.750 172.333 222.750 172.000 222.750 C171.833 222.583 171.667 222.417 171.500 222.250 C171.333 222.417 171.167 222.583 171.000 222.750 C170.667 222.750 170.333 222.750 170.000 222.750"></path>
<path id="" fill="#fcfdfc" fill-opacity="1.0" stroke="#000000" stroke-width="0.0" stroke-opacity="1.0" stroke-linecap="round" stroke-linejoin="round"  filling="0" d="M122.000 70.750 C121.834 70.584 121.666 70.416 121.500 70.250 C121.334 70.250 121.166 70.250 121.000 70.250 C120.834 70.084 120.666 69.916 120.500 69.750 C120.334 69.750 120.166 69.750 120.000 69.750 C119.834 69.584 119.666 69.416 119.500 69.250 C118.834 69.250 118.166 69.250 117.500 69.250 C117.334 69.084 117.166 68.916 117.000 68.750 C116.500 68.750 116.000 68.750 115.500 68.750 C115.250 68.500 115.000 68.250 114.750 68.000 C114.750 67.334 114.750 66.666 114.750 66.000 C114.584 65.834 114.416 65.666 114.250 65.500 C114.250 64.834 114.250 64.166 114.250 63.500 C114.084 63.333 113.916 63.167 113.750 63.000 C113.750 62.833 113.750 62.667 113.750 62.500 C113.584 62.333 113.416 62.167 113.250 62.000 C113.250 61.833 113.250 61.667 113.250 61.500 C112.916 61.167 112.584 60.833 112.250 60.500 C112.250 60.167 112.250 59.833 112.250 59.500 C112.334 59.417 112.416 59.333 112.500 59.250 C113.000 59.250 113.500 59.250 114.000 59.250 C114.166 59.417 114.334 59.583 114.500 59.750 C114.834 59.750 115.166 59.750 115.500 59.750 C115.666 59.917 115.834 60.083 116.000 60.250 C116.500 60.250 117.000 60.250 117.500 60.250 C117.666 60.417 117.834 60.583 118.000 60.750 C118.500 60.750 119.000 60.750 119.500 60.750 C119.666 60.917 119.834 61.083 120.000 61.250 C120.334 61.250 120.666 61.250 121.000 61.250 C121.250 61.500 121.500 61.750 121.750 62.000 C121.750 62.833 121.750 63.667 121.750 64.500 C121.916 64.666 122.084 64.834 122.250 65.000 C122.250 66.166 122.250 67.334 122.250 68.500 C122.416 68.666 122.584 68.834 122.750 69.000 C122.750 69.334 122.750 69.666 122.750 70.000 C122.500 70.250 122.250 70.500 122.000 70.750"></path>
<path id="" fill="#dec27c" fill-opacity="1.0" stroke="#000000" stroke-width="0.0" stroke-opacity="1.0" stroke-linecap="round" stroke-linejoin="round"  filling="0" d="M126.500 74.750 C125.584 73.834 124.666 72.916 123.750 72.000 C123.750 71.834 123.750 71.666 123.750 71.500 C123.584 71.334 123.416 71.166 123.250 71.000 C123.250 70.834 123.250 70.666 123.250 70.500 C123.084 70.334 122.916 70.166 122.750 70.000 C122.750 69.000 122.750 68.000 122.750 67.000 C122.584 66.834 122.416 66.666 122.250 66.500 C122.250 65.666 122.250 64.834 122.250 64.000 C122.084 63.833 121.916 63.667 121.750 63.500 C121.750 63.000 121.750 62.500 121.750 62.000 C122.000 61.750 122.250 61.500 122.500 61.250 C123.666 61.250 124.834 61.250 126.000 61.250 C126.250 61.500 126.500 61.750 126.750 62.000 C126.750 63.333 126.750 64.666 126.750 66.000 C126.916 66.166 127.084 66.334 127.250 66.500 C127.250 69.000 127.250 71.500 127.250 74.000 C127.000 74.250 126.750 74.500 126.500 74.750"></path>
<path id="" fill="#fcaa4e" fill-opacity="1.0" stroke="#000000" stroke-width="0.0" stroke-opacity="1.0" stroke-linecap="round" stroke-linejoin="round"  filling="0" d="M178.500 181.250 C177.167 181.250 175.833 181.250 174.500 181.250 C174.250 181.000 174.000 180.750 173.750 180.500 C173.750 180.167 173.750 179.833 173.750 179.500 C173.917 179.333 174.083 179.167 174.250 179.000 C174.250 177.833 174.250 176.667 174.250 175.500 C174.333 175.417 174.417 175.333 174.500 175.250 C175.833 175.250 177.167 175.250 178.500 175.250 C178.750 175.500 179.000 175.750 179.250 176.000 C179.250 177.500 179.250 179.000 179.250 180.500 C179.000 180.750 178.750 181.000 178.500 181.250"></path>
</svg>