<?xml version="1.0" ?>
<svg xmlns="http://www.w3.org/2000/svg" version="1.1" width="256" height="256" viewBox="0 0 256 256">
  <defs/>
  <g>
    <path d="M -21.80499268 338.13461304 C -49.46505737 320.44985962 -88.89328003 281.58813477 -112.69371033 223.62658691 C -131.43998718 179.43914795 -141.37178040 112.45419312 -123.07949829 66.20217896 C -109.03971863 13.32506561 -79.21919250 -39.33734131 -32.59814453 -75.40980530 C -1.38598633 -99.78933716 49.60279846 -128.79818726 122.64086151 -132.41567993 C 157.10203552 -131.75524902 220.52096558 -119.84361267 272.84295654 -82.78683472 C 321.69042969 -42.86164856 345.55438232 -18.31875610 362.15295410 24.26771545 C 384.47991943 99.85070801 393.46673584 127.90215302 379.22399902 187.98554993 C 357.73080444 254.70188904 357.28948975 264.71801758 297.88864136 323.11065674 C 237.40126038 364.38989258 225.68511963 376.48730469 143.61723328 392.93197632 C 88.09429932 396.53131104 48.92079926 375.45223999 -21.80499268 338.13461304" stroke-width="1.00000000" fill="rgb(255, 255, 255)" opacity="1.0"/>
    <path d="M 242.22438049 183.55337524 C 233.80157471 199.02761841 224.95071411 213.15219116 191.58432007 236.03417969 C 171.51219177 247.54562378 153.38713074 256.23266602 115.71569061 253.35278320 C 92.25961304 250.23034668 75.42660522 245.13439941 44.94464111 221.80931091 C 26.64295959 203.56611633 14.63188171 192.68569946 3.66776276 153.13084412 C 0.96946716 136.32006836 2.44634247 104.51200104 14.86776733 77.88256836 C 28.66041565 50.64662933 38.84283447 37.91550446 59.43782043 25.53831482 C 91.88096619 8.21532440 104.48265839 0.03112030 134.27375793 4.05150604 C 154.89703369 5.61571503 191.93470764 14.83042145 208.65325928 29.00453186 C 232.74758911 58.01848602 238.57473755 66.92112732 249.48738098 95.43627930 C 257.42422485 133.88638306 258.15502930 133.12879944 242.22438049 183.55337524" stroke-width="1.00000000" fill="rgb(255, 255, 255)" opacity="1.0"/>
    <path d="M 194.88963318 130.57313538 C 173.94377136 129.75624084 164.09306335 132.91702271 154.14260864 120.08097839 C 151.88862610 107.14582062 135.70323181 96.29306030 119.93801117 105.42276764 C 105.41125488 113.60511780 100.41738129 132.47593689 87.24127197 130.03123474 C 74.09384155 128.45285034 55.35218811 134.77297974 54.45317078 120.28296661 C 53.20349884 102.97109985 64.80502319 86.03973389 73.71154785 78.42556000 C 93.57351685 61.24943542 86.87823486 65.36263275 104.89670563 56.52679443 C 121.23278809 55.55030060 131.45385742 70.27204132 140.44525146 57.10456085 C 152.68807983 49.52595901 162.46887207 57.82504654 175.77064514 67.06639862 C 189.23646545 74.36820221 198.89196777 85.93385315 203.91125488 100.99072266 C 210.02595520 118.09202576 210.78067017 133.12133789 194.88963318 130.57313538" stroke-width="1.00000000" fill="rgb(252, 181, 3)" opacity="1.0"/>
    <path d="M 156.30491638 130.35385132 C 152.96311951 131.23944092 146.48147583 130.26106262 142.28112793 130.20697021 C 137.33642578 129.83328247 132.70497131 132.06201172 128.26228333 130.08813477 C 124.26712036 128.30880737 121.77842712 124.17648315 116.68152618 123.72408295 C 110.85966492 123.10768890 108.34508514 126.59608459 104.29797363 128.28668213 C 103.64323425 123.75372314 106.23872375 118.72856903 109.05905914 114.67725372 C 114.85758972 108.41181946 113.15130615 110.08299255 118.01651764 106.68677521 C 124.56813049 104.30112457 126.57526398 103.84403229 133.28224182 103.44732666 C 138.09481812 104.05636597 140.66940308 104.96223450 146.39007568 108.14593506 C 150.59239197 110.87397766 153.00325012 113.62683105 155.48350525 118.57456207 C 157.34173584 121.60850525 161.88357544 129.22607422 156.30491638 130.35385132" stroke-width="1.00000000" fill="rgb(238, 55, 36)" opacity="1.0"/>
    <path d="M 149.51318359 189.86503601 C 146.00532532 193.30958557 145.43334961 192.96710205 139.80278015 195.03894043 C 136.66165161 195.36097717 132.40733337 196.09425354 128.50703430 195.94325256 C 125.56776428 195.85813904 121.02420807 195.28279114 117.14578247 193.83355713 C 114.06494904 192.65829468 111.21469116 190.12904358 111.11701965 184.86372375 C 110.80160522 182.71777344 110.10832214 177.41235352 113.21020508 175.13031006 C 116.70965576 172.79049683 118.53466797 171.46887207 121.46496582 170.14556885 C 126.27856445 168.71025085 127.92676544 168.26470947 132.60510254 168.36869812 C 136.09434509 168.51657104 138.60130310 168.46041870 143.41799927 171.16462708 C 147.63587952 174.40083313 150.47036743 174.17245483 150.92279053 178.83413696 C 151.54522705 182.62232971 151.25344849 186.08755493 149.51318359 189.86503601" stroke-width="1.00000000" fill="rgb(244, 125, 171)" opacity="1.0"/>
    <path d="M 134.79107666 73.54219818 C 134.26004028 79.53497314 133.49459839 83.19538116 133.28999329 89.17401886 C 132.64596558 95.48593140 133.80354309 101.49411774 128.89488220 98.59165192 C 128.05238342 92.79369354 128.80229187 85.87474060 128.18333435 82.26845551 C 127.72329712 74.73287201 127.95128632 73.50835419 126.63236237 65.01837158 C 126.16404724 60.83726501 123.02379608 58.15734482 118.77347565 51.05041122 C 117.37064362 46.04632568 116.97698212 43.82978821 119.45549011 38.76617050 C 122.68319702 34.52188873 129.70021057 37.17321014 134.63043213 36.02448654 C 140.74888611 35.94710541 143.42906189 40.38245392 144.28791809 45.22978973 C 144.52168274 50.61865997 141.41326904 55.15572357 138.18002319 58.92275238 C 133.71224976 62.25487137 134.67366028 67.24652863 134.79107666 73.54219818" stroke-width="1.00000000" fill="rgb(239, 56, 33)" opacity="1.0"/>
    <path d="M 139.82897949 57.37419891 C 138.43257141 60.06138992 134.73944092 62.08391953 132.69384766 63.32223892 C 132.09895325 65.82018280 132.58091736 71.47106934 130.15405273 69.67923737 C 129.54158020 64.94839478 129.29045105 63.65058517 126.44188690 61.94216156 C 123.48529053 59.85716248 122.35147858 56.69931793 120.39335632 53.94829941 C 117.94589233 51.11988449 117.14300537 47.01088715 116.83457184 44.39992905 C 119.22154236 38.75770569 118.40968323 39.85538864 121.85564423 37.90372467 C 126.48938751 36.30218506 128.37928772 35.87368393 132.83395386 35.80685806 C 136.54467773 36.17977142 138.29646301 35.96851349 142.50801086 38.46942902 C 146.07589722 41.84958649 145.51501465 42.72448730 144.65690613 47.60771179 C 143.00827026 51.48553085 142.51487732 53.52043152 139.82897949 57.37419891" stroke-width="1.00000000" fill="rgb(248, 138, 33)" opacity="1.0"/>
    <path d="M 142.52206421 84.28900909 C 141.30873108 88.94360352 141.44551086 89.33090210 139.98573303 94.79885864 C 139.21095276 98.35385132 138.45256042 102.03123474 134.69403076 102.02383423 C 132.24354553 98.84246826 133.32717896 94.27992249 133.43064880 91.48876953 C 133.97483826 86.35344696 134.18525696 84.50151062 134.38520813 80.12488556 C 134.66830444 76.12119293 134.60096741 74.19261169 134.65679932 68.86668396 C 135.06227112 64.86219788 135.84167480 62.95647049 137.65504456 60.38910675 C 139.99328613 56.91459656 142.08987427 53.97278595 145.95130920 54.47658539 C 150.00765991 54.98478317 148.36399841 59.40972137 147.92138672 62.74252701 C 146.86721802 66.59204865 145.96308899 69.79036713 145.26919556 73.40325928 C 143.95458984 77.30780029 143.47550964 79.95718384 142.52206421 84.28900909" stroke-width="1.00000000" fill="rgb(253, 209, 2)" opacity="1.0"/>
    <path d="M 127.67911530 84.64051819 C 128.12443542 88.40576935 128.39378357 90.96416473 128.66323853 94.75475311 C 129.71307373 99.12559509 127.34132385 103.12284088 123.63314819 100.86468506 C 121.49721527 97.22647858 121.71174622 93.54563904 120.83785248 90.74199677 C 119.97994232 85.72431946 119.56991577 84.40011597 118.29464722 79.52481079 C 117.46052551 75.71650696 116.71738434 73.22916412 115.56542206 68.79681396 C 114.46595764 63.71607208 114.37610626 63.19828033 113.32785797 59.23754501 C 111.79578400 54.05200958 116.99819183 54.23713684 119.98589325 54.65575409 C 123.26980591 57.15821838 124.02768707 60.54885101 125.31949615 62.53623581 C 127.11540985 67.64405060 127.88842010 69.03007507 127.62024689 72.91563416 C 126.81712341 77.61450958 126.98883057 80.39482880 127.67911530 84.64051819" stroke-width="1.00000000" fill="rgb(253, 209, 2)" opacity="1.0"/>
    <path d="M 107.71107483 70.06649017 C 106.75619507 67.41800690 105.36437225 64.08451080 104.20143127 60.65118408 C 102.99556732 56.45396423 107.31192017 55.34656525 111.24820709 55.62886810 C 114.11419678 58.47223282 113.49243927 61.46582794 114.67216492 65.15888214 C 115.53071594 69.01230621 116.17385864 71.34465027 117.32342529 75.69308472 C 118.24011993 79.47739410 118.70188904 81.56868744 119.96778870 86.05776978 C 121.08757019 91.13455200 121.18479919 91.80581665 122.05861664 94.96239471 C 123.93667603 99.18833923 122.43862915 103.69228363 118.76815033 100.39328003 C 117.19913483 95.58790588 116.97409821 94.01571655 115.36959839 90.38755798 C 113.85240173 86.25891876 113.11920166 84.31718445 111.80422211 80.66348267 C 110.22192383 76.88163757 109.33629608 74.04170227 107.71107483 70.06649017" stroke-width="1.00000000" fill="rgb(239, 56, 35)" opacity="1.0"/>
    <path d="M 148.35873413 85.17610931 C 147.80482483 86.39352417 146.70191956 90.14322662 145.27847290 93.71286011 C 144.27876282 96.77813721 142.69044495 101.53302002 139.82501221 102.29739380 C 138.30751038 99.29660034 140.18275452 95.13144684 140.39503479 92.65028381 C 141.71287537 87.47110748 141.83889771 87.07132721 143.17001343 81.84645081 C 144.00379944 78.75365448 144.61207581 75.89428711 145.62582397 71.55735016 C 147.02381897 66.73011780 146.89787292 65.94710541 147.90260315 62.43776703 C 148.77842712 57.71998215 149.84996033 54.93838501 154.19645691 56.19503021 C 159.07092285 57.01872635 157.81512451 60.59387970 156.67230225 63.94361496 C 155.05407715 67.69490051 153.69235229 70.65405273 152.88656616 73.65721130 C 151.30444336 77.55725861 150.38778687 79.81166077 148.35873413 85.17610931" stroke-width="1.00000000" fill="rgb(239, 55, 35)" opacity="1.0"/>
    <path d="M 76.60909271 93.06758881 C 73.32102966 90.39609528 71.95809937 90.07853699 68.24750519 86.90577698 C 66.82923126 83.89705658 71.12388611 80.68824005 73.25508881 80.04449463 C 76.39902496 81.05006409 79.27946472 85.50302887 81.38422394 86.89313507 C 84.81781006 90.11145020 85.67861938 90.83964539 89.39699554 94.07056427 C 92.35075378 96.76676941 93.96375275 97.92240906 97.69132233 101.07107544 C 101.44451904 104.35476685 101.81687927 105.12269592 104.33924103 107.38056946 C 109.20829773 110.32676697 106.16695404 114.34152985 102.18247223 111.27696991 C 99.44322205 109.19209290 97.26019287 106.99018860 93.97925568 105.06739807 C 91.13780975 102.99720001 88.02949524 101.11885071 85.28957367 99.02293396 C 82.45517731 96.92884827 79.97309113 95.29117584 76.60909271 93.06758881" stroke-width="1.00000000" fill="rgb(238, 55, 35)" opacity="1.0"/>
    <path d="M 100.34432983 120.65433502 C 100.18322754 120.60694122 99.70599365 120.48972321 99.34607697 120.44696045 C 98.90295410 120.32321167 98.51544189 120.35401154 98.23886871 120.19830322 C 98.13443756 119.81971741 98.44333649 119.57946777 98.69248962 119.33730316 C 99.09039307 119.01183319 99.34130096 119.01284790 99.57614899 118.89402008 C 99.94233704 118.77700043 99.96880341 118.70578766 100.47962952 118.65260315 C 101.13385010 118.66609192 101.02708435 118.71334839 101.39488220 118.51989746 C 101.80006409 118.23752594 102.11780548 118.32500458 102.22351074 118.83114624 C 102.24691010 119.36619568 102.18842316 119.32104492 102.02323151 119.83396912 C 101.93125916 120.22438812 101.78749084 120.54440308 101.55568695 120.73775482 C 101.21562195 120.90815735 101.03647614 120.72796631 100.34432983 120.65433502" stroke-width="1.00000000" fill="rgb(238, 55, 35)" opacity="1.0"/>
    <path d="M 90.14955902 78.94852448 C 87.69785309 75.74143219 86.23742676 74.22898865 83.98104858 70.85443115 C 83.30184174 66.90216064 87.64604950 64.48849487 90.60588837 65.08644104 C 93.30741119 66.84697723 94.61597443 71.48837280 96.41528320 74.02542114 C 99.01551819 78.49575043 99.17020416 78.64033508 102.00086975 83.20970154 C 104.00128174 86.61003113 105.17116547 88.43294525 107.71530151 92.35160828 C 110.16262817 96.60843658 110.56968689 97.57921600 112.37449646 100.18783569 C 115.61289978 103.90737152 112.80464935 108.29412842 109.39071655 104.28083801 C 106.82344055 100.13757324 106.35647583 98.98495483 103.33625793 95.72120667 C 100.76155090 92.19795227 99.34800720 90.66593170 96.73641205 87.33932495 C 94.83428955 84.78543091 92.74283600 81.86769104 90.14955902 78.94852448" stroke-width="1.00000000" fill="rgb(238, 56, 35)" opacity="1.0"/>
    <path d="M 164.45678711 87.97151184 C 163.01223755 89.82607269 160.43017578 93.05135345 158.55491638 95.65452576 C 156.15451050 98.69664001 154.38012695 101.16921997 151.96292114 104.10639954 C 149.02500916 107.66429901 147.22879028 105.31085205 149.22740173 100.66783905 C 151.43041992 96.87822723 152.32344055 95.89804840 155.25149536 91.13519287 C 156.84880066 88.50893402 158.04524231 86.10247040 160.64105225 81.89771271 C 163.21891785 78.39545441 163.32856750 77.56951141 165.29081726 74.22767639 C 167.87004089 70.67292786 166.97650146 68.78486633 171.28216553 65.30742645 C 174.99479675 64.89598846 177.63291931 67.40123749 177.80953979 70.82614899 C 176.15339661 74.69626617 173.56228638 75.88334656 171.42617798 79.18914795 C 169.10621643 82.15882874 168.00050354 83.62332153 164.45678711 87.97151184" stroke-width="1.00000000" fill="rgb(239, 54, 35)" opacity="1.0"/>
    <path d="M 65.44055939 109.69397736 C 62.36837006 107.92895508 60.32537460 108.17526245 57.09528351 105.05017090 C 56.73740387 100.75016785 60.16620636 98.05926514 63.25032043 99.82783508 C 67.17454529 100.94537354 69.93385315 102.91499329 73.12701416 104.36042786 C 78.00724030 106.70704651 77.74626923 106.71813202 83.08266449 109.00893402 C 85.56341553 110.30779266 88.49852753 111.49165344 92.48471832 113.07615662 C 96.67350769 115.15700531 97.65153503 115.92881775 100.69944763 117.47161102 C 104.40764618 120.65361786 99.58374023 120.84782410 94.97311401 119.47844696 C 92.24630737 118.61627197 89.27470398 117.40995026 85.77207184 116.27635193 C 82.22306824 115.17457581 79.08285522 114.08093262 75.68177032 112.82833099 C 72.15396118 111.73976135 69.67977905 111.20262146 65.44055939 109.69397736" stroke-width="1.00000000" fill="rgb(238, 55, 35)" opacity="1.0"/>
    <path d="M 164.36863708 115.70140076 C 168.06797791 114.30426025 169.95393372 113.02879333 173.88485718 111.26175690 C 178.09320068 109.02587891 179.50201416 108.99094391 183.54869080 106.84230804 C 186.83485413 105.28063965 189.51364136 103.81725311 193.23521423 102.18376160 C 196.25273132 101.29581451 199.65867615 98.05871582 202.39212036 99.92292023 C 204.10682678 102.75479126 205.61062622 106.58851624 200.60023499 108.04276276 C 195.38560486 109.85498810 195.99214172 109.46201324 192.14933777 111.06382751 C 188.37846375 112.09526062 186.35646057 113.02832031 181.65911865 114.67350769 C 178.04100037 115.72997284 176.62779236 116.03559875 171.46054077 117.54341125 C 167.79266357 118.70671082 165.64280701 120.08697510 161.70663452 121.02157593 C 157.28446960 119.53240967 160.71572876 116.83251190 164.36863708 115.70140076" stroke-width="1.00000000" fill="rgb(238, 55, 35)" opacity="1.0"/>
    <path d="M 179.04399109 88.20879364 C 181.10710144 86.34497070 183.77104187 84.02167511 186.32080078 81.71192932 C 189.58961487 78.18565369 192.36160278 81.40524292 194.01739502 84.98614502 C 193.55638123 88.49710083 190.22637939 89.18796539 187.09494019 91.68066406 C 184.40238953 93.57904053 181.69042969 95.49080658 178.54138184 97.58554840 C 175.11923218 100.33377838 173.85800171 100.89752197 169.44700623 104.09528351 C 165.46395874 106.75523376 165.22698975 106.99290466 162.41279602 108.97447968 C 159.22637939 111.66992188 155.06199646 114.10528564 155.04403687 109.46995544 C 157.74630737 106.47542572 160.83203125 104.82948303 162.84762573 102.55534363 C 166.20262146 99.80911255 168.11505127 97.85392761 170.45745850 95.76087189 C 174.04232788 92.86775970 175.78952026 91.28984070 179.04399109 88.20879364" stroke-width="1.00000000" fill="rgb(238, 55, 35)" opacity="1.0"/>
    <path d="M 105.45832825 182.05062866 C 106.47058105 182.57951355 109.11026764 181.92736816 108.41055298 184.29235840 C 107.86742401 187.30226135 107.10233307 187.49331665 105.49390411 189.40786743 C 103.94711304 190.16911316 102.25159454 190.45971680 98.93850708 190.94319153 C 97.05879974 191.19810486 94.62940979 191.46231079 92.11148071 191.36856079 C 89.48902130 191.36799622 87.19869232 190.92951965 85.14568329 190.14955139 C 82.75411987 188.63923645 80.82357788 188.89344788 80.38801575 186.67022705 C 80.82083130 183.18159485 81.38739014 182.46488953 83.97202301 181.48138428 C 86.43976593 180.78395081 88.80706024 180.39004517 90.94744110 180.22680664 C 93.47789001 180.16946411 95.38158417 179.53822327 98.02998352 180.15646362 C 101.02367401 181.06402588 102.34523773 181.22213745 105.45832825 182.05062866" stroke-width="1.00000000" fill="rgb(104, 160, 73)" opacity="1.0"/>
    <path d="M 179.78460693 189.29171753 C 177.53543091 190.00457764 174.75747681 190.89096069 172.87428284 190.97084045 C 169.75630188 191.34677124 168.24522400 191.48864746 165.59101868 191.44248962 C 163.07023621 191.27742004 160.98693848 190.83474731 158.76095581 190.57313538 C 156.17674255 190.22370911 154.63795471 190.14385986 154.50863647 187.11853027 C 154.24256897 185.44242859 154.14007568 182.66560364 155.93750000 181.96177673 C 157.80938721 181.73088074 158.53343201 181.18617249 161.20082092 180.61940002 C 163.32002258 180.39916992 165.14088440 180.18246460 167.91122437 180.02383423 C 170.14752197 180.08514404 172.87678528 180.26065063 175.27954102 180.72889709 C 177.44969177 181.58308411 180.58229065 182.08639526 181.35940552 183.58093262 C 182.50939941 185.60630798 181.93322754 188.64685059 179.78460693 189.29171753" stroke-width="1.00000000" fill="rgb(104, 159, 72)" opacity="1.0"/>
    <path d="M 166.80590820 126.36425018 C 170.60198975 125.95853424 172.99029541 125.52201843 177.04002380 124.66658783 C 181.24902344 124.07074738 182.77792358 124.05506897 186.89286804 123.40238190 C 190.90396118 122.92851257 193.72599792 122.17329407 197.16409302 121.77222443 C 201.21914673 121.35718536 203.41586304 120.62701416 207.48808289 120.46133423 C 209.22775269 122.27613831 210.32992554 126.96926117 205.79344177 128.42875671 C 201.45256042 128.91825867 200.98391724 128.50561523 197.19517517 128.31993103 C 193.05061340 128.13182068 191.54957581 128.29713440 186.14805603 128.62176514 C 182.14373779 128.73788452 181.07130432 128.21635437 176.17950439 128.12373352 C 172.19039917 128.73956299 169.94883728 128.49092102 166.34590149 128.35803223 C 160.57698059 128.67753601 161.91413879 126.44624329 166.80590820 126.36425018" stroke-width="1.00000000" fill="rgb(240, 54, 35)" opacity="1.0"/>
    <path d="M 87.74843597 125.25335693 C 90.42637634 125.79842377 94.09072876 126.24467468 97.14953613 126.49766541 C 102.65469360 128.50868225 97.30838776 128.94544983 94.01304626 128.32843018 C 88.98377228 128.49659729 87.78578949 128.22937012 83.17907715 128.45050049 C 79.05785370 128.31178284 77.45897675 128.41561890 72.39054108 128.44764709 C 69.69147491 128.35079956 66.87520599 128.23834229 62.39083862 128.54853821 C 58.40015793 128.24087524 56.30757141 128.92945862 53.86225891 127.34877014 C 50.63884735 124.26811218 54.14078140 120.04699707 56.83757401 120.54442596 C 60.75282669 120.59475708 63.60430908 122.08326721 66.89169312 122.19246674 C 70.37953949 122.72007751 73.73678589 122.90901184 77.21903992 123.63769531 C 81.50577545 124.27523041 82.92873383 124.56233978 87.74843597 125.25335693" stroke-width="1.00000000" fill="rgb(239, 54, 36)" opacity="1.0"/>
    <path d="M 169.24938965 162.20741272 C 168.22344971 163.51417542 167.78634644 164.61418152 165.98545837 167.46096802 C 164.56259155 169.42080688 163.60922241 171.26039124 161.58999634 173.36880493 C 159.84793091 175.19683838 158.01132202 176.78833008 156.50074768 178.04335022 C 153.56718445 180.29701233 152.25059509 180.00785828 150.57781982 178.10137939 C 148.36837769 175.97775269 147.13716125 175.34808350 145.91807556 173.33668518 C 146.86802673 171.02116394 148.04656982 171.28785706 150.36042786 170.07937622 C 152.32078552 169.21894836 153.43144226 168.64797974 156.35833740 167.02191162 C 158.42472839 164.98825073 159.47212219 163.29905701 161.41113281 161.58581543 C 163.46012878 160.35314941 164.73490906 158.50062561 167.19129944 157.42706299 C 169.80413818 157.49148560 170.63798523 159.13723755 169.24938965 162.20741272" stroke-width="1.00000000" fill="rgb(251, 253, 253)" opacity="1.0"/>
    <path d="M 99.38045502 150.19224548 C 102.84896851 151.20060730 105.63484955 154.83737183 100.33631897 153.11947632 C 96.27886963 151.32368469 92.78124237 150.57151794 89.59448242 152.45730591 C 86.19383240 153.52926636 83.96731567 154.83326721 79.98712921 154.77304077 C 75.73434448 154.49218750 74.01218414 153.00564575 70.52397156 151.92025757 C 66.88143921 150.78454590 63.30569839 151.65605164 59.73715591 154.03842163 C 55.49654388 154.74259949 58.06713867 152.27728271 60.03282928 151.18882751 C 63.66744995 149.68844604 63.73267365 149.67857361 69.96875000 149.17117310 C 74.06837463 149.14341736 76.36345673 151.59906006 79.41918182 152.56829834 C 82.47216797 152.07089233 85.70668030 150.38085938 89.52046204 150.14494324 C 92.90667725 148.74404907 95.27311707 149.42771912 99.38045502 150.19224548" stroke-width="1.00000000" fill="rgb(246, 252, 253)" opacity="1.0"/>
    <path d="M 97.84477234 162.84161377 C 94.03913879 162.94961548 93.28735352 161.59913635 88.99771118 162.68650818 C 86.00205231 163.70372009 84.31375885 165.28237915 81.24503326 165.85800171 C 77.55123901 166.79644775 75.58469391 165.14717102 72.69830322 163.92430115 C 68.94078827 162.25108337 67.66732788 162.12823486 65.16915131 163.21426392 C 60.13768768 164.04605103 58.26461029 164.17927551 61.35965347 161.05261230 C 65.97937012 160.03694153 66.48170471 160.22315979 69.13708496 160.11567688 C 73.65247345 161.46470642 72.44518280 161.61288452 77.93108368 162.73268127 C 81.80706024 163.29966736 82.67660522 164.05340576 85.68733215 161.12049866 C 88.26196289 159.85328674 91.08277893 159.45083618 94.95654297 160.27961731 C 97.72170258 160.32015991 100.64688873 163.22563171 97.84477234 162.84161377" stroke-width="1.00000000" fill="rgb(248, 252, 254)" opacity="1.0"/>
    <path d="M 202.71675110 151.36186218 C 199.10107422 151.98020935 198.27766418 152.08308411 194.58309937 154.21577454 C 191.70944214 155.24317932 188.98556519 154.99256897 186.27377319 153.86039734 C 182.69894409 152.97676086 181.52293396 151.75918579 178.56207275 151.47294617 C 174.26272583 151.52943420 172.65461731 152.70843506 169.63496399 154.12780762 C 164.37661743 153.40899658 168.22698975 152.71186829 171.58703613 151.11769104 C 175.29949951 149.74357605 176.23782349 149.92443848 179.17509460 149.10244751 C 183.18435669 149.57113647 182.74610901 150.41581726 187.82006836 151.79928589 C 191.63720703 152.49502563 192.59165955 153.36665344 195.23834229 150.85720825 C 198.41854858 149.31234741 201.20280457 148.81854248 204.63775635 149.10852051 C 209.07240295 149.93037415 205.50730896 152.18252563 202.71675110 151.36186218" stroke-width="1.00000000" fill="rgb(246, 252, 253)" opacity="1.0"/>
    <path d="M 93.45278931 170.86334229 C 96.00472260 171.13801575 98.39220428 172.02786255 100.40604401 173.66740417 C 97.94525146 174.87467957 95.52880859 172.93254089 93.28327179 173.58512878 C 89.54195404 174.28251648 89.06411743 174.99543762 85.79119873 176.12078857 C 83.23461151 177.24382019 80.61133575 177.67065430 78.54417419 176.31529236 C 75.94309235 174.74485779 73.13278198 174.66056824 71.21346283 174.40946960 C 67.09084320 173.22473145 68.20825195 173.11996460 64.81764221 172.47450256 C 66.14495850 171.94210815 69.31504822 170.98300171 71.52671814 170.83551025 C 74.98253632 171.37391663 76.14871979 172.94494629 78.55398560 173.87702942 C 81.79724884 175.10545349 83.50600433 174.37637329 85.99679565 173.88394165 C 88.57868958 172.21575928 90.78163147 171.12002563 93.45278931 170.86334229" stroke-width="1.00000000" fill="rgb(247, 252, 253)" opacity="1.0"/>
    <path d="M 94.09011841 143.63943481 C 89.83015442 144.48059082 89.60627747 144.62788391 85.26394653 146.34585571 C 80.88283539 145.63674927 79.17701721 144.00675964 76.11865234 143.88883972 C 71.93019104 143.34765625 70.39492035 145.28382874 66.88265228 145.52171326 C 62.75852203 145.65632629 61.03498840 146.24790955 58.26519775 144.74403381 C 53.15953445 143.41954041 52.22660065 140.55355835 57.25156403 141.95283508 C 62.49442673 143.04530334 61.64419937 144.56755066 66.04088593 143.58125305 C 69.76670074 142.38964844 70.28018951 141.59767151 75.58623505 141.33309937 C 79.37303162 141.48771667 80.32774353 144.20805359 83.87477875 143.99996948 C 87.15908051 142.86866760 90.19747925 143.21057129 93.90148926 142.29336548 C 97.29669952 141.65679932 98.44010162 143.26934814 94.09011841 143.63943481" stroke-width="1.00000000" fill="rgb(244, 251, 254)" opacity="1.0"/>
    <path d="M 72.39802551 134.85820007 C 75.54739380 134.78887939 76.54833984 134.72459412 80.75603485 135.79269409 C 85.12873840 136.12931824 86.21183014 136.76045227 91.40037537 135.65847778 C 94.50559998 135.22291565 99.08488464 133.24627686 100.73527527 135.49958801 C 97.32485199 137.74357605 95.78750610 136.36730957 90.30883026 137.45524597 C 87.20586395 138.22442627 85.37598419 139.22570801 80.46698761 137.92391968 C 76.42271423 137.11457825 74.77475739 135.41629028 71.80901337 137.24826050 C 67.46830750 138.58494568 67.14517975 138.69477844 61.90865707 137.83816528 C 58.53463745 137.01292419 55.44473267 136.83276367 54.94675827 135.81622314 C 53.61026001 132.01071167 58.93850708 136.37075806 62.48636627 136.59114075 C 66.42398834 136.60847473 67.66577148 136.59989929 72.39802551 134.85820007" stroke-width="1.00000000" fill="rgb(242, 251, 254)" opacity="1.0"/>
    <path d="M 204.90855408 143.74505615 C 201.91522217 143.80487061 200.03182983 144.51254272 197.00965881 145.77033997 C 194.48855591 146.54333496 191.81626892 145.61114502 189.22456360 144.75808716 C 186.30426025 143.61483765 184.14474487 143.73828125 181.21253967 144.10989380 C 178.04141235 144.73350525 176.61672974 146.17114258 172.97007751 145.97970581 C 168.06158447 144.46923828 170.95526123 143.39512634 174.14088440 143.32756042 C 178.49452209 142.73037720 178.74272156 143.44966125 181.53039551 142.01147461 C 185.44795227 141.01976013 184.91827393 141.39891052 189.69618225 142.32492065 C 192.73185730 143.14741516 193.97080994 145.16265869 197.27250671 143.65260315 C 199.89949036 142.24653625 202.26643372 141.48947144 205.44827271 141.17137146 C 208.75381470 142.13444519 208.71157837 143.96165466 204.90855408 143.74505615" stroke-width="1.00000000" fill="rgb(245, 251, 253)" opacity="1.0"/>
    <path d="M 193.75730896 174.38969421 C 190.84335327 175.02014160 190.27278137 175.00892639 186.86566162 176.63273621 C 184.36050415 177.26815796 182.20739746 176.57550049 180.02868652 175.58226013 C 177.15863037 174.51922607 176.00405884 173.65344238 173.49809265 173.37998962 C 169.52099609 173.31277466 168.45782471 173.98918152 166.15939331 175.72477722 C 161.62860107 175.74029541 163.66270447 174.80232239 166.86766052 172.91476440 C 169.58345032 171.61688232 170.54051208 171.84272766 172.86915588 170.86477661 C 176.42666626 171.13516235 176.04338074 171.45236206 180.25128174 172.68862915 C 183.24502563 173.65625000 183.98104858 175.21368408 186.89315796 174.25083923 C 189.42779541 173.05828857 191.54924011 172.68945312 194.32106018 172.48661804 C 197.95277405 172.53842163 196.96572876 174.22434998 193.75730896 174.38969421" stroke-width="1.00000000" fill="rgb(247, 252, 254)" opacity="1.0"/>
    <path d="M 173.04133606 136.72061157 C 176.36724854 137.05926514 178.30897522 136.65695190 181.39807129 135.07868958 C 184.13069153 133.87413025 186.79469299 134.43270874 189.57818604 135.54945374 C 192.61859131 136.67588806 194.69253540 136.84690857 197.82591248 136.63685608 C 200.95668030 135.88972473 202.65376282 134.21952820 206.44345093 134.02650452 C 211.70240784 135.84429932 206.62586975 137.00915527 204.11077881 137.13562012 C 199.39091492 137.72386169 199.50122070 137.27111816 196.15773010 138.44645691 C 191.97827148 138.72203064 192.69573975 138.04400635 187.54518127 136.93247986 C 184.12599182 136.50485229 183.30528259 135.49166870 180.16926575 137.79656982 C 177.34326172 138.70591736 174.10948181 138.92214966 170.74662781 138.37498474 C 167.04499817 136.11000061 170.56643677 135.34312439 173.04133606 136.72061157" stroke-width="1.00000000" fill="rgb(242, 251, 254)" opacity="1.0"/>
    <path d="M 131.73323059 198.74467468 C 130.52978516 198.92961121 130.13867188 198.65116882 129.20922852 198.02542114 C 127.96714783 197.00325012 127.97437286 196.90544128 127.05351257 195.62036133 C 126.68504333 194.89102173 126.22062683 194.20321655 126.14119720 192.86517334 C 126.22289276 192.11955261 126.45343781 191.07914734 127.47241974 190.39433289 C 128.33439636 189.96385193 129.04212952 189.83941650 130.38169861 189.74278259 C 132.03535461 189.76902771 131.53498840 189.61682129 132.89189148 189.89997864 C 134.08099365 190.34127808 134.83686829 190.38653564 135.34681702 191.44438171 C 135.56045532 192.59689331 135.74147034 192.79219055 135.44786072 194.12431335 C 135.04464722 195.26069641 134.70541382 195.88365173 134.08070374 196.73594666 C 133.34452820 197.57928467 132.49777222 198.40802002 131.73323059 198.74467468" stroke-width="1.00000000" fill="rgb(247, 125, 171)" opacity="1.0"/>
    <path d="M 199.48498535 162.35604858 C 196.75869751 162.79991150 196.30116272 163.15834045 193.45660400 164.50772095 C 191.08575439 165.57623291 189.70014954 165.80572510 187.36891174 165.80032349 C 184.57476807 165.80563354 183.23313904 164.28646851 181.31301880 163.68338013 C 177.75953674 162.52415466 176.80738831 162.68424988 174.06274414 163.55915833 C 173.19393921 162.48324585 174.23905945 161.75318909 177.58056641 161.21170044 C 180.93803406 161.33645630 180.74147034 161.63751221 183.28269958 162.42765808 C 185.69488525 162.85890198 186.59124756 163.42391968 190.00846863 163.22737122 C 192.39897156 162.64144897 193.34698486 162.21041870 195.53739929 160.59332275 C 197.94940186 159.85510254 200.14797974 159.59204102 202.51347351 160.74906921 C 205.08772278 162.62141418 201.33590698 163.03179932 199.48498535 162.35604858" stroke-width="1.00000000" fill="rgb(246, 251, 253)" opacity="1.0"/>
    <path d="M 139.20980835 207.47634888 C 137.50177002 208.03662109 135.86848450 209.04550171 133.85290527 209.32551575 C 131.73234558 209.65309143 129.75297546 209.15321350 127.86585236 208.89103699 C 125.72174072 208.68403625 124.50660706 207.40525818 122.49427795 206.55520630 C 120.25293732 205.73330688 118.59403229 205.62464905 116.11761475 205.58746338 C 115.91594696 203.63204956 116.88522339 204.58665466 119.98339844 204.41398621 C 122.55226135 204.53236389 123.00986481 204.76339722 124.79813385 205.29698181 C 127.67588806 206.17430115 127.18759155 206.20343018 130.61297607 206.59472656 C 132.74714661 206.75804138 133.01554871 207.25097656 136.06144714 206.37649536 C 138.43768311 205.82836914 139.32199097 205.22116089 142.07929993 204.51246643 C 144.39826965 205.06083679 140.75402832 206.62973022 139.20980835 207.47634888" stroke-width="1.00000000" fill="rgb(245, 252, 254)" opacity="1.0"/>
    <path d="M 158.46702576 202.89894104 C 156.24018860 203.25869751 155.82164001 203.41630554 152.96371460 203.83523560 C 150.85206604 203.60606384 149.53385925 202.47001648 147.76492310 202.08038330 C 145.62066650 201.60084534 144.42903137 201.30204773 142.55122375 201.26896667 C 139.54708862 201.22030640 138.79696655 201.73677063 136.57493591 203.02667236 C 134.90879822 201.61851501 135.93733215 201.35810852 138.72291565 200.01867676 C 140.71351624 199.14482117 141.66415405 199.41246033 143.40206909 199.02746582 C 146.22210693 199.18267822 146.06033325 199.27897644 149.26390076 199.93350220 C 151.59797668 200.49658203 152.11981201 201.67195129 154.58094788 201.79486084 C 156.65933228 201.36697388 157.98669434 201.34707642 160.21513367 200.89729309 C 162.42468262 201.47999573 160.69638062 202.40156555 158.46702576 202.89894104" stroke-width="1.00000000" fill="rgb(246, 252, 254)" opacity="1.0"/>
    <path d="M 123.01275635 201.21894836 C 120.90913391 200.66009521 120.15274811 200.47950745 117.86209869 200.55973816 C 115.72286987 200.48980713 114.44957733 200.57693481 112.57082367 201.33444214 C 110.67581940 202.54045105 109.18695831 203.04052734 107.32870483 202.62953186 C 105.00023651 202.21864319 103.74063110 202.59303284 101.63548279 202.34248352 C 100.46424103 200.26866150 102.20664215 200.84199524 104.69596863 200.65025330 C 107.21235657 200.59107971 107.63861847 200.85768127 109.54690552 200.14154053 C 111.58424377 199.27532959 111.93968964 199.07925415 114.93720245 198.33204651 C 116.87178040 197.93908691 117.80007172 198.10836792 119.90118408 198.52388000 C 121.64195251 198.88122559 123.56221008 199.41133118 125.07521820 200.30810547 C 127.23083496 201.72129822 125.14929199 202.67373657 123.01275635 201.21894836" stroke-width="1.00000000" fill="rgb(246, 252, 254)" opacity="1.0"/>
    <path d="M 138.48831177 189.22756958 C 139.40792847 189.09111023 140.22991943 189.07493591 141.16477966 189.14845276 C 142.44230652 189.37358093 142.59526062 189.31903076 143.65074158 189.88781738 C 144.72273254 190.52441406 144.92974854 190.73223877 145.93373108 191.64459229 C 146.46810913 192.19833374 147.50820923 192.94177246 147.28900146 193.81550598 C 146.32252502 194.35386658 145.92358398 194.38432312 144.52763367 194.48315430 C 143.35198975 194.52661133 143.29565430 194.63810730 142.20684814 194.60935974 C 141.28024292 194.58146667 140.86392212 194.63998413 139.56568909 194.51753235 C 138.64248657 193.88963318 138.29956055 193.54827881 137.50280762 192.88070679 C 136.80262756 191.93635559 136.36573792 191.50535583 136.18646240 190.52134705 C 136.49436951 189.68324280 137.51615906 189.32383728 138.48831177 189.22756958" stroke-width="1.00000000" fill="rgb(243, 126, 170)" opacity="1.0"/>
    <path d="M 124.72180176 192.82067871 C 123.91348267 193.54823303 123.48791504 193.75781250 122.43934631 194.16740417 C 121.05172729 194.55857849 121.06873322 194.60556030 119.77599335 194.69290161 C 118.41182709 194.68533325 118.28680420 194.68991089 116.80941010 194.58110046 C 116.17018127 194.42010498 114.93685150 194.50613403 114.40306091 193.73492432 C 115.00511932 192.47694397 115.31214905 192.52755737 116.31449890 191.58189392 C 117.45036316 190.71916199 117.16363525 190.80155945 118.14480591 190.11408997 C 119.10300446 189.52073669 119.50942993 189.01934814 120.52994537 189.03434753 C 121.68280792 189.34019470 122.08503723 189.40390015 123.15965271 189.43200684 C 124.38478088 189.75387573 124.76272583 189.68190002 125.73128510 190.32225037 C 126.05036926 191.29270935 125.22669983 192.33012390 124.72180176 192.82067871" stroke-width="1.00000000" fill="rgb(245, 125, 170)" opacity="1.0"/>
    <path d="M 155.05252075 194.33703613 C 156.70646667 193.97341919 157.45606995 193.67955017 159.39120483 193.60456848 C 161.10806274 193.57006836 162.36619568 194.40780640 163.69792175 194.81983948 C 165.26997375 195.32623291 166.46919250 195.56752014 167.98640442 195.56536865 C 170.27249146 195.69975281 170.87496948 195.22822571 172.85331726 194.89720154 C 172.97369385 196.26329041 172.23765564 196.23869324 170.07095337 197.11010742 C 168.56765747 197.60574341 167.66600037 197.49714661 166.57221985 197.59925842 C 164.18840027 197.33651733 164.46034241 197.24282837 162.02742004 196.80018616 C 160.62268066 196.35690308 160.02267456 195.39863586 157.84518433 195.68141174 C 156.02441406 195.90396118 155.48928833 196.23362732 153.29389954 196.62271118 C 151.15127563 195.99073792 153.82992554 194.63888550 155.05252075 194.33703613" stroke-width="1.00000000" fill="rgb(241, 251, 253)" opacity="1.0"/>
    <path d="M 109.45903015 195.63009644 C 108.93505096 196.67315674 107.16123962 196.50933838 105.55126190 195.91400146 C 104.14176941 195.51203918 102.57719421 195.63580322 100.85840607 196.19155884 C 99.56792450 196.42300415 98.66267395 197.29011536 97.01580811 197.61587524 C 95.53446198 197.87886047 94.13458252 197.85127258 92.59297943 197.31887817 C 91.92864990 197.16104126 89.23745728 196.64871216 89.50213623 195.42465210 C 91.76290131 194.41801453 91.52939606 194.77156067 92.91697693 195.50471497 C 94.62152100 196.08879089 95.31382751 195.38534546 97.20745087 194.95797729 C 99.47892761 194.71116638 99.32399750 194.59202576 101.10584259 193.93486023 C 103.21020508 193.51644897 103.70108795 193.33833313 105.46539307 193.92839050 C 107.63417053 194.77676392 107.89470673 194.65411377 109.45903015 195.63009644" stroke-width="1.00000000" fill="rgb(243, 251, 254)" opacity="1.0"/>
    <path d="M 106.06782532 141.62458801 C 105.36212921 142.30502319 105.31369019 142.40957642 104.38697052 143.06799316 C 103.93086243 143.33522034 102.87071228 144.16667175 102.66912079 143.34484863 C 102.74785614 142.35429382 102.91169739 142.30319214 103.43094635 141.21778870 C 103.73135376 140.56280518 104.14744568 139.85684204 104.64108276 139.14160156 C 105.10814667 138.38212585 105.04657745 138.15933228 105.49891663 137.01446533 C 106.14073181 136.00050354 105.95136261 136.10058594 106.53134918 135.50843811 C 107.19976044 135.12226868 107.73559570 135.21510315 108.43487549 136.05285645 C 108.89431000 136.76918030 109.03160095 137.11740112 109.02407837 137.89231873 C 108.83493805 138.77413940 108.46131134 139.29370117 107.94039917 139.79875183 C 107.34011078 140.43827820 106.63853455 140.98892212 106.06782532 141.62458801" stroke-width="1.00000000" fill="rgb(242, 138, 36)" opacity="1.0"/>
    <path d="M 148.25898743 136.89401245 C 146.89529419 136.86386108 145.93127441 136.60279846 144.35041809 136.35447693 C 142.84031677 136.20448303 141.83055115 136.33203125 140.53405762 136.75947571 C 139.15167236 137.26579285 138.19120789 137.72367859 136.75077820 137.79450989 C 135.16825867 137.93853760 134.09358215 138.49447632 132.44979858 138.29624939 C 130.62030029 137.81007385 131.38713074 136.69505310 133.42512512 136.68563843 C 135.15864563 136.58576965 135.45738220 136.99597168 136.90423584 136.43940735 C 138.65255737 135.86135864 138.56657410 135.74511719 140.96147156 135.16184998 C 142.43162537 134.64733887 143.03100586 134.80041504 144.47221375 134.78471375 C 145.84289551 134.75354004 147.19572449 134.88525391 148.45802307 135.36335754 C 149.87536621 135.89743042 150.08047485 137.08340454 148.25898743 136.89401245" stroke-width="1.00000000" fill="rgb(236, 249, 253)" opacity="1.0"/>
    <path d="M 136.61497498 47.24684143 C 137.08958435 46.46397400 137.09162903 46.59117889 137.84819031 45.65451431 C 138.22134399 45.29240799 138.77976990 44.64837265 139.50657654 44.55213928 C 140.11254883 45.20994568 140.09162903 45.34500885 140.45912170 46.26646805 C 140.66542053 47.06342697 140.73715210 47.72066879 140.43167114 48.23755646 C 139.95391846 49.05216217 139.42932129 49.47718811 138.94401550 49.66810226 C 137.74890137 50.32979584 137.84992981 50.14560318 137.31056213 50.62763214 C 136.88505554 51.23816681 136.55548096 51.88501358 135.95361328 52.21810150 C 135.32313538 52.97420883 135.68569946 52.33368301 135.49960327 51.34909439 C 135.32194519 50.46649551 135.52545166 50.40111542 135.73701477 49.36496735 C 135.94433594 48.58884048 136.12223816 48.19725418 136.61497498 47.24684143" stroke-width="1.00000000" fill="rgb(19, 31, 60)" opacity="1.0"/>
    <path d="M 157.79946899 136.43270874 C 158.40780640 136.18789673 159.07704163 135.85026550 159.74897766 135.58990479 C 160.63000488 135.27442932 161.13891602 135.06324768 161.88940430 134.91305542 C 162.63687134 134.79866028 163.47119141 134.69360352 164.12815857 134.64895630 C 165.23370361 134.63006592 165.50657654 134.49966431 166.38368225 134.74542236 C 166.95487976 135.31546021 165.91563416 135.80799866 165.14102173 135.92384338 C 164.20637512 136.12210083 164.20399475 136.14523315 163.30227661 136.36846924 C 162.36572266 136.61306763 162.27734375 136.58155823 161.16845703 137.04644775 C 160.29530334 137.29365540 160.18495178 137.38766479 159.07261658 137.73266602 C 158.07524109 137.97851562 157.90629578 138.28251648 156.95768738 138.02615356 C 156.13525391 137.55458069 157.11795044 136.77731323 157.79946899 136.43270874" stroke-width="1.00000000" fill="rgb(242, 252, 254)" opacity="1.0"/>
  </g>
</svg>
