<?xml version="1.0" ?>
<svg xmlns="http://www.w3.org/2000/svg" version="1.1" width="256" height="256" viewBox="0 0 256 256">
  <defs/>
  <g>
    <path d="M -2.83592987 289.91040039 C -29.99820709 271.75622559 -50.92752838 243.45571899 -65.49365997 199.49935913 C -78.60265350 156.70303345 -76.20577240 113.52514648 -58.49802399 79.64238739 C -39.95789337 39.14782715 -16.10271454 4.23917389 16.75074005 -20.14122009 C 47.49068451 -42.64682007 84.70068359 -59.28541565 135.52169800 -57.28088379 C 169.59988403 -54.42657471 206.49215698 -47.59712219 247.58879089 -18.45962524 C 283.34866333 10.10286713 307.58398438 35.26380157 309.24227905 59.89840698 C 319.50335693 106.86480713 318.98312378 146.88261414 311.35552979 179.89324951 C 302.47885132 211.80902100 281.91015625 242.44853210 236.65800476 274.11981201 C 207.37492371 298.86883545 173.09754944 314.31961060 124.87502289 324.41870117 C 85.18310547 328.64349365 52.97193909 324.23706055 -2.83592987 289.91040039" stroke-width="1.81139183" fill="rgb(252, 255, 255)" opacity="1.0" stroke="rgb(255, 255, 255)" stroke-opacity="0.0" stroke-linecap="round" stroke-linejoin="round"/>
    <path d="M 203.44766235 180.35395813 C 189.71102905 198.22041321 188.21772766 199.09704590 160.26843262 215.30230713 C 147.68606567 219.83639526 129.66622925 225.03996277 104.74836731 218.21125793 C 88.80073547 213.36904907 75.28363037 207.00781250 58.04916382 188.06851196 C 41.04257965 162.83625793 40.76039124 156.97564697 36.75544739 134.67738342 C 37.32931519 112.06182861 39.03786469 99.86711121 52.98571777 76.46002960 C 64.68943787 63.43936157 68.92187500 55.88013458 89.74394226 46.42732239 C 109.59837341 39.58663177 119.26510620 32.85120392 142.02023315 44.16948700 C 157.22767639 50.22087860 180.87353516 62.66881561 191.67536926 71.86407471 C 205.31045532 90.11760712 211.95227051 99.50511169 218.66244507 121.51592255 C 220.04795837 146.59382629 214.25674438 160.94355774 203.44766235 180.35395813" stroke-width="0.23610705" fill="rgb(195, 152, 122)" opacity="1.0" stroke="rgb(255, 255, 255)" stroke-opacity="0.0" stroke-linecap="round" stroke-linejoin="round"/>
    <path d="M 201.98405457 127.97419739 C 180.31736755 124.51443481 170.23069763 132.12283325 156.21585083 126.58223724 C 149.06774902 112.85255432 138.77473450 104.04159546 119.21044159 112.00148773 C 106.29935455 119.32396698 99.87303162 133.47714233 82.83475494 128.58834839 C 64.92768860 128.03385925 48.99601746 138.24673462 54.99848175 118.18215942 C 55.83893585 102.31140137 65.74117279 84.83421326 76.26063538 74.77142334 C 98.75868988 57.59546661 91.82057190 63.10553741 110.54993439 55.26317978 C 126.05535889 59.61912537 131.82366943 66.67593384 144.01063538 50.94971085 C 159.40780640 45.26661301 168.87289429 46.88544846 183.78051758 59.75468826 C 198.36553955 70.83599854 205.10525513 82.76548767 211.98101807 99.20617676 C 217.84877014 121.78128052 220.54772949 131.97131348 201.98405457 127.97419739" stroke-width="1.93525076" fill="rgb(243, 164, 18)" opacity="1.0" stroke="rgb(117, 85, 45)" stroke-opacity="1.0" stroke-linecap="round" stroke-linejoin="round"/>
    <path d="M 150.62870789 129.68028259 C 145.87918091 131.28723145 142.92422485 130.67190552 137.06208801 131.21260071 C 132.40876770 131.60220337 128.19218445 134.55531311 124.60147858 130.18627930 C 123.09042358 125.92748260 120.81995392 121.87437439 115.30879974 120.65665436 C 109.12010193 119.47131348 105.69100952 122.16374207 102.29607391 125.92984009 C 101.94451904 122.92419434 104.21820831 116.06768036 106.51692963 113.40806580 C 112.34691620 106.21766663 110.61155701 108.39598846 115.29900360 105.19541931 C 121.23046112 102.79833984 124.69138336 101.80402374 130.61959839 102.05755615 C 134.66046143 102.51179504 138.13208008 103.68762207 144.04933167 107.41667175 C 149.24812317 111.90932465 149.06954956 112.44953156 151.89128113 117.74378967 C 154.29074097 123.14083862 155.18789673 128.29484558 150.62870789 129.68028259" stroke-width="1.77712154" fill="rgb(236, 54, 35)" opacity="1.0" stroke="rgb(0, 17, 59)" stroke-opacity="0.9056217" stroke-linecap="round" stroke-linejoin="round"/>
    <path d="M 148.57334900 187.37715149 C 145.22335815 190.59594727 144.33184814 190.21844482 138.40576172 191.53204346 C 134.46661377 191.88156128 131.81747437 192.02600098 126.61154175 192.43917847 C 123.28639221 192.69773865 118.29459381 192.60563660 114.86773682 191.27140808 C 110.62416840 190.09999084 109.90452576 184.37828064 109.69436646 181.35369873 C 109.41907501 176.18632507 107.35241699 172.25019836 111.21746826 172.31065369 C 115.07675171 170.37406921 114.77845001 168.42369080 118.35948181 166.59242249 C 123.88142395 165.33660889 126.29157257 165.89056396 130.09547424 165.63385010 C 135.82981873 166.22712708 136.36579895 164.95964050 141.22705078 169.74801636 C 142.09727478 175.86503601 145.50030518 170.50018311 149.00018311 174.94602966 C 150.45593262 179.15750122 150.06735229 184.98448181 148.57334900 187.37715149" stroke-width="2.00000000" fill="rgb(174, 97, 142)" opacity="1.0" stroke="rgb(4, 53, 144)" stroke-opacity="0.5026874" stroke-linecap="round" stroke-linejoin="round"/>
    <path d="M 129.79090881 66.09599304 C 132.33374023 72.60330200 135.86062622 77.82008362 135.64041138 88.74633789 C 136.17436218 100.84030914 129.20977783 102.30278015 119.08013153 98.81942749 C 112.55301666 90.52073669 118.23609161 82.21311951 116.53090668 73.19925690 C 116.88289642 62.24493790 118.68473816 54.12008286 111.93989563 49.73388672 C 99.32662964 49.66484833 93.92343140 56.16265106 82.61260986 60.76796722 C 73.35072327 60.55707932 70.73215485 58.82209015 77.85549927 55.37572479 C 83.49192047 51.89617920 93.87082672 44.64970398 104.32078552 43.45989990 C 112.41334534 39.29670715 115.05740356 43.03131866 125.23370361 37.71573639 C 140.81292725 34.09663391 140.52221680 39.75204468 132.58604431 49.25978470 C 121.24868011 57.70732880 120.18342590 56.20714951 129.79090881 66.09599304" stroke-width="1.75334847" fill="rgb(235, 97, 24)" opacity="1.0" stroke="rgb(16, 30, 50)" stroke-opacity="0.8038634" stroke-linecap="round" stroke-linejoin="round"/>
    <path d="M 147.71533203 55.28821564 C 144.20219421 58.62857056 143.00546265 60.61026764 140.00024414 66.45101929 C 138.57231140 71.93619537 138.88351440 76.18384552 136.22885132 76.73664093 C 137.07237244 72.07092285 135.19961548 68.76956940 130.12968445 66.01564026 C 126.85813904 63.86708069 123.19802856 64.36059570 118.58812714 59.85243225 C 113.34259796 55.66711426 113.94886017 51.20552826 114.99913025 44.47737503 C 119.36915588 36.12225342 117.72922516 37.60470963 124.11624146 36.31163788 C 131.62464905 37.67897797 135.03024292 39.41872406 140.11833191 40.15144730 C 148.60598755 42.19063568 150.16798401 42.39970398 156.12901306 44.14420319 C 160.60206604 45.80111313 168.17622375 47.31515121 165.68318176 52.61968613 C 157.93057251 54.40020370 154.29988098 51.87480545 147.71533203 55.28821564" stroke-width="1.85735822" fill="rgb(202, 111, 42)" opacity="1.0" stroke="rgb(66, 55, 76)" stroke-opacity="1.0" stroke-linecap="round" stroke-linejoin="round"/>
    <path d="M 140.16918945 82.74774170 C 139.24591064 85.06302643 138.92604065 87.93743134 137.41481018 91.94794464 C 137.23822021 94.79425049 134.50199890 99.19841766 131.48881531 98.99145508 C 131.05622864 95.37336731 132.31498718 90.73684692 132.15075684 87.63071442 C 132.62695312 83.09664154 132.72174072 80.13786316 132.91413879 76.48352051 C 133.30892944 73.31523895 133.09387207 69.91754913 133.28340149 65.26335144 C 134.42463684 60.21220779 136.86404419 60.41031647 137.56936646 57.64709854 C 137.17224121 52.56068802 141.53723145 51.80228424 145.42472839 53.11378098 C 149.53698730 54.36583710 149.98745728 56.11769867 148.79357910 60.63685608 C 147.06033325 65.09613037 145.25479126 67.69068146 144.37716675 70.72257233 C 142.81132507 74.13590240 141.80429077 77.26919556 140.16918945 82.74774170" stroke-width="1.57217741" fill="rgb(252, 189, 0)" opacity="1.0" stroke="rgb(255, 213, 53)" stroke-opacity="0.9211581" stroke-linecap="round" stroke-linejoin="round"/>
    <path d="M 123.28520203 83.51768494 C 123.34889984 86.56604004 123.67447662 90.35038757 124.16638947 93.98056793 C 125.28349304 99.69627380 122.31278229 100.32497406 117.82479858 98.76696014 C 114.42700195 95.61008453 115.40367126 92.20404053 114.13504791 88.19438171 C 113.38868713 84.35577393 112.74784851 81.15064240 112.03177643 76.31816864 C 111.36884308 72.31654358 110.25537872 69.32916260 107.47144318 65.70029449 C 105.78650665 62.20008469 106.22792053 60.50114441 105.68054199 58.09725952 C 106.87895966 53.80373383 110.74917603 52.98749542 114.75430298 52.27193451 C 117.48793030 54.71633148 117.55828857 59.03605270 120.44735718 60.75426483 C 123.54993439 62.62615967 122.85773468 65.53005981 122.36057281 70.79100037 C 122.50623322 75.53458405 122.65370941 78.99456024 123.28520203 83.51768494" stroke-width="1.72663307" fill="rgb(255, 193, 4)" opacity="1.0" stroke="rgb(255, 255, 50)" stroke-opacity="0.6428974" stroke-linecap="round" stroke-linejoin="round"/>
    <path d="M 105.93295288 69.39420319 C 105.11843872 67.72747803 103.94351959 64.30353546 102.30897522 60.77325058 C 99.49687958 56.12260056 104.46366119 56.19958496 108.10160065 54.43555069 C 111.37215424 55.40299988 110.62129974 59.83500671 111.80635071 63.04261780 C 112.67109680 66.32293701 113.58003235 70.22013092 114.01542664 73.18939209 C 115.28625488 77.74290466 115.43257141 78.63465118 116.83477020 83.74600983 C 118.00442505 88.43684387 117.78679657 88.58992767 118.69719696 92.12145233 C 119.79225159 96.37648773 122.32425690 99.69238281 117.41342163 99.60211945 C 115.83540344 97.54706573 115.40236664 93.05180359 113.58508301 89.73429871 C 112.32835388 86.22576904 111.09323120 83.24092102 110.18756866 80.38945770 C 108.50188446 76.27613068 107.80228424 74.86408234 105.93295288 69.39420319" stroke-width="0.27676034" fill="rgb(235, 52, 29)" opacity="1.0" stroke="rgb(229, 123, 21)" stroke-opacity="0.98367435" stroke-linecap="round" stroke-linejoin="round"/>
    <path d="M 145.43049622 82.31636047 C 144.87850952 83.79180908 143.32283020 87.69300079 141.92831421 91.10176086 C 140.59613037 94.81195068 139.81127930 99.80866241 136.75314331 99.94595337 C 134.58891296 97.09156799 137.05335999 93.47281647 137.45167542 89.94027710 C 138.14877319 86.60556030 138.97695923 83.43342590 140.23046875 79.42745972 C 140.96318054 75.63433838 141.47434998 73.73033905 142.70967102 68.54019165 C 143.80842590 64.04532623 144.23478699 63.28402710 144.92153931 59.56362915 C 145.61575317 54.17362976 145.70683289 53.28751755 151.75325012 55.60527802 C 155.85417175 56.26874161 156.10119629 55.82038116 154.20771790 60.58668518 C 152.17611694 64.87619019 150.97584534 67.78062439 150.09025574 70.63175201 C 148.66120911 74.10765839 146.91714478 78.17393494 145.43049622 82.31636047" stroke-width="2.00000000" fill="rgb(236, 57, 30)" opacity="1.0" stroke="rgb(255, 216, 48)" stroke-opacity="0.71669525" stroke-linecap="round" stroke-linejoin="round"/>
    <path d="M 76.13841248 91.43411255 C 72.63891602 88.58865356 71.43312073 88.50307465 67.30708313 85.69881439 C 65.29396057 83.10654449 69.16618347 80.52954102 71.19831848 78.50926971 C 74.20071411 78.81350708 76.49282837 83.21255493 79.05620575 84.67664337 C 81.44630432 86.97602844 83.79686737 89.15926361 86.81533051 91.82042694 C 90.18431854 94.57412720 91.34967804 95.44113159 95.19984436 99.03595734 C 98.57968140 101.99504852 98.77205658 102.79544830 101.65200043 105.21214294 C 106.16363525 107.41538239 105.77698517 111.42254639 100.96965790 109.48210144 C 98.39617157 107.57521820 96.41350555 105.30905151 92.71187592 103.35054016 C 89.87055206 101.36300659 87.10686493 100.15054321 84.31571198 97.78088379 C 81.47494507 95.42143250 79.89017487 94.18814087 76.13841248 91.43411255" stroke-width="0.23857479" fill="rgb(234, 58, 29)" opacity="1.0" stroke="rgb(228, 124, 21)" stroke-opacity="1.0" stroke-linecap="round" stroke-linejoin="round"/>
    <path d="M 81.62084198 119.72023010 C 79.06586456 119.03045654 76.56623840 118.78050232 72.32151794 118.08237457 C 69.39731598 117.60388947 65.79794312 116.87850189 61.94599152 115.52543640 C 59.12336731 112.46768188 61.82451630 109.76119232 63.08426666 106.60971069 C 66.46010590 102.24204254 68.81835938 100.96148682 70.87507629 99.15409851 C 76.13985443 95.75501251 78.29641724 96.09548187 81.30055237 97.36733246 C 87.00842285 100.84908295 85.41118622 100.14597321 88.68323517 102.49616241 C 91.69011688 104.28115845 94.34432983 107.07585907 97.31557465 108.87981415 C 102.54767609 111.22770691 101.88339233 112.60745239 100.46571350 116.95330048 C 100.41268158 119.80700684 98.58408356 123.34022522 93.23435974 121.68977356 C 89.68574524 120.84016418 88.05281830 120.11157227 81.62084198 119.72023010" stroke-width="1.66840768" fill="rgb(254, 202, 4)" opacity="1.0" stroke="rgb(255, 225, 0)" stroke-opacity="0.60186285" stroke-linecap="round" stroke-linejoin="round"/>
    <path d="M 88.48277283 77.82183838 C 85.79891205 74.02774048 84.62756348 73.16093445 81.68037415 69.80531311 C 81.26203918 66.59398651 86.01256561 64.51199341 88.67717743 63.36356354 C 90.96839142 64.48381042 92.51214600 70.05772400 94.43010712 72.51613617 C 96.42879486 76.16287994 97.30233002 77.24876404 99.77652740 81.59609222 C 102.15737915 85.38920593 102.46652222 85.90802002 105.37738800 90.78129578 C 108.32601166 95.73379517 107.57903290 94.88945770 109.72726440 98.14412689 C 113.26344299 100.89201355 112.63774872 105.00254822 108.12842560 103.24749756 C 105.68813324 99.13829803 103.99163818 96.61735535 101.52569580 94.30031586 C 98.55209351 90.44539642 97.15849304 88.89883423 95.17945099 86.18863678 C 92.59748077 82.98920441 91.85359192 82.02197266 88.48277283 77.82183838" stroke-width="2.00000000" fill="rgb(237, 59, 31)" opacity="1.0" stroke="rgb(255, 255, 28)" stroke-opacity="0.36959556" stroke-linecap="round" stroke-linejoin="round"/>
    <path d="M 165.12368774 80.74047089 C 163.04698181 83.31433868 159.40827942 88.21458435 156.21994019 91.98192596 C 152.06072998 97.18634796 148.94448853 101.20101929 145.94784546 104.36971283 C 141.73834229 101.75650024 147.90310669 97.00688171 149.30487061 92.47692108 C 151.86634827 88.17665100 154.04667664 84.61208344 158.55865479 78.84420776 C 160.17541504 74.76414490 161.27081299 70.21603394 166.19398499 65.93242645 C 169.17762756 61.63277435 172.94606018 61.34880066 163.77902222 58.56835938 C 155.56758118 51.80826569 160.88827515 48.38600922 167.70494080 51.31536102 C 173.74256897 55.85559082 173.00114441 57.66078949 178.70841980 60.87575912 C 187.28088379 65.14695740 186.07159424 66.40743256 177.34803772 68.53257751 C 171.72787476 71.52304840 169.80091858 73.54468536 165.12368774 80.74047089" stroke-width="2.00000000" fill="rgb(218, 77, 40)" opacity="1.0" stroke="rgb(253, 207, 69)" stroke-opacity="0.40371" stroke-linecap="round" stroke-linejoin="round"/>
    <path d="M 64.57247162 107.29010010 C 63.94073868 106.68244171 59.11870193 105.80989838 56.59329224 103.55495453 C 56.58753967 99.49430084 59.63633728 96.26226807 61.76370239 97.64261627 C 66.23130035 99.33399963 68.94850922 101.33338165 71.56558990 102.17342377 C 75.01712799 103.83567047 76.76674652 104.54970551 81.18817902 106.69757843 C 83.96943665 108.16540527 86.09050751 109.17134857 90.58898926 111.10665894 C 94.25533295 112.87586212 94.57804871 113.43534851 98.20800781 114.52291870 C 102.20622253 117.17994690 99.55962372 118.90790558 94.84104919 117.31941986 C 91.60948944 115.98229980 89.69335938 115.23750305 85.47869110 113.98877716 C 82.14734650 112.90232849 78.92713928 111.87494659 75.35094452 110.55929565 C 71.97027588 109.34877777 70.31367493 109.32103729 64.57247162 107.29010010" stroke-width="0.56490594" fill="rgb(235, 54, 31)" opacity="1.0" stroke="rgb(229, 108, 32)" stroke-opacity="0.67927647" stroke-linecap="round" stroke-linejoin="round"/>
    <path d="M 162.27230835 112.35852051 C 165.23034668 111.59296417 167.81272888 109.92988586 173.05043030 107.50710297 C 177.71226501 104.94134521 179.35751343 104.15289307 184.51910400 102.22411346 C 188.51586914 100.51499176 192.40469360 98.25861359 196.15640259 96.34007263 C 199.69932556 94.18542480 204.22846985 89.25114441 204.88626099 95.52542877 C 206.64942932 101.17627716 208.61639404 105.91878510 201.77111816 104.68459320 C 196.80499268 105.48031616 195.42730713 105.62772369 191.96173096 107.20512390 C 187.79055786 108.43324280 185.60220337 109.28607178 179.23387146 111.03042603 C 175.79786682 113.09442902 173.79779053 112.89145660 168.31452942 114.66584778 C 164.62222290 115.98425293 160.50337219 117.73259735 156.63903809 118.57673645 C 154.74916077 115.92791748 156.62718201 114.69404602 162.27230835 112.35852051" stroke-width="0.00000000" fill="rgb(220, 76, 49)" opacity="1.0" stroke="rgb(75, 0, 69)" stroke-opacity="0.6084735" stroke-linecap="round" stroke-linejoin="round"/>
    <path d="M 179.25028992 82.61042023 C 182.20492554 79.88750458 184.75160217 77.45466614 186.96429443 73.76499939 C 189.99650574 69.66547394 192.81411743 74.78218079 195.44721985 78.15554810 C 199.06515503 82.13875580 193.39727783 83.48538208 189.61125183 85.31546021 C 185.97918701 87.56592560 183.30717468 88.55522156 179.64344788 91.76794434 C 174.00361633 95.84393311 174.55900574 95.65801239 168.74612427 99.51729584 C 165.08457947 101.99118042 163.33598328 102.71743774 160.59597778 104.74834442 C 157.04434204 108.04502106 153.20236206 111.90040588 150.51235962 108.54631042 C 152.22122192 105.67977142 157.57704163 102.73841095 159.27822876 100.33682251 C 164.01829529 96.08829498 165.22035217 95.12724304 168.78825378 91.77379608 C 172.50274658 88.34405518 174.27633667 87.09175873 179.25028992 82.61042023" stroke-width="0.00000000" fill="rgb(223, 73, 51)" opacity="1.0" stroke="rgb(226, 12, 12)" stroke-opacity="0.483732" stroke-linecap="round" stroke-linejoin="round"/>
    <path d="M 107.10243988 176.06169128 C 108.25291443 176.94567871 113.00025940 177.33641052 111.52648163 180.45379639 C 109.62321472 185.63101196 108.16583252 187.64036560 107.04093170 189.73291016 C 102.64381409 190.33557129 101.63038635 188.76959229 96.49672699 190.41970825 C 94.06033325 190.66101074 90.02885437 193.62667847 85.83685303 193.72966003 C 81.96582031 191.19853210 81.84478760 190.45451355 77.13037872 186.90238953 C 74.54174805 184.32801819 74.22294617 183.30917358 70.93269348 180.78947449 C 68.30795288 178.47259521 73.35988617 172.80801392 74.95803070 172.62982178 C 79.36421204 172.32118225 82.52843475 173.30776978 85.42153168 171.33036804 C 88.52745056 169.82635498 92.33292389 168.84072876 96.24860382 170.80125427 C 100.34558105 172.24662781 101.15533447 172.76948547 107.10243988 176.06169128" stroke-width="2.00000000" fill="rgb(41, 83, 73)" opacity="1.0" stroke="rgb(248, 249, 255)" stroke-opacity="0.72558373" stroke-linecap="round" stroke-linejoin="round"/>
    <path d="M 179.27890015 186.00769043 C 177.33218384 188.08984375 175.88940430 189.04045105 173.39241028 191.09515381 C 170.34971619 193.33901978 169.81214905 193.69488525 166.11648560 192.57484436 C 162.83392334 191.77671814 161.88471985 191.18444824 158.31716919 190.05068970 C 156.39260864 189.36610413 153.15393066 188.65667725 153.17465210 185.06632996 C 152.68344116 183.52049255 152.68832397 180.06437683 154.92926025 177.93090820 C 156.92489624 176.36418152 157.55897522 175.34045410 160.33259583 173.93521118 C 162.27682495 173.05993652 164.64341736 172.19235229 167.76676941 172.99226379 C 170.89880371 174.08897400 172.81855774 175.18043518 174.79205322 176.68998718 C 177.11424255 178.37928772 179.72456360 180.14056396 181.89865112 180.82546997 C 184.72991943 181.84963989 181.52818298 183.61705017 179.27890015 186.00769043" stroke-width="1.39180386" fill="rgb(62, 109, 73)" opacity="1.0" stroke="rgb(0, 0, 156)" stroke-opacity="0.0" stroke-linecap="round" stroke-linejoin="round"/>
    <path d="M 163.35157776 127.52193451 C 169.76791382 127.48627472 169.45242310 128.11558533 177.76196289 127.50180817 C 184.33790588 128.07914734 183.82591248 128.16868591 193.54635620 127.98711395 C 198.59103394 127.29534912 202.13790894 127.90773773 208.96166992 128.92134094 C 215.03106689 130.31840515 220.81295776 129.83123779 218.32174683 124.51631165 C 213.38899231 124.78674316 219.96942139 128.91297913 218.47396851 130.94631958 C 213.05189514 130.76316833 212.95008850 127.74922180 206.87829590 128.55747986 C 200.75817871 131.41229248 200.24021912 132.07373047 191.92092896 133.93635559 C 185.57566833 133.95880127 182.68907166 130.27409363 178.32377625 131.64973450 C 173.56327820 134.30020142 169.57424927 134.62571716 164.10560608 132.99723816 C 160.12261963 130.08343506 153.81784058 127.15522766 163.35157776 127.52193451" stroke-width="1.49958634" fill="rgb(3, 33, 70)" opacity="1.0" stroke="rgb(219, 200, 114)" stroke-opacity="0.24274565" stroke-linecap="round" stroke-linejoin="round"/>
    <path d="M 95.43358612 127.51497650 C 100.03343201 127.99421692 101.13059235 127.77974701 107.01606750 130.29957581 C 110.10348511 134.66282654 106.30223846 135.17402649 101.05411530 132.55035400 C 96.16909027 131.95913696 93.02534485 131.29241943 88.99111176 132.42959595 C 83.36632538 134.33128357 82.13784027 134.85981750 77.82534790 132.28968811 C 72.91879272 130.57012939 69.98136902 132.35464478 65.65947723 133.71617126 C 60.91690445 134.64373779 60.45015717 132.55143738 56.93591690 131.98138428 C 49.38759995 131.46772766 50.23024750 127.55151367 56.70033264 127.54085541 C 60.81531525 127.51895142 64.41718292 127.93739319 68.73397064 127.60227966 C 72.73449707 127.53544617 76.43604279 127.61081696 81.53168488 127.62258911 C 86.47312927 127.80577850 90.24118042 127.70411682 95.43358612 127.51497650" stroke-width="1.42137456" fill="rgb(7, 37, 73)" opacity="1.0" stroke="rgb(202, 255, 255)" stroke-opacity="0.23931341" stroke-linecap="round" stroke-linejoin="round"/>
    <path d="M 172.29353333 158.77149963 C 169.70494080 161.44856262 168.12103271 162.80638123 165.87007141 165.17115784 C 163.17527771 168.53608704 163.28205872 168.16758728 159.84004211 172.26107788 C 157.85110474 174.77806091 157.27108765 175.74282837 154.64848328 179.27151489 C 152.96343994 181.85762024 151.49969482 185.05769348 149.16879272 183.63337708 C 146.27795410 181.17616272 143.12904358 179.97270203 144.57418823 178.34429932 C 147.43983459 174.90301514 148.57992554 175.55451965 150.85372925 174.64016724 C 154.41961670 172.41218567 154.09909058 173.40232849 157.60264587 169.19728088 C 159.36640930 166.61050415 160.90800476 164.35725403 162.12657166 160.78672791 C 163.10646057 158.20373535 164.03588867 156.44113159 167.68812561 154.17796326 C 171.15792847 154.69075012 174.46597290 156.14157104 172.29353333 158.77149963" stroke-width="2.00000000" fill="rgb(0, 21, 67)" opacity="1.0" stroke="rgb(255, 255, 255)" stroke-opacity="0.614011" stroke-linecap="round" stroke-linejoin="round"/>
    <path d="M 96.66809082 150.57028198 C 98.91425323 151.10635376 101.52033997 153.31149292 98.43891907 156.53724670 C 94.23183441 155.93586731 91.94054413 153.39759827 88.72860718 154.49716187 C 85.68271637 154.56338501 83.12393188 156.40089417 79.58805847 157.82525635 C 75.72721100 158.72120667 73.26378632 156.68556213 70.30271912 155.30366516 C 67.77411652 153.75932312 63.14321136 154.48422241 59.55389404 156.06866455 C 56.06624603 155.89262390 57.77838135 153.02708435 58.62304306 151.39019775 C 62.51927567 150.11357117 62.09348297 150.31617737 67.52404022 149.85714722 C 71.01665497 149.73645020 73.05495453 151.90376282 77.01453400 153.20343018 C 80.02065277 153.12905884 83.24303436 151.86816406 87.07601929 150.82435608 C 89.82302856 148.94485474 91.15843201 149.24050903 96.66809082 150.57028198" stroke-width="1.72775459" fill="rgb(3, 36, 84)" opacity="1.0" stroke="rgb(0, 30, 81)" stroke-opacity="1.0" stroke-linecap="round" stroke-linejoin="round"/>
    <path d="M 97.37603760 167.84672546 C 96.76353455 168.13946533 93.83332062 165.09272766 89.83302307 166.07072449 C 85.62854767 167.11842346 85.72907257 167.95713806 81.11477661 169.63481140 C 76.59011841 169.92825317 76.70405579 168.09423828 72.11582184 166.13484192 C 68.17713928 165.42047119 64.80632019 165.97111511 64.40792084 166.97918701 C 63.58904266 166.37417603 58.48295593 163.01042175 62.28595734 160.23878479 C 66.65767670 159.04026794 67.42602539 159.58633423 69.87506104 161.06683350 C 73.73843384 162.65275574 73.41732788 163.34089661 78.83697510 163.31047058 C 82.69142914 162.78475952 83.36472321 162.11732483 86.50798035 160.20864868 C 90.23184967 159.52532959 94.33975983 159.16519165 97.00191498 161.63462830 C 98.69796753 164.98240662 96.22680664 167.53785706 97.37603760 167.84672546" stroke-width="1.23345661" fill="rgb(6, 38, 86)" opacity="1.0" stroke="rgb(0, 35, 78)" stroke-opacity="1.0" stroke-linecap="round" stroke-linejoin="round"/>
    <path d="M 199.45855713 156.54367065 C 196.37791443 157.65805054 194.37338257 156.01560974 190.70275879 157.42463684 C 187.21496582 159.50480652 184.51251221 160.46160889 180.44973755 159.73701477 C 177.04882812 158.52330017 173.50318909 157.24232483 169.89823914 156.29605103 C 165.34248352 154.73291016 162.63677979 155.34321594 159.17431641 155.14437866 C 154.75520325 152.59823608 154.76856995 150.30375671 159.52122498 147.95355225 C 165.93481445 147.24838257 163.87652588 147.19630432 169.47692871 147.34265137 C 172.84620667 147.57783508 177.59767151 147.79801941 181.04109192 149.71499634 C 185.35430908 151.63766479 186.75198364 152.03309631 191.70480347 149.84017944 C 195.25930786 148.33847046 199.14367676 145.77940369 201.24012756 148.65995789 C 201.38491821 153.05024719 198.95783997 155.20504761 199.45855713 156.54367065" stroke-width="2.00000000" fill="rgb(12, 45, 86)" opacity="1.0" stroke="rgb(198, 255, 255)" stroke-opacity="0.39498127" stroke-linecap="round" stroke-linejoin="round"/>
    <path d="M 97.84429932 169.56129456 C 100.71899414 169.49681091 103.04275513 172.34129333 102.92315674 175.94975281 C 100.95313263 179.51977539 98.22303009 176.63131714 94.83159637 176.24127197 C 90.60883331 176.14439392 89.56264496 176.14407349 84.72032928 177.17054749 C 80.92829132 177.86822510 80.12844086 177.90176392 77.42783356 181.74951172 C 75.02121735 186.43206787 72.57032776 181.76892090 70.57125092 179.55313110 C 67.13775635 175.27836609 68.09521484 176.37628174 65.18988037 172.68713379 C 62.25570679 169.43402100 68.19633484 168.46949768 70.64888000 169.46998596 C 75.36602020 171.18980408 74.94671631 171.73503113 79.92916107 173.11585999 C 84.00280762 173.36090088 84.85237885 171.84214783 88.26106262 169.99700928 C 91.28676605 168.94081116 94.32632446 169.42100525 97.84429932 169.56129456" stroke-width="2.00000000" fill="rgb(6, 38, 79)" opacity="1.0" stroke="rgb(250, 255, 255)" stroke-opacity="0.2924998" stroke-linecap="round" stroke-linejoin="round"/>
    <path d="M 97.23175812 145.71234131 C 94.83488464 144.58714294 91.21047974 143.77339172 86.94207764 144.86407471 C 82.50399780 146.10957336 81.80200958 148.50880432 76.15127563 147.01245117 C 72.41469574 145.49844360 70.27334595 143.53750610 65.07880402 144.21850586 C 60.41879272 145.05389404 56.46257019 146.80012512 55.93297577 148.05267334 C 55.70532227 145.71047974 52.26747131 140.37139893 56.59366608 142.58706665 C 61.21448517 143.85983276 61.51354218 144.96543884 65.78266144 144.26702881 C 69.63561249 142.59538269 70.85428619 141.04635620 75.85610199 142.30403137 C 79.93907166 143.72911072 82.31198883 145.46243286 87.89894104 142.92004395 C 92.26279449 141.93188477 95.50402832 140.27293396 100.14646149 140.77682495 C 103.27947998 142.47096252 103.82235718 148.67105103 97.23175812 145.71234131" stroke-width="1.53739691" fill="rgb(0, 29, 81)" opacity="1.0" stroke="rgb(0, 35, 80)" stroke-opacity="1.0" stroke-linecap="round" stroke-linejoin="round"/>
    <path d="M 71.79209137 134.65954590 C 74.78528595 134.61955261 77.13403320 135.75717163 81.05594635 136.80659485 C 84.95510101 136.84896851 85.58740997 137.64920044 91.75867462 134.72158813 C 97.11721802 134.46003723 99.86669159 132.80326843 102.74069214 135.85083008 C 99.30512238 138.87986755 96.74810791 136.81138611 90.13893890 137.39230347 C 85.86644745 138.15690613 84.93486023 140.44392395 79.85539246 138.39678955 C 74.68569946 137.29010010 73.77918243 135.22724915 69.82720947 136.88505554 C 66.01514435 138.88407898 63.24732590 140.13415527 59.42765808 138.10757446 C 56.15101624 136.60575867 55.40260315 136.99462891 53.90603638 136.55775452 C 52.56105042 132.19876099 57.41150665 136.48716736 61.54117584 136.89808655 C 67.61199188 137.13029480 68.01490784 136.57786560 71.79209137 134.65954590" stroke-width="1.69126236" fill="rgb(5, 39, 82)" opacity="1.0" stroke="rgb(0, 35, 76)" stroke-opacity="0.9558239" stroke-linecap="round" stroke-linejoin="round"/>
    <path d="M 200.36408997 146.04705811 C 197.30096436 145.40827942 194.52456665 145.55580139 191.41706848 147.80636597 C 188.08802795 149.52908325 184.50057983 149.60227966 181.14884949 147.99626160 C 178.49946594 145.58444214 175.22018433 145.33580017 171.36399841 146.29898071 C 167.39166260 147.09786987 163.95895386 151.00759888 161.44134521 147.50340271 C 160.32519531 145.28166199 158.79986572 137.96475220 164.19894409 139.83892822 C 168.47256470 141.02879333 167.91703796 142.18176270 172.43199158 142.15606689 C 175.99024963 141.39050293 178.12367249 139.41905212 182.86849976 140.41365051 C 186.50326538 141.54931641 188.28286743 143.71119690 192.95050049 142.22750854 C 196.62295532 140.98591614 200.20463562 139.09860229 203.00074768 140.78749084 C 203.52188110 143.85424805 202.24087524 147.61314392 200.36408997 146.04705811" stroke-width="1.93862450" fill="rgb(2, 36, 82)" opacity="1.0" stroke="rgb(249, 255, 255)" stroke-opacity="0.55143714" stroke-linecap="round" stroke-linejoin="round"/>
    <path d="M 195.89056396 168.38221741 C 193.53208923 168.87228394 190.56402588 172.62052917 187.67483521 176.31413269 C 185.33482361 180.08853149 183.04795837 184.16242981 178.91705322 180.89282227 C 175.35520935 178.01863098 172.49057007 175.63275146 167.84098816 175.68161011 C 161.11408997 175.59996033 159.09225464 176.35719299 155.02969360 178.18606567 C 150.18225098 179.04927063 150.16091919 174.16709900 156.31210327 171.84541321 C 161.90734863 170.57127380 162.07864380 170.80317688 166.25051880 169.59414673 C 171.47398376 168.70016479 170.82041931 169.23097229 176.51184082 171.85092163 C 180.44834900 173.53727722 180.21141052 173.47508240 186.83311462 170.48820496 C 191.85731506 169.19064331 193.56420898 169.61882019 198.51237488 167.86804199 C 202.22779846 166.59376526 201.43934631 163.29959106 195.89056396 168.38221741" stroke-width="0.00000000" fill="rgb(0, 36, 82)" opacity="1.0" stroke="rgb(0, 187, 255)" stroke-opacity="0.0" stroke-linecap="round" stroke-linejoin="round"/>
    <path d="M 166.82734680 134.92311096 C 170.46929932 134.74765015 171.23735046 135.87582397 175.24183655 134.78900146 C 177.96444702 132.95637512 181.01399231 132.36630249 184.03210449 133.67814636 C 187.29454041 134.87101746 189.38760376 135.57353210 193.06100464 135.28793335 C 196.36679077 134.36868286 197.04673767 132.44708252 201.81205750 133.03575134 C 206.45190430 134.80114746 204.15435791 138.79957581 201.30981445 138.30271912 C 195.51533508 139.22166443 196.67410278 139.13609314 192.18783569 140.64154053 C 187.45965576 141.61973572 187.70530701 140.22735596 182.95094299 138.65226746 C 179.80615234 138.11344910 179.85206604 138.04914856 174.37129211 140.00836182 C 171.97821045 140.82402039 167.94789124 141.88697815 163.71011353 141.03186035 C 160.23933411 139.77290344 162.40649414 134.49885559 166.82734680 134.92311096" stroke-width="1.37562585" fill="rgb(0, 28, 74)" opacity="1.0" stroke="rgb(216, 255, 255)" stroke-opacity="0.44515225" stroke-linecap="round" stroke-linejoin="round"/>
    <path d="M 136.19708252 201.28193665 C 134.70820618 202.15693665 134.74288940 202.35502625 132.12481689 202.37371826 C 130.77406311 202.29896545 129.31629944 201.50244141 127.57431030 200.46266174 C 126.13083649 199.59977722 124.67522430 198.67231750 125.10266113 197.08464050 C 125.66390991 195.37475586 126.67737579 193.78950500 128.17733765 193.47354126 C 129.73545837 192.87438965 132.05555725 192.72247314 131.76570129 191.06265259 C 132.57505798 189.05383301 133.02377319 187.93850708 134.06584167 188.65084839 C 136.05107117 189.66418457 135.79643250 189.01301575 138.11822510 190.53297424 C 139.45625305 191.97407532 138.31118774 193.05224609 136.98629761 194.03504944 C 135.60540771 195.51739502 133.92176819 196.00965881 135.46725464 197.15548706 C 137.47338867 197.90055847 138.06018066 199.31425476 136.19708252 201.28193665" stroke-width="2.00000000" fill="rgb(0, 3, 58)" opacity="1.0" stroke="rgb(186, 118, 164)" stroke-opacity="1.0" stroke-linecap="round" stroke-linejoin="round"/>
    <path d="M 199.10667419 159.81071472 C 196.12947083 160.01289368 196.15338135 165.11975098 193.76945496 168.25427246 C 190.64706421 169.54644775 187.08944702 167.54367065 183.93589783 170.10298157 C 178.98506165 171.34562683 178.21261597 169.79933167 172.45245361 167.64662170 C 168.42431641 166.16769409 163.77223206 167.85871887 161.94027710 170.08438110 C 157.66844177 169.17156982 161.81288147 162.31333923 164.29830933 161.46626282 C 171.74844360 158.67745972 169.74316406 159.59246826 174.48490906 159.17626953 C 180.06648254 160.14997864 178.42524719 162.01823425 185.32899475 161.64369202 C 189.33116150 161.37002563 189.52020264 159.30580139 194.78488159 158.32962036 C 199.42869568 159.36326599 201.33309937 161.35469055 201.75685120 164.82853699 C 199.52474976 166.11573792 199.86729431 157.71365356 199.10667419 159.81071472" stroke-width="1.85908306" fill="rgb(7, 33, 79)" opacity="1.0" stroke="rgb(253, 255, 255)" stroke-opacity="0.5262649" stroke-linecap="round" stroke-linejoin="round"/>
    <path d="M 160.58087158 202.53826904 C 155.76957703 203.98251343 150.92468262 206.28460693 144.97149658 207.43064880 C 137.78286743 208.67314148 133.31207275 209.54911804 127.85087585 209.23411560 C 122.73414612 210.78176880 127.24649048 206.17773438 119.82633209 203.90408325 C 112.07884979 201.87303162 109.41613770 204.11163330 101.48909760 200.76837158 C 102.27691650 197.91506958 110.83032990 200.51707458 114.06391144 202.53552246 C 121.90933990 204.28143311 124.44972992 205.98400879 124.83212280 206.62725830 C 127.33683777 207.96430969 135.03581238 206.55694580 140.49914551 205.56741333 C 150.20140076 203.58618164 150.10028076 203.98742676 156.56195068 201.02052307 C 163.30221558 198.92120361 164.89201355 195.21218872 171.00944519 193.28634644 C 174.12896729 194.88153076 167.11785889 199.13626099 160.58087158 202.53826904" stroke-width="2.00000000" fill="rgb(255, 255, 255)" opacity="1.0" stroke="rgb(0, 25, 67)" stroke-opacity="0.907148" stroke-linecap="round" stroke-linejoin="round"/>
    <path d="M 181.57226562 200.48558044 C 172.00128174 209.81112671 162.82768250 211.27174377 146.65023804 217.36839294 C 126.77232361 223.05880737 143.57299805 209.55693054 163.45843506 202.48735046 C 183.14129639 192.08918762 178.43574524 193.93666077 159.02272034 197.74655151 C 144.36941528 200.18989563 128.66897583 203.48321533 125.29846191 205.39535522 C 132.02047729 202.82254028 129.13516235 204.68174744 121.59242249 202.50201416 C 133.02749634 200.24794006 137.10176086 201.15415955 148.54269409 199.99960327 C 161.11979675 196.81343079 168.88272095 196.80717468 179.15563965 191.49346924 C 195.93624878 177.83044434 194.14349365 176.63319397 203.88986206 156.83456421 C 211.12402344 142.58587646 212.63531494 145.53234863 209.68595886 166.29296875 C 202.97651672 176.45492554 193.76803589 191.09576416 181.57226562 200.48558044" stroke-width="1.89241576" fill="rgb(242, 110, 15)" opacity="1.0" stroke="rgb(0, 6, 39)" stroke-opacity="0.6459855" stroke-linecap="round" stroke-linejoin="round"/>
    <path d="M 129.43896484 202.51126099 C 125.44810486 202.06683350 124.83851624 201.71852112 120.53563690 200.40167236 C 116.16513062 198.70770264 115.61428070 198.54762268 114.06859589 202.41416931 C 111.79131317 206.38667297 110.28740692 205.42434692 105.97315216 203.36506653 C 103.72834015 202.33331299 99.83677673 201.70094299 96.04054260 199.88148499 C 91.99993134 197.16682434 94.14057922 195.80258179 99.24053955 196.98350525 C 103.27928162 197.57586670 103.96170044 199.11643982 107.60480499 197.53968811 C 110.92031097 196.27662659 112.84818268 195.70234680 117.70132446 195.69386292 C 121.62000275 196.42384338 122.11924744 198.34626770 124.41229248 195.00538635 C 127.25447083 193.90753174 130.12251282 193.78840637 132.79219055 196.86532593 C 134.67504883 200.98825073 134.98216248 202.62464905 129.43896484 202.51126099" stroke-width="1.91254592" fill="rgb(9, 41, 83)" opacity="1.0" stroke="rgb(226, 255, 255)" stroke-opacity="0.5649161" stroke-linecap="round" stroke-linejoin="round"/>
    <path d="M 144.87446594 187.81948853 C 146.32258606 186.27877808 146.86575317 185.63781738 149.07463074 183.75602722 C 150.62249756 181.86465454 152.63166809 179.96051025 154.56074524 179.83139038 C 155.65782166 181.60574341 153.72947693 182.65243530 154.31886292 185.96517944 C 154.74584961 188.12594604 158.46768188 188.10572815 160.18853760 188.52651978 C 158.27667236 188.99720764 156.74650574 188.29393005 153.68577576 188.41244507 C 151.34677124 188.96797180 149.33714294 189.15367126 149.69892883 191.21173096 C 149.10505676 193.84790039 148.73908997 194.05149841 146.06515503 193.71464539 C 143.93638611 193.49729919 144.29048157 192.58721924 141.49714661 193.56486511 C 138.85136414 193.73643494 135.65353394 194.12754822 138.64501953 191.67874146 C 142.18019104 190.99626160 142.22616577 190.72122192 144.87446594 187.81948853" stroke-width="1.22100770" fill="rgb(0, 26, 72)" opacity="1.0" stroke="rgb(20, 49, 83)" stroke-opacity="0.97438794" stroke-linecap="round" stroke-linejoin="round"/>
    <path d="M 128.21771240 197.47239685 C 126.81506348 197.48724365 126.34472656 197.32347107 124.55637360 196.82835388 C 123.28609467 196.40554810 121.98614502 195.90379333 120.58166504 195.13145447 C 119.46196747 194.55828857 118.26793671 194.27273560 116.61421204 193.69358826 C 115.43231201 193.26264954 113.62802887 193.18096924 112.37409973 192.11259460 C 112.44645691 190.46195984 113.10665131 190.70428467 115.22838593 190.20928955 C 116.98704529 190.13371277 117.17173767 190.15579224 118.59454346 190.08341980 C 120.68397522 189.79905701 120.11341095 189.59443665 122.21797180 188.57537842 C 123.40255737 187.67071533 122.92099762 189.63754272 124.07209778 191.07403564 C 124.80072784 192.04315186 125.97003174 192.96228027 127.04477692 194.17512512 C 128.07284546 195.32263184 129.55319214 196.62889099 128.21771240 197.47239685" stroke-width="0.00000000" fill="rgb(10, 34, 79)" opacity="1.0" stroke="rgb(39, 22, 97)" stroke-opacity="0.1794342" stroke-linecap="round" stroke-linejoin="round"/>
    <path d="M 145.10519409 192.32635498 C 149.19306946 194.66189575 149.86688232 190.99252319 154.93818665 190.70298767 C 159.17152405 192.45588684 163.15856934 193.43937683 168.39172363 192.74560547 C 172.76782227 190.94279480 165.03666687 194.80107117 166.64622498 197.76568604 C 170.97218323 198.16615295 173.42237854 193.30293274 178.27734375 190.43072510 C 183.94856262 188.62275696 178.30102539 193.05516052 174.89378357 195.13032532 C 170.53254700 199.41223145 167.26281738 199.01936340 168.55656433 199.48179626 C 168.27925110 197.72099304 164.17121887 196.08543396 159.25822449 196.65460205 C 153.15232849 195.50074768 155.99635315 197.25453186 151.36466980 197.00550842 C 146.31298828 195.97151184 141.29026794 194.83299255 138.32684326 192.58856201 C 133.00967407 186.65222168 139.85296631 190.77616882 145.10519409 192.32635498" stroke-width="1.89421904" fill="rgb(9, 33, 78)" opacity="1.0" stroke="rgb(255, 255, 255)" stroke-opacity="0.33831662" stroke-linecap="round" stroke-linejoin="round"/>
    <path d="M 116.87305450 192.54029846 C 118.61449432 193.84573364 113.88557434 193.32373047 111.45285034 193.79293823 C 108.21469116 195.07839966 106.69323730 195.81781006 103.79476166 196.42439270 C 100.63859558 196.33886719 99.15058136 196.07792664 96.96109009 197.14277649 C 93.68821716 199.26870728 93.83864594 198.53187561 90.93429565 196.15051270 C 89.50654602 195.49440002 84.46162415 193.70597839 86.14893341 192.50836182 C 90.61586761 192.01004028 89.50805664 193.16484070 92.98938751 193.28320312 C 96.72953796 192.34361267 96.10770416 192.13980103 100.52559662 191.15206909 C 103.86441803 190.71965027 105.14597321 192.35182190 106.63803864 188.94322205 C 108.32759857 186.27685547 110.50696564 182.99855042 111.84927368 186.24951172 C 111.84323120 189.32608032 112.66996765 191.06713867 116.87305450 192.54029846" stroke-width="0.28373000" fill="rgb(5, 35, 79)" opacity="1.0" stroke="rgb(0, 23, 149)" stroke-opacity="0.3663183" stroke-linecap="round" stroke-linejoin="round"/>
    <path d="M 108.43301392 146.62812805 C 107.69248962 147.16700745 105.57989502 149.15655518 104.11321259 151.12951660 C 103.31203461 152.59194946 100.62094116 156.34991455 99.65911102 153.83531189 C 99.53748322 152.12770081 99.55944824 149.27830505 99.50392151 146.97366333 C 99.43466949 143.79118347 99.47431946 142.23028564 101.57469177 140.50212097 C 102.83209229 139.66059875 103.76299286 137.50628662 105.74897003 135.41018677 C 107.40560150 133.89172363 108.74979401 134.04025269 110.34109497 133.61294556 C 112.11245728 132.63967896 112.83780670 129.33009338 115.15010834 129.45880127 C 116.41945648 130.03085327 117.12336731 132.21075439 117.04718018 134.30500793 C 116.22259521 136.80122375 114.76499176 138.67872620 113.83028412 140.43214417 C 111.82151794 143.11550903 111.40058136 143.56933594 108.43301392 146.62812805" stroke-width="2.00000000" fill="rgb(10, 40, 80)" opacity="1.0" stroke="rgb(255, 255, 255)" stroke-opacity="0.38090137" stroke-linecap="round" stroke-linejoin="round"/>
    <path d="M 163.45614624 136.59690857 C 159.85733032 134.32507324 155.83760071 132.18141174 148.70222473 134.39407349 C 144.93278503 137.18943787 139.55148315 137.89416504 133.23838806 140.27804565 C 127.98451996 142.66261292 124.80769348 144.39151001 121.52870178 150.16557312 C 117.86695099 154.82194519 113.34071350 164.59783936 111.57839966 155.74571228 C 112.79524231 151.83125305 115.47499084 147.88404846 120.04167938 141.74951172 C 123.47378540 136.15039062 121.93788910 132.10774231 122.25230408 128.17350769 C 129.93745422 126.47263336 129.53874207 128.13789368 139.23854065 127.73011017 C 145.83900452 126.57318878 150.90809631 128.66030884 155.09344482 127.05515289 C 161.52549744 129.12464905 162.41566467 131.41101074 167.28453064 135.53456116 C 173.85606384 140.56459045 172.69599915 143.61920166 163.45614624 136.59690857" stroke-width="2.00000000" fill="rgb(14, 42, 88)" opacity="1.0" stroke="rgb(255, 255, 255)" stroke-opacity="0.3113239" stroke-linecap="round" stroke-linejoin="round"/>
    <path d="M 137.58602905 45.73706818 C 137.40481567 44.49209976 137.67935181 42.80648422 137.07659912 41.46697617 C 136.37376404 40.01735687 135.71809387 38.50785446 136.69194031 37.70800018 C 138.02523804 38.58942032 138.47225952 39.13876724 139.29946899 40.80169296 C 140.20816040 42.67443085 140.48068237 43.89352798 139.89715576 44.95085144 C 140.09617615 46.33356094 140.08187866 47.22975922 139.13551331 48.71080399 C 137.71791077 51.05059433 137.59970093 50.41690063 136.77146912 51.55720901 C 136.13621521 53.21097565 136.12252808 53.36968613 134.82638550 54.97295380 C 134.17071533 56.34011459 134.97978210 54.23297119 134.29106140 52.63241196 C 133.53684998 51.51972580 132.97088623 50.07613754 134.37683105 49.16153336 C 135.61470032 48.49659729 137.51345825 48.10248947 137.58602905 45.73706818" stroke-width="1.84957957" fill="rgb(239, 138, 42)" opacity="1.0" stroke="rgb(87, 72, 62)" stroke-opacity="0.9202077" stroke-linecap="round" stroke-linejoin="round"/>
    <path d="M 150.64892578 136.42036438 C 149.74108887 134.55722046 151.21441650 133.68258667 153.29293823 134.41883850 C 155.54248047 134.52986145 157.04141235 134.49099731 158.56396484 133.24465942 C 160.36795044 132.54779053 161.56925964 133.07080078 163.93035889 133.66172791 C 165.22097778 134.16644287 167.25750732 134.60006714 169.02960205 135.31991577 C 171.38676453 136.42070007 168.00404358 136.48178101 167.18460083 135.95581055 C 164.07122803 135.80632019 164.30387878 135.05062866 162.41328430 135.61419678 C 160.57443237 137.12190247 160.26284790 137.72648621 158.04606628 139.06011963 C 156.37463379 140.30941772 155.19120789 140.63067627 153.01837158 141.27195740 C 151.33026123 141.63493347 148.12831116 143.01518250 149.24472046 141.28822327 C 151.48007202 139.80139160 152.06036377 138.53627014 150.64892578 136.42036438" stroke-width="1.66535890" fill="rgb(1, 36, 79)" opacity="1.0" stroke="rgb(193, 252, 255)" stroke-opacity="0.3473965" stroke-linecap="round" stroke-linejoin="round"/>
  </g>
</svg>
