<?xml version="1.0" ?>
<svg xmlns="http://www.w3.org/2000/svg" version="1.1" width="256" height="256" viewBox="0 0 256 256">
  <defs/>
  <g>
    <path d="M -4.00196838 276.70187378 C -27.01548767 259.30953979 -46.54588318 231.46824646 -62.39221191 189.23150635 C -74.97677612 147.26690674 -71.64012146 108.32450104 -48.06152344 78.56572723 C -22.63420105 45.29536438 6.72927094 17.26574707 36.69677734 -7.71060181 C 70.60723877 -29.17935181 101.06919098 -53.70095825 148.70059204 -54.41865540 C 179.40834045 -52.81201172 212.19125366 -39.81434631 249.02432251 -7.15045166 C 278.88775635 24.74646759 301.31692505 49.34284973 302.81793213 73.88859558 C 308.27587891 117.81511688 306.76293945 156.31719971 300.42858887 189.61257935 C 293.02532959 219.30032349 271.65130615 248.22349548 227.30731201 276.79800415 C 198.57693481 299.08496094 165.12185669 312.36022949 117.96118164 317.99255371 C 80.53855896 318.75729370 49.44048309 313.40249634 -4.00196838 276.70187378" stroke-width="1.84156096" fill="rgb(254, 255, 255)" opacity="1.0" stroke="rgb(255, 254, 255)" stroke-opacity="0.0" stroke-linecap="round" stroke-linejoin="round"/>
    <path d="M 198.89593506 187.00711060 C 182.87799072 204.27221680 182.03805542 204.48402405 153.07958984 218.02093506 C 137.87367249 221.68109131 121.84588623 224.49700928 96.82635498 215.67404175 C 82.53898621 209.91802979 68.25995636 201.55895996 52.73946381 180.96319580 C 38.08130646 154.05351257 38.43319702 148.72064209 36.53257751 126.19423676 C 39.29679871 103.76671600 42.39195251 90.83058167 57.92694092 70.07929993 C 71.63150024 57.41638947 77.10420227 50.27724457 98.21388245 42.86568451 C 116.58891296 38.18288422 127.67211151 32.14176941 151.20237732 44.20563507 C 164.18049622 50.54208374 186.47424316 65.53975677 197.61254883 76.99140930 C 209.91137695 97.16591644 216.96649170 108.68680573 219.19451904 129.70765686 C 217.96080017 153.56607056 211.26901245 168.58195496 198.89593506 187.00711060" stroke-width="0.00000000" fill="rgb(200, 165, 137)" opacity="1.0" stroke="rgb(255, 255, 255)" stroke-opacity="0.0" stroke-linecap="round" stroke-linejoin="round"/>
    <path d="M 202.06048584 128.24404907 C 180.83459473 125.24610901 168.94827271 133.66894531 156.27632141 127.41066742 C 147.71884155 113.76560211 137.65673828 106.35980988 118.50630951 113.68273926 C 105.23270416 119.88616943 98.67221069 134.64407349 82.13208008 128.82391357 C 64.01969910 129.05496216 48.82693481 137.64074707 55.20483398 117.23989105 C 56.27523041 101.48001099 66.00398254 84.59507751 76.65565491 74.29864502 C 99.12548828 57.55429459 92.29064941 62.85291290 110.94087219 55.50642776 C 126.75994110 61.28357315 132.37937927 68.12074280 144.24485779 51.54262161 C 159.17906189 45.11705399 168.96237183 46.84560013 183.76232910 59.51491547 C 198.49310303 71.11666870 204.76727295 82.06266022 211.93103027 98.90761566 C 217.65432739 121.03302765 220.53274536 131.40379333 202.06048584 128.24404907" stroke-width="1.89319527" fill="rgb(245, 164, 19)" opacity="1.0" stroke="rgb(111, 83, 46)" stroke-opacity="1.0" stroke-linecap="round" stroke-linejoin="round"/>
    <path d="M 150.78239441 129.65150452 C 145.95971680 131.38783264 142.97715759 130.69367981 137.27363586 131.20919800 C 133.22442627 131.29876709 128.68913269 133.63580322 124.70785522 129.67883301 C 122.80947113 125.82261658 120.54441833 121.75585938 115.06327820 120.57714081 C 108.80032349 119.45285797 105.34397888 122.43833923 102.21098328 126.21226501 C 101.97068787 123.63437653 103.94207764 116.35584259 106.10273743 113.85662079 C 111.88749695 106.55775452 110.28459167 108.79927063 114.68480682 105.64726257 C 119.53312683 103.05191040 125.32624817 101.77672577 130.12519836 102.11077881 C 133.96815491 102.31916046 138.17666626 103.46123505 143.95343018 107.38005829 C 148.96612549 111.62324524 148.81825256 111.91847229 151.75177002 117.51330566 C 154.24191284 122.79303741 155.25004578 128.09870911 150.78239441 129.65150452" stroke-width="1.74645817" fill="rgb(239, 54, 33)" opacity="1.0" stroke="rgb(0, 21, 61)" stroke-opacity="0.9147754" stroke-linecap="round" stroke-linejoin="round"/>
    <path d="M 148.16481018 185.86895752 C 145.37643433 189.14738464 145.28887939 189.31332397 138.47650146 191.74697876 C 135.38179016 192.39547729 131.11335754 192.81814575 126.14926910 193.16365051 C 121.85466766 193.43453979 116.76640320 193.18022156 114.12450409 191.08256531 C 109.58712006 186.41589355 110.25862885 184.99822998 109.16999817 178.75148010 C 108.10704803 172.87605286 109.08380127 170.44636536 113.12721252 174.30726624 C 115.79398346 171.57226562 113.61871338 169.04043579 116.74058533 166.27389526 C 123.05226135 165.03977966 123.54235077 166.07495117 129.49139404 165.65625000 C 132.63224792 165.56219482 138.80397034 165.87559509 141.30667114 169.47270203 C 142.06416321 174.97511292 141.95642090 172.08692932 147.00952148 173.19454956 C 150.73504639 178.33778381 150.38935852 179.31182861 148.16481018 185.86895752" stroke-width="1.96652162" fill="rgb(182, 99, 145)" opacity="1.0" stroke="rgb(0, 39, 124)" stroke-opacity="0.5496694" stroke-linecap="round" stroke-linejoin="round"/>
    <path d="M 130.73530579 69.80446625 C 139.83303833 73.68867493 146.39175415 78.72766876 140.98303223 94.59819031 C 132.68212891 102.03239441 117.96177673 100.58213806 107.03513336 102.71701813 C 99.90686035 93.45802307 119.32656860 85.36222839 122.69410706 72.06723022 C 126.56511688 58.09762955 122.60691071 43.87145996 103.09947205 50.85392761 C 82.47912598 59.27703094 72.74581909 67.87451935 65.28079987 77.97755432 C 58.50943375 84.38751984 56.29216385 87.22247314 55.95480347 77.47500610 C 59.22025299 71.77430725 67.61317444 59.34561157 87.47328186 49.89150620 C 103.68242645 41.29883575 111.63332367 40.55250549 122.37353516 41.07582092 C 136.32113647 35.81190491 134.26887512 31.09558105 132.85859680 46.80132294 C 118.52084351 53.54612350 121.11944580 63.65862656 130.73530579 69.80446625" stroke-width="1.72483611" fill="rgb(239, 107, 26)" opacity="1.0" stroke="rgb(15, 25, 48)" stroke-opacity="0.84758705" stroke-linecap="round" stroke-linejoin="round"/>
    <path d="M 143.89183044 49.09849548 C 140.75085449 50.19106674 137.68661499 53.31687546 137.06025696 61.18336868 C 136.31625366 67.63877106 140.14756775 72.66223907 139.33810425 75.74280548 C 137.62625122 76.04018402 136.05715942 72.87866974 130.74632263 69.31506348 C 127.96171570 63.26196289 130.49914551 61.82044983 125.96295929 59.05493164 C 119.45745850 54.75078583 116.15620422 48.21079254 115.08437347 43.39522552 C 119.75371552 35.74283981 119.37348938 36.93422318 127.28087616 36.61437988 C 135.52497864 37.80408096 135.14907837 39.60314941 144.17549133 41.12208557 C 151.16474915 42.76137543 152.98123169 43.12257385 159.59176636 45.40457916 C 167.74729919 48.70138168 171.76861572 50.59291077 163.71519470 54.57509995 C 156.76115417 54.25352859 153.43975830 49.96860886 143.89183044 49.09849548" stroke-width="1.90512896" fill="rgb(225, 118, 32)" opacity="1.0" stroke="rgb(47, 51, 71)" stroke-opacity="1.0" stroke-linecap="round" stroke-linejoin="round"/>
    <path d="M 142.79762268 83.61809540 C 142.34297180 85.39945221 142.50241089 88.89685822 141.19480896 93.48779297 C 139.25471497 97.21334076 137.00468445 98.71162415 132.57609558 98.72478485 C 131.10566711 95.66600800 133.01695251 90.60218048 132.73033142 87.45416260 C 133.24801636 82.57040405 133.12890625 80.26136017 133.35757446 75.71063232 C 133.62440491 72.46195221 132.93814087 68.99704742 134.35676575 63.74062347 C 135.80558777 60.26299286 137.75689697 59.80638885 138.45460510 55.99178314 C 138.59843445 50.95845032 142.76739502 53.30472946 147.73815918 53.91758728 C 152.47085571 55.33839798 155.03625488 55.56725693 152.40310669 60.38525391 C 149.72810364 64.09795380 147.68322754 67.46302795 146.72053528 70.79122925 C 144.98834229 74.80851746 144.31439209 77.16744995 142.79762268 83.61809540" stroke-width="2.00000000" fill="rgb(253, 187, 0)" opacity="1.0" stroke="rgb(252, 205, 62)" stroke-opacity="0.9946443" stroke-linecap="round" stroke-linejoin="round"/>
    <path d="M 124.65801239 86.72557068 C 124.20613098 87.90428162 126.56629181 94.81647491 123.65434265 98.83142090 C 121.43447113 100.77243805 115.85921478 101.83014679 111.26187134 103.33027649 C 106.41996002 105.61389923 104.27378845 102.10853577 103.14627838 95.41996002 C 102.32856750 92.10143280 100.76631927 86.84810638 99.21682739 82.32994080 C 98.09519958 78.22835541 96.12067413 73.76689911 96.06496429 68.89760590 C 96.88480377 64.17448425 98.27456665 62.60471344 99.18775177 59.54885101 C 100.84024811 56.82241058 108.90866852 55.43265152 111.53310394 54.26764679 C 117.99463654 51.35081482 118.67802429 56.76618958 121.14859772 60.40222931 C 125.53457642 61.46596527 123.19661713 65.62300110 122.82280731 71.29154205 C 123.37675476 75.85009766 123.70447540 81.47677612 124.65801239 86.72557068" stroke-width="0.88359141" fill="rgb(254, 194, 0)" opacity="1.0" stroke="rgb(252, 194, 16)" stroke-opacity="0.9197049" stroke-linecap="round" stroke-linejoin="round"/>
    <path d="M 105.79570007 69.04374695 C 105.06706238 67.62960815 103.79946899 63.93414688 102.37606812 60.66426086 C 99.88307953 55.89289093 104.74167633 56.21039963 108.33895874 54.68379211 C 111.34275818 55.70737839 110.78893280 61.08324814 111.86348724 63.47389984 C 112.65783691 66.40906525 113.45955658 69.99007416 114.11796570 73.46463776 C 115.13052368 77.47297668 115.42404938 79.02729034 116.79738617 83.99430847 C 117.82091522 88.17030334 117.65340424 89.00798035 118.64015198 92.17726898 C 119.42789459 96.11463928 122.31892395 99.68923950 117.54700470 99.34541321 C 115.69508362 96.33500671 115.42195129 92.44200897 113.60391235 89.31993103 C 112.41807556 86.09999847 111.08239746 83.04106903 110.18150330 80.03092957 C 108.47728729 76.06465912 107.65760040 74.05911255 105.79570007 69.04374695" stroke-width="0.43603846" fill="rgb(237, 55, 32)" opacity="1.0" stroke="rgb(205, 69, 45)" stroke-opacity="0.6054838" stroke-linecap="round" stroke-linejoin="round"/>
    <path d="M 145.30529785 82.77594757 C 144.15026855 85.85671997 143.34539795 87.95974731 141.63734436 91.98590088 C 140.56474304 96.15727997 139.22985840 100.71682739 135.86305237 99.40383148 C 134.78390503 96.50662231 137.33715820 93.23758698 137.67712402 89.44868469 C 138.47406006 85.88718414 139.30253601 82.33266449 140.33825684 78.86617279 C 141.18066406 74.81797028 141.68228149 73.02058411 142.96363831 67.80075073 C 144.02853394 62.77879715 144.36628723 62.46013260 145.05647278 58.36073685 C 145.71949768 52.96519852 147.21382141 53.88841248 152.87060547 56.08238602 C 156.48611450 56.77204132 155.72233582 56.78149414 153.99839783 61.10522079 C 151.89790344 65.08953857 150.51994324 68.39167786 149.74876404 71.17167664 C 148.24951172 74.93100739 146.47538757 79.16420746 145.30529785 82.77594757" stroke-width="2.00000000" fill="rgb(236, 59, 31)" opacity="1.0" stroke="rgb(255, 255, 108)" stroke-opacity="0.21301638" stroke-linecap="round" stroke-linejoin="round"/>
    <path d="M 76.47383118 91.78108978 C 73.14109039 89.08973694 71.80386353 88.32968140 67.57810974 86.15402222 C 64.22687531 84.80395508 68.14679718 81.70954132 70.34974670 78.69439697 C 72.38919067 77.03445435 75.47528076 82.30302429 77.78907013 83.60788727 C 81.21143341 86.80179596 82.36196899 87.72074890 85.84075165 90.88023376 C 88.85284424 93.44110870 90.21566772 94.71282959 94.18080902 98.18243408 C 97.69692993 101.15214539 98.02131653 102.11285400 100.90711212 104.48972321 C 105.05374146 106.82419586 106.54998779 110.12228394 101.69147491 110.27239227 C 98.97467804 108.51535034 96.50029755 105.10784149 93.29111481 103.53672028 C 90.42832947 101.66537476 87.62391663 100.30237579 84.75876617 97.92327881 C 82.12613678 96.24678802 79.63500214 94.05216217 76.47383118 91.78108978" stroke-width="0.17778699" fill="rgb(236, 54, 31)" opacity="1.0" stroke="rgb(207, 94, 20)" stroke-opacity="0.7844654" stroke-linecap="round" stroke-linejoin="round"/>
    <path d="M 82.81247711 120.84527588 C 80.01493073 120.17995453 77.56609344 119.86047363 72.51110077 119.08293152 C 69.32233429 118.53382874 65.68721771 118.04299164 61.30341721 116.59629059 C 58.60073090 112.96216583 60.95486450 109.10686493 61.41547394 105.92338562 C 63.54889679 100.21085358 65.84725952 98.52120972 68.32197571 96.58155823 C 73.92139435 92.89188385 77.04579926 93.51372528 79.77647400 95.28232574 C 86.01197052 98.88213348 84.47283173 98.15181732 88.01668549 100.46212006 C 91.23413849 102.76836395 93.72737885 106.15631866 97.12971497 107.40627289 C 102.00705719 109.64159393 104.15702820 110.41419983 102.22823334 115.28028107 C 101.60726929 118.38568878 100.48219299 123.79071045 95.93043518 123.07257843 C 91.79207611 122.38760376 89.66748047 121.54847717 82.81247711 120.84527588" stroke-width="0.65665513" fill="rgb(252, 199, 3)" opacity="1.0" stroke="rgb(255, 255, 3)" stroke-opacity="0.37516713" stroke-linecap="round" stroke-linejoin="round"/>
    <path d="M 88.39334106 77.66199493 C 85.84014130 74.13591766 84.28850555 72.71818542 81.52599335 69.54371643 C 81.58052826 66.56291962 86.27748871 64.35538483 88.93894958 63.18175888 C 90.74024200 64.02296448 92.42871094 70.04595947 94.25316620 72.32325745 C 96.17007446 75.74508667 97.23376465 77.27835083 99.61196136 81.38118744 C 102.07188416 85.21007538 102.44869995 85.72164917 105.31811523 90.60200500 C 108.28316498 95.59854126 107.45298004 94.75279236 109.72585297 98.10095978 C 113.21807861 100.75896454 112.84115601 104.92420959 108.30750275 103.31022644 C 105.83171082 99.42125702 104.20154572 96.72348022 101.63110352 94.35359955 C 98.80532074 90.67102051 96.95336151 88.65974426 95.26528931 86.21459961 C 92.52149200 82.80890656 91.77885437 81.95442963 88.39334106 77.66199493" stroke-width="2.00000000" fill="rgb(234, 61, 29)" opacity="1.0" stroke="rgb(255, 255, 42)" stroke-opacity="0.29337665" stroke-linecap="round" stroke-linejoin="round"/>
    <path d="M 171.68525696 72.82111359 C 168.49903870 76.28207397 165.36431885 80.86058044 159.63088989 86.65122223 C 156.02105713 93.71644592 151.70880127 97.81484985 146.08540344 104.13021851 C 140.63867188 101.99894714 149.34733582 94.67216492 152.41516113 88.00686646 C 156.89624023 81.98013306 159.44311523 74.90643311 164.55316162 67.60987854 C 167.86839294 61.03569794 167.57786560 62.97036362 173.93273926 67.50496674 C 177.80392456 67.59345245 184.18264771 69.64464569 171.29644775 62.42174530 C 158.57986450 55.65591431 158.16601562 48.94387054 167.75630188 52.56536865 C 175.34596252 57.85280228 175.30384827 57.85604858 184.05592346 65.93746948 C 191.72998047 70.99774170 194.90521240 77.76995850 186.76985168 75.56763458 C 178.17773438 67.48017883 177.24662781 64.06326294 171.68525696 72.82111359" stroke-width="2.00000000" fill="rgb(211, 68, 30)" opacity="1.0" stroke="rgb(255, 255, 167)" stroke-opacity="0.2822297" stroke-linecap="round" stroke-linejoin="round"/>
    <path d="M 64.89772034 107.30966949 C 64.26285553 106.74499512 59.51025391 105.85256195 56.70670319 103.91760254 C 56.43836975 100.13001251 59.41043091 96.75505066 61.21576309 97.40486908 C 65.65659332 98.95756531 68.50360870 101.25388336 71.04821777 101.99240112 C 74.47056580 103.60556793 76.32972717 104.35854340 80.65132141 106.47766876 C 83.39116669 107.94432831 85.50885010 108.91149902 90.04988098 110.83502197 C 93.76635742 112.62541199 93.99087524 113.24040222 97.49060059 114.22983551 C 102.36508942 116.54934692 100.25596619 118.86146545 95.29313660 117.42838287 C 91.74856567 115.98133087 90.11136627 115.28131866 85.83078003 114.07444000 C 82.57044220 112.97789001 79.22550201 111.96445465 75.73252869 110.69385529 C 72.21699524 109.35104370 70.60230255 109.35742188 64.89772034 107.30966949" stroke-width="0.56274539" fill="rgb(235, 58, 30)" opacity="1.0" stroke="rgb(226, 108, 34)" stroke-opacity="0.72759295" stroke-linecap="round" stroke-linejoin="round"/>
    <path d="M 162.10855103 112.51004791 C 165.44834900 111.43663025 167.47468567 110.04533386 172.96214294 107.57553101 C 177.24191284 105.07820892 179.36375427 104.37370300 184.57476807 102.15158844 C 189.10565186 100.29461670 192.19383240 98.32806396 196.24076843 96.18627930 C 199.73617554 93.59896851 204.13623047 89.01552582 204.80186462 95.64467621 C 206.81533813 101.32781219 208.71708679 105.72058105 201.57331848 104.37425995 C 196.23504639 105.49260712 194.42869568 105.69560242 191.62579346 107.27912903 C 187.30697632 108.71533203 184.83830261 109.54406738 178.14695740 111.30118561 C 174.69482422 113.18254089 173.06907654 113.17795563 167.30451965 114.98835754 C 163.95420837 116.34834290 160.52117920 117.18473053 156.74468994 118.80796814 C 154.87559509 116.18458557 156.37565613 114.62049103 162.10855103 112.51004791" stroke-width="0.00000000" fill="rgb(221, 73, 48)" opacity="1.0" stroke="rgb(255, 64, 0)" stroke-opacity="0.03437912" stroke-linecap="round" stroke-linejoin="round"/>
    <path d="M 180.84327698 81.69700623 C 185.03392029 79.06769562 185.26142883 78.76382446 189.27218628 74.82660675 C 192.89163208 71.13282776 194.77160645 76.40255737 196.87773132 80.11622620 C 199.05491638 85.44286346 194.20674133 85.41592407 190.17893982 85.54296875 C 187.72897339 85.73603821 185.53733826 87.35009003 181.27014160 90.45650482 C 176.57582092 93.97235870 174.00151062 96.08446503 170.39926147 98.08680725 C 164.42442322 102.25737762 165.25775146 101.28194427 161.62747192 103.97946930 C 158.04579163 106.69247437 153.60867310 111.83417511 151.06521606 108.82543182 C 151.90994263 105.31329346 157.11654663 103.46250916 160.12609863 99.85321808 C 163.11227417 97.24264526 166.36451721 94.29096985 169.58706665 91.14900208 C 174.37252808 87.07981873 176.08953857 85.57112885 180.84327698 81.69700623" stroke-width="0.20014165" fill="rgb(224, 73, 52)" opacity="1.0" stroke="rgb(159, 0, 15)" stroke-opacity="0.4698196" stroke-linecap="round" stroke-linejoin="round"/>
    <path d="M 105.26951599 175.14527893 C 108.08203125 177.26693726 111.19178772 176.47596741 111.87351990 179.13858032 C 110.65227509 183.45417786 108.55964661 186.80239868 107.75721741 189.27723694 C 103.60498810 190.89144897 102.56585693 188.92056274 97.10116577 190.34562683 C 94.51734924 190.46429443 89.43274689 192.87991333 85.96740723 193.10775757 C 83.20306396 192.53237915 80.24781799 189.11123657 77.05086517 186.64245605 C 73.61096954 183.80305481 73.32692719 182.21598816 70.41802216 179.97018433 C 67.31638336 177.12371826 71.32059479 172.51095581 73.50682068 171.49911499 C 78.23754883 172.52095032 81.42703247 174.26077271 84.09143829 171.80368042 C 87.31945038 170.04362488 91.56249237 169.17872620 95.07493591 169.60977173 C 99.51300049 170.00955200 101.14699554 171.20266724 105.26951599 175.14527893" stroke-width="2.00000000" fill="rgb(46, 86, 76)" opacity="1.0" stroke="rgb(252, 251, 255)" stroke-opacity="0.70424694" stroke-linecap="round" stroke-linejoin="round"/>
    <path d="M 179.23931885 186.54702759 C 177.17512512 188.15873718 175.54225159 188.98889160 172.84686279 191.12902832 C 170.14053345 193.21060181 169.10192871 194.45576477 165.78280640 192.53161621 C 162.29714966 191.56379700 161.46752930 190.91600037 157.93154907 189.87046814 C 155.17150879 189.05053711 152.16471863 188.48953247 152.14259338 185.39114380 C 151.50189209 182.66810608 151.79080200 180.03038025 154.11827087 177.99632263 C 156.33808899 176.20880127 157.08027649 174.94372559 159.90353394 173.84503174 C 162.11384583 173.06549072 164.13706970 172.50245667 167.65039062 173.36557007 C 170.80522156 174.32574463 172.75758362 175.38685608 174.99234009 176.90872192 C 177.32209778 178.52124023 180.02149963 179.87464905 182.63999939 181.00482178 C 184.82835388 182.22381592 182.62829590 184.55603027 179.23931885 186.54702759" stroke-width="2.00000000" fill="rgb(81, 133, 72)" opacity="1.0" stroke="rgb(0, 0, 156)" stroke-opacity="0.0" stroke-linecap="round" stroke-linejoin="round"/>
    <path d="M 163.07431030 127.56430817 C 169.09992981 127.56645966 172.14913940 127.96789551 178.19230652 127.58164978 C 184.10978699 128.05506897 188.61087036 127.58125305 194.75343323 127.79454041 C 202.16220093 126.89223480 203.67581177 128.97663879 210.57380676 129.42262268 C 217.33128357 129.58808899 219.83462524 126.37990570 218.16476440 122.51988220 C 215.56262207 124.22024536 219.74314880 128.82575989 216.93807983 131.17245483 C 210.82943726 132.06594849 209.45074463 127.24669647 206.69512939 128.28517151 C 201.16952515 132.05554199 201.33935547 132.27934265 191.97972107 133.73554993 C 184.67091370 133.51818848 181.71343994 130.24485779 178.01652527 131.73519897 C 171.76063538 134.98771667 169.86639404 134.63446045 164.63844299 132.37495422 C 159.26542664 127.68070984 154.38708496 127.45399475 163.07431030 127.56430817" stroke-width="1.01312971" fill="rgb(0, 30, 75)" opacity="1.0" stroke="rgb(113, 190, 156)" stroke-opacity="0.356574" stroke-linecap="round" stroke-linejoin="round"/>
    <path d="M 95.68156433 127.52882385 C 98.91621399 127.72836304 101.88132477 128.14134216 107.08942413 130.47862244 C 109.91605377 135.09468079 106.02930450 136.00773621 101.01747894 132.74313354 C 96.07187653 131.89028931 93.14118958 131.22903442 89.15270996 132.42593384 C 83.51290894 134.23507690 82.23884583 134.86672974 77.86318970 132.25036621 C 72.96988678 130.52392578 70.05700684 132.35574341 65.60586548 133.70497131 C 60.68229675 134.59632874 60.33463287 132.47886658 56.79317474 131.87144470 C 48.59748077 131.55651855 50.54631042 127.42168427 56.60236359 127.48860931 C 60.80775452 127.46421051 64.15428162 127.80637360 68.21398163 127.52470398 C 72.39158630 127.43759918 76.79031372 127.61004639 81.68053436 127.55020142 C 87.66194153 127.84864807 88.37689209 127.61384583 95.68156433 127.52882385" stroke-width="1.37717032" fill="rgb(8, 37, 77)" opacity="1.0" stroke="rgb(204, 255, 255)" stroke-opacity="0.21359174" stroke-linecap="round" stroke-linejoin="round"/>
    <path d="M 174.55717468 158.47204590 C 172.74609375 160.75456238 170.30911255 162.33044434 167.83279419 165.00299072 C 164.86727905 167.88653564 164.62928772 167.49810791 160.62617493 171.20434570 C 157.95841980 173.49266052 156.82025146 175.30603027 154.50886536 178.56185913 C 153.09991455 181.45312500 152.20343018 185.10963440 150.22061157 184.24490356 C 146.52810669 181.31217957 143.02084351 180.11488342 144.64384460 178.27507019 C 147.96098328 174.23831177 148.93696594 175.96267700 151.51589966 174.57807922 C 154.83021545 172.05569458 155.12098694 172.81504822 158.49565125 168.39289856 C 160.12263489 165.61100769 161.16252136 163.42926025 162.52987671 159.77333069 C 163.92747498 157.86499023 165.03433228 154.45246887 168.99583435 152.79388428 C 172.77891541 154.49545288 174.32746887 154.86952209 174.55717468 158.47204590" stroke-width="2.00000000" fill="rgb(0, 26, 69)" opacity="1.0" stroke="rgb(255, 255, 255)" stroke-opacity="0.5268326" stroke-linecap="round" stroke-linejoin="round"/>
    <path d="M 96.85832214 150.05570984 C 99.28965759 150.06944275 101.50506592 155.59243774 98.59008789 157.48712158 C 93.92221069 156.50050354 91.86573029 154.34407043 88.81084442 155.09092712 C 85.32746124 155.48751831 83.19340515 157.05786133 79.51291656 158.66247559 C 75.31228638 159.39247131 73.07678986 157.12150574 69.54495239 155.84736633 C 66.32588196 154.04818726 62.10189438 155.53839111 58.59931564 157.54579163 C 56.86408615 156.42077637 58.34379578 153.34721375 55.90517807 152.25622559 C 56.19039917 151.18676758 60.79331589 150.22824097 64.89389038 149.17340088 C 68.60179901 148.13850403 71.37855530 149.82983398 75.21063995 152.48126221 C 78.74119568 152.79627991 82.53823853 151.64038086 86.43020630 150.45487976 C 90.11026764 148.31138611 92.73515320 148.66696167 96.85832214 150.05570984" stroke-width="1.06642687" fill="rgb(3, 35, 81)" opacity="1.0" stroke="rgb(0, 32, 77)" stroke-opacity="1.0" stroke-linecap="round" stroke-linejoin="round"/>
    <path d="M 97.85820007 167.62277222 C 97.83279419 168.18688965 94.63034058 165.34622192 90.17435455 165.81594849 C 85.81027985 166.62591553 86.05194092 167.65431213 81.19404602 169.29304504 C 76.56663513 169.40463257 76.51708221 167.69641113 71.76328278 165.75714111 C 67.53805542 165.38749695 64.06574249 165.85771179 63.89295959 166.86116028 C 63.68582153 166.27947998 58.81691742 162.24293518 62.71408844 160.41905212 C 67.07363129 159.19445801 68.28961182 160.31834412 70.22053528 161.56169128 C 73.70735931 163.00434875 73.68689728 163.75224304 79.40920258 163.58120728 C 83.67538452 162.67776489 84.04053497 162.09895325 86.76330566 160.49494934 C 90.82978821 159.84396362 94.87578583 159.45346069 97.40229797 161.74182129 C 97.76902008 165.44551086 95.13027191 167.47631836 97.85820007 167.62277222" stroke-width="1.50309968" fill="rgb(6, 37, 84)" opacity="1.0" stroke="rgb(3, 38, 81)" stroke-opacity="1.0" stroke-linecap="round" stroke-linejoin="round"/>
    <path d="M 198.91534424 157.04446411 C 195.46133423 157.08074951 193.54014587 155.59927368 189.97363281 158.02217102 C 186.28726196 159.96305847 182.63909912 160.44174194 178.61613464 159.09472656 C 174.69401550 157.63661194 171.73451233 155.70597839 168.36608887 154.67715454 C 162.68406677 153.67617798 161.47634888 156.19641113 158.08610535 156.25007629 C 154.92390442 152.45584106 154.25776672 150.61515808 159.73048401 148.02612305 C 165.90080261 147.59053040 164.36233521 147.46810913 169.65995789 147.65739441 C 173.70846558 147.61999512 176.16213989 147.48838806 180.80647278 149.79080200 C 184.60614014 151.65068054 187.88482666 152.12809753 192.05101013 149.69012451 C 196.03549194 148.07051086 200.95259094 145.25683594 201.38787842 149.44480896 C 200.99549866 153.67027283 198.67871094 157.32353210 198.91534424 157.04446411" stroke-width="2.00000000" fill="rgb(8, 39, 85)" opacity="1.0" stroke="rgb(198, 255, 255)" stroke-opacity="0.35803473" stroke-linecap="round" stroke-linejoin="round"/>
    <path d="M 97.75582886 169.61132812 C 100.60740662 168.09933472 100.79760742 171.74372864 102.69145966 174.79516602 C 103.53553772 179.22706604 99.59915161 177.02410889 96.35085297 176.45793152 C 91.22360229 175.96733093 90.73113251 176.10218811 85.42336273 176.86056519 C 82.18621826 176.90545654 79.87602997 177.72334290 78.33428955 181.82495117 C 76.18714905 187.12672424 73.04848480 182.54898071 71.49821472 180.85794067 C 67.95397186 175.81108093 69.02135468 177.57572937 65.64529419 173.49714661 C 62.46504974 169.46452332 66.17729187 168.85148621 70.31465149 169.39372253 C 73.26527405 170.10693359 75.22480774 171.91384888 79.78083038 173.11459351 C 83.01509857 173.26446533 86.04825592 171.36308289 89.28074646 169.75144958 C 92.20046997 167.51953125 93.40480042 170.76634216 97.75582886 169.61132812" stroke-width="2.00000000" fill="rgb(8, 38, 83)" opacity="1.0" stroke="rgb(255, 255, 255)" stroke-opacity="0.24283136" stroke-linecap="round" stroke-linejoin="round"/>
    <path d="M 97.29582214 145.73173523 C 94.78450775 144.58079529 91.24128723 143.66189575 87.03362274 144.90063477 C 82.46006012 146.19329834 81.53861237 148.57217407 76.05139923 147.04286194 C 72.43070221 145.45317078 70.01097107 143.45544434 64.90634155 144.12274170 C 60.20653152 144.99031067 56.30482483 146.90135193 56.03938293 148.12870789 C 55.73290634 145.97592163 52.32420349 140.37806702 56.90380096 142.72184753 C 61.52198029 143.83694458 61.98740005 145.09484863 66.08422852 144.21107483 C 69.76377106 142.34259033 71.16295624 140.96687317 76.14871216 142.46290588 C 80.20085144 143.86189270 82.88536072 145.42028809 88.30466461 142.84475708 C 92.73707581 141.83911133 95.85968781 140.17378235 100.47138977 140.84877014 C 103.24975586 143.13870239 103.48488617 148.97624207 97.29582214 145.73173523" stroke-width="1.53951275" fill="rgb(0, 33, 79)" opacity="1.0" stroke="rgb(1, 37, 83)" stroke-opacity="0.98980296" stroke-linecap="round" stroke-linejoin="round"/>
    <path d="M 71.74489594 134.48170471 C 74.77455139 134.43939209 77.07894135 135.64509583 81.01639557 136.71585083 C 84.84558105 136.80268860 85.44470215 137.60592651 91.60451508 134.59843445 C 97.00119781 134.34640503 99.63540649 132.80484009 102.68618774 135.89636230 C 99.38471222 138.98904419 96.79473114 136.90733337 90.19330597 137.43177795 C 85.95488739 138.16891479 85.08100128 140.51370239 79.93977356 138.52584839 C 74.64734650 137.44357300 73.88099670 135.40170288 69.92103577 136.97648621 C 66.04682922 138.96054077 63.40002060 140.24223328 59.63425827 138.31854248 C 56.39281464 136.81764221 55.62004471 137.45414734 53.78933716 136.58911133 C 52.32822800 132.06176758 57.63404083 136.33221436 61.61967087 136.75743103 C 67.81671906 137.04896545 68.05438232 136.43197632 71.74489594 134.48170471" stroke-width="1.58274293" fill="rgb(3, 35, 83)" opacity="1.0" stroke="rgb(0, 31, 77)" stroke-opacity="0.955347" stroke-linecap="round" stroke-linejoin="round"/>
    <path d="M 200.01327515 146.03164673 C 196.69480896 145.44198608 194.32722473 145.67881775 191.14405823 147.96287537 C 187.78479004 149.56695557 184.17984009 149.38342285 180.92483521 147.90147400 C 178.19200134 145.48666382 175.03666687 145.45115662 171.10472107 146.36323547 C 167.13603210 147.15861511 163.47366333 150.94502258 161.21179199 147.45474243 C 160.13046265 145.09040833 158.77624512 137.93589783 164.14108276 139.74656677 C 168.33251953 140.97621155 167.85620117 142.40020752 172.31896973 142.30447388 C 176.15055847 141.32473755 177.57305908 139.49731445 182.71545410 140.49272156 C 186.48445129 141.54765320 188.09982300 143.75253296 192.83792114 142.26832581 C 196.47039795 140.96266174 200.05541992 139.04125977 202.88891602 140.74041748 C 203.47561646 143.91703796 202.25637817 147.50991821 200.01327515 146.03164673" stroke-width="1.85116041" fill="rgb(2, 35, 79)" opacity="1.0" stroke="rgb(245, 255, 255)" stroke-opacity="0.56603515" stroke-linecap="round" stroke-linejoin="round"/>
    <path d="M 195.43363953 168.16844177 C 193.09506226 168.61172485 189.73928833 172.95549011 187.48596191 177.13433838 C 185.92372131 182.09524536 184.06033325 186.52507019 179.39793396 181.73236084 C 176.02880859 178.10527039 172.49572754 175.74435425 167.44126892 175.86247253 C 160.08029175 175.93312073 158.19473267 176.59028625 153.51687622 178.43995667 C 149.13768005 179.76496887 149.08590698 174.90792847 155.08695984 172.49057007 C 160.80102539 170.83787537 161.25616455 171.25636292 165.38581848 169.88616943 C 170.62222290 168.50643921 169.99949646 168.92526245 175.61305237 171.11772156 C 179.65032959 173.47155762 179.18713379 174.28877258 185.58895874 170.85850525 C 192.59893799 169.26023865 192.23019409 170.27960205 197.71903992 166.51007080 C 202.28184509 164.64924622 201.41493225 162.93115234 195.43363953 168.16844177" stroke-width="0.00000000" fill="rgb(7, 39, 81)" opacity="1.0" stroke="rgb(0, 187, 255)" stroke-opacity="0.0" stroke-linecap="round" stroke-linejoin="round"/>
    <path d="M 166.39509583 135.12538147 C 170.03073120 135.50828552 171.08180237 135.92890930 175.42344666 134.48773193 C 177.99682617 132.85934448 181.09419250 132.69229126 183.98217773 133.60575867 C 188.06338501 135.20397949 187.62577820 135.67849731 192.22290039 135.35211182 C 196.59826660 134.52029419 196.64447021 132.49157715 201.72337341 133.00221252 C 205.97796631 134.50216675 204.30375671 138.86912537 201.75961304 138.30281067 C 195.68305969 139.17941284 196.81330872 138.89437866 192.41029358 140.74005127 C 187.46644592 141.63912964 187.93699646 140.12539673 182.83509827 138.65451050 C 179.48861694 138.25756836 179.18571472 138.17250061 174.17744446 140.17189026 C 171.83427429 140.98098755 167.30714417 141.97068787 163.32131958 140.81999207 C 160.25360107 138.99180603 162.73684692 134.28886414 166.39509583 135.12538147" stroke-width="1.37187636" fill="rgb(0, 25, 72)" opacity="1.0" stroke="rgb(245, 255, 255)" stroke-opacity="0.47801355" stroke-linecap="round" stroke-linejoin="round"/>
    <path d="M 148.96392822 205.71044922 C 146.53248596 208.03056335 144.85729980 208.44274902 140.23118591 207.76956177 C 136.78370667 206.92335510 133.40251160 205.22827148 129.85537720 204.12565613 C 125.77430725 202.43640137 123.14353180 202.69583130 122.25130463 198.83874512 C 121.81189728 193.79150391 125.24498749 193.23727417 129.47068787 192.77355957 C 132.85494995 192.80197144 133.40670776 188.51124573 130.27352905 184.92637634 C 130.57098389 182.44482422 133.85821533 180.28123474 133.49153137 183.29559326 C 133.44369507 187.88658142 133.38208008 188.26239014 137.87535095 191.12467957 C 141.27346802 193.69740295 138.69429016 193.18525696 136.98181152 194.63926697 C 137.31745911 196.95997620 140.41996765 196.51028442 144.56262207 197.22256470 C 147.62466431 198.51281738 151.19660950 199.91070557 148.96392822 205.71044922" stroke-width="0.00000000" fill="rgb(9, 37, 87)" opacity="1.0" stroke="rgb(110, 179, 255)" stroke-opacity="0.0" stroke-linecap="round" stroke-linejoin="round"/>
    <path d="M 199.52626038 159.78283691 C 196.00233459 160.05877686 196.15383911 164.73788452 193.68807983 168.03840637 C 190.52534485 169.18040466 186.45214844 167.84516907 183.38528442 170.44645691 C 178.37081909 171.17045593 177.62933350 169.44447327 171.56518555 167.39247131 C 167.78381348 166.06321716 162.12503052 169.29518127 160.92263794 170.32875061 C 158.72935486 168.35664368 162.60862732 161.45172119 164.92935181 160.83721924 C 172.79983521 158.27375793 171.07017517 159.35992432 175.43307495 159.32443237 C 179.99754333 160.32235718 178.95730591 162.50582886 185.74862671 161.56288147 C 189.68663025 161.15603638 189.18740845 159.63932800 194.62319946 158.29708862 C 200.83581543 159.75674438 201.33801270 161.17433167 201.82748413 164.97752380 C 199.47758484 166.74165344 200.46684265 158.63414001 199.52626038 159.78283691" stroke-width="1.79358196" fill="rgb(6, 37, 82)" opacity="1.0" stroke="rgb(255, 255, 255)" stroke-opacity="0.5199561" stroke-linecap="round" stroke-linejoin="round"/>
    <path d="M 174.68461609 192.93975830 C 168.31695557 197.48002625 161.40730286 203.67631531 149.75979614 206.13334656 C 135.39259338 209.57876587 126.40344238 210.22914124 118.31513977 208.26994324 C 119.73750305 211.31097412 126.61667633 206.13885498 114.81050873 201.77992249 C 103.87622070 196.69061279 94.41275024 197.22297668 85.13796997 191.08367920 C 80.87463379 190.32901001 102.18669128 198.03218079 107.19308472 200.16889954 C 121.75023651 206.09509277 126.90426636 206.79203796 126.21966553 206.51423645 C 128.81048584 209.04211426 141.41413879 205.64785767 151.31628418 203.31092834 C 165.75566101 197.34230042 169.69512939 194.78170776 176.98916626 188.33587646 C 185.95423889 181.03207397 193.72120667 167.63560486 195.01585388 169.03198242 C 194.00122070 174.39222717 187.13186646 182.13690186 174.68461609 192.93975830" stroke-width="1.99960852" fill="rgb(255, 255, 255)" opacity="1.0" stroke="rgb(0, 40, 86)" stroke-opacity="0.61952657" stroke-linecap="round" stroke-linejoin="round"/>
    <path d="M 170.32312012 207.89836121 C 159.55194092 217.20336914 134.12158203 219.18147278 119.25306702 219.64739990 C 111.84074402 220.90953064 133.52514648 211.51321411 161.61532593 204.15330505 C 187.38195801 187.98466492 184.56387329 187.15554810 163.92550659 196.64093018 C 144.04371643 202.39892578 125.08367157 205.53384399 127.01185608 204.03936768 C 136.07922363 193.32797241 136.16534424 196.34985352 130.64819336 201.29939270 C 136.46510315 205.10882568 144.88467407 201.30987549 154.06755066 199.42915344 C 172.23338318 194.41383362 183.03121948 190.59791565 192.55337524 178.23298645 C 207.71560669 155.20806885 203.79998779 151.11822510 211.70404053 125.30198669 C 221.55519104 119.64738464 215.08909607 146.80566406 211.52523804 161.27178955 C 199.17004395 184.67939758 191.74617004 195.47985840 170.32312012 207.89836121" stroke-width="1.60820639" fill="rgb(240, 110, 20)" opacity="1.0" stroke="rgb(0, 5, 39)" stroke-opacity="0.68143326" stroke-linecap="round" stroke-linejoin="round"/>
    <path d="M 133.23054504 201.91955566 C 128.10379028 202.48979187 125.13211060 201.48570251 118.36646271 200.24180603 C 117.61640167 201.31951904 125.84129333 203.75306702 128.95719910 206.07502747 C 122.76393890 207.30551147 118.69040680 207.04083252 113.09496307 205.39237976 C 107.75543213 204.14355469 103.92210388 202.82461548 98.40855408 200.67878723 C 91.17301941 198.26487732 89.16403198 194.46745300 96.74324036 195.96166992 C 103.21015167 197.30734253 103.67286682 199.41749573 108.94016266 197.19183350 C 113.97503662 194.97663879 115.08078003 195.11485291 120.70627594 196.47482300 C 125.17077637 197.75827026 123.54206085 199.29943848 125.95038605 195.31173706 C 130.11236572 193.80227661 134.18867493 192.28550720 136.24682617 194.49391174 C 136.53477478 198.85708618 137.87339783 200.87022400 133.23054504 201.91955566" stroke-width="2.00000000" fill="rgb(17, 48, 88)" opacity="1.0" stroke="rgb(237, 255, 255)" stroke-opacity="0.6438805" stroke-linecap="round" stroke-linejoin="round"/>
    <path d="M 144.02320862 188.53155518 C 144.59895325 185.89126587 147.34014893 184.15866089 151.22895813 182.10713196 C 154.45393372 178.90670776 158.75993347 180.90856934 158.47300720 181.32884216 C 152.66561890 183.76296997 151.90983582 186.88362122 158.98773193 187.06495667 C 164.63104248 187.59762573 170.09783936 186.35052490 173.72875977 188.82054138 C 174.88652039 191.26361084 164.92021179 190.99186707 162.35021973 190.06083679 C 155.03137207 189.68202209 152.91691589 187.82212830 150.34553528 190.73112488 C 147.29818726 196.70509338 149.65919495 196.97294617 146.07466125 194.97599792 C 145.76780701 192.42597961 147.81306458 191.50605774 140.53372192 194.41314697 C 135.27890015 194.45188904 128.04548645 195.91125488 131.29168701 191.81703186 C 137.40643311 190.13522339 141.97624207 191.69001770 144.02320862 188.53155518" stroke-width="0.44330353" fill="rgb(0, 26, 74)" opacity="1.0" stroke="rgb(0, 21, 77)" stroke-opacity="0.6982093" stroke-linecap="round" stroke-linejoin="round"/>
    <path d="M 128.47367859 198.67251587 C 127.59934998 198.88339233 126.17865753 198.69349670 124.48691559 197.85974121 C 122.97164154 196.78468323 122.29912567 195.93728638 120.81786346 195.03256226 C 118.75858307 194.24114990 118.34004211 194.20660400 116.08723450 193.62492371 C 114.62616730 193.23266602 112.54581451 193.21937561 111.15705872 192.14511108 C 111.49615479 190.23744202 112.35277557 190.76010132 114.71450043 190.39849854 C 116.71392059 190.32922363 116.92933655 190.28111267 118.58911133 190.13446045 C 120.78388977 189.87321472 120.35917664 189.67031860 122.51110840 188.52932739 C 123.36048126 187.64102173 122.99586487 189.92008972 124.28607178 191.40148926 C 125.30233002 192.77827454 126.74754333 193.80828857 127.59812927 194.75764465 C 129.21850586 196.24128723 130.14274597 197.43197632 128.47367859 198.67251587" stroke-width="0.14643663" fill="rgb(5, 36, 80)" opacity="1.0" stroke="rgb(0, 0, 64)" stroke-opacity="0.42197347" stroke-linecap="round" stroke-linejoin="round"/>
    <path d="M 142.27111816 191.13885498 C 148.48748779 193.55717468 149.28599548 191.52444458 156.25218201 190.88636780 C 161.45919800 193.42596436 167.29412842 194.14012146 172.35856628 191.46400452 C 173.43786621 187.12185669 165.12973022 192.89299011 166.80264282 197.13465881 C 172.09989929 197.53303528 175.61781311 192.64953613 181.73153687 187.57984924 C 191.19583130 181.36474609 184.59004211 187.37294006 180.98352051 190.30783081 C 175.26785278 196.21075439 171.86824036 195.34066772 172.52037048 197.74279785 C 170.80541992 198.15487671 167.05470276 196.36483765 160.22229004 196.68565369 C 153.10253906 195.57743835 156.73562622 197.04898071 151.00752258 197.12763977 C 144.90170288 195.12480164 138.90931702 194.50526428 134.95904541 191.85340881 C 128.37356567 185.81671143 134.22396851 189.44905090 142.27111816 191.13885498" stroke-width="1.98688042" fill="rgb(6, 35, 79)" opacity="1.0" stroke="rgb(255, 255, 255)" stroke-opacity="0.2714669" stroke-linecap="round" stroke-linejoin="round"/>
    <path d="M 117.16294098 193.21479797 C 119.23212433 194.02191162 116.26155090 193.42941284 113.06430054 193.55955505 C 110.11548615 194.39865112 107.08689880 195.36419678 104.25840759 196.34616089 C 100.83709717 196.53712463 98.73596191 195.76487732 96.21620178 196.16799927 C 92.26036072 198.11747742 92.38661194 198.15095520 89.62290955 195.13513184 C 87.42722321 194.15737915 82.16487122 191.27822876 83.68055725 190.34445190 C 88.38265991 190.50747681 87.05834961 193.01971436 91.22192383 193.46626282 C 95.03979492 193.05184937 94.96990204 192.45841980 100.22881317 191.21717834 C 104.35556793 190.70709229 105.33887482 192.43580627 106.06924438 189.18380737 C 108.70211029 185.38905334 111.41810608 183.17027283 112.42147064 187.12773132 C 111.89976501 190.41838074 113.06860352 193.29298401 117.16294098 193.21479797" stroke-width="0.16785593" fill="rgb(7, 38, 82)" opacity="1.0" stroke="rgb(9, 43, 92)" stroke-opacity="0.6777611" stroke-linecap="round" stroke-linejoin="round"/>
    <path d="M 108.50153351 146.52035522 C 107.66311646 147.11286926 105.74475861 149.01393127 104.14862823 151.06535339 C 103.18184662 152.53210449 100.59342957 156.22460938 99.67393494 154.30258179 C 99.43447876 152.27255249 99.64816284 149.30256653 99.51797485 147.48735046 C 99.26367188 144.19483948 99.22227478 142.74096680 101.40851593 140.85522461 C 102.65222931 139.83168030 103.50981903 137.74639893 105.50881958 135.61766052 C 107.22023010 134.02484131 108.65498352 134.01954651 110.27895355 133.45028687 C 112.25208282 132.37574768 112.86551666 129.59918213 114.87835693 129.43411255 C 116.55607605 129.82569885 116.99018097 132.23982239 117.03727722 134.21080017 C 116.13687897 136.90507507 114.82944489 138.59191895 113.83016205 140.33691406 C 112.40563202 142.37934875 111.48392487 143.44444275 108.50153351 146.52035522" stroke-width="2.00000000" fill="rgb(7, 35, 81)" opacity="1.0" stroke="rgb(255, 255, 255)" stroke-opacity="0.34100002" stroke-linecap="round" stroke-linejoin="round"/>
    <path d="M 163.53726196 136.62153625 C 159.11245728 134.22813416 155.44459534 131.87889099 148.72241211 134.12919617 C 145.09190369 137.28684998 139.27648926 138.03575134 133.21270752 140.27282715 C 128.17471313 142.42970276 125.04992676 144.48168945 121.35411835 150.15199280 C 117.81568909 154.81050110 114.11627197 164.03726196 111.60182953 156.04318237 C 113.74794006 149.48918152 114.82075500 149.87554932 120.08098602 141.68667603 C 122.91473389 136.27763367 123.01946259 133.24261475 121.88796997 128.23980713 C 128.10484314 126.26904297 130.14739990 128.43598938 138.74195862 127.64393616 C 145.79217529 126.66239929 150.76493835 128.47157288 155.09765625 127.27846527 C 161.38731384 127.78073120 162.68006897 129.87861633 166.96728516 135.07713318 C 172.26817322 139.95477295 171.73422241 143.14241028 163.53726196 136.62153625" stroke-width="2.00000000" fill="rgb(10, 40, 86)" opacity="1.0" stroke="rgb(255, 255, 255)" stroke-opacity="0.2747052" stroke-linecap="round" stroke-linejoin="round"/>
    <path d="M 137.39015198 46.31980133 C 137.30334473 44.68553925 137.66635132 43.19488525 137.09104919 41.61822510 C 136.51199341 40.00350952 135.92684937 38.62867737 136.77227783 37.48266983 C 138.18003845 38.63007736 138.51031494 39.14891434 139.40003967 41.03945923 C 140.28813171 43.14187241 140.92037964 44.16333389 140.19097900 45.07353592 C 140.08259583 46.03300858 140.13362122 47.46061707 139.18727112 48.85418701 C 137.73274231 51.35861588 137.61373901 50.58081818 136.62037659 52.02478409 C 135.96096802 53.74924469 136.30210876 52.83164215 135.13861084 54.68330383 C 134.80958557 56.85105133 134.68829346 55.98264313 133.92817688 53.92564392 C 133.13056946 52.60686111 133.12475586 50.80467987 133.94764709 49.72098541 C 135.29798889 48.10674667 137.23945618 48.46718597 137.39015198 46.31980133" stroke-width="1.77865803" fill="rgb(239, 138, 42)" opacity="1.0" stroke="rgb(92, 69, 56)" stroke-opacity="1.0" stroke-linecap="round" stroke-linejoin="round"/>
    <path d="M 151.03099060 139.78715515 C 150.39683533 138.24333191 150.54400635 135.85446167 150.79870605 134.08401489 C 152.10113525 131.94258118 154.03318787 136.11056519 155.89459229 134.90548706 C 158.01963806 132.43771362 160.84712219 132.83909607 165.15002441 134.45481873 C 169.24168396 135.11955261 172.05026245 135.60025024 175.00389099 135.06541443 C 180.64218140 134.53961182 175.61972046 137.10023499 173.33360291 136.65002441 C 166.28956604 136.44451904 167.20680237 134.87205505 162.03190613 135.87074280 C 157.85102844 139.61750793 158.01214600 139.37689209 152.52113342 141.52203369 C 148.97288513 142.53410339 147.59175110 142.06340027 141.59706116 144.10334778 C 136.90773010 145.50431824 130.65618896 145.11625671 136.94567871 142.83164978 C 143.04827881 141.61541748 147.06369019 141.80496216 151.03099060 139.78715515" stroke-width="1.96238613" fill="rgb(6, 36, 77)" opacity="1.0" stroke="rgb(223, 255, 255)" stroke-opacity="0.30208328" stroke-linecap="round" stroke-linejoin="round"/>
  </g>
</svg>
