<?xml version="1.0" ?>
<svg xmlns="http://www.w3.org/2000/svg" version="1.1" width="256" height="256" viewBox="0 0 256 256">
  <defs/>
  <g>
    <path d="M -1.85749817 305.67346191 C -34.90641785 287.88800049 -63.46009827 259.64379883 -83.81111145 213.64355469 C -104.83030701 166.01187134 -105.55612183 120.97303009 -85.13320923 83.72039032 C -63.67207336 36.95363617 -36.59515381 0.92245483 -1.42961121 -27.75903320 C 31.84856415 -53.29330444 75.37042236 -76.05776978 128.84646606 -76.04096985 C 164.66300964 -75.81964111 205.20114136 -69.05728149 253.93948364 -40.09739685 C 294.81967163 -10.67338562 322.67022705 16.38127899 328.52719116 42.98685455 C 347.62860107 92.41563416 355.55163574 137.55285645 345.64553833 173.46139526 C 337.18273926 207.93319702 315.00405884 242.39987183 264.53991699 279.64398193 C 232.63323975 306.00085449 195.57728577 322.46551514 141.36273193 336.35632324 C 96.41914368 343.72833252 50.28427887 334.56738281 -1.85749817 305.67346191" stroke-width="0.80000001" fill="rgb(251, 255, 255)" opacity="1.0" stroke="rgb(0, 0, 0)" stroke-opacity="1.0" stroke-linecap="round" stroke-linejoin="round"/>
    <path d="M 209.79737854 170.66592407 C 196.29940796 191.23852539 193.99041748 194.25576782 171.97647095 211.14067078 C 147.67468262 222.49674988 144.65318298 225.68557739 117.21833038 222.38134766 C 89.56652832 215.22018433 89.79251862 214.07064819 66.45132446 195.55694580 C 44.80463409 170.06163025 44.20514679 170.50259399 37.31371307 144.13864136 C 36.94717407 118.66187286 39.79915619 113.19036102 50.68791199 86.97100830 C 58.94822693 68.75135040 61.16696930 56.10132599 79.03625488 45.77217865 C 94.70480347 37.54739380 104.95558167 31.18675232 130.32791138 41.34494781 C 144.93832397 44.89802551 167.48439026 53.69740295 183.52232361 67.32690430 C 196.50212097 87.77397156 203.10006714 96.97465515 216.10922241 113.70423126 C 222.24243164 132.53489685 215.88409424 153.74858093 209.79737854 170.66592407" stroke-width="0.00000000" fill="rgb(196, 155, 126)" opacity="1.0" stroke="rgb(255, 255, 255)" stroke-opacity="0.0" stroke-linecap="round" stroke-linejoin="round"/>
    <path d="M 202.04571533 127.20157623 C 180.05865479 126.95166779 169.45379639 133.96246338 156.20716858 124.85143280 C 153.99234009 110.87429047 138.85263062 96.25376129 122.29374695 106.25840759 C 107.69956207 116.28337097 101.17427826 133.01364136 86.30133820 127.88552856 C 71.80931091 124.94262695 50.05268097 136.13992310 54.29104614 123.13449860 C 56.56174469 105.64865875 65.19902802 84.96760559 73.43911743 77.75385284 C 94.47763062 59.99127579 88.19154358 64.83016968 107.22206116 57.88021469 C 126.24611664 61.87190247 135.29501343 70.73188782 143.68664551 55.27429581 C 156.63520813 42.37362671 165.69871521 44.72702026 183.65505981 59.96403122 C 193.66694641 65.08902740 205.21429443 83.02940369 210.54037476 95.84444427 C 217.60719299 115.29875183 218.31991577 127.66392517 202.04571533 127.20157623" stroke-width="2.00000000" fill="rgb(242, 172, 16)" opacity="1.0" stroke="rgb(127, 90, 44)" stroke-opacity="1.0" stroke-linecap="round" stroke-linejoin="round"/>
    <path d="M 152.47181702 130.93554688 C 148.52912903 132.35765076 143.99577332 130.66673279 139.03146362 130.85180664 C 133.85816956 130.68431091 129.54150391 133.95492554 125.87708282 130.31079102 C 123.07315826 126.86510468 120.79741669 121.93278503 116.01722717 120.96253204 C 109.45705414 119.39779663 106.94866943 121.72016144 102.71949768 125.14704132 C 101.63919067 121.87044525 104.64443207 115.55412292 106.85397339 112.74729156 C 112.80447388 105.87232971 110.94589233 107.93477631 116.08425903 104.60746765 C 123.92658997 102.36312866 122.30704498 102.13330841 130.90856934 102.00091553 C 135.24714661 102.60037231 139.15469360 104.00159454 144.08105469 107.61804962 C 148.91314697 111.36599731 149.76525879 112.97003937 151.91305542 118.12807465 C 153.60105896 124.03719330 155.44584656 127.40141296 152.47181702 130.93554688" stroke-width="1.67439377" fill="rgb(235, 55, 39)" opacity="1.0" stroke="rgb(14, 35, 62)" stroke-opacity="0.9956045" stroke-linecap="round" stroke-linejoin="round"/>
    <path d="M 148.01516724 187.85427856 C 144.25340271 191.00360107 143.40087891 190.56172180 137.68576050 192.72219849 C 134.80354309 193.12907410 130.67565918 193.90647888 126.25364685 193.69697571 C 123.65173340 193.60346985 119.29796600 192.87763977 115.13523865 190.99760437 C 112.29589844 189.84014893 109.30136871 187.06835938 109.08297729 182.23742676 C 108.53831482 179.02934265 107.97599030 174.32061768 111.18445587 172.50119019 C 115.19380951 170.24781799 116.48093414 168.66069031 119.31393433 166.98254395 C 123.76773834 165.21893311 126.57937622 165.35618591 130.42425537 165.35101318 C 133.66474915 165.43511963 136.77224731 166.05718994 141.17425537 169.28582764 C 144.91265869 173.14776611 146.44964600 172.50981140 149.27035522 177.05532837 C 150.52146912 180.16102600 150.33139038 185.30293274 148.01516724 187.85427856" stroke-width="2.00000000" fill="rgb(177, 96, 142)" opacity="1.0" stroke="rgb(17, 63, 142)" stroke-opacity="0.5591221" stroke-linecap="round" stroke-linejoin="round"/>
    <path d="M 132.07247925 70.75273895 C 131.50941467 77.19308472 131.37899780 79.00697327 131.36712646 87.26766968 C 131.11083984 92.14770508 131.53224182 100.49055481 124.04541779 100.23707581 C 119.35121155 94.32014465 121.03057098 90.19691467 119.35515594 83.16624451 C 118.80799103 77.36093140 118.52843475 73.55047607 116.35275269 65.45143127 C 115.56138611 59.76098251 110.35516357 53.68416214 105.77861786 51.25872040 C 98.90624237 45.87656403 99.39747620 43.95062256 106.92468262 42.63293076 C 113.18511963 41.24371338 116.10134125 38.39781189 122.99940491 36.52944946 C 128.68760681 37.22432709 134.84928894 35.30992126 139.85235596 39.28684998 C 144.24632263 43.72671509 140.77645874 48.59427261 136.18931580 54.72232819 C 129.12956238 59.99050903 131.52912903 63.32888794 132.07247925 70.75273895" stroke-width="1.94267821" fill="rgb(234, 74, 29)" opacity="1.0" stroke="rgb(69, 66, 59)" stroke-opacity="0.7730704" stroke-linecap="round" stroke-linejoin="round"/>
    <path d="M 149.15147400 63.69094849 C 146.55625916 65.77281189 140.30081177 66.11562347 136.92454529 66.42906189 C 137.87799072 70.81993866 137.88162231 78.98431396 134.73518372 73.53047943 C 135.63299561 66.21667480 132.83979797 64.77371216 128.24136353 64.19847870 C 124.37841034 63.43043137 120.60612488 61.70658112 117.05522919 57.56916046 C 111.84008789 54.82658005 111.61443329 47.75070953 112.38391876 44.71572876 C 118.37907410 37.34296799 116.63848877 39.43228912 122.64689636 37.20663452 C 129.18865967 35.88483429 132.78868103 36.92312622 136.71150208 38.53084946 C 143.53730774 41.28048706 147.46713257 42.27941513 151.13397217 42.30606842 C 159.09819031 45.21258545 160.55517578 43.30913544 159.78091431 51.66279602 C 157.70780945 55.66583633 154.79475403 59.27656174 149.15147400 63.69094849" stroke-width="1.74479878" fill="rgb(199, 117, 49)" opacity="1.0" stroke="rgb(93, 58, 42)" stroke-opacity="0.7680931" stroke-linecap="round" stroke-linejoin="round"/>
    <path d="M 139.14418030 82.39569855 C 137.89302063 86.92459106 138.01058960 87.37042999 136.38261414 92.80053711 C 135.03623962 96.71519470 134.39260864 99.16952515 130.25679016 100.62776184 C 128.77633667 98.14832306 130.32899475 93.17690277 130.42227173 89.74580383 C 131.03407288 85.04477692 131.18553162 82.17917633 131.40577698 78.37184906 C 131.77050781 74.89292908 131.56307983 71.94878387 131.66397095 67.04849243 C 132.21215820 62.15343475 133.69587708 61.12777710 135.37248230 58.58958435 C 137.50521851 54.49334717 138.91946411 51.57252884 142.98159790 52.43181610 C 147.41891479 53.76794434 146.48245239 57.93199921 146.03796387 60.87326431 C 144.75691223 64.56045532 143.32154846 67.72184753 142.58915710 71.23130035 C 141.14631653 74.67653656 140.14375305 78.55074310 139.14418030 82.39569855" stroke-width="0.47580224" fill="rgb(251, 194, 2)" opacity="1.0" stroke="rgb(246, 254, 153)" stroke-opacity="0.38539916" stroke-linecap="round" stroke-linejoin="round"/>
    <path d="M 124.58285522 83.43224335 C 124.75711060 85.07393646 125.18373108 90.37016296 125.43214417 93.68511200 C 126.47599792 98.81272888 124.08750153 101.80676270 120.36848450 99.69400024 C 118.20894623 96.20561218 118.24646759 91.66123199 117.39826965 89.06853485 C 116.31093597 83.67076111 115.95943451 82.53929138 114.53491974 77.39572906 C 113.46713257 73.34819031 112.50179291 70.92950439 111.01957703 65.96215820 C 109.68706512 61.15275192 109.50476837 60.20744324 108.36589050 56.24406433 C 105.82563782 50.89805603 112.11207581 51.15876007 115.20152283 51.73810577 C 118.22008514 54.53476715 119.36791229 57.86811066 121.29492950 59.95035172 C 123.63043976 64.63381958 124.65296936 67.03867340 124.16302490 70.48262024 C 123.99162292 75.31747437 123.88199615 79.47614288 124.58285522 83.43224335" stroke-width="0.53362495" fill="rgb(251, 195, 10)" opacity="1.0" stroke="rgb(255, 255, 142)" stroke-opacity="0.55880874" stroke-linecap="round" stroke-linejoin="round"/>
    <path d="M 105.52674866 68.88107300 C 104.90271759 67.27735901 103.09480286 62.95399857 102.02050781 59.84443283 C 101.24192810 55.71134567 105.28334808 55.22247696 109.15305328 54.93186951 C 111.87374115 57.82741547 111.14620209 61.10057831 112.20548248 64.34085846 C 112.86403656 67.33142853 113.66886902 70.73753357 114.54600525 74.41491699 C 115.72048950 78.81404114 115.89698029 80.24945068 117.22993469 84.81892395 C 118.35183716 89.66148376 118.27270508 90.32575226 119.23974609 93.21536255 C 121.63365173 97.26779175 120.45015717 101.64247131 116.79644012 98.60389709 C 114.96417999 93.79537964 115.25484467 93.05174255 113.15808105 88.77320862 C 112.18575287 85.69376373 110.80193329 82.53949738 109.81104279 79.23490143 C 108.19871521 75.84085083 107.12277222 72.78663635 105.52674866 68.88107300" stroke-width="0.23371848" fill="rgb(234, 58, 31)" opacity="1.0" stroke="rgb(255, 255, 0)" stroke-opacity="0.0" stroke-linecap="round" stroke-linejoin="round"/>
    <path d="M 144.79121399 83.25029755 C 144.05250549 84.67668915 143.14801025 87.93972778 141.72404480 91.56601715 C 140.68856812 94.53422546 139.38143921 99.25413513 136.63327026 99.94051361 C 135.16693115 97.22750854 137.17301941 92.46656799 137.43826294 90.28444672 C 138.73077393 85.08985138 138.77229309 85.03958893 140.08114624 79.82215118 C 140.82363892 77.11248779 141.31704712 74.19374084 142.39575195 69.85744476 C 143.66777039 65.10750580 143.62519836 64.46758270 144.62194824 61.04845047 C 145.29911804 56.21607971 146.08688354 54.10285950 150.73916626 55.55992889 C 155.61437988 56.45959473 154.40463257 59.55700684 153.04177856 62.99993134 C 151.32049561 66.66775513 150.09498596 69.32629395 149.29817200 72.22504425 C 147.75289917 75.72425842 146.68304443 78.26140594 144.79121399 83.25029755" stroke-width="0.29977384" fill="rgb(233, 55, 33)" opacity="1.0" stroke="rgb(255, 186, 0)" stroke-opacity="0.116908155" stroke-linecap="round" stroke-linejoin="round"/>
    <path d="M 75.42631531 91.11953735 C 72.03501892 88.25674438 70.90309143 88.50322723 67.02133179 85.23064423 C 65.69125366 82.05802917 69.92411041 79.10281372 71.78211975 78.45777893 C 75.27401733 79.71432495 77.94941711 84.00985718 80.00051117 85.34500885 C 83.54602814 88.66545105 84.16865540 89.30871582 87.78410339 92.49389648 C 90.81203461 95.27178955 92.45262146 96.55815887 95.73336792 99.40655518 C 99.98567200 103.27693939 99.74073029 103.48447418 102.48355103 105.80978394 C 107.34513855 108.46350861 104.46475983 111.82025909 100.47603607 108.96109772 C 97.66133881 107.04441833 95.60610962 104.99869537 92.37953949 103.01392365 C 89.63575745 100.92465973 86.70918274 99.15270996 83.86422729 96.99536133 C 81.17635345 95.33229828 78.80767059 93.54257202 75.42631531 91.11953735" stroke-width="0.22237340" fill="rgb(235, 57, 33)" opacity="1.0" stroke="rgb(255, 198, 24)" stroke-opacity="0.105830215" stroke-linecap="round" stroke-linejoin="round"/>
    <path d="M 100.55496979 116.22779846 C 100.36547089 116.16481018 99.98596954 116.05535889 99.70122528 116.03308868 C 99.32255554 115.92504120 99.05268097 115.99521637 98.79750061 115.92406464 C 98.81691742 115.73264313 99.06330872 115.50634003 99.27401733 115.27703094 C 99.54461670 114.95440674 99.83728790 114.92419434 99.94097900 114.83178711 C 100.18521118 114.67839050 100.53015137 114.60321045 100.72752380 114.61238861 C 101.30026245 114.62158203 101.18958282 114.67121887 101.51983643 114.54951477 C 101.85863495 114.31626892 102.15730286 114.49246979 102.21467590 114.87690735 C 102.23548126 115.37037659 102.16813660 115.32617188 101.98760986 115.71027374 C 101.87842560 116.02519226 101.75078583 116.31629181 101.54943848 116.41889191 C 101.26513672 116.53569031 101.09033203 116.32522583 100.55496979 116.22779846" stroke-width="1.11724401" fill="rgb(249, 204, 0)" opacity="1.0" stroke="rgb(254, 252, 28)" stroke-opacity="0.8931625" stroke-linecap="round" stroke-linejoin="round"/>
    <path d="M 88.53955078 77.75273132 C 86.01879120 74.08258057 85.00650024 73.53043365 82.31562805 69.96715546 C 81.37397003 66.25982666 85.90235138 64.19178772 88.79954529 64.37073517 C 91.42289734 66.19515228 92.56947327 70.34724426 94.61264801 73.15971375 C 97.21296692 77.61776733 97.15588379 77.51204681 99.97628784 82.19059753 C 101.95400238 85.51929474 102.88876343 87.09128571 105.60682678 91.25315094 C 108.04246521 95.36071777 108.18992615 96.10005951 110.11621857 98.64244843 C 113.89066315 101.94519043 111.64576721 105.83961487 107.71025085 102.10433960 C 104.91383362 98.05272675 104.66656494 97.36012268 101.51067352 93.89596558 C 99.27175140 90.80438995 97.62236786 88.98084259 95.08719635 85.79429626 C 93.04629517 83.52970123 91.22062683 80.96691132 88.53955078 77.75273132" stroke-width="0.23725089" fill="rgb(232, 56, 29)" opacity="1.0" stroke="rgb(255, 221, 12)" stroke-opacity="0.0" stroke-linecap="round" stroke-linejoin="round"/>
    <path d="M 163.49714661 82.64054108 C 160.99784851 86.02100372 158.63690186 88.75204468 156.64709473 91.83203125 C 153.07574463 95.91811371 151.39576721 97.95129395 148.75645447 101.81614685 C 145.13818359 106.42010498 143.96881104 103.12130737 146.48992920 98.01298523 C 149.50228882 93.17089844 149.99095154 92.58106232 153.51741028 86.69065857 C 155.63310242 83.16093445 156.34712219 81.21016693 159.60449219 76.08760834 C 163.48570251 71.07183838 163.07794189 71.22698975 165.07350159 67.15402985 C 167.58850098 62.17229843 165.89894104 59.80818176 170.63482666 56.62211227 C 175.49409485 56.98499298 179.75465393 59.60572052 179.96189880 63.56932831 C 178.31762695 67.47942352 174.78402710 67.93540192 171.54409790 72.61746979 C 169.06085205 75.37127686 166.47756958 78.64384460 163.49714661 82.64054108" stroke-width="0.20951515" fill="rgb(223, 72, 50)" opacity="1.0" stroke="rgb(255, 190, 21)" stroke-opacity="0.0" stroke-linecap="round" stroke-linejoin="round"/>
    <path d="M 64.46704865 107.33316040 C 61.83879471 105.78210449 59.05931854 106.16055298 56.13503647 103.43948364 C 56.56589890 99.37771606 59.49834442 96.13181305 62.41401672 97.68322754 C 66.16636658 98.85392761 68.82495880 100.92198944 72.25115967 102.39766693 C 77.03280640 104.72311401 76.80932617 104.70501709 81.94708252 106.93370819 C 84.79280090 108.35387421 87.34860992 109.56876373 91.23986053 111.10901642 C 95.93247986 113.39605713 96.30686951 113.62332153 99.67525482 114.77787018 C 101.89179993 117.97814178 98.58030701 118.70117950 93.66682434 117.06161499 C 91.39134216 116.20285034 88.75749969 115.06480408 84.75748444 113.79564667 C 81.33714294 112.73134613 78.15844727 111.80511475 74.57946014 110.38221741 C 71.14699554 109.25739288 68.89475250 108.75363922 64.46704865 107.33316040" stroke-width="0.00000000" fill="rgb(234, 58, 29)" opacity="1.0" stroke="rgb(255, 255, 0)" stroke-opacity="0.0" stroke-linecap="round" stroke-linejoin="round"/>
    <path d="M 161.74754333 112.77836609 C 165.52554321 111.67014313 168.31715393 109.57536316 172.52474976 107.69900513 C 177.35717773 105.05966949 178.59857178 104.76142883 183.35496521 102.56234741 C 187.13311768 100.95475006 190.27966309 98.89428711 194.17216492 97.18267822 C 197.91232300 95.95545959 201.23474121 92.08563995 204.54406738 94.94966125 C 206.26022339 98.27311707 208.75050354 103.45307922 202.19778442 103.85048676 C 196.54017639 105.46301270 197.04945374 105.15625000 192.79927063 106.85108185 C 187.95004272 108.20163727 186.90550232 108.73287964 180.82986450 110.74272156 C 176.76249695 112.07838440 174.76043701 112.58543396 169.28317261 114.28219604 C 165.18287659 115.72103119 162.54698181 117.32187653 158.01858521 118.49081421 C 153.59664917 116.92297363 157.35168457 114.22812653 161.74754333 112.77836609" stroke-width="0.00000000" fill="rgb(224, 69, 46)" opacity="1.0" stroke="rgb(255, 153, 51)" stroke-opacity="0.0067300005" stroke-linecap="round" stroke-linejoin="round"/>
    <path d="M 178.66276550 83.01866913 C 181.11570740 80.86534119 183.75524902 78.36334991 187.14776611 75.69743347 C 190.64805603 72.13301086 194.47674561 74.44978333 196.19357300 78.94412994 C 194.38909912 83.00975037 190.38937378 84.06530762 187.65689087 86.40786743 C 184.48612976 88.56649017 181.29089355 90.73267365 177.60234070 93.08042145 C 173.22358704 96.51370239 172.13491821 97.00656128 167.06558228 100.77568054 C 162.80392456 103.66531372 162.17045593 103.93601227 158.84582520 106.08010864 C 155.40983582 109.46235657 152.14886475 112.63587952 150.99119568 107.71607971 C 153.47247314 105.03330231 157.46716309 102.64208221 159.98350525 99.72821045 C 163.86347961 96.68364716 166.10241699 94.32649231 168.80471802 91.87860107 C 172.64916992 88.52893066 174.99821472 86.36393738 178.66276550 83.01866913" stroke-width="0.12808903" fill="rgb(221, 75, 48)" opacity="1.0" stroke="rgb(244, 74, 74)" stroke-opacity="0.18064637" stroke-linecap="round" stroke-linejoin="round"/>
    <path d="M 107.71932983 176.65121460 C 109.67327881 177.91259766 112.86788177 178.41275024 111.46395111 182.40469360 C 110.39105988 187.00024414 109.44649506 187.37834167 106.77854919 189.12307739 C 102.14300537 189.82501221 102.47003937 189.46185303 96.69161224 190.53065491 C 93.96540833 190.84843445 90.67556763 191.86056519 86.73293304 192.33641052 C 83.11472321 193.11955261 80.20038605 190.11083984 78.23323059 187.52725220 C 75.54518890 184.36781311 73.58244324 184.24769592 72.76016235 180.87425232 C 73.42317963 176.25793457 74.92098236 174.23562622 78.04479980 173.02772522 C 81.10798645 172.15388489 84.41543579 171.88053894 87.89593506 171.62931824 C 91.23732758 171.54240417 94.60862732 170.75314331 98.34871674 171.34825134 C 102.03466797 172.89938354 103.26425171 173.92541504 107.71932983 176.65121460" stroke-width="2.00000000" fill="rgb(53, 89, 81)" opacity="1.0" stroke="rgb(216, 229, 255)" stroke-opacity="0.60186654" stroke-linecap="round" stroke-linejoin="round"/>
    <path d="M 182.97412109 189.91841125 C 180.06869507 190.88572693 175.90457153 192.05201721 173.17430115 192.61581421 C 168.31060791 193.52136230 166.62854004 194.32252502 163.29960632 192.36396790 C 160.20568848 190.55828857 157.23429871 189.10295105 154.04141235 188.79681396 C 150.05560303 188.09541321 147.87916565 188.62541199 147.76113892 184.82611084 C 147.54852295 182.31825256 147.80906677 178.17686462 150.16513062 176.84309387 C 152.92282104 176.02061462 154.10751343 175.09446716 157.71847534 174.02502441 C 160.59883118 173.52218628 163.85281372 172.93554688 167.53549194 173.45472717 C 170.71789551 173.74702454 174.09376526 174.27609253 177.82231140 175.73670959 C 180.49467468 177.29345703 184.89271545 178.94430542 186.22003174 181.54400635 C 187.61534119 184.58154297 186.90115356 188.87564087 182.97412109 189.91841125" stroke-width="2.00000000" fill="rgb(72, 111, 92)" opacity="1.0" stroke="rgb(192, 139, 0)" stroke-opacity="0.27756777" stroke-linecap="round" stroke-linejoin="round"/>
    <path d="M 161.87371826 127.68682098 C 167.17935181 127.65938568 170.08662415 127.43598175 175.65008545 127.12288666 C 182.01437378 126.86707306 182.49191284 127.16954041 189.75672913 127.62565613 C 194.86961365 127.75337982 197.93302917 127.67324829 204.03547668 127.00550842 C 208.34465027 126.46622467 212.12188721 125.46282959 217.74798584 124.15584564 C 220.04434204 127.43807983 220.52577209 134.94281006 215.30638123 135.75131226 C 210.14611816 135.98954773 208.46438599 135.26084900 203.98590088 134.20330811 C 198.15960693 133.73416138 197.04011536 133.49688721 189.51559448 133.28872681 C 184.69952393 133.35365295 182.21006775 132.85937500 175.70701599 133.34141541 C 171.40910339 133.65173340 167.99755859 133.92916870 162.39726257 133.14115906 C 156.90267944 130.57397461 154.24058533 127.67430115 161.87371826 127.68682098" stroke-width="2.00000000" fill="rgb(93, 84, 80)" opacity="1.0" stroke="rgb(212, 175, 151)" stroke-opacity="0.17417139" stroke-linecap="round" stroke-linejoin="round"/>
    <path d="M 93.22642517 127.52207947 C 96.23233032 127.76048279 100.38346863 127.67124939 103.85758972 128.85226440 C 108.39891052 132.63229370 104.90834808 133.09419250 99.58534241 132.28031921 C 94.23969269 131.96154785 94.25312805 131.84352112 87.84762573 132.26261902 C 84.42944336 132.21563721 80.96144104 132.44355774 76.03884125 132.46858215 C 72.58776093 132.45716858 69.37475586 132.15653992 64.95188141 132.41531372 C 59.60820770 132.38003540 58.19620132 133.49429321 54.77017975 132.60968018 C 51.52972412 129.41703796 56.72953033 126.34151459 59.53302765 126.58840942 C 62.70339966 127.42208862 65.10317993 128.22563171 69.97411346 127.99604034 C 73.56585693 127.80794525 77.54641724 127.35904694 81.39949799 127.47821045 C 85.82862854 127.45078278 87.93091583 127.34796906 93.22642517 127.52207947" stroke-width="1.96905971" fill="rgb(17, 44, 82)" opacity="1.0" stroke="rgb(0, 142, 177)" stroke-opacity="0.14808539" stroke-linecap="round" stroke-linejoin="round"/>
    <path d="M 170.69120789 161.32540894 C 169.59324646 162.21897888 168.56071472 164.53387451 166.23785400 167.95504761 C 164.08360291 171.02253723 163.64532471 172.45686340 160.98611450 175.64523315 C 159.31715393 177.91503906 157.37928772 180.36303711 155.66859436 182.50941467 C 153.23651123 185.38731384 152.23445129 186.29315186 149.32847595 183.95318604 C 146.70127869 181.39877319 144.35900879 180.74693298 144.00761414 178.59147644 C 146.10116577 176.35887146 147.03744507 176.57397461 149.93426514 175.23880005 C 153.15550232 173.56520081 153.85884094 173.81047058 156.88261414 171.04751587 C 159.49977112 167.64114380 160.47309875 165.80848694 162.25071716 162.82107544 C 164.14767456 160.14294434 164.97756958 157.38398743 167.66175842 155.72045898 C 170.05665588 155.64128113 172.59732056 156.87504578 170.69120789 161.32540894" stroke-width="0.49634251" fill="rgb(26, 57, 93)" opacity="1.0" stroke="rgb(204, 255, 255)" stroke-opacity="0.27646622" stroke-linecap="round" stroke-linejoin="round"/>
    <path d="M 97.29498291 150.99626160 C 99.81646729 152.34886169 101.75480652 155.61874390 97.17414856 155.99003601 C 92.86067200 154.24760437 90.15864563 153.16316223 87.02189636 154.80010986 C 83.57140350 155.47653198 81.43106079 157.20602417 78.21731567 157.78729248 C 73.92346191 158.38386536 72.52256775 156.34562683 69.44958496 154.68812561 C 66.47619629 153.28454590 63.03416443 154.46253967 59.29929352 155.98266602 C 56.23441315 155.16484070 58.28865814 152.34310913 59.92398834 150.94532776 C 63.82488251 149.73480225 63.93836975 150.35169983 69.49183655 150.48237610 C 73.18747711 150.96369934 75.15606689 153.15364075 78.18986511 153.66860962 C 81.16537476 153.08006287 84.09870148 151.69189453 87.71389771 150.98550415 C 90.65351105 149.30667114 92.70880890 149.55294800 97.29498291 150.99626160" stroke-width="1.93933749" fill="rgb(6, 33, 84)" opacity="1.0" stroke="rgb(0, 36, 83)" stroke-opacity="0.9910291" stroke-linecap="round" stroke-linejoin="round"/>
    <path d="M 96.10168457 165.96873474 C 93.32423401 166.72123718 91.91847229 164.17808533 88.66282654 165.31072998 C 85.86479187 166.83575439 84.58951569 168.33688354 81.31916809 168.98429871 C 76.89179230 169.67994690 76.84973907 167.94000244 73.30108643 166.15591431 C 69.60926819 164.55587769 68.29748535 165.35417175 65.95676422 165.80897522 C 62.99607086 165.92465210 59.13371658 163.68186951 62.69192886 160.90353394 C 66.21123505 159.99223328 67.31445312 159.68595886 69.32994843 161.40519714 C 73.29419708 163.54939270 72.22288513 163.45346069 77.77363586 163.93185425 C 81.41944885 163.93397522 82.49581146 164.31491089 85.17830658 161.64627075 C 87.31640625 160.54281616 90.20780182 159.45249939 93.81286621 160.64073181 C 96.57600403 161.28137207 99.02188110 165.02781677 96.10168457 165.96873474" stroke-width="1.81473422" fill="rgb(4, 32, 84)" opacity="1.0" stroke="rgb(4, 39, 85)" stroke-opacity="0.9767128" stroke-linecap="round" stroke-linejoin="round"/>
    <path d="M 201.47784424 152.71612549 C 197.66780090 153.39579773 196.21250916 154.17343140 192.06024170 156.06784058 C 187.48507690 157.99822998 186.05900574 158.97937012 182.20980835 158.67787170 C 177.45393372 157.51879883 176.03752136 157.17745972 172.33506775 156.49848938 C 168.45916748 155.85546875 165.92315674 156.30049133 161.91212463 154.04801941 C 158.65711975 153.01458740 157.33714294 147.93168640 163.72787476 148.01385498 C 168.02236938 148.18463135 168.54284668 148.20185852 172.44248962 148.58712769 C 175.48822021 148.98223877 178.12496948 150.15773010 182.24282837 151.79664612 C 185.66703796 152.83869934 187.24476624 153.33360291 191.24417114 151.09304810 C 194.83708191 149.52322388 197.90097046 148.86889648 201.89480591 149.43255615 C 206.72946167 149.27037048 205.69248962 152.96411133 201.47784424 152.71612549" stroke-width="1.13136733" fill="rgb(19, 52, 88)" opacity="1.0" stroke="rgb(0, 60, 115)" stroke-opacity="0.79330397" stroke-linecap="round" stroke-linejoin="round"/>
    <path d="M 95.24551392 169.68211365 C 97.47408295 169.28724670 101.30622864 171.20635986 100.80335236 174.07122803 C 98.17056274 176.53102112 95.64110565 174.18687439 92.84811401 173.99150085 C 88.63964844 173.99613953 87.38076782 174.74818420 84.64220428 176.09098816 C 80.66484070 177.58581543 80.17820740 178.11175537 76.56764984 180.28955078 C 72.63491821 181.77206421 71.86795044 179.18836975 70.12007904 177.01582336 C 67.44091797 173.16410828 68.12138367 173.85980225 64.87001038 171.34269714 C 65.25497437 169.95889282 68.44804382 169.87553406 71.24638367 170.35762024 C 73.75884247 171.77905273 75.77904510 173.81575012 78.72842407 174.11631775 C 82.21611023 174.51776123 84.26431274 172.86677551 86.60938263 172.09156799 C 88.94360352 170.98789978 91.95104980 169.80969238 95.24551392 169.68211365" stroke-width="1.07994521" fill="rgb(5, 35, 87)" opacity="1.0" stroke="rgb(30, 63, 91)" stroke-opacity="0.875663" stroke-linecap="round" stroke-linejoin="round"/>
    <path d="M 95.79014587 144.90449524 C 93.44029236 144.37596130 89.45781708 143.87321472 86.09674835 145.17247009 C 83.21887970 146.80836487 81.67024994 148.18077087 76.59885406 147.14155579 C 72.20373535 145.90148926 71.56495667 144.16879272 66.78378296 144.00726318 C 62.85808945 144.06126404 60.62999725 145.76026917 57.80965424 146.77822876 C 53.77203369 145.96191406 52.42726135 140.44213867 57.30604172 142.84136963 C 61.56295013 143.62449646 62.00777817 145.28305054 65.83549500 144.16127014 C 70.20694733 142.34565735 69.81083679 141.69589233 75.68049622 142.15151978 C 80.01556396 143.06242371 81.39633942 145.73255920 86.46125793 143.54789734 C 89.59413147 142.04124451 93.06215668 141.02984619 97.46682739 140.49075317 C 102.07817078 140.16630554 102.71581268 146.30027771 95.79014587 144.90449524" stroke-width="1.45357931" fill="rgb(4, 40, 86)" opacity="1.0" stroke="rgb(0, 30, 77)" stroke-opacity="1.0" stroke-linecap="round" stroke-linejoin="round"/>
    <path d="M 71.86743164 134.70771790 C 75.62071991 134.93492126 76.45851898 135.68431091 80.44220734 136.58914185 C 85.06031799 136.85414124 86.15634155 137.55081177 91.79852295 135.02027893 C 96.49288177 133.74900818 99.53894043 131.57801819 101.80475616 135.33045959 C 98.72013092 138.62326050 96.59736633 136.72372437 90.14392853 137.31983948 C 86.73188782 137.85031128 85.18341064 139.71528625 79.63976288 138.42744446 C 74.55979919 137.35673523 73.76801300 135.13197327 70.28225708 136.64002991 C 65.87973785 138.84664917 64.81150055 139.73437500 60.26992798 138.52561951 C 57.46375275 137.16685486 57.36611557 137.12855530 54.07558441 136.39297485 C 51.38886261 132.51464844 58.68075180 136.98205566 62.28187561 137.18582153 C 67.41117859 137.16546631 67.86500549 136.62655640 71.86743164 134.70771790" stroke-width="1.71841037" fill="rgb(0, 44, 85)" opacity="1.0" stroke="rgb(10, 36, 84)" stroke-opacity="1.0" stroke-linecap="round" stroke-linejoin="round"/>
    <path d="M 202.17504883 144.73686218 C 198.36592102 144.42568970 197.15977478 144.53022766 192.20169067 146.22375488 C 188.60350037 147.64405823 187.19410706 149.21800232 183.14935303 147.73464966 C 179.70726013 146.05323792 177.51051331 144.94937134 174.34614563 145.19865417 C 169.38569641 145.70686340 167.66635132 146.92109680 164.26239014 146.99874878 C 160.54728699 146.03570557 158.99340820 141.27882385 165.12483215 142.48306274 C 169.32908630 142.21134949 170.21696472 143.08822632 173.75590515 141.94572449 C 177.73802185 141.38182068 178.75114441 141.55413818 183.90899658 142.14381409 C 187.80784607 142.56076050 188.69374084 144.27995300 192.89683533 142.86856079 C 196.06324768 141.63647461 199.18644714 141.14262390 202.66296387 142.26518250 C 205.99983215 143.28988647 207.12748718 145.83082581 202.17504883 144.73686218" stroke-width="1.07549405" fill="rgb(7, 42, 89)" opacity="1.0" stroke="rgb(11, 59, 131)" stroke-opacity="0.75389725" stroke-linecap="round" stroke-linejoin="round"/>
    <path d="M 193.03381348 171.27622986 C 189.77883911 172.17704773 188.72909546 173.11645508 186.18257141 176.18930054 C 184.25634766 179.12232971 181.46553040 178.99186707 178.69543457 178.06811523 C 175.04409790 177.00094604 173.56123352 175.94566345 170.64804077 175.07260132 C 166.69270325 174.01168823 164.99130249 173.75396729 161.76762390 175.35250854 C 158.11711121 176.10826111 159.90293884 174.42144775 163.77276611 172.29232788 C 166.76519775 170.89059448 168.22074890 170.79368591 170.33229065 170.23739624 C 174.35569763 171.71600342 173.28782654 172.29019165 177.60359192 173.85078430 C 180.76683044 174.85894775 182.91941833 174.80538940 185.88456726 172.56826782 C 188.79310608 171.10769653 191.36993408 171.15209961 194.62666321 171.81944275 C 199.48223877 172.76614380 196.44824219 170.98822021 193.03381348 171.27622986" stroke-width="1.43623710" fill="rgb(5, 35, 85)" opacity="1.0" stroke="rgb(0, 19, 83)" stroke-opacity="0.6471947" stroke-linecap="round" stroke-linejoin="round"/>
    <path d="M 167.29911804 136.15550232 C 171.16835022 136.01916504 171.49819946 136.03427124 176.51272583 135.16644287 C 180.22100830 133.89736938 182.17288208 133.13136292 185.10614014 135.16748047 C 188.11421204 136.76927185 190.49368286 136.08520508 193.99067688 135.52943420 C 197.29579163 135.01467896 199.08326721 133.62005615 203.97738647 134.50384521 C 208.94122314 136.03601074 203.26257324 136.96485901 200.61569214 137.19006348 C 195.85563660 138.36802673 195.71551514 137.95994568 192.39167786 139.95254517 C 187.96031189 140.87161255 188.61145020 139.37600708 183.75450134 137.86148071 C 180.50173950 137.32826233 179.67872620 136.64105225 174.69764709 138.80871582 C 172.32040405 139.87825012 168.86318970 140.91281128 164.71514893 141.34858704 C 160.86099243 139.78576660 162.88395691 136.41842651 167.29911804 136.15550232" stroke-width="0.89699024" fill="rgb(6, 35, 86)" opacity="1.0" stroke="rgb(32, 67, 108)" stroke-opacity="1.0" stroke-linecap="round" stroke-linejoin="round"/>
    <path d="M 133.39616394 201.29397583 C 131.98870850 202.29585266 131.81874084 202.33894348 129.95092773 202.06808472 C 128.09913635 201.28080750 128.08264160 201.21461487 126.80709839 199.62547302 C 126.20398712 198.63447571 125.78707123 197.83297729 126.29511261 195.95431519 C 127.26385498 194.50282288 127.62538147 194.55648804 129.22731018 193.28375244 C 130.21768188 192.59094238 130.83872986 192.13687134 132.31542969 190.94088745 C 134.15391541 189.74061584 133.45364380 189.79580688 135.16047668 189.32730103 C 136.73133850 189.44190979 137.84693909 189.22200012 138.25080872 190.59509277 C 138.36715698 192.22996521 137.99159241 193.36067200 137.56176758 194.29379272 C 136.90411377 195.85420227 136.57656860 196.63627625 135.80555725 197.91213989 C 135.12358093 198.93792725 134.10443115 200.43670654 133.39616394 201.29397583" stroke-width="0.91634351" fill="rgb(21, 52, 97)" opacity="1.0" stroke="rgb(0, 74, 189)" stroke-opacity="0.018968478" stroke-linecap="round" stroke-linejoin="round"/>
    <path d="M 196.60684204 162.46813965 C 194.04058838 163.32427979 193.93179321 164.85533142 191.29655457 166.69256592 C 188.59408569 167.56292725 185.84921265 166.66047668 183.52516174 168.00614929 C 180.10614014 169.28443909 178.10137939 168.39474487 175.82904053 167.02651978 C 172.23458862 165.24574280 171.48645020 165.01712036 168.05697632 164.95159912 C 166.55957031 163.36135864 168.05934143 162.30763245 171.74330139 160.88221741 C 174.93264771 160.42034912 175.38668823 160.80067444 177.98985291 161.97804260 C 180.42793274 163.05538940 181.71900940 163.81494141 185.52543640 163.70857239 C 188.15074158 163.37919617 189.31712341 162.25717163 192.16937256 160.86314392 C 195.18154907 160.23919678 197.30477905 160.37144470 200.32687378 161.79179382 C 203.84652710 164.16220093 198.75364685 163.44720459 196.60684204 162.46813965" stroke-width="1.69886541" fill="rgb(9, 45, 87)" opacity="1.0" stroke="rgb(0, 39, 88)" stroke-opacity="0.8103088" stroke-linecap="round" stroke-linejoin="round"/>
    <path d="M 146.89839172 206.89537048 C 144.23806763 206.92001343 141.88296509 208.30834961 137.85467529 208.62065125 C 135.05293274 209.35029602 131.50074768 209.40315247 127.84745026 209.36726379 C 123.66697693 210.72879028 123.49515533 207.00122070 120.93634796 204.58412170 C 118.29119873 202.64294434 113.77212524 202.76136780 109.99256897 203.26445007 C 110.05117035 201.37992859 111.96986389 202.92405701 116.40944672 203.39447021 C 120.91564941 204.13203430 121.43675232 205.05860901 123.82330322 206.20283508 C 127.72386932 207.36375427 128.76292419 207.12231445 133.46601868 206.44734192 C 138.36358643 205.82362366 138.34320068 206.34043884 142.94461060 205.26266479 C 148.04858398 204.45227051 148.83410645 203.32133484 153.28335571 202.67443848 C 156.53747559 205.12944031 151.41583252 206.04946899 146.89839172 206.89537048" stroke-width="2.00000000" fill="rgb(231, 238, 242)" opacity="1.0" stroke="rgb(5, 31, 75)" stroke-opacity="0.8690478" stroke-linecap="round" stroke-linejoin="round"/>
    <path d="M 165.73957825 210.46864319 C 162.59350586 212.10885620 159.76606750 211.85935974 157.94674683 208.83943176 C 156.06570435 206.00424194 156.81484985 204.06292725 153.58702087 200.92822266 C 150.32144165 199.27841187 149.66059875 199.90992737 145.62823486 201.27473450 C 141.95275879 202.00181580 140.64033508 202.25239563 136.45025635 203.97021484 C 133.00923157 204.25524902 133.59603882 200.90588379 137.02532959 199.70989990 C 140.58601379 198.42269897 142.47518921 198.53990173 144.32534790 198.91857910 C 148.56285095 199.86412048 148.48394775 199.60383606 153.34979248 200.77429199 C 157.09352112 201.69845581 158.26097107 202.85162354 161.57383728 204.28286743 C 164.37907410 205.21983337 165.97668457 205.91261292 169.30712891 206.00262451 C 171.88896179 207.36206055 168.04382324 209.04370117 165.73957825 210.46864319" stroke-width="1.77563357" fill="rgb(158, 97, 59)" opacity="1.0" stroke="rgb(0, 0, 37)" stroke-opacity="0.58187324" stroke-linecap="round" stroke-linejoin="round"/>
    <path d="M 123.66928101 200.12495422 C 121.03947449 199.06277466 120.96929932 198.51707458 117.71795654 198.30242920 C 115.29667664 198.33082581 113.64057159 198.93516541 111.95213318 200.73303223 C 109.93401337 203.28338623 108.10094452 203.77481079 105.98200226 202.06323242 C 103.85098267 200.60165405 101.62185669 200.37896729 99.32872772 200.27130127 C 96.78172302 198.35331726 99.83559418 199.08418274 102.48419952 199.11990356 C 105.30292511 198.93287659 106.32881165 199.47608948 108.46450806 198.57102966 C 111.45119476 197.22177124 111.09098816 197.28845215 114.95019531 197.03277588 C 117.17956543 197.21061707 118.30413818 197.70294189 121.55247498 196.55320740 C 123.30052185 196.42767334 126.09751129 195.98614502 127.96229553 198.32061768 C 129.07014465 201.30082703 125.84169769 201.85543823 123.66928101 200.12495422" stroke-width="1.15919971" fill="rgb(7, 35, 87)" opacity="1.0" stroke="rgb(0, 30, 79)" stroke-opacity="0.8620698" stroke-linecap="round" stroke-linejoin="round"/>
    <path d="M 144.23539734 188.73382568 C 145.53710938 188.11482239 146.61184692 187.92398071 147.89309692 187.29898071 C 149.49423218 186.92312622 149.97879028 186.45692444 151.61959839 186.72605896 C 152.44598389 187.08668518 153.47752380 188.03361511 154.57960510 189.17620850 C 155.33676147 190.20446777 156.81747437 191.21464539 156.39953613 192.21345520 C 154.48435974 192.98353577 154.31434631 192.88644409 152.33406067 193.12187195 C 150.45201111 193.28497314 150.61213684 193.41320801 149.03253174 193.69500732 C 147.93103027 193.79302979 147.02249146 194.18557739 145.60952759 194.56874084 C 144.14732361 194.00700378 143.55499268 193.66496277 142.12812805 193.19927979 C 140.81326294 192.38641357 139.57873535 191.91529846 140.60290527 190.69566345 C 142.15463257 189.83016968 142.83654785 189.49864197 144.23539734 188.73382568" stroke-width="0.94765526" fill="rgb(3, 35, 80)" opacity="1.0" stroke="rgb(0, 29, 86)" stroke-opacity="0.84851706" stroke-linecap="round" stroke-linejoin="round"/>
    <path d="M 124.36152649 193.83723450 C 123.41909790 194.40008545 123.29785156 194.40928650 121.93551636 194.60983276 C 120.74969482 194.62597656 120.46813202 194.56118774 119.23643494 194.30465698 C 118.38784027 194.14103699 117.68900299 194.06965637 116.57133484 193.79927063 C 115.71911621 193.61068726 114.63874817 193.49761963 113.98274231 192.86126709 C 114.34539795 191.75952148 114.54251099 191.75146484 115.59677124 190.74156189 C 116.79910278 190.08634949 116.54341125 190.06045532 117.56243134 189.78771973 C 118.67086029 189.74133301 119.20861816 189.38734436 120.17357635 189.24134827 C 121.02536774 189.40206909 121.48045349 189.34632874 122.70420837 189.77384949 C 123.77767944 190.44677734 123.88041687 190.43582153 124.85246277 191.49229431 C 125.33967590 192.60899353 125.24835968 192.91040039 124.36152649 193.83723450" stroke-width="0.27249402" fill="rgb(4, 29, 78)" opacity="1.0" stroke="rgb(0, 82, 189)" stroke-opacity="0.0" stroke-linecap="round" stroke-linejoin="round"/>
    <path d="M 149.74589539 192.31779480 C 151.55740356 191.31446838 153.32391357 190.99851990 155.45863342 191.07196045 C 157.78385925 191.45405579 159.39195251 191.98083496 161.50070190 192.38423157 C 163.83912659 193.00318909 165.63723755 193.50733948 167.46105957 194.16343689 C 170.21217346 194.98928833 171.13659668 194.88626099 173.97715759 195.27745056 C 173.57022095 196.74346924 171.88914490 196.84504700 169.92367554 199.18568420 C 168.37738037 200.37995911 166.85913086 201.23861694 165.50540161 200.54190063 C 161.93153381 199.49678040 163.00854492 199.72547913 159.10313416 199.28724670 C 156.82186890 198.89987183 155.26263428 198.21984863 153.25808716 197.76545715 C 151.70080566 197.40859985 149.37594604 197.14128113 147.11456299 196.42610168 C 145.13829041 195.01841736 148.73585510 193.04116821 149.74589539 192.31779480" stroke-width="1.94625521" fill="rgb(56, 79, 109)" opacity="1.0" stroke="rgb(173, 157, 153)" stroke-opacity="0.60258806" stroke-linecap="round" stroke-linejoin="round"/>
    <path d="M 114.67866516 191.83102417 C 113.67602539 192.35345459 111.78079224 192.49807739 109.84603882 193.28622437 C 107.81699371 193.77033997 105.99391174 194.52194214 104.14673615 195.11802673 C 102.08723450 195.81985474 100.61920166 196.80456543 99.09586334 197.55499268 C 96.83404541 198.77976990 95.73457336 198.26214600 93.85466766 196.80812073 C 93.01296997 196.04370117 89.43251038 194.56817627 90.09410095 194.10215759 C 92.96523285 193.48077393 92.36885071 194.32257080 94.60894775 194.16319275 C 97.23958588 193.10813904 97.34449768 192.66200256 100.07984161 192.29290771 C 102.87422180 191.92851257 102.92166901 192.03121948 105.27419281 190.34515381 C 107.02687073 188.56947327 108.33178711 187.94877625 110.39798737 189.00349426 C 113.14956665 190.45584106 113.45975494 190.15437317 114.67866516 191.83102417" stroke-width="1.19305229" fill="rgb(11, 39, 85)" opacity="1.0" stroke="rgb(0, 31, 89)" stroke-opacity="0.8832956" stroke-linecap="round" stroke-linejoin="round"/>
    <path d="M 106.58179474 146.38589478 C 105.29376221 147.64469910 104.91897583 148.37454224 103.16632843 149.79829407 C 102.17051697 150.53332520 99.62277222 152.20799255 99.01995850 150.12741089 C 98.57955933 148.80201721 99.39862061 147.37187195 100.64371490 145.50390625 C 101.68489838 143.68008423 102.71944427 142.43966675 103.89331818 141.09062195 C 105.06253815 139.59655762 105.85153198 138.78753662 106.56869507 136.58203125 C 107.44531250 135.16635132 107.59767151 133.56477356 108.74242401 133.47103882 C 110.15277863 133.98127747 112.10218048 133.49214172 113.95568085 133.76705933 C 115.63621521 134.40266418 114.65319824 136.32954407 113.88177490 137.86662292 C 112.72200012 139.61215210 111.81649017 140.71609497 110.71945190 141.92863464 C 109.28395081 143.40702820 107.83988953 144.80152893 106.58179474 146.38589478" stroke-width="1.36043346" fill="rgb(11, 40, 87)" opacity="1.0" stroke="rgb(7, 38, 83)" stroke-opacity="0.87600255" stroke-linecap="round" stroke-linejoin="round"/>
    <path d="M 155.55007935 132.98777771 C 153.58419800 132.09884644 152.38192749 130.57240295 148.08250427 132.12855530 C 145.81718445 133.39273071 143.97456360 135.94596863 140.37870789 136.50965881 C 137.62701416 137.31002808 135.05909729 138.14848328 132.21752930 139.45616150 C 129.76182556 140.44380188 127.45532227 142.67646790 123.78117371 140.05041504 C 122.36938477 138.84884644 120.69134521 134.33813477 124.97240448 132.33677673 C 127.80162048 130.93202209 128.85050964 131.06108093 131.78677368 129.96896362 C 134.55525208 129.39860535 136.37567139 128.62696838 140.59455872 127.86198425 C 143.23315430 127.22282410 145.24020386 128.61521912 148.71405029 128.42674255 C 152.55857849 128.51821899 153.40866089 127.39370728 157.52017212 129.61526489 C 160.22412109 132.39288330 160.81410217 135.96368408 155.55007935 132.98777771" stroke-width="1.96914816" fill="rgb(19, 46, 88)" opacity="1.0" stroke="rgb(0, 43, 127)" stroke-opacity="0.5651621" stroke-linecap="round" stroke-linejoin="round"/>
    <path d="M 136.22160339 46.77192688 C 136.88882446 45.38710403 136.83943176 45.49490738 137.67662048 43.82779312 C 137.98944092 43.08517838 138.83638000 41.74215317 139.76385498 41.24616623 C 140.47354126 42.22103882 140.31149292 42.51622009 140.26370239 44.09352493 C 140.15811157 45.52000427 139.84220886 46.72032547 140.01538086 47.33429718 C 139.92236328 48.28996658 139.04978943 49.30689621 138.30920410 49.86085129 C 136.89556885 51.37756729 136.90965271 51.08538437 136.40516663 52.17428207 C 136.08929443 53.24889755 135.80947876 54.55857849 134.82530212 55.19070435 C 133.61819458 56.06364441 134.59368896 54.42350769 134.25602722 53.07938004 C 134.04940796 51.86474991 133.69985962 51.41711807 134.14871216 50.04701614 C 134.96386719 49.08945847 135.62008667 48.27381134 136.22160339 46.77192688" stroke-width="1.88621974" fill="rgb(214, 125, 46)" opacity="1.0" stroke="rgb(16, 37, 59)" stroke-opacity="0.5718068" stroke-linecap="round" stroke-linejoin="round"/>
    <path d="M 152.68217468 136.05438232 C 153.60289001 135.48211670 154.33757019 135.19926453 155.23365784 134.78459167 C 156.73388672 134.18385315 157.11419678 134.02577209 158.24943542 133.70118713 C 159.30659485 133.48826599 160.46133423 133.27760315 161.39605713 133.20332336 C 162.82592773 133.14607239 163.63838196 133.11645508 164.51443481 133.51860046 C 165.42987061 134.41600037 164.04066467 135.44233704 162.89619446 135.36558533 C 161.56393433 135.42477417 161.67106628 135.36550903 160.31198120 135.59420776 C 159.42948914 135.89877319 158.53074646 135.79684448 157.46795654 136.77032471 C 156.65150452 137.54103088 156.32928467 137.81295776 154.88081360 138.51124573 C 153.71672058 138.87013245 153.34817505 139.33187866 151.96244812 138.68139648 C 151.13127136 137.59843445 151.80482483 136.99554443 152.68217468 136.05438232" stroke-width="2.00000000" fill="rgb(9, 30, 73)" opacity="1.0" stroke="rgb(65, 93, 122)" stroke-opacity="1.0" stroke-linecap="round" stroke-linejoin="round"/>
  </g>
</svg>
