<?xml version="1.0" ?>
<svg xmlns="http://www.w3.org/2000/svg" version="1.1" width="256" height="256" viewBox="0 0 256 256">
  <defs/>
  <g>
    <path d="M -21.80506897 338.13464355 C -49.46517944 320.44982910 -88.89324951 281.58822632 -112.69369507 223.62658691 C -131.43998718 179.43925476 -141.37184143 112.45424652 -123.07948303 66.20217896 C -109.03968811 13.32508850 -79.21916199 -39.33734131 -32.59811401 -75.40980530 C -1.38595581 -99.78927612 49.60282135 -128.79818726 122.64086151 -132.41567993 C 157.10198975 -131.75524902 220.52108765 -119.84361267 272.84301758 -82.78688049 C 321.69052124 -42.86164856 345.55432129 -18.31871033 362.15301514 24.26766968 C 384.47991943 99.85070801 393.46679688 127.90209961 379.22402954 187.98559570 C 357.73089600 254.70188904 357.28955078 264.71801758 297.88867188 323.11065674 C 237.40115356 364.38989258 225.68518066 376.48730469 143.61726379 392.93200684 C 88.09426880 396.53137207 48.92077637 375.45223999 -21.80506897 338.13464355" stroke-width="0.80000001" fill="rgb(255, 255, 255)" opacity="1.0" stroke="rgb(0, 0, 0)" stroke-opacity="1.0" stroke-linecap="round" stroke-linejoin="round"/>
    <path d="M 242.22436523 183.55339050 C 233.80160522 199.02757263 224.95069885 213.15219116 191.58432007 236.03421021 C 171.51222229 247.54560852 153.38711548 256.23266602 115.71570587 253.35279846 C 92.25961304 250.23034668 75.42660522 245.13439941 44.94463348 221.80932617 C 26.64293671 203.56610107 14.63189697 192.68571472 3.66778564 153.13084412 C 0.96948242 136.32003784 2.44635010 104.51203918 14.86777496 77.88258362 C 28.66043091 50.64664459 38.84281158 37.91551971 59.43781281 25.53833008 C 91.88096619 8.21534729 104.48265839 0.03112030 134.27372742 4.05152130 C 154.89703369 5.61573792 191.93472290 14.83044434 208.65325928 29.00455475 C 232.74754333 58.01850128 238.57473755 66.92108154 249.48738098 95.43629456 C 257.42422485 133.88636780 258.15502930 133.12881470 242.22436523 183.55339050" stroke-width="0.80000001" fill="rgb(255, 255, 255)" opacity="1.0" stroke="rgb(0, 0, 0)" stroke-opacity="1.0" stroke-linecap="round" stroke-linejoin="round"/>
    <path d="M 194.88963318 130.57315063 C 173.94377136 129.75625610 164.09303284 132.91703796 154.14260864 120.08097839 C 151.88862610 107.14582062 135.70323181 96.29306030 119.93801880 105.42275238 C 105.41125488 113.60511780 100.41738892 132.47593689 87.24127197 130.03123474 C 74.09384155 128.45285034 55.35217285 134.77299500 54.45316315 120.28296661 C 53.20350647 102.97109985 64.80503082 86.03973389 73.71154785 78.42556000 C 93.57353210 61.24943542 86.87824249 65.36264038 104.89670563 56.52680206 C 121.23278809 55.55028915 131.45385742 70.27203369 140.44525146 57.10456848 C 152.68807983 49.52595901 162.46884155 57.82503128 175.77064514 67.06639862 C 189.23649597 74.36820984 198.89196777 85.93385315 203.91127014 100.99072266 C 210.02595520 118.09205627 210.78067017 133.12135315 194.88963318 130.57315063" stroke-width="0.80000001" fill="rgb(252, 181, 3)" opacity="1.0" stroke="rgb(0, 0, 0)" stroke-opacity="1.0" stroke-linecap="round" stroke-linejoin="round"/>
    <path d="M 156.30491638 130.35385132 C 152.96311951 131.23945618 146.48147583 130.26106262 142.28114319 130.20697021 C 137.33642578 129.83328247 132.70498657 132.06201172 128.26228333 130.08813477 C 124.26713562 128.30880737 121.77844238 124.17649078 116.68154144 123.72408295 C 110.85968018 123.10768890 108.34510040 126.59608459 104.29798889 128.28668213 C 103.64324951 123.75372314 106.23873901 118.72856140 109.05907440 114.67725372 C 114.85760498 108.41181946 113.15132141 110.08299255 118.01653290 106.68678284 C 124.56814575 104.30113220 126.57527924 103.84403992 133.28224182 103.44733429 C 138.09484863 104.05637360 140.66940308 104.96224213 146.39007568 108.14594269 C 150.59240723 110.87397766 153.00326538 113.62684631 155.48352051 118.57456970 C 157.34173584 121.60851288 161.88359070 129.22607422 156.30491638 130.35385132" stroke-width="0.80000001" fill="rgb(238, 55, 36)" opacity="1.0" stroke="rgb(0, 0, 0)" stroke-opacity="1.0" stroke-linecap="round" stroke-linejoin="round"/>
    <path d="M 149.51319885 189.86503601 C 146.00534058 193.30957031 145.43336487 192.96711731 139.80279541 195.03894043 C 136.66166687 195.36097717 132.40734863 196.09425354 128.50704956 195.94325256 C 125.56777954 195.85813904 121.02421570 195.28279114 117.14579010 193.83357239 C 114.06495667 192.65830994 111.21470642 190.12904358 111.11703491 184.86372375 C 110.80162048 182.71777344 110.10832977 177.41235352 113.21022034 175.13031006 C 116.70967102 172.79048157 118.53468323 171.46887207 121.46498108 170.14556885 C 126.27857971 168.71025085 127.92678070 168.26470947 132.60511780 168.36869812 C 136.09436035 168.51658630 138.60131836 168.46041870 143.41801453 171.16462708 C 147.63589478 174.40081787 150.47038269 174.17247009 150.92280579 178.83413696 C 151.54524231 182.62232971 151.25347900 186.08755493 149.51319885 189.86503601" stroke-width="0.80000001" fill="rgb(244, 125, 171)" opacity="1.0" stroke="rgb(0, 0, 0)" stroke-opacity="1.0" stroke-linecap="round" stroke-linejoin="round"/>
    <path d="M 134.79109192 73.54219818 C 134.26004028 79.53497314 133.49459839 83.19538116 133.28999329 89.17401886 C 132.64598083 95.48593140 133.80355835 101.49411774 128.89489746 98.59165192 C 128.05239868 92.79369354 128.80230713 85.87474060 128.18333435 82.26846313 C 127.72331238 74.73286438 127.95130157 73.50835419 126.63237762 65.01836395 C 126.16406250 60.83726501 123.02381134 58.15734482 118.77348328 51.05040741 C 117.37065887 46.04631805 116.97699738 43.82978439 119.45549774 38.76617432 C 122.68321228 34.52188492 129.70022583 37.17320251 134.63044739 36.02448654 C 140.74890137 35.94710541 143.42907715 40.38245392 144.28793335 45.22978592 C 144.52169800 50.61866379 141.41329956 55.15572357 138.18003845 58.92275238 C 133.71224976 62.25487137 134.67367554 67.24652863 134.79109192 73.54219818" stroke-width="0.80000001" fill="rgb(239, 56, 33)" opacity="1.0" stroke="rgb(0, 0, 0)" stroke-opacity="1.0" stroke-linecap="round" stroke-linejoin="round"/>
    <path d="M 139.82901001 57.37420654 C 138.43258667 60.06139755 134.73947144 62.08393097 132.69386292 63.32224655 C 132.09896851 65.82019043 132.58093262 71.47107697 130.15406799 69.67924500 C 129.54159546 64.94839478 129.29046631 63.65059662 126.44190216 61.94216156 C 123.48529816 59.85717010 122.35148621 56.69931793 120.39337158 53.94830322 C 117.94590759 51.11988449 117.14302063 47.01088715 116.83458710 44.39992905 C 119.22155762 38.75770569 118.40969849 39.85538483 121.85565948 37.90372086 C 126.48939514 36.30218506 128.37930298 35.87368011 132.83396912 35.80685425 C 136.54467773 36.17976761 138.29647827 35.96850586 142.50802612 38.46942520 C 146.07591248 41.84958649 145.51504517 42.72448349 144.65692139 47.60771179 C 143.00828552 51.48552322 142.51489258 53.52043915 139.82901001 57.37420654" stroke-width="0.80000001" fill="rgb(248, 138, 33)" opacity="1.0" stroke="rgb(0, 0, 0)" stroke-opacity="1.0" stroke-linecap="round" stroke-linejoin="round"/>
    <path d="M 142.52204895 84.28900146 C 141.30871582 88.94360352 141.44549561 89.33089447 139.98571777 94.79885864 C 139.21093750 98.35384369 138.45254517 102.03123474 134.69401550 102.02383423 C 132.24353027 98.84246826 133.32716370 94.27992249 133.43063354 91.48876953 C 133.97482300 86.35343933 134.18524170 84.50151062 134.38519287 80.12488556 C 134.66828918 76.12119293 134.60096741 74.19260406 134.65678406 68.86667633 C 135.06225586 64.86219025 135.84165955 62.95646667 137.65502930 60.38909912 C 139.99327087 56.91458893 142.08985901 53.97277832 145.95129395 54.47657776 C 150.00765991 54.98477173 148.36398315 59.40971375 147.92137146 62.74251938 C 146.86720276 66.59203339 145.96308899 69.79035950 145.26919556 73.40325165 C 143.95457458 77.30779266 143.47549438 79.95718384 142.52204895 84.28900146" stroke-width="0.80000001" fill="rgb(253, 209, 2)" opacity="1.0" stroke="rgb(0, 0, 0)" stroke-opacity="1.0" stroke-linecap="round" stroke-linejoin="round"/>
    <path d="M 127.67911530 84.64054108 C 128.12445068 88.40578461 128.39378357 90.96418762 128.66323853 94.75477600 C 129.71307373 99.12561798 127.34131622 103.12286377 123.63314819 100.86470032 C 121.49721527 97.22650146 121.71173859 93.54565430 120.83784485 90.74201202 C 119.97994232 85.72433472 119.56990814 84.40013123 118.29464722 79.52483368 C 117.46052551 75.71652985 116.71738434 73.22918701 115.56542206 68.79682922 C 114.46595764 63.71608734 114.37609863 63.19829559 113.32785034 59.23756409 C 111.79578400 54.05202484 116.99819183 54.23715210 119.98589325 54.65576935 C 123.26980591 57.15823746 124.02768707 60.54886627 125.31948853 62.53625107 C 127.11540985 67.64406586 127.88842773 69.03009033 127.62024689 72.91564941 C 126.81712341 77.61453247 126.98883057 80.39485168 127.67911530 84.64054108" stroke-width="0.80000001" fill="rgb(253, 209, 2)" opacity="1.0" stroke="rgb(0, 0, 0)" stroke-opacity="1.0" stroke-linecap="round" stroke-linejoin="round"/>
    <path d="M 107.71109009 70.06649780 C 106.75621033 67.41801453 105.36438751 64.08452606 104.20145416 60.65119171 C 102.99558258 56.45397186 107.31193542 55.34658813 111.24822998 55.62888336 C 114.11421204 58.47224045 113.49245453 61.46583557 114.67218781 65.15888977 C 115.53073883 69.01232147 116.17388153 71.34465790 117.32344055 75.69309998 C 118.24013519 79.47740936 118.70190430 81.56869507 119.96780396 86.05778503 C 121.08758545 91.13456726 121.18482208 91.80583191 122.05863190 94.96241760 C 123.93669891 99.18836975 122.43865204 103.69229889 118.76816559 100.39329529 C 117.19915771 95.58792114 116.97411346 94.01573181 115.36962128 90.38757324 C 113.85241699 86.25894165 113.11921692 84.31719971 111.80423737 80.66349792 C 110.22193909 76.88165283 109.33631134 74.04171753 107.71109009 70.06649780" stroke-width="0.80000001" fill="rgb(239, 56, 35)" opacity="1.0" stroke="rgb(0, 0, 0)" stroke-opacity="1.0" stroke-linecap="round" stroke-linejoin="round"/>
    <path d="M 148.35873413 85.17610168 C 147.80482483 86.39351654 146.70191956 90.14321899 145.27847290 93.71285248 C 144.27876282 96.77813721 142.69044495 101.53302002 139.82499695 102.29739380 C 138.30751038 99.29660034 140.18275452 95.13144684 140.39503479 92.65028381 C 141.71287537 87.47110748 141.83889771 87.07131958 143.17001343 81.84644318 C 144.00379944 78.75364685 144.61207581 75.89428711 145.62580872 71.55734253 C 147.02380371 66.73010254 146.89787292 65.94709778 147.90260315 62.43775558 C 148.77842712 57.71997070 149.84996033 54.93837738 154.19645691 56.19501877 C 159.07092285 57.01871490 157.81512451 60.59387207 156.67230225 63.94360352 C 155.05407715 67.69489288 153.69235229 70.65404510 152.88656616 73.65720367 C 151.30444336 77.55725098 150.38780212 79.81165314 148.35873413 85.17610168" stroke-width="0.80000001" fill="rgb(239, 55, 35)" opacity="1.0" stroke="rgb(0, 0, 0)" stroke-opacity="1.0" stroke-linecap="round" stroke-linejoin="round"/>
    <path d="M 76.60909271 93.06760406 C 73.32102966 90.39611053 71.95809937 90.07855225 68.24749756 86.90578461 C 66.82923889 83.89707947 71.12388611 80.68825531 73.25508881 80.04450989 C 76.39902496 81.05007172 79.27946472 85.50304413 81.38422394 86.89314270 C 84.81781769 90.11146545 85.67861176 90.83965302 89.39699554 94.07057953 C 92.35075378 96.76678467 93.96375275 97.92242432 97.69132233 101.07109070 C 101.44451904 104.35478210 101.81687927 105.12271881 104.33924103 107.38058472 C 109.20830536 110.32678223 106.16695404 114.34155273 102.18247986 111.27699280 C 99.44322205 109.19210815 97.26020050 106.99020386 93.97925568 105.06741333 C 91.13781738 102.99721527 88.02949524 101.11886597 85.28957367 99.02294922 C 82.45517731 96.92886353 79.97309113 95.29119110 76.60909271 93.06760406" stroke-width="0.80000001" fill="rgb(238, 55, 35)" opacity="1.0" stroke="rgb(0, 0, 0)" stroke-opacity="1.0" stroke-linecap="round" stroke-linejoin="round"/>
    <path d="M 100.34432983 120.65433502 C 100.18322754 120.60694122 99.70599365 120.48972321 99.34607697 120.44696045 C 98.90295410 120.32321167 98.51544189 120.35401154 98.23886871 120.19830322 C 98.13443756 119.81971741 98.44332886 119.57946777 98.69248962 119.33729553 C 99.09039307 119.01183319 99.34130096 119.01284790 99.57614899 118.89402008 C 99.94233704 118.77700043 99.96880341 118.70579529 100.47962952 118.65260315 C 101.13385010 118.66609192 101.02708435 118.71334839 101.39488220 118.51989746 C 101.80006409 118.23752594 102.11780548 118.32500458 102.22351074 118.83114624 C 102.24691010 119.36619568 102.18843079 119.32104492 102.02323151 119.83397675 C 101.93125916 120.22438812 101.78749084 120.54440308 101.55568695 120.73775482 C 101.21562195 120.90815735 101.03647614 120.72796631 100.34432983 120.65433502" stroke-width="0.80000001" fill="rgb(238, 55, 35)" opacity="1.0" stroke="rgb(0, 0, 0)" stroke-opacity="1.0" stroke-linecap="round" stroke-linejoin="round"/>
    <path d="M 90.14955902 78.94853973 C 87.69785309 75.74144745 86.23743439 74.22899628 83.98104095 70.85444641 C 83.30183411 66.90217590 87.64604950 64.48851013 90.60588837 65.08645630 C 93.30741119 66.84698486 94.61597443 71.48838806 96.41528320 74.02543640 C 99.01551056 78.49575806 99.17021179 78.64035034 102.00086975 83.20971680 C 104.00128174 86.61005402 105.17116547 88.43296051 107.71530914 92.35163116 C 110.16263580 96.60845184 110.56968689 97.57923126 112.37449646 100.18785858 C 115.61290741 103.90739441 112.80465698 108.29414368 109.39071655 104.28085327 C 106.82344055 100.13758850 106.35648346 98.98497772 103.33625793 95.72122955 C 100.76155090 92.19797516 99.34800720 90.66594696 96.73641205 87.33934021 C 94.83428955 84.78544617 92.74283600 81.86769867 90.14955902 78.94853973" stroke-width="0.80000001" fill="rgb(238, 56, 35)" opacity="1.0" stroke="rgb(0, 0, 0)" stroke-opacity="1.0" stroke-linecap="round" stroke-linejoin="round"/>
    <path d="M 164.45678711 87.97151184 C 163.01223755 89.82607269 160.43016052 93.05135345 158.55491638 95.65452576 C 156.15451050 98.69664001 154.38012695 101.16922760 151.96292114 104.10639191 C 149.02499390 107.66430664 147.22879028 105.31085205 149.22740173 100.66783905 C 151.43041992 96.87821960 152.32344055 95.89804840 155.25148010 91.13519287 C 156.84880066 88.50893402 158.04524231 86.10247040 160.64105225 81.89771271 C 163.21891785 78.39545441 163.32855225 77.56951141 165.29081726 74.22767639 C 167.87004089 70.67292786 166.97650146 68.78486633 171.28218079 65.30741882 C 174.99481201 64.89598083 177.63291931 67.40123749 177.80953979 70.82614899 C 176.15339661 74.69626617 173.56228638 75.88335419 171.42617798 79.18914795 C 169.10621643 82.15882874 168.00050354 83.62332153 164.45678711 87.97151184" stroke-width="0.80000001" fill="rgb(239, 54, 35)" opacity="1.0" stroke="rgb(0, 0, 0)" stroke-opacity="1.0" stroke-linecap="round" stroke-linejoin="round"/>
    <path d="M 65.44055176 109.69396973 C 62.36835480 107.92895508 60.32535172 108.17526245 57.09526825 105.05017090 C 56.73738861 100.75016785 60.16619110 98.05926514 63.25030899 99.82784271 C 67.17453003 100.94537354 69.93383789 102.91499329 73.12699890 104.36042786 C 78.00722504 106.70703888 77.74625397 106.71813202 83.08265686 109.00893402 C 85.56340790 110.30779266 88.49851990 111.49165344 92.48471069 113.07616425 C 96.67350769 115.15700531 97.65152740 115.92881775 100.69944000 117.47161865 C 104.40763855 120.65362549 99.58373260 120.84783173 94.97310638 119.47844696 C 92.24629211 118.61627197 89.27468872 117.40995026 85.77206421 116.27635193 C 82.22306061 115.17457581 79.08283997 114.08093262 75.68175507 112.82833099 C 72.15394592 111.73976898 69.67977142 111.20262146 65.44055176 109.69396973" stroke-width="0.80000001" fill="rgb(238, 55, 35)" opacity="1.0" stroke="rgb(0, 0, 0)" stroke-opacity="1.0" stroke-linecap="round" stroke-linejoin="round"/>
    <path d="M 164.36863708 115.70140076 C 168.06797791 114.30426025 169.95393372 113.02880096 173.88485718 111.26174927 C 178.09320068 109.02587891 179.50201416 108.99094391 183.54869080 106.84230804 C 186.83486938 105.28063965 189.51364136 103.81724548 193.23522949 102.18376160 C 196.25273132 101.29580688 199.65869141 98.05871582 202.39212036 99.92292023 C 204.10682678 102.75479126 205.61064148 106.58851624 200.60023499 108.04275513 C 195.38562012 109.85498810 195.99214172 109.46201324 192.14933777 111.06382751 C 188.37847900 112.09526062 186.35646057 113.02832031 181.65911865 114.67350769 C 178.04100037 115.72997284 176.62780762 116.03559875 171.46054077 117.54341125 C 167.79266357 118.70670319 165.64279175 120.08697510 161.70663452 121.02157593 C 157.28446960 119.53240967 160.71572876 116.83250427 164.36863708 115.70140076" stroke-width="0.80000001" fill="rgb(238, 55, 35)" opacity="1.0" stroke="rgb(0, 0, 0)" stroke-opacity="1.0" stroke-linecap="round" stroke-linejoin="round"/>
    <path d="M 179.04399109 88.20879364 C 181.10710144 86.34496307 183.77105713 84.02167511 186.32080078 81.71192932 C 189.58961487 78.18565369 192.36160278 81.40525055 194.01739502 84.98613739 C 193.55639648 88.49710083 190.22639465 89.18796539 187.09494019 91.68066406 C 184.40238953 93.57904053 181.69041443 95.49080658 178.54138184 97.58554077 C 175.11923218 100.33377838 173.85800171 100.89752197 169.44700623 104.09528351 C 165.46394348 106.75524139 165.22698975 106.99290466 162.41279602 108.97447968 C 159.22637939 111.66992188 155.06199646 114.10529327 155.04403687 109.46995544 C 157.74630737 106.47542572 160.83204651 104.82948303 162.84764099 102.55535126 C 166.20262146 99.80911255 168.11505127 97.85392761 170.45745850 95.76086426 C 174.04234314 92.86775208 175.78952026 91.28984833 179.04399109 88.20879364" stroke-width="0.80000001" fill="rgb(238, 55, 35)" opacity="1.0" stroke="rgb(0, 0, 0)" stroke-opacity="1.0" stroke-linecap="round" stroke-linejoin="round"/>
    <path d="M 105.45832062 182.05064392 C 106.47058105 182.57952881 109.11026764 181.92736816 108.41055298 184.29237366 C 107.86742401 187.30226135 107.10232544 187.49333191 105.49390411 189.40788269 C 103.94712067 190.16912842 102.25158691 190.45973206 98.93850708 190.94320679 C 97.05879974 191.19812012 94.62940979 191.46232605 92.11148071 191.36857605 C 89.48901367 191.36801147 87.19869232 190.92951965 85.14567566 190.14956665 C 82.75411987 188.63925171 80.82357788 188.89346313 80.38801575 186.67024231 C 80.82083130 183.18161011 81.38738251 182.46490479 83.97202301 181.48139954 C 86.43976593 180.78396606 88.80705261 180.39006042 90.94743347 180.22682190 C 93.47789001 180.16947937 95.38158417 179.53823853 98.02998352 180.15647888 C 101.02366638 181.06404114 102.34523773 181.22215271 105.45832062 182.05064392" stroke-width="0.80000001" fill="rgb(104, 160, 73)" opacity="1.0" stroke="rgb(0, 0, 0)" stroke-opacity="1.0" stroke-linecap="round" stroke-linejoin="round"/>
    <path d="M 179.78460693 189.29171753 C 177.53543091 190.00457764 174.75747681 190.89096069 172.87428284 190.97084045 C 169.75630188 191.34677124 168.24520874 191.48864746 165.59101868 191.44248962 C 163.07023621 191.27742004 160.98693848 190.83474731 158.76095581 190.57313538 C 156.17674255 190.22370911 154.63795471 190.14385986 154.50863647 187.11853027 C 154.24256897 185.44242859 154.14007568 182.66560364 155.93750000 181.96177673 C 157.80938721 181.73088074 158.53343201 181.18617249 161.20082092 180.61940002 C 163.32002258 180.39916992 165.14088440 180.18246460 167.91122437 180.02383423 C 170.14752197 180.08514404 172.87678528 180.26065063 175.27954102 180.72889709 C 177.44969177 181.58308411 180.58229065 182.08639526 181.35940552 183.58093262 C 182.50939941 185.60630798 181.93322754 188.64685059 179.78460693 189.29171753" stroke-width="0.80000001" fill="rgb(104, 159, 72)" opacity="1.0" stroke="rgb(0, 0, 0)" stroke-opacity="1.0" stroke-linecap="round" stroke-linejoin="round"/>
    <path d="M 166.80590820 126.36423492 C 170.60198975 125.95852661 172.99029541 125.52201080 177.04003906 124.66657257 C 181.24902344 124.07073975 182.77792358 124.05506134 186.89288330 123.40236664 C 190.90396118 122.92850494 193.72599792 122.17328644 197.16409302 121.77220917 C 201.21914673 121.35717773 203.41587830 120.62699890 207.48809814 120.46132660 C 209.22775269 122.27613831 210.32994080 126.96925354 205.79345703 128.42875671 C 201.45256042 128.91825867 200.98393250 128.50561523 197.19517517 128.31991577 C 193.05061340 128.13180542 191.54959106 128.29713440 186.14807129 128.62176514 C 182.14373779 128.73788452 181.07130432 128.21635437 176.17950439 128.12371826 C 172.19039917 128.73954773 169.94883728 128.49090576 166.34590149 128.35803223 C 160.57698059 128.67752075 161.91413879 126.44623566 166.80590820 126.36423492" stroke-width="0.80000001" fill="rgb(240, 54, 35)" opacity="1.0" stroke="rgb(0, 0, 0)" stroke-opacity="1.0" stroke-linecap="round" stroke-linejoin="round"/>
    <path d="M 87.74843597 125.25335693 C 90.42637634 125.79842377 94.09074402 126.24468231 97.14954376 126.49766541 C 102.65470123 128.50868225 97.30839539 128.94544983 94.01305389 128.32841492 C 88.98377991 128.49659729 87.78580475 128.22937012 83.17908478 128.45050049 C 79.05786896 128.31178284 77.45898438 128.41561890 72.39054871 128.44764709 C 69.69148254 128.35079956 66.87521362 128.23834229 62.39084625 128.54853821 C 58.40016556 128.24087524 56.30757904 128.92945862 53.86226273 127.34877014 C 50.63885498 124.26811218 54.14078522 120.04699707 56.83757782 120.54442596 C 60.75283051 120.59475708 63.60431671 122.08327484 66.89170074 122.19246674 C 70.37954712 122.72007751 73.73679352 122.90901184 77.21904755 123.63769531 C 81.50578308 124.27522278 82.92874908 124.56233978 87.74843597 125.25335693" stroke-width="0.80000001" fill="rgb(239, 54, 36)" opacity="1.0" stroke="rgb(0, 0, 0)" stroke-opacity="1.0" stroke-linecap="round" stroke-linejoin="round"/>
    <path d="M 169.24938965 162.20742798 C 168.22344971 163.51419067 167.78634644 164.61418152 165.98545837 167.46098328 C 164.56259155 169.42082214 163.60922241 171.26040649 161.58998108 173.36882019 C 159.84793091 175.19685364 158.01130676 176.78834534 156.50074768 178.04336548 C 153.56718445 180.29702759 152.25059509 180.00787354 150.57781982 178.10139465 C 148.36837769 175.97776794 147.13716125 175.34809875 145.91807556 173.33668518 C 146.86802673 171.02117920 148.04656982 171.28787231 150.36042786 170.07939148 C 152.32078552 169.21896362 153.43144226 168.64799500 156.35833740 167.02192688 C 158.42472839 164.98826599 159.47212219 163.29907227 161.41113281 161.58583069 C 163.46012878 160.35316467 164.73490906 158.50064087 167.19128418 157.42707825 C 169.80413818 157.49150085 170.63798523 159.13725281 169.24938965 162.20742798" stroke-width="0.80000001" fill="rgb(251, 253, 253)" opacity="1.0" stroke="rgb(0, 0, 0)" stroke-opacity="1.0" stroke-linecap="round" stroke-linejoin="round"/>
    <path d="M 99.38047028 150.19224548 C 102.84899139 151.20060730 105.63487244 154.83735657 100.33634186 153.11947632 C 96.27889252 151.32368469 92.78126526 150.57151794 89.59450531 152.45730591 C 86.19385529 153.52926636 83.96733856 154.83326721 79.98714447 154.77304077 C 75.73435974 154.49220276 74.01219940 153.00564575 70.52398682 151.92025757 C 66.88144684 150.78453064 63.30571365 151.65605164 59.73716736 154.03843689 C 55.49655533 154.74259949 58.06715393 152.27728271 60.03284073 151.18882751 C 63.66746521 149.68844604 63.73268509 149.67858887 69.96876526 149.17117310 C 74.06838989 149.14341736 76.36347198 151.59906006 79.41920471 152.56829834 C 82.47218323 152.07089233 85.70670319 150.38085938 89.52047729 150.14494324 C 92.90669250 148.74404907 95.27314758 149.42771912 99.38047028 150.19224548" stroke-width="0.80000001" fill="rgb(246, 252, 253)" opacity="1.0" stroke="rgb(0, 0, 0)" stroke-opacity="1.0" stroke-linecap="round" stroke-linejoin="round"/>
    <path d="M 97.84478760 162.84161377 C 94.03914642 162.94961548 93.28736115 161.59913635 88.99771881 162.68650818 C 86.00205994 163.70372009 84.31376648 165.28237915 81.24503326 165.85798645 C 77.55124664 166.79644775 75.58470154 165.14717102 72.69830322 163.92430115 C 68.94078827 162.25108337 67.66733551 162.12823486 65.16915131 163.21426392 C 60.13768768 164.04605103 58.26461029 164.17927551 61.35965347 161.05261230 C 65.97937775 160.03695679 66.48171234 160.22315979 69.13708496 160.11567688 C 73.65248108 161.46470642 72.44519043 161.61288452 77.93109131 162.73268127 C 81.80707550 163.29966736 82.67661285 164.05340576 85.68734741 161.12048340 C 88.26197052 159.85327148 91.08279419 159.45082092 94.95655823 160.27960205 C 97.72171021 160.32015991 100.64690399 163.22563171 97.84478760 162.84161377" stroke-width="0.80000001" fill="rgb(248, 252, 254)" opacity="1.0" stroke="rgb(0, 0, 0)" stroke-opacity="1.0" stroke-linecap="round" stroke-linejoin="round"/>
    <path d="M 202.71675110 151.36186218 C 199.10107422 151.98020935 198.27766418 152.08306885 194.58309937 154.21577454 C 191.70944214 155.24317932 188.98554993 154.99256897 186.27377319 153.86039734 C 182.69894409 152.97676086 181.52293396 151.75918579 178.56207275 151.47294617 C 174.26272583 151.52944946 172.65461731 152.70843506 169.63494873 154.12780762 C 164.37661743 153.40899658 168.22697449 152.71186829 171.58703613 151.11769104 C 175.29949951 149.74357605 176.23782349 149.92443848 179.17509460 149.10244751 C 183.18434143 149.57113647 182.74610901 150.41581726 187.82006836 151.79930115 C 191.63720703 152.49502563 192.59165955 153.36665344 195.23834229 150.85720825 C 198.41854858 149.31234741 201.20280457 148.81854248 204.63775635 149.10852051 C 209.07238770 149.93037415 205.50730896 152.18252563 202.71675110 151.36186218" stroke-width="0.80000001" fill="rgb(246, 252, 253)" opacity="1.0" stroke="rgb(0, 0, 0)" stroke-opacity="1.0" stroke-linecap="round" stroke-linejoin="round"/>
    <path d="M 93.45278931 170.86334229 C 96.00472260 171.13801575 98.39221191 172.02787781 100.40604401 173.66740417 C 97.94525146 174.87467957 95.52880859 172.93254089 93.28327179 173.58512878 C 89.54196167 174.28251648 89.06410980 174.99543762 85.79119110 176.12078857 C 83.23461151 177.24382019 80.61133575 177.67065430 78.54417419 176.31529236 C 75.94309235 174.74485779 73.13276672 174.66055298 71.21347046 174.40946960 C 67.09083557 173.22473145 68.20824432 173.11994934 64.81763458 172.47450256 C 66.14495850 171.94210815 69.31504059 170.98300171 71.52671814 170.83551025 C 74.98252869 171.37393188 76.14871216 172.94494629 78.55398560 173.87702942 C 81.79724884 175.10545349 83.50600433 174.37637329 85.99679565 173.88394165 C 88.57868958 172.21575928 90.78163910 171.12002563 93.45278931 170.86334229" stroke-width="0.80000001" fill="rgb(247, 252, 253)" opacity="1.0" stroke="rgb(0, 0, 0)" stroke-opacity="1.0" stroke-linecap="round" stroke-linejoin="round"/>
    <path d="M 94.09011841 143.63943481 C 89.83014679 144.48059082 89.60626984 144.62788391 85.26393127 146.34585571 C 80.88282013 145.63674927 79.17700195 144.00674438 76.11864471 143.88883972 C 71.93018341 143.34765625 70.39491272 145.28381348 66.88263702 145.52171326 C 62.75850677 145.65632629 61.03497696 146.24790955 58.26518250 144.74403381 C 53.15952301 143.41954041 52.22658157 140.55355835 57.25154877 141.95283508 C 62.49441528 143.04530334 61.64418030 144.56755066 66.04087067 143.58125305 C 69.76668549 142.38964844 70.28017426 141.59765625 75.58622742 141.33309937 C 79.37302399 141.48771667 80.32773590 144.20805359 83.87476349 143.99996948 C 87.15905762 142.86866760 90.19747162 143.21057129 93.90147400 142.29336548 C 97.29669189 141.65679932 98.44010162 143.26933289 94.09011841 143.63943481" stroke-width="0.80000001" fill="rgb(244, 251, 254)" opacity="1.0" stroke="rgb(0, 0, 0)" stroke-opacity="1.0" stroke-linecap="round" stroke-linejoin="round"/>
    <path d="M 72.39801788 134.85823059 C 75.54739380 134.78889465 76.54833984 134.72460938 80.75603485 135.79270935 C 85.12874603 136.12933350 86.21183777 136.76046753 91.40037537 135.65849304 C 94.50561523 135.22291565 99.08489990 133.24627686 100.73527527 135.49960327 C 97.32485962 137.74359131 95.78751373 136.36732483 90.30883789 137.45526123 C 87.20586395 138.22444153 85.37598419 139.22572327 80.46698761 137.92393494 C 76.42272186 137.11459351 74.77474976 135.41630554 71.80900574 137.24827576 C 67.46830750 138.58497620 67.14517212 138.69480896 61.90864563 137.83818054 C 58.53462982 137.01293945 55.44472122 136.83277893 54.94673920 135.81623840 C 53.61024094 132.01072693 58.93849945 136.37078857 62.48635483 136.59115601 C 66.42398071 136.60848999 67.66576385 136.59991455 72.39801788 134.85823059" stroke-width="0.80000001" fill="rgb(242, 251, 254)" opacity="1.0" stroke="rgb(0, 0, 0)" stroke-opacity="1.0" stroke-linecap="round" stroke-linejoin="round"/>
    <path d="M 204.90856934 143.74505615 C 201.91522217 143.80487061 200.03182983 144.51254272 197.00967407 145.77033997 C 194.48855591 146.54335022 191.81625366 145.61114502 189.22456360 144.75808716 C 186.30424500 143.61483765 184.14474487 143.73828125 181.21253967 144.10989380 C 178.04141235 144.73350525 176.61672974 146.17114258 172.97007751 145.97970581 C 168.06158447 144.46923828 170.95524597 143.39512634 174.14086914 143.32756042 C 178.49452209 142.73037720 178.74272156 143.44966125 181.53038025 142.01147461 C 185.44795227 141.01976013 184.91827393 141.39889526 189.69618225 142.32492065 C 192.73185730 143.14741516 193.97080994 145.16265869 197.27250671 143.65260315 C 199.89949036 142.24653625 202.26643372 141.48947144 205.44827271 141.17137146 C 208.75381470 142.13444519 208.71157837 143.96165466 204.90856934 143.74505615" stroke-width="0.80000001" fill="rgb(245, 251, 253)" opacity="1.0" stroke="rgb(0, 0, 0)" stroke-opacity="1.0" stroke-linecap="round" stroke-linejoin="round"/>
    <path d="M 193.75730896 174.38969421 C 190.84335327 175.02014160 190.27278137 175.00892639 186.86566162 176.63273621 C 184.36050415 177.26815796 182.20739746 176.57550049 180.02868652 175.58226013 C 177.15863037 174.51922607 176.00405884 173.65344238 173.49809265 173.37998962 C 169.52098083 173.31277466 168.45782471 173.98918152 166.15939331 175.72477722 C 161.62858582 175.74029541 163.66268921 174.80232239 166.86766052 172.91476440 C 169.58345032 171.61686707 170.54049683 171.84272766 172.86914062 170.86477661 C 176.42666626 171.13516235 176.04338074 171.45236206 180.25128174 172.68862915 C 183.24502563 173.65625000 183.98104858 175.21366882 186.89315796 174.25083923 C 189.42781067 173.05828857 191.54924011 172.68945312 194.32106018 172.48661804 C 197.95277405 172.53842163 196.96574402 174.22434998 193.75730896 174.38969421" stroke-width="0.80000001" fill="rgb(247, 252, 254)" opacity="1.0" stroke="rgb(0, 0, 0)" stroke-opacity="1.0" stroke-linecap="round" stroke-linejoin="round"/>
    <path d="M 173.04135132 136.72061157 C 176.36726379 137.05926514 178.30900574 136.65695190 181.39810181 135.07868958 C 184.13070679 133.87414551 186.79470825 134.43269348 189.57820129 135.54945374 C 192.61862183 136.67588806 194.69255066 136.84690857 197.82594299 136.63685608 C 200.95671082 135.88972473 202.65377808 134.21952820 206.44348145 134.02650452 C 211.70242310 135.84429932 206.62590027 137.00915527 204.11079407 137.13562012 C 199.39093018 137.72386169 199.50125122 137.27111816 196.15774536 138.44645691 C 191.97830200 138.72203064 192.69577026 138.04400635 187.54521179 136.93246460 C 184.12600708 136.50485229 183.30529785 135.49166870 180.16928101 137.79656982 C 177.34327698 138.70591736 174.10951233 138.92214966 170.74664307 138.37498474 C 167.04501343 136.11000061 170.56645203 135.34312439 173.04135132 136.72061157" stroke-width="0.80000001" fill="rgb(242, 251, 254)" opacity="1.0" stroke="rgb(0, 0, 0)" stroke-opacity="1.0" stroke-linecap="round" stroke-linejoin="round"/>
    <path d="M 131.73323059 198.74467468 C 130.52978516 198.92961121 130.13867188 198.65116882 129.20922852 198.02542114 C 127.96714783 197.00325012 127.97437286 196.90544128 127.05351257 195.62036133 C 126.68503571 194.89102173 126.22062683 194.20321655 126.14119720 192.86517334 C 126.22288513 192.11955261 126.45343781 191.07914734 127.47241974 190.39433289 C 128.33439636 189.96385193 129.04212952 189.83941650 130.38169861 189.74278259 C 132.03535461 189.76902771 131.53498840 189.61682129 132.89189148 189.89997864 C 134.08099365 190.34127808 134.83686829 190.38653564 135.34681702 191.44438171 C 135.56045532 192.59689331 135.74147034 192.79217529 135.44786072 194.12431335 C 135.04464722 195.26069641 134.70541382 195.88365173 134.08070374 196.73594666 C 133.34452820 197.57928467 132.49777222 198.40802002 131.73323059 198.74467468" stroke-width="0.80000001" fill="rgb(247, 125, 171)" opacity="1.0" stroke="rgb(0, 0, 0)" stroke-opacity="1.0" stroke-linecap="round" stroke-linejoin="round"/>
    <path d="M 199.48500061 162.35604858 C 196.75871277 162.79991150 196.30117798 163.15834045 193.45661926 164.50772095 C 191.08576965 165.57623291 189.70016479 165.80572510 187.36892700 165.80032349 C 184.57478333 165.80563354 183.23313904 164.28646851 181.31301880 163.68338013 C 177.75955200 162.52415466 176.80738831 162.68424988 174.06274414 163.55915833 C 173.19395447 162.48324585 174.23905945 161.75318909 177.58058167 161.21170044 C 180.93804932 161.33645630 180.74147034 161.63751221 183.28271484 162.42765808 C 185.69488525 162.85890198 186.59126282 163.42391968 190.00848389 163.22737122 C 192.39898682 162.64144897 193.34700012 162.21041870 195.53741455 160.59330750 C 197.94941711 159.85510254 200.14799500 159.59204102 202.51348877 160.74906921 C 205.08773804 162.62141418 201.33592224 163.03179932 199.48500061 162.35604858" stroke-width="0.80000001" fill="rgb(246, 251, 253)" opacity="1.0" stroke="rgb(0, 0, 0)" stroke-opacity="1.0" stroke-linecap="round" stroke-linejoin="round"/>
    <path d="M 139.20980835 207.47631836 C 137.50178528 208.03660583 135.86848450 209.04547119 133.85290527 209.32548523 C 131.73234558 209.65307617 129.75297546 209.15318298 127.86585236 208.89102173 C 125.72174072 208.68402100 124.50659943 207.40522766 122.49427795 206.55517578 C 120.25293732 205.73329163 118.59403229 205.62463379 116.11760712 205.58743286 C 115.91593933 203.63201904 116.88522339 204.58662415 119.98339844 204.41397095 C 122.55225372 204.53234863 123.00986481 204.76336670 124.79812622 205.29695129 C 127.67588806 206.17427063 127.18759155 206.20339966 130.61296082 206.59469604 C 132.74714661 206.75801086 133.01556396 207.25094604 136.06144714 206.37646484 C 138.43768311 205.82833862 139.32199097 205.22113037 142.07929993 204.51243591 C 144.39826965 205.06080627 140.75402832 206.62969971 139.20980835 207.47631836" stroke-width="0.80000001" fill="rgb(245, 252, 254)" opacity="1.0" stroke="rgb(0, 0, 0)" stroke-opacity="1.0" stroke-linecap="round" stroke-linejoin="round"/>
    <path d="M 158.46704102 202.89894104 C 156.24018860 203.25869751 155.82164001 203.41630554 152.96371460 203.83523560 C 150.85206604 203.60604858 149.53385925 202.47001648 147.76492310 202.08038330 C 145.62066650 201.60084534 144.42903137 201.30204773 142.55122375 201.26896667 C 139.54708862 201.22030640 138.79696655 201.73677063 136.57493591 203.02667236 C 134.90879822 201.61851501 135.93733215 201.35810852 138.72290039 200.01867676 C 140.71351624 199.14480591 141.66415405 199.41244507 143.40206909 199.02746582 C 146.22210693 199.18267822 146.06033325 199.27897644 149.26390076 199.93350220 C 151.59797668 200.49658203 152.11981201 201.67196655 154.58094788 201.79486084 C 156.65934753 201.36697388 157.98670959 201.34707642 160.21513367 200.89729309 C 162.42468262 201.47999573 160.69638062 202.40155029 158.46704102 202.89894104" stroke-width="0.80000001" fill="rgb(246, 252, 254)" opacity="1.0" stroke="rgb(0, 0, 0)" stroke-opacity="1.0" stroke-linecap="round" stroke-linejoin="round"/>
    <path d="M 123.01275635 201.21893311 C 120.90913391 200.66007996 120.15274811 200.47949219 117.86209869 200.55972290 C 115.72286987 200.48979187 114.44957733 200.57691956 112.57082367 201.33442688 C 110.67581940 202.54043579 109.18695831 203.04051208 107.32870483 202.62953186 C 105.00023651 202.21864319 103.74063110 202.59301758 101.63548279 202.34246826 C 100.46424103 200.26864624 102.20663452 200.84197998 104.69596863 200.65023804 C 107.21235657 200.59106445 107.63861847 200.85766602 109.54690552 200.14152527 C 111.58423615 199.27532959 111.93968964 199.07923889 114.93720245 198.33203125 C 116.87178040 197.93907166 117.80007172 198.10835266 119.90118408 198.52386475 C 121.64196014 198.88121033 123.56221008 199.41131592 125.07521820 200.30809021 C 127.23083496 201.72128296 125.14929199 202.67372131 123.01275635 201.21893311" stroke-width="0.80000001" fill="rgb(246, 252, 254)" opacity="1.0" stroke="rgb(0, 0, 0)" stroke-opacity="1.0" stroke-linecap="round" stroke-linejoin="round"/>
    <path d="M 138.48829651 189.22756958 C 139.40791321 189.09111023 140.22990417 189.07493591 141.16476440 189.14845276 C 142.44229126 189.37358093 142.59524536 189.31903076 143.65072632 189.88781738 C 144.72271729 190.52441406 144.92973328 190.73223877 145.93371582 191.64459229 C 146.46810913 192.19833374 147.50819397 192.94178772 147.28898621 193.81550598 C 146.32250977 194.35386658 145.92356873 194.38432312 144.52761841 194.48315430 C 143.35198975 194.52661133 143.29563904 194.63810730 142.20683289 194.60935974 C 141.28022766 194.58146667 140.86390686 194.63998413 139.56567383 194.51753235 C 138.64247131 193.88963318 138.29954529 193.54827881 137.50279236 192.88070679 C 136.80261230 191.93635559 136.36572266 191.50535583 136.18644714 190.52134705 C 136.49435425 189.68324280 137.51614380 189.32383728 138.48829651 189.22756958" stroke-width="0.80000001" fill="rgb(243, 126, 170)" opacity="1.0" stroke="rgb(0, 0, 0)" stroke-opacity="1.0" stroke-linecap="round" stroke-linejoin="round"/>
    <path d="M 124.72180176 192.82067871 C 123.91349030 193.54823303 123.48791504 193.75781250 122.43935394 194.16740417 C 121.05172729 194.55857849 121.06873322 194.60556030 119.77598572 194.69290161 C 118.41182709 194.68533325 118.28680420 194.68991089 116.80941010 194.58110046 C 116.17018127 194.42010498 114.93685150 194.50613403 114.40306091 193.73492432 C 115.00511932 192.47694397 115.31214905 192.52755737 116.31449890 191.58189392 C 117.45036316 190.71916199 117.16363525 190.80155945 118.14480591 190.11408997 C 119.10300446 189.52073669 119.50942993 189.01934814 120.52994537 189.03434753 C 121.68281555 189.34019470 122.08503723 189.40390015 123.15965271 189.43200684 C 124.38478088 189.75387573 124.76273346 189.68190002 125.73128510 190.32225037 C 126.05036926 191.29270935 125.22669983 192.33012390 124.72180176 192.82067871" stroke-width="0.80000001" fill="rgb(245, 125, 170)" opacity="1.0" stroke="rgb(0, 0, 0)" stroke-opacity="1.0" stroke-linecap="round" stroke-linejoin="round"/>
    <path d="M 155.05252075 194.33703613 C 156.70646667 193.97341919 157.45605469 193.67956543 159.39120483 193.60456848 C 161.10806274 193.57006836 162.36619568 194.40780640 163.69792175 194.81983948 C 165.26997375 195.32623291 166.46919250 195.56752014 167.98640442 195.56536865 C 170.27249146 195.69975281 170.87496948 195.22822571 172.85331726 194.89720154 C 172.97369385 196.26329041 172.23765564 196.23869324 170.07095337 197.11010742 C 168.56765747 197.60574341 167.66601562 197.49714661 166.57221985 197.59925842 C 164.18840027 197.33651733 164.46034241 197.24282837 162.02742004 196.80018616 C 160.62268066 196.35690308 160.02265930 195.39863586 157.84518433 195.68141174 C 156.02442932 195.90396118 155.48927307 196.23362732 153.29389954 196.62271118 C 151.15127563 195.99073792 153.82992554 194.63888550 155.05252075 194.33703613" stroke-width="0.80000001" fill="rgb(241, 251, 253)" opacity="1.0" stroke="rgb(0, 0, 0)" stroke-opacity="1.0" stroke-linecap="round" stroke-linejoin="round"/>
    <path d="M 109.45903015 195.63006592 C 108.93504333 196.67312622 107.16123962 196.50930786 105.55125427 195.91397095 C 104.14176941 195.51200867 102.57719421 195.63577271 100.85840607 196.19152832 C 99.56791687 196.42297363 98.66267395 197.29010010 97.01580048 197.61584473 C 95.53446198 197.87882996 94.13457489 197.85124207 92.59297180 197.31884766 C 91.92864227 197.16101074 89.23744965 196.64868164 89.50212097 195.42462158 C 91.76289368 194.41798401 91.52938080 194.77153015 92.91696930 195.50469971 C 94.62152100 196.08876038 95.31381989 195.38531494 97.20744324 194.95794678 C 99.47891998 194.71113586 99.32398987 194.59199524 101.10584259 193.93482971 C 103.21020508 193.51641846 103.70108032 193.33830261 105.46539307 193.92835999 C 107.63416290 194.77673340 107.89469910 194.65408325 109.45903015 195.63006592" stroke-width="0.80000001" fill="rgb(243, 251, 254)" opacity="1.0" stroke="rgb(0, 0, 0)" stroke-opacity="1.0" stroke-linecap="round" stroke-linejoin="round"/>
    <path d="M 106.06781006 141.62455750 C 105.36211395 142.30499268 105.31367493 142.40954590 104.38695526 143.06796265 C 103.93084717 143.33518982 102.87069702 144.16664124 102.66909790 143.34481812 C 102.74784088 142.35426331 102.91168213 142.30316162 103.43093109 141.21775818 C 103.73133850 140.56277466 104.14743042 139.85681152 104.64106750 139.14157104 C 105.10813141 138.38209534 105.04656219 138.15930176 105.49890137 137.01443481 C 106.14071655 136.00047302 105.95134735 136.10055542 106.53133392 135.50840759 C 107.19974518 135.12223816 107.73558044 135.21507263 108.43486023 136.05284119 C 108.89429474 136.76914978 109.03158569 137.11735535 109.02406311 137.89228821 C 108.83493042 138.77410889 108.46129608 139.29367065 107.94039154 139.79872131 C 107.34009552 140.43824768 106.63851929 140.98889160 106.06781006 141.62455750" stroke-width="0.80000001" fill="rgb(242, 138, 36)" opacity="1.0" stroke="rgb(0, 0, 0)" stroke-opacity="1.0" stroke-linecap="round" stroke-linejoin="round"/>
    <path d="M 148.25898743 136.89401245 C 146.89529419 136.86386108 145.93127441 136.60279846 144.35041809 136.35447693 C 142.84031677 136.20448303 141.83055115 136.33203125 140.53405762 136.75947571 C 139.15165710 137.26579285 138.19119263 137.72367859 136.75077820 137.79450989 C 135.16825867 137.93853760 134.09358215 138.49447632 132.44979858 138.29626465 C 130.62030029 137.81007385 131.38713074 136.69505310 133.42512512 136.68563843 C 135.15864563 136.58576965 135.45738220 136.99597168 136.90423584 136.43940735 C 138.65255737 135.86135864 138.56657410 135.74511719 140.96147156 135.16184998 C 142.43162537 134.64733887 143.03100586 134.80041504 144.47221375 134.78471375 C 145.84289551 134.75354004 147.19573975 134.88523865 148.45802307 135.36335754 C 149.87536621 135.89743042 150.08047485 137.08340454 148.25898743 136.89401245" stroke-width="0.80000001" fill="rgb(236, 249, 253)" opacity="1.0" stroke="rgb(0, 0, 0)" stroke-opacity="1.0" stroke-linecap="round" stroke-linejoin="round"/>
    <path d="M 136.61499023 47.24684906 C 137.08959961 46.46398163 137.09164429 46.59118652 137.84820557 45.65451813 C 138.22135925 45.29241180 138.77978516 44.64838028 139.50659180 44.55214691 C 140.11256409 45.20995331 140.09165955 45.34501648 140.45913696 46.26647568 C 140.66543579 47.06343460 140.73716736 47.72067642 140.43168640 48.23756409 C 139.95393372 49.05216980 139.42933655 49.47719574 138.94403076 49.66811371 C 137.74891663 50.32980347 137.84994507 50.14561081 137.31057739 50.62763977 C 136.88507080 51.23817825 136.55549622 51.88502121 135.95362854 52.21811295 C 135.32315063 52.97421646 135.68571472 52.33369064 135.49961853 51.34910583 C 135.32196045 50.46650314 135.52546692 50.40112305 135.73703003 49.36497116 C 135.94436646 48.58884811 136.12225342 48.19726562 136.61499023 47.24684906" stroke-width="0.80000001" fill="rgb(19, 31, 60)" opacity="1.0" stroke="rgb(0, 0, 0)" stroke-opacity="1.0" stroke-linecap="round" stroke-linejoin="round"/>
    <path d="M 157.79946899 136.43269348 C 158.40780640 136.18788147 159.07704163 135.85025024 159.74897766 135.58988953 C 160.63000488 135.27441406 161.13891602 135.06323242 161.88940430 134.91304016 C 162.63687134 134.79864502 163.47119141 134.69357300 164.12815857 134.64894104 C 165.23370361 134.63005066 165.50657654 134.49964905 166.38368225 134.74540710 C 166.95487976 135.31544495 165.91563416 135.80798340 165.14102173 135.92382812 C 164.20637512 136.12208557 164.20399475 136.14521790 163.30227661 136.36845398 C 162.36572266 136.61305237 162.27734375 136.58154297 161.16845703 137.04643250 C 160.29530334 137.29364014 160.18495178 137.38764954 159.07261658 137.73265076 C 158.07524109 137.97850037 157.90629578 138.28250122 156.95768738 138.02613831 C 156.13525391 137.55456543 157.11795044 136.77729797 157.79946899 136.43269348" stroke-width="0.80000001" fill="rgb(242, 252, 254)" opacity="1.0" stroke="rgb(0, 0, 0)" stroke-opacity="1.0" stroke-linecap="round" stroke-linejoin="round"/>
  </g>
</svg>
