<?xml version="1.0" ?>
<svg xmlns="http://www.w3.org/2000/svg" version="1.1" width="256" height="256" viewBox="0 0 256 256">
  <defs/>
  <g>
    <path d="M -2.51472473 283.16217041 C -26.00277710 262.80139160 -43.59643555 235.04635620 -59.15737915 192.97793579 C -72.82540894 150.42883301 -71.49990845 110.99981689 -51.59196472 79.79216766 C -29.56840515 43.38588715 -2.49951172 12.46430969 27.91099548 -12.87696838 C 59.61501312 -34.65168762 92.67672729 -55.08236694 141.67675781 -53.66963196 C 172.38110352 -50.72740173 208.76470947 -40.64399719 246.16740417 -9.79156494 C 278.65139771 21.03522491 299.86547852 45.96433258 301.81945801 69.90640259 C 309.61026001 113.72138214 306.86026001 151.96099854 299.32104492 184.48266602 C 290.47595215 213.15417480 269.73471069 239.71261597 226.32870483 272.29632568 C 196.17233276 297.96893311 164.62335205 313.14657593 118.47124481 322.37094116 C 80.94548798 326.07171631 50.01406097 321.32281494 -2.51472473 283.16217041" stroke-width="1.82624245" fill="rgb(255, 255, 255)" opacity="1.0" stroke="rgb(255, 254, 255)" stroke-opacity="0.0" stroke-linecap="round" stroke-linejoin="round"/>
    <path d="M 203.47586060 180.64822388 C 189.00588989 198.87901306 187.37677002 199.72503662 159.87652588 215.59346008 C 145.89680481 220.17620850 129.35079956 224.94436646 103.84471130 217.90226746 C 87.82766724 212.87548828 74.71685028 206.45129395 57.40506744 187.10289001 C 40.77894592 161.54414368 40.54135132 155.83001709 36.72954559 133.77084351 C 37.57800293 110.96306610 39.33072662 98.74640656 53.55208588 75.52511597 C 65.62094116 62.63526154 69.43443298 55.48197937 91.03070831 45.89038086 C 105.13997650 40.83489990 118.76820374 32.91450500 142.87283325 42.68565369 C 158.03970337 49.37973785 180.24212646 62.25036621 191.56474304 72.58573151 C 205.20538330 92.20713806 212.98744202 102.13456726 218.77603149 122.88320160 C 220.18743896 144.44633484 213.12503052 164.39974976 203.47586060 180.64822388" stroke-width="0.00000000" fill="rgb(198, 160, 130)" opacity="1.0" stroke="rgb(255, 255, 255)" stroke-opacity="0.0" stroke-linecap="round" stroke-linejoin="round"/>
    <path d="M 202.34835815 128.14888000 C 180.84710693 124.54354858 170.18539429 132.30540466 156.32891846 127.32662964 C 148.22689819 114.29430389 137.69763184 106.06880951 118.68608093 113.41896057 C 105.33810425 119.66268921 98.73449707 134.49023438 82.08865356 129.17132568 C 64.01703644 129.37287903 48.59903717 137.43363953 55.22415161 117.18710327 C 56.36375427 101.39414215 66.16574097 84.14727020 76.77638245 74.11721802 C 99.39587402 57.38150406 92.55566406 62.62391281 111.31040192 55.36235809 C 126.85028839 61.49815369 131.93905640 68.23616791 144.07051086 51.50773239 C 159.32373047 44.90991592 168.84471130 46.78210449 183.88420105 59.68705368 C 198.46437073 70.91133118 205.06918335 82.55545807 212.00296021 99.15890503 C 217.78536987 121.72135162 220.60180664 131.88656616 202.34835815 128.14888000" stroke-width="1.90166223" fill="rgb(245, 166, 18)" opacity="1.0" stroke="rgb(115, 85, 48)" stroke-opacity="1.0" stroke-linecap="round" stroke-linejoin="round"/>
    <path d="M 150.68098450 129.66700745 C 145.93234253 131.32019043 142.79710388 130.56077576 137.20146179 131.12777710 C 133.05747986 131.48614502 128.57051086 134.07528687 124.72109985 129.88237000 C 122.95243073 125.87968445 120.65191650 121.84413910 115.19248962 120.61542511 C 108.97503662 119.46440125 105.58805084 122.32796478 102.33107758 126.00195312 C 101.90473938 123.22999573 104.05352020 116.28027344 106.37203217 113.61110687 C 112.16870117 106.46400452 110.53967285 108.58650970 114.96311951 105.46967316 C 119.93801880 102.97073364 125.68294525 101.75978088 130.27905273 102.07971191 C 134.59744263 102.53382111 137.95870972 103.46319580 143.91860962 107.37969971 C 148.96441650 111.66635895 149.15496826 112.42144775 151.84848022 117.73294830 C 154.28598022 122.75714874 155.23753357 128.32798767 150.68098450 129.66700745" stroke-width="1.73186088" fill="rgb(236, 52, 35)" opacity="1.0" stroke="rgb(0, 25, 61)" stroke-opacity="0.9064367" stroke-linecap="round" stroke-linejoin="round"/>
    <path d="M 148.49868774 186.75637817 C 145.11773682 190.11911011 144.63774109 189.49519348 138.38943481 190.86981201 C 134.29798889 191.28601074 131.82275391 191.54502869 126.46135712 191.91908264 C 122.68607330 192.26704407 117.90354919 192.49511719 114.54386902 190.71939087 C 109.97177124 188.37127686 110.02437592 183.72743225 109.52396393 180.21997070 C 108.35289001 174.09860229 107.42911530 172.14941406 113.43297577 173.18122864 C 116.31996918 170.78866577 113.79921722 167.62695312 117.21399689 165.80238342 C 123.10318756 165.16476440 125.60584259 166.00010681 130.11679077 165.61968994 C 131.95988464 165.59825134 138.15963745 165.58551025 141.32238770 169.16952515 C 141.74783325 176.05343628 143.73530579 170.59463501 148.09078979 174.08996582 C 150.55506897 180.09454346 150.36563110 180.92298889 148.49868774 186.75637817" stroke-width="2.00000000" fill="rgb(175, 97, 142)" opacity="1.0" stroke="rgb(4, 37, 130)" stroke-opacity="0.5244664" stroke-linecap="round" stroke-linejoin="round"/>
    <path d="M 127.97291565 66.62304688 C 133.36483765 72.27851868 139.94375610 78.95121002 139.93302917 91.52102661 C 136.13410950 101.64395142 125.42233276 100.49795532 115.68967438 100.72680664 C 109.39148712 90.45345306 121.30187225 83.28470612 121.31568146 71.49970245 C 122.44430542 58.76364899 123.68451691 47.64477921 110.52848053 48.93553925 C 95.42781830 52.25304413 87.58281708 58.52576065 76.71400452 64.83193970 C 66.72302246 66.92460632 63.61996841 66.36785889 68.86154175 62.39346313 C 74.08230591 57.86053085 84.96501160 48.37065125 98.76435852 45.29493713 C 110.17921448 38.75237274 115.01977539 43.39627838 123.25595856 38.16305161 C 139.16775513 34.11313248 142.27145386 37.82640076 133.87374878 52.89000320 C 121.95623779 62.98041534 117.56944275 63.38396454 127.97291565 66.62304688" stroke-width="1.83126831" fill="rgb(238, 101, 27)" opacity="1.0" stroke="rgb(23, 25, 46)" stroke-opacity="0.80724883" stroke-linecap="round" stroke-linejoin="round"/>
    <path d="M 147.24945068 51.53564453 C 143.48342896 56.08267975 142.71876526 56.93016434 140.43334961 64.61486053 C 139.98669434 70.98661041 140.10137939 74.34660339 137.38093567 77.21189880 C 135.45909119 76.44207764 135.01083374 71.35582733 131.54545593 68.38084412 C 129.44648743 63.00986481 128.25344849 61.21240997 124.55056763 58.26430511 C 119.16220856 55.05039597 117.03781128 47.48051071 115.41781616 43.95762634 C 118.71351624 36.00007629 118.24804688 37.17109299 124.89716339 36.89877319 C 132.74307251 38.51146698 134.38450623 39.44894028 140.88699341 40.49401093 C 149.25349426 42.81993103 149.48126221 42.36813354 157.27882385 44.83318329 C 160.80020142 45.45082092 168.74348450 48.48265076 164.90687561 54.38341904 C 157.81695557 55.02870178 153.87780762 49.10086441 147.24945068 51.53564453" stroke-width="2.00000000" fill="rgb(219, 119, 34)" opacity="1.0" stroke="rgb(57, 50, 70)" stroke-opacity="1.0" stroke-linecap="round" stroke-linejoin="round"/>
    <path d="M 141.80340576 82.87019348 C 141.23219299 84.53399658 140.99105835 88.47584534 139.48257446 92.35769653 C 139.23690796 95.66059875 135.84063721 98.98417664 132.36573792 98.60004425 C 131.06779480 95.51639557 132.80508423 90.77623749 132.69377136 87.07319641 C 133.19708252 82.84846497 133.31698608 79.33743286 133.45812988 75.59793854 C 133.80601501 72.73667145 132.74261475 68.77027893 134.02030945 63.76706314 C 135.59503174 60.32358932 138.00144958 60.38887787 138.78898621 56.51802826 C 137.37367249 50.81407928 142.59916687 53.21726990 147.10678101 53.89707947 C 151.74934387 54.78390503 153.61741638 55.11371994 151.33264160 60.15958405 C 148.92648315 64.43813324 146.98451233 67.13050842 145.79208374 70.24345398 C 144.25457764 73.28166199 143.16398621 76.78916168 141.80340576 82.87019348" stroke-width="2.00000000" fill="rgb(251, 187, 0)" opacity="1.0" stroke="rgb(255, 216, 68)" stroke-opacity="0.90929186" stroke-linecap="round" stroke-linejoin="round"/>
    <path d="M 124.38309479 85.43310547 C 124.26052094 89.97729492 125.40768433 91.85890961 124.32698059 97.02203369 C 123.05150604 100.69026947 118.09905243 101.32686615 113.10881805 101.06974792 C 109.38984680 101.00994873 107.32983398 98.19786072 105.90830231 92.43359375 C 104.99160767 89.67091370 104.36231995 84.37640381 103.45748901 80.22941589 C 102.90016937 75.85483551 101.57899475 72.32988739 101.34483337 67.90528107 C 102.21984863 63.67094421 103.44056702 61.80697250 104.38407135 59.19238281 C 106.08595276 56.33620453 111.08940125 55.44786453 114.83100891 53.40481949 C 119.42585754 54.20096207 118.80220032 59.65488434 121.64060211 60.86651993 C 125.15334320 63.17183685 122.73874664 66.21518707 122.78817749 71.72996521 C 123.14510345 76.43247223 123.60147095 80.82064819 124.38309479 85.43310547" stroke-width="1.17272043" fill="rgb(252, 195, 4)" opacity="1.0" stroke="rgb(255, 201, 14)" stroke-opacity="0.9239432" stroke-linecap="round" stroke-linejoin="round"/>
    <path d="M 105.81982422 69.29164124 C 105.04714966 67.73271942 103.93521881 64.31367493 102.39944458 60.77304459 C 99.57012939 55.91744995 104.71366119 56.47765350 108.16998291 54.81332397 C 111.28614807 55.56372833 110.70392609 60.79886627 111.78996277 63.40961456 C 112.64716339 66.40621948 113.50572968 70.25270081 114.02566528 73.35262299 C 115.13858032 77.62155914 115.40063477 78.81680298 116.74926758 83.83477783 C 117.86220551 88.39326477 117.55587006 88.65195465 118.55102539 92.04657745 C 119.52623749 96.09262085 122.24210358 99.72911072 117.51116180 99.33217621 C 115.63819122 96.66897583 115.24342346 92.46019745 113.48137665 89.36914062 C 112.22625732 86.04589844 110.98167419 83.17744446 110.15538788 80.20526886 C 108.48690033 76.40462494 107.60105896 74.15496826 105.81982422 69.29164124" stroke-width="0.44305208" fill="rgb(236, 56, 31)" opacity="1.0" stroke="rgb(224, 102, 32)" stroke-opacity="0.78556085" stroke-linecap="round" stroke-linejoin="round"/>
    <path d="M 145.29418945 82.62593079 C 144.30169678 85.11298370 143.25572205 87.88470459 141.69879150 91.64860535 C 140.61477661 95.67029572 139.40177917 100.36098480 135.97447205 99.54574585 C 134.45083618 97.28977203 137.51553345 92.61653900 137.62745667 89.64394379 C 138.43658447 86.06312561 139.15481567 82.96337891 140.26358032 79.07516479 C 141.09310913 74.94034576 141.49290466 73.38816833 142.85734558 68.02397919 C 143.99096680 63.13607407 144.33827209 62.81476593 144.94914246 58.74014282 C 145.53163147 53.34543610 146.33665466 53.66607285 152.60620117 55.86188507 C 156.67736816 56.66904449 155.56643677 56.70893860 153.96308899 60.90128708 C 151.98278809 64.91775513 150.66813660 68.20629883 149.85087585 70.97434998 C 148.31343079 74.78680420 146.47825623 78.99898529 145.29418945 82.62593079" stroke-width="2.00000000" fill="rgb(236, 58, 31)" opacity="1.0" stroke="rgb(255, 255, 107)" stroke-opacity="0.22972904" stroke-linecap="round" stroke-linejoin="round"/>
    <path d="M 76.27589417 91.60008240 C 72.73111725 88.68938446 71.63194275 88.54969025 67.34230042 85.92401886 C 64.60279083 83.86938477 68.77867126 80.98538971 70.67627716 78.57462311 C 73.29882812 77.89150238 76.21636200 82.93994141 78.43047333 84.12554932 C 81.00044250 86.50229645 83.27060699 88.57666016 86.23043823 91.28046417 C 89.57861328 94.05377197 90.77993774 95.04470825 94.61940765 98.54685211 C 98.08167267 101.55632019 98.24707031 102.48940277 101.09580994 104.81317139 C 105.41715240 107.00321198 106.34814453 110.92123413 101.23127747 109.72554016 C 98.62458801 107.87035370 96.45878601 105.19348145 92.99243927 103.48435974 C 90.14926147 101.57649994 87.20905304 100.15202332 84.30677795 97.76871490 C 81.74707031 95.89328003 79.76391602 94.16150665 76.27589417 91.60008240" stroke-width="0.29150006" fill="rgb(236, 57, 31)" opacity="1.0" stroke="rgb(224, 120, 20)" stroke-opacity="1.0" stroke-linecap="round" stroke-linejoin="round"/>
    <path d="M 82.50962067 120.52040863 C 80.17863464 119.97344208 77.16578674 119.51039886 72.67236328 118.78904724 C 69.34436798 118.12649536 65.63606262 117.76596069 61.69773865 116.43685913 C 58.98695374 112.92571259 60.96804047 109.64768982 61.67299652 106.23118591 C 64.12475586 100.87295532 66.61253357 99.29920197 68.71012878 97.47646332 C 73.98881531 93.46969604 76.88406372 93.81643677 79.61953735 95.53668213 C 85.70350647 99.08850098 84.07270813 98.31811523 87.57212830 100.68455505 C 90.86770630 102.95436859 93.16348267 105.89926910 96.44224548 107.63623810 C 102.12103271 109.95410156 102.13800049 111.38074493 101.20362854 115.68322754 C 101.33309174 118.96812439 99.98489380 124.15843201 95.16207886 122.54997253 C 91.78200531 122.06067657 88.84735107 121.01686096 82.50962067 120.52040863" stroke-width="1.04555595" fill="rgb(251, 197, 3)" opacity="1.0" stroke="rgb(255, 253, 0)" stroke-opacity="0.41993415" stroke-linecap="round" stroke-linejoin="round"/>
    <path d="M 88.49221802 77.81967926 C 85.87677765 74.21751404 84.47817993 72.99601746 81.67484283 69.77761841 C 81.50907898 66.55321503 86.18432617 64.42694092 88.83506775 63.23595810 C 90.88255310 64.26184082 92.53382874 70.18568420 94.33078003 72.44387817 C 96.24131775 75.91668701 97.32898712 77.36127472 99.70697021 81.50889587 C 102.06393433 85.21632385 102.52324677 85.93302917 105.39279938 90.73390198 C 108.22395325 95.48321533 107.55201721 94.91241455 109.67654419 98.01559448 C 113.17755127 100.77252197 112.82178497 105.05015564 108.28568268 103.33381653 C 105.75191498 99.31131744 104.05996704 96.64454651 101.64100647 94.44701385 C 98.65647888 90.58435822 96.99059296 88.79962158 95.25750732 86.31557465 C 92.62306976 83.00819397 91.83025360 82.01559448 88.49221802 77.81967926" stroke-width="2.00000000" fill="rgb(235, 57, 32)" opacity="1.0" stroke="rgb(255, 255, 36)" stroke-opacity="0.32696697" stroke-linecap="round" stroke-linejoin="round"/>
    <path d="M 167.83081055 77.40098572 C 166.25868225 79.92909241 161.80595398 85.31478119 157.78918457 89.40879059 C 153.05978394 96.44247437 150.29598999 99.45539856 146.16517639 103.98152161 C 140.70036316 103.73043823 146.97517395 98.45327759 149.76972961 91.76194763 C 153.38905334 86.76284027 155.75022888 81.33994293 159.84413147 76.11280060 C 163.72863770 70.75677490 163.70274353 66.08811951 167.50917053 64.79374695 C 171.35261536 62.47756195 177.99691772 64.98716736 167.09239197 60.43027496 C 157.90266418 52.31742477 161.68025208 47.41990280 168.87683105 52.01879501 C 175.07736206 57.97475433 175.62908936 58.78263855 182.09411621 64.12638855 C 189.51107788 70.73402405 191.57142639 74.88609314 183.84210205 72.26080322 C 176.84185791 66.17967224 173.41979980 68.13188934 167.83081055 77.40098572" stroke-width="2.00000000" fill="rgb(213, 74, 45)" opacity="1.0" stroke="rgb(250, 208, 72)" stroke-opacity="0.45501933" stroke-linecap="round" stroke-linejoin="round"/>
    <path d="M 64.66031647 107.31182861 C 64.02418518 106.73686981 59.26641083 106.15580750 56.61735153 103.88710785 C 56.45873260 99.88529968 59.44203949 96.59828949 61.26770782 97.29154968 C 65.69211578 98.79615784 68.59522247 101.11084747 71.12255859 101.87197876 C 74.90534210 103.69438171 76.19576263 104.24887085 80.87076569 106.47967529 C 83.47026825 107.89023590 85.66173553 108.85199738 90.31615448 110.78219604 C 94.05686951 112.59101105 94.28479767 113.11082458 97.90119171 114.22466278 C 102.21434784 116.75534821 99.98638153 119.24245453 95.31246948 117.70761108 C 91.49444580 115.99892426 90.14749146 115.31083679 85.79894257 114.10346985 C 82.40001678 112.96790314 79.21587372 112.08853912 75.56770325 110.69586945 C 72.28266144 109.46916199 70.49493408 109.31153107 64.66031647 107.31182861" stroke-width="0.62690461" fill="rgb(237, 53, 30)" opacity="1.0" stroke="rgb(238, 140, 37)" stroke-opacity="0.59296733" stroke-linecap="round" stroke-linejoin="round"/>
    <path d="M 161.82856750 112.54113007 C 165.28292847 111.64082336 167.69723511 109.90220642 172.85559082 107.61656952 C 177.29426575 105.02835846 179.34582520 104.51227570 184.34310913 102.31001282 C 188.54460144 100.46443939 192.13916016 98.23755646 195.96099854 96.26248932 C 199.45782471 94.00244904 203.76213074 89.23274231 204.89866638 95.53434753 C 206.96690369 101.07044220 208.52859497 105.63639069 201.64395142 104.52906036 C 196.50059509 105.58224487 194.84913635 105.63472748 191.77403259 107.22786713 C 187.64860535 108.55045319 185.17990112 109.33452606 178.60717773 111.10891724 C 175.09359741 113.12308502 173.61231995 112.93719482 167.81063843 114.79131317 C 164.14476013 116.30048370 160.58012390 117.32950592 156.63595581 118.63959503 C 154.77737427 116.28070831 156.90719604 114.48436737 161.82856750 112.54113007" stroke-width="0.18088292" fill="rgb(223, 74, 52)" opacity="1.0" stroke="rgb(133, 67, 129)" stroke-opacity="0.21403177" stroke-linecap="round" stroke-linejoin="round"/>
    <path d="M 180.17831421 82.15881348 C 184.25219727 78.50127411 184.29124451 78.08022308 186.80364990 72.78004456 C 190.17536926 71.16432953 192.42233276 74.62467194 195.51673889 77.91864014 C 199.13435364 82.66821289 194.32711792 84.01434326 189.86643982 85.44415283 C 185.41030884 87.34937286 183.37899780 88.66263580 180.41192627 91.09476471 C 175.46644592 94.98451233 173.66183472 96.40867615 169.71081543 98.55471039 C 164.01553345 102.50528717 164.63789368 101.62768555 161.19059753 104.18590546 C 157.82267761 107.24087524 153.13801575 111.93453217 150.73507690 108.49533844 C 152.98377991 104.53163147 156.16459656 104.18213654 160.00216675 100.07366180 C 163.01684570 97.27983856 165.69003296 95.12272644 169.25621033 91.63516235 C 173.27088928 87.93700409 176.07348633 85.63473511 180.17831421 82.15881348" stroke-width="0.35162917" fill="rgb(220, 75, 50)" opacity="1.0" stroke="rgb(206, 18, 0)" stroke-opacity="0.26915044" stroke-linecap="round" stroke-linejoin="round"/>
    <path d="M 106.42568207 175.47296143 C 108.41912842 176.80450439 112.55709839 176.83706665 111.64540100 179.88816833 C 109.88246155 185.05938721 108.45818329 187.09931946 107.41590881 189.65397644 C 103.26173401 190.70330811 102.24114227 188.83026123 97.00437927 190.44842529 C 94.56355286 190.67660522 90.30506897 193.53520203 86.04848480 193.55619812 C 83.54689026 192.52270508 81.03810883 189.84553528 77.64137268 187.26977539 C 74.58429718 184.49475098 73.89002991 182.96141052 71.07109833 180.77297974 C 68.31636047 178.10386658 72.65296936 172.96768188 74.45987701 172.15115356 C 78.84017944 172.07366943 81.93717194 173.64793396 84.77378845 171.52020264 C 87.85004425 169.93942261 91.70687866 169.12362671 95.73517609 170.37669373 C 100.14581299 171.41716003 100.97411346 172.26075745 106.42568207 175.47296143" stroke-width="2.00000000" fill="rgb(46, 87, 75)" opacity="1.0" stroke="rgb(248, 245, 255)" stroke-opacity="0.71357024" stroke-linecap="round" stroke-linejoin="round"/>
    <path d="M 179.21119690 186.12260437 C 177.33404541 187.98649597 175.62234497 188.84107971 173.05010986 190.75607300 C 169.98880005 192.69140625 169.42364502 193.17102051 165.66467285 192.14155579 C 163.18167114 191.69511414 161.10607910 190.91522217 157.95532227 190.06405640 C 155.17803955 189.37640381 152.51834106 188.79025269 152.61825562 185.62600708 C 152.04953003 182.99908447 152.22155762 180.27450562 154.24830627 178.35531616 C 156.41970825 176.54631042 157.15689087 175.42988586 159.87869263 174.23588562 C 161.93257141 173.48219299 164.05133057 172.91799927 167.30725098 173.67646790 C 170.65391541 174.64033508 172.61891174 175.36558533 174.66207886 176.70286560 C 177.23973083 178.51362610 179.75425720 179.76698303 182.31233215 180.62800598 C 184.43844604 181.65150452 181.79055786 183.83416748 179.21119690 186.12260437" stroke-width="2.00000000" fill="rgb(76, 124, 70)" opacity="1.0" stroke="rgb(0, 0, 156)" stroke-opacity="0.0" stroke-linecap="round" stroke-linejoin="round"/>
    <path d="M 163.57653809 127.59519958 C 169.75363159 127.53184509 171.30670166 127.98915863 178.17802429 127.60019684 C 184.00369263 128.02037048 187.81651306 127.73004150 194.11082458 127.94608307 C 201.44473267 127.00079346 202.52113342 128.18701172 210.00842285 129.40841675 C 215.91265869 130.81269836 220.25398254 129.33570862 218.11582947 124.18211365 C 214.69543457 124.95097351 219.57162476 129.54302979 217.07899475 131.19136047 C 210.90565491 131.10902405 210.41529846 127.50286865 206.10157776 128.48631287 C 199.34544373 132.40286255 200.85690308 132.20442200 191.52941895 133.90330505 C 184.84417725 133.56739807 181.84442139 130.20484924 177.57281494 131.89465332 C 171.43766785 134.95578003 170.02746582 134.54266357 164.34487915 132.54106140 C 158.74269104 127.66513062 153.79067993 127.34493256 163.57653809 127.59519958" stroke-width="1.66012144" fill="rgb(2, 34, 71)" opacity="1.0" stroke="rgb(172, 255, 201)" stroke-opacity="0.17822121" stroke-linecap="round" stroke-linejoin="round"/>
    <path d="M 95.78650665 127.52834320 C 99.38524628 127.82557678 101.72747803 128.01567078 107.11534119 130.55038452 C 109.97042847 135.15237427 106.11197662 135.71316528 101.01893616 132.73025513 C 96.11046600 131.91352844 93.05890656 131.29490662 89.10160828 132.47233582 C 83.53025818 134.33647156 82.23210907 134.86492920 77.85215759 132.30813599 C 72.92127228 130.63128662 69.97763062 132.41130066 65.60346985 133.76324463 C 60.78282166 134.65261841 60.40115356 132.50064087 56.85436249 131.89906311 C 48.79315186 131.52572632 50.84454346 127.49591064 56.93260193 127.54178619 C 61.03653717 127.52159119 64.49181366 127.92912292 68.63803101 127.59127045 C 72.70439148 127.47167969 76.88486481 127.64114380 81.84342957 127.57278442 C 87.57130432 127.86211395 89.01263428 127.66792297 95.78650665 127.52834320" stroke-width="1.38057268" fill="rgb(10, 40, 80)" opacity="1.0" stroke="rgb(204, 255, 255)" stroke-opacity="0.22863686" stroke-linecap="round" stroke-linejoin="round"/>
    <path d="M 174.67086792 158.36985779 C 172.48916626 160.61087036 169.92356873 162.46524048 167.52964783 164.79841614 C 164.48234558 167.82373047 164.64402771 167.52410889 160.64817810 171.69180298 C 157.90043640 174.53753662 157.43362427 175.51451111 154.85157776 179.06602478 C 153.38952637 181.79583740 151.95411682 185.46461487 149.95909119 184.30194092 C 146.49555969 181.41355896 143.38758850 180.55453491 144.50122070 178.48144531 C 147.74613953 174.38591003 148.76716614 175.90612793 151.23081970 174.68629456 C 154.38139343 172.45594788 154.95378113 172.93112183 158.42703247 168.46696472 C 160.10530090 165.71226501 161.20021057 163.49313354 162.45916748 159.73207092 C 163.87896729 157.69409180 165.15904236 154.75965881 169.09893799 152.81181335 C 172.90509033 154.28514099 174.81323242 155.11395264 174.67086792 158.36985779" stroke-width="2.00000000" fill="rgb(0, 23, 69)" opacity="1.0" stroke="rgb(255, 255, 255)" stroke-opacity="0.5481465" stroke-linecap="round" stroke-linejoin="round"/>
    <path d="M 96.16842651 150.09849548 C 98.48681641 149.90162659 101.18149567 154.88044739 98.68656158 157.01582336 C 94.48731995 156.26400757 92.19886780 154.02844238 89.22798157 154.85890198 C 85.72313690 155.02143860 83.37928772 156.56063843 79.87577820 158.15776062 C 75.73072052 159.17515564 73.44454193 157.25119019 70.13178253 155.78146362 C 67.01914978 153.99017334 62.78147888 154.79968262 59.23011780 156.97010803 C 56.54232025 156.76199341 58.37615204 153.77420044 57.02973175 152.41926575 C 58.37200928 151.10578918 60.63270569 150.50405884 65.38836670 149.40138245 C 69.24308014 148.66767883 71.87586975 150.51261902 75.37798309 152.85597229 C 78.83904266 153.10568237 82.42497253 151.88842773 86.23149109 150.78396606 C 89.95368958 148.73606873 92.03702545 148.91906738 96.16842651 150.09849548" stroke-width="1.38450742" fill="rgb(1, 36, 81)" opacity="1.0" stroke="rgb(0, 34, 76)" stroke-opacity="1.0" stroke-linecap="round" stroke-linejoin="round"/>
    <path d="M 97.47459412 167.54780579 C 97.05721283 167.86260986 93.95919037 164.94248962 89.75929260 165.85398865 C 85.52068329 166.79734802 85.70269775 167.80442810 81.00348663 169.39178467 C 76.53658295 169.45303345 76.50934601 167.66122437 71.84783936 165.79315186 C 67.76898956 165.34202576 64.34799957 165.73013306 63.99552536 166.91633606 C 63.67322540 166.39584351 58.78554916 162.46908569 62.64389038 160.32307434 C 66.94632721 159.15853882 67.97951508 160.12841797 70.17824554 161.53555298 C 73.76445007 162.93443298 73.77546692 163.71257019 79.21793365 163.52377319 C 83.25267029 162.73138428 83.76293182 162.09167480 86.64093018 160.39035034 C 90.59060669 159.73530579 94.50253296 159.53115845 97.11584473 161.89791870 C 98.14894867 165.44009399 95.54885101 167.71949768 97.47459412 167.54780579" stroke-width="1.44658351" fill="rgb(4, 38, 84)" opacity="1.0" stroke="rgb(0, 32, 79)" stroke-opacity="1.0" stroke-linecap="round" stroke-linejoin="round"/>
    <path d="M 199.27470398 156.91647339 C 195.84898376 157.11407471 193.72294617 155.65510559 190.21566772 157.82769775 C 186.32217407 159.60533142 183.09599304 160.51002502 178.99688721 159.19775391 C 175.11451721 157.87962341 172.04653931 155.87538147 168.73315430 154.75140381 C 163.08100891 153.50250244 161.97973633 155.80369568 158.53797913 156.12312317 C 154.95945740 152.58801270 154.17237854 150.57572937 159.32798767 147.87353516 C 165.62658691 147.32832336 163.88166809 147.19146729 169.35504150 147.48066711 C 172.68374634 147.67417908 177.01861572 147.67028809 180.79689026 149.64286804 C 184.60801697 151.59539795 187.37727356 152.02638245 191.74205017 149.77516174 C 195.80654907 148.19476318 200.20248413 145.50184631 201.31056213 149.09469604 C 201.11524963 153.19816589 198.59350586 156.74420166 199.27470398 156.91647339" stroke-width="2.00000000" fill="rgb(10, 40, 86)" opacity="1.0" stroke="rgb(210, 255, 255)" stroke-opacity="0.36023697" stroke-linecap="round" stroke-linejoin="round"/>
    <path d="M 97.78536987 169.52650452 C 100.57899475 168.53698730 101.42902374 171.90097046 102.72969818 175.26165771 C 102.83588409 179.51626587 99.12164307 176.89865112 95.96777344 176.39224243 C 91.01516724 176.03637695 90.62313843 175.99659729 85.29824066 177.00555420 C 81.39998627 177.34411621 80.60328674 177.49734497 78.14282227 181.58486938 C 75.63882446 186.76397705 72.73807526 182.13601685 71.06193542 180.29136658 C 67.56942749 175.45277405 68.63204193 177.10189819 65.30338287 173.09800720 C 62.49824905 169.22645569 66.99053955 168.94207764 70.78745270 169.50225830 C 73.61566162 170.37014771 75.13176727 172.01515198 79.99549866 173.19999695 C 82.82186890 173.36508179 85.67003632 171.46470642 89.05987549 169.70489502 C 92.09706879 167.83096313 92.94351959 170.37130737 97.78536987 169.52650452" stroke-width="2.00000000" fill="rgb(9, 45, 81)" opacity="1.0" stroke="rgb(254, 255, 255)" stroke-opacity="0.26237243" stroke-linecap="round" stroke-linejoin="round"/>
    <path d="M 97.38182068 145.67030334 C 94.87959290 144.56872559 91.28980255 143.66596985 87.09110260 144.88717651 C 82.56441498 146.17344666 81.60941315 148.55128479 76.10127258 147.02917480 C 72.44595337 145.46539307 70.03803253 143.47409058 64.92755890 144.14315796 C 60.21947098 145.03346252 56.35232925 146.99465942 55.98703003 148.16229248 C 55.61493683 145.94113159 52.34196472 140.36593628 56.90973663 142.66719055 C 61.47976303 143.78152466 61.96844482 145.09324646 66.04063416 144.20143127 C 69.72705841 142.31823730 71.06450653 141.01286316 76.10839081 142.38577271 C 80.17007446 143.76826477 82.76973724 145.44262695 88.18975830 142.81518555 C 92.55873871 141.72866821 95.73600006 140.12074280 100.39385223 140.72171021 C 103.36520386 142.78407288 103.70838928 148.77981567 97.38182068 145.67030334" stroke-width="1.53040707" fill="rgb(0, 33, 80)" opacity="1.0" stroke="rgb(1, 37, 83)" stroke-opacity="0.9910854" stroke-linecap="round" stroke-linejoin="round"/>
    <path d="M 71.77899170 134.58534241 C 74.71022034 134.52078247 77.13283539 135.57872009 81.01445007 136.69281006 C 84.82525635 136.74444580 85.31584930 137.61972046 91.48854828 134.58132935 C 96.85832214 134.27163696 99.49949646 132.70600891 102.54478455 135.76739502 C 99.27903748 138.86404419 96.67870331 136.83872986 90.11698914 137.44252014 C 85.86869812 138.22447205 84.88252258 140.55139160 79.86724091 138.52293396 C 74.72938538 137.42373657 73.86756134 135.34822083 69.92586517 136.94332886 C 66.08315277 138.93505859 63.36798477 140.27809143 59.67092133 138.37184143 C 56.46300507 136.88447571 55.81459808 137.45530701 53.76995087 136.58766174 C 52.11438751 132.03131104 57.49321747 136.24475098 61.45143127 136.70370483 C 67.61406708 137.02474976 67.97388458 136.52348328 71.77899170 134.58534241" stroke-width="1.58034730" fill="rgb(6, 35, 85)" opacity="1.0" stroke="rgb(0, 36, 75)" stroke-opacity="0.9437871" stroke-linecap="round" stroke-linejoin="round"/>
    <path d="M 200.12635803 145.97000122 C 196.95031738 145.33331299 194.34913635 145.59881592 191.27751160 147.87501526 C 187.95817566 149.57136536 184.29542542 149.45977783 180.98735046 147.90966797 C 178.26010132 145.51232910 175.12117004 145.33930969 171.20776367 146.26860046 C 167.28958130 147.06304932 163.72729492 150.99754333 161.22880554 147.50079346 C 160.09800720 145.33821106 158.63157654 138.06059265 164.12965393 139.89942932 C 168.40980530 141.08189392 167.88862610 142.32467651 172.39245605 142.23910522 C 176.11790466 141.32179260 177.81677246 139.38499451 182.78515625 140.39840698 C 186.47575378 141.54754639 188.22123718 143.78814697 192.88233948 142.23751831 C 196.55131531 140.92735291 200.15350342 139.03897095 202.97607422 140.76655579 C 203.59974670 143.85581970 202.19677734 147.57650757 200.12635803 145.97000122" stroke-width="1.94274533" fill="rgb(7, 36, 79)" opacity="1.0" stroke="rgb(240, 255, 255)" stroke-opacity="0.5406973" stroke-linecap="round" stroke-linejoin="round"/>
    <path d="M 196.00831604 167.97506714 C 193.72958374 168.46812439 190.55397034 172.80593872 187.75476074 176.27653503 C 185.32807922 180.27996826 182.95188904 184.20349121 178.76875305 180.80197144 C 175.15299988 177.78150940 172.03491211 175.54618835 167.16177368 175.75312805 C 160.22047424 175.88418579 158.26414490 176.64198303 153.91101074 178.62054443 C 148.89263916 179.88304138 148.92993164 174.69839478 155.29792786 172.53085327 C 160.87464905 171.14193726 161.22421265 171.37207031 165.49032593 169.92660522 C 170.83290100 168.58789062 170.32289124 168.90234375 176.07345581 171.50071716 C 179.93421936 173.52934265 179.63465881 173.94606018 186.37950134 170.68116760 C 192.09782410 169.22990417 193.10481262 169.69960022 198.21520996 166.74363708 C 202.30967712 164.53063965 201.53251648 162.46444702 196.00831604 167.97506714" stroke-width="0.00000000" fill="rgb(6, 38, 81)" opacity="1.0" stroke="rgb(0, 187, 255)" stroke-opacity="0.0" stroke-linecap="round" stroke-linejoin="round"/>
    <path d="M 166.36763000 135.17053223 C 170.08850098 135.22969055 170.75122070 135.80793762 175.15498352 134.64961243 C 177.88224792 133.09431458 181.00529480 132.55384827 183.98654175 133.73948669 C 187.42672729 134.99238586 188.55297852 135.64678955 192.45373535 135.35778809 C 196.41770935 134.48832703 196.62135315 132.54441833 201.54501343 133.03135681 C 205.92672729 134.56768799 204.22814941 138.85519409 201.45066833 138.32435608 C 195.50752258 139.17341614 196.62884521 139.03479004 192.30346680 140.63401794 C 187.25204468 141.60748291 188.13491821 140.08949280 183.09419250 138.62290955 C 179.73764038 138.16894531 179.71017456 137.98675537 174.25891113 140.07168579 C 171.94252014 140.91127014 167.84901428 142.09069824 163.61782837 141.23028564 C 160.47825623 139.79370117 162.12301636 134.76107788 166.36763000 135.17053223" stroke-width="1.33340609" fill="rgb(0, 26, 70)" opacity="1.0" stroke="rgb(229, 255, 255)" stroke-opacity="0.40835005" stroke-linecap="round" stroke-linejoin="round"/>
    <path d="M 141.55932617 203.48356628 C 140.21664429 204.70433044 139.30372620 205.44413757 135.97628784 205.03227234 C 133.83117676 204.48420715 131.49969482 203.12994385 129.32125854 202.35820007 C 126.00173187 200.83706665 125.73323059 201.59504700 123.98078918 199.15794373 C 124.38929749 195.97322083 124.77040100 195.45297241 127.02694702 193.46165466 C 129.54980469 191.83842468 132.38853455 192.66465759 131.90579224 189.69389343 C 131.86547852 186.55610657 132.99485779 185.15498352 133.64312744 187.32708740 C 135.37654114 189.80766296 134.95379639 189.58770752 138.23898315 191.23614502 C 140.84733582 191.67254639 140.62380981 192.57861328 138.34457397 194.50317383 C 137.23509216 196.79119873 138.70898438 197.29562378 141.86250305 197.79318237 C 144.44158936 198.41983032 144.15007019 200.17408752 141.55932617 203.48356628" stroke-width="1.67889786" fill="rgb(0, 0, 77)" opacity="1.0" stroke="rgb(132, 80, 133)" stroke-opacity="1.0" stroke-linecap="round" stroke-linejoin="round"/>
    <path d="M 199.29319763 159.90176392 C 196.01310730 160.17507935 196.17098999 165.16000366 193.73207092 168.34205627 C 190.56411743 169.53132629 186.80662537 167.70812988 183.63056946 170.34750366 C 178.60662842 171.33737183 177.96400452 169.68090820 172.05999756 167.55180359 C 168.20356750 166.08403015 162.68838501 168.80351257 161.13331604 170.11541748 C 158.59819031 168.06373596 162.50108337 161.45986938 164.84049988 160.82496643 C 172.55023193 158.36770630 170.66271973 159.21069336 175.31056213 159.37492371 C 180.51266479 160.37292480 178.92382812 162.38221741 185.75756836 161.58746338 C 189.74874878 161.14999390 189.62084961 159.27389526 194.76412964 158.33964539 C 199.97535706 159.61109924 201.41981506 161.38461304 201.89479065 165.00059509 C 199.67999268 166.55673218 200.20152283 158.00799561 199.29319763 159.90176392" stroke-width="1.77073705" fill="rgb(0, 34, 77)" opacity="1.0" stroke="rgb(254, 255, 255)" stroke-opacity="0.5671502" stroke-linecap="round" stroke-linejoin="round"/>
    <path d="M 168.19662476 197.66217041 C 162.45115662 201.00125122 156.80999756 204.80885315 148.73728943 206.61599731 C 138.20376587 208.93182373 133.00247192 209.89012146 126.96852112 209.09811401 C 126.61918640 211.73106384 130.46965027 205.90336609 122.19792175 204.25994873 C 111.99829865 201.52911377 108.95166016 203.52178955 98.05741882 199.71363831 C 94.46183777 198.15335083 109.57877350 201.26477051 113.10789490 202.46226501 C 124.20869446 204.97193909 128.01965332 205.53102112 126.98597717 206.21119690 C 128.67491150 208.58326721 138.70263672 206.02401733 146.55270386 204.40368652 C 157.93179321 201.13836670 160.31793213 199.69290161 165.86988831 196.28019714 C 173.83987427 192.50866699 179.07818604 184.16348267 183.25205994 183.89283752 C 184.44078064 186.87359619 176.62147522 192.23614502 168.19662476 197.66217041" stroke-width="2.00000000" fill="rgb(255, 255, 255)" opacity="1.0" stroke="rgb(0, 30, 75)" stroke-opacity="0.8668098" stroke-linecap="round" stroke-linejoin="round"/>
    <path d="M 179.47872925 201.76722717 C 168.94480896 212.77993774 150.22431946 215.59909058 132.29986572 219.91038513 C 118.18408203 224.54655457 139.18490601 209.84883118 167.34152222 201.44734192 C 188.34295654 184.85571289 182.37155151 187.07316589 161.14736938 195.76625061 C 142.42849731 202.48980713 121.42742157 204.10302734 121.92015076 205.82144165 C 134.21867371 196.20046997 135.20205688 197.34719849 125.95472717 202.28100586 C 134.73281860 203.21243286 140.17738342 201.85321045 153.31243896 198.32920837 C 170.04454041 190.77326965 177.79267883 191.50338745 190.12707520 181.54298401 C 204.71092224 162.35276794 202.86631775 157.95037842 210.57566833 130.99890137 C 218.60795593 119.80832672 217.73217773 136.38841248 213.22457886 155.10827637 C 204.75314331 174.69535828 197.61566162 189.53395081 179.47872925 201.76722717" stroke-width="1.84166563" fill="rgb(234, 111, 20)" opacity="1.0" stroke="rgb(0, 13, 48)" stroke-opacity="0.618277" stroke-linecap="round" stroke-linejoin="round"/>
    <path d="M 131.65483093 202.17654419 C 126.90093994 202.76850891 126.26475525 202.00057983 121.03132629 200.66024780 C 116.46016693 198.63404846 115.66572571 198.34428406 114.89675140 202.70578003 C 112.64408875 207.02066040 111.00695038 205.18215942 105.85908508 203.31524658 C 101.85192871 201.83090210 99.79025269 201.72013855 94.68237305 199.15640259 C 89.55769348 196.36929321 91.43032074 194.69549561 97.21267700 196.09370422 C 102.22634888 197.47558594 101.98983002 198.90567017 106.73343658 197.78820801 C 110.55510712 196.68704224 112.19785309 195.63764954 117.64813232 195.65229797 C 121.97713470 196.62959290 122.10696411 199.06622314 125.17617035 195.08026123 C 128.79028320 193.34043884 131.17193604 192.79029846 135.23286438 194.79016113 C 138.11532593 199.36238098 136.97662354 201.08189392 131.65483093 202.17654419" stroke-width="1.98701882" fill="rgb(14, 45, 86)" opacity="1.0" stroke="rgb(235, 255, 255)" stroke-opacity="0.6389175" stroke-linecap="round" stroke-linejoin="round"/>
    <path d="M 143.32221985 190.14198303 C 145.09576416 188.26789856 145.77569580 187.41030884 148.24989319 184.30871582 C 150.16824341 181.59570312 153.20364380 180.03341675 156.12504578 180.55224609 C 155.25112915 182.65991211 151.23693848 185.38426208 155.20741272 186.76771545 C 160.03675842 188.16838074 162.12854004 186.86488342 166.30587769 188.94960022 C 165.75994873 190.99691772 161.00601196 189.50488281 157.44329834 189.06539917 C 153.22155762 188.94291687 150.05827332 188.12722778 149.93711853 191.35809326 C 148.37307739 195.43728638 149.16427612 194.94610596 145.08781433 193.93519592 C 142.06047058 193.50396729 143.36233521 192.12539673 138.70521545 194.02668762 C 133.94746399 194.15115356 130.03228760 195.70970154 131.67868042 192.57283020 C 136.82696533 191.47039795 138.95939636 191.97741699 143.32221985 190.14198303" stroke-width="0.86937982" fill="rgb(0, 22, 72)" opacity="1.0" stroke="rgb(0, 41, 74)" stroke-opacity="0.9346554" stroke-linecap="round" stroke-linejoin="round"/>
    <path d="M 128.17864990 198.20800781 C 126.99662781 198.22827148 126.16462708 197.99180603 124.40314484 197.36151123 C 122.93278503 196.63374329 122.00290680 195.92523193 120.59072876 195.04508972 C 118.70841980 194.24256897 118.29795837 194.23185730 116.16606903 193.63697815 C 114.93853760 193.25260925 112.89094543 193.22712708 111.61564636 192.02249146 C 111.81024170 190.23007202 112.62319183 190.66986084 114.89192963 190.36715698 C 116.78730774 190.33750916 116.98592377 190.30276489 118.53969574 190.15103149 C 120.68964386 189.95217896 120.18750763 189.81927490 122.32424927 188.69146729 C 123.32186890 187.60659790 122.86814880 189.87138367 124.11961365 191.31623840 C 125.02619934 192.50874329 126.39044189 193.54315186 127.25921631 194.58558655 C 128.56794739 196.00531006 129.66238403 197.21397400 128.17864990 198.20800781" stroke-width="0.16926904" fill="rgb(0, 33, 81)" opacity="1.0" stroke="rgb(0, 0, 48)" stroke-opacity="0.4707281" stroke-linecap="round" stroke-linejoin="round"/>
    <path d="M 142.74407959 191.84190369 C 148.49108887 194.96192932 148.95887756 191.68069458 155.08532715 190.74494934 C 160.37396240 192.73309326 165.00672913 193.93139648 170.42173767 192.33424377 C 172.16947937 189.67657471 165.09757996 195.07896423 168.30670166 197.14450073 C 174.28805542 196.43318176 176.76477051 190.98234558 182.17709351 186.72532654 C 190.53507996 182.28028870 183.12301636 189.20805359 179.79525757 191.29782104 C 174.18428040 197.13308716 171.39222717 196.64067078 171.87554932 198.52449036 C 170.65861511 197.35391235 165.05895996 195.45515442 159.58203125 196.59632874 C 151.94027710 196.03170776 155.10913086 197.51019287 149.63818359 196.80877686 C 143.67500305 194.75752258 138.08338928 194.17492676 133.71119690 191.49205017 C 129.36555481 185.08650208 134.99754333 189.86978149 142.74407959 191.84190369" stroke-width="2.00000000" fill="rgb(5, 33, 79)" opacity="1.0" stroke="rgb(255, 255, 255)" stroke-opacity="0.28507814" stroke-linecap="round" stroke-linejoin="round"/>
    <path d="M 116.87899017 192.97171021 C 118.89823914 193.74316406 115.11216736 193.31097412 112.08119202 193.67173767 C 108.96177673 194.80049133 106.30064392 195.82257080 103.72595978 196.45133972 C 100.43262482 196.63259888 98.47795105 195.75274658 96.35211945 196.10432434 C 92.77139282 197.92066956 92.93203735 198.32414246 90.03108978 195.63682556 C 88.02880096 194.91288757 83.07319641 192.31726074 84.56540680 191.17683411 C 89.31854248 191.02114868 88.01676941 192.93014526 91.96966553 193.26853943 C 95.83753967 192.62725830 95.73368835 192.14463806 100.38565826 191.15660095 C 104.16253662 190.73008728 105.15285492 192.39576721 106.32680511 188.96046448 C 108.74330902 185.45545959 111.37571716 183.11451721 112.41607666 186.80638123 C 111.94832611 189.77821350 112.64944458 192.79614258 116.87899017 192.97171021" stroke-width="0.16552098" fill="rgb(4, 35, 80)" opacity="1.0" stroke="rgb(0, 0, 66)" stroke-opacity="0.51117766" stroke-linecap="round" stroke-linejoin="round"/>
    <path d="M 108.55960083 146.42431641 C 107.81096649 146.97534180 105.70184326 149.03312683 104.22508240 150.99868774 C 103.28091431 152.53686523 100.62080383 156.16331482 99.69435120 154.08370972 C 99.41735840 152.05511475 99.67195892 149.11199951 99.57762146 147.27153015 C 99.41843414 143.84252930 99.21847534 142.44456482 101.47442627 140.66932678 C 102.61103058 139.87049866 103.67748260 137.56507874 105.58753967 135.54080200 C 107.25979614 133.89741516 108.76139069 134.03965759 110.25675964 133.49790955 C 112.15989685 132.43588257 112.90930176 129.48582458 114.94947815 129.38177490 C 116.63761902 129.79679871 117.00866699 132.17768860 117.07532501 134.10694885 C 116.22066498 136.75578308 114.87881470 138.47013855 113.90435028 140.21015930 C 112.26589966 142.48854065 111.54426575 143.30987549 108.55960083 146.42431641" stroke-width="2.00000000" fill="rgb(8, 40, 81)" opacity="1.0" stroke="rgb(255, 255, 255)" stroke-opacity="0.34687656" stroke-linecap="round" stroke-linejoin="round"/>
    <path d="M 163.53097534 136.61993408 C 159.53451538 134.31077576 155.82598877 132.19848633 148.72518921 134.42915344 C 144.91268921 137.21571350 139.03845215 138.20851135 132.96055603 140.40771484 C 127.84924316 142.58491516 124.82598114 144.54104614 121.23924255 150.29449463 C 117.77227783 154.98327637 113.60894775 164.34457397 111.50158691 155.78906250 C 113.60591125 149.67854309 114.96480560 149.29687500 120.26042175 141.20141602 C 122.91982269 136.33030701 122.66327667 132.38162231 121.96883392 127.96206665 C 128.86076355 126.44396210 129.85598755 128.32818604 138.97697449 127.58426666 C 146.04898071 126.56709290 150.88691711 128.48715210 155.33457947 127.18556213 C 161.70126343 127.84652710 162.74563599 129.96623230 167.15843201 135.06101990 C 172.25350952 140.07591248 172.08599854 143.27638245 163.53097534 136.61993408" stroke-width="2.00000000" fill="rgb(15, 41, 85)" opacity="1.0" stroke="rgb(255, 255, 255)" stroke-opacity="0.28615904" stroke-linecap="round" stroke-linejoin="round"/>
    <path d="M 137.36552429 46.01933670 C 137.14370728 44.73569489 137.51538086 42.94002151 136.93066406 41.48703766 C 136.30799866 39.95434570 135.55589294 38.45478058 136.43783569 37.56909943 C 138.00354004 38.84524918 138.16725159 39.04433441 139.20065308 40.87522888 C 140.24763489 42.83971405 140.87982178 44.08340836 140.08459473 45.16808319 C 140.01913452 46.23728561 140.22900391 47.25037384 139.18899536 48.88803864 C 137.67436218 51.37501526 137.55992126 50.67951202 136.71202087 51.82926559 C 136.10664368 53.41804123 136.15263367 53.31695175 134.88583374 55.24514771 C 134.01832581 57.10252380 134.77528381 54.93135452 134.15248108 53.16802979 C 133.40261841 51.77625656 132.93505859 50.09570694 134.08195496 49.29513931 C 135.56817627 48.56243515 137.42080688 48.52714920 137.36552429 46.01933670" stroke-width="1.69340587" fill="rgb(240, 139, 41)" opacity="1.0" stroke="rgb(85, 67, 57)" stroke-opacity="1.0" stroke-linecap="round" stroke-linejoin="round"/>
    <path d="M 151.40571594 139.58209229 C 150.22212219 138.14881897 149.84490967 136.86384583 150.60797119 134.58636475 C 152.03459167 132.89147949 154.63772583 136.20315552 156.67784119 134.06245422 C 159.69165039 132.60324097 160.66712952 133.08776855 164.84494019 134.51272583 C 167.34596252 134.99888611 170.65838623 134.87954712 173.74186707 135.64707947 C 178.19873047 136.62664795 172.15206909 137.31433105 170.82955933 136.55108643 C 165.33111572 136.30142212 165.85485840 134.65493774 162.12347412 135.72650146 C 159.19737244 138.67803955 159.39791870 138.53330994 154.84857178 140.55484009 C 151.98765564 142.04301453 150.40042114 141.89840698 145.94416809 143.10484314 C 142.34350586 144.14579773 137.40740967 144.05078125 141.17137146 142.10359192 C 145.75076294 140.95542908 149.30641174 141.01152039 151.40571594 139.58209229" stroke-width="1.80105317" fill="rgb(8, 38, 78)" opacity="1.0" stroke="rgb(213, 255, 255)" stroke-opacity="0.3245269" stroke-linecap="round" stroke-linejoin="round"/>
  </g>
</svg>
