<svg xmlns="http://www.w3.org/2000/svg" viewBox="0 0 256 256" height="256.0px" width="256.0px">
<path id="" fill="#ffffff" fill-opacity="1.0" stroke="#000000" stroke-width="0.0" stroke-opacity="1.0" stroke-linecap="round" stroke-linejoin="round"  filling="0" d="M386.560 128.000 C386.560 163.040 379.778 196.594 366.214 228.664 C353.127 259.605 334.665 286.994 310.830 310.830 C286.994 334.665 259.605 353.126 228.664 366.214 C196.594 379.778 163.040 386.560 128.000 386.560 C92.960 386.560 59.406 379.778 27.336 366.214 C-3.605 353.127 -30.994 334.665 -54.830 310.830 C-78.665 286.994 -97.126 259.605 -110.214 228.664 C-123.778 196.594 -130.560 163.040 -130.560 128.000 C-130.560 92.960 -123.778 59.406 -110.214 27.336 C-97.127 -3.605 -78.665 -30.994 -54.830 -54.830 C-30.994 -78.665 -3.605 -97.126 27.336 -110.214 C59.406 -123.778 92.960 -130.560 128.000 -130.560 C163.040 -130.560 196.594 -123.778 228.664 -110.214 C259.605 -97.126 286.994 -78.665 310.830 -54.830 C334.665 -30.994 353.127 -3.605 366.214 27.336 C379.778 59.406 386.560 92.960 386.560 128.000"></path>
<path id="" fill="#ffffff" fill-opacity="1.0" stroke="#000000" stroke-width="0.0" stroke-opacity="1.0" stroke-linecap="round" stroke-linejoin="round"  filling="0" d="M253.440 128.000 C253.440 110.957 250.163 94.688 243.610 79.194 C237.265 64.194 228.295 50.896 216.699 39.301 C205.104 27.705 191.806 18.735 176.806 12.390 C161.312 5.837 145.043 2.560 128.000 2.560 C110.957 2.560 94.688 5.837 79.194 12.390 C64.194 18.735 50.896 27.705 39.301 39.301 C27.705 50.896 18.735 64.194 12.390 79.194 C5.837 94.688 2.560 110.957 2.560 128.000 C2.560 145.043 5.837 161.312 12.390 176.806 C18.735 191.806 27.705 205.104 39.301 216.699 C50.896 228.295 64.194 237.265 79.194 243.610 C94.688 250.163 110.957 253.440 128.000 253.440 C145.043 253.440 161.312 250.163 176.806 243.610 C191.806 237.265 205.104 228.295 216.699 216.699 C228.295 205.104 237.265 191.806 243.610 176.806 C250.163 161.312 253.440 145.043 253.440 128.000"></path>
<path id="" fill="#fcb503" fill-opacity="1.0" stroke="#000000" stroke-width="0.0" stroke-opacity="1.0" stroke-linecap="round" stroke-linejoin="round"  filling="0" d="M208.768 128.256 C208.128 128.811 207.488 129.365 206.848 129.920 C191.317 130.005 175.787 130.091 160.256 130.176 C159.275 126.549 158.293 122.923 157.312 119.296 C156.885 119.637 156.459 119.979 156.032 120.320 C155.776 118.613 155.520 116.907 155.264 115.200 C152.235 112.427 149.205 109.653 146.176 106.880 C142.251 105.515 138.325 104.149 134.400 102.784 C130.987 103.040 127.573 103.296 124.160 103.552 C120.491 105.259 116.821 106.965 113.152 108.672 C111.061 110.848 108.971 113.024 106.880 115.200 C105.045 120.107 103.211 125.013 101.376 129.920 C86.187 129.920 70.997 129.920 55.808 129.920 C55.083 129.621 54.357 129.323 53.632 129.024 C53.461 127.915 53.291 126.805 53.120 125.696 C54.571 117.675 56.021 109.653 57.472 101.632 C59.008 98.645 60.544 95.659 62.080 92.672 C64.811 88.661 67.541 84.651 70.272 80.640 C75.179 75.733 80.085 70.827 84.992 65.920 C91.819 62.848 98.645 59.776 105.472 56.704 C105.472 56.277 105.472 55.851 105.472 55.424 C109.483 54.229 113.493 53.035 117.504 51.840 C119.979 54.912 122.453 57.984 124.928 61.056 C126.507 61.781 128.085 62.507 129.664 63.232 C129.963 64.640 130.261 66.048 130.560 67.456 C131.285 65.963 132.011 64.469 132.736 62.976 C134.656 61.909 136.576 60.843 138.496 59.776 C140.288 57.216 142.080 54.656 143.872 52.096 C144.640 52.608 145.408 53.120 146.176 53.632 C146.773 53.205 147.371 52.779 147.968 52.352 C148.651 53.205 149.333 54.059 150.016 54.912 C150.699 54.656 151.381 54.400 152.064 54.144 C154.795 54.912 157.525 55.680 160.256 56.448 C160.000 56.875 159.744 57.301 159.488 57.728 C165.461 60.459 171.435 63.189 177.408 65.920 C182.400 70.656 187.392 75.392 192.384 80.128 C195.541 86.016 198.699 91.904 201.856 97.792 C202.709 98.560 203.563 99.328 204.416 100.096 C205.867 109.483 207.317 118.869 208.768 128.256"></path>
<path id="" fill="#ee3724" fill-opacity="1.0" stroke="#000000" stroke-width="0.0" stroke-opacity="1.0" stroke-linecap="round" stroke-linejoin="round"  filling="0" d="M158.336 129.536 C157.952 129.835 157.568 130.133 157.184 130.432 C146.944 130.432 136.704 130.432 126.464 130.432 C125.355 129.067 124.245 127.701 123.136 126.336 C121.941 125.653 120.747 124.971 119.552 124.288 C118.784 124.117 118.016 123.947 117.248 123.776 C115.883 123.776 114.517 123.776 113.152 123.776 C112.043 124.117 110.933 124.459 109.824 124.800 C108.117 126.165 106.411 127.531 104.704 128.896 C104.576 128.768 104.448 128.640 104.320 128.512 C104.320 127.317 104.320 126.123 104.320 124.928 C104.747 123.392 105.173 121.856 105.600 120.320 C106.709 118.272 107.819 116.224 108.928 114.176 C110.336 112.683 111.744 111.189 113.152 109.696 C115.371 108.331 117.589 106.965 119.808 105.600 C121.771 105.003 123.733 104.405 125.696 103.808 C128.853 103.808 132.011 103.808 135.168 103.808 C136.619 104.064 138.069 104.320 139.520 104.576 C140.971 105.259 142.421 105.941 143.872 106.624 C145.749 107.904 147.627 109.184 149.504 110.464 C150.400 111.360 151.296 112.256 152.192 113.152 C153.045 114.347 153.899 115.541 154.752 116.736 C155.435 118.187 156.117 119.637 156.800 121.088 C156.800 121.429 156.800 121.771 156.800 122.112 C157.056 122.453 157.312 122.795 157.568 123.136 C157.653 124.245 157.739 125.355 157.824 126.464 C157.995 126.720 158.165 126.976 158.336 127.232 C158.336 128.000 158.336 128.768 158.336 129.536"></path>
<path id="" fill="#f47dab" fill-opacity="1.0" stroke="#000000" stroke-width="0.0" stroke-opacity="1.0" stroke-linecap="round" stroke-linejoin="round"  filling="0" d="M131.584 199.040 C131.157 199.040 130.731 199.040 130.304 199.040 C129.237 198.059 128.171 197.077 127.104 196.096 C126.549 195.115 125.995 194.133 125.440 193.152 C124.757 193.493 124.075 193.835 123.392 194.176 C122.453 194.347 121.515 194.517 120.576 194.688 C118.613 194.517 116.651 194.347 114.688 194.176 C114.731 193.707 114.773 193.237 114.816 192.768 C115.243 192.171 115.669 191.573 116.096 190.976 C114.859 190.421 113.621 189.867 112.384 189.312 C111.403 188.501 110.421 187.691 109.440 186.880 C109.909 186.581 110.379 186.283 110.848 185.984 C112.085 185.685 113.323 185.387 114.560 185.088 C114.475 184.661 114.389 184.235 114.304 183.808 C113.621 182.869 112.939 181.931 112.256 180.992 C111.659 179.456 111.061 177.920 110.464 176.384 C110.677 176.000 110.891 175.616 111.104 175.232 C112.555 175.488 114.005 175.744 115.456 176.000 C115.584 174.677 115.712 173.355 115.840 172.032 C116.139 171.733 116.437 171.435 116.736 171.136 C117.845 171.392 118.955 171.648 120.064 171.904 C120.533 170.752 121.003 169.600 121.472 168.448 C121.771 168.149 122.069 167.851 122.368 167.552 C122.795 167.637 123.221 167.723 123.648 167.808 C124.587 168.661 125.525 169.515 126.464 170.368 C126.720 170.368 126.976 170.368 127.232 170.368 C128.427 168.917 129.621 167.467 130.816 166.016 C131.371 166.400 131.925 166.784 132.480 167.168 C133.205 168.235 133.931 169.301 134.656 170.368 C134.997 170.368 135.339 170.368 135.680 170.368 C136.363 169.685 137.045 169.003 137.728 168.320 C138.325 168.064 138.923 167.808 139.520 167.552 C140.373 168.832 141.227 170.112 142.080 171.392 C143.019 171.392 143.957 171.392 144.896 171.392 C145.280 171.691 145.664 171.989 146.048 172.288 C146.261 173.440 146.475 174.592 146.688 175.744 C148.053 175.488 149.419 175.232 150.784 174.976 C151.083 175.445 151.381 175.915 151.680 176.384 C151.595 176.896 151.509 177.408 151.424 177.920 C150.059 180.139 148.693 182.357 147.328 184.576 C147.541 184.789 147.755 185.003 147.968 185.216 C149.376 185.685 150.784 186.155 152.192 186.624 C151.979 187.093 151.765 187.563 151.552 188.032 C149.632 189.013 147.712 189.995 145.792 190.976 C146.304 191.744 146.816 192.512 147.328 193.280 C147.285 193.579 147.243 193.877 147.200 194.176 C145.152 194.347 143.104 194.517 141.056 194.688 C140.203 194.517 139.349 194.347 138.496 194.176 C137.813 193.835 137.131 193.493 136.448 193.152 C135.893 194.133 135.339 195.115 134.784 196.096 C133.717 197.077 132.651 198.059 131.584 199.040"></path>
<path id="" fill="#ef3821" fill-opacity="1.0" stroke="#000000" stroke-width="0.0" stroke-opacity="1.0" stroke-linecap="round" stroke-linejoin="round"  filling="0" d="M131.584 100.224 C130.773 100.011 129.963 99.797 129.152 99.584 C129.152 97.963 129.152 96.341 129.152 94.720 C128.981 94.208 128.811 93.696 128.640 93.184 C128.725 92.587 128.811 91.989 128.896 91.392 C128.213 83.883 127.531 76.373 126.848 68.864 C126.848 67.243 126.848 65.621 126.848 64.000 C127.360 63.659 127.872 63.317 128.384 62.976 C127.403 62.507 126.421 62.037 125.440 61.568 C124.629 60.672 123.819 59.776 123.008 58.880 C120.960 55.040 118.912 51.200 116.864 47.360 C116.864 45.824 116.864 44.288 116.864 42.752 C117.205 41.984 117.547 41.216 117.888 40.448 C118.955 39.296 120.021 38.144 121.088 36.992 C122.027 36.651 122.965 36.309 123.904 35.968 C126.293 36.139 128.683 36.309 131.072 36.480 C131.925 36.309 132.779 36.139 133.632 35.968 C135.339 36.053 137.045 36.139 138.752 36.224 C139.435 36.480 140.117 36.736 140.800 36.992 C141.568 37.675 142.336 38.357 143.104 39.040 C143.744 40.192 144.384 41.344 145.024 42.496 C145.109 43.691 145.195 44.885 145.280 46.080 C144.768 47.616 144.256 49.152 143.744 50.688 C142.549 52.395 141.355 54.101 140.160 55.808 C139.904 56.576 139.648 57.344 139.392 58.112 C138.880 58.880 138.368 59.648 137.856 60.416 C136.491 61.269 135.125 62.123 133.760 62.976 C134.101 63.403 134.443 63.829 134.784 64.256 C134.699 68.437 134.613 72.619 134.528 76.800 C134.101 80.299 133.675 83.797 133.248 87.296 C133.077 91.392 132.907 95.488 132.736 99.584 C132.352 99.797 131.968 100.011 131.584 100.224"></path>
<path id="" fill="#f88a21" fill-opacity="1.0" stroke="#000000" stroke-width="0.0" stroke-opacity="1.0" stroke-linecap="round" stroke-linejoin="round"  filling="0" d="M129.280 69.504 C129.067 69.291 128.853 69.077 128.640 68.864 C128.896 68.181 129.152 67.499 129.408 66.816 C129.493 65.536 129.579 64.256 129.664 62.976 C129.195 62.763 128.725 62.549 128.256 62.336 C127.829 62.336 127.403 62.336 126.976 62.336 C126.379 61.995 125.781 61.653 125.184 61.312 C124.544 60.501 123.904 59.691 123.264 58.880 C122.752 57.771 122.240 56.661 121.728 55.552 C120.789 54.272 119.851 52.992 118.912 51.712 C118.315 50.603 117.717 49.493 117.120 48.384 C116.949 47.531 116.779 46.677 116.608 45.824 C116.693 44.715 116.779 43.605 116.864 42.496 C117.461 41.472 118.059 40.448 118.656 39.424 C119.381 38.699 120.107 37.973 120.832 37.248 C121.941 36.821 123.051 36.395 124.160 35.968 C125.525 35.968 126.891 35.968 128.256 35.968 C129.024 36.139 129.792 36.309 130.560 36.480 C131.669 36.309 132.779 36.139 133.888 35.968 C135.509 36.053 137.131 36.139 138.752 36.224 C139.691 36.736 140.629 37.248 141.568 37.760 C142.549 38.912 143.531 40.064 144.512 41.216 C144.768 42.240 145.024 43.264 145.280 44.288 C145.195 45.483 145.109 46.677 145.024 47.872 C144.768 48.469 144.512 49.067 144.256 49.664 C143.232 51.115 142.208 52.565 141.184 54.016 C140.416 55.552 139.648 57.088 138.880 58.624 C138.453 59.221 138.027 59.819 137.600 60.416 C136.875 60.971 136.149 61.525 135.424 62.080 C134.485 62.251 133.547 62.421 132.608 62.592 C132.480 62.720 132.352 62.848 132.224 62.976 C132.395 64.853 132.565 66.731 132.736 68.608 C132.821 68.693 132.907 68.779 132.992 68.864 C132.693 68.992 132.395 69.120 132.096 69.248 C131.925 69.077 131.755 68.907 131.584 68.736 C131.413 68.736 131.243 68.736 131.072 68.736 C130.475 68.992 129.877 69.248 129.280 69.504"></path>
<path id="" fill="#fdd102" fill-opacity="1.0" stroke="#000000" stroke-width="0.0" stroke-opacity="1.0" stroke-linecap="round" stroke-linejoin="round"  filling="0" d="M135.680 101.760 C134.784 101.205 133.888 100.651 132.992 100.096 C133.163 96.768 133.333 93.440 133.504 90.112 C133.675 89.173 133.845 88.235 134.016 87.296 C134.101 84.821 134.187 82.347 134.272 79.872 C134.357 79.787 134.443 79.701 134.528 79.616 C134.613 75.349 134.699 71.083 134.784 66.816 C134.869 66.731 134.955 66.645 135.040 66.560 C135.040 65.451 135.040 64.341 135.040 63.232 C134.955 63.147 134.869 63.061 134.784 62.976 C135.680 62.336 136.576 61.696 137.472 61.056 C137.856 60.928 138.240 60.800 138.624 60.672 C138.880 59.819 139.136 58.965 139.392 58.112 C140.117 57.131 140.843 56.149 141.568 55.168 C141.995 55.083 142.421 54.997 142.848 54.912 C143.019 54.741 143.189 54.571 143.360 54.400 C144.043 54.400 144.725 54.400 145.408 54.400 C146.688 54.741 147.968 55.083 149.248 55.424 C149.291 55.893 149.333 56.363 149.376 56.832 C148.949 58.027 148.523 59.221 148.096 60.416 C148.011 61.269 147.925 62.123 147.840 62.976 C147.157 65.536 146.475 68.096 145.792 70.656 C145.792 71.083 145.792 71.509 145.792 71.936 C145.280 73.387 144.768 74.837 144.256 76.288 C144.256 76.629 144.256 76.971 144.256 77.312 C144.085 77.568 143.915 77.824 143.744 78.080 C143.573 79.360 143.403 80.640 143.232 81.920 C142.720 83.627 142.208 85.333 141.696 87.040 C141.696 87.467 141.696 87.893 141.696 88.320 C141.355 89.259 141.013 90.197 140.672 91.136 C140.672 91.563 140.672 91.989 140.672 92.416 C140.331 93.269 139.989 94.123 139.648 94.976 C139.648 95.488 139.648 96.000 139.648 96.512 C139.307 97.536 138.965 98.560 138.624 99.584 C138.624 100.011 138.624 100.437 138.624 100.864 C138.240 101.163 137.856 101.461 137.472 101.760 C136.875 101.760 136.277 101.760 135.680 101.760"></path>
<path id="" fill="#fdd102" fill-opacity="1.0" stroke="#000000" stroke-width="0.0" stroke-opacity="1.0" stroke-linecap="round" stroke-linejoin="round"  filling="0" d="M125.696 101.504 C125.013 101.333 124.331 101.163 123.648 100.992 C123.435 100.693 123.221 100.395 123.008 100.096 C122.752 99.072 122.496 98.048 122.240 97.024 C122.240 96.512 122.240 96.000 122.240 95.488 C122.069 95.147 121.899 94.805 121.728 94.464 C121.387 93.099 121.045 91.733 120.704 90.368 C120.704 89.941 120.704 89.515 120.704 89.088 C119.936 86.357 119.168 83.627 118.400 80.896 C118.315 80.043 118.229 79.189 118.144 78.336 C116.864 73.557 115.584 68.779 114.304 64.000 C114.133 62.464 113.963 60.928 113.792 59.392 C113.621 59.221 113.451 59.051 113.280 58.880 C113.280 58.539 113.280 58.197 113.280 57.856 C113.109 57.600 112.939 57.344 112.768 57.088 C112.811 56.533 112.853 55.979 112.896 55.424 C113.237 55.424 113.579 55.424 113.920 55.424 C114.176 55.253 114.432 55.083 114.688 54.912 C115.712 54.656 116.736 54.400 117.760 54.144 C118.613 54.400 119.467 54.656 120.320 54.912 C121.216 56.320 122.112 57.728 123.008 59.136 C123.008 59.733 123.008 60.331 123.008 60.928 C123.136 61.056 123.264 61.184 123.392 61.312 C123.733 61.227 124.075 61.141 124.416 61.056 C125.227 61.696 126.037 62.336 126.848 62.976 C126.763 63.744 126.677 64.512 126.592 65.280 C126.763 66.133 126.933 66.987 127.104 67.840 C127.189 72.363 127.275 76.885 127.360 81.408 C127.872 86.528 128.384 91.648 128.896 96.768 C128.811 97.024 128.725 97.280 128.640 97.536 C128.725 98.389 128.811 99.243 128.896 100.096 C127.829 100.565 126.763 101.035 125.696 101.504"></path>
<path id="" fill="#ef3823" fill-opacity="1.0" stroke="#000000" stroke-width="0.0" stroke-opacity="1.0" stroke-linecap="round" stroke-linejoin="round"  filling="0" d="M121.344 101.760 C120.917 101.760 120.491 101.760 120.064 101.760 C119.595 100.864 119.125 99.968 118.656 99.072 C113.621 85.675 108.587 72.277 103.552 58.880 C103.680 58.581 103.808 58.283 103.936 57.984 C104.448 57.728 104.960 57.472 105.472 57.216 C107.179 56.704 108.885 56.192 110.592 55.680 C111.019 55.680 111.445 55.680 111.872 55.680 C112.171 56.320 112.469 56.960 112.768 57.600 C115.499 68.523 118.229 79.445 120.960 90.368 C121.472 92.843 121.984 95.317 122.496 97.792 C122.667 98.133 122.837 98.475 123.008 98.816 C123.093 99.499 123.179 100.181 123.264 100.864 C122.624 101.163 121.984 101.461 121.344 101.760"></path>
<path id="" fill="#ef3723" fill-opacity="1.0" stroke="#000000" stroke-width="0.0" stroke-opacity="1.0" stroke-linecap="round" stroke-linejoin="round"  filling="0" d="M140.544 101.760 C139.904 101.461 139.264 101.163 138.624 100.864 C138.709 100.096 138.795 99.328 138.880 98.560 C139.221 97.621 139.563 96.683 139.904 95.744 C140.160 94.293 140.416 92.843 140.672 91.392 C140.928 90.709 141.184 90.027 141.440 89.344 C141.440 89.003 141.440 88.661 141.440 88.320 C141.611 87.979 141.781 87.637 141.952 87.296 C141.952 86.955 141.952 86.613 141.952 86.272 C142.123 85.931 142.293 85.589 142.464 85.248 C142.464 84.907 142.464 84.565 142.464 84.224 C142.635 83.883 142.805 83.541 142.976 83.200 C142.976 82.859 142.976 82.517 142.976 82.176 C143.317 81.152 143.659 80.128 144.000 79.104 C144.000 78.763 144.000 78.421 144.000 78.080 C145.707 71.339 147.413 64.597 149.120 57.856 C149.419 57.131 149.717 56.405 150.016 55.680 C150.528 55.680 151.040 55.680 151.552 55.680 C153.173 56.192 154.795 56.704 156.416 57.216 C156.928 57.472 157.440 57.728 157.952 57.984 C158.080 58.283 158.208 58.581 158.336 58.880 C153.131 72.704 147.925 86.528 142.720 100.352 C142.421 100.821 142.123 101.291 141.824 101.760 C141.397 101.760 140.971 101.760 140.544 101.760"></path>
<path id="" fill="#ee3723" fill-opacity="1.0" stroke="#000000" stroke-width="0.0" stroke-opacity="1.0" stroke-linecap="round" stroke-linejoin="round"  filling="0" d="M105.984 112.768 C105.643 112.768 105.301 112.768 104.960 112.768 C92.757 104.235 80.555 95.701 68.352 87.168 C68.053 86.869 67.755 86.571 67.456 86.272 C68.565 84.651 69.675 83.029 70.784 81.408 C71.424 80.853 72.064 80.299 72.704 79.744 C72.875 79.744 73.045 79.744 73.216 79.744 C84.139 89.387 95.061 99.029 105.984 108.672 C106.453 109.397 106.923 110.123 107.392 110.848 C106.923 111.488 106.453 112.128 105.984 112.768"></path>
<path id="" fill="#ee3723" fill-opacity="1.0" stroke="#000000" stroke-width="0.0" stroke-opacity="1.0" stroke-linecap="round" stroke-linejoin="round"  filling="0" d="M98.176 120.064 C98.176 119.979 98.176 119.893 98.176 119.808 C98.261 119.723 98.347 119.637 98.432 119.552 C98.432 119.467 98.432 119.381 98.432 119.296 C98.475 119.253 98.517 119.211 98.560 119.168 C98.645 119.168 98.731 119.168 98.816 119.168 C98.901 119.253 98.987 119.339 99.072 119.424 C99.499 119.424 99.925 119.424 100.352 119.424 C100.565 119.211 100.779 118.997 100.992 118.784 C100.992 118.699 100.992 118.613 100.992 118.528 C101.120 118.400 101.248 118.272 101.376 118.144 C101.547 118.144 101.717 118.144 101.888 118.144 C101.931 118.187 101.973 118.229 102.016 118.272 C102.016 118.443 102.016 118.613 102.016 118.784 C102.101 118.869 102.187 118.955 102.272 119.040 C102.272 119.125 102.272 119.211 102.272 119.296 C102.187 119.381 102.101 119.467 102.016 119.552 C102.016 119.808 102.016 120.064 102.016 120.320 C101.888 120.448 101.760 120.576 101.632 120.704 C101.461 120.704 101.291 120.704 101.120 120.704 C101.035 120.789 100.949 120.875 100.864 120.960 C100.779 120.875 100.693 120.789 100.608 120.704 C100.437 120.704 100.267 120.704 100.096 120.704 C100.011 120.619 99.925 120.533 99.840 120.448 C99.584 120.448 99.328 120.448 99.072 120.448 C98.987 120.363 98.901 120.277 98.816 120.192 C98.645 120.192 98.475 120.192 98.304 120.192 C98.261 120.149 98.219 120.107 98.176 120.064"></path>
<path id="" fill="#ee3823" fill-opacity="1.0" stroke="#000000" stroke-width="0.0" stroke-opacity="1.0" stroke-linecap="round" stroke-linejoin="round"  filling="0" d="M112.128 106.368 C111.829 106.155 111.531 105.941 111.232 105.728 C101.931 93.867 92.629 82.005 83.328 70.144 C83.413 69.888 83.499 69.632 83.584 69.376 C84.053 68.907 84.523 68.437 84.992 67.968 C86.443 66.944 87.893 65.920 89.344 64.896 C89.685 64.811 90.027 64.725 90.368 64.640 C90.667 64.939 90.965 65.237 91.264 65.536 C98.773 77.909 106.283 90.283 113.792 102.656 C114.048 103.339 114.304 104.021 114.560 104.704 C113.749 105.259 112.939 105.813 112.128 106.368"></path>
<path id="" fill="#ef3623" fill-opacity="1.0" stroke="#000000" stroke-width="0.0" stroke-opacity="1.0" stroke-linecap="round" stroke-linejoin="round"  filling="0" d="M149.248 106.112 C148.693 105.643 148.139 105.173 147.584 104.704 C147.584 104.363 147.584 104.021 147.584 103.680 C155.264 90.965 162.944 78.251 170.624 65.536 C170.923 65.237 171.221 64.939 171.520 64.640 C171.947 64.811 172.373 64.981 172.800 65.152 C174.165 66.091 175.531 67.029 176.896 67.968 C177.365 68.437 177.835 68.907 178.304 69.376 C178.389 69.632 178.475 69.888 178.560 70.144 C178.048 70.656 177.536 71.168 177.024 71.680 C175.573 73.728 174.123 75.776 172.672 77.824 C171.563 79.104 170.453 80.384 169.344 81.664 C167.979 83.541 166.613 85.419 165.248 87.296 C164.736 87.808 164.224 88.320 163.712 88.832 C159.872 93.867 156.032 98.901 152.192 103.936 C151.467 104.661 150.741 105.387 150.016 106.112 C149.760 106.112 149.504 106.112 149.248 106.112"></path>
<path id="" fill="#ee3723" fill-opacity="1.0" stroke="#000000" stroke-width="0.0" stroke-opacity="1.0" stroke-linecap="round" stroke-linejoin="round"  filling="0" d="M102.016 120.576 C101.632 120.789 101.248 121.003 100.864 121.216 C99.755 120.789 98.645 120.363 97.536 119.936 C91.989 118.229 86.443 116.523 80.896 114.816 C79.957 114.389 79.019 113.963 78.080 113.536 C75.179 112.683 72.277 111.829 69.376 110.976 C68.437 110.549 67.499 110.123 66.560 109.696 C63.573 108.757 60.587 107.819 57.600 106.880 C57.472 106.496 57.344 106.112 57.216 105.728 C57.728 104.277 58.240 102.827 58.752 101.376 C59.221 100.565 59.691 99.755 60.160 98.944 C60.416 98.859 60.672 98.773 60.928 98.688 C74.667 105.088 88.405 111.488 102.144 117.888 C102.272 118.016 102.400 118.144 102.528 118.272 C102.528 118.613 102.528 118.955 102.528 119.296 C102.357 119.723 102.187 120.149 102.016 120.576"></path>
<path id="" fill="#ee3723" fill-opacity="1.0" stroke="#000000" stroke-width="0.0" stroke-opacity="1.0" stroke-linecap="round" stroke-linejoin="round"  filling="0" d="M159.872 120.576 C159.701 120.149 159.531 119.723 159.360 119.296 C159.360 118.955 159.360 118.613 159.360 118.272 C159.488 118.144 159.616 118.016 159.744 117.888 C173.483 111.488 187.221 105.088 200.960 98.688 C201.344 98.901 201.728 99.115 202.112 99.328 C202.709 100.608 203.307 101.888 203.904 103.168 C204.160 103.936 204.416 104.704 204.672 105.472 C204.672 105.813 204.672 106.155 204.672 106.496 C204.544 106.624 204.416 106.752 204.288 106.880 C193.621 110.464 182.955 114.048 172.288 117.632 C170.155 118.229 168.021 118.827 165.888 119.424 C164.352 120.021 162.816 120.619 161.280 121.216 C161.024 121.216 160.768 121.216 160.512 121.216 C160.299 121.003 160.085 120.789 159.872 120.576"></path>
<path id="" fill="#ee3723" fill-opacity="1.0" stroke="#000000" stroke-width="0.0" stroke-opacity="1.0" stroke-linecap="round" stroke-linejoin="round"  filling="0" d="M155.008 111.616 C154.923 111.275 154.837 110.933 154.752 110.592 C154.923 110.251 155.093 109.909 155.264 109.568 C155.989 108.843 156.715 108.117 157.440 107.392 C167.851 98.176 178.261 88.960 188.672 79.744 C189.013 79.829 189.355 79.915 189.696 80.000 C190.165 80.469 190.635 80.939 191.104 81.408 C192.128 82.773 193.152 84.139 194.176 85.504 C194.261 85.760 194.347 86.016 194.432 86.272 C194.133 86.571 193.835 86.869 193.536 87.168 C182.699 94.763 171.861 102.357 161.024 109.952 C159.488 110.891 157.952 111.829 156.416 112.768 C155.947 112.384 155.477 112.000 155.008 111.616"></path>
<path id="" fill="#68a049" fill-opacity="1.0" stroke="#000000" stroke-width="0.0" stroke-opacity="1.0" stroke-linecap="round" stroke-linejoin="round"  filling="0" d="M106.112 183.296 C106.112 183.467 106.112 183.637 106.112 183.808 C105.984 183.936 105.856 184.064 105.728 184.192 C104.533 184.363 103.339 184.533 102.144 184.704 C101.717 184.875 101.291 185.045 100.864 185.216 C100.523 185.216 100.181 185.216 99.840 185.216 C99.627 185.344 99.413 185.472 99.200 185.600 C99.413 185.899 99.627 186.197 99.840 186.496 C100.011 186.496 100.181 186.496 100.352 186.496 C100.693 186.667 101.035 186.837 101.376 187.008 C101.632 187.008 101.888 187.008 102.144 187.008 C102.400 187.179 102.656 187.349 102.912 187.520 C103.339 187.605 103.765 187.691 104.192 187.776 C104.405 188.075 104.619 188.373 104.832 188.672 C104.448 189.056 104.064 189.440 103.680 189.824 C103.509 189.824 103.339 189.824 103.168 189.824 C102.571 190.080 101.973 190.336 101.376 190.592 C101.120 190.592 100.864 190.592 100.608 190.592 C100.181 190.763 99.755 190.933 99.328 191.104 C98.816 191.104 98.304 191.104 97.792 191.104 C97.707 191.189 97.621 191.275 97.536 191.360 C95.061 191.360 92.587 191.360 90.112 191.360 C90.027 191.275 89.941 191.189 89.856 191.104 C89.344 191.104 88.832 191.104 88.320 191.104 C88.235 191.019 88.149 190.933 88.064 190.848 C87.296 190.763 86.528 190.677 85.760 190.592 C85.675 190.507 85.589 190.421 85.504 190.336 C84.821 190.165 84.139 189.995 83.456 189.824 C82.603 189.397 81.749 188.971 80.896 188.544 C80.341 187.904 79.787 187.264 79.232 186.624 C79.232 186.027 79.232 185.429 79.232 184.832 C79.787 184.192 80.341 183.552 80.896 182.912 C81.920 182.400 82.944 181.888 83.968 181.376 C84.224 181.376 84.480 181.376 84.736 181.376 C85.419 181.120 86.101 180.864 86.784 180.608 C87.296 180.608 87.808 180.608 88.320 180.608 C88.405 180.523 88.491 180.437 88.576 180.352 C89.088 180.352 89.600 180.352 90.112 180.352 C90.197 180.267 90.283 180.181 90.368 180.096 C92.757 180.096 95.147 180.096 97.536 180.096 C97.621 180.181 97.707 180.267 97.792 180.352 C98.731 180.437 99.669 180.523 100.608 180.608 C100.693 180.693 100.779 180.779 100.864 180.864 C101.120 180.864 101.376 180.864 101.632 180.864 C101.717 180.949 101.803 181.035 101.888 181.120 C102.144 181.120 102.400 181.120 102.656 181.120 C102.912 181.291 103.168 181.461 103.424 181.632 C103.595 181.632 103.765 181.632 103.936 181.632 C104.107 181.803 104.277 181.973 104.448 182.144 C104.704 182.229 104.960 182.315 105.216 182.400 C105.515 182.699 105.813 182.997 106.112 183.296"></path>
<path id="" fill="#689f48" fill-opacity="1.0" stroke="#000000" stroke-width="0.0" stroke-opacity="1.0" stroke-linecap="round" stroke-linejoin="round"  filling="0" d="M182.912 186.368 C182.656 186.795 182.400 187.221 182.144 187.648 C181.675 188.032 181.205 188.416 180.736 188.800 C180.053 189.141 179.371 189.483 178.688 189.824 C178.176 189.909 177.664 189.995 177.152 190.080 C176.811 190.251 176.469 190.421 176.128 190.592 C175.360 190.677 174.592 190.763 173.824 190.848 C173.739 190.933 173.653 191.019 173.568 191.104 C173.141 191.104 172.715 191.104 172.288 191.104 C172.203 191.189 172.117 191.275 172.032 191.360 C169.472 191.360 166.912 191.360 164.352 191.360 C164.267 191.275 164.181 191.189 164.096 191.104 C163.243 191.019 162.389 190.933 161.536 190.848 C161.451 190.763 161.365 190.677 161.280 190.592 C160.341 190.336 159.403 190.080 158.464 189.824 C157.995 189.440 157.525 189.056 157.056 188.672 C157.141 188.501 157.227 188.331 157.312 188.160 C157.525 188.032 157.739 187.904 157.952 187.776 C158.123 187.776 158.293 187.776 158.464 187.776 C158.720 187.605 158.976 187.435 159.232 187.264 C159.488 187.264 159.744 187.264 160.000 187.264 C160.341 187.093 160.683 186.923 161.024 186.752 C161.280 186.752 161.536 186.752 161.792 186.752 C162.133 186.581 162.475 186.411 162.816 186.240 C162.944 186.112 163.072 185.984 163.200 185.856 C163.072 185.728 162.944 185.600 162.816 185.472 C162.389 185.387 161.963 185.301 161.536 185.216 C161.451 185.131 161.365 185.045 161.280 184.960 C160.512 184.875 159.744 184.789 158.976 184.704 C158.891 184.619 158.805 184.533 158.720 184.448 C158.208 184.448 157.696 184.448 157.184 184.448 C157.099 184.363 157.013 184.277 156.928 184.192 C156.757 184.192 156.587 184.192 156.416 184.192 C156.203 183.979 155.989 183.765 155.776 183.552 C156.075 183.168 156.373 182.784 156.672 182.400 C157.611 181.973 158.549 181.547 159.488 181.120 C160.000 181.035 160.512 180.949 161.024 180.864 C161.109 180.779 161.195 180.693 161.280 180.608 C162.304 180.523 163.328 180.437 164.352 180.352 C164.437 180.267 164.523 180.181 164.608 180.096 C166.912 180.096 169.216 180.096 171.520 180.096 C171.605 180.181 171.691 180.267 171.776 180.352 C172.288 180.352 172.800 180.352 173.312 180.352 C173.397 180.437 173.483 180.523 173.568 180.608 C174.421 180.693 175.275 180.779 176.128 180.864 C176.469 181.035 176.811 181.205 177.152 181.376 C177.408 181.376 177.664 181.376 177.920 181.376 C178.859 181.803 179.797 182.229 180.736 182.656 C181.376 183.296 182.016 183.936 182.656 184.576 C182.741 185.173 182.827 185.771 182.912 186.368"></path>
<path id="" fill="#f03623" fill-opacity="1.0" stroke="#000000" stroke-width="0.0" stroke-opacity="1.0" stroke-linecap="round" stroke-linejoin="round"  filling="0" d="M208.768 124.160 C208.768 125.440 208.768 126.720 208.768 128.000 C208.640 128.128 208.512 128.256 208.384 128.384 C192.939 128.384 177.493 128.384 162.048 128.384 C161.920 128.171 161.792 127.957 161.664 127.744 C161.792 127.531 161.920 127.317 162.048 127.104 C162.389 127.104 162.731 127.104 163.072 127.104 C163.499 126.933 163.925 126.763 164.352 126.592 C165.461 126.507 166.571 126.421 167.680 126.336 C168.277 126.165 168.875 125.995 169.472 125.824 C169.984 125.824 170.496 125.824 171.008 125.824 C173.909 125.312 176.811 124.800 179.712 124.288 C180.309 124.288 180.907 124.288 181.504 124.288 C182.101 124.117 182.699 123.947 183.296 123.776 C185.003 123.605 186.709 123.435 188.416 123.264 C189.013 123.093 189.611 122.923 190.208 122.752 C190.720 122.752 191.232 122.752 191.744 122.752 C192.853 122.496 193.963 122.240 195.072 121.984 C195.584 121.984 196.096 121.984 196.608 121.984 C196.693 121.899 196.779 121.813 196.864 121.728 C197.376 121.728 197.888 121.728 198.400 121.728 C200.875 121.301 203.349 120.875 205.824 120.448 C206.635 120.491 207.445 120.533 208.256 120.576 C208.341 121.685 208.427 122.795 208.512 123.904 C208.597 123.989 208.683 124.075 208.768 124.160"></path>
<path id="" fill="#ef3624" fill-opacity="1.0" stroke="#000000" stroke-width="0.0" stroke-opacity="1.0" stroke-linecap="round" stroke-linejoin="round"  filling="0" d="M100.224 127.488 C100.011 127.787 99.797 128.085 99.584 128.384 C84.224 128.384 68.864 128.384 53.504 128.384 C53.376 128.256 53.248 128.128 53.120 128.000 C53.120 127.061 53.120 126.123 53.120 125.184 C53.205 125.099 53.291 125.013 53.376 124.928 C53.461 123.563 53.547 122.197 53.632 120.832 C54.016 120.619 54.400 120.405 54.784 120.192 C55.296 120.363 55.808 120.533 56.320 120.704 C57.515 120.789 58.709 120.875 59.904 120.960 C60.501 121.131 61.099 121.301 61.696 121.472 C66.219 122.069 70.741 122.667 75.264 123.264 C76.373 123.520 77.483 123.776 78.592 124.032 C80.299 124.203 82.005 124.373 83.712 124.544 C85.333 124.885 86.955 125.227 88.576 125.568 C90.880 125.824 93.184 126.080 95.488 126.336 C96.512 126.592 97.536 126.848 98.560 127.104 C98.987 127.104 99.413 127.104 99.840 127.104 C99.968 127.232 100.096 127.360 100.224 127.488"></path>
<path id="" fill="#fbfdfd" fill-opacity="1.0" stroke="#000000" stroke-width="0.0" stroke-opacity="1.0" stroke-linecap="round" stroke-linejoin="round"  filling="0" d="M146.560 174.848 C146.560 173.824 146.560 172.800 146.560 171.776 C146.688 171.477 146.816 171.179 146.944 170.880 C147.627 170.624 148.309 170.368 148.992 170.112 C149.248 170.112 149.504 170.112 149.760 170.112 C150.101 169.941 150.443 169.771 150.784 169.600 C151.040 169.600 151.296 169.600 151.552 169.600 C152.917 168.917 154.283 168.235 155.648 167.552 C155.989 167.296 156.331 167.040 156.672 166.784 C157.739 165.632 158.805 164.480 159.872 163.328 C160.427 162.261 160.981 161.195 161.536 160.128 C161.963 160.043 162.389 159.957 162.816 159.872 C162.901 159.787 162.987 159.701 163.072 159.616 C163.413 159.616 163.755 159.616 164.096 159.616 C164.352 159.445 164.608 159.275 164.864 159.104 C165.291 159.019 165.717 158.933 166.144 158.848 C167.083 158.336 168.021 157.824 168.960 157.312 C169.173 157.355 169.387 157.397 169.600 157.440 C169.515 158.037 169.429 158.635 169.344 159.232 C169.003 159.659 168.661 160.085 168.320 160.512 C168.235 160.853 168.149 161.195 168.064 161.536 C167.723 161.792 167.381 162.048 167.040 162.304 C167.083 162.603 167.125 162.901 167.168 163.200 C167.424 163.029 167.680 162.859 167.936 162.688 C168.149 162.731 168.363 162.773 168.576 162.816 C168.576 162.987 168.576 163.157 168.576 163.328 C168.405 163.669 168.235 164.011 168.064 164.352 C167.808 164.608 167.552 164.864 167.296 165.120 C167.040 165.632 166.784 166.144 166.528 166.656 C166.272 166.912 166.016 167.168 165.760 167.424 C165.333 168.192 164.907 168.960 164.480 169.728 C163.797 170.667 163.115 171.605 162.432 172.544 C161.280 173.696 160.128 174.848 158.976 176.000 C158.037 176.683 157.099 177.365 156.160 178.048 C155.136 178.560 154.112 179.072 153.088 179.584 C152.661 179.669 152.235 179.755 151.808 179.840 C151.765 179.285 151.723 178.731 151.680 178.176 C151.765 178.091 151.851 178.005 151.936 177.920 C152.021 177.323 152.107 176.725 152.192 176.128 C152.277 176.043 152.363 175.957 152.448 175.872 C152.448 175.445 152.448 175.019 152.448 174.592 C152.320 174.464 152.192 174.336 152.064 174.208 C151.723 174.208 151.381 174.208 151.040 174.208 C150.955 174.293 150.869 174.379 150.784 174.464 C150.443 174.464 150.101 174.464 149.760 174.464 C149.675 174.549 149.589 174.635 149.504 174.720 C148.736 174.805 147.968 174.891 147.200 174.976 C147.115 175.061 147.029 175.147 146.944 175.232 C146.816 175.104 146.688 174.976 146.560 174.848"></path>
<path id="" fill="#f6fcfd" fill-opacity="1.0" stroke="#000000" stroke-width="0.0" stroke-opacity="1.0" stroke-linecap="round" stroke-linejoin="round"  filling="0" d="M104.320 152.832 C103.168 152.875 102.016 152.917 100.864 152.960 C99.328 152.533 97.792 152.107 96.256 151.680 C94.805 151.595 93.355 151.509 91.904 151.424 C91.136 151.595 90.368 151.765 89.600 151.936 C88.405 152.533 87.211 153.131 86.016 153.728 C84.907 154.069 83.797 154.411 82.688 154.752 C81.237 154.752 79.787 154.752 78.336 154.752 C77.653 154.581 76.971 154.411 76.288 154.240 C74.411 153.387 72.533 152.533 70.656 151.680 C69.291 151.595 67.925 151.509 66.560 151.424 C66.048 151.509 65.536 151.595 65.024 151.680 C62.976 152.448 60.928 153.216 58.880 153.984 C58.112 154.069 57.344 154.155 56.576 154.240 C56.277 153.941 55.979 153.643 55.680 153.344 C55.808 153.045 55.936 152.747 56.064 152.448 C57.259 152.192 58.453 151.936 59.648 151.680 C60.245 151.339 60.843 150.997 61.440 150.656 C62.805 150.144 64.171 149.632 65.536 149.120 C66.304 149.120 67.072 149.120 67.840 149.120 C67.925 149.035 68.011 148.949 68.096 148.864 C69.547 149.120 70.997 149.376 72.448 149.632 C73.813 150.315 75.179 150.997 76.544 151.680 C77.483 151.936 78.421 152.192 79.360 152.448 C80.725 152.363 82.091 152.277 83.456 152.192 C85.419 151.339 87.381 150.485 89.344 149.632 C90.795 149.461 92.245 149.291 93.696 149.120 C94.976 149.376 96.256 149.632 97.536 149.888 C99.797 150.869 102.059 151.851 104.320 152.832"></path>
<path id="" fill="#f8fcfe" fill-opacity="1.0" stroke="#000000" stroke-width="0.0" stroke-opacity="1.0" stroke-linecap="round" stroke-linejoin="round"  filling="0" d="M99.712 163.072 C99.584 163.200 99.456 163.328 99.328 163.456 C98.901 163.456 98.475 163.456 98.048 163.456 C96.768 163.029 95.488 162.603 94.208 162.176 C92.928 162.176 91.648 162.176 90.368 162.176 C89.600 162.432 88.832 162.688 88.064 162.944 C86.784 163.627 85.504 164.309 84.224 164.992 C83.371 165.248 82.517 165.504 81.664 165.760 C80.128 165.760 78.592 165.760 77.056 165.760 C76.971 165.675 76.885 165.589 76.800 165.504 C76.544 165.504 76.288 165.504 76.032 165.504 C75.349 165.248 74.667 164.992 73.984 164.736 C72.704 164.053 71.424 163.371 70.144 162.688 C69.376 162.603 68.608 162.517 67.840 162.432 C67.755 162.347 67.669 162.261 67.584 162.176 C66.389 162.347 65.195 162.517 64.000 162.688 C62.805 163.200 61.611 163.712 60.416 164.224 C60.245 164.224 60.075 164.224 59.904 164.224 C59.691 164.011 59.477 163.797 59.264 163.584 C59.264 163.413 59.264 163.243 59.264 163.072 C59.477 162.859 59.691 162.645 59.904 162.432 C60.331 162.261 60.757 162.091 61.184 161.920 C61.355 161.749 61.525 161.579 61.696 161.408 C62.464 161.067 63.232 160.725 64.000 160.384 C64.256 160.384 64.512 160.384 64.768 160.384 C65.195 160.213 65.621 160.043 66.048 159.872 C66.987 159.872 67.925 159.872 68.864 159.872 C68.949 159.957 69.035 160.043 69.120 160.128 C69.717 160.213 70.315 160.299 70.912 160.384 C72.021 160.981 73.131 161.579 74.240 162.176 C75.520 162.603 76.800 163.029 78.080 163.456 C79.019 163.456 79.957 163.456 80.896 163.456 C80.981 163.371 81.067 163.285 81.152 163.200 C81.408 163.200 81.664 163.200 81.920 163.200 C82.603 162.944 83.285 162.688 83.968 162.432 C85.077 161.835 86.187 161.237 87.296 160.640 C88.149 160.384 89.003 160.128 89.856 159.872 C91.136 159.872 92.416 159.872 93.696 159.872 C94.720 160.213 95.744 160.555 96.768 160.896 C97.621 161.323 98.475 161.749 99.328 162.176 C99.456 162.475 99.584 162.773 99.712 163.072"></path>
<path id="" fill="#f6fcfd" fill-opacity="1.0" stroke="#000000" stroke-width="0.0" stroke-opacity="1.0" stroke-linecap="round" stroke-linejoin="round"  filling="0" d="M206.976 150.272 C206.891 150.699 206.805 151.125 206.720 151.552 C206.507 151.680 206.293 151.808 206.080 151.936 C205.568 151.765 205.056 151.595 204.544 151.424 C203.349 151.424 202.155 151.424 200.960 151.424 C200.192 151.680 199.424 151.936 198.656 152.192 C198.485 152.363 198.315 152.533 198.144 152.704 C197.973 152.704 197.803 152.704 197.632 152.704 C196.864 153.131 196.096 153.557 195.328 153.984 C194.475 154.240 193.621 154.496 192.768 154.752 C191.317 154.752 189.867 154.752 188.416 154.752 C187.563 154.496 186.709 154.240 185.856 153.984 C184.491 153.301 183.125 152.619 181.760 151.936 C180.907 151.851 180.053 151.765 179.200 151.680 C179.115 151.595 179.029 151.509 178.944 151.424 C177.493 151.595 176.043 151.765 174.592 151.936 C174.080 152.192 173.568 152.448 173.056 152.704 C171.947 153.045 170.837 153.387 169.728 153.728 C169.045 153.728 168.363 153.728 167.680 153.728 C167.211 153.515 166.741 153.301 166.272 153.088 C167.509 152.789 168.747 152.491 169.984 152.192 C170.923 151.765 171.861 151.339 172.800 150.912 C172.971 150.741 173.141 150.571 173.312 150.400 C174.592 149.973 175.872 149.547 177.152 149.120 C178.261 149.120 179.371 149.120 180.480 149.120 C180.565 149.205 180.651 149.291 180.736 149.376 C180.992 149.376 181.248 149.376 181.504 149.376 C183.381 150.229 185.259 151.083 187.136 151.936 C187.733 152.021 188.331 152.107 188.928 152.192 C189.013 152.277 189.099 152.363 189.184 152.448 C190.549 152.363 191.915 152.277 193.280 152.192 C195.584 151.168 197.888 150.144 200.192 149.120 C201.643 149.120 203.093 149.120 204.544 149.120 C205.141 149.291 205.739 149.461 206.336 149.632 C206.549 149.845 206.763 150.059 206.976 150.272"></path>
<path id="" fill="#f7fcfd" fill-opacity="1.0" stroke="#000000" stroke-width="0.0" stroke-opacity="1.0" stroke-linecap="round" stroke-linejoin="round"  filling="0" d="M100.224 173.824 C100.096 174.037 99.968 174.251 99.840 174.464 C99.499 174.464 99.157 174.464 98.816 174.464 C97.877 174.123 96.939 173.781 96.000 173.440 C94.720 173.440 93.440 173.440 92.160 173.440 C89.685 174.549 87.211 175.659 84.736 176.768 C84.480 176.768 84.224 176.768 83.968 176.768 C83.883 176.853 83.797 176.939 83.712 177.024 C82.517 177.024 81.323 177.024 80.128 177.024 C79.104 176.683 78.080 176.341 77.056 176.000 C76.885 175.829 76.715 175.659 76.544 175.488 C75.008 174.805 73.472 174.123 71.936 173.440 C70.827 173.440 69.717 173.440 68.608 173.440 C68.523 173.525 68.437 173.611 68.352 173.696 C67.840 173.781 67.328 173.867 66.816 173.952 C66.560 174.123 66.304 174.293 66.048 174.464 C65.792 174.464 65.536 174.464 65.280 174.464 C64.981 174.080 64.683 173.696 64.384 173.312 C64.683 173.013 64.981 172.715 65.280 172.416 C65.963 172.075 66.645 171.733 67.328 171.392 C68.096 171.307 68.864 171.221 69.632 171.136 C69.717 171.051 69.803 170.965 69.888 170.880 C70.400 170.880 70.912 170.880 71.424 170.880 C71.509 170.965 71.595 171.051 71.680 171.136 C72.363 171.221 73.045 171.307 73.728 171.392 C75.520 172.331 77.312 173.269 79.104 174.208 C79.957 174.293 80.811 174.379 81.664 174.464 C81.835 174.549 82.005 174.635 82.176 174.720 C82.261 174.635 82.347 174.549 82.432 174.464 C82.944 174.464 83.456 174.464 83.968 174.464 C84.480 174.293 84.992 174.123 85.504 173.952 C87.211 173.099 88.917 172.245 90.624 171.392 C90.880 171.392 91.136 171.392 91.392 171.392 C91.477 171.307 91.563 171.221 91.648 171.136 C92.843 171.136 94.037 171.136 95.232 171.136 C95.317 171.221 95.403 171.307 95.488 171.392 C95.829 171.392 96.171 171.392 96.512 171.392 C97.536 171.904 98.560 172.416 99.584 172.928 C99.797 173.227 100.011 173.525 100.224 173.824"></path>
<path id="" fill="#f4fbfe" fill-opacity="1.0" stroke="#000000" stroke-width="0.0" stroke-opacity="1.0" stroke-linecap="round" stroke-linejoin="round"  filling="0" d="M53.376 142.592 C53.504 142.293 53.632 141.995 53.760 141.696 C54.869 141.696 55.979 141.696 57.088 141.696 C58.709 142.379 60.331 143.061 61.952 143.744 C63.317 143.829 64.683 143.915 66.048 144.000 C66.645 143.829 67.243 143.659 67.840 143.488 C68.864 142.976 69.888 142.464 70.912 141.952 C71.595 141.781 72.277 141.611 72.960 141.440 C73.899 141.440 74.837 141.440 75.776 141.440 C76.800 141.696 77.824 141.952 78.848 142.208 C79.445 142.549 80.043 142.891 80.640 143.232 C81.493 143.488 82.347 143.744 83.200 144.000 C84.395 144.000 85.589 144.000 86.784 144.000 C87.637 143.659 88.491 143.317 89.344 142.976 C90.709 142.635 92.075 142.293 93.440 141.952 C94.976 142.208 96.512 142.464 98.048 142.720 C98.091 142.933 98.133 143.147 98.176 143.360 C96.512 143.403 94.848 143.445 93.184 143.488 C90.965 144.256 88.747 145.024 86.528 145.792 C85.077 145.792 83.627 145.792 82.176 145.792 C80.299 145.109 78.421 144.427 76.544 143.744 C75.179 143.744 73.813 143.744 72.448 143.744 C70.741 144.427 69.035 145.109 67.328 145.792 C66.048 145.877 64.768 145.963 63.488 146.048 C63.403 145.963 63.317 145.877 63.232 145.792 C62.464 145.707 61.696 145.621 60.928 145.536 C59.648 144.939 58.368 144.341 57.088 143.744 C56.064 143.659 55.040 143.573 54.016 143.488 C53.803 143.189 53.589 142.891 53.376 142.592"></path>
<path id="" fill="#f2fbfe" fill-opacity="1.0" stroke="#000000" stroke-width="0.0" stroke-opacity="1.0" stroke-linecap="round" stroke-linejoin="round"  filling="0" d="M100.480 136.448 C99.925 136.491 99.371 136.533 98.816 136.576 C98.133 136.405 97.451 136.235 96.768 136.064 C95.829 136.064 94.891 136.064 93.952 136.064 C91.904 136.832 89.856 137.600 87.808 138.368 C86.613 138.453 85.419 138.539 84.224 138.624 C83.285 138.453 82.347 138.283 81.408 138.112 C79.957 137.515 78.507 136.917 77.056 136.320 C75.861 136.320 74.667 136.320 73.472 136.320 C71.680 137.003 69.888 137.685 68.096 138.368 C66.731 138.453 65.365 138.539 64.000 138.624 C63.147 138.453 62.293 138.283 61.440 138.112 C60.075 137.515 58.709 136.917 57.344 136.320 C56.661 136.320 55.979 136.320 55.296 136.320 C55.211 136.235 55.125 136.149 55.040 136.064 C54.528 136.149 54.016 136.235 53.504 136.320 C53.291 136.021 53.077 135.723 52.864 135.424 C53.333 135.125 53.803 134.827 54.272 134.528 C55.040 134.528 55.808 134.528 56.576 134.528 C58.453 135.211 60.331 135.893 62.208 136.576 C63.744 136.661 65.280 136.747 66.816 136.832 C68.949 136.064 71.083 135.296 73.216 134.528 C74.496 134.528 75.776 134.528 77.056 134.528 C79.189 135.296 81.323 136.064 83.456 136.832 C84.651 136.832 85.845 136.832 87.040 136.832 C89.088 136.149 91.136 135.467 93.184 134.784 C94.464 134.784 95.744 134.784 97.024 134.784 C97.621 134.955 98.219 135.125 98.816 135.296 C99.371 135.680 99.925 136.064 100.480 136.448"></path>
<path id="" fill="#f5fbfd" fill-opacity="1.0" stroke="#000000" stroke-width="0.0" stroke-opacity="1.0" stroke-linecap="round" stroke-linejoin="round"  filling="0" d="M208.256 142.336 C208.256 142.763 208.256 143.189 208.256 143.616 C208.128 143.744 208.000 143.872 207.872 144.000 C207.531 144.000 207.189 144.000 206.848 144.000 C206.336 143.829 205.824 143.659 205.312 143.488 C204.373 143.573 203.435 143.659 202.496 143.744 C201.301 144.256 200.107 144.768 198.912 145.280 C198.400 145.365 197.888 145.451 197.376 145.536 C197.291 145.621 197.205 145.707 197.120 145.792 C196.779 145.792 196.437 145.792 196.096 145.792 C196.011 145.877 195.925 145.963 195.840 146.048 C194.560 145.963 193.280 145.877 192.000 145.792 C190.123 145.109 188.245 144.427 186.368 143.744 C185.088 143.744 183.808 143.744 182.528 143.744 C180.821 144.341 179.115 144.939 177.408 145.536 C176.811 145.536 176.213 145.536 175.616 145.536 C175.531 145.621 175.445 145.707 175.360 145.792 C174.251 145.621 173.141 145.451 172.032 145.280 C171.307 144.811 170.581 144.341 169.856 143.872 C170.069 143.744 170.283 143.616 170.496 143.488 C170.837 143.659 171.179 143.829 171.520 144.000 C172.203 144.000 172.885 144.000 173.568 144.000 C173.653 144.085 173.739 144.171 173.824 144.256 C174.763 144.171 175.701 144.085 176.640 144.000 C177.920 143.403 179.200 142.805 180.480 142.208 C180.992 142.037 181.504 141.867 182.016 141.696 C182.357 141.696 182.699 141.696 183.040 141.696 C183.125 141.611 183.211 141.525 183.296 141.440 C184.235 141.440 185.173 141.440 186.112 141.440 C186.197 141.525 186.283 141.611 186.368 141.696 C186.709 141.696 187.051 141.696 187.392 141.696 C187.477 141.781 187.563 141.867 187.648 141.952 C187.904 141.952 188.160 141.952 188.416 141.952 C189.440 142.464 190.464 142.976 191.488 143.488 C192.085 143.573 192.683 143.659 193.280 143.744 C193.365 143.829 193.451 143.915 193.536 144.000 C194.731 143.915 195.925 143.829 197.120 143.744 C197.632 143.573 198.144 143.403 198.656 143.232 C199.253 142.891 199.851 142.549 200.448 142.208 C200.960 142.037 201.472 141.867 201.984 141.696 C202.411 141.696 202.837 141.696 203.264 141.696 C203.349 141.611 203.435 141.525 203.520 141.440 C204.715 141.525 205.909 141.611 207.104 141.696 C207.488 141.909 207.872 142.123 208.256 142.336"></path>
<path id="" fill="#f7fcfe" fill-opacity="1.0" stroke="#000000" stroke-width="0.0" stroke-opacity="1.0" stroke-linecap="round" stroke-linejoin="round"  filling="0" d="M197.248 173.312 C197.248 173.397 197.248 173.483 197.248 173.568 C196.949 173.781 196.651 173.995 196.352 174.208 C195.243 174.208 194.133 174.208 193.024 174.208 C192.939 174.293 192.853 174.379 192.768 174.464 C192.341 174.549 191.915 174.635 191.488 174.720 C191.061 174.976 190.635 175.232 190.208 175.488 C190.037 175.488 189.867 175.488 189.696 175.488 C189.269 175.744 188.843 176.000 188.416 176.256 C187.904 176.341 187.392 176.427 186.880 176.512 C186.795 176.597 186.709 176.683 186.624 176.768 C185.344 176.768 184.064 176.768 182.784 176.768 C182.699 176.683 182.613 176.597 182.528 176.512 C182.101 176.427 181.675 176.341 181.248 176.256 C180.821 176.000 180.395 175.744 179.968 175.488 C179.797 175.488 179.627 175.488 179.456 175.488 C178.517 174.976 177.579 174.464 176.640 173.952 C176.128 173.867 175.616 173.781 175.104 173.696 C175.019 173.611 174.933 173.525 174.848 173.440 C173.568 173.440 172.288 173.440 171.008 173.440 C170.923 173.525 170.837 173.611 170.752 173.696 C170.496 173.696 170.240 173.696 169.984 173.696 C169.472 173.952 168.960 174.208 168.448 174.464 C168.021 174.549 167.595 174.635 167.168 174.720 C166.912 174.891 166.656 175.061 166.400 175.232 C166.144 175.232 165.888 175.232 165.632 175.232 C165.205 175.403 164.779 175.573 164.352 175.744 C164.011 175.744 163.669 175.744 163.328 175.744 C163.200 175.616 163.072 175.488 162.944 175.360 C163.669 174.891 164.395 174.421 165.120 173.952 C165.547 173.781 165.973 173.611 166.400 173.440 C166.571 173.269 166.741 173.099 166.912 172.928 C167.509 172.672 168.107 172.416 168.704 172.160 C168.875 171.989 169.045 171.819 169.216 171.648 C169.387 171.648 169.557 171.648 169.728 171.648 C169.984 171.477 170.240 171.307 170.496 171.136 C170.837 171.136 171.179 171.136 171.520 171.136 C171.605 171.051 171.691 170.965 171.776 170.880 C172.715 170.880 173.653 170.880 174.592 170.880 C174.677 170.965 174.763 171.051 174.848 171.136 C175.189 171.136 175.531 171.136 175.872 171.136 C175.957 171.221 176.043 171.307 176.128 171.392 C176.555 171.477 176.981 171.563 177.408 171.648 C177.664 171.819 177.920 171.989 178.176 172.160 C178.347 172.160 178.517 172.160 178.688 172.160 C179.627 172.672 180.565 173.184 181.504 173.696 C181.675 173.696 181.845 173.696 182.016 173.696 C182.357 173.867 182.699 174.037 183.040 174.208 C183.467 174.208 183.893 174.208 184.320 174.208 C184.405 174.293 184.491 174.379 184.576 174.464 C185.344 174.379 186.112 174.293 186.880 174.208 C186.965 174.123 187.051 174.037 187.136 173.952 C187.733 173.867 188.331 173.781 188.928 173.696 C189.525 173.440 190.123 173.184 190.720 172.928 C191.403 172.843 192.085 172.757 192.768 172.672 C192.853 172.587 192.939 172.501 193.024 172.416 C193.707 172.416 194.389 172.416 195.072 172.416 C195.157 172.501 195.243 172.587 195.328 172.672 C195.669 172.672 196.011 172.672 196.352 172.672 C196.651 172.885 196.949 173.099 197.248 173.312"></path>
<path id="" fill="#f2fbfe" fill-opacity="1.0" stroke="#000000" stroke-width="0.0" stroke-opacity="1.0" stroke-linecap="round" stroke-linejoin="round"  filling="0" d="M208.768 136.448 C208.469 136.491 208.171 136.533 207.872 136.576 C207.360 136.405 206.848 136.235 206.336 136.064 C205.653 136.064 204.971 136.064 204.288 136.064 C204.203 136.149 204.117 136.235 204.032 136.320 C203.691 136.320 203.349 136.320 203.008 136.320 C201.301 137.003 199.595 137.685 197.888 138.368 C196.437 138.453 194.987 138.539 193.536 138.624 C193.451 138.539 193.365 138.453 193.280 138.368 C192.939 138.368 192.597 138.368 192.256 138.368 C190.720 137.771 189.184 137.173 187.648 136.576 C186.368 136.491 185.088 136.405 183.808 136.320 C182.613 136.661 181.419 137.003 180.224 137.344 C179.541 137.685 178.859 138.027 178.176 138.368 C177.835 138.368 177.493 138.368 177.152 138.368 C177.067 138.453 176.981 138.539 176.896 138.624 C175.787 138.624 174.677 138.624 173.568 138.624 C173.483 138.539 173.397 138.453 173.312 138.368 C172.629 138.283 171.947 138.197 171.264 138.112 C170.667 137.856 170.069 137.600 169.472 137.344 C169.259 137.131 169.045 136.917 168.832 136.704 C168.832 136.363 168.832 136.021 168.832 135.680 C169.131 135.637 169.429 135.595 169.728 135.552 C170.923 135.979 172.117 136.405 173.312 136.832 C174.421 136.832 175.531 136.832 176.640 136.832 C176.725 136.747 176.811 136.661 176.896 136.576 C177.493 136.491 178.091 136.405 178.688 136.320 C178.944 136.149 179.200 135.979 179.456 135.808 C180.651 135.381 181.845 134.955 183.040 134.528 C184.320 134.528 185.600 134.528 186.880 134.528 C189.013 135.296 191.147 136.064 193.280 136.832 C194.560 136.832 195.840 136.832 197.120 136.832 C198.997 136.149 200.875 135.467 202.752 134.784 C203.776 134.699 204.800 134.613 205.824 134.528 C206.677 134.784 207.531 135.040 208.384 135.296 C208.512 135.424 208.640 135.552 208.768 135.680 C208.768 135.936 208.768 136.192 208.768 136.448"></path>
<path id="" fill="#f77dab" fill-opacity="1.0" stroke="#000000" stroke-width="0.0" stroke-opacity="1.0" stroke-linecap="round" stroke-linejoin="round"  filling="0" d="M131.328 199.040 C131.072 199.040 130.816 199.040 130.560 199.040 C130.219 198.699 129.877 198.357 129.536 198.016 C129.451 198.016 129.365 198.016 129.280 198.016 C128.640 197.376 128.000 196.736 127.360 196.096 C127.360 196.011 127.360 195.925 127.360 195.840 C127.189 195.669 127.019 195.499 126.848 195.328 C126.848 195.243 126.848 195.157 126.848 195.072 C126.763 194.987 126.677 194.901 126.592 194.816 C126.592 194.731 126.592 194.645 126.592 194.560 C126.507 194.475 126.421 194.389 126.336 194.304 C126.336 194.048 126.336 193.792 126.336 193.536 C126.251 193.451 126.165 193.365 126.080 193.280 C126.080 193.024 126.080 192.768 126.080 192.512 C126.165 192.427 126.251 192.341 126.336 192.256 C126.336 192.085 126.336 191.915 126.336 191.744 C126.507 191.573 126.677 191.403 126.848 191.232 C126.848 191.147 126.848 191.061 126.848 190.976 C126.891 190.933 126.933 190.891 126.976 190.848 C127.061 190.848 127.147 190.848 127.232 190.848 C127.403 190.677 127.573 190.507 127.744 190.336 C127.829 190.336 127.915 190.336 128.000 190.336 C128.085 190.251 128.171 190.165 128.256 190.080 C128.341 190.080 128.427 190.080 128.512 190.080 C128.597 189.995 128.683 189.909 128.768 189.824 C129.109 189.824 129.451 189.824 129.792 189.824 C129.877 189.739 129.963 189.653 130.048 189.568 C130.816 189.568 131.584 189.568 132.352 189.568 C132.437 189.653 132.523 189.739 132.608 189.824 C132.864 189.824 133.120 189.824 133.376 189.824 C133.461 189.909 133.547 189.995 133.632 190.080 C133.717 190.080 133.803 190.080 133.888 190.080 C133.973 190.165 134.059 190.251 134.144 190.336 C134.229 190.336 134.315 190.336 134.400 190.336 C134.699 190.635 134.997 190.933 135.296 191.232 C135.296 191.317 135.296 191.403 135.296 191.488 C135.381 191.573 135.467 191.659 135.552 191.744 C135.552 191.915 135.552 192.085 135.552 192.256 C135.637 192.341 135.723 192.427 135.808 192.512 C135.808 192.939 135.808 193.365 135.808 193.792 C135.723 193.877 135.637 193.963 135.552 194.048 C135.552 194.219 135.552 194.389 135.552 194.560 C135.467 194.645 135.381 194.731 135.296 194.816 C135.296 194.901 135.296 194.987 135.296 195.072 C135.040 195.328 134.784 195.584 134.528 195.840 C134.528 195.925 134.528 196.011 134.528 196.096 C133.803 196.821 133.077 197.547 132.352 198.272 C132.267 198.272 132.181 198.272 132.096 198.272 C131.840 198.528 131.584 198.784 131.328 199.040"></path>
<path id="" fill="#f6fbfd" fill-opacity="1.0" stroke="#000000" stroke-width="0.0" stroke-opacity="1.0" stroke-linecap="round" stroke-linejoin="round"  filling="0" d="M203.392 161.280 C203.264 161.749 203.136 162.219 203.008 162.688 C202.837 162.688 202.667 162.688 202.496 162.688 C202.411 162.773 202.325 162.859 202.240 162.944 C202.155 162.859 202.069 162.773 201.984 162.688 C201.728 162.688 201.472 162.688 201.216 162.688 C201.131 162.603 201.045 162.517 200.960 162.432 C199.936 162.432 198.912 162.432 197.888 162.432 C197.803 162.517 197.717 162.603 197.632 162.688 C197.205 162.773 196.779 162.859 196.352 162.944 C194.901 163.712 193.451 164.480 192.000 165.248 C191.744 165.248 191.488 165.248 191.232 165.248 C191.147 165.333 191.061 165.419 190.976 165.504 C190.720 165.504 190.464 165.504 190.208 165.504 C190.123 165.589 190.037 165.675 189.952 165.760 C188.757 165.760 187.563 165.760 186.368 165.760 C186.283 165.675 186.197 165.589 186.112 165.504 C185.856 165.504 185.600 165.504 185.344 165.504 C185.003 165.333 184.661 165.163 184.320 164.992 C184.064 164.992 183.808 164.992 183.552 164.992 C182.613 164.480 181.675 163.968 180.736 163.456 C180.565 163.456 180.395 163.456 180.224 163.456 C179.883 163.285 179.541 163.115 179.200 162.944 C178.005 162.944 176.811 162.944 175.616 162.944 C175.531 163.029 175.445 163.115 175.360 163.200 C174.933 163.200 174.507 163.200 174.080 163.200 C173.995 163.285 173.909 163.371 173.824 163.456 C173.653 163.456 173.483 163.456 173.312 163.456 C173.184 163.328 173.056 163.200 172.928 163.072 C173.483 162.688 174.037 162.304 174.592 161.920 C174.763 161.920 174.933 161.920 175.104 161.920 C175.360 161.749 175.616 161.579 175.872 161.408 C176.213 161.408 176.555 161.408 176.896 161.408 C176.981 161.323 177.067 161.237 177.152 161.152 C178.005 161.152 178.859 161.152 179.712 161.152 C179.797 161.237 179.883 161.323 179.968 161.408 C180.565 161.493 181.163 161.579 181.760 161.664 C182.443 162.005 183.125 162.347 183.808 162.688 C183.979 162.688 184.149 162.688 184.320 162.688 C184.661 162.859 185.003 163.029 185.344 163.200 C185.600 163.200 185.856 163.200 186.112 163.200 C186.197 163.285 186.283 163.371 186.368 163.456 C187.392 163.456 188.416 163.456 189.440 163.456 C189.525 163.371 189.611 163.285 189.696 163.200 C189.952 163.200 190.208 163.200 190.464 163.200 C190.976 162.944 191.488 162.688 192.000 162.432 C192.171 162.432 192.341 162.432 192.512 162.432 C193.024 162.091 193.536 161.749 194.048 161.408 C194.219 161.408 194.389 161.408 194.560 161.408 C195.157 161.067 195.755 160.725 196.352 160.384 C196.608 160.384 196.864 160.384 197.120 160.384 C197.205 160.299 197.291 160.213 197.376 160.128 C198.571 160.128 199.765 160.128 200.960 160.128 C201.045 160.213 201.131 160.299 201.216 160.384 C201.728 160.469 202.240 160.555 202.752 160.640 C202.965 160.853 203.179 161.067 203.392 161.280"></path>
<path id="" fill="#f5fcfe" fill-opacity="1.0" stroke="#000000" stroke-width="0.0" stroke-opacity="1.0" stroke-linecap="round" stroke-linejoin="round"  filling="0" d="M142.976 204.800 C142.976 204.885 142.976 204.971 142.976 205.056 C142.848 205.184 142.720 205.312 142.592 205.440 C142.336 205.525 142.080 205.611 141.824 205.696 C141.397 206.037 140.971 206.379 140.544 206.720 C139.349 207.317 138.155 207.915 136.960 208.512 C136.789 208.512 136.619 208.512 136.448 208.512 C136.107 208.683 135.765 208.853 135.424 209.024 C135.168 209.024 134.912 209.024 134.656 209.024 C134.571 209.109 134.485 209.195 134.400 209.280 C132.608 209.280 130.816 209.280 129.024 209.280 C128.939 209.195 128.853 209.109 128.768 209.024 C128.512 209.024 128.256 209.024 128.000 209.024 C127.744 208.853 127.488 208.683 127.232 208.512 C126.805 208.427 126.379 208.341 125.952 208.256 C125.355 207.915 124.757 207.573 124.160 207.232 C123.989 207.232 123.819 207.232 123.648 207.232 C123.221 206.976 122.795 206.720 122.368 206.464 C122.197 206.464 122.027 206.464 121.856 206.464 C121.515 206.293 121.173 206.123 120.832 205.952 C120.576 205.952 120.320 205.952 120.064 205.952 C119.979 205.867 119.893 205.781 119.808 205.696 C119.552 205.696 119.296 205.696 119.040 205.696 C118.955 205.611 118.869 205.525 118.784 205.440 C117.760 205.440 116.736 205.440 115.712 205.440 C115.584 205.312 115.456 205.184 115.328 205.056 C115.456 204.928 115.584 204.800 115.712 204.672 C115.883 204.672 116.053 204.672 116.224 204.672 C116.309 204.587 116.395 204.501 116.480 204.416 C116.736 204.416 116.992 204.416 117.248 204.416 C117.333 204.331 117.419 204.245 117.504 204.160 C118.699 204.160 119.893 204.160 121.088 204.160 C121.173 204.245 121.259 204.331 121.344 204.416 C121.685 204.416 122.027 204.416 122.368 204.416 C122.453 204.501 122.539 204.587 122.624 204.672 C122.880 204.672 123.136 204.672 123.392 204.672 C123.648 204.843 123.904 205.013 124.160 205.184 C124.331 205.184 124.501 205.184 124.672 205.184 C125.184 205.440 125.696 205.696 126.208 205.952 C126.464 205.952 126.720 205.952 126.976 205.952 C127.317 206.123 127.659 206.293 128.000 206.464 C128.341 206.464 128.683 206.464 129.024 206.464 C129.109 206.549 129.195 206.635 129.280 206.720 C129.621 206.720 129.963 206.720 130.304 206.720 C130.389 206.805 130.475 206.891 130.560 206.976 C131.499 206.976 132.437 206.976 133.376 206.976 C133.461 206.891 133.547 206.805 133.632 206.720 C134.059 206.720 134.485 206.720 134.912 206.720 C134.997 206.635 135.083 206.549 135.168 206.464 C135.509 206.464 135.851 206.464 136.192 206.464 C136.277 206.379 136.363 206.293 136.448 206.208 C136.619 206.208 136.789 206.208 136.960 206.208 C137.045 206.123 137.131 206.037 137.216 205.952 C137.472 205.952 137.728 205.952 137.984 205.952 C138.069 205.867 138.155 205.781 138.240 205.696 C138.411 205.696 138.581 205.696 138.752 205.696 C138.837 205.611 138.923 205.525 139.008 205.440 C139.179 205.440 139.349 205.440 139.520 205.440 C139.861 205.269 140.203 205.099 140.544 204.928 C140.800 204.928 141.056 204.928 141.312 204.928 C141.397 204.843 141.483 204.757 141.568 204.672 C142.037 204.715 142.507 204.757 142.976 204.800"></path>
<path id="" fill="#f6fcfe" fill-opacity="1.0" stroke="#000000" stroke-width="0.0" stroke-opacity="1.0" stroke-linecap="round" stroke-linejoin="round"  filling="0" d="M161.664 200.960 C161.195 201.344 160.725 201.728 160.256 202.112 C159.744 202.368 159.232 202.624 158.720 202.880 C158.549 202.880 158.379 202.880 158.208 202.880 C158.123 202.965 158.037 203.051 157.952 203.136 C157.696 203.136 157.440 203.136 157.184 203.136 C157.099 203.221 157.013 203.307 156.928 203.392 C156.587 203.392 156.245 203.392 155.904 203.392 C155.819 203.477 155.733 203.563 155.648 203.648 C154.795 203.648 153.941 203.648 153.088 203.648 C153.003 203.563 152.917 203.477 152.832 203.392 C152.405 203.392 151.979 203.392 151.552 203.392 C151.467 203.307 151.381 203.221 151.296 203.136 C151.040 203.136 150.784 203.136 150.528 203.136 C150.443 203.051 150.357 202.965 150.272 202.880 C150.101 202.880 149.931 202.880 149.760 202.880 C149.675 202.795 149.589 202.709 149.504 202.624 C149.333 202.624 149.163 202.624 148.992 202.624 C148.907 202.539 148.821 202.453 148.736 202.368 C148.565 202.368 148.395 202.368 148.224 202.368 C147.883 202.197 147.541 202.027 147.200 201.856 C146.944 201.856 146.688 201.856 146.432 201.856 C146.091 201.685 145.749 201.515 145.408 201.344 C144.896 201.344 144.384 201.344 143.872 201.344 C143.787 201.259 143.701 201.173 143.616 201.088 C143.189 201.088 142.763 201.088 142.336 201.088 C142.251 201.173 142.165 201.259 142.080 201.344 C141.568 201.344 141.056 201.344 140.544 201.344 C140.459 201.429 140.373 201.515 140.288 201.600 C140.032 201.600 139.776 201.600 139.520 201.600 C139.435 201.685 139.349 201.771 139.264 201.856 C138.667 201.941 138.069 202.027 137.472 202.112 C137.216 202.283 136.960 202.453 136.704 202.624 C136.277 202.624 135.851 202.624 135.424 202.624 C135.296 202.496 135.168 202.368 135.040 202.240 C135.680 201.771 136.320 201.301 136.960 200.832 C137.643 200.491 138.325 200.149 139.008 199.808 C139.179 199.808 139.349 199.808 139.520 199.808 C139.605 199.723 139.691 199.637 139.776 199.552 C139.947 199.552 140.117 199.552 140.288 199.552 C140.629 199.381 140.971 199.211 141.312 199.040 C142.848 199.040 144.384 199.040 145.920 199.040 C146.005 199.125 146.091 199.211 146.176 199.296 C146.773 199.381 147.371 199.467 147.968 199.552 C148.651 199.893 149.333 200.235 150.016 200.576 C150.187 200.576 150.357 200.576 150.528 200.576 C150.613 200.661 150.699 200.747 150.784 200.832 C150.955 200.832 151.125 200.832 151.296 200.832 C151.637 201.003 151.979 201.173 152.320 201.344 C152.661 201.344 153.003 201.344 153.344 201.344 C153.429 201.429 153.515 201.515 153.600 201.600 C154.965 201.600 156.331 201.600 157.696 201.600 C157.781 201.515 157.867 201.429 157.952 201.344 C158.293 201.344 158.635 201.344 158.976 201.344 C159.061 201.259 159.147 201.173 159.232 201.088 C159.403 201.088 159.573 201.088 159.744 201.088 C159.829 201.003 159.915 200.917 160.000 200.832 C160.256 200.832 160.512 200.832 160.768 200.832 C160.853 200.747 160.939 200.661 161.024 200.576 C161.109 200.576 161.195 200.576 161.280 200.576 C161.408 200.704 161.536 200.832 161.664 200.960"></path>
<path id="" fill="#f6fcfe" fill-opacity="1.0" stroke="#000000" stroke-width="0.0" stroke-opacity="1.0" stroke-linecap="round" stroke-linejoin="round"  filling="0" d="M100.864 200.576 C101.291 200.576 101.717 200.576 102.144 200.576 C102.229 200.661 102.315 200.747 102.400 200.832 C102.741 200.832 103.083 200.832 103.424 200.832 C103.509 200.917 103.595 201.003 103.680 201.088 C104.619 201.088 105.557 201.088 106.496 201.088 C106.581 201.003 106.667 200.917 106.752 200.832 C107.093 200.832 107.435 200.832 107.776 200.832 C107.861 200.747 107.947 200.661 108.032 200.576 C108.203 200.576 108.373 200.576 108.544 200.576 C108.629 200.491 108.715 200.405 108.800 200.320 C108.971 200.320 109.141 200.320 109.312 200.320 C109.397 200.235 109.483 200.149 109.568 200.064 C109.995 199.979 110.421 199.893 110.848 199.808 C111.104 199.637 111.360 199.467 111.616 199.296 C111.787 199.296 111.957 199.296 112.128 199.296 C112.640 199.040 113.152 198.784 113.664 198.528 C114.005 198.528 114.347 198.528 114.688 198.528 C114.773 198.443 114.859 198.357 114.944 198.272 C115.456 198.272 115.968 198.272 116.480 198.272 C116.565 198.187 116.651 198.101 116.736 198.016 C117.248 198.016 117.760 198.016 118.272 198.016 C118.357 198.101 118.443 198.187 118.528 198.272 C119.040 198.272 119.552 198.272 120.064 198.272 C120.149 198.357 120.235 198.443 120.320 198.528 C120.576 198.528 120.832 198.528 121.088 198.528 C121.173 198.613 121.259 198.699 121.344 198.784 C121.515 198.784 121.685 198.784 121.856 198.784 C122.709 199.211 123.563 199.637 124.416 200.064 C124.587 200.235 124.757 200.405 124.928 200.576 C125.269 200.747 125.611 200.917 125.952 201.088 C126.080 201.387 126.208 201.685 126.336 201.984 C126.037 202.027 125.739 202.069 125.440 202.112 C125.184 201.941 124.928 201.771 124.672 201.600 C124.416 201.600 124.160 201.600 123.904 201.600 C123.563 201.429 123.221 201.259 122.880 201.088 C122.624 201.088 122.368 201.088 122.112 201.088 C122.027 201.003 121.941 200.917 121.856 200.832 C121.515 200.832 121.173 200.832 120.832 200.832 C120.747 200.747 120.661 200.661 120.576 200.576 C120.149 200.576 119.723 200.576 119.296 200.576 C119.211 200.491 119.125 200.405 119.040 200.320 C118.357 200.320 117.675 200.320 116.992 200.320 C116.907 200.405 116.821 200.491 116.736 200.576 C116.224 200.576 115.712 200.576 115.200 200.576 C115.115 200.661 115.029 200.747 114.944 200.832 C114.688 200.832 114.432 200.832 114.176 200.832 C114.091 200.917 114.005 201.003 113.920 201.088 C113.493 201.173 113.067 201.259 112.640 201.344 C112.384 201.515 112.128 201.685 111.872 201.856 C111.616 201.856 111.360 201.856 111.104 201.856 C111.019 201.941 110.933 202.027 110.848 202.112 C110.677 202.112 110.507 202.112 110.336 202.112 C110.251 202.197 110.165 202.283 110.080 202.368 C109.739 202.368 109.397 202.368 109.056 202.368 C108.971 202.453 108.885 202.539 108.800 202.624 C107.435 202.624 106.069 202.624 104.704 202.624 C104.619 202.539 104.533 202.453 104.448 202.368 C104.192 202.368 103.936 202.368 103.680 202.368 C103.595 202.283 103.509 202.197 103.424 202.112 C102.997 202.027 102.571 201.941 102.144 201.856 C101.803 201.685 101.461 201.515 101.120 201.344 C100.992 201.216 100.864 201.088 100.736 200.960 C100.779 200.832 100.821 200.704 100.864 200.576"></path>
<path id="" fill="#f37eaa" fill-opacity="1.0" stroke="#000000" stroke-width="0.0" stroke-opacity="1.0" stroke-linecap="round" stroke-linejoin="round"  filling="0" d="M147.328 194.048 C147.285 194.091 147.243 194.133 147.200 194.176 C146.859 194.176 146.517 194.176 146.176 194.176 C146.091 194.261 146.005 194.347 145.920 194.432 C145.493 194.432 145.067 194.432 144.640 194.432 C144.555 194.517 144.469 194.603 144.384 194.688 C143.360 194.688 142.336 194.688 141.312 194.688 C141.227 194.603 141.141 194.517 141.056 194.432 C140.715 194.432 140.373 194.432 140.032 194.432 C139.947 194.347 139.861 194.261 139.776 194.176 C139.520 194.176 139.264 194.176 139.008 194.176 C138.923 194.091 138.837 194.005 138.752 193.920 C138.667 193.920 138.581 193.920 138.496 193.920 C138.325 193.749 138.155 193.579 137.984 193.408 C137.899 193.408 137.813 193.408 137.728 193.408 C137.515 193.195 137.301 192.981 137.088 192.768 C137.088 192.683 137.088 192.597 137.088 192.512 C137.003 192.427 136.917 192.341 136.832 192.256 C136.832 192.085 136.832 191.915 136.832 191.744 C136.747 191.659 136.661 191.573 136.576 191.488 C136.576 191.403 136.576 191.317 136.576 191.232 C136.491 191.147 136.405 191.061 136.320 190.976 C136.320 190.635 136.320 190.293 136.320 189.952 C136.363 189.909 136.405 189.867 136.448 189.824 C136.704 189.824 136.960 189.824 137.216 189.824 C137.301 189.739 137.387 189.653 137.472 189.568 C138.069 189.568 138.667 189.568 139.264 189.568 C139.349 189.483 139.435 189.397 139.520 189.312 C139.947 189.312 140.373 189.312 140.800 189.312 C140.885 189.227 140.971 189.141 141.056 189.056 C141.312 189.056 141.568 189.056 141.824 189.056 C141.909 189.141 141.995 189.227 142.080 189.312 C142.251 189.312 142.421 189.312 142.592 189.312 C142.677 189.397 142.763 189.483 142.848 189.568 C142.933 189.568 143.019 189.568 143.104 189.568 C143.275 189.739 143.445 189.909 143.616 190.080 C143.701 190.080 143.787 190.080 143.872 190.080 C143.957 190.165 144.043 190.251 144.128 190.336 C144.213 190.336 144.299 190.336 144.384 190.336 C144.469 190.421 144.555 190.507 144.640 190.592 C144.725 190.592 144.811 190.592 144.896 190.592 C145.451 191.147 146.005 191.701 146.560 192.256 C146.560 192.341 146.560 192.427 146.560 192.512 C146.731 192.683 146.901 192.853 147.072 193.024 C147.072 193.109 147.072 193.195 147.072 193.280 C147.157 193.365 147.243 193.451 147.328 193.536 C147.328 193.707 147.328 193.877 147.328 194.048"></path>
<path id="" fill="#f57daa" fill-opacity="1.0" stroke="#000000" stroke-width="0.0" stroke-opacity="1.0" stroke-linecap="round" stroke-linejoin="round"  filling="0" d="M114.560 194.048 C114.560 193.877 114.560 193.707 114.560 193.536 C114.645 193.451 114.731 193.365 114.816 193.280 C114.816 193.195 114.816 193.109 114.816 193.024 C115.157 192.683 115.499 192.341 115.840 192.000 C115.840 191.915 115.840 191.829 115.840 191.744 C115.883 191.701 115.925 191.659 115.968 191.616 C116.053 191.616 116.139 191.616 116.224 191.616 C116.437 191.403 116.651 191.189 116.864 190.976 C116.864 190.891 116.864 190.805 116.864 190.720 C116.907 190.677 116.949 190.635 116.992 190.592 C117.077 190.592 117.163 190.592 117.248 190.592 C117.333 190.507 117.419 190.421 117.504 190.336 C117.589 190.336 117.675 190.336 117.760 190.336 C117.845 190.251 117.931 190.165 118.016 190.080 C118.101 190.080 118.187 190.080 118.272 190.080 C118.443 189.909 118.613 189.739 118.784 189.568 C118.869 189.568 118.955 189.568 119.040 189.568 C119.125 189.483 119.211 189.397 119.296 189.312 C119.467 189.312 119.637 189.312 119.808 189.312 C119.893 189.227 119.979 189.141 120.064 189.056 C120.405 189.056 120.747 189.056 121.088 189.056 C121.173 189.141 121.259 189.227 121.344 189.312 C121.771 189.312 122.197 189.312 122.624 189.312 C122.709 189.397 122.795 189.483 122.880 189.568 C123.392 189.568 123.904 189.568 124.416 189.568 C124.501 189.653 124.587 189.739 124.672 189.824 C124.928 189.824 125.184 189.824 125.440 189.824 C125.483 189.867 125.525 189.909 125.568 189.952 C125.568 190.293 125.568 190.635 125.568 190.976 C125.483 191.061 125.397 191.147 125.312 191.232 C125.312 191.403 125.312 191.573 125.312 191.744 C125.227 191.829 125.141 191.915 125.056 192.000 C125.056 192.171 125.056 192.341 125.056 192.512 C124.757 192.811 124.459 193.109 124.160 193.408 C124.075 193.408 123.989 193.408 123.904 193.408 C123.733 193.579 123.563 193.749 123.392 193.920 C123.307 193.920 123.221 193.920 123.136 193.920 C123.051 194.005 122.965 194.091 122.880 194.176 C122.624 194.176 122.368 194.176 122.112 194.176 C122.027 194.261 121.941 194.347 121.856 194.432 C121.515 194.432 121.173 194.432 120.832 194.432 C120.747 194.517 120.661 194.603 120.576 194.688 C119.637 194.688 118.699 194.688 117.760 194.688 C117.675 194.603 117.589 194.517 117.504 194.432 C116.992 194.432 116.480 194.432 115.968 194.432 C115.883 194.347 115.797 194.261 115.712 194.176 C115.371 194.176 115.029 194.176 114.688 194.176 C114.645 194.133 114.603 194.091 114.560 194.048"></path>
<path id="" fill="#f1fbfd" fill-opacity="1.0" stroke="#000000" stroke-width="0.0" stroke-opacity="1.0" stroke-linecap="round" stroke-linejoin="round"  filling="0" d="M173.440 195.072 C173.056 195.456 172.672 195.840 172.288 196.224 C172.203 196.224 172.117 196.224 172.032 196.224 C171.861 196.395 171.691 196.565 171.520 196.736 C171.435 196.736 171.349 196.736 171.264 196.736 C171.179 196.821 171.093 196.907 171.008 196.992 C170.837 196.992 170.667 196.992 170.496 196.992 C170.411 197.077 170.325 197.163 170.240 197.248 C170.069 197.248 169.899 197.248 169.728 197.248 C169.643 197.333 169.557 197.419 169.472 197.504 C169.131 197.504 168.789 197.504 168.448 197.504 C168.363 197.589 168.277 197.675 168.192 197.760 C167.595 197.760 166.997 197.760 166.400 197.760 C166.315 197.675 166.229 197.589 166.144 197.504 C165.717 197.504 165.291 197.504 164.864 197.504 C164.779 197.419 164.693 197.333 164.608 197.248 C164.437 197.248 164.267 197.248 164.096 197.248 C164.011 197.163 163.925 197.077 163.840 196.992 C163.584 196.992 163.328 196.992 163.072 196.992 C162.987 196.907 162.901 196.821 162.816 196.736 C162.645 196.736 162.475 196.736 162.304 196.736 C162.219 196.651 162.133 196.565 162.048 196.480 C161.877 196.480 161.707 196.480 161.536 196.480 C161.451 196.395 161.365 196.309 161.280 196.224 C161.109 196.224 160.939 196.224 160.768 196.224 C160.683 196.139 160.597 196.053 160.512 195.968 C160.256 195.968 160.000 195.968 159.744 195.968 C159.659 195.883 159.573 195.797 159.488 195.712 C158.464 195.712 157.440 195.712 156.416 195.712 C156.331 195.797 156.245 195.883 156.160 195.968 C155.819 195.968 155.477 195.968 155.136 195.968 C155.051 196.053 154.965 196.139 154.880 196.224 C154.709 196.224 154.539 196.224 154.368 196.224 C154.283 196.309 154.197 196.395 154.112 196.480 C153.856 196.480 153.600 196.480 153.344 196.480 C153.259 196.565 153.173 196.651 153.088 196.736 C153.003 196.736 152.917 196.736 152.832 196.736 C152.704 196.608 152.576 196.480 152.448 196.352 C152.448 196.267 152.448 196.181 152.448 196.096 C152.917 195.712 153.387 195.328 153.856 194.944 C153.941 194.944 154.027 194.944 154.112 194.944 C154.539 194.688 154.965 194.432 155.392 194.176 C155.563 194.176 155.733 194.176 155.904 194.176 C155.989 194.091 156.075 194.005 156.160 193.920 C156.416 193.920 156.672 193.920 156.928 193.920 C157.013 193.835 157.099 193.749 157.184 193.664 C158.208 193.664 159.232 193.664 160.256 193.664 C160.341 193.749 160.427 193.835 160.512 193.920 C160.768 193.920 161.024 193.920 161.280 193.920 C161.365 194.005 161.451 194.091 161.536 194.176 C161.792 194.176 162.048 194.176 162.304 194.176 C162.389 194.261 162.475 194.347 162.560 194.432 C162.731 194.432 162.901 194.432 163.072 194.432 C163.157 194.517 163.243 194.603 163.328 194.688 C163.413 194.688 163.499 194.688 163.584 194.688 C163.669 194.773 163.755 194.859 163.840 194.944 C164.011 194.944 164.181 194.944 164.352 194.944 C164.437 195.029 164.523 195.115 164.608 195.200 C164.864 195.200 165.120 195.200 165.376 195.200 C165.461 195.285 165.547 195.371 165.632 195.456 C165.973 195.456 166.315 195.456 166.656 195.456 C166.741 195.541 166.827 195.627 166.912 195.712 C167.765 195.712 168.619 195.712 169.472 195.712 C169.557 195.627 169.643 195.541 169.728 195.456 C170.069 195.456 170.411 195.456 170.752 195.456 C170.837 195.371 170.923 195.285 171.008 195.200 C171.264 195.200 171.520 195.200 171.776 195.200 C171.861 195.115 171.947 195.029 172.032 194.944 C172.459 194.944 172.885 194.944 173.312 194.944 C173.355 194.987 173.397 195.029 173.440 195.072"></path>
<path id="" fill="#f3fbfe" fill-opacity="1.0" stroke="#000000" stroke-width="0.0" stroke-opacity="1.0" stroke-linecap="round" stroke-linejoin="round"  filling="0" d="M88.960 195.072 C89.003 195.029 89.045 194.987 89.088 194.944 C89.429 194.944 89.771 194.944 90.112 194.944 C90.197 195.029 90.283 195.115 90.368 195.200 C90.624 195.200 90.880 195.200 91.136 195.200 C91.221 195.285 91.307 195.371 91.392 195.456 C91.733 195.456 92.075 195.456 92.416 195.456 C92.501 195.541 92.587 195.627 92.672 195.712 C93.525 195.712 94.379 195.712 95.232 195.712 C95.317 195.627 95.403 195.541 95.488 195.456 C95.829 195.456 96.171 195.456 96.512 195.456 C96.597 195.371 96.683 195.285 96.768 195.200 C97.024 195.200 97.280 195.200 97.536 195.200 C97.621 195.115 97.707 195.029 97.792 194.944 C97.963 194.944 98.133 194.944 98.304 194.944 C98.389 194.859 98.475 194.773 98.560 194.688 C98.731 194.688 98.901 194.688 99.072 194.688 C99.157 194.603 99.243 194.517 99.328 194.432 C99.499 194.432 99.669 194.432 99.840 194.432 C99.925 194.347 100.011 194.261 100.096 194.176 C100.267 194.176 100.437 194.176 100.608 194.176 C100.693 194.091 100.779 194.005 100.864 193.920 C101.120 193.920 101.376 193.920 101.632 193.920 C101.717 193.835 101.803 193.749 101.888 193.664 C102.912 193.664 103.936 193.664 104.960 193.664 C105.045 193.749 105.131 193.835 105.216 193.920 C105.472 193.920 105.728 193.920 105.984 193.920 C106.069 194.005 106.155 194.091 106.240 194.176 C106.411 194.176 106.581 194.176 106.752 194.176 C106.923 194.347 107.093 194.517 107.264 194.688 C107.435 194.688 107.605 194.688 107.776 194.688 C108.032 194.944 108.288 195.200 108.544 195.456 C108.629 195.456 108.715 195.456 108.800 195.456 C109.013 195.669 109.227 195.883 109.440 196.096 C109.440 196.181 109.440 196.267 109.440 196.352 C109.397 196.395 109.355 196.437 109.312 196.480 C109.141 196.480 108.971 196.480 108.800 196.480 C108.715 196.395 108.629 196.309 108.544 196.224 C108.203 196.224 107.861 196.224 107.520 196.224 C107.435 196.139 107.349 196.053 107.264 195.968 C107.008 195.968 106.752 195.968 106.496 195.968 C106.411 195.883 106.325 195.797 106.240 195.712 C105.045 195.712 103.851 195.712 102.656 195.712 C102.571 195.797 102.485 195.883 102.400 195.968 C102.144 195.968 101.888 195.968 101.632 195.968 C101.547 196.053 101.461 196.139 101.376 196.224 C101.205 196.224 101.035 196.224 100.864 196.224 C100.608 196.395 100.352 196.565 100.096 196.736 C99.840 196.736 99.584 196.736 99.328 196.736 C99.243 196.821 99.157 196.907 99.072 196.992 C98.901 196.992 98.731 196.992 98.560 196.992 C98.475 197.077 98.389 197.163 98.304 197.248 C98.048 197.248 97.792 197.248 97.536 197.248 C97.451 197.333 97.365 197.419 97.280 197.504 C96.853 197.504 96.427 197.504 96.000 197.504 C95.915 197.589 95.829 197.675 95.744 197.760 C95.061 197.760 94.379 197.760 93.696 197.760 C93.611 197.675 93.525 197.589 93.440 197.504 C93.184 197.504 92.928 197.504 92.672 197.504 C92.587 197.419 92.501 197.333 92.416 197.248 C92.245 197.248 92.075 197.248 91.904 197.248 C91.648 197.077 91.392 196.907 91.136 196.736 C90.965 196.736 90.795 196.736 90.624 196.736 C90.453 196.565 90.283 196.395 90.112 196.224 C90.027 196.224 89.941 196.224 89.856 196.224 C89.643 196.011 89.429 195.797 89.216 195.584 C89.216 195.499 89.216 195.413 89.216 195.328 C89.131 195.243 89.045 195.157 88.960 195.072"></path>
<path id="" fill="#f28a24" fill-opacity="1.0" stroke="#000000" stroke-width="0.0" stroke-opacity="1.0" stroke-linecap="round" stroke-linejoin="round"  filling="0" d="M102.912 143.744 C102.869 143.701 102.827 143.659 102.784 143.616 C102.784 143.445 102.784 143.275 102.784 143.104 C102.699 143.019 102.613 142.933 102.528 142.848 C102.613 142.763 102.699 142.677 102.784 142.592 C102.784 142.507 102.784 142.421 102.784 142.336 C102.869 142.251 102.955 142.165 103.040 142.080 C103.040 141.995 103.040 141.909 103.040 141.824 C103.125 141.739 103.211 141.653 103.296 141.568 C103.296 141.483 103.296 141.397 103.296 141.312 C103.467 141.141 103.637 140.971 103.808 140.800 C103.808 140.715 103.808 140.629 103.808 140.544 C103.893 140.459 103.979 140.373 104.064 140.288 C104.064 140.203 104.064 140.117 104.064 140.032 C104.235 139.861 104.405 139.691 104.576 139.520 C104.576 139.435 104.576 139.349 104.576 139.264 C104.661 139.179 104.747 139.093 104.832 139.008 C104.832 138.923 104.832 138.837 104.832 138.752 C104.917 138.667 105.003 138.581 105.088 138.496 C105.088 138.325 105.088 138.155 105.088 137.984 C105.173 137.899 105.259 137.813 105.344 137.728 C105.344 137.557 105.344 137.387 105.344 137.216 C105.429 137.131 105.515 137.045 105.600 136.960 C105.600 136.704 105.600 136.448 105.600 136.192 C105.685 136.107 105.771 136.021 105.856 135.936 C105.856 135.851 105.856 135.765 105.856 135.680 C105.984 135.552 106.112 135.424 106.240 135.296 C106.325 135.296 106.411 135.296 106.496 135.296 C106.581 135.211 106.667 135.125 106.752 135.040 C106.837 135.040 106.923 135.040 107.008 135.040 C107.093 135.125 107.179 135.211 107.264 135.296 C107.349 135.296 107.435 135.296 107.520 135.296 C108.075 135.851 108.629 136.405 109.184 136.960 C109.184 137.045 109.184 137.131 109.184 137.216 C109.269 137.301 109.355 137.387 109.440 137.472 C109.440 137.557 109.440 137.643 109.440 137.728 C109.355 137.813 109.269 137.899 109.184 137.984 C109.184 138.155 109.184 138.325 109.184 138.496 C107.605 140.075 106.027 141.653 104.448 143.232 C104.363 143.232 104.277 143.232 104.192 143.232 C104.107 143.317 104.021 143.403 103.936 143.488 C103.765 143.488 103.595 143.488 103.424 143.488 C103.339 143.573 103.253 143.659 103.168 143.744 C103.083 143.744 102.997 143.744 102.912 143.744"></path>
<path id="" fill="#ecf9fd" fill-opacity="1.0" stroke="#000000" stroke-width="0.0" stroke-opacity="1.0" stroke-linecap="round" stroke-linejoin="round"  filling="0" d="M131.200 137.472 C131.200 137.387 131.200 137.301 131.200 137.216 C131.328 137.088 131.456 136.960 131.584 136.832 C133.205 136.832 134.827 136.832 136.448 136.832 C136.533 136.747 136.619 136.661 136.704 136.576 C136.960 136.576 137.216 136.576 137.472 136.576 C137.557 136.491 137.643 136.405 137.728 136.320 C137.813 136.320 137.899 136.320 137.984 136.320 C138.240 136.149 138.496 135.979 138.752 135.808 C138.923 135.808 139.093 135.808 139.264 135.808 C139.349 135.723 139.435 135.637 139.520 135.552 C139.691 135.552 139.861 135.552 140.032 135.552 C140.117 135.467 140.203 135.381 140.288 135.296 C140.459 135.296 140.629 135.296 140.800 135.296 C140.885 135.211 140.971 135.125 141.056 135.040 C141.227 135.040 141.397 135.040 141.568 135.040 C141.653 134.955 141.739 134.869 141.824 134.784 C142.336 134.784 142.848 134.784 143.360 134.784 C143.445 134.699 143.531 134.613 143.616 134.528 C143.872 134.528 144.128 134.528 144.384 134.528 C144.469 134.613 144.555 134.699 144.640 134.784 C145.237 134.784 145.835 134.784 146.432 134.784 C146.517 134.869 146.603 134.955 146.688 135.040 C146.859 135.040 147.029 135.040 147.200 135.040 C147.285 135.125 147.371 135.211 147.456 135.296 C147.627 135.296 147.797 135.296 147.968 135.296 C148.053 135.381 148.139 135.467 148.224 135.552 C148.395 135.552 148.565 135.552 148.736 135.552 C148.821 135.637 148.907 135.723 148.992 135.808 C149.163 135.808 149.333 135.808 149.504 135.808 C149.632 135.936 149.760 136.064 149.888 136.192 C149.888 136.363 149.888 136.533 149.888 136.704 C149.760 136.747 149.632 136.789 149.504 136.832 C149.419 136.917 149.333 137.003 149.248 137.088 C148.907 137.088 148.565 137.088 148.224 137.088 C148.139 137.003 148.053 136.917 147.968 136.832 C147.712 136.832 147.456 136.832 147.200 136.832 C147.115 136.747 147.029 136.661 146.944 136.576 C146.688 136.576 146.432 136.576 146.176 136.576 C146.091 136.491 146.005 136.405 145.920 136.320 C144.469 136.320 143.019 136.320 141.568 136.320 C141.483 136.405 141.397 136.491 141.312 136.576 C141.141 136.576 140.971 136.576 140.800 136.576 C140.715 136.661 140.629 136.747 140.544 136.832 C140.373 136.832 140.203 136.832 140.032 136.832 C139.947 136.917 139.861 137.003 139.776 137.088 C139.605 137.088 139.435 137.088 139.264 137.088 C139.179 137.173 139.093 137.259 139.008 137.344 C138.837 137.344 138.667 137.344 138.496 137.344 C138.411 137.429 138.325 137.515 138.240 137.600 C137.984 137.600 137.728 137.600 137.472 137.600 C137.387 137.685 137.301 137.771 137.216 137.856 C136.960 137.856 136.704 137.856 136.448 137.856 C136.363 137.941 136.277 138.027 136.192 138.112 C135.339 138.112 134.485 138.112 133.632 138.112 C133.547 138.027 133.461 137.941 133.376 137.856 C133.035 137.856 132.693 137.856 132.352 137.856 C132.267 137.771 132.181 137.685 132.096 137.600 C131.840 137.600 131.584 137.600 131.328 137.600 C131.285 137.557 131.243 137.515 131.200 137.472"></path>
<path id="" fill="#131f3c" fill-opacity="1.0" stroke="#000000" stroke-width="0.0" stroke-opacity="1.0" stroke-linecap="round" stroke-linejoin="round"  filling="0" d="M135.680 52.864 C135.637 52.821 135.595 52.779 135.552 52.736 C135.552 51.797 135.552 50.859 135.552 49.920 C135.637 49.835 135.723 49.749 135.808 49.664 C135.808 49.408 135.808 49.152 135.808 48.896 C135.893 48.811 135.979 48.725 136.064 48.640 C136.064 48.555 136.064 48.469 136.064 48.384 C136.149 48.299 136.235 48.213 136.320 48.128 C136.320 47.957 136.320 47.787 136.320 47.616 C136.405 47.531 136.491 47.445 136.576 47.360 C136.576 47.275 136.576 47.189 136.576 47.104 C136.832 46.848 137.088 46.592 137.344 46.336 C137.344 46.251 137.344 46.165 137.344 46.080 C137.728 45.696 138.112 45.312 138.496 44.928 C138.667 44.928 138.837 44.928 139.008 44.928 C139.093 44.843 139.179 44.757 139.264 44.672 C139.435 44.672 139.605 44.672 139.776 44.672 C139.904 44.800 140.032 44.928 140.160 45.056 C140.160 45.227 140.160 45.397 140.160 45.568 C140.245 45.653 140.331 45.739 140.416 45.824 C140.416 45.995 140.416 46.165 140.416 46.336 C140.501 46.421 140.587 46.507 140.672 46.592 C140.672 46.933 140.672 47.275 140.672 47.616 C140.587 47.701 140.501 47.787 140.416 47.872 C140.416 48.043 140.416 48.213 140.416 48.384 C139.861 48.939 139.307 49.493 138.752 50.048 C138.496 50.048 138.240 50.048 137.984 50.048 C137.899 50.133 137.813 50.219 137.728 50.304 C137.557 50.304 137.387 50.304 137.216 50.304 C137.003 50.517 136.789 50.731 136.576 50.944 C136.576 51.029 136.576 51.115 136.576 51.200 C136.405 51.371 136.235 51.541 136.064 51.712 C136.064 51.883 136.064 52.053 136.064 52.224 C135.979 52.309 135.893 52.395 135.808 52.480 C135.808 52.565 135.808 52.651 135.808 52.736 C135.765 52.779 135.723 52.821 135.680 52.864"></path>
<path id="" fill="#f2fcfe" fill-opacity="1.0" stroke="#000000" stroke-width="0.0" stroke-opacity="1.0" stroke-linecap="round" stroke-linejoin="round"  filling="0" d="M156.800 137.984 C156.800 137.643 156.800 137.301 156.800 136.960 C156.843 136.917 156.885 136.875 156.928 136.832 C157.013 136.832 157.099 136.832 157.184 136.832 C157.269 136.747 157.355 136.661 157.440 136.576 C157.611 136.576 157.781 136.576 157.952 136.576 C158.037 136.491 158.123 136.405 158.208 136.320 C158.293 136.320 158.379 136.320 158.464 136.320 C158.549 136.235 158.635 136.149 158.720 136.064 C158.805 136.064 158.891 136.064 158.976 136.064 C159.061 135.979 159.147 135.893 159.232 135.808 C159.488 135.808 159.744 135.808 160.000 135.808 C160.085 135.723 160.171 135.637 160.256 135.552 C160.341 135.552 160.427 135.552 160.512 135.552 C160.597 135.467 160.683 135.381 160.768 135.296 C160.939 135.296 161.109 135.296 161.280 135.296 C161.365 135.211 161.451 135.125 161.536 135.040 C161.621 135.040 161.707 135.040 161.792 135.040 C161.877 134.955 161.963 134.869 162.048 134.784 C162.304 134.784 162.560 134.784 162.816 134.784 C162.901 134.699 162.987 134.613 163.072 134.528 C164.011 134.528 164.949 134.528 165.888 134.528 C165.973 134.613 166.059 134.699 166.144 134.784 C166.229 134.784 166.315 134.784 166.400 134.784 C166.528 134.912 166.656 135.040 166.784 135.168 C166.784 135.253 166.784 135.339 166.784 135.424 C166.571 135.637 166.357 135.851 166.144 136.064 C165.973 136.064 165.803 136.064 165.632 136.064 C165.547 136.149 165.461 136.235 165.376 136.320 C164.437 136.320 163.499 136.320 162.560 136.320 C162.475 136.405 162.389 136.491 162.304 136.576 C162.133 136.576 161.963 136.576 161.792 136.576 C161.707 136.661 161.621 136.747 161.536 136.832 C161.365 136.832 161.195 136.832 161.024 136.832 C160.939 136.917 160.853 137.003 160.768 137.088 C160.683 137.088 160.597 137.088 160.512 137.088 C160.427 137.173 160.341 137.259 160.256 137.344 C160.085 137.344 159.915 137.344 159.744 137.344 C159.659 137.429 159.573 137.515 159.488 137.600 C159.317 137.600 159.147 137.600 158.976 137.600 C158.891 137.685 158.805 137.771 158.720 137.856 C158.635 137.856 158.549 137.856 158.464 137.856 C158.379 137.941 158.293 138.027 158.208 138.112 C157.781 138.112 157.355 138.112 156.928 138.112 C156.885 138.069 156.843 138.027 156.800 137.984"></path>
</svg>