<?xml version="1.0" ?>
<svg xmlns="http://www.w3.org/2000/svg" version="1.1" width="256" height="256" viewBox="0 0 256 256">
  <defs/>
  <g>
    <path d="M 1.99764252 292.01296997 C -24.93065643 274.87936401 -49.16022491 247.26483154 -66.12657928 204.26924133 C -82.60930634 163.21203613 -81.56607819 119.99739075 -60.63027191 85.69129181 C -40.04328156 44.87019348 -15.29677582 12.26474762 16.04128265 -13.81217957 C 46.11019897 -37.74209595 83.59133911 -57.05128479 133.50476074 -57.34204102 C 166.73440552 -56.90890503 204.04312134 -51.56716919 246.69787598 -24.95350647 C 283.64624023 1.87782288 308.68743896 28.38008118 309.75521851 52.81555176 C 321.46118164 97.99549866 321.92965698 137.85565186 314.83703613 169.52986145 C 305.91281128 201.25738525 285.02111816 230.15232849 240.16532898 264.52526855 C 210.86648560 290.34338379 176.62051392 306.87579346 129.37290955 322.04150391 C 90.69027710 329.25469971 58.57553101 326.46112061 1.99764252 292.01296997" stroke-width="0.98155856" fill="rgb(255, 255, 255)" opacity="1.0" stroke="rgb(255, 255, 255)" stroke-opacity="0.0" stroke-linecap="round" stroke-linejoin="round"/>
    <path d="M 204.48254395 179.36029053 C 190.53324890 197.19038391 188.15751648 198.90505981 161.54270935 214.84434509 C 146.32150269 219.90167236 131.80413818 224.98556519 105.40287018 218.31527710 C 88.98113251 213.37399292 75.99270630 207.45806885 58.50283051 188.56204224 C 41.26042175 163.04641724 41.00529480 158.04011536 36.71208191 134.33233643 C 37.07030487 115.10752869 39.22482300 98.34954071 52.88426208 76.72583008 C 64.95001221 63.11790466 68.69747162 55.92800903 89.77847290 46.43463135 C 109.51934814 39.58484650 117.70972443 33.12149811 140.68374634 45.78298950 C 154.64553833 51.15235901 178.70819092 63.16758728 191.69070435 72.76383972 C 204.82464600 90.89424133 210.00228882 101.78825378 218.60449219 121.72904205 C 220.74409485 144.19734192 213.24850464 163.55545044 204.48254395 179.36029053" stroke-width="0.73748553" fill="rgb(195, 147, 116)" opacity="1.0" stroke="rgb(255, 255, 255)" stroke-opacity="0.0" stroke-linecap="round" stroke-linejoin="round"/>
    <path d="M 202.31880188 127.97871399 C 179.96170044 125.02702332 173.84454346 131.45069885 155.55796814 126.34922791 C 152.08264160 113.98207092 138.29981995 99.95591736 120.82892609 108.79344177 C 107.21028137 118.77075195 100.77531433 133.84088135 84.03469086 127.63600159 C 67.22090912 125.02890778 49.77355194 139.13781738 54.62327576 119.90110779 C 55.64289093 103.20250702 65.66151428 84.77942657 75.38229370 75.80889893 C 97.46328735 58.03915405 90.59743500 63.40319061 109.47926331 55.47013855 C 125.40365601 60.23315430 131.28614807 66.98365784 143.77005005 51.19316101 C 160.49275208 45.67896652 168.08981323 46.15553284 184.44691467 60.24112701 C 196.89288330 68.72313690 205.91416931 84.05982208 211.86596680 98.93933868 C 218.02926636 122.04962921 220.62249756 131.89068604 202.31880188 127.97871399" stroke-width="1.90529954" fill="rgb(244, 168, 17)" opacity="1.0" stroke="rgb(114, 85, 42)" stroke-opacity="1.0" stroke-linecap="round" stroke-linejoin="round"/>
    <path d="M 150.66671753 129.71566772 C 146.15299988 131.29307556 142.34161377 130.64675903 137.10578918 131.38272095 C 132.28996277 131.76274109 128.12237549 134.62710571 124.64511108 130.14076233 C 123.05623627 125.87950134 120.78041840 121.94554901 115.23548889 120.71720886 C 109.10576630 119.45121002 105.84752655 122.22004700 102.35942841 125.87505341 C 102.01647949 122.63677979 104.29786682 116.18493652 106.77861786 113.18167877 C 112.55245209 106.21920776 110.78810883 108.28577423 115.64278412 105.03101349 C 122.40389252 102.62123871 123.75344849 101.91510010 130.78578186 102.03990936 C 135.26718140 102.68972015 137.91752625 103.77773285 143.92494202 107.39208984 C 148.93635559 111.60494995 149.57318115 113.13996887 151.93092346 117.96437836 C 154.24497986 123.06137848 155.28108215 128.41308594 150.66671753 129.71566772" stroke-width="1.74046779" fill="rgb(239, 51, 34)" opacity="1.0" stroke="rgb(0, 21, 63)" stroke-opacity="0.90420806" stroke-linecap="round" stroke-linejoin="round"/>
    <path d="M 149.40592957 188.24122620 C 146.07077026 191.38798523 144.17730713 191.35102844 138.80743408 192.73892212 C 135.28147888 193.20657349 131.92259216 193.39324951 126.66641235 193.54277039 C 124.03379059 193.57579041 118.82305145 193.15213013 115.29971313 191.17501831 C 112.04370880 189.72523499 109.92193604 185.24386597 109.72871399 180.95886230 C 109.56887054 175.99673462 107.63613892 171.51739502 111.42199707 171.90278625 C 115.77870941 170.66053772 116.74774170 168.67462158 119.77395630 166.49737549 C 125.41202545 164.97238159 126.41333771 165.46498108 130.89930725 165.45793152 C 136.63909912 165.95239258 139.40765381 166.90966797 141.73915100 170.03555298 C 144.32196045 174.44026184 148.35470581 171.49008179 151.07180786 176.42388916 C 152.05543518 179.72990417 151.32560730 186.03445435 149.40592957 188.24122620" stroke-width="2.00000000" fill="rgb(174, 98, 142)" opacity="1.0" stroke="rgb(2, 62, 162)" stroke-opacity="0.48881558" stroke-linecap="round" stroke-linejoin="round"/>
    <path d="M 131.63543701 67.13137817 C 131.99707031 75.17636108 133.33766174 77.24047089 133.40687561 86.67668152 C 134.24896240 95.95149994 131.45610046 102.93190002 122.81310272 99.71389771 C 115.45449829 94.81242371 117.59889221 89.68492126 114.52777863 79.67720032 C 113.42851257 72.73783112 112.81793976 65.04240417 111.88650513 56.31614304 C 108.73382568 47.17108917 101.56264496 50.85583878 92.24117279 55.96817017 C 83.57931519 55.29193878 81.91392517 50.89701462 90.74733734 47.72626114 C 97.09704590 44.93782806 102.54014587 42.69023895 111.76300812 41.21232224 C 117.87996674 39.56138611 121.96456909 38.17125320 131.88357544 36.37771988 C 143.94300842 37.05618286 138.70999146 44.19438934 131.21856689 49.29733276 C 124.31646729 55.04160309 127.79714203 56.63100052 131.63543701 67.13137817" stroke-width="1.71555662" fill="rgb(231, 94, 25)" opacity="1.0" stroke="rgb(25, 32, 49)" stroke-opacity="0.8468283" stroke-linecap="round" stroke-linejoin="round"/>
    <path d="M 149.07485962 59.74350739 C 145.77398682 61.29115677 140.51051331 63.76394653 137.41928101 66.41747284 C 136.72445679 70.61074829 138.95333862 76.35132599 135.98348999 76.65815735 C 137.64329529 70.29301453 135.03074646 67.06962585 129.76046753 65.31233215 C 126.18475342 64.20668793 122.44860840 64.72435760 118.26042175 59.45885086 C 113.48449707 55.37264633 114.27151489 50.51696014 115.09669495 44.00222015 C 119.73280334 35.89330292 117.83749390 37.23668289 124.35742188 36.32960510 C 132.15429688 38.25049591 134.79528809 39.34115982 140.08450317 40.09819031 C 148.01420593 41.85709381 151.41757202 42.82251358 156.07598877 44.12705231 C 161.63623047 46.32894135 167.90892029 46.64411926 165.00546265 53.23807144 C 158.68043518 57.02302933 156.36662292 55.93590546 149.07485962 59.74350739" stroke-width="1.81247306" fill="rgb(204, 112, 46)" opacity="1.0" stroke="rgb(80, 64, 73)" stroke-opacity="1.0" stroke-linecap="round" stroke-linejoin="round"/>
    <path d="M 139.98419189 82.72026825 C 138.87562561 85.59082794 138.41226196 88.23223114 136.90473938 92.16768646 C 136.79740906 95.28459930 134.07519531 98.85527802 130.64187622 99.77949524 C 130.00213623 96.95423126 131.60818481 91.88771057 131.49353027 88.37796021 C 132.01440430 83.72805023 132.04331970 80.88809204 132.26405334 77.14685059 C 132.61033630 73.84077454 132.45866394 70.41728973 132.64900208 65.69079590 C 133.64549255 60.42675018 135.91868591 60.43718719 137.04830933 57.80810547 C 137.75866699 53.03479004 141.98815918 51.49416351 144.82704163 52.70558167 C 149.51377869 53.69044113 149.88220215 55.76470184 148.57569885 60.33795929 C 146.78520203 64.92686462 145.26545715 67.46883392 144.38879395 70.74020386 C 142.84153748 74.14246368 141.48173523 78.01614380 139.98419189 82.72026825" stroke-width="0.97274792" fill="rgb(253, 195, 0)" opacity="1.0" stroke="rgb(255, 221, 70)" stroke-opacity="0.8385352" stroke-linecap="round" stroke-linejoin="round"/>
    <path d="M 123.35702515 83.03967285 C 123.51117706 85.73300171 123.76621246 89.84738159 124.11461639 93.23514557 C 125.46894836 98.26695251 123.00218201 100.93729401 118.82543945 98.57505035 C 116.21051788 95.03707123 116.92022705 91.50274658 115.67654419 88.07493591 C 114.86212921 83.30434418 114.28720093 81.42728424 112.93368530 76.41699982 C 111.93733978 72.38211060 110.68414307 70.06777191 108.45663452 65.53318787 C 106.80981445 61.68400955 107.04506683 60.48925400 105.24872589 57.25723648 C 105.57437897 53.31766129 110.48469543 53.44437790 114.37786102 52.60531998 C 118.01762390 54.77033997 117.63584900 58.66574860 120.26074219 60.71766281 C 123.10273743 62.72220612 122.93518066 65.49753571 122.55863190 70.50709534 C 122.61431122 75.37788391 122.68664551 78.59738159 123.35702515 83.03967285" stroke-width="1.73961902" fill="rgb(254, 193, 2)" opacity="1.0" stroke="rgb(255, 249, 73)" stroke-opacity="0.7078899" stroke-linecap="round" stroke-linejoin="round"/>
    <path d="M 105.47488403 68.78120422 C 105.03274536 67.86821747 103.12855530 62.70855713 101.93744659 59.94749451 C 100.09535217 55.46798325 105.11859894 55.70326996 108.67022705 54.05816269 C 111.52980042 55.39291382 110.96603394 60.62950134 111.95072174 63.14296722 C 112.68236542 66.15225220 113.70119476 70.34140778 114.25818634 73.44575500 C 115.64989471 78.33470154 115.61232758 79.12747955 117.10492706 84.10467529 C 118.26091003 88.69210815 118.20542908 89.35128784 119.08773041 92.61204529 C 120.68824005 96.80033112 121.63312531 101.00337219 117.09889221 99.16122437 C 115.31989288 94.90489197 115.53794098 93.44155884 113.39357758 89.48667145 C 112.17070007 86.02173615 110.67028809 82.66413879 109.91781616 79.81982422 C 108.33431244 76.05721283 107.19554901 72.97555542 105.47488403 68.78120422" stroke-width="0.00000000" fill="rgb(234, 58, 34)" opacity="1.0" stroke="rgb(255, 255, 0)" stroke-opacity="0.0" stroke-linecap="round" stroke-linejoin="round"/>
    <path d="M 145.33689880 82.61521912 C 144.80052185 84.09248352 143.25321960 87.82592773 141.84751892 91.33153534 C 140.73298645 94.67238617 139.65895081 99.88912964 136.49053955 100.13209534 C 134.60205078 97.28404999 136.82760620 93.83278656 137.27685547 90.20299530 C 138.02233887 86.92079926 138.82879639 83.84804535 140.11334229 79.68634033 C 140.88748169 75.94094849 141.34425354 74.17066956 142.55880737 69.04323578 C 143.56681824 64.66931915 143.96505737 63.74155045 144.72792053 60.13569260 C 145.31445312 54.95981598 145.50764465 53.01863861 150.91482544 55.16915131 C 155.79431152 56.25361633 156.88410950 56.65119171 154.03060913 61.08747864 C 151.80923462 65.11230469 150.68237305 68.01391602 149.88517761 71.04661560 C 148.53553772 74.39949036 146.96592712 78.18029785 145.33689880 82.61521912" stroke-width="2.00000000" fill="rgb(237, 60, 31)" opacity="1.0" stroke="rgb(255, 221, 47)" stroke-opacity="0.6262217" stroke-linecap="round" stroke-linejoin="round"/>
    <path d="M 75.64968109 91.21822357 C 72.19831848 88.38165283 71.14462280 88.64941406 67.03571320 85.55028534 C 65.34147644 82.71513367 69.44419861 79.99098206 71.35591888 78.62973022 C 74.78881073 79.36048889 77.06145477 83.55538177 79.47847748 84.98719788 C 82.14338684 87.60593414 83.95225525 89.25617218 87.27759552 92.10112762 C 90.44355774 94.80214691 91.70288849 95.74036407 95.54148865 99.27083588 C 98.76959229 102.20833588 98.96330261 102.81115723 101.85280609 105.27177429 C 106.76940155 107.49091339 104.71754456 111.52565002 100.51065063 109.20713806 C 97.63566589 107.38745117 95.46123505 105.08055115 92.35620117 103.04592896 C 89.68495178 100.84914398 87.10259247 99.15590668 84.11585236 96.95796204 C 81.27795410 95.41971588 78.98712158 93.66172028 75.64968109 91.21822357" stroke-width="0.25730661" fill="rgb(234, 53, 32)" opacity="1.0" stroke="rgb(230, 139, 21)" stroke-opacity="1.0" stroke-linecap="round" stroke-linejoin="round"/>
    <path d="M 86.68563843 119.48372650 C 84.93682098 118.43968964 83.64945221 117.83177948 80.52970123 116.70904541 C 78.91629028 115.61481476 75.47608185 115.10184479 73.94578552 113.59061432 C 73.83404541 110.91088867 74.58834839 110.55765533 76.27307129 107.06233978 C 78.05202484 104.23311615 78.29008484 103.73924255 81.33734131 102.64097595 C 84.83290863 101.98091888 87.36856079 102.71026611 88.83245087 103.40083313 C 92.93391418 105.95314026 91.77944946 105.43590546 93.93775177 106.84223175 C 95.88091278 107.49636078 98.96660614 109.08438110 100.21447754 111.18856812 C 101.92837524 113.62765503 101.21538544 115.10597229 99.80773926 118.09584045 C 98.73422241 120.11520386 97.70482635 121.68934631 94.50691223 122.21539307 C 91.09267426 121.55599213 91.06772614 120.69895172 86.68563843 119.48372650" stroke-width="2.00000000" fill="rgb(253, 204, 2)" opacity="1.0" stroke="rgb(255, 241, 0)" stroke-opacity="0.5162208" stroke-linecap="round" stroke-linejoin="round"/>
    <path d="M 88.47679901 77.80390930 C 85.71373749 73.79952240 84.63583374 73.37109375 81.73819733 69.80889893 C 81.28779602 66.53573608 86.00803375 64.52320862 88.64345551 63.34078979 C 91.19392395 64.68379211 92.34774017 69.67549896 94.36965942 72.41352844 C 96.90396881 76.83900452 96.99465942 76.97395325 99.81753540 81.63700867 C 102.12914276 85.26127625 102.58097076 86.01287842 105.50278473 90.92021179 C 108.28256226 95.80931854 107.68263245 95.13648987 109.83062744 98.36386871 C 113.35777283 101.08982086 112.55298615 105.07828522 108.08018494 103.16649628 C 105.55776978 98.88430023 103.76532745 96.51114655 101.57476044 94.37238312 C 98.38254547 90.24668121 97.44173431 89.13941956 94.95442200 86.11814117 C 92.69146729 82.99941254 91.90278625 81.92576599 88.47679901 77.80390930" stroke-width="2.00000000" fill="rgb(233, 56, 33)" opacity="1.0" stroke="rgb(255, 255, 38)" stroke-opacity="0.35687235" stroke-linecap="round" stroke-linejoin="round"/>
    <path d="M 163.65092468 82.44943237 C 162.13661194 84.57164764 158.35365295 89.04703522 155.91224670 92.54028320 C 152.00209045 96.65517426 149.52243042 100.23873901 146.55313110 104.00271606 C 141.92219543 104.09107208 146.27929688 98.82777405 148.04765320 94.46997070 C 151.08288574 89.87463379 152.26058960 88.76979065 156.24743652 82.16515350 C 158.79800415 76.53617096 158.44387817 76.73965454 162.83999634 70.76853943 C 166.27865601 64.50910950 168.27258301 64.83060455 165.70770264 60.27592468 C 161.72953796 52.91131592 162.51130676 48.52588272 168.06724548 52.64967728 C 172.71098328 57.11256027 173.73159790 58.59985352 179.02751160 60.48564148 C 184.64079285 64.99291229 178.24092102 65.65320587 173.82434082 70.31421661 C 170.07203674 73.80329895 168.22311401 75.92539978 163.65092468 82.44943237" stroke-width="1.67782712" fill="rgb(219, 79, 49)" opacity="1.0" stroke="rgb(251, 193, 44)" stroke-opacity="0.45340833" stroke-linecap="round" stroke-linejoin="round"/>
    <path d="M 64.48979187 107.25582123 C 63.76974487 106.51835632 58.66163254 105.93589020 56.45836639 103.38552094 C 56.82559204 99.16464233 59.55506897 96.00099182 62.32339478 97.71702576 C 65.99518585 99.08763885 68.88613129 101.07259369 72.15025330 102.40164948 C 76.81011200 104.62359619 76.66648102 104.62554932 81.79122162 106.90072632 C 84.37758636 108.28711700 86.63116455 109.27647400 90.93629456 111.06098938 C 95.09877014 113.06369019 95.77805328 113.42702484 99.24721527 114.70621490 C 101.76264954 118.02027893 99.34490204 119.25853729 94.42106628 117.35636139 C 90.53597260 115.84635925 89.65383911 115.47835541 85.15059662 114.12658691 C 81.89117432 113.07718658 78.52050781 112.04367828 75.07421112 110.61046600 C 71.69304657 109.29032898 69.95851898 109.15203857 64.48979187 107.25582123" stroke-width="0.10081424" fill="rgb(234, 56, 32)" opacity="1.0" stroke="rgb(228, 93, 27)" stroke-opacity="0.892891" stroke-linecap="round" stroke-linejoin="round"/>
    <path d="M 162.04849243 112.39279938 C 165.38993835 111.74955750 168.31857300 109.64905548 173.08566284 107.50102234 C 177.77807617 104.79077911 179.40368652 104.22244263 184.36473083 102.33931732 C 188.43267822 100.67048645 192.33692932 98.33468628 195.95903015 96.38994598 C 199.48229980 94.25833130 203.42152405 89.32986450 204.96647644 95.40765381 C 206.27668762 99.85724640 209.00144958 105.23326874 201.88545227 104.65978241 C 196.94723511 105.49163055 196.32417297 105.51655579 192.27601624 107.06758881 C 187.79568481 108.35378265 186.26580811 109.01330566 179.69790649 111.09084320 C 175.94906616 112.94525909 174.01211548 112.70481110 168.38580322 114.55464172 C 164.50181580 115.99622345 160.68759155 117.79179382 156.66770935 118.45658875 C 154.46984863 116.01833344 157.90229797 114.11177063 162.04849243 112.39279938" stroke-width="0.11358143" fill="rgb(223, 78, 51)" opacity="1.0" stroke="rgb(174, 14, 68)" stroke-opacity="0.21143556" stroke-linecap="round" stroke-linejoin="round"/>
    <path d="M 179.46040344 82.77200317 C 180.92779541 81.17046356 184.33609009 77.97191620 186.51312256 74.83377075 C 190.00801086 70.09146118 192.63642883 74.64387512 195.23713684 78.05654907 C 197.49127197 81.84692383 192.90039062 83.15509033 188.93164062 85.52677155 C 185.38265991 88.00349426 182.20790100 89.55767059 178.38111877 92.04676819 C 174.38517761 95.23605347 173.68074036 96.04153442 168.29598999 99.77365112 C 164.14903259 102.36270905 163.13806152 102.58992767 160.33255005 104.60751343 C 157.28347778 107.66883850 153.51039124 111.56956482 150.62361145 108.37300110 C 152.80897522 106.00098419 158.03176880 102.80310822 159.50659180 100.50881958 C 164.14001465 96.37802124 165.25068665 95.53931427 168.78005981 92.27771759 C 172.46252441 88.94768524 174.43551636 87.56639099 179.46040344 82.77200317" stroke-width="0.46324047" fill="rgb(224, 75, 50)" opacity="1.0" stroke="rgb(183, 13, 47)" stroke-opacity="0.3022786" stroke-linecap="round" stroke-linejoin="round"/>
    <path d="M 107.67656708 176.18856812 C 108.01889038 176.60975647 113.50341034 177.49754333 111.46273804 180.82154846 C 109.34147644 186.22424316 108.70162964 186.99017334 106.94106293 189.83166504 C 102.61172485 190.36494446 101.64521790 188.76205444 96.71592712 190.35337830 C 94.10529327 190.66676331 90.83578491 193.27798462 86.30397034 193.96009827 C 81.94209290 191.27377319 82.52960205 191.06051636 77.70870972 187.35623169 C 74.68436432 184.42137146 74.66060638 184.25454712 71.42125702 181.34722900 C 69.39902496 178.59997559 74.02937317 173.83285522 76.18691254 173.36027527 C 79.74375916 172.62585449 82.76660919 172.75918579 86.08733368 171.37991333 C 89.09458160 170.18289185 93.05431366 169.23472595 96.82705688 170.93331909 C 100.70131683 172.30015564 101.75090790 173.09254456 107.67656708 176.18856812" stroke-width="2.00000000" fill="rgb(44, 87, 73)" opacity="1.0" stroke="rgb(249, 243, 255)" stroke-opacity="0.7649149" stroke-linecap="round" stroke-linejoin="round"/>
    <path d="M 178.85371399 187.68667603 C 177.00187683 187.53387451 175.75880432 188.86425781 172.65153503 191.64236450 C 171.22093201 193.45968628 168.58561707 195.56018066 165.11398315 193.36169434 C 163.01942444 192.48875427 161.02911377 190.81829834 157.65603638 189.68594360 C 155.65731812 188.97853088 152.28457642 189.59877014 152.48466492 185.77659607 C 152.41238403 183.22750854 152.36187744 181.08236694 154.81170654 179.22454834 C 157.20927429 178.10845947 158.07284546 177.13331604 160.88369751 175.57493591 C 163.99700928 174.49316406 165.01226807 173.57167053 168.71145630 174.76876831 C 171.70043945 176.10606384 173.48280334 177.69189453 175.74682617 179.42338562 C 178.08581543 180.97964478 180.97657776 183.11511230 182.70542908 184.12965393 C 185.47776794 186.71440125 184.03976440 187.52845764 178.85371399 187.68667603" stroke-width="1.07319379" fill="rgb(69, 113, 79)" opacity="1.0" stroke="rgb(0, 0, 153)" stroke-opacity="0.0" stroke-linecap="round" stroke-linejoin="round"/>
    <path d="M 161.88861084 127.47534943 C 167.90930176 127.29989624 168.20924377 128.23402405 176.06462097 127.39173889 C 182.90003967 127.93077087 181.59213257 127.95609283 191.73042297 127.82144928 C 196.96388245 127.05094910 200.11555481 127.82932281 207.08001709 128.73623657 C 213.16773987 129.81610107 219.52352905 129.82785034 218.73078918 124.51293945 C 213.33665466 124.54594421 220.01962280 129.17639160 218.83392334 130.84565735 C 213.30545044 130.18394470 213.59851074 127.93936157 206.97842407 128.66944885 C 201.95143127 130.62420654 197.88558960 132.54695129 191.66841125 133.79623413 C 185.68212891 133.90615845 183.40638733 130.54881287 178.24664307 131.50006104 C 173.26898193 134.46842957 169.32916260 134.48695374 164.59582520 132.99237061 C 161.62159729 130.53651428 153.92022705 126.97879028 161.88861084 127.47534943" stroke-width="1.42764711" fill="rgb(0, 30, 73)" opacity="1.0" stroke="rgb(240, 255, 223)" stroke-opacity="0.21606414" stroke-linecap="round" stroke-linejoin="round"/>
    <path d="M 94.41737366 127.33174133 C 99.80524445 127.96846008 100.18367004 127.88607025 106.35620117 130.46786499 C 110.53877258 134.65147400 106.91020203 134.30892944 101.00901031 132.26144409 C 97.00410461 131.24722290 93.50738525 131.82023621 88.81930542 132.67593384 C 83.64906311 134.07565308 81.21794128 134.45816040 77.21860504 132.17649841 C 72.93601990 130.39071655 70.01198578 132.70387268 64.89061737 133.82742310 C 60.62404633 134.16369629 59.73731995 132.51788330 56.30608749 131.85800171 C 48.71633148 131.71015930 50.56310654 127.54312897 56.68844604 127.48681641 C 60.44796371 127.53815460 64.17481232 127.98854828 68.53161621 127.58842468 C 72.50445557 127.35211182 76.52201843 127.60059357 81.34917450 127.89006805 C 85.95505524 128.17987061 89.87265015 127.57444763 94.41737366 127.33174133" stroke-width="1.41164744" fill="rgb(3, 37, 80)" opacity="1.0" stroke="rgb(208, 255, 255)" stroke-opacity="0.28322273" stroke-linecap="round" stroke-linejoin="round"/>
    <path d="M 169.64260864 159.86853027 C 167.24084473 162.76202393 166.37365723 163.85023499 164.19042969 166.46119690 C 161.72888184 169.92211914 161.50556946 170.09074402 158.83615112 173.63064575 C 156.99684143 176.22663879 156.18960571 177.18867493 153.73239136 180.42779541 C 151.81486511 183.11729431 151.16490173 185.51647949 148.26437378 183.39662170 C 145.47845459 181.02905273 142.15702820 179.92086792 144.17530823 178.50344849 C 147.47706604 175.40110779 148.40005493 175.71984863 150.29742432 175.17549133 C 154.15475464 172.93708801 153.69470215 173.75941467 157.11541748 170.12034607 C 158.71696472 167.96160889 160.52607727 166.02874756 162.28887939 162.28639221 C 163.17358398 159.26625061 162.83560181 157.73080444 165.63745117 155.21688843 C 168.82481384 155.15759277 172.51354980 157.14002991 169.64260864 159.86853027" stroke-width="2.00000000" fill="rgb(7, 28, 74)" opacity="1.0" stroke="rgb(255, 247, 255)" stroke-opacity="0.6061982" stroke-linecap="round" stroke-linejoin="round"/>
    <path d="M 96.51538849 150.82614136 C 98.83609009 151.24942017 101.56646729 153.82128906 97.96513367 156.15841675 C 93.72279358 155.41835022 91.07118225 153.16784668 88.06886292 154.42877197 C 84.85877991 154.74794006 82.75640106 156.52903748 79.31214142 157.63716125 C 75.37129974 158.32386780 73.25971222 156.37530518 70.08264160 155.01994324 C 67.10087585 153.63537598 63.05396652 154.28901672 59.65556335 155.79916382 C 55.69201660 155.06985474 58.30596924 152.57467651 60.06533051 151.26097107 C 63.94993591 149.76597595 63.68378830 150.30436707 68.76828003 150.16149902 C 72.13409424 150.54095459 73.85134125 152.78921509 77.44444275 153.51086426 C 80.53258514 153.19947815 83.66553497 151.98904419 87.38202667 151.04090881 C 90.40177917 149.22293091 91.22058868 149.33615112 96.51538849 150.82614136" stroke-width="1.94493794" fill="rgb(5, 38, 85)" opacity="1.0" stroke="rgb(0, 33, 83)" stroke-opacity="1.0" stroke-linecap="round" stroke-linejoin="round"/>
    <path d="M 97.41865540 167.18119812 C 95.40826416 167.54522705 93.44012451 164.92214966 89.56016541 165.93653870 C 85.35829163 167.29190063 85.71916962 168.09169006 81.15004730 169.41378784 C 76.95861816 169.81474304 76.87713623 168.13481140 72.60996246 166.28422546 C 69.13699341 165.24908447 66.20300293 165.62037659 64.97363281 166.76776123 C 63.42135620 166.29193115 58.76165009 163.31663513 62.29822540 160.34109497 C 66.28394318 159.35209656 66.93162537 159.30276489 69.52453613 160.94313049 C 73.53744507 162.75825500 73.02261353 163.19692993 78.18093872 163.54190063 C 81.62580872 163.19117737 82.25632477 162.76174927 85.73062134 160.82492065 C 88.69841003 159.83813477 92.61773682 158.93423462 95.56510162 160.81594849 C 98.32579803 162.88075256 97.36771393 166.31990051 97.41865540 167.18119812" stroke-width="1.31596529" fill="rgb(7, 36, 83)" opacity="1.0" stroke="rgb(0, 33, 79)" stroke-opacity="1.0" stroke-linecap="round" stroke-linejoin="round"/>
    <path d="M 200.60675049 155.05445862 C 197.97740173 155.89414978 193.63851929 157.50207520 190.40069580 158.14163208 C 185.02253723 159.56163025 183.59866333 160.75802612 179.76109314 159.52030945 C 176.49163818 157.85368347 173.91368103 158.21130371 169.91485596 157.53092957 C 166.69294739 156.37341309 163.95312500 155.95132446 159.54420471 153.61553955 C 154.25756836 151.15272522 155.23846436 149.35914612 160.75556946 148.28475952 C 166.59933472 147.92488098 165.54835510 147.87445068 170.58168030 147.25651550 C 173.97752380 147.07148743 176.60408020 147.65985107 181.22097778 150.15364075 C 185.06677246 151.76803589 187.07699585 152.06500244 191.41250610 149.79763794 C 195.65979004 148.44033813 199.30926514 146.60504150 201.71496582 148.73596191 C 201.46356201 151.73667908 199.69592285 152.48696899 200.60675049 155.05445862" stroke-width="2.00000000" fill="rgb(8, 34, 81)" opacity="1.0" stroke="rgb(177, 248, 255)" stroke-opacity="0.44323382" stroke-linecap="round" stroke-linejoin="round"/>
    <path d="M 97.50205231 169.72311401 C 100.44591522 169.64527893 103.24067688 171.98110962 102.54770660 175.31906128 C 100.79354858 179.07957458 98.25346375 177.15237427 94.56663513 176.45552063 C 90.30162048 176.08009338 89.57815552 176.08424377 85.24971008 177.03712463 C 80.80295563 178.01828003 80.44571686 178.18386841 76.82263184 181.26852417 C 73.51744843 185.22824097 71.42939758 180.49861145 69.93338013 178.84254456 C 66.74909210 174.65661621 67.65417480 175.78135681 64.89521790 172.38873291 C 62.25518036 169.79539490 68.21311951 168.65325928 70.66385651 169.48010254 C 74.61378479 171.17196655 76.46118164 172.50109863 79.41687012 173.01123047 C 84.13581085 173.11286926 84.70970154 171.59318542 87.74623108 170.08959961 C 90.67489624 168.85984802 94.46995544 169.43899536 97.50205231 169.72311401" stroke-width="2.00000000" fill="rgb(6, 43, 78)" opacity="1.0" stroke="rgb(238, 255, 255)" stroke-opacity="0.33262232" stroke-linecap="round" stroke-linejoin="round"/>
    <path d="M 97.32529449 145.48049927 C 95.02603149 144.48054504 91.30119324 143.82102966 86.92163086 144.88139343 C 82.75092316 146.06704712 81.99412537 148.40061951 76.42062378 147.08580017 C 72.76390839 145.70889282 70.69947052 143.58416748 65.60200500 144.10621643 C 61.00459671 144.84674072 57.20059967 146.45507812 55.94549561 148.03947449 C 55.60304642 145.82818604 52.35552979 140.47151184 56.38628387 142.55268860 C 60.94153976 143.72042847 61.14693069 144.95391846 65.35156250 144.30683899 C 69.41627502 142.69729614 70.29739380 141.19305420 75.49444580 142.22471619 C 79.66283417 143.57885742 81.87331390 145.52626038 87.29578400 143.18333435 C 91.55439758 142.07414246 94.83447266 140.42832947 99.37896729 140.62486267 C 103.03890228 141.43859863 104.21172333 147.91656494 97.32529449 145.48049927" stroke-width="1.57413757" fill="rgb(5, 33, 80)" opacity="1.0" stroke="rgb(4, 39, 84)" stroke-opacity="0.9824312" stroke-linecap="round" stroke-linejoin="round"/>
    <path d="M 71.87977600 134.74633789 C 75.02413940 134.71481323 76.80708313 135.68455505 80.69297028 136.82519531 C 84.82420349 136.71374512 85.66671753 137.79429626 91.61022186 134.92712402 C 96.97325134 134.43772888 99.79367828 132.59185791 102.41317749 135.49668884 C 98.89036560 138.44105530 96.43737793 136.49856567 89.87260437 137.28039551 C 85.55979919 138.16906738 84.63734436 140.27529907 79.69950104 138.17778015 C 74.77299500 137.08352661 73.69010925 135.01582336 69.74563599 136.73092651 C 66.05847168 138.70625305 63.27263260 139.87980652 59.37831116 137.93153381 C 56.07983398 136.50979614 55.48681641 136.86779785 54.08242798 136.55363464 C 52.35245895 132.16226196 57.32135391 136.47132874 61.45638275 136.93374634 C 67.20149231 137.15213013 67.98493195 136.79328918 71.87977600 134.74633789" stroke-width="1.80717003" fill="rgb(6, 36, 83)" opacity="1.0" stroke="rgb(0, 32, 78)" stroke-opacity="0.9694016" stroke-linecap="round" stroke-linejoin="round"/>
    <path d="M 200.79541016 146.21707153 C 197.64361572 145.62922668 195.05352783 145.30484009 191.85076904 147.73912048 C 188.67745972 149.55397034 185.00625610 149.78401184 181.53652954 148.12583923 C 178.86689758 145.90937805 175.42713928 145.50534058 171.61976624 146.31016541 C 167.33128357 147.13569641 164.31437683 150.65908813 161.67323303 147.95341492 C 160.11126709 145.57440186 158.66741943 138.40519714 164.17849731 140.43022156 C 168.38179016 141.36247253 168.11178589 142.63377380 172.49783325 142.29884338 C 176.15217590 141.37622070 177.93232727 139.41482544 182.88035583 140.51606750 C 186.66253662 141.56155396 188.26527405 143.72265625 192.99264526 142.27879333 C 196.64151001 141.03846741 200.30181885 139.14653015 203.01162720 140.89218140 C 203.35464478 144.03559875 202.04002380 147.76635742 200.79541016 146.21707153" stroke-width="1.77907789" fill="rgb(8, 42, 77)" opacity="1.0" stroke="rgb(238, 255, 255)" stroke-opacity="0.6805835" stroke-linecap="round" stroke-linejoin="round"/>
    <path d="M 194.78955078 169.98112488 C 192.76489258 170.52143860 189.87150574 174.06228638 186.97421265 177.08100891 C 184.20974731 180.90559387 183.33071899 184.68338013 179.38288879 181.94514465 C 175.20649719 178.82312012 174.48915100 176.83567810 169.42526245 176.19447327 C 165.12451172 175.53974915 161.52163696 175.04823303 157.52920532 177.18609619 C 154.93089294 178.64305115 155.66342163 175.59497070 159.42509460 172.72056580 C 163.40151978 170.60456848 164.83691406 170.36897278 167.70303345 169.15180969 C 172.31051636 169.05183411 171.83412170 169.87345886 177.42015076 172.32205200 C 180.88217163 173.43383789 182.47814941 172.82847595 187.85169983 170.07350159 C 190.75529480 169.23764038 193.53540039 171.13409424 196.68865967 170.64031982 C 199.84445190 168.02545166 199.74229431 165.01304626 194.78955078 169.98112488" stroke-width="0.00000000" fill="rgb(4, 37, 83)" opacity="1.0" stroke="rgb(0, 185, 255)" stroke-opacity="0.0" stroke-linecap="round" stroke-linejoin="round"/>
    <path d="M 166.39738464 135.35804749 C 170.07467651 135.17385864 170.42391968 135.54203796 175.20132446 134.83508301 C 178.59704590 133.30383301 180.70401001 132.28266907 184.03814697 133.77568054 C 187.28950500 135.18859863 189.48233032 135.76254272 192.84336853 135.39051819 C 195.99316406 134.40357971 197.41929626 132.58648682 201.85655212 133.11253357 C 206.44854736 135.20896912 203.26490784 138.22764587 200.34539795 138.20823669 C 195.07511902 139.32752991 196.01402283 139.37313843 191.65376282 140.61871338 C 187.21873474 141.29043579 187.36779785 139.86421204 182.75364685 138.32032776 C 179.53735352 137.93554688 179.03744507 138.12951660 173.76295471 140.11151123 C 171.46267700 140.96104431 167.61801147 142.21398926 163.55828857 141.43424988 C 160.03723145 140.28236389 162.32376099 135.34587097 166.39738464 135.35804749" stroke-width="0.15545332" fill="rgb(0, 28, 77)" opacity="1.0" stroke="rgb(0, 78, 159)" stroke-opacity="0.6325045" stroke-linecap="round" stroke-linejoin="round"/>
    <path d="M 134.84222412 201.33399963 C 133.23333740 202.13841248 133.34533691 202.05342102 130.77799988 201.86787415 C 129.77000427 201.65702820 128.31913757 200.97476196 126.88985443 199.84347534 C 126.05410767 199.13925171 124.86956787 197.59791565 125.36329651 196.11611938 C 125.83525085 194.86520386 126.96549988 193.50410461 128.55659485 193.29692078 C 129.67541504 192.97230530 131.51008606 192.47822571 131.68563843 190.63867188 C 132.54386902 189.33079529 132.75764465 187.96234131 134.04882812 188.60594177 C 136.15257263 189.58358765 136.14399719 189.08990479 138.00227356 190.05509949 C 139.49920654 191.06816101 138.63049316 192.41488647 137.56983948 193.78599548 C 136.34942627 195.00607300 135.79110718 195.08439636 136.41360474 197.18859863 C 137.08139038 199.11886597 136.17541504 200.46301270 134.84222412 201.33399963" stroke-width="2.00000000" fill="rgb(3, 30, 73)" opacity="1.0" stroke="rgb(255, 180, 238)" stroke-opacity="0.45258793" stroke-linecap="round" stroke-linejoin="round"/>
    <path d="M 198.00471497 160.08879089 C 196.34202576 161.12933350 195.88975525 165.65887451 193.08554077 168.41415405 C 190.29460144 170.05569458 186.98599243 167.97242737 183.04100037 169.85931396 C 179.17324829 171.58160400 177.62196350 169.73861694 172.94772339 167.84149170 C 168.81784058 166.03556824 164.72827148 167.81425476 162.23565674 169.11868286 C 159.23033142 166.40794373 162.78071594 161.78358459 165.19085693 160.65663147 C 171.66850281 158.39245605 170.22196960 158.59144592 174.68981934 159.16076660 C 179.76441956 160.50776672 178.90570068 161.87730408 185.03619385 161.89865112 C 188.87327576 161.40359497 189.36715698 159.64064026 193.70973206 158.44755554 C 197.28669739 158.48413086 201.73727417 159.99926758 202.58207703 162.33650208 C 200.97454834 164.05535889 198.72256470 156.40138245 198.00471497 160.08879089" stroke-width="2.00000000" fill="rgb(3, 34, 82)" opacity="1.0" stroke="rgb(241, 255, 255)" stroke-opacity="0.4240644" stroke-linecap="round" stroke-linejoin="round"/>
    <path d="M 156.17341614 203.98065186 C 152.25344849 204.80702209 147.79541016 207.21249390 142.99403381 207.91304016 C 137.57783508 209.16316223 133.27220154 209.21414185 128.80918884 209.26109314 C 122.83213043 211.11590576 124.97653198 206.25251770 118.67613220 203.68721008 C 114.63816071 202.36062622 108.44525146 202.58175659 103.26303864 201.43971252 C 105.69854736 198.74391174 108.78948212 201.53094482 113.67623901 202.71694946 C 119.87242889 203.54248047 121.40210724 205.52316284 123.87627411 206.21165466 C 128.00148010 207.33221436 132.41682434 206.87542725 137.54130554 205.82897949 C 145.18902588 204.55380249 144.54064941 205.17301941 151.81373596 202.98851013 C 157.18746948 201.55224609 158.82299805 199.69024658 164.76226807 197.54718018 C 168.91456604 198.48204041 161.67118835 201.50555420 156.17341614 203.98065186" stroke-width="2.00000000" fill="rgb(237, 241, 243)" opacity="1.0" stroke="rgb(0, 30, 66)" stroke-opacity="0.918636" stroke-linecap="round" stroke-linejoin="round"/>
    <path d="M 178.69580078 202.38337708 C 175.04325867 204.80827332 168.97821045 210.10662842 164.00186157 210.93313599 C 161.39744568 206.77728271 166.21110535 201.15647888 167.37791443 195.08070374 C 163.87010193 191.80226135 161.91302490 197.44932556 153.27682495 198.63078308 C 147.36083984 200.39801025 141.49447632 200.20289612 135.83825684 201.72480774 C 132.01208496 202.15887451 136.28173828 201.70652771 138.16748047 199.74459839 C 145.45655823 199.45137024 146.82586670 200.57217407 152.83328247 199.10092163 C 159.50035095 196.65458679 161.84104919 196.28616333 169.36776733 194.86463928 C 176.14114380 194.43829346 179.82943726 194.25424194 184.78659058 186.80537415 C 188.62031555 182.11120605 196.32597351 179.34777832 193.28697205 189.13537598 C 189.05784607 194.46794128 185.67672729 197.81631470 178.69580078 202.38337708" stroke-width="2.00000000" fill="rgb(237, 105, 16)" opacity="1.0" stroke="rgb(0, 4, 49)" stroke-opacity="0.64185834" stroke-linecap="round" stroke-linejoin="round"/>
    <path d="M 127.49987793 202.22985840 C 123.92318726 201.68360901 123.61888885 201.27197266 120.00045776 200.00303650 C 116.44297028 198.73841858 115.16020203 198.70332336 113.05234528 201.47775269 C 111.09638214 204.70729065 108.76142120 205.49848938 105.52886200 203.36999512 C 103.27928925 201.99258423 99.72872162 201.46640015 96.68664551 200.06416321 C 93.86003113 196.65159607 97.61592102 198.05252075 101.13672638 197.90788269 C 104.98567963 197.77330017 105.75650024 198.64810181 108.70604706 197.35112000 C 112.50486755 196.04106140 112.78196716 195.62648010 117.57415009 195.89097595 C 120.71495056 196.46098328 121.85239410 197.98678589 124.91113281 195.28352356 C 127.64257812 194.86036682 130.21067810 194.28170776 132.57542419 197.55187988 C 133.22517395 201.63415527 131.85057068 203.06375122 127.49987793 202.22985840" stroke-width="1.92302585" fill="rgb(8, 40, 80)" opacity="1.0" stroke="rgb(210, 255, 255)" stroke-opacity="0.4599949" stroke-linecap="round" stroke-linejoin="round"/>
    <path d="M 144.64460754 187.13827515 C 146.61508179 185.15373230 146.65142822 185.17984009 148.95718384 182.65441895 C 149.94023132 181.34480286 151.97746277 179.63339233 154.14694214 179.16374207 C 156.07295227 179.77333069 155.78686523 181.75442505 156.35350037 184.39009094 C 156.65335083 186.70031738 158.74443054 188.60105896 159.47634888 189.10894775 C 156.84124756 189.01811218 155.23724365 188.56921387 152.99046326 189.03436279 C 150.18148804 190.02322388 150.12673950 190.30744934 148.73823547 192.04360962 C 147.26164246 194.05152893 147.29194641 195.04479980 145.06144714 195.10588074 C 144.44680786 194.22465515 143.16882324 193.67619324 140.42443848 193.71188354 C 137.92135620 193.64096069 136.24311829 193.51718140 139.36718750 191.54672241 C 141.61866760 190.75299072 143.16641235 189.20968628 144.64460754 187.13827515" stroke-width="0.90510416" fill="rgb(5, 36, 79)" opacity="1.0" stroke="rgb(53, 75, 93)" stroke-opacity="0.9578181" stroke-linecap="round" stroke-linejoin="round"/>
    <path d="M 127.31860352 196.49150085 C 126.28017426 196.77308655 125.59328461 196.74954224 124.09400177 196.49176025 C 122.91000366 196.14047241 121.82705688 195.67565918 120.56809998 194.99903870 C 119.55258179 194.52032471 118.29501343 194.25901794 116.96822357 193.91032410 C 115.65489960 193.49946594 114.37167358 193.48999023 113.21632385 192.91482544 C 113.17352295 191.41458130 113.55574799 191.45979309 115.07484436 190.39067078 C 116.84620667 189.95875549 116.50608826 189.97508240 117.92896271 190.03256226 C 119.48646545 190.28999329 120.41177368 189.55825806 121.16741180 189.08961487 C 122.43405151 188.49681091 122.90489960 189.61027527 123.86781311 190.67855835 C 125.12979126 192.09397888 125.06799316 191.95634460 126.46539307 193.52227783 C 127.01528168 194.04095459 128.62725830 195.48406982 127.31860352 196.49150085" stroke-width="0.00000000" fill="rgb(3, 34, 79)" opacity="1.0" stroke="rgb(0, 0, 37)" stroke-opacity="0.7837922" stroke-linecap="round" stroke-linejoin="round"/>
    <path d="M 149.73414612 192.03799438 C 151.65739441 191.76115417 152.97976685 190.46774292 156.28794861 191.12199402 C 158.49305725 192.14485168 161.07153320 192.45443726 164.26332092 193.26757812 C 168.13133240 193.26531982 165.11425781 196.74862671 166.44746399 198.51844788 C 168.97256470 198.32086182 170.71154785 195.53932190 173.63084412 194.26472473 C 176.44058228 195.10423279 173.44114685 196.70220947 171.06117249 198.27543640 C 168.16375732 200.45361328 166.50854492 200.76914978 166.76939392 199.81358337 C 166.24290466 197.10824585 163.41510010 196.54711914 160.19505310 196.84375000 C 156.24345398 195.97421265 158.63739014 195.97320557 155.41401672 196.54568481 C 152.09608459 196.74444580 148.49868774 197.30360413 146.73164368 196.30418396 C 142.67582703 193.55989075 147.65240479 192.62228394 149.73414612 192.03799438" stroke-width="1.96506310" fill="rgb(10, 37, 82)" opacity="1.0" stroke="rgb(208, 255, 255)" stroke-opacity="0.41550556" stroke-linecap="round" stroke-linejoin="round"/>
    <path d="M 117.78078461 192.70521545 C 119.81842041 193.87350464 114.74865723 193.41098022 112.41921997 193.76251221 C 109.30290985 194.59919739 107.58148193 195.53330994 104.99640656 196.12878418 C 102.44634247 196.45260620 100.64266968 197.16134644 98.61497498 198.25596619 C 95.59513855 200.18769836 94.66835022 199.14169312 92.02081299 197.00454712 C 91.26148987 196.26603699 85.99307251 195.04621887 87.34263611 193.57141113 C 91.66138458 192.43006897 90.66293335 193.23297119 93.71871185 193.24983215 C 97.21936035 192.04252625 96.62078857 191.60357666 100.94980621 190.98237610 C 104.43154144 190.95079041 104.92299652 191.89175415 107.54418182 188.29791260 C 108.74028778 186.04695129 110.89519501 182.93792725 111.92619324 186.77107239 C 112.99119568 190.82087708 113.52944183 190.70867920 117.78078461 192.70521545" stroke-width="0.00000000" fill="rgb(6, 41, 88)" opacity="1.0" stroke="rgb(8, 100, 128)" stroke-opacity="0.6260281" stroke-linecap="round" stroke-linejoin="round"/>
    <path d="M 107.92154694 146.67182922 C 107.20028687 147.26600647 105.30576324 149.25692749 103.77472687 151.15580750 C 102.94327545 152.53001404 100.25571442 155.71966553 99.18721771 153.53013611 C 99.14197540 151.58039856 99.56031036 149.76118469 100.02938843 147.00222778 C 100.53463745 144.08152771 100.79929352 142.29855347 101.83821106 140.50575256 C 103.22954559 138.95237732 104.24337006 137.55647278 106.30353546 135.51403809 C 107.90619659 134.16526794 109.15469360 133.69851685 110.68935394 133.63679504 C 112.41767120 133.05535889 112.48670197 129.99316406 115.14154053 129.82035828 C 116.76523590 130.17965698 117.18084717 132.48051453 116.88365936 134.87854004 C 115.95225525 137.23071289 114.46144867 139.11280823 113.43169403 140.84236145 C 111.33783722 143.23680115 110.31684113 144.02465820 107.92154694 146.67182922" stroke-width="0.64663112" fill="rgb(7, 39, 77)" opacity="1.0" stroke="rgb(34, 227, 255)" stroke-opacity="0.25025904" stroke-linecap="round" stroke-linejoin="round"/>
    <path d="M 162.34846497 136.96780396 C 159.15795898 135.42512512 156.31541443 133.17605591 148.40379333 135.07804871 C 143.06753540 136.74548340 138.78405762 138.51940918 132.75921631 140.57365417 C 127.07678986 143.09431458 124.69931793 144.13053894 121.15014648 150.72164917 C 118.22702026 154.67591858 113.10625458 163.90463257 111.74153900 156.12908936 C 112.84436035 152.25781250 115.85720062 146.82330322 120.28134155 141.44126892 C 124.13539886 135.13479614 120.50815582 131.49588013 124.17285919 128.59564209 C 130.29492188 126.12319183 132.68325806 127.98735809 140.57595825 127.74834442 C 146.35684204 126.33367157 149.53729248 128.57313538 153.46777344 127.41316223 C 159.03964233 128.32820129 164.21443176 129.19522095 168.55632019 133.50596619 C 173.18212891 138.79295349 172.84716797 143.94004822 162.34846497 136.96780396" stroke-width="2.00000000" fill="rgb(16, 41, 86)" opacity="1.0" stroke="rgb(255, 255, 255)" stroke-opacity="0.3215072" stroke-linecap="round" stroke-linejoin="round"/>
    <path d="M 136.93664551 45.93484497 C 137.16806030 45.39113235 137.62438965 43.70265961 137.31669617 42.05025101 C 137.06877136 40.89406204 136.82592773 38.57197189 138.02511597 38.59930038 C 138.86271667 39.35203171 139.47225952 40.65212631 139.84436035 42.18286514 C 140.28881836 44.05179977 140.36666870 45.19251633 140.06622314 46.05420685 C 139.89562988 47.38498688 139.40312195 48.69629288 138.63337708 49.41831589 C 137.10726929 51.42718506 137.14926147 51.06847382 136.35151672 52.19038773 C 135.61462402 53.55865479 135.41516113 54.40113449 134.51763916 55.85535812 C 134.22009277 56.55976486 135.14866638 54.59575653 134.35612488 53.18353653 C 133.80476379 51.67662430 132.92639160 51.08327103 133.76480103 49.47934341 C 134.53985596 48.54903030 135.99876404 48.21687698 136.93664551 45.93484497" stroke-width="1.86333025" fill="rgb(237, 134, 42)" opacity="1.0" stroke="rgb(85, 66, 63)" stroke-opacity="0.9284011" stroke-linecap="round" stroke-linejoin="round"/>
    <path d="M 150.22378540 135.57060242 C 150.82290649 133.90884399 151.92169189 134.21958923 153.67807007 134.74623108 C 155.95153809 134.69604492 156.71485901 134.39712524 158.23962402 133.65815735 C 159.83503723 132.96504211 161.16418457 133.01577759 162.81520081 133.36614990 C 164.57148743 133.59948730 165.94990540 134.05426025 167.15408325 134.83721924 C 168.41430664 135.88816833 167.29470825 137.57217407 165.53833008 136.78083801 C 163.29237366 136.24220276 163.66088867 135.50746155 161.81344604 136.10121155 C 160.02803040 137.60786438 160.28627014 137.78314209 158.17782593 139.02793884 C 156.71722412 139.95547485 156.04187012 139.83467102 154.11286926 141.23870850 C 152.39553833 142.05215454 151.59489441 142.44857788 150.94720459 140.46525574 C 150.67921448 138.03219604 150.61759949 138.00009155 150.22378540 135.57060242" stroke-width="1.79152691" fill="rgb(3, 33, 77)" opacity="1.0" stroke="rgb(230, 255, 255)" stroke-opacity="0.4392973" stroke-linecap="round" stroke-linejoin="round"/>
  </g>
</svg>
