<?xml version="1.0" ?>
<svg xmlns="http://www.w3.org/2000/svg" version="1.1" width="256" height="256" viewBox="0 0 256 256">
  <defs/>
  <g>
    <path d="M 139.14024353 165.81213379 C 137.11755371 171.71643066 135.38917542 179.29496765 133.23646545 184.60879517 C 130.65567017 191.31071472 130.03411865 201.33589172 126.36960602 197.44122314 C 123.79945374 189.91879272 122.13542175 183.72264099 120.01416779 177.47460938 C 117.99440002 171.34709167 116.04317474 164.23413086 113.67402649 157.52017212 C 110.82235718 147.53674316 110.44960022 148.38049316 107.08113861 137.52738953 C 106.20544434 130.32464600 102.72631836 125.78460693 110.56135559 125.40135193 C 119.81667328 124.77545929 124.12208557 124.88751984 131.26493835 124.72732544 C 138.40924072 125.15733337 147.01814270 123.09384918 151.18594360 125.77825165 C 149.38285828 132.90956116 146.30604553 139.31349182 145.22753906 144.87855530 C 143.47619629 149.93707275 141.42076111 158.66343689 139.14024353 165.81213379" stroke-width="1.30669951" fill="rgb(214, 166, 111)" opacity="1.0" stroke="rgb(80, 34, 0)" stroke-opacity="0.69971555" stroke-linecap="round" stroke-linejoin="round"/>
    <path d="M 129.30053711 82.00531006 C 135.14918518 82.76946259 141.24737549 85.93972015 145.62683105 89.62746429 C 150.39173889 93.67890167 154.33047485 98.36386108 155.92163086 103.97012329 C 156.87246704 108.51156616 157.24047852 115.39443970 154.42864990 122.22163391 C 152.98651123 126.14482880 149.33300781 131.94615173 141.96885681 134.96855164 C 136.90486145 136.25985718 132.58631897 136.91476440 123.58840942 136.27442932 C 117.97076416 135.70127869 113.30645752 135.66316223 109.10713196 132.29176331 C 102.44549561 126.54032898 100.92530060 124.15448761 98.80917358 116.90199280 C 97.88059998 113.78723907 97.02987671 105.53869629 100.39401245 99.03065491 C 101.79225922 95.01775360 105.83810425 90.39909363 111.74105835 85.47296906 C 117.61170197 81.87796783 123.21444702 80.59339905 129.30053711 82.00531006" stroke-width="1.27977586" fill="rgb(250, 177, 198)" opacity="1.0" stroke="rgb(90, 53, 58)" stroke-opacity="0.59509933" stroke-linecap="round" stroke-linejoin="round"/>
    <path d="M 150.82417297 91.66255188 C 149.21949768 94.62301636 144.91299438 97.82926941 138.77255249 100.54103088 C 133.48168945 102.48085022 126.85182190 103.29866791 121.77466583 102.04375458 C 115.95660400 100.63294220 109.99679565 98.37408447 106.70344543 94.11068726 C 102.30296326 89.94892120 100.50445557 84.30635071 100.23079681 78.62394714 C 99.92424011 72.85617065 101.02649689 67.30966187 104.69796753 61.12648773 C 107.87055969 56.76317596 109.80741882 53.43041992 114.90527344 52.13436508 C 122.43663025 49.82613373 126.09480286 49.79126358 132.14237976 50.42973328 C 136.55340576 51.10509109 143.18650818 52.59213257 147.87007141 58.11702728 C 151.48854065 61.53139877 153.39985657 65.94298553 154.93699646 73.02635956 C 155.38391113 78.75617218 155.55206299 82.95601654 150.82417297 91.66255188" stroke-width="0.55325454" fill="rgb(140, 83, 56)" opacity="1.0" stroke="rgb(0, 0, 0)" stroke-opacity="0.5916872" stroke-linecap="round" stroke-linejoin="round"/>
    <path d="M 145.05807495 63.00799561 C 142.56477356 65.84851074 139.93173218 67.44453430 133.97808838 69.80220032 C 128.95661926 70.93800354 123.85244751 71.37501526 118.80023193 69.30413055 C 115.09784698 67.45283508 110.74010468 65.86168671 107.79196167 60.43363571 C 104.85282898 56.52324295 104.07049561 52.08577728 104.17282867 45.58931732 C 104.93753815 38.60565948 105.81568909 36.00980377 108.66421509 32.08127975 C 115.48006439 25.49916458 112.83417511 27.15862083 119.50878143 23.96023369 C 126.08295441 22.02978897 129.43931580 21.66730690 134.56314087 23.79706955 C 138.57502747 25.64653206 144.14453125 29.67757988 146.37806702 33.35244370 C 149.73782349 37.96525574 150.61944580 42.35761261 150.73556519 47.41587448 C 150.55807495 52.33318329 150.10810852 55.89228439 145.05807495 63.00799561" stroke-width="0.00000000" fill="rgb(248, 243, 213)" opacity="1.0" stroke="rgb(240, 250, 249)" stroke-opacity="0.04514578" stroke-linecap="round" stroke-linejoin="round"/>
    <path d="M 229.45162964 252.26684570 C 209.78460693 251.11271667 198.59567261 252.18431091 177.95498657 252.26902771 C 160.74954224 253.13905334 150.53274536 253.06307983 126.98230743 252.78688049 C 108.82690430 253.12063599 95.65406036 255.39443970 77.05433655 255.06024170 C 57.55091095 253.15510559 46.41512299 254.00921631 22.87863159 255.73945618 C 0.50416565 259.76687622 2.77721405 247.19682312 26.63027191 248.11816406 C 52.62682343 247.90174866 56.84710693 248.07351685 69.81912231 248.12448120 C 91.92730713 248.30557251 107.73609924 247.32745361 121.62526703 248.95706177 C 141.84774780 246.81338501 154.45651245 248.90933228 173.31285095 247.57412720 C 190.36596680 249.48155212 201.47723389 246.56544495 223.80506897 248.76524353 C 240.98777771 245.42675781 258.32629395 251.01100159 229.45162964 252.26684570" stroke-width="0.55011511" fill="rgb(255, 255, 255)" opacity="1.0" stroke="rgb(255, 255, 255)" stroke-opacity="0.0" stroke-linecap="round" stroke-linejoin="round"/>
    <path d="M 130.31677246 172.05589294 C 131.22074890 172.78010559 131.43580627 173.15774536 132.42140198 173.99461365 C 133.32795715 175.07606506 133.54434204 175.06301880 132.48757935 175.97447205 C 131.53842163 176.75567627 131.31224060 177.05032349 130.19250488 178.13040161 C 129.51730347 178.61273193 128.79724121 179.74812317 127.93747711 180.18885803 C 127.06692505 179.65132141 126.86312103 179.25151062 125.96986389 178.02033997 C 125.38191223 177.15489197 124.87413788 176.90386963 124.25369263 176.17533875 C 123.59424591 175.17449951 122.63916779 174.88650513 123.32601929 174.12493896 C 124.39586639 173.49734497 125.02169800 173.17787170 125.59091949 172.47470093 C 126.61727142 171.60250854 126.83329773 171.22296143 127.74028015 170.45637512 C 128.63336182 170.56256104 129.43217468 171.49462891 130.31677246 172.05589294" stroke-width="0.98996150" fill="rgb(243, 188, 127)" opacity="1.0" stroke="rgb(92, 54, 31)" stroke-opacity="0.809378" stroke-linecap="round" stroke-linejoin="round"/>
  </g>
</svg>
