<svg xmlns="http://www.w3.org/2000/svg" viewBox="0 0 256 256" height="256.0px" width="256.0px">
<path id="" fill="#D2691E" fill-opacity="1.0" stroke="#000000" stroke-width="0.0" stroke-opacity="1.0" stroke-linecap="round" stroke-linejoin="round"  filling="0" d="M128.000 200.000 C119.666 175.000 111.334 150.000 103.000 125.000 C119.666 125.000 136.333 125.000 153.000 125.000 C144.667 150.000 136.333 175.000 128.000 200.000"></path>
<path id="" fill="#FFB6C1" fill-opacity="1.0" stroke="#000000" stroke-width="0.0" stroke-opacity="1.0" stroke-linecap="round" stroke-linejoin="round"  filling="0" d="M158.000 110.000 C158.000 117.953 154.837 125.590 149.213 131.213 C143.589 136.837 135.954 140.000 128.000 140.000 C120.047 140.000 112.410 136.837 106.787 131.213 C101.163 125.590 98.000 117.953 98.000 110.000 C98.000 102.047 101.163 94.410 106.787 88.787 C112.410 83.163 120.047 80.000 128.000 80.000 C135.954 80.000 143.589 83.163 149.213 88.787 C154.837 94.410 158.000 102.047 158.000 110.000"></path>
<path id="" fill="#8B4513" fill-opacity="1.0" stroke="#000000" stroke-width="0.0" stroke-opacity="1.0" stroke-linecap="round" stroke-linejoin="round"  filling="0" d="M155.500 75.000 C155.500 82.290 152.600 89.290 147.445 94.446 C142.290 99.601 135.290 102.500 128.000 102.500 C120.710 102.500 113.710 99.601 108.554 94.446 C103.399 89.290 100.500 82.290 100.500 75.000 C100.500 67.710 103.399 60.710 108.554 55.555 C113.710 50.400 120.710 47.500 128.000 47.500 C135.290 47.500 142.290 50.400 147.445 55.555 C152.600 60.710 155.500 67.710 155.500 75.000"></path>
<path id="" fill="#FFFAF0" fill-opacity="1.0" stroke="#000000" stroke-width="0.0" stroke-opacity="1.0" stroke-linecap="round" stroke-linejoin="round"  filling="0" d="M153.000 45.000 C153.000 51.628 150.365 57.991 145.678 62.678 C140.991 67.365 134.628 70.000 128.000 70.000 C121.372 70.000 115.009 67.365 110.323 62.678 C105.635 57.991 103.000 51.628 103.000 45.000 C103.000 38.372 105.635 32.009 110.323 27.323 C115.009 22.635 121.372 20.000 128.000 20.000 C134.628 20.000 140.991 22.635 145.678 27.323 C150.365 32.009 153.000 38.372 153.000 45.000"></path>
<path id="" fill="#ffffff" fill-opacity="1.0" stroke="#000000" stroke-width="0.0" stroke-opacity="1.0" stroke-linecap="round" stroke-linejoin="round"  filling="0" d="M0.000 255.250 C0.834 253.583 1.666 251.917 2.500 250.250 C7.833 249.750 13.167 249.250 18.500 248.750 C90.334 248.750 162.167 248.750 234.000 248.750 C241.167 249.250 248.333 249.750 255.500 250.250 C170.333 251.917 85.166 253.583 0.000 255.250"></path>
<path id="" fill="#efb977" fill-opacity="1.0" stroke="#000000" stroke-width="0.0" stroke-opacity="1.0" stroke-linecap="round" stroke-linejoin="round"  filling="0" d="M128.500 179.750 C128.000 179.750 127.500 179.750 127.000 179.750 C126.750 179.500 126.500 179.250 126.250 179.000 C126.250 178.833 126.250 178.667 126.250 178.500 C125.416 177.667 124.584 176.833 123.750 176.000 C123.750 175.833 123.750 175.667 123.750 175.500 C123.416 175.167 123.084 174.833 122.750 174.500 C122.750 174.333 122.750 174.167 122.750 174.000 C123.500 173.250 124.250 172.500 125.000 171.750 C125.166 171.750 125.334 171.750 125.500 171.750 C126.000 171.250 126.500 170.750 127.000 170.250 C127.500 170.250 128.000 170.250 128.500 170.250 C128.667 170.417 128.833 170.583 129.000 170.750 C129.167 170.750 129.333 170.750 129.500 170.750 C130.750 172.000 132.000 173.250 133.250 174.500 C133.250 174.667 133.250 174.833 133.250 175.000 C131.667 176.583 130.083 178.167 128.500 179.750"></path>
</svg>