<?xml version="1.0" ?>
<svg xmlns="http://www.w3.org/2000/svg" version="1.1" width="256" height="256" viewBox="0 0 256 256">
  <defs/>
  <g>
    <path d="M 138.97396851 166.32577515 C 136.82771301 172.48217773 135.19229126 179.62039185 133.18151855 184.93232727 C 130.40147400 191.92539978 129.76617432 201.11251831 126.53224945 197.59234619 C 124.21095276 191.13830566 122.72927856 185.14677429 120.39179230 178.67286682 C 118.44174957 172.64109802 116.62480164 166.20199585 114.25347137 159.04962158 C 111.40885925 149.30505371 110.88187408 149.36654663 107.48957062 138.87341309 C 106.40502930 132.40374756 102.90702057 127.57389832 109.97700500 126.52212524 C 118.92741394 124.86961365 123.62820435 124.45600891 130.50018311 124.08590698 C 137.56733704 124.23339844 145.82437134 122.53298950 149.84504700 126.70536041 C 149.42985535 134.09530640 145.90649414 140.57051086 145.01916504 145.51718140 C 142.99208069 151.38088989 141.34814453 158.95256042 138.97396851 166.32577515" stroke-width="1.31445765" fill="rgb(214, 164, 112)" opacity="1.0" stroke="rgb(76, 33, 0)" stroke-opacity="0.70465744" stroke-linecap="round" stroke-linejoin="round"/>
    <path d="M 131.06739807 79.60617065 C 137.77552795 82.20377350 142.15542603 85.63381195 145.90025330 89.25027466 C 151.03137207 94.17907715 155.18507385 99.04328918 155.91775513 104.73287964 C 157.10429382 110.40470123 157.14137268 117.00657654 154.20874023 122.68838501 C 151.54537964 128.71989441 146.04051208 134.51490784 140.88647461 135.25918579 C 135.93119812 136.84048462 129.36587524 136.67102051 121.76735687 136.35823059 C 115.80934906 135.50531006 110.58645630 134.19436646 108.36986542 131.41009521 C 102.75805664 127.36338043 99.37866211 121.42209625 98.34710693 114.89608002 C 97.57638550 108.20666504 98.35678101 101.69465637 101.58335876 96.45011902 C 103.94270325 92.93800354 108.21026611 88.66588593 113.85928345 83.18481445 C 118.38469696 78.72660065 124.26512909 77.33013916 131.06739807 79.60617065" stroke-width="1.25400317" fill="rgb(248, 178, 200)" opacity="1.0" stroke="rgb(74, 35, 45)" stroke-opacity="0.56351036" stroke-linecap="round" stroke-linejoin="round"/>
    <path d="M 150.26062012 91.25821686 C 147.64331055 95.00489807 144.13671875 97.68840027 138.03088379 100.07417297 C 132.23776245 102.26536560 126.19417572 102.64383698 121.42257690 101.35546875 C 115.39263916 99.41004181 110.09798431 97.62820435 106.98094940 93.48136139 C 103.25054932 89.78572845 101.24720764 84.17329407 100.91558838 78.01151276 C 100.66739655 72.80722809 101.78018951 66.86899567 105.58216095 61.19755173 C 108.92189789 57.18540192 110.94899750 53.92076111 114.88072968 52.50040436 C 120.54579163 50.38729095 125.93624878 50.96367264 132.15800476 51.49416351 C 137.09039307 52.23144150 143.01608276 53.24121094 147.43740845 58.75254440 C 150.91366577 62.22634125 152.87269592 66.48513031 154.26130676 73.52735138 C 154.64410400 79.10103607 154.67924500 82.95388031 150.26062012 91.25821686" stroke-width="1.18964183" fill="rgb(143, 83, 57)" opacity="1.0" stroke="rgb(41, 10, 0)" stroke-opacity="0.74758625" stroke-linecap="round" stroke-linejoin="round"/>
    <path d="M 144.24482727 63.83950424 C 141.68290710 66.46665955 138.69207764 67.99720764 132.97192383 70.04763031 C 128.23957825 70.82912445 122.82975769 71.22393036 118.40818024 69.20729065 C 114.37277985 67.35485077 110.30228424 65.27939606 107.66476440 60.18509674 C 104.61272430 55.00628281 104.68135071 51.51814651 104.74278259 46.33996201 C 104.52472687 40.75096893 106.55191040 36.16861343 109.85752106 31.90016937 C 115.76747131 25.83043480 114.07489014 27.24045181 119.41532898 24.60672188 C 124.66719818 22.57234192 129.34700012 22.61962128 134.94865417 24.63385963 C 139.40277100 26.52189255 144.23219299 30.31768036 146.48355103 34.64227295 C 149.41877747 39.37967300 150.03096008 44.74055099 149.71391296 48.22107697 C 149.14579773 53.90345764 149.29273987 57.18453979 144.24482727 63.83950424" stroke-width="1.13327849" fill="rgb(252, 246, 215)" opacity="1.0" stroke="rgb(55, 54, 38)" stroke-opacity="0.5105521" stroke-linecap="round" stroke-linejoin="round"/>
    <path d="M 226.05513000 252.06434631 C 209.64328003 251.61633301 196.00404358 252.23509216 175.41622925 252.12371826 C 156.83393860 252.98126221 148.71398926 253.22848511 123.64112854 252.84712219 C 105.70397949 253.89816284 91.90921021 255.49127197 73.04038239 254.89884949 C 52.38032532 252.56465149 40.62791443 254.04556274 19.30167389 258.20175171 C -0.75214386 256.83938599 5.15251923 246.89967346 26.57634735 248.19560242 C 52.22559357 247.16488647 58.67384338 248.39530945 69.69100952 247.85113525 C 89.70023346 248.73768616 106.57558441 247.01719666 121.26789856 248.46321106 C 141.48329163 246.69317627 152.76177979 249.18403625 173.13044739 247.64611816 C 191.16023254 248.96112061 203.90238953 246.83825684 224.85379028 248.45158386 C 245.07211304 245.61488342 257.35513306 252.58996582 226.05513000 252.06434631" stroke-width="1.90564728" fill="rgb(255, 255, 255)" opacity="1.0" stroke="rgb(255, 255, 255)" stroke-opacity="0.0" stroke-linecap="round" stroke-linejoin="round"/>
    <path d="M 129.96743774 171.86544800 C 130.91499329 172.56065369 131.39439392 173.15690613 132.33813477 173.80279541 C 133.45840454 174.97648621 133.70343018 174.95880127 132.46495056 176.04028320 C 131.58367920 176.73199463 131.09483337 177.27656555 130.08180237 178.20602417 C 129.20069885 178.98715210 128.61442566 179.95402527 128.01803589 180.49519348 C 127.27641296 179.95204163 127.02027893 179.34805298 126.05852509 178.22633362 C 125.38790894 177.31340027 124.80582428 177.01835632 124.30145264 176.32174683 C 123.56330872 175.23974609 122.80678558 174.82348633 123.35022736 174.05622864 C 124.11091614 173.42083740 124.91290283 173.14625549 125.89972687 172.19131470 C 126.61517334 171.67399597 127.40173340 171.01365662 128.08564758 170.09364319 C 128.52302551 170.42567444 128.82427979 171.21818542 129.96743774 171.86544800" stroke-width="0.95718932" fill="rgb(234, 187, 125)" opacity="1.0" stroke="rgb(63, 26, 16)" stroke-opacity="0.67422825" stroke-linecap="round" stroke-linejoin="round"/>
  </g>
</svg>
