<?xml version="1.0" ?>
<svg xmlns="http://www.w3.org/2000/svg" version="1.1" width="256" height="256" viewBox="0 0 256 256">
  <defs/>
  <g>
    <path d="M 138.99722290 166.40106201 C 136.81242371 172.53048706 135.21777344 179.70289612 133.21847534 184.97375488 C 130.42890930 192.07705688 129.83070374 201.36491394 126.54088593 197.40541077 C 124.10374451 190.57450867 122.55204773 184.60299683 120.31578827 178.24346924 C 118.32177734 172.19844055 116.49709320 165.73478699 114.15808105 158.62210083 C 111.24647522 148.84225464 110.81880188 149.09931946 107.38415527 138.48278809 C 106.27277374 131.90930176 103.06942749 127.25837708 110.37438202 126.18363953 C 119.62382507 124.60542297 123.85518646 124.24714661 130.73551941 123.85086823 C 137.67256165 124.05687714 146.21932983 122.10939789 149.99501038 126.60052490 C 149.30264282 134.16937256 145.86425781 140.76443481 145.02706909 145.58444214 C 143.05938721 151.26588440 141.29302979 159.12777710 138.99722290 166.40106201" stroke-width="1.32566798" fill="rgb(214, 163, 109)" opacity="1.0" stroke="rgb(76, 32, 0)" stroke-opacity="0.7038753" stroke-linecap="round" stroke-linejoin="round"/>
    <path d="M 130.39228821 81.47603607 C 137.65145874 83.59594727 142.09548950 86.51809692 145.73666382 89.71298218 C 151.62907410 94.57585907 155.27236938 99.24401093 155.91224670 104.72352600 C 157.04969788 110.55921173 157.16979980 116.96885681 154.30070496 122.50380707 C 151.66561890 128.36465454 146.30685425 134.24220276 141.19514465 135.11196899 C 136.55815125 136.74316406 130.04638672 136.70823669 121.99803925 136.32730103 C 116.49586487 135.51460266 111.31288147 134.85470581 108.60301208 131.67857361 C 102.76931000 127.19657898 99.69532776 122.09378052 98.51591492 115.93326569 C 97.64813995 109.84516907 97.79971313 102.81697083 100.96554565 97.47511292 C 102.93070984 93.81671143 107.29415894 89.57584381 112.93803406 84.31879425 C 117.94245148 80.22663116 123.21697235 79.79944611 130.39228821 81.47603607" stroke-width="1.24992216" fill="rgb(245, 178, 204)" opacity="1.0" stroke="rgb(73, 33, 43)" stroke-opacity="0.580981" stroke-linecap="round" stroke-linejoin="round"/>
    <path d="M 150.30662537 91.24974060 C 147.99406433 94.78099060 144.41415405 97.49763489 138.34259033 99.98715210 C 133.03292847 102.03021240 126.69930267 102.68505859 121.74963379 101.41983032 C 116.06433868 99.70381165 110.36956787 97.80383301 107.18959045 93.65153503 C 103.20626831 89.88149261 101.26668549 84.23284149 100.88002014 78.38064575 C 100.60270691 72.73010254 101.72099304 67.22859955 105.41130829 61.50251389 C 108.66931915 57.42491150 110.62938690 54.17079926 114.82057953 52.83494568 C 120.78741455 50.61724854 126.07968903 51.09131622 132.05473328 51.57875061 C 137.04348755 52.32493591 143.09437561 53.45790482 147.38442993 58.70970917 C 150.95449829 62.37646103 152.77029419 66.44234467 154.28315735 73.37041473 C 154.76148987 78.93556213 154.76362610 82.85163879 150.30662537 91.24974060" stroke-width="1.20438147" fill="rgb(141, 82, 58)" opacity="1.0" stroke="rgb(44, 13, 0)" stroke-opacity="0.74586344" stroke-linecap="round" stroke-linejoin="round"/>
    <path d="M 144.34010315 63.66407394 C 142.16113281 66.17052460 138.81056213 67.87847137 133.20022583 69.99108124 C 128.30084229 70.77954102 123.19179535 71.20349884 118.45968628 69.31276703 C 114.60820770 67.34539795 110.69581604 65.69984436 107.77535248 60.41170883 C 104.70854187 55.51041412 104.62416840 51.85801697 104.76216125 46.23110199 C 104.44367981 40.82761383 106.48527527 36.22615051 109.66137695 32.04151154 C 115.55990601 25.93551254 113.83259583 27.32930374 119.28185272 24.60377312 C 124.57144165 22.53505898 129.26716614 22.61461639 134.75961304 24.54120255 C 139.16732788 26.37308884 144.09530640 30.11821365 146.35449219 34.39338684 C 149.28442383 39.00840378 149.99713135 44.26711655 149.73330688 48.01807785 C 149.21842957 53.47079468 149.23988342 57.02468491 144.34010315 63.66407394" stroke-width="1.14739656" fill="rgb(253, 247, 214)" opacity="1.0" stroke="rgb(54, 52, 36)" stroke-opacity="0.52326405" stroke-linecap="round" stroke-linejoin="round"/>
    <path d="M 226.89486694 252.01226807 C 209.69128418 251.24862671 196.69638062 252.13426208 175.97106934 252.15777588 C 157.79080200 253.05780029 148.96206665 253.21733093 124.20228577 252.90107727 C 106.16061401 253.87406921 92.23977661 255.52702332 73.23889160 254.95573425 C 52.78861237 252.79147339 41.17019653 254.24034119 20.03946686 257.80627441 C -1.27207184 257.16864014 4.95702362 246.91090393 26.91442108 248.26000977 C 52.19456482 247.32214355 58.85829163 248.42071533 69.32778168 247.96459961 C 89.51177979 248.84124756 106.50821686 247.11288452 121.17221069 248.47439575 C 141.73175049 246.77455139 152.93502808 249.27474976 172.84904480 247.62055969 C 190.88458252 248.97589111 203.55496216 246.75048828 224.44049072 248.48295593 C 243.11953735 245.66549683 258.64935303 252.76950073 226.89486694 252.01226807" stroke-width="1.30610478" fill="rgb(255, 255, 255)" opacity="1.0" stroke="rgb(255, 255, 255)" stroke-opacity="0.0" stroke-linecap="round" stroke-linejoin="round"/>
    <path d="M 130.00631714 171.99800110 C 130.97964478 172.72926331 131.23619080 173.15010071 132.30900574 173.90953064 C 133.34370422 175.00988770 133.60899353 174.97351074 132.37718201 175.99629211 C 131.47613525 176.69482422 131.05938721 177.19047546 130.03579712 178.14454651 C 129.20211792 178.88626099 128.53842163 179.90524292 127.94384766 180.41767883 C 127.15198517 179.83435059 126.97046661 179.30323792 126.03558350 178.13545227 C 125.40916443 177.22036743 124.79534149 176.99154663 124.23723602 176.25582886 C 123.56896973 175.18171692 122.81614685 174.89826965 123.30667114 174.05497742 C 124.27935791 173.43115234 124.66110992 173.34674072 125.73754883 172.31864929 C 126.67845917 171.63557434 127.21356201 171.13403320 127.97959900 170.20397949 C 128.49409485 170.45053101 128.93933105 171.39764404 130.00631714 171.99800110" stroke-width="0.94612348" fill="rgb(237, 194, 127)" opacity="1.0" stroke="rgb(62, 26, 13)" stroke-opacity="0.7514824" stroke-linecap="round" stroke-linejoin="round"/>
  </g>
</svg>
