<?xml version="1.0" ?>
<svg xmlns="http://www.w3.org/2000/svg" version="1.1" width="256" height="256" viewBox="0 0 256 256">
  <defs/>
  <g>
    <path d="M 138.95927429 166.53944397 C 136.71409607 172.75238037 135.24972534 179.76840210 133.18859863 184.97622681 C 130.37730408 192.29388428 129.69770813 201.54560852 126.40760803 197.36410522 C 123.96765900 190.32144165 122.35781860 184.30296326 120.12344360 177.90182495 C 118.14111328 171.84777832 116.33415222 165.17379761 113.97470093 158.15188599 C 111.07189941 148.35485840 110.66679382 148.84774780 107.26218414 138.13986206 C 106.20940399 131.52851868 102.87847900 126.80283356 110.48802948 125.94941711 C 119.92989349 124.64909363 123.79079437 124.46971130 130.79679871 124.12193298 C 137.63533020 124.34332275 146.34793091 122.19230652 150.16862488 126.50123596 C 149.18432617 134.32783508 145.99911499 140.44488525 145.00357056 145.63815308 C 143.30448914 150.79211426 141.11265564 159.51387024 138.95927429 166.53944397" stroke-width="1.32745016" fill="rgb(212, 167, 113)" opacity="1.0" stroke="rgb(76, 28, 0)" stroke-opacity="0.71032345" stroke-linecap="round" stroke-linejoin="round"/>
    <path d="M 129.23776245 82.62152100 C 135.43690491 83.68025970 142.13925171 86.66491699 145.46882629 89.86441040 C 151.07319641 93.90205383 154.81286621 98.66264343 155.86056519 103.98201752 C 156.95968628 109.68040466 157.39517212 115.78446960 154.35583496 122.45086670 C 152.78221130 126.22432709 149.02496338 132.03656006 141.81173706 135.01200867 C 136.87222290 136.33422852 132.10093689 137.06433105 123.51187134 136.32676697 C 117.83601379 135.67852783 112.89997864 135.31277466 109.25471497 132.23390198 C 102.86542511 126.94144440 100.75140381 123.76258850 98.84536743 117.15471649 C 97.70801544 112.81819153 97.27230072 104.48363495 100.46438599 98.82574463 C 102.01330566 94.95068359 106.13488770 90.44052124 111.83555603 85.50645447 C 117.27761078 81.76374054 122.24778748 81.38343811 129.23776245 82.62152100" stroke-width="1.32032037" fill="rgb(248, 177, 204)" opacity="1.0" stroke="rgb(83, 41, 51)" stroke-opacity="0.603194" stroke-linecap="round" stroke-linejoin="round"/>
    <path d="M 150.24967957 91.22126007 C 148.09518433 94.61141205 144.50471497 97.34828949 138.45057678 99.93628693 C 133.36398315 101.89970398 126.97308350 102.69284058 121.92564392 101.44830322 C 116.46410370 99.87554169 110.43109131 97.91233826 107.24188232 93.69566345 C 103.23160553 89.97600555 101.32127380 84.38050842 100.92251587 78.54560852 C 100.65031433 72.76088715 101.71050262 67.32115173 105.37351990 61.58612823 C 108.60356903 57.47861481 110.43013763 54.41983032 114.93580627 52.91757202 C 121.19302368 50.54238129 126.42803955 50.94039917 132.10340881 51.42778015 C 137.09431458 52.18732452 143.15199280 53.52632904 147.35568237 58.65778351 C 150.88937378 62.33332062 152.72117615 66.36279297 154.22305298 73.27440643 C 154.73976135 78.86646271 154.69763184 82.88215637 150.24967957 91.22126007" stroke-width="1.20077646" fill="rgb(145, 84, 59)" opacity="1.0" stroke="rgb(45, 12, 0)" stroke-opacity="0.7346876" stroke-linecap="round" stroke-linejoin="round"/>
    <path d="M 144.61730957 63.36614227 C 142.35467529 66.03233337 139.49417114 67.55461121 133.67160034 69.85144043 C 128.94017029 70.75179291 123.94403076 71.25126648 118.80369568 69.42616272 C 115.04183960 67.39635468 111.16926575 66.09707642 107.96640778 60.72653961 C 104.94892120 56.11563110 104.79519653 52.67722321 104.73939514 46.46213531 C 104.53442383 40.82230377 106.57073975 36.22543335 109.31925201 32.48074341 C 115.30609894 26.23848915 113.46861267 27.64668655 118.98111725 24.77010345 C 124.33786011 22.54954529 129.13442993 22.64050102 134.39991760 24.42104149 C 138.88017273 26.24052238 143.78826904 29.83133125 146.08605957 33.98592758 C 149.01951599 38.30338287 149.89230347 43.46356201 149.78472900 47.74560547 C 149.46693420 52.91147995 149.28948975 56.71234894 144.61730957 63.36614227" stroke-width="1.13868451" fill="rgb(250, 244, 215)" opacity="1.0" stroke="rgb(46, 45, 28)" stroke-opacity="0.49911734" stroke-linecap="round" stroke-linejoin="round"/>
    <path d="M 227.95104980 252.13491821 C 209.84332275 251.21665955 197.66055298 252.20994568 176.81903076 252.17814636 C 158.90567017 253.00746155 149.59295654 253.08860779 125.11239624 252.83224487 C 107.08352661 253.70808411 93.14759827 255.48559570 74.10836029 255.01795959 C 53.62059784 252.98519897 41.79095459 253.59924316 20.66395569 256.63635254 C -1.85590363 257.52325439 4.46593475 246.92732239 27.15202332 248.14915466 C 52.25318146 247.43592834 58.25619507 248.38928223 69.40927124 247.97317505 C 89.98194122 248.59822083 106.55561066 247.05775452 121.16077423 248.43110657 C 141.64085388 246.82804871 153.05854797 249.16642761 172.65863037 247.57888794 C 190.70162964 249.17070007 203.05335999 246.84394836 224.07791138 248.52671814 C 241.44735718 245.60585022 259.26974487 251.95266724 227.95104980 252.13491821" stroke-width="0.64762264" fill="rgb(255, 255, 255)" opacity="1.0" stroke="rgb(255, 255, 255)" stroke-opacity="0.0" stroke-linecap="round" stroke-linejoin="round"/>
    <path d="M 130.15469360 172.01515198 C 131.11677551 172.77528381 131.30154419 173.12478638 132.44908142 173.93086243 C 133.45668030 174.99810791 133.72106934 174.96299744 132.49037170 175.97019958 C 131.56285095 176.67498779 131.18713379 177.14285278 130.12324524 178.12818909 C 129.30722046 178.83985901 128.57826233 179.95272827 127.97977448 180.45501709 C 127.14669037 179.87461853 126.97159576 179.38357544 126.03466034 178.17012024 C 125.38998413 177.24096680 124.78695679 177.01435852 124.21262360 176.25695801 C 123.55268860 175.17793274 122.70986938 174.89172363 123.27558136 174.01724243 C 124.40097809 173.36663818 124.75563049 173.30143738 125.65835571 172.35206604 C 126.74639893 171.53950500 127.07971191 171.17065430 127.95707703 170.18466187 C 128.57604980 170.24185181 129.17996216 171.46714783 130.15469360 172.01515198" stroke-width="0.98844099" fill="rgb(241, 187, 129)" opacity="1.0" stroke="rgb(79, 39, 26)" stroke-opacity="0.7726856" stroke-linecap="round" stroke-linejoin="round"/>
  </g>
</svg>
