<?xml version="1.0" ?>
<svg xmlns="http://www.w3.org/2000/svg" version="1.1" width="256" height="256" viewBox="0 0 256 256">
  <defs/>
  <g>
    <path d="M 138.94837952 166.36975098 C 136.80027771 172.50216675 135.18978882 179.68316650 133.15567017 184.98239136 C 130.34289551 192.03077698 129.71916199 201.24647522 126.48263550 197.54222107 C 124.10691833 190.95477295 122.60773468 184.98878479 120.28646851 178.51361084 C 118.32024384 172.46395874 116.51426697 166.01237488 114.16079712 158.85388184 C 111.29916382 149.08786011 110.81611633 149.21498108 107.41587067 138.67552185 C 106.32009888 132.07917786 102.91484070 127.40560913 110.09725189 126.30441284 C 119.23420715 124.69069672 123.75453186 124.32270813 130.58934021 123.94854736 C 137.63636780 124.14172363 145.97077942 122.37289429 149.91085815 126.67395020 C 149.39437866 134.14582825 145.88960266 140.62460327 145.01071167 145.53904724 C 142.96879578 151.36567688 141.30651855 159.00506592 138.94837952 166.36975098" stroke-width="1.32437849" fill="rgb(213, 167, 109)" opacity="1.0" stroke="rgb(73, 28, 0)" stroke-opacity="0.7203772" stroke-linecap="round" stroke-linejoin="round"/>
    <path d="M 130.92153931 80.52099609 C 137.84848022 83.00112915 142.30001831 86.12602997 145.95849609 89.57894135 C 151.29066467 94.30797577 155.23567200 99.15830994 155.96571350 104.98316956 C 157.03858948 110.41607666 157.20774841 117.13534546 154.21432495 122.75196838 C 151.63935852 128.66683960 146.08546448 134.54809570 140.94723511 135.26232910 C 136.07070923 136.83477783 129.49740601 136.72653198 121.96708679 136.42378235 C 116.04293823 135.58258057 110.77890778 134.29405212 108.57106018 131.56773376 C 102.94689178 127.57203674 99.53604126 121.72587585 98.43477631 115.28884125 C 97.63762665 108.68733978 98.16204071 102.23033905 101.34331512 96.89369965 C 103.63816833 93.20266724 107.79483032 89.00144196 113.50277710 83.68096924 C 118.21716309 79.49252319 123.95230103 78.58756256 130.92153931 80.52099609" stroke-width="1.24885774" fill="rgb(248, 180, 201)" opacity="1.0" stroke="rgb(73, 32, 42)" stroke-opacity="0.5766127" stroke-linecap="round" stroke-linejoin="round"/>
    <path d="M 150.25837708 91.23910522 C 147.76794434 94.89086151 144.24041748 97.53541565 138.13668823 99.98178864 C 132.58982849 102.07234955 126.42689514 102.63022614 121.54085541 101.32012177 C 115.69080353 99.45846558 110.23380280 97.62247467 107.08723450 93.47642517 C 103.26332092 89.79124451 101.26763916 84.24896240 100.90628052 78.14116669 C 100.66087341 72.80673981 101.78686523 66.91616821 105.54116058 61.32376099 C 108.87377930 57.27027893 110.94853973 53.95874023 114.84159851 52.60050201 C 120.57449341 50.42865753 125.92772675 50.98560715 132.07836914 51.50887680 C 137.05020142 52.24525452 143.00515747 53.32048035 147.38902283 58.71414948 C 150.92462158 62.30823517 152.83036804 66.46721649 154.25148010 73.42220306 C 154.67419434 78.99491882 154.68089294 82.92727661 150.25837708 91.23910522" stroke-width="1.18850493" fill="rgb(141, 81, 58)" opacity="1.0" stroke="rgb(45, 13, 0)" stroke-opacity="0.73086154" stroke-linecap="round" stroke-linejoin="round"/>
    <path d="M 144.33593750 63.74325180 C 142.09199524 66.25599670 138.74620056 67.97216034 133.13798523 70.03376007 C 128.29837036 70.82775116 123.06889343 71.19241333 118.57517242 69.25634003 C 114.64992523 67.36379242 110.53390503 65.47523499 107.81420898 60.32051468 C 104.77098083 55.30091858 104.70613098 51.72682190 104.80657959 46.29279709 C 104.53478241 40.78153610 106.57569885 36.23509216 109.79595947 32.01135254 C 115.69802856 25.93671989 113.96079254 27.34052086 119.39954376 24.63715363 C 124.65763855 22.58365822 129.33860779 22.67026329 134.85301208 24.62176132 C 139.26831055 26.48518944 144.16232300 30.23814011 146.39920044 34.54291534 C 149.31466675 39.20175171 149.97662354 44.49468231 149.72152710 48.13531494 C 149.19781494 53.69437027 149.29116821 57.08148193 144.33593750 63.74325180" stroke-width="1.13108528" fill="rgb(253, 248, 214)" opacity="1.0" stroke="rgb(55, 53, 38)" stroke-opacity="0.51605415" stroke-linecap="round" stroke-linejoin="round"/>
    <path d="M 226.44421387 252.08229065 C 210.13220215 251.53732300 196.15307617 252.25790405 175.76373291 252.14143372 C 157.21882629 253.02033997 149.02938843 253.26690674 123.99359894 252.85830688 C 105.96669769 253.88139343 92.12541199 255.50756836 73.17246246 254.98692322 C 52.63762665 252.74655151 41.06353760 254.17126465 19.73115540 258.07196045 C -0.88741302 257.23730469 4.84970093 246.86682129 26.51506042 248.19299316 C 52.13108826 247.24851990 58.55392456 248.43403625 69.39438629 247.91189575 C 89.56796265 248.70391846 106.47334290 247.04832458 121.14904785 248.47683716 C 141.42541504 246.72314453 152.72404480 249.25030518 172.91252136 247.69165039 C 190.87609863 248.99076843 203.65100098 246.81381226 224.62982178 248.44572449 C 244.39129639 245.42547607 258.07449341 252.56661987 226.44421387 252.08229065" stroke-width="1.47604418" fill="rgb(255, 255, 255)" opacity="1.0" stroke="rgb(255, 255, 255)" stroke-opacity="0.0" stroke-linecap="round" stroke-linejoin="round"/>
    <path d="M 129.97399902 171.86511230 C 130.94599915 172.58363342 131.34257507 173.11355591 132.32891846 173.80720520 C 133.42677307 174.96104431 133.69694519 174.94723511 132.45278931 176.00914001 C 131.55216980 176.70913696 131.09580994 177.23460388 130.06594849 178.17396545 C 129.19090271 178.94906616 128.57186890 179.92280579 127.97647095 180.45587158 C 127.22367859 179.90678406 126.98406219 179.30958557 126.02407074 178.17544556 C 125.36053467 177.25790405 124.76486206 176.98573303 124.24817657 176.27165222 C 123.52143097 175.17044067 122.76392365 174.81152344 123.28942108 174.02690125 C 124.04669952 173.40249634 124.81660461 173.13043213 125.82948303 172.16212463 C 126.57261658 171.63250732 127.34328461 170.99565125 128.04164124 170.07725525 C 128.50123596 170.39416504 128.83581543 171.22187805 129.97399902 171.86511230" stroke-width="0.92230022" fill="rgb(231, 186, 124)" opacity="1.0" stroke="rgb(65, 30, 16)" stroke-opacity="0.6867459" stroke-linecap="round" stroke-linejoin="round"/>
  </g>
</svg>
