<?xml version="1.0" ?>
<svg xmlns="http://www.w3.org/2000/svg" version="1.1" width="256" height="256" viewBox="0 0 256 256">
  <defs/>
  <g>
    <path d="M 139.73689270 165.05062866 C 137.74072266 170.57110596 135.40678406 178.17976379 133.17990112 183.90350342 C 130.57412720 189.89590454 130.19331360 201.52227783 126.51847076 197.14503479 C 124.32582855 189.55520630 122.71709442 183.14544678 120.28935242 176.68850708 C 117.86384583 170.14573669 115.95951843 162.96704102 113.55477905 156.94444275 C 110.38638306 146.40280151 110.42424011 147.84886169 106.60781860 136.84780884 C 105.35318756 130.37045288 102.20897675 123.03927612 110.50305939 125.10794067 C 119.46685791 125.00238800 124.38590240 124.94696045 131.64424133 124.96986389 C 139.55265808 125.58614349 145.92517090 124.38870239 152.09283447 125.13769531 C 152.26860046 132.52447510 148.11529541 136.00260925 146.41682434 144.70956421 C 144.47764587 149.62110901 142.39929199 157.96282959 139.73689270 165.05062866" stroke-width="1.00000000" fill="rgb(210, 105, 30)" opacity="1.0"/>
    <path d="M 132.21557617 80.17499542 C 137.57203674 80.84106445 144.50782776 84.15127563 148.89161682 88.50245667 C 153.00148010 92.14318848 156.62635803 98.27553558 157.72888184 104.97377777 C 158.09658813 109.79661560 158.36123657 116.74976349 154.81100464 123.60807037 C 151.90827942 128.91735840 149.59085083 132.16394043 141.39628601 136.96252441 C 137.73497009 138.64099121 130.61564636 140.66610718 123.18303680 139.24337769 C 115.89908600 137.51184082 112.26322174 136.08961487 108.57736969 132.12567139 C 102.40896606 125.07389069 100.59764099 123.30860138 98.58087158 115.62443542 C 97.71277618 108.96343231 96.98375702 105.56124878 100.77376556 97.25691223 C 104.27130890 90.96146393 106.50008392 88.47687531 113.53872681 83.51449585 C 119.70976257 80.26482391 125.02066803 78.84815979 132.21557617 80.17499542" stroke-width="1.00000000" fill="rgb(255, 182, 193)" opacity="1.0"/>
    <path d="M 151.65885925 89.19860840 C 149.31704712 92.56599426 146.51562500 95.95413208 140.20999146 99.73863220 C 135.36073303 102.34089661 129.16458130 103.58112335 123.45259857 102.09700012 C 118.12478638 100.49613190 112.27452087 99.08389282 108.20326233 94.07867432 C 104.31829071 89.92149353 101.72449493 85.83743286 100.71247101 78.39796448 C 100.75158691 69.73458099 100.74570465 69.35662842 104.37831116 61.71011353 C 110.85801697 53.25364685 108.10160828 55.60264587 115.17487335 50.89882660 C 122.56858063 47.84206390 125.38719940 47.08517456 132.85037231 47.96080780 C 138.96095276 49.36217499 141.24998474 49.40919495 147.68473816 55.82529449 C 152.20593262 61.10436630 153.06825256 63.04857254 155.81547546 71.00131226 C 156.78413391 77.61596680 155.47061157 80.63596344 151.65885925 89.19860840" stroke-width="1.00000000" fill="rgb(139, 69, 19)" opacity="1.0"/>
    <path d="M 147.19126892 61.11249542 C 144.88008118 63.76371765 141.78486633 66.04492188 135.61141968 68.99470520 C 130.71916199 70.36149597 125.59426880 70.63217926 120.06513214 68.53696442 C 114.57601166 65.86421204 112.10201263 65.37470245 107.66422272 59.52788925 C 104.82057190 55.46801758 102.84574890 51.45144272 103.08374023 44.59544373 C 104.19429016 36.70912933 103.96800995 35.94277191 107.95927429 30.15325165 C 115.23729706 23.34012222 112.42770386 24.95229149 119.39945984 21.85932922 C 126.74944305 19.97098541 129.71395874 19.19770432 135.41450500 20.98710632 C 140.03060913 22.53872490 146.08552551 26.62841225 148.22187805 30.04044724 C 151.78884888 35.22600555 152.59440613 39.67341614 153.09585571 45.00634384 C 152.97860718 51.36964417 152.55862427 53.02855301 147.19126892 61.11249542" stroke-width="1.00000000" fill="rgb(255, 250, 240)" opacity="1.0"/>
    <path d="M 231.32345581 251.61473083 C 213.41275024 250.44845581 200.33560181 251.37286377 179.15834045 251.42295837 C 160.09353638 252.75289917 151.99494934 252.84558105 126.63195038 252.16278076 C 109.06443787 252.12286377 95.10025787 254.95100403 76.33079529 254.51968384 C 57.68158722 251.47074890 48.90783691 254.52633667 21.93516541 255.28475952 C -2.82785797 259.95349121 1.05880737 248.19648743 22.35751343 248.48832703 C 51.33414459 249.13734436 53.78512573 248.93515015 69.61013031 249.03825378 C 93.89195251 248.21623230 109.54148865 247.59446716 123.25883484 249.84547424 C 144.33847046 247.31610107 155.21109009 249.43078613 177.67645264 248.42169189 C 196.03359985 250.65773010 206.48956299 246.82662964 229.18380737 249.31340027 C 249.08110046 246.32322693 260.72070312 252.19494629 231.32345581 251.61473083" stroke-width="1.00000000" fill="rgb(255, 255, 255)" opacity="1.0"/>
    <path d="M 130.36950684 171.42306519 C 131.31857300 172.11590576 131.63217163 172.68815613 132.45112610 173.57147217 C 133.04794312 174.81806946 133.32188416 174.84643555 132.45378113 175.80790710 C 131.40481567 176.84408569 131.34658813 176.99197388 130.18028259 178.14558411 C 129.59257507 178.58226013 128.81257629 179.59976196 127.79706573 180.03065491 C 126.88784790 179.70504761 126.47405243 179.17213440 125.65606689 178.02522278 C 125.02884674 177.11395264 124.57700348 176.92131042 123.97676849 176.06604004 C 123.42274475 174.92791748 122.75870514 174.75553894 123.08998871 173.66307068 C 123.96343231 172.78779602 124.54175568 172.43592834 125.15731812 171.79917908 C 126.18837738 171.03701782 126.72888184 170.48785400 127.57238770 170.13319397 C 128.57072449 170.32986450 129.30952454 170.77545166 130.36950684 171.42306519" stroke-width="1.00000000" fill="rgb(239, 185, 119)" opacity="1.0"/>
  </g>
</svg>
