<?xml version="1.0" ?>
<svg xmlns="http://www.w3.org/2000/svg" version="1.1" width="256" height="256" viewBox="0 0 256 256">
  <defs/>
  <g>
    <path d="M 139.73687744 165.05062866 C 137.74069214 170.57110596 135.40678406 178.17976379 133.17990112 183.90350342 C 130.57411194 189.89590454 130.19331360 201.52227783 126.51845551 197.14501953 C 124.32581329 189.55520630 122.71709442 183.14544678 120.28934479 176.68850708 C 117.86383057 170.14573669 115.95951080 162.96704102 113.55477142 156.94444275 C 110.38636780 146.40280151 110.42423248 147.84886169 106.60780334 136.84780884 C 105.35317993 130.37045288 102.20896149 123.03927612 110.50305176 125.10794067 C 119.46684265 125.00238800 124.38588715 124.94696045 131.64422607 124.96986389 C 139.55265808 125.58614349 145.92514038 124.38870239 152.09283447 125.13770294 C 152.26860046 132.52447510 148.11528015 136.00259399 146.41680908 144.70956421 C 144.47764587 149.62110901 142.39927673 157.96282959 139.73687744 165.05062866" stroke-width="0.80000001" fill="rgb(210, 105, 30)" opacity="1.0" stroke="rgb(0, 0, 0)" stroke-opacity="1.0" stroke-linecap="round" stroke-linejoin="round"/>
    <path d="M 132.21556091 80.17498779 C 137.57205200 80.84106445 144.50782776 84.15126038 148.89160156 88.50244904 C 153.00148010 92.14317322 156.62637329 98.27552795 157.72886658 104.97377014 C 158.09658813 109.79661560 158.36123657 116.74974823 154.81100464 123.60806274 C 151.90827942 128.91734314 149.59085083 132.16392517 141.39628601 136.96250916 C 137.73497009 138.64097595 130.61564636 140.66609192 123.18303680 139.24336243 C 115.89908600 137.51182556 112.26322937 136.08959961 108.57736969 132.12567139 C 102.40896606 125.07387543 100.59764099 123.30859375 98.58087158 115.62441254 C 97.71278381 108.96343231 96.98375702 105.56124115 100.77376556 97.25689697 C 104.27131653 90.96145630 106.50009155 88.47686768 113.53873444 83.51448822 C 119.70977020 80.26482391 125.02067566 78.84814453 132.21556091 80.17498779" stroke-width="0.80000001" fill="rgb(255, 182, 193)" opacity="1.0" stroke="rgb(0, 0, 0)" stroke-opacity="1.0" stroke-linecap="round" stroke-linejoin="round"/>
    <path d="M 151.65887451 89.19862366 C 149.31706238 92.56601715 146.51562500 95.95413208 140.21000671 99.73863220 C 135.36073303 102.34091949 129.16459656 103.58113861 123.45261383 102.09701538 C 118.12479401 100.49613953 112.27453613 99.08390045 108.20327759 94.07868195 C 104.31829834 89.92150116 101.72450256 85.83744812 100.71247864 78.39797211 C 100.75159454 69.73460388 100.74571991 69.35663605 104.37831879 61.71012878 C 110.85803223 53.25366211 108.10162354 55.60266495 115.17488861 50.89884186 C 122.56858826 47.84207916 125.38720703 47.08518982 132.85037231 47.96081924 C 138.96096802 49.36218643 141.25000000 49.40921021 147.68475342 55.82530975 C 152.20594788 61.10437775 153.06825256 63.04858780 155.81547546 71.00132751 C 156.78414917 77.61598969 155.47062683 80.63597107 151.65887451 89.19862366" stroke-width="0.80000001" fill="rgb(139, 69, 19)" opacity="1.0" stroke="rgb(0, 0, 0)" stroke-opacity="1.0" stroke-linecap="round" stroke-linejoin="round"/>
    <path d="M 147.19126892 61.11251068 C 144.88008118 63.76373291 141.78486633 66.04493713 135.61141968 68.99472046 C 130.71917725 70.36151123 125.59427643 70.63219452 120.06513977 68.53697205 C 114.57600403 65.86421204 112.10202026 65.37472534 107.66422272 59.52789688 C 104.82057953 55.46802521 102.84574890 51.45145798 103.08374023 44.59545898 C 104.19429016 36.70914459 103.96800232 35.94278717 107.95927429 30.15326691 C 115.23729706 23.34013748 112.42771912 24.95230103 119.39946747 21.85934258 C 126.74945068 19.97099876 129.71395874 19.19771385 135.41450500 20.98712158 C 140.03060913 22.53873444 146.08552551 26.62842751 148.22186279 30.04046249 C 151.78884888 35.22602081 152.59440613 39.67342377 153.09585571 45.00635529 C 152.97862244 51.36965942 152.55860901 53.02856064 147.19126892 61.11251068" stroke-width="0.80000001" fill="rgb(255, 250, 240)" opacity="1.0" stroke="rgb(0, 0, 0)" stroke-opacity="1.0" stroke-linecap="round" stroke-linejoin="round"/>
    <path d="M 231.32347107 251.61471558 C 213.41275024 250.44847107 200.33560181 251.37286377 179.15834045 251.42295837 C 160.09352112 252.75288391 151.99494934 252.84558105 126.63195038 252.16278076 C 109.06442261 252.12283325 95.10025024 254.95098877 76.33079529 254.51968384 C 57.68158722 251.47073364 48.90783691 254.52633667 21.93515015 255.28474426 C -2.82787323 259.95346069 1.05880737 248.19648743 22.35749817 248.48832703 C 51.33413696 249.13732910 53.78512573 248.93513489 69.61012268 249.03822327 C 93.89195251 248.21623230 109.54148865 247.59446716 123.25883484 249.84547424 C 144.33847046 247.31610107 155.21109009 249.43077087 177.67645264 248.42167664 C 196.03359985 250.65773010 206.48956299 246.82661438 229.18385315 249.31336975 C 249.08110046 246.32322693 260.72067261 252.19493103 231.32347107 251.61471558" stroke-width="0.80000001" fill="rgb(255, 255, 255)" opacity="1.0" stroke="rgb(0, 0, 0)" stroke-opacity="1.0" stroke-linecap="round" stroke-linejoin="round"/>
    <path d="M 130.36952209 171.42306519 C 131.31858826 172.11590576 131.63217163 172.68815613 132.45112610 173.57147217 C 133.04794312 174.81806946 133.32188416 174.84643555 132.45378113 175.80790710 C 131.40481567 176.84408569 131.34660339 176.99197388 130.18028259 178.14558411 C 129.59257507 178.58226013 128.81259155 179.59976196 127.79706573 180.03065491 C 126.88784790 179.70504761 126.47405243 179.17213440 125.65606689 178.02522278 C 125.02884674 177.11395264 124.57700348 176.92131042 123.97676849 176.06604004 C 123.42274475 174.92791748 122.75870514 174.75553894 123.08998871 173.66307068 C 123.96343231 172.78779602 124.54175568 172.43592834 125.15731812 171.79917908 C 126.18837738 171.03701782 126.72888184 170.48785400 127.57238770 170.13319397 C 128.57072449 170.32986450 129.30952454 170.77545166 130.36952209 171.42306519" stroke-width="0.80000001" fill="rgb(239, 185, 119)" opacity="1.0" stroke="rgb(0, 0, 0)" stroke-opacity="1.0" stroke-linecap="round" stroke-linejoin="round"/>
  </g>
</svg>
