<?xml version="1.0" ?>
<svg xmlns="http://www.w3.org/2000/svg" version="1.1" width="512" height="512" viewBox="0 0 512 512">
  <defs/>
  <g>
    <path d="M 507.66683960 498.05087280 C 498.02343750 501.77612305 487.81262207 504.49307251 476.88858032 506.38177490 C 465.20034790 506.90698242 452.62268066 506.96694946 438.75930786 505.61898804 C 422.89099121 505.58483887 405.42309570 505.62481689 386.74874878 505.58081055 C 367.06933594 503.75451660 346.16128540 503.35266113 324.02902222 503.66357422 C 300.76098633 503.53631592 276.52069092 503.69067383 251.62779236 503.60659790 C 226.44351196 503.55264282 201.29418945 503.73144531 176.45643616 503.58581543 C 152.08758545 503.58544922 128.47427368 503.59573364 106.02355957 503.70205688 C 85.15544891 505.61547852 65.85420990 505.80465698 48.45417404 505.71908569 C 33.43997955 505.32717896 21.21381378 503.24185181 12.41425514 498.43450928 C 7.30387497 488.62097168 4.40441942 475.15090942 3.28727889 458.24514771 C 3.41446662 438.54125977 3.36984515 416.74877930 3.30523515 393.36303711 C 4.75016975 368.91607666 8.27641392 343.47470093 10.41560650 316.84466553 C 10.39492893 288.69158936 10.35264111 259.69610596 10.29071426 230.65356445 C 8.93835163 202.44938660 6.72718000 175.34582520 4.42601442 149.54031372 C 4.20355082 125.26438904 4.25373936 102.88609314 4.31363487 82.29094696 C 6.25790691 63.42230988 9.01417351 46.25033951 12.35183430 30.76210594 C 16.78781319 17.18277931 24.58729362 7.06176567 35.60028839 2.32562470 C 49.81690598 2.34891796 66.70893097 2.43589664 85.88231659 2.44490051 C 106.91564941 2.31074548 129.54751587 2.40578485 153.58137512 2.41638184 C 178.71926880 2.30336475 204.74414062 2.36170197 231.29138184 2.39153194 C 258.06118774 2.30242467 284.77850342 2.34471011 310.89297485 2.40570474 C 335.93103027 4.20088959 360.32995605 3.45490193 384.39566040 2.25839067 C 408.09384155 2.46298814 430.87496948 2.36593032 451.90924072 2.40970540 C 470.12356567 2.07665324 485.03768921 1.84617436 496.07614136 6.28290081 C 503.07275391 16.21364784 507.36724854 30.07718086 509.61856079 46.57718658 C 509.73983765 64.90917969 509.63125610 84.65848541 509.68173218 105.72525024 C 510.01943970 128.24592590 508.56033325 151.96090698 506.61245728 176.69918823 C 504.07427979 202.28770447 502.31069946 228.16712952 502.69430542 254.14657593 C 502.11068726 279.96627808 503.66226196 305.31054688 507.58203125 330.32528687 C 508.03619385 355.55368042 507.57028198 380.78213501 507.66683960 498.05087280" stroke-width="2.00000000" fill="rgb(247, 249, 241)" opacity="1.0" stroke="rgb(248, 239, 0)" stroke-opacity="0.36092135" stroke-linecap="round" stroke-linejoin="round"/>
    <path d="M 359.72573853 335.30197144 C 356.07528687 340.78433228 351.89801025 345.60812378 347.26968384 349.87176514 C 341.63308716 352.61810303 335.20584106 354.37942505 328.16259766 355.73483276 C 320.46704102 356.64660645 312.17846680 357.42651367 303.40725708 358.27014160 C 294.26882935 359.14913940 284.79855347 359.92312622 275.01251221 360.53182983 C 265.02795410 361.01550293 254.94213867 361.33450317 244.77716064 361.56866455 C 234.58512878 361.78955078 224.51084900 361.90200806 214.66357422 361.87496948 C 205.07530212 361.68777466 195.80854797 361.32785034 186.96661377 360.83648682 C 178.66156006 360.28570557 170.97529602 359.15383911 163.92961121 357.02136230 C 157.74081421 353.79541016 152.45217896 349.24023438 148.03378296 343.29306030 C 144.51644897 336.08660889 139.33621216 328.97274780 134.62852478 321.11523438 C 130.19949341 312.84030151 127.34940338 303.69503784 125.26540375 293.88635254 C 123.20617676 283.94967651 122.39849091 273.69784546 122.66477966 263.31527710 C 122.61440277 252.76295471 122.30026245 242.45944214 122.26937103 232.58595276 C 121.96768951 223.27392578 122.42799377 215.06236267 122.94291687 208.17282104 C 123.95417023 202.69656372 126.38585663 198.91908264 130.05249023 196.58668518 C 134.40307617 195.59053040 139.25991821 195.47360229 144.32923889 194.23320007 C 149.56037903 192.36747742 155.22062683 191.70333862 161.75367737 191.93132019 C 169.15927124 191.85169983 177.31352234 191.45550537 186.07426453 190.57708740 C 195.69445801 190.15303040 205.69169617 190.00111389 216.01213074 190.20060730 C 226.32662964 189.60031128 236.23802185 189.22404480 246.12821960 190.76316833 C 256.64657593 190.90830994 267.56716919 190.58428955 278.92623901 190.66325378 C 290.44509888 190.27146912 301.80603027 189.66111755 313.13308716 188.77212524 C 324.54989624 190.44433594 335.91415405 191.59835815 346.66662598 193.49604797 C 356.99136353 195.89315796 366.23458862 197.99903870 373.83795166 201.01004028 C 379.98425293 204.05853271 384.62536621 206.43916321 387.47875977 207.74719238 C 386.17105103 211.71195984 383.28176880 217.12605286 380.31103516 223.13589478 C 380.13430786 228.96292114 382.08990479 235.08201599 383.53988647 241.98403931 C 382.38717651 249.82157898 382.81066895 258.98138428 381.77288818 269.28659058 C 379.91311646 280.26757812 377.25888062 291.73788452 373.56051636 303.15066528 C 370.41189575 314.32788086 368.63748169 325.75476074 359.72573853 335.30197144" stroke-width="1.42472827" fill="rgb(6, 3, 6)" opacity="1.0" stroke="rgb(114, 97, 116)" stroke-opacity="0.84401023" stroke-linecap="round" stroke-linejoin="round"/>
    <path d="M 350.64099121 327.66229248 C 346.71646118 332.94201660 342.68130493 337.85806274 338.09017944 342.35897827 C 333.49346924 346.86700439 328.45202637 350.93051147 322.80072021 354.28067017 C 316.72787476 357.12249756 310.29629517 359.59786987 303.51544189 361.74627686 C 296.44711304 363.46081543 289.04006958 364.70901489 281.36572266 365.63604736 C 273.50390625 366.44839478 265.48324585 367.18905640 257.46041870 367.76113892 C 249.46325684 368.15093994 241.43254089 367.47058105 233.19294739 365.67950439 C 224.65727234 363.81283569 216.11985779 361.85272217 207.68373108 359.61718750 C 199.45265198 356.60626221 191.56120300 352.88650513 184.21284485 348.54937744 C 177.44139099 343.12725830 170.02780151 338.74279785 162.27690125 334.65838623 C 155.75192261 329.04632568 149.48796082 323.08184814 144.28120422 316.26397705 C 140.54402161 308.38436890 137.71859741 299.67218018 135.55189514 290.39169312 C 133.65330505 280.90444946 133.33589172 271.22604370 133.55718994 261.34014893 C 133.31326294 251.63291931 133.44552612 242.59162903 133.40969849 234.67098999 C 133.85704041 228.22479248 132.84909058 223.23501587 131.34600830 219.26385498 C 131.43954468 216.11334229 132.91252136 215.36332703 136.07310486 217.60336304 C 139.36430359 221.87606812 143.98129272 224.17399597 150.45774841 222.89146423 C 155.89596558 218.00398254 160.78816223 211.35795593 166.45867920 205.51901245 C 173.28741455 202.43910217 181.44819641 202.12179565 190.25779724 200.97914124 C 199.09574890 199.86608887 208.04531860 199.71127319 216.70382690 200.08842468 C 224.75019836 200.22793579 231.96910095 199.69244385 238.27090454 200.65541077 C 243.91278076 204.63345337 247.32804871 210.23690796 248.21855164 217.66566467 C 252.08219910 224.52983093 258.76660156 230.09150696 267.47814941 233.99848938 C 277.69900513 236.10728455 289.12097168 236.29116821 300.76718140 235.66625977 C 312.12207031 234.11022949 323.05346680 231.85124207 333.35168457 229.18284607 C 343.20275879 227.12463379 351.99530029 225.10760498 359.53347778 223.65390015 C 365.53195190 223.24949646 370.00808716 223.88829041 372.82556152 224.85119629 C 373.02795410 227.32032776 372.49133301 231.17794800 372.43301392 236.48481750 C 372.48223877 243.02673340 372.39303589 250.48472595 372.40298462 258.56909180 C 371.72171021 267.01895142 370.62426758 276.00094604 368.62258911 285.24945068 C 366.70382690 294.79916382 365.24697876 304.84426880 350.64099121 327.66229248" stroke-width="2.00000000" fill="rgb(112, 64, 49)" opacity="1.0" stroke="rgb(169, 114, 78)" stroke-opacity="0.8806467" stroke-linecap="round" stroke-linejoin="round"/>
    <path d="M 320.10681152 232.22540283 C 307.05703735 233.70155334 294.04763794 234.14364624 280.90100098 233.81723022 C 267.24914551 233.81718445 253.38279724 233.82192993 239.36042786 233.65682983 C 225.48249817 232.54138184 212.32765198 231.15086365 199.72033691 229.23223877 C 187.74827576 226.36698914 176.50531006 224.89819336 167.54763794 222.14369202 C 160.51307678 218.03886414 154.63537598 216.67054749 152.00645447 217.77777100 C 154.32934570 220.77828979 158.01760864 225.83329773 161.63203430 231.41773987 C 167.43168640 233.30934143 174.16833496 234.22064209 180.07934570 235.44245911 C 183.92709351 235.52148438 185.56690979 236.83152771 184.39555359 239.48043823 C 179.59007263 242.29652405 173.96257019 245.08403015 168.79249573 244.14610291 C 164.13160706 234.70712280 156.55540466 223.60617065 149.29026794 213.98054504 C 148.88069153 210.65466309 155.50352478 209.96516418 163.49621582 204.37806702 C 173.33351135 200.82550049 177.77734375 201.65158081 175.29188538 206.71200562 C 168.68711853 211.12857056 170.74964905 214.47090149 180.09637451 215.67605591 C 194.09915161 217.31770325 209.17211914 217.42675781 223.94007874 218.13853455 C 237.14476013 219.66859436 249.07171631 220.27813721 260.43887329 218.71166992 C 271.97491455 218.35722351 283.12063599 218.34706116 293.22558594 218.36894226 C 301.86337280 216.84848022 308.95672607 215.60237122 314.45788574 216.33013916 C 318.10095215 218.14503479 320.42172241 220.38079834 321.82238770 222.81607056 C 323.34759521 224.43643188 323.89645386 225.81097412 323.23980713 227.27008057 C 323.53155518 229.08247375 324.15063477 230.72792053 320.10681152 232.22540283" stroke-width="2.00000000" fill="rgb(247, 246, 235)" opacity="1.0" stroke="rgb(48, 51, 51)" stroke-opacity="1.0" stroke-linecap="round" stroke-linejoin="round"/>
    <path d="M 370.26693726 323.56774902 C 368.59561157 324.27377319 367.40408325 325.13598633 366.66232300 325.48156738 C 366.22625732 324.62603760 366.35754395 322.95373535 366.98657227 320.56616211 C 367.98849487 317.53778076 369.48657227 314.15536499 371.76519775 310.94845581 C 375.07586670 307.98696899 378.17816162 304.31967163 381.35809326 300.34530640 C 384.43420410 296.10336304 387.42230225 291.87765503 388.89874268 286.89901733 C 389.92224121 281.42153931 390.69775391 275.50827026 391.61798096 269.56478882 C 391.86117554 264.00753784 391.72448730 258.94589233 391.90734863 254.12043762 C 391.59228516 249.62031555 391.75561523 245.89665222 391.42980957 243.18312073 C 389.40109253 241.69424438 386.57046509 241.12753296 383.63507080 240.59370422 C 381.23757935 238.63648987 379.49264526 235.85868835 378.63647461 232.70249939 C 378.88702393 229.64938354 380.41305542 227.13764954 383.28356934 225.34722900 C 387.11169434 223.64186096 391.38198853 222.94996643 395.88275146 222.81819153 C 400.04010010 223.00590515 403.52774048 224.95214844 407.16873169 227.84747314 C 410.70574951 231.17633057 413.59344482 235.18020630 415.34375000 240.01834106 C 417.17309570 245.17660522 418.32345581 250.50584412 419.96176147 255.62721252 C 421.19946289 260.44461060 420.90902710 265.17031860 420.55813599 269.98233032 C 421.31518555 274.53204346 421.71673584 279.01071167 421.07098389 283.86953735 C 419.77932739 289.30816650 417.41317749 294.82522583 413.79675293 300.15725708 C 409.71511841 305.90768433 404.64538574 311.38647461 399.28488159 317.03637695 C 392.95028687 322.08288574 387.08099365 327.27081299 370.26693726 323.56774902" stroke-width="1.52704275" fill="rgb(7, 6, 13)" opacity="1.0" stroke="rgb(23, 33, 0)" stroke-opacity="0.5301572" stroke-linecap="round" stroke-linejoin="round"/>
    <path d="M 378.40444946 313.73971558 C 380.32138062 312.15124512 382.35568237 310.68218994 384.25302124 309.30618286 C 386.10095215 307.98541260 387.60159302 306.40707397 388.73178101 304.27038574 C 390.29525757 302.33679199 391.93563843 300.29266357 393.67709351 298.48919678 C 394.64578247 296.22103882 395.92425537 293.83221436 397.08825684 291.34616089 C 398.09646606 288.66369629 398.92263794 285.55853271 399.39785767 282.24020386 C 399.41403198 278.61102295 399.36428833 274.68612671 399.42498779 270.67428589 C 400.08709717 266.52279663 400.00323486 262.46994019 399.24667358 258.57562256 C 398.21130371 254.83842468 397.25973511 251.49729919 396.25872803 248.60462952 C 395.10494995 245.99909973 393.60623169 244.36386108 391.70806885 243.71357727 C 389.51074219 243.76081848 387.45053101 243.42163086 386.23071289 242.63462830 C 386.02783203 241.47958374 387.30642700 240.26745605 389.26785278 238.87600708 C 391.80426025 237.43437195 394.19384766 236.21934509 396.74606323 236.12034607 C 399.01739502 236.72187805 401.15463257 238.03903198 403.19931030 240.03498840 C 404.93862915 242.91122437 406.01736450 246.44099426 406.20764160 250.52359009 C 407.27157593 254.30815125 407.94839478 258.13787842 407.56945801 262.20062256 C 407.80679321 266.32705688 407.35494995 270.28161621 406.59576416 274.23229980 C 406.61584473 278.14877319 406.42553711 281.66125488 405.80148315 285.24191284 C 404.89709473 288.40008545 403.31857300 291.18881226 401.47723389 293.72607422 C 399.70712280 296.16775513 398.30038452 298.62573242 396.82095337 300.86654663 C 395.10379028 302.58901978 393.25677490 303.97488403 378.40444946 313.73971558" stroke-width="1.67562985" fill="rgb(238, 248, 249)" opacity="1.0" stroke="rgb(156, 214, 255)" stroke-opacity="0.54940575" stroke-linecap="round" stroke-linejoin="round"/>
    <path d="M 203.19937134 150.20179749 C 201.47189331 151.24584961 199.64897156 152.30152893 198.11511230 153.28822327 C 196.66020203 153.86584473 195.25573730 154.43875122 194.10842896 154.85098267 C 193.22064209 154.71099854 192.42840576 154.32083130 191.79515076 153.92742920 C 191.28167725 153.45068359 190.96142578 152.80410767 190.90713501 151.94715881 C 191.06707764 151.01390076 191.37429810 150.09167480 191.80787659 149.16813660 C 192.39186096 148.19856262 193.12844849 147.18438721 194.10217285 146.18388367 C 195.29446411 145.30503845 196.61396790 144.54101562 198.08277893 143.77952576 C 199.73329163 142.96539307 201.61918640 142.06434631 203.68551636 141.09098816 C 205.86512756 140.17121887 207.96191406 139.44183350 210.00724792 138.88911438 C 212.12667847 138.63441467 214.27349854 138.78834534 203.19937134 150.20179749" stroke-width="2.00000000" fill="rgb(126, 0, 60)" opacity="1.0" stroke="rgb(243, 120, 119)" stroke-opacity="0.4345965" stroke-linecap="round" stroke-linejoin="round"/>
    <path d="M 259.91696167 152.00778198 C 259.04147339 154.80584717 258.18014526 157.70271301 257.67803955 160.54757690 C 257.53164673 163.38041687 257.55487061 166.07908630 257.62692261 168.37409973 C 257.70495605 170.23011780 257.75952148 171.57060242 257.36105347 172.45928955 C 256.09539795 172.83610535 254.38291931 173.36917114 252.68409729 174.08816528 C 251.16351318 174.63105774 249.86331177 174.66838074 248.95481873 174.41334534 C 248.52264404 173.40592957 248.44889832 171.94212341 248.17700195 170.05325317 C 248.02337646 168.04635620 248.33383179 165.97257996 248.96229553 163.77920532 C 250.07992554 161.53695679 251.01333618 159.05294800 251.61746216 156.36312866 C 252.37437439 153.70872498 253.26213074 151.10533142 254.20401001 148.65733337 C 255.10997009 146.39622498 256.21267700 144.27458191 257.71105957 142.45431519 C 259.36801147 140.90708923 260.86209106 139.39138794 262.28445435 137.99864197 C 263.74682617 136.77607727 265.10162354 135.67279053 266.34353638 134.68849182 C 267.57754517 133.86654663 268.74844360 133.21948242 269.84771729 132.68609619 C 270.91735840 132.19656372 271.91204834 131.75688171 272.82681274 131.45298767 C 273.62377930 131.32078552 274.32675171 131.25689697 274.94232178 131.24786377 C 275.41931152 131.56991577 275.86532593 131.94499207 276.29708862 132.18614197 C 276.57601929 132.52355957 276.45867920 133.02433777 276.16467285 133.89796448 C 275.72106934 135.03179932 275.19311523 136.25289917 274.15902710 137.48176575 C 272.83593750 138.94198608 271.42755127 140.62225342 269.45941162 142.06240845 C 266.90618896 143.40431213 264.11917114 144.74440002 259.91696167 152.00778198" stroke-width="1.58082414" fill="rgb(185, 28, 20)" opacity="1.0" stroke="rgb(226, 150, 103)" stroke-opacity="0.6799435" stroke-linecap="round" stroke-linejoin="round"/>
    <path d="M 307.30209351 142.71292114 C 308.25265503 146.19224548 309.23635864 149.81704712 310.25717163 153.44239807 C 311.23706055 156.88757324 311.93667603 160.17858887 312.43753052 163.41119385 C 313.42523193 166.29574585 314.19973755 168.74513245 314.76040649 170.78251648 C 315.24716187 172.29928589 315.52819824 173.27102661 315.16180420 173.78140259 C 314.32022095 173.52163696 313.35031128 172.64678955 312.76165771 171.16795349 C 312.45169067 169.24882507 311.68801880 167.04612732 310.61791992 164.77172852 C 309.93716431 162.16964722 309.40338135 159.45758057 308.55792236 156.66285706 C 307.84024048 153.84933472 307.44091797 150.92245483 307.41140747 147.78602600 C 307.38873291 144.71813965 307.84362793 141.86167908 308.73681641 139.04545593 C 309.86819458 136.15132141 311.00497437 133.29640198 312.05044556 130.50842285 C 312.90612793 127.74628448 313.61688232 125.14856720 314.44833374 122.86563873 C 315.68319702 120.83638763 316.92419434 118.90324402 318.01617432 117.33524323 C 318.71267700 116.03829956 318.96163940 114.80239105 318.95285034 113.60550690 C 318.75625610 112.67369080 318.53665161 112.10431671 318.46328735 111.85960388 C 318.58596802 111.82776642 319.11160278 111.93750000 319.70935059 112.25547028 C 319.81774902 112.85446167 319.73254395 113.66440582 319.64907837 114.68531036 C 319.62826538 115.99074554 319.65698242 117.46961975 319.64843750 119.03525543 C 319.45495605 120.62606812 319.11584473 122.21975708 318.57904053 123.79505157 C 317.74664307 125.33317566 316.58413696 126.84094238 315.25894165 128.36164856 C 313.95123291 129.83587646 312.66421509 131.26963806 307.30209351 142.71292114" stroke-width="1.23855484" fill="rgb(193, 109, 191)" opacity="1.0" stroke="rgb(192, 86, 205)" stroke-opacity="0.40148455" stroke-linecap="round" stroke-linejoin="round"/>
    <path d="M 357.39419556 354.47314453 C 351.04473877 354.12008667 344.74755859 353.75344849 338.53894043 353.76907349 C 332.37817383 354.52297974 326.11022949 356.11712646 319.71520996 358.88577271 C 313.19104004 363.23092651 305.74133301 366.62179565 296.66629028 368.07894897 C 286.48614502 369.74694824 275.01254272 370.02960205 262.88296509 369.82708740 C 249.78137207 368.99185181 236.16925049 368.51397705 222.79130554 367.44943237 C 209.59640503 366.23266602 196.90393066 364.24298096 184.74940491 361.45022583 C 172.99256897 359.81307983 162.16584778 357.64178467 152.39193726 355.67614746 C 143.79804993 355.14776611 136.83096313 355.66183472 131.88613892 355.15539551 C 129.03878784 352.49093628 127.43299866 349.92199707 127.86959076 348.54531860 C 131.79760742 348.37823486 137.33740234 349.06304932 142.79441833 348.60964966 C 146.63485718 345.45330811 150.33679199 342.23468018 155.49227905 341.29937744 C 162.35006714 342.57614136 170.67762756 345.54022217 180.10763550 349.67440796 C 190.41064453 354.02636719 201.80998230 357.22564697 214.16035461 359.14260864 C 226.73394775 360.04748535 239.56744385 360.37362671 252.50917053 361.11221313 C 265.38833618 361.19641113 278.00515747 360.66107178 290.10656738 359.89913940 C 301.45770264 358.62380981 311.92773438 355.97961426 321.63156128 352.65716553 C 331.01147461 351.28320312 340.25399780 351.86999512 349.59591675 353.52331543 C 359.21008301 355.48022461 369.00997925 357.24432373 378.89538574 358.89514160 C 388.84082031 360.53546143 398.96087646 362.26034546 409.16015625 363.99319458 C 419.38760376 365.54745483 429.55514526 367.10833740 357.39419556 354.47314453" stroke-width="1.36755896" fill="rgb(3, 5, 3)" opacity="1.0" stroke="rgb(0, 7, 20)" stroke-opacity="0.47156706" stroke-linecap="round" stroke-linejoin="round"/>
    <path d="M 163.81011963 355.16265869 C 163.52389526 358.82757568 162.73210144 362.22177124 161.02214050 364.89303589 C 158.77748108 367.03216553 156.22769165 368.96621704 152.98956299 369.88479614 C 149.17675781 368.27380371 144.81959534 367.22348022 139.98161316 367.36016846 C 134.99032593 368.21707153 130.30249023 369.33013916 126.23604584 370.73687744 C 122.93420410 372.45315552 120.97182465 374.99496460 120.71704102 377.64782715 C 121.93174744 379.67041016 123.15340424 381.21051025 122.76811981 382.66873169 C 120.78996277 384.30056763 119.16828918 385.95346069 118.10692596 386.20901489 C 116.63912964 383.91546631 114.30344391 380.63934326 110.79087830 377.58474731 C 106.75981140 374.07620239 102.70625305 370.25869751 99.09209442 365.95254517 C 95.99751282 361.58386230 92.53218079 358.22000122 88.42893982 356.00894165 C 84.42165375 354.11041260 81.54524231 352.62969971 80.09904480 351.83203125 C 79.98874664 351.64669800 81.19358826 351.46649170 83.14497375 351.48126221 C 85.38304901 351.92153931 87.19764709 351.00146484 88.85168457 349.09063721 C 90.76342773 346.96264648 92.16725159 344.58773804 91.80149841 342.25207520 C 90.51817322 340.14141846 89.97535706 338.28311157 90.51434326 336.26544189 C 92.08661652 334.77145386 94.46439362 334.00372314 97.52613831 334.61199951 C 101.62041473 336.44140625 106.01129150 339.66848755 110.50155640 344.05093384 C 115.43595886 348.72619629 120.80162811 352.77816772 126.60432434 355.71212769 C 132.96073914 357.00717163 139.71409607 356.78659058 146.71517944 355.66937256 C 153.82653809 354.61419678 161.16142273 353.26156616 163.81011963 355.16265869" stroke-width="2.00000000" fill="rgb(238, 239, 227)" opacity="1.0" stroke="rgb(70, 117, 61)" stroke-opacity="0.7504801" stroke-linecap="round" stroke-linejoin="round"/>
    <path d="M 260.41967773 144.54122925 C 258.47369385 148.19248962 256.82958984 151.81224060 255.77262878 155.40359497 C 254.89634705 158.86108398 254.13600159 162.09887695 253.62934875 165.04161072 C 253.47529602 167.52784729 253.10137939 169.47277832 252.27195740 170.88209534 C 251.27848816 171.78343201 250.29417419 171.91990662 249.57563782 171.29971313 C 249.17114258 169.91967773 249.28536987 167.87271118 249.53593445 165.44044495 C 249.24731445 162.79977417 249.88822937 159.83854675 250.73529053 156.52748108 C 251.82000732 153.10731506 253.03170776 149.70249939 254.19348145 146.48936462 C 255.27053833 143.48005676 256.41857910 140.95385742 257.93618774 139.08499146 C 259.93466187 137.98381042 261.42895508 137.03239441 261.66854858 135.14489746 C 261.20446777 132.50134277 259.99615479 129.19470215 258.97613525 125.01783752 C 257.79904175 120.50621033 256.43887329 115.66349792 254.96842957 110.61028290 C 253.06498718 105.97311401 251.88618469 101.16821289 251.39701843 96.22047424 C 250.33064270 92.35069275 250.14085388 88.87068176 250.70974731 85.69773102 C 251.33500671 83.28486633 251.95777893 81.69041443 252.63343811 81.08596039 C 252.78576660 82.05504608 252.99053955 84.04036713 253.52966309 86.50379181 C 253.49848938 89.14681244 254.74792480 91.94130707 255.98315430 95.25016022 C 257.56677246 98.98016357 259.39059448 102.74533844 261.38430786 106.32785797 C 263.23428345 110.18816376 265.33712769 113.60565948 267.31579590 117.02336884 C 268.85949707 120.51778412 270.82580566 123.86965179 272.54895020 127.03538513 C 274.35714722 130.10978699 276.22308350 133.33122253 260.41967773 144.54122925" stroke-width="1.82777905" fill="rgb(19, 6, 12)" opacity="1.0" stroke="rgb(0, 0, 4)" stroke-opacity="0.46555462" stroke-linecap="round" stroke-linejoin="round"/>
    <path d="M 399.90924072 370.03479004 C 397.94812012 369.14291382 396.34365845 368.01446533 395.20550537 366.29800415 C 393.45040894 365.00512695 391.56829834 363.86755371 389.73388672 362.83041382 C 387.67333984 362.13531494 385.89508057 361.57968140 384.04626465 361.84814453 C 381.89865112 362.68078613 379.44055176 363.61944580 376.60055542 364.46237183 C 373.22674561 365.33920288 369.87637329 365.83267212 366.15951538 365.72146606 C 362.23437500 366.43179321 358.16888428 366.52798462 354.31091309 366.51220703 C 350.82632446 366.59243774 347.81121826 365.90487671 344.91009521 364.85198975 C 342.22006226 364.02682495 340.08480835 363.17480469 338.65954590 362.53759766 C 338.32739258 361.19445801 338.81469727 359.57473755 339.96640015 357.82125854 C 341.66683960 356.05102539 343.75173950 354.62179565 346.02383423 353.78973389 C 348.30401611 353.76721191 350.46929932 354.15188599 352.36267090 354.50061035 C 353.76226807 353.93206787 355.46182251 352.61428833 357.38015747 351.16073608 C 359.58767700 349.69686890 362.07135010 348.20858765 364.84567261 347.16494751 C 367.85885620 346.14486694 371.10192871 345.35025024 374.04965210 344.46353149 C 377.19848633 344.28656006 380.15576172 344.27996826 383.07861328 344.18423462 C 386.00512695 344.85784912 388.72866821 346.14004517 391.52062988 347.78149414 C 394.39822388 349.43750000 397.24810791 351.16748047 400.18869019 352.72656250 C 403.05459595 354.45550537 405.73825073 356.38973999 408.14031982 358.68527222 C 410.56723022 361.02154541 412.93084717 363.25680542 414.68185425 366.19750977 C 416.58102417 369.27615356 418.43014526 372.42349243 399.90924072 370.03479004" stroke-width="1.74969518" fill="rgb(24, 10, 11)" opacity="1.0" stroke="rgb(119, 115, 109)" stroke-opacity="0.8888595" stroke-linecap="round" stroke-linejoin="round"/>
    <path d="M 199.50836182 151.36245728 C 195.50834656 153.44334412 191.53845215 155.35049438 187.65148926 156.42164612 C 184.46060181 157.49911499 181.99340820 159.32440186 179.46202087 160.20228577 C 176.58799744 159.39294434 173.66406250 158.45048523 171.97972107 157.68554688 C 172.72244263 156.85176086 174.58494568 155.52655029 176.45803833 153.04837036 C 178.37174988 149.45570374 180.18728638 145.40010071 182.74200439 141.25892639 C 186.17457581 137.61528015 189.54698181 133.63986206 193.01733398 129.91744995 C 196.24740601 126.50708008 199.39535522 124.61585999 202.35586548 124.44222260 C 202.95358276 122.29640961 202.76316833 119.10053253 202.22929382 115.51644135 C 200.28172302 112.33162689 197.59515381 109.27355194 194.90087891 106.04238892 C 191.64376831 103.64511108 188.03497314 101.66973114 184.74858093 99.67120361 C 182.19018555 97.09823608 179.48680115 95.43410492 176.62617493 94.60544586 C 174.13655090 94.19441986 172.57420349 92.99684143 172.02580261 91.64366913 C 172.60055542 91.17340851 174.20104980 91.22238159 176.69073486 91.65865326 C 179.39735413 93.06114197 182.77091980 94.30603027 186.46037292 95.38532257 C 190.16452026 97.07627869 193.73574829 99.44793701 197.29067993 102.09870148 C 200.87243652 104.81597900 204.06660461 107.89001465 206.83078003 111.32592010 C 209.52041626 114.63961792 211.73178101 118.07691193 213.40719604 121.54534912 C 214.66212463 124.72332764 214.69354248 127.98215485 214.56909180 131.43356323 C 213.77160645 134.64947510 212.52864075 137.56118774 210.38618469 140.05357361 C 208.55303955 143.29267883 206.74763489 146.70516968 199.50836182 151.36245728" stroke-width="1.85010207" fill="rgb(70, 27, 16)" opacity="1.0" stroke="rgb(124, 98, 58)" stroke-opacity="0.6222633" stroke-linecap="round" stroke-linejoin="round"/>
    <path d="M 418.52014160 399.31582642 C 418.61862183 400.53247070 418.50811768 401.83068848 418.36569214 403.12442017 C 417.97082520 404.26815796 417.26599121 405.47598267 416.57620239 406.66821289 C 415.84155273 407.81256104 415.37921143 408.85745239 414.65817261 409.38247681 C 413.98187256 409.61160278 413.31939697 409.75424194 412.82604980 409.44128418 C 412.37454224 409.50854492 412.18136597 409.53732300 412.37240601 409.12390137 C 412.65640259 408.64123535 412.26055908 407.70971680 411.60470581 406.37338257 C 411.59121704 405.06848145 411.54425049 403.74389648 411.42483521 402.67913818 C 412.10745239 401.96337891 412.60183716 401.30349731 412.87643433 400.59008789 C 413.60125732 400.53927612 414.29168701 400.35110474 414.56686401 399.47695923 C 415.39962769 398.64089966 416.07980347 397.57632446 418.52014160 399.31582642" stroke-width="1.73620641" fill="rgb(20, 26, 22)" opacity="1.0" stroke="rgb(121, 140, 99)" stroke-opacity="0.6680778" stroke-linecap="round" stroke-linejoin="round"/>
    <path d="M 308.60760498 148.59487915 C 310.80392456 154.45898438 313.45779419 159.97770691 315.59790039 165.60517883 C 317.89801025 170.87236023 319.60598755 175.97796631 320.29461670 180.67330933 C 320.94125366 184.69551086 321.66809082 187.72662354 321.44659424 189.78442383 C 319.77267456 190.58486938 317.58148193 190.50103760 315.73596191 189.81944275 C 314.80142212 188.62582397 315.46316528 187.13757324 316.77294922 185.07362366 C 316.98950195 182.00914001 316.02902222 177.97552490 315.37307739 173.31768799 C 314.34542847 168.38197327 312.51074219 163.43687439 310.33538818 158.42807007 C 308.09133911 153.68742371 305.57467651 149.40834045 303.76321411 145.40328979 C 303.51974487 141.37936401 304.32666016 137.25839233 305.95327759 133.40458679 C 308.74179077 129.84765625 312.33529663 126.83737183 315.91189575 123.96482086 C 318.71594238 120.67916870 319.89715576 116.90640259 319.76156616 112.61155701 C 318.79034424 108.37742615 316.32397461 104.77822113 312.48092651 101.53311920 C 308.84509277 97.82450867 305.57916260 94.78420258 303.09924316 93.10323334 C 303.14987183 92.05999756 304.78225708 91.56880188 306.72125244 91.79798889 C 308.11370850 93.12955475 309.38867188 95.43684387 311.58111572 97.99960327 C 314.62768555 100.99249268 318.27874756 103.91886139 322.40194702 106.40927887 C 325.62316895 109.74128723 328.80950928 112.21736908 331.18060303 114.03163910 C 331.97094727 116.18202972 330.43722534 117.60520935 327.11511230 119.37609863 C 324.06469727 122.82973480 320.06814575 126.80425262 315.58770752 131.39889526 C 311.01574707 136.64469910 305.98785400 141.89393616 308.60760498 148.59487915" stroke-width="1.42045963" fill="rgb(20, 17, 17)" opacity="1.0" stroke="rgb(23, 19, 0)" stroke-opacity="0.4683146" stroke-linecap="round" stroke-linejoin="round"/>
    <path d="M 348.33078003 350.76071167 C 348.05111694 354.53875732 346.85574341 357.63415527 344.45419312 359.86785889 C 341.07019043 361.21051025 337.24343872 362.18814087 333.71960449 363.49935913 C 330.93203735 365.22323608 328.92214966 367.16458130 327.93078613 369.46224976 C 327.57571411 371.73263550 327.97525024 373.74771118 328.71520996 375.72882080 C 330.10552979 377.08407593 331.53549194 378.63195801 333.16452026 380.10021973 C 335.69079590 381.04431152 338.48229980 381.86886597 341.41546631 382.57141113 C 344.17306519 383.01635742 346.58197021 383.44534302 348.38037109 384.49716187 C 349.80413818 385.01159668 350.67294312 385.38381958 350.64862061 385.72396851 C 349.49404907 386.36669922 347.63122559 386.64401245 345.26525879 387.32351685 C 342.58520508 387.84854126 339.66729736 388.43502808 336.52426147 389.17620850 C 333.16616821 389.39193726 329.75122070 389.66143799 326.90447998 389.73422241 C 324.72827148 389.59884644 323.04672241 389.67431641 321.79910278 389.96218872 C 321.09756470 389.75387573 321.04949951 388.93786621 321.21023560 387.39801025 C 321.05203247 385.47552490 321.12924194 383.29711914 321.12994385 380.82037354 C 321.64511108 378.43133545 322.12326050 375.99057007 322.40771484 373.54849243 C 322.22882080 370.93362427 322.63607788 368.17984009 322.90499878 365.40292358 C 323.55230713 362.70413208 323.91787720 360.03314209 324.17745972 357.60385132 C 324.82232666 355.46627808 325.84259033 353.56750488 327.21655273 352.01794434 C 328.97607422 350.93066406 330.98678589 350.03524780 333.15399170 348.98046875 C 335.19458008 347.64944458 337.35363770 346.56918335 348.33078003 350.76071167" stroke-width="1.48242116" fill="rgb(2, 4, 4)" opacity="1.0" stroke="rgb(0, 25, 16)" stroke-opacity="0.5373008" stroke-linecap="round" stroke-linejoin="round"/>
    <path d="M 225.30824280 380.97470093 C 223.88978577 381.37332153 222.62312317 382.10958862 221.05807495 383.02981567 C 219.20324707 383.61499023 217.18434143 384.27041626 214.72288513 385.13049316 C 212.17773438 385.77304077 209.60356140 386.25820923 206.82420349 386.26788330 C 204.12669373 386.81869507 201.58404541 387.44375610 198.91120911 387.65652466 C 196.40190125 388.49533081 193.95535278 389.21435547 191.46083069 389.77740479 C 189.07461548 390.85873413 186.69700623 391.95700073 184.49156189 393.09378052 C 182.06745911 393.91494751 179.60789490 394.77090454 177.25776672 395.34442139 C 175.08406067 395.70492554 173.17788696 396.42669678 171.37039185 396.78332520 C 170.10568237 397.45086670 169.24203491 397.56567383 168.30995178 397.36831665 C 167.29902649 397.43472290 166.58583069 397.28744507 166.37989807 396.95825195 C 166.50328064 396.34790039 167.23509216 395.52969360 168.42218018 394.55496216 C 170.12648010 393.72506714 172.13323975 392.86822510 174.23251343 392.05410767 C 176.05897522 390.90997314 177.69984436 389.27639771 179.62374878 387.83804321 C 181.41001892 386.24508667 183.34924316 384.73016357 185.35905457 383.53094482 C 186.97615051 381.93896484 188.39691162 380.30206299 189.67361450 378.88897705 C 191.19633484 378.21060181 192.72830200 377.82159424 194.52586365 377.87957764 C 196.49099731 377.84487915 198.66786194 378.11267090 200.88081360 378.43701172 C 203.17324829 378.55300903 205.56753540 378.68572998 208.07208252 378.69226074 C 210.12754822 379.12258911 212.22846985 379.76419067 214.45669556 379.84536743 C 216.63998413 380.14059448 218.68727112 380.48574829 225.30824280 380.97470093" stroke-width="1.32285810" fill="rgb(20, 25, 7)" opacity="1.0" stroke="rgb(121, 139, 98)" stroke-opacity="0.8770844" stroke-linecap="round" stroke-linejoin="round"/>
    <path d="M 162.33976746 232.16871643 C 166.23744202 237.16665649 168.54829407 243.13308716 169.14111328 250.44856262 C 168.70094299 258.90890503 167.80024719 268.09698486 167.22982788 277.88168335 C 166.75733948 287.89263916 166.01856995 297.82666016 165.42247009 307.43960571 C 165.45547485 316.52645874 165.21842957 324.38479614 165.38391113 330.61257935 C 166.20802307 334.80767822 166.94108582 336.86520386 166.01481628 336.69781494 C 162.86193848 335.15594482 159.16368103 331.56448364 155.32861328 326.30364990 C 151.68334961 320.09817505 149.31439209 312.43280029 147.73127747 303.75616455 C 146.64027405 294.54196167 146.46952820 284.70489502 145.92375183 275.07971191 C 145.93997192 265.83850098 146.02069092 256.94519043 145.61946106 248.65075684 C 145.33433533 241.33236694 145.28840637 235.31269836 144.20159912 230.92199707 C 140.81092834 228.17530823 136.63157654 226.05613708 133.44113159 223.03112793 C 131.14241028 219.71154785 130.94439697 217.39241028 133.07482910 216.56837463 C 136.06307983 218.23898315 139.70979309 221.53799438 144.02816772 225.52670288 C 148.87469482 228.75173950 154.14476013 230.78659058 159.19474792 231.74569702 C 162.76423645 233.64245605 164.84773254 236.56256104 165.14086914 239.56365967 C 163.70837402 241.71556091 161.15013123 242.79196167 157.97373962 243.18041992 C 154.96781921 244.63316345 153.30528259 247.53610229 153.25718689 251.95260620 C 152.95617676 257.62005615 152.44500732 264.35656738 152.37712097 272.07498169 C 152.29698181 280.41824341 151.56556702 289.07565308 152.47885132 298.07272339 C 154.97488403 307.86782837 158.85183716 317.67877197 162.33976746 232.16871643" stroke-width="1.24846733" fill="rgb(252, 250, 242)" opacity="1.0" stroke="rgb(251, 229, 203)" stroke-opacity="0.671588" stroke-linecap="round" stroke-linejoin="round"/>
    <path d="M 247.80912781 176.19883728 C 250.46463013 176.13166809 252.76152039 175.82882690 254.51365662 174.90621948 C 256.02380371 173.57060242 257.44076538 172.29460144 258.41070557 171.06690979 C 259.05346680 170.35752869 259.55294800 170.46398926 260.01800537 171.41198730 C 260.40887451 172.90998840 260.83151245 174.56961060 261.42471313 176.25662231 C 262.00759888 178.00794983 262.68475342 179.55949402 263.50299072 180.76658630 C 264.33181763 181.73674011 264.86517334 182.59332275 264.84295654 183.34440613 C 264.29046631 183.79389954 263.26947021 183.85195923 261.80026245 183.56095886 C 260.10156250 182.91552734 258.20306396 182.48651123 256.20809937 182.50611877 C 254.03135681 182.52319336 251.73274231 182.52821350 249.37770081 182.54220581 C 247.08316040 182.71324158 244.92634583 182.83068848 247.80912781 176.19883728" stroke-width="2.00000000" fill="rgb(231, 233, 133)" opacity="1.0" stroke="rgb(226, 216, 124)" stroke-opacity="0.47474906" stroke-linecap="round" stroke-linejoin="round"/>
    <path d="M 330.32162476 224.64727783 C 331.43154907 223.88645935 332.58694458 223.31594849 334.05593872 223.20042419 C 335.46701050 222.84559631 336.75006104 221.75021362 338.06604004 220.75679016 C 339.85308838 220.48059082 341.49978638 219.94946289 342.84118652 218.84815979 C 344.51196289 218.30506897 346.07366943 217.49436951 347.61621094 216.63041687 C 349.31781006 216.40638733 351.33093262 216.04093933 353.33172607 215.70971680 C 355.24383545 215.53990173 356.96948242 215.40924072 358.48452759 215.24818420 C 359.71273804 215.46606445 360.67663574 215.39495850 361.28280640 215.30845642 C 361.50054932 215.88706970 361.91223145 216.45584106 362.55368042 216.94500732 C 362.76007080 217.79101562 362.72448730 218.66874695 362.35272217 219.55171204 C 362.39111328 220.43630981 362.43499756 221.24206543 362.23617554 221.36830139 C 361.57562256 221.48176575 360.36953735 221.57246399 358.83612061 221.51948547 C 357.70025635 222.44314575 356.31478882 223.26416016 354.71838379 223.59712219 C 353.03134155 223.43374634 351.49136353 223.59278870 350.16934204 224.39775085 C 348.39791870 224.39796448 346.68609619 224.33683777 345.49755859 224.42259216 C 344.94802856 225.07237244 344.61978149 225.67214966 343.97631836 225.72100830 C 342.62594604 225.55499268 340.73272705 225.65628052 338.95294189 225.68734741 C 337.54928589 226.58129883 336.10867310 226.50192261 334.56930542 226.72888184 C 333.26861572 226.52644348 332.21319580 226.26170349 331.52648926 226.25181580 C 331.33374023 226.86318970 331.44122314 227.95758057 331.12548828 229.06893921 C 330.69506836 229.73561096 330.98010254 230.33343506 330.32162476 224.64727783" stroke-width="2.00000000" fill="rgb(228, 177, 30)" opacity="1.0" stroke="rgb(37, 11, 8)" stroke-opacity="1.0" stroke-linecap="round" stroke-linejoin="round"/>
    <path d="M 309.92941284 200.43217468 C 310.64617920 200.06500244 311.64007568 200.12214661 312.68017578 200.23028564 C 313.60235596 200.07154846 314.52734375 200.02943420 315.52188110 200.32832336 C 316.49023438 200.09082031 317.44873047 200.11990356 318.33743286 200.15173340 C 319.14364624 200.66738892 320.05352783 200.77069092 320.96548462 200.81094360 C 321.66671753 201.53392029 322.57653809 202.26948547 323.68389893 202.61288452 C 324.42895508 203.33326721 325.09848022 204.17922974 325.89392090 204.94845581 C 326.73895264 205.54881287 327.68460083 206.16354370 328.39175415 206.78504944 C 328.67141724 207.72660828 329.16757202 208.40913391 329.44726562 208.98114014 C 329.25173950 209.31579590 328.69119263 209.39358521 328.12832642 209.47425842 C 327.63281250 210.00904846 327.19573975 210.54756165 326.42327881 210.55619812 C 325.54537964 210.30003357 324.66390991 210.59957886 324.20141602 211.30319214 C 322.99148560 211.29531860 321.62219238 211.18562317 320.56759644 211.25175476 C 319.79211426 210.70498657 318.75579834 210.48716736 317.52389526 210.48478699 C 316.28915405 210.29754639 315.28335571 209.75523376 314.31607056 209.13833618 C 313.25115967 208.38792419 312.17211914 207.76666260 310.86813354 207.51304626 C 310.02178955 206.69612122 309.24011230 205.90840149 308.43878174 205.47210693 C 307.66503906 205.54876709 307.04205322 205.31243896 306.70864868 204.69436646 C 306.22808838 204.04216003 305.51123047 203.63594055 304.78591919 203.16450500 C 304.28353882 202.50254822 303.83081055 201.81085205 303.26528931 201.17715454 C 302.57708740 200.68463135 301.98962402 200.63964844 309.92941284 200.43217468" stroke-width="1.32955074" fill="rgb(249, 248, 249)" opacity="1.0" stroke="rgb(119, 122, 149)" stroke-opacity="0.84325516" stroke-linecap="round" stroke-linejoin="round"/>
    <path d="M 261.13369751 205.46437073 C 263.29568481 205.45619202 265.48748779 205.33724976 267.65969849 205.15502930 C 269.71240234 204.98922729 271.83566284 204.77220154 274.04342651 204.67451477 C 276.33010864 204.73768616 278.65356445 204.68298340 281.02523804 204.40493774 C 283.32595825 204.23083496 285.54754639 204.07669067 287.77868652 203.90454102 C 289.97515869 203.93444824 292.09024048 203.96461487 294.08691406 204.03213501 C 295.88201904 204.02505493 297.43524170 204.24459839 298.66220093 204.67117310 C 299.46179199 205.46180725 300.07629395 205.97875977 300.73281860 206.42643738 C 301.32974243 206.67304993 301.64541626 206.93415833 301.57171631 207.18551636 C 301.13714600 207.28533936 300.43753052 207.38940430 299.42614746 207.50477600 C 298.24609375 207.63954163 296.77371216 207.71441650 295.11703491 207.54470825 C 293.32778931 207.65577698 291.42190552 207.69757080 289.37683105 207.66145325 C 287.20462036 207.54223633 284.96682739 207.48497009 282.77490234 207.36981201 C 280.69998169 207.20033264 278.61990356 207.05998230 276.49493408 207.22512817 C 274.34381104 207.34916687 272.18347168 207.31893921 270.01098633 207.19123840 C 267.91183472 207.23751831 265.89315796 207.40385437 263.89651489 207.37951660 C 261.91830444 207.37213135 260.05004883 207.32398987 258.37487793 207.32188416 C 256.84713745 207.36357117 255.41192627 207.39640808 254.10174561 207.47415161 C 253.00198364 207.58541870 252.24981689 207.49369812 251.83406067 207.23759460 C 251.70419312 206.90747070 251.73178101 206.44355774 251.68469238 205.99819946 C 251.43373108 205.65580750 251.08404541 205.45510864 261.13369751 205.46437073" stroke-width="1.11556351" fill="rgb(190, 112, 43)" opacity="1.0" stroke="rgb(101, 46, 25)" stroke-opacity="0.8582051" stroke-linecap="round" stroke-linejoin="round"/>
    <path d="M 112.72839355 325.05746460 C 110.68347931 325.54547119 108.93228149 325.98260498 107.36487579 326.40039062 C 106.11769104 326.33755493 105.32983398 326.08343506 105.12832642 325.18136597 C 105.26952362 323.87106323 105.55562592 322.48071289 106.41066742 320.85034180 C 106.94957733 319.01187134 107.82063293 317.18838501 108.68163300 315.33538818 C 109.47150421 313.59078979 110.64527130 312.05935669 112.13464355 310.90194702 C 113.56420135 310.46817017 114.49012756 309.72189331 115.03965759 308.55004883 C 115.65777588 307.84140015 116.48570251 308.04641724 117.27140045 308.76132202 C 117.46067810 309.72076416 117.61058807 310.96994019 118.10152435 312.35314941 C 118.50628662 313.91442871 119.21670532 315.63284302 119.59255219 317.48870850 C 120.06277466 319.36895752 120.32864380 321.16714478 112.72839355 325.05746460" stroke-width="1.39938462" fill="rgb(7, 16, 9)" opacity="1.0" stroke="rgb(84, 132, 108)" stroke-opacity="0.80341667" stroke-linecap="round" stroke-linejoin="round"/>
    <path d="M 247.88825989 391.52426147 C 245.01925659 391.83120728 242.46231079 391.63674927 240.38331604 391.56378174 C 238.93870544 391.08676147 237.82463074 390.11810303 237.02536011 388.78427124 C 236.06683350 387.43576050 235.43272400 386.27328491 235.28871155 384.96954346 C 235.31193542 383.74203491 234.79122925 382.88552856 234.25343323 382.29977417 C 234.17584229 381.91204834 234.51286316 381.58819580 235.21163940 381.39703369 C 236.15579224 381.33425903 237.24810791 381.62405396 238.55386353 382.15509033 C 240.22517395 382.24227905 241.90249634 382.29421997 243.47558594 381.95053101 C 244.66046143 382.34521484 245.58905029 382.55032349 246.65185547 382.50827026 C 248.08415222 383.09539795 249.72988892 383.72528076 251.51232910 384.22509766 C 253.03062439 385.64215088 254.50491333 387.50942993 247.88825989 391.52426147" stroke-width="1.75405145" fill="rgb(6, 12, 5)" opacity="1.0" stroke="rgb(108, 129, 77)" stroke-opacity="0.8014146" stroke-linecap="round" stroke-linejoin="round"/>
    <path d="M 246.40916443 419.62512207 C 247.54528809 418.48068237 248.22419739 417.22219849 248.84729004 415.95687866 C 249.99957275 415.61114502 251.09332275 415.11206055 252.04827881 414.38040161 C 253.34123230 414.17858887 254.41712952 413.80151367 255.46308899 413.69201660 C 256.38336182 413.90847778 257.22491455 414.28164673 258.04687500 414.84246826 C 258.53900146 415.68362427 259.09515381 416.74884033 259.54196167 417.83145142 C 259.40823364 418.93829346 259.17233276 420.27587891 259.10360718 421.77151489 C 258.68771362 423.04608154 257.88101196 424.09237671 257.08023071 425.25744629 C 255.98455811 426.26177979 254.59138489 426.92700195 253.06417847 427.51666260 C 251.41915894 427.78836060 249.95512390 427.61441040 248.88722229 426.77331543 C 247.45918274 426.59747314 245.97596741 426.68762207 246.40916443 419.62512207" stroke-width="1.63748074" fill="rgb(11, 13, 9)" opacity="1.0" stroke="rgb(120, 128, 116)" stroke-opacity="0.819069" stroke-linecap="round" stroke-linejoin="round"/>
    <path d="M 104.53115082 183.74401855 C 105.39497375 182.63880920 105.87872314 181.49185181 106.49872589 180.48014832 C 107.51561737 180.12648010 108.41380310 179.76705933 108.99332428 179.30836487 C 109.52926636 179.58187866 110.35413361 180.17568970 111.22639465 180.72241211 C 111.95347595 181.85856628 112.63771057 183.07374573 113.58482361 184.28372192 C 114.00242615 185.65702820 114.43179321 187.16123962 114.42246246 188.63780212 C 114.08847809 190.03051758 113.81822968 191.34027100 113.08441925 192.49861145 C 112.53353882 193.68701172 112.00760651 194.82017517 111.22312927 195.56072998 C 110.00749969 195.88600159 108.97263336 196.03575134 107.90510559 195.59657288 C 106.85927582 194.82830811 105.80340576 193.97930908 105.15784454 192.73791504 C 104.50990295 191.93882751 103.81035614 191.15945435 104.53115082 183.74401855" stroke-width="1.75968707" fill="rgb(9, 11, 106)" opacity="1.0" stroke="rgb(82, 127, 187)" stroke-opacity="0.7315364" stroke-linecap="round" stroke-linejoin="round"/>
    <path d="M 92.50766754 278.52279663 C 92.72937012 277.34182739 93.34209442 276.43756104 94.24731445 275.73104858 C 95.17987061 275.53378296 96.14685822 275.71423340 97.07494354 276.09591675 C 97.72898865 276.65136719 98.27484131 277.48983765 98.63182831 278.48339844 C 98.81529999 279.75204468 99.14177704 281.12936401 99.88977814 282.44372559 C 100.34349823 283.76138306 100.25201416 285.15219116 100.22850037 286.67156982 C 100.00533295 287.92401123 99.74368286 288.87884521 99.74887085 289.72222900 C 99.48145294 290.35238647 99.07234955 290.49588013 98.39369202 290.15966797 C 97.56121826 289.54745483 96.48985291 288.99368286 95.22353363 288.33001709 C 93.73802185 288.01574707 92.21212006 287.17504883 90.96416473 285.82858276 C 89.64572144 284.14517212 88.34063721 282.18078613 92.50766754 278.52279663" stroke-width="1.50354612" fill="rgb(4, 73, 55)" opacity="1.0" stroke="rgb(76, 157, 139)" stroke-opacity="0.7716321" stroke-linecap="round" stroke-linejoin="round"/>
    <path d="M 119.19110107 368.81698608 C 113.92537689 368.11755371 109.19412231 368.52450562 105.83705902 370.19421387 C 104.19782257 372.29309082 102.51558685 371.83486938 100.30985260 369.06118774 C 97.04328156 366.31024170 94.70117188 362.68847656 92.70621490 359.14199829 C 90.40002441 356.82809448 87.70422363 355.38903809 85.17434692 354.32284546 C 83.20397949 353.32064819 82.17120361 352.55718994 82.18223572 352.16107178 C 83.18231964 352.45141602 84.90713501 352.35592651 86.84885406 351.28707886 C 89.16931915 349.05780029 91.45690155 346.31887817 93.05632019 343.06436157 C 94.32550812 339.71762085 94.86342621 337.10391235 95.75722504 335.71459961 C 98.14228058 336.49188232 102.17607880 337.66146851 107.19252777 338.12475586 C 112.54843903 340.48822021 117.67898560 343.83541870 122.56385803 347.29150391 C 127.16783142 349.46038818 129.83250427 352.74240112 130.80171204 356.38626099 C 129.54702759 359.57693481 129.73501587 361.99444580 132.56288147 363.61627197 C 137.16275024 363.84054565 143.38323975 363.29434204 150.60778809 362.45486450 C 157.99540710 360.55435181 165.18461609 358.10375977 172.06033325 357.26062012 C 177.17716980 358.51287842 178.94465637 361.80090332 177.36448669 365.97750854 C 173.95780945 368.93609619 167.10273743 369.04696655 157.41067505 368.91714478 C 146.41409302 369.47790527 136.00537109 369.91909790 127.59523773 371.55426025 C 122.50088501 374.61489868 122.70388031 379.74044800 122.70114136 385.57363892 C 117.81315613 388.32214355 113.39627838 385.70816040 112.43946838 380.02792358 C 117.23490906 377.71041870 123.95783997 374.88702393 119.19110107 368.81698608" stroke-width="1.40158331" fill="rgb(17, 8, 6)" opacity="1.0" stroke="rgb(4, 20, 0)" stroke-opacity="0.5379118" stroke-linecap="round" stroke-linejoin="round"/>
    <path d="M 302.17269897 441.95645142 C 303.73602295 441.49960327 305.26702881 441.01388550 306.74038696 440.55819702 C 308.14230347 440.12976074 309.41833496 439.65087891 310.57794189 439.15390015 C 311.57858276 438.75067139 312.43838501 438.41113281 313.14462280 438.21356201 C 313.65856934 438.20321655 313.95248413 438.30706787 314.02215576 438.51043701 C 313.81445312 438.78698730 313.40692139 439.00665283 312.84594727 439.23245239 C 312.09152222 439.36593628 311.28253174 439.51498413 310.45410156 439.72714233 C 309.63973999 440.04003906 308.88906860 440.54885864 308.23336792 441.20321655 C 307.62838745 441.95822144 307.03637695 442.80709839 306.42529297 443.67651367 C 305.76687622 444.52059937 305.05340576 445.34625244 304.27337646 446.13467407 C 303.42898560 446.89144897 302.56579590 447.63830566 302.17269897 441.95645142" stroke-width="2.00000000" fill="rgb(217, 240, 218)" opacity="1.0" stroke="rgb(228, 244, 229)" stroke-opacity="0.924555" stroke-linecap="round" stroke-linejoin="round"/>
  </g>
</svg>
