<?xml version="1.0" ?>
<svg xmlns="http://www.w3.org/2000/svg" version="1.1" width="512" height="512" viewBox="0 0 512 512">
  <defs/>
  <g>
    <path d="M 507.51400757 449.33337402 C 505.60046387 460.52667236 502.74407959 471.52917480 497.96514893 481.92395020 C 490.20709229 490.92565918 479.17895508 498.12088013 464.95166016 502.95285034 C 447.95355225 505.73858643 428.78704834 506.85250854 407.77926636 506.73425293 C 385.18533325 505.70761108 361.47839355 504.28021240 337.13040161 503.52987671 C 312.24655151 503.72860718 287.07217407 503.81451416 261.65682983 503.63232422 C 236.37522888 503.56011963 211.31156921 503.63845825 186.61557007 503.64038086 C 162.24945068 503.52175903 138.40005493 503.43521118 115.28128052 503.66833496 C 93.24991608 504.58154297 72.59457397 505.47528076 53.81633377 505.83233643 C 37.42993927 504.15924072 24.10265350 499.33425903 14.33581543 490.51046753 C 8.16074657 477.49026489 4.76673031 460.86282349 3.50442386 441.44561768 C 3.22137880 419.94363403 3.13642740 397.05041504 3.87599301 373.14437866 C 6.34447384 348.71520996 8.81066513 323.89706421 10.24511147 298.71734619 C 10.54929733 273.42712402 10.48968029 248.27702332 10.13166332 223.25885010 C 8.61577988 198.63092041 6.63787842 174.45832825 4.78746128 150.94084167 C 4.12614679 128.07250977 4.09796381 105.94656372 4.39698982 84.71946716 C 5.62879658 65.03409576 8.40578079 47.50740051 13.39310455 32.53197861 C 20.88133049 20.25606728 30.76173592 11.01986122 43.04636002 5.08325481 C 57.80318069 2.46797633 75.13354492 2.12202668 94.49975586 2.46935368 C 115.38313293 2.28941107 137.28456116 2.26301003 159.92483521 2.40028477 C 182.95285034 1.98779774 206.19326782 2.34678125 229.53567505 3.95665407 C 253.10113525 5.50602722 276.95697021 5.92567396 301.23919678 4.79784346 C 325.83660889 3.41591549 350.32751465 2.48117900 374.57510376 2.27915215 C 398.25857544 2.56478858 420.99752808 2.29714012 442.26385498 2.22480392 C 461.40744019 3.45534968 477.89532471 7.48435163 490.89767456 15.06833172 C 500.14434814 26.46804047 506.09173584 41.52356339 509.19042969 59.70739365 C 509.97030640 80.13533783 509.95080566 102.25642395 509.60906982 125.51803589 C 508.55062866 149.48580933 506.88052368 173.82859802 504.91613770 198.11698914 C 503.06561279 222.25433350 502.30798340 246.14637756 502.57388306 269.77761841 C 503.29690552 292.88327026 504.56994629 315.30731201 506.29794312 337.24539185 C 507.43862915 358.97985840 508.14187622 380.66674805 507.51400757 449.33337402" stroke-width="2.00000000" fill="rgb(250, 252, 244)" opacity="1.0" stroke="rgb(247, 238, 0)" stroke-opacity="0.3487154" stroke-linecap="round" stroke-linejoin="round"/>
    <path d="M 359.57135010 335.58242798 C 355.78823853 340.91870117 351.68209839 345.89758301 346.74813843 350.00964355 C 340.84927368 352.92266846 333.91098022 354.92208862 326.18634033 356.33941650 C 318.00259399 357.53552246 309.46826172 358.53625488 300.74392700 359.38421631 C 291.76739502 360.08459473 282.64956665 360.90960693 273.41967773 361.75497437 C 264.16247559 362.60104370 254.74781799 363.39517212 245.27207947 363.93377686 C 235.60948181 364.12756348 226.12707520 363.93618774 216.67938232 363.55813599 C 207.26792908 363.02633667 197.94824219 362.18572998 188.87133789 361.19229126 C 180.13244629 360.07092285 171.85888672 358.73947144 164.45376587 356.83050537 C 157.85763550 353.97140503 152.40000916 349.82760620 148.11231995 344.11141968 C 144.69772339 336.86196899 140.25476074 329.58618164 135.26716614 322.31228638 C 131.04216003 314.54541016 128.02865601 306.06777954 125.82247162 297.08914185 C 123.94731140 287.88143921 122.80033112 278.20623779 122.67958069 268.27670288 C 122.69950104 258.14398193 122.59936523 247.90058899 122.42857361 237.79399109 C 122.13059235 228.17761230 122.17320251 219.28434753 122.54378510 211.47816467 C 123.24283600 205.05043030 125.28313446 200.24661255 129.05870056 197.12734985 C 134.44631958 195.60705566 140.77223206 194.57171631 147.79995728 193.20135498 C 155.35791016 192.01022339 163.30741882 191.76017761 171.52925110 191.68891907 C 179.95368958 191.18315125 188.41181946 190.58027649 196.88427734 190.28419495 C 205.35296631 190.26629639 213.98301697 190.13171387 222.39479065 189.88748169 C 230.57998657 189.48951721 238.85005188 189.85415649 247.12217712 190.71424866 C 255.47320557 190.87046814 264.02624512 190.78526306 272.86105347 190.73416138 C 282.06835938 190.70144653 291.62347412 190.30694580 301.57232666 189.45893860 C 311.90188599 188.77409363 322.61459351 189.63533020 333.68292236 191.48104858 C 345.13467407 193.12791443 356.23809814 195.55207825 366.42703247 198.46687317 C 375.47137451 201.54052734 382.38549805 204.72186279 386.37985229 207.91407776 C 386.34240723 211.57783508 383.91928101 216.00910950 381.26989746 221.42623901 C 380.88311768 228.35566711 381.96264648 236.39328003 382.82855225 245.43716431 C 382.89950562 255.29515076 382.29953003 265.40658569 380.65927124 275.63220215 C 378.53680420 285.87988281 375.89715576 295.90521240 372.90319824 305.61804199 C 370.52886963 315.49151611 368.37307739 325.27035522 359.57135010 335.58242798" stroke-width="1.42738831" fill="rgb(8, 7, 8)" opacity="1.0" stroke="rgb(101, 81, 104)" stroke-opacity="0.7402786" stroke-linecap="round" stroke-linejoin="round"/>
    <path d="M 350.77560425 326.68145752 C 347.22555542 331.65527344 343.45138550 336.49615479 339.31445312 341.13156128 C 334.90093994 345.45993042 329.96252441 349.42810059 324.49615479 352.95666504 C 318.42218018 355.87765503 311.99542236 358.43658447 305.15463257 360.47164917 C 297.93600464 362.19781494 290.34121704 363.54412842 282.53329468 364.57006836 C 274.49200439 365.42391968 266.33276367 365.92559814 258.12683105 366.23431396 C 250.00329590 366.18423462 241.88746643 365.85232544 233.89140320 364.94293213 C 225.97616577 363.67608643 218.17161560 361.98645020 210.43872070 359.88421631 C 203.02494812 357.15972900 195.67166138 354.01568604 188.60339355 350.43951416 C 181.69026184 346.23904419 174.93272400 341.94223022 168.27981567 337.90032959 C 162.00320435 333.82867432 156.26954651 329.36514282 151.14199829 324.47045898 C 146.47319031 319.29718018 142.81907654 313.31372070 140.18206787 306.32238770 C 137.76141357 298.46316528 135.67201233 289.80484009 134.18377686 280.46057129 C 133.49867249 270.70166016 133.37825012 260.61264038 133.46897888 250.57159424 C 133.58937073 240.83534241 133.48715210 232.14027405 132.83842468 225.11123657 C 131.70381165 220.38134766 131.94816589 218.07984924 134.87020874 217.78421021 C 140.35273743 217.42549133 147.04666138 215.39016724 154.10293579 211.86245728 C 160.95510864 207.65893555 168.07786560 204.47653198 175.84559631 202.79432678 C 183.90148926 201.75245667 192.08631897 200.91419983 200.17878723 200.33801270 C 208.00895691 200.13464355 215.48687744 200.21659851 222.53176880 200.21556091 C 228.96502686 199.96705627 234.67202759 199.97698975 239.42819214 201.69931030 C 243.44512939 205.91934204 247.32260132 211.68066406 251.86660767 217.74862671 C 258.42324829 222.53623962 266.53045654 226.24180603 275.75250244 229.09582520 C 285.65371704 230.88768005 296.04501343 231.73269653 306.43005371 231.75354004 C 316.81088257 230.94522095 327.00024414 229.36875916 336.80981445 227.56988525 C 345.81481934 225.75575256 353.88891602 224.12704468 360.66671753 223.06686401 C 366.11752319 222.92416382 370.05969238 223.86561584 372.25695801 226.23648071 C 372.66510010 230.58691406 372.46585083 236.48313904 372.33444214 243.61450195 C 372.16497803 251.81629944 371.81567383 260.70480347 371.17251587 269.97671509 C 370.07891846 279.24554443 368.27905273 288.17907715 365.58221436 297.04904175 C 362.75051880 305.83816528 359.67401123 314.54238892 350.77560425 326.68145752" stroke-width="2.00000000" fill="rgb(116, 66, 51)" opacity="1.0" stroke="rgb(172, 121, 85)" stroke-opacity="0.93209815" stroke-linecap="round" stroke-linejoin="round"/>
    <path d="M 321.91284180 231.24774170 C 316.11904907 232.43006897 309.68893433 233.17810059 302.38577271 233.67910767 C 294.07379150 233.81082153 284.83468628 233.76878357 274.69665527 233.80618286 C 263.55810547 233.80998230 251.43499756 233.82499695 238.59887695 233.55335999 C 225.27783203 232.62658691 211.88331604 231.12110901 198.81770325 228.92286682 C 186.59146118 226.61563110 176.09815979 224.21235657 168.32777405 222.30535889 C 164.38282776 222.61445618 163.71908569 225.96005249 165.68974304 230.92184448 C 169.82571411 236.07260132 171.34350586 242.95375061 170.16978455 251.70756531 C 169.46026611 261.47344971 168.95835876 270.46737671 168.08795166 277.10321045 C 165.96029663 279.92846680 163.23924255 278.98010254 160.86199951 274.52239990 C 159.47999573 267.21875000 159.36744690 257.89483643 160.67269897 247.14897156 C 163.47465515 236.11029053 165.63500977 225.84458923 165.58842468 217.61271667 C 166.41174316 212.90061951 169.78140259 212.39234924 175.68835449 214.69578552 C 184.00091553 216.41288757 194.18638611 217.27381897 205.64509583 217.55778503 C 218.27101135 217.95645142 231.43675232 218.92158508 244.83956909 219.78826904 C 258.19503784 218.92756653 271.20007324 218.32260132 283.43865967 218.49925232 C 294.32574463 218.25254822 303.37033081 216.93382263 310.69598389 216.03161621 C 316.27832031 216.91505432 319.94534302 219.51724243 322.03240967 223.21130371 C 323.34503174 226.78306580 325.43695068 228.89710999 328.81283569 229.43997192 C 332.89938354 229.09985352 337.13586426 227.38754272 341.38339233 224.16561890 C 345.71490479 219.94412231 349.80734253 215.23439026 321.91284180 231.24774170" stroke-width="2.00000000" fill="rgb(246, 243, 243)" opacity="1.0" stroke="rgb(61, 57, 63)" stroke-opacity="0.9913008" stroke-linecap="round" stroke-linejoin="round"/>
    <path d="M 369.40939331 323.54339600 C 368.22778320 324.59576416 367.15109253 325.43606567 366.47204590 325.75311279 C 366.13342285 325.16183472 366.22879028 323.80575562 366.68423462 321.53726196 C 367.73434448 318.72378540 369.25646973 315.49774170 371.49420166 312.08404541 C 374.36047363 308.60055542 377.75997925 304.86761475 381.18258667 300.75360107 C 384.58499146 296.29733276 387.49038696 291.33355713 389.30114746 285.57647705 C 390.34274292 279.13101196 391.25305176 272.29208374 391.75524902 265.53024292 C 391.84881592 259.16363525 391.92553711 253.44221497 391.83074951 248.59051514 C 391.44311523 244.92922974 390.32800293 242.66876221 388.35736084 241.54992676 C 385.76086426 241.18206787 383.05249023 240.73825073 380.73632812 239.68458557 C 379.15228271 238.00263977 378.21527100 235.91059875 378.10272217 233.39500427 C 378.81924438 230.77055359 380.48645020 228.28959656 382.79595947 226.03828430 C 385.82940674 224.19963074 389.39337158 223.08291626 393.34881592 222.65829468 C 397.30496216 222.65512085 401.17098999 223.70054626 404.89413452 225.89208984 C 408.55786133 228.87730408 411.77520752 232.80792236 414.42193604 237.75712585 C 416.69842529 243.59722900 418.56494141 250.03457642 420.16275024 256.69073486 C 420.80718994 263.32394409 420.98721313 269.82015991 421.31790161 275.96582031 C 421.65667725 281.59753418 420.80212402 286.77627563 418.74035645 291.59445190 C 416.39154053 296.34304810 413.47052002 300.99902344 409.86312866 305.48220825 C 405.98144531 310.06732178 401.86169434 314.57604980 397.22805786 318.73968506 C 392.10723877 322.70718384 386.95257568 326.88024902 369.40939331 323.54339600" stroke-width="1.51155996" fill="rgb(3, 11, 11)" opacity="1.0" stroke="rgb(21, 30, 0)" stroke-opacity="0.52502364" stroke-linecap="round" stroke-linejoin="round"/>
    <path d="M 380.39419556 312.31588745 C 381.12319946 311.62112427 381.90267944 311.08462524 382.78488159 310.44793701 C 383.87429810 309.72982788 384.98931885 308.80853271 386.27050781 307.62188721 C 387.72137451 305.98309326 389.32455444 304.04370117 391.21820068 301.77780151 C 393.09527588 299.24691772 394.78561401 296.33175659 396.31024170 293.21575928 C 397.85528564 289.87530518 398.95959473 286.16702271 399.41778564 282.27658081 C 399.33181763 278.18106079 399.45019531 273.93170166 399.69894409 269.65988159 C 399.99230957 265.37478638 399.76367188 261.24536133 399.03726196 257.34646606 C 398.06192017 253.73310852 397.09088135 250.55317688 396.00607300 247.75785828 C 394.59548950 245.56565857 392.78689575 244.22257996 390.59100342 243.71153259 C 388.64648438 243.48561096 387.00497437 243.02601624 386.22573853 242.15412903 C 386.48608398 241.02041626 387.76779175 239.91117859 389.55975342 238.72045898 C 391.81137085 237.39453125 394.31454468 236.39241028 396.92575073 236.21887207 C 399.54122925 237.00061035 401.88433838 238.75392151 403.85180664 241.26473999 C 405.22256470 244.32710266 406.07125854 247.85583496 406.60220337 251.80776978 C 407.31509399 255.90483093 407.73059082 260.07199097 407.71865845 264.15576172 C 407.40795898 268.13357544 406.91857910 272.12609863 406.58358765 276.08102417 C 406.53985596 279.93490601 406.17541504 283.42395020 405.32052612 286.78884888 C 404.12335205 289.85876465 402.43945312 292.63671875 400.49853516 295.21014404 C 398.87567139 297.87948608 397.11932373 300.25796509 395.16900635 302.34588623 C 392.89962769 304.04598999 390.56436157 305.67840576 380.39419556 312.31588745" stroke-width="1.66830075" fill="rgb(237, 246, 251)" opacity="1.0" stroke="rgb(156, 214, 255)" stroke-opacity="0.56443006" stroke-linecap="round" stroke-linejoin="round"/>
    <path d="M 201.50921631 151.14080811 C 199.93220520 152.14701843 198.43124390 153.03590393 196.92036438 153.85079956 C 195.57324219 154.40177917 194.49021912 154.66949463 193.46542358 154.78370667 C 192.62864685 154.42338562 192.04661560 153.70170593 191.62704468 152.67022705 C 191.55529785 151.40702820 191.57041931 149.92121887 191.77774048 148.31510925 C 192.18641663 146.56616211 192.74856567 144.94947815 193.38159180 143.33166504 C 194.19454956 141.95005798 194.96943665 140.70567322 195.86198425 139.68179321 C 196.70654297 138.97898865 197.48948669 138.53506470 198.26196289 138.31565857 C 198.87117004 138.41726685 199.43647766 138.61303711 200.01885986 139.06631470 C 200.49220276 139.72917175 200.92214966 140.42390442 201.39729309 141.29110718 C 201.86898804 142.11830139 202.30947876 143.06021118 201.50921631 151.14080811" stroke-width="2.00000000" fill="rgb(143, 0, 58)" opacity="1.0" stroke="rgb(247, 101, 111)" stroke-opacity="0.3993786" stroke-linecap="round" stroke-linejoin="round"/>
    <path d="M 260.59866333 150.30728149 C 259.46270752 152.95986938 258.59844971 155.73291016 258.02560425 158.52873230 C 257.66436768 161.28843689 257.45059204 164.04104614 257.41189575 166.57861328 C 257.52496338 168.99346924 257.48947144 171.18702698 257.18853760 172.98287964 C 256.58447266 174.46035767 255.53565979 175.58283997 254.40365601 176.19778442 C 253.12283325 176.36659241 251.73214722 176.06535339 250.51110840 175.34361267 C 249.49060059 174.27525330 248.74130249 172.76777649 248.32481384 170.90007019 C 248.17634583 168.69993591 248.39529419 166.24081421 248.89717102 163.59295654 C 249.63198853 160.89746094 250.69497681 158.10845947 251.89440918 155.36233521 C 253.20043945 152.55760193 254.72409058 149.89854431 256.19906616 147.38853455 C 257.77282715 144.95295715 259.32760620 142.51049805 260.83325195 140.13247681 C 262.17355347 137.70185852 263.18206787 135.31036377 263.98925781 132.91378784 C 264.39031982 130.55090332 264.60836792 128.41789246 264.64855957 126.27071381 C 264.64846802 124.42676544 264.59075928 122.84436798 264.74270630 121.65303802 C 264.87329102 120.81257629 265.18627930 120.26055908 265.60671997 120.14090729 C 266.24447632 120.41644287 267.08279419 121.13260651 267.90164185 122.20485687 C 269.07766724 123.57928467 270.41458130 125.03748322 271.72607422 126.58389282 C 273.23913574 128.04127502 274.54248047 129.61271667 275.52905273 131.18702698 C 275.99322510 132.94152832 275.88543701 134.64158630 275.03894043 136.37973022 C 273.71041870 138.23016357 271.88449097 140.02661133 269.79962158 141.75357056 C 267.41638184 143.17941284 264.82141113 144.41430664 260.59866333 150.30728149" stroke-width="1.71734631" fill="rgb(183, 32, 24)" opacity="1.0" stroke="rgb(224, 147, 99)" stroke-opacity="0.65436333" stroke-linecap="round" stroke-linejoin="round"/>
    <path d="M 307.83218384 141.12129211 C 308.55352783 144.54866028 309.25018311 147.86047363 309.87493896 151.24584961 C 310.65441895 154.42524719 311.51837158 157.42640686 312.31140137 160.29826355 C 312.89572144 162.87594604 313.35198975 165.19667053 313.52410889 167.21591187 C 313.59118652 168.79722595 313.43463135 169.92790222 313.03372192 170.40875244 C 312.64389038 170.37040710 312.21499634 169.65637207 311.76373291 168.47108459 C 311.22048950 166.96556091 310.62414551 164.97642517 310.10852051 162.77340698 C 309.64981079 160.21990967 309.16613770 157.48265076 308.89755249 154.61773682 C 308.59677124 151.69390869 308.51098633 148.81970215 308.54251099 145.92314148 C 308.64117432 143.01806641 309.06210327 140.27748108 309.88601685 137.50794983 C 310.92776489 134.89492798 312.04553223 132.20672607 313.08190918 129.58633423 C 314.08670044 126.93417358 315.15396118 124.28173828 316.14569092 121.66326141 C 317.00549316 119.09338379 317.66116333 116.69412231 318.14739990 114.30727386 C 318.64813232 112.18742371 319.09765625 110.41671753 319.61965942 108.87394714 C 320.12982178 107.81169128 320.61206055 107.22964478 321.15670776 106.97030640 C 321.66275024 107.19417572 322.11584473 107.81472015 322.40972900 108.84876251 C 322.66680908 110.22244263 322.76541138 111.73728180 322.70547485 113.57805634 C 322.56195068 115.56869507 322.11383057 117.62021637 321.42337036 119.77738953 C 320.49948120 122.03165436 319.29315186 124.25005341 317.97940063 126.47441101 C 316.47937012 128.56291199 314.91122437 130.65989685 313.30773926 132.74188232 C 311.71154785 134.81684875 309.99002075 136.99678040 307.83218384 141.12129211" stroke-width="0.86213171" fill="rgb(232, 150, 226)" opacity="1.0" stroke="rgb(198, 100, 210)" stroke-opacity="0.3980753" stroke-linecap="round" stroke-linejoin="round"/>
    <path d="M 386.98855591 353.02914429 C 376.55517578 353.22647095 366.02368164 353.38925171 355.43191528 353.52575684 C 344.94073486 353.80419922 334.88180542 354.63586426 325.62924194 356.63574219 C 317.25030518 360.51684570 308.90991211 364.78106689 299.76406860 367.56332397 C 289.77886963 369.30419922 279.07376099 370.01141357 267.98233032 369.97479248 C 256.69860840 369.56069946 245.28329468 368.97970581 233.73231506 368.23468018 C 221.77091980 367.50302124 209.56451416 366.10543823 197.32640076 363.84378052 C 185.23922729 361.90853882 173.15704346 360.69934082 161.49745178 359.46768188 C 150.69093323 357.98162842 141.24800110 356.43530273 133.64955139 354.84060669 C 128.23728943 352.86199951 125.19326782 350.83081055 124.60723877 349.25222778 C 126.55335999 348.48330688 130.75378418 348.64624023 136.81730652 348.71353149 C 144.38188171 347.53167725 153.24583435 346.30734253 163.19940186 346.47354126 C 173.99467468 348.38558960 185.00559998 351.51943970 195.90022278 355.01629639 C 206.67741394 357.84945679 217.16625977 359.53549194 227.37901306 360.18774414 C 237.34977722 360.52691650 247.30575562 360.87121582 257.53674316 361.13180542 C 268.28979492 361.19891357 279.63156128 360.72866821 291.38836670 359.50320435 C 303.26983643 357.35891724 315.12594604 354.85186768 326.74380493 353.07223511 C 338.16287231 352.63934326 349.05487061 353.17315674 359.25360107 354.33224487 C 368.62426758 355.72753906 377.28887939 357.23175049 385.36621094 358.92214966 C 393.12075806 360.61639404 400.58618164 362.24896240 407.88061523 363.95126343 C 415.03125000 365.68286133 422.00537109 367.39532471 386.98855591 353.02914429" stroke-width="1.35923004" fill="rgb(2, 3, 7)" opacity="1.0" stroke="rgb(0, 2, 17)" stroke-opacity="0.48771515" stroke-linecap="round" stroke-linejoin="round"/>
    <path d="M 153.82167053 351.32415771 C 160.82820129 353.75946045 167.03802490 357.00949097 172.28936768 360.34951782 C 176.39591980 362.60742188 178.24574280 364.65405273 177.22506714 366.69030762 C 173.75167847 368.17816162 168.48669434 368.87680054 161.94667053 369.21707153 C 154.60371399 369.87237549 147.03784180 370.07919312 139.80296326 369.96591187 C 133.45581055 370.30484009 128.33244324 371.51223755 124.69792175 373.79852295 C 123.09429932 376.90866089 123.06405640 380.37020874 123.29325867 383.61614990 C 122.24841309 386.19018555 120.15689087 387.49743652 117.55684662 387.12512207 C 114.94568634 385.05114746 112.32123566 381.94787598 109.29992676 378.33004761 C 105.68550110 374.57986450 102.07291412 370.34353638 98.57016754 365.81579590 C 94.94719696 361.51596069 90.98529816 358.04141235 86.77829742 355.69232178 C 82.51064301 354.10208130 78.82713318 352.64700317 76.47566986 351.17074585 C 75.90122223 350.06555176 77.00889587 349.81906128 79.10348511 350.26785278 C 81.93267059 350.92590332 84.95180511 350.79974365 87.89390564 349.25241089 C 90.49642181 346.57550049 92.31420898 343.22140503 92.98003387 339.50961304 C 92.55085754 335.89978027 92.49246216 333.35803223 93.87664032 332.49816895 C 97.09565735 333.25048828 101.58988953 335.77719116 106.84947968 339.99658203 C 112.86153412 344.76870728 119.18238831 349.21844482 125.83327484 352.74029541 C 132.67266846 354.97418213 139.00059509 355.68746948 144.58224487 355.17071533 C 148.98504639 354.18447876 151.84078979 352.80587769 152.55046082 350.90069580 C 151.18141174 348.85327148 148.90284729 346.84683228 153.82167053 351.32415771" stroke-width="1.47644734" fill="rgb(102, 101, 91)" opacity="1.0" stroke="rgb(19, 54, 13)" stroke-opacity="0.51752234" stroke-linecap="round" stroke-linejoin="round"/>
    <path d="M 257.67007446 147.90126038 C 256.53979492 152.80186462 255.43553162 157.51782227 254.30601501 161.98281860 C 253.43513489 166.17091370 252.62878418 169.95062256 251.96508789 173.43273926 C 251.37840271 176.42134094 250.87232971 178.90238953 250.53047180 180.64688110 C 250.31622314 181.70506287 250.16516113 182.02844238 250.05851746 181.39123535 C 249.98626709 180.09817505 249.96920776 178.06629944 249.83451843 175.28726196 C 249.52363586 171.95245361 249.32588196 168.11962891 249.51124573 164.06474304 C 250.03672791 159.91406250 251.04322815 155.74998474 252.24424744 151.55345154 C 253.50740051 147.63442993 254.94586182 144.05119324 256.69662476 141.02250671 C 258.99911499 138.80105591 260.91043091 136.93814087 261.66592407 134.76622009 C 261.12557983 131.98805237 259.97860718 128.34617615 258.78286743 124.04764557 C 257.46615601 119.32460022 256.04562378 114.42660522 254.53321838 109.53616333 C 253.01959229 104.67710114 251.86375427 99.76049042 250.97102356 95.20439148 C 250.36109924 91.08970642 250.33804321 87.58207703 250.85609436 84.82555389 C 251.48724365 82.78461456 252.05520630 81.57546997 252.58230591 81.55033112 C 252.94140625 82.86714172 253.26585388 85.29004669 253.69871521 88.48297119 C 254.73855591 92.35553741 256.45452881 96.63708496 258.67449951 101.32758331 C 261.13540649 106.11753082 263.79275513 110.82063293 266.30673218 115.31838989 C 268.62423706 119.53069305 270.64996338 123.34210968 272.21459961 126.64561462 C 273.04260254 129.53785706 273.11965942 131.85554504 272.46365356 133.83360291 C 271.20242310 135.66442871 269.78353882 137.27976990 257.67007446 147.90126038" stroke-width="1.84211850" fill="rgb(21, 7, 14)" opacity="1.0" stroke="rgb(0, 0, 8)" stroke-opacity="0.45077062" stroke-linecap="round" stroke-linejoin="round"/>
    <path d="M 405.11889648 370.49017334 C 402.92120361 370.43319702 400.79605103 370.12561035 398.69445801 369.29904175 C 396.83856201 367.97656250 394.92660522 366.33584595 392.89666748 364.68493652 C 390.75219727 363.25946045 388.47692871 362.17938232 386.09994507 361.69403076 C 383.51217651 361.97988892 380.90380859 362.90481567 378.02743530 363.96990967 C 374.77468872 364.92926025 371.22131348 365.57232666 367.47784424 365.76873779 C 363.60842896 366.10906982 359.63003540 366.47052002 355.84667969 366.52005005 C 352.16476440 366.45343018 348.81393433 366.07260132 345.74026489 365.40106201 C 343.04504395 364.53521729 340.81381226 363.59402466 339.20141602 362.69729614 C 338.34741211 361.73898315 338.31912231 360.61730957 338.86141968 359.29547119 C 340.23779297 358.01364136 342.05816650 356.59121704 344.30294800 355.49795532 C 346.89245605 354.80664062 349.64862061 354.45739746 352.36343384 354.10647583 C 354.75158691 353.13308716 357.01940918 351.53903198 359.37271118 349.95352173 C 361.94189453 348.48809814 364.60977173 347.21945190 367.56924438 346.20071411 C 370.45614624 345.30871582 373.41107178 344.61108398 376.38684082 344.34637451 C 379.38754272 344.18566895 382.32098389 344.26574707 385.16146851 344.76077271 C 387.90130615 345.86584473 390.72079468 347.27557373 393.45883179 348.88095093 C 396.17733765 350.45098877 398.96752930 352.01428223 401.69625854 353.58871460 C 404.22656250 355.32910156 406.62420654 357.22485352 408.80459595 359.36282349 C 411.02465820 361.40036011 413.12631226 363.56469727 414.91342163 366.14373779 C 416.37084961 368.97662354 417.64938354 371.87936401 405.11889648 370.49017334" stroke-width="1.74700475" fill="rgb(20, 12, 8)" opacity="1.0" stroke="rgb(136, 133, 125)" stroke-opacity="0.99544" stroke-linecap="round" stroke-linejoin="round"/>
    <path d="M 201.93920898 150.24365234 C 197.64387512 152.22152710 193.33000183 154.16606140 189.11122131 156.00553894 C 185.34519958 157.69273376 182.00581360 159.16009521 178.92997742 159.84262085 C 176.13854980 159.60476685 174.23782349 158.85371399 173.33560181 157.63322449 C 173.89866638 156.04617310 175.48796082 153.92080688 177.43013000 151.10913086 C 179.16523743 147.49520874 181.25846863 143.65916443 184.00563049 139.89813232 C 187.15156555 136.26615906 190.36604309 132.74897766 193.60278320 129.56625366 C 196.79566956 126.90010834 199.89242554 124.91953278 202.23855591 123.10554504 C 203.05455017 120.72405243 202.89924622 118.01583099 201.93276978 115.02890778 C 200.15072632 111.92095947 197.82267761 108.88410950 194.87355042 106.02822876 C 191.32690430 103.54626465 187.82524109 101.32521057 184.38067627 99.15147400 C 181.21830750 96.95927429 178.33003235 95.20340729 175.73611450 93.92708588 C 173.70222473 93.06745148 172.43771362 92.27584839 172.25367737 91.56967926 C 172.97402954 91.22154999 174.61636353 91.32936859 176.82539368 91.98094940 C 179.67585754 93.04714203 183.16076660 94.14125824 186.91125488 95.47519684 C 190.69662476 97.46524811 194.24462891 99.95595551 197.79541016 102.54616547 C 201.23046875 105.34741974 204.35221863 108.41912079 207.11354065 111.68224335 C 209.59542847 114.93141174 211.79374695 118.18319702 213.42073059 121.50657654 C 214.45304871 124.75932312 214.76679993 128.03468323 214.55827332 131.30935669 C 213.72187805 134.48767090 212.50132751 137.57089233 210.98722839 140.41748047 C 209.24824524 143.26647949 207.46351624 146.16499329 201.93920898 150.24365234" stroke-width="1.84110427" fill="rgb(73, 28, 20)" opacity="1.0" stroke="rgb(113, 83, 42)" stroke-opacity="0.5788966" stroke-linecap="round" stroke-linejoin="round"/>
    <path d="M 418.69796753 399.92663574 C 418.53076172 401.32257080 418.47973633 402.49441528 418.13516235 403.78778076 C 417.64822388 404.96597290 417.01205444 405.98336792 416.34417725 407.02597046 C 415.75198364 408.02212524 415.18536377 408.86166382 414.57980347 409.41403198 C 413.91763306 409.67687988 413.36523438 409.80480957 412.84063721 409.71578979 C 412.55746460 409.26507568 412.37701416 408.66799927 412.14187622 407.89602661 C 411.74371338 407.07717896 411.52511597 406.10690308 411.41238403 405.25701904 C 411.38757324 404.23318481 411.47387695 403.31326294 411.62142944 402.43319702 C 412.01779175 401.75231934 412.66223145 401.16613770 413.36364746 400.56253052 C 414.04803467 399.93533325 414.79681396 399.40982056 415.56652832 398.94235229 C 416.33645630 398.51245117 416.94009399 397.76510620 418.69796753 399.92663574" stroke-width="1.68912101" fill="rgb(22, 30, 23)" opacity="1.0" stroke="rgb(127, 144, 106)" stroke-opacity="0.70166373" stroke-linecap="round" stroke-linejoin="round"/>
    <path d="M 308.42382812 148.29951477 C 310.40841675 153.40016174 312.54266357 158.41551208 314.70886230 163.34742737 C 316.70822144 168.10112000 318.35772705 172.77291870 319.64462280 177.11558533 C 320.42559814 181.13081360 320.99270630 184.61058044 321.18399048 187.39256287 C 320.69989014 189.32055664 319.68688965 190.51448059 318.39450073 190.94963074 C 316.98928833 190.60931396 315.97897339 189.56495667 315.69512939 187.69517517 C 316.23483276 185.23333740 316.69470215 182.05494690 316.31115723 178.29266357 C 315.36532593 173.77522278 313.97964478 168.76902771 312.25894165 163.45469666 C 310.29077148 158.26919556 307.82342529 153.40316772 305.41903687 149.05416870 C 303.74319458 145.09046936 303.52798462 141.10317993 304.34548950 137.26708984 C 305.81857300 133.64280701 308.29559326 130.46984863 311.41940308 127.56023407 C 314.75793457 124.67692566 317.65228271 121.37165833 319.48794556 117.69204712 C 320.12805176 113.83293915 319.32260132 109.89955139 317.01464844 106.21545410 C 313.87670898 102.59704590 310.36502075 99.30940247 307.02951050 96.40311432 C 304.24005127 94.24359131 303.12347412 92.59181213 303.82034302 91.50795746 C 305.64825439 91.52437592 307.94989014 93.36441803 310.48199463 96.68062592 C 313.82308960 100.31548309 318.03744507 103.78577423 322.62347412 107.00646973 C 326.57995605 109.94778442 329.70761108 112.49301910 331.39712524 114.74330902 C 330.92556763 116.75382996 328.66915894 118.61941528 325.48312378 121.09590149 C 322.00503540 124.65858459 318.11816406 128.76138306 314.06323242 132.99465942 C 310.25787354 137.40031433 306.45526123 141.68750000 308.42382812 148.29951477" stroke-width="1.45360470" fill="rgb(20, 16, 17)" opacity="1.0" stroke="rgb(25, 14, 0)" stroke-opacity="0.46617085" stroke-linecap="round" stroke-linejoin="round"/>
    <path d="M 349.48693848 351.33291626 C 347.25216675 354.38903809 344.87826538 357.09686279 342.17794800 359.35412598 C 339.40359497 361.14935303 336.46630859 362.49353027 333.68496704 363.64456177 C 331.37136841 365.02893066 329.56707764 366.82122803 328.30914307 368.73559570 C 327.57150269 370.66174316 327.55947876 372.63793945 328.12753296 374.49279785 C 329.28378296 376.22720337 330.85342407 378.03479004 332.83676147 379.71752930 C 335.24136353 380.81237793 337.85635376 381.65957642 340.67187500 382.31823730 C 343.53405762 382.94805908 346.06823730 383.63433838 348.10958862 384.15972900 C 349.61145020 384.62786865 350.46444702 385.16348267 350.44625854 385.72949219 C 349.57595825 386.14431763 347.84448242 386.68963623 345.56701660 387.32839966 C 342.81436157 387.91293335 339.88128662 388.45965576 336.84500122 389.05361938 C 333.77828979 389.49533081 330.80099487 389.74310303 328.00143433 389.77700806 C 325.55249023 389.76657104 323.44937134 389.80075073 321.89270020 389.82800293 C 320.97982788 389.44897461 320.75146484 388.71649170 320.92941284 387.43945312 C 321.08761597 385.73724365 321.17004395 383.72525024 321.11151123 381.52279663 C 321.43460083 379.28958130 321.89227295 376.83978271 322.21725464 374.48736572 C 322.38760376 372.00115967 322.49227905 369.45910645 322.66830444 366.89248657 C 323.02865601 364.29223633 323.56271362 361.77630615 323.94799805 359.18017578 C 324.31668091 356.75701904 324.97927856 354.56314087 325.95031738 352.80691528 C 327.61511230 351.42434692 329.64559937 350.26168823 331.98321533 349.11767578 C 334.45910645 347.89135742 337.01623535 346.63500977 349.48693848 351.33291626" stroke-width="1.44918227" fill="rgb(1, 5, 8)" opacity="1.0" stroke="rgb(0, 27, 17)" stroke-opacity="0.51744914" stroke-linecap="round" stroke-linejoin="round"/>
    <path d="M 225.23623657 380.85488892 C 223.43325806 381.73840332 221.66175842 382.64843750 219.74914551 383.40338135 C 217.89616394 384.17007446 215.88717651 384.75073242 213.78869629 385.30841064 C 211.66246033 385.80300903 209.42338562 386.15936279 207.16496277 386.30477905 C 204.89738464 386.64813232 202.69094849 386.99145508 200.43969727 387.39431763 C 198.04542542 387.88211060 195.80746460 388.42861938 193.58857727 389.02777100 C 191.32994080 389.79251099 189.08055115 390.69357300 186.88661194 391.88409424 C 184.71588135 392.84118652 182.46972656 393.75418091 180.17846680 394.57543945 C 177.86145020 395.27505493 175.68605042 395.78012085 173.52651978 396.26171875 C 171.64884949 396.86077881 169.89283752 397.39300537 168.39801025 397.51660156 C 167.28323364 397.43753052 166.58747864 397.10394287 166.37696838 396.55831909 C 166.83105469 395.91372681 167.74224854 395.16949463 169.12516785 394.39367676 C 170.93693542 393.55554199 172.96597290 392.71432495 175.15150452 391.49368286 C 177.20707703 389.90478516 179.19004822 388.11999512 181.25624084 386.49093628 C 183.37046814 384.99853516 185.32461548 383.48199463 186.84974670 381.74252319 C 188.23480225 380.22207642 189.68527222 378.90734863 191.26313782 378.18887329 C 193.09207153 377.88562012 195.07186890 377.95880127 197.32661438 378.09036255 C 199.49313354 378.30102539 201.91032410 378.47988892 204.35665894 378.59643555 C 206.81527710 378.62683105 209.19621277 378.91021729 211.53918457 379.43759155 C 213.94776917 379.77935791 216.35688782 380.10958862 218.87089539 380.41152954 C 221.27642822 380.63299561 223.59899902 380.85592651 225.23623657 380.85488892" stroke-width="1.30773020" fill="rgb(22, 24, 7)" opacity="1.0" stroke="rgb(115, 135, 92)" stroke-opacity="0.8313846" stroke-linecap="round" stroke-linejoin="round"/>
    <path d="M 161.12049866 267.44207764 C 164.36412048 272.58331299 166.46441650 277.78402710 166.94056702 283.43911743 C 166.44717407 289.72247314 165.78800964 296.41030884 165.29048157 303.30947876 C 165.05110168 310.11572266 165.00656128 316.59609985 164.96492004 322.56375122 C 165.08088684 327.84878540 165.30644226 332.09109497 165.23930359 334.75286865 C 164.37356567 335.44702148 162.70011902 334.39001465 160.31864929 332.07836914 C 157.55523682 328.85015869 154.74359131 324.72109985 152.30825806 319.63320923 C 150.31840515 314.04470825 148.78952026 308.13262939 147.87609863 302.01428223 C 147.28382874 295.90023804 146.88258362 289.69628906 146.52076721 283.54922485 C 146.12300110 277.19351196 146.07366943 270.58633423 146.23880005 263.86010742 C 146.21966553 256.95639038 146.07351685 250.02014160 145.84718323 243.26620483 C 145.91963196 236.93301392 144.72940063 231.75973511 141.16555786 228.02276611 C 136.65232849 225.00192261 133.50968933 222.16369629 132.98625183 219.75312805 C 135.01629639 219.16459656 138.60261536 221.13871765 143.23263550 225.01818848 C 148.86322021 228.79071045 155.03091431 231.26492310 160.44856262 232.69296265 C 163.80657959 234.55578613 164.57089233 237.04394531 163.04479980 239.80696106 C 159.90109253 242.06546021 156.18840027 244.17538452 153.55653381 247.59002686 C 152.55970764 252.86500549 152.35424805 259.33938599 152.21173096 266.45983887 C 152.08973694 273.79284668 151.85351562 280.79278564 151.72335815 287.40008545 C 151.64126587 293.29382324 152.23513794 298.57437134 153.53556824 303.49496460 C 155.35037231 308.26333618 157.42179871 312.82000732 161.12049866 267.44207764" stroke-width="1.53395391" fill="rgb(255, 255, 242)" opacity="1.0" stroke="rgb(255, 241, 216)" stroke-opacity="0.7123567" stroke-linecap="round" stroke-linejoin="round"/>
    <path d="M 250.53190613 174.49787903 C 252.57411194 174.30102539 254.48376465 173.89970398 256.20669556 173.37113953 C 257.74270630 173.05450439 259.04577637 173.10272217 260.06796265 173.50970459 C 260.94927979 174.38723755 261.71691895 175.58024597 262.37283325 177.10336304 C 263.06723022 178.56382751 263.52563477 179.97428894 263.71289062 181.29397583 C 263.48864746 182.31436157 262.81790161 183.00230408 261.79064941 183.42283630 C 260.31143188 183.47840881 258.65142822 183.54849243 256.85482788 183.43333435 C 254.93742371 183.39143372 253.12716675 183.38536072 251.47064209 183.31272888 C 250.00559998 183.27754211 248.84216309 183.03639221 247.95257568 182.56626892 C 247.28668213 181.82171631 246.75387573 180.87524414 246.31797791 179.65644836 C 246.04879761 178.26522827 245.81721497 176.82061768 250.53190613 174.49787903" stroke-width="2.00000000" fill="rgb(228, 236, 136)" opacity="1.0" stroke="rgb(241, 216, 123)" stroke-opacity="0.4795806" stroke-linecap="round" stroke-linejoin="round"/>
    <path d="M 330.09701538 224.40126038 C 331.73965454 223.91613770 333.32083130 223.43869019 334.85879517 222.76832581 C 336.30142212 222.13748169 337.49057007 221.42784119 338.72357178 220.83825684 C 339.84045410 220.28811646 341.05493164 219.86508179 342.31521606 219.31451416 C 343.42727661 218.56559753 344.61914062 217.87274170 346.01275635 217.24809265 C 347.45922852 216.75184631 348.96176147 216.35850525 350.58825684 216.01649475 C 352.21020508 215.71302795 353.87713623 215.58702087 355.45657349 215.51441956 C 357.02246094 215.40309143 358.51611328 215.33927917 359.86111450 215.39851379 C 360.94351196 215.57008362 361.79864502 216.03340149 362.34796143 216.66038513 C 362.61706543 217.49571228 362.69934082 218.32344055 362.52880859 219.14854431 C 362.34600830 220.03804016 362.04110718 220.75758362 361.50109863 221.28083801 C 360.55343628 221.73524475 359.36849976 222.08230591 358.22937012 222.42150879 C 356.95422363 222.75735474 355.48159790 223.18934631 354.01153564 223.49871826 C 352.58004761 223.77664185 351.07992554 224.09408569 349.56182861 224.32427979 C 348.15496826 224.40773010 346.73806763 224.54556274 345.32360840 224.87098694 C 343.98489380 225.25785828 342.61801147 225.50302124 341.18817139 225.60317993 C 339.68435669 225.58958435 338.26608276 225.84629822 336.98269653 226.18601990 C 335.69018555 226.49287415 334.43414307 226.50163269 333.36932373 226.46884155 C 332.35186768 226.50862122 331.55035400 226.78308105 330.94415283 227.21693420 C 330.58853149 227.57849121 330.38735962 227.86405945 330.35018921 228.18780518 C 330.51284790 228.59385681 330.78744507 228.95767212 330.09701538 224.40126038" stroke-width="2.00000000" fill="rgb(228, 177, 30)" opacity="1.0" stroke="rgb(43, 11, 8)" stroke-opacity="1.0" stroke-linecap="round" stroke-linejoin="round"/>
    <path d="M 307.14358521 200.56791687 C 308.06274414 200.47406006 309.04284668 200.45037842 309.94577026 200.35418701 C 310.93124390 200.22653198 311.89871216 200.15794373 312.90618896 200.15538025 C 313.98843384 200.10099792 315.18908691 200.03044128 316.23681641 200.02095032 C 317.35107422 200.16683960 318.52099609 200.42127991 319.62716675 200.70074463 C 320.70312500 201.04870605 321.72732544 201.54437256 322.73901367 202.19711304 C 323.77709961 202.92912292 324.65286255 203.78720093 325.56173706 204.53997803 C 326.45755005 205.24435425 327.31704712 206.00387573 328.03634644 206.60763550 C 328.48983765 207.20939636 328.91116333 207.79187012 329.18188477 208.35443115 C 329.20391846 208.79612732 329.06713867 209.15426636 328.73736572 209.46865845 C 328.18539429 209.73460388 327.52066040 209.90814209 326.75885010 210.25482178 C 325.87503052 210.49864197 324.98098755 210.78089905 324.06295776 211.12564087 C 323.19421387 211.29463196 322.25183105 211.24177551 321.24176025 211.12452698 C 320.19839478 210.86802673 319.15490723 210.70092773 318.06042480 210.51068115 C 316.95983887 210.12390137 315.85922241 209.75723267 314.74557495 209.33782959 C 313.70230103 208.68193054 312.74050903 208.12664795 311.64547729 207.63554382 C 310.49594116 207.07974243 309.63681030 206.35046387 308.71319580 205.66638184 C 307.74996948 205.10345459 306.80780029 204.62509155 306.08599854 204.13586426 C 305.43676758 203.66192627 304.81527710 203.19665527 304.38851929 202.81353760 C 304.06942749 202.35203552 303.80337524 201.90032959 303.54013062 201.40846252 C 303.30838013 200.97415161 303.10220337 200.58303833 307.14358521 200.56791687" stroke-width="1.35488057" fill="rgb(251, 246, 248)" opacity="1.0" stroke="rgb(121, 125, 149)" stroke-opacity="0.9077181" stroke-linecap="round" stroke-linejoin="round"/>
    <path d="M 262.74548340 205.34455872 C 264.31448364 205.33796692 265.91687012 205.33775330 267.59152222 205.32705688 C 269.17572021 205.10363770 270.84289551 204.92565918 272.52569580 204.73318481 C 274.30377197 204.73797607 276.19015503 204.68225098 278.07458496 204.61015320 C 280.04425049 204.49491882 282.15795898 204.35610962 284.21859741 204.18481445 C 286.35800171 203.98324585 288.50079346 203.91319275 290.77313232 203.89935303 C 292.83367920 203.96946716 294.87689209 204.03941345 296.65512085 204.31492615 C 298.23239136 204.60697937 299.39556885 205.18524170 300.36318970 205.71104431 C 300.92190552 206.29586792 301.20086670 206.81498718 300.98858643 207.13861084 C 300.40216064 207.53775024 299.36035156 207.67288208 298.04333496 207.62850952 C 296.46746826 207.58340454 294.58901978 207.54840088 292.70947266 207.50439453 C 290.68609619 207.53282166 288.74307251 207.55775452 286.75143433 207.59118652 C 284.91769409 207.53022766 282.97821045 207.46595764 281.14059448 207.34039307 C 279.32333374 207.23599243 277.56570435 207.22325134 275.64620972 207.20765686 C 273.78781128 207.25483704 271.81060791 207.25822449 269.74740601 207.34620667 C 267.69793701 207.38214111 265.52435303 207.42010498 263.44647217 207.35391235 C 261.37899780 207.30604553 259.37094116 207.33186340 257.56765747 207.37988281 C 255.91113281 207.42086792 254.58099365 207.46310425 253.42796326 207.51437378 C 252.59243774 207.54753113 251.91893005 207.43415833 251.58229065 207.28810120 C 251.42800903 207.01960754 251.36514282 206.67311096 251.43911743 206.18273926 C 251.50390625 205.66166687 251.63156128 205.13995361 262.74548340 205.34455872" stroke-width="1.01833963" fill="rgb(186, 110, 41)" opacity="1.0" stroke="rgb(101, 47, 23)" stroke-opacity="0.95331246" stroke-linecap="round" stroke-linejoin="round"/>
    <path d="M 112.29972839 325.32006836 C 110.45278931 325.66915894 108.73842621 326.03292847 107.32562256 326.36538696 C 106.16053772 326.40579224 105.41316986 326.02557373 105.08897400 325.30722046 C 105.23439789 324.29440308 105.64816284 322.79614258 106.26763916 321.04330444 C 107.03335571 319.06732178 107.79327393 316.97760010 108.66237640 314.92919922 C 109.74870300 313.16683960 111.08229065 311.70941162 112.58595276 310.47741699 C 114.04662323 309.40408325 115.24621582 308.69281006 116.16238403 308.30267334 C 116.78355408 308.37344360 117.09300995 308.71817017 117.30109406 309.41500854 C 117.49807739 310.41717529 117.83150482 311.74780273 118.20936584 313.14511108 C 118.71188354 314.57247925 119.26077271 316.12866211 119.70366669 317.80187988 C 119.95243073 319.62332153 120.25326538 321.38961792 112.29972839 325.32006836" stroke-width="1.46739244" fill="rgb(8, 15, 9)" opacity="1.0" stroke="rgb(87, 136, 113)" stroke-opacity="0.76919764" stroke-linecap="round" stroke-linejoin="round"/>
    <path d="M 247.96788025 391.63122559 C 246.21380615 391.72106934 244.31729126 391.73181152 242.55816650 391.77795410 C 240.89726257 391.72982788 239.34820557 391.30383301 238.07566833 390.43966675 C 237.01025391 389.28533936 236.17562866 387.83938599 235.56204224 386.27987671 C 235.16606140 384.79937744 234.84815979 383.51965332 234.53729248 382.41519165 C 234.56169128 381.76455688 235.06933594 381.50238037 236.08474731 381.52133179 C 237.39277649 381.55270386 239.02720642 381.61416626 240.87431335 381.79190063 C 242.73268127 382.02572632 244.68296814 382.19555664 246.49337769 382.48254395 C 248.16780090 382.96334839 249.50883484 383.55416870 250.59132385 383.98559570 C 251.53727722 384.35235596 252.30676270 384.77905273 252.74340820 385.64898682 C 253.05780029 386.61471558 253.40658569 387.81527710 247.96788025 391.63122559" stroke-width="1.72324812" fill="rgb(5, 14, 6)" opacity="1.0" stroke="rgb(118, 138, 85)" stroke-opacity="0.79856133" stroke-linecap="round" stroke-linejoin="round"/>
    <path d="M 246.36184692 422.28027344 C 246.20567322 421.18347168 246.40910339 420.09222412 246.94862366 419.02935791 C 247.61425781 417.96737671 248.44631958 416.85586548 249.54751587 415.80224609 C 250.88179016 415.02481079 252.41690063 414.39996338 253.85118103 413.94479370 C 255.21142578 413.89892578 256.56524658 414.06704712 257.69305420 414.55087280 C 258.51229858 415.50695801 259.14620972 416.61663818 259.49987793 417.81631470 C 259.61093140 419.22406006 259.39761353 420.61840820 258.96972656 421.92797852 C 258.49142456 423.14346313 257.75466919 424.36148071 256.77703857 425.40374756 C 255.65687561 426.33761597 254.49827576 427.03790283 253.23103333 427.50241089 C 251.83647156 427.67282104 250.50471497 427.48504639 249.16870117 427.03762817 C 247.78918457 426.66198730 246.30430603 426.28155518 246.36184692 422.28027344" stroke-width="1.68710339" fill="rgb(12, 10, 15)" opacity="1.0" stroke="rgb(113, 124, 111)" stroke-opacity="0.80289847" stroke-linecap="round" stroke-linejoin="round"/>
    <path d="M 104.66527557 183.21061707 C 105.37688446 182.14558411 106.12435913 181.20759583 106.87584686 180.41407776 C 107.71381378 179.85118103 108.59586334 179.54792786 109.60482025 179.70111084 C 110.52735138 180.24952698 111.43787384 181.18421936 112.31701660 182.43855286 C 113.19266510 183.81002808 113.82723999 185.31996155 114.27718353 186.82516479 C 114.47515106 188.31451416 114.23851776 189.75285339 113.72846985 191.22866821 C 113.06066132 192.65298462 112.38734436 194.00357056 111.62670898 195.08036804 C 110.73072052 195.66801453 109.75886536 195.93684387 108.79740906 195.88693237 C 107.88713837 195.64682007 107.06544495 195.16925049 106.35300446 194.48815918 C 105.67885590 193.76811218 105.23255920 192.91110229 104.74488068 191.97219849 C 104.34715271 191.15095520 103.87648773 190.37039185 104.66527557 183.21061707" stroke-width="1.78231502" fill="rgb(2, 10, 111)" opacity="1.0" stroke="rgb(82, 126, 183)" stroke-opacity="0.73735267" stroke-linecap="round" stroke-linejoin="round"/>
    <path d="M 91.75538635 279.08328247 C 92.30687714 278.02734375 93.04213715 277.06582642 93.63096619 276.26519775 C 94.34399414 275.69668579 95.03627014 275.37579346 95.89241791 275.46325684 C 96.70916748 276.02169800 97.56890106 276.83551025 98.26533508 277.93887329 C 98.88926697 279.37625122 99.38819122 281.12011719 99.86605835 282.82540894 C 100.11582184 284.60845947 100.24952698 286.20910645 100.22031403 287.71841431 C 99.98789215 288.96765137 99.58274078 289.86273193 99.11432648 290.27569580 C 98.60647583 290.19058228 97.93589020 289.84796143 97.11676788 289.35668945 C 96.03951263 288.72500610 94.80077362 288.28250122 93.56447601 287.75582886 C 92.34128571 287.19796753 91.42488098 286.28857422 90.51794434 285.16674805 C 89.63345337 283.94433594 88.70326233 282.63592529 91.75538635 279.08328247" stroke-width="1.54818904" fill="rgb(2, 70, 57)" opacity="1.0" stroke="rgb(72, 157, 135)" stroke-opacity="0.7337943" stroke-linecap="round" stroke-linejoin="round"/>
    <path d="M 104.47468567 370.05300903 C 103.73252106 370.66323853 102.87483215 370.78057861 101.77055359 370.38265991 C 100.48719788 369.51303101 99.10341644 368.14953613 97.60916901 366.47409058 C 96.16723633 364.31866455 94.69512939 361.82092285 93.07917023 359.38482666 C 91.16700745 357.44464111 89.12246704 356.01989746 87.37634277 354.88449097 C 86.34235382 353.81707764 86.19883728 352.71704102 87.08156586 351.35894775 C 88.44403839 349.77001953 90.10089874 347.84082031 91.85927582 345.60153198 C 93.57356262 343.29113770 95.18287659 341.05581665 96.84331512 339.13873291 C 98.63726807 337.78329468 100.63642883 337.31826782 102.69482422 337.42987061 C 104.84722900 337.54266357 106.98366547 338.04144287 108.93294525 338.95269775 C 111.06337738 339.93597412 112.97708130 340.99621582 114.94581604 342.16186523 C 116.84413147 343.39288330 118.77005005 344.75091553 120.84279633 346.05114746 C 122.92644501 347.35598755 125.06571198 348.78656006 126.85834503 350.57702637 C 128.26985168 352.69934082 128.93632507 355.11547852 129.09884644 357.77621460 C 129.11981201 360.23693848 129.95672607 362.40457153 131.79588318 363.77032471 C 134.59548950 364.60043335 137.46791077 365.08541870 139.59623718 365.89593506 C 140.38870239 367.06738281 139.65960693 368.30905151 137.60997009 369.14303589 C 134.62599182 369.72335815 131.50311279 370.36248779 128.57191467 371.23840332 C 126.17161560 372.32531738 124.23218536 373.09634399 122.79833984 372.87414551 C 121.69289398 371.66464233 120.58844757 370.01718140 119.32665253 368.43734741 C 117.80816650 367.04684448 116.25154877 365.61895752 104.47468567 370.05300903" stroke-width="1.33640373" fill="rgb(18, 3, 5)" opacity="1.0" stroke="rgb(0, 27, 7)" stroke-opacity="0.5905303" stroke-linecap="round" stroke-linejoin="round"/>
    <path d="M 303.00668335 440.55099487 C 304.44274902 439.92175293 305.83038330 439.31402588 307.28713989 438.84411621 C 308.57318115 438.28701782 309.93270874 437.89825439 311.13076782 437.49307251 C 312.22015381 437.32833862 313.13919067 437.25189209 313.83554077 437.33480835 C 314.40344238 437.55136108 314.73391724 437.90698242 314.80487061 438.32434082 C 314.58627319 438.94323730 314.14627075 439.50857544 313.50509644 440.24353027 C 312.66531372 440.90994263 311.73764038 441.70089722 310.64651489 442.39367676 C 309.63153076 443.17581177 308.50665283 443.85073853 307.42480469 444.56130981 C 306.39410400 445.16387939 305.34091187 445.63781738 304.35827637 446.08416748 C 303.33874512 446.37268066 302.29455566 446.70941162 301.33593750 446.85208130 C 300.34271240 447.15606689 299.41793823 447.37084961 303.00668335 440.55099487" stroke-width="1.89186072" fill="rgb(224, 243, 223)" opacity="1.0" stroke="rgb(215, 247, 231)" stroke-opacity="0.33352795" stroke-linecap="round" stroke-linejoin="round"/>
  </g>
</svg>
