<?xml version="1.0" ?>
<svg xmlns="http://www.w3.org/2000/svg" version="1.1" width="512" height="512" viewBox="0 0 512 512">
  <defs/>
  <g>
    <path d="M 507.55599976 431.35766602 C 507.55282593 454.27957153 506.40802002 471.41625977 501.23516846 483.55520630 C 496.06231689 495.69415283 486.86145020 502.83526611 470.74609375 505.76602173 C 454.63070679 508.69677734 431.60089111 507.41717529 398.77014160 502.71456909 C 373.03860474 503.10705566 351.37322998 503.24694824 330.61968994 503.27926636 C 309.86614990 503.31158447 290.02444458 503.23635864 267.94015503 503.19860840 C 245.85589600 503.16088867 221.52908325 503.16064453 191.80535889 503.34295654 C 162.53028870 502.57424927 137.75068665 503.32855225 116.04102325 504.11468506 C 94.33135986 504.90084839 75.69164276 505.71887207 58.69635010 505.07760620 C 41.70105743 504.43634033 26.35019493 502.33575439 11.21824646 497.28472900 C 9.10831165 479.15832520 8.47652721 459.19628906 8.53604889 437.58050537 C 8.59557247 415.96472168 9.34640121 392.69522095 10.00169563 367.95388794 C 10.65699100 343.21255493 11.21675110 316.99938965 10.89413548 289.49633789 C 10.51977062 263.39447021 10.71090221 241.20896912 10.80502796 220.40119934 C 10.89915466 199.59341431 10.89627647 180.16336060 10.13389111 159.57234192 C 9.37150574 138.98132324 7.84961510 117.22933197 4.90571594 91.77770996 C 4.01305199 65.37976837 6.52541113 45.23583984 12.83839321 30.83150864 C 19.15137672 16.42717552 29.26498222 7.76244402 43.57481003 4.32290077 C 57.88463593 0.88335800 76.39068604 2.66900611 99.48855591 9.16543579 C 125.48995209 9.11191845 146.30068970 8.64663219 165.72906494 8.10641098 C 185.15744019 7.56619120 203.20347595 6.95103598 223.67547607 6.59778214 C 244.14746094 6.24452686 267.04541016 6.15317202 296.17761230 6.66055298 C 326.02557373 7.96077490 351.65280151 7.30104589 374.60873413 6.34853315 C 397.56466675 5.39601994 417.84930420 4.15072298 437.01217651 4.27980900 C 456.17501831 4.40889502 474.21606445 5.91236401 492.68481445 10.45738220 C 501.29214478 27.58002281 505.28469849 46.10219574 506.78497314 66.18303680 C 508.28524780 86.26387024 507.29324341 107.90337372 505.93142700 131.26066589 C 504.56964111 154.61796570 502.83801270 179.69305420 502.85913086 206.64508057 C 502.69348145 230.59654236 503.21151733 250.03967285 503.95874023 269.82168579 C 504.70596313 289.60369873 505.68237305 309.72454834 506.43341064 335.03149414 C 507.18444824 360.33843994 507.71014404 390.83142090 507.55599976 431.35766602" stroke-width="2.00000000" fill="rgb(250, 252, 244)" opacity="1.0" stroke="rgb(245, 238, 0)" stroke-opacity="1.0" stroke-linecap="round" stroke-linejoin="round"/>
    <path d="M 360.13351440 335.91543579 C 355.95852661 341.32128906 351.92739868 345.39077759 346.94262695 348.66537476 C 341.95785522 351.93997192 336.01943970 354.41967773 328.02990723 356.64599609 C 320.04034424 358.87231445 309.99963379 360.84524536 296.81030273 363.10629272 C 286.06225586 363.56735229 277.04000854 363.75567627 268.78036499 363.75613403 C 260.52075195 363.75659180 253.02371216 363.56924438 245.32608032 363.27896118 C 237.62844849 362.98864746 229.73022461 362.59545898 220.66821289 362.18426514 C 208.08982849 361.19024658 198.33198547 360.49911499 190.06916809 359.39620972 C 181.80636597 358.29333496 175.03858948 356.77868652 168.44033813 354.13763428 C 161.84208679 351.49658203 155.41336060 347.72912598 147.82862854 342.12060547 C 140.19512939 330.73773193 135.51919556 323.34967041 132.44764709 317.08786011 C 129.37609863 310.82604980 127.90892792 305.69049072 126.69297791 298.81262207 C 125.47702789 291.93472290 124.51228333 283.31451416 122.44558716 270.08343506 C 122.86982727 261.39025879 122.43042755 251.15252686 122.14358521 241.07620239 C 121.85675049 230.99987793 121.72247314 221.08497620 122.75695801 213.03741455 C 123.79145050 204.98986816 125.99470520 198.80966187 130.38291931 196.20272827 C 140.24949646 194.61419678 147.27833557 193.56300354 153.47044373 192.82504272 C 159.66256714 192.08709717 165.01795959 191.66239929 171.53767395 191.32685852 C 178.05737305 190.99131775 185.74139404 190.74493408 196.59075928 190.36363220 C 207.44587708 190.27070618 215.79150391 190.17541504 223.43267822 190.11381531 C 231.07385254 190.05221558 238.01055908 190.02432251 246.04786682 190.06619263 C 254.08515930 190.10806274 263.22302246 190.21969604 275.26654053 190.43716431 C 284.89285278 190.29254150 293.11392212 190.15092468 301.16989136 190.23364258 C 309.22583008 190.31634521 317.11666870 190.62336731 326.08242798 191.37602234 C 335.04821777 192.12867737 345.08892822 193.32696533 357.44464111 195.19216919 C 369.66235352 198.22406006 376.45809937 200.94773865 380.12374878 204.80352783 C 383.78936768 208.65930176 384.32489014 213.64718628 384.02215576 221.20748901 C 383.71942139 228.76777649 382.57843018 238.90048218 382.89105225 253.04592896 C 382.45867920 257.93447876 381.85922241 264.99694824 380.56103516 273.49911499 C 379.26284790 282.00131226 377.26593018 291.94323730 374.03854370 302.59066772 C 370.81118774 313.23812866 366.35339355 324.59112549 360.13351440 335.91543579" stroke-width="0.66208816" fill="rgb(6, 6, 6)" opacity="1.0" stroke="rgb(48, 17, 58)" stroke-opacity="1.0" stroke-linecap="round" stroke-linejoin="round"/>
    <path d="M 350.18780518 325.63262939 C 345.55963135 331.46182251 341.91921997 335.68121338 338.17776489 339.17303467 C 334.43627930 342.66488647 330.59375000 345.42916870 325.56134033 348.34814453 C 320.52893066 351.26712036 314.30664062 354.34075928 305.80566406 358.45135498 C 296.50848389 362.52926636 287.95001221 364.87756348 279.84939575 366.03527832 C 271.74877930 367.19299316 264.10601807 367.16015625 256.64028931 366.47570801 C 249.17453003 365.79125977 241.88577271 364.45526123 234.49313354 363.00665283 C 224.87236023 360.47058105 216.83073425 358.19863892 209.69985962 355.88220215 C 202.56896973 353.56579590 196.34884644 351.20489502 190.37106323 348.49090576 C 184.39328003 345.77694702 178.65783691 342.70989990 172.49636841 338.98117065 C 162.44444275 331.42544556 155.67974854 325.93957520 150.92462158 320.85153198 C 146.16949463 315.76348877 143.42396545 311.07330322 141.41035461 305.10897827 C 139.39675903 299.14468384 138.11508179 291.90625000 136.28771973 281.72177124 C 136.71002197 273.77795410 136.03009033 266.44418335 135.32679749 259.46072388 C 134.62350464 252.47726440 133.89685059 245.84414673 134.22570801 239.30169678 C 134.55456543 232.75923157 135.93893433 226.30743408 139.45767212 219.68661499 C 152.32695007 213.90625000 159.20816040 210.60377502 163.92047119 208.59965515 C 168.63278198 206.59552002 171.17617798 205.88975525 175.36981201 205.30278015 C 179.56347656 204.71580505 185.40737915 204.24761963 196.72068787 202.71870422 C 206.56468201 201.89674377 214.32952881 201.59313965 221.12997437 201.91906738 C 227.93041992 202.24499512 233.76647949 203.20043945 239.75289917 204.89660645 C 245.73931885 206.59275818 251.87611389 209.02963257 259.27804565 212.31842041 C 268.75296021 213.95286560 277.19528198 215.84024048 285.14990234 217.65251160 C 293.10452271 219.46478271 300.57141113 221.20198059 308.09542847 222.53607178 C 315.61944580 223.87014771 323.20062256 224.80114746 331.38372803 225.00100708 C 340.21731567 224.61573792 348.06835938 223.25233459 354.39895630 222.96527100 C 360.72955322 222.67820740 365.53973389 223.46748352 368.29147339 227.38755798 C 371.04321289 231.30764771 371.73657227 238.35855103 369.83361816 250.59472656 C 369.76849365 258.51052856 369.66085815 265.78570557 368.84732056 273.20144653 C 368.03375244 280.61718750 366.51428223 288.17352295 363.62551880 296.65167236 C 360.73672485 305.12979126 356.47863770 314.52972412 350.18780518 325.63262939" stroke-width="2.00000000" fill="rgb(116, 66, 51)" opacity="1.0" stroke="rgb(169, 121, 87)" stroke-opacity="1.0" stroke-linecap="round" stroke-linejoin="round"/>
    <path d="M 327.54840088 229.98634338 C 321.78359985 231.74716187 314.27490234 232.81147766 304.90594482 233.47370911 C 295.53692627 234.13594055 284.30764771 234.39611816 271.10162354 234.54866028 C 261.18441772 234.75675964 251.42578125 234.82728577 241.06336975 234.17385864 C 230.70094299 233.52044678 219.73474121 232.14306641 207.40234375 229.45536804 C 192.63200378 228.73837280 182.42202759 226.30024719 176.12565613 224.60861206 C 169.82929993 222.91699219 167.44653320 221.97183228 168.33064270 224.24076843 C 168.65563965 234.80126953 169.94454956 244.81614685 170.29113770 255.35566711 C 170.63771057 265.89517212 170.04194641 276.95932007 166.59756470 289.61834717 C 160.99180603 295.09133911 158.68827820 289.80413818 158.23034668 280.73275757 C 157.77243042 271.66137695 159.16009521 258.80581665 160.93673706 249.14212036 C 163.22840881 233.70785522 162.63610840 224.48037720 163.64973450 219.41195679 C 164.66336060 214.34355164 167.28289795 213.43418884 175.99826050 214.63615417 C 192.20489502 216.82635498 201.96492004 217.48466492 211.17384338 217.81681824 C 220.38276672 218.14895630 229.04058838 218.15492249 243.04284668 219.04040527 C 255.16757202 218.09072876 265.75759888 218.41578674 276.04229736 218.38713074 C 286.32702637 218.35847473 296.30639648 217.97610474 307.20986938 215.61160278 C 314.01977539 214.11267090 317.11560059 217.07162476 320.35107422 220.37326050 C 323.58651733 223.67489624 326.96160889 227.31921387 334.32995605 227.19108582 C 343.65823364 219.85470581 347.38378906 217.60609436 346.06680298 218.66528320 C 344.74981689 219.72447205 338.39031982 224.09147644 327.54840088 229.98634338" stroke-width="2.00000000" fill="rgb(238, 239, 239)" opacity="1.0" stroke="rgb(17, 13, 20)" stroke-opacity="1.0" stroke-linecap="round" stroke-linejoin="round"/>
    <path d="M 379.98483276 325.00747681 C 375.43560791 324.18383789 370.32156372 324.32037354 365.78146362 324.22225952 C 361.24139404 324.12414551 357.27526855 323.79138184 355.02197266 322.02914429 C 358.72106934 318.35595703 363.67425537 315.45132446 368.57531738 312.13372803 C 373.47634888 308.81610107 378.32525635 305.08551025 381.81588745 299.76028442 C 386.12091064 293.83862305 388.37542725 288.43786621 389.66296387 282.84121704 C 390.95046997 277.24456787 391.27099609 271.45202637 391.70803833 264.74676514 C 391.75952148 257.94299316 391.78759766 252.09649658 391.24954224 247.61061096 C 390.71148682 243.12472534 389.60733032 239.99945068 387.39431763 238.63821411 C 387.78723145 242.53907776 385.06304932 242.48562622 381.91851807 239.82019043 C 378.77395630 237.15476990 375.20901489 231.87738037 373.92037964 225.33038330 C 375.64105225 222.64497375 377.44244385 222.78009033 379.68463135 223.31771851 C 381.92684937 223.85531616 384.60986328 224.79542542 388.09381104 223.71997070 C 394.80383301 221.41793823 400.92794800 222.95126343 405.79852295 226.57617188 C 410.66912842 230.20109558 414.28619385 235.91760254 415.98211670 241.98194885 C 418.17877197 247.51284790 419.37500000 251.87834167 420.08331299 256.94198608 C 420.79162598 262.00564575 421.01202393 267.76745605 421.25708008 276.09100342 C 421.64337158 280.32495117 420.91061401 285.57257080 418.83331299 290.96374512 C 416.75601196 296.35485840 413.33416748 301.88952637 408.34228516 306.69750977 C 405.16485596 311.30786133 401.10906982 316.10394287 396.33084106 319.63812256 C 391.55264282 323.17233276 386.05200195 325.44464111 379.98483276 325.00747681" stroke-width="0.69026524" fill="rgb(2, 6, 9)" opacity="1.0" stroke="rgb(84, 84, 45)" stroke-opacity="1.0" stroke-linecap="round" stroke-linejoin="round"/>
    <path d="M 387.15313721 308.48306274 C 385.79754639 309.15615845 382.81146240 311.01965332 381.31820679 311.80313110 C 379.82495117 312.58660889 379.82452393 312.29000854 384.44030762 308.64291382 C 387.47573853 305.62561035 389.93103027 303.07186890 392.02072144 300.40063477 C 394.11041260 297.72943115 395.83453369 294.94073486 397.40759277 291.45364380 C 398.11169434 287.24322510 398.71469116 284.23776245 399.08923340 281.11923218 C 399.46380615 278.00067139 399.60986328 274.76904297 399.40008545 270.10635376 C 399.28002930 266.31311035 399.61404419 263.18487549 399.40786743 260.01300049 C 399.20169067 256.84112549 398.45535278 253.62556458 396.17462158 249.65762329 C 395.04376221 246.33840942 392.99270630 244.54649353 390.96231079 243.41854858 C 388.93191528 242.29061890 386.92218018 241.82669067 385.87402344 241.16345215 C 387.21374512 239.75585938 388.61956787 238.73306274 390.44464111 237.94758606 C 392.26971436 237.16212463 394.51403809 236.61398315 397.53063965 236.15570068 C 401.83258057 237.88183594 403.51339722 239.01484680 404.46426392 241.36579895 C 405.41513062 243.71675110 405.63604736 247.28564453 407.01815796 253.88352966 C 407.76922607 258.97869873 407.91842651 262.69497681 407.80010986 266.17568970 C 407.68176270 269.65643311 407.29589844 272.90161133 406.97674561 277.05456543 C 406.54327393 281.05770874 406.03860474 284.18365479 405.05703735 287.17068481 C 404.07546997 290.15774536 402.61703491 293.00588989 400.27603149 296.45346069 C 398.67141724 299.58093262 396.87164307 301.27600098 394.73254395 302.84536743 C 392.59344482 304.41473389 390.11502075 305.85839844 387.15313721 308.48306274" stroke-width="0.78105426" fill="rgb(243, 254, 253)" opacity="1.0" stroke="rgb(113, 196, 255)" stroke-opacity="1.0" stroke-linecap="round" stroke-linejoin="round"/>
    <path d="M 199.62405396 148.81134033 C 199.33029175 150.07817078 198.52278137 152.06811523 197.38517761 153.04087830 C 195.85958862 154.19639587 194.12393188 154.02575684 192.60075378 155.02226257 C 191.00970459 156.00218201 189.56423950 155.55358887 190.44306946 152.81488037 C 190.75335693 151.26295471 191.11730957 149.51574707 191.36825562 147.27085876 C 191.13914490 145.49865723 191.79161072 144.64932251 193.99398804 143.10061646 C 195.85496521 141.78176880 197.23318481 141.57865906 197.06457520 139.59275818 C 197.04238892 137.26208496 196.59034729 135.92216492 198.18995667 135.74475098 C 199.56494141 135.82125854 199.80509949 136.19090271 200.66760254 137.88774109 C 201.64189148 139.12976074 201.58805847 141.18243408 200.82254028 143.05972290 C 200.34109497 145.02038574 199.75889587 146.11155701 199.62405396 148.81134033" stroke-width="0.94688737" fill="rgb(157, 25, 92)" opacity="1.0" stroke="rgb(215, 75, 79)" stroke-opacity="1.0" stroke-linecap="round" stroke-linejoin="round"/>
    <path d="M 261.19284058 150.27322388 C 259.70172119 152.99288940 258.89468384 154.56637573 258.40805054 156.48071289 C 257.92138672 158.39501953 257.75512695 160.65017700 257.54556274 164.73315430 C 257.64636230 167.36331177 257.82278442 169.98962402 257.44152832 172.67489624 C 257.06027222 175.36016846 256.12133789 178.10440063 253.99145508 180.97038269 C 251.38394165 179.91984558 250.36981201 178.18141174 249.78292847 176.08740234 C 249.19604492 173.99337769 249.03637695 171.54376221 248.13777161 169.07086182 C 247.95692444 166.01287842 248.39953613 163.58973694 249.07775879 161.35049438 C 249.75598145 159.11125183 250.66984558 157.05590820 251.43150330 154.73355103 C 253.13674927 151.81054688 254.69917297 149.24417114 256.16467285 147.00080872 C 257.63015747 144.75744629 258.99871826 142.83706665 260.31628418 141.20603943 C 262.78872681 137.33859253 264.23529053 135.68304443 265.08651733 134.30740356 C 265.93771362 132.93177795 266.19354248 131.83605957 266.28454590 129.08830261 C 265.87329102 125.64073944 264.77737427 122.47550964 264.19836426 119.86432648 C 263.61935425 117.25314331 263.55731201 115.19599915 265.21380615 113.96459961 C 265.55926514 115.19856262 265.58761597 117.43629456 266.13088989 119.83146667 C 266.67419434 122.22663879 267.73239136 124.77924347 270.13751221 126.64295959 C 272.47125244 128.69741821 274.45639038 129.98118591 275.36709595 131.47717285 C 276.27780151 132.97317505 276.11407471 134.68136597 274.15014648 137.58470154 C 271.35375977 140.26130676 269.04421997 141.78622437 266.96890259 143.46560669 C 264.89355469 145.14498901 263.05242920 146.97882080 261.19284058 150.27322388" stroke-width="0.77397478" fill="rgb(162, 7, 0)" opacity="1.0" stroke="rgb(229, 108, 49)" stroke-opacity="1.0" stroke-linecap="round" stroke-linejoin="round"/>
    <path d="M 308.77593994 143.25628662 C 308.54278564 145.12030029 308.38958740 147.10018921 308.60919189 149.41799927 C 308.82879639 151.73580933 309.42120361 154.39155579 310.67919922 157.60728455 C 312.00335693 159.94116211 313.43978882 162.37623596 314.37640381 165.03924561 C 315.31298828 167.70225525 315.74981689 170.59321594 315.07476807 173.83886719 C 313.21731567 172.20919800 312.55966187 170.17521667 312.07882690 167.91029358 C 311.59802246 165.64538574 311.29400635 163.14955139 310.14379883 160.59620667 C 308.60235596 156.82087708 307.70986938 155.00196838 307.28768921 153.30740356 C 306.86550903 151.61282349 306.91363525 150.04258728 307.25347900 146.76458740 C 308.70800781 142.99954224 309.57998657 140.07836914 310.39514160 137.54476929 C 311.21032715 135.01115417 311.96865845 132.86511230 313.19589233 130.65031433 C 315.07983398 126.37424469 315.97097778 124.53349304 316.51715088 123.00265503 C 317.06335449 121.47181702 317.26464844 120.25090027 317.76889038 117.21449280 C 317.75366211 113.39585876 317.01986694 110.49946594 316.98623657 108.15471649 C 316.95260620 105.80996704 317.61911011 104.01684570 320.40447998 102.40475464 C 321.28002930 103.98338318 321.32794189 106.17383575 321.53921509 108.53570557 C 321.75048828 110.89758301 322.12512207 113.43087006 323.65411377 115.69517517 C 325.08850098 118.60933685 324.90744019 120.74870300 323.93984985 122.71115112 C 322.97225952 124.67359924 321.21813965 126.45911407 319.50634766 128.66557312 C 317.99697876 130.44168091 315.87380981 132.04660034 313.84826660 134.22888184 C 311.82269287 136.41114807 309.89477539 139.17077637 308.77593994 143.25628662" stroke-width="0.00000000" fill="rgb(98, 58, 81)" opacity="1.0" stroke="rgb(255, 255, 255)" stroke-opacity="1.0" stroke-linecap="round" stroke-linejoin="round"/>
    <path d="M 390.09445190 360.21722412 C 377.69519043 359.06845093 368.09191895 356.94372559 358.04574585 355.76800537 C 347.99957275 354.59234619 337.51055908 354.36569214 323.33984375 357.01312256 C 316.47280884 361.70477295 309.23114014 365.36761475 300.00909424 367.56665039 C 290.78704834 369.76568604 279.58462524 370.50091553 264.79602051 369.33721924 C 254.14149475 369.51605225 243.98399353 369.26446533 233.33491516 368.49993896 C 222.68585205 367.73538208 211.54519653 366.45788574 198.92439270 364.58480835 C 184.98095703 361.57037354 174.22352600 360.65588379 164.83850098 360.96710205 C 155.45349121 361.27835083 147.44087219 362.81530762 138.98706055 364.70385742 C 121.95048523 362.67010498 115.10100555 358.16320801 115.37043762 354.39166260 C 115.63986206 350.62014771 123.02819824 347.58398438 134.46725464 348.49179077 C 153.91325378 348.66775513 163.63868713 349.22497559 170.69544983 350.01382446 C 177.75219727 350.80264282 182.14028931 351.82305908 190.91156006 352.92535400 C 203.40783691 356.98498535 214.61085510 358.78216553 225.20994568 359.60528564 C 235.80902100 360.42840576 245.80416870 360.27743530 255.88468933 360.44073486 C 272.45050049 360.83447266 283.18081665 360.80474854 292.82131958 359.55523682 C 302.46182251 358.30569458 311.01251221 355.83636475 323.21917725 351.35079956 C 335.33978271 351.22296143 345.81231689 351.36145020 356.13128662 352.12609863 C 366.45022583 352.89077759 376.61560059 354.28167725 388.12188721 356.65863037 C 402.26666260 360.99389648 410.84011841 364.36972046 411.83721924 365.41864014 C 412.83432007 366.46759033 406.25506592 365.18960571 390.09445190 360.21722412" stroke-width="0.50473994" fill="rgb(1, 5, 4)" opacity="1.0" stroke="rgb(4, 11, 36)" stroke-opacity="1.0" stroke-linecap="round" stroke-linejoin="round"/>
    <path d="M 156.61216736 351.48239136 C 158.81710815 353.40240479 165.67732239 355.98388672 170.48063660 358.64764404 C 175.28393555 361.31140137 178.03033447 364.05749512 172.00761414 366.30679321 C 165.18022156 367.65713501 159.60661316 367.70373535 154.21682739 367.59127808 C 148.82705688 367.47882080 143.62109375 367.20730591 137.52900696 367.92138672 C 130.64816284 368.91256714 125.97502136 370.68249512 123.38233185 373.19192505 C 120.78964996 375.70132446 120.27742004 378.95019531 121.71838379 382.89926147 C 120.67363739 385.65744019 119.07616425 385.82968140 116.98738861 384.25762939 C 114.89860535 382.68557739 112.31852722 379.36920166 109.30856323 375.15014648 C 104.65393066 371.46365356 101.87690735 367.61077881 99.24816895 364.02078247 C 96.61943054 360.43078613 94.13896942 357.10369873 90.07745361 354.46871948 C 84.31762695 352.86810303 78.91151428 350.97204590 75.59515381 349.74783325 C 72.27878571 348.52362061 71.05216980 347.97125244 73.65133667 349.05804443 C 78.76403046 350.77502441 82.64837646 352.43200684 85.89314270 352.10327148 C 89.13790894 351.77453613 91.74310303 349.46008301 94.29748535 343.23419189 C 95.80124664 336.88446045 97.00731659 334.67788696 99.10171509 335.81909180 C 101.19612122 336.96032715 104.17884827 341.44927979 109.23593140 348.49060059 C 112.71765137 352.26080322 116.93405151 355.35449219 121.85268402 356.65509033 C 126.77131653 357.95565796 132.39218140 357.46316528 138.68283081 354.06103516 C 144.22674561 350.45010376 146.53607178 348.31341553 148.54591370 347.82550049 C 150.55575562 347.33755493 152.26614380 348.49835205 156.61216736 351.48239136" stroke-width="1.36633563" fill="rgb(104, 104, 96)" opacity="1.0" stroke="rgb(5, 29, 0)" stroke-opacity="1.0" stroke-linecap="round" stroke-linejoin="round"/>
    <path d="M 258.79962158 147.69313049 C 256.74185181 153.00296021 255.33387756 156.22857666 254.35906982 159.74955750 C 253.38424683 163.27053833 252.84259033 167.08691406 252.51744080 173.57824707 C 253.24127197 180.19725037 253.00721741 182.21614075 251.80276489 182.92910767 C 250.59832764 183.64205933 248.42350769 183.04910278 245.26580811 184.44436646 C 244.03799438 184.89074707 244.93014526 182.70761108 246.29158020 179.17204285 C 247.65299988 175.63648987 249.48371887 170.74851990 250.13305664 165.78524780 C 250.27171326 161.20617676 250.74354553 156.27632141 251.91145325 151.67163086 C 253.07937622 147.06692505 254.94335938 142.78741455 257.86630249 139.50904846 C 261.49789429 138.10084534 262.00701904 136.12986755 261.28851318 133.06030273 C 260.56994629 129.99075317 258.62374878 125.82261658 257.34463501 120.02011108 C 255.41055298 113.71707916 254.50787354 110.70492554 253.86032104 108.47605896 C 253.21276855 106.24719238 252.82037354 104.80161285 251.90686035 101.63171387 C 251.33410645 97.45227051 250.35581970 92.92405701 250.17942810 88.97057343 C 250.00305176 85.01708984 250.62857056 81.63835144 253.26341248 79.75785828 C 253.48760986 83.06703949 253.64756775 86.34124756 254.48222351 89.95456696 C 255.31686401 93.56788635 256.82620239 97.52030182 259.74917603 102.18589783 C 260.74749756 106.18903351 263.08734131 110.35541534 265.57577515 114.37537384 C 268.06423950 118.39533234 270.70129395 122.26886749 272.29406738 125.68630981 C 274.38568115 131.05541992 272.53646851 134.12930298 269.40216064 137.07482910 C 266.26785278 140.02033997 261.84844971 142.83749390 258.79962158 147.69313049" stroke-width="0.94844669" fill="rgb(16, 5, 6)" opacity="1.0" stroke="rgb(0, 19, 30)" stroke-opacity="1.0" stroke-linecap="round" stroke-linejoin="round"/>
    <path d="M 409.74478149 370.98391724 C 406.46356201 371.47613525 403.69949341 371.20281982 401.04440308 370.16744995 C 398.38934326 369.13208008 395.84326172 367.33471680 392.99813843 364.77874756 C 391.12774658 363.13665771 388.84671021 362.12002563 386.18545532 361.96295166 C 383.52420044 361.80590820 380.48272705 362.50842285 377.09149170 364.30459595 C 372.59124756 365.55615234 369.92443848 366.04595947 367.34277344 366.24450684 C 364.76110840 366.44305420 362.26452637 366.35034180 358.10467529 366.43688965 C 354.59197998 366.63778687 350.94323730 366.35089111 347.52450562 365.69039917 C 344.10574341 365.02990723 340.91699219 363.99578857 338.32424927 362.70217896 C 334.92559814 359.68170166 334.58776855 357.75756836 336.20974731 356.55117798 C 337.83175659 355.34475708 341.41360474 354.85601807 345.85433960 354.70626831 C 349.03051758 354.03857422 351.44778442 353.97207642 353.54199219 353.52435303 C 355.63623047 353.07659912 357.40737915 352.24768066 359.29132080 350.05514526 C 362.65637207 347.63909912 365.35137939 346.52481079 368.05853271 345.85748291 C 370.76565552 345.19012451 373.48492432 344.96972656 376.89846802 344.34149170 C 381.42941284 343.86499023 384.08773804 344.15350342 386.34927368 344.95443726 C 388.61077881 345.75540161 390.47546387 347.06884766 393.41915894 348.64224243 C 396.04351807 350.03778076 398.83248901 351.69830322 401.52050781 353.51153564 C 404.20852661 355.32479858 406.79556274 357.29077148 409.01605225 359.29727173 C 411.93481445 362.00048828 414.76159668 365.07608032 415.53637695 367.39889526 C 416.31115723 369.72171021 415.03393555 371.29174805 409.74478149 370.98391724" stroke-width="0.83780372" fill="rgb(19, 10, 6)" opacity="1.0" stroke="rgb(109, 106, 96)" stroke-opacity="1.0" stroke-linecap="round" stroke-linejoin="round"/>
    <path d="M 202.38563538 150.38893127 C 199.66740417 151.82328796 196.70065308 152.84259033 193.66023254 153.94155884 C 190.61979675 155.04055786 187.50567627 156.21922302 184.49270630 157.97233582 C 179.35000610 160.35861206 176.04455566 160.71075439 174.96998596 159.09510803 C 173.89541626 157.47946167 175.05172729 153.89602661 178.83259583 148.41114807 C 181.44515991 143.27291870 183.80685425 140.09921265 186.18989563 137.36167908 C 188.57292175 134.62414551 190.97727966 132.32276917 193.67518616 128.92922974 C 198.09036255 125.79551697 200.74938965 124.46427155 202.04785156 123.06348419 C 203.34631348 121.66268921 203.28421021 120.19235992 202.25712585 116.78047180 C 200.44932556 111.59376526 197.68597412 108.46569824 194.42425537 105.94740295 C 191.16252136 103.42910767 187.40240479 101.52058411 183.60105896 98.77297974 C 179.33697510 95.97164917 177.64416504 95.09381104 176.50827026 94.59799957 C 175.37237549 94.10218811 174.79338074 93.98840332 172.75695801 92.71517944 C 171.97116089 90.62590790 174.17607117 90.91268921 177.47067261 92.03619385 C 180.76525879 93.15969849 185.14956665 95.11992645 188.72253418 96.37754822 C 193.19519043 98.90309906 195.97419739 100.66040802 198.35896301 102.63894653 C 200.74371338 104.61747742 202.73422241 106.81723785 205.62986755 110.22769165 C 209.31903076 114.32093811 211.79713440 117.61664581 213.24734497 120.88317108 C 214.69754028 124.14968872 215.11984253 127.38703156 214.69744873 131.36354065 C 212.72421265 136.14096069 211.45223999 139.46726990 209.77058411 142.31423950 C 208.08892822 145.16119385 205.99758911 147.52883911 202.38563538 150.38893127" stroke-width="0.93298775" fill="rgb(66, 21, 16)" opacity="1.0" stroke="rgb(98, 58, 0)" stroke-opacity="1.0" stroke-linecap="round" stroke-linejoin="round"/>
    <path d="M 418.58868408 400.58486938 C 418.65640259 401.35095215 418.57559204 401.77099609 418.33383179 403.13659668 C 418.02154541 404.06396484 417.76113892 404.87319946 417.02450562 405.73086548 C 416.47851562 406.39208984 415.95999146 407.11663818 415.22393799 407.99411011 C 414.59948730 408.72119141 414.07470703 409.66839600 412.95898438 409.77938843 C 412.24542236 408.88848877 412.32711792 408.62997437 412.21920776 407.06552124 C 411.97848511 405.67874146 411.94467163 405.95135498 411.68511963 404.59683228 C 411.50100708 403.42944336 411.13632202 402.89642334 412.09255981 402.18511963 C 413.16888428 401.28118896 413.26535034 401.02551270 414.35873413 400.02023315 C 415.40802002 399.31274414 415.20272827 398.97677612 416.65451050 398.49942017 C 418.16497803 398.60910034 418.21875000 398.73492432 418.58868408 400.58486938" stroke-width="0.86139888" fill="rgb(5, 16, 19)" opacity="1.0" stroke="rgb(96, 119, 60)" stroke-opacity="1.0" stroke-linecap="round" stroke-linejoin="round"/>
    <path d="M 309.07879639 149.03813171 C 310.71929932 153.72140503 312.32818604 157.04733276 313.90475464 160.53472900 C 315.48129272 164.02210999 317.02551270 167.67094421 318.53665161 173.00000000 C 320.59832764 178.49974060 321.77606201 183.54534912 321.88809204 187.89544678 C 322.00009155 192.24554443 321.04638672 195.90011597 318.84515381 198.61776733 C 315.09814453 196.18977356 314.80822754 192.86471558 315.21124268 189.12292480 C 315.61425781 185.38110352 316.71026611 181.22254944 315.73501587 177.12753296 C 315.47351074 170.70864868 314.92205811 166.70153809 313.62725830 163.24272156 C 312.33242798 159.78392029 310.29425049 156.87342834 307.05929565 152.64776611 C 303.52172852 146.99938965 302.64294434 143.15301514 303.55184937 139.58554077 C 304.46075439 136.01806641 307.15737915 132.72949219 310.77059937 128.19667053 C 314.85519409 122.95646667 318.25924683 120.43865967 320.14428711 118.30339813 C 322.02932739 116.16812897 322.39538574 114.41539764 320.40399170 110.70533752 C 316.38427734 105.34104156 311.35809326 101.02359009 307.94323730 97.65245819 C 304.52838135 94.28132629 302.72485352 91.85652161 305.15051270 90.27752686 C 306.69793701 91.51815033 308.78201294 94.44033051 311.50259399 97.61242676 C 314.22320557 100.78453064 317.58032227 104.20655060 321.67376709 106.44685364 C 327.65188599 109.04799652 330.94445801 111.66218567 331.16690063 114.47483826 C 331.38931274 117.28748322 328.54156494 120.29859161 322.23907471 123.69357300 C 318.09722900 128.07846069 314.06753540 131.27331543 311.44314575 134.94258118 C 308.81872559 138.61186218 307.59960938 142.75555420 309.07879639 149.03813171" stroke-width="0.87802416" fill="rgb(12, 7, 8)" opacity="1.0" stroke="rgb(5, 0, 0)" stroke-opacity="1.0" stroke-linecap="round" stroke-linejoin="round"/>
    <path d="M 337.64572144 351.52316284 C 339.29907227 353.21838379 340.31936646 354.82775879 340.22460938 356.57485962 C 340.12982178 358.32196045 338.92004395 360.20681763 336.11325073 362.45306396 C 333.67520142 363.99774170 331.30181885 365.64807129 329.73620605 367.62612915 C 328.17056274 369.60418701 327.41265869 371.90997314 328.20550537 374.76550293 C 329.48834229 377.12469482 331.30926514 378.64471436 333.42590332 379.73504639 C 335.54254150 380.82537842 337.95486450 381.48599243 340.42053223 382.12628174 C 342.89303589 383.37524414 345.64471436 383.48587036 347.52368164 383.77276611 C 349.40264893 384.05969238 350.40887451 384.52294922 349.39050293 386.47717285 C 347.70220947 386.89056396 346.10363770 387.14190674 344.04461670 387.57644653 C 341.98562622 388.01095581 339.46618652 388.62860107 335.93624878 389.77453613 C 333.41754150 389.65454102 331.33819580 389.57946777 329.40304565 389.65628052 C 327.46792603 389.73309326 325.67700195 389.96173096 323.73510742 390.44915771 C 320.97561646 388.81109619 320.34826660 387.88494873 320.43527222 386.40618896 C 320.52230835 384.92742920 321.32369995 382.89605713 321.42172241 379.04748535 C 321.50354004 376.24700928 321.90493774 374.58645630 322.23815918 373.07336426 C 322.57135010 371.56030273 322.83636475 370.19473267 322.64529419 367.98422241 C 323.03588867 364.05621338 323.32571411 362.34710693 324.02154541 360.72555542 C 324.71734619 359.10397339 325.81915283 357.56994629 327.83361816 353.99197388 C 328.66864014 351.50485229 330.18600464 349.55163574 331.96243286 348.88821411 C 333.73886108 348.22479248 335.77438354 348.85113525 337.64572144 351.52316284" stroke-width="0.65344483" fill="rgb(1, 6, 4)" opacity="1.0" stroke="rgb(0, 24, 12)" stroke-opacity="1.0" stroke-linecap="round" stroke-linejoin="round"/>
    <path d="M 225.59045410 380.14672852 C 225.14344788 381.47692871 223.23658752 382.61486816 220.95443726 383.53173828 C 218.67230225 384.44857788 216.01486206 385.14440918 214.06674194 385.59039307 C 211.29736328 386.21875000 209.14318848 386.50115967 207.03739929 386.77484131 C 204.93161011 387.04852295 202.87420654 387.31341553 200.29840088 387.90673828 C 197.66241455 388.09484863 195.65074158 388.56307983 193.72215271 389.27932739 C 191.79356384 389.99557495 189.94805908 390.95983887 187.64442444 392.14004517 C 184.78558350 393.29187012 182.64280701 394.10748291 180.84367371 394.70248413 C 179.04455566 395.29751587 177.58908081 395.67193604 176.10481262 395.94131470 C 174.84481812 396.03906250 171.98855591 396.93676758 169.57658386 397.35931396 C 167.16461182 397.78186035 165.19692993 397.72930908 165.71408081 395.92663574 C 168.48300171 394.17022705 169.97013855 393.70343018 171.33383179 393.21798706 C 172.69754028 392.73254395 173.93778992 392.22842407 176.21293640 390.39733887 C 178.69055176 388.43734741 179.93367004 387.29467773 181.26873779 386.06777954 C 182.60379028 384.84088135 184.03079224 383.52978516 186.87619019 381.23294067 C 188.55447388 379.25476074 190.07658386 378.26037598 191.91363525 377.86932373 C 193.75067139 377.47827148 195.90264893 377.69049072 198.84062195 378.12542725 C 200.64636230 378.05816650 202.54791260 378.09448242 204.74591064 378.26019287 C 206.94390869 378.42587280 209.43835449 378.72100830 212.42993164 379.17138672 C 213.99755859 379.30389404 216.19682312 379.71340942 218.54962158 380.00695801 C 220.90240479 380.30050659 223.40872192 380.47808838 225.59045410 380.14672852" stroke-width="0.47678337" fill="rgb(19, 22, 8)" opacity="1.0" stroke="rgb(112, 144, 64)" stroke-opacity="1.0" stroke-linecap="round" stroke-linejoin="round"/>
    <path d="M 163.67013550 283.82373047 C 167.05133057 279.55517578 167.71748352 278.79257202 167.54844666 281.58499146 C 167.37940979 284.37741089 166.37518311 290.72488403 166.41564941 300.67654419 C 165.72583008 306.42620850 165.95867920 312.68041992 166.00466919 318.72201538 C 166.05067444 324.76361084 165.90982056 330.59262085 164.47262573 335.49188232 C 159.60255432 333.53314209 156.86791992 330.21157837 154.86936951 326.14346313 C 152.87080383 322.07537842 151.60833740 317.26074219 149.68257141 312.31597900 C 148.15798950 307.54479980 147.24667358 303.25836182 146.78578186 298.54791260 C 146.32489014 293.83749390 146.31442261 288.70306396 146.59152222 282.23590088 C 145.98814392 275.58422852 145.53550720 271.74801636 145.39453125 267.34667969 C 145.25357056 262.94531250 145.42425537 257.97879028 146.06756592 249.06643677 C 145.15750122 243.14912415 145.19253540 238.92440796 144.34397888 235.23358154 C 143.49543762 231.54273987 141.76330566 228.38578796 137.31889343 224.60398865 C 138.77334595 222.26763916 142.49337769 224.10147095 146.70195007 226.41567993 C 150.91050720 228.72988892 155.60757446 231.52447510 159.01606750 231.10963440 C 163.87036133 233.34271240 163.28314209 236.33639526 161.02700806 240.11575317 C 158.77085876 243.89511108 154.84579468 248.46012878 153.02439880 253.83587646 C 152.93402100 260.81378174 152.71903992 265.08917236 152.46527100 269.34521484 C 152.21150208 273.60125732 151.91894531 277.83795166 151.67344666 284.73840332 C 152.57923889 294.24798584 152.63368225 298.48928833 153.93405151 298.11822510 C 155.23440552 297.74713135 157.78068542 292.76367188 163.67013550 283.82373047" stroke-width="0.49826732" fill="rgb(250, 247, 241)" opacity="1.0" stroke="rgb(255, 221, 195)" stroke-opacity="1.0" stroke-linecap="round" stroke-linejoin="round"/>
    <path d="M 249.70457458 175.14163208 C 251.11706543 175.19641113 253.44674683 175.98262024 255.31318665 174.63357544 C 256.37240601 173.56138611 258.23556519 170.46270752 259.98803711 170.34321594 C 260.76815796 172.14810181 260.72003174 174.08996582 262.05206299 176.64450073 C 262.72378540 178.96766663 264.52975464 180.51225281 265.59332275 181.83367920 C 265.80056763 183.99342346 264.25668335 184.15374756 262.09619141 184.55932617 C 258.00836182 184.17486572 258.59729004 183.83207703 256.94537354 183.31909180 C 255.33361816 183.78062439 254.12001038 182.92678833 251.85382080 182.51077271 C 249.66458130 181.48100281 249.08059692 183.96556091 246.29516602 184.31893921 C 243.97413635 183.83357239 245.09622192 180.79339600 245.86860657 178.91900635 C 247.16702271 176.20268250 246.08897400 175.32821655 249.70457458 175.14163208" stroke-width="0.85953081" fill="rgb(231, 236, 139)" opacity="1.0" stroke="rgb(255, 233, 184)" stroke-opacity="1.0" stroke-linecap="round" stroke-linejoin="round"/>
    <path d="M 332.89187622 223.63020325 C 333.55068970 223.49749756 334.28735352 223.23217773 335.29571533 222.77767944 C 336.30410767 222.32321167 337.58422852 221.67956543 339.32995605 220.79028320 C 340.61898804 220.02114868 341.44671631 219.50013733 342.39523315 219.00350952 C 343.34375000 218.50686646 344.41308594 218.03462219 346.18536377 217.36299133 C 347.81781006 216.80667114 348.78405762 216.42663574 349.81954956 216.11213684 C 350.85504150 215.79765320 351.95983887 215.54873657 353.86947632 215.25466919 C 355.06237793 215.11512756 356.47964478 214.98048401 357.96551514 215.06848145 C 359.45135498 215.15647888 361.00585938 215.46713257 362.47326660 216.21815491 C 363.32623291 216.84559631 363.65649414 217.93028259 363.27044678 219.01351929 C 362.88439941 220.09674072 361.78204346 221.17849731 359.76974487 221.80007935 C 358.07305908 222.26805115 357.26318359 222.43829346 356.46310425 222.62364197 C 355.66302490 222.80897522 354.87280273 223.00942993 353.21545410 223.53779602 C 351.93707275 223.82093811 350.91015625 224.04339600 349.75158691 224.27381897 C 348.59304810 224.50424194 347.30285645 224.74264526 345.49792480 225.05766296 C 344.32565308 225.34135437 343.34948730 225.51037598 342.20480347 225.63598633 C 341.06011963 225.76158142 339.74688721 225.84376526 337.90051270 225.95378113 C 335.98547363 226.07662964 334.66589355 226.20523071 333.48806763 226.33103943 C 332.31027222 226.45683289 331.27429199 226.57983398 329.92642212 226.69148254 C 327.88146973 226.55711365 327.51321411 226.15998840 328.21102905 225.61236572 C 328.90881348 225.06472778 330.67266846 224.36659241 332.89187622 223.63020325" stroke-width="2.00000000" fill="rgb(234, 186, 30)" opacity="1.0" stroke="rgb(12, 0, 6)" stroke-opacity="1.0" stroke-linecap="round" stroke-linejoin="round"/>
    <path d="M 306.97152710 199.88957214 C 307.31823730 199.88317871 308.27685547 199.77542114 309.40399170 199.64720154 C 310.53112793 199.51899719 311.82672119 199.37034607 312.84732056 199.28218079 C 314.20147705 199.42564392 315.35455322 199.32720947 316.39932251 199.34149170 C 317.44406128 199.35578918 318.38049316 199.48281860 319.30133057 200.07722473 C 320.52740479 200.59544373 321.58520508 201.14123535 322.54107666 201.69975281 C 323.49691772 202.25827026 324.35076904 202.82949829 325.16894531 203.39857483 C 326.55169678 204.42004395 327.35949707 205.02754211 328.10729980 205.64346313 C 328.85507202 206.25936890 329.54284668 206.88371277 330.68551636 207.93885803 C 331.42431641 209.05410767 330.93792725 209.60993958 329.95523071 210.04010010 C 328.97250366 210.47026062 327.49343872 210.77476501 326.24682617 211.38739014 C 324.98037720 211.75912476 324.17318726 211.99772644 323.44952393 212.09109497 C 322.72589111 212.18444824 322.08578491 212.13255310 321.15350342 211.92326355 C 319.91680908 211.68603516 318.83590698 211.44819641 317.76159668 211.14532471 C 316.68725586 210.84243774 315.61956787 210.47451782 314.40927124 209.97709656 C 313.45318604 209.57316589 312.44531250 209.05677795 311.45761108 208.47975159 C 310.46990967 207.90272522 309.50231934 207.26506042 308.62686157 206.61856079 C 307.71252441 205.99337769 306.70397949 205.33128357 305.70080566 204.64988708 C 304.69763184 203.96847534 303.69982910 203.26777649 302.80694580 202.56535339 C 301.67742920 201.48742676 301.73922729 201.00592041 302.57305908 200.70016479 C 303.40689087 200.39442444 305.01278687 200.26445007 306.97152710 199.88957214" stroke-width="2.00000000" fill="rgb(240, 241, 251)" opacity="1.0" stroke="rgb(3, 5, 24)" stroke-opacity="1.0" stroke-linecap="round" stroke-linejoin="round"/>
    <path d="M 262.56549072 204.73567200 C 264.57769775 204.88159180 265.99847412 204.82406616 267.47399902 204.71382141 C 268.94952393 204.60356140 270.47979736 204.44056702 272.71102905 204.37553406 C 274.55657959 204.08285522 276.28613281 203.99481201 278.03778076 203.95021057 C 279.78945923 203.90560913 281.56323242 203.90441895 283.49728394 203.78543091 C 285.60467529 203.61578369 287.48306274 203.36964417 289.23913574 203.21943665 C 290.99517822 203.06922913 292.62893677 203.01495361 294.24700928 203.22900391 C 295.82550049 203.60456848 298.04904175 203.99548340 299.69088745 204.63543701 C 301.33273315 205.27537537 302.39288330 206.16433716 301.64462280 207.53601074 C 299.20837402 208.13864136 297.25985718 208.23110962 295.49475098 208.20613098 C 293.72967529 208.18116760 292.14801025 208.03877258 290.44549561 208.17169189 C 288.03314209 208.13113403 286.59741211 208.17440796 285.37170410 208.30860901 C 284.14602661 208.44281006 283.13037109 208.66790771 281.55813599 208.99101257 C 278.91287231 209.31228638 277.52426147 209.26779175 276.06262207 209.17066956 C 274.60101318 209.07354736 273.06634521 208.92379761 270.12905884 209.03459167 C 268.47729492 208.98628235 267.08700562 208.94879150 265.44769287 208.93420410 C 263.80838013 208.91961670 261.92004395 208.92793274 259.27212524 208.97126770 C 257.54629517 208.88557434 255.72238159 208.93049622 254.18582153 208.58831787 C 252.64924622 208.24615479 251.40002441 207.51687622 250.82354736 205.88276672 C 252.61102295 204.81880188 254.78649902 204.51048279 256.89508057 204.47892761 C 259.00369263 204.44737244 261.04544067 204.69258118 262.56549072 204.73567200" stroke-width="2.00000000" fill="rgb(165, 94, 37)" opacity="1.0" stroke="rgb(0, 0, 0)" stroke-opacity="1.0" stroke-linecap="round" stroke-linejoin="round"/>
    <path d="M 114.37933350 324.10372925 C 112.23934937 324.90106201 111.99697876 325.03982544 109.27629089 325.77453613 C 107.56314087 325.82312012 105.21911621 326.99713135 105.00225830 325.62384033 C 105.28457642 323.49301147 105.93621826 322.06289673 106.37655640 320.32241821 C 107.29644775 317.81835938 107.67538452 317.58843994 108.82752991 315.07653809 C 109.76541138 313.13327026 110.48419189 312.35739136 111.97700500 311.23617554 C 114.55073547 309.46096802 113.99201965 310.04592896 115.81042480 308.22723389 C 117.18377686 306.01446533 117.22650146 308.55834961 117.93786621 310.94619751 C 118.28842163 312.61004639 118.41528320 313.57421875 119.10844421 315.70660400 C 119.70977783 317.74862671 120.17877197 319.02389526 119.30406189 320.35559082 C 117.78663635 322.07247925 116.17237854 323.06469727 114.37933350 324.10372925" stroke-width="0.63343686" fill="rgb(2, 9, 5)" opacity="1.0" stroke="rgb(37, 122, 83)" stroke-opacity="1.0" stroke-linecap="round" stroke-linejoin="round"/>
    <path d="M 248.19036865 391.47515869 C 247.89379883 391.74935913 245.89761353 392.35247803 244.17732239 392.27236938 C 242.56355286 392.20986938 240.82893372 391.87875366 239.34237671 391.13916016 C 237.97822571 390.59149170 236.75994873 389.60858154 236.06552124 387.80249023 C 235.53045654 386.64108276 234.82893372 384.32339478 234.62709045 382.94628906 C 234.36811829 381.13119507 236.28929138 381.30407715 238.48008728 381.39233398 C 240.19889832 381.54446411 240.58064270 381.35885620 242.46302795 381.74783325 C 243.90652466 382.18554688 244.93551636 382.29559326 246.83770752 382.70755005 C 248.17091370 382.82904053 249.64418030 382.90313721 251.49896240 384.08837891 C 252.82678223 385.28045654 253.61961365 385.78402710 252.41600037 387.91207886 C 251.55322266 389.17092896 250.82623291 389.84442139 248.19036865 391.47515869" stroke-width="0.83167678" fill="rgb(5, 15, 5)" opacity="1.0" stroke="rgb(101, 131, 49)" stroke-opacity="1.0" stroke-linecap="round" stroke-linejoin="round"/>
    <path d="M 246.41349792 423.11563110 C 246.38841248 421.39212036 246.46853638 421.18191528 247.12358093 419.30020142 C 247.86253357 417.59692383 248.03388977 417.07489014 249.47470093 415.98571777 C 250.82879639 415.07107544 251.62707520 414.80136108 253.46784973 414.34774780 C 254.77656555 414.18099976 256.32656860 413.77526855 257.67214966 414.78805542 C 258.76013184 416.27029419 258.78460693 416.42831421 259.26382446 418.70150757 C 259.14547729 420.73846436 259.22454834 420.34597778 258.69186401 422.23507690 C 258.28250122 423.02084351 257.92349243 424.33605957 256.71118164 425.73904419 C 255.71493530 426.32595825 254.83532715 426.77572632 252.79310608 427.36975098 C 251.82958984 427.48141479 250.33308411 427.64395142 248.67254639 426.89282227 C 247.66961670 426.22506714 246.78921509 425.30609131 246.41349792 423.11563110" stroke-width="0.82902616" fill="rgb(3, 4, 8)" opacity="1.0" stroke="rgb(70, 85, 68)" stroke-opacity="1.0" stroke-linecap="round" stroke-linejoin="round"/>
    <path d="M 104.50129700 184.57772827 C 104.86172485 183.84085083 105.47584534 182.43690491 106.37142944 181.38700867 C 107.15005493 180.45396423 108.32440186 179.79589844 109.92971802 179.96450806 C 111.54733276 180.25531006 112.40184021 181.45848083 112.82366943 182.32595825 C 113.87841797 184.46974182 113.79560852 184.90103149 114.22869873 186.60792542 C 114.47149658 189.22056580 114.54403687 188.85391235 113.96356201 191.07095337 C 112.75048828 193.30926514 113.12213135 192.74682617 112.09614563 194.14733887 C 111.46342468 195.50285339 109.79550171 196.62139893 108.71380615 196.14479065 C 107.15237427 195.38269043 106.35372925 194.47108459 105.59083557 193.23591614 C 105.02267456 192.36424255 104.16694641 190.79730225 103.99369812 189.30917358 C 103.72732544 187.93170166 104.07858276 187.01889038 104.50129700 184.57772827" stroke-width="0.80141580" fill="rgb(1, 6, 106)" opacity="1.0" stroke="rgb(30, 92, 169)" stroke-opacity="1.0" stroke-linecap="round" stroke-linejoin="round"/>
    <path d="M 90.25329590 280.36422729 C 90.43865967 280.15264893 91.63989258 278.16510010 92.45581055 277.40853882 C 93.37934875 276.18606567 94.43957520 274.75326538 95.88580322 275.45050049 C 97.22982788 276.24868774 97.80529785 276.57049561 98.66940308 278.41888428 C 99.31127930 279.51910400 99.78228760 281.39505005 99.99113464 282.61972046 C 100.14848328 284.10018921 100.98742676 285.06436157 100.95538330 286.90530396 C 100.47991943 288.34509277 100.09457397 288.54342651 99.82434082 289.92245483 C 99.51971436 291.68811035 97.59439087 289.66073608 96.35252380 289.22998047 C 94.25741577 288.04458618 94.48382568 288.22357178 92.53213501 287.57757568 C 90.78640747 286.84072876 90.14343262 285.55078125 89.54800415 284.73294067 C 88.37643433 283.48486328 89.33735657 282.49139404 90.25329590 280.36422729" stroke-width="0.59525192" fill="rgb(0, 68, 50)" opacity="1.0" stroke="rgb(28, 148, 121)" stroke-opacity="1.0" stroke-linecap="round" stroke-linejoin="round"/>
    <path d="M 108.48768616 365.58334351 C 106.80791473 366.02734375 105.56900024 366.19488525 104.27988434 366.08456421 C 102.99076843 365.97424316 101.65145874 365.58605957 99.77090454 364.91848755 C 98.06038666 362.97106934 97.19168091 361.21038818 96.29415131 359.62542725 C 95.39662170 358.04052734 94.47027588 356.63134766 92.64447021 355.38690186 C 90.39375305 353.92767334 90.45265198 352.36352539 91.33250427 350.82937622 C 92.21235657 349.29525757 93.91316223 347.79113770 94.94627380 346.45190430 C 96.66717529 344.76147461 97.46369171 343.44003296 98.35027313 342.43435669 C 99.23684692 341.42864990 100.21349335 340.73873901 102.29464722 340.31137085 C 104.43646240 340.50842285 106.08703613 340.99560547 107.78939819 341.68099976 C 109.49175262 342.36639404 111.24588776 343.24993896 113.59481812 344.23968506 C 116.54623413 346.61413574 117.78121948 347.54864502 118.65424347 348.22015381 C 119.52726746 348.89166260 120.03833771 349.30010986 121.54191589 350.62243652 C 122.80539703 352.19616699 123.93017578 353.92776489 124.76461792 355.70639038 C 125.59906006 357.48498535 126.14316559 359.31060791 126.24531555 361.07235718 C 126.34932709 363.17437744 127.49239349 364.14385986 128.51666260 364.99041748 C 129.54092407 365.83697510 130.44641113 366.56066895 130.07522583 368.17114258 C 128.25747681 369.47903442 126.86471558 369.36251831 125.30915070 368.71582031 C 123.75358582 368.06915283 122.03522491 366.89230347 119.56626892 366.07952881 C 117.35413361 364.95947266 116.02162170 364.33197021 114.52358246 364.23617554 C 113.02554321 364.14041138 111.36196136 364.57641602 108.48768616 365.58334351" stroke-width="1.88939273" fill="rgb(25, 3, 3)" opacity="1.0" stroke="rgb(0, 5, 1)" stroke-opacity="1.0" stroke-linecap="round" stroke-linejoin="round"/>
    <path d="M 302.04266357 440.72283936 C 302.70877075 440.08758545 303.83956909 439.67175293 305.70254517 439.09381104 C 307.35665894 438.59530640 308.74642944 438.01843262 310.30154419 437.14474487 C 311.78793335 436.29696655 312.95703125 434.92462158 314.69223022 435.26086426 C 316.00366211 435.75387573 317.09872437 436.54113770 317.52206421 438.30709839 C 316.62335205 440.65093994 315.70419312 440.69689941 314.12756348 441.04754639 C 311.52911377 441.50619507 311.92553711 441.08734131 309.99978638 441.97030640 C 308.65533447 442.80981445 307.82604980 444.04516602 307.42254639 445.95425415 C 307.06225586 446.74475098 306.09765625 447.18917847 304.51510620 447.75091553 C 302.68756104 448.00674438 301.08923340 446.95986938 300.78387451 445.42803955 C 300.38796997 443.87493896 300.79769897 442.71298218 302.04266357 440.72283936" stroke-width="0.20036221" fill="rgb(223, 244, 226)" opacity="1.0" stroke="rgb(255, 255, 255)" stroke-opacity="1.0" stroke-linecap="round" stroke-linejoin="round"/>
  </g>
</svg>
