<?xml version="1.0" ?>
<svg xmlns="http://www.w3.org/2000/svg" version="1.1" width="512" height="512" viewBox="0 0 512 512">
  <defs/>
  <g>
    <path d="M 507.67733765 489.69012451 C 502.28448486 495.27264404 495.57366943 499.78912354 487.16433716 503.02655029 C 476.79107666 505.07730103 464.55847168 506.35879517 450.41455078 506.66299438 C 434.48098755 505.75759888 416.84963989 505.58184814 397.57879639 505.29800415 C 376.95782471 504.06893921 355.13107300 503.40554810 332.27148438 503.56823730 C 308.31637573 503.64355469 283.54861450 503.65719604 258.12594604 503.64874268 C 232.33503723 503.56518555 206.32467651 503.58517456 180.47256470 503.58584595 C 155.12155151 503.54458618 130.74874878 503.53445435 107.50376892 503.76565552 C 85.92523193 505.13064575 66.26515198 505.97784424 48.78035355 505.74847412 C 33.96763229 504.17001343 22.11551857 499.83880615 13.57944298 491.91006470 C 7.97932005 480.25720215 4.65633440 465.44131470 3.33543968 448.02090454 C 3.31492138 428.28552246 3.15706444 406.62896729 3.57144070 383.36123657 C 5.90460968 359.00717163 8.68642998 333.98080444 10.38899517 308.03295898 C 10.46831131 281.33316040 10.37747002 254.28495789 10.21953678 227.22480774 C 8.52127171 200.58222961 6.34140015 174.61346436 4.53335476 149.62969971 C 4.16098785 125.73292542 4.21052551 103.32784271 4.41068745 82.62158966 C 5.80472755 63.86427689 8.60109520 47.12831497 13.16483593 32.85034180 C 20.12552643 21.16272545 29.23568726 11.96366978 40.47384262 5.60182047 C 54.25105667 2.49272847 70.54076385 1.99610519 89.07920837 2.47394609 C 109.50525665 2.36462235 131.78527832 2.31618142 155.49151611 2.35849309 C 180.40791321 2.35731530 206.22589111 2.37235332 232.66630554 2.41237998 C 259.29855347 2.39573383 285.99224854 2.24055886 312.46228027 2.64987350 C 338.48437500 3.90019536 363.77139282 3.58530283 388.03698730 2.37736082 C 410.95861816 2.34034228 432.24118042 2.30904245 451.36822510 2.35291886 C 468.20245361 3.50578094 482.27001953 6.61632490 493.17657471 12.47797012 C 500.88662720 21.86801910 505.85464478 34.50011063 508.48190308 49.88446808 C 509.71807861 67.61165619 509.83752441 87.49263763 509.72659302 109.01768494 C 509.63366699 131.86959839 508.41870117 155.75877380 506.27716064 180.39703369 C 503.93981934 205.63703918 502.69863892 231.41500854 502.39608765 257.49841309 C 503.14038086 283.68518066 505.31475830 309.82125854 507.45901489 335.85739136 C 507.95477295 361.86669922 507.52764893 387.85894775 507.67733765 489.69012451" stroke-width="2.00000000" fill="rgb(247, 250, 241)" opacity="1.0" stroke="rgb(246, 240, 0)" stroke-opacity="0.352042" stroke-linecap="round" stroke-linejoin="round"/>
    <path d="M 359.02914429 336.08703613 C 355.61813354 341.15002441 351.82565308 345.79998779 347.39883423 349.72082520 C 341.95446777 352.48251343 335.52786255 354.48880005 328.36819458 355.95666504 C 320.64373779 357.05026245 312.28659058 357.93618774 303.45056152 358.86355591 C 294.21322632 359.76696777 284.66305542 360.52896118 274.77743530 361.18420410 C 264.80038452 361.68554688 254.76460266 362.07675171 244.70368958 362.30593872 C 234.69735718 362.50280762 224.79081726 362.49325562 215.13806152 362.30429077 C 205.71690369 361.98394775 196.62252808 361.61486816 187.90989685 361.03668213 C 179.59968567 360.29290771 171.95304871 358.88836670 165.00335693 356.65713501 C 158.65699768 353.57321167 153.12873840 349.27294922 148.42279053 343.47140503 C 144.46739197 336.56250000 139.84132385 329.34027100 134.87342834 321.72619629 C 130.60859680 313.55480957 127.56186676 304.35491943 125.39523315 294.56195068 C 123.48347473 284.36892700 122.58166504 273.89651489 122.60295868 263.35748291 C 122.70989990 252.72384644 122.52261353 242.34698486 122.26707458 232.55775452 C 122.10368347 223.52964783 122.44123840 215.34680176 122.87629700 208.45558167 C 123.93143463 203.05081177 126.19890594 199.23136902 129.73336792 196.82897949 C 134.16972351 195.76448059 139.31170654 194.97669983 144.95652771 193.81240845 C 151.01296997 192.41157532 157.63061523 191.85014343 164.84529114 191.88961792 C 172.52766418 191.67320251 180.85508728 191.03393555 189.48509216 190.45104980 C 198.39791870 190.16567993 207.58807373 190.18038940 217.12184143 190.08099365 C 226.76129150 189.49922180 236.57673645 189.53810120 246.69717407 190.78762817 C 257.44769287 190.90901184 268.53802490 190.74601746 279.87771606 190.67590332 C 291.34924316 190.23013306 302.86276245 189.44636536 314.27819824 189.03562927 C 325.64089966 190.27732849 336.93206787 191.84573364 347.62002563 193.67292786 C 357.62722778 195.93324280 366.53253174 198.40003967 374.15219116 201.28424072 C 380.42840576 203.96328735 384.95562744 206.31080627 386.95291138 208.85925293 C 386.04888916 212.16725159 383.52447510 216.35990906 381.14587402 221.29498291 C 380.84069824 227.13148499 381.82836914 234.06013489 382.91662598 241.94969177 C 382.93304443 250.72563171 382.57818604 260.27294922 381.57485962 270.36840820 C 379.74301147 280.84146118 377.15664673 291.58160400 373.84725952 302.52319336 C 371.27978516 313.72842407 369.24935913 324.91571045 359.02914429 336.08703613" stroke-width="1.43000829" fill="rgb(8, 7, 4)" opacity="1.0" stroke="rgb(109, 91, 112)" stroke-opacity="0.80426294" stroke-linecap="round" stroke-linejoin="round"/>
    <path d="M 350.49197388 327.80624390 C 346.60348511 332.81390381 342.55722046 337.65615845 338.28176880 342.33825684 C 333.55368042 346.60461426 328.56344604 350.63674927 323.18704224 354.26004028 C 317.32714844 357.39053345 311.02038574 360.03292847 304.40597534 362.25750732 C 297.47900391 364.07684326 290.18371582 365.50399780 282.64413452 366.61700439 C 274.91082764 367.42608643 266.94110107 367.78350830 258.88024902 367.83523560 C 250.77252197 367.94183350 242.57687378 367.53839111 234.32261658 366.30032349 C 226.07171631 364.56753540 217.88172913 362.34429932 209.72111511 359.79788208 C 201.65754700 356.85174561 193.77030945 353.30340576 186.11804199 349.11032104 C 178.74404907 344.46737671 171.37533569 339.88555908 164.10826111 335.38574219 C 157.32832336 330.48281860 151.25511169 324.98324585 146.01258850 318.78451538 C 141.91697693 311.91885376 139.12606812 304.09069824 136.94174194 295.87310791 C 134.81716919 287.47817993 133.65350342 278.92239380 133.51956177 270.12481689 C 133.47807312 261.17037964 133.48249817 252.40821838 133.40594482 244.26182556 C 133.52247620 236.78628540 133.54078674 230.06634521 133.09727478 224.45033264 C 131.75730896 220.25119019 131.36091614 217.63868713 132.57466125 216.66354370 C 135.48495483 217.45689392 139.84979248 218.34611511 145.11215210 217.26731873 C 150.86410522 213.68843079 157.47247314 209.55122375 165.04415894 205.64140320 C 173.51100159 203.04811096 182.59895325 201.74003601 191.88883972 200.73718262 C 201.07164001 199.92283630 210.03660583 199.85969543 218.55943298 200.19566345 C 226.18002319 200.04110718 232.96205139 199.77931213 238.73309326 200.88322449 C 243.28735352 204.76335144 246.93875122 210.59011841 250.52917480 217.14062500 C 256.11151123 222.51658630 263.44058228 226.49385071 272.07720947 229.37150574 C 281.75567627 231.50172424 291.94555664 233.06100464 302.27227783 233.62765503 C 312.58370972 233.01608276 322.84506226 231.48983765 332.71502686 229.26675415 C 342.05892944 226.99438477 350.72488403 225.00677490 358.30297852 223.68846130 C 364.56918335 223.20687866 369.31112671 223.44212341 372.29925537 224.65222168 C 373.10531616 227.39617920 372.70379639 231.40306091 372.39364624 236.59562683 C 372.41522217 242.85990906 372.38397217 250.08238220 372.29364014 258.01962280 C 371.73828125 266.33200073 370.53399658 275.02755737 368.79739380 284.15026855 C 367.21255493 293.53097534 365.76217651 302.98815918 350.49197388 327.80624390" stroke-width="2.00000000" fill="rgb(111, 61, 47)" opacity="1.0" stroke="rgb(178, 124, 87)" stroke-opacity="0.8587781" stroke-linecap="round" stroke-linejoin="round"/>
    <path d="M 322.68936157 231.83676147 C 310.40026855 233.40151978 297.95712280 234.00746155 285.21560669 233.82054138 C 272.25003052 233.83352661 258.94833374 233.87083435 245.50137329 233.75018311 C 232.13629150 233.29595947 219.02725220 231.97178650 206.36981201 230.13388062 C 194.36888123 228.03462219 183.12081909 225.86111450 173.45278931 223.74748230 C 165.86592102 221.26611328 161.00061035 218.63006592 158.29696655 218.14987183 C 157.84675598 220.74424744 159.23928833 225.41323853 162.12104797 230.32649231 C 167.39201355 233.25358582 173.82852173 234.77003479 179.87019348 235.46427917 C 184.20553589 235.91795349 185.87646484 237.28948975 184.21173096 239.53071594 C 179.94638062 242.26147461 174.78860474 244.51499939 169.65650940 244.29496765 C 165.34574890 239.11244202 161.50553894 230.85821533 158.53771973 221.69519043 C 157.15914917 213.04067993 158.80464172 206.63522339 163.31147766 203.44555664 C 167.99305725 203.42219543 170.56092834 207.44454956 172.62611389 213.25312805 C 178.04815674 216.08660889 186.50823975 216.36701965 197.27757263 217.18925476 C 209.61196899 217.57180786 222.86064148 217.92791748 236.37973022 219.33544922 C 249.71165466 220.04132080 262.54464722 218.84808350 274.70556641 218.36059570 C 285.91024780 218.59030151 295.83953857 218.27215576 304.19235229 216.69827271 C 310.42736816 215.54858398 314.86456299 216.18632507 318.16110229 218.58395386 C 320.69351196 221.16654968 322.58905029 223.43951416 323.53930664 225.29350281 C 323.59289551 227.03598022 323.37194824 228.72903442 323.09634399 230.49433899 C 322.28408813 232.21481323 321.77850342 233.98352051 322.68936157 231.83676147" stroke-width="2.00000000" fill="rgb(248, 247, 239)" opacity="1.0" stroke="rgb(53, 56, 58)" stroke-opacity="0.8910011" stroke-linecap="round" stroke-linejoin="round"/>
    <path d="M 369.97244263 323.53341675 C 368.91931152 324.19808960 367.99682617 324.47949219 367.39901733 324.10757446 C 367.16870117 323.11190796 367.37570190 321.44049072 367.85455322 319.19531250 C 368.90823364 316.51571655 370.47314453 313.58062744 372.73825073 310.54205322 C 375.53692627 307.35546875 378.65087891 303.91421509 381.65887451 300.08892822 C 384.64996338 296.05303955 387.25238037 291.56082153 389.05499268 286.67410278 C 390.18334961 281.15325928 390.95108032 275.28466797 391.68008423 269.43496704 C 391.84002686 263.74877930 391.86050415 258.30712891 391.94888306 253.31884766 C 391.89300537 248.97836304 391.71279907 245.58872986 390.73425293 243.18888855 C 388.65405273 241.83152771 386.01397705 241.15270996 383.31991577 240.29765320 C 381.10076904 238.36018372 379.74063110 235.66687012 379.28781128 232.71453857 C 379.87707520 229.71287537 381.47537231 227.02954102 384.09237671 225.04563904 C 387.57751465 223.62763977 391.59960938 222.88360596 395.80651855 222.78202820 C 399.75607300 223.12969971 403.45748901 224.89845276 406.85516357 227.50791931 C 410.24911499 230.65940857 413.02529907 234.44648743 415.05773926 239.14390564 C 416.79394531 244.34729004 418.35925293 249.69606018 419.73727417 255.12084961 C 420.84878540 260.29660034 420.94921875 265.57031250 420.69149780 270.77783203 C 421.35794067 275.71392822 421.63851929 280.64941406 420.65411377 285.65908813 C 419.01031494 290.92758179 416.46496582 296.20413208 412.96392822 301.31362915 C 408.89147949 306.67565918 404.21868896 311.93151855 399.04159546 317.18548584 C 393.15399170 322.09164429 387.21121216 327.12863159 369.97244263 323.53341675" stroke-width="1.51318383" fill="rgb(5, 7, 12)" opacity="1.0" stroke="rgb(22, 31, 0)" stroke-opacity="0.55001" stroke-linecap="round" stroke-linejoin="round"/>
    <path d="M 378.28518677 313.79678345 C 380.03399658 312.56134033 381.71371460 311.18243408 383.41238403 309.83099365 C 385.29049683 308.71115112 386.87054443 307.12133789 388.28240967 305.25854492 C 389.81951904 303.29748535 391.62609863 301.32452393 393.23931885 299.04983521 C 394.61614990 296.48190308 395.93316650 293.81542969 397.28277588 291.05346680 C 398.32452393 287.99008179 399.08331299 284.70315552 399.40615845 281.18905640 C 399.30130005 277.46569824 399.37170410 273.57022095 399.64599609 269.60040283 C 399.98007202 265.59234619 399.88885498 261.70214844 399.15731812 258.00491333 C 398.16912842 254.49189758 397.11904907 251.09512329 396.23394775 248.07501221 C 394.98348999 245.80854797 393.31503296 244.34692383 391.16464233 243.72027588 C 388.93783569 243.57350159 387.11538696 243.27082825 386.11483765 242.54866028 C 386.19638062 241.43312073 387.28375244 240.12509155 389.13073730 238.77832031 C 391.54061890 237.59584045 394.00793457 236.48025513 396.47872925 236.05281067 C 398.87850952 236.68728638 401.13146973 238.09857178 403.10235596 239.98678589 C 404.64080811 242.47558594 405.55523682 245.59858704 406.15090942 249.23313904 C 406.87988281 252.99626160 407.58581543 257.07229614 407.79837036 261.32400513 C 407.73800659 265.65643311 407.24926758 269.94183350 406.71163940 274.18115234 C 406.60086060 278.31958008 406.38421631 282.18872070 405.72528076 285.65661621 C 404.64315796 288.79833984 403.09783936 291.45800781 401.30917358 293.89440918 C 399.74328613 296.28854370 398.30258179 298.67785645 396.77261353 300.87011719 C 395.08950806 302.52227783 393.33035278 304.12805176 378.28518677 313.79678345" stroke-width="1.67150772" fill="rgb(238, 249, 249)" opacity="1.0" stroke="rgb(159, 215, 255)" stroke-opacity="0.5597538" stroke-linecap="round" stroke-linejoin="round"/>
    <path d="M 203.98358154 149.37055969 C 202.28825378 150.52847290 200.54125977 151.55981445 198.77201843 152.48095703 C 197.18278503 153.29183960 195.70254517 153.98297119 194.46147156 154.43455505 C 193.34167480 154.63064575 192.46469116 154.40795898 191.84265137 153.96273804 C 191.38499451 153.21694946 191.13267517 152.37150574 191.11511230 151.21443176 C 191.25656128 149.97515869 191.46305847 148.59875488 191.90892029 147.27348328 C 192.43743896 145.94793701 193.06605530 144.75697327 193.84829712 143.64048767 C 194.81948853 142.68794250 195.85052490 141.81752014 197.01788330 141.12756348 C 198.38281250 140.49357605 199.80577087 140.14501953 201.41491699 139.87596130 C 203.18818665 139.71516418 205.05564880 139.68386841 206.96136475 139.70487976 C 208.96476746 139.71075439 210.95582581 139.83937073 203.98358154 149.37055969" stroke-width="2.00000000" fill="rgb(99, 0, 42)" opacity="1.0" stroke="rgb(233, 103, 111)" stroke-opacity="0.46339908" stroke-linecap="round" stroke-linejoin="round"/>
    <path d="M 259.81106567 151.97131348 C 258.91577148 154.70286560 258.19311523 157.51066589 257.77975464 160.29627991 C 257.50268555 162.96884155 257.46624756 165.43905640 257.59124756 167.77406311 C 257.57620239 169.92588806 257.28604126 171.80360413 256.78244019 173.30409241 C 255.87963867 174.46612549 254.74201965 175.36151123 253.45433044 175.85823059 C 252.21992493 175.98753357 250.92471313 175.80319214 249.74827576 175.17964172 C 248.82115173 174.24548340 248.32469177 172.97460938 248.19357300 171.22489929 C 248.15800476 169.16514587 248.37237549 166.82803345 248.86540222 164.42326355 C 249.68965149 161.84934998 250.67442322 159.11926270 251.60842896 156.25454712 C 252.57363892 153.29664612 253.55279541 150.46127319 254.85029602 147.76182556 C 256.44808960 145.20278931 258.12677002 142.89088440 259.86715698 140.67282104 C 261.42410278 138.50349426 262.89590454 136.47053528 264.06372070 134.48742676 C 264.97943115 132.66270447 265.71429443 131.00360107 266.31216431 129.51620483 C 266.85815430 128.30935669 267.31478882 127.37485504 267.67739868 126.69692230 C 268.09405518 126.36938477 268.68679810 126.31090546 269.22912598 126.40231323 C 269.85263062 126.80553436 270.57873535 127.42427063 271.43075562 128.22308350 C 272.39947510 129.03256226 273.38073730 129.93492126 274.35552979 130.65417480 C 275.25964355 131.39605713 275.98632812 132.34103394 276.22167969 133.39016724 C 275.91891479 134.61692810 275.35202026 136.02964783 274.31228638 137.56121826 C 272.92498779 139.16131592 271.21014404 140.85891724 269.11071777 142.32965088 C 266.73837280 143.60173035 264.06253052 144.70790100 259.81106567 151.97131348" stroke-width="1.62581027" fill="rgb(187, 30, 24)" opacity="1.0" stroke="rgb(226, 152, 102)" stroke-opacity="0.66652954" stroke-linecap="round" stroke-linejoin="round"/>
    <path d="M 306.93322754 143.30630493 C 308.08584595 146.47700500 309.08090210 149.65934753 310.08682251 152.83154297 C 310.95709229 155.82308960 311.64575195 158.66941833 312.26754761 161.40150452 C 312.83755493 163.99266052 313.17910767 166.26335144 313.50292969 168.26379395 C 313.77743530 169.77520752 313.86334229 170.92239380 313.72851562 171.59442139 C 313.26483154 171.64971924 312.77618408 171.16249084 312.33004761 170.16123962 C 311.70520020 168.68907166 310.97915649 166.73603821 310.37164307 164.48306274 C 309.88970947 162.01327515 309.43936157 159.14172363 309.06643677 156.13034058 C 308.76412964 153.09764099 308.44375610 149.93476868 308.21939087 146.82972717 C 308.19754028 143.70651245 308.46740723 140.63337708 309.09524536 137.68923950 C 309.96014404 134.74830627 310.99172974 131.99241638 312.01031494 129.18455505 C 313.06661987 126.53415680 314.14923096 124.00897980 315.25509644 121.65163422 C 316.33346558 119.46118164 317.35757446 117.46607971 318.23983765 115.64836121 C 319.05209351 114.05538940 319.79806519 112.73873138 320.48931885 111.69754028 C 321.08435059 110.91208649 321.54129028 110.39753723 321.83297729 110.13466644 C 322.19726562 110.17971039 322.31057739 110.51589966 322.27587891 111.04198456 C 322.16217041 111.80080414 321.92733765 112.84027100 321.55862427 114.03716278 C 321.12301636 115.48007202 320.53778076 116.99617767 319.82977295 118.71697235 C 319.01998901 120.54123688 318.16641235 122.37313843 317.14947510 124.39050293 C 316.22515869 126.44837189 315.22235107 128.53041077 314.20077515 130.68194580 C 313.15600586 132.82499695 312.21054077 135.06770325 306.93322754 143.30630493" stroke-width="0.77835900" fill="rgb(236, 151, 235)" opacity="1.0" stroke="rgb(185, 97, 196)" stroke-opacity="0.458878" stroke-linecap="round" stroke-linejoin="round"/>
    <path d="M 366.91531372 354.57690430 C 358.84274292 354.25463867 350.80142212 354.18316650 342.89804077 354.35345459 C 335.09414673 354.89077759 327.57147217 356.10549927 320.43212891 358.58496094 C 313.64706421 362.69979858 306.20532227 366.15097046 297.45108032 368.00418091 C 287.50781250 369.45571899 276.45022583 370.12115479 264.39398193 369.81289673 C 251.62487793 369.14160156 238.26199341 368.57485962 224.55894470 367.54461670 C 211.06739807 366.41714478 198.03010559 364.32360840 185.37852478 361.60098267 C 173.33280945 359.63076782 162.17903137 357.96554565 152.10556030 356.65170288 C 143.34089661 355.73852539 136.15673828 355.02679443 130.82675171 354.00650024 C 127.64898682 352.07901001 126.54218292 350.06195068 127.79217529 348.62777710 C 131.26588440 348.48861694 136.16178894 348.98861694 141.43728638 348.70617676 C 146.23970032 346.05383301 151.42332458 343.82302856 157.82258606 343.50286865 C 165.38836670 344.93249512 173.83943176 347.73468018 183.22927856 351.18328857 C 193.42280579 354.71621704 204.38624573 357.48797607 216.02288818 359.29592896 C 228.09732056 360.13879395 240.41386414 360.66970825 252.81542969 361.05767822 C 265.13385010 361.27124023 277.14038086 360.91162109 288.85519409 360.00076294 C 300.05731201 358.32897949 310.72808838 355.94137573 321.04992676 353.53356934 C 331.10998535 352.49978638 341.05310059 352.78689575 350.82699585 353.86718750 C 360.60177612 355.19299316 370.40380859 356.72537231 380.12469482 358.28631592 C 389.86346436 359.99688721 399.50347900 361.76702881 409.10379028 363.62969971 C 418.73962402 365.57687378 428.33453369 367.57241821 366.91531372 354.57690430" stroke-width="1.39896715" fill="rgb(3, 5, 4)" opacity="1.0" stroke="rgb(0, 6, 19)" stroke-opacity="0.47563773" stroke-linecap="round" stroke-linejoin="round"/>
    <path d="M 164.33476257 358.07379150 C 164.48030090 359.49847412 164.59671021 360.90490723 164.46109009 362.29214478 C 163.90245056 363.71435547 162.85980225 365.17300415 161.17216492 366.57675171 C 158.77941895 367.90139771 155.68685913 368.83923340 151.97985840 368.76394653 C 147.50059509 368.16836548 142.40859985 367.67559814 137.26342773 367.64147949 C 132.18991089 368.51824951 127.48501587 370.03439331 123.75300598 372.34350586 C 121.60889435 375.35910034 121.05031586 378.75216675 121.63966370 382.09143066 C 121.40210724 384.70223999 120.02182770 386.03491211 118.09583282 385.69049072 C 116.07848358 383.58740234 113.48695374 380.30358887 109.94223022 377.00274658 C 105.87191010 373.31741333 101.94483185 368.86428833 98.10947418 364.28005981 C 94.54932404 360.11782837 90.79267883 357.07037354 87.03911591 354.89001465 C 83.66026306 353.03573608 80.97517395 351.75360107 79.23261261 351.16726685 C 79.06629181 350.59710693 80.29000092 350.59127808 82.32051086 350.73806763 C 84.64367676 350.87646484 87.05645752 350.90194702 89.34194183 349.72756958 C 91.13762665 347.25796509 91.96585846 344.34310913 91.76170349 341.07070923 C 90.88428497 338.23663330 90.08966064 336.19467163 90.40490723 334.77017212 C 92.29756927 334.24758911 95.19630432 334.49996948 98.62837982 335.74807739 C 102.66114044 338.71469116 107.26642609 342.44107056 112.21327972 346.55398560 C 117.62185669 350.50198364 123.45781708 353.86538696 129.61415100 356.08770752 C 136.07704163 356.56356812 142.91162109 355.89706421 150.04862976 354.67034912 C 157.39596558 353.35913086 164.84010315 352.28460693 164.33476257 358.07379150" stroke-width="2.00000000" fill="rgb(187, 189, 176)" opacity="1.0" stroke="rgb(32, 66, 27)" stroke-opacity="0.8419668" stroke-linecap="round" stroke-linejoin="round"/>
    <path d="M 258.96063232 146.31593323 C 257.58505249 150.16075134 256.30303955 153.84188843 255.27560425 157.41070557 C 254.49398804 160.73034668 253.94413757 163.76931763 253.53196716 166.33723450 C 253.11953735 168.49375916 252.65393066 170.11198425 252.01692200 171.28410339 C 251.19812012 171.83741760 250.35868835 171.84565735 249.72460938 171.22061157 C 249.33872986 170.17713928 249.16032410 168.58663940 249.21275330 166.56576538 C 249.29432678 164.08502197 249.71606445 161.29850769 250.33630371 158.24333191 C 251.14830017 155.08422852 252.19102478 151.73587036 253.41615295 148.27499390 C 254.47723389 145.09408569 255.76632690 142.10722351 257.45242310 139.76635742 C 259.55218506 138.30947876 261.07302856 136.82514954 261.66345215 134.78105164 C 261.18997192 132.01577759 260.04663086 128.67057800 258.77929688 124.56504059 C 257.61187744 119.87526703 256.28540039 114.95409393 254.70181274 110.02357483 C 253.03652954 105.18261719 251.97529602 100.37440491 251.11968994 95.79573059 C 250.34843445 91.77124023 250.18354797 88.31147003 250.80641174 85.35637665 C 251.41017151 83.03749847 252.03913879 81.59845734 252.56813049 81.42238617 C 252.90791321 82.51714325 253.16571045 84.54459381 253.50891113 87.36712646 C 254.08497620 90.71353912 255.38328552 94.32612610 257.05679321 97.87751770 C 258.83062744 101.62306213 260.65023804 105.31683350 262.81588745 109.03312683 C 264.78906250 112.50175476 266.68685913 115.89878845 268.26675415 119.19368744 C 269.90100098 122.28913879 271.45843506 125.19171906 272.96463013 127.92266083 C 274.29544067 130.69268799 275.67071533 133.25393677 258.96063232 146.31593323" stroke-width="1.83478034" fill="rgb(21, 6, 14)" opacity="1.0" stroke="rgb(0, 0, 5)" stroke-opacity="0.45739463" stroke-linecap="round" stroke-linejoin="round"/>
    <path d="M 399.38726807 369.94906616 C 397.59548950 368.88143921 396.12127686 367.52706909 394.77163696 366.14730835 C 393.27139282 364.85110474 391.49807739 363.72622681 389.63723755 362.83950806 C 387.81713867 362.05401611 385.84918213 361.60971069 383.87551880 361.83090210 C 381.70538330 362.65621948 379.24761963 363.78036499 376.25833130 364.53890991 C 372.91113281 365.07061768 369.43237305 365.49371338 365.70617676 365.82153320 C 361.92263794 366.33297729 358.06372070 366.57943726 354.39062500 366.55432129 C 350.81536865 366.36679077 347.65661621 365.79382324 344.70932007 364.89041138 C 342.10815430 364.09329224 339.98431396 363.22970581 338.64819336 362.35324097 C 338.19390869 361.22488403 338.45220947 359.88143921 339.37945557 358.42965698 C 340.89831543 356.96786499 342.82156372 355.72256470 345.04803467 354.85238647 C 347.45004272 354.39715576 349.87591553 354.36654663 352.12451172 354.37268066 C 354.12689209 353.71682739 355.97470093 352.41345215 357.80746460 350.86856079 C 360.00830078 349.47677612 362.52670288 348.22317505 365.25863647 347.05551147 C 368.09222412 346.14001465 371.10647583 345.26281738 374.22970581 344.53616333 C 377.36300659 344.29772949 380.40786743 344.23825073 383.42868042 344.30102539 C 386.43304443 345.03732300 389.15744019 346.34674072 391.79968262 348.06927490 C 394.60137939 349.67001343 397.57028198 351.31216431 400.49963379 352.86343384 C 403.29638672 354.57839966 405.90490723 356.54855347 408.29626465 358.84982300 C 410.66119385 361.10040283 412.87670898 363.66244507 414.75067139 366.50872803 C 416.65484619 369.31961060 418.33905029 372.41482544 399.38726807 369.94906616" stroke-width="1.73518836" fill="rgb(23, 9, 8)" opacity="1.0" stroke="rgb(110, 106, 99)" stroke-opacity="0.8370639" stroke-linecap="round" stroke-linejoin="round"/>
    <path d="M 197.60919189 152.44940186 C 193.96513367 153.96336365 190.34664917 155.45573425 186.89297485 156.80558777 C 183.96498108 158.17391968 181.29708862 159.45091248 178.69444275 159.97244263 C 176.17620850 159.57546997 174.20436096 158.84259033 173.11376953 157.74792480 C 173.37916565 156.40185547 174.85585022 154.76908875 176.77651978 152.41946411 C 178.48220825 148.91610718 180.36241150 145.08357239 182.93560791 141.26806641 C 186.14682007 137.36827087 189.54856873 133.54183960 192.88119507 130.05561829 C 196.24053955 127.15291595 199.59638977 125.06175995 202.15750122 123.49564362 C 203.10705566 121.20981598 202.97734070 118.33206177 202.15411377 115.20209503 C 200.36787415 112.21651459 197.92561340 109.27441406 195.13925171 106.39625549 C 191.87097168 103.86096191 188.30854797 101.69557953 184.93397522 99.47419739 C 181.88745117 97.08982086 178.90571594 95.30111694 176.13865662 94.21822357 C 173.96812439 93.14958954 172.56277466 92.29763794 172.09710693 91.65872192 C 172.72352600 91.22570038 174.25065613 91.19286346 176.33380127 91.81941986 C 179.12197876 92.98062134 182.51942444 94.20218658 186.23036194 95.31266022 C 189.92842102 96.94897461 193.62435913 99.14971924 197.11190796 101.86608124 C 200.53468323 104.74661255 203.75656128 107.91497040 206.76759338 111.18218994 C 209.41186523 114.52098083 211.64070129 117.91812897 213.34101868 121.28627777 C 214.34234619 124.52864075 214.72610474 127.76975250 214.59280396 130.98864746 C 213.94432068 133.88653564 212.91761780 136.60176086 211.51112366 139.21083069 C 210.13139343 141.99981689 208.87454224 144.73950195 197.60919189 152.44940186" stroke-width="1.86538303" fill="rgb(71, 24, 17)" opacity="1.0" stroke="rgb(101, 66, 19)" stroke-opacity="0.5290206" stroke-linecap="round" stroke-linejoin="round"/>
    <path d="M 418.28717041 399.18832397 C 418.45739746 400.51541138 418.51455688 401.86193848 418.31689453 403.34570312 C 417.91397095 404.55163574 417.29089355 405.56808472 416.52188110 406.67605591 C 415.95837402 407.74432373 415.42968750 408.71539307 414.78909302 409.26574707 C 414.07501221 409.63211060 413.41067505 409.73742676 412.94412231 409.73721313 C 412.60192871 409.49856567 412.33117676 409.07308960 412.23049927 408.42108154 C 411.87030029 407.75827026 411.60205078 406.82492065 411.46026611 405.75503540 C 411.46331787 404.70321655 411.44943237 403.76968384 411.53918457 402.87960815 C 411.70364380 402.13046265 412.13504028 401.53497314 412.74786377 400.96038818 C 413.38531494 400.43899536 414.00311279 399.88119507 414.73983765 399.30700684 C 415.25860596 398.57702637 415.77517700 397.71124268 418.28717041 399.18832397" stroke-width="1.79212618" fill="rgb(23, 40, 28)" opacity="1.0" stroke="rgb(127, 146, 103)" stroke-opacity="0.688509" stroke-linecap="round" stroke-linejoin="round"/>
    <path d="M 308.66763306 149.07302856 C 310.84191895 154.39279175 313.17834473 159.64631653 315.28417969 164.69100952 C 317.26452637 169.64929199 318.94335938 174.31820679 319.95837402 178.63455200 C 320.61264038 182.61756897 321.21499634 186.03169250 321.40081787 188.61822510 C 320.67001343 190.40330505 319.51281738 191.45892334 318.20098877 191.61724854 C 316.97100830 190.91105652 316.10998535 189.36077881 315.97695923 186.90585327 C 316.58639526 183.58192444 316.57891846 179.57501221 315.61654663 175.08622742 C 314.35519409 169.95536804 312.72613525 164.60311890 310.71417236 159.25526428 C 308.19857788 154.26336670 305.70510864 149.64753723 303.88589478 145.19779968 C 303.57336426 140.87313843 304.37878418 136.73355103 306.16906738 133.03710938 C 308.89892578 129.71669006 312.21710205 126.82049561 315.56774902 124.04962158 C 318.22009277 120.94969940 319.62481689 117.52165222 319.86871338 113.72819519 C 319.18441772 109.77643585 317.35296631 106.24076080 314.27352905 103.17619324 C 311.00781250 99.96737671 307.81573486 97.02584839 304.95117188 94.69751740 C 303.08737183 93.05210114 303.01745605 91.88037109 304.37921143 91.35675812 C 306.46295166 91.76718140 308.45828247 93.68591309 310.56100464 96.81201172 C 313.57086182 100.14252472 317.47888184 103.18981934 321.72879028 106.11450958 C 325.58639526 109.30269623 329.08148193 112.09960938 331.37600708 114.20235443 C 331.70755005 116.05866241 330.15863037 117.62310791 327.26950073 119.46216583 C 323.94702148 122.68326569 320.06451416 126.74748230 315.64062500 131.41693115 C 310.94403076 136.28005981 306.05041504 141.24696350 308.66763306 149.07302856" stroke-width="1.47307432" fill="rgb(17, 12, 16)" opacity="1.0" stroke="rgb(23, 15, 0)" stroke-opacity="0.46066377" stroke-linecap="round" stroke-linejoin="round"/>
    <path d="M 348.94165039 351.52764893 C 346.61712646 354.60565186 344.04364014 357.31408691 341.24865723 359.66329956 C 338.28887939 361.51922607 335.26321411 362.93432617 332.51226807 364.28045654 C 330.35729980 365.75988770 328.77047729 367.46035767 327.85903931 369.43539429 C 327.54553223 371.56893921 327.75161743 373.54867554 328.62084961 375.47668457 C 329.98898315 377.28347778 331.66217041 378.88751221 333.62237549 380.24984741 C 336.09432983 381.20394897 338.76727295 381.89813232 341.45675659 382.60754395 C 343.97698975 383.11645508 346.32247925 383.65881348 348.24035645 384.35787964 C 349.64242554 384.95220947 350.49011230 385.41888428 350.58801270 385.81777954 C 349.62536621 386.29656982 347.88598633 386.79354858 345.63449097 387.21850586 C 343.02764893 387.80117798 340.03558350 388.30941772 336.87051392 388.95901489 C 333.70092773 389.43914795 330.68817139 389.70822144 327.89270020 389.72857666 C 325.42556763 389.66067505 323.36260986 389.65261841 321.84069824 389.80545044 C 321.03576660 389.55197144 320.97457886 388.86770630 321.20828247 387.66857910 C 321.13891602 385.89132690 321.15136719 383.76113892 321.14617920 381.46014404 C 321.39654541 379.12072754 321.94821167 376.57571411 322.35986328 373.88711548 C 322.35134888 371.16058350 322.59356689 368.38613892 322.95605469 365.65872192 C 323.38894653 362.97036743 323.86547852 360.33673096 324.24258423 357.88516235 C 324.77334595 355.59780884 325.62350464 353.66992188 326.88848877 352.00173950 C 328.68331909 350.90527344 330.90762329 349.89358521 333.28695679 348.80615234 C 335.77954102 347.58328247 338.27368164 346.38055420 348.94165039 351.52764893" stroke-width="1.51616621" fill="rgb(2, 9, 5)" opacity="1.0" stroke="rgb(0, 21, 10)" stroke-opacity="0.5308351" stroke-linecap="round" stroke-linejoin="round"/>
    <path d="M 225.22738647 380.86489868 C 223.54469299 381.74130249 221.86642456 382.69317627 220.00935364 383.34216309 C 218.05789185 384.09494019 216.11396790 384.72595215 214.04252625 385.29763794 C 211.84132385 385.79354858 209.43988037 386.10256958 206.98562622 386.35617065 C 204.52932739 386.72265625 201.97013855 387.16897583 199.31344604 387.71392822 C 196.75247192 388.30334473 194.27107239 388.83871460 191.66360474 389.75296021 C 189.23680115 390.82742310 186.93261719 391.93038940 184.56474304 392.86621094 C 182.27615356 393.74707031 179.93395996 394.60546875 177.62973022 395.32217407 C 175.48159790 395.77014160 173.53657532 396.27667236 171.74121094 396.83895874 C 170.05261230 397.29138184 168.62190247 397.44454956 167.49604797 397.38397217 C 166.72189331 397.27777100 166.40571594 396.98205566 166.43402100 396.43771362 C 166.88642883 395.75375366 167.70895386 394.91247559 169.04054260 394.19479370 C 170.71107483 393.61108398 172.63177490 392.84478760 174.62983704 391.92318726 C 176.36865234 390.61120605 178.09220886 389.07452393 179.93389893 387.57296753 C 181.74568176 386.05029297 183.61732483 384.62939453 185.43545532 383.27536011 C 187.01217651 381.74856567 188.32369995 380.28979492 189.62023926 379.02478027 C 191.10946655 378.17593384 192.75347900 377.82653809 194.63630676 377.95169067 C 196.74519348 377.98818970 198.90107727 378.21752930 201.14288330 378.49468994 C 203.65985107 378.54721069 206.25936890 378.61190796 208.88233948 378.91473389 C 211.45269775 379.47634888 214.16807556 379.87741089 216.90153503 380.15286255 C 219.63221741 380.50244141 222.43664551 380.87365723 225.22738647 380.86489868" stroke-width="1.30165410" fill="rgb(19, 26, 9)" opacity="1.0" stroke="rgb(122, 140, 99)" stroke-opacity="0.8669312" stroke-linecap="round" stroke-linejoin="round"/>
    <path d="M 162.56274414 231.36418152 C 166.77200317 237.92147827 169.00683594 245.30030823 168.97467041 253.80233765 C 168.11424255 263.40423584 167.33285522 273.70440674 166.91772461 284.19778442 C 166.16993713 294.64978027 165.50070190 304.48257446 165.24304199 313.43798828 C 165.18397522 321.45153809 165.15237427 328.05053711 165.73947144 332.90066528 C 166.41990662 335.70797729 165.78678894 336.53137207 163.82583618 335.47476196 C 160.77067566 333.15731812 157.37255859 329.19216919 154.02018738 323.95562744 C 151.04173279 317.57382202 148.82780457 310.15969849 147.54809570 301.96286011 C 146.77323914 293.01492310 146.20988464 283.73120117 145.96040344 274.42669678 C 146.17176819 265.23049927 146.13072205 256.45159912 145.72308350 248.33082581 C 145.52763367 241.13627625 145.32827759 235.26483154 143.69793701 230.73139954 C 140.12524414 227.70060730 136.22567749 225.21043396 133.13052368 222.47839355 C 131.35954285 219.74008179 131.36547852 217.71757507 133.12194824 216.96839905 C 136.05897522 218.27284241 139.56053162 221.27409363 143.54885864 225.19738770 C 148.27914429 228.32659912 153.49835205 230.45828247 158.32171631 231.73207092 C 161.94613647 233.54747009 163.81886292 236.07643127 163.89106750 238.83328247 C 162.42892456 241.15385437 159.63542175 242.79039001 156.34931946 244.27879333 C 153.86206055 246.62992859 152.92742920 250.13395691 152.96273804 254.91503906 C 152.75466919 260.91003418 152.51937866 267.70178223 152.32316589 275.25338745 C 151.88902283 283.26400757 151.72647095 291.43011475 152.77961731 299.63845825 C 155.35685730 308.05038452 158.61000061 316.60263062 162.56274414 231.36418152" stroke-width="1.29503798" fill="rgb(250, 251, 243)" opacity="1.0" stroke="rgb(234, 211, 185)" stroke-opacity="0.7875468" stroke-linecap="round" stroke-linejoin="round"/>
    <path d="M 250.01850891 175.50445557 C 252.09353638 174.82063293 254.03538513 174.06489563 255.74168396 173.17631531 C 257.15432739 172.40345764 258.40594482 172.00856018 259.44277954 172.19064331 C 260.23605347 172.80432129 260.81359863 173.93589783 261.28463745 175.26866150 C 261.90383911 176.80662537 262.51690674 178.37060547 263.09732056 179.77270508 C 263.67864990 181.11784363 263.98034668 182.26800537 263.97088623 183.09414673 C 263.58453369 183.60353088 262.88000488 183.80087280 261.84893799 183.71067810 C 260.57617188 183.49786377 259.09436035 183.22909546 257.53625488 182.93142700 C 255.87762451 182.65405273 254.21159363 182.50987244 252.48956299 182.49606323 C 250.73075867 182.53468323 249.00260925 182.48350525 247.23936462 182.48794556 C 245.43647766 182.41566467 243.60853577 182.30804443 250.01850891 175.50445557" stroke-width="2.00000000" fill="rgb(231, 233, 135)" opacity="1.0" stroke="rgb(224, 214, 117)" stroke-opacity="0.46546102" stroke-linecap="round" stroke-linejoin="round"/>
    <path d="M 330.22238159 224.66674805 C 331.29953003 223.94203186 332.42800903 223.54783630 333.71969604 223.23457336 C 335.21557617 222.49540710 336.80041504 221.76786804 338.27966309 221.05545044 C 339.77807617 220.32667542 341.39242554 219.72447205 342.92843628 218.86816406 C 344.45578003 218.11866760 346.04434204 217.37373352 347.70352173 216.70326233 C 349.46548462 216.30529785 351.15109253 215.99624634 352.81637573 215.74291992 C 354.56646729 215.56964111 356.22744751 215.44187927 357.71688843 215.32412720 C 359.03137207 215.25964355 360.26156616 215.38035583 361.28167725 215.69145203 C 361.86935425 216.12599182 362.26791382 216.50355530 362.54852295 217.06387329 C 362.69714355 217.82943726 362.69641113 218.75025940 362.58477783 219.68013000 C 362.64907837 220.49877930 362.52551270 220.99981689 362.08053589 221.35284424 C 361.20825195 221.41242981 360.22457886 221.49304199 359.14337158 221.81333923 C 357.82052612 222.50541687 356.38088989 223.19917297 354.83331299 223.49508667 C 353.14022827 223.49624634 351.48645020 223.82299805 349.81362915 224.35395813 C 348.07852173 224.51617432 346.41787720 224.68835449 344.86373901 225.22953796 C 343.41888428 225.59873962 342.11297607 225.75515747 340.82666016 225.65016174 C 339.55075073 225.63899231 338.35162354 225.74438477 337.22653198 226.12310791 C 336.06817627 226.46136475 334.94848633 226.73667908 333.91143799 226.69729614 C 333.02142334 226.50798035 332.31124878 226.31513977 331.81741333 226.39440918 C 331.39840698 226.76841736 331.24691772 227.42083740 331.15161133 228.27005005 C 330.97888184 229.26477051 330.69000244 230.31152344 330.22238159 224.66674805" stroke-width="2.00000000" fill="rgb(224, 174, 30)" opacity="1.0" stroke="rgb(43, 14, 8)" stroke-opacity="1.0" stroke-linecap="round" stroke-linejoin="round"/>
    <path d="M 308.64151001 200.59655762 C 309.47186279 200.55998230 310.25149536 200.37049866 311.11996460 200.11186218 C 311.98260498 200.12901306 312.97204590 200.15335083 314.03231812 200.07534790 C 315.05740356 200.12948608 316.11257935 200.14918518 317.21109009 200.14459229 C 318.37042236 200.43994141 319.49227905 200.64555359 320.57202148 200.99763489 C 321.66180420 201.51828003 322.69216919 202.19078064 323.61334229 202.82237244 C 324.45211792 203.47587585 325.29772949 204.17732239 325.99829102 204.98997498 C 326.86935425 205.59056091 327.57089233 206.25961304 328.23471069 206.82228088 C 328.63931274 207.37295532 328.92297363 207.99324036 329.17700195 208.55940247 C 329.17657471 208.93243408 329.04080200 209.13146973 328.70681763 209.38693237 C 328.07135010 209.62168884 327.43789673 209.95138550 326.67160034 210.27520752 C 325.75659180 210.47132874 324.83746338 210.77868652 323.97659302 211.16558838 C 323.04760742 211.28385925 322.09991455 211.24020386 321.01687622 211.10533142 C 319.92300415 210.86015320 318.84078979 210.62858582 317.80529785 210.27374268 C 316.75326538 209.96485901 315.57217407 209.64692688 314.38040161 209.14215088 C 313.41680908 208.62341309 312.48526001 207.92919922 311.60144043 207.35877991 C 310.67230225 206.80894470 309.72308350 206.25823975 308.88583374 205.76570129 C 308.20831299 205.26646423 307.46557617 204.85818481 306.60598755 204.46298218 C 305.85925293 203.99385071 305.31076050 203.51210022 304.82620239 203.09544373 C 304.36367798 202.61917114 303.99771118 202.12234497 303.62695312 201.62910461 C 303.31396484 201.16136169 303.08947754 200.64715576 308.64151001 200.59655762" stroke-width="1.33976388" fill="rgb(246, 247, 250)" opacity="1.0" stroke="rgb(127, 131, 154)" stroke-opacity="0.9084738" stroke-linecap="round" stroke-linejoin="round"/>
    <path d="M 261.00946045 205.51591492 C 263.08828735 205.44613647 265.23284912 205.29669189 267.30245972 205.19728088 C 269.36703491 205.01351929 271.55541992 204.83169556 273.67370605 204.63507080 C 275.80209351 204.62165833 278.00836182 204.60902405 280.17034912 204.45765686 C 282.37033081 204.27243042 284.55215454 204.08349609 286.67346191 204.00256348 C 288.75103760 203.94706726 290.76843262 203.94680786 292.67871094 203.96870422 C 294.48928833 203.97268677 296.05535889 204.11112976 297.54986572 204.43266296 C 298.69775391 204.89492798 299.67608643 205.40000916 300.43258667 205.95819092 C 300.95095825 206.42518616 301.22848511 206.84077454 301.18585205 207.08421326 C 300.69573975 207.30349731 300.00704956 207.46209717 298.99227905 207.52619934 C 297.65771484 207.57774353 296.18481445 207.63064575 294.51766968 207.63009644 C 292.61563110 207.64228821 290.64767456 207.62847900 288.59042358 207.64353943 C 286.41305542 207.60140991 284.24380493 207.47369385 281.99154663 207.35862732 C 279.78591919 207.23023987 277.58782959 207.18650818 275.34600830 207.24188232 C 273.21319580 207.28614807 271.03622437 207.31929016 269.02066040 207.32792664 C 267.02444458 207.29870605 265.10177612 207.30642700 263.28610229 207.30183411 C 261.61029053 207.32194519 259.98150635 207.28773499 258.51400757 207.28683472 C 257.10260010 207.30522156 255.93225098 207.41357422 254.80017090 207.52438354 C 253.84660339 207.52296448 253.09446716 207.55253601 252.50962830 207.48999023 C 252.00267029 207.30932617 251.73641968 206.86515808 251.53402710 206.37390137 C 251.27137756 205.91352844 251.11090088 205.35740662 261.00946045 205.51591492" stroke-width="1.11689019" fill="rgb(194, 112, 45)" opacity="1.0" stroke="rgb(103, 49, 23)" stroke-opacity="0.88597363" stroke-linecap="round" stroke-linejoin="round"/>
    <path d="M 112.59462738 325.16265869 C 110.55810547 325.55056763 108.80725861 326.04064941 107.36203003 326.41717529 C 106.21655273 326.51174927 105.40929413 326.11621094 105.06031036 325.27459717 C 105.26799774 324.17761230 105.66432190 322.76757812 106.32018280 321.02960205 C 107.03212738 319.17605591 107.69628143 317.25592041 108.47766113 315.42514038 C 109.34030151 313.80313110 110.49885559 312.34866333 111.80987549 311.29324341 C 113.08177948 310.35281372 114.19000244 309.44757080 114.98479462 308.56341553 C 115.77317810 308.08004761 116.53885651 308.23828125 117.13989258 308.63903809 C 117.48250580 309.38821411 117.66102600 310.65029907 117.85443115 312.09924316 C 118.33698273 313.65612793 118.94086456 315.34338379 119.53656006 317.14843750 C 120.02572632 319.13876343 120.62191772 321.28335571 112.59462738 325.16265869" stroke-width="1.46410429" fill="rgb(4, 9, 4)" opacity="1.0" stroke="rgb(90, 135, 112)" stroke-opacity="0.78215736" stroke-linecap="round" stroke-linejoin="round"/>
    <path d="M 248.05259705 391.56860352 C 245.70664978 391.86596680 243.44839478 391.83676147 241.36929321 391.65286255 C 239.53131104 391.22814941 238.14721680 390.34222412 237.13768005 389.29440308 C 236.29800415 388.10192871 235.62196350 386.82873535 235.38305664 385.49993896 C 235.22315979 384.26464844 234.90002441 383.31039429 234.51145935 382.48632812 C 234.46228027 381.95596313 234.84329224 381.62896729 235.49815369 381.48217773 C 236.25762939 381.59936523 237.31028748 381.72082520 238.43951416 381.89529419 C 239.68128967 381.95550537 241.00776672 381.90139771 242.49476624 381.89010620 C 244.08085632 382.05722046 245.57580566 382.29037476 247.03404236 382.61636353 C 248.48353577 383.05969238 250.01052856 383.65844727 251.59806824 384.38684082 C 253.16255188 385.39282227 254.70106506 386.52169800 248.05259705 391.56860352" stroke-width="1.62428105" fill="rgb(5, 12, 6)" opacity="1.0" stroke="rgb(107, 128, 75)" stroke-opacity="0.8301043" stroke-linecap="round" stroke-linejoin="round"/>
    <path d="M 246.50277710 419.75762939 C 247.42352295 418.54183960 248.09448242 417.32553101 248.95983887 416.22576904 C 249.96955872 415.45800781 251.02273560 414.85989380 252.23371887 414.39056396 C 253.46249390 414.07104492 254.55859375 413.79376221 255.53153992 413.71173096 C 256.46170044 413.87982178 257.39123535 414.33862305 258.26644897 415.07220459 C 258.81683350 415.95974731 259.25296021 416.96166992 259.52261353 418.12042236 C 259.51116943 419.39929199 259.36352539 420.80648804 259.01101685 422.15850830 C 258.35629272 423.36370850 257.63888550 424.50924683 256.83151245 425.53674316 C 255.78219604 426.31552124 254.49902344 427.01724243 253.08694458 427.56347656 C 251.67640686 427.80368042 250.43197632 427.57412720 248.94342041 426.95175171 C 247.41998291 426.51504517 245.92216492 425.98178101 246.50277710 419.75762939" stroke-width="1.65958333" fill="rgb(7, 11, 11)" opacity="1.0" stroke="rgb(118, 127, 114)" stroke-opacity="0.82599854" stroke-linecap="round" stroke-linejoin="round"/>
    <path d="M 104.54822540 184.17161560 C 105.28853607 182.74661255 105.97157288 181.53041077 106.58049774 180.55619812 C 107.33901978 179.90826416 108.26664734 179.62945557 109.27988434 179.66488647 C 110.27124023 179.96647644 111.08123016 180.59323120 111.80972290 181.58764648 C 112.51042938 182.81265259 113.23444366 184.20935059 113.88384247 185.49737549 C 114.22208405 186.85028076 114.36253357 188.26831055 114.15904999 189.73966980 C 113.81736755 191.06378174 113.22689056 192.27639771 112.52848053 193.36338806 C 111.86617279 194.47309875 111.12313843 195.21600342 110.28802490 195.69503784 C 109.41140747 195.95652771 108.54527283 195.95858765 107.61479950 195.58378601 C 106.78476715 194.89482117 106.07398224 194.01210022 105.36357117 192.89009094 C 104.66104126 191.80096436 103.85770416 190.75112915 104.54822540 184.17161560" stroke-width="1.62351012" fill="rgb(8, 12, 108)" opacity="1.0" stroke="rgb(72, 116, 177)" stroke-opacity="0.78819275" stroke-linecap="round" stroke-linejoin="round"/>
    <path d="M 92.37910461 278.16879272 C 92.90135956 277.16693115 93.50160217 276.33306885 94.24681854 275.70794678 C 94.94442749 275.50683594 95.77574158 275.62396240 96.58002472 276.07568359 C 97.37312317 276.73901367 98.11973572 277.51785278 98.68447876 278.58435059 C 99.01133728 279.88470459 99.42022705 281.15844727 99.82899475 282.47100830 C 100.09619904 283.83554077 100.22736359 285.32504272 100.20721436 286.71179199 C 100.08516693 287.94995117 99.83348083 288.98120117 99.64455414 289.76184082 C 99.43888092 290.22503662 99.01505280 290.33636475 98.41944122 290.02914429 C 97.64380646 289.49853516 96.60118866 288.96627808 95.46649933 288.37606812 C 93.96447754 287.73275757 92.49842072 286.85900879 91.11614990 285.77050781 C 89.76590729 284.44787598 88.31398773 283.00827026 92.37910461 278.16879272" stroke-width="1.53856528" fill="rgb(7, 75, 55)" opacity="1.0" stroke="rgb(75, 158, 139)" stroke-opacity="0.7678886" stroke-linecap="round" stroke-linejoin="round"/>
    <path d="M 107.38624573 369.11328125 C 105.75566864 370.20974731 104.25428772 370.82086182 102.65184021 370.74404907 C 100.85753632 369.85031128 99.04847717 368.19610596 97.18348694 366.07897949 C 95.57710266 363.66687012 94.24161530 361.02301025 92.70832062 358.68072510 C 90.73397827 356.90731812 88.62048340 355.55902100 86.58068085 354.61145020 C 84.99226379 353.81015015 84.03344727 353.10147095 84.03362274 352.53610229 C 85.06180573 352.15216064 86.75827026 351.43435669 88.58547211 350.19625854 C 90.22229767 348.33624268 91.65634155 346.01684570 92.97841644 343.42456055 C 94.12554169 340.83087158 95.32777405 338.53356934 97.15744019 336.98104858 C 100.04644012 336.51184082 103.65851593 336.85662842 107.78823853 338.28665161 C 112.41292572 340.47637939 117.01139069 343.29339600 121.50281525 346.28649902 C 125.59089661 349.10385132 128.29946899 352.30322266 129.58572388 355.89816284 C 129.58126831 359.47055054 130.24526978 362.20483398 132.40687561 363.76004028 C 136.39559937 364.20498657 141.63505554 363.90322876 147.74313354 363.21917725 C 154.05537415 361.90325928 160.13336182 359.99832153 165.81895447 358.61254883 C 170.99468994 358.53131104 175.19905090 359.69558716 177.80661011 361.69506836 C 178.51771545 364.18716431 177.29011536 366.51419067 173.71878052 368.15954590 C 168.20277405 368.91577148 161.26734924 368.99743652 153.61233521 369.03109741 C 145.70672607 369.18075562 138.28746033 369.78048706 131.75788879 371.00836182 C 126.71833801 372.88702393 123.26692963 374.14025879 121.45262146 373.43600464 C 120.90723419 370.42059326 120.89408112 366.46954346 107.38624573 369.11328125" stroke-width="1.35956013" fill="rgb(16, 6, 4)" opacity="1.0" stroke="rgb(0, 20, 0)" stroke-opacity="0.56287634" stroke-linecap="round" stroke-linejoin="round"/>
    <path d="M 304.32202148 440.08679199 C 305.62500000 439.82003784 306.84878540 439.53463745 308.06597900 439.22921753 C 309.16107178 438.91635132 310.18356323 438.61724854 311.05712891 438.29388428 C 311.88812256 438.09475708 312.50759888 437.90887451 313.00735474 437.88259888 C 313.38400269 437.88711548 313.56582642 438.01391602 313.57791138 438.28067017 C 313.41867065 438.56747437 313.11654663 438.87847900 312.62945557 439.30206299 C 312.02566528 439.73208618 311.34240723 440.18969727 310.56497192 440.73962402 C 309.74295044 441.34817505 308.94223022 441.98034668 308.09399414 442.75375366 C 307.21307373 443.47326660 306.38876343 444.23162842 305.45892334 445.02560425 C 304.51651001 445.68472290 303.54837036 446.40048218 302.53585815 447.02386475 C 301.49307251 447.64874268 300.46817017 448.26394653 304.32202148 440.08679199" stroke-width="2.00000000" fill="rgb(223, 242, 221)" opacity="1.0" stroke="rgb(232, 246, 234)" stroke-opacity="0.90561056" stroke-linecap="round" stroke-linejoin="round"/>
  </g>
</svg>
