<svg xmlns="http://www.w3.org/2000/svg" viewBox="0 0 512 512" height="512.0px" width="512.0px">
<path id="" fill="rgb(250, 252, 244)" fill-opacity="1.0" stroke="rgb(245, 238, 0)" stroke-width="2.0" stroke-opacity="1.0" stroke-linecap="round" stroke-linejoin="round"  filling="0" d="M507.556000 431.357666 C507.552826 454.279572 506.408020 471.416260 501.235168 483.555206 C496.062317 495.694153 486.861450 502.835266 470.746094 505.766022 C454.630707 508.696777 431.600891 507.417175 398.770142 502.714569 C373.038605 503.107056 351.373230 503.246948 330.619690 503.279266 C309.866150 503.311584 290.024445 503.236359 267.940155 503.198608 C245.855896 503.160889 221.529083 503.160645 191.805359 503.342957 C162.530289 502.574249 137.750687 503.328552 116.041023 504.114685 C94.331360 504.900848 75.691643 505.718872 58.696350 505.077606 C41.701057 504.436340 26.350195 502.335754 11.218246 497.284729 C9.108312 479.158325 8.476527 459.196289 8.536049 437.580505 C8.595572 415.964722 9.346401 392.695221 10.001696 367.953888 C10.656991 343.212555 11.216751 316.999390 10.894135 289.496338 C10.519771 263.394470 10.710902 241.208969 10.805028 220.401199 C10.899155 199.593414 10.896276 180.163361 10.133891 159.572342 C9.371506 138.981323 7.849615 117.229332 4.905716 91.777710 C4.013052 65.379768 6.525411 45.235840 12.838393 30.831509 C19.151377 16.427176 29.264982 7.762444 43.574810 4.322901 C57.884636 0.883358 76.390686 2.669006 99.488556 9.165436 C125.489952 9.111918 146.300690 8.646632 165.729065 8.106411 C185.157440 7.566191 203.203476 6.951036 223.675476 6.597782 C244.147461 6.244527 267.045410 6.153172 296.177612 6.660553 C326.025574 7.960775 351.652802 7.301046 374.608734 6.348533 C397.564667 5.396020 417.849304 4.150723 437.012177 4.279809 C456.175018 4.408895 474.216064 5.912364 492.684814 10.457382 C501.292145 27.580023 505.284698 46.102196 506.784973 66.183037 C508.285248 86.263870 507.293243 107.903374 505.931427 131.260666 C504.569641 154.617966 502.838013 179.693054 502.859131 206.645081 C502.693481 230.596542 503.211517 250.039673 503.958740 269.821686 C504.705963 289.603699 505.682373 309.724548 506.433411 335.031494 C507.184448 360.338440 507.710144 390.831421 507.556000 431.357666"></path>
<path id="" fill="rgb(6, 6, 6)" fill-opacity="1.0" stroke="rgb(48, 17, 58)" stroke-width="0.66208816" stroke-opacity="1.0" stroke-linecap="round" stroke-linejoin="round"  filling="0" d="M360.133514 335.915436 C355.958527 341.321289 351.927399 345.390778 346.942627 348.665375 C341.957855 351.939972 336.019440 354.419678 328.029907 356.645996 C320.040344 358.872314 309.999634 360.845245 296.810303 363.106293 C286.062256 363.567352 277.040009 363.755676 268.780365 363.756134 C260.520752 363.756592 253.023712 363.569244 245.326080 363.278961 C237.628448 362.988647 229.730225 362.595459 220.668213 362.184265 C208.089828 361.190247 198.331985 360.499115 190.069168 359.396210 C181.806366 358.293335 175.038589 356.778687 168.440338 354.137634 C161.842087 351.496582 155.413361 347.729126 147.828629 342.120605 C140.195129 330.737732 135.519196 323.349670 132.447647 317.087860 C129.376099 310.826050 127.908928 305.690491 126.692978 298.812622 C125.477028 291.934723 124.512283 283.314514 122.445587 270.083435 C122.869827 261.390259 122.430428 251.152527 122.143585 241.076202 C121.856750 230.999878 121.722473 221.084976 122.756958 213.037415 C123.791451 204.989868 125.994705 198.809662 130.382919 196.202728 C140.249496 194.614197 147.278336 193.563004 153.470444 192.825043 C159.662567 192.087097 165.017960 191.662399 171.537674 191.326859 C178.057373 190.991318 185.741394 190.744934 196.590759 190.363632 C207.445877 190.270706 215.791504 190.175415 223.432678 190.113815 C231.073853 190.052216 238.010559 190.024323 246.047867 190.066193 C254.085159 190.108063 263.223022 190.219696 275.266541 190.437164 C284.892853 190.292542 293.113922 190.150925 301.169891 190.233643 C309.225830 190.316345 317.116669 190.623367 326.082428 191.376022 C335.048218 192.128677 345.088928 193.326965 357.444641 195.192169 C369.662354 198.224060 376.458099 200.947739 380.123749 204.803528 C383.789368 208.659302 384.324890 213.647186 384.022156 221.207489 C383.719421 228.767776 382.578430 238.900482 382.891052 253.045929 C382.458679 257.934479 381.859222 264.996948 380.561035 273.499115 C379.262848 282.001312 377.265930 291.943237 374.038544 302.590668 C370.811188 313.238129 366.353394 324.591125 360.133514 335.915436"></path>
<path id="" fill="rgb(116, 66, 51)" fill-opacity="1.0" stroke="rgb(169, 121, 87)" stroke-width="2.0" stroke-opacity="1.0" stroke-linecap="round" stroke-linejoin="round"  filling="0" d="M350.187805 325.632629 C345.559631 331.461823 341.919220 335.681213 338.177765 339.173035 C334.436279 342.664886 330.593750 345.429169 325.561340 348.348145 C320.528931 351.267120 314.306641 354.340759 305.805664 358.451355 C296.508484 362.529266 287.950012 364.877563 279.849396 366.035278 C271.748779 367.192993 264.106018 367.160156 256.640289 366.475708 C249.174530 365.791260 241.885773 364.455261 234.493134 363.006653 C224.872360 360.470581 216.830734 358.198639 209.699860 355.882202 C202.568970 353.565796 196.348846 351.204895 190.371063 348.490906 C184.393280 345.776947 178.657837 342.709900 172.496368 338.981171 C162.444443 331.425446 155.679749 325.939575 150.924622 320.851532 C146.169495 315.763489 143.423965 311.073303 141.410355 305.108978 C139.396759 299.144684 138.115082 291.906250 136.287720 281.721771 C136.710022 273.777954 136.030090 266.444183 135.326797 259.460724 C134.623505 252.477264 133.896851 245.844147 134.225708 239.301697 C134.554565 232.759232 135.938934 226.307434 139.457672 219.686615 C152.326950 213.906250 159.208160 210.603775 163.920471 208.599655 C168.632782 206.595520 171.176178 205.889755 175.369812 205.302780 C179.563477 204.715805 185.407379 204.247620 196.720688 202.718704 C206.564682 201.896744 214.329529 201.593140 221.129974 201.919067 C227.930420 202.244995 233.766479 203.200439 239.752899 204.896606 C245.739319 206.592758 251.876114 209.029633 259.278046 212.318420 C268.752960 213.952866 277.195282 215.840240 285.149902 217.652512 C293.104523 219.464783 300.571411 221.201981 308.095428 222.536072 C315.619446 223.870148 323.200623 224.801147 331.383728 225.001007 C340.217316 224.615738 348.068359 223.252335 354.398956 222.965271 C360.729553 222.678207 365.539734 223.467484 368.291473 227.387558 C371.043213 231.307648 371.736572 238.358551 369.833618 250.594727 C369.768494 258.510529 369.660858 265.785706 368.847321 273.201447 C368.033752 280.617188 366.514282 288.173523 363.625519 296.651672 C360.736725 305.129791 356.478638 314.529724 350.187805 325.632629"></path>
<path id="" fill="rgb(238, 239, 239)" fill-opacity="1.0" stroke="rgb(17, 13, 20)" stroke-width="2.0" stroke-opacity="1.0" stroke-linecap="round" stroke-linejoin="round"  filling="0" d="M327.548401 229.986343 C321.783600 231.747162 314.274902 232.811478 304.905945 233.473709 C295.536926 234.135941 284.307648 234.396118 271.101624 234.548660 C261.184418 234.756760 251.425781 234.827286 241.063370 234.173859 C230.700943 233.520447 219.734741 232.143066 207.402344 229.455368 C192.632004 228.738373 182.422028 226.300247 176.125656 224.608612 C169.829300 222.916992 167.446533 221.971832 168.330643 224.240768 C168.655640 234.801270 169.944550 244.816147 170.291138 255.355667 C170.637711 265.895172 170.041946 276.959320 166.597565 289.618347 C160.991806 295.091339 158.688278 289.804138 158.230347 280.732758 C157.772430 271.661377 159.160095 258.805817 160.936737 249.142120 C163.228409 233.707855 162.636108 224.480377 163.649734 219.411957 C164.663361 214.343552 167.282898 213.434189 175.998260 214.636154 C192.204895 216.826355 201.964920 217.484665 211.173843 217.816818 C220.382767 218.148956 229.040588 218.154922 243.042847 219.040405 C255.167572 218.090729 265.757599 218.415787 276.042297 218.387131 C286.327026 218.358475 296.306396 217.976105 307.209869 215.611603 C314.019775 214.112671 317.115601 217.071625 320.351074 220.373260 C323.586517 223.674896 326.961609 227.319214 334.329956 227.191086 C343.658234 219.854706 347.383789 217.606094 346.066803 218.665283 C344.749817 219.724472 338.390320 224.091476 327.548401 229.986343"></path>
<path id="" fill="rgb(2, 6, 9)" fill-opacity="1.0" stroke="rgb(84, 84, 45)" stroke-width="0.69026524" stroke-opacity="1.0" stroke-linecap="round" stroke-linejoin="round"  filling="0" d="M379.984833 325.007477 C375.435608 324.183838 370.321564 324.320374 365.781464 324.222260 C361.241394 324.124146 357.275269 323.791382 355.021973 322.029144 C358.721069 318.355957 363.674255 315.451324 368.575317 312.133728 C373.476349 308.816101 378.325256 305.085510 381.815887 299.760284 C386.120911 293.838623 388.375427 288.437866 389.662964 282.841217 C390.950470 277.244568 391.270996 271.452026 391.708038 264.746765 C391.759521 257.942993 391.787598 252.096497 391.249542 247.610611 C390.711487 243.124725 389.607330 239.999451 387.394318 238.638214 C387.787231 242.539078 385.063049 242.485626 381.918518 239.820190 C378.773956 237.154770 375.209015 231.877380 373.920380 225.330383 C375.641052 222.644974 377.442444 222.780090 379.684631 223.317719 C381.926849 223.855316 384.609863 224.795425 388.093811 223.719971 C394.803833 221.417938 400.927948 222.951263 405.798523 226.576172 C410.669128 230.201096 414.286194 235.917603 415.982117 241.981949 C418.178772 247.512848 419.375000 251.878342 420.083313 256.941986 C420.791626 262.005646 421.012024 267.767456 421.257080 276.091003 C421.643372 280.324951 420.910614 285.572571 418.833313 290.963745 C416.756012 296.354858 413.334167 301.889526 408.342285 306.697510 C405.164856 311.307861 401.109070 316.103943 396.330841 319.638123 C391.552643 323.172333 386.052002 325.444641 379.984833 325.007477"></path>
<path id="" fill="rgb(243, 254, 253)" fill-opacity="1.0" stroke="rgb(113, 196, 255)" stroke-width="0.78105426" stroke-opacity="1.0" stroke-linecap="round" stroke-linejoin="round"  filling="0" d="M387.153137 308.483063 C385.797546 309.156158 382.811462 311.019653 381.318207 311.803131 C379.824951 312.586609 379.824524 312.290009 384.440308 308.642914 C387.475739 305.625610 389.931030 303.071869 392.020721 300.400635 C394.110413 297.729431 395.834534 294.940735 397.407593 291.453644 C398.111694 287.243225 398.714691 284.237762 399.089233 281.119232 C399.463806 278.000671 399.609863 274.769043 399.400085 270.106354 C399.280029 266.313110 399.614044 263.184875 399.407867 260.013000 C399.201691 256.841125 398.455353 253.625565 396.174622 249.657623 C395.043762 246.338409 392.992706 244.546494 390.962311 243.418549 C388.931915 242.290619 386.922180 241.826691 385.874023 241.163452 C387.213745 239.755859 388.619568 238.733063 390.444641 237.947586 C392.269714 237.162125 394.514038 236.613983 397.530640 236.155701 C401.832581 237.881836 403.513397 239.014847 404.464264 241.365799 C405.415131 243.716751 405.636047 247.285645 407.018158 253.883530 C407.769226 258.978699 407.918427 262.694977 407.800110 266.175690 C407.681763 269.656433 407.295898 272.901611 406.976746 277.054565 C406.543274 281.057709 406.038605 284.183655 405.057037 287.170685 C404.075470 290.157745 402.617035 293.005890 400.276031 296.453461 C398.671417 299.580933 396.871643 301.276001 394.732544 302.845367 C392.593445 304.414734 390.115021 305.858398 387.153137 308.483063"></path>
<path id="" fill="rgb(157, 25, 92)" fill-opacity="1.0" stroke="rgb(215, 75, 79)" stroke-width="0.94688737" stroke-opacity="1.0" stroke-linecap="round" stroke-linejoin="round"  filling="0" d="M199.624054 148.811340 C199.330292 150.078171 198.522781 152.068115 197.385178 153.040878 C195.859589 154.196396 194.123932 154.025757 192.600754 155.022263 C191.009705 156.002182 189.564240 155.553589 190.443069 152.814880 C190.753357 151.262955 191.117310 149.515747 191.368256 147.270859 C191.139145 145.498657 191.791611 144.649323 193.993988 143.100616 C195.854965 141.781769 197.233185 141.578659 197.064575 139.592758 C197.042389 137.262085 196.590347 135.922165 198.189957 135.744751 C199.564941 135.821259 199.805099 136.190903 200.667603 137.887741 C201.641891 139.129761 201.588058 141.182434 200.822540 143.059723 C200.341095 145.020386 199.758896 146.111557 199.624054 148.811340"></path>
<path id="" fill="rgb(162, 7, 0)" fill-opacity="1.0" stroke="rgb(229, 108, 49)" stroke-width="0.77397478" stroke-opacity="1.0" stroke-linecap="round" stroke-linejoin="round"  filling="0" d="M261.192841 150.273224 C259.701721 152.992889 258.894684 154.566376 258.408051 156.480713 C257.921387 158.395020 257.755127 160.650177 257.545563 164.733154 C257.646362 167.363312 257.822784 169.989624 257.441528 172.674896 C257.060272 175.360168 256.121338 178.104401 253.991455 180.970383 C251.383942 179.919846 250.369812 178.181412 249.782928 176.087402 C249.196045 173.993378 249.036377 171.543762 248.137772 169.070862 C247.956924 166.012878 248.399536 163.589737 249.077759 161.350494 C249.755981 159.111252 250.669846 157.055908 251.431503 154.733551 C253.136749 151.810547 254.699173 149.244171 256.164673 147.000809 C257.630157 144.757446 258.998718 142.837067 260.316284 141.206039 C262.788727 137.338593 264.235291 135.683044 265.086517 134.307404 C265.937714 132.931778 266.193542 131.836060 266.284546 129.088303 C265.873291 125.640739 264.777374 122.475510 264.198364 119.864326 C263.619354 117.253143 263.557312 115.195999 265.213806 113.964600 C265.559265 115.198563 265.587616 117.436295 266.130890 119.831467 C266.674194 122.226639 267.732391 124.779243 270.137512 126.642960 C272.471252 128.697418 274.456390 129.981186 275.367096 131.477173 C276.277802 132.973175 276.114075 134.681366 274.150146 137.584702 C271.353760 140.261307 269.044220 141.786224 266.968903 143.465607 C264.893555 145.144989 263.052429 146.978821 261.192841 150.273224"></path>
<path id="" fill="rgb(98, 58, 81)" fill-opacity="1.0" stroke="rgb(255, 255, 255)" stroke-width="0.0" stroke-opacity="1.0" stroke-linecap="round" stroke-linejoin="round"  filling="0" d="M308.775940 143.256287 C308.542786 145.120300 308.389587 147.100189 308.609192 149.417999 C308.828796 151.735809 309.421204 154.391556 310.679199 157.607285 C312.003357 159.941162 313.439789 162.376236 314.376404 165.039246 C315.312988 167.702255 315.749817 170.593216 315.074768 173.838867 C313.217316 172.209198 312.559662 170.175217 312.078827 167.910294 C311.598022 165.645386 311.294006 163.149551 310.143799 160.596207 C308.602356 156.820877 307.709869 155.001968 307.287689 153.307404 C306.865509 151.612823 306.913635 150.042587 307.253479 146.764587 C308.708008 142.999542 309.579987 140.078369 310.395142 137.544769 C311.210327 135.011154 311.968658 132.865112 313.195892 130.650314 C315.079834 126.374245 315.970978 124.533493 316.517151 123.002655 C317.063354 121.471817 317.264648 120.250900 317.768890 117.214493 C317.753662 113.395859 317.019867 110.499466 316.986237 108.154716 C316.952606 105.809967 317.619110 104.016846 320.404480 102.404755 C321.280029 103.983383 321.327942 106.173836 321.539215 108.535706 C321.750488 110.897583 322.125122 113.430870 323.654114 115.695175 C325.088501 118.609337 324.907440 120.748703 323.939850 122.711151 C322.972260 124.673599 321.218140 126.459114 319.506348 128.665573 C317.996979 130.441681 315.873810 132.046600 313.848267 134.228882 C311.822693 136.411148 309.894775 139.170776 308.775940 143.256287"></path>
<path id="" fill="rgb(1, 5, 4)" fill-opacity="1.0" stroke="rgb(4, 11, 36)" stroke-width="0.50473994" stroke-opacity="1.0" stroke-linecap="round" stroke-linejoin="round"  filling="0" d="M390.094452 360.217224 C377.695190 359.068451 368.091919 356.943726 358.045746 355.768005 C347.999573 354.592346 337.510559 354.365692 323.339844 357.013123 C316.472809 361.704773 309.231140 365.367615 300.009094 367.566650 C290.787048 369.765686 279.584625 370.500916 264.796021 369.337219 C254.141495 369.516052 243.983994 369.264465 233.334915 368.499939 C222.685852 367.735382 211.545197 366.457886 198.924393 364.584808 C184.980957 361.570374 174.223526 360.655884 164.838501 360.967102 C155.453491 361.278351 147.440872 362.815308 138.987061 364.703857 C121.950485 362.670105 115.101006 358.163208 115.370438 354.391663 C115.639862 350.620148 123.028198 347.583984 134.467255 348.491791 C153.913254 348.667755 163.638687 349.224976 170.695450 350.013824 C177.752197 350.802643 182.140289 351.823059 190.911560 352.925354 C203.407837 356.984985 214.610855 358.782166 225.209946 359.605286 C235.809021 360.428406 245.804169 360.277435 255.884689 360.440735 C272.450500 360.834473 283.180817 360.804749 292.821320 359.555237 C302.461823 358.305695 311.012512 355.836365 323.219177 351.350800 C335.339783 351.222961 345.812317 351.361450 356.131287 352.126099 C366.450226 352.890778 376.615601 354.281677 388.121887 356.658630 C402.266663 360.993896 410.840118 364.369720 411.837219 365.418640 C412.834320 366.467590 406.255066 365.189606 390.094452 360.217224"></path>
<path id="" fill="rgb(104, 104, 96)" fill-opacity="1.0" stroke="rgb(5, 29, 0)" stroke-width="1.36633563" stroke-opacity="1.0" stroke-linecap="round" stroke-linejoin="round"  filling="0" d="M156.612167 351.482391 C158.817108 353.402405 165.677322 355.983887 170.480637 358.647644 C175.283936 361.311401 178.030334 364.057495 172.007614 366.306793 C165.180222 367.657135 159.606613 367.703735 154.216827 367.591278 C148.827057 367.478821 143.621094 367.207306 137.529007 367.921387 C130.648163 368.912567 125.975021 370.682495 123.382332 373.191925 C120.789650 375.701324 120.277420 378.950195 121.718384 382.899261 C120.673637 385.657440 119.076164 385.829681 116.987389 384.257629 C114.898605 382.685577 112.318527 379.369202 109.308563 375.150146 C104.653931 371.463654 101.876907 367.610779 99.248169 364.020782 C96.619431 360.430786 94.138969 357.103699 90.077454 354.468719 C84.317627 352.868103 78.911514 350.972046 75.595154 349.747833 C72.278786 348.523621 71.052170 347.971252 73.651337 349.058044 C78.764030 350.775024 82.648376 352.432007 85.893143 352.103271 C89.137909 351.774536 91.743103 349.460083 94.297485 343.234192 C95.801247 336.884460 97.007317 334.677887 99.101715 335.819092 C101.196121 336.960327 104.178848 341.449280 109.235931 348.490601 C112.717651 352.260803 116.934052 355.354492 121.852684 356.655090 C126.771317 357.955658 132.392181 357.463165 138.682831 354.061035 C144.226746 350.450104 146.536072 348.313416 148.545914 347.825500 C150.555756 347.337555 152.266144 348.498352 156.612167 351.482391"></path>
<path id="" fill="rgb(16, 5, 6)" fill-opacity="1.0" stroke="rgb(0, 19, 30)" stroke-width="0.94844669" stroke-opacity="1.0" stroke-linecap="round" stroke-linejoin="round"  filling="0" d="M258.799622 147.693130 C256.741852 153.002960 255.333878 156.228577 254.359070 159.749557 C253.384247 163.270538 252.842590 167.086914 252.517441 173.578247 C253.241272 180.197250 253.007217 182.216141 251.802765 182.929108 C250.598328 183.642059 248.423508 183.049103 245.265808 184.444366 C244.037994 184.890747 244.930145 182.707611 246.291580 179.172043 C247.653000 175.636490 249.483719 170.748520 250.133057 165.785248 C250.271713 161.206177 250.743546 156.276321 251.911453 151.671631 C253.079376 147.066925 254.943359 142.787415 257.866302 139.509048 C261.497894 138.100845 262.007019 136.129868 261.288513 133.060303 C260.569946 129.990753 258.623749 125.822617 257.344635 120.020111 C255.410553 113.717079 254.507874 110.704926 253.860321 108.476059 C253.212769 106.247192 252.820374 104.801613 251.906860 101.631714 C251.334106 97.452271 250.355820 92.924057 250.179428 88.970573 C250.003052 85.017090 250.628571 81.638351 253.263412 79.757858 C253.487610 83.067039 253.647568 86.341248 254.482224 89.954567 C255.316864 93.567886 256.826202 97.520302 259.749176 102.185898 C260.747498 106.189034 263.087341 110.355415 265.575775 114.375374 C268.064240 118.395332 270.701294 122.268867 272.294067 125.686310 C274.385681 131.055420 272.536469 134.129303 269.402161 137.074829 C266.267853 140.020340 261.848450 142.837494 258.799622 147.693130"></path>
<path id="" fill="rgb(19, 10, 6)" fill-opacity="1.0" stroke="rgb(109, 106, 96)" stroke-width="0.83780372" stroke-opacity="1.0" stroke-linecap="round" stroke-linejoin="round"  filling="0" d="M409.744781 370.983917 C406.463562 371.476135 403.699493 371.202820 401.044403 370.167450 C398.389343 369.132080 395.843262 367.334717 392.998138 364.778748 C391.127747 363.136658 388.846710 362.120026 386.185455 361.962952 C383.524200 361.805908 380.482727 362.508423 377.091492 364.304596 C372.591248 365.556152 369.924438 366.045959 367.342773 366.244507 C364.761108 366.443054 362.264526 366.350342 358.104675 366.436890 C354.591980 366.637787 350.943237 366.350891 347.524506 365.690399 C344.105743 365.029907 340.916992 363.995789 338.324249 362.702179 C334.925598 359.681702 334.587769 357.757568 336.209747 356.551178 C337.831757 355.344757 341.413605 354.856018 345.854340 354.706268 C349.030518 354.038574 351.447784 353.972076 353.541992 353.524353 C355.636230 353.076599 357.407379 352.247681 359.291321 350.055145 C362.656372 347.639099 365.351379 346.524811 368.058533 345.857483 C370.765656 345.190125 373.484924 344.969727 376.898468 344.341492 C381.429413 343.864990 384.087738 344.153503 386.349274 344.954437 C388.610779 345.755402 390.475464 347.068848 393.419159 348.642242 C396.043518 350.037781 398.832489 351.698303 401.520508 353.511536 C404.208527 355.324799 406.795563 357.290771 409.016052 359.297272 C411.934814 362.000488 414.761597 365.076080 415.536377 367.398895 C416.311157 369.721710 415.033936 371.291748 409.744781 370.983917"></path>
<path id="" fill="rgb(66, 21, 16)" fill-opacity="1.0" stroke="rgb(98, 58, 0)" stroke-width="0.93298775" stroke-opacity="1.0" stroke-linecap="round" stroke-linejoin="round"  filling="0" d="M202.385635 150.388931 C199.667404 151.823288 196.700653 152.842590 193.660233 153.941559 C190.619797 155.040558 187.505676 156.219223 184.492706 157.972336 C179.350006 160.358612 176.044556 160.710754 174.969986 159.095108 C173.895416 157.479462 175.051727 153.896027 178.832596 148.411148 C181.445160 143.272919 183.806854 140.099213 186.189896 137.361679 C188.572922 134.624146 190.977280 132.322769 193.675186 128.929230 C198.090363 125.795517 200.749390 124.464272 202.047852 123.063484 C203.346313 121.662689 203.284210 120.192360 202.257126 116.780472 C200.449326 111.593765 197.685974 108.465698 194.424255 105.947403 C191.162521 103.429108 187.402405 101.520584 183.601059 98.772980 C179.336975 95.971649 177.644165 95.093811 176.508270 94.598000 C175.372375 94.102188 174.793381 93.988403 172.756958 92.715179 C171.971161 90.625908 174.176071 90.912689 177.470673 92.036194 C180.765259 93.159698 185.149567 95.119926 188.722534 96.377548 C193.195190 98.903099 195.974197 100.660408 198.358963 102.638947 C200.743713 104.617477 202.734222 106.817238 205.629868 110.227692 C209.319031 114.320938 211.797134 117.616646 213.247345 120.883171 C214.697540 124.149689 215.119843 127.387032 214.697449 131.363541 C212.724213 136.140961 211.452240 139.467270 209.770584 142.314240 C208.088928 145.161194 205.997589 147.528839 202.385635 150.388931"></path>
<path id="" fill="rgb(5, 16, 19)" fill-opacity="1.0" stroke="rgb(96, 119, 60)" stroke-width="0.86139888" stroke-opacity="1.0" stroke-linecap="round" stroke-linejoin="round"  filling="0" d="M418.588684 400.584869 C418.656403 401.350952 418.575592 401.770996 418.333832 403.136597 C418.021545 404.063965 417.761139 404.873199 417.024506 405.730865 C416.478516 406.392090 415.959991 407.116638 415.223938 407.994110 C414.599487 408.721191 414.074707 409.668396 412.958984 409.779388 C412.245422 408.888489 412.327118 408.629974 412.219208 407.065521 C411.978485 405.678741 411.944672 405.951355 411.685120 404.596832 C411.501007 403.429443 411.136322 402.896423 412.092560 402.185120 C413.168884 401.281189 413.265350 401.025513 414.358734 400.020233 C415.408020 399.312744 415.202728 398.976776 416.654510 398.499420 C418.164978 398.609100 418.218750 398.734924 418.588684 400.584869"></path>
<path id="" fill="rgb(12, 7, 8)" fill-opacity="1.0" stroke="rgb(5, 0, 0)" stroke-width="0.87802416" stroke-opacity="1.0" stroke-linecap="round" stroke-linejoin="round"  filling="0" d="M309.078796 149.038132 C310.719299 153.721405 312.328186 157.047333 313.904755 160.534729 C315.481293 164.022110 317.025513 167.670944 318.536652 173.000000 C320.598328 178.499741 321.776062 183.545349 321.888092 187.895447 C322.000092 192.245544 321.046387 195.900116 318.845154 198.617767 C315.098145 196.189774 314.808228 192.864716 315.211243 189.122925 C315.614258 185.381104 316.710266 181.222549 315.735016 177.127533 C315.473511 170.708649 314.922058 166.701538 313.627258 163.242722 C312.332428 159.783920 310.294250 156.873428 307.059296 152.647766 C303.521729 146.999390 302.642944 143.153015 303.551849 139.585541 C304.460754 136.018066 307.157379 132.729492 310.770599 128.196671 C314.855194 122.956467 318.259247 120.438660 320.144287 118.303398 C322.029327 116.168129 322.395386 114.415398 320.403992 110.705338 C316.384277 105.341042 311.358093 101.023590 307.943237 97.652458 C304.528381 94.281326 302.724854 91.856522 305.150513 90.277527 C306.697937 91.518150 308.782013 94.440331 311.502594 97.612427 C314.223206 100.784531 317.580322 104.206551 321.673767 106.446854 C327.651886 109.047997 330.944458 111.662186 331.166901 114.474838 C331.389313 117.287483 328.541565 120.298592 322.239075 123.693573 C318.097229 128.078461 314.067535 131.273315 311.443146 134.942581 C308.818726 138.611862 307.599609 142.755554 309.078796 149.038132"></path>
<path id="" fill="rgb(1, 6, 4)" fill-opacity="1.0" stroke="rgb(0, 24, 12)" stroke-width="0.65344483" stroke-opacity="1.0" stroke-linecap="round" stroke-linejoin="round"  filling="0" d="M337.645721 351.523163 C339.299072 353.218384 340.319366 354.827759 340.224609 356.574860 C340.129822 358.321960 338.920044 360.206818 336.113251 362.453064 C333.675201 363.997742 331.301819 365.648071 329.736206 367.626129 C328.170563 369.604187 327.412659 371.909973 328.205505 374.765503 C329.488342 377.124695 331.309265 378.644714 333.425903 379.735046 C335.542542 380.825378 337.954865 381.485992 340.420532 382.126282 C342.893036 383.375244 345.644714 383.485870 347.523682 383.772766 C349.402649 384.059692 350.408875 384.522949 349.390503 386.477173 C347.702209 386.890564 346.103638 387.141907 344.044617 387.576447 C341.985626 388.010956 339.466187 388.628601 335.936249 389.774536 C333.417542 389.654541 331.338196 389.579468 329.403046 389.656281 C327.467926 389.733093 325.677002 389.961731 323.735107 390.449158 C320.975616 388.811096 320.348267 387.884949 320.435272 386.406189 C320.522308 384.927429 321.323700 382.896057 321.421722 379.047485 C321.503540 376.247009 321.904938 374.586456 322.238159 373.073364 C322.571350 371.560303 322.836365 370.194733 322.645294 367.984222 C323.035889 364.056213 323.325714 362.347107 324.021545 360.725555 C324.717346 359.103973 325.819153 357.569946 327.833618 353.991974 C328.668640 351.504852 330.186005 349.551636 331.962433 348.888214 C333.738861 348.224792 335.774384 348.851135 337.645721 351.523163"></path>
<path id="" fill="rgb(19, 22, 8)" fill-opacity="1.0" stroke="rgb(112, 144, 64)" stroke-width="0.47678337" stroke-opacity="1.0" stroke-linecap="round" stroke-linejoin="round"  filling="0" d="M225.590454 380.146729 C225.143448 381.476929 223.236588 382.614868 220.954437 383.531738 C218.672302 384.448578 216.014862 385.144409 214.066742 385.590393 C211.297363 386.218750 209.143188 386.501160 207.037399 386.774841 C204.931610 387.048523 202.874207 387.313416 200.298401 387.906738 C197.662415 388.094849 195.650742 388.563080 193.722153 389.279327 C191.793564 389.995575 189.948059 390.959839 187.644424 392.140045 C184.785583 393.291870 182.642807 394.107483 180.843674 394.702484 C179.044556 395.297516 177.589081 395.671936 176.104813 395.941315 C174.844818 396.039062 171.988556 396.936768 169.576584 397.359314 C167.164612 397.781860 165.196930 397.729309 165.714081 395.926636 C168.483002 394.170227 169.970139 393.703430 171.333832 393.217987 C172.697540 392.732544 173.937790 392.228424 176.212936 390.397339 C178.690552 388.437347 179.933670 387.294678 181.268738 386.067780 C182.603790 384.840881 184.030792 383.529785 186.876190 381.232941 C188.554474 379.254761 190.076584 378.260376 191.913635 377.869324 C193.750671 377.478271 195.902649 377.690491 198.840622 378.125427 C200.646362 378.058167 202.547913 378.094482 204.745911 378.260193 C206.943909 378.425873 209.438354 378.721008 212.429932 379.171387 C213.997559 379.303894 216.196823 379.713409 218.549622 380.006958 C220.902405 380.300507 223.408722 380.478088 225.590454 380.146729"></path>
<path id="" fill="rgb(250, 247, 241)" fill-opacity="1.0" stroke="rgb(255, 221, 195)" stroke-width="0.49826732" stroke-opacity="1.0" stroke-linecap="round" stroke-linejoin="round"  filling="0" d="M163.670135 283.823730 C167.051331 279.555176 167.717484 278.792572 167.548447 281.584991 C167.379410 284.377411 166.375183 290.724884 166.415649 300.676544 C165.725830 306.426208 165.958679 312.680420 166.004669 318.722015 C166.050674 324.763611 165.909821 330.592621 164.472626 335.491882 C159.602554 333.533142 156.867920 330.211578 154.869370 326.143463 C152.870804 322.075378 151.608337 317.260742 149.682571 312.315979 C148.157990 307.544800 147.246674 303.258362 146.785782 298.547913 C146.324890 293.837494 146.314423 288.703064 146.591522 282.235901 C145.988144 275.584229 145.535507 271.748016 145.394531 267.346680 C145.253571 262.945312 145.424255 257.978790 146.067566 249.066437 C145.157501 243.149124 145.192535 238.924408 144.343979 235.233582 C143.495438 231.542740 141.763306 228.385788 137.318893 224.603989 C138.773346 222.267639 142.493378 224.101471 146.701950 226.415680 C150.910507 228.729889 155.607574 231.524475 159.016068 231.109634 C163.870361 233.342712 163.283142 236.336395 161.027008 240.115753 C158.770859 243.895111 154.845795 248.460129 153.024399 253.835876 C152.934021 260.813782 152.719040 265.089172 152.465271 269.345215 C152.211502 273.601257 151.918945 277.837952 151.673447 284.738403 C152.579239 294.247986 152.633682 298.489288 153.934052 298.118225 C155.234406 297.747131 157.780685 292.763672 163.670135 283.823730"></path>
<path id="" fill="rgb(231, 236, 139)" fill-opacity="1.0" stroke="rgb(255, 233, 184)" stroke-width="0.85953081" stroke-opacity="1.0" stroke-linecap="round" stroke-linejoin="round"  filling="0" d="M249.704575 175.141632 C251.117065 175.196411 253.446747 175.982620 255.313187 174.633575 C256.372406 173.561386 258.235565 170.462708 259.988037 170.343216 C260.768158 172.148102 260.720032 174.089966 262.052063 176.644501 C262.723785 178.967667 264.529755 180.512253 265.593323 181.833679 C265.800568 183.993423 264.256683 184.153748 262.096191 184.559326 C258.008362 184.174866 258.597290 183.832077 256.945374 183.319092 C255.333618 183.780624 254.120010 182.926788 251.853821 182.510773 C249.664581 181.481003 249.080597 183.965561 246.295166 184.318939 C243.974136 183.833572 245.096222 180.793396 245.868607 178.919006 C247.167023 176.202682 246.088974 175.328217 249.704575 175.141632"></path>
<path id="" fill="rgb(234, 186, 30)" fill-opacity="1.0" stroke="rgb(12, 0, 6)" stroke-width="2.0" stroke-opacity="1.0" stroke-linecap="round" stroke-linejoin="round"  filling="0" d="M332.891876 223.630203 C333.550690 223.497498 334.287354 223.232178 335.295715 222.777679 C336.304108 222.323212 337.584229 221.679565 339.329956 220.790283 C340.618988 220.021149 341.446716 219.500137 342.395233 219.003510 C343.343750 218.506866 344.413086 218.034622 346.185364 217.362991 C347.817810 216.806671 348.784058 216.426636 349.819550 216.112137 C350.855042 215.797653 351.959839 215.548737 353.869476 215.254669 C355.062378 215.115128 356.479645 214.980484 357.965515 215.068481 C359.451355 215.156479 361.005859 215.467133 362.473267 216.218155 C363.326233 216.845596 363.656494 217.930283 363.270447 219.013519 C362.884399 220.096741 361.782043 221.178497 359.769745 221.800079 C358.073059 222.268051 357.263184 222.438293 356.463104 222.623642 C355.663025 222.808975 354.872803 223.009430 353.215454 223.537796 C351.937073 223.820938 350.910156 224.043396 349.751587 224.273819 C348.593048 224.504242 347.302856 224.742645 345.497925 225.057663 C344.325653 225.341354 343.349487 225.510376 342.204803 225.635986 C341.060120 225.761581 339.746887 225.843765 337.900513 225.953781 C335.985474 226.076630 334.665894 226.205231 333.488068 226.331039 C332.310272 226.456833 331.274292 226.579834 329.926422 226.691483 C327.881470 226.557114 327.513214 226.159988 328.211029 225.612366 C328.908813 225.064728 330.672668 224.366592 332.891876 223.630203"></path>
<path id="" fill="rgb(240, 241, 251)" fill-opacity="1.0" stroke="rgb(3, 5, 24)" stroke-width="2.0" stroke-opacity="1.0" stroke-linecap="round" stroke-linejoin="round"  filling="0" d="M306.971527 199.889572 C307.318237 199.883179 308.276855 199.775421 309.403992 199.647202 C310.531128 199.518997 311.826721 199.370346 312.847321 199.282181 C314.201477 199.425644 315.354553 199.327209 316.399323 199.341492 C317.444061 199.355789 318.380493 199.482819 319.301331 200.077225 C320.527405 200.595444 321.585205 201.141235 322.541077 201.699753 C323.496918 202.258270 324.350769 202.829498 325.168945 203.398575 C326.551697 204.420044 327.359497 205.027542 328.107300 205.643463 C328.855072 206.259369 329.542847 206.883713 330.685516 207.938858 C331.424316 209.054108 330.937927 209.609940 329.955231 210.040100 C328.972504 210.470261 327.493439 210.774765 326.246826 211.387390 C324.980377 211.759125 324.173187 211.997726 323.449524 212.091095 C322.725891 212.184448 322.085785 212.132553 321.153503 211.923264 C319.916809 211.686035 318.835907 211.448196 317.761597 211.145325 C316.687256 210.842438 315.619568 210.474518 314.409271 209.977097 C313.453186 209.573166 312.445312 209.056778 311.457611 208.479752 C310.469910 207.902725 309.502319 207.265060 308.626862 206.618561 C307.712524 205.993378 306.703979 205.331284 305.700806 204.649887 C304.697632 203.968475 303.699829 203.267776 302.806946 202.565353 C301.677429 201.487427 301.739227 201.005920 302.573059 200.700165 C303.406891 200.394424 305.012787 200.264450 306.971527 199.889572"></path>
<path id="" fill="rgb(165, 94, 37)" fill-opacity="1.0" stroke="rgb(0, 0, 0)" stroke-width="2.0" stroke-opacity="1.0" stroke-linecap="round" stroke-linejoin="round"  filling="0" d="M262.565491 204.735672 C264.577698 204.881592 265.998474 204.824066 267.473999 204.713821 C268.949524 204.603561 270.479797 204.440567 272.711029 204.375534 C274.556580 204.082855 276.286133 203.994812 278.037781 203.950211 C279.789459 203.905609 281.563232 203.904419 283.497284 203.785431 C285.604675 203.615784 287.483063 203.369644 289.239136 203.219437 C290.995178 203.069229 292.628937 203.014954 294.247009 203.229004 C295.825500 203.604568 298.049042 203.995483 299.690887 204.635437 C301.332733 205.275375 302.392883 206.164337 301.644623 207.536011 C299.208374 208.138641 297.259857 208.231110 295.494751 208.206131 C293.729675 208.181168 292.148010 208.038773 290.445496 208.171692 C288.033142 208.131134 286.597412 208.174408 285.371704 208.308609 C284.146027 208.442810 283.130371 208.667908 281.558136 208.991013 C278.912872 209.312286 277.524261 209.267792 276.062622 209.170670 C274.601013 209.073547 273.066345 208.923798 270.129059 209.034592 C268.477295 208.986282 267.087006 208.948792 265.447693 208.934204 C263.808380 208.919617 261.920044 208.927933 259.272125 208.971268 C257.546295 208.885574 255.722382 208.930496 254.185822 208.588318 C252.649246 208.246155 251.400024 207.516876 250.823547 205.882767 C252.611023 204.818802 254.786499 204.510483 256.895081 204.478928 C259.003693 204.447372 261.045441 204.692581 262.565491 204.735672"></path>
<path id="" fill="rgb(2, 9, 5)" fill-opacity="1.0" stroke="rgb(37, 122, 83)" stroke-width="0.63343686" stroke-opacity="1.0" stroke-linecap="round" stroke-linejoin="round"  filling="0" d="M114.379333 324.103729 C112.239349 324.901062 111.996979 325.039825 109.276291 325.774536 C107.563141 325.823120 105.219116 326.997131 105.002258 325.623840 C105.284576 323.493011 105.936218 322.062897 106.376556 320.322418 C107.296448 317.818359 107.675385 317.588440 108.827530 315.076538 C109.765411 313.133270 110.484192 312.357391 111.977005 311.236176 C114.550735 309.460968 113.992020 310.045929 115.810425 308.227234 C117.183777 306.014465 117.226501 308.558350 117.937866 310.946198 C118.288422 312.610046 118.415283 313.574219 119.108444 315.706604 C119.709778 317.748627 120.178772 319.023895 119.304062 320.355591 C117.786636 322.072479 116.172379 323.064697 114.379333 324.103729"></path>
<path id="" fill="rgb(5, 15, 5)" fill-opacity="1.0" stroke="rgb(101, 131, 49)" stroke-width="0.83167678" stroke-opacity="1.0" stroke-linecap="round" stroke-linejoin="round"  filling="0" d="M248.190369 391.475159 C247.893799 391.749359 245.897614 392.352478 244.177322 392.272369 C242.563553 392.209869 240.828934 391.878754 239.342377 391.139160 C237.978226 390.591492 236.759949 389.608582 236.065521 387.802490 C235.530457 386.641083 234.828934 384.323395 234.627090 382.946289 C234.368118 381.131195 236.289291 381.304077 238.480087 381.392334 C240.198898 381.544464 240.580643 381.358856 242.463028 381.747833 C243.906525 382.185547 244.935516 382.295593 246.837708 382.707550 C248.170914 382.829041 249.644180 382.903137 251.498962 384.088379 C252.826782 385.280457 253.619614 385.784027 252.416000 387.912079 C251.553223 389.170929 250.826233 389.844421 248.190369 391.475159"></path>
<path id="" fill="rgb(3, 4, 8)" fill-opacity="1.0" stroke="rgb(70, 85, 68)" stroke-width="0.82902616" stroke-opacity="1.0" stroke-linecap="round" stroke-linejoin="round"  filling="0" d="M246.413498 423.115631 C246.388412 421.392120 246.468536 421.181915 247.123581 419.300201 C247.862534 417.596924 248.033890 417.074890 249.474701 415.985718 C250.828796 415.071075 251.627075 414.801361 253.467850 414.347748 C254.776566 414.181000 256.326569 413.775269 257.672150 414.788055 C258.760132 416.270294 258.784607 416.428314 259.263824 418.701508 C259.145477 420.738464 259.224548 420.345978 258.691864 422.235077 C258.282501 423.020844 257.923492 424.336060 256.711182 425.739044 C255.714935 426.325958 254.835327 426.775726 252.793106 427.369751 C251.829590 427.481415 250.333084 427.643951 248.672546 426.892822 C247.669617 426.225067 246.789215 425.306091 246.413498 423.115631"></path>
<path id="" fill="rgb(1, 6, 106)" fill-opacity="1.0" stroke="rgb(30, 92, 169)" stroke-width="0.8014158" stroke-opacity="1.0" stroke-linecap="round" stroke-linejoin="round"  filling="0" d="M104.501297 184.577728 C104.861725 183.840851 105.475845 182.436905 106.371429 181.387009 C107.150055 180.453964 108.324402 179.795898 109.929718 179.964508 C111.547333 180.255310 112.401840 181.458481 112.823669 182.325958 C113.878418 184.469742 113.795609 184.901031 114.228699 186.607925 C114.471497 189.220566 114.544037 188.853912 113.963562 191.070953 C112.750488 193.309265 113.122131 192.746826 112.096146 194.147339 C111.463425 195.502853 109.795502 196.621399 108.713806 196.144791 C107.152374 195.382690 106.353729 194.471085 105.590836 193.235916 C105.022675 192.364243 104.166946 190.797302 103.993698 189.309174 C103.727325 187.931702 104.078583 187.018890 104.501297 184.577728"></path>
<path id="" fill="rgb(0, 68, 50)" fill-opacity="1.0" stroke="rgb(28, 148, 121)" stroke-width="0.59525192" stroke-opacity="1.0" stroke-linecap="round" stroke-linejoin="round"  filling="0" d="M90.253296 280.364227 C90.438660 280.152649 91.639893 278.165100 92.455811 277.408539 C93.379349 276.186066 94.439575 274.753265 95.885803 275.450500 C97.229828 276.248688 97.805298 276.570496 98.669403 278.418884 C99.311279 279.519104 99.782288 281.395050 99.991135 282.619720 C100.148483 284.100189 100.987427 285.064362 100.955383 286.905304 C100.479919 288.345093 100.094574 288.543427 99.824341 289.922455 C99.519714 291.688110 97.594391 289.660736 96.352524 289.229980 C94.257416 288.044586 94.483826 288.223572 92.532135 287.577576 C90.786407 286.840729 90.143433 285.550781 89.548004 284.732941 C88.376434 283.484863 89.337357 282.491394 90.253296 280.364227"></path>
<path id="" fill="rgb(25, 3, 3)" fill-opacity="1.0" stroke="rgb(0, 5, 1)" stroke-width="1.88939273" stroke-opacity="1.0" stroke-linecap="round" stroke-linejoin="round"  filling="0" d="M108.487686 365.583344 C106.807915 366.027344 105.569000 366.194885 104.279884 366.084564 C102.990768 365.974243 101.651459 365.586060 99.770905 364.918488 C98.060387 362.971069 97.191681 361.210388 96.294151 359.625427 C95.396622 358.040527 94.470276 356.631348 92.644470 355.386902 C90.393753 353.927673 90.452652 352.363525 91.332504 350.829376 C92.212357 349.295258 93.913162 347.791138 94.946274 346.451904 C96.667175 344.761475 97.463692 343.440033 98.350273 342.434357 C99.236847 341.428650 100.213493 340.738739 102.294647 340.311371 C104.436462 340.508423 106.087036 340.995605 107.789398 341.681000 C109.491753 342.366394 111.245888 343.249939 113.594818 344.239685 C116.546234 346.614136 117.781219 347.548645 118.654243 348.220154 C119.527267 348.891663 120.038338 349.300110 121.541916 350.622437 C122.805397 352.196167 123.930176 353.927765 124.764618 355.706390 C125.599060 357.484985 126.143166 359.310608 126.245316 361.072357 C126.349327 363.174377 127.492393 364.143860 128.516663 364.990417 C129.540924 365.836975 130.446411 366.560669 130.075226 368.171143 C128.257477 369.479034 126.864716 369.362518 125.309151 368.715820 C123.753586 368.069153 122.035225 366.892303 119.566269 366.079529 C117.354134 364.959473 116.021622 364.331970 114.523582 364.236176 C113.025543 364.140411 111.361961 364.576416 108.487686 365.583344"></path>
<path id="" fill="rgb(223, 244, 226)" fill-opacity="1.0" stroke="rgb(255, 255, 255)" stroke-width="0.20036221" stroke-opacity="1.0" stroke-linecap="round" stroke-linejoin="round"  filling="0" d="M302.042664 440.722839 C302.708771 440.087585 303.839569 439.671753 305.702545 439.093811 C307.356659 438.595306 308.746429 438.018433 310.301544 437.144745 C311.787933 436.296967 312.957031 434.924622 314.692230 435.260864 C316.003662 435.753876 317.098724 436.541138 317.522064 438.307098 C316.623352 440.650940 315.704193 440.696899 314.127563 441.047546 C311.529114 441.506195 311.925537 441.087341 309.999786 441.970306 C308.655334 442.809814 307.826050 444.045166 307.422546 445.954254 C307.062256 446.744751 306.097656 447.189178 304.515106 447.750916 C302.687561 448.006744 301.089233 446.959869 300.783875 445.428040 C300.387970 443.874939 300.797699 442.712982 302.042664 440.722839"></path>
</svg>