<?xml version="1.0" ?>
<svg xmlns="http://www.w3.org/2000/svg" version="1.1" width="512" height="512" viewBox="0 0 512 512">
  <defs/>
  <g>
    <path d="M 507.73229980 498.23803711 C 497.95568848 501.71487427 488.00930786 504.36227417 477.48980713 506.21133423 C 466.14859009 506.93035889 453.82888794 506.92306519 440.32504272 505.67916870 C 425.33038330 505.48394775 408.76553345 505.72808838 390.78057861 505.45721436 C 371.35687256 503.99731445 350.44055176 503.36929321 328.00024414 503.65246582 C 304.39404297 503.65719604 279.85583496 503.70553589 254.60015869 503.62677002 C 229.01568604 503.56256104 203.35791016 503.70037842 177.90818787 503.59179688 C 152.92855835 503.55932617 128.84591675 503.60211182 105.97265625 503.75381470 C 84.60304260 504.98452759 65.18000031 505.79443359 47.94933319 505.76046753 C 33.12947083 505.37173462 21.13930130 503.17666626 12.43905640 497.53970337 C 7.18903160 487.38925171 4.36103916 473.27206421 3.26722002 455.83166504 C 3.41251969 435.75134277 3.37231541 413.46810913 3.33095431 389.61901855 C 5.14317131 364.61209106 8.27308083 338.62979126 10.28389645 311.85794067 C 10.49075317 284.52227783 10.40103340 256.82077026 10.28328037 229.09111023 C 8.84851170 201.87838745 6.57894945 175.51484680 4.50233459 150.29895020 C 4.15836430 126.31266022 4.20603609 103.74192047 4.36179256 82.89031982 C 5.70668697 64.13320923 8.51201534 47.47965622 13.04860401 33.10491943 C 19.98201180 21.44690514 28.85213661 12.22110176 39.74961853 5.79096460 C 53.44644165 2.53939152 69.69169617 2.02279592 88.26335144 2.47162008 C 108.90943909 2.30546856 131.28657532 2.32368803 155.18998718 2.37477183 C 180.35641479 2.30284309 206.30099487 2.34429383 232.72595215 2.37770343 C 259.31826782 2.31542778 286.01727295 2.20678115 312.34875488 2.55243516 C 338.11041260 3.93208814 363.04971313 3.69002867 387.00042725 2.37754059 C 409.83117676 2.36964893 431.11544800 2.37523198 450.39440918 2.31641412 C 467.33200073 3.21433926 481.48248291 6.16103077 492.62115479 12.05018616 C 500.30770874 21.27415466 505.27017212 33.69625092 508.30203247 48.81939697 C 509.89294434 66.13444519 509.92083740 85.37138367 509.69564819 106.35232544 C 509.75765991 128.86083984 508.76361084 152.42808533 506.63446045 176.84736633 C 504.33438110 201.98445129 502.79846191 227.69413757 502.42132568 253.62619019 C 502.73974609 279.69107056 504.79577637 305.73458862 507.48757935 331.61608887 C 507.97470093 357.52886963 507.49838257 383.41305542 507.73229980 498.23803711" stroke-width="2.00000000" fill="rgb(250, 252, 243)" opacity="1.0" stroke="rgb(248, 238, 0)" stroke-opacity="0.3576364" stroke-linecap="round" stroke-linejoin="round"/>
    <path d="M 359.28665161 335.88830566 C 355.72549438 340.96231079 351.89340210 345.70855713 347.35528564 349.63754272 C 341.94757080 352.41848755 335.54287720 354.37994385 328.33798218 355.70254517 C 320.59976196 356.74755859 312.36251831 357.77935791 303.54049683 358.70068359 C 294.30090332 359.52386475 284.78088379 360.24212646 275.01940918 360.92257690 C 265.05902100 361.51086426 255.00119019 361.91519165 244.86305237 362.16900635 C 234.82667542 362.27191162 224.88151550 362.16293335 215.11932373 362.06481934 C 205.61924744 361.87307739 196.45260620 361.52978516 187.63327026 360.92694092 C 179.32978821 360.28167725 171.60588074 359.01632690 164.58927917 356.80517578 C 158.35673523 353.48672485 152.87831116 348.99765015 148.22470093 343.17242432 C 144.30973816 336.04522705 139.48783875 328.81088257 134.56138611 321.13333130 C 130.28555298 312.81121826 127.27643585 303.61462402 125.21605682 293.76934814 C 123.20028687 283.66226196 122.40434265 273.24365234 122.67922211 262.68832397 C 122.68589783 252.11772156 122.52877808 241.87258911 122.26587677 232.06488037 C 122.05511475 223.00028992 122.37626648 214.89880371 122.90017700 208.07873535 C 124.02879333 202.67053223 126.33860016 198.88975525 129.86021423 196.69163513 C 134.21958923 195.70359802 139.18527222 195.12380981 144.40846252 193.97805786 C 150.05892944 192.51672363 156.35069275 191.89991760 163.39822388 191.83312988 C 171.10221863 191.70620728 179.32202148 191.18223572 188.04873657 190.55950928 C 197.34713745 190.14347839 206.91850281 190.09042358 216.64295959 190.21279907 C 226.34339905 189.54312134 236.23603821 189.50508118 246.43336487 190.71691895 C 257.13406372 190.88269043 268.13482666 190.66569519 279.44845581 190.68722534 C 290.94042969 190.26556396 302.42587280 189.55311584 313.79977417 188.89369202 C 325.26467896 190.25540161 336.59207153 191.78779602 347.39453125 193.61413574 C 357.46566772 195.93632507 366.49264526 198.36288452 374.16705322 201.26043701 C 380.52554321 204.05885315 385.10260010 206.32420349 387.33300781 208.60859680 C 386.28869629 212.05239868 383.58163452 216.33906555 381.10009766 221.57728577 C 380.89736938 227.35414124 382.23098755 234.11318970 383.38851929 241.79626465 C 382.80633545 250.41114807 382.57791138 259.86248779 381.63092041 269.99444580 C 379.89520264 280.66555786 377.25122070 291.73162842 373.70156860 302.79168701 C 371.00555420 314.03677368 368.67672729 325.56646729 359.28665161 335.88830566" stroke-width="1.41678131" fill="rgb(7, 4, 5)" opacity="1.0" stroke="rgb(113, 95, 115)" stroke-opacity="0.8263838" stroke-linecap="round" stroke-linejoin="round"/>
    <path d="M 350.44335938 327.92095947 C 346.52722168 332.93942261 342.49240112 337.85107422 338.07202148 342.41113281 C 333.35440063 346.77276611 328.39624023 350.74435425 322.98217773 354.28955078 C 317.05532837 357.33862305 310.68188477 359.80139160 303.99081421 361.85498047 C 296.98898315 363.58346558 289.65100098 364.97012329 282.05654907 366.03179932 C 274.26409912 366.82839966 266.33779907 367.38513184 258.28067017 367.76580811 C 250.20591736 367.88961792 241.99028015 367.34213257 233.77893066 366.09805298 C 225.54946899 364.46853638 217.27723694 362.29760742 209.00500488 359.76550293 C 200.88406372 356.78811646 192.92681885 353.20428467 185.34225464 348.95672607 C 178.08938599 343.83633423 170.59336853 339.25790405 162.94174194 334.84655762 C 156.10614014 329.55383301 149.90972900 323.69763184 144.66813660 317.02999878 C 141.03788757 309.50180054 138.32910156 301.30758667 136.01277161 292.70437622 C 134.17590332 283.96057129 133.49713135 274.86981201 133.58741760 265.67990112 C 133.50205994 256.65087891 133.31719971 248.01377869 133.50640869 239.99369812 C 133.61422729 232.74295044 133.34719849 226.46562195 132.17381287 221.63392639 C 131.18003845 218.40795898 131.41735840 216.70730591 133.20278931 216.62469482 C 136.51649475 217.85215759 141.04798889 218.35176086 146.18164062 217.18704224 C 151.60073853 213.24328613 158.14888000 208.90122986 165.64680481 205.10652161 C 174.07360840 202.85603333 183.16798401 201.81706238 192.41593933 200.73083496 C 201.46379089 199.99815369 210.22425842 199.89653015 218.48652649 200.24597168 C 226.18354797 200.10511780 233.01985168 199.82412720 238.76092529 200.89730835 C 243.35253906 204.81327820 246.89506531 210.74473572 250.08146667 217.45634460 C 255.44316101 222.65763855 262.65490723 226.59706116 271.26116943 229.60812378 C 280.99633789 231.76910400 291.38809204 233.03489685 301.98101807 233.60520935 C 312.44030762 233.04885864 322.89218140 231.32568359 332.96600342 229.22416687 C 342.31918335 226.95024109 350.89486694 225.01486206 358.42251587 223.77406311 C 364.77548218 223.23886108 369.58029175 223.60043335 372.48706055 224.78871155 C 372.99420166 227.47741699 372.55068970 231.42710876 372.32766724 236.57536316 C 372.43167114 242.90293884 372.43658447 250.23905945 372.30264282 258.23001099 C 371.68637085 266.54846191 370.61489868 275.27014160 368.88021851 284.34262085 C 367.18313599 293.58251953 365.73535156 303.11352539 350.44335938 327.92095947" stroke-width="2.00000000" fill="rgb(113, 62, 48)" opacity="1.0" stroke="rgb(173, 119, 83)" stroke-opacity="0.8786083" stroke-linecap="round" stroke-linejoin="round"/>
    <path d="M 319.71209717 232.28297424 C 306.22015381 233.73289490 292.67376709 234.06567383 278.98352051 233.81329346 C 265.13751221 233.85470581 251.39196777 233.90147400 237.86613464 233.51789856 C 224.53717041 232.39047241 211.69602966 230.89074707 199.64910889 229.06747437 C 188.38674927 226.76689148 178.39562988 224.79394531 169.96870422 223.06262207 C 163.98234558 220.32852173 160.34471130 218.02870178 158.58128357 218.27239990 C 158.91813660 221.12162781 160.42686462 225.67089844 162.64543152 230.73054504 C 167.40957642 233.25727844 173.64257812 234.60295105 179.48030090 235.43411255 C 183.82844543 235.80976868 185.72746277 236.96453857 184.23077393 239.38330078 C 179.90649414 242.37796021 174.56445312 244.67367554 169.43800354 244.23733521 C 165.33168030 238.42224121 161.75483704 229.66775513 158.69874573 219.95266724 C 156.78312683 211.18359375 159.09449768 205.54499817 164.89082336 203.38401794 C 170.31509399 203.20573425 172.09162903 206.67514038 171.60716248 212.50097656 C 175.23095703 215.68313599 182.78868103 216.47267151 192.91017151 216.62501526 C 204.34184265 217.76773071 216.36669922 218.03192139 228.73548889 218.63807678 C 240.73306274 220.08302307 252.27861023 219.82070923 263.56729126 218.62260437 C 274.50460815 218.41973877 284.59490967 218.38816833 293.77606201 218.21414185 C 301.90402222 216.75569153 308.56024170 215.80316162 314.04229736 216.36766052 C 317.95602417 217.84680176 320.37838745 220.32144165 321.98754883 222.76026917 C 323.37564087 224.38098145 323.69546509 225.82987976 323.39343262 227.56135559 C 323.58053589 229.41015625 323.87420654 231.08282471 319.71209717 232.28297424" stroke-width="2.00000000" fill="rgb(247, 249, 236)" opacity="1.0" stroke="rgb(49, 57, 60)" stroke-opacity="0.8295654" stroke-linecap="round" stroke-linejoin="round"/>
    <path d="M 369.99328613 323.55212402 C 368.79592896 324.35562134 367.76196289 324.99261475 367.11428833 324.91131592 C 366.75161743 323.98007202 366.81063843 322.25686646 367.38571167 319.98446655 C 368.38638306 317.25018311 369.93957520 314.21655273 372.25167847 310.94482422 C 375.22421265 307.73092651 378.33901978 304.33837891 381.48654175 300.47409058 C 384.56414795 296.22888184 387.24932861 291.85034180 388.99945068 286.77716064 C 390.03973389 281.16302490 390.83166504 275.26870728 391.60168457 269.43051147 C 391.81506348 263.81262207 391.81311035 258.39855957 391.91940308 253.40119934 C 391.66836548 249.09454346 391.38967896 245.66059875 390.70938110 243.18682861 C 388.82754517 241.86529541 386.20602417 241.20227051 383.54324341 240.37699890 C 381.35382080 238.41117859 379.90252686 235.61369324 379.36325073 232.47900391 C 379.92395020 229.42185974 381.64776611 226.89343262 384.43676758 224.98387146 C 388.02221680 223.55552673 391.96105957 222.87178040 396.16131592 222.83963013 C 400.14935303 223.24676514 403.70376587 225.06997681 407.03918457 227.75082397 C 410.40899658 230.95098877 413.10821533 234.91004944 415.18536377 239.57594299 C 417.00442505 244.71894836 418.39175415 250.15043640 419.86361694 255.43576050 C 421.05343628 260.46881104 420.98162842 265.39038086 420.56686401 270.30108643 C 421.35229492 275.16836548 421.73278809 279.94479370 420.86978149 284.82125854 C 419.26266479 290.07980347 416.92260742 295.44119263 413.52896118 300.76373291 C 409.44744873 306.26123047 404.66574097 311.65573120 399.27279663 316.96179199 C 393.20043945 322.05541992 387.16491699 327.20291138 369.99328613 323.55212402" stroke-width="1.53255987" fill="rgb(2, 6, 10)" opacity="1.0" stroke="rgb(21, 30, 0)" stroke-opacity="0.53028303" stroke-linecap="round" stroke-linejoin="round"/>
    <path d="M 378.37475586 313.74722290 C 380.30722046 312.36959839 382.11972046 310.90777588 383.94833374 309.50595093 C 385.91940308 308.38571167 387.44863892 306.67501831 388.64962769 304.66946411 C 390.19876099 302.82354736 391.97460938 300.71817017 393.49862671 298.58386230 C 394.77783203 296.16134644 395.98852539 293.57974243 397.21109009 290.90179443 C 398.39590454 288.19131470 399.24780273 285.14749146 399.44601440 281.75561523 C 399.37277222 278.07150269 399.33746338 274.16238403 399.52337646 270.15176392 C 400.07489014 266.11483765 399.95190430 262.26165771 399.23242188 258.40917969 C 398.27658081 254.65890503 397.25695801 251.27331543 396.24502563 248.29954529 C 395.01223755 246.02389526 393.39129639 244.40422058 391.29202271 243.75959778 C 389.05932617 243.56671143 387.09182739 243.34667969 386.06710815 242.77514648 C 386.16809082 241.56933594 387.24194336 240.21611023 389.16851807 238.95539856 C 391.49975586 237.51332092 394.02075195 236.34243774 396.48397827 236.02981567 C 398.89367676 236.65747070 401.09832764 238.13612366 403.08294678 240.01449585 C 404.68472290 242.58811951 405.65960693 245.69987488 406.03610229 249.28047180 C 406.82925415 253.02529907 407.56591797 256.93228149 407.67791748 261.09692383 C 407.73599243 265.45593262 407.43386841 269.74752808 406.75463867 273.83544922 C 406.52828979 277.87548828 406.35900879 281.71377563 405.83355713 285.20895386 C 404.87136841 288.41308594 403.31985474 291.19311523 401.51278687 293.71453857 C 399.82702637 296.11941528 398.42956543 298.58874512 396.86697388 300.72491455 C 395.18814087 302.49929810 393.25149536 303.92404175 378.37475586 313.74722290" stroke-width="1.65654182" fill="rgb(241, 248, 248)" opacity="1.0" stroke="rgb(156, 215, 255)" stroke-opacity="0.5453005" stroke-linecap="round" stroke-linejoin="round"/>
    <path d="M 203.10102844 150.15638733 C 201.62744141 151.08258057 200.15686035 152.01000977 198.59817505 152.84826660 C 197.14817810 153.61811829 195.83221436 154.24734497 194.71217346 154.64894104 C 193.70356750 154.81376648 192.85650635 154.63179016 192.23602295 154.18397522 C 191.74690247 153.58889771 191.39898682 152.82406616 191.18313599 151.85974121 C 191.11564636 150.70452881 191.27772522 149.44833374 191.61605835 148.21488953 C 192.10478210 147.15289307 192.81665039 146.09677124 193.63937378 145.07920837 C 194.70794678 144.09530640 195.85806274 143.21691895 197.29953003 142.48306274 C 198.91394043 141.88877869 200.60704041 141.46815491 202.49227905 141.08937073 C 204.48689270 140.72442627 206.59245300 140.46208191 208.76492310 140.23176575 C 210.96403503 140.00570679 213.19085693 139.84974670 203.10102844 150.15638733" stroke-width="2.00000000" fill="rgb(132, 6, 66)" opacity="1.0" stroke="rgb(244, 120, 120)" stroke-opacity="0.4146609" stroke-linecap="round" stroke-linejoin="round"/>
    <path d="M 259.90426636 152.06747437 C 259.04479980 154.91903687 258.20666504 157.65885925 257.72744751 160.45558167 C 257.51577759 163.14468384 257.45941162 165.71998596 257.57095337 168.12420654 C 257.47558594 170.28204346 257.20074463 172.09443665 256.70126343 173.49655151 C 255.79530334 174.59785461 254.60063171 175.31945801 253.26428223 175.76168823 C 251.86108398 175.85160828 250.55397034 175.63742065 249.46821594 175.10617065 C 248.71084595 174.03959656 248.28236389 172.65547180 248.21560669 170.89720154 C 248.17155457 168.85601807 248.40065002 166.55345154 248.87408447 164.12524414 C 249.79989624 161.65570068 250.84001160 159.09669495 251.61648560 156.35240173 C 252.40623474 153.59999084 253.33662415 150.88159180 254.48091125 148.23844910 C 255.86283875 145.82685852 257.43978882 143.55383301 259.03353882 141.44007874 C 260.63699341 139.45442200 262.12457275 137.62297058 263.44030762 135.94793701 C 264.58236694 134.37156677 265.61117554 133.04328918 266.51708984 131.85046387 C 267.26797485 130.89849854 267.95211792 130.23081970 268.55676270 129.79051208 C 269.18780518 129.59275818 269.88800049 129.57353210 270.52722168 129.75579834 C 271.27911377 129.97160339 272.08331299 130.33790588 272.90478516 130.75334167 C 273.84667969 130.99623108 274.76391602 131.23373413 275.57522583 131.60435486 C 276.15667725 131.95597839 276.39950562 132.61236572 276.35858154 133.50187683 C 275.97052002 134.55923462 275.28005981 135.84455872 274.25570679 137.39013672 C 272.90194702 139.04985046 271.20358276 140.64572144 269.12054443 142.15979004 C 266.75570679 143.59806824 264.05828857 144.70147705 259.90426636 152.06747437" stroke-width="1.57548416" fill="rgb(184, 25, 23)" opacity="1.0" stroke="rgb(226, 152, 104)" stroke-opacity="0.6673272" stroke-linecap="round" stroke-linejoin="round"/>
    <path d="M 307.22512817 142.78897095 C 308.16317749 146.29489136 309.11172485 149.72097778 310.07489014 153.05697632 C 311.11413574 156.20825195 312.11190796 159.11584473 313.00204468 161.85842896 C 313.56262207 164.39688110 313.97323608 166.65640259 314.26815796 168.56329346 C 314.47750854 170.17735291 314.47122192 171.36801147 314.13424683 172.03129578 C 313.64877319 171.97721863 313.17449951 171.32122803 312.68078613 170.15734863 C 312.18414307 168.59098816 311.47988892 166.71136475 310.67343140 164.43885803 C 309.96905518 161.97442627 309.34741211 159.27404785 308.68243408 156.43171692 C 308.03945923 153.46690369 307.54275513 150.50451660 307.37738037 147.40199280 C 307.58227539 144.37989807 308.08291626 141.30712891 308.75997925 138.31822205 C 309.66848755 135.39010620 310.74783325 132.59965515 311.80050659 129.84506226 C 312.84896851 127.23972321 313.92568970 124.72131348 315.18627930 122.48400116 C 316.39160156 120.38727570 317.41381836 118.54655457 318.22540283 116.78930664 C 318.63922119 115.17206573 318.85589600 113.69983673 319.15585327 112.49247742 C 319.52203369 111.54782867 319.96801758 110.91966248 320.57031250 110.66313934 C 321.16336060 110.68516541 321.63003540 111.04811859 322.00808716 111.65119934 C 322.10317993 112.47868347 322.09881592 113.54160309 321.87890625 114.71498871 C 321.48712158 115.99890900 320.90463257 117.43248749 320.27404785 118.97473907 C 319.49371338 120.63599396 318.65664673 122.33861542 317.66281128 124.09112549 C 316.67050171 125.87875366 315.52038574 127.69258118 314.35681152 129.44451904 C 313.06307983 131.21401978 311.77612305 132.88053894 307.22512817 142.78897095" stroke-width="1.28180373" fill="rgb(210, 114, 206)" opacity="1.0" stroke="rgb(189, 96, 206)" stroke-opacity="0.41465226" stroke-linecap="round" stroke-linejoin="round"/>
    <path d="M 359.58605957 354.66339111 C 352.86657715 354.28723145 346.14996338 353.85345459 339.36306763 353.80584717 C 332.66818237 354.46563721 326.06747437 356.06677246 319.60577393 359.02429199 C 313.06155396 363.18087769 305.47943115 366.38458252 296.39559937 368.05709839 C 286.19091797 369.52874756 275.02124023 370.06542969 262.80432129 369.77392578 C 249.93107605 369.00198364 236.60328674 368.39721680 223.25030518 367.49105835 C 210.03527832 366.18435669 197.11045837 364.05618286 184.77224731 361.50180054 C 172.81518555 359.49603271 161.79707336 357.61932373 151.95397949 355.93515015 C 143.40586853 355.30700684 136.37536621 355.09826660 131.07899475 354.40298462 C 127.96265411 352.53759766 126.78002930 350.27615356 127.86880493 348.65927124 C 131.61610413 348.42205811 136.75292969 348.97872925 142.09117126 348.68954468 C 146.48480225 345.77395630 150.96018982 343.13143921 156.60459900 342.52459717 C 163.65852356 343.96295166 171.95828247 346.82812500 181.27044678 350.31747437 C 191.33078003 354.01657104 202.22271729 357.06991577 213.82496643 359.06491089 C 225.90025330 360.03948975 238.39408875 360.61047363 251.02551270 361.10925293 C 263.65081787 361.19229126 276.03024292 360.90136719 288.03155518 360.18591309 C 299.44976807 358.76895142 310.27801514 356.19937134 320.51431274 353.47561646 C 330.46160889 352.37329102 340.25619507 352.69537354 350.06341553 353.92944336 C 359.89050293 355.29074097 369.75131226 356.74887085 379.53741455 358.39273071 C 389.38058472 360.09100342 399.23251343 361.82186890 409.05673218 363.63085938 C 418.92065430 365.46932983 428.72991943 367.32400513 359.58605957 354.66339111" stroke-width="1.39711320" fill="rgb(0, 6, 5)" opacity="1.0" stroke="rgb(0, 5, 20)" stroke-opacity="0.47042164" stroke-linecap="round" stroke-linejoin="round"/>
    <path d="M 163.91023254 356.05065918 C 163.32566833 359.08911133 162.34580994 361.93560791 160.94758606 364.46957397 C 159.14242554 366.59671021 157.00396729 368.13336182 154.19692993 368.82791138 C 150.64506531 368.50341797 146.32681274 367.95974731 141.65493774 367.80633545 C 136.89608765 368.01266479 132.36355591 368.58255005 128.29078674 369.57452393 C 124.82151794 371.10137939 122.25807190 373.21588135 120.90441895 375.68441772 C 121.03335571 378.17276001 122.17148590 380.54553223 122.46681213 383.07525635 C 121.52268982 385.73876953 118.99902344 387.00656128 116.88793945 386.05334473 C 115.50817108 383.13507080 113.45647430 379.88854980 110.14529419 377.16735840 C 106.32839966 373.72567749 102.49581909 369.63229370 98.97396851 365.21139526 C 95.53221893 361.06643677 91.96452332 357.74041748 88.00199127 355.50207520 C 84.41513824 353.62707520 81.70339203 352.08813477 79.81118774 351.16552734 C 79.11582184 350.81036377 79.69339752 350.69924927 81.25829315 350.75012207 C 83.49864960 350.90502930 85.99149323 350.82159424 88.28860474 350.16403198 C 90.44045258 348.14465332 91.74176788 345.62811279 91.91078186 342.83078003 C 91.08098602 339.79885864 90.23038483 337.24609375 90.49152374 335.31155396 C 92.14335632 334.22317505 94.94109344 334.34176636 98.44546509 335.53076172 C 102.08348846 338.32107544 105.95809937 342.05862427 110.50794220 346.22457886 C 115.66576385 350.34539795 121.30406189 353.81439209 127.31571960 356.05752563 C 133.82939148 356.95535278 140.73191833 356.51809692 147.95239258 355.51770020 C 155.43792725 354.14877319 162.80430603 352.78652954 163.91023254 356.05065918" stroke-width="2.00000000" fill="rgb(228, 230, 219)" opacity="1.0" stroke="rgb(62, 95, 54)" stroke-opacity="0.8148806" stroke-linecap="round" stroke-linejoin="round"/>
    <path d="M 259.53216553 145.47756958 C 258.02197266 149.16363525 256.76730347 152.74815369 255.70304871 156.17492676 C 254.79199219 159.51934814 254.10707092 162.63499451 253.63578796 165.52488708 C 253.39237976 167.99552917 252.88352966 169.88742065 252.07852173 171.17738342 C 251.11947632 171.90545654 250.27276611 171.90744019 249.62881470 171.16996765 C 249.28192139 169.84040833 249.24633789 167.83345032 249.33482361 165.34869385 C 249.42506409 162.60763550 249.88595581 159.66131592 250.75283813 156.52906799 C 251.86643982 153.11199951 253.04423523 149.73507690 254.05319214 146.58169556 C 255.15579224 143.59579468 256.31430054 141.13598633 257.95111084 139.17361450 C 259.94866943 137.98811340 261.43740845 136.79766846 261.72906494 134.91931152 C 260.88916016 132.14274597 259.83871460 128.68615723 258.82623291 124.71043396 C 257.77282715 120.19802094 256.49728394 115.39655304 254.89172363 110.53160858 C 253.20390320 105.86237335 251.99571228 101.16491699 251.30661011 96.62981415 C 250.45742798 92.56600189 250.15371704 88.88571930 250.62449646 85.79151154 C 251.35757446 83.39411163 251.90757751 81.82247925 252.42881775 81.26087189 C 252.93930054 81.96834564 253.19902039 83.69889832 253.43107605 86.13735199 C 253.67552185 89.13262939 254.60386658 92.44728851 256.12600708 95.94161224 C 257.93246460 99.69609833 259.68859863 103.46195221 261.79125977 107.20793915 C 263.86181641 110.91466522 265.90704346 114.45999146 267.70193481 117.90267181 C 269.33435059 121.18901062 271.08010864 124.26012421 272.76635742 127.35329437 C 274.29675293 130.34992981 275.93917847 133.25114441 259.53216553 145.47756958" stroke-width="1.83160985" fill="rgb(21, 12, 13)" opacity="1.0" stroke="rgb(0, 0, 3)" stroke-opacity="0.44740963" stroke-linecap="round" stroke-linejoin="round"/>
    <path d="M 399.43997192 370.02090454 C 397.62298584 368.86431885 396.06182861 367.40722656 394.67141724 365.84045410 C 392.99008179 364.68267822 391.28210449 363.63510132 389.46255493 362.75292969 C 387.66726685 362.10656738 385.90200806 361.67041016 383.93869019 361.89926147 C 381.72323608 362.64590454 379.03384399 363.63418579 376.22027588 364.54208374 C 373.10589600 365.30065918 369.53393555 365.63967896 365.68017578 365.81594849 C 361.86184692 366.31942749 358.03933716 366.56854248 354.31118774 366.50875854 C 350.75399780 366.33831787 347.36700439 365.75204468 344.44989014 364.90429688 C 341.97955322 363.99249268 339.90106201 363.24969482 338.48760986 362.29794312 C 338.07998657 360.97219849 338.50991821 359.51824951 339.50903320 358.00576782 C 341.08462524 356.50643921 343.11450195 355.18795776 345.45666504 354.29516602 C 347.85144043 353.99645996 350.20642090 354.18688965 352.30029297 354.49591064 C 353.96487427 353.70767212 355.72882080 352.39987183 357.68676758 351.02218628 C 359.89163208 349.63854980 362.23944092 348.20874023 364.97985840 347.14984131 C 368.00064087 346.23593140 371.02420044 345.35040283 374.09384155 344.58380127 C 377.22821045 344.37582397 380.29019165 344.22616577 383.27597046 344.31396484 C 386.19863892 344.93185425 388.90493774 346.20397949 391.44894409 347.94964600 C 394.38705444 349.57812500 397.39871216 351.04928589 400.26272583 352.73168945 C 403.06552124 354.50112915 405.70803833 356.45007324 408.14129639 358.68792725 C 410.53335571 361.05566406 412.81762695 363.45101929 414.71484375 366.32669067 C 416.50903320 369.34182739 418.28262329 372.43832397 399.43997192 370.02090454" stroke-width="1.72648108" fill="rgb(21, 12, 9)" opacity="1.0" stroke="rgb(111, 107, 100)" stroke-opacity="0.83940077" stroke-linecap="round" stroke-linejoin="round"/>
    <path d="M 199.57534790 151.49888611 C 195.34980774 153.40661621 191.29194641 155.29557800 187.47315979 156.61120605 C 184.11938477 157.98629761 181.47795105 159.37242126 179.08705139 159.96838379 C 176.55622864 159.46295166 174.29188538 158.73858643 173.07939148 157.85816956 C 173.32183838 156.52803040 174.74717712 154.93307495 176.71466064 152.54216003 C 178.52462769 149.19337463 180.28295898 145.22238159 182.85781860 141.27122498 C 186.18644714 137.50730896 189.53358459 133.70301819 192.83950806 130.07455444 C 196.22802734 127.09571838 199.63421631 125.10980225 202.25430298 123.59711456 C 203.05645752 121.26334381 202.87330627 118.40091705 202.14776611 115.34199524 C 200.43069458 112.24282074 198.08880615 109.17400360 195.21974182 106.23614502 C 191.78244019 103.78381348 188.06668091 101.65988922 184.60336304 99.53762817 C 181.84599304 97.03060150 179.17298889 95.15718079 176.35504150 94.44604492 C 173.98158264 93.97180939 172.54585266 92.99507904 172.12585449 91.86571503 C 172.65319824 91.21709442 174.15388489 91.11987305 176.27412415 91.62044525 C 179.03509521 92.91745758 182.47183228 94.24548340 186.30007935 95.31388855 C 189.92913818 96.95839691 193.49626160 99.36672211 197.12086487 102.02922821 C 200.72044373 104.76718140 203.90826416 107.93521118 206.73776245 111.28932953 C 209.47499084 114.58943939 211.79589844 117.94301605 213.38044739 121.32589722 C 214.34544373 124.71832275 214.72509766 127.91595459 214.59167480 130.94648743 C 213.89424133 133.81436157 212.90220642 136.52792358 211.51625061 139.14715576 C 209.87889099 141.90994263 208.21942139 144.65869141 199.57534790 151.49888611" stroke-width="1.84836793" fill="rgb(71, 23, 18)" opacity="1.0" stroke="rgb(114, 84, 42)" stroke-opacity="0.57561034" stroke-linecap="round" stroke-linejoin="round"/>
    <path d="M 418.43426514 399.30877686 C 418.56588745 400.70874023 418.58331299 401.99975586 418.31216431 403.19070435 C 417.82629395 404.47277832 417.20425415 405.59332275 416.48831177 406.54806519 C 415.95874023 407.52929688 415.47088623 408.47808838 415.05133057 409.27252197 C 414.43026733 409.59686279 413.62677002 409.83026123 412.80798340 409.96710205 C 412.51119995 409.59210205 412.57836914 408.98751831 412.45532227 408.41378784 C 412.06570435 407.67388916 411.58969116 406.73840332 411.42144775 405.72445679 C 411.44143677 404.69311523 411.49224854 403.75622559 411.49792480 402.93731689 C 411.70147705 402.19961548 412.18627930 401.60473633 412.82037354 401.15170288 C 413.37017822 400.65197754 414.10952759 400.02618408 414.67962646 399.20938110 C 415.25735474 398.41445923 415.90011597 397.70166016 418.43426514 399.30877686" stroke-width="1.73972070" fill="rgb(24, 28, 19)" opacity="1.0" stroke="rgb(125, 143, 101)" stroke-opacity="0.67840385" stroke-linecap="round" stroke-linejoin="round"/>
    <path d="M 308.56167603 148.60169983 C 310.77697754 154.26045227 313.20089722 159.86383057 315.40982056 165.19958496 C 317.54400635 170.22959900 319.21151733 175.10278320 320.20654297 179.58813477 C 320.74563599 183.56329346 321.43908691 186.79711914 321.32501221 188.94691467 C 319.85717773 190.09342957 317.86706543 190.45198059 316.14495850 190.01232910 C 315.23800659 188.81820679 315.54345703 187.08378601 316.64804077 184.91935730 C 317.00552368 181.91281128 316.37359619 178.23809814 315.26345825 173.88230896 C 314.17538452 168.98524475 312.60308838 163.88664246 310.63186646 158.87559509 C 308.28897095 154.02807617 305.73672485 149.62330627 303.84411621 145.42738342 C 303.49212646 141.21160889 304.34484863 137.08395386 305.98614502 133.21154785 C 308.78405762 129.88291931 312.28005981 126.99279022 315.61624146 124.15969849 C 318.37515259 120.90175629 319.88119507 117.29554749 319.87091064 113.28919983 C 318.93289185 109.19571686 316.72726440 105.51203156 313.27005005 102.24826813 C 309.79861450 98.68437195 306.42321777 95.63435364 303.78857422 93.49971008 C 302.95703125 92.19918823 303.80041504 91.59178162 305.57467651 91.59187317 C 307.47213745 92.45346069 309.11517334 94.56230164 311.03808594 97.49933624 C 314.13336182 100.64523315 318.00906372 103.59314728 322.18991089 106.47480774 C 325.81655884 109.61722565 328.89553833 112.25778198 331.25204468 114.35506439 C 331.87234497 115.98849487 330.16625977 117.44416809 327.16201782 119.45073700 C 324.02374268 122.81517792 320.04595947 126.80512238 315.60778809 131.37695312 C 310.96054077 136.36640930 306.09677124 141.49491882 308.56167603 148.60169983" stroke-width="1.42034185" fill="rgb(17, 17, 18)" opacity="1.0" stroke="rgb(24, 20, 0)" stroke-opacity="0.4636663" stroke-linecap="round" stroke-linejoin="round"/>
    <path d="M 348.81719971 351.14538574 C 347.01315308 354.47311401 344.61801147 357.37799072 341.74707031 359.70089722 C 338.67907715 361.43350220 335.60708618 362.69882202 332.71554565 364.03494263 C 330.40277100 365.67974854 328.87643433 367.54962158 327.97015381 369.55609131 C 327.55447388 371.64511108 327.86953735 373.59146118 328.63586426 375.58068848 C 329.93072510 377.26208496 331.61761475 378.83227539 333.47152710 380.27252197 C 336.07849121 381.09149170 338.79721069 381.79467773 341.35910034 382.49398804 C 344.02365112 382.96179199 346.41049194 383.60223389 348.27996826 384.24179077 C 349.72842407 385.03250122 350.61273193 385.52713013 350.68237305 385.75509644 C 349.69396973 386.19946289 347.89382935 386.63018799 345.66558838 387.23394775 C 342.98464966 387.78356934 339.91308594 388.32153320 336.86962891 389.00360107 C 333.78875732 389.41992188 330.69277954 389.68411255 327.75332642 389.71215820 C 325.17651367 389.63208008 323.18289185 389.62716675 321.82528687 389.87796021 C 321.13491821 389.59548950 320.93212891 388.74362183 321.08163452 387.37811279 C 321.16442871 385.57052612 321.17721558 383.49981689 321.15997314 381.15319824 C 321.47894287 378.66055298 322.00170898 376.16110229 322.39746094 373.58215332 C 322.37948608 370.87136841 322.63662720 368.04489136 322.96423340 365.22222900 C 323.41485596 362.56439209 323.93826294 360.01147461 324.25717163 357.52926636 C 324.65930176 355.29251099 325.43136597 353.41979980 326.69570923 351.99356079 C 328.55850220 350.91967773 330.76306152 350.03558350 333.02804565 348.92581177 C 335.32431030 347.73883057 337.68096924 346.53479004 348.81719971 351.14538574" stroke-width="1.48933017" fill="rgb(3, 8, 6)" opacity="1.0" stroke="rgb(0, 23, 14)" stroke-opacity="0.52056825" stroke-linecap="round" stroke-linejoin="round"/>
    <path d="M 225.17933655 380.97848511 C 223.62803650 381.61053467 222.11109924 382.40518188 220.45486450 383.23135376 C 218.52117920 383.87509155 216.47209167 384.48522949 214.33392334 385.21423340 C 211.96569824 385.79553223 209.56935120 386.14843750 206.97360229 386.29751587 C 204.46348572 386.75808716 201.91781616 387.27359009 199.23062134 387.67044067 C 196.58688354 388.46569824 193.99496460 389.13952637 191.39230347 389.80258179 C 188.96206665 390.91140747 186.67492676 392.07650757 184.40301514 393.15478516 C 182.02342224 394.01876831 179.74220276 394.82635498 177.51347351 395.32788086 C 175.35893250 395.70571899 173.39804077 396.30300903 171.70790100 396.83078003 C 170.26240540 397.33435059 168.84962463 397.50369263 167.64759827 397.45989990 C 166.81021118 397.40731812 166.41864014 397.14392090 166.43161011 396.68161011 C 166.86560059 395.91287231 167.62731934 395.16696167 168.86540222 394.37689209 C 170.51963806 393.72280884 172.30421448 392.86828613 174.33198547 392.03762817 C 176.15599060 390.78347778 177.95574951 389.27297974 179.69819641 387.70248413 C 181.59704590 386.12377930 183.56570435 384.70394897 185.31924438 383.29519653 C 186.98283386 381.80245972 188.34020996 380.27978516 189.60023499 378.96640015 C 191.16865540 378.29241943 192.87879944 378.04913330 194.59791565 377.78720093 C 196.55541992 377.95455933 198.69903564 378.17883301 200.94490051 378.44839478 C 203.22099304 378.55529785 205.60009766 378.60260010 207.99346924 378.77627563 C 210.41477966 379.24417114 212.79135132 379.74417114 215.22718811 380.01919556 C 217.76814270 380.16662598 220.34399414 380.47729492 225.17933655 380.97848511" stroke-width="1.30381680" fill="rgb(25, 30, 11)" opacity="1.0" stroke="rgb(121, 139, 101)" stroke-opacity="0.87444943" stroke-linecap="round" stroke-linejoin="round"/>
    <path d="M 162.43325806 231.74951172 C 166.36004639 237.41253662 168.69235229 243.88435364 169.10069275 251.54930115 C 168.51571655 260.26651001 167.64480591 269.85751343 167.09065247 279.89547729 C 166.50270081 289.97399902 165.84721375 299.86315918 165.37423706 309.22851562 C 165.30107117 317.74288940 165.16410828 325.12738037 165.48196411 330.93734741 C 166.32810974 334.85015869 166.58999634 336.70303345 165.35884094 336.55038452 C 162.55726624 334.64071655 158.88954163 330.98236084 155.05992126 325.81628418 C 151.51181030 319.50125122 149.04675293 311.95379639 147.69458008 303.28237915 C 146.80686951 294.04397583 146.31044006 284.46295166 145.92306519 274.80355835 C 145.98442078 265.50964355 146.07217407 256.69641113 145.64205933 248.60223389 C 145.36550903 241.46640015 145.32017517 235.59599304 144.06002808 231.09197998 C 140.77113342 228.11408997 136.71833801 225.76826477 133.43106079 222.95774841 C 131.46122742 219.93020630 131.26342773 217.66047668 132.93737793 216.87736511 C 136.00656128 218.16101074 139.69253540 221.31327820 143.78620911 225.26115417 C 148.59791565 228.50558472 153.95796204 230.64935303 158.95606995 231.84898376 C 162.57315063 233.59297180 164.41340637 236.06761169 164.46975708 238.76502991 C 162.92997742 241.08209229 160.05944824 242.68527222 156.75311279 244.00131226 C 154.20025635 245.94062805 153.10963440 249.22749329 153.02067566 253.87545776 C 152.79576111 259.78186035 152.47685242 266.64678955 152.29402161 274.18823242 C 151.99794006 282.21478271 151.55014038 290.58789062 152.69473267 299.09909058 C 155.28367615 307.77963257 158.77113342 316.50326538 162.43325806 231.74951172" stroke-width="1.24972224" fill="rgb(250, 252, 242)" opacity="1.0" stroke="rgb(238, 216, 190)" stroke-opacity="0.73738813" stroke-linecap="round" stroke-linejoin="round"/>
    <path d="M 247.96302795 176.64527893 C 250.29037476 175.83010864 252.57255554 174.96507263 254.64309692 173.90893555 C 256.47076416 172.85142517 257.94186401 171.94107056 259.08480835 171.50825500 C 259.93246460 171.80760193 260.45791626 172.67131042 260.84188843 173.97758484 C 261.30865479 175.51472473 261.87380981 177.19548035 262.56167603 178.75126648 C 263.28436279 180.20109558 263.98150635 181.30830383 264.56091309 182.24624634 C 264.79083252 182.98742676 264.58944702 183.44461060 263.99319458 183.66632080 C 263.01000977 183.72909546 261.66934204 183.62065125 260.11849976 183.41592407 C 258.40701294 183.03546143 256.55511475 182.69715881 254.56047058 182.51545715 C 252.50347900 182.48535156 250.44969177 182.45851135 248.30792236 182.54508972 C 246.20742798 182.69529724 244.10664368 182.92514038 247.96302795 176.64527893" stroke-width="2.00000000" fill="rgb(230, 234, 134)" opacity="1.0" stroke="rgb(229, 216, 140)" stroke-opacity="0.4958758" stroke-linecap="round" stroke-linejoin="round"/>
    <path d="M 330.18420410 224.54338074 C 331.51364136 223.92189026 332.76751709 223.50320435 333.93630981 223.08415222 C 335.24539185 222.40702820 336.75561523 221.61654663 338.23547363 220.84866333 C 339.69680786 220.39147949 341.34323120 219.87329102 342.74789429 218.95779419 C 344.15142822 217.95928955 345.82730103 217.27731323 347.65927124 216.72358704 C 349.48144531 216.32395935 351.30136108 216.03550720 353.13879395 215.75039673 C 354.94387817 215.52381897 356.69613647 215.32717896 358.31301880 215.26882935 C 359.66989136 215.38989258 360.57418823 215.43550110 361.22113037 215.60292053 C 361.75866699 216.12632751 362.31216431 216.81237793 362.68719482 217.60362244 C 362.74243164 218.47241211 362.50848389 219.18243408 362.38659668 219.88275146 C 362.45632935 220.65139771 362.41775513 221.25532532 361.99102783 221.52473450 C 361.22140503 221.44583130 360.19003296 221.56478882 359.06414795 221.96084595 C 357.79489136 222.53155518 356.41442871 223.13410950 354.93847656 223.54946899 C 353.31997681 223.49971008 351.59146118 223.82608032 349.93395996 224.35656738 C 348.48336792 224.36770630 347.06561279 224.43225098 345.81661987 224.83976746 C 344.63693237 225.59275818 343.38128662 225.83288574 342.13381958 225.62416077 C 340.71310425 225.58393860 339.19668579 225.59516907 337.92044067 225.81753540 C 336.76626587 226.28543091 335.53744507 226.72186279 334.38101196 226.74748230 C 333.34545898 226.59197998 332.37805176 226.38192749 331.70599365 226.33535767 C 331.37725830 226.75762939 331.28942871 227.55618286 331.12567139 228.40980530 C 330.98953247 229.26829529 330.66793823 230.21772766 330.18420410 224.54338074" stroke-width="2.00000000" fill="rgb(228, 177, 29)" opacity="1.0" stroke="rgb(35, 7, 7)" stroke-opacity="1.0" stroke-linecap="round" stroke-linejoin="round"/>
    <path d="M 309.41360474 200.50914001 C 310.20730591 200.28056335 310.96133423 200.13369751 311.79367065 200.20634460 C 312.71624756 200.29121399 313.59008789 200.24995422 314.57769775 200.19067383 C 315.68496704 200.12179565 316.87506104 200.13279724 317.93685913 200.14225769 C 318.87393188 200.46627808 319.86926270 200.82012939 320.85189819 201.10989380 C 321.79586792 201.57064819 322.77056885 202.19311523 323.69845581 202.79875183 C 324.41601562 203.54873657 325.24603271 204.24642944 326.03915405 205.06626892 C 326.91415405 205.75852966 327.63796997 206.28199768 328.29519653 206.79690552 C 328.73077393 207.33671570 328.89831543 208.04699707 329.19879150 208.68524170 C 329.33001709 209.03448486 329.05230713 209.15452576 328.52026367 209.32263184 C 327.91226196 209.55284119 327.33053589 209.96176147 326.70556641 210.32699585 C 325.81948853 210.41581726 325.02182007 210.68197632 324.18984985 211.20602417 C 323.25909424 211.37336731 322.32284546 211.28713989 321.25201416 211.25329590 C 320.09857178 210.94462585 318.95687866 210.67402649 317.79553223 210.34478760 C 316.62640381 210.02177429 315.53988647 209.59355164 314.48394775 209.13369751 C 313.42098999 208.48045349 312.40777588 207.98323059 311.35974121 207.55229187 C 310.34561157 206.99536133 309.41625977 206.32167053 308.75009155 205.71540833 C 307.88919067 205.52333069 307.02322388 205.10893250 306.51931763 204.45271301 C 305.95431519 203.93887329 305.32424927 203.38415527 304.72100830 203.00318909 C 304.33776855 202.60090637 303.92651367 202.11228943 303.62634277 201.52052307 C 303.39120483 200.98634338 303.11993408 200.40295410 309.41360474 200.50914001" stroke-width="1.32927191" fill="rgb(249, 251, 249)" opacity="1.0" stroke="rgb(124, 128, 155)" stroke-opacity="0.8881948" stroke-linecap="round" stroke-linejoin="round"/>
    <path d="M 260.78997803 205.50816345 C 262.97406006 205.44123840 265.17971802 205.38523865 267.39596558 205.22305298 C 269.52642822 205.00714111 271.72628784 204.74000549 273.94198608 204.67298889 C 276.14752197 204.67192078 278.38766479 204.61470032 280.60797119 204.41638184 C 282.83068848 204.23031616 285.04489136 204.06517029 287.20236206 203.93931580 C 289.26089478 203.89886475 291.29302979 203.94869995 293.17517090 203.96492004 C 294.92269897 204.05747986 296.46405029 204.21932983 297.87881470 204.50604248 C 298.99252319 204.96568298 299.86199951 205.61865234 300.57272339 206.16183472 C 301.09600830 206.59306335 301.38833618 206.87767029 301.32458496 207.09982300 C 300.90893555 207.31188965 300.14190674 207.40150452 299.13623047 207.49427795 C 297.86688232 207.51148987 296.36087036 207.64309692 294.70602417 207.69053650 C 292.88619995 207.61534119 290.91366577 207.60939026 288.84341431 207.62739563 C 286.74047852 207.59309387 284.55722046 207.45004272 282.32180786 207.33985901 C 280.14822388 207.20657349 277.93603516 207.15138245 275.73706055 207.20622253 C 273.56091309 207.26333618 271.42559814 207.22366333 269.34640503 207.23954773 C 267.32977295 207.30120850 265.41485596 207.33596802 263.52362061 207.29295349 C 261.77545166 207.22041321 260.13647461 207.24075317 258.62927246 207.32048035 C 257.19476318 207.40225220 255.91981506 207.42802429 254.77597046 207.50813293 C 253.80752563 207.51451111 253.00801086 207.52665710 252.37265015 207.44604492 C 251.98139954 207.21672058 251.74873352 206.78140259 251.59573364 206.32421875 C 251.46665955 205.83270264 251.27351379 205.31675720 260.78997803 205.50816345" stroke-width="1.12468171" fill="rgb(193, 113, 42)" opacity="1.0" stroke="rgb(104, 48, 22)" stroke-opacity="0.885054" stroke-linecap="round" stroke-linejoin="round"/>
    <path d="M 112.69930267 325.12518311 C 110.78070831 325.46722412 108.92749023 325.93902588 107.37765503 326.40805054 C 106.14482880 326.47540283 105.48410797 326.21499634 105.22142029 325.43301392 C 105.29276276 324.19061279 105.65135193 322.74685669 106.22310638 321.15225220 C 106.88490295 319.28460693 107.64855957 317.34164429 108.49202728 315.54135132 C 109.38527679 313.76797485 110.51944733 312.32446289 111.77182007 311.25512695 C 113.08269501 310.17129517 114.22834778 309.18786621 115.10756683 308.45803833 C 115.83879089 308.08187866 116.48551178 308.10018921 117.06206512 308.60083008 C 117.43559265 309.47030640 117.58069611 310.64056396 117.85218048 312.12991333 C 118.30786133 313.76583862 118.97221375 315.39251709 119.55355835 317.17346191 C 119.92114258 319.06756592 120.63986206 321.08636475 112.69930267 325.12518311" stroke-width="1.47321987" fill="rgb(3, 10, 6)" opacity="1.0" stroke="rgb(88, 136, 112)" stroke-opacity="0.7922289" stroke-linecap="round" stroke-linejoin="round"/>
    <path d="M 248.11915588 391.54415894 C 245.50607300 391.74295044 243.03135681 391.91128540 240.94096375 391.68545532 C 239.26301575 391.27008057 237.91490173 390.31970215 236.92634583 389.19305420 C 236.26837158 388.03057861 235.57582092 386.75033569 235.36495972 385.36773682 C 235.12403870 384.18969727 234.76625061 383.22702026 234.45483398 382.50604248 C 234.52912903 381.93252563 234.85539246 381.51702881 235.38349915 381.32690430 C 236.15194702 381.42376709 237.14396667 381.66604614 238.20504761 381.80688477 C 239.20785522 381.82040405 240.36248779 381.81750488 241.71716309 381.83166504 C 243.21716309 381.98233032 244.70085144 382.29180908 246.24246216 382.53378296 C 247.85032654 383.03567505 249.60766602 383.58435059 251.40678406 384.25994873 C 253.09167480 385.22137451 254.86978149 386.42785645 248.11915588 391.54415894" stroke-width="1.63682139" fill="rgb(5, 12, 4)" opacity="1.0" stroke="rgb(107, 130, 80)" stroke-opacity="0.80912966" stroke-linecap="round" stroke-linejoin="round"/>
    <path d="M 246.50421143 419.72711182 C 247.42890930 418.55505371 248.18113708 417.28845215 248.96138000 416.22039795 C 249.93963623 415.55282593 251.07679749 414.96710205 252.17639160 414.43972778 C 253.31332397 414.01995850 254.37931824 413.76083374 255.40637207 413.77874756 C 256.43707275 413.99273682 257.34359741 414.27761841 258.06381226 414.90982056 C 258.64489746 415.89993286 259.18328857 416.98742676 259.55908203 418.10580444 C 259.53176880 419.34597778 259.19158936 420.63723755 258.99014282 421.92480469 C 258.56890869 423.12182617 257.86703491 424.37384033 256.95526123 425.42507935 C 255.71170044 426.31222534 254.46809387 427.06735229 253.15596008 427.56015015 C 251.73997498 427.69277954 250.25257874 427.49267578 248.87037659 426.92492676 C 247.36605835 426.51162720 245.80957031 426.16006470 246.50421143 419.72711182" stroke-width="1.64816022" fill="rgb(8, 11, 9)" opacity="1.0" stroke="rgb(122, 131, 119)" stroke-opacity="0.81939244" stroke-linecap="round" stroke-linejoin="round"/>
    <path d="M 104.58776855 183.89848328 C 105.26337433 182.67918396 105.86293030 181.53427124 106.54136658 180.62858582 C 107.47499084 180.02815247 108.38028717 179.66772461 109.16065979 179.52525330 C 109.92152405 179.77098083 110.75615692 180.32215881 111.54054260 181.20863342 C 112.22750854 182.32411194 112.91687775 183.48629761 113.60813904 184.72912598 C 113.97640228 186.00827026 114.23497772 187.34214783 114.42871094 188.75096130 C 114.10864258 190.12831116 113.63623810 191.48239136 113.05409241 192.77955627 C 112.36266327 194.05940247 111.53717804 194.95939636 110.65701294 195.53938293 C 109.69094086 195.88378906 108.65266418 195.93014526 107.66815948 195.55166626 C 106.74703217 194.86447144 105.97993469 193.99046326 105.25982666 192.95884705 C 104.44867706 191.83825684 103.72405243 190.83564758 104.58776855 183.89848328" stroke-width="1.71377802" fill="rgb(5, 13, 110)" opacity="1.0" stroke="rgb(79, 123, 181)" stroke-opacity="0.7631131" stroke-linecap="round" stroke-linejoin="round"/>
    <path d="M 92.43362427 278.48297119 C 92.77166748 277.43167114 93.30135345 276.44943237 93.97853851 275.83163452 C 94.67206573 275.62533569 95.50395966 275.65136719 96.42264557 275.85931396 C 97.28837585 276.17007446 97.99910736 276.99856567 98.46706390 278.19683838 C 98.82691193 279.45220947 99.27826691 280.76339722 99.80017853 282.26638794 C 100.18685150 283.70458984 100.15277863 285.18090820 100.16003418 286.58087158 C 100.10461426 287.73699951 99.91130829 288.73904419 99.72564697 289.70324707 C 99.55364227 290.33929443 99.22685242 290.45654297 98.60655975 290.23800659 C 97.86535645 289.78115845 96.90618896 289.21911621 95.69171143 288.58291626 C 94.27056885 287.90292358 92.75339508 287.25708008 91.22393036 286.15606689 C 89.82666779 284.39547729 88.25919342 282.50729370 92.43362427 278.48297119" stroke-width="1.49262583" fill="rgb(7, 69, 57)" opacity="1.0" stroke="rgb(77, 160, 140)" stroke-opacity="0.7675868" stroke-linecap="round" stroke-linejoin="round"/>
    <path d="M 114.24703217 367.92431641 C 110.24644470 368.49316406 106.77778625 369.51730347 103.88099670 370.59738159 C 101.38807678 370.22598267 99.30667114 368.54455566 97.53411865 366.13113403 C 95.94976044 363.37652588 94.26713562 361.01477051 92.74921417 358.77694702 C 90.73903656 356.90838623 88.46138000 355.59097290 86.35972595 354.66592407 C 84.82176971 353.92895508 83.79133606 353.21139526 83.71705627 352.75250244 C 84.76123810 352.43331909 86.32738495 351.90689087 88.03891754 350.58566284 C 89.70538330 348.60070801 91.47076416 346.38821411 93.01947784 343.80621338 C 94.19598389 341.09323120 95.07408905 338.46606445 96.56104279 336.66888428 C 99.84326935 336.51010132 103.89287567 337.17037964 108.31698608 338.85580444 C 113.37298584 341.58285522 118.42197418 344.67645264 122.94302368 347.61849976 C 126.87178802 350.39849854 129.05850220 353.61752319 129.88073730 357.06213379 C 129.49134827 360.40365601 130.04354858 362.85144043 132.65853882 363.98809814 C 137.07106018 364.19244385 142.69795227 363.72271729 148.94682312 363.04092407 C 155.18377686 361.50527954 161.11935425 359.54772949 166.72586060 358.40457153 C 171.65393066 358.54998779 175.48632812 359.81094360 177.78311157 361.95184326 C 178.28800964 364.71441650 176.57963562 367.11032104 172.11854553 368.15509033 C 164.92538452 368.78692627 155.89608765 369.01971436 145.95942688 369.06140137 C 135.95964050 369.44100952 127.76336670 370.37854004 123.11841583 376.11260986 C 121.39228058 385.26568604 117.47618866 388.19131470 114.17221069 382.56912231 C 118.75162506 375.89910889 127.27921295 369.33303833 114.24703217 367.92431641" stroke-width="1.53747797" fill="rgb(18, 5, 5)" opacity="1.0" stroke="rgb(7, 19, 3)" stroke-opacity="0.6378286" stroke-linecap="round" stroke-linejoin="round"/>
    <path d="M 303.75482178 440.84622192 C 305.05722046 440.53610229 306.39450073 440.12762451 307.65225220 439.77197266 C 308.78710938 439.38632202 309.86450195 439.00946045 310.78717041 438.67062378 C 311.65213013 438.37365723 312.33462524 438.20977783 312.89916992 438.10217285 C 313.30569458 438.10528564 313.54412842 438.23422241 313.56277466 438.39962769 C 313.44680786 438.60171509 313.13793945 438.89691162 312.62164307 439.16018677 C 312.04382324 439.48126221 311.32266235 439.84890747 310.55734253 440.26382446 C 309.73437500 440.77551270 308.92041016 441.40026855 308.14938354 442.09628296 C 307.29904175 442.86309814 306.51708984 443.67648315 305.70578003 444.49090576 C 304.83764648 445.26681519 303.98721313 446.02169800 303.10104370 446.70809937 C 302.17556763 447.38940430 301.28430176 448.08404541 303.75482178 440.84622192" stroke-width="2.00000000" fill="rgb(221, 242, 220)" opacity="1.0" stroke="rgb(231, 247, 233)" stroke-opacity="0.899777" stroke-linecap="round" stroke-linejoin="round"/>
  </g>
</svg>
