<?xml version="1.0" ?>
<svg xmlns="http://www.w3.org/2000/svg" version="1.1" width="512" height="512" viewBox="0 0 512 512">
  <defs/>
  <g>
    <path d="M 507.61352539 473.45339966 C 500.85348511 480.79989624 493.63839722 487.84912109 485.66540527 494.29989624 C 476.65969849 499.78475952 466.15493774 503.91082764 453.90359497 506.48193359 C 439.75097656 507.13293457 423.60079956 506.58032227 405.46423340 505.63623047 C 385.47933960 504.58804321 363.75457764 503.70669556 340.37283325 503.55972290 C 315.72814941 503.58386230 289.87084961 503.66656494 263.28329468 503.58493042 C 236.27748108 503.54745483 209.36749268 503.63040161 182.76164246 503.61038208 C 156.88883972 503.52658081 132.02381897 503.50457764 108.52108002 503.79989624 C 86.64997101 504.99438477 66.67538452 505.91232300 49.15202713 505.54064941 C 34.22509003 503.23968506 22.24786377 498.47271729 13.55691910 490.38961792 C 7.92122793 478.70846558 4.72937298 464.10736084 3.48078704 446.72671509 C 3.32937384 426.84963989 3.24289799 404.94863892 3.50495934 381.42718506 C 5.40987301 356.69357300 7.89709806 330.92456055 10.05676270 304.45617676 C 10.71408939 277.57507324 10.65359783 250.71405029 9.80306816 223.82460022 C 8.20640373 197.50978088 6.20190907 171.97160339 4.62946177 147.37625122 C 4.17240953 123.86024475 4.16817617 101.58725739 4.55234575 80.96035767 C 5.95725679 62.35583496 8.87942600 45.98098373 13.72130871 31.94791222 C 20.83088875 20.44670105 30.09797287 11.71333885 41.80657959 5.86449337 C 55.87723923 2.70470929 72.19200897 2.00684214 90.55842590 2.41418290 C 110.68900299 2.41462755 132.45878601 2.39673185 155.57710266 2.40695047 C 179.77355957 2.34944344 204.95629883 2.39639258 230.75424194 2.42583299 C 256.94229126 2.24726939 283.30438232 2.18869162 309.55014038 2.72597384 C 335.48382568 3.75741816 360.74844360 3.62038064 385.17102051 2.44524980 C 408.61889648 2.35493660 430.61370850 2.37915802 450.51779175 2.29089880 C 467.60076904 3.02421570 481.68429565 6.44905806 492.66549683 13.51565838 C 500.56271362 24.45582581 505.74725342 38.62985992 508.57739258 55.44766235 C 509.79510498 74.17999268 509.89230347 94.44508362 509.67837524 116.08885193 C 509.24304199 138.89689636 507.80447388 162.53987122 505.69808960 186.74829102 C 503.67724609 211.45945740 502.44906616 236.52496338 502.51498413 261.77014160 C 503.56469727 287.18429565 505.44982910 312.51849365 507.43167114 337.73065186 C 507.93740845 362.82299805 507.70651245 387.99108887 507.61352539 473.45339966" stroke-width="2.00000000" fill="rgb(246, 249, 240)" opacity="1.0" stroke="rgb(245, 238, 0)" stroke-opacity="0.34938282" stroke-linecap="round" stroke-linejoin="round"/>
    <path d="M 358.84423828 336.35375977 C 355.52209473 341.35156250 351.71676636 345.96224976 347.20834351 349.74856567 C 341.74291992 352.57983398 335.35165405 354.51458740 328.06039429 355.90493774 C 320.26449585 357.11074829 311.84396362 358.22424316 302.97662354 359.25997925 C 293.75625610 360.21127319 284.20510864 360.97879028 274.47436523 361.71258545 C 264.57073975 362.23419189 254.52580261 362.65197754 244.56121826 362.94302368 C 234.60762024 363.07141113 224.74583435 362.99609375 215.18347168 362.74789429 C 205.72270203 362.38610840 196.66229248 361.75875854 188.02381897 360.93093872 C 179.78778076 359.97213745 172.05441284 358.61224365 165.01817322 356.48233032 C 158.74415588 353.57891846 153.19573975 349.65948486 148.58647156 344.13943481 C 144.83366394 337.28698730 140.31254578 330.10354614 135.38438416 322.60110474 C 131.03886414 314.50936890 127.82916260 305.52127075 125.59527588 295.85076904 C 123.64333344 285.78256226 122.63082886 275.37481689 122.60161591 264.79324341 C 122.73296356 254.12760925 122.58171844 243.67736816 122.25862122 233.74700928 C 122.02745819 224.43142700 122.37381744 216.02192688 122.79819489 208.93724060 C 123.79584503 203.32176208 126.05635834 199.23213196 129.71496582 196.81861877 C 134.64181519 195.52693176 140.33670044 194.73591614 146.59020996 193.46682739 C 153.24478149 192.16912842 160.33721924 191.87097168 167.87181091 191.84408569 C 175.76635742 191.41940308 184.03402710 190.86737061 192.47958374 190.31587219 C 201.18162537 190.20451355 210.17871094 190.16772461 219.29928589 190.00898743 C 228.53753662 189.48083496 238.06636047 189.73735046 248.03756714 190.82270813 C 258.45333862 190.83116150 269.30349731 190.75102234 280.34472656 190.66249084 C 291.62210083 190.21578979 302.82247925 189.48939514 314.03918457 189.07479858 C 325.09698486 190.27534485 336.01306152 191.74734497 346.48580933 193.45574951 C 356.20388794 195.59416199 365.11068726 197.96945190 372.97082520 200.68733215 C 379.42553711 203.52081299 384.25918579 205.81620789 386.75982666 208.60121155 C 386.14147949 212.01089478 383.76348877 216.16383362 381.29711914 221.06799316 C 380.87820435 226.83300781 381.82965088 233.82316589 382.93692017 241.81369019 C 382.99539185 250.47117615 382.50903320 260.03570557 381.61541748 270.18740845 C 379.84466553 280.66635132 377.17492676 291.43484497 373.91510010 302.29992676 C 371.46951294 313.40603638 369.35894775 324.75701904 358.84423828 336.35375977" stroke-width="1.43827152" fill="rgb(6, 3, 7)" opacity="1.0" stroke="rgb(104, 85, 106)" stroke-opacity="0.78244114" stroke-linecap="round" stroke-linejoin="round"/>
    <path d="M 350.51803589 327.52819824 C 346.64447021 332.36120605 342.80529785 337.20828247 338.60540771 341.82858276 C 334.04464722 346.23364258 329.10946655 350.18887329 323.70547485 353.66998291 C 317.75759888 356.80453491 311.38555908 359.40109253 304.61648560 361.65466309 C 297.61508179 363.50323486 290.17349243 365.00531006 282.64923096 366.11001587 C 274.79953003 366.95861816 266.83789062 367.38339233 258.86370850 367.45675659 C 250.75051880 367.20159912 242.58145142 366.52493286 234.51141357 365.45812988 C 226.45339966 364.00000000 218.41906738 362.13726807 210.51850891 359.82141113 C 202.69334412 356.95596313 195.07341003 353.65191650 187.62510681 349.79544067 C 180.41711426 345.41259766 173.23608398 340.92495728 166.06062317 336.68728638 C 159.28991699 332.10614014 153.19534302 326.95883179 147.79425049 321.38839722 C 143.55352783 315.03817749 140.40661621 307.83389282 137.98164368 299.93670654 C 135.78649902 291.68411255 134.27351379 283.02203369 133.66600037 274.01599121 C 133.56001282 264.88821411 133.42196655 255.89532471 133.36236572 247.18428040 C 133.44711304 239.10798645 133.57043457 232.03010559 133.16790771 226.05010986 C 132.01663208 221.52612305 131.51148987 218.61380005 132.58581543 217.26841736 C 135.45767212 217.64668274 139.66575623 218.15277100 144.94383240 217.18762207 C 150.78088379 213.88641357 157.23303223 209.51454163 164.38020325 205.34098816 C 172.90632629 203.16711426 182.10238647 201.88519287 191.57130432 200.77766418 C 200.97097778 200.08410645 210.01933289 199.95327759 218.59797668 200.15672302 C 226.47325134 199.90069580 233.37489319 199.83003235 239.08148193 201.24865723 C 243.50370789 205.28695679 247.19569397 211.19380188 250.96806335 217.76971436 C 256.60940552 223.29750061 263.97021484 227.67352295 272.58102417 230.96641541 C 282.10876465 233.24667358 292.33023071 234.29901123 302.89837646 234.15252686 C 313.53628540 233.04673767 323.93063354 231.33886719 333.97418213 229.24136353 C 343.41714478 227.11145020 351.88180542 225.15824890 359.20083618 223.73698425 C 365.22097778 223.01135254 369.67736816 223.54829407 372.30841064 225.34127808 C 372.92642212 228.67271423 372.59506226 233.47766113 372.38082886 239.50190735 C 372.44232178 246.41952515 372.42730713 254.14503479 372.09692383 262.32983398 C 371.26754761 270.83505249 369.92703247 279.52185059 368.08471680 288.27758789 C 366.16668701 297.07690430 364.24768066 305.82546997 350.51803589 327.52819824" stroke-width="2.00000000" fill="rgb(113, 65, 49)" opacity="1.0" stroke="rgb(171, 118, 82)" stroke-opacity="0.91302246" stroke-linecap="round" stroke-linejoin="round"/>
    <path d="M 322.03997803 231.43264771 C 311.80722046 233.06930542 301.25927734 233.88256836 290.40960693 233.83876038 C 279.34680176 233.71273804 267.99249268 233.77166748 256.15832520 233.77960205 C 244.01586914 233.71661377 231.92498779 232.96250916 219.73907471 231.75183105 C 207.71818542 230.36608887 196.31889343 228.43846130 185.52922058 226.31600952 C 175.79067993 224.16600037 168.41041565 222.02233887 164.01408386 221.50746155 C 162.98144531 223.94787598 163.72509766 228.12690735 166.21217346 232.00660706 C 171.23704529 234.13810730 176.25318909 235.90409851 178.17979431 238.90158081 C 174.94050598 242.34463501 170.94145203 245.86122131 169.52076721 249.52453613 C 169.66726685 252.62251282 169.19825745 253.68461609 168.18432617 251.94647217 C 167.34573364 247.34837341 166.42840576 240.43159485 165.16662598 232.06063843 C 163.29748535 222.93539429 161.54101562 214.18821716 161.35920715 207.07159424 C 163.99581909 204.41212463 167.67959595 206.42944336 171.29209900 211.65773010 C 176.19041443 215.83576965 184.37889099 217.05558777 195.55371094 217.28266907 C 208.94201660 217.76475525 223.42076111 218.44187927 238.42361450 219.51828003 C 253.18971252 219.92527771 267.08581543 219.09358215 279.78021240 218.49670410 C 291.09637451 218.59336853 300.65701294 217.73654175 308.39019775 216.12370300 C 314.30136108 216.04878235 318.43603516 218.08697510 321.28652954 221.48249817 C 322.93795776 225.13304138 323.39901733 228.51065063 323.64700317 230.73730469 C 325.21762085 231.15484619 327.95123291 230.58204651 331.53790283 229.90777588 C 335.61267090 229.33743286 339.86190796 228.62414551 322.03997803 231.43264771" stroke-width="2.00000000" fill="rgb(244, 245, 239)" opacity="1.0" stroke="rgb(69, 71, 72)" stroke-opacity="1.0" stroke-linecap="round" stroke-linejoin="round"/>
    <path d="M 369.99258423 323.58651733 C 369.06954956 324.19949341 368.23580933 324.51712036 367.59539795 324.10797119 C 367.42193604 322.98306274 367.56600952 321.24389648 368.20031738 319.09509277 C 369.32562256 316.44625854 370.94747925 313.49359131 373.06228638 310.30065918 C 375.75558472 307.12265015 378.71765137 303.64825439 381.73196411 299.84365845 C 384.70455933 295.93731689 387.30728149 291.53274536 389.08956909 286.59381104 C 390.12585449 281.09332275 390.91305542 275.38864136 391.50622559 269.55935669 C 391.81869507 263.87127686 391.87771606 258.55435181 391.86032104 253.63639832 C 391.90576172 249.35879517 391.77581787 245.84788513 390.81829834 243.32989502 C 388.77407837 241.87809753 386.16479492 241.07978821 383.48306274 240.12130737 C 381.43075562 238.17510986 380.08175659 235.54521179 379.66888428 232.58923340 C 380.30123901 229.77668762 381.77804565 227.20074463 384.15039062 225.10720825 C 387.40701294 223.67526245 391.18096924 222.89964294 395.12942505 222.74139404 C 399.05889893 223.05700684 402.75784302 224.59193420 406.33267212 227.03051758 C 409.77581787 230.12451172 412.72811890 234.03759766 414.87280273 238.97911072 C 416.72857666 244.45208740 418.58157349 250.12812805 420.01672363 255.94319153 C 420.83264160 261.80804443 420.91860962 267.60305786 421.11468506 273.19601440 C 421.66775513 278.53741455 421.35708618 283.75656128 419.75582886 288.72463989 C 417.66662598 293.78952026 414.88540649 298.85534668 411.25711060 303.77404785 C 407.26980591 308.63302612 402.85964966 313.43316650 397.94677734 318.09613037 C 392.50396729 322.53015137 386.85922241 326.94754028 369.99258423 323.58651733" stroke-width="1.50369656" fill="rgb(6, 9, 12)" opacity="1.0" stroke="rgb(21, 30, 0)" stroke-opacity="0.5507051" stroke-linecap="round" stroke-linejoin="round"/>
    <path d="M 378.59497070 313.50122070 C 380.09429932 312.46084595 381.64376831 311.35336304 383.16143799 310.12530518 C 384.51422119 308.78628540 385.97607422 307.35534668 387.61691284 305.81594849 C 389.27105713 304.07717896 390.87487793 302.11508179 392.49755859 299.88830566 C 394.11932373 297.48312378 395.61145020 294.75955200 396.96975708 291.77142334 C 398.15896606 288.58010864 399.05111694 285.15078735 399.48474121 281.52722168 C 399.38858032 277.58972168 399.33554077 273.45852661 399.67382812 269.30364990 C 399.99832153 265.21057129 399.76651001 261.27407837 398.99813843 257.50695801 C 397.92428589 253.83035278 396.93154907 250.41349792 395.78375244 247.57057190 C 394.44067383 245.40245056 392.73782349 244.16404724 390.61172485 243.66647339 C 388.56906128 243.50251770 386.92440796 243.21438599 386.14300537 242.35331726 C 386.36541748 241.23469543 387.56335449 240.04118347 389.37332153 238.81001282 C 391.68438721 237.47917175 393.98922729 236.49467468 396.49505615 236.18421936 C 398.94216919 236.80677795 401.17968750 238.14643860 403.18319702 240.08270264 C 404.74975586 242.55691528 405.64355469 245.75726318 406.13336182 249.44459534 C 406.85879517 253.31401062 407.50021362 257.38916016 407.73593140 261.69656372 C 407.68457031 266.08901978 407.26611328 270.47778320 406.65472412 274.68643188 C 406.53753662 278.72860718 406.29479980 282.57650757 405.62722778 286.05078125 C 404.45278931 289.12414551 402.86630249 291.84439087 401.14056396 294.41625977 C 399.57305908 296.87890625 398.06738281 299.08779907 396.37179565 301.18905640 C 394.47003174 303.00851440 392.45040894 304.55386353 378.59497070 313.50122070" stroke-width="1.66009700" fill="rgb(241, 245, 254)" opacity="1.0" stroke="rgb(156, 213, 255)" stroke-opacity="0.547148" stroke-linecap="round" stroke-linejoin="round"/>
    <path d="M 203.74128723 149.58941650 C 201.58122253 150.86648560 199.51075745 152.16665649 197.66493225 153.23321533 C 195.97077942 154.02641296 194.59640503 154.59211731 193.44882202 154.71311951 C 192.65051270 154.49250793 192.15269470 153.92909241 191.85795593 153.08677673 C 191.69293213 151.99194336 191.74052429 150.72836304 191.94656372 149.35652161 C 192.30909729 148.00849915 192.71607971 146.61595154 193.21351624 145.29489136 C 193.70742798 144.08581543 194.29029846 142.99720764 194.97259521 142.01861572 C 195.65412903 141.27310181 196.41409302 140.57768250 197.13212585 140.11079407 C 197.97926331 139.77282715 198.89546204 139.55984497 199.85005188 139.46714783 C 200.91287231 139.46520996 202.03254700 139.50733948 203.19346619 139.66555786 C 204.42083740 139.75582886 205.64115906 139.90321350 203.74128723 149.58941650" stroke-width="2.00000000" fill="rgb(107, 0, 45)" opacity="1.0" stroke="rgb(219, 104, 104)" stroke-opacity="0.438018" stroke-linecap="round" stroke-linejoin="round"/>
    <path d="M 259.85516357 151.98391724 C 259.09799194 154.60479736 258.28616333 157.22589111 257.78259277 159.85607910 C 257.56323242 162.53607178 257.50955200 165.00019836 257.60583496 167.34037781 C 257.59335327 169.50862122 257.47183228 171.42390442 257.14849854 173.02624512 C 256.30377197 174.28851318 255.23777771 175.26525879 254.06520081 175.83915710 C 252.77825928 176.09370422 251.56063843 175.92756653 250.34466553 175.27270508 C 249.37115479 174.37904358 248.70062256 172.97973633 248.25296021 171.20597839 C 248.12657166 169.16419983 248.41593933 166.87432861 248.95501709 164.37921143 C 249.85330200 161.70372009 250.87495422 158.96240234 251.81501770 156.08416748 C 252.84492493 153.05204773 254.01466370 150.20988464 255.47578430 147.44981384 C 257.15139771 144.92085266 258.89944458 142.49534607 260.59094238 140.10383606 C 262.12063599 137.83786011 263.41265869 135.60394287 264.32238770 133.36354065 C 265.05703735 131.29151917 265.57196045 129.36279297 265.93151855 127.57579041 C 266.20401001 126.12220764 266.40136719 124.86424255 266.56118774 123.97325134 C 266.83947754 123.41056061 267.07965088 123.20711517 267.43975830 123.33464813 C 267.99389648 123.81115723 268.62918091 124.53300476 269.49041748 125.50447083 C 270.51077271 126.59878540 271.55700684 127.78584290 272.75738525 128.91699219 C 274.02230835 130.17539978 275.18960571 131.41448975 275.92944336 132.73225403 C 276.04446411 134.13299561 275.57708740 135.62081909 274.54513550 137.17738342 C 273.14413452 138.84725952 271.40066528 140.57843018 269.25961304 142.15144348 C 266.86358643 143.55229187 264.33459473 144.82368469 259.85516357 151.98391724" stroke-width="1.77915370" fill="rgb(188, 27, 18)" opacity="1.0" stroke="rgb(227, 157, 107)" stroke-opacity="0.65056694" stroke-linecap="round" stroke-linejoin="round"/>
    <path d="M 307.46585083 142.19049072 C 308.44473267 145.50415039 309.38571167 148.75970459 310.11273193 152.04113770 C 310.80859375 155.18101501 311.49301147 158.05610657 312.12429810 160.74853516 C 312.66629028 163.25747681 313.09393311 165.43534851 313.40194702 167.35496521 C 313.57293701 168.78239441 313.54010010 169.76237488 313.28033447 170.29273987 C 312.87619019 170.31756592 312.35794067 169.87712097 311.76824951 168.84576416 C 311.24435425 167.39210510 310.66864014 165.64192200 310.09234619 163.53343201 C 309.65002441 161.07324219 309.32232666 158.51661682 308.98815918 155.69511414 C 308.71890259 152.68070984 308.50427246 149.68853760 308.36599731 146.66996765 C 308.39334106 143.53562927 308.92855835 140.55406189 309.67327881 137.55821228 C 310.42828369 134.56410217 311.29571533 131.66874695 312.27301025 128.82200623 C 313.23931885 126.10432434 314.35162354 123.48515320 315.42132568 121.13497925 C 316.57266235 118.91799164 317.60763550 116.88609314 318.61111450 115.05348206 C 319.45977783 113.41497040 320.33227539 112.06184387 321.04699707 110.91211700 C 321.51345825 110.05150604 321.99618530 109.52470398 322.37322998 109.27596283 C 322.54901123 109.28967285 322.67941284 109.64072418 322.65045166 110.27489471 C 322.53509521 111.12435150 322.25546265 112.26889038 321.86965942 113.61672974 C 321.29769897 115.16046143 320.62322998 116.88728333 319.91421509 118.69453430 C 319.06106567 120.70935822 318.10217285 122.79007721 317.10339355 124.86492920 C 316.07736206 127.17384338 314.97509766 129.33695984 313.85836792 131.59820557 C 312.72579956 133.87809753 311.67581177 136.19187927 307.46585083 142.19049072" stroke-width="0.70427454" fill="rgb(228, 155, 225)" opacity="1.0" stroke="rgb(187, 89, 199)" stroke-opacity="0.46101695" stroke-linecap="round" stroke-linejoin="round"/>
    <path d="M 373.18096924 354.41757202 C 364.83688354 354.11682129 356.51394653 354.02960205 348.23550415 354.00997925 C 340.10336304 354.19824219 332.16955566 354.92614746 324.63195801 356.81271362 C 317.46072388 360.31781006 310.02825928 364.39688110 301.24240112 367.26724243 C 291.01135254 369.21002197 279.45904541 370.04281616 266.87249756 369.96255493 C 253.37107849 369.41113281 239.36146545 368.67431641 225.19747925 367.64547729 C 211.18106079 366.34582520 197.79354858 364.00448608 185.10296631 361.78939819 C 173.24873352 361.96847534 162.38081360 362.49737549 152.53181458 362.37475586 C 144.19734192 361.25167847 137.34614563 359.15994263 132.22523499 356.35250854 C 129.11538696 353.23504639 127.91595459 350.54260254 128.61302185 348.75180054 C 131.32286072 348.44604492 135.49678040 348.90960693 140.55430603 348.69409180 C 145.86994934 346.65634155 151.98226929 344.94253540 159.21498108 344.95568848 C 167.40380859 346.47286987 176.42181396 349.09130859 186.16877747 352.21994019 C 196.63168335 355.52203369 207.82316589 358.10168457 219.50791931 359.65414429 C 231.72286987 360.42959595 243.98748779 360.89144897 256.24667358 361.21578979 C 268.27865601 361.24002075 280.03005981 360.77688599 291.43148804 359.67517090 C 302.48571777 357.77432251 312.83645630 355.42108154 322.97866821 353.42456055 C 332.88400269 352.71621704 342.74850464 353.14999390 352.45248413 354.18710327 C 362.04635620 355.49874878 371.51690674 356.96228027 381.04953003 358.61349487 C 390.42294312 360.38513184 399.73373413 362.13812256 408.95654297 363.97186279 C 418.04745483 365.76177979 427.19491577 367.64111328 373.18096924 354.41757202" stroke-width="1.39364791" fill="rgb(5, 1, 1)" opacity="1.0" stroke="rgb(0, 5, 16)" stroke-opacity="0.47963864" stroke-linecap="round" stroke-linejoin="round"/>
    <path d="M 158.38543701 360.91250610 C 164.55470276 361.55932617 170.17933655 362.16287231 174.74829102 362.98107910 C 177.46557617 364.27087402 178.02626038 365.76785278 176.49723816 367.31863403 C 173.09359741 368.36392212 168.20585632 368.88903809 162.15242004 369.07040405 C 155.48451233 369.72811890 148.40048218 370.07217407 141.50599670 370.03918457 C 135.17570496 370.29077148 129.83557129 371.08255005 125.94898224 372.85662842 C 123.63822174 375.54769897 123.01204681 379.05981445 123.11171722 382.65914917 C 122.33502960 385.50744629 120.49729156 387.03250122 118.19609070 387.14916992 C 115.66039276 385.63565063 112.94338989 382.44238281 109.73782349 378.31506348 C 105.82904816 373.66961670 101.66886902 368.75738525 97.20489502 363.81134033 C 92.31632996 359.48953247 87.28383636 356.03616333 82.29193115 353.59646606 C 77.81724548 351.74462891 74.31377411 350.36004639 72.06960297 349.39300537 C 71.75424957 348.81256104 73.10997009 348.75686646 75.72644043 349.35635376 C 78.96725464 350.19918823 82.65528870 350.61892700 86.24510956 349.96395874 C 89.01758575 348.04595947 90.72689819 345.26629639 91.16458893 342.19378662 C 90.31022644 339.07684326 89.48510742 336.10751343 89.87718201 333.76535034 C 91.76332092 332.36810303 94.76818085 332.42160034 98.47750854 333.95840454 C 102.63486481 336.88452148 107.46314240 340.85379028 112.58045959 345.34396362 C 118.14746857 349.73126221 124.15396881 353.34771729 130.77549744 355.68569946 C 137.92539978 356.19094849 145.62258911 355.20986938 153.67474365 353.85833740 C 162.17991638 353.29486084 170.91017151 353.22012329 158.38543701 360.91250610" stroke-width="1.47243464" fill="rgb(158, 165, 148)" opacity="1.0" stroke="rgb(41, 72, 27)" stroke-opacity="0.59235126" stroke-linecap="round" stroke-linejoin="round"/>
    <path d="M 258.17709351 147.61140442 C 257.00860596 152.05346680 255.80468750 156.30432129 254.75979614 160.39376831 C 254.01271057 164.18574524 253.23799133 167.57882690 252.56480408 170.42271423 C 251.84996033 172.73870850 251.42250061 174.40443420 251.23901367 175.62292480 C 251.11164856 176.20974731 250.98097229 176.04658508 250.74856567 175.34477234 C 250.40681458 174.18615723 249.91526794 172.40628052 249.42182922 170.12518311 C 249.21824646 167.53349304 249.30036926 164.58872986 249.64630127 161.27128601 C 250.35075378 157.80715942 251.35881042 154.23567200 252.58657837 150.61964417 C 253.78564453 146.97326660 255.08636475 143.71374512 256.82327271 141.07870483 C 258.93640137 139.06051636 260.75656128 137.16967773 261.64520264 134.93231201 C 261.18405151 132.10514832 260.00726318 128.51568604 258.82644653 124.32606506 C 257.55169678 119.63700104 256.18121338 114.62593079 254.51838684 109.61056519 C 252.92301941 104.66588593 251.72479248 99.72929382 250.88122559 95.18415070 C 250.32426453 91.09560394 250.39382935 87.58027649 250.96232605 84.69396973 C 251.50132751 82.64461517 252.03681946 81.48018646 252.62918091 81.56595612 C 253.06855774 83.06896210 253.32626343 85.52256775 253.72740173 88.73933411 C 254.63700867 92.40843201 256.19580078 96.27278900 258.08175659 100.17490387 C 260.01016235 104.23417664 262.14596558 108.10732269 264.25543213 111.75799561 C 266.15234375 115.19429779 267.91729736 118.47514343 269.48278809 121.47392273 C 270.98464966 124.05809021 272.27371216 126.50791931 273.39294434 128.84335327 C 274.36618042 131.01232910 275.27835083 133.10229492 258.17709351 147.61140442" stroke-width="1.87147582" fill="rgb(18, 8, 9)" opacity="1.0" stroke="rgb(0, 0, 2)" stroke-opacity="0.4619224" stroke-linecap="round" stroke-linejoin="round"/>
    <path d="M 400.41116333 370.13507080 C 398.85812378 369.62707520 397.47470093 368.80175781 396.15026855 367.43121338 C 394.75354004 366.02767944 393.04467773 364.68975830 391.12628174 363.45880127 C 389.09210205 362.47546387 386.90792847 361.80783081 384.71466064 361.71606445 C 382.30755615 362.29632568 379.67544556 363.43072510 376.78948975 364.44100952 C 373.51425171 365.19424438 369.92413330 365.66928101 366.17047119 365.89471436 C 362.36941528 366.23468018 358.52645874 366.51635742 354.78387451 366.57461548 C 351.25723267 366.37765503 348.03634644 365.82366943 344.97473145 364.97180176 C 342.41058350 364.18975830 340.31082153 363.41830444 338.88925171 362.52386475 C 338.36749268 361.36395264 338.47619629 360.04287720 339.30364990 358.63531494 C 340.77703857 357.30661011 342.74530029 356.08367920 344.93768311 355.02243042 C 347.33319092 354.43853760 349.93222046 354.45581055 352.40905762 354.31756592 C 354.47094727 353.42648315 356.50097656 351.86358643 358.66113281 350.30654907 C 360.90756226 348.90213013 363.44100952 347.72512817 366.12869263 346.72473145 C 368.92694092 345.95578003 371.85083008 345.08941650 374.75924683 344.49917603 C 377.74612427 344.28872681 380.81674194 344.18212891 383.79086304 344.37750244 C 386.59933472 345.22711182 389.52276611 346.59753418 392.34017944 348.22171021 C 395.19412231 349.92150879 398.14154053 351.52084351 401.08599854 353.17276001 C 403.79895020 354.90905762 406.38986206 356.88589478 408.67382812 359.06738281 C 410.89788818 361.35623169 413.03762817 363.76312256 414.86431885 366.40844727 C 416.53588867 369.25717163 418.21444702 372.14825439 400.41116333 370.13507080" stroke-width="1.72050035" fill="rgb(22, 13, 9)" opacity="1.0" stroke="rgb(114, 110, 103)" stroke-opacity="0.84487164" stroke-linecap="round" stroke-linejoin="round"/>
    <path d="M 198.25274658 151.98126221 C 194.53509521 153.54574585 191.05664062 155.17433167 187.63775635 156.61712646 C 184.40840149 158.06256104 181.57240295 159.30316162 178.90304565 159.89730835 C 176.31755066 159.51483154 174.31242371 158.81782532 173.11082458 157.85548401 C 173.41207886 156.46855164 174.93794250 154.82165527 176.81832886 152.34402466 C 178.47463989 148.96186829 180.43276978 145.16102600 182.95829773 141.19834900 C 186.09611511 137.41899109 189.52203369 133.64704895 192.93624878 130.17344666 C 196.29214478 127.21573639 199.56031799 125.11654663 202.10705566 123.27938080 C 203.14041138 121.02893066 203.01739502 118.28020477 202.06752014 115.32144165 C 200.34762573 112.23011780 198.04362488 109.17355347 195.17205811 106.39010620 C 191.86044312 104.02748871 188.36972046 101.86230469 184.98011780 99.61235809 C 181.90376282 97.26647949 178.97109985 95.45917511 176.22781372 94.29438782 C 174.01739502 93.26091766 172.55661011 92.40365601 172.11643982 91.59846497 C 172.66091919 91.14988708 174.16009521 91.18199158 176.29324341 91.80224609 C 179.13619995 92.91547394 182.50389099 94.04997253 186.25349426 95.24416351 C 190.11354065 96.90310669 193.84065247 99.12181854 197.28512573 101.92602539 C 200.63928223 104.86849976 203.82035828 108.01065063 206.82173157 111.31443787 C 209.46994019 114.64546204 211.68154907 117.86829376 213.37541199 121.22372437 C 214.42922974 124.55984497 214.76127625 127.86188507 214.60562134 131.02812195 C 213.92527771 134.07307434 212.79130554 137.15965271 211.31336975 140.13179016 C 209.54777527 143.06027222 207.88247681 145.97766113 198.25274658 151.98126221" stroke-width="1.82258630" fill="rgb(70, 26, 16)" opacity="1.0" stroke="rgb(110, 80, 38)" stroke-opacity="0.5886797" stroke-linecap="round" stroke-linejoin="round"/>
    <path d="M 418.68688965 399.92266846 C 418.58999634 401.10528564 418.46524048 402.27969360 418.12130737 403.52871704 C 417.53240967 404.67428589 416.91867065 405.85034180 416.40847778 406.94161987 C 415.84689331 407.84399414 415.31536865 408.64883423 414.70916748 409.39038086 C 414.04364014 409.70059204 413.40341187 409.76687622 412.83068848 409.79269409 C 412.52633667 409.54977417 412.45474243 409.02618408 412.33520508 408.27127075 C 411.89599609 407.54421997 411.59121704 406.66943359 411.50286865 405.68695068 C 411.55737305 404.68902588 411.50848389 403.75674438 411.45184326 402.77075195 C 411.70187378 402.00479126 412.21008301 401.39239502 412.83688354 400.81781006 C 413.60342407 400.27493286 414.49948120 399.58950806 415.36355591 398.95010376 C 416.19949341 398.37506104 417.01440430 397.89385986 418.68688965 399.92266846" stroke-width="1.76057684" fill="rgb(20, 38, 22)" opacity="1.0" stroke="rgb(125, 144, 104)" stroke-opacity="0.7153146" stroke-linecap="round" stroke-linejoin="round"/>
    <path d="M 308.66281128 148.95907593 C 310.86013794 154.38197327 313.12127686 159.62535095 315.33276367 164.77566528 C 317.32696533 169.58715820 318.94818115 174.19343567 320.00433350 178.47030640 C 320.60443115 182.45718384 321.20834351 185.80433655 321.42044067 188.41775513 C 320.90219116 190.18011475 319.89257812 191.29078674 318.53616333 191.55137634 C 317.18786621 190.96260071 316.27484131 189.51614380 316.05831909 187.16891479 C 316.45434570 183.97286987 316.49172974 180.14199829 315.79708862 175.72370911 C 314.50732422 170.63597107 312.95605469 165.32711792 310.96435547 160.03907776 C 308.50500488 154.97807312 305.95794678 150.16343689 303.98233032 145.64080811 C 303.41448975 141.33302307 304.25213623 137.21859741 305.95910645 133.34417725 C 308.57015991 130.12847900 311.82168579 127.29440308 315.11239624 124.53945160 C 317.73614502 121.68323517 319.32965088 118.45533752 319.89691162 114.81940460 C 319.51290894 111.17199707 318.06478882 107.65052032 315.48596191 104.39910889 C 312.33764648 101.18759155 309.08172607 98.18995667 306.06652832 95.68251801 C 303.73895264 93.85395050 303.01544189 92.44776917 303.93597412 91.47749329 C 305.86502075 91.52802277 307.99472046 93.20526886 310.33163452 96.39005280 C 313.32064819 99.84509277 317.29312134 102.99990845 321.61413574 106.01655579 C 325.49673462 109.11082458 328.91848755 111.82447052 331.24639893 114.06845856 C 331.68200684 115.88774109 330.15252686 117.50566864 327.25292969 119.61751556 C 323.82858276 122.86122131 319.95971680 126.92437744 315.62139893 131.43197632 C 310.95446777 136.36189270 305.98812866 141.31689453 308.66281128 148.95907593" stroke-width="1.46441150" fill="rgb(18, 13, 14)" opacity="1.0" stroke="rgb(22, 11, 0)" stroke-opacity="0.4581444" stroke-linecap="round" stroke-linejoin="round"/>
    <path d="M 349.06692505 351.60345459 C 346.69741821 354.40637207 344.29061890 357.06640625 341.56176758 359.42807007 C 338.70520020 361.32931519 335.74533081 362.71197510 333.01873779 363.99133301 C 330.76251221 365.43051147 329.06930542 367.22164917 328.07171631 369.21411133 C 327.62307739 371.23815918 327.79522705 373.29220581 328.55474854 375.35263062 C 329.86364746 377.19229126 331.63894653 378.76144409 333.63937378 380.25405884 C 336.04809570 381.19494629 338.66586304 381.98257446 341.41928101 382.53460693 C 344.10598755 383.04244995 346.46395874 383.54443359 348.37030029 384.32409668 C 349.75546265 384.94445801 350.53854370 385.33874512 350.54101562 385.84909058 C 349.64166260 386.31097412 347.90808105 386.70187378 345.66455078 387.15673828 C 342.97631836 387.73074341 340.10577393 388.34542847 337.09481812 388.94531250 C 333.94958496 389.46664429 330.95483398 389.65426636 328.21057129 389.66757202 C 325.63540649 389.59771729 323.54992676 389.65139771 322.03250122 389.85067749 C 321.29785156 389.66036987 321.05035400 389.00192261 321.12472534 387.90737915 C 321.17706299 386.33010864 321.09451294 384.38238525 321.08822632 382.22558594 C 321.27508545 379.86788940 321.78488159 377.37744141 322.15573120 374.72781372 C 322.40841675 371.99188232 322.54351807 369.25912476 322.78140259 366.46166992 C 323.20529175 363.73773193 323.74935913 361.04763794 324.28228760 358.53283691 C 324.91232300 356.16052246 325.65945435 354.11239624 326.96533203 352.33627319 C 328.76376343 351.01483154 330.86056519 349.89791870 333.08523560 348.77777100 C 335.39505005 347.57339478 337.82949829 346.33416748 349.06692505 351.60345459" stroke-width="1.52297938" fill="rgb(0, 5, 6)" opacity="1.0" stroke="rgb(0, 19, 10)" stroke-opacity="0.527238" stroke-linecap="round" stroke-linejoin="round"/>
    <path d="M 225.15867615 380.91873169 C 223.49784851 381.81369019 221.70068359 382.68197632 219.79226685 383.50866699 C 217.86907959 384.16458130 215.99288940 384.78955078 213.85749817 385.36685181 C 211.68786621 385.88793945 209.41209412 386.12652588 207.04484558 386.38052368 C 204.74726868 386.68310547 202.32919312 387.12222290 199.94497681 387.61123657 C 197.53266907 388.23416138 195.10758972 388.91735840 192.65951538 389.58193970 C 190.27261353 390.31500244 187.98181152 391.33560181 185.71510315 392.45870972 C 183.41818237 393.38360596 181.08865356 394.24856567 178.82356262 395.09887695 C 176.57444763 395.57409668 174.39619446 396.01788330 172.42970276 396.60751343 C 170.66184998 397.17727661 169.19042969 397.42977905 167.94972229 397.57489014 C 166.95262146 397.34796143 166.42311096 397.01760864 166.40971375 396.51022339 C 166.85758972 395.79638672 167.73576355 394.98037720 169.07275391 394.18829346 C 170.85940552 393.46282959 172.83457947 392.68319702 174.86477661 391.68621826 C 176.66902161 390.26937866 178.45889282 388.72467041 180.27455139 387.17144775 C 182.22009277 385.65911865 184.08856201 384.39468384 185.81278992 383.03561401 C 187.19624329 381.38363647 188.57278442 379.90048218 190.03218079 378.75796509 C 191.80493164 378.01556396 193.66339111 377.76190186 195.79711914 377.90228271 C 198.09892273 378.18783569 200.43408203 378.48031616 202.88720703 378.63348389 C 205.43336487 378.69750977 207.96066284 378.74884033 210.54565430 379.16680908 C 213.09533691 379.65798950 215.69142151 380.13839722 218.35433960 380.30834961 C 220.91517639 380.57421875 223.71766663 380.87472534 225.15867615 380.91873169" stroke-width="1.31636572" fill="rgb(25, 29, 6)" opacity="1.0" stroke="rgb(120, 138, 95)" stroke-opacity="0.8555064" stroke-linecap="round" stroke-linejoin="round"/>
    <path d="M 162.73568726 230.58161926 C 167.35501099 241.37344360 169.34271240 252.46246338 168.40554810 263.84796143 C 167.28063965 275.49584961 166.50263977 286.98272705 165.93045044 297.70037842 C 165.42164612 307.30017090 165.14704895 315.76647949 165.15339661 322.86999512 C 165.23410034 328.58630371 165.62432861 332.72351074 166.13752747 335.37417603 C 165.73144531 336.37335205 164.40820312 336.00939941 162.40281677 334.39862061 C 159.74636841 331.87304688 156.79876709 328.23022461 153.80595398 323.57022095 C 151.15136719 317.82485962 149.10565186 310.98049927 147.74862671 303.23361206 C 146.88258362 294.94171143 146.41394043 286.07293701 146.10339355 276.84841919 C 146.09417725 267.63705444 146.13313293 258.75061035 145.81956482 250.38356018 C 145.71292114 242.66123962 145.37950134 236.15644836 143.85838318 231.18193054 C 140.54603577 227.85093689 136.62960815 225.25540161 133.31523132 222.57635498 C 131.57467651 219.89022827 131.68463135 217.88520813 133.50981140 217.30705261 C 136.37507629 218.67045593 139.74592590 221.49583435 143.45991516 225.19573975 C 147.88642883 228.21496582 152.90467834 230.18911743 157.67370605 231.63154602 C 161.16987610 233.46060181 163.13409424 235.80430603 163.55746460 238.29150391 C 162.42837524 240.49572754 160.00180054 242.30624390 156.96545410 243.87208557 C 154.36108398 246.18753052 153.00869751 249.96221924 152.78994751 255.06416321 C 152.60945129 261.26931763 152.45239258 268.17962646 152.19236755 275.72146606 C 151.73699951 283.68002319 151.68180847 291.87115479 152.78906250 300.06906128 C 155.38449097 308.21191406 158.51429749 316.48916626 162.73568726 230.58161926" stroke-width="1.32801569" fill="rgb(253, 253, 243)" opacity="1.0" stroke="rgb(255, 240, 212)" stroke-opacity="0.65018445" stroke-linecap="round" stroke-linejoin="round"/>
    <path d="M 249.51196289 174.72660828 C 251.64144897 174.46038818 253.56489563 174.00399780 255.40248108 173.45355225 C 257.07702637 173.05227661 258.50427246 173.00262451 259.71487427 173.34861755 C 260.64785767 174.23661804 261.38247681 175.55111694 262.00500488 177.00578308 C 262.66986084 178.43855286 263.22128296 179.92854309 263.73001099 181.19728088 C 263.82846069 182.20710754 263.65206909 183.00480652 263.00402832 183.44157410 C 261.99893188 183.58050537 260.76150513 183.57896423 259.28823853 183.26034546 C 257.83956909 183.02629089 256.22192383 182.75019836 254.73583984 182.59727478 C 253.18321228 182.49444580 251.77339172 182.41946411 250.38383484 182.41879272 C 249.07557678 182.42323303 247.79197693 182.46812439 246.58837891 182.55020142 C 245.41737366 182.73640442 244.24691772 182.85037231 249.51196289 174.72660828" stroke-width="2.00000000" fill="rgb(231, 232, 138)" opacity="1.0" stroke="rgb(233, 209, 106)" stroke-opacity="0.43271345" stroke-linecap="round" stroke-linejoin="round"/>
    <path d="M 330.09906006 224.68684387 C 331.37289429 223.98120117 332.64419556 223.50180054 333.91479492 223.05543518 C 335.26260376 222.44964600 336.61669922 221.72436523 338.12857056 220.87597656 C 339.67868042 220.39602661 341.23263550 219.71923828 342.73950195 218.95028687 C 344.22860718 218.09899902 345.83657837 217.47602844 347.41232300 216.87588501 C 348.96737671 216.30792236 350.49215698 215.97639465 352.05468750 215.82450867 C 353.55807495 215.69703674 355.13064575 215.56794739 356.52709961 215.48432922 C 357.88504028 215.35583496 359.21112061 215.34832764 360.35540771 215.46275330 C 361.26550293 215.69470215 361.97570801 216.23341370 362.34625244 216.89877319 C 362.58493042 217.59382629 362.53643799 218.49166870 362.50961304 219.36764526 C 362.50357056 220.12910461 362.43841553 220.84640503 362.21340942 221.27847290 C 361.50857544 221.45909119 360.47357178 221.52496338 359.23779297 221.82035828 C 357.85595703 222.35348511 356.42098999 222.85997009 354.89208984 223.31581116 C 353.17547607 223.52563477 351.35430908 223.89808655 349.64727783 224.33076477 C 347.92761230 224.52537537 346.29483032 224.81610107 344.72827148 225.27386475 C 343.26821899 225.44934082 341.74850464 225.57955933 340.33218384 225.59591675 C 339.12710571 225.87763977 338.00912476 226.17715454 337.01422119 226.40419006 C 335.90539551 226.49937439 334.78643799 226.58251953 333.84567261 226.48329163 C 333.01321411 226.43455505 332.31002808 226.39851379 331.80096436 226.50584412 C 331.46978760 226.80197144 331.27868652 227.16429138 331.29098511 227.65910339 C 331.29809570 228.16516113 331.32312012 228.58543396 330.09906006 224.68684387" stroke-width="2.00000000" fill="rgb(228, 180, 30)" opacity="1.0" stroke="rgb(44, 13, 8)" stroke-opacity="1.0" stroke-linecap="round" stroke-linejoin="round"/>
    <path d="M 306.72085571 200.67376709 C 307.93295288 200.63401794 309.04705811 200.57447815 310.16339111 200.45874023 C 311.26028442 200.22189331 312.40814209 200.13696289 313.52307129 200.06416321 C 314.80764771 200.09666443 315.99520874 200.06950378 317.18753052 200.10435486 C 318.34521484 200.34663391 319.50573730 200.66766357 320.59307861 200.95526123 C 321.62512207 201.50070190 322.62026978 202.13140869 323.60449219 202.79420471 C 324.34667969 203.49505615 325.09918213 204.22196960 325.96237183 204.93600464 C 326.77352905 205.57553101 327.45147705 206.10870361 328.08398438 206.62957764 C 328.55529785 207.23171997 328.91845703 207.80761719 329.14102173 208.36207581 C 329.26107788 208.78131104 329.22421265 209.20051575 328.93902588 209.43492126 C 328.30776978 209.66346741 327.58685303 209.95652771 326.81604004 210.23912048 C 325.93704224 210.42234802 325.06665039 210.75132751 324.07266235 211.12968445 C 322.99978638 211.28633118 321.98907471 211.27198792 321.04223633 211.12944031 C 319.94543457 210.88967896 318.79473877 210.60061646 317.60180664 210.33128357 C 316.52401733 210.05911255 315.49996948 209.59698486 314.48104858 209.15306091 C 313.55151367 208.47921753 312.58798218 207.99955750 311.63522339 207.41520691 C 310.64129639 206.86051941 309.79132080 206.32513428 309.00933838 205.80607605 C 308.18643188 205.26994324 307.33139038 204.90280151 306.55886841 204.51268005 C 305.87194824 203.96119690 305.20913696 203.52368164 304.69485474 203.15382385 C 304.23901367 202.67173767 304.03210449 202.11820984 303.72033691 201.56436157 C 303.41403198 201.04280090 303.07626343 200.52828979 306.72085571 200.67376709" stroke-width="1.33563173" fill="rgb(246, 244, 248)" opacity="1.0" stroke="rgb(128, 131, 154)" stroke-opacity="0.9214071" stroke-linecap="round" stroke-linejoin="round"/>
    <path d="M 261.44619751 205.53059387 C 263.43191528 205.45262146 265.34323120 205.38314819 267.34381104 205.21691895 C 269.26635742 205.01533508 271.24594116 204.83757019 273.26284790 204.69880676 C 275.24868774 204.73628235 277.27548218 204.62722778 279.44631958 204.51817322 C 281.49600220 204.36787415 283.66647339 204.19908142 285.79568481 204.09153748 C 287.89096069 203.99244690 289.99407959 203.96272278 291.92572021 203.89436340 C 293.84896851 203.97309875 295.56927490 204.14755249 297.07070923 204.36589050 C 298.46200562 204.74568176 299.47296143 205.35305786 300.27682495 205.86332703 C 300.87420654 206.37487793 301.12796021 206.76882935 301.01620483 207.13726807 C 300.56466675 207.36460876 299.77880859 207.52116394 298.63571167 207.57295227 C 297.32531738 207.64584351 295.79681396 207.62265015 294.06005859 207.69816589 C 292.20898438 207.68074036 290.21618652 207.66117859 288.13973999 207.59660339 C 286.00592041 207.54132080 283.85513306 207.43591309 281.67312622 207.30778503 C 279.41149902 207.16470337 277.29058838 207.17738342 275.07369995 207.20550537 C 272.89721680 207.20146179 270.87088013 207.25408936 268.79711914 207.29541016 C 266.84298706 207.31176758 264.91510010 207.30717468 263.15444946 207.27230835 C 261.43154907 207.23956299 259.84182739 207.30555725 258.42788696 207.29930115 C 257.00735474 207.37158203 255.84933472 207.39349365 254.77384949 207.43791199 C 253.85002136 207.51963806 253.13175964 207.55375671 252.53599548 207.44195557 C 252.10511780 207.19911194 251.76821899 206.83671570 251.58711243 206.35317993 C 251.27404785 205.84169006 251.10597229 205.25732422 261.44619751 205.53059387" stroke-width="1.10233748" fill="rgb(192, 113, 45)" opacity="1.0" stroke="rgb(102, 45, 23)" stroke-opacity="0.87582093" stroke-linecap="round" stroke-linejoin="round"/>
    <path d="M 112.10066223 325.28768921 C 110.27775574 325.62115479 108.69015503 326.09744263 107.31971741 326.46115112 C 106.15667725 326.50845337 105.48593140 326.05053711 105.10265350 325.15618896 C 105.19741058 324.04589844 105.63773346 322.67367554 106.29194641 320.98718262 C 107.06182861 319.15219116 107.85153961 317.17657471 108.63462067 315.32739258 C 109.49685669 313.55606079 110.64189911 312.16531372 111.89663696 311.19717407 C 112.99916077 310.20928955 114.12387085 309.13281250 115.05727386 308.35787964 C 115.76596832 308.05340576 116.39930725 308.21963501 117.07044983 308.65414429 C 117.42471313 309.49060059 117.65595245 310.54446411 117.93962860 312.00042725 C 118.42542267 313.57681274 119.05461884 315.37097168 119.63538361 317.20379639 C 120.14172363 319.20895386 120.71373749 321.41809082 112.10066223 325.28768921" stroke-width="1.43139410" fill="rgb(8, 15, 9)" opacity="1.0" stroke="rgb(83, 129, 105)" stroke-opacity="0.8028711" stroke-linecap="round" stroke-linejoin="round"/>
    <path d="M 247.73852539 391.73852539 C 245.41995239 391.69183350 243.22082520 391.71130371 241.30378723 391.68972778 C 239.64440918 391.28616333 238.28460693 390.55096436 237.06417847 389.51336670 C 236.23829651 388.30871582 235.75048828 386.92666626 235.38078308 385.46868896 C 235.07373047 384.23422241 234.75421143 383.16958618 234.44223022 382.34722900 C 234.58694458 381.88354492 235.02352905 381.55731201 235.74803162 381.50857544 C 236.80841064 381.64810181 238.23899841 381.68176270 239.75662231 381.63061523 C 241.40104675 381.75689697 243.01524353 382.02297974 244.54216003 382.21646118 C 245.99143982 382.34268188 247.34925842 382.68496704 248.59384155 383.23529053 C 249.90562439 383.78527832 251.14967346 384.24011230 252.12956238 384.96008301 C 253.06301880 386.16766357 254.03749084 387.68817139 247.73852539 391.73852539" stroke-width="1.73238289" fill="rgb(3, 8, 1)" opacity="1.0" stroke="rgb(110, 131, 82)" stroke-opacity="0.81934357" stroke-linecap="round" stroke-linejoin="round"/>
    <path d="M 246.31767273 420.13046265 C 246.90499878 419.21643066 247.56636047 418.20632935 248.25740051 417.17379761 C 249.01538086 416.26062012 249.92570496 415.59704590 251.01972961 415.07080078 C 252.22106934 414.43496704 253.39125061 413.99514771 254.56938171 413.82501221 C 255.82281494 413.82577515 256.89794922 414.12277222 257.78826904 414.74334717 C 258.57226562 415.62033081 259.20013428 416.73321533 259.50802612 417.97433472 C 259.51776123 419.30130005 259.33990479 420.71820068 258.95532227 422.11221313 C 258.42745972 423.34716797 257.66323853 424.50961304 256.77026367 425.53945923 C 255.55604553 426.33993530 254.32331848 427.06063843 253.12821960 427.52612305 C 251.72383118 427.59887695 250.40266418 427.44857788 249.01296997 426.98754883 C 247.44252014 426.60052490 245.97200012 426.06805420 246.31767273 420.13046265" stroke-width="1.66923928" fill="rgb(12, 13, 13)" opacity="1.0" stroke="rgb(118, 127, 114)" stroke-opacity="0.8222579" stroke-linecap="round" stroke-linejoin="round"/>
    <path d="M 104.55621338 183.80801392 C 105.15513611 182.72262573 105.87551880 181.68705750 106.74363708 180.67211914 C 107.64444733 180.00790405 108.43439484 179.61045837 109.33649445 179.57006836 C 110.25856018 180.01588440 111.12879944 180.78689575 111.95258331 181.87609863 C 112.70661926 183.11585999 113.42118835 184.51278687 113.95888519 185.97586060 C 114.33535767 187.53663635 114.42816162 188.91497803 114.17666626 190.35833740 C 113.56255341 191.65705872 112.87200165 192.87944031 112.15433502 193.88040161 C 111.49542999 194.76121521 110.85120392 195.45291138 109.98768616 195.83297729 C 109.06654358 195.94682312 108.13338470 195.79574585 107.34010315 195.51390076 C 106.61129761 194.91481018 105.86947632 193.94024658 105.26492310 192.89031982 C 104.61127472 191.80279541 103.76919556 190.85147095 104.55621338 183.80801392" stroke-width="1.73050618" fill="rgb(2, 9, 102)" opacity="1.0" stroke="rgb(76, 120, 183)" stroke-opacity="0.7499532" stroke-linecap="round" stroke-linejoin="round"/>
    <path d="M 92.51217651 278.06311035 C 92.94311523 277.17065430 93.47734833 276.40829468 94.15859985 275.84536743 C 94.93029785 275.52911377 95.71830750 275.56518555 96.57625580 275.83871460 C 97.41281128 276.47048950 98.12818909 277.37109375 98.64198303 278.53613281 C 99.15959930 279.88204956 99.59259033 281.29702759 100.00845337 282.87490845 C 100.28071594 284.38992310 100.27677917 285.88507080 100.13467407 287.23538208 C 100.00788116 288.47653198 99.93634033 289.50332642 99.76008606 290.15618896 C 99.28475952 290.41870117 98.69494629 290.28640747 97.99812317 289.85488892 C 97.12196350 289.28991699 96.07384491 288.72982788 94.80093384 288.20498657 C 93.48901367 287.67358398 92.10028839 286.87686157 90.91120911 285.68313599 C 89.55783081 284.40795898 88.08438110 283.03616333 92.51217651 278.06311035" stroke-width="1.50871027" fill="rgb(3, 72, 58)" opacity="1.0" stroke="rgb(73, 157, 139)" stroke-opacity="0.7507828" stroke-linecap="round" stroke-linejoin="round"/>
    <path d="M 106.04042053 369.21972656 C 105.04541779 370.41610718 103.94979095 371.30606079 102.58328247 371.20538330 C 100.98393250 370.05905151 99.09570312 368.28146362 97.24958038 366.01687622 C 95.68882751 363.39544678 94.14754486 360.63519287 92.34179688 358.28018188 C 90.23720551 356.58908081 87.98667908 355.37225342 85.91615295 354.49395752 C 84.45088196 353.89157104 83.78081512 353.41186523 84.24474335 352.79598999 C 85.64647675 352.03094482 87.49010468 350.78247070 89.35552979 348.88644409 C 91.07915497 346.58532715 92.76662445 344.14157104 94.19472504 341.75012207 C 95.32929993 339.51721191 96.63706970 337.76309204 98.35448456 336.82696533 C 100.70336151 336.82666016 103.62265015 337.30865479 106.98323822 338.14593506 C 110.52869415 339.73321533 114.10906219 341.70864868 117.60650635 343.95736694 C 121.27455902 346.24288940 124.85172272 348.32107544 127.67599487 350.78384399 C 129.19459534 354.06973267 129.59840393 357.69525146 129.67602539 361.10250854 C 130.63365173 363.40090942 133.11587524 364.53790283 137.31405640 364.63031006 C 142.77732849 364.07723999 149.17945862 363.17599487 156.22196960 362.14303589 C 163.40614319 362.35415649 170.07794189 362.81051636 175.23171997 363.44757080 C 177.69964600 364.65600586 176.82077026 366.13613892 172.74301147 367.29681396 C 166.22727966 368.16473389 158.43447876 368.72311401 150.19168091 368.86148071 C 142.24572754 368.69952393 135.12266541 369.28341675 129.20481873 370.82214355 C 125.07421875 373.04733276 122.50045776 374.27474976 121.36498260 373.24548340 C 121.31151581 369.94055176 121.58972168 365.92889404 106.04042053 369.21972656" stroke-width="1.30927932" fill="rgb(14, 6, 3)" opacity="1.0" stroke="rgb(0, 10, 0)" stroke-opacity="0.6550405" stroke-linecap="round" stroke-linejoin="round"/>
    <path d="M 304.52172852 439.56591797 C 305.76791382 439.31442261 306.92910767 439.00903320 308.18344116 438.76785278 C 309.19171143 438.48455811 310.27767944 438.19183350 311.18646240 438.02050781 C 312.00726318 437.83728027 312.64944458 437.73077393 313.19818115 437.78939819 C 313.57806396 437.88000488 313.72607422 438.07598877 313.78106689 438.43713379 C 313.60342407 438.72515869 313.27804565 439.22927856 312.78936768 439.63952637 C 312.18820190 440.18496704 311.46026611 440.74194336 310.65585327 441.32015991 C 309.84375000 441.98211670 308.89120483 442.63531494 307.99420166 443.37609863 C 307.06671143 444.07324219 306.05484009 444.77450562 305.09008789 445.47814941 C 304.09854126 446.10345459 303.01727295 446.70581055 301.99743652 447.24588013 C 300.93664551 447.83340454 299.85928345 448.33102417 304.52172852 439.56591797" stroke-width="2.00000000" fill="rgb(222, 239, 223)" opacity="1.0" stroke="rgb(232, 246, 234)" stroke-opacity="0.8182048" stroke-linecap="round" stroke-linejoin="round"/>
  </g>
</svg>
