<svg xmlns="http://www.w3.org/2000/svg" viewBox="0 0 1000 1000" height="1000.0px" width="1000.0px">
<path id="" fill="#ffffff" fill-opacity="1.0" stroke="#000000" stroke-width="0.0" stroke-opacity="1.0" stroke-linecap="round" stroke-linejoin="round"  filling="0" d="M1510.000 500.000 C1510.000 636.874 1483.507 767.946 1430.522 893.217 C1379.401 1014.083 1307.286 1121.070 1214.178 1214.178 C1121.070 1307.285 1014.083 1379.400 893.218 1430.522 C767.947 1483.507 636.875 1510.000 500.000 1510.000 C363.126 1510.000 232.054 1483.507 106.783 1430.522 C-14.083 1379.401 -121.070 1307.286 -214.178 1214.178 C-307.285 1121.070 -379.400 1014.083 -430.522 893.218 C-483.507 767.947 -510.000 636.874 -510.000 500.000 C-510.000 363.126 -483.507 232.054 -430.522 106.783 C-379.401 -14.083 -307.286 -121.070 -214.178 -214.178 C-121.070 -307.285 -14.083 -379.400 106.783 -430.522 C232.054 -483.507 363.126 -510.000 500.000 -510.000 C636.874 -510.000 767.946 -483.507 893.217 -430.522 C1014.083 -379.400 1121.070 -307.285 1214.178 -214.178 C1307.286 -121.070 1379.401 -14.083 1430.522 106.783 C1483.507 232.054 1510.000 363.126 1510.000 500.000"></path>
<path id="" fill="#ffffff" fill-opacity="1.0" stroke="#000000" stroke-width="0.0" stroke-opacity="1.0" stroke-linecap="round" stroke-linejoin="round"  filling="0" d="M990.000 500.000 C990.000 433.425 977.200 369.875 951.600 309.350 C926.818 250.758 891.779 198.814 846.482 153.518 C801.186 108.221 749.242 73.182 690.650 48.400 C630.125 22.800 566.575 10.000 500.000 10.000 C433.425 10.000 369.875 22.800 309.350 48.400 C250.758 73.182 198.814 108.221 153.518 153.518 C108.221 198.814 73.182 250.758 48.400 309.350 C22.800 369.875 10.000 433.425 10.000 500.000 C10.000 566.575 22.800 630.125 48.400 690.650 C73.182 749.242 108.221 801.186 153.518 846.482 C198.814 891.779 250.758 926.818 309.350 951.600 C369.875 977.200 433.425 990.000 500.000 990.000 C566.575 990.000 630.125 977.200 690.650 951.600 C749.242 926.818 801.186 891.779 846.482 846.482 C891.779 801.186 926.818 749.242 951.600 690.650 C977.200 630.125 990.000 566.575 990.000 500.000"></path>
<path id="" fill="#fcb503" fill-opacity="1.0" stroke="#000000" stroke-width="0.0" stroke-opacity="1.0" stroke-linecap="round" stroke-linejoin="round"  filling="0" d="M815.500 501.000 C813.000 503.167 810.500 505.333 808.000 507.500 C747.333 507.833 686.667 508.167 626.000 508.500 C622.167 494.333 618.333 480.167 614.500 466.000 C612.833 467.333 611.167 468.667 609.500 470.000 C608.500 463.333 607.500 456.667 606.500 450.000 C594.667 439.167 582.833 428.333 571.000 417.500 C555.667 412.167 540.333 406.833 525.000 401.500 C511.667 402.500 498.333 403.500 485.000 404.500 C470.667 411.167 456.333 417.833 442.000 424.500 C433.833 433.000 425.667 441.500 417.500 450.000 C410.333 469.167 403.167 488.333 396.000 507.500 C336.667 507.500 277.333 507.500 218.000 507.500 C215.167 506.333 212.333 505.167 209.500 504.000 C208.833 499.667 208.167 495.333 207.500 491.000 C213.167 459.667 218.833 428.333 224.500 397.000 C230.500 385.333 236.500 373.667 242.500 362.000 C253.167 346.333 263.833 330.667 274.500 315.000 C293.667 295.833 312.833 276.667 332.000 257.500 C358.667 245.500 385.333 233.500 412.000 221.500 C412.000 219.833 412.000 218.167 412.000 216.500 C427.667 211.833 443.333 207.167 459.000 202.500 C468.667 214.500 478.333 226.500 488.000 238.500 C494.167 241.333 500.333 244.167 506.500 247.000 C507.667 252.500 508.833 258.000 510.000 263.500 C512.833 257.667 515.667 251.833 518.500 246.000 C526.000 241.833 533.500 237.667 541.000 233.500 C548.000 223.500 555.000 213.500 562.000 203.500 C565.000 205.500 568.000 207.500 571.000 209.500 C573.333 207.833 575.667 206.167 578.000 204.500 C580.667 207.833 583.333 211.167 586.000 214.500 C588.667 213.500 591.333 212.500 594.000 211.500 C604.667 214.500 615.333 217.500 626.000 220.500 C625.000 222.167 624.000 223.833 623.000 225.500 C646.333 236.167 669.667 246.833 693.000 257.500 C712.500 276.000 732.000 294.500 751.500 313.000 C763.833 336.000 776.167 359.000 788.500 382.000 C791.833 385.000 795.167 388.000 798.500 391.000 C804.167 427.667 809.833 464.333 815.500 501.000"></path>
<path id="" fill="#ee3724" fill-opacity="1.0" stroke="#000000" stroke-width="0.0" stroke-opacity="1.0" stroke-linecap="round" stroke-linejoin="round"  filling="0" d="M618.500 506.000 C617.000 507.167 615.500 508.333 614.000 509.500 C574.000 509.500 534.000 509.500 494.000 509.500 C489.667 504.167 485.333 498.833 481.000 493.500 C476.333 490.833 471.667 488.167 467.000 485.500 C464.000 484.833 461.000 484.167 458.000 483.500 C452.667 483.500 447.333 483.500 442.000 483.500 C437.667 484.833 433.333 486.167 429.000 487.500 C422.333 492.833 415.667 498.167 409.000 503.500 C408.500 503.000 408.000 502.500 407.500 502.000 C407.500 497.333 407.500 492.667 407.500 488.000 C409.167 482.000 410.833 476.000 412.500 470.000 C416.833 462.000 421.167 454.000 425.500 446.000 C431.000 440.167 436.500 434.333 442.000 428.500 C450.667 423.167 459.333 417.833 468.000 412.500 C475.667 410.167 483.333 407.833 491.000 405.500 C503.333 405.500 515.667 405.500 528.000 405.500 C533.667 406.500 539.333 407.500 545.000 408.500 C550.667 411.167 556.333 413.833 562.000 416.500 C569.333 421.500 576.667 426.500 584.000 431.500 C587.500 435.000 591.000 438.500 594.500 442.000 C597.833 446.667 601.167 451.333 604.500 456.000 C607.167 461.667 609.833 467.333 612.500 473.000 C612.500 474.333 612.500 475.667 612.500 477.000 C613.500 478.333 614.500 479.667 615.500 481.000 C615.833 485.333 616.167 489.667 616.500 494.000 C617.167 495.000 617.833 496.000 618.500 497.000 C618.500 500.000 618.500 503.000 618.500 506.000"></path>
<path id="" fill="#f47dab" fill-opacity="1.0" stroke="#000000" stroke-width="0.0" stroke-opacity="1.0" stroke-linecap="round" stroke-linejoin="round"  filling="0" d="M514.000 777.500 C512.333 777.500 510.667 777.500 509.000 777.500 C504.833 773.667 500.667 769.833 496.500 766.000 C494.333 762.167 492.167 758.333 490.000 754.500 C487.333 755.833 484.667 757.167 482.000 758.500 C478.333 759.167 474.667 759.833 471.000 760.500 C463.333 759.833 455.667 759.167 448.000 758.500 C448.167 756.667 448.333 754.833 448.500 753.000 C450.167 750.667 451.833 748.333 453.500 746.000 C448.667 743.833 443.833 741.667 439.000 739.500 C435.167 736.333 431.333 733.167 427.500 730.000 C429.333 728.833 431.167 727.667 433.000 726.500 C437.833 725.333 442.667 724.167 447.500 723.000 C447.167 721.333 446.833 719.667 446.500 718.000 C443.833 714.333 441.167 710.667 438.500 707.000 C436.167 701.000 433.833 695.000 431.500 689.000 C432.333 687.500 433.167 686.000 434.000 684.500 C439.667 685.500 445.333 686.500 451.000 687.500 C451.500 682.333 452.000 677.167 452.500 672.000 C453.667 670.833 454.833 669.667 456.000 668.500 C460.333 669.500 464.667 670.500 469.000 671.500 C470.833 667.000 472.667 662.500 474.500 658.000 C475.667 656.833 476.833 655.667 478.000 654.500 C479.667 654.833 481.333 655.167 483.000 655.500 C486.667 658.833 490.333 662.167 494.000 665.500 C495.000 665.500 496.000 665.500 497.000 665.500 C501.667 659.833 506.333 654.167 511.000 648.500 C513.167 650.000 515.333 651.500 517.500 653.000 C520.333 657.167 523.167 661.333 526.000 665.500 C527.333 665.500 528.667 665.500 530.000 665.500 C532.667 662.833 535.333 660.167 538.000 657.500 C540.333 656.500 542.667 655.500 545.000 654.500 C548.333 659.500 551.667 664.500 555.000 669.500 C558.667 669.500 562.333 669.500 566.000 669.500 C567.500 670.667 569.000 671.833 570.500 673.000 C571.333 677.500 572.167 682.000 573.000 686.500 C578.333 685.500 583.667 684.500 589.000 683.500 C590.167 685.333 591.333 687.167 592.500 689.000 C592.167 691.000 591.833 693.000 591.500 695.000 C586.167 703.667 580.833 712.333 575.500 721.000 C576.333 721.833 577.167 722.667 578.000 723.500 C583.500 725.333 589.000 727.167 594.500 729.000 C593.667 730.833 592.833 732.667 592.000 734.500 C584.500 738.333 577.000 742.167 569.500 746.000 C571.500 749.000 573.500 752.000 575.500 755.000 C575.333 756.167 575.167 757.333 575.000 758.500 C567.000 759.167 559.000 759.833 551.000 760.500 C547.667 759.833 544.333 759.167 541.000 758.500 C538.333 757.167 535.667 755.833 533.000 754.500 C530.833 758.333 528.667 762.167 526.500 766.000 C522.333 769.833 518.167 773.667 514.000 777.500"></path>
<path id="" fill="#ef3821" fill-opacity="1.0" stroke="#000000" stroke-width="0.0" stroke-opacity="1.0" stroke-linecap="round" stroke-linejoin="round"  filling="0" d="M514.000 391.500 C510.833 390.667 507.667 389.833 504.500 389.000 C504.500 382.667 504.500 376.333 504.500 370.000 C503.833 368.000 503.167 366.000 502.500 364.000 C502.833 361.667 503.167 359.333 503.500 357.000 C500.833 327.667 498.167 298.333 495.500 269.000 C495.500 262.667 495.500 256.333 495.500 250.000 C497.500 248.667 499.500 247.333 501.500 246.000 C497.667 244.167 493.833 242.333 490.000 240.500 C486.833 237.000 483.667 233.500 480.500 230.000 C472.500 215.000 464.500 200.000 456.500 185.000 C456.500 179.000 456.500 173.000 456.500 167.000 C457.833 164.000 459.167 161.000 460.500 158.000 C464.667 153.500 468.833 149.000 473.000 144.500 C476.667 143.167 480.333 141.833 484.000 140.500 C493.333 141.167 502.667 141.833 512.000 142.500 C515.333 141.833 518.667 141.167 522.000 140.500 C528.667 140.833 535.333 141.167 542.000 141.500 C544.667 142.500 547.333 143.500 550.000 144.500 C553.000 147.167 556.000 149.833 559.000 152.500 C561.500 157.000 564.000 161.500 566.500 166.000 C566.833 170.667 567.167 175.333 567.500 180.000 C565.500 186.000 563.500 192.000 561.500 198.000 C556.833 204.667 552.167 211.333 547.500 218.000 C546.500 221.000 545.500 224.000 544.500 227.000 C542.500 230.000 540.500 233.000 538.500 236.000 C533.167 239.333 527.833 242.667 522.500 246.000 C523.833 247.667 525.167 249.333 526.500 251.000 C526.167 267.333 525.833 283.667 525.500 300.000 C523.833 313.667 522.167 327.333 520.500 341.000 C519.833 357.000 519.167 373.000 518.500 389.000 C517.000 389.833 515.500 390.667 514.000 391.500"></path>
<path id="" fill="#f88a21" fill-opacity="1.0" stroke="#000000" stroke-width="0.0" stroke-opacity="1.0" stroke-linecap="round" stroke-linejoin="round"  filling="0" d="M505.000 271.500 C504.167 270.667 503.333 269.833 502.500 269.000 C503.500 266.333 504.500 263.667 505.500 261.000 C505.833 256.000 506.167 251.000 506.500 246.000 C504.667 245.167 502.833 244.333 501.000 243.500 C499.333 243.500 497.667 243.500 496.000 243.500 C493.667 242.167 491.333 240.833 489.000 239.500 C486.500 236.333 484.000 233.167 481.500 230.000 C479.500 225.667 477.500 221.333 475.500 217.000 C471.833 212.000 468.167 207.000 464.500 202.000 C462.167 197.667 459.833 193.333 457.500 189.000 C456.833 185.667 456.167 182.333 455.500 179.000 C455.833 174.667 456.167 170.333 456.500 166.000 C458.833 162.000 461.167 158.000 463.500 154.000 C466.333 151.167 469.167 148.333 472.000 145.500 C476.333 143.833 480.667 142.167 485.000 140.500 C490.333 140.500 495.667 140.500 501.000 140.500 C504.000 141.167 507.000 141.833 510.000 142.500 C514.333 141.833 518.667 141.167 523.000 140.500 C529.333 140.833 535.667 141.167 542.000 141.500 C545.667 143.500 549.333 145.500 553.000 147.500 C556.833 152.000 560.667 156.500 564.500 161.000 C565.500 165.000 566.500 169.000 567.500 173.000 C567.167 177.667 566.833 182.333 566.500 187.000 C565.500 189.333 564.500 191.667 563.500 194.000 C559.500 199.667 555.500 205.333 551.500 211.000 C548.500 217.000 545.500 223.000 542.500 229.000 C540.833 231.333 539.167 233.667 537.500 236.000 C534.667 238.167 531.833 240.333 529.000 242.500 C525.333 243.167 521.667 243.833 518.000 244.500 C517.500 245.000 517.000 245.500 516.500 246.000 C517.167 253.333 517.833 260.667 518.500 268.000 C518.833 268.333 519.167 268.667 519.500 269.000 C518.333 269.500 517.167 270.000 516.000 270.500 C515.333 269.833 514.667 269.167 514.000 268.500 C513.333 268.500 512.667 268.500 512.000 268.500 C509.667 269.500 507.333 270.500 505.000 271.500"></path>
<path id="" fill="#fdd102" fill-opacity="1.0" stroke="#000000" stroke-width="0.0" stroke-opacity="1.0" stroke-linecap="round" stroke-linejoin="round"  filling="0" d="M530.000 397.500 C526.500 395.333 523.000 393.167 519.500 391.000 C520.167 378.000 520.833 365.000 521.500 352.000 C522.167 348.333 522.833 344.667 523.500 341.000 C523.833 331.333 524.167 321.667 524.500 312.000 C524.833 311.667 525.167 311.333 525.500 311.000 C525.833 294.333 526.167 277.667 526.500 261.000 C526.833 260.667 527.167 260.333 527.500 260.000 C527.500 255.667 527.500 251.333 527.500 247.000 C527.167 246.667 526.833 246.333 526.500 246.000 C530.000 243.500 533.500 241.000 537.000 238.500 C538.500 238.000 540.000 237.500 541.500 237.000 C542.500 233.667 543.500 230.333 544.500 227.000 C547.333 223.167 550.167 219.333 553.000 215.500 C554.667 215.167 556.333 214.833 558.000 214.500 C558.667 213.833 559.333 213.167 560.000 212.500 C562.667 212.500 565.333 212.500 568.000 212.500 C573.000 213.833 578.000 215.167 583.000 216.500 C583.167 218.333 583.333 220.167 583.500 222.000 C581.833 226.667 580.167 231.333 578.500 236.000 C578.167 239.333 577.833 242.667 577.500 246.000 C574.833 256.000 572.167 266.000 569.500 276.000 C569.500 277.667 569.500 279.333 569.500 281.000 C567.500 286.667 565.500 292.333 563.500 298.000 C563.500 299.333 563.500 300.667 563.500 302.000 C562.833 303.000 562.167 304.000 561.500 305.000 C560.833 310.000 560.167 315.000 559.500 320.000 C557.500 326.667 555.500 333.333 553.500 340.000 C553.500 341.667 553.500 343.333 553.500 345.000 C552.167 348.667 550.833 352.333 549.500 356.000 C549.500 357.667 549.500 359.333 549.500 361.000 C548.167 364.333 546.833 367.667 545.500 371.000 C545.500 373.000 545.500 375.000 545.500 377.000 C544.167 381.000 542.833 385.000 541.500 389.000 C541.500 390.667 541.500 392.333 541.500 394.000 C540.000 395.167 538.500 396.333 537.000 397.500 C534.667 397.500 532.333 397.500 530.000 397.500"></path>
<path id="" fill="#fdd102" fill-opacity="1.0" stroke="#000000" stroke-width="0.0" stroke-opacity="1.0" stroke-linecap="round" stroke-linejoin="round"  filling="0" d="M491.000 396.500 C488.333 395.833 485.667 395.167 483.000 394.500 C482.167 393.333 481.333 392.167 480.500 391.000 C479.500 387.000 478.500 383.000 477.500 379.000 C477.500 377.000 477.500 375.000 477.500 373.000 C476.833 371.667 476.167 370.333 475.500 369.000 C474.167 363.667 472.833 358.333 471.500 353.000 C471.500 351.333 471.500 349.667 471.500 348.000 C468.500 337.333 465.500 326.667 462.500 316.000 C462.167 312.667 461.833 309.333 461.500 306.000 C456.500 287.333 451.500 268.667 446.500 250.000 C445.833 244.000 445.167 238.000 444.500 232.000 C443.833 231.333 443.167 230.667 442.500 230.000 C442.500 228.667 442.500 227.333 442.500 226.000 C441.833 225.000 441.167 224.000 440.500 223.000 C440.667 220.833 440.833 218.667 441.000 216.500 C442.333 216.500 443.667 216.500 445.000 216.500 C446.000 215.833 447.000 215.167 448.000 214.500 C452.000 213.500 456.000 212.500 460.000 211.500 C463.333 212.500 466.667 213.500 470.000 214.500 C473.500 220.000 477.000 225.500 480.500 231.000 C480.500 233.333 480.500 235.667 480.500 238.000 C481.000 238.500 481.500 239.000 482.000 239.500 C483.333 239.167 484.667 238.833 486.000 238.500 C489.167 241.000 492.333 243.500 495.500 246.000 C495.167 249.000 494.833 252.000 494.500 255.000 C495.167 258.333 495.833 261.667 496.500 265.000 C496.833 282.667 497.167 300.333 497.500 318.000 C499.500 338.000 501.500 358.000 503.500 378.000 C503.167 379.000 502.833 380.000 502.500 381.000 C502.833 384.333 503.167 387.667 503.500 391.000 C499.333 392.833 495.167 394.667 491.000 396.500"></path>
<path id="" fill="#ef3823" fill-opacity="1.0" stroke="#000000" stroke-width="0.0" stroke-opacity="1.0" stroke-linecap="round" stroke-linejoin="round"  filling="0" d="M474.000 397.500 C472.333 397.500 470.667 397.500 469.000 397.500 C467.167 394.000 465.333 390.500 463.500 387.000 C443.833 334.667 424.167 282.333 404.500 230.000 C405.000 228.833 405.500 227.667 406.000 226.500 C408.000 225.500 410.000 224.500 412.000 223.500 C418.667 221.500 425.333 219.500 432.000 217.500 C433.667 217.500 435.333 217.500 437.000 217.500 C438.167 220.000 439.333 222.500 440.500 225.000 C451.167 267.667 461.833 310.333 472.500 353.000 C474.500 362.667 476.500 372.333 478.500 382.000 C479.167 383.333 479.833 384.667 480.500 386.000 C480.833 388.667 481.167 391.333 481.500 394.000 C479.000 395.167 476.500 396.333 474.000 397.500"></path>
<path id="" fill="#ef3723" fill-opacity="1.0" stroke="#000000" stroke-width="0.0" stroke-opacity="1.0" stroke-linecap="round" stroke-linejoin="round"  filling="0" d="M549.000 397.500 C546.500 396.333 544.000 395.167 541.500 394.000 C541.833 391.000 542.167 388.000 542.500 385.000 C543.833 381.333 545.167 377.667 546.500 374.000 C547.500 368.333 548.500 362.667 549.500 357.000 C550.500 354.333 551.500 351.667 552.500 349.000 C552.500 347.667 552.500 346.333 552.500 345.000 C553.167 343.667 553.833 342.333 554.500 341.000 C554.500 339.667 554.500 338.333 554.500 337.000 C555.167 335.667 555.833 334.333 556.500 333.000 C556.500 331.667 556.500 330.333 556.500 329.000 C557.167 327.667 557.833 326.333 558.500 325.000 C558.500 323.667 558.500 322.333 558.500 321.000 C559.833 317.000 561.167 313.000 562.500 309.000 C562.500 307.667 562.500 306.333 562.500 305.000 C569.167 278.667 575.833 252.333 582.500 226.000 C583.667 223.167 584.833 220.333 586.000 217.500 C588.000 217.500 590.000 217.500 592.000 217.500 C598.333 219.500 604.667 221.500 611.000 223.500 C613.000 224.500 615.000 225.500 617.000 226.500 C617.500 227.667 618.000 228.833 618.500 230.000 C598.167 284.000 577.833 338.000 557.500 392.000 C556.333 393.833 555.167 395.667 554.000 397.500 C552.333 397.500 550.667 397.500 549.000 397.500"></path>
<path id="" fill="#ee3723" fill-opacity="1.0" stroke="#000000" stroke-width="0.0" stroke-opacity="1.0" stroke-linecap="round" stroke-linejoin="round"  filling="0" d="M414.000 440.500 C412.667 440.500 411.333 440.500 410.000 440.500 C362.333 407.167 314.667 373.833 267.000 340.500 C265.833 339.333 264.667 338.167 263.500 337.000 C267.833 330.667 272.167 324.333 276.500 318.000 C279.000 315.833 281.500 313.667 284.000 311.500 C284.667 311.500 285.333 311.500 286.000 311.500 C328.667 349.167 371.333 386.833 414.000 424.500 C415.833 427.333 417.667 430.167 419.500 433.000 C417.667 435.500 415.833 438.000 414.000 440.500"></path>
<path id="" fill="#ee3723" fill-opacity="1.0" stroke="#000000" stroke-width="0.0" stroke-opacity="1.0" stroke-linecap="round" stroke-linejoin="round"  filling="0" d="M383.500 469.000 C383.500 468.667 383.500 468.333 383.500 468.000 C383.833 467.667 384.167 467.333 384.500 467.000 C384.500 466.667 384.500 466.333 384.500 466.000 C384.667 465.833 384.833 465.667 385.000 465.500 C385.333 465.500 385.667 465.500 386.000 465.500 C386.333 465.833 386.667 466.167 387.000 466.500 C388.667 466.500 390.333 466.500 392.000 466.500 C392.833 465.667 393.667 464.833 394.500 464.000 C394.500 463.667 394.500 463.333 394.500 463.000 C395.000 462.500 395.500 462.000 396.000 461.500 C396.667 461.500 397.333 461.500 398.000 461.500 C398.167 461.667 398.333 461.833 398.500 462.000 C398.500 462.667 398.500 463.333 398.500 464.000 C398.833 464.333 399.167 464.667 399.500 465.000 C399.500 465.333 399.500 465.667 399.500 466.000 C399.167 466.333 398.833 466.667 398.500 467.000 C398.500 468.000 398.500 469.000 398.500 470.000 C398.000 470.500 397.500 471.000 397.000 471.500 C396.333 471.500 395.667 471.500 395.000 471.500 C394.667 471.833 394.333 472.167 394.000 472.500 C393.667 472.167 393.333 471.833 393.000 471.500 C392.333 471.500 391.667 471.500 391.000 471.500 C390.667 471.167 390.333 470.833 390.000 470.500 C389.000 470.500 388.000 470.500 387.000 470.500 C386.667 470.167 386.333 469.833 386.000 469.500 C385.333 469.500 384.667 469.500 384.000 469.500 C383.833 469.333 383.667 469.167 383.500 469.000"></path>
<path id="" fill="#ee3823" fill-opacity="1.0" stroke="#000000" stroke-width="0.0" stroke-opacity="1.0" stroke-linecap="round" stroke-linejoin="round"  filling="0" d="M438.000 415.500 C436.833 414.667 435.667 413.833 434.500 413.000 C398.167 366.667 361.833 320.333 325.500 274.000 C325.833 273.000 326.167 272.000 326.500 271.000 C328.333 269.167 330.167 267.333 332.000 265.500 C337.667 261.500 343.333 257.500 349.000 253.500 C350.333 253.167 351.667 252.833 353.000 252.500 C354.167 253.667 355.333 254.833 356.500 256.000 C385.833 304.333 415.167 352.667 444.500 401.000 C445.500 403.667 446.500 406.333 447.500 409.000 C444.333 411.167 441.167 413.333 438.000 415.500"></path>
<path id="" fill="#ef3623" fill-opacity="1.0" stroke="#000000" stroke-width="0.0" stroke-opacity="1.0" stroke-linecap="round" stroke-linejoin="round"  filling="0" d="M583.000 414.500 C580.833 412.667 578.667 410.833 576.500 409.000 C576.500 407.667 576.500 406.333 576.500 405.000 C606.500 355.333 636.500 305.667 666.500 256.000 C667.667 254.833 668.833 253.667 670.000 252.500 C671.667 253.167 673.333 253.833 675.000 254.500 C680.333 258.167 685.667 261.833 691.000 265.500 C692.833 267.333 694.667 269.167 696.500 271.000 C696.833 272.000 697.167 273.000 697.500 274.000 C695.500 276.000 693.500 278.000 691.500 280.000 C685.833 288.000 680.167 296.000 674.500 304.000 C670.167 309.000 665.833 314.000 661.500 319.000 C656.167 326.333 650.833 333.667 645.500 341.000 C643.500 343.000 641.500 345.000 639.500 347.000 C624.500 366.667 609.500 386.333 594.500 406.000 C591.667 408.833 588.833 411.667 586.000 414.500 C585.000 414.500 584.000 414.500 583.000 414.500"></path>
<path id="" fill="#ee3723" fill-opacity="1.0" stroke="#000000" stroke-width="0.0" stroke-opacity="1.0" stroke-linecap="round" stroke-linejoin="round"  filling="0" d="M398.500 471.000 C397.000 471.833 395.500 472.667 394.000 473.500 C389.667 471.833 385.333 470.167 381.000 468.500 C359.333 461.833 337.667 455.167 316.000 448.500 C312.333 446.833 308.667 445.167 305.000 443.500 C293.667 440.167 282.333 436.833 271.000 433.500 C267.333 431.833 263.667 430.167 260.000 428.500 C248.333 424.833 236.667 421.167 225.000 417.500 C224.500 416.000 224.000 414.500 223.500 413.000 C225.500 407.333 227.500 401.667 229.500 396.000 C231.333 392.833 233.167 389.667 235.000 386.500 C236.000 386.167 237.000 385.833 238.000 385.500 C291.667 410.500 345.333 435.500 399.000 460.500 C399.500 461.000 400.000 461.500 400.500 462.000 C400.500 463.333 400.500 464.667 400.500 466.000 C399.833 467.667 399.167 469.333 398.500 471.000"></path>
<path id="" fill="#ee3723" fill-opacity="1.0" stroke="#000000" stroke-width="0.0" stroke-opacity="1.0" stroke-linecap="round" stroke-linejoin="round"  filling="0" d="M624.500 471.000 C623.833 469.333 623.167 467.667 622.500 466.000 C622.500 464.667 622.500 463.333 622.500 462.000 C623.000 461.500 623.500 461.000 624.000 460.500 C677.667 435.500 731.333 410.500 785.000 385.500 C786.500 386.333 788.000 387.167 789.500 388.000 C791.833 393.000 794.167 398.000 796.500 403.000 C797.500 406.000 798.500 409.000 799.500 412.000 C799.500 413.333 799.500 414.667 799.500 416.000 C799.000 416.500 798.500 417.000 798.000 417.500 C756.333 431.500 714.667 445.500 673.000 459.500 C664.667 461.833 656.333 464.167 648.000 466.500 C642.000 468.833 636.000 471.167 630.000 473.500 C629.000 473.500 628.000 473.500 627.000 473.500 C626.167 472.667 625.333 471.833 624.500 471.000"></path>
<path id="" fill="#ee3723" fill-opacity="1.0" stroke="#000000" stroke-width="0.0" stroke-opacity="1.0" stroke-linecap="round" stroke-linejoin="round"  filling="0" d="M605.500 436.000 C605.167 434.667 604.833 433.333 604.500 432.000 C605.167 430.667 605.833 429.333 606.500 428.000 C609.333 425.167 612.167 422.333 615.000 419.500 C655.667 383.500 696.333 347.500 737.000 311.500 C738.333 311.833 739.667 312.167 741.000 312.500 C742.833 314.333 744.667 316.167 746.500 318.000 C750.500 323.333 754.500 328.667 758.500 334.000 C758.833 335.000 759.167 336.000 759.500 337.000 C758.333 338.167 757.167 339.333 756.000 340.500 C713.667 370.167 671.333 399.833 629.000 429.500 C623.000 433.167 617.000 436.833 611.000 440.500 C609.167 439.000 607.333 437.500 605.500 436.000"></path>
<path id="" fill="#68a049" fill-opacity="1.0" stroke="#000000" stroke-width="0.0" stroke-opacity="1.0" stroke-linecap="round" stroke-linejoin="round"  filling="0" d="M414.500 716.000 C414.500 716.667 414.500 717.333 414.500 718.000 C414.000 718.500 413.500 719.000 413.000 719.500 C408.333 720.167 403.667 720.833 399.000 721.500 C397.333 722.167 395.667 722.833 394.000 723.500 C392.667 723.500 391.333 723.500 390.000 723.500 C389.167 724.000 388.333 724.500 387.500 725.000 C388.333 726.167 389.167 727.333 390.000 728.500 C390.667 728.500 391.333 728.500 392.000 728.500 C393.333 729.167 394.667 729.833 396.000 730.500 C397.000 730.500 398.000 730.500 399.000 730.500 C400.000 731.167 401.000 731.833 402.000 732.500 C403.667 732.833 405.333 733.167 407.000 733.500 C407.833 734.667 408.667 735.833 409.500 737.000 C408.000 738.500 406.500 740.000 405.000 741.500 C404.333 741.500 403.667 741.500 403.000 741.500 C400.667 742.500 398.333 743.500 396.000 744.500 C395.000 744.500 394.000 744.500 393.000 744.500 C391.333 745.167 389.667 745.833 388.000 746.500 C386.000 746.500 384.000 746.500 382.000 746.500 C381.667 746.833 381.333 747.167 381.000 747.500 C371.333 747.500 361.667 747.500 352.000 747.500 C351.667 747.167 351.333 746.833 351.000 746.500 C349.000 746.500 347.000 746.500 345.000 746.500 C344.667 746.167 344.333 745.833 344.000 745.500 C341.000 745.167 338.000 744.833 335.000 744.500 C334.667 744.167 334.333 743.833 334.000 743.500 C331.333 742.833 328.667 742.167 326.000 741.500 C322.667 739.833 319.333 738.167 316.000 736.500 C313.833 734.000 311.667 731.500 309.500 729.000 C309.500 726.667 309.500 724.333 309.500 722.000 C311.667 719.500 313.833 717.000 316.000 714.500 C320.000 712.500 324.000 710.500 328.000 708.500 C329.000 708.500 330.000 708.500 331.000 708.500 C333.667 707.500 336.333 706.500 339.000 705.500 C341.000 705.500 343.000 705.500 345.000 705.500 C345.333 705.167 345.667 704.833 346.000 704.500 C348.000 704.500 350.000 704.500 352.000 704.500 C352.333 704.167 352.667 703.833 353.000 703.500 C362.333 703.500 371.667 703.500 381.000 703.500 C381.333 703.833 381.667 704.167 382.000 704.500 C385.667 704.833 389.333 705.167 393.000 705.500 C393.333 705.833 393.667 706.167 394.000 706.500 C395.000 706.500 396.000 706.500 397.000 706.500 C397.333 706.833 397.667 707.167 398.000 707.500 C399.000 707.500 400.000 707.500 401.000 707.500 C402.000 708.167 403.000 708.833 404.000 709.500 C404.667 709.500 405.333 709.500 406.000 709.500 C406.667 710.167 407.333 710.833 408.000 711.500 C409.000 711.833 410.000 712.167 411.000 712.500 C412.167 713.667 413.333 714.833 414.500 716.000"></path>
<path id="" fill="#689f48" fill-opacity="1.0" stroke="#000000" stroke-width="0.0" stroke-opacity="1.0" stroke-linecap="round" stroke-linejoin="round"  filling="0" d="M714.500 728.000 C713.500 729.667 712.500 731.333 711.500 733.000 C709.667 734.500 707.833 736.000 706.000 737.500 C703.333 738.833 700.667 740.167 698.000 741.500 C696.000 741.833 694.000 742.167 692.000 742.500 C690.667 743.167 689.333 743.833 688.000 744.500 C685.000 744.833 682.000 745.167 679.000 745.500 C678.667 745.833 678.333 746.167 678.000 746.500 C676.333 746.500 674.667 746.500 673.000 746.500 C672.667 746.833 672.333 747.167 672.000 747.500 C662.000 747.500 652.000 747.500 642.000 747.500 C641.667 747.167 641.333 746.833 641.000 746.500 C637.667 746.167 634.333 745.833 631.000 745.500 C630.667 745.167 630.333 744.833 630.000 744.500 C626.333 743.500 622.667 742.500 619.000 741.500 C617.167 740.000 615.333 738.500 613.500 737.000 C613.833 736.333 614.167 735.667 614.500 735.000 C615.333 734.500 616.167 734.000 617.000 733.500 C617.667 733.500 618.333 733.500 619.000 733.500 C620.000 732.833 621.000 732.167 622.000 731.500 C623.000 731.500 624.000 731.500 625.000 731.500 C626.333 730.833 627.667 730.167 629.000 729.500 C630.000 729.500 631.000 729.500 632.000 729.500 C633.333 728.833 634.667 728.167 636.000 727.500 C636.500 727.000 637.000 726.500 637.500 726.000 C637.000 725.500 636.500 725.000 636.000 724.500 C634.333 724.167 632.667 723.833 631.000 723.500 C630.667 723.167 630.333 722.833 630.000 722.500 C627.000 722.167 624.000 721.833 621.000 721.500 C620.667 721.167 620.333 720.833 620.000 720.500 C618.000 720.500 616.000 720.500 614.000 720.500 C613.667 720.167 613.333 719.833 613.000 719.500 C612.333 719.500 611.667 719.500 611.000 719.500 C610.167 718.667 609.333 717.833 608.500 717.000 C609.667 715.500 610.833 714.000 612.000 712.500 C615.667 710.833 619.333 709.167 623.000 707.500 C625.000 707.167 627.000 706.833 629.000 706.500 C629.333 706.167 629.667 705.833 630.000 705.500 C634.000 705.167 638.000 704.833 642.000 704.500 C642.333 704.167 642.667 703.833 643.000 703.500 C652.000 703.500 661.000 703.500 670.000 703.500 C670.333 703.833 670.667 704.167 671.000 704.500 C673.000 704.500 675.000 704.500 677.000 704.500 C677.333 704.833 677.667 705.167 678.000 705.500 C681.333 705.833 684.667 706.167 688.000 706.500 C689.333 707.167 690.667 707.833 692.000 708.500 C693.000 708.500 694.000 708.500 695.000 708.500 C698.667 710.167 702.333 711.833 706.000 713.500 C708.500 716.000 711.000 718.500 713.500 721.000 C713.833 723.333 714.167 725.667 714.500 728.000"></path>
<path id="" fill="#f03623" fill-opacity="1.0" stroke="#000000" stroke-width="0.0" stroke-opacity="1.0" stroke-linecap="round" stroke-linejoin="round"  filling="0" d="M815.500 485.000 C815.500 490.000 815.500 495.000 815.500 500.000 C815.000 500.500 814.500 501.000 814.000 501.500 C753.667 501.500 693.333 501.500 633.000 501.500 C632.500 500.667 632.000 499.833 631.500 499.000 C632.000 498.167 632.500 497.333 633.000 496.500 C634.333 496.500 635.667 496.500 637.000 496.500 C638.667 495.833 640.333 495.167 642.000 494.500 C646.333 494.167 650.667 493.833 655.000 493.500 C657.333 492.833 659.667 492.167 662.000 491.500 C664.000 491.500 666.000 491.500 668.000 491.500 C679.333 489.500 690.667 487.500 702.000 485.500 C704.333 485.500 706.667 485.500 709.000 485.500 C711.333 484.833 713.667 484.167 716.000 483.500 C722.667 482.833 729.333 482.167 736.000 481.500 C738.333 480.833 740.667 480.167 743.000 479.500 C745.000 479.500 747.000 479.500 749.000 479.500 C753.333 478.500 757.667 477.500 762.000 476.500 C764.000 476.500 766.000 476.500 768.000 476.500 C768.333 476.167 768.667 475.833 769.000 475.500 C771.000 475.500 773.000 475.500 775.000 475.500 C784.667 473.833 794.333 472.167 804.000 470.500 C807.167 470.667 810.333 470.833 813.500 471.000 C813.833 475.333 814.167 479.667 814.500 484.000 C814.833 484.333 815.167 484.667 815.500 485.000"></path>
<path id="" fill="#ef3624" fill-opacity="1.0" stroke="#000000" stroke-width="0.0" stroke-opacity="1.0" stroke-linecap="round" stroke-linejoin="round"  filling="0" d="M391.500 498.000 C390.667 499.167 389.833 500.333 389.000 501.500 C329.000 501.500 269.000 501.500 209.000 501.500 C208.500 501.000 208.000 500.500 207.500 500.000 C207.500 496.333 207.500 492.667 207.500 489.000 C207.833 488.667 208.167 488.333 208.500 488.000 C208.833 482.667 209.167 477.333 209.500 472.000 C211.000 471.167 212.500 470.333 214.000 469.500 C216.000 470.167 218.000 470.833 220.000 471.500 C224.667 471.833 229.333 472.167 234.000 472.500 C236.333 473.167 238.667 473.833 241.000 474.500 C258.667 476.833 276.333 479.167 294.000 481.500 C298.333 482.500 302.667 483.500 307.000 484.500 C313.667 485.167 320.333 485.833 327.000 486.500 C333.333 487.833 339.667 489.167 346.000 490.500 C355.000 491.500 364.000 492.500 373.000 493.500 C377.000 494.500 381.000 495.500 385.000 496.500 C386.667 496.500 388.333 496.500 390.000 496.500 C390.500 497.000 391.000 497.500 391.500 498.000"></path>
<path id="" fill="#fbfdfd" fill-opacity="1.0" stroke="#000000" stroke-width="0.0" stroke-opacity="1.0" stroke-linecap="round" stroke-linejoin="round"  filling="0" d="M572.500 683.000 C572.500 679.000 572.500 675.000 572.500 671.000 C573.000 669.833 573.500 668.667 574.000 667.500 C576.667 666.500 579.333 665.500 582.000 664.500 C583.000 664.500 584.000 664.500 585.000 664.500 C586.333 663.833 587.667 663.167 589.000 662.500 C590.000 662.500 591.000 662.500 592.000 662.500 C597.333 659.833 602.667 657.167 608.000 654.500 C609.333 653.500 610.667 652.500 612.000 651.500 C616.167 647.000 620.333 642.500 624.500 638.000 C626.667 633.833 628.833 629.667 631.000 625.500 C632.667 625.167 634.333 624.833 636.000 624.500 C636.333 624.167 636.667 623.833 637.000 623.500 C638.333 623.500 639.667 623.500 641.000 623.500 C642.000 622.833 643.000 622.167 644.000 621.500 C645.667 621.167 647.333 620.833 649.000 620.500 C652.667 618.500 656.333 616.500 660.000 614.500 C660.833 614.667 661.667 614.833 662.500 615.000 C662.167 617.333 661.833 619.667 661.500 622.000 C660.167 623.667 658.833 625.333 657.500 627.000 C657.167 628.333 656.833 629.667 656.500 631.000 C655.167 632.000 653.833 633.000 652.500 634.000 C652.667 635.167 652.833 636.333 653.000 637.500 C654.000 636.833 655.000 636.167 656.000 635.500 C656.833 635.667 657.667 635.833 658.500 636.000 C658.500 636.667 658.500 637.333 658.500 638.000 C657.833 639.333 657.167 640.667 656.500 642.000 C655.500 643.000 654.500 644.000 653.500 645.000 C652.500 647.000 651.500 649.000 650.500 651.000 C649.500 652.000 648.500 653.000 647.500 654.000 C645.833 657.000 644.167 660.000 642.500 663.000 C639.833 666.667 637.167 670.333 634.500 674.000 C630.000 678.500 625.500 683.000 621.000 687.500 C617.333 690.167 613.667 692.833 610.000 695.500 C606.000 697.500 602.000 699.500 598.000 701.500 C596.333 701.833 594.667 702.167 593.000 702.500 C592.833 700.333 592.667 698.167 592.500 696.000 C592.833 695.667 593.167 695.333 593.500 695.000 C593.833 692.667 594.167 690.333 594.500 688.000 C594.833 687.667 595.167 687.333 595.500 687.000 C595.500 685.333 595.500 683.667 595.500 682.000 C595.000 681.500 594.500 681.000 594.000 680.500 C592.667 680.500 591.333 680.500 590.000 680.500 C589.667 680.833 589.333 681.167 589.000 681.500 C587.667 681.500 586.333 681.500 585.000 681.500 C584.667 681.833 584.333 682.167 584.000 682.500 C581.000 682.833 578.000 683.167 575.000 683.500 C574.667 683.833 574.333 684.167 574.000 684.500 C573.500 684.000 573.000 683.500 572.500 683.000"></path>
<path id="" fill="#f6fcfd" fill-opacity="1.0" stroke="#000000" stroke-width="0.0" stroke-opacity="1.0" stroke-linecap="round" stroke-linejoin="round"  filling="0" d="M407.500 597.000 C403.000 597.167 398.500 597.333 394.000 597.500 C388.000 595.833 382.000 594.167 376.000 592.500 C370.333 592.167 364.667 591.833 359.000 591.500 C356.000 592.167 353.000 592.833 350.000 593.500 C345.333 595.833 340.667 598.167 336.000 600.500 C331.667 601.833 327.333 603.167 323.000 604.500 C317.333 604.500 311.667 604.500 306.000 604.500 C303.333 603.833 300.667 603.167 298.000 602.500 C290.667 599.167 283.333 595.833 276.000 592.500 C270.667 592.167 265.333 591.833 260.000 591.500 C258.000 591.833 256.000 592.167 254.000 592.500 C246.000 595.500 238.000 598.500 230.000 601.500 C227.000 601.833 224.000 602.167 221.000 602.500 C219.833 601.333 218.667 600.167 217.500 599.000 C218.000 597.833 218.500 596.667 219.000 595.500 C223.667 594.500 228.333 593.500 233.000 592.500 C235.333 591.167 237.667 589.833 240.000 588.500 C245.333 586.500 250.667 584.500 256.000 582.500 C259.000 582.500 262.000 582.500 265.000 582.500 C265.333 582.167 265.667 581.833 266.000 581.500 C271.667 582.500 277.333 583.500 283.000 584.500 C288.333 587.167 293.667 589.833 299.000 592.500 C302.667 593.500 306.333 594.500 310.000 595.500 C315.333 595.167 320.667 594.833 326.000 594.500 C333.667 591.167 341.333 587.833 349.000 584.500 C354.667 583.833 360.333 583.167 366.000 582.500 C371.000 583.500 376.000 584.500 381.000 585.500 C389.833 589.333 398.667 593.167 407.500 597.000"></path>
<path id="" fill="#f8fcfe" fill-opacity="1.0" stroke="#000000" stroke-width="0.0" stroke-opacity="1.0" stroke-linecap="round" stroke-linejoin="round"  filling="0" d="M389.500 637.000 C389.000 637.500 388.500 638.000 388.000 638.500 C386.333 638.500 384.667 638.500 383.000 638.500 C378.000 636.833 373.000 635.167 368.000 633.500 C363.000 633.500 358.000 633.500 353.000 633.500 C350.000 634.500 347.000 635.500 344.000 636.500 C339.000 639.167 334.000 641.833 329.000 644.500 C325.667 645.500 322.333 646.500 319.000 647.500 C313.000 647.500 307.000 647.500 301.000 647.500 C300.667 647.167 300.333 646.833 300.000 646.500 C299.000 646.500 298.000 646.500 297.000 646.500 C294.333 645.500 291.667 644.500 289.000 643.500 C284.000 640.833 279.000 638.167 274.000 635.500 C271.000 635.167 268.000 634.833 265.000 634.500 C264.667 634.167 264.333 633.833 264.000 633.500 C259.333 634.167 254.667 634.833 250.000 635.500 C245.333 637.500 240.667 639.500 236.000 641.500 C235.333 641.500 234.667 641.500 234.000 641.500 C233.167 640.667 232.333 639.833 231.500 639.000 C231.500 638.333 231.500 637.667 231.500 637.000 C232.333 636.167 233.167 635.333 234.000 634.500 C235.667 633.833 237.333 633.167 239.000 632.500 C239.667 631.833 240.333 631.167 241.000 630.500 C244.000 629.167 247.000 627.833 250.000 626.500 C251.000 626.500 252.000 626.500 253.000 626.500 C254.667 625.833 256.333 625.167 258.000 624.500 C261.667 624.500 265.333 624.500 269.000 624.500 C269.333 624.833 269.667 625.167 270.000 625.500 C272.333 625.833 274.667 626.167 277.000 626.500 C281.333 628.833 285.667 631.167 290.000 633.500 C295.000 635.167 300.000 636.833 305.000 638.500 C308.667 638.500 312.333 638.500 316.000 638.500 C316.333 638.167 316.667 637.833 317.000 637.500 C318.000 637.500 319.000 637.500 320.000 637.500 C322.667 636.500 325.333 635.500 328.000 634.500 C332.333 632.167 336.667 629.833 341.000 627.500 C344.333 626.500 347.667 625.500 351.000 624.500 C356.000 624.500 361.000 624.500 366.000 624.500 C370.000 625.833 374.000 627.167 378.000 628.500 C381.333 630.167 384.667 631.833 388.000 633.500 C388.500 634.667 389.000 635.833 389.500 637.000"></path>
<path id="" fill="#f6fcfd" fill-opacity="1.0" stroke="#000000" stroke-width="0.0" stroke-opacity="1.0" stroke-linecap="round" stroke-linejoin="round"  filling="0" d="M808.500 587.000 C808.167 588.667 807.833 590.333 807.500 592.000 C806.667 592.500 805.833 593.000 805.000 593.500 C803.000 592.833 801.000 592.167 799.000 591.500 C794.333 591.500 789.667 591.500 785.000 591.500 C782.000 592.500 779.000 593.500 776.000 594.500 C775.333 595.167 774.667 595.833 774.000 596.500 C773.333 596.500 772.667 596.500 772.000 596.500 C769.000 598.167 766.000 599.833 763.000 601.500 C759.667 602.500 756.333 603.500 753.000 604.500 C747.333 604.500 741.667 604.500 736.000 604.500 C732.667 603.500 729.333 602.500 726.000 601.500 C720.667 598.833 715.333 596.167 710.000 593.500 C706.667 593.167 703.333 592.833 700.000 592.500 C699.667 592.167 699.333 591.833 699.000 591.500 C693.333 592.167 687.667 592.833 682.000 593.500 C680.000 594.500 678.000 595.500 676.000 596.500 C671.667 597.833 667.333 599.167 663.000 600.500 C660.333 600.500 657.667 600.500 655.000 600.500 C653.167 599.667 651.333 598.833 649.500 598.000 C654.333 596.833 659.167 595.667 664.000 594.500 C667.667 592.833 671.333 591.167 675.000 589.500 C675.667 588.833 676.333 588.167 677.000 587.500 C682.000 585.833 687.000 584.167 692.000 582.500 C696.333 582.500 700.667 582.500 705.000 582.500 C705.333 582.833 705.667 583.167 706.000 583.500 C707.000 583.500 708.000 583.500 709.000 583.500 C716.333 586.833 723.667 590.167 731.000 593.500 C733.333 593.833 735.667 594.167 738.000 594.500 C738.333 594.833 738.667 595.167 739.000 595.500 C744.333 595.167 749.667 594.833 755.000 594.500 C764.000 590.500 773.000 586.500 782.000 582.500 C787.667 582.500 793.333 582.500 799.000 582.500 C801.333 583.167 803.667 583.833 806.000 584.500 C806.833 585.333 807.667 586.167 808.500 587.000"></path>
<path id="" fill="#f7fcfd" fill-opacity="1.0" stroke="#000000" stroke-width="0.0" stroke-opacity="1.0" stroke-linecap="round" stroke-linejoin="round"  filling="0" d="M391.500 679.000 C391.000 679.833 390.500 680.667 390.000 681.500 C388.667 681.500 387.333 681.500 386.000 681.500 C382.333 680.167 378.667 678.833 375.000 677.500 C370.000 677.500 365.000 677.500 360.000 677.500 C350.333 681.833 340.667 686.167 331.000 690.500 C330.000 690.500 329.000 690.500 328.000 690.500 C327.667 690.833 327.333 691.167 327.000 691.500 C322.333 691.500 317.667 691.500 313.000 691.500 C309.000 690.167 305.000 688.833 301.000 687.500 C300.333 686.833 299.667 686.167 299.000 685.500 C293.000 682.833 287.000 680.167 281.000 677.500 C276.667 677.500 272.333 677.500 268.000 677.500 C267.667 677.833 267.333 678.167 267.000 678.500 C265.000 678.833 263.000 679.167 261.000 679.500 C260.000 680.167 259.000 680.833 258.000 681.500 C257.000 681.500 256.000 681.500 255.000 681.500 C253.833 680.000 252.667 678.500 251.500 677.000 C252.667 675.833 253.833 674.667 255.000 673.500 C257.667 672.167 260.333 670.833 263.000 669.500 C266.000 669.167 269.000 668.833 272.000 668.500 C272.333 668.167 272.667 667.833 273.000 667.500 C275.000 667.500 277.000 667.500 279.000 667.500 C279.333 667.833 279.667 668.167 280.000 668.500 C282.667 668.833 285.333 669.167 288.000 669.500 C295.000 673.167 302.000 676.833 309.000 680.500 C312.333 680.833 315.667 681.167 319.000 681.500 C319.667 681.833 320.333 682.167 321.000 682.500 C321.333 682.167 321.667 681.833 322.000 681.500 C324.000 681.500 326.000 681.500 328.000 681.500 C330.000 680.833 332.000 680.167 334.000 679.500 C340.667 676.167 347.333 672.833 354.000 669.500 C355.000 669.500 356.000 669.500 357.000 669.500 C357.333 669.167 357.667 668.833 358.000 668.500 C362.667 668.500 367.333 668.500 372.000 668.500 C372.333 668.833 372.667 669.167 373.000 669.500 C374.333 669.500 375.667 669.500 377.000 669.500 C381.000 671.500 385.000 673.500 389.000 675.500 C389.833 676.667 390.667 677.833 391.500 679.000"></path>
<path id="" fill="#f4fbfe" fill-opacity="1.0" stroke="#000000" stroke-width="0.0" stroke-opacity="1.0" stroke-linecap="round" stroke-linejoin="round"  filling="0" d="M208.500 557.000 C209.000 555.833 209.500 554.667 210.000 553.500 C214.333 553.500 218.667 553.500 223.000 553.500 C229.333 556.167 235.667 558.833 242.000 561.500 C247.333 561.833 252.667 562.167 258.000 562.500 C260.333 561.833 262.667 561.167 265.000 560.500 C269.000 558.500 273.000 556.500 277.000 554.500 C279.667 553.833 282.333 553.167 285.000 552.500 C288.667 552.500 292.333 552.500 296.000 552.500 C300.000 553.500 304.000 554.500 308.000 555.500 C310.333 556.833 312.667 558.167 315.000 559.500 C318.333 560.500 321.667 561.500 325.000 562.500 C329.667 562.500 334.333 562.500 339.000 562.500 C342.333 561.167 345.667 559.833 349.000 558.500 C354.333 557.167 359.667 555.833 365.000 554.500 C371.000 555.500 377.000 556.500 383.000 557.500 C383.167 558.333 383.333 559.167 383.500 560.000 C377.000 560.167 370.500 560.333 364.000 560.500 C355.333 563.500 346.667 566.500 338.000 569.500 C332.333 569.500 326.667 569.500 321.000 569.500 C313.667 566.833 306.333 564.167 299.000 561.500 C293.667 561.500 288.333 561.500 283.000 561.500 C276.333 564.167 269.667 566.833 263.000 569.500 C258.000 569.833 253.000 570.167 248.000 570.500 C247.667 570.167 247.333 569.833 247.000 569.500 C244.000 569.167 241.000 568.833 238.000 568.500 C233.000 566.167 228.000 563.833 223.000 561.500 C219.000 561.167 215.000 560.833 211.000 560.500 C210.167 559.333 209.333 558.167 208.500 557.000"></path>
<path id="" fill="#f2fbfe" fill-opacity="1.0" stroke="#000000" stroke-width="0.0" stroke-opacity="1.0" stroke-linecap="round" stroke-linejoin="round"  filling="0" d="M392.500 533.000 C390.333 533.167 388.167 533.333 386.000 533.500 C383.333 532.833 380.667 532.167 378.000 531.500 C374.333 531.500 370.667 531.500 367.000 531.500 C359.000 534.500 351.000 537.500 343.000 540.500 C338.333 540.833 333.667 541.167 329.000 541.500 C325.333 540.833 321.667 540.167 318.000 539.500 C312.333 537.167 306.667 534.833 301.000 532.500 C296.333 532.500 291.667 532.500 287.000 532.500 C280.000 535.167 273.000 537.833 266.000 540.500 C260.667 540.833 255.333 541.167 250.000 541.500 C246.667 540.833 243.333 540.167 240.000 539.500 C234.667 537.167 229.333 534.833 224.000 532.500 C221.333 532.500 218.667 532.500 216.000 532.500 C215.667 532.167 215.333 531.833 215.000 531.500 C213.000 531.833 211.000 532.167 209.000 532.500 C208.167 531.333 207.333 530.167 206.500 529.000 C208.333 527.833 210.167 526.667 212.000 525.500 C215.000 525.500 218.000 525.500 221.000 525.500 C228.333 528.167 235.667 530.833 243.000 533.500 C249.000 533.833 255.000 534.167 261.000 534.500 C269.333 531.500 277.667 528.500 286.000 525.500 C291.000 525.500 296.000 525.500 301.000 525.500 C309.333 528.500 317.667 531.500 326.000 534.500 C330.667 534.500 335.333 534.500 340.000 534.500 C348.000 531.833 356.000 529.167 364.000 526.500 C369.000 526.500 374.000 526.500 379.000 526.500 C381.333 527.167 383.667 527.833 386.000 528.500 C388.167 530.000 390.333 531.500 392.500 533.000"></path>
<path id="" fill="#f5fbfd" fill-opacity="1.0" stroke="#000000" stroke-width="0.0" stroke-opacity="1.0" stroke-linecap="round" stroke-linejoin="round"  filling="0" d="M813.500 556.000 C813.500 557.667 813.500 559.333 813.500 561.000 C813.000 561.500 812.500 562.000 812.000 562.500 C810.667 562.500 809.333 562.500 808.000 562.500 C806.000 561.833 804.000 561.167 802.000 560.500 C798.333 560.833 794.667 561.167 791.000 561.500 C786.333 563.500 781.667 565.500 777.000 567.500 C775.000 567.833 773.000 568.167 771.000 568.500 C770.667 568.833 770.333 569.167 770.000 569.500 C768.667 569.500 767.333 569.500 766.000 569.500 C765.667 569.833 765.333 570.167 765.000 570.500 C760.000 570.167 755.000 569.833 750.000 569.500 C742.667 566.833 735.333 564.167 728.000 561.500 C723.000 561.500 718.000 561.500 713.000 561.500 C706.333 563.833 699.667 566.167 693.000 568.500 C690.667 568.500 688.333 568.500 686.000 568.500 C685.667 568.833 685.333 569.167 685.000 569.500 C680.667 568.833 676.333 568.167 672.000 567.500 C669.167 565.667 666.333 563.833 663.500 562.000 C664.333 561.500 665.167 561.000 666.000 560.500 C667.333 561.167 668.667 561.833 670.000 562.500 C672.667 562.500 675.333 562.500 678.000 562.500 C678.333 562.833 678.667 563.167 679.000 563.500 C682.667 563.167 686.333 562.833 690.000 562.500 C695.000 560.167 700.000 557.833 705.000 555.500 C707.000 554.833 709.000 554.167 711.000 553.500 C712.333 553.500 713.667 553.500 715.000 553.500 C715.333 553.167 715.667 552.833 716.000 552.500 C719.667 552.500 723.333 552.500 727.000 552.500 C727.333 552.833 727.667 553.167 728.000 553.500 C729.333 553.500 730.667 553.500 732.000 553.500 C732.333 553.833 732.667 554.167 733.000 554.500 C734.000 554.500 735.000 554.500 736.000 554.500 C740.000 556.500 744.000 558.500 748.000 560.500 C750.333 560.833 752.667 561.167 755.000 561.500 C755.333 561.833 755.667 562.167 756.000 562.500 C760.667 562.167 765.333 561.833 770.000 561.500 C772.000 560.833 774.000 560.167 776.000 559.500 C778.333 558.167 780.667 556.833 783.000 555.500 C785.000 554.833 787.000 554.167 789.000 553.500 C790.667 553.500 792.333 553.500 794.000 553.500 C794.333 553.167 794.667 552.833 795.000 552.500 C799.667 552.833 804.333 553.167 809.000 553.500 C810.500 554.333 812.000 555.167 813.500 556.000"></path>
<path id="" fill="#f7fcfe" fill-opacity="1.0" stroke="#000000" stroke-width="0.0" stroke-opacity="1.0" stroke-linecap="round" stroke-linejoin="round"  filling="0" d="M770.500 677.000 C770.500 677.333 770.500 677.667 770.500 678.000 C769.333 678.833 768.167 679.667 767.000 680.500 C762.667 680.500 758.333 680.500 754.000 680.500 C753.667 680.833 753.333 681.167 753.000 681.500 C751.333 681.833 749.667 682.167 748.000 682.500 C746.333 683.500 744.667 684.500 743.000 685.500 C742.333 685.500 741.667 685.500 741.000 685.500 C739.333 686.500 737.667 687.500 736.000 688.500 C734.000 688.833 732.000 689.167 730.000 689.500 C729.667 689.833 729.333 690.167 729.000 690.500 C724.000 690.500 719.000 690.500 714.000 690.500 C713.667 690.167 713.333 689.833 713.000 689.500 C711.333 689.167 709.667 688.833 708.000 688.500 C706.333 687.500 704.667 686.500 703.000 685.500 C702.333 685.500 701.667 685.500 701.000 685.500 C697.333 683.500 693.667 681.500 690.000 679.500 C688.000 679.167 686.000 678.833 684.000 678.500 C683.667 678.167 683.333 677.833 683.000 677.500 C678.000 677.500 673.000 677.500 668.000 677.500 C667.667 677.833 667.333 678.167 667.000 678.500 C666.000 678.500 665.000 678.500 664.000 678.500 C662.000 679.500 660.000 680.500 658.000 681.500 C656.333 681.833 654.667 682.167 653.000 682.500 C652.000 683.167 651.000 683.833 650.000 684.500 C649.000 684.500 648.000 684.500 647.000 684.500 C645.333 685.167 643.667 685.833 642.000 686.500 C640.667 686.500 639.333 686.500 638.000 686.500 C637.500 686.000 637.000 685.500 636.500 685.000 C639.333 683.167 642.167 681.333 645.000 679.500 C646.667 678.833 648.333 678.167 650.000 677.500 C650.667 676.833 651.333 676.167 652.000 675.500 C654.333 674.500 656.667 673.500 659.000 672.500 C659.667 671.833 660.333 671.167 661.000 670.500 C661.667 670.500 662.333 670.500 663.000 670.500 C664.000 669.833 665.000 669.167 666.000 668.500 C667.333 668.500 668.667 668.500 670.000 668.500 C670.333 668.167 670.667 667.833 671.000 667.500 C674.667 667.500 678.333 667.500 682.000 667.500 C682.333 667.833 682.667 668.167 683.000 668.500 C684.333 668.500 685.667 668.500 687.000 668.500 C687.333 668.833 687.667 669.167 688.000 669.500 C689.667 669.833 691.333 670.167 693.000 670.500 C694.000 671.167 695.000 671.833 696.000 672.500 C696.667 672.500 697.333 672.500 698.000 672.500 C701.667 674.500 705.333 676.500 709.000 678.500 C709.667 678.500 710.333 678.500 711.000 678.500 C712.333 679.167 713.667 679.833 715.000 680.500 C716.667 680.500 718.333 680.500 720.000 680.500 C720.333 680.833 720.667 681.167 721.000 681.500 C724.000 681.167 727.000 680.833 730.000 680.500 C730.333 680.167 730.667 679.833 731.000 679.500 C733.333 679.167 735.667 678.833 738.000 678.500 C740.333 677.500 742.667 676.500 745.000 675.500 C747.667 675.167 750.333 674.833 753.000 674.500 C753.333 674.167 753.667 673.833 754.000 673.500 C756.667 673.500 759.333 673.500 762.000 673.500 C762.333 673.833 762.667 674.167 763.000 674.500 C764.333 674.500 765.667 674.500 767.000 674.500 C768.167 675.333 769.333 676.167 770.500 677.000"></path>
<path id="" fill="#f2fbfe" fill-opacity="1.0" stroke="#000000" stroke-width="0.0" stroke-opacity="1.0" stroke-linecap="round" stroke-linejoin="round"  filling="0" d="M815.500 533.000 C814.333 533.167 813.167 533.333 812.000 533.500 C810.000 532.833 808.000 532.167 806.000 531.500 C803.333 531.500 800.667 531.500 798.000 531.500 C797.667 531.833 797.333 532.167 797.000 532.500 C795.667 532.500 794.333 532.500 793.000 532.500 C786.333 535.167 779.667 537.833 773.000 540.500 C767.333 540.833 761.667 541.167 756.000 541.500 C755.667 541.167 755.333 540.833 755.000 540.500 C753.667 540.500 752.333 540.500 751.000 540.500 C745.000 538.167 739.000 535.833 733.000 533.500 C728.000 533.167 723.000 532.833 718.000 532.500 C713.333 533.833 708.667 535.167 704.000 536.500 C701.333 537.833 698.667 539.167 696.000 540.500 C694.667 540.500 693.333 540.500 692.000 540.500 C691.667 540.833 691.333 541.167 691.000 541.500 C686.667 541.500 682.333 541.500 678.000 541.500 C677.667 541.167 677.333 540.833 677.000 540.500 C674.333 540.167 671.667 539.833 669.000 539.500 C666.667 538.500 664.333 537.500 662.000 536.500 C661.167 535.667 660.333 534.833 659.500 534.000 C659.500 532.667 659.500 531.333 659.500 530.000 C660.667 529.833 661.833 529.667 663.000 529.500 C667.667 531.167 672.333 532.833 677.000 534.500 C681.333 534.500 685.667 534.500 690.000 534.500 C690.333 534.167 690.667 533.833 691.000 533.500 C693.333 533.167 695.667 532.833 698.000 532.500 C699.000 531.833 700.000 531.167 701.000 530.500 C705.667 528.833 710.333 527.167 715.000 525.500 C720.000 525.500 725.000 525.500 730.000 525.500 C738.333 528.500 746.667 531.500 755.000 534.500 C760.000 534.500 765.000 534.500 770.000 534.500 C777.333 531.833 784.667 529.167 792.000 526.500 C796.000 526.167 800.000 525.833 804.000 525.500 C807.333 526.500 810.667 527.500 814.000 528.500 C814.500 529.000 815.000 529.500 815.500 530.000 C815.500 531.000 815.500 532.000 815.500 533.000"></path>
<path id="" fill="#f77dab" fill-opacity="1.0" stroke="#000000" stroke-width="0.0" stroke-opacity="1.0" stroke-linecap="round" stroke-linejoin="round"  filling="0" d="M513.000 777.500 C512.000 777.500 511.000 777.500 510.000 777.500 C508.667 776.167 507.333 774.833 506.000 773.500 C505.667 773.500 505.333 773.500 505.000 773.500 C502.500 771.000 500.000 768.500 497.500 766.000 C497.500 765.667 497.500 765.333 497.500 765.000 C496.833 764.333 496.167 763.667 495.500 763.000 C495.500 762.667 495.500 762.333 495.500 762.000 C495.167 761.667 494.833 761.333 494.500 761.000 C494.500 760.667 494.500 760.333 494.500 760.000 C494.167 759.667 493.833 759.333 493.500 759.000 C493.500 758.000 493.500 757.000 493.500 756.000 C493.167 755.667 492.833 755.333 492.500 755.000 C492.500 754.000 492.500 753.000 492.500 752.000 C492.833 751.667 493.167 751.333 493.500 751.000 C493.500 750.333 493.500 749.667 493.500 749.000 C494.167 748.333 494.833 747.667 495.500 747.000 C495.500 746.667 495.500 746.333 495.500 746.000 C495.667 745.833 495.833 745.667 496.000 745.500 C496.333 745.500 496.667 745.500 497.000 745.500 C497.667 744.833 498.333 744.167 499.000 743.500 C499.333 743.500 499.667 743.500 500.000 743.500 C500.333 743.167 500.667 742.833 501.000 742.500 C501.333 742.500 501.667 742.500 502.000 742.500 C502.333 742.167 502.667 741.833 503.000 741.500 C504.333 741.500 505.667 741.500 507.000 741.500 C507.333 741.167 507.667 740.833 508.000 740.500 C511.000 740.500 514.000 740.500 517.000 740.500 C517.333 740.833 517.667 741.167 518.000 741.500 C519.000 741.500 520.000 741.500 521.000 741.500 C521.333 741.833 521.667 742.167 522.000 742.500 C522.333 742.500 522.667 742.500 523.000 742.500 C523.333 742.833 523.667 743.167 524.000 743.500 C524.333 743.500 524.667 743.500 525.000 743.500 C526.167 744.667 527.333 745.833 528.500 747.000 C528.500 747.333 528.500 747.667 528.500 748.000 C528.833 748.333 529.167 748.667 529.500 749.000 C529.500 749.667 529.500 750.333 529.500 751.000 C529.833 751.333 530.167 751.667 530.500 752.000 C530.500 753.667 530.500 755.333 530.500 757.000 C530.167 757.333 529.833 757.667 529.500 758.000 C529.500 758.667 529.500 759.333 529.500 760.000 C529.167 760.333 528.833 760.667 528.500 761.000 C528.500 761.333 528.500 761.667 528.500 762.000 C527.500 763.000 526.500 764.000 525.500 765.000 C525.500 765.333 525.500 765.667 525.500 766.000 C522.667 768.833 519.833 771.667 517.000 774.500 C516.667 774.500 516.333 774.500 516.000 774.500 C515.000 775.500 514.000 776.500 513.000 777.500"></path>
<path id="" fill="#f6fbfd" fill-opacity="1.0" stroke="#000000" stroke-width="0.0" stroke-opacity="1.0" stroke-linecap="round" stroke-linejoin="round"  filling="0" d="M794.500 630.000 C794.000 631.833 793.500 633.667 793.000 635.500 C792.333 635.500 791.667 635.500 791.000 635.500 C790.667 635.833 790.333 636.167 790.000 636.500 C789.667 636.167 789.333 635.833 789.000 635.500 C788.000 635.500 787.000 635.500 786.000 635.500 C785.667 635.167 785.333 634.833 785.000 634.500 C781.000 634.500 777.000 634.500 773.000 634.500 C772.667 634.833 772.333 635.167 772.000 635.500 C770.333 635.833 768.667 636.167 767.000 636.500 C761.333 639.500 755.667 642.500 750.000 645.500 C749.000 645.500 748.000 645.500 747.000 645.500 C746.667 645.833 746.333 646.167 746.000 646.500 C745.000 646.500 744.000 646.500 743.000 646.500 C742.667 646.833 742.333 647.167 742.000 647.500 C737.333 647.500 732.667 647.500 728.000 647.500 C727.667 647.167 727.333 646.833 727.000 646.500 C726.000 646.500 725.000 646.500 724.000 646.500 C722.667 645.833 721.333 645.167 720.000 644.500 C719.000 644.500 718.000 644.500 717.000 644.500 C713.333 642.500 709.667 640.500 706.000 638.500 C705.333 638.500 704.667 638.500 704.000 638.500 C702.667 637.833 701.333 637.167 700.000 636.500 C695.333 636.500 690.667 636.500 686.000 636.500 C685.667 636.833 685.333 637.167 685.000 637.500 C683.333 637.500 681.667 637.500 680.000 637.500 C679.667 637.833 679.333 638.167 679.000 638.500 C678.333 638.500 677.667 638.500 677.000 638.500 C676.500 638.000 676.000 637.500 675.500 637.000 C677.667 635.500 679.833 634.000 682.000 632.500 C682.667 632.500 683.333 632.500 684.000 632.500 C685.000 631.833 686.000 631.167 687.000 630.500 C688.333 630.500 689.667 630.500 691.000 630.500 C691.333 630.167 691.667 629.833 692.000 629.500 C695.333 629.500 698.667 629.500 702.000 629.500 C702.333 629.833 702.667 630.167 703.000 630.500 C705.333 630.833 707.667 631.167 710.000 631.500 C712.667 632.833 715.333 634.167 718.000 635.500 C718.667 635.500 719.333 635.500 720.000 635.500 C721.333 636.167 722.667 636.833 724.000 637.500 C725.000 637.500 726.000 637.500 727.000 637.500 C727.333 637.833 727.667 638.167 728.000 638.500 C732.000 638.500 736.000 638.500 740.000 638.500 C740.333 638.167 740.667 637.833 741.000 637.500 C742.000 637.500 743.000 637.500 744.000 637.500 C746.000 636.500 748.000 635.500 750.000 634.500 C750.667 634.500 751.333 634.500 752.000 634.500 C754.000 633.167 756.000 631.833 758.000 630.500 C758.667 630.500 759.333 630.500 760.000 630.500 C762.333 629.167 764.667 627.833 767.000 626.500 C768.000 626.500 769.000 626.500 770.000 626.500 C770.333 626.167 770.667 625.833 771.000 625.500 C775.667 625.500 780.333 625.500 785.000 625.500 C785.333 625.833 785.667 626.167 786.000 626.500 C788.000 626.833 790.000 627.167 792.000 627.500 C792.833 628.333 793.667 629.167 794.500 630.000"></path>
<path id="" fill="#f5fcfe" fill-opacity="1.0" stroke="#000000" stroke-width="0.0" stroke-opacity="1.0" stroke-linecap="round" stroke-linejoin="round"  filling="0" d="M558.500 800.000 C558.500 800.333 558.500 800.667 558.500 801.000 C558.000 801.500 557.500 802.000 557.000 802.500 C556.000 802.833 555.000 803.167 554.000 803.500 C552.333 804.833 550.667 806.167 549.000 807.500 C544.333 809.833 539.667 812.167 535.000 814.500 C534.333 814.500 533.667 814.500 533.000 814.500 C531.667 815.167 530.333 815.833 529.000 816.500 C528.000 816.500 527.000 816.500 526.000 816.500 C525.667 816.833 525.333 817.167 525.000 817.500 C518.000 817.500 511.000 817.500 504.000 817.500 C503.667 817.167 503.333 816.833 503.000 816.500 C502.000 816.500 501.000 816.500 500.000 816.500 C499.000 815.833 498.000 815.167 497.000 814.500 C495.333 814.167 493.667 813.833 492.000 813.500 C489.667 812.167 487.333 810.833 485.000 809.500 C484.333 809.500 483.667 809.500 483.000 809.500 C481.333 808.500 479.667 807.500 478.000 806.500 C477.333 806.500 476.667 806.500 476.000 806.500 C474.667 805.833 473.333 805.167 472.000 804.500 C471.000 804.500 470.000 804.500 469.000 804.500 C468.667 804.167 468.333 803.833 468.000 803.500 C467.000 803.500 466.000 803.500 465.000 803.500 C464.667 803.167 464.333 802.833 464.000 802.500 C460.000 802.500 456.000 802.500 452.000 802.500 C451.500 802.000 451.000 801.500 450.500 801.000 C451.000 800.500 451.500 800.000 452.000 799.500 C452.667 799.500 453.333 799.500 454.000 799.500 C454.333 799.167 454.667 798.833 455.000 798.500 C456.000 798.500 457.000 798.500 458.000 798.500 C458.333 798.167 458.667 797.833 459.000 797.500 C463.667 797.500 468.333 797.500 473.000 797.500 C473.333 797.833 473.667 798.167 474.000 798.500 C475.333 798.500 476.667 798.500 478.000 798.500 C478.333 798.833 478.667 799.167 479.000 799.500 C480.000 799.500 481.000 799.500 482.000 799.500 C483.000 800.167 484.000 800.833 485.000 801.500 C485.667 801.500 486.333 801.500 487.000 801.500 C489.000 802.500 491.000 803.500 493.000 804.500 C494.000 804.500 495.000 804.500 496.000 804.500 C497.333 805.167 498.667 805.833 500.000 806.500 C501.333 806.500 502.667 806.500 504.000 806.500 C504.333 806.833 504.667 807.167 505.000 807.500 C506.333 807.500 507.667 807.500 509.000 807.500 C509.333 807.833 509.667 808.167 510.000 808.500 C513.667 808.500 517.333 808.500 521.000 808.500 C521.333 808.167 521.667 807.833 522.000 807.500 C523.667 807.500 525.333 807.500 527.000 807.500 C527.333 807.167 527.667 806.833 528.000 806.500 C529.333 806.500 530.667 806.500 532.000 806.500 C532.333 806.167 532.667 805.833 533.000 805.500 C533.667 805.500 534.333 805.500 535.000 805.500 C535.333 805.167 535.667 804.833 536.000 804.500 C537.000 804.500 538.000 804.500 539.000 804.500 C539.333 804.167 539.667 803.833 540.000 803.500 C540.667 803.500 541.333 803.500 542.000 803.500 C542.333 803.167 542.667 802.833 543.000 802.500 C543.667 802.500 544.333 802.500 545.000 802.500 C546.333 801.833 547.667 801.167 549.000 800.500 C550.000 800.500 551.000 800.500 552.000 800.500 C552.333 800.167 552.667 799.833 553.000 799.500 C554.833 799.667 556.667 799.833 558.500 800.000"></path>
<path id="" fill="#f6fcfe" fill-opacity="1.0" stroke="#000000" stroke-width="0.0" stroke-opacity="1.0" stroke-linecap="round" stroke-linejoin="round"  filling="0" d="M631.500 785.000 C629.667 786.500 627.833 788.000 626.000 789.500 C624.000 790.500 622.000 791.500 620.000 792.500 C619.333 792.500 618.667 792.500 618.000 792.500 C617.667 792.833 617.333 793.167 617.000 793.500 C616.000 793.500 615.000 793.500 614.000 793.500 C613.667 793.833 613.333 794.167 613.000 794.500 C611.667 794.500 610.333 794.500 609.000 794.500 C608.667 794.833 608.333 795.167 608.000 795.500 C604.667 795.500 601.333 795.500 598.000 795.500 C597.667 795.167 597.333 794.833 597.000 794.500 C595.333 794.500 593.667 794.500 592.000 794.500 C591.667 794.167 591.333 793.833 591.000 793.500 C590.000 793.500 589.000 793.500 588.000 793.500 C587.667 793.167 587.333 792.833 587.000 792.500 C586.333 792.500 585.667 792.500 585.000 792.500 C584.667 792.167 584.333 791.833 584.000 791.500 C583.333 791.500 582.667 791.500 582.000 791.500 C581.667 791.167 581.333 790.833 581.000 790.500 C580.333 790.500 579.667 790.500 579.000 790.500 C577.667 789.833 576.333 789.167 575.000 788.500 C574.000 788.500 573.000 788.500 572.000 788.500 C570.667 787.833 569.333 787.167 568.000 786.500 C566.000 786.500 564.000 786.500 562.000 786.500 C561.667 786.167 561.333 785.833 561.000 785.500 C559.333 785.500 557.667 785.500 556.000 785.500 C555.667 785.833 555.333 786.167 555.000 786.500 C553.000 786.500 551.000 786.500 549.000 786.500 C548.667 786.833 548.333 787.167 548.000 787.500 C547.000 787.500 546.000 787.500 545.000 787.500 C544.667 787.833 544.333 788.167 544.000 788.500 C541.667 788.833 539.333 789.167 537.000 789.500 C536.000 790.167 535.000 790.833 534.000 791.500 C532.333 791.500 530.667 791.500 529.000 791.500 C528.500 791.000 528.000 790.500 527.500 790.000 C530.000 788.167 532.500 786.333 535.000 784.500 C537.667 783.167 540.333 781.833 543.000 780.500 C543.667 780.500 544.333 780.500 545.000 780.500 C545.333 780.167 545.667 779.833 546.000 779.500 C546.667 779.500 547.333 779.500 548.000 779.500 C549.333 778.833 550.667 778.167 552.000 777.500 C558.000 777.500 564.000 777.500 570.000 777.500 C570.333 777.833 570.667 778.167 571.000 778.500 C573.333 778.833 575.667 779.167 578.000 779.500 C580.667 780.833 583.333 782.167 586.000 783.500 C586.667 783.500 587.333 783.500 588.000 783.500 C588.333 783.833 588.667 784.167 589.000 784.500 C589.667 784.500 590.333 784.500 591.000 784.500 C592.333 785.167 593.667 785.833 595.000 786.500 C596.333 786.500 597.667 786.500 599.000 786.500 C599.333 786.833 599.667 787.167 600.000 787.500 C605.333 787.500 610.667 787.500 616.000 787.500 C616.333 787.167 616.667 786.833 617.000 786.500 C618.333 786.500 619.667 786.500 621.000 786.500 C621.333 786.167 621.667 785.833 622.000 785.500 C622.667 785.500 623.333 785.500 624.000 785.500 C624.333 785.167 624.667 784.833 625.000 784.500 C626.000 784.500 627.000 784.500 628.000 784.500 C628.333 784.167 628.667 783.833 629.000 783.500 C629.333 783.500 629.667 783.500 630.000 783.500 C630.500 784.000 631.000 784.500 631.500 785.000"></path>
<path id="" fill="#f6fcfe" fill-opacity="1.0" stroke="#000000" stroke-width="0.0" stroke-opacity="1.0" stroke-linecap="round" stroke-linejoin="round"  filling="0" d="M394.000 783.500 C395.667 783.500 397.333 783.500 399.000 783.500 C399.333 783.833 399.667 784.167 400.000 784.500 C401.333 784.500 402.667 784.500 404.000 784.500 C404.333 784.833 404.667 785.167 405.000 785.500 C408.667 785.500 412.333 785.500 416.000 785.500 C416.333 785.167 416.667 784.833 417.000 784.500 C418.333 784.500 419.667 784.500 421.000 784.500 C421.333 784.167 421.667 783.833 422.000 783.500 C422.667 783.500 423.333 783.500 424.000 783.500 C424.333 783.167 424.667 782.833 425.000 782.500 C425.667 782.500 426.333 782.500 427.000 782.500 C427.333 782.167 427.667 781.833 428.000 781.500 C429.667 781.167 431.333 780.833 433.000 780.500 C434.000 779.833 435.000 779.167 436.000 778.500 C436.667 778.500 437.333 778.500 438.000 778.500 C440.000 777.500 442.000 776.500 444.000 775.500 C445.333 775.500 446.667 775.500 448.000 775.500 C448.333 775.167 448.667 774.833 449.000 774.500 C451.000 774.500 453.000 774.500 455.000 774.500 C455.333 774.167 455.667 773.833 456.000 773.500 C458.000 773.500 460.000 773.500 462.000 773.500 C462.333 773.833 462.667 774.167 463.000 774.500 C465.000 774.500 467.000 774.500 469.000 774.500 C469.333 774.833 469.667 775.167 470.000 775.500 C471.000 775.500 472.000 775.500 473.000 775.500 C473.333 775.833 473.667 776.167 474.000 776.500 C474.667 776.500 475.333 776.500 476.000 776.500 C479.333 778.167 482.667 779.833 486.000 781.500 C486.667 782.167 487.333 782.833 488.000 783.500 C489.333 784.167 490.667 784.833 492.000 785.500 C492.500 786.667 493.000 787.833 493.500 789.000 C492.333 789.167 491.167 789.333 490.000 789.500 C489.000 788.833 488.000 788.167 487.000 787.500 C486.000 787.500 485.000 787.500 484.000 787.500 C482.667 786.833 481.333 786.167 480.000 785.500 C479.000 785.500 478.000 785.500 477.000 785.500 C476.667 785.167 476.333 784.833 476.000 784.500 C474.667 784.500 473.333 784.500 472.000 784.500 C471.667 784.167 471.333 783.833 471.000 783.500 C469.333 783.500 467.667 783.500 466.000 783.500 C465.667 783.167 465.333 782.833 465.000 782.500 C462.333 782.500 459.667 782.500 457.000 782.500 C456.667 782.833 456.333 783.167 456.000 783.500 C454.000 783.500 452.000 783.500 450.000 783.500 C449.667 783.833 449.333 784.167 449.000 784.500 C448.000 784.500 447.000 784.500 446.000 784.500 C445.667 784.833 445.333 785.167 445.000 785.500 C443.333 785.833 441.667 786.167 440.000 786.500 C439.000 787.167 438.000 787.833 437.000 788.500 C436.000 788.500 435.000 788.500 434.000 788.500 C433.667 788.833 433.333 789.167 433.000 789.500 C432.333 789.500 431.667 789.500 431.000 789.500 C430.667 789.833 430.333 790.167 430.000 790.500 C428.667 790.500 427.333 790.500 426.000 790.500 C425.667 790.833 425.333 791.167 425.000 791.500 C419.667 791.500 414.333 791.500 409.000 791.500 C408.667 791.167 408.333 790.833 408.000 790.500 C407.000 790.500 406.000 790.500 405.000 790.500 C404.667 790.167 404.333 789.833 404.000 789.500 C402.333 789.167 400.667 788.833 399.000 788.500 C397.667 787.833 396.333 787.167 395.000 786.500 C394.500 786.000 394.000 785.500 393.500 785.000 C393.667 784.500 393.833 784.000 394.000 783.500"></path>
<path id="" fill="#f37eaa" fill-opacity="1.0" stroke="#000000" stroke-width="0.0" stroke-opacity="1.0" stroke-linecap="round" stroke-linejoin="round"  filling="0" d="M575.500 758.000 C575.333 758.167 575.167 758.333 575.000 758.500 C573.667 758.500 572.333 758.500 571.000 758.500 C570.667 758.833 570.333 759.167 570.000 759.500 C568.333 759.500 566.667 759.500 565.000 759.500 C564.667 759.833 564.333 760.167 564.000 760.500 C560.000 760.500 556.000 760.500 552.000 760.500 C551.667 760.167 551.333 759.833 551.000 759.500 C549.667 759.500 548.333 759.500 547.000 759.500 C546.667 759.167 546.333 758.833 546.000 758.500 C545.000 758.500 544.000 758.500 543.000 758.500 C542.667 758.167 542.333 757.833 542.000 757.500 C541.667 757.500 541.333 757.500 541.000 757.500 C540.333 756.833 539.667 756.167 539.000 755.500 C538.667 755.500 538.333 755.500 538.000 755.500 C537.167 754.667 536.333 753.833 535.500 753.000 C535.500 752.667 535.500 752.333 535.500 752.000 C535.167 751.667 534.833 751.333 534.500 751.000 C534.500 750.333 534.500 749.667 534.500 749.000 C534.167 748.667 533.833 748.333 533.500 748.000 C533.500 747.667 533.500 747.333 533.500 747.000 C533.167 746.667 532.833 746.333 532.500 746.000 C532.500 744.667 532.500 743.333 532.500 742.000 C532.667 741.833 532.833 741.667 533.000 741.500 C534.000 741.500 535.000 741.500 536.000 741.500 C536.333 741.167 536.667 740.833 537.000 740.500 C539.333 740.500 541.667 740.500 544.000 740.500 C544.333 740.167 544.667 739.833 545.000 739.500 C546.667 739.500 548.333 739.500 550.000 739.500 C550.333 739.167 550.667 738.833 551.000 738.500 C552.000 738.500 553.000 738.500 554.000 738.500 C554.333 738.833 554.667 739.167 555.000 739.500 C555.667 739.500 556.333 739.500 557.000 739.500 C557.333 739.833 557.667 740.167 558.000 740.500 C558.333 740.500 558.667 740.500 559.000 740.500 C559.667 741.167 560.333 741.833 561.000 742.500 C561.333 742.500 561.667 742.500 562.000 742.500 C562.333 742.833 562.667 743.167 563.000 743.500 C563.333 743.500 563.667 743.500 564.000 743.500 C564.333 743.833 564.667 744.167 565.000 744.500 C565.333 744.500 565.667 744.500 566.000 744.500 C568.167 746.667 570.333 748.833 572.500 751.000 C572.500 751.333 572.500 751.667 572.500 752.000 C573.167 752.667 573.833 753.333 574.500 754.000 C574.500 754.333 574.500 754.667 574.500 755.000 C574.833 755.333 575.167 755.667 575.500 756.000 C575.500 756.667 575.500 757.333 575.500 758.000"></path>
<path id="" fill="#f57daa" fill-opacity="1.0" stroke="#000000" stroke-width="0.0" stroke-opacity="1.0" stroke-linecap="round" stroke-linejoin="round"  filling="0" d="M447.500 758.000 C447.500 757.333 447.500 756.667 447.500 756.000 C447.833 755.667 448.167 755.333 448.500 755.000 C448.500 754.667 448.500 754.333 448.500 754.000 C449.833 752.667 451.167 751.333 452.500 750.000 C452.500 749.667 452.500 749.333 452.500 749.000 C452.667 748.833 452.833 748.667 453.000 748.500 C453.333 748.500 453.667 748.500 454.000 748.500 C454.833 747.667 455.667 746.833 456.500 746.000 C456.500 745.667 456.500 745.333 456.500 745.000 C456.667 744.833 456.833 744.667 457.000 744.500 C457.333 744.500 457.667 744.500 458.000 744.500 C458.333 744.167 458.667 743.833 459.000 743.500 C459.333 743.500 459.667 743.500 460.000 743.500 C460.333 743.167 460.667 742.833 461.000 742.500 C461.333 742.500 461.667 742.500 462.000 742.500 C462.667 741.833 463.333 741.167 464.000 740.500 C464.333 740.500 464.667 740.500 465.000 740.500 C465.333 740.167 465.667 739.833 466.000 739.500 C466.667 739.500 467.333 739.500 468.000 739.500 C468.333 739.167 468.667 738.833 469.000 738.500 C470.333 738.500 471.667 738.500 473.000 738.500 C473.333 738.833 473.667 739.167 474.000 739.500 C475.667 739.500 477.333 739.500 479.000 739.500 C479.333 739.833 479.667 740.167 480.000 740.500 C482.000 740.500 484.000 740.500 486.000 740.500 C486.333 740.833 486.667 741.167 487.000 741.500 C488.000 741.500 489.000 741.500 490.000 741.500 C490.167 741.667 490.333 741.833 490.500 742.000 C490.500 743.333 490.500 744.667 490.500 746.000 C490.167 746.333 489.833 746.667 489.500 747.000 C489.500 747.667 489.500 748.333 489.500 749.000 C489.167 749.333 488.833 749.667 488.500 750.000 C488.500 750.667 488.500 751.333 488.500 752.000 C487.333 753.167 486.167 754.333 485.000 755.500 C484.667 755.500 484.333 755.500 484.000 755.500 C483.333 756.167 482.667 756.833 482.000 757.500 C481.667 757.500 481.333 757.500 481.000 757.500 C480.667 757.833 480.333 758.167 480.000 758.500 C479.000 758.500 478.000 758.500 477.000 758.500 C476.667 758.833 476.333 759.167 476.000 759.500 C474.667 759.500 473.333 759.500 472.000 759.500 C471.667 759.833 471.333 760.167 471.000 760.500 C467.333 760.500 463.667 760.500 460.000 760.500 C459.667 760.167 459.333 759.833 459.000 759.500 C457.000 759.500 455.000 759.500 453.000 759.500 C452.667 759.167 452.333 758.833 452.000 758.500 C450.667 758.500 449.333 758.500 448.000 758.500 C447.833 758.333 447.667 758.167 447.500 758.000"></path>
<path id="" fill="#f1fbfd" fill-opacity="1.0" stroke="#000000" stroke-width="0.0" stroke-opacity="1.0" stroke-linecap="round" stroke-linejoin="round"  filling="0" d="M677.500 762.000 C676.000 763.500 674.500 765.000 673.000 766.500 C672.667 766.500 672.333 766.500 672.000 766.500 C671.333 767.167 670.667 767.833 670.000 768.500 C669.667 768.500 669.333 768.500 669.000 768.500 C668.667 768.833 668.333 769.167 668.000 769.500 C667.333 769.500 666.667 769.500 666.000 769.500 C665.667 769.833 665.333 770.167 665.000 770.500 C664.333 770.500 663.667 770.500 663.000 770.500 C662.667 770.833 662.333 771.167 662.000 771.500 C660.667 771.500 659.333 771.500 658.000 771.500 C657.667 771.833 657.333 772.167 657.000 772.500 C654.667 772.500 652.333 772.500 650.000 772.500 C649.667 772.167 649.333 771.833 649.000 771.500 C647.333 771.500 645.667 771.500 644.000 771.500 C643.667 771.167 643.333 770.833 643.000 770.500 C642.333 770.500 641.667 770.500 641.000 770.500 C640.667 770.167 640.333 769.833 640.000 769.500 C639.000 769.500 638.000 769.500 637.000 769.500 C636.667 769.167 636.333 768.833 636.000 768.500 C635.333 768.500 634.667 768.500 634.000 768.500 C633.667 768.167 633.333 767.833 633.000 767.500 C632.333 767.500 631.667 767.500 631.000 767.500 C630.667 767.167 630.333 766.833 630.000 766.500 C629.333 766.500 628.667 766.500 628.000 766.500 C627.667 766.167 627.333 765.833 627.000 765.500 C626.000 765.500 625.000 765.500 624.000 765.500 C623.667 765.167 623.333 764.833 623.000 764.500 C619.000 764.500 615.000 764.500 611.000 764.500 C610.667 764.833 610.333 765.167 610.000 765.500 C608.667 765.500 607.333 765.500 606.000 765.500 C605.667 765.833 605.333 766.167 605.000 766.500 C604.333 766.500 603.667 766.500 603.000 766.500 C602.667 766.833 602.333 767.167 602.000 767.500 C601.000 767.500 600.000 767.500 599.000 767.500 C598.667 767.833 598.333 768.167 598.000 768.500 C597.667 768.500 597.333 768.500 597.000 768.500 C596.500 768.000 596.000 767.500 595.500 767.000 C595.500 766.667 595.500 766.333 595.500 766.000 C597.333 764.500 599.167 763.000 601.000 761.500 C601.333 761.500 601.667 761.500 602.000 761.500 C603.667 760.500 605.333 759.500 607.000 758.500 C607.667 758.500 608.333 758.500 609.000 758.500 C609.333 758.167 609.667 757.833 610.000 757.500 C611.000 757.500 612.000 757.500 613.000 757.500 C613.333 757.167 613.667 756.833 614.000 756.500 C618.000 756.500 622.000 756.500 626.000 756.500 C626.333 756.833 626.667 757.167 627.000 757.500 C628.000 757.500 629.000 757.500 630.000 757.500 C630.333 757.833 630.667 758.167 631.000 758.500 C632.000 758.500 633.000 758.500 634.000 758.500 C634.333 758.833 634.667 759.167 635.000 759.500 C635.667 759.500 636.333 759.500 637.000 759.500 C637.333 759.833 637.667 760.167 638.000 760.500 C638.333 760.500 638.667 760.500 639.000 760.500 C639.333 760.833 639.667 761.167 640.000 761.500 C640.667 761.500 641.333 761.500 642.000 761.500 C642.333 761.833 642.667 762.167 643.000 762.500 C644.000 762.500 645.000 762.500 646.000 762.500 C646.333 762.833 646.667 763.167 647.000 763.500 C648.333 763.500 649.667 763.500 651.000 763.500 C651.333 763.833 651.667 764.167 652.000 764.500 C655.333 764.500 658.667 764.500 662.000 764.500 C662.333 764.167 662.667 763.833 663.000 763.500 C664.333 763.500 665.667 763.500 667.000 763.500 C667.333 763.167 667.667 762.833 668.000 762.500 C669.000 762.500 670.000 762.500 671.000 762.500 C671.333 762.167 671.667 761.833 672.000 761.500 C673.667 761.500 675.333 761.500 677.000 761.500 C677.167 761.667 677.333 761.833 677.500 762.000"></path>
<path id="" fill="#f3fbfe" fill-opacity="1.0" stroke="#000000" stroke-width="0.0" stroke-opacity="1.0" stroke-linecap="round" stroke-linejoin="round"  filling="0" d="M347.500 762.000 C347.667 761.833 347.833 761.667 348.000 761.500 C349.333 761.500 350.667 761.500 352.000 761.500 C352.333 761.833 352.667 762.167 353.000 762.500 C354.000 762.500 355.000 762.500 356.000 762.500 C356.333 762.833 356.667 763.167 357.000 763.500 C358.333 763.500 359.667 763.500 361.000 763.500 C361.333 763.833 361.667 764.167 362.000 764.500 C365.333 764.500 368.667 764.500 372.000 764.500 C372.333 764.167 372.667 763.833 373.000 763.500 C374.333 763.500 375.667 763.500 377.000 763.500 C377.333 763.167 377.667 762.833 378.000 762.500 C379.000 762.500 380.000 762.500 381.000 762.500 C381.333 762.167 381.667 761.833 382.000 761.500 C382.667 761.500 383.333 761.500 384.000 761.500 C384.333 761.167 384.667 760.833 385.000 760.500 C385.667 760.500 386.333 760.500 387.000 760.500 C387.333 760.167 387.667 759.833 388.000 759.500 C388.667 759.500 389.333 759.500 390.000 759.500 C390.333 759.167 390.667 758.833 391.000 758.500 C391.667 758.500 392.333 758.500 393.000 758.500 C393.333 758.167 393.667 757.833 394.000 757.500 C395.000 757.500 396.000 757.500 397.000 757.500 C397.333 757.167 397.667 756.833 398.000 756.500 C402.000 756.500 406.000 756.500 410.000 756.500 C410.333 756.833 410.667 757.167 411.000 757.500 C412.000 757.500 413.000 757.500 414.000 757.500 C414.333 757.833 414.667 758.167 415.000 758.500 C415.667 758.500 416.333 758.500 417.000 758.500 C417.667 759.167 418.333 759.833 419.000 760.500 C419.667 760.500 420.333 760.500 421.000 760.500 C422.000 761.500 423.000 762.500 424.000 763.500 C424.333 763.500 424.667 763.500 425.000 763.500 C425.833 764.333 426.667 765.167 427.500 766.000 C427.500 766.333 427.500 766.667 427.500 767.000 C427.333 767.167 427.167 767.333 427.000 767.500 C426.333 767.500 425.667 767.500 425.000 767.500 C424.667 767.167 424.333 766.833 424.000 766.500 C422.667 766.500 421.333 766.500 420.000 766.500 C419.667 766.167 419.333 765.833 419.000 765.500 C418.000 765.500 417.000 765.500 416.000 765.500 C415.667 765.167 415.333 764.833 415.000 764.500 C410.333 764.500 405.667 764.500 401.000 764.500 C400.667 764.833 400.333 765.167 400.000 765.500 C399.000 765.500 398.000 765.500 397.000 765.500 C396.667 765.833 396.333 766.167 396.000 766.500 C395.333 766.500 394.667 766.500 394.000 766.500 C393.000 767.167 392.000 767.833 391.000 768.500 C390.000 768.500 389.000 768.500 388.000 768.500 C387.667 768.833 387.333 769.167 387.000 769.500 C386.333 769.500 385.667 769.500 385.000 769.500 C384.667 769.833 384.333 770.167 384.000 770.500 C383.000 770.500 382.000 770.500 381.000 770.500 C380.667 770.833 380.333 771.167 380.000 771.500 C378.333 771.500 376.667 771.500 375.000 771.500 C374.667 771.833 374.333 772.167 374.000 772.500 C371.333 772.500 368.667 772.500 366.000 772.500 C365.667 772.167 365.333 771.833 365.000 771.500 C364.000 771.500 363.000 771.500 362.000 771.500 C361.667 771.167 361.333 770.833 361.000 770.500 C360.333 770.500 359.667 770.500 359.000 770.500 C358.000 769.833 357.000 769.167 356.000 768.500 C355.333 768.500 354.667 768.500 354.000 768.500 C353.333 767.833 352.667 767.167 352.000 766.500 C351.667 766.500 351.333 766.500 351.000 766.500 C350.167 765.667 349.333 764.833 348.500 764.000 C348.500 763.667 348.500 763.333 348.500 763.000 C348.167 762.667 347.833 762.333 347.500 762.000"></path>
<path id="" fill="#f28a24" fill-opacity="1.0" stroke="#000000" stroke-width="0.0" stroke-opacity="1.0" stroke-linecap="round" stroke-linejoin="round"  filling="0" d="M402.000 561.500 C401.833 561.333 401.667 561.167 401.500 561.000 C401.500 560.333 401.500 559.667 401.500 559.000 C401.167 558.667 400.833 558.333 400.500 558.000 C400.833 557.667 401.167 557.333 401.500 557.000 C401.500 556.667 401.500 556.333 401.500 556.000 C401.833 555.667 402.167 555.333 402.500 555.000 C402.500 554.667 402.500 554.333 402.500 554.000 C402.833 553.667 403.167 553.333 403.500 553.000 C403.500 552.667 403.500 552.333 403.500 552.000 C404.167 551.333 404.833 550.667 405.500 550.000 C405.500 549.667 405.500 549.333 405.500 549.000 C405.833 548.667 406.167 548.333 406.500 548.000 C406.500 547.667 406.500 547.333 406.500 547.000 C407.167 546.333 407.833 545.667 408.500 545.000 C408.500 544.667 408.500 544.333 408.500 544.000 C408.833 543.667 409.167 543.333 409.500 543.000 C409.500 542.667 409.500 542.333 409.500 542.000 C409.833 541.667 410.167 541.333 410.500 541.000 C410.500 540.333 410.500 539.667 410.500 539.000 C410.833 538.667 411.167 538.333 411.500 538.000 C411.500 537.333 411.500 536.667 411.500 536.000 C411.833 535.667 412.167 535.333 412.500 535.000 C412.500 534.000 412.500 533.000 412.500 532.000 C412.833 531.667 413.167 531.333 413.500 531.000 C413.500 530.667 413.500 530.333 413.500 530.000 C414.000 529.500 414.500 529.000 415.000 528.500 C415.333 528.500 415.667 528.500 416.000 528.500 C416.333 528.167 416.667 527.833 417.000 527.500 C417.333 527.500 417.667 527.500 418.000 527.500 C418.333 527.833 418.667 528.167 419.000 528.500 C419.333 528.500 419.667 528.500 420.000 528.500 C422.167 530.667 424.333 532.833 426.500 535.000 C426.500 535.333 426.500 535.667 426.500 536.000 C426.833 536.333 427.167 536.667 427.500 537.000 C427.500 537.333 427.500 537.667 427.500 538.000 C427.167 538.333 426.833 538.667 426.500 539.000 C426.500 539.667 426.500 540.333 426.500 541.000 C420.333 547.167 414.167 553.333 408.000 559.500 C407.667 559.500 407.333 559.500 407.000 559.500 C406.667 559.833 406.333 560.167 406.000 560.500 C405.333 560.500 404.667 560.500 404.000 560.500 C403.667 560.833 403.333 561.167 403.000 561.500 C402.667 561.500 402.333 561.500 402.000 561.500"></path>
<path id="" fill="#ecf9fd" fill-opacity="1.0" stroke="#000000" stroke-width="0.0" stroke-opacity="1.0" stroke-linecap="round" stroke-linejoin="round"  filling="0" d="M512.500 537.000 C512.500 536.667 512.500 536.333 512.500 536.000 C513.000 535.500 513.500 535.000 514.000 534.500 C520.333 534.500 526.667 534.500 533.000 534.500 C533.333 534.167 533.667 533.833 534.000 533.500 C535.000 533.500 536.000 533.500 537.000 533.500 C537.333 533.167 537.667 532.833 538.000 532.500 C538.333 532.500 538.667 532.500 539.000 532.500 C540.000 531.833 541.000 531.167 542.000 530.500 C542.667 530.500 543.333 530.500 544.000 530.500 C544.333 530.167 544.667 529.833 545.000 529.500 C545.667 529.500 546.333 529.500 547.000 529.500 C547.333 529.167 547.667 528.833 548.000 528.500 C548.667 528.500 549.333 528.500 550.000 528.500 C550.333 528.167 550.667 527.833 551.000 527.500 C551.667 527.500 552.333 527.500 553.000 527.500 C553.333 527.167 553.667 526.833 554.000 526.500 C556.000 526.500 558.000 526.500 560.000 526.500 C560.333 526.167 560.667 525.833 561.000 525.500 C562.000 525.500 563.000 525.500 564.000 525.500 C564.333 525.833 564.667 526.167 565.000 526.500 C567.333 526.500 569.667 526.500 572.000 526.500 C572.333 526.833 572.667 527.167 573.000 527.500 C573.667 527.500 574.333 527.500 575.000 527.500 C575.333 527.833 575.667 528.167 576.000 528.500 C576.667 528.500 577.333 528.500 578.000 528.500 C578.333 528.833 578.667 529.167 579.000 529.500 C579.667 529.500 580.333 529.500 581.000 529.500 C581.333 529.833 581.667 530.167 582.000 530.500 C582.667 530.500 583.333 530.500 584.000 530.500 C584.500 531.000 585.000 531.500 585.500 532.000 C585.500 532.667 585.500 533.333 585.500 534.000 C585.000 534.167 584.500 534.333 584.000 534.500 C583.667 534.833 583.333 535.167 583.000 535.500 C581.667 535.500 580.333 535.500 579.000 535.500 C578.667 535.167 578.333 534.833 578.000 534.500 C577.000 534.500 576.000 534.500 575.000 534.500 C574.667 534.167 574.333 533.833 574.000 533.500 C573.000 533.500 572.000 533.500 571.000 533.500 C570.667 533.167 570.333 532.833 570.000 532.500 C564.333 532.500 558.667 532.500 553.000 532.500 C552.667 532.833 552.333 533.167 552.000 533.500 C551.333 533.500 550.667 533.500 550.000 533.500 C549.667 533.833 549.333 534.167 549.000 534.500 C548.333 534.500 547.667 534.500 547.000 534.500 C546.667 534.833 546.333 535.167 546.000 535.500 C545.333 535.500 544.667 535.500 544.000 535.500 C543.667 535.833 543.333 536.167 543.000 536.500 C542.333 536.500 541.667 536.500 541.000 536.500 C540.667 536.833 540.333 537.167 540.000 537.500 C539.000 537.500 538.000 537.500 537.000 537.500 C536.667 537.833 536.333 538.167 536.000 538.500 C535.000 538.500 534.000 538.500 533.000 538.500 C532.667 538.833 532.333 539.167 532.000 539.500 C528.667 539.500 525.333 539.500 522.000 539.500 C521.667 539.167 521.333 538.833 521.000 538.500 C519.667 538.500 518.333 538.500 517.000 538.500 C516.667 538.167 516.333 537.833 516.000 537.500 C515.000 537.500 514.000 537.500 513.000 537.500 C512.833 537.333 512.667 537.167 512.500 537.000"></path>
<path id="" fill="#131f3c" fill-opacity="1.0" stroke="#000000" stroke-width="0.0" stroke-opacity="1.0" stroke-linecap="round" stroke-linejoin="round"  filling="0" d="M530.000 206.500 C529.833 206.333 529.667 206.167 529.500 206.000 C529.500 202.333 529.500 198.667 529.500 195.000 C529.833 194.667 530.167 194.333 530.500 194.000 C530.500 193.000 530.500 192.000 530.500 191.000 C530.833 190.667 531.167 190.333 531.500 190.000 C531.500 189.667 531.500 189.333 531.500 189.000 C531.833 188.667 532.167 188.333 532.500 188.000 C532.500 187.333 532.500 186.667 532.500 186.000 C532.833 185.667 533.167 185.333 533.500 185.000 C533.500 184.667 533.500 184.333 533.500 184.000 C534.500 183.000 535.500 182.000 536.500 181.000 C536.500 180.667 536.500 180.333 536.500 180.000 C538.000 178.500 539.500 177.000 541.000 175.500 C541.667 175.500 542.333 175.500 543.000 175.500 C543.333 175.167 543.667 174.833 544.000 174.500 C544.667 174.500 545.333 174.500 546.000 174.500 C546.500 175.000 547.000 175.500 547.500 176.000 C547.500 176.667 547.500 177.333 547.500 178.000 C547.833 178.333 548.167 178.667 548.500 179.000 C548.500 179.667 548.500 180.333 548.500 181.000 C548.833 181.333 549.167 181.667 549.500 182.000 C549.500 183.333 549.500 184.667 549.500 186.000 C549.167 186.333 548.833 186.667 548.500 187.000 C548.500 187.667 548.500 188.333 548.500 189.000 C546.333 191.167 544.167 193.333 542.000 195.500 C541.000 195.500 540.000 195.500 539.000 195.500 C538.667 195.833 538.333 196.167 538.000 196.500 C537.333 196.500 536.667 196.500 536.000 196.500 C535.167 197.333 534.333 198.167 533.500 199.000 C533.500 199.333 533.500 199.667 533.500 200.000 C532.833 200.667 532.167 201.333 531.500 202.000 C531.500 202.667 531.500 203.333 531.500 204.000 C531.167 204.333 530.833 204.667 530.500 205.000 C530.500 205.333 530.500 205.667 530.500 206.000 C530.333 206.167 530.167 206.333 530.000 206.500"></path>
<path id="" fill="#f2fcfe" fill-opacity="1.0" stroke="#000000" stroke-width="0.0" stroke-opacity="1.0" stroke-linecap="round" stroke-linejoin="round"  filling="0" d="M612.500 539.000 C612.500 537.667 612.500 536.333 612.500 535.000 C612.667 534.833 612.833 534.667 613.000 534.500 C613.333 534.500 613.667 534.500 614.000 534.500 C614.333 534.167 614.667 533.833 615.000 533.500 C615.667 533.500 616.333 533.500 617.000 533.500 C617.333 533.167 617.667 532.833 618.000 532.500 C618.333 532.500 618.667 532.500 619.000 532.500 C619.333 532.167 619.667 531.833 620.000 531.500 C620.333 531.500 620.667 531.500 621.000 531.500 C621.333 531.167 621.667 530.833 622.000 530.500 C623.000 530.500 624.000 530.500 625.000 530.500 C625.333 530.167 625.667 529.833 626.000 529.500 C626.333 529.500 626.667 529.500 627.000 529.500 C627.333 529.167 627.667 528.833 628.000 528.500 C628.667 528.500 629.333 528.500 630.000 528.500 C630.333 528.167 630.667 527.833 631.000 527.500 C631.333 527.500 631.667 527.500 632.000 527.500 C632.333 527.167 632.667 526.833 633.000 526.500 C634.000 526.500 635.000 526.500 636.000 526.500 C636.333 526.167 636.667 525.833 637.000 525.500 C640.667 525.500 644.333 525.500 648.000 525.500 C648.333 525.833 648.667 526.167 649.000 526.500 C649.333 526.500 649.667 526.500 650.000 526.500 C650.500 527.000 651.000 527.500 651.500 528.000 C651.500 528.333 651.500 528.667 651.500 529.000 C650.667 529.833 649.833 530.667 649.000 531.500 C648.333 531.500 647.667 531.500 647.000 531.500 C646.667 531.833 646.333 532.167 646.000 532.500 C642.333 532.500 638.667 532.500 635.000 532.500 C634.667 532.833 634.333 533.167 634.000 533.500 C633.333 533.500 632.667 533.500 632.000 533.500 C631.667 533.833 631.333 534.167 631.000 534.500 C630.333 534.500 629.667 534.500 629.000 534.500 C628.667 534.833 628.333 535.167 628.000 535.500 C627.667 535.500 627.333 535.500 627.000 535.500 C626.667 535.833 626.333 536.167 626.000 536.500 C625.333 536.500 624.667 536.500 624.000 536.500 C623.667 536.833 623.333 537.167 623.000 537.500 C622.333 537.500 621.667 537.500 621.000 537.500 C620.667 537.833 620.333 538.167 620.000 538.500 C619.667 538.500 619.333 538.500 619.000 538.500 C618.667 538.833 618.333 539.167 618.000 539.500 C616.333 539.500 614.667 539.500 613.000 539.500 C612.833 539.333 612.667 539.167 612.500 539.000"></path>
</svg>