<svg xmlns="http://www.w3.org/2000/svg" viewBox="0 0 1000 1000" height="1000.0px" width="1000.0px">
<path id="" fill="#ffffff" fill-opacity="1.0" stroke="#000000" stroke-width="0.0" stroke-opacity="1.0" stroke-linecap="round" stroke-linejoin="round"  filling="0" d="M1510.000000 500.000000 C1510.000000 636.874023 1483.507324 767.946289 1430.521973 893.216980 C1379.400635 1014.083008 1307.286011 1121.069946 1214.177979 1214.177979 C1121.069946 1307.285278 1014.083313 1379.400024 893.218018 1430.521973 C767.947327 1483.507324 636.874695 1510.000000 500.000000 1510.000000 C363.125977 1510.000000 232.053680 1483.507324 106.782997 1430.521973 C-14.083000 1379.400635 -121.070000 1307.286011 -214.177994 1214.177979 C-307.285339 1121.069946 -379.399994 1014.083313 -430.522003 893.218018 C-483.507324 767.946655 -510.000000 636.874023 -510.000000 500.000000 C-510.000000 363.125977 -483.507324 232.053680 -430.522003 106.782997 C-379.400665 -14.083000 -307.286011 -121.070000 -214.177994 -214.177994 C-121.070000 -307.285339 -14.083000 -379.399994 106.782997 -430.522003 C232.053680 -483.507324 363.125977 -510.000000 500.000000 -510.000000 C636.874023 -510.000000 767.946289 -483.507324 893.216980 -430.522003 C1014.083008 -379.399994 1121.069946 -307.285339 1214.177979 -214.177994 C1307.286011 -121.070000 1379.400635 -14.083000 1430.521973 106.782997 C1483.507324 232.053680 1510.000000 363.125977 1510.000000 500.000000"></path>
<path id="" fill="#ffffff" fill-opacity="1.0" stroke="#000000" stroke-width="0.0" stroke-opacity="1.0" stroke-linecap="round" stroke-linejoin="round"  filling="0" d="M990.000000 500.000000 C990.000000 433.424652 977.200012 369.874664 951.599976 309.350006 C926.817993 250.757996 891.778687 198.814011 846.481995 153.518005 C801.186035 108.221329 749.242004 73.181999 690.650024 48.400002 C630.125305 22.799999 566.575317 10.000000 500.000000 10.000000 C433.424652 10.000000 369.874664 22.799999 309.350006 48.400002 C250.757996 73.181999 198.814011 108.221329 153.518005 153.518005 C108.221329 198.814011 73.181999 250.757996 48.400002 309.350006 C22.799999 369.874664 10.000000 433.424652 10.000000 500.000000 C10.000000 566.575317 22.799999 630.125305 48.400002 690.650024 C73.181999 749.242004 108.221329 801.186035 153.518005 846.481995 C198.814011 891.778687 250.757996 926.817993 309.350006 951.599976 C369.874664 977.200012 433.424652 990.000000 500.000000 990.000000 C566.575317 990.000000 630.125305 977.200012 690.650024 951.599976 C749.242004 926.817993 801.186035 891.778687 846.481995 846.481995 C891.778687 801.186035 926.817993 749.242004 951.599976 690.650024 C977.200012 630.125305 990.000000 566.575317 990.000000 500.000000"></path>
</svg>