<?xml version="1.0" ?>
<svg xmlns="http://www.w3.org/2000/svg" version="1.1" width="512" height="512" viewBox="0 0 512 512">
  <defs/>
  <g>
    <path d="M -75.37131500 582.21191406 C -79.71095276 558.32293701 -84.04486084 534.39471436 -88.28447723 510.46911621 C -92.41233826 486.52978516 -96.33817291 462.55349731 -99.95748138 438.55822754 C -103.14321899 414.54876709 -105.72220612 390.50799561 -107.61634064 366.47512817 C -108.71188354 342.47433472 -108.87888336 318.48971558 -108.01084900 294.56298828 C -106.03443146 270.68780518 -102.79533386 246.95310974 -98.21659088 223.45303345 C -92.23509979 200.18103027 -84.80805969 177.18557739 -75.89833832 154.57743835 C -65.42241669 132.47401428 -53.24608994 111.04309082 -39.37998581 90.41476440 C -23.76327705 70.70220184 -6.50499487 51.92168808 11.79550171 33.63130569 C 30.71375656 15.79939938 51.41884613 -0.04281390 73.68247986 -14.16504860 C 96.58653259 -27.35209846 120.11722565 -39.36753082 144.11329651 -50.11415100 C 168.44889832 -59.47356415 193.05804443 -67.34605408 217.81454468 -73.70476532 C 242.61116028 -78.47309875 267.42727661 -81.54003143 292.19619751 -82.89273071 C 316.77096558 -82.53416443 340.98150635 -80.44328308 364.73596191 -76.62705994 C 387.86886597 -71.15547180 410.27978516 -63.99750519 431.90795898 -55.18296814 C 452.64654541 -44.74572754 472.40802002 -32.67146683 491.17068481 -18.97992706 C 508.92794800 -3.78531790 525.51416016 12.81532860 540.84063721 30.73698044 C 554.87957764 49.81808853 567.56512451 69.98342133 578.79547119 91.09780121 C 588.60833740 113.10427856 596.97723389 135.89532471 603.85327148 159.34411621 C 609.21087646 183.22467041 613.06988525 207.48576355 615.37359619 232.07714844 C 616.14453125 256.81393433 615.37463379 281.55450439 613.04980469 306.15682983 C 609.14367676 330.49584961 603.70465088 354.52099609 596.73577881 378.07070923 C 588.25396729 401.01739502 578.22686768 423.22915649 566.63702393 444.53228760 C 553.53192139 464.80493164 539.02258301 483.94116211 523.07269287 501.86068726 C 505.65676880 518.33483887 486.83602905 533.30664062 466.80233765 546.91638184 C 445.66461182 559.24383545 423.51400757 570.32092285 400.45428467 580.21313477 C 376.66873169 589.01940918 352.24118042 596.80023193 327.25918579 603.69042969 C 301.83139038 609.78625488 276.01412964 615.19525146 249.89840698 620.00030518 C 223.54214478 624.29003906 197.01191711 628.15454102 170.38748169 631.70672607 C 143.67610168 635.07067871 116.90811157 638.27636719 90.12001038 641.39514160 C 63.31193161 644.45275879 36.48493958 647.47357178 -75.37131500 582.21191406" stroke-width="2.00000000" fill="rgb(255, 254, 254)" opacity="1.0" stroke="rgb(255, 255, 255)" stroke-opacity="0.0" stroke-linecap="round" stroke-linejoin="round"/>
    <path d="M 393.00512695 374.56738281 C 386.12185669 382.97158813 378.32913208 390.31488037 370.16937256 397.73376465 C 361.76608276 404.65768433 352.68286133 410.98947144 342.84039307 416.69799805 C 332.87194824 422.72833252 321.99090576 427.39901733 310.44241333 431.28979492 C 298.77679443 435.34381104 287.11346436 437.87506104 274.69146729 439.21920776 C 262.25103760 440.67895508 250.19519043 440.54708862 237.68057251 439.28088379 C 225.17037964 437.58908081 213.01741028 435.56427002 201.49954224 431.17089844 C 189.39781189 427.17102051 177.88523865 422.15707397 166.72856140 415.22665405 C 155.23573303 408.46765137 144.47004700 400.43368530 134.62571716 390.96829224 C 124.46431732 381.43408203 115.37291718 370.77761841 107.57186890 358.68444824 C 99.12259674 347.49459839 94.50443268 335.33779907 88.88905334 322.59613037 C 84.03367615 309.81588745 80.65721893 296.93237305 78.63901520 283.38012695 C 76.90750122 270.23895264 75.99449921 257.28726196 77.30187225 245.14982605 C 77.54404449 233.65588379 80.19500732 222.42991638 82.76328278 210.78588867 C 85.69338989 199.34759521 90.18313599 188.34265137 95.35987854 177.32202148 C 100.88494110 166.41952515 107.34270477 156.04197693 114.75113678 146.41450500 C 122.21147156 137.00099182 130.47659302 128.41516113 139.53204346 120.72312164 C 148.51332092 113.08583069 157.96826172 106.47278595 168.02088928 100.78375244 C 177.81263733 95.09368896 188.35037231 90.86517334 199.16293335 86.98377991 C 210.01934814 83.37668610 221.29257202 81.43770599 232.52868652 78.97973633 C 244.09239197 77.79317474 256.07519531 77.39409637 268.23373413 77.95242310 C 280.40042114 79.05101776 292.51477051 81.24010468 304.60598755 84.63829041 C 316.89843750 88.05922699 328.86798096 92.65782166 340.23281860 98.75794983 C 351.75378418 104.99613953 362.58731079 112.04950714 372.46408081 120.80803680 C 382.75210571 129.26492310 391.85116577 138.98031616 399.60565186 149.63891602 C 407.82263184 159.60037231 413.79397583 171.15840149 419.31054688 183.03781128 C 424.57458496 194.92504883 428.83782959 207.02764893 431.39947510 219.51498413 C 433.71261597 232.25479126 435.49484253 245.10614014 435.39251709 258.05807495 C 435.24697876 271.17092896 433.65255737 283.99084473 431.06109619 296.66403198 C 428.16619873 309.21798706 424.21578979 321.34832764 419.10113525 332.88470459 C 413.41317749 344.61816406 407.69641113 356.45336914 393.00512695 374.56738281" stroke-width="2.00000000" fill="rgb(245, 244, 245)" opacity="1.0" stroke="rgb(4, 31, 63)" stroke-opacity="0.9692034" stroke-linecap="round" stroke-linejoin="round"/>
    <path d="M 414.93536377 219.08950806 C 404.79724121 228.72167969 404.82937622 239.32447815 407.80841064 251.49986267 C 405.62832642 258.86761475 397.67501831 262.19958496 385.60574341 263.10058594 C 370.91534424 262.28524780 354.65280151 260.75717163 338.05987549 258.77697754 C 322.13220215 256.60382080 307.38339233 253.84730530 293.78088379 251.66775513 C 281.27859497 250.41294861 269.76885986 249.70597839 259.36630249 249.04425049 C 249.87136841 247.93548584 241.27328491 246.41017151 233.82391357 244.21694946 C 227.30415344 241.96047974 221.00973511 242.07196045 214.78265381 245.22840881 C 207.66300964 249.92512512 199.50045776 254.69541931 190.11813354 258.80535889 C 179.46264648 260.58978271 167.81417847 260.98861694 155.89308167 260.99816895 C 144.19239807 261.32971191 133.14160156 261.59368896 123.31072235 261.41464233 C 115.26744080 260.52429199 109.35230255 258.67471313 105.76125336 255.59352112 C 104.95917511 250.05291748 105.73356628 243.19412231 106.93286896 235.47259521 C 108.85063171 226.64958191 110.62860870 217.29093933 113.48332977 207.67704773 C 117.21154022 197.72448730 122.09325409 187.94175720 127.52591705 178.20700073 C 133.01646423 168.35379028 140.23526001 159.97064209 147.94979858 151.79234314 C 156.18673706 143.45434570 165.32551575 135.87817383 175.28889465 128.95719910 C 185.76910400 122.23954010 197.17251587 116.58918762 210.14364624 113.92059326 C 225.11573792 114.84505463 241.68026733 118.01441956 259.27331543 123.15654755 C 278.13204956 129.60963440 297.87237549 137.12062073 317.94708252 145.55982971 C 338.02423096 154.19541931 357.32437134 162.63954163 374.48245239 170.48997498 C 388.26553345 177.49945068 396.22460938 178.97636414 390.42880249 170.05026245 C 377.84725952 149.79435730 361.28994751 134.89053345 345.99798584 123.78411102 C 334.04833984 117.50925446 330.17123413 111.34111786 334.56506348 102.69488525 C 341.39245605 99.55503082 348.69567871 105.02914429 358.42306519 112.02342987 C 368.65863037 119.17123413 378.41876221 127.70544434 387.41247559 137.49206543 C 396.10784912 146.98785400 403.22113037 156.96728516 409.26333618 167.24974060 C 415.02532959 177.63285828 420.31097412 188.37094116 424.42321777 200.46525574 C 428.68991089 214.03993225 431.84439087 229.44381714 433.25778198 246.61030579 C 434.57043457 265.04125977 431.98257446 284.52514648 427.05166626 304.83969116 C 421.19329834 325.50158691 415.69302368 346.21331787 414.93536377 219.08950806" stroke-width="2.00000000" fill="rgb(243, 153, 27)" opacity="1.0" stroke="rgb(18, 15, 33)" stroke-opacity="0.8681978" stroke-linecap="round" stroke-linejoin="round"/>
    <path d="M 305.79312134 260.67172241 C 297.76208496 261.44204712 290.03533936 262.10635376 282.63348389 262.68258667 C 275.50064087 263.06753540 268.72131348 263.14624023 262.48983765 262.82788086 C 256.94198608 261.97958374 252.15997314 260.49749756 248.51507568 258.12179565 C 246.50535583 254.63084412 244.88082886 250.98008728 242.27162170 248.14448547 C 239.70462036 245.54270935 236.27056885 243.49806213 232.98449707 241.98237610 C 229.10775757 241.14732361 224.83779907 241.24565125 220.65014648 241.60858154 C 216.46569824 242.33950806 212.94470215 244.21147156 209.94976807 246.77622986 C 207.65858459 249.66833496 205.68025208 251.76750183 203.98170471 252.80331421 C 203.11088562 252.65447998 203.26272583 250.87089539 203.56994629 247.48921204 C 203.75572205 243.50996399 205.74134827 239.09649658 207.74389648 233.77604675 C 210.18943787 228.08460999 213.84913635 223.30796814 218.06483459 218.89555359 C 222.12489319 214.92712402 226.02462769 211.71871948 230.58642578 209.53915405 C 235.61436462 208.24571228 240.44619751 206.10180664 245.70112610 204.81143188 C 250.63002014 204.11973572 255.33110046 204.09635925 259.94613647 204.29066467 C 264.20983887 204.39526367 268.45129395 205.17117310 272.96289062 205.56066895 C 277.61804199 207.22129822 281.87503052 209.34352112 285.89526367 212.26995850 C 290.17053223 214.85662842 293.68365479 218.06890869 296.83569336 221.80451965 C 299.71090698 225.69705200 302.28375244 229.35687256 304.16525269 233.41069031 C 306.08743286 237.48838806 307.20535278 241.86225891 307.76489258 245.60423279 C 309.21316528 249.51390076 309.80529785 254.34063721 305.79312134 260.67172241" stroke-width="2.00000000" fill="rgb(232, 56, 39)" opacity="1.0" stroke="rgb(0, 21, 54)" stroke-opacity="1.0" stroke-linecap="round" stroke-linejoin="round"/>
    <path d="M 299.10568237 366.14328003 C 294.95123291 371.79095459 290.34097290 377.24606323 285.16732788 382.06033325 C 278.99432373 385.40408325 273.00888062 388.41873169 266.71289062 389.98052979 C 259.98519897 389.92916870 253.08291626 388.98199463 246.12539673 387.66937256 C 239.51544189 386.24758911 233.42980957 385.39443970 228.33889771 385.44851685 C 224.25259399 384.03048706 221.03572083 381.62719727 218.41973877 378.17446899 C 216.47071838 373.96786499 215.26614380 369.42974854 215.12603760 364.88241577 C 217.04656982 360.58126831 219.35993958 356.86328125 219.96530151 353.06283569 C 217.37428284 349.04650879 215.96339417 344.96643066 216.05557251 342.61364746 C 219.06500244 343.65789795 223.59053040 343.82717896 226.44178772 346.83932495 C 228.62768555 357.28326416 234.00764465 365.43048096 237.86187744 364.11087036 C 231.18312073 356.66622925 227.08300781 344.46005249 227.71347046 335.22113037 C 231.05059814 335.14752197 235.00688171 339.26983643 238.00634766 340.94989014 C 237.04342651 336.63171387 237.16952515 330.77627563 240.00991821 328.22521973 C 245.62860107 333.71578979 249.27494812 337.83270264 251.76295471 332.09579468 C 255.52783203 323.76013184 256.96151733 325.05368042 260.88198853 333.63037109 C 269.21774292 330.88085938 276.33450317 333.53564453 284.34066772 334.81637573 C 285.41198730 345.75634766 280.72009277 357.69110107 272.11505127 365.88000488 C 276.68008423 367.28588867 282.77090454 358.95697021 285.36343384 348.05603027 C 287.78704834 343.47540283 292.90359497 343.39953613 296.38507080 342.45434570 C 295.41055298 346.83392334 290.44070435 351.78436279 299.10568237 366.14328003" stroke-width="2.00000000" fill="rgb(209, 115, 159)" opacity="1.0" stroke="rgb(3, 17, 57)" stroke-opacity="0.9901321" stroke-linecap="round" stroke-linejoin="round"/>
    <path d="M 271.70944214 128.54281616 C 273.17428589 140.02334595 274.45355225 151.13973999 275.44897461 161.60148621 C 276.00155640 171.29138184 276.02984619 180.02886963 275.48126221 187.56381226 C 274.20535278 193.66308594 272.02307129 198.13238525 268.95755005 200.82115173 C 264.92034912 201.59771729 260.09793091 200.88589478 254.75950623 200.58581543 C 249.31379700 200.56166077 243.99719238 201.21159363 239.37039185 203.17649841 C 235.02561951 204.18786621 232.06298828 205.27844238 230.52127075 204.59481812 C 230.45649719 200.83903503 231.58561707 194.70530701 233.51129150 186.60543823 C 235.86245728 177.10961914 238.46546936 166.65174866 241.14122009 155.75234985 C 243.64886475 145.07719421 245.76545715 135.13983154 247.46359253 126.76755524 C 248.57185364 121.09963226 245.82359314 117.43641663 241.32031250 112.97867584 C 238.17060852 106.66590118 235.40052795 101.17195129 231.72662354 98.08134460 C 226.74288940 99.01976013 219.92330933 100.01767731 211.98684692 102.39093018 C 203.16571045 104.97711182 193.62854004 108.17565155 183.72019958 113.45518494 C 172.50340271 118.65385437 160.78036499 126.65013885 148.52685547 137.69924927 C 133.69648743 151.68356323 118.53548431 170.00430298 107.33092499 197.06239319 C 94.41430664 229.65127563 92.75871277 265.10592651 101.84128571 301.67395020 C 112.53748322 328.19754028 114.06259918 333.62548828 93.16922760 328.77563477 C 82.73233795 305.59536743 76.97001648 275.64779663 78.74722290 243.93606567 C 81.42368317 212.99298096 90.92333221 186.28363037 104.51486969 163.76185608 C 116.68968964 144.63798523 129.68977356 130.47247314 142.86628723 119.99219513 C 154.36219788 110.56515503 165.53274536 103.59197998 176.39129639 98.05922699 C 186.33996582 93.15826416 196.12318420 89.46825409 205.28706360 86.70042419 C 214.19888306 84.36700439 222.31042480 81.84376526 229.82481384 81.55808258 C 236.83087158 79.75015259 243.37690735 77.19466400 249.48997498 74.85278320 C 254.89056396 73.10846710 259.80914307 72.21063232 263.99295044 71.51938629 C 267.50723267 71.66804504 270.67294312 72.37174225 272.29751587 72.96762085 C 272.56106567 74.60729218 271.60388184 77.59882355 269.71954346 81.57486725 C 267.08453369 86.14962769 263.80371094 91.34109497 260.15286255 97.36440277 C 256.82540894 104.29821014 254.48115540 112.17704773 253.41682434 120.97120667 C 253.74090576 130.41891479 251.77104187 139.77044678 271.70944214 128.54281616" stroke-width="2.00000000" fill="rgb(227, 111, 31)" opacity="1.0" stroke="rgb(7, 24, 55)" stroke-opacity="1.0" stroke-linecap="round" stroke-linejoin="round"/>
    <path d="M 280.59130859 97.47632599 C 276.55816650 102.15053558 273.36315918 106.68121338 271.27612305 110.83765411 C 269.61099243 114.18835449 267.80105591 116.95101166 265.83956909 119.71960449 C 264.73733521 123.41525269 264.75564575 127.77665710 264.99975586 132.09303284 C 264.54367065 135.39312744 263.09216309 136.39765930 261.39398193 135.33311462 C 258.67758179 133.04388428 257.68087769 128.75543213 257.50534058 124.32985687 C 257.55020142 122.43856049 259.68844604 122.34785461 263.10656738 121.74406433 C 265.90069580 120.52617645 267.11907959 118.68936157 265.96917725 118.01600647 C 261.37319946 118.51850128 254.87394714 118.56213379 248.76028442 118.62223053 C 245.17225647 116.34420776 242.85037231 112.31171417 240.67248535 107.45121002 C 237.62896729 102.49510956 233.78729248 97.90951538 230.73501587 93.00777435 C 229.46743774 86.96597290 231.82197571 80.79989624 235.90628052 75.01841736 C 242.18515015 71.36365509 249.61753845 71.35958862 256.85659790 73.92668915 C 263.22766113 73.05287170 268.90155029 73.17333221 274.38455200 74.07375336 C 277.93768311 75.80883789 279.76281738 78.75970459 281.36520386 81.74879456 C 285.87670898 81.13488770 291.87390137 82.85196686 299.66302490 84.86357880 C 308.03356934 87.12870789 316.21194458 89.84677887 324.06628418 92.94519043 C 331.01947021 95.83932495 336.64471436 98.23596954 339.87173462 100.48204041 C 339.87692261 103.63249969 338.59429932 106.93346405 336.49273682 109.85726166 C 333.58764648 111.66953278 329.72305298 112.09425354 324.78240967 111.46398926 C 319.26797485 109.29389191 314.10552979 105.14790344 280.59130859 97.47632599" stroke-width="2.00000000" fill="rgb(225, 119, 36)" opacity="1.0" stroke="rgb(7, 26, 57)" stroke-opacity="1.0" stroke-linecap="round" stroke-linejoin="round"/>
    <path d="M 373.07525635 160.14881897 C 362.04199219 170.59600830 351.25534058 180.79312134 340.83316040 190.31253052 C 330.90216064 199.00805664 321.85690308 206.84567261 313.92608643 213.50656128 C 307.32333374 218.58993530 302.11672974 220.42979431 297.52804565 217.46209717 C 292.29656982 211.63305664 285.23397827 206.71290588 277.27008057 203.16856384 C 270.06344604 200.49203491 263.36486816 199.42782593 258.29550171 199.46545410 C 256.32296753 199.17268372 257.67675781 198.31782532 260.54449463 196.39637756 C 261.28506470 192.11360168 261.45840454 186.49971008 262.10357666 179.71606445 C 262.36688232 172.21176147 263.05413818 164.52844238 263.63320923 156.97203064 C 264.48913574 149.57194519 264.78540039 142.64260864 264.38082886 136.37231445 C 265.29711914 130.76127625 265.72079468 125.82627869 266.56860352 122.29259491 C 269.10159302 120.29610443 271.25491333 118.02580261 272.82943726 115.05220795 C 274.53161621 111.65664673 275.92233276 108.61495209 277.72186279 106.51476288 C 280.54501343 106.17987061 284.37704468 107.26289368 289.17767334 108.22689056 C 294.42184448 109.44275665 300.12295532 111.32601166 305.90652466 113.01103973 C 311.75506592 114.80125427 317.19033813 117.25239563 322.39700317 119.47055054 C 327.05596924 121.96228027 331.23373413 124.47739410 334.78820801 126.43171692 C 337.23397827 128.53656006 338.73754883 130.63156128 339.69351196 132.53469849 C 340.22875977 134.29765320 340.55148315 135.85032654 341.02270508 136.96737671 C 341.77572632 137.54129028 342.83575439 137.61723328 344.38958740 137.16734314 C 346.91555786 135.94146729 350.46539307 133.88392639 373.07525635 160.14881897" stroke-width="1.23334336" fill="rgb(255, 192, 3)" opacity="1.0" stroke="rgb(233, 187, 50)" stroke-opacity="0.9862277" stroke-linecap="round" stroke-linejoin="round"/>
    <path d="M 251.70903015 199.68373108 C 248.63229370 200.07000732 245.34648132 200.31721497 241.86212158 200.84347534 C 238.21850586 201.90504456 234.55096436 203.70727539 230.57061768 205.46929932 C 226.40774536 207.24391174 222.61225891 209.76910400 219.21884155 212.46664429 C 216.29417419 215.50151062 213.61871338 218.51173401 211.02243042 220.67077637 C 207.25236511 220.75425720 202.74855042 219.38034058 197.60224915 216.84590149 C 192.02253723 213.07225037 186.21156311 208.44001770 180.06474304 203.04698181 C 173.75389099 197.17192078 167.27673340 191.40419006 160.96287537 185.67408752 C 155.04556274 180.03450012 149.86437988 174.52415466 145.69242859 169.09002686 C 142.95033264 163.80450439 142.11279297 158.92732239 143.42074585 154.57170105 C 146.97787476 150.64318848 151.50248718 146.16235352 156.61633301 141.34806824 C 162.13624573 136.54418945 168.51622009 132.37728882 174.96591187 128.21418762 C 180.66548157 123.65037537 187.25894165 120.50170135 193.59921265 117.44932556 C 200.06369019 114.96010590 206.00276184 112.91384125 211.85372925 111.33633423 C 217.05020142 109.72944641 221.68714905 108.07179260 225.85826111 107.31820679 C 229.28793335 106.55625916 232.32347107 106.12001801 234.46070862 106.40941620 C 236.09916687 108.56980896 237.67698669 111.82441711 239.69776917 114.89176941 C 241.43415833 118.17461395 243.34449768 120.87732697 245.87419128 122.13928223 C 246.76435852 123.37152100 246.46223450 125.31552124 246.51528931 127.89105988 C 246.46942139 130.90509033 246.63314819 134.21260071 247.15275574 137.70791626 C 247.44496155 141.45248413 247.19056702 145.43067932 251.70903015 199.68373108" stroke-width="1.15922332" fill="rgb(253, 193, 5)" opacity="1.0" stroke="rgb(239, 198, 53)" stroke-opacity="0.87811935" stroke-linecap="round" stroke-linejoin="round"/>
    <path d="M 203.67431641 115.85277557 C 203.52235413 114.98965454 203.39620972 114.38502502 203.53308105 114.07440186 C 204.21708679 113.82266998 205.10485840 113.69071198 206.02877808 113.23687744 C 207.18984985 112.46662140 208.46522522 111.98291016 209.87217712 111.74514771 C 211.54699707 111.31150055 213.25987244 110.69388580 214.71009827 110.11239624 C 216.24946594 109.77712250 217.30274963 109.52755737 218.16476440 109.83643341 C 218.76116943 111.25164032 219.39929199 113.49885559 219.97474670 116.40033722 C 220.83509827 119.72863770 221.90626526 123.32472992 222.77146912 127.44714355 C 223.89794922 131.93084717 224.84347534 136.55104065 226.24176025 141.30853271 C 227.34410095 146.25361633 228.66368103 151.36505127 229.78584290 156.33847046 C 231.00984192 161.23651123 232.21531677 166.24043274 233.36477661 170.84973145 C 234.50500488 175.46659851 235.49266052 179.60090637 236.42864990 183.43121338 C 237.34960938 187.02536011 238.12258911 190.05764771 238.77201843 192.59399414 C 239.31297302 194.64633179 239.54057312 196.12174988 239.39410400 197.07899475 C 238.29595947 197.47161865 237.00259399 197.87200928 235.99975586 198.00421143 C 235.36477661 197.41365051 234.81103516 196.23796082 234.01329041 194.30940247 C 233.07536316 191.95497131 232.06642151 189.19769287 230.95822144 186.16441345 C 229.45373535 182.86441040 228.03193665 179.28450012 226.76123047 175.38973999 C 225.25108337 171.46496582 223.69079590 167.39706421 222.16163635 163.21459961 C 220.45066833 159.01747131 218.80764771 154.69784546 217.09628296 150.45655823 C 215.53768921 146.07727051 213.71249390 141.73661804 203.67431641 115.85277557" stroke-width="1.37557745" fill="rgb(240, 55, 35)" opacity="1.0" stroke="rgb(195, 0, 19)" stroke-opacity="0.61716545" stroke-linecap="round" stroke-linejoin="round"/>
    <path d="M 285.56826782 177.60601807 C 284.38516235 180.55158997 283.32962036 183.46098328 282.24798584 186.33410645 C 281.08319092 189.09410095 280.09039307 191.63484192 279.20166016 194.06994629 C 278.64761353 196.06404114 278.01004028 197.71411133 277.14346313 199.05572510 C 276.25204468 199.55130005 275.10784912 199.05554199 273.85363770 198.32546997 C 272.66302490 198.05241394 271.68585205 197.87998962 271.23641968 197.16775513 C 271.54528809 195.56324768 272.04769897 193.06735229 272.88735962 189.88563538 C 273.91131592 186.09197998 274.98590088 181.88021851 276.05206299 177.22892761 C 277.06753540 172.16213989 278.52743530 167.06848145 279.84393311 161.81098938 C 281.12002563 156.37619019 282.59082031 150.99682617 283.81454468 145.72196960 C 285.02258301 140.37028503 286.26144409 135.33198547 287.49172974 130.62350464 C 288.59924316 126.06385803 289.52365112 121.83937073 290.36227417 117.98422241 C 291.24377441 114.66303253 292.06451416 112.12963867 292.54080200 110.18848419 C 292.95263672 108.83164215 293.61740112 108.39513397 294.42471313 108.67225647 C 295.36148071 109.22785950 296.86645508 109.62537384 298.90066528 110.00457764 C 301.16400146 110.50080872 303.33843994 111.31861115 305.52795410 112.01136017 C 307.42773438 112.65460968 308.88180542 113.43096161 309.72778320 114.55465698 C 309.49148560 116.22017670 308.60128784 118.44260406 307.26904297 121.25886536 C 305.93975830 124.70079803 304.42349243 128.73759460 302.74234009 133.01896667 C 300.97613525 137.46868896 299.24691772 142.19143677 297.34606934 147.00964355 C 295.38052368 151.72885132 293.54724121 156.55526733 285.56826782 177.60601807" stroke-width="0.88864893" fill="rgb(235, 55, 30)" opacity="1.0" stroke="rgb(182, 26, 81)" stroke-opacity="0.30333242" stroke-linecap="round" stroke-linejoin="round"/>
    <path d="M 132.94332886 168.71742249 C 133.24089050 168.33209229 133.55558777 167.68022156 134.04223633 166.95552063 C 134.56233215 166.12536621 135.20036316 165.30755615 135.94445801 164.31398010 C 136.68594360 163.23846436 137.68701172 161.96099854 138.57141113 160.54122925 C 139.47994995 159.11987305 140.68911743 157.99020386 141.92628479 157.17231750 C 142.28767395 156.07470703 142.45770264 156.14416504 143.20571899 157.29064941 C 144.80012512 158.66687012 146.93450928 160.42343140 149.45266724 162.69357300 C 152.29287720 165.01240540 155.17378235 167.77119446 158.54437256 170.64500427 C 161.82821655 173.66989136 165.03749084 176.96798706 168.78489685 179.86482239 C 172.42152405 183.08848572 175.94940186 186.44830322 179.59474182 189.67915344 C 183.23405457 192.82072449 186.89239502 195.75382996 190.06706238 198.91748047 C 193.09172058 201.91624451 196.31867981 204.50718689 199.10726929 207.10195923 C 201.57084656 209.54931641 204.07957458 211.47128296 206.05749512 213.28433228 C 207.71101379 214.81015015 208.86737061 215.82482910 209.38581848 216.68806458 C 208.60569763 217.79057312 207.50151062 218.97134399 206.60064697 219.70913696 C 205.49928284 219.45037842 204.01246643 218.51498413 202.09141541 217.25846863 C 199.77198792 215.76109314 197.27667236 213.73229980 194.48515320 211.68695068 C 191.41893005 209.33903503 188.15739441 207.06596375 184.66639709 204.83535767 C 181.15505981 202.36917114 177.56651306 199.76673889 173.91081238 197.28793335 C 170.31686401 194.64334106 166.63516235 192.12774658 162.81295776 189.55439758 C 159.21116638 186.71459961 155.49841309 183.78895569 132.94332886 168.71742249" stroke-width="1.27614093" fill="rgb(237, 55, 36)" opacity="1.0" stroke="rgb(206, 52, 10)" stroke-opacity="0.8172656" stroke-linecap="round" stroke-linejoin="round"/>
    <path d="M 164.34556580 242.21508789 C 157.67770386 241.15190125 151.11477661 240.15002441 144.71800232 239.13291931 C 138.37828064 238.10041809 132.25100708 237.14813232 126.52421570 236.25666809 C 121.39107513 235.30799866 116.72961426 234.56402588 112.77049255 233.69236755 C 109.74110413 233.37434387 107.74528503 233.68762207 106.57755280 233.73464966 C 106.19396973 231.52374268 106.63939667 227.86703491 107.92993164 223.35115051 C 109.29152679 217.80810547 110.33363342 211.89778137 113.27699280 206.16822815 C 115.68801880 199.99497986 117.83669281 193.82733154 120.48083496 188.28884888 C 122.94461060 183.18608093 125.42021942 178.90208435 127.65036011 175.40460205 C 129.42442322 172.77883911 130.37380981 170.79214478 131.46069336 170.51390076 C 133.29820251 171.91465759 136.28686523 174.41352844 140.46449280 177.61608887 C 145.37496948 181.14151001 151.11895752 184.80096436 157.22410583 188.74794006 C 163.36611938 192.92790222 169.42565918 197.19514465 175.31774902 201.38075256 C 180.91113281 205.28427124 186.27456665 208.87445068 191.13252258 212.24087524 C 195.46620178 215.34898376 199.36053467 218.03684998 202.50337219 220.28158569 C 204.99766541 222.28509521 207.17878723 222.86938477 208.72425842 223.00888062 C 208.79718018 223.86848450 207.98483276 225.25996399 206.73432922 227.12098694 C 205.45135498 229.37196350 204.23315430 231.95996094 202.96682739 234.75177002 C 201.87780762 237.67269897 200.90684509 240.60139465 200.24935913 243.41885376 C 199.72885132 245.81013489 199.67704773 247.60150146 199.75836182 248.43908691 C 199.97555542 248.10276794 200.20693970 247.19534302 164.34556580 242.21508789" stroke-width="1.22825027" fill="rgb(252, 193, 4)" opacity="1.0" stroke="rgb(255, 204, 39)" stroke-opacity="0.74146885" stroke-linecap="round" stroke-linejoin="round"/>
    <path d="M 163.69732666 136.34570312 C 164.82427979 135.03355408 166.12303162 133.98191833 167.49023438 133.05407715 C 169.02746582 132.07383728 170.64520264 131.23712158 172.00396729 130.14335632 C 173.28157043 129.16397095 174.48062134 128.52249146 175.64187622 128.02720642 C 176.29002380 127.52463531 176.76124573 127.47445679 177.14421082 127.98927307 C 177.34555054 129.06974792 178.11303711 130.55513000 179.16462708 132.23922729 C 180.77951050 134.12127686 182.19705200 136.58071899 183.88902283 139.44090271 C 185.84323120 142.54844666 188.05651855 145.97039795 190.01701355 149.84323120 C 192.34548950 153.83476257 194.86514282 157.78123474 197.50971985 161.81405640 C 199.83567810 166.02314758 202.31590271 170.15748596 204.93208313 174.26756287 C 207.30363464 178.28677368 209.47869873 182.16337585 211.86285400 185.82164001 C 213.94155884 189.36798096 215.88307190 192.53048706 217.65446472 195.45133972 C 219.32926941 198.14253235 220.68370056 200.27757263 221.81045532 202.03521729 C 222.66583252 203.37922668 223.04431152 204.09568787 222.56611633 204.59591675 C 221.59649658 205.37417603 220.51060486 206.19635010 219.45445251 206.77336121 C 218.50714111 206.24873352 217.55949402 204.90400696 216.21385193 203.01048279 C 214.50289917 200.82536316 212.40122986 198.32247925 210.28842163 195.45384216 C 207.95675659 192.32414246 205.25657654 189.07922363 202.55125427 185.65434265 C 199.76257324 181.91943359 196.71485901 178.17320251 193.70458984 174.32078552 C 190.70034790 170.38369751 187.42454529 166.59477234 184.42857361 162.62364197 C 181.34669495 158.73356628 178.05256653 154.97479248 163.69732666 136.34570312" stroke-width="1.35474014" fill="rgb(240, 56, 35)" opacity="1.0" stroke="rgb(192, 0, 19)" stroke-opacity="0.5971345" stroke-linecap="round" stroke-linejoin="round"/>
    <path d="M 350.35055542 135.72167969 C 343.47384644 144.79473877 336.40856934 153.49023438 329.75048828 162.03271484 C 323.36621094 170.05287170 317.46353149 177.58909607 311.92172241 184.39395142 C 306.96981812 190.43083191 302.84304810 195.84873962 299.40936279 200.55755615 C 296.44281006 204.16911316 294.39260864 206.97412109 292.58883667 208.31239319 C 290.36184692 207.38973999 288.29437256 205.84037781 288.14767456 203.45520020 C 290.82223511 199.15542603 294.64614868 192.78507996 299.31933594 184.96711731 C 304.45529175 176.31692505 310.02352905 167.13203430 315.56369019 157.94389343 C 320.90847778 149.19638062 325.77560425 141.39668274 329.74554443 134.50759888 C 332.40356445 129.09317017 334.42208862 126.27537537 337.04476929 126.46055603 C 340.70272827 128.74993896 345.19515991 132.44564819 350.30987549 135.65632629 C 356.79107666 135.27687073 361.96438599 137.78437805 364.51867676 139.22575378 C 361.98150635 135.72021484 355.01089478 130.09349060 346.11614990 123.89764404 C 338.12142944 118.16009521 330.36856079 117.50695801 325.71368408 114.73623657 C 330.83276367 111.38169861 337.18426514 106.38043213 340.59182739 100.64018250 C 342.54504395 100.65084839 341.13519287 104.52735901 340.48306274 110.35551453 C 346.79501343 115.59697723 356.71737671 122.01393890 367.78659058 130.86563110 C 379.18222046 141.98275757 388.63235474 155.57270813 395.62609863 170.99739075 C 402.15081787 184.69154358 405.46572876 193.77095032 401.21862793 194.34056091 C 395.52990723 183.78144836 391.80422974 169.23106384 382.35388184 157.98571777 C 372.31170654 147.04333496 365.15954590 134.56028748 350.35055542 135.72167969" stroke-width="2.00000000" fill="rgb(211, 67, 29)" opacity="1.0" stroke="rgb(0, 0, 255)" stroke-opacity="0.05779145" stroke-linecap="round" stroke-linejoin="round"/>
    <path d="M 112.86656189 208.04112244 C 113.64120483 205.63406372 114.19876099 203.21711731 114.84609222 201.18057251 C 115.64595032 199.53500366 116.43440247 198.21221924 116.85716248 196.83474731 C 117.56722260 195.71775818 117.93904877 194.56271362 118.44659424 194.04759216 C 119.05658722 193.84703064 119.92362976 194.13591003 121.12358856 194.81211853 C 122.57461548 195.69326782 124.30698395 196.60202026 126.60150146 197.57446289 C 129.29624939 198.70069885 132.21226501 200.15707397 135.37953186 201.76379395 C 139.02168274 203.45114136 142.76664734 205.17942810 146.96093750 206.98988342 C 151.13183594 209.06239319 155.46180725 211.11642456 159.92803955 213.27102661 C 164.43284607 215.22517395 168.94941711 217.16532898 173.08378601 219.39527893 C 177.12213135 221.61581421 181.13337708 223.27194214 184.82461548 225.05932617 C 188.35000610 226.58538818 191.55487061 227.91044617 194.31314087 229.27784729 C 196.50294495 230.53526306 198.27330017 231.11085510 199.33471680 231.73713684 C 199.19456482 233.05776978 198.57310486 234.68992615 198.09153748 236.05650330 C 197.39915466 236.08312988 196.33427429 235.37547302 194.65335083 234.80152893 C 192.42404175 234.14265442 189.87869263 233.37678528 187.06542969 232.65962219 C 184.28024292 231.53350830 181.17312622 230.37544250 177.77850342 229.24729919 C 174.26692200 228.30603027 170.67150879 227.15206909 166.86697388 225.80166626 C 163.07382202 224.42269897 159.11207581 223.01470947 154.96380615 221.87561035 C 150.81669617 220.34817505 146.55479431 219.10162354 142.25895691 217.60598755 C 137.96365356 216.19256592 133.62620544 214.80924988 112.86656189 208.04112244" stroke-width="1.37460840" fill="rgb(239, 55, 36)" opacity="1.0" stroke="rgb(195, 0, 25)" stroke-opacity="0.606018" stroke-linecap="round" stroke-linejoin="round"/>
    <path d="M 312.01925659 231.74043274 C 319.82461548 227.95275879 327.61663818 224.36221313 335.29541016 220.81283569 C 342.83786011 217.29411316 350.07901001 213.85063171 356.91583252 210.59822083 C 363.53607178 207.51284790 369.82803345 204.64120483 375.32241821 201.99632263 C 380.14895630 199.72840881 384.44433594 197.76214600 388.20483398 195.96777344 C 391.09051514 194.62789917 393.11169434 193.66780090 394.28396606 194.03779602 C 395.35296631 195.99687195 396.25192261 198.34017944 396.63055420 200.16625977 C 396.79531860 200.81484985 396.94543457 200.30819702 397.21374512 198.48925781 C 398.60797119 195.73429871 401.05468750 193.80375671 403.80538940 194.43023682 C 405.93978882 198.53227234 407.90188599 204.22644043 409.39422607 209.41128540 C 409.99398804 212.12911987 408.91702271 211.47979736 407.41052246 208.15522766 C 405.58340454 203.36033630 404.17437744 197.74612427 401.42471313 194.57022095 C 396.72476196 196.08370972 395.87304688 200.57722473 399.32849121 206.10359192 C 398.19332886 209.46153259 392.26480103 210.93711853 384.61541748 212.99966431 C 376.86077881 215.71258545 369.55963135 218.04873657 362.63061523 220.30772400 C 356.55191040 222.25257874 351.19638062 223.91349792 346.41247559 225.65821838 C 342.04129028 227.26335144 338.07550049 228.60601807 334.26333618 229.61186218 C 331.00970459 230.61634827 327.97174072 231.81687927 325.05703735 232.52079773 C 322.59353638 233.43914795 320.41619873 234.39022827 318.47882080 235.23838806 C 316.85394287 235.58032227 315.47409058 235.86109924 314.47857666 236.25251770 C 313.94296265 236.76161194 313.62524414 237.16981506 312.01925659 231.74043274" stroke-width="0.72365880" fill="rgb(232, 55, 32)" opacity="1.0" stroke="rgb(96, 8, 47)" stroke-opacity="0.5296749" stroke-linecap="round" stroke-linejoin="round"/>
    <path d="M 369.89035034 155.26402283 C 371.91134644 157.86871338 373.69598389 160.12594604 375.37139893 160.96716309 C 377.01336670 159.36061096 379.35598755 157.36094666 381.93591309 156.60377502 C 383.78729248 158.86599731 385.60003662 161.69662476 387.83975220 164.74685669 C 389.25421143 167.11845398 390.48510742 169.13677979 391.65820312 169.59655762 C 391.07226562 169.47445679 389.49710083 167.79011536 388.22650146 165.41720581 C 385.93646240 162.15228271 383.78399658 158.81478882 381.78106689 156.50831604 C 379.11895752 157.71940613 376.31561279 159.42124939 375.36135864 161.59979248 C 378.41195679 165.66561890 382.08038330 169.65661621 382.58071899 173.43818665 C 378.45822144 172.48585510 373.57614136 172.22442627 368.19647217 176.78492737 C 360.92263794 182.10488892 353.14898682 187.26631165 345.98223877 192.30909729 C 339.40115356 196.91146851 333.39224243 201.03256226 327.81729126 204.90730286 C 322.49142456 208.65159607 317.73529053 212.07791138 313.52947998 215.12561035 C 309.96444702 217.52139282 307.19598389 219.56594849 305.38815308 220.45986938 C 304.00564575 219.49969482 302.91183472 217.75334167 301.80029297 216.24424744 C 302.19573975 215.26687622 303.73208618 214.23594666 305.53753662 212.50762939 C 307.82348633 210.48945618 310.64889526 208.20892334 313.57110596 205.49661255 C 316.66934204 202.40548706 320.41921997 199.47370911 324.19784546 196.05044556 C 328.13098145 192.35717773 332.32522583 188.53303528 336.71792603 184.76583862 C 341.14373779 180.90180969 345.39483643 176.79991150 349.87982178 172.87364197 C 354.45550537 169.00773621 358.91397095 164.91656494 369.89035034 155.26402283" stroke-width="0.53115189" fill="rgb(236, 58, 32)" opacity="1.0" stroke="rgb(42, 0, 16)" stroke-opacity="0.32285917" stroke-linecap="round" stroke-linejoin="round"/>
    <path d="M 223.67437744 358.44653320 C 227.84356689 363.59756470 232.65704346 366.53268433 235.89585876 366.20758057 C 236.99156189 362.53091431 239.44007874 363.70550537 245.03929138 366.85855103 C 247.89997864 369.22476196 247.02525330 370.85131836 243.16764832 371.04455566 C 237.40237427 370.85180664 231.45611572 369.20852661 227.31390381 365.90075684 C 224.54212952 362.56442261 221.16802979 362.26873779 216.67549133 364.08514404 C 212.20156860 367.23635864 207.79957581 371.15576172 203.23341370 375.03823853 C 198.40684509 378.46765137 193.63668823 381.14807129 189.15542603 382.60501099 C 184.76152039 383.49221802 180.68016052 383.31094360 176.44030762 381.92147827 C 172.89270020 379.90032959 169.02583313 378.31176758 164.93290710 377.17538452 C 160.78862000 376.17453003 156.88500977 374.81054688 153.53642273 372.70651245 C 151.06234741 369.59722900 147.97439575 366.90267944 145.00065613 364.10925293 C 142.41081238 361.16577148 140.25126648 358.42230225 138.20736694 356.48333740 C 137.78378296 354.25265503 138.14422607 352.16485596 139.24124146 350.20071411 C 140.99893188 348.43029785 143.31036377 347.00347900 146.12771606 345.97302246 C 149.34292603 345.28009033 152.77493286 344.95266724 156.13291931 345.22991943 C 159.06797791 346.17254639 162.28259277 345.73104858 165.89910889 344.80877686 C 169.69624329 343.40820312 173.69786072 342.01248169 178.12663269 340.60357666 C 182.60888672 339.65527344 186.95057678 339.30984497 191.27409363 339.72048950 C 195.53471375 341.25088501 199.76272583 343.27593994 204.02394104 345.31970215 C 207.52038574 348.37915039 210.91363525 351.76443481 223.67437744 358.44653320" stroke-width="1.69732547" fill="rgb(69, 113, 73)" opacity="1.0" stroke="rgb(255, 244, 255)" stroke-opacity="0.13369678" stroke-linecap="round" stroke-linejoin="round"/>
    <path d="M 357.77871704 372.34887695 C 356.85809326 374.82980347 355.90719604 377.26794434 354.79473877 379.12966919 C 353.26815796 380.44967651 351.65292358 381.49615479 349.93572998 382.38366699 C 348.00558472 382.84722900 345.96188354 382.84613037 343.62719727 382.53817749 C 340.91806030 382.54177856 338.39218140 382.59906006 335.81011963 382.23022461 C 333.12207031 382.75952148 330.04696655 382.90225220 327.18829346 383.17224121 C 324.36215210 382.53161621 321.31539917 381.83139038 318.36706543 380.95352173 C 315.47671509 379.82693481 312.82028198 378.51193237 310.38729858 377.10989380 C 308.39837646 375.35067749 306.55017090 373.32763672 304.78128052 371.18719482 C 303.17147827 369.12545776 301.80136108 367.17724609 301.04357910 365.21926880 C 301.01278687 363.00869751 301.37927246 360.73666382 302.30911255 358.75302124 C 303.69174194 357.01556396 305.59899902 355.62173462 307.75021362 354.48632812 C 310.01089478 353.32287598 312.45391846 352.16540527 315.07785034 350.96606445 C 317.87014771 349.85757446 320.79574585 348.90945435 323.82882690 348.22808838 C 326.85195923 347.83615112 329.77676392 347.74407959 332.72634888 347.87963867 C 335.73254395 348.11334229 338.65347290 348.46871948 341.36160278 349.01309204 C 343.92370605 349.86080933 346.36276245 350.97583008 348.66934204 352.25674438 C 350.85726929 353.64889526 352.99136353 355.11129761 354.96685791 356.65411377 C 356.89279175 358.13296509 358.84927368 359.61856079 360.70040894 361.19784546 C 362.39352417 362.88732910 363.98211670 364.64459229 365.57492065 366.42684937 C 367.25976562 368.12832642 368.89535522 369.92065430 357.77871704 372.34887695" stroke-width="2.00000000" fill="rgb(93, 143, 72)" opacity="1.0" stroke="rgb(242, 246, 255)" stroke-opacity="0.6035383" stroke-linecap="round" stroke-linejoin="round"/>
    <path d="M 319.95922852 255.15879822 C 329.71578979 255.20368958 339.61944580 255.09757996 349.54040527 255.27603149 C 359.12643433 255.11920166 368.64212036 255.14564514 378.19839478 255.33045959 C 387.30004883 255.22973633 395.54928589 255.18487549 402.42315674 255.22889709 C 407.07931519 255.33413696 408.90090942 255.49095154 408.95025635 251.47090149 C 408.06182861 244.26548767 406.56439209 235.54367065 409.00924683 227.96934509 C 412.53234863 225.10809326 414.90310669 226.02647400 415.32110596 230.96699524 C 416.71441650 236.82760620 416.53256226 242.46865845 417.22521973 247.29696655 C 417.23455811 251.21058655 416.97607422 254.56985474 416.09841919 257.27185059 C 414.39749146 258.71298218 413.58102417 258.57339478 413.97738647 255.47207642 C 414.03784180 249.92388916 413.69934082 243.19831848 412.40957642 236.29161072 C 411.85104370 229.28137207 411.24295044 225.71707153 409.04702759 227.83369446 C 406.68719482 233.96945190 407.77169800 242.06253052 408.90963745 250.12614441 C 408.39492798 257.10797119 409.07110596 262.42092896 408.56665039 265.29867554 C 406.36053467 264.47177124 403.21939087 263.13824463 399.00231934 263.32180786 C 394.80618286 263.97595215 390.50765991 266.01638794 385.55407715 267.70477295 C 380.34097290 268.55404663 375.01528931 267.39459229 369.73486328 264.84368896 C 364.91125488 262.67617798 359.42825317 262.65316772 354.67730713 264.18917847 C 350.49645996 267.07647705 345.61151123 267.70489502 340.35000610 267.94281006 C 335.96408081 267.28082275 332.08493042 265.70861816 328.07391357 263.97845459 C 324.20495605 262.01226807 320.28369141 260.19259644 319.95922852 255.15879822" stroke-width="1.10583329" fill="rgb(8, 36, 73)" opacity="1.0" stroke="rgb(249, 240, 184)" stroke-opacity="0.48859662" stroke-linecap="round" stroke-linejoin="round"/>
    <path d="M 212.09077454 249.33580017 C 207.85340881 253.50289917 206.00582886 257.53311157 206.83528137 260.61239624 C 209.90901184 260.90145874 212.78486633 258.42776489 216.07405090 255.01907349 C 218.94656372 253.35322571 218.98112488 254.83975220 216.69825745 259.15362549 C 212.75152588 262.75827026 208.37078857 265.77468872 206.35043335 269.92135620 C 203.41439819 270.89105225 199.35223389 268.64624023 195.47500610 265.86172485 C 191.04730225 263.66595459 186.42161560 263.18606567 181.44244385 264.07400513 C 176.98574829 265.63940430 172.81806946 267.47167969 168.67301941 268.04269409 C 164.51869202 268.25628662 160.98202515 267.56811523 157.54450989 265.82897949 C 153.64422607 264.43005371 150.16627502 262.87878418 146.35771179 263.08361816 C 141.96037292 263.50250244 137.76296997 265.01727295 133.59205627 267.07223511 C 129.38465881 268.31716919 125.24169159 268.09835815 120.71530151 267.01385498 C 116.80214691 265.14102173 112.86935425 263.72540283 109.55352783 263.40805054 C 107.11064148 262.79421997 105.33493805 263.29125977 104.07519531 263.95608521 C 103.34810638 263.40789795 103.50663757 261.87396240 103.33316040 259.71240234 C 103.30455780 257.44921875 103.14309692 255.63389587 103.43361664 254.96788025 C 105.46833038 255.16059875 108.94848633 255.15957642 114.12794495 255.33166504 C 120.51581573 255.14544678 127.69383240 255.14578247 135.63171387 255.25636292 C 144.11204529 255.40931702 153.04872131 255.18400574 162.29045105 255.37393188 C 171.69108582 254.86399841 180.76356506 255.58404541 188.89427185 255.16954041 C 196.25454712 255.42146301 202.30580139 256.07498169 212.09077454 249.33580017" stroke-width="1.63332641" fill="rgb(10, 37, 76)" opacity="1.0" stroke="rgb(180, 255, 158)" stroke-opacity="0.20837192" stroke-linecap="round" stroke-linejoin="round"/>
    <path d="M 341.75942993 316.57589722 C 338.32086182 318.96948242 335.20343018 321.03598022 333.34463501 323.57861328 C 332.46127319 326.80578613 331.99850464 330.23352051 331.59158325 333.30569458 C 330.80001831 335.84201050 329.13546753 337.21264648 326.48910522 338.03210449 C 324.25735474 339.95117188 321.48669434 341.45214844 318.14923096 342.90185547 C 315.49291992 346.42941284 312.33218384 350.46710205 308.96441650 354.85070801 C 304.99710083 358.67471313 301.32897949 362.54040527 297.97348022 364.71359253 C 294.95394897 363.95288086 291.85241699 363.00158691 288.89013672 362.44982910 C 286.51977539 364.03607178 283.25451660 366.57803345 280.01062012 369.96423340 C 274.18368530 370.10122681 268.79373169 371.47607422 265.26663208 370.82730103 C 265.33599854 366.84619141 269.39587402 364.91775513 275.62582397 366.89132690 C 282.46679688 365.58435059 287.91558838 360.56314087 291.70504761 354.18359375 C 292.98992920 349.73840332 293.94244385 349.51074219 296.01577759 351.87854004 C 298.91729736 351.18029785 302.90744019 348.82000732 307.88278198 345.96887207 C 313.20089722 342.38595581 317.60989380 337.18637085 321.62634277 330.90206909 C 325.11752319 324.66433716 328.55697632 320.08724976 330.76461792 317.74517822 C 329.81948853 317.92398071 326.95895386 319.75540161 323.82162476 320.91171265 C 322.44354248 320.73834229 323.21307373 319.29873657 325.79187012 317.68963623 C 328.75668335 315.04739380 330.71911621 311.39529419 331.97814941 307.89126587 C 335.01892090 306.47933960 339.46978760 306.80685425 344.80490112 308.33279419 C 350.78668213 310.71786499 357.12246704 313.34725952 341.75942993 316.57589722" stroke-width="1.92801988" fill="rgb(14, 35, 76)" opacity="1.0" stroke="rgb(165, 255, 255)" stroke-opacity="0.08235832" stroke-linecap="round" stroke-linejoin="round"/>
    <path d="M 205.34613037 301.08230591 C 203.07986450 305.17645264 201.06152344 309.01971436 199.26057434 312.57678223 C 197.65144348 315.23211670 196.96081543 317.07284546 196.87878418 318.14022827 C 197.05659485 316.94284058 195.92568970 315.81851196 192.64015198 314.58505249 C 189.24768066 312.66424561 185.12188721 311.22763062 180.44766235 310.57852173 C 176.24008179 310.49172974 172.28089905 312.08950806 168.03775024 313.67581177 C 164.32075500 315.76666260 160.64410400 317.42221069 156.73721313 317.98516846 C 152.66474915 317.87979126 148.99440002 317.47119141 145.76454163 315.62075806 C 142.56893921 313.18218994 138.75473022 311.74148560 134.39068604 311.06961060 C 129.91218567 310.89041138 126.00213623 311.63934326 122.48246765 312.99508667 C 119.51544952 314.31741333 117.89391327 315.70248413 116.87992859 315.97073364 C 116.45192719 314.38122559 115.39147949 311.93130493 114.12873077 309.09234619 C 113.53783417 306.30581665 112.78010559 304.07833862 112.13336182 302.99258423 C 112.74658966 302.61788940 114.27973938 302.51571655 116.60620880 302.35873413 C 119.08009338 300.69128418 122.64062500 299.77880859 126.26746368 298.31234741 C 129.99209595 297.17520142 133.49243164 296.90255737 137.20343018 297.55493164 C 140.61694336 298.88555908 144.18591309 300.45101929 147.77357483 302.22305298 C 151.91339111 303.60882568 155.79385376 304.56915283 160.80599976 304.04721069 C 165.31065369 303.20059204 169.65458679 301.37103271 173.91790771 299.10870361 C 177.97322083 297.10266113 182.27996826 296.71923828 187.07682800 297.69927979 C 192.37776184 298.65744019 197.12190247 301.27218628 205.34613037 301.08230591" stroke-width="1.94505095" fill="rgb(4, 36, 83)" opacity="1.0" stroke="rgb(4, 30, 66)" stroke-opacity="0.98042166" stroke-linecap="round" stroke-linejoin="round"/>
    <path d="M 196.41793823 337.82492065 C 193.85240173 335.43313599 190.75140381 334.24835205 187.71907043 333.23187256 C 184.95495605 332.67279053 182.77792358 333.14208984 180.01547241 332.85037231 C 176.62609863 333.90136719 172.78097534 335.29421997 169.35328674 337.45083618 C 165.88964844 339.22058105 162.49261475 340.17736816 159.14157104 339.89230347 C 155.74723816 339.37765503 152.63456726 337.67260742 149.30636597 336.00280762 C 146.05723572 334.01199341 142.43333435 332.83966064 138.91166687 332.48977661 C 135.96855164 332.27319336 133.48330688 333.33389282 130.77833557 333.76647949 C 129.25448608 334.85534668 127.96959686 335.61468506 126.75924683 335.67596436 C 125.61909485 334.22583008 124.07952118 331.92910767 122.90773773 328.86029053 C 121.43455505 326.13766479 120.20261383 323.56909180 119.63632202 322.01663208 C 121.05007172 320.78753662 123.95225525 319.72933960 127.32057953 319.15103149 C 130.76251221 318.09115601 133.61187744 318.19165039 137.27511597 319.49697876 C 140.89901733 321.00094604 144.31060791 323.25180054 147.98648071 324.84222412 C 152.21818542 325.77105713 156.62879944 325.86660767 160.70756531 325.33663940 C 164.04257202 324.36392212 167.15542603 322.85095215 170.13664246 321.29125977 C 172.97004700 319.36157227 176.14111328 318.29980469 179.40676880 318.00204468 C 182.55715942 318.08724976 185.37074280 318.62527466 188.01989746 319.38900757 C 190.23191833 320.28793335 192.56881714 321.02001953 194.44609070 321.64886475 C 195.71530151 320.66101074 196.46199036 319.79949951 196.61708069 319.91973877 C 196.06748962 321.49102783 194.73030090 323.42889404 196.41793823 337.82492065" stroke-width="1.85244215" fill="rgb(6, 38, 86)" opacity="1.0" stroke="rgb(3, 29, 64)" stroke-opacity="0.974437" stroke-linecap="round" stroke-linejoin="round"/>
    <path d="M 397.86657715 315.19699097 C 394.27648926 313.72470093 390.86126709 312.52078247 387.27111816 313.02600098 C 383.44042969 313.53948975 379.93621826 316.06210327 375.65457153 317.89346313 C 371.57659912 319.90103149 367.57125854 320.55569458 363.16580200 319.55065918 C 358.37322998 317.96566772 353.31072998 315.62826538 347.25567627 314.67871094 C 341.26571655 311.67797852 336.04519653 308.50003052 331.45407104 306.99423218 C 327.88461304 309.45993042 322.68862915 310.97134399 315.71301270 313.57925415 C 308.33132935 328.11630249 301.86633301 329.81732178 306.84579468 318.97198486 C 299.77597046 319.33340454 289.70883179 320.79959106 286.87567139 318.62167358 C 297.62911987 317.33734131 310.07669067 314.17572021 317.60351562 304.92218018 C 321.33187866 300.42428589 318.45559692 302.04000854 310.98532104 305.20480347 C 301.79235840 307.32211304 294.88452148 307.16564941 294.13809204 306.06533813 C 300.86483765 305.15478516 309.38864136 302.65496826 316.43319702 298.20498657 C 322.17562866 298.74392700 327.01260376 300.57608032 332.35229492 299.76873779 C 338.97134399 297.57080078 345.53060913 294.45077515 352.65472412 295.48498535 C 358.73577881 297.55169678 363.29354858 300.97644043 368.14630127 301.73068237 C 372.96603394 302.91445923 377.11132812 302.32366943 381.57601929 300.56201172 C 385.13726807 298.76116943 388.04086304 296.91397095 390.73193359 295.91564941 C 393.00918579 295.62310791 394.76538086 295.07809448 396.61849976 295.15966797 C 398.81600952 295.57589722 400.96411133 295.83361816 402.81680298 296.43005371 C 403.82327271 295.51910400 404.80975342 294.67541504 397.86657715 315.19699097" stroke-width="2.00000000" fill="rgb(10, 38, 81)" opacity="1.0" stroke="rgb(117, 255, 255)" stroke-opacity="0.013017173" stroke-linecap="round" stroke-linejoin="round"/>
    <path d="M 197.69522095 332.71881104 C 199.30764771 338.90451050 202.12945557 344.22555542 206.45306396 348.22241211 C 211.09602356 351.81863403 215.87185669 353.68789673 220.22767639 353.88180542 C 222.24914551 355.82070923 223.16372681 357.64413452 222.29180908 358.94830322 C 218.33273315 358.55667114 213.38165283 358.33163452 208.04615784 357.82928467 C 203.17225647 355.05673218 197.96676636 353.04116821 191.86134338 352.63021851 C 185.28256226 351.70257568 178.62927246 351.75610352 172.24856567 352.86999512 C 166.30335999 353.86026001 161.36361694 355.56314087 157.58116150 358.30535889 C 154.88243103 360.74581909 154.23533630 363.10418701 155.48004150 365.53277588 C 156.13429260 367.98205566 155.40515137 370.17248535 153.82756042 371.32717896 C 151.52992249 371.04428101 149.42523193 369.02453613 147.25648499 365.70214844 C 143.99348450 362.43542480 140.67784119 358.84735107 137.52603149 354.92269897 C 134.47512817 351.27923584 132.03117371 347.66635132 130.07711792 344.69036865 C 128.48222351 342.56823730 127.48419952 341.34869385 127.74034119 340.71508789 C 129.57539368 339.92678833 132.40748596 339.19525146 135.61848450 338.07186890 C 138.89961243 337.81130981 142.36257935 338.90518188 146.13000488 340.50451660 C 149.49160767 342.86184692 153.34974670 344.67822266 157.46499634 345.77163696 C 161.56396484 346.12194824 165.55734253 345.44952393 169.48913574 344.04022217 C 172.84950256 341.80145264 176.03192139 339.39334106 180.07667542 338.47946167 C 184.81312561 337.99191284 188.92369080 338.36380005 192.31367493 340.02914429 C 195.07611084 341.52920532 196.37210083 343.65887451 197.69522095 332.71881104" stroke-width="2.00000000" fill="rgb(5, 37, 80)" opacity="1.0" stroke="rgb(255, 255, 255)" stroke-opacity="0.05383329" stroke-linecap="round" stroke-linejoin="round"/>
    <path d="M 193.50202942 292.28390503 C 189.50100708 291.24322510 186.21891785 289.96514893 182.80541992 289.98751831 C 178.70304871 290.14666748 174.84201050 290.59927368 171.48262024 292.08007812 C 168.01661682 293.98504639 164.42729187 295.36791992 160.92187500 296.45828247 C 157.62738037 296.89324951 154.28269958 296.32922363 150.88272095 295.38262939 C 147.45774841 293.80679321 144.22172546 291.84423828 140.72370911 290.51443481 C 137.14111328 289.42434692 133.25309753 289.51354980 129.15324402 289.64428711 C 125.05012512 290.89938354 121.19914246 292.27157593 117.82324982 294.26782227 C 114.81266022 295.69848633 112.25580597 296.54092407 110.51568604 296.17639160 C 109.79722595 294.65197754 109.30878448 292.07769775 108.65531921 289.01678467 C 108.31923676 286.03732300 107.79303741 283.45828247 107.29586029 281.91744995 C 108.86823273 281.77124023 111.68364716 282.42669678 114.96526337 283.79879761 C 117.89170074 285.72543335 121.86087036 286.48486328 126.11447144 287.31457520 C 130.59692383 286.64739990 135.02371216 285.76934814 138.97239685 283.57235718 C 143.10295105 281.62936401 147.39712524 281.51751709 151.78108215 282.89068604 C 156.10725403 284.81164551 160.21403503 286.58273315 164.86576843 286.88491821 C 169.48715210 286.61077881 173.81329346 285.61181641 177.59494019 283.33627319 C 181.90180969 281.77951050 186.33142090 281.61224365 190.46955872 281.59713745 C 194.27220154 281.26730347 197.42526245 280.98397827 199.78533936 281.38095093 C 201.49623108 283.28182983 202.64424133 286.32940674 203.39149475 290.29516602 C 204.41764832 294.63555908 205.57257080 298.97042847 193.50202942 292.28390503" stroke-width="1.96225941" fill="rgb(4, 36, 84)" opacity="1.0" stroke="rgb(6, 33, 69)" stroke-opacity="0.9764334" stroke-linecap="round" stroke-linejoin="round"/>
    <path d="M 141.56306458 268.43322754 C 146.26850891 267.11535645 150.29043579 267.61798096 154.70259094 269.32791138 C 158.89030457 271.23492432 162.62730408 272.76800537 166.54458618 272.39340210 C 170.39138794 272.52755737 173.80067444 270.96038818 177.84312439 269.62213135 C 181.14802551 267.90219116 184.18174744 266.92282104 187.70578003 267.00109863 C 191.32821655 268.18719482 195.05416870 268.52047729 198.49232483 268.86441040 C 200.97276306 269.60552979 202.83471680 270.42892456 203.95861816 271.63623047 C 203.72111511 273.01562500 201.56698608 274.83563232 199.93281555 277.39868164 C 196.94949341 277.84957886 192.96458435 277.34503174 188.85081482 276.74804688 C 185.39852905 275.65945435 182.06234741 275.64572144 178.28709412 276.95016479 C 174.02040100 278.59539795 169.51594543 280.20043945 165.09609985 280.43661499 C 160.66850281 279.66354370 156.25148010 277.30343628 151.39263916 275.63491821 C 146.69143677 274.51852417 142.51713562 274.67593384 138.25051880 276.12338257 C 134.60818481 278.30239868 131.01354980 279.60403442 126.81390381 280.05615234 C 122.72499084 279.97833252 119.08808899 278.83422852 115.64048004 276.75195312 C 111.89761353 275.25180054 108.63391876 274.67587280 106.25242615 274.99185181 C 106.01826477 274.29116821 105.99498749 272.89929199 106.32382965 271.40011597 C 106.07749176 270.43560791 105.62964630 268.97476196 105.67446136 267.70663452 C 106.87663269 267.26986694 108.97585297 267.38098145 111.52464294 268.10446167 C 114.69062042 268.88989258 118.02394104 270.33926392 121.83777618 271.92254639 C 126.27777863 272.57852173 131.56535339 273.60458374 141.56306458 268.43322754" stroke-width="1.94749689" fill="rgb(4, 37, 85)" opacity="1.0" stroke="rgb(14, 37, 71)" stroke-opacity="1.0" stroke-linecap="round" stroke-linejoin="round"/>
    <path d="M 402.74304199 292.67153931 C 398.42858887 291.41162109 394.23348999 291.29684448 389.96649170 292.22525024 C 385.97082520 293.92257690 382.10324097 296.20367432 378.17916870 297.83145142 C 374.40615845 298.95562744 370.31176758 298.69387817 366.04376221 297.44079590 C 361.44891357 295.53131104 356.95617676 293.11755371 352.21459961 291.86877441 C 346.84994507 291.53521729 341.90951538 292.73284912 336.92306519 295.67495728 C 331.44555664 298.61743164 324.70959473 299.64978027 318.74526978 300.01080322 C 315.70608521 299.08007812 317.06671143 297.47311401 320.46575928 294.70693970 C 322.86181641 291.02337646 324.28958130 287.60977173 324.22125244 286.33602905 C 321.71655273 288.73226929 317.23425293 291.22262573 311.23019409 292.74435425 C 305.74121094 294.44644165 302.11215210 294.79635620 302.05822754 294.42202759 C 306.27322388 292.83773804 311.93182373 290.14941406 317.53723145 286.18463135 C 321.54293823 281.86056519 324.71765137 279.11453247 328.22436523 279.49719238 C 332.46774292 281.97705078 337.01162720 284.27966309 342.42236328 284.47247314 C 347.97256470 283.81213379 353.15386963 281.51992798 358.61682129 280.12228394 C 364.57653809 279.74926758 369.61431885 282.21664429 374.94589233 284.34445190 C 379.26123047 286.06536865 383.08993530 285.15255737 387.40863037 283.73120117 C 391.54364014 282.14538574 395.28381348 280.33959961 398.81466675 279.97155762 C 402.48626709 280.34811401 405.27117920 280.41595459 406.72045898 281.58898926 C 406.66827393 283.68951416 406.10772705 286.54031372 405.13739014 289.64392090 C 404.43194580 292.56655884 405.38061523 294.90649414 402.74304199 292.67153931" stroke-width="1.43285918" fill="rgb(7, 35, 81)" opacity="1.0" stroke="rgb(161, 255, 255)" stroke-opacity="0.0070292177" stroke-linecap="round" stroke-linejoin="round"/>
    <path d="M 397.80590820 337.67453003 C 392.35778809 343.89202881 387.49359131 350.08694458 382.13265991 355.05667114 C 376.00726318 358.39880371 369.84771729 361.19128418 364.54138184 364.01788330 C 360.94155884 367.79281616 358.04876709 370.99026489 355.36169434 372.51834106 C 353.32223511 372.50198364 352.45101929 371.45697021 353.06481934 370.02755737 C 355.76785278 368.79125977 358.03164673 366.52648926 358.80557251 363.58816528 C 358.37847900 360.36456299 356.28948975 357.66156006 352.81726074 355.63494873 C 348.63671875 353.62826538 343.69531250 352.18923950 338.00683594 351.41824341 C 332.19207764 350.74655151 326.46871948 350.53884888 321.18591309 351.20986938 C 316.43234253 351.90853882 312.55020142 352.88519287 309.78176880 353.52493286 C 308.12945557 353.04571533 307.89587402 351.37908936 309.08151245 349.24029541 C 311.53903198 347.09591675 314.94134521 345.34823608 318.67367554 344.52175903 C 322.46255493 344.29986572 326.02819824 343.13812256 329.48159790 341.29156494 C 333.14837646 339.49682617 337.25283813 339.08807373 341.36074829 339.78326416 C 345.13000488 340.03189087 348.41998291 342.60842896 352.75012207 344.59359741 C 357.44311523 346.64096069 362.20217896 346.88720703 367.33456421 345.64511108 C 371.94271851 343.76159668 375.93609619 341.55270386 379.76809692 340.69424438 C 384.88095093 341.96154785 389.90438843 341.10375977 394.28189087 336.70614624 C 398.88793945 329.56985474 403.08288574 320.42422485 406.80838013 309.77774048 C 410.16955566 297.63394165 413.28366089 284.91394043 414.10983276 272.58291626 C 415.87246704 264.44018555 422.33038330 259.93737793 397.80590820 337.67453003" stroke-width="1.20938432" fill="rgb(5, 38, 83)" opacity="1.0" stroke="rgb(2, 29, 57)" stroke-opacity="0.9522464" stroke-linecap="round" stroke-linejoin="round"/>
    <path d="M 326.18826294 269.38916016 C 330.44546509 269.62005615 334.73162842 270.22662354 338.68673706 270.69631958 C 342.35366821 271.03948975 345.97152710 270.59225464 349.56726074 269.45086670 C 352.63180542 267.46765137 356.11151123 266.35321045 359.94409180 265.88821411 C 363.70080566 265.53399658 367.31417847 266.66101074 371.43991089 268.19641113 C 375.19061279 270.33099365 379.75204468 270.67785645 384.55435181 270.50100708 C 387.92828369 269.55868530 391.32632446 268.16552734 394.38943481 266.60476685 C 397.69940186 265.95321655 400.74673462 265.33731079 403.38156128 265.54125977 C 405.46304321 266.61825562 407.39877319 266.51208496 408.55566406 267.09133911 C 408.40533447 269.05212402 408.17984009 271.60415649 407.82650757 274.36398315 C 407.61642456 276.61920166 407.43103027 278.07522583 406.59570312 278.33218384 C 404.53326416 277.24481201 401.78082275 276.64486694 398.48162842 277.02865601 C 394.94927979 277.14511108 391.32696533 278.72058105 387.75527954 280.57958984 C 384.24853516 281.87933350 380.75692749 281.90695190 377.26638794 281.78005981 C 373.84725952 280.45407104 370.29650879 279.08242798 366.62423706 277.59420776 C 362.64340210 276.62280273 358.81625366 276.42089844 355.06088257 277.73071289 C 351.32666016 279.02438354 347.75024414 280.53924561 344.61181641 282.11810303 C 341.04299927 282.81466675 337.59912109 282.24835205 334.19540405 281.34118652 C 330.56124878 281.25292969 327.35449219 281.49011230 324.59716797 281.44833374 C 322.48815918 281.37878418 321.29800415 281.37673950 321.57373047 281.67712402 C 322.66827393 280.45703125 324.62371826 279.37445068 326.18826294 269.38916016" stroke-width="2.00000000" fill="rgb(8, 37, 81)" opacity="1.0" stroke="rgb(183, 255, 255)" stroke-opacity="0.041386943" stroke-linecap="round" stroke-linejoin="round"/>
    <path d="M 318.00308228 429.92788696 C 309.01571655 429.37619019 300.27493286 428.62557983 292.27221680 427.74783325 C 285.37072754 426.49066162 279.98657227 424.54541016 276.72140503 421.56262207 C 276.08187866 417.38427734 277.42358398 412.51397705 279.36425781 407.53643799 C 281.11602783 403.21487427 281.93585205 400.51300049 280.27478027 399.34725952 C 276.30786133 399.09503174 271.01184082 398.86932373 265.74218750 398.07247925 C 262.19024658 396.42993164 260.48162842 394.03799438 260.26654053 391.01742554 C 261.17175293 387.70941162 262.98519897 384.39691162 265.15017700 381.33602905 C 266.44348145 378.37908936 266.50234985 375.92700195 265.58306885 373.95349121 C 264.24203491 372.08139038 262.34115601 370.99246216 260.09197998 370.36587524 C 258.21087646 369.65487671 256.77755737 369.58642578 256.26336670 369.52243042 C 257.48721313 369.03063965 259.79861450 368.55264282 262.13735962 367.36645508 C 264.06610107 365.45706177 265.36441040 363.68832397 266.22024536 363.68194580 C 265.33801270 365.78308105 264.92117310 368.93167114 265.41152954 372.69421387 C 266.77883911 376.25610352 269.13024902 378.99041748 270.05764771 381.84057617 C 268.76617432 385.42352295 266.07009888 389.26824951 263.35769653 393.02209473 C 262.22067261 396.00881958 262.93899536 397.51788330 265.70202637 396.98953247 C 269.68621826 394.92797852 274.75305176 393.39208984 280.58654785 393.37249756 C 286.54342651 394.29058838 292.20965576 396.77706909 298.30841064 398.26684570 C 305.72958374 398.76989746 313.89434814 396.59176636 323.25198364 393.48446655 C 333.84313965 391.14630127 345.30010986 389.02841187 318.00308228 429.92788696" stroke-width="0.90845174" fill="rgb(3, 36, 82)" opacity="1.0" stroke="rgb(0, 18, 56)" stroke-opacity="0.8375211" stroke-linecap="round" stroke-linejoin="round"/>
    <path d="M 397.99911499 316.25909424 C 393.77804565 320.04336548 392.11810303 325.57772827 390.64544678 330.58883667 C 389.40213013 334.15667725 387.59677124 336.66610718 385.83187866 337.84088135 C 383.23937988 337.64593506 379.76889038 337.20660400 375.87182617 337.60455322 C 371.48883057 338.40567017 367.66070557 340.61120605 363.82556152 341.24392700 C 360.39620972 341.89636230 356.67279053 340.48443604 352.41284180 338.88583374 C 348.63156128 336.56317139 344.65371704 335.18997192 340.52310181 334.36743164 C 336.52346802 333.99557495 333.34671021 334.57778931 330.60879517 336.26852417 C 328.05261230 337.25985718 325.82641602 337.74722290 324.08508301 337.66198730 C 322.79101562 336.76123047 322.11383057 334.99884033 322.08694458 332.51550293 C 322.68832397 329.71862793 323.99087524 326.49456787 326.17816162 323.72430420 C 328.69494629 322.28881836 331.24990845 321.50430298 334.07864380 320.86721802 C 337.08306885 319.65332031 340.62268066 318.33212280 344.28262329 317.85397339 C 348.39218140 317.59197998 352.51879883 318.26306152 355.96450806 320.35922241 C 359.90408325 322.49786377 363.98464966 323.72882080 368.44998169 323.67745972 C 372.14160156 323.52334595 376.33566284 322.04345703 379.81991577 319.96505737 C 383.36923218 318.04238892 386.87069702 316.90795898 390.14804077 316.52349854 C 392.96347046 317.04434204 395.05892944 317.63284302 396.35739136 317.99948120 C 397.21530151 316.49621582 398.52413940 315.93121338 400.90509033 316.03533936 C 403.70462036 314.93295288 406.54769897 314.24176025 409.31845093 314.02410889 C 412.17721558 314.02346802 415.10699463 313.63055420 397.99911499 316.25909424" stroke-width="0.00000000" fill="rgb(7, 36, 82)" opacity="1.0" stroke="rgb(105, 255, 255)" stroke-opacity="0.049771737" stroke-linecap="round" stroke-linejoin="round"/>
    <path d="M 349.36126709 387.09677124 C 341.05661011 393.01855469 332.61596680 398.33328247 323.65899658 402.72830200 C 314.82318115 407.07034302 305.91009521 410.59481812 296.58090210 413.22674561 C 287.40097046 415.86184692 278.16818237 417.58029175 268.67056274 418.30993652 C 259.23834229 418.92263794 250.21870422 418.98742676 241.16311646 418.14767456 C 232.05230713 417.16744995 223.19113159 415.65765381 214.72879028 413.09426880 C 206.49465942 410.71838379 199.08563232 407.61599731 192.14001465 404.60687256 C 185.91490173 401.76031494 181.35005188 398.91198730 178.23977661 397.09280396 C 175.71614075 397.13024902 177.09512329 396.35586548 180.12489319 395.68246460 C 182.06994629 394.41369629 183.63412476 392.30361938 186.43205261 391.49331665 C 190.47485352 392.24822998 195.52896118 394.02017212 201.51681519 396.29956055 C 208.52302551 398.72686768 216.14599609 401.56002808 224.17672729 404.59896851 C 232.29856873 407.65197754 240.42445374 410.51049805 248.70529175 413.06854248 C 257.23342896 414.42153931 265.69433594 413.89855957 274.15228271 412.60778809 C 283.42761230 411.61373901 292.92312622 409.63787842 302.50292969 406.22485352 C 313.07061768 402.72772217 323.59298706 397.85369873 334.50711060 391.10723877 C 346.11669922 383.45599365 357.54586792 374.36114502 367.92309570 363.01065063 C 378.16326904 351.33685303 386.42214966 339.07681274 392.12597656 327.46411133 C 395.77981567 318.80001831 398.87713623 315.38513184 402.35964966 316.77026367 C 400.52441406 321.77377319 396.66595459 330.25015259 390.50222778 340.58276367 C 383.26858521 352.50161743 375.27368164 365.08001709 349.36126709 387.09677124" stroke-width="1.34258127" fill="rgb(250, 252, 251)" opacity="1.0" stroke="rgb(10, 32, 64)" stroke-opacity="0.8806587" stroke-linecap="round" stroke-linejoin="round"/>
    <path d="M 297.62432861 433.54537964 C 259.83999634 442.47186279 222.49333191 439.64810181 184.79441833 422.96221924 C 144.24855042 404.18780518 114.15816498 372.10717773 96.31105804 336.23196411 C 104.66299438 320.76763916 112.73019409 328.80398560 134.63710022 363.85980225 C 167.22407532 398.45486450 199.69091797 416.65411377 236.47314453 420.94668579 C 268.55963135 424.88842773 296.20962524 419.02529907 319.08557129 409.01751709 C 336.20312500 400.50308228 346.17883301 393.54080200 349.91152954 390.60772705 C 345.77969360 387.05203247 338.31427002 384.73532104 328.11041260 387.84719849 C 317.06134033 394.83755493 306.28631592 400.89151001 296.14758301 404.12890625 C 287.87976074 404.99551392 281.63427734 404.80435181 277.71142578 404.95544434 C 275.96746826 405.28173828 276.32644653 405.26507568 278.81835938 404.90185547 C 282.97857666 404.75469971 288.70462036 404.88467407 295.77331543 404.24044800 C 303.62429810 401.83477783 312.26553345 397.53692627 321.60913086 391.68386841 C 330.86407471 385.65859985 339.25259399 384.76745605 349.17187500 389.27398682 C 363.10748291 381.14627075 377.68591309 366.05249023 390.09576416 348.36489868 C 401.60461426 330.63577271 409.25103760 311.64526367 413.59637451 292.25735474 C 417.15368652 274.31433105 417.64944458 259.73825073 417.12637329 251.62509155 C 420.10211182 252.38912964 426.20361328 254.38690186 433.29455566 255.89356995 C 434.35467529 264.51754761 432.92150879 278.70193481 429.21725464 296.67916870 C 425.15350342 316.80737305 416.41986084 338.13079834 401.27014160 360.95941162 C 381.92349243 386.11718750 358.75735474 415.09506226 297.62432861 433.54537964" stroke-width="2.00000000" fill="rgb(235, 112, 23)" opacity="1.0" stroke="rgb(31, 35, 53)" stroke-opacity="0.98442703" stroke-linecap="round" stroke-linejoin="round"/>
    <path d="M 249.65824890 403.65277100 C 240.35290527 399.94082642 233.20805359 397.72900391 227.52761841 399.98681641 C 224.66279602 400.79159546 227.47651672 400.95120239 233.52951050 401.39624023 C 240.93298340 403.23745728 247.69631958 408.21286011 255.90518188 408.93597412 C 265.16607666 409.28521729 272.45642090 405.01525879 279.00006104 400.99957275 C 283.91467285 402.31631470 285.27545166 406.32843018 282.44012451 410.96157837 C 276.11489868 413.19622803 267.37802124 413.01385498 257.02401733 413.66751099 C 245.71264648 413.80578613 234.36988831 412.85168457 223.43846130 410.16537476 C 213.04202271 407.55557251 203.51136780 404.19757080 195.69395447 400.70471191 C 189.43898010 397.49536133 184.73332214 395.33114624 182.14221191 393.65866089 C 181.88087463 392.12078857 183.57983398 390.91818237 186.71453857 390.44363403 C 190.77340698 390.99600220 195.52369690 392.32202148 200.17967224 394.42120361 C 205.33822632 396.21258545 210.31694031 396.36383057 215.31425476 395.06472778 C 220.07142639 393.18194580 224.18234253 391.73870850 228.71510315 391.33789062 C 232.92950439 391.16384888 236.73541260 391.45657349 240.09135437 392.74313354 C 243.63017273 393.57131958 246.87429810 394.94296265 249.75231934 395.70706177 C 252.99974060 396.33358765 256.69070435 396.64529419 260.52481079 396.71530151 C 264.15264893 396.63412476 267.66513062 396.40615845 271.28656006 396.70468140 C 274.50531006 397.73828125 276.74703979 398.98776245 277.63699341 399.81152344 C 277.24615479 400.44744873 275.07125854 401.02008057 270.97726440 402.24816895 C 265.68121338 403.85260010 259.13018799 406.00799561 249.65824890 403.65277100" stroke-width="0.17302090" fill="rgb(8, 39, 81)" opacity="1.0" stroke="rgb(4, 26, 34)" stroke-opacity="0.6835789" stroke-linecap="round" stroke-linejoin="round"/>
    <path d="M 286.68923950 374.05816650 C 291.83004761 372.31320190 296.32437134 369.92330933 300.02780151 366.89663696 C 302.06292725 363.41448975 303.58569336 361.30905151 306.31741333 361.72692871 C 310.43008423 362.34338379 313.99914551 362.72293091 315.27389526 363.38900757 C 313.35397339 364.30758667 309.72808838 364.81817627 305.93930054 366.15109253 C 304.22137451 368.50134277 305.31188965 370.67919922 308.87203979 372.59375000 C 313.53839111 374.75231934 319.37298584 375.71255493 325.95230103 375.86779785 C 332.64913940 376.12207031 338.91320801 375.47866821 344.30303955 374.12167358 C 348.76522827 372.94824219 351.66311646 371.96166992 353.13858032 372.25997925 C 352.94110107 374.16873169 351.23178101 376.56860352 348.54769897 378.84033203 C 345.57180786 380.38867188 341.66510010 379.74176025 337.26925659 379.07531738 C 332.73739624 380.86676025 327.82772827 381.54348755 322.77362061 380.09619141 C 317.79983521 378.07623291 313.20339966 376.62194824 308.72619629 376.77548218 C 304.44955444 377.32867432 301.06329346 378.42190552 298.06579590 381.16165161 C 294.19036865 382.82406616 289.92922974 384.55358887 285.28430176 386.04724121 C 280.51586914 386.98925781 276.01116943 387.57672119 271.59735107 388.79818726 C 267.62677002 390.63177490 264.33956909 392.79867554 261.75222778 394.67041016 C 259.42919922 394.75128174 257.79495239 393.29827881 257.38104248 391.25439453 C 259.06393433 389.37442017 261.86636353 386.87255859 265.24258423 384.62261963 C 270.27050781 383.31680298 275.83389282 382.42623901 281.87933350 382.02627563 C 288.42620850 381.58737183 294.97991943 381.78372192 286.68923950 374.05816650" stroke-width="1.98121917" fill="rgb(2, 35, 84)" opacity="1.0" stroke="rgb(0, 25, 66)" stroke-opacity="0.94349176" stroke-linecap="round" stroke-linejoin="round"/>
    <path d="M 261.96542358 403.56695557 C 259.33569336 402.71765137 256.98867798 401.54052734 254.96759033 400.17733765 C 253.06887817 398.67849731 251.41729736 396.98132324 249.94338989 395.27340698 C 248.43716431 393.79745483 246.86030579 392.63986206 245.23907471 391.70892334 C 243.80563354 390.42544556 242.10577393 389.36770630 240.08757019 388.51223755 C 237.98236084 388.11489868 236.26284790 387.16589355 234.12905884 386.30249023 C 231.99113464 385.94436646 229.76634216 385.86645508 227.75473022 385.74478149 C 226.19500732 385.22137451 225.06008911 384.41360474 224.35855103 383.40597534 C 223.97917175 382.20050049 223.93307495 381.18923950 224.33668518 380.73660278 C 225.28346252 380.79580688 226.55467224 380.89221191 228.18130493 381.19451904 C 229.90150452 381.24295044 231.63684082 381.38320923 233.47480774 381.42251587 C 235.37045288 381.23925781 237.46170044 381.24740601 239.45974731 380.65960693 C 241.61437988 379.88714600 243.64338684 379.09692383 245.05670166 377.67178345 C 246.11747742 375.17684937 246.82769775 372.36782837 246.96876526 369.96252441 C 247.86553955 367.79089355 247.79002380 365.97561646 247.73905945 365.63150024 C 249.28240967 367.26162720 251.47558594 368.73062134 253.69064331 369.29620361 C 254.97201538 369.60266113 254.43946838 369.77938843 252.41551208 370.02603149 C 249.75552368 370.60174561 247.54713440 372.24130249 245.86299133 374.35302734 C 245.15176392 376.71511841 245.60884094 379.05996704 246.65443420 381.60586548 C 248.23637390 383.94055176 250.01420593 386.30859375 252.44680786 388.06256104 C 254.93028259 390.04150391 257.67373657 391.88565063 261.96542358 403.56695557" stroke-width="1.15569210" fill="rgb(4, 39, 84)" opacity="1.0" stroke="rgb(10, 25, 68)" stroke-opacity="0.96031153" stroke-linecap="round" stroke-linejoin="round"/>
    <path d="M 299.42788696 383.79067993 C 302.43582153 382.45223999 305.59957886 381.35885620 309.10580444 381.52673340 C 313.07229614 382.05175781 317.03237915 383.34399414 321.23843384 385.03173828 C 326.23727417 385.86416626 330.60104370 386.17065430 334.31170654 384.34799194 C 337.26339722 381.80395508 340.83807373 380.93371582 344.12414551 381.36679077 C 345.85839844 381.83142090 345.96139526 382.93872070 344.79067993 384.12515259 C 342.24029541 385.12619019 340.41268921 386.38146973 339.84219360 387.24194336 C 341.59817505 387.16058350 344.51516724 387.68981934 347.32165527 388.36303711 C 350.41412354 386.12857056 354.20022583 382.82781982 358.36611938 379.42782593 C 362.55535889 376.18811035 366.21551514 372.14627075 370.01962280 368.02450562 C 373.11679077 364.31814575 375.19805908 364.16146851 375.47317505 367.44863892 C 371.74581909 371.68771362 366.83288574 376.38342285 361.61761475 380.97763062 C 357.03121948 385.06860352 353.09979248 388.65362549 349.93896484 390.51919556 C 347.49612427 388.07009888 343.79895020 387.14999390 339.27777100 387.36032104 C 335.21447754 390.45059204 330.36935425 393.70434570 326.07943726 396.11502075 C 322.30554199 394.91049194 318.92956543 392.73699951 315.22921753 392.07992554 C 311.22894287 393.57693481 306.85607910 394.79507446 301.90066528 394.50558472 C 297.32226562 393.78787231 293.00299072 392.42965698 289.12307739 390.26980591 C 284.61645508 389.19949341 280.12716675 388.91894531 275.91107178 388.99499512 C 272.48937988 387.39874268 269.04013062 385.30944824 265.89559937 382.72131348 C 263.30554199 379.49386597 260.62310791 376.23196411 299.42788696 383.79067993" stroke-width="1.72770917" fill="rgb(7, 38, 77)" opacity="1.0" stroke="rgb(229, 245, 255)" stroke-opacity="0.217881" stroke-linecap="round" stroke-linejoin="round"/>
    <path d="M 226.63679504 387.50244141 C 225.45742798 387.57785034 223.93617249 387.96380615 222.44641113 388.12219238 C 220.78509521 388.81048584 218.87730408 389.53781128 216.88719177 390.27978516 C 214.93196106 391.21600342 212.89817810 391.98242188 210.77386475 392.36160278 C 208.80058289 393.00784302 206.73750305 393.29406738 204.71202087 393.26226807 C 202.54428101 392.97106934 200.31227112 392.51821899 198.40956116 391.89703369 C 196.13719177 392.34210205 194.00794983 393.03027344 191.36738586 393.83657837 C 188.21499634 394.27719116 184.61541748 393.88665771 180.34057617 392.44570923 C 175.32051086 389.32308960 169.61784363 385.67700195 164.03788757 381.15631104 C 158.49497986 376.73364258 153.86761475 372.76879883 152.38140869 369.08023071 C 155.06010437 367.72595215 160.90969849 370.20004272 168.93287659 372.73437500 C 175.97640991 373.61724854 177.35374451 376.74151611 174.13787842 381.29919434 C 175.72947693 383.78738403 179.70317078 385.70169067 185.44064331 386.09646606 C 191.48464966 385.96536255 196.78073120 383.02038574 202.48686218 381.62692261 C 208.51789856 381.91757202 213.07307434 383.97967529 215.01257324 384.35000610 C 213.06962585 381.56909180 208.00665283 378.18347168 200.04774475 378.55279541 C 189.86177063 382.29870605 182.58464050 383.17776489 182.49493408 377.16241455 C 191.54948425 374.36578369 202.95739746 371.55752563 211.21343994 365.62152100 C 216.74632263 367.33184814 221.12426758 371.59774780 226.33256531 371.92016602 C 231.68092346 368.37133789 235.58763123 366.17041016 235.54554749 368.72225952 C 228.62951660 372.79617310 218.90295410 376.71694946 226.63679504 387.50244141" stroke-width="0.43266377" fill="rgb(4, 38, 81)" opacity="1.0" stroke="rgb(0, 8, 61)" stroke-opacity="0.54663545" stroke-linecap="round" stroke-linejoin="round"/>
    <path d="M 215.77946472 293.66882324 C 214.01850891 295.44970703 212.32348633 297.31741333 210.68737793 299.25787354 C 208.84703064 301.20242310 207.26481628 302.96728516 206.25354004 304.81442261 C 205.03541565 306.28366089 204.16488647 307.44204712 203.59869385 307.78060913 C 203.73754883 307.50643921 204.32067871 306.72143555 204.73254395 305.51242065 C 204.75833130 303.68716431 204.44128418 301.44213867 203.55505371 298.93380737 C 202.53604126 296.13827515 201.81793213 292.91921997 201.47190857 289.51348877 C 201.15580750 286.18054199 201.15083313 283.23550415 201.90728760 280.99795532 C 203.51840210 279.25341797 205.53646851 277.57046509 207.52149963 275.64724731 C 209.42286682 273.79409790 210.86495972 271.85729980 212.43107605 270.51593018 C 212.87329102 268.22915649 211.92501831 266.81445312 210.31417847 265.90148926 C 210.62109375 263.88848877 212.46643066 261.91189575 214.75646973 260.90185547 C 215.18855286 261.92572021 215.06262207 264.17556763 215.57754517 266.40579224 C 216.17610168 268.11453247 216.87785339 268.57705688 218.35858154 267.54318237 C 220.94628906 266.66232300 223.30403137 264.78457642 225.41406250 262.54037476 C 226.45333862 260.52304077 227.30015564 259.15802002 228.40969849 258.70913696 C 230.50755310 259.21868896 232.44238281 260.02307129 233.37554932 262.02658081 C 233.95202637 264.24530029 233.78663635 266.68521118 233.63803101 269.35107422 C 233.16340637 271.96560669 231.71604919 274.53280640 230.10255432 277.18124390 C 228.44630432 280.04217529 226.69570923 282.86700439 224.21102905 285.04592896 C 221.74588013 287.62319946 219.39312744 290.44256592 215.77946472 293.66882324" stroke-width="2.00000000" fill="rgb(8, 38, 81)" opacity="1.0" stroke="rgb(192, 92, 0)" stroke-opacity="0.117963806" stroke-linecap="round" stroke-linejoin="round"/>
    <path d="M 325.52374268 263.48403931 C 318.62435913 262.42074585 312.48538208 265.64916992 306.77127075 267.87774658 C 303.94223022 266.93276978 302.98880005 264.84683228 302.24945068 263.55203247 C 300.78134155 265.58963013 297.51776123 268.80020142 292.34384155 271.70254517 C 286.38342285 275.01998901 279.20797729 276.32257080 271.93597412 278.70895386 C 264.16094971 281.33319092 257.23175049 284.40011597 251.83081055 289.67041016 C 246.28610229 294.72534180 242.48222351 300.83023071 238.82331848 306.67788696 C 235.78190613 311.70913696 233.74136353 315.81658936 230.73156738 317.51666260 C 227.49455261 318.91961670 225.07096863 318.21691895 223.87611389 315.02066040 C 222.78689575 311.11941528 224.16516113 306.94305420 227.31597900 301.62878418 C 231.33036804 295.64187622 236.37605286 289.57696533 240.51893616 282.39184570 C 244.59521484 274.93017578 246.28840637 267.88293457 244.67279053 260.65365601 C 243.15223694 254.32983398 239.77447510 250.05920410 235.69816589 247.46635437 C 233.67185974 246.04524231 234.51251221 245.34643555 237.27082825 246.21853638 C 240.32389832 249.05349731 243.50576782 252.72872925 247.75802612 255.30331421 C 253.94700623 255.67488098 261.65576172 255.11476135 270.23907471 255.34880066 C 279.08520508 255.46235657 288.20443726 255.34851074 297.16870117 255.22076416 C 305.28897095 255.42694092 312.36868286 255.44149780 318.38696289 255.34104919 C 323.33087158 255.96025085 326.78390503 257.77853394 329.02346802 260.46426392 C 330.22912598 263.50241089 330.41271973 266.88928223 329.44119263 270.60009766 C 327.53118896 274.34368896 324.91253662 277.84152222 325.52374268 263.48403931" stroke-width="1.70179546" fill="rgb(13, 42, 85)" opacity="1.0" stroke="rgb(104, 255, 255)" stroke-opacity="0.05338187" stroke-linecap="round" stroke-linejoin="round"/>
    <path d="M 271.55007935 97.59524536 C 274.98492432 94.41458893 275.77233887 91.87858582 273.79019165 88.84695435 C 273.42288208 84.79751587 273.49133301 80.67060089 273.46389771 77.19564056 C 273.02239990 74.98728943 273.64175415 75.01910400 275.45538330 76.72905731 C 277.68682861 79.29646301 279.47192383 82.15724945 281.28335571 84.97381592 C 281.77258301 88.15254974 281.74185181 91.00325012 280.57806396 94.10306549 C 277.99182129 97.29138184 275.10101318 100.99847412 272.69451904 105.13785553 C 270.21923828 108.75347900 268.70416260 112.27801514 267.18960571 114.75465393 C 266.80856323 116.33671570 266.78677368 116.56333923 266.60119629 115.38775635 C 266.38168335 113.01923370 266.34158325 109.50392914 266.50082397 105.11173248 C 266.59329224 100.05583954 267.52462769 94.29398346 271.55007935 97.59524536" stroke-width="2.00000000" fill="rgb(234, 135, 47)" opacity="1.0" stroke="rgb(0, 23, 53)" stroke-opacity="0.6187323" stroke-linecap="round" stroke-linejoin="round"/>
    <path d="M 303.97702026 273.85333252 C 300.47634888 277.07653809 296.41238403 278.44985962 293.66674805 279.84399414 C 293.14273071 278.93209839 295.44732666 277.47805786 298.58340454 274.63827515 C 301.32690430 271.31314087 302.47784424 267.77560425 302.62130737 264.97262573 C 304.82092285 264.78503418 306.48236084 266.71987915 306.84387207 269.71200562 C 308.71740723 269.94442749 311.83151245 268.44787598 315.58059692 266.79473877 C 319.26779175 265.54174805 323.44561768 265.65682983 327.39508057 266.39157104 C 331.00308228 267.75411987 334.15371704 269.17623901 337.10769653 270.02142334 C 339.96615601 270.34896851 342.74566650 270.95791626 345.07153320 271.35757446 C 346.47280884 271.42614746 346.93319702 271.64077759 346.50250244 272.10571289 C 345.24023438 272.53582764 343.43594360 272.55911255 341.09497070 272.30993652 C 338.37371826 271.50512695 335.46212769 270.98254395 332.52923584 270.43148804 C 329.67083740 269.96322632 327.15130615 269.73803711 325.13928223 270.70797729 C 323.35116577 273.17001343 320.46408081 275.60064697 316.31738281 278.30673218 C 310.77987671 281.10803223 304.25668335 283.88076782 296.43057251 285.20556641 C 287.93869019 286.86459351 278.96191406 288.03048706 270.38903809 291.26956177 C 262.56057739 294.69909668 256.34725952 299.75027466 251.38063049 305.26977539 C 247.89636230 310.07754517 245.84030151 313.06494141 245.08030701 312.81701660 C 246.03964233 309.08078003 249.16482544 303.61190796 254.67637634 297.64477539 C 261.03680420 290.93191528 270.29580688 286.35946655 281.67193604 284.25201416 C 293.65780640 281.50436401 305.19326782 282.17614746 303.97702026 273.85333252" stroke-width="1.73187757" fill="rgb(10, 38, 74)" opacity="1.0" stroke="rgb(255, 255, 255)" stroke-opacity="0.0" stroke-linecap="round" stroke-linejoin="round"/>
  </g>
</svg>
