<svg xmlns="http://www.w3.org/2000/svg" viewBox="0 0 512 512" height="512.0px" width="512.0px">
<path id="" fill="rgb(255, 255, 255)" fill-opacity="1.0" stroke="rgb(255, 254, 255)" stroke-width="1.84156108" stroke-opacity="1.0" stroke-linecap="round" stroke-linejoin="round"  filling="0" d="M-8.003937 553.403748 C-23.346283 541.808838 -37.914600 527.891968 -51.694008 511.360779 C-65.473419 494.829590 -78.463913 475.684052 -90.650604 453.631866 C-102.837303 431.579681 -114.220200 406.620850 -124.784424 378.463013 C-133.174133 350.486603 -138.025787 323.181824 -139.019348 297.005005 C-140.012909 270.828217 -137.148361 245.779419 -130.105667 222.315018 C-123.062973 198.850616 -111.842117 176.970642 -96.123047 157.131454 C-79.171501 134.951218 -61.345249 113.935577 -42.891125 93.922523 C-24.437000 73.909470 -5.355000 54.898983 14.108054 36.729042 C33.571110 18.559097 53.415215 1.229695 73.393555 -15.421204 C96.000526 -29.733704 117.841171 -44.724617 140.442734 -58.404552 C163.044281 -72.084488 186.406769 -84.453445 212.057434 -93.522034 C237.708084 -102.590622 265.646912 -108.358841 297.401184 -108.837311 C317.873016 -107.766212 338.806000 -104.163780 360.346405 -97.417030 C381.886841 -90.670280 404.034729 -80.779213 426.936310 -67.130852 C449.837921 -53.482491 473.493286 -36.076836 498.048645 -14.300903 C517.957581 6.963709 536.214478 26.605980 551.819763 45.162941 C567.425049 63.719898 580.378784 81.191544 589.681274 98.114914 C598.983826 115.038277 604.635193 131.413361 605.635864 147.777191 C609.274475 177.061539 611.364014 205.140457 612.063721 232.030075 C612.763428 258.919678 612.073242 284.619995 610.152405 309.147125 C608.231567 333.674286 605.080078 357.028259 600.857178 379.225159 C595.921692 399.016998 587.881531 418.638916 576.070190 438.121735 C564.258850 457.604553 548.676270 476.948303 528.655884 496.183746 C508.635498 515.419189 484.177277 534.546326 454.614624 553.596008 C435.461029 568.453979 415.257507 581.309326 393.338806 592.263489 C371.420105 603.217651 347.786224 612.270630 321.771881 619.523804 C295.757568 626.776917 267.362793 632.230225 235.922363 635.985107 C210.973953 636.494934 187.430984 635.644836 163.169861 631.566284 C138.908722 627.487671 113.929428 620.180603 86.108337 607.776367 C58.287247 595.372192 27.624365 577.870850 -8.003937 553.403748"></path>
<path id="" fill="rgb(202, 162, 136)" fill-opacity="1.0" stroke="rgb(255, 255, 255)" stroke-width="0.0" stroke-opacity="1.0" stroke-linecap="round" stroke-linejoin="round"  filling="0" d="M397.791870 374.014221 C387.113251 385.524292 379.807495 393.244751 372.667511 399.425812 C365.527527 405.606873 358.553253 410.248596 348.537598 415.601196 C338.521912 420.953796 325.464844 427.017273 306.159180 436.041870 C296.021912 438.481964 285.701996 440.734467 274.594269 441.999756 C263.486542 443.265045 251.590988 443.543121 238.302460 442.034363 C225.013916 440.525635 210.332397 437.230042 193.652710 431.348083 C184.127792 427.510742 174.604736 423.094940 164.990952 417.387085 C155.377167 411.679230 145.672653 404.679321 135.784851 395.673737 C125.897034 386.668152 115.825928 375.656921 105.478928 361.926392 C95.706825 343.986603 89.270287 330.841675 84.890602 319.619690 C80.510925 308.397705 78.188095 299.098724 76.643425 288.850800 C75.098755 278.602905 74.332230 267.406067 73.065155 252.388474 C74.907967 237.436798 76.824326 224.594315 79.711174 212.579056 C82.598022 200.563812 86.455376 189.375793 92.180176 177.733032 C97.904968 166.090271 105.497223 153.992798 115.853882 140.158600 C124.990257 131.716660 132.297333 124.502220 139.543152 118.085945 C146.788986 111.669662 153.973572 106.051537 162.864990 100.802223 C171.756409 95.552910 182.354645 90.672409 196.427765 85.731369 C208.677780 82.609505 219.307404 79.185791 229.778748 76.901955 C240.250092 74.618118 250.563171 73.474152 262.180115 74.911804 C273.797089 76.349442 286.717896 80.368698 302.404755 88.411270 C311.056824 92.635567 321.779053 98.784584 333.055023 105.954079 C344.330994 113.123566 356.160767 121.313538 367.027893 129.619736 C377.895020 137.925934 387.799561 146.348389 395.225098 153.982819 C403.424316 167.432495 410.458252 178.959137 416.357819 189.907471 C422.257355 200.855804 427.022491 211.225800 430.684082 222.362213 C434.345642 233.498611 436.903687 245.401413 438.389038 259.415314 C437.566559 275.320923 435.531189 289.261536 432.266357 302.144653 C429.001526 315.027802 424.507263 326.853485 418.767029 338.529236 C413.026794 350.204956 406.040588 361.730774 397.791870 374.014221"></path>
<path id="" fill="rgb(244, 166, 21)" fill-opacity="1.0" stroke="rgb(111, 83, 48)" stroke-width="1.89294291" stroke-opacity="1.0" stroke-linecap="round" stroke-linejoin="round"  filling="0" d="M404.120972 256.488098 C389.970367 254.489471 377.895233 255.028793 367.145569 256.172607 C356.395874 257.316406 346.971619 259.064697 338.122803 259.483948 C329.273987 259.903229 321.000610 258.993530 312.552643 254.821335 C306.847656 245.724625 300.808319 238.014420 293.872833 232.319565 C286.937378 226.624725 279.105804 222.945221 269.816345 221.909927 C260.526886 220.874634 249.779572 222.483521 237.012619 227.365479 C228.163544 231.501099 220.806274 237.537720 213.704315 243.317352 C206.602356 249.097000 199.755692 254.619675 191.927826 257.727417 C184.099976 260.835144 175.290924 261.527954 164.264160 257.647827 C152.189240 257.801849 140.763123 259.812500 131.367371 260.913727 C121.971619 262.014954 114.606224 262.206726 110.652756 258.723083 C106.699280 255.239441 106.157730 248.080353 110.409668 234.479782 C111.123268 223.973190 113.760941 213.216599 117.749702 202.781357 C121.738464 192.346130 127.078308 182.232254 133.196243 173.011108 C139.314178 163.789978 146.210205 155.461578 153.311310 148.597290 C168.291199 137.434387 176.758942 131.169922 182.773026 127.234413 C188.787109 123.298904 192.347565 121.692337 197.512848 119.845238 C202.678131 117.998138 209.448273 115.910507 221.881744 111.012848 C232.427795 114.864281 240.707245 118.951271 247.938324 121.460838 C255.169403 123.970406 261.352081 124.902542 267.704590 122.444275 C274.057068 119.986000 280.579407 114.137314 288.489716 103.085236 C298.445862 98.801521 307.257355 96.329834 315.677338 95.876595 C324.097351 95.423355 332.125854 96.988556 340.516022 100.778618 C348.906189 104.568687 357.658020 110.583618 367.524658 119.029831 C377.345184 126.764336 385.286438 134.353104 392.040771 142.281693 C398.795105 150.210281 404.362518 158.478683 409.435303 167.572418 C414.508057 176.666168 419.086243 186.585266 423.862061 197.815231 C427.677582 212.565506 430.860931 224.703644 432.041260 234.098083 C433.221619 243.492523 432.398956 250.143280 428.202515 253.918793 C424.006042 257.694305 416.435791 258.594604 404.120972 256.488098"></path>
<path id="" fill="rgb(236, 52, 34)" fill-opacity="1.0" stroke="rgb(0, 22, 59)" stroke-width="1.74702597" stroke-opacity="1.0" stroke-linecap="round" stroke-linejoin="round"  filling="0" d="M301.564789 259.303009 C296.742126 261.039337 292.839478 261.560425 288.716675 261.776306 C284.593842 261.992188 280.250793 261.902893 274.547272 262.418396 C270.498047 262.507965 266.205811 263.721252 261.930542 263.922943 C257.655273 264.124603 253.396988 263.314636 249.415710 259.357666 C247.517334 255.501450 245.435608 251.539963 242.458206 248.247849 C239.480789 244.955734 235.607697 242.333008 230.126556 241.154282 C223.863602 240.029999 219.003952 240.960602 214.926788 243.115753 C210.849640 245.270905 207.554962 248.650604 204.421967 252.424530 C204.181671 249.846649 205.047211 244.918427 206.513000 240.009888 C207.978790 235.101349 210.044815 230.212463 212.205475 227.713242 C217.990234 220.414368 220.081161 217.885696 221.825958 216.393738 C223.570740 214.901779 224.969391 214.446533 229.369614 211.294525 C234.217926 208.699173 239.538651 206.763901 244.847031 205.560989 C250.155411 204.358063 255.451447 203.887512 260.250397 204.221558 C264.093353 204.429932 268.119080 205.105164 272.628265 206.708008 C277.137451 208.310852 282.130096 210.841293 287.906860 214.760117 C292.919556 219.003296 295.351959 221.272507 297.264587 223.879623 C299.177185 226.486755 300.570007 229.431778 303.503540 235.026611 C305.993683 240.306335 307.742828 245.599045 307.752502 249.960007 C307.762207 254.320984 306.032440 257.750214 301.564789 259.303009"></path>
<path id="" fill="rgb(180, 97, 143)" fill-opacity="1.0" stroke="rgb(1, 37, 122)" stroke-width="1.96807837" stroke-opacity="1.0" stroke-linecap="round" stroke-linejoin="round"  filling="0" d="M296.329620 371.737915 C293.541260 375.016357 292.103271 376.738525 289.659302 378.249512 C287.215332 379.760498 283.765381 381.060303 276.953003 383.493958 C273.858276 384.142456 270.176727 384.678040 266.027802 385.137878 C261.878876 385.597717 257.262634 385.981812 252.298538 386.327301 C248.003937 386.598206 243.312500 386.606476 239.034241 386.022614 C234.755981 385.438782 230.890900 384.262787 228.249008 382.165131 C223.711624 377.498474 221.778687 374.456299 220.707932 371.019104 C219.637192 367.581909 219.428619 363.749695 218.339996 357.502960 C217.277039 351.627533 217.233948 347.474976 218.467438 345.756500 C219.700928 344.038025 222.211014 344.753632 226.254425 348.614532 C228.921204 345.879517 229.166946 343.246124 229.526474 340.604828 C229.886002 337.963501 230.359299 335.314331 233.481171 332.547791 C239.792847 331.313660 243.193726 331.214203 246.503952 331.318573 C249.814178 331.422974 253.033752 331.731201 258.982788 331.312500 C262.123657 331.218445 266.779938 331.328125 271.276672 332.360596 C275.773438 333.393036 280.110657 335.348297 282.613342 338.945404 C283.370850 344.447815 283.695709 345.754944 285.094482 345.963348 C286.493256 346.171753 288.965942 345.281494 294.019043 346.389099 C297.744568 351.532349 299.434479 354.590973 299.636902 358.003082 C299.839294 361.415192 298.554169 365.180786 296.329620 371.737915"></path>
<path id="" fill="rgb(238, 106, 24)" fill-opacity="1.0" stroke="rgb(17, 26, 48)" stroke-width="1.73002684" stroke-opacity="1.0" stroke-linecap="round" stroke-linejoin="round"  filling="0" d="M261.470612 139.608932 C267.535767 142.198410 273.036682 145.044495 277.274994 148.863998 C281.513306 152.683502 284.488953 157.476440 285.503601 163.959564 C286.518250 170.442688 285.571899 178.616028 281.966064 189.196381 C276.432129 194.152512 269.471649 197.134323 261.841156 199.065491 C254.210663 200.996643 245.910156 201.877167 237.696167 202.630692 C229.482178 203.384216 221.354706 204.010773 214.070267 205.434036 C209.318085 199.261368 210.465454 193.347198 214.356812 187.220230 C218.248169 181.093262 224.883499 174.753479 231.107254 167.729614 C237.331009 160.705750 243.143188 152.997803 245.388214 144.134460 C247.968887 134.821396 248.809738 125.451309 247.338898 117.614227 C245.868073 109.777145 242.085571 103.473061 235.419525 100.291992 C228.753479 97.110931 219.203903 97.052872 206.198944 101.707855 C192.452042 107.323257 181.124496 112.977409 171.577850 118.768921 C162.031219 124.560432 154.265488 130.489304 147.642258 136.654129 C141.019012 142.818954 135.538269 149.219757 130.561600 155.955109 C126.047356 160.228424 122.545128 163.707275 119.856842 165.724487 C117.168549 167.741684 115.294189 168.297226 114.035683 166.723877 C112.777176 165.150543 112.134506 161.448334 111.909607 154.950012 C114.086571 151.149551 117.402977 145.853973 122.328430 139.781998 C127.253883 133.710022 133.788376 126.861641 142.401535 119.955574 C151.014679 113.049507 161.706482 106.085754 174.946564 99.783020 C185.752655 94.054573 194.723587 90.069756 202.677689 87.341408 C210.631790 84.613052 217.569061 83.141174 224.307846 82.438606 C231.046631 81.736031 237.586929 81.802765 244.747070 82.151642 C254.045471 78.642365 259.788361 75.254776 263.208435 73.461052 C266.628510 71.667328 267.725800 71.467484 267.733002 74.333687 C267.740234 77.199890 266.657379 83.132156 265.717194 93.602646 C256.158691 98.099182 250.363831 103.344093 247.597839 108.794098 C244.831863 114.244102 245.094772 119.899200 247.651810 125.216103 C250.208862 130.533005 255.060028 135.511719 261.470612 139.608932"></path>
<path id="" fill="rgb(227, 121, 34)" fill-opacity="1.0" stroke="rgb(47, 49, 72)" stroke-width="1.89822423" stroke-opacity="1.0" stroke-linecap="round" stroke-linejoin="round"  filling="0" d="M287.783661 98.196991 C284.642700 99.289566 281.540070 101.398758 279.066132 105.201431 C276.592163 109.004097 274.746887 114.500244 274.120514 122.366730 C273.376526 128.822144 274.920166 134.561569 276.447449 139.457306 C277.974731 144.353027 279.485657 148.405045 278.676208 151.485611 C276.964355 151.782990 275.323883 150.350922 272.783661 147.953613 C270.243439 145.556290 266.803467 142.193726 261.492645 138.630127 C258.708038 132.577026 258.584442 128.829712 258.022980 125.904312 C257.461487 122.978897 256.462097 120.875381 251.925919 118.109863 C245.420410 113.805717 240.517044 108.383652 236.972076 102.833725 C233.427124 97.283798 231.240570 91.606018 230.168747 86.790451 C234.838089 79.138069 236.982651 75.907562 239.936722 74.510201 C242.890778 73.112831 246.654358 73.548599 254.561752 73.228760 C262.805847 74.418457 266.739960 75.912842 270.869629 77.489532 C274.999329 79.066231 279.324585 80.725235 288.350983 82.244171 C295.340240 83.883461 299.743103 84.883705 304.051300 86.044632 C308.359497 87.205551 312.572998 88.527153 319.183533 90.809158 C327.339050 94.105965 333.427490 96.700134 335.463684 99.465645 C337.499878 102.231155 335.483826 105.168015 327.430389 109.150208 C320.476349 108.828629 315.338623 106.525383 309.552429 104.085007 C303.766235 101.644623 297.331604 99.067108 287.783661 98.196991"></path>
<path id="" fill="rgb(250, 188, 0)" fill-opacity="1.0" stroke="rgb(252, 207, 61)" stroke-width="2.0" stroke-opacity="1.0" stroke-linecap="round" stroke-linejoin="round"  filling="0" d="M285.595245 167.236191 C285.140594 169.017548 284.992981 171.656921 284.632141 174.998703 C284.271301 178.340485 283.697205 182.384644 282.389618 186.975586 C280.449524 190.701141 278.354462 193.313049 275.637268 194.996872 C272.920105 196.680695 269.580780 197.436401 265.152191 197.449570 C263.681763 194.390793 263.902191 190.329498 264.418579 186.245880 C264.934937 182.162262 265.747284 178.056335 265.460663 174.908325 C265.978333 170.024567 266.177643 166.428162 266.304657 162.915024 C266.431702 159.401886 266.486481 155.971985 266.715149 151.421265 C266.981995 148.172577 266.772278 144.815796 266.850494 140.957062 C266.928711 137.098328 267.294922 132.737671 268.713531 127.481247 C270.162354 124.003616 271.862427 122.036499 273.374695 119.985138 C274.886993 117.933777 276.211487 115.798172 276.909210 111.983566 C277.053040 106.950233 279.209442 105.606705 282.572571 105.674728 C285.935699 105.742752 290.505554 107.222321 295.476318 107.835175 C300.209015 109.255981 303.858063 110.080818 305.665649 111.754951 C307.473236 113.429085 307.439362 115.952515 304.806213 120.770508 C302.131226 124.483208 299.771271 128.022095 297.839417 131.464859 C295.907532 134.907623 294.403748 138.254257 293.441071 141.582458 C291.708862 145.599747 290.505798 148.787857 289.356598 152.584305 C288.207367 156.380753 287.112000 160.785553 285.595245 167.236191"></path>
<path id="" fill="rgb(251, 193, 2)" fill-opacity="1.0" stroke="rgb(251, 194, 17)" stroke-width="0.88763231" stroke-opacity="1.0" stroke-linecap="round" stroke-linejoin="round"  filling="0" d="M249.316025 173.451141 C248.864136 174.629852 249.818283 178.675308 250.157410 183.429810 C250.496521 188.184326 250.220642 193.647888 247.308685 197.662842 C245.088806 199.603851 241.191254 201.103226 236.699310 202.492371 C232.207382 203.881500 227.121094 205.160431 222.523743 206.660553 C217.681824 208.944183 214.187790 208.333313 211.622345 205.479385 C209.056915 202.625458 207.420074 197.528503 206.292557 190.839920 C205.474854 187.521393 204.284866 183.235474 202.911942 178.649628 C201.539017 174.063797 199.983154 169.178040 198.433655 164.659882 C197.312027 160.558289 195.763947 156.276779 194.482361 151.803329 C193.200760 147.329880 192.185638 142.664505 192.129929 137.795212 C192.949768 133.072083 194.054565 129.925644 195.182709 127.196014 C196.310852 124.466385 197.462311 122.153564 198.375504 119.097702 C200.028000 116.371262 204.888458 114.313156 209.991898 112.645416 C215.095337 110.977676 220.441772 109.700294 223.066208 108.535294 C229.527740 105.618462 233.100204 106.867737 235.674927 109.755219 C238.249634 112.642715 239.826630 117.168419 242.297195 120.804459 C246.683167 121.868195 247.707184 124.478577 247.541245 128.240173 C247.375305 132.001755 246.019424 136.914551 245.645615 142.583084 C246.199554 147.141632 246.640396 152.234253 247.181122 157.499435 C247.721863 162.764618 248.362488 168.202347 249.316025 173.451141"></path>
<path id="" fill="rgb(236, 54, 31)" fill-opacity="1.0" stroke="rgb(205, 67, 46)" stroke-width="0.42672497" stroke-opacity="1.0" stroke-linecap="round" stroke-linejoin="round"  filling="0" d="M211.591400 138.087494 C210.862762 136.673355 209.864655 134.118561 208.692841 131.099823 C207.521027 128.081085 206.175537 124.598404 204.752136 121.328522 C202.259155 116.557152 203.441956 114.330223 206.147324 112.914482 C208.852692 111.498749 213.080627 110.894196 216.677917 109.367584 C219.681717 110.391174 220.906708 113.590904 221.649384 117.132401 C222.392059 120.673889 222.652420 124.557152 223.726974 126.947800 C224.521332 129.882965 225.319366 133.141052 226.083405 136.533997 C226.847458 139.926926 227.577515 143.454712 228.235931 146.929276 C229.248489 150.937622 229.901535 153.718933 230.644775 156.739929 C231.388000 159.760925 232.221436 163.021606 233.594772 167.988617 C234.618301 172.164612 235.046310 174.671448 235.465118 176.926605 C235.883942 179.181763 236.293549 181.185242 237.280304 184.354538 C238.068054 188.291901 239.907440 192.047897 240.356903 194.733582 C240.806366 197.419266 239.865936 199.034653 235.094009 198.690826 C233.242096 195.680420 232.179565 192.228714 231.125504 188.749100 C230.071442 185.269470 229.025864 181.761932 227.207825 178.639862 C226.021988 175.419922 224.761230 172.280502 223.571716 169.193512 C222.382187 166.106537 221.263901 163.071991 220.363007 160.061859 C218.658783 156.095581 217.396835 153.109680 216.095459 149.861496 C214.794098 146.613312 213.453308 143.102859 211.591400 138.087494"></path>
<path id="" fill="rgb(235, 59, 30)" fill-opacity="1.0" stroke="rgb(255, 255, 105)" stroke-width="2.0" stroke-opacity="1.0" stroke-linecap="round" stroke-linejoin="round"  filling="0" d="M290.610596 165.551895 C289.455566 168.632660 288.475616 171.224564 287.357422 174.052811 C286.239197 176.881058 284.982727 179.945648 283.274689 183.971802 C282.202087 188.143188 280.998352 192.508636 279.221039 195.503021 C277.443756 198.497375 275.092896 200.120667 271.726105 198.807663 C270.646973 195.910461 271.384003 192.827332 272.475830 189.521286 C273.567688 186.215240 275.014282 182.686279 275.354248 178.897369 C276.151184 175.335876 276.963898 171.777863 277.836304 168.243607 C278.708679 164.709351 279.640808 161.198837 280.676514 157.732346 C281.518921 153.684143 282.190918 150.761353 282.972687 147.545654 C283.754425 144.329941 284.645935 140.821335 285.927277 135.601501 C286.992188 130.579544 287.693481 127.909233 288.301147 125.469559 C288.908783 123.029892 289.422760 120.820862 290.112946 116.721466 C290.775970 111.325928 291.854645 109.089767 294.181763 108.750984 C296.508881 108.412201 300.084412 109.970795 305.741211 112.164764 C309.356720 112.854424 310.782593 113.203979 310.873596 114.462051 C310.964600 115.720123 309.720734 117.886719 307.996796 122.210449 C305.896301 126.194763 304.157074 129.837982 302.750183 133.180145 C301.343262 136.522278 300.268707 139.563354 299.497528 142.343353 C297.998291 146.102692 296.361572 150.098953 294.807190 154.058319 C293.252808 158.017685 291.780701 161.940155 290.610596 165.551895"></path>
<path id="" fill="rgb(234, 55, 33)" fill-opacity="1.0" stroke="rgb(206, 93, 21)" stroke-width="0.18153296" stroke-opacity="1.0" stroke-linecap="round" stroke-linejoin="round"  filling="0" d="M152.947662 183.562180 C149.614929 180.870819 147.279938 179.145126 144.721695 177.548340 C142.163467 175.951569 139.381973 174.483704 135.156219 172.308044 C131.804993 170.957977 132.089325 168.735733 133.762222 166.097229 C135.435104 163.458710 138.496552 160.403931 140.699493 157.388794 C142.738937 155.728851 145.301697 157.533173 147.933060 160.078674 C150.564407 162.624191 153.264343 165.910919 155.578140 167.215775 C159.000504 170.409683 161.286957 172.466110 163.587509 174.513947 C165.888062 176.561768 168.202728 178.600983 171.681503 181.760468 C174.693604 184.321350 176.881058 186.237640 179.306778 188.381119 C181.732498 190.524597 184.396484 192.895264 188.361618 196.364868 C191.877747 199.334579 193.797989 201.299789 195.560669 203.116791 C197.323334 204.933792 198.928436 206.602570 201.814224 208.979446 C205.960846 211.313919 208.782288 214.130203 209.352448 216.400391 C209.922592 218.670578 208.241455 220.394684 203.382950 220.544785 C200.666153 218.787750 198.070557 216.205475 195.351883 213.669678 C192.633194 211.133881 189.791412 208.644562 186.582230 207.073441 C183.719452 205.202087 180.885849 203.584930 178.051651 201.840820 C175.217468 200.096710 172.382690 198.225647 169.517532 195.846558 C166.884903 194.170074 164.323029 192.234512 161.628998 190.150299 C158.934982 188.066101 156.108826 185.833252 152.947662 183.562180"></path>
<path id="" fill="rgb(254, 201, 1)" fill-opacity="1.0" stroke="rgb(255, 255, 1)" stroke-width="0.65426534" stroke-opacity="1.0" stroke-linecap="round" stroke-linejoin="round"  filling="0" d="M165.624954 241.690552 C162.827408 241.025238 160.204224 240.532837 157.016663 240.012375 C153.829102 239.491913 150.077194 238.943405 145.022202 238.165863 C141.833435 237.616760 138.421494 237.096786 134.710800 236.352417 C131.000092 235.608047 126.990639 234.639282 122.606842 233.192581 C119.904152 229.558456 119.729874 225.813751 120.346420 222.181686 C120.962967 218.549637 122.370338 215.030243 122.830948 211.846771 C124.964371 206.134247 127.180267 202.433151 129.481476 199.675278 C131.782700 196.917419 134.169235 195.102768 136.643951 193.163116 C142.243378 189.473450 146.605286 187.939529 150.250000 187.770172 C153.894730 187.600830 156.822266 188.796051 159.552948 190.564651 C165.788452 194.164459 168.136627 195.599213 169.811890 196.711578 C171.487152 197.823944 172.489517 198.613937 176.033371 200.924240 C179.250824 203.230484 182.106171 206.077576 185.007736 208.660614 C187.909302 211.243637 190.857086 213.562592 194.259430 214.812546 C199.136780 217.047867 202.650421 218.551834 204.462555 220.713486 C206.274673 222.875137 206.385254 225.694489 204.456467 230.560562 C203.835510 233.665970 202.962479 237.921188 201.106766 241.220520 C199.251038 244.519836 196.412628 246.863281 191.860870 246.145157 C187.722504 245.460175 184.591034 244.698135 180.780396 243.931519 C176.969757 243.164917 172.479950 242.393753 165.624954 241.690552"></path>
<path id="" fill="rgb(235, 60, 32)" fill-opacity="1.0" stroke="rgb(255, 255, 44)" stroke-width="2.0" stroke-opacity="1.0" stroke-linecap="round" stroke-linejoin="round"  filling="0" d="M176.786682 155.323990 C174.233490 151.797913 172.181061 149.326004 170.076324 146.942001 C167.971573 144.557999 165.814499 142.261902 163.051987 139.087433 C163.106522 136.106628 165.482269 133.512466 168.509750 131.370102 C171.537231 129.227722 175.216431 127.537148 177.877899 126.363525 C179.679199 127.204727 181.424072 130.636826 183.174744 134.427948 C184.925415 138.219070 186.681885 142.369217 188.506332 144.646515 C190.423248 148.068344 191.913544 150.545898 193.519165 153.193695 C195.124786 155.841492 196.845734 158.659546 199.223923 162.762375 C201.683838 166.591263 203.102219 168.761490 204.622955 171.194595 C206.143707 173.627686 207.766815 176.323654 210.636230 181.204010 C213.601288 186.200546 214.668716 188.275940 215.563095 189.939240 C216.457489 191.602539 217.178833 192.853760 219.451706 196.201920 C222.943939 198.859924 224.501587 202.271545 224.052765 204.615173 C223.603943 206.958801 221.148651 208.234436 216.615005 206.620453 C214.139221 202.731476 212.086243 199.438110 210.009598 196.524506 C207.932953 193.610901 205.832642 191.077087 203.262207 188.707199 C200.436432 185.024628 198.097549 182.177689 196.043106 179.640121 C193.988663 177.102554 192.218658 174.874344 190.530579 172.429199 C187.786774 169.023499 186.043564 166.893417 184.139923 164.541656 C182.236267 162.189880 180.172195 159.616425 176.786682 155.323990"></path>
<path id="" fill="rgb(211, 65, 32)" fill-opacity="1.0" stroke="rgb(255, 255, 170)" stroke-width="2.0" stroke-opacity="1.0" stroke-linecap="round" stroke-linejoin="round"  filling="0" d="M343.370514 145.642227 C340.184296 149.103180 337.023834 153.122925 333.226562 157.725067 C329.429291 162.327225 324.995209 167.511810 319.261780 173.302444 C315.651947 180.367676 311.690918 185.949478 307.226471 191.343826 C302.762024 196.738190 297.794189 201.945068 292.170807 208.260437 C286.724060 206.129166 288.355042 201.400146 292.114655 195.537598 C295.874268 189.675079 301.762512 182.679031 304.830322 176.013733 C309.311401 169.987000 312.825378 163.436783 316.496582 156.569107 C320.167816 149.701447 323.996277 142.516312 329.106323 135.219757 C332.421570 128.645569 333.933899 126.325821 336.206177 126.783264 C338.478424 127.240700 341.510620 130.475342 347.865479 135.009933 C351.736664 135.098419 356.861633 136.168259 357.797241 135.410248 C358.732849 134.652252 355.479095 132.066391 342.592896 124.843491 C329.876312 118.077660 323.311096 111.338722 322.322601 107.196617 C321.334106 103.054512 325.922302 101.509239 335.512604 105.130737 C343.102264 110.418167 346.876038 113.063507 350.940430 116.407349 C355.004791 119.751183 359.359772 123.793518 368.111847 131.874939 C375.785889 136.935211 381.210541 142.851456 382.682831 146.952057 C384.155121 151.052643 381.675049 153.337585 373.539703 151.135269 C364.947571 143.047821 360.185974 137.295624 356.182037 135.754761 C352.178131 134.213913 348.931885 136.884369 343.370514 145.642227"></path>
<path id="" fill="rgb(237, 57, 33)" fill-opacity="1.0" stroke="rgb(226, 107, 35)" stroke-width="0.56248724" stroke-opacity="1.0" stroke-linecap="round" stroke-linejoin="round"  filling="0" d="M129.795441 214.619339 C129.160583 214.054657 126.466843 213.326111 123.230942 212.254990 C119.995033 211.183868 116.216957 209.770172 113.413406 207.835205 C113.145073 204.047607 114.496933 200.466339 116.367218 197.994415 C118.237495 195.522491 120.626190 194.159912 122.431519 194.809738 C126.872353 196.362427 130.516281 198.286942 133.686142 200.007904 C136.856018 201.728867 139.551819 203.246277 142.096436 203.984802 C145.518784 205.597961 148.159546 206.781036 151.025101 208.090607 C153.890671 209.400162 156.981049 210.836212 161.302643 212.955338 C164.042480 214.421997 166.471252 215.638916 169.350311 216.970047 C172.229370 218.301178 175.558731 219.746521 180.099762 221.670044 C183.816238 223.460434 185.786743 224.663116 187.703049 225.665573 C189.619354 226.668030 191.481476 227.470245 194.981201 228.459671 C199.855682 230.779175 201.238373 233.095001 200.161728 234.472656 C199.085083 235.850327 195.549103 236.289856 190.586273 234.856766 C187.041702 233.409714 184.450821 232.336182 181.675934 231.322693 C178.901031 230.309204 175.942139 229.355759 171.661560 228.148880 C168.401215 227.052338 165.098587 225.997345 161.737793 224.898834 C158.376984 223.800323 154.958038 222.658310 151.465057 221.387711 C147.949524 220.044891 145.384415 219.376678 142.272034 218.532227 C139.159668 217.687775 135.500031 216.667084 129.795441 214.619339"></path>
<path id="" fill="rgb(222, 75, 50)" fill-opacity="1.0" stroke="rgb(255, 64, 0)" stroke-width="0.0" stroke-opacity="1.0" stroke-linecap="round" stroke-linejoin="round"  filling="0" d="M324.217102 225.020096 C327.556885 223.946686 330.239960 222.714325 333.459961 221.132874 C336.679932 219.551422 340.436829 217.620865 345.924286 215.151062 C350.204041 212.653748 353.404846 211.052826 356.838470 209.520721 C360.272095 207.988602 363.938538 206.525299 369.149536 204.303177 C373.680420 202.446198 377.489960 200.534439 381.178497 198.551483 C384.867035 196.568512 388.434601 194.514343 392.481537 192.372559 C395.976929 189.785248 399.924683 186.199875 403.164978 184.918610 C406.405243 183.637344 408.938110 184.660202 409.603729 191.289352 C411.617188 196.972488 413.574829 202.010437 413.243103 205.291031 C412.911407 208.571625 410.290405 210.094849 403.146637 208.748520 C397.808350 209.866867 394.236053 210.527542 391.297577 211.304504 C388.359131 212.081467 386.054504 212.974731 383.251587 214.558258 C378.932770 215.994461 375.539032 217.126923 371.552155 218.339630 C367.565277 219.552322 362.985260 220.845245 356.293915 222.602371 C352.841797 224.483734 350.302856 225.422119 347.185791 226.342758 C344.068756 227.263397 340.373596 228.166321 334.609039 229.976715 C331.258728 231.336700 327.867065 232.434891 324.368835 233.598892 C320.870636 234.762878 317.265869 235.992706 313.489380 237.615936 C311.620300 234.992554 311.435760 232.898819 313.151733 230.933319 C314.867737 228.967804 318.484192 227.130539 324.217102 225.020096"></path>
<path id="" fill="rgb(222, 74, 49)" fill-opacity="1.0" stroke="rgb(163, 0, 10)" stroke-width="0.1918606" stroke-opacity="1.0" stroke-linecap="round" stroke-linejoin="round"  filling="0" d="M361.686554 163.394012 C365.877197 160.764709 368.086273 159.298111 370.250366 157.504547 C372.414490 155.710968 374.533630 153.590424 378.544373 149.653214 C382.163818 145.959442 384.913513 146.747406 387.284912 149.387253 C389.656281 152.027084 391.649353 156.518784 393.755463 160.232452 C395.932648 165.559082 394.597168 168.208939 391.710419 169.558884 C388.823669 170.908844 384.385681 170.958893 380.357880 171.085938 C377.907898 171.279007 375.587097 172.182571 372.812012 173.814468 C370.036896 175.446365 366.807495 177.806595 362.540283 180.913010 C357.845947 184.428864 354.211639 187.242844 350.850342 189.678452 C347.489044 192.114044 344.400757 194.171265 340.798523 196.173615 C334.823669 200.344177 332.252930 201.941757 330.268311 203.171066 C328.283691 204.400360 326.885223 205.261414 323.254944 207.958939 C319.673279 210.671936 315.663879 214.599304 311.914032 217.096207 C308.164185 219.593124 304.673889 220.659607 302.130432 217.650864 C302.975159 214.138733 306.000824 211.457260 309.567688 208.751511 C313.134583 206.045761 317.242645 203.315735 320.252197 199.706436 C323.238373 197.095856 326.357574 194.314743 329.535889 191.400772 C332.714172 188.486786 335.951599 185.439972 339.174133 182.298004 C343.959595 178.228821 347.210815 175.439880 350.454132 172.699707 C353.697449 169.959534 356.932800 167.268127 361.686554 163.394012"></path>
<path id="" fill="rgb(48, 87, 75)" fill-opacity="1.0" stroke="rgb(250, 248, 255)" stroke-width="2.0" stroke-opacity="1.0" stroke-linecap="round" stroke-linejoin="round"  filling="0" d="M210.539032 350.290558 C213.351547 352.412231 216.312683 353.077576 218.741119 353.878143 C221.169556 354.678711 223.065308 355.614563 223.747040 358.277161 C222.525787 362.592773 220.868866 366.424683 219.316620 369.796387 C217.764389 373.168091 216.316864 376.079651 215.514435 378.554474 C211.362213 380.168701 208.766525 379.990356 205.842728 379.764709 C202.918930 379.539093 199.667023 379.266174 194.202332 380.691254 C191.618515 380.809937 187.784302 382.077057 183.729721 383.371490 C179.675125 384.665955 175.400146 385.987671 171.934814 386.215515 C169.170471 385.640137 166.310669 383.641876 163.342728 381.170258 C160.374786 378.698669 157.298676 375.753693 154.101730 373.284912 C150.661835 370.445496 148.799866 368.232269 147.070648 366.167450 C145.341431 364.102600 143.744949 362.186157 140.836044 359.940369 C137.734406 357.093903 138.185699 353.364288 139.958939 350.093323 C141.732193 346.822388 144.827423 344.010071 147.013641 342.998230 C151.744370 344.020081 155.704468 345.400879 159.147995 345.911987 C162.591522 346.423096 165.518463 346.064453 168.182877 343.607361 C171.410889 341.847290 175.146423 340.534821 178.953049 339.770142 C182.759689 339.005432 186.637421 338.788513 190.149872 339.219543 C194.587936 339.619324 197.623962 340.415771 200.581116 342.097931 C203.538254 343.780090 206.416504 346.347961 210.539032 350.290558"></path>
<path id="" fill="rgb(79, 131, 71)" fill-opacity="1.0" stroke="rgb(0, 0, 156)" stroke-width="2.0" stroke-opacity="1.0" stroke-linecap="round" stroke-linejoin="round"  filling="0" d="M358.478638 373.094055 C356.414429 374.705750 354.565918 375.926697 352.559570 377.279724 C350.553253 378.632782 348.389099 380.117920 345.693726 382.258057 C342.987396 384.339630 341.114929 386.002991 339.089264 386.664948 C337.063599 387.326874 334.884735 386.987366 331.565613 385.063232 C328.079956 384.095398 325.922302 383.287598 323.752106 382.460358 C321.581879 381.633118 319.399078 380.786469 315.863098 379.740936 C313.103058 378.921021 310.219635 378.230530 308.020691 376.970459 C305.821777 375.710388 304.307312 373.880676 304.285187 370.782288 C303.644470 368.059265 303.468597 365.378876 304.034729 362.870728 C304.600891 360.362610 305.909058 358.026703 308.236542 355.992645 C310.456360 354.205139 311.937378 352.678833 313.569214 351.324738 C315.201080 349.970642 316.983826 348.788757 319.807068 347.690063 C322.017395 346.910522 324.134155 346.239227 326.576660 345.978607 C329.019196 345.717987 331.787476 345.868042 335.300781 346.731140 C338.455627 347.691315 341.009216 348.701965 343.332794 349.853027 C345.656372 351.004089 347.749939 352.295593 349.984680 353.817444 C352.314453 355.429962 354.829010 356.912933 357.415771 358.275299 C360.002563 359.637695 362.661499 360.879456 365.279999 362.009644 C367.468353 363.228638 367.462494 365.004242 366.062317 366.972839 C364.662140 368.941467 361.867615 371.103058 358.478638 373.094055"></path>
<path id="" fill="rgb(0, 35, 72)" fill-opacity="1.0" stroke="rgb(113, 186, 152)" stroke-width="0.99816525" stroke-opacity="1.0" stroke-linecap="round" stroke-linejoin="round"  filling="0" d="M326.148621 255.128616 C332.174255 255.130768 336.711670 255.332565 341.253448 255.437256 C345.795258 255.541946 350.341431 255.549545 356.384613 255.163300 C362.302094 255.636719 367.511383 255.636520 372.776917 255.571289 C378.042480 255.506058 383.364319 255.375793 389.506866 255.589081 C396.915649 254.686768 401.376831 255.277832 405.710327 256.205933 C410.043823 257.134064 414.249634 258.399261 421.147614 258.845245 C427.905090 259.010712 432.535492 257.489349 435.059082 254.961624 C437.582642 252.433899 437.999390 248.899780 436.329529 245.039764 C433.727386 246.740128 434.516571 249.893066 435.255035 253.207581 C435.993500 256.522095 436.681213 259.998230 433.876160 262.344910 C427.767517 263.238403 424.023865 261.275513 421.118439 259.348877 C418.213013 257.422241 416.145874 255.531860 413.390259 256.570343 C407.864655 260.340698 405.186768 262.337799 401.550385 263.756348 C397.913971 265.174896 393.319092 266.014893 383.959442 267.471100 C376.650635 267.253723 371.517487 265.508392 367.287323 264.189972 C363.057159 262.871552 359.729980 261.980042 356.033051 263.470398 C349.777161 266.722900 345.702087 268.172546 341.884003 268.244171 C338.065918 268.315796 334.504822 267.009399 329.276886 264.749908 C323.903870 260.055664 318.778198 257.595184 317.167572 256.335846 C315.556946 255.076508 317.461395 255.018311 326.148621 255.128616"></path>
<path id="" fill="rgb(8, 40, 75)" fill-opacity="1.0" stroke="rgb(204, 255, 255)" stroke-width="1.37687421" stroke-opacity="1.0" stroke-linecap="round" stroke-linejoin="round"  filling="0" d="M191.363129 255.057648 C194.597778 255.257187 197.697662 255.563446 201.290894 256.404144 C204.884140 257.244843 208.970749 258.619965 214.178848 260.957245 C217.005478 265.573303 216.475418 268.337860 213.985748 269.132263 C211.496063 269.926636 207.046783 268.750854 202.034958 265.486267 C197.089355 264.633423 193.151215 263.876373 189.452347 263.631775 C185.753479 263.387146 182.293900 263.654968 178.305420 264.851868 C172.665619 266.661011 169.208679 267.881409 166.067795 267.995422 C162.926895 268.109436 160.102036 267.117096 155.726379 264.500732 C150.833069 262.774292 146.929993 262.826965 143.137436 263.648590 C139.344879 264.470184 135.662872 266.060730 131.211731 267.409943 C126.288162 268.301300 123.652542 267.688232 121.362457 266.700500 C119.072372 265.712769 117.127808 264.350311 113.586349 263.742889 C105.390656 263.427979 102.267227 261.203094 102.706726 259.073669 C103.146233 256.944244 107.148674 254.910294 113.204727 254.977219 C117.410118 254.952820 121.186081 255.111694 124.925613 255.206268 C128.665146 255.300827 132.368256 255.331085 136.427963 255.049408 C140.605560 254.962311 144.893738 255.004974 149.360046 255.054459 C153.826370 255.103943 158.470856 255.160248 163.361069 255.100403 C169.342468 255.398849 172.690659 255.430664 176.369644 255.366623 C180.048645 255.302582 184.058456 255.142670 191.363129 255.057648"></path>
<path id="" fill="rgb(0, 24, 66)" fill-opacity="1.0" stroke="rgb(255, 255, 255)" stroke-width="2.0" stroke-opacity="1.0" stroke-linecap="round" stroke-linejoin="round"  filling="0" d="M349.114349 316.944092 C347.303284 319.226624 345.179230 321.155823 342.888885 323.182526 C340.598572 325.209229 338.141907 327.333435 335.665588 330.005981 C332.700073 332.889526 331.098328 334.137085 329.237183 335.590332 C327.376007 337.043549 325.255463 338.702454 321.252350 342.408691 C318.584595 344.697021 316.681641 346.747864 314.867767 349.040558 C313.053894 351.333282 311.329102 353.867889 309.017731 357.123718 C307.608765 360.014984 306.456055 363.288879 305.159882 365.623749 C303.863708 367.958649 302.424042 369.354553 300.441223 368.489807 C296.748718 365.557068 293.148834 363.492065 290.877838 361.700287 C288.606812 359.908508 287.664673 358.389954 289.287689 356.550140 C292.604828 352.513367 294.751404 351.357178 296.713409 350.864014 C298.675415 350.370880 300.452881 350.540771 303.031799 349.156158 C306.346130 346.633789 308.148651 345.752258 309.966278 344.395813 C311.783936 343.039337 313.616638 341.207947 316.991302 336.785797 C318.618286 334.003906 319.951721 331.522095 321.220245 328.821747 C322.488770 326.121429 323.692383 323.202576 325.059753 319.546661 C326.457336 317.638306 327.709595 314.977905 329.602783 312.379883 C331.495972 309.781921 334.030151 307.246338 337.991669 305.587769 C341.774750 307.289337 344.440552 308.327148 346.218048 309.840210 C347.995514 311.353271 348.884644 313.341553 349.114349 316.944092"></path>
<path id="" fill="rgb(1, 35, 83)" fill-opacity="1.0" stroke="rgb(0, 32, 77)" stroke-width="1.06021655" stroke-opacity="1.0" stroke-linecap="round" stroke-linejoin="round"  filling="0" d="M193.716644 300.111420 C196.147980 300.125153 198.471344 302.893524 199.458145 306.132111 C200.444946 309.370728 200.095154 313.079559 197.180176 314.974243 C192.512299 313.987610 189.150116 312.416107 186.191193 311.277954 C183.232254 310.139771 180.676575 309.434998 177.621689 310.181854 C174.138306 310.578430 171.329590 311.561920 168.471588 312.847382 C165.613586 314.132874 162.706329 315.720337 159.025833 317.324951 C154.825195 318.054932 151.607147 317.284454 148.556274 316.012939 C145.505402 314.741425 142.621735 312.968872 139.089905 311.694733 C135.870834 309.895569 132.149307 309.741058 128.356903 310.538208 C124.564499 311.335388 120.701218 313.084167 117.198639 315.091583 C115.463409 313.966553 115.335648 311.867279 115.032043 309.776489 C114.728432 307.685730 114.248978 305.603455 111.810364 304.512451 C112.095581 303.442993 114.539650 302.429016 117.937561 301.418671 C121.335464 300.408325 125.687210 299.401642 129.787781 298.346802 C133.495697 297.311890 136.738022 297.640137 140.011398 298.889923 C143.284775 300.139709 146.589203 302.311096 150.421280 304.962524 C153.951843 305.277527 157.615631 304.857117 161.369781 304.061523 C165.123932 303.265961 168.968445 302.095276 172.860413 300.909760 C176.540466 298.766266 179.692947 297.872314 182.956192 297.861420 C186.219452 297.850525 189.593475 298.722656 193.716644 300.111420"></path>
<path id="" fill="rgb(4, 36, 86)" fill-opacity="1.0" stroke="rgb(1, 35, 80)" stroke-width="1.51349318" stroke-opacity="1.0" stroke-linecap="round" stroke-linejoin="round"  filling="0" d="M195.716400 335.245544 C195.690994 335.809662 194.077057 334.671387 191.355484 333.509521 C188.633911 332.347656 184.804688 331.162170 180.348709 331.631897 C175.984634 332.441864 173.923431 333.361053 171.738770 334.487427 C169.554108 335.613800 167.245987 336.947357 162.388092 338.586090 C157.760681 338.697693 155.422195 337.899353 153.052124 336.588318 C150.682037 335.277283 148.280365 333.453552 143.526566 331.514282 C139.301331 331.144653 135.452576 331.194916 132.616913 331.588470 C129.781250 331.982056 127.958702 332.718872 127.785919 333.722321 C127.578781 333.140625 125.040756 330.831543 123.528816 328.211853 C122.016876 325.592194 121.531006 322.661987 125.428177 320.838104 C129.787720 319.613525 132.575485 319.563171 134.756088 320.129791 C136.936691 320.696411 138.510147 321.880035 140.441071 323.123383 C143.927887 324.566040 145.661072 325.661316 147.953125 326.353180 C150.245178 327.045013 153.096100 327.333435 158.818405 327.162415 C163.084595 326.258972 165.400253 325.517853 167.330063 324.601562 C169.259888 323.685303 170.803833 322.593903 173.526611 320.989899 C177.593094 320.338928 181.649338 319.818176 185.320587 320.032257 C188.991821 320.246338 192.278076 321.195282 194.804596 323.483643 C195.171326 327.187317 194.035309 330.054565 193.489594 332.032532 C192.943878 334.010468 192.988464 335.099091 195.716400 335.245544"></path>
<path id="" fill="rgb(9, 42, 85)" fill-opacity="1.0" stroke="rgb(197, 255, 255)" stroke-width="2.0" stroke-opacity="1.0" stroke-linecap="round" stroke-linejoin="round"  filling="0" d="M397.830688 314.088928 C394.376678 314.125214 391.689087 313.402618 388.973358 313.276672 C386.257629 313.150726 383.513794 313.621460 379.947266 316.044342 C376.260895 317.985229 372.593628 319.195007 368.842224 319.582825 C365.090790 319.970642 361.255249 319.536469 357.232269 318.189453 C353.310150 316.731323 349.869324 315.036957 346.566956 313.449921 C343.264557 311.862854 340.100586 310.383118 336.732178 309.354309 C331.050171 308.353333 327.605286 309.112976 324.733368 310.136261 C321.861450 311.159546 319.562439 312.446472 316.172211 312.500153 C313.010010 308.705933 311.095825 305.888458 311.340393 303.372314 C311.584961 300.856140 313.988251 298.641296 319.460968 296.052246 C325.631287 295.616638 327.947205 295.337646 330.044952 295.214844 C332.142700 295.092072 334.022278 295.125488 339.319916 295.314789 C343.368408 295.277405 346.619507 295.192871 350.019562 295.693329 C353.419617 296.193787 356.968628 297.279175 361.612946 299.581604 C365.412598 301.441467 368.951782 302.610138 372.582581 302.704315 C376.213409 302.798492 379.935852 301.818237 384.102020 299.380249 C388.086487 297.760620 392.537292 295.544006 396.100769 294.779236 C399.664276 294.014496 402.340454 294.701660 402.775757 298.889618 C402.383362 303.115082 401.028809 307.054443 399.831451 309.867676 C398.634125 312.680908 397.594055 314.367981 397.830688 314.088928"></path>
<path id="" fill="rgb(9, 42, 80)" fill-opacity="1.0" stroke="rgb(255, 255, 255)" stroke-width="2.0" stroke-opacity="1.0" stroke-linecap="round" stroke-linejoin="round"  filling="0" d="M195.511658 339.222656 C198.363235 337.710663 199.884125 338.776855 201.165588 340.983917 C202.447037 343.190979 203.489075 346.538879 205.382919 349.590332 C206.226990 354.022217 204.680847 355.136719 202.111603 355.001648 C199.542343 354.866608 195.950012 353.482056 192.701706 352.915863 C187.574463 352.425262 184.764587 352.247375 181.909607 352.381775 C179.054611 352.516144 176.154495 352.962769 170.846725 353.721130 C167.609589 353.766022 164.835907 354.197418 162.486099 355.642975 C160.136292 357.088562 158.210327 359.548279 156.668579 363.649902 C154.521439 368.951660 151.878540 369.313690 149.384857 367.927490 C146.891174 366.541321 144.546692 363.406921 142.996429 361.715881 C139.452179 356.669006 138.213760 355.027924 137.017365 353.628876 C135.820984 352.229858 134.666656 351.072876 131.290588 346.994293 C128.110352 342.961670 128.376343 340.638855 130.471741 339.459717 C132.567139 338.280609 136.491943 338.245209 140.629303 338.787445 C143.579926 339.500671 146.035004 340.760712 148.891434 342.142670 C151.747864 343.524597 155.005646 345.028442 159.561661 346.229187 C162.795929 346.379059 165.929642 345.503296 169.062912 344.187164 C172.196182 342.871033 175.329010 341.114532 178.561493 339.502899 C181.481216 337.270996 183.543243 337.778442 185.963104 338.555115 C188.382950 339.331787 191.160629 340.377686 195.511658 339.222656"></path>
<path id="" fill="rgb(0, 32, 81)" fill-opacity="1.0" stroke="rgb(0, 35, 82)" stroke-width="1.53885269" stroke-opacity="1.0" stroke-linecap="round" stroke-linejoin="round"  filling="0" d="M194.591644 291.463470 C192.080322 290.312531 189.053070 289.277618 185.601715 288.840118 C182.150360 288.402618 178.274902 288.562531 174.067245 289.801270 C169.493683 291.093933 166.746185 292.929688 163.770264 294.059967 C160.794342 295.190247 157.590012 295.615051 152.102798 294.085724 C148.482101 292.496033 145.461884 290.702332 142.070694 289.472870 C138.679489 288.243408 134.917313 287.578186 129.812683 288.245483 C125.112869 289.113037 120.812111 290.502350 117.619949 291.981598 C114.427780 293.460876 112.344208 295.030060 112.078766 296.257416 C111.772293 294.104614 109.914703 290.229309 109.278633 287.478119 C108.642563 284.726959 109.228004 283.099915 113.807602 285.443695 C118.425781 286.558777 120.967575 287.745300 123.379044 288.432068 C125.790497 289.118866 128.071625 289.305908 132.168457 288.422150 C135.847992 286.553650 138.387360 284.931580 141.253281 284.150604 C144.119202 283.369629 147.311676 283.429779 152.297424 284.925812 C156.349564 286.324799 159.717896 287.803497 163.428009 288.288544 C167.138123 288.773621 171.190033 288.265045 176.609329 285.689514 C181.041748 284.683868 184.819244 283.348389 188.641586 282.433044 C192.463928 281.517731 196.331085 281.022552 200.942780 281.697540 C203.721146 283.987488 205.227890 288.051208 204.492783 290.731323 C203.757675 293.411469 200.780701 294.707977 194.591644 291.463470"></path>
<path id="" fill="rgb(5, 36, 86)" fill-opacity="1.0" stroke="rgb(0, 30, 75)" stroke-width="1.5880729" stroke-opacity="1.0" stroke-linecap="round" stroke-linejoin="round"  filling="0" d="M143.489792 268.963409 C146.519440 268.921082 149.186462 269.502808 152.080444 270.362762 C154.974411 271.222717 158.095337 272.360962 162.032791 273.431702 C165.861969 273.518555 168.076126 273.963562 170.872940 273.635040 C173.669754 273.306488 177.049225 272.204346 183.209030 269.196869 C188.605713 268.944824 192.621155 268.048035 196.050125 267.987122 C199.479095 267.926208 202.321594 268.701202 205.372375 271.792725 C202.070892 274.885406 199.125168 275.390900 195.354462 275.254333 C191.583740 275.117737 186.988037 274.339111 180.386612 274.863556 C176.148193 275.600708 173.592041 277.141663 170.810181 278.001373 C168.028336 278.861084 165.020782 279.039551 159.879547 277.051697 C154.587128 275.969421 151.557739 274.407349 148.861465 273.509552 C146.165192 272.611725 143.802032 272.378174 139.842072 273.952972 C135.967865 275.937012 132.707367 277.569885 129.473969 278.225830 C126.240570 278.881775 123.034286 278.560791 119.268524 276.637085 C116.027077 275.136169 114.019966 274.703979 112.365540 274.430756 C110.711121 274.157532 109.409378 274.043274 107.578674 273.178223 C106.117569 268.650879 108.039917 268.522430 111.323959 269.632111 C114.607994 270.741821 119.253716 273.089661 123.239349 273.514862 C129.436401 273.806396 132.653748 273.643677 135.244476 272.920502 C137.835190 272.197327 139.799286 270.913696 143.489792 268.963409"></path>
<path id="" fill="rgb(3, 35, 79)" fill-opacity="1.0" stroke="rgb(243, 255, 255)" stroke-width="1.83385885" stroke-opacity="1.0" stroke-linecap="round" stroke-linejoin="round"  filling="0" d="M400.026550 292.063293 C396.708069 291.473633 393.865051 291.297211 391.055847 291.839233 C388.246643 292.381256 385.471283 293.641693 382.288116 295.925751 C378.928833 297.529846 375.446747 298.240112 371.990692 298.178864 C368.534668 298.117645 365.104675 297.284912 361.849670 295.802948 C359.116821 293.388123 356.172760 292.162964 352.928894 291.769531 C349.685028 291.376099 346.141388 291.814392 342.209442 292.726471 C338.240753 293.521851 334.425232 295.812744 331.036407 297.032227 C327.647583 298.251709 324.685455 298.399780 322.423584 294.909485 C321.342255 292.545166 320.124481 287.785736 320.518250 284.070068 C320.912018 280.354370 322.917328 277.682465 328.282166 279.493134 C332.473602 280.722778 334.331177 282.049591 336.256561 283.045074 C338.181946 284.040558 340.175171 284.704681 344.637939 284.608948 C348.469543 283.629211 351.096558 282.225647 354.051331 281.315826 C357.006073 280.406036 360.288513 279.990051 365.430908 280.985443 C369.199890 282.040375 371.892090 283.670288 374.826538 284.665405 C377.761017 285.660522 380.937744 286.020874 385.675842 284.536652 C389.308319 283.230988 392.917053 281.617462 396.326080 280.755127 C399.735077 279.892792 402.944336 279.781677 405.777832 281.480835 C406.364532 284.657471 406.048279 288.042206 405.024536 290.263245 C404.000824 292.484253 402.269653 293.541565 400.026550 292.063293"></path>
<path id="" fill="rgb(3, 36, 79)" fill-opacity="1.0" stroke="rgb(0, 187, 255)" stroke-width="0.0" stroke-opacity="1.0" stroke-linecap="round" stroke-linejoin="round"  filling="0" d="M390.867279 336.336884 C388.528687 336.780151 385.681519 339.173706 382.855652 342.501099 C380.029785 345.828522 377.225250 350.089844 374.971924 354.268677 C373.409668 359.229584 371.696869 363.924957 369.209015 366.181915 C366.721161 368.438873 363.458252 368.257446 358.795868 363.464722 C355.426758 359.837646 351.975647 356.843628 348.103210 354.785919 C344.230774 352.728210 339.937012 351.606812 334.882538 351.724945 C327.521545 351.795593 322.898285 352.159485 318.945801 352.968170 C314.993317 353.776825 311.711609 355.030243 307.033752 356.879913 C302.654541 358.204926 300.439087 356.438904 300.818665 353.737305 C301.198242 351.035706 304.172852 347.398499 310.173920 344.981140 C315.888000 343.328430 318.972595 342.711334 321.661072 342.164856 C324.349579 341.618378 326.641968 341.142517 330.771637 339.772339 C336.008057 338.392609 338.314880 337.912170 340.716003 338.324738 C343.117126 338.737335 345.612549 340.042969 351.226105 342.235443 C355.263367 344.589294 357.050415 346.174805 359.428589 346.314301 C361.806763 346.453796 364.776093 345.147278 371.177917 341.717010 C378.187897 340.118744 381.508514 339.829285 384.448853 338.997009 C387.389191 338.164764 389.949219 336.789673 395.438080 333.020142 C400.000885 331.159302 401.848816 329.369873 401.060760 329.354919 C400.272675 329.339996 396.848572 331.099609 390.867279 336.336884"></path>
<path id="" fill="rgb(0, 26, 70)" fill-opacity="1.0" stroke="rgb(242, 255, 255)" stroke-width="1.37110639" stroke-opacity="1.0" stroke-linecap="round" stroke-linejoin="round"  filling="0" d="M332.790192 270.250763 C336.425842 270.633667 338.769165 271.035431 341.289032 270.981171 C343.808899 270.926910 346.505249 270.416626 350.846893 268.975464 C353.420288 267.347076 356.255646 266.449341 359.169678 266.187103 C362.083679 265.924835 365.076355 266.298035 367.964355 267.211517 C372.045563 268.809753 373.867371 269.846100 375.818146 270.401337 C377.768921 270.956543 379.848694 271.030609 384.445801 270.704224 C388.821167 269.872406 391.031952 268.442139 393.418610 267.347473 C395.805298 266.252838 398.367859 265.493774 403.446747 266.004425 C407.701355 267.504395 408.991516 270.437836 408.582031 272.854736 C408.172546 275.271606 406.063354 277.171936 403.519226 276.605621 C397.442688 277.482239 394.969513 277.778015 392.914764 278.316071 C390.859985 278.854126 389.223602 279.634430 384.820587 281.480103 C379.876740 282.379181 377.640076 282.071838 375.363922 281.172028 C373.087769 280.272217 370.772095 278.779907 365.670197 277.309021 C362.323730 276.912079 360.499023 276.671082 358.258881 277.029144 C356.018738 277.387238 353.363159 278.344391 348.354889 280.343781 C346.011719 281.152893 342.576569 282.052277 338.730743 282.461731 C334.884949 282.871185 330.628479 282.790680 326.642639 281.639984 C323.574921 279.811798 323.282684 276.546234 324.671936 273.946838 C326.061188 271.347473 329.131958 269.414246 332.790192 270.250763"></path>
<path id="" fill="rgb(10, 38, 89)" fill-opacity="1.0" stroke="rgb(110, 180, 255)" stroke-width="0.0" stroke-opacity="1.0" stroke-linecap="round" stroke-linejoin="round"  filling="0" d="M297.927856 411.420898 C295.496399 413.741028 293.443115 415.107178 290.841125 415.724976 C288.239136 416.342804 285.088501 416.212311 280.462372 415.539124 C277.014893 414.692932 273.600555 413.422272 270.161316 412.087524 C266.722046 410.752777 263.257874 409.353943 259.710754 408.251312 C255.629684 406.562073 252.273758 405.847137 249.715057 404.590271 C247.156342 403.333405 245.394836 401.534576 244.502609 397.677490 C244.063202 392.630249 245.560043 389.829529 248.223160 388.174652 C250.886276 386.519806 254.715668 386.010834 258.941376 385.547119 C262.325623 385.575531 264.293640 383.444366 264.632294 380.409912 C264.970947 377.375427 263.680237 373.437622 260.547058 369.852753 C260.844513 367.371216 262.636841 365.048645 264.263153 364.100037 C265.889465 363.151428 267.349731 363.576843 266.983063 366.591187 C266.935242 371.182190 266.880493 373.665588 267.961060 375.716797 C269.041595 377.768005 271.257446 379.387085 275.750702 382.249359 C279.148804 384.822083 279.558289 385.852356 278.690125 386.602966 C277.821930 387.353577 275.676086 387.824524 273.963623 389.278534 C274.299255 391.599243 276.018341 392.534760 278.689178 393.068146 C281.360016 393.601562 284.982605 393.732849 289.125244 394.445129 C292.187286 395.735382 295.504272 397.079468 297.497589 399.550903 C299.490906 402.022339 300.160522 405.621155 297.927856 411.420898"></path>
<path id="" fill="rgb(8, 39, 84)" fill-opacity="1.0" stroke="rgb(255, 255, 255)" stroke-width="1.79322922" stroke-opacity="1.0" stroke-linecap="round" stroke-linejoin="round"  filling="0" d="M399.052521 319.565674 C395.528595 319.841614 393.842377 322.319153 392.420715 325.552795 C390.999054 328.786469 389.841919 332.776306 387.376160 336.076813 C384.213440 337.218811 380.595459 337.122192 377.001465 337.390381 C373.407471 337.658600 369.837433 338.291626 366.770569 340.892914 C361.756104 341.616913 358.878113 341.115906 355.737732 339.920929 C352.597351 338.725952 349.194519 336.836945 343.130371 334.784943 C339.348999 333.455688 334.628906 334.407043 330.553589 335.949097 C326.478271 337.491150 323.047668 339.623932 321.845276 340.657501 C319.651978 338.685394 320.494995 334.246887 322.466492 330.147766 C324.437988 326.048645 327.537964 322.288940 329.858704 321.674438 C337.729187 319.110962 340.799591 318.372314 342.993103 318.265686 C345.186646 318.159027 346.503235 318.684357 350.866150 318.648865 C355.430603 319.646790 357.192749 321.237488 359.511566 322.342957 C361.830383 323.448456 364.705933 324.068726 371.497253 323.125763 C375.435242 322.718933 377.154663 321.757141 379.248474 320.561523 C381.342316 319.365906 383.810608 317.936401 389.246399 316.594177 C395.459015 318.053833 398.816406 319.492462 400.743042 321.516968 C402.669678 323.541473 403.165497 326.151855 403.654968 329.955048 C401.305054 331.719177 400.624756 328.547485 400.296753 325.221924 C399.968750 321.896393 399.993103 318.416992 399.052521 319.565674"></path>
<path id="" fill="rgb(255, 255, 255)" fill-opacity="1.0" stroke="rgb(0, 41, 87)" stroke-width="2.0" stroke-opacity="1.0" stroke-linecap="round" stroke-linejoin="round"  filling="0" d="M349.369232 385.879517 C343.001587 390.419800 336.362915 395.788055 328.404297 400.635529 C320.445679 405.483002 311.167114 409.809662 299.519592 412.266693 C285.152405 415.712097 273.474213 417.760010 263.365753 418.456757 C253.257309 419.153503 244.718582 418.499084 236.630280 416.539886 C238.052643 419.580933 242.203415 418.515381 243.047043 415.599854 C243.890686 412.684296 241.427185 407.918762 229.621017 403.559845 C218.686737 398.470520 208.487854 396.192078 198.703842 393.651093 C188.919846 391.110107 179.550720 388.306641 170.275940 382.167358 C166.012604 381.412689 174.536957 384.886932 185.378754 389.084045 C196.220551 393.281128 209.379776 398.201080 214.386169 400.337799 C228.943329 406.263977 238.798920 409.575562 244.844070 411.336121 C250.889221 413.096710 253.123932 413.306274 252.439331 413.028473 C255.030151 415.556335 262.627380 415.123169 272.052460 413.473755 C281.477539 411.824371 292.730408 408.958801 302.632568 406.621857 C317.071960 400.653229 326.261353 396.388611 333.664459 392.004700 C341.067535 387.620789 346.684296 383.117584 353.978333 376.671753 C362.943420 369.367950 371.309418 359.017822 377.757843 350.842712 C384.206238 342.667633 388.737061 336.667603 390.031708 338.063965 C389.017090 343.424194 385.075073 349.976685 378.274933 357.889771 C371.474792 365.802887 361.816467 375.076660 349.369232 385.879517"></path>
<path id="" fill="rgb(239, 111, 20)" fill-opacity="1.0" stroke="rgb(0, 6, 41)" stroke-width="1.61660135" stroke-opacity="1.0" stroke-linecap="round" stroke-linejoin="round"  filling="0" d="M340.646240 415.796722 C329.875061 425.101746 311.774292 430.743286 292.649200 434.175079 C273.524078 437.606873 253.374649 438.828857 238.506134 439.294800 C231.093811 440.556946 238.229858 436.489838 254.241516 430.267242 C270.253174 424.044617 295.140472 415.666504 323.230652 408.306610 C348.997284 392.137970 360.471558 383.639099 360.344574 381.553711 C360.217590 379.468353 348.489380 383.796478 327.851013 393.281860 C307.969238 399.039856 288.548309 403.486328 274.579895 406.119659 C260.611450 408.752991 252.095520 409.573212 254.023712 408.078735 C263.091064 397.367340 267.667816 393.522583 268.598450 393.593048 C269.529053 393.663544 266.813538 397.649231 261.296387 402.598785 C267.113281 406.408203 274.231537 406.413452 282.191284 404.996155 C290.151001 403.578857 298.952209 400.739014 308.135101 398.858307 C326.300934 393.842987 340.782776 389.427368 353.103699 383.174347 C365.424591 376.921326 375.584595 368.830902 385.106750 356.465973 C400.268982 333.441040 405.892273 319.883667 409.701050 305.628479 C413.509827 291.373260 415.504028 276.420227 423.408081 250.603973 C433.259216 244.949371 434.951752 255.701202 433.290527 271.483215 C431.629303 287.265259 426.614319 308.077454 423.050476 322.543579 C410.695282 345.951172 400.805756 363.055237 388.649261 377.411987 C376.492737 391.768738 362.069275 403.378235 340.646240 415.796722"></path>
<path id="" fill="rgb(17, 50, 90)" fill-opacity="1.0" stroke="rgb(237, 255, 255)" stroke-width="2.0" stroke-opacity="1.0" stroke-linecap="round" stroke-linejoin="round"  filling="0" d="M266.461090 403.839111 C261.334351 404.409363 257.285126 404.192413 252.826172 403.521973 C248.367233 402.851501 243.498566 401.727509 236.732925 400.483612 C235.982864 401.561340 239.720276 403.316956 244.424194 405.383636 C249.128098 407.450348 254.798492 409.828094 257.914398 412.150055 C251.721130 413.380554 246.587738 413.863434 241.603806 413.626617 C236.619858 413.389771 231.785370 412.433228 226.189926 410.784760 C220.850403 409.535950 216.263962 408.252045 211.634033 406.743927 C207.004089 405.235779 202.330658 403.503418 196.817108 401.357574 C189.581573 398.943665 184.959320 395.838013 184.040741 393.709351 C183.122162 391.580719 185.907272 390.429138 193.486481 391.923340 C199.953400 393.269012 203.418213 394.996918 206.583115 395.832001 C209.748016 396.667084 212.613037 396.609314 217.880325 394.383667 C222.915192 392.168457 225.985504 391.129974 229.203476 390.985291 C232.421432 390.840576 235.787048 391.589661 241.412552 392.949646 C245.877045 394.233093 247.294952 395.645386 248.198792 395.739929 C249.102646 395.834442 249.492447 394.611176 251.900772 390.623474 C256.062744 389.114014 260.181885 387.600891 263.775085 387.017242 C267.368286 386.433594 270.435486 386.779419 272.493652 388.987823 C272.781616 393.351013 273.594879 396.539154 273.175476 398.898865 C272.756042 401.258545 271.103943 402.789795 266.461090 403.839111"></path>
<path id="" fill="rgb(0, 27, 73)" fill-opacity="1.0" stroke="rgb(0, 21, 77)" stroke-width="0.43877062" stroke-opacity="1.0" stroke-linecap="round" stroke-linejoin="round"  filling="0" d="M288.046417 377.063110 C288.622162 374.422821 290.280640 372.236389 292.767365 370.197113 C295.254089 368.157867 298.569092 366.265808 302.457916 364.214264 C305.682892 361.013855 309.448364 360.414551 312.335876 360.720459 C315.223389 361.026337 317.232941 362.237427 316.946014 362.657684 C311.138611 365.091797 307.857056 367.869202 307.796783 370.083405 C307.736511 372.297577 310.897583 373.948578 317.975464 374.129913 C323.618774 374.662598 329.173828 374.305359 334.225769 374.432495 C339.277740 374.559601 343.826599 375.171082 347.457520 377.641083 C348.615295 380.084167 344.210999 381.169800 338.874786 381.411957 C333.538574 381.654083 327.270447 381.052704 324.700439 380.121674 C317.381592 379.742859 312.664948 378.623505 309.135162 378.326111 C305.605377 378.028687 303.262451 378.553253 300.691071 381.462250 C297.643738 387.436218 297.300537 390.557129 296.823090 391.685303 C296.345612 392.813477 295.733856 391.948944 292.149323 389.951996 C291.842468 387.401978 292.711670 385.666992 291.837738 385.296326 C290.963837 384.925629 288.346802 385.919189 281.067444 388.826294 C275.812622 388.865051 269.568512 389.614075 265.449646 389.329895 C261.330780 389.045715 259.337158 387.728271 262.583374 383.634064 C268.698120 381.952271 274.040405 381.888733 278.365723 381.456085 C282.691071 381.023407 285.999451 380.221558 288.046417 377.063110"></path>
<path id="" fill="rgb(1, 34, 81)" fill-opacity="1.0" stroke="rgb(0, 0, 62)" stroke-width="0.14137532" stroke-opacity="1.0" stroke-linecap="round" stroke-linejoin="round"  filling="0" d="M256.947357 397.345032 C256.073029 397.555908 254.925522 397.566406 253.573654 397.315735 C252.221786 397.065063 250.665573 396.553223 248.973831 395.719482 C247.458557 394.644409 246.364655 393.683197 245.279266 392.764557 C244.193878 391.845917 243.116989 390.969849 241.635727 390.065125 C239.576447 389.273712 238.337540 388.860718 237.050247 388.500183 C235.762955 388.139648 234.427277 387.831543 232.174469 387.249847 C230.713409 386.857605 228.942688 386.654816 227.190063 386.281555 C225.437424 385.908264 223.702881 385.364502 222.314117 384.290222 C222.653214 382.382568 223.251068 381.690063 224.354584 381.384064 C225.458099 381.078064 227.067276 381.158600 229.429001 380.796997 C231.428421 380.727722 232.535843 380.669037 233.558350 380.591003 C234.580856 380.512939 235.518448 380.415588 237.178223 380.268921 C239.373001 380.007690 240.258026 379.775604 241.132355 379.323608 C242.006683 378.871582 242.870285 378.199646 245.022217 377.058655 C245.871582 376.170349 246.113968 376.865723 246.466553 378.153534 C246.819138 379.441345 247.281937 381.321594 248.572144 382.802979 C249.588409 384.179749 250.819138 385.383179 252.008453 386.479706 C253.197769 387.576233 254.345673 388.565918 255.196259 389.515289 C256.816650 390.998932 258.088928 392.336090 258.538879 393.612488 C258.988831 394.888885 258.616425 396.104492 256.947357 397.345032"></path>
<path id="" fill="rgb(4, 31, 75)" fill-opacity="1.0" stroke="rgb(255, 255, 255)" stroke-width="1.977561" stroke-opacity="1.0" stroke-linecap="round" stroke-linejoin="round"  filling="0" d="M284.542236 382.277710 C290.758606 384.696045 294.266052 384.888824 297.960938 384.317505 C301.655823 383.746216 305.538177 382.410828 312.504364 381.772736 C317.711365 384.312317 323.232361 385.939209 328.717682 386.262146 C334.203003 386.585114 339.652710 385.604126 344.717133 382.928009 C345.796448 378.585876 342.182007 379.300354 338.716003 382.160797 C335.250000 385.021240 331.932373 390.027649 333.605286 394.269318 C338.902527 394.667694 343.310120 392.425140 347.921814 388.815552 C352.533539 385.205994 357.349365 380.229370 363.463074 375.159698 C372.927368 368.944580 374.356628 368.841125 372.518158 371.025177 C370.679718 373.209229 365.573547 377.680786 361.967041 380.615662 C356.251373 386.518585 351.693726 389.035004 348.728027 390.676208 C345.762360 392.317444 344.388611 393.083466 345.040741 395.485596 C343.325806 395.897675 340.592957 395.208679 336.580750 394.496887 C332.568542 393.785095 327.276978 393.050476 320.444580 393.371307 C313.324829 392.263092 311.581482 392.444763 310.186066 392.923126 C308.790649 393.401520 307.743164 394.176636 302.015045 394.255280 C295.909241 392.252441 289.860107 390.941254 284.349915 389.467804 C278.839691 387.994385 273.868347 386.358673 269.918091 383.706818 C263.332611 377.670105 262.965088 376.467957 266.255676 377.197388 C269.546326 377.926819 276.495087 380.587891 284.542236 382.277710"></path>
<path id="" fill="rgb(6, 37, 81)" fill-opacity="1.0" stroke="rgb(12, 45, 93)" stroke-width="0.17963929" stroke-opacity="1.0" stroke-linecap="round" stroke-linejoin="round"  filling="0" d="M234.325882 386.429596 C236.395065 387.236694 235.944366 387.344025 234.177063 387.282074 C232.409760 387.220154 229.325851 386.988953 226.128601 387.119110 C223.179779 387.958191 220.191086 388.860535 217.232468 389.798553 C214.273849 390.736603 211.345306 391.710358 208.516815 392.692322 C205.095505 392.883301 202.334290 392.592651 199.798447 392.355042 C197.262604 392.117432 194.952164 391.932861 192.432404 392.335999 C188.476562 394.285461 186.561768 395.276947 184.945007 395.027100 C183.328247 394.777252 182.009521 393.286072 179.245819 390.270264 C177.050140 389.292511 173.321106 387.364075 170.519943 385.446594 C167.718765 383.529144 165.845428 381.622681 167.361115 380.688904 C172.063217 380.851929 173.752106 382.189575 175.306381 383.598083 C176.860641 385.006592 178.280273 386.485962 182.443848 386.932526 C186.261719 386.518127 188.135712 386.014191 190.369965 385.303558 C192.604202 384.592926 195.198715 383.675598 200.457626 382.434357 C204.584381 381.924255 207.139404 382.533569 208.845352 382.457428 C210.551285 382.381256 211.408112 381.619629 212.138489 378.367615 C214.771362 374.572876 217.445786 371.566101 219.712845 370.497375 C221.979889 369.428650 223.839569 370.298004 224.842941 374.255463 C224.321228 377.546112 224.644806 380.628723 226.122375 382.869141 C227.599960 385.109558 230.231537 386.507782 234.325882 386.429596"></path>
<path id="" fill="rgb(11, 39, 80)" fill-opacity="1.0" stroke="rgb(255, 255, 255)" stroke-width="2.0" stroke-opacity="1.0" stroke-linecap="round" stroke-linejoin="round"  filling="0" d="M217.003067 293.040710 C216.164642 293.633240 214.786255 294.880005 213.218445 296.491516 C211.650635 298.103027 209.893387 300.079285 208.297256 302.130707 C207.330475 303.597473 205.552872 306.177094 203.787094 307.909515 C202.021317 309.641968 200.267365 310.527191 199.347870 308.605164 C199.108414 306.575134 199.095520 304.075134 199.109955 301.628815 C199.124390 299.182526 199.166138 296.789917 199.035950 294.974701 C198.781647 291.682190 198.633789 289.308990 199.096085 287.287506 C199.558365 285.265991 200.630798 283.596191 202.817032 281.710449 C204.060745 280.686890 205.111389 279.132507 206.350876 277.301788 C207.590347 275.471069 209.018646 273.364075 211.017639 271.235321 C212.729050 269.642517 214.302124 268.843445 215.853348 268.300293 C217.404572 267.757111 218.933929 267.469849 220.557907 266.900574 C222.531036 265.826050 223.824310 263.900482 225.127533 262.202301 C226.430740 260.504120 227.743866 259.033295 229.756714 258.868225 C231.434433 259.259827 232.490341 260.662659 233.138596 262.460358 C233.786865 264.258057 234.027466 266.450623 234.074554 268.421600 C233.174164 271.115875 232.070236 273.306427 230.941605 275.259674 C229.812958 277.212921 228.659607 278.928833 227.660324 280.673828 C226.235794 282.716248 225.062683 284.270020 223.500092 286.082153 C221.937500 287.894287 219.985458 289.964783 217.003067 293.040710"></path>
<path id="" fill="rgb(12, 39, 83)" fill-opacity="1.0" stroke="rgb(255, 255, 255)" stroke-width="2.0" stroke-opacity="1.0" stroke-linecap="round" stroke-linejoin="round"  filling="0" d="M327.074524 273.243073 C322.649719 270.849670 318.603394 268.478333 313.982697 267.267944 C309.362030 266.057556 304.166992 266.008087 297.444824 268.258392 C293.814331 271.416046 289.091370 273.369324 283.760071 275.092468 C278.428802 276.815582 272.489197 278.308594 266.425415 280.545654 C261.387421 282.702515 257.306030 284.806946 253.560181 287.789734 C249.814346 290.772522 246.404053 294.633667 242.708237 300.303986 C239.169800 304.962494 235.550888 311.905121 232.187958 315.684631 C228.825027 319.464111 225.718109 320.080444 223.203659 312.086365 C225.349762 305.532349 226.959229 302.448547 229.347229 298.956024 C231.735214 295.463470 234.901733 291.562225 240.161972 283.373352 C242.995728 277.964294 244.464966 273.742279 244.942886 269.621796 C245.420807 265.501343 244.907440 261.482422 243.775940 256.479614 C249.992813 254.508850 254.122528 254.606934 258.846680 254.999710 C263.570801 255.392487 268.889343 256.079926 277.483917 255.287872 C284.534119 254.306335 290.545624 254.720154 295.877747 255.081085 C301.209839 255.442001 305.862610 255.750031 310.195312 254.556931 C316.484985 255.059204 320.276184 256.359283 323.566772 258.833405 C326.857361 261.307556 329.647339 264.955750 333.934570 270.154266 C339.235474 275.031921 341.618927 279.064545 340.627930 280.247559 C339.636932 281.430573 335.271484 279.763947 327.074524 273.243073"></path>
<path id="" fill="rgb(245, 141, 40)" fill-opacity="1.0" stroke="rgb(90, 68, 57)" stroke-width="1.77129114" stroke-opacity="1.0" stroke-linecap="round" stroke-linejoin="round"  filling="0" d="M274.780304 92.639603 C274.606689 89.371078 275.332703 86.389771 274.182098 83.236450 C273.023987 80.007019 271.853699 77.257355 273.544556 74.965332 C276.360077 77.260162 277.020630 78.297821 278.800079 82.078918 C280.576263 86.283752 281.840759 88.326660 280.381958 90.147064 C280.165192 92.066010 280.267242 94.921234 278.374542 97.708374 C275.465485 102.717224 275.227478 101.161636 273.240753 104.049561 C271.921936 107.498489 272.604218 105.663284 270.277222 109.366608 C269.619171 113.702103 269.376587 111.965286 267.856354 107.851288 C266.261139 105.213715 266.249512 101.609360 267.895294 99.441971 C270.595978 96.213501 274.478912 96.934372 274.780304 92.639603"></path>
<path id="" fill="rgb(7, 40, 80)" fill-opacity="1.0" stroke="rgb(223, 255, 255)" stroke-width="1.95801079" stroke-opacity="1.0" stroke-linecap="round" stroke-linejoin="round"  filling="0" d="M302.061981 279.574310 C301.427826 278.030487 301.184326 276.064148 301.163055 274.041138 C301.141785 272.018127 301.342712 269.938477 301.597412 268.168030 C302.899841 266.026611 304.517090 267.039856 306.274078 268.287231 C308.031067 269.534607 309.927795 271.016052 311.789185 269.810974 C313.914246 267.343201 316.390503 266.309998 319.411224 266.297668 C322.431946 266.285370 325.997131 267.293915 330.300049 268.909637 C334.391724 269.574371 337.841827 270.147095 341.007446 270.419922 C344.173035 270.692749 347.054138 270.665649 350.007782 270.130829 C355.646057 269.605042 355.953979 270.622437 354.280792 271.658752 C352.607605 272.695068 348.953308 273.750244 346.667206 273.300049 C339.623169 273.094543 336.559753 272.205566 333.963654 271.617615 C331.367554 271.029694 329.238708 270.742798 324.063812 271.741486 C319.882935 275.488251 317.873047 277.241333 315.535645 278.593994 C313.198242 279.946655 310.533264 280.898926 305.042267 283.044067 C301.494019 284.056152 299.029327 284.326813 295.953033 284.854462 C292.876709 285.382141 289.188812 286.166748 283.194122 288.206696 C278.504791 289.607666 273.034363 290.114136 270.308624 289.699188 C267.582886 289.284241 267.601868 287.947906 273.891357 285.663300 C279.993958 284.447083 285.052979 283.933716 289.578156 283.219971 C294.103333 282.506256 298.094666 281.592102 302.061981 279.574310"></path>
</svg>