<?xml version="1.0" ?>
<svg xmlns="http://www.w3.org/2000/svg" version="1.1" width="512" height="512" viewBox="0 0 512 512">
  <defs/>
  <g>
    <path d="M -8.00393677 553.40374756 C -23.34628296 541.80883789 -37.91460037 527.89196777 -51.69400787 511.36077881 C -65.47341919 494.82958984 -78.46391296 475.68405151 -90.65060425 453.63186646 C -102.83730316 431.57968140 -114.22019958 406.62084961 -124.78442383 378.46301270 C -133.17413330 350.48660278 -138.02578735 323.18182373 -139.01934814 297.00500488 C -140.01290894 270.82821655 -137.14836121 245.77941895 -130.10566711 222.31501770 C -123.06297302 198.85061646 -111.84211731 176.97064209 -96.12304688 157.13145447 C -79.17150116 134.95121765 -61.34524918 113.93557739 -42.89112473 93.92252350 C -24.43700027 73.90946960 -5.35500002 54.89898300 14.10805416 36.72904205 C 33.57110977 18.55909729 53.41521454 1.22969496 73.39355469 -15.42120361 C 96.00052643 -29.73370361 117.84117126 -44.72461700 140.44273376 -58.40455246 C 163.04428101 -72.08448792 186.40676880 -84.45344543 212.05743408 -93.52203369 C 237.70808411 -102.59062195 265.64691162 -108.35884094 297.40118408 -108.83731079 C 317.87301636 -107.76621246 338.80599976 -104.16378021 360.34640503 -97.41703033 C 381.88684082 -90.67028046 404.03472900 -80.77921295 426.93630981 -67.13085175 C 449.83792114 -53.48249054 473.49328613 -36.07683563 498.04864502 -14.30090332 C 517.95758057 6.96370888 536.21447754 26.60597992 551.81976318 45.16294098 C 567.42504883 63.71989822 580.37878418 81.19154358 589.68127441 98.11491394 C 598.98382568 115.03827667 604.63519287 131.41336060 605.63586426 147.77719116 C 609.27447510 177.06153870 611.36401367 205.14045715 612.06372070 232.03007507 C 612.76342773 258.91967773 612.07324219 284.61999512 610.15240479 309.14712524 C 608.23156738 333.67428589 605.08007812 357.02825928 600.85717773 379.22515869 C 595.92169189 399.01699829 587.88153076 418.63891602 576.07019043 438.12173462 C 564.25885010 457.60455322 548.67626953 476.94830322 528.65588379 496.18374634 C 508.63549805 515.41918945 484.17727661 534.54632568 454.61462402 553.59600830 C 435.46102905 568.45397949 415.25750732 581.30932617 393.33880615 592.26348877 C 371.42010498 603.21765137 347.78622437 612.27062988 321.77188110 619.52380371 C 295.75756836 626.77691650 267.36279297 632.23022461 235.92236328 635.98510742 C 210.97395325 636.49493408 187.43098450 635.64483643 163.16986084 631.56628418 C 138.90872192 627.48767090 113.92942810 620.18060303 86.10833740 607.77636719 C 58.28724670 595.37219238 27.62436485 577.87084961 -8.00393677 553.40374756" stroke-width="1.84156108" fill="rgb(255, 255, 255)" opacity="1.0" stroke="rgb(255, 254, 255)" stroke-opacity="1.0" stroke-linecap="round" stroke-linejoin="round"/>
    <path d="M 397.79187012 374.01422119 C 387.11325073 385.52429199 379.80749512 393.24475098 372.66751099 399.42581177 C 365.52752686 405.60687256 358.55325317 410.24859619 348.53759766 415.60119629 C 338.52191162 420.95379639 325.46484375 427.01727295 306.15917969 436.04187012 C 296.02191162 438.48196411 285.70199585 440.73446655 274.59426880 441.99975586 C 263.48654175 443.26504517 251.59098816 443.54312134 238.30245972 442.03436279 C 225.01391602 440.52563477 210.33239746 437.23004150 193.65270996 431.34808350 C 184.12779236 427.51074219 174.60473633 423.09494019 164.99095154 417.38708496 C 155.37716675 411.67922974 145.67265320 404.67932129 135.78485107 395.67373657 C 125.89703369 386.66815186 115.82592773 375.65692139 105.47892761 361.92639160 C 95.70682526 343.98660278 89.27028656 330.84167480 84.89060211 319.61968994 C 80.51092529 308.39770508 78.18809509 299.09872437 76.64342499 288.85079956 C 75.09875488 278.60290527 74.33222961 267.40606689 73.06515503 252.38847351 C 74.90796661 237.43679810 76.82432556 224.59431458 79.71117401 212.57905579 C 82.59802246 200.56381226 86.45537567 189.37579346 92.18017578 177.73303223 C 97.90496826 166.09027100 105.49722290 153.99279785 115.85388184 140.15859985 C 124.99025726 131.71665955 132.29733276 124.50222015 139.54315186 118.08594513 C 146.78898621 111.66966248 153.97357178 106.05153656 162.86499023 100.80222321 C 171.75640869 95.55290985 182.35464478 90.67240906 196.42776489 85.73136902 C 208.67778015 82.60950470 219.30740356 79.18579102 229.77874756 76.90195465 C 240.25009155 74.61811829 250.56317139 73.47415161 262.18011475 74.91180420 C 273.79708862 76.34944153 286.71789551 80.36869812 302.40475464 88.41127014 C 311.05682373 92.63556671 321.77905273 98.78458405 333.05502319 105.95407867 C 344.33099365 113.12356567 356.16076660 121.31353760 367.02789307 129.61973572 C 377.89501953 137.92593384 387.79956055 146.34838867 395.22509766 153.98281860 C 403.42431641 167.43249512 410.45825195 178.95913696 416.35781860 189.90747070 C 422.25735474 200.85580444 427.02249146 211.22579956 430.68408203 222.36221313 C 434.34564209 233.49861145 436.90368652 245.40141296 438.38903809 259.41531372 C 437.56655884 275.32092285 435.53118896 289.26153564 432.26635742 302.14465332 C 429.00152588 315.02780151 424.50726318 326.85348511 418.76702881 338.52923584 C 413.02679443 350.20495605 406.04058838 361.73077393 397.79187012 374.01422119" stroke-width="0.00000000" fill="rgb(202, 162, 136)" opacity="1.0" stroke="rgb(255, 255, 255)" stroke-opacity="1.0" stroke-linecap="round" stroke-linejoin="round"/>
    <path d="M 404.12097168 256.48809814 C 389.97036743 254.48947144 377.89523315 255.02879333 367.14556885 256.17260742 C 356.39587402 257.31640625 346.97161865 259.06469727 338.12280273 259.48394775 C 329.27398682 259.90322876 321.00061035 258.99353027 312.55264282 254.82133484 C 306.84765625 245.72462463 300.80831909 238.01441956 293.87283325 232.31956482 C 286.93737793 226.62472534 279.10580444 222.94522095 269.81634521 221.90992737 C 260.52688599 220.87463379 249.77957153 222.48352051 237.01261902 227.36547852 C 228.16354370 231.50109863 220.80627441 237.53771973 213.70431519 243.31735229 C 206.60235596 249.09700012 199.75569153 254.61967468 191.92782593 257.72741699 C 184.09997559 260.83514404 175.29092407 261.52795410 164.26416016 257.64782715 C 152.18923950 257.80184937 140.76312256 259.81250000 131.36737061 260.91372681 C 121.97161865 262.01495361 114.60622406 262.20672607 110.65275574 258.72308350 C 106.69927979 255.23944092 106.15773010 248.08035278 110.40966797 234.47978210 C 111.12326813 223.97319031 113.76094055 213.21659851 117.74970245 202.78135681 C 121.73846436 192.34613037 127.07830811 182.23225403 133.19624329 173.01110840 C 139.31417847 163.78997803 146.21020508 155.46157837 153.31130981 148.59729004 C 168.29119873 137.43438721 176.75894165 131.16992188 182.77302551 127.23441315 C 188.78710938 123.29890442 192.34756470 121.69233704 197.51284790 119.84523773 C 202.67813110 117.99813843 209.44827271 115.91050720 221.88174438 111.01284790 C 232.42779541 114.86428070 240.70724487 118.95127106 247.93832397 121.46083832 C 255.16940308 123.97040558 261.35208130 124.90254211 267.70458984 122.44427490 C 274.05706787 119.98600006 280.57940674 114.13731384 288.48971558 103.08523560 C 298.44586182 98.80152130 307.25735474 96.32983398 315.67733765 95.87659454 C 324.09735107 95.42335510 332.12585449 96.98855591 340.51602173 100.77861786 C 348.90618896 104.56868744 357.65802002 110.58361816 367.52465820 119.02983093 C 377.34518433 126.76433563 385.28643799 134.35310364 392.04077148 142.28169250 C 398.79510498 150.21028137 404.36251831 158.47868347 409.43530273 167.57241821 C 414.50805664 176.66616821 419.08624268 186.58526611 423.86206055 197.81523132 C 427.67758179 212.56550598 430.86093140 224.70364380 432.04125977 234.09808350 C 433.22161865 243.49252319 432.39895630 250.14328003 428.20251465 253.91879272 C 424.00604248 257.69430542 416.43579102 258.59460449 404.12097168 256.48809814" stroke-width="1.89294291" fill="rgb(244, 166, 21)" opacity="1.0" stroke="rgb(111, 83, 48)" stroke-opacity="1.0" stroke-linecap="round" stroke-linejoin="round"/>
    <path d="M 301.56478882 259.30300903 C 296.74212646 261.03933716 292.83947754 261.56042480 288.71667480 261.77630615 C 284.59384155 261.99218750 280.25079346 261.90289307 274.54727173 262.41839600 C 270.49804688 262.50796509 266.20581055 263.72125244 261.93054199 263.92294312 C 257.65527344 264.12460327 253.39698792 263.31463623 249.41571045 259.35766602 C 247.51733398 255.50144958 245.43560791 251.53996277 242.45820618 248.24784851 C 239.48078918 244.95573425 235.60769653 242.33300781 230.12655640 241.15428162 C 223.86360168 240.02999878 219.00395203 240.96060181 214.92678833 243.11575317 C 210.84963989 245.27090454 207.55496216 248.65060425 204.42196655 252.42453003 C 204.18167114 249.84664917 205.04721069 244.91842651 206.51300049 240.00988770 C 207.97879028 235.10134888 210.04481506 230.21246338 212.20547485 227.71324158 C 217.99023438 220.41436768 220.08116150 217.88569641 221.82595825 216.39373779 C 223.57073975 214.90177917 224.96939087 214.44653320 229.36961365 211.29452515 C 234.21792603 208.69917297 239.53865051 206.76390076 244.84703064 205.56098938 C 250.15541077 204.35806274 255.45144653 203.88751221 260.25039673 204.22155762 C 264.09335327 204.42993164 268.11907959 205.10516357 272.62826538 206.70800781 C 277.13745117 208.31085205 282.13009644 210.84129333 287.90686035 214.76011658 C 292.91955566 219.00329590 295.35195923 221.27250671 297.26458740 223.87962341 C 299.17718506 226.48675537 300.57000732 229.43177795 303.50354004 235.02661133 C 305.99368286 240.30633545 307.74282837 245.59904480 307.75250244 249.96000671 C 307.76220703 254.32098389 306.03244019 257.75021362 301.56478882 259.30300903" stroke-width="1.74702597" fill="rgb(236, 52, 34)" opacity="1.0" stroke="rgb(0, 22, 59)" stroke-opacity="1.0" stroke-linecap="round" stroke-linejoin="round"/>
    <path d="M 296.32962036 371.73791504 C 293.54125977 375.01635742 292.10327148 376.73852539 289.65930176 378.24951172 C 287.21533203 379.76049805 283.76538086 381.06030273 276.95300293 383.49395752 C 273.85827637 384.14245605 270.17672729 384.67803955 266.02780151 385.13787842 C 261.87887573 385.59771729 257.26263428 385.98181152 252.29853821 386.32730103 C 248.00393677 386.59820557 243.31250000 386.60647583 239.03424072 386.02261353 C 234.75598145 385.43878174 230.89089966 384.26278687 228.24900818 382.16513062 C 223.71162415 377.49847412 221.77868652 374.45629883 220.70793152 371.01910400 C 219.63719177 367.58190918 219.42861938 363.74969482 218.33999634 357.50296021 C 217.27703857 351.62753296 217.23394775 347.47497559 218.46743774 345.75650024 C 219.70092773 344.03802490 222.21101379 344.75363159 226.25442505 348.61453247 C 228.92120361 345.87951660 229.16694641 343.24612427 229.52647400 340.60482788 C 229.88600159 337.96350098 230.35929871 335.31433105 233.48117065 332.54779053 C 239.79284668 331.31365967 243.19372559 331.21420288 246.50395203 331.31857300 C 249.81417847 331.42297363 253.03375244 331.73120117 258.98278809 331.31250000 C 262.12365723 331.21844482 266.77993774 331.32812500 271.27667236 332.36059570 C 275.77343750 333.39303589 280.11065674 335.34829712 282.61334229 338.94540405 C 283.37084961 344.44781494 283.69570923 345.75494385 285.09448242 345.96334839 C 286.49325562 346.17175293 288.96594238 345.28149414 294.01904297 346.38909912 C 297.74456787 351.53234863 299.43447876 354.59097290 299.63690186 358.00308228 C 299.83929443 361.41519165 298.55416870 365.18078613 296.32962036 371.73791504" stroke-width="1.96807837" fill="rgb(180, 97, 143)" opacity="1.0" stroke="rgb(1, 37, 122)" stroke-opacity="1.0" stroke-linecap="round" stroke-linejoin="round"/>
    <path d="M 261.47061157 139.60893250 C 267.53576660 142.19841003 273.03668213 145.04449463 277.27499390 148.86399841 C 281.51330566 152.68350220 284.48895264 157.47644043 285.50360107 163.95956421 C 286.51824951 170.44268799 285.57189941 178.61602783 281.96606445 189.19638062 C 276.43212891 194.15251160 269.47164917 197.13432312 261.84115601 199.06549072 C 254.21066284 200.99664307 245.91015625 201.87716675 237.69616699 202.63069153 C 229.48217773 203.38421631 221.35470581 204.01077271 214.07026672 205.43403625 C 209.31808472 199.26136780 210.46545410 193.34719849 214.35681152 187.22023010 C 218.24816895 181.09326172 224.88349915 174.75347900 231.10725403 167.72961426 C 237.33100891 160.70574951 243.14318848 152.99780273 245.38821411 144.13446045 C 247.96888733 134.82139587 248.80973816 125.45130920 247.33889771 117.61422729 C 245.86807251 109.77714539 242.08557129 103.47306061 235.41952515 100.29199219 C 228.75347900 97.11093140 219.20390320 97.05287170 206.19894409 101.70785522 C 192.45204163 107.32325745 181.12449646 112.97740936 171.57785034 118.76892090 C 162.03121948 124.56043243 154.26548767 130.48930359 147.64225769 136.65412903 C 141.01901245 142.81895447 135.53826904 149.21975708 130.56159973 155.95510864 C 126.04735565 160.22842407 122.54512787 163.70727539 119.85684204 165.72448730 C 117.16854858 167.74168396 115.29418945 168.29722595 114.03568268 166.72387695 C 112.77717590 165.15054321 112.13450623 161.44833374 111.90960693 154.95001221 C 114.08657074 151.14955139 117.40297699 145.85397339 122.32843018 139.78199768 C 127.25388336 133.71002197 133.78837585 126.86164093 142.40153503 119.95557404 C 151.01467896 113.04950714 161.70648193 106.08575439 174.94656372 99.78302002 C 185.75265503 94.05457306 194.72358704 90.06975555 202.67768860 87.34140778 C 210.63179016 84.61305237 217.56906128 83.14117432 224.30784607 82.43860626 C 231.04663086 81.73603058 237.58692932 81.80276489 244.74707031 82.15164185 C 254.04547119 78.64236450 259.78836060 75.25477600 263.20843506 73.46105194 C 266.62850952 71.66732788 267.72579956 71.46748352 267.73300171 74.33368683 C 267.74023438 77.19989014 266.65737915 83.13215637 265.71719360 93.60264587 C 256.15869141 98.09918213 250.36383057 103.34409332 247.59783936 108.79409790 C 244.83186340 114.24410248 245.09477234 119.89920044 247.65180969 125.21610260 C 250.20886230 130.53300476 255.06002808 135.51171875 261.47061157 139.60893250" stroke-width="1.73002684" fill="rgb(238, 106, 24)" opacity="1.0" stroke="rgb(17, 26, 48)" stroke-opacity="1.0" stroke-linecap="round" stroke-linejoin="round"/>
    <path d="M 287.78366089 98.19699097 C 284.64270020 99.28956604 281.54006958 101.39875793 279.06613159 105.20143127 C 276.59216309 109.00409698 274.74688721 114.50024414 274.12051392 122.36672974 C 273.37652588 128.82214355 274.92016602 134.56156921 276.44744873 139.45730591 C 277.97473145 144.35302734 279.48565674 148.40504456 278.67620850 151.48561096 C 276.96435547 151.78298950 275.32388306 150.35092163 272.78366089 147.95361328 C 270.24343872 145.55628967 266.80346680 142.19372559 261.49264526 138.63012695 C 258.70803833 132.57702637 258.58444214 128.82971191 258.02297974 125.90431213 C 257.46148682 122.97889709 256.46209717 120.87538147 251.92591858 118.10986328 C 245.42041016 113.80571747 240.51704407 108.38365173 236.97207642 102.83372498 C 233.42712402 97.28379822 231.24057007 91.60601807 230.16874695 86.79045105 C 234.83808899 79.13806915 236.98265076 75.90756226 239.93672180 74.51020050 C 242.89077759 73.11283112 246.65435791 73.54859924 254.56175232 73.22875977 C 262.80584717 74.41845703 266.73995972 75.91284180 270.86962891 77.48953247 C 274.99932861 79.06623077 279.32458496 80.72523499 288.35098267 82.24417114 C 295.34024048 83.88346100 299.74310303 84.88370514 304.05130005 86.04463196 C 308.35949707 87.20555115 312.57299805 88.52715302 319.18353271 90.80915833 C 327.33905029 94.10596466 333.42749023 96.70013428 335.46368408 99.46564484 C 337.49987793 102.23115540 335.48382568 105.16801453 327.43038940 109.15020752 C 320.47634888 108.82862854 315.33862305 106.52538300 309.55242920 104.08500671 C 303.76623535 101.64462280 297.33160400 99.06710815 287.78366089 98.19699097" stroke-width="1.89822423" fill="rgb(227, 121, 34)" opacity="1.0" stroke="rgb(47, 49, 72)" stroke-opacity="1.0" stroke-linecap="round" stroke-linejoin="round"/>
    <path d="M 285.59524536 167.23619080 C 285.14059448 169.01754761 284.99298096 171.65692139 284.63214111 174.99870300 C 284.27130127 178.34048462 283.69720459 182.38464355 282.38961792 186.97558594 C 280.44952393 190.70114136 278.35446167 193.31304932 275.63726807 194.99687195 C 272.92010498 196.68069458 269.58078003 197.43640137 265.15219116 197.44956970 C 263.68176270 194.39079285 263.90219116 190.32949829 264.41857910 186.24588013 C 264.93493652 182.16226196 265.74728394 178.05633545 265.46066284 174.90832520 C 265.97833252 170.02456665 266.17764282 166.42816162 266.30465698 162.91502380 C 266.43170166 159.40188599 266.48648071 155.97198486 266.71514893 151.42126465 C 266.98199463 148.17257690 266.77227783 144.81579590 266.85049438 140.95706177 C 266.92871094 137.09832764 267.29492188 132.73767090 268.71353149 127.48124695 C 270.16235352 124.00361633 271.86242676 122.03649902 273.37469482 119.98513794 C 274.88699341 117.93377686 276.21148682 115.79817200 276.90921021 111.98356628 C 277.05303955 106.95023346 279.20944214 105.60670471 282.57257080 105.67472839 C 285.93569946 105.74275208 290.50555420 107.22232056 295.47631836 107.83517456 C 300.20901489 109.25598145 303.85806274 110.08081818 305.66564941 111.75495148 C 307.47323608 113.42908478 307.43936157 115.95251465 304.80621338 120.77050781 C 302.13122559 124.48320770 299.77127075 128.02209473 297.83941650 131.46485901 C 295.90753174 134.90762329 294.40374756 138.25425720 293.44107056 141.58245850 C 291.70886230 145.59974670 290.50579834 148.78785706 289.35659790 152.58430481 C 288.20736694 156.38075256 287.11199951 160.78555298 285.59524536 167.23619080" stroke-width="2.00000000" fill="rgb(250, 188, 0)" opacity="1.0" stroke="rgb(252, 207, 61)" stroke-opacity="1.0" stroke-linecap="round" stroke-linejoin="round"/>
    <path d="M 249.31602478 173.45114136 C 248.86413574 174.62985229 249.81828308 178.67530823 250.15740967 183.42980957 C 250.49652100 188.18432617 250.22064209 193.64788818 247.30868530 197.66284180 C 245.08880615 199.60385132 241.19125366 201.10322571 236.69931030 202.49237061 C 232.20738220 203.88150024 227.12109375 205.16043091 222.52374268 206.66055298 C 217.68182373 208.94418335 214.18778992 208.33331299 211.62234497 205.47938538 C 209.05691528 202.62545776 207.42007446 197.52850342 206.29255676 190.83992004 C 205.47485352 187.52139282 204.28486633 183.23547363 202.91194153 178.64962769 C 201.53901672 174.06379700 199.98315430 169.17803955 198.43365479 164.65988159 C 197.31202698 160.55828857 195.76394653 156.27677917 194.48236084 151.80332947 C 193.20075989 147.32987976 192.18563843 142.66450500 192.12992859 137.79521179 C 192.94976807 133.07208252 194.05456543 129.92564392 195.18270874 127.19601440 C 196.31085205 124.46638489 197.46231079 122.15356445 198.37550354 119.09770203 C 200.02799988 116.37126160 204.88845825 114.31315613 209.99189758 112.64541626 C 215.09533691 110.97767639 220.44177246 109.70029449 223.06620789 108.53529358 C 229.52774048 105.61846161 233.10020447 106.86773682 235.67492676 109.75521851 C 238.24963379 112.64271545 239.82662964 117.16841888 242.29719543 120.80445862 C 246.68316650 121.86819458 247.70718384 124.47857666 247.54124451 128.24017334 C 247.37530518 132.00175476 246.01942444 136.91455078 245.64561462 142.58308411 C 246.19955444 147.14163208 246.64039612 152.23425293 247.18112183 157.49943542 C 247.72186279 162.76461792 248.36248779 168.20234680 249.31602478 173.45114136" stroke-width="0.88763231" fill="rgb(251, 193, 2)" opacity="1.0" stroke="rgb(251, 194, 17)" stroke-opacity="1.0" stroke-linecap="round" stroke-linejoin="round"/>
    <path d="M 211.59140015 138.08749390 C 210.86276245 136.67335510 209.86465454 134.11856079 208.69284058 131.09982300 C 207.52102661 128.08108521 206.17553711 124.59840393 204.75213623 121.32852173 C 202.25915527 116.55715179 203.44195557 114.33022308 206.14732361 112.91448212 C 208.85269165 111.49874878 213.08062744 110.89419556 216.67791748 109.36758423 C 219.68171692 110.39117432 220.90670776 113.59090424 221.64938354 117.13240051 C 222.39205933 120.67388916 222.65242004 124.55715179 223.72697449 126.94779968 C 224.52133179 129.88296509 225.31936646 133.14105225 226.08340454 136.53399658 C 226.84745789 139.92692566 227.57751465 143.45471191 228.23593140 146.92927551 C 229.24848938 150.93762207 229.90153503 153.71893311 230.64477539 156.73992920 C 231.38800049 159.76092529 232.22143555 163.02160645 233.59477234 167.98861694 C 234.61830139 172.16461182 235.04631042 174.67144775 235.46511841 176.92660522 C 235.88394165 179.18176270 236.29354858 181.18524170 237.28030396 184.35453796 C 238.06805420 188.29190063 239.90744019 192.04789734 240.35690308 194.73358154 C 240.80636597 197.41926575 239.86593628 199.03465271 235.09400940 198.69082642 C 233.24209595 195.68041992 232.17956543 192.22871399 231.12550354 188.74909973 C 230.07144165 185.26947021 229.02586365 181.76193237 227.20782471 178.63986206 C 226.02198792 175.41992188 224.76123047 172.28050232 223.57171631 169.19351196 C 222.38218689 166.10653687 221.26390076 163.07199097 220.36300659 160.06185913 C 218.65878296 156.09558105 217.39683533 153.10968018 216.09545898 149.86149597 C 214.79409790 146.61331177 213.45330811 143.10285950 211.59140015 138.08749390" stroke-width="0.42672497" fill="rgb(236, 54, 31)" opacity="1.0" stroke="rgb(205, 67, 46)" stroke-opacity="1.0" stroke-linecap="round" stroke-linejoin="round"/>
    <path d="M 290.61059570 165.55189514 C 289.45556641 168.63265991 288.47561646 171.22456360 287.35742188 174.05281067 C 286.23919678 176.88105774 284.98272705 179.94564819 283.27468872 183.97180176 C 282.20208740 188.14318848 280.99835205 192.50863647 279.22103882 195.50302124 C 277.44375610 198.49737549 275.09289551 200.12066650 271.72610474 198.80766296 C 270.64697266 195.91046143 271.38400269 192.82733154 272.47583008 189.52128601 C 273.56768799 186.21524048 275.01428223 182.68627930 275.35424805 178.89736938 C 276.15118408 175.33587646 276.96389771 171.77786255 277.83630371 168.24360657 C 278.70867920 164.70935059 279.64080811 161.19883728 280.67651367 157.73234558 C 281.51892090 153.68414307 282.19091797 150.76135254 282.97268677 147.54565430 C 283.75442505 144.32994080 284.64593506 140.82133484 285.92727661 135.60150146 C 286.99218750 130.57954407 287.69348145 127.90923309 288.30114746 125.46955872 C 288.90878296 123.02989197 289.42276001 120.82086182 290.11294556 116.72146606 C 290.77597046 111.32592773 291.85464478 109.08976746 294.18176270 108.75098419 C 296.50888062 108.41220093 300.08441162 109.97079468 305.74121094 112.16476440 C 309.35671997 112.85442352 310.78259277 113.20397949 310.87359619 114.46205139 C 310.96459961 115.72012329 309.72073364 117.88671875 307.99679565 122.21044922 C 305.89630127 126.19476318 304.15707397 129.83798218 302.75018311 133.18014526 C 301.34326172 136.52227783 300.26870728 139.56335449 299.49752808 142.34335327 C 297.99829102 146.10269165 296.36157227 150.09895325 294.80718994 154.05831909 C 293.25280762 158.01768494 291.78070068 161.94015503 290.61059570 165.55189514" stroke-width="2.00000000" fill="rgb(235, 59, 30)" opacity="1.0" stroke="rgb(255, 255, 105)" stroke-opacity="1.0" stroke-linecap="round" stroke-linejoin="round"/>
    <path d="M 152.94766235 183.56217957 C 149.61492920 180.87081909 147.27993774 179.14512634 144.72169495 177.54833984 C 142.16346741 175.95156860 139.38197327 174.48370361 135.15621948 172.30804443 C 131.80499268 170.95797729 132.08932495 168.73573303 133.76222229 166.09722900 C 135.43510437 163.45870972 138.49655151 160.40393066 140.69949341 157.38879395 C 142.73893738 155.72885132 145.30169678 157.53317261 147.93305969 160.07867432 C 150.56440735 162.62419128 153.26434326 165.91091919 155.57814026 167.21577454 C 159.00050354 170.40968323 161.28695679 172.46611023 163.58750916 174.51394653 C 165.88806152 176.56176758 168.20272827 178.60098267 171.68150330 181.76046753 C 174.69360352 184.32135010 176.88105774 186.23764038 179.30677795 188.38111877 C 181.73249817 190.52459717 184.39648438 192.89526367 188.36161804 196.36486816 C 191.87774658 199.33457947 193.79798889 201.29978943 195.56066895 203.11679077 C 197.32333374 204.93379211 198.92843628 206.60256958 201.81422424 208.97944641 C 205.96084595 211.31391907 208.78228760 214.13020325 209.35244751 216.40039062 C 209.92259216 218.67057800 208.24145508 220.39468384 203.38294983 220.54478455 C 200.66615295 218.78775024 198.07055664 216.20547485 195.35188293 213.66967773 C 192.63319397 211.13388062 189.79141235 208.64456177 186.58222961 207.07344055 C 183.71945190 205.20208740 180.88584900 203.58493042 178.05165100 201.84082031 C 175.21746826 200.09671021 172.38269043 198.22564697 169.51753235 195.84655762 C 166.88490295 194.17007446 164.32302856 192.23451233 161.62899780 190.15029907 C 158.93498230 188.06610107 156.10882568 185.83325195 152.94766235 183.56217957" stroke-width="0.18153296" fill="rgb(234, 55, 33)" opacity="1.0" stroke="rgb(206, 93, 21)" stroke-opacity="1.0" stroke-linecap="round" stroke-linejoin="round"/>
    <path d="M 165.62495422 241.69055176 C 162.82740784 241.02523804 160.20422363 240.53283691 157.01666260 240.01237488 C 153.82910156 239.49191284 150.07719421 238.94340515 145.02220154 238.16586304 C 141.83343506 237.61676025 138.42149353 237.09678650 134.71080017 236.35241699 C 131.00009155 235.60804749 126.99063873 234.63928223 122.60684204 233.19258118 C 119.90415192 229.55845642 119.72987366 225.81375122 120.34642029 222.18168640 C 120.96296692 218.54963684 122.37033844 215.03024292 122.83094788 211.84677124 C 124.96437073 206.13424683 127.18026733 202.43315125 129.48147583 199.67527771 C 131.78269958 196.91741943 134.16923523 195.10276794 136.64395142 193.16311646 C 142.24337769 189.47344971 146.60528564 187.93952942 150.25000000 187.77017212 C 153.89472961 187.60083008 156.82226562 188.79605103 159.55294800 190.56465149 C 165.78845215 194.16445923 168.13662720 195.59921265 169.81188965 196.71157837 C 171.48715210 197.82394409 172.48951721 198.61393738 176.03337097 200.92424011 C 179.25082397 203.23048401 182.10617065 206.07757568 185.00773621 208.66061401 C 187.90930176 211.24363708 190.85708618 213.56259155 194.25942993 214.81254578 C 199.13677979 217.04786682 202.65042114 218.55183411 204.46255493 220.71348572 C 206.27467346 222.87513733 206.38525391 225.69448853 204.45646667 230.56056213 C 203.83551025 233.66596985 202.96247864 237.92118835 201.10676575 241.22052002 C 199.25103760 244.51983643 196.41262817 246.86328125 191.86087036 246.14515686 C 187.72250366 245.46017456 184.59103394 244.69813538 180.78039551 243.93151855 C 176.96975708 243.16491699 172.47994995 242.39375305 165.62495422 241.69055176" stroke-width="0.65426534" fill="rgb(254, 201, 1)" opacity="1.0" stroke="rgb(255, 255, 1)" stroke-opacity="1.0" stroke-linecap="round" stroke-linejoin="round"/>
    <path d="M 176.78668213 155.32398987 C 174.23348999 151.79791260 172.18106079 149.32600403 170.07632446 146.94200134 C 167.97157288 144.55799866 165.81449890 142.26190186 163.05198669 139.08743286 C 163.10652161 136.10662842 165.48226929 133.51246643 168.50975037 131.37010193 C 171.53723145 129.22772217 175.21643066 127.53714752 177.87789917 126.36352539 C 179.67919922 127.20472717 181.42407227 130.63682556 183.17474365 134.42794800 C 184.92541504 138.21907043 186.68188477 142.36921692 188.50633240 144.64651489 C 190.42324829 148.06834412 191.91354370 150.54589844 193.51916504 153.19369507 C 195.12478638 155.84149170 196.84573364 158.65954590 199.22392273 162.76237488 C 201.68383789 166.59126282 203.10221863 168.76148987 204.62295532 171.19459534 C 206.14370728 173.62768555 207.76681519 176.32365417 210.63623047 181.20401001 C 213.60128784 186.20054626 214.66871643 188.27593994 215.56309509 189.93923950 C 216.45748901 191.60253906 217.17883301 192.85375977 219.45170593 196.20191956 C 222.94393921 198.85992432 224.50158691 202.27154541 224.05276489 204.61517334 C 223.60394287 206.95880127 221.14865112 208.23443604 216.61500549 206.62045288 C 214.13922119 202.73147583 212.08624268 199.43811035 210.00959778 196.52450562 C 207.93295288 193.61090088 205.83264160 191.07708740 203.26220703 188.70719910 C 200.43643188 185.02462769 198.09754944 182.17768860 196.04310608 179.64012146 C 193.98866272 177.10255432 192.21865845 174.87434387 190.53057861 172.42919922 C 187.78677368 169.02349854 186.04356384 166.89341736 184.13992310 164.54165649 C 182.23626709 162.18988037 180.17219543 159.61642456 176.78668213 155.32398987" stroke-width="2.00000000" fill="rgb(235, 60, 32)" opacity="1.0" stroke="rgb(255, 255, 44)" stroke-opacity="1.0" stroke-linecap="round" stroke-linejoin="round"/>
    <path d="M 343.37051392 145.64222717 C 340.18429565 149.10317993 337.02383423 153.12292480 333.22656250 157.72506714 C 329.42929077 162.32722473 324.99520874 167.51181030 319.26177979 173.30244446 C 315.65194702 180.36767578 311.69091797 185.94947815 307.22647095 191.34382629 C 302.76202393 196.73818970 297.79418945 201.94506836 292.17080688 208.26043701 C 286.72406006 206.12916565 288.35504150 201.40014648 292.11465454 195.53759766 C 295.87426758 189.67507935 301.76251221 182.67903137 304.83032227 176.01373291 C 309.31140137 169.98699951 312.82537842 163.43678284 316.49658203 156.56910706 C 320.16781616 149.70144653 323.99627686 142.51631165 329.10632324 135.21975708 C 332.42156982 128.64556885 333.93389893 126.32582092 336.20617676 126.78326416 C 338.47842407 127.24069977 341.51062012 130.47534180 347.86547852 135.00993347 C 351.73666382 135.09841919 356.86163330 136.16825867 357.79724121 135.41024780 C 358.73284912 134.65225220 355.47909546 132.06639099 342.59289551 124.84349060 C 329.87631226 118.07765961 323.31109619 111.33872223 322.32260132 107.19661713 C 321.33410645 103.05451202 325.92230225 101.50923920 335.51260376 105.13073730 C 343.10226440 110.41816711 346.87603760 113.06350708 350.94042969 116.40734863 C 355.00479126 119.75118256 359.35977173 123.79351807 368.11184692 131.87493896 C 375.78588867 136.93521118 381.21054077 142.85145569 382.68283081 146.95205688 C 384.15512085 151.05264282 381.67504883 153.33758545 373.53970337 151.13526917 C 364.94757080 143.04782104 360.18597412 137.29562378 356.18203735 135.75476074 C 352.17813110 134.21391296 348.93188477 136.88436890 343.37051392 145.64222717" stroke-width="2.00000000" fill="rgb(211, 65, 32)" opacity="1.0" stroke="rgb(255, 255, 170)" stroke-opacity="1.0" stroke-linecap="round" stroke-linejoin="round"/>
    <path d="M 129.79544067 214.61933899 C 129.16058350 214.05465698 126.46684265 213.32611084 123.23094177 212.25498962 C 119.99503326 211.18386841 116.21695709 209.77017212 113.41340637 207.83520508 C 113.14507294 204.04760742 114.49693298 200.46633911 116.36721802 197.99441528 C 118.23749542 195.52249146 120.62619019 194.15991211 122.43151855 194.80973816 C 126.87235260 196.36242676 130.51628113 198.28694153 133.68614197 200.00790405 C 136.85601807 201.72886658 139.55181885 203.24627686 142.09643555 203.98480225 C 145.51878357 205.59796143 148.15954590 206.78103638 151.02510071 208.09060669 C 153.89067078 209.40016174 156.98104858 210.83621216 161.30264282 212.95533752 C 164.04248047 214.42199707 166.47125244 215.63891602 169.35031128 216.97004700 C 172.22937012 218.30117798 175.55873108 219.74652100 180.09976196 221.67004395 C 183.81623840 223.46043396 185.78674316 224.66311646 187.70304871 225.66557312 C 189.61935425 226.66802979 191.48147583 227.47024536 194.98120117 228.45967102 C 199.85568237 230.77917480 201.23837280 233.09500122 200.16172791 234.47265625 C 199.08508301 235.85032654 195.54910278 236.28985596 190.58627319 234.85676575 C 187.04170227 233.40971375 184.45082092 232.33618164 181.67593384 231.32269287 C 178.90103149 230.30920410 175.94213867 229.35575867 171.66156006 228.14888000 C 168.40121460 227.05233765 165.09858704 225.99734497 161.73779297 224.89883423 C 158.37698364 223.80032349 154.95803833 222.65830994 151.46505737 221.38771057 C 147.94952393 220.04489136 145.38441467 219.37667847 142.27203369 218.53222656 C 139.15966797 217.68777466 135.50003052 216.66708374 129.79544067 214.61933899" stroke-width="0.56248724" fill="rgb(237, 57, 33)" opacity="1.0" stroke="rgb(226, 107, 35)" stroke-opacity="1.0" stroke-linecap="round" stroke-linejoin="round"/>
    <path d="M 324.21710205 225.02009583 C 327.55688477 223.94668579 330.23995972 222.71432495 333.45996094 221.13287354 C 336.67993164 219.55142212 340.43682861 217.62086487 345.92428589 215.15106201 C 350.20404053 212.65374756 353.40484619 211.05282593 356.83847046 209.52072144 C 360.27209473 207.98860168 363.93853760 206.52529907 369.14953613 204.30317688 C 373.68041992 202.44619751 377.48995972 200.53443909 381.17849731 198.55148315 C 384.86703491 196.56851196 388.43460083 194.51434326 392.48153687 192.37255859 C 395.97692871 189.78524780 399.92468262 186.19987488 403.16497803 184.91860962 C 406.40524292 183.63734436 408.93811035 184.66020203 409.60372925 191.28935242 C 411.61718750 196.97248840 413.57482910 202.01043701 413.24310303 205.29103088 C 412.91140747 208.57162476 410.29040527 210.09484863 403.14663696 208.74851990 C 397.80834961 209.86686707 394.23605347 210.52754211 391.29757690 211.30450439 C 388.35913086 212.08146667 386.05450439 212.97473145 383.25158691 214.55825806 C 378.93276978 215.99446106 375.53903198 217.12692261 371.55215454 218.33963013 C 367.56527710 219.55232239 362.98526001 220.84524536 356.29391479 222.60237122 C 352.84179688 224.48373413 350.30285645 225.42211914 347.18579102 226.34275818 C 344.06875610 227.26339722 340.37359619 228.16632080 334.60903931 229.97671509 C 331.25872803 231.33670044 327.86706543 232.43489075 324.36883545 233.59889221 C 320.87063599 234.76287842 317.26586914 235.99270630 313.48937988 237.61593628 C 311.62030029 234.99255371 311.43576050 232.89881897 313.15173340 230.93331909 C 314.86773682 228.96780396 318.48419189 227.13053894 324.21710205 225.02009583" stroke-width="0.00000000" fill="rgb(222, 75, 50)" opacity="1.0" stroke="rgb(255, 64, 0)" stroke-opacity="1.0" stroke-linecap="round" stroke-linejoin="round"/>
    <path d="M 361.68655396 163.39401245 C 365.87719727 160.76470947 368.08627319 159.29811096 370.25036621 157.50454712 C 372.41448975 155.71096802 374.53363037 153.59042358 378.54437256 149.65321350 C 382.16381836 145.95944214 384.91351318 146.74740601 387.28491211 149.38725281 C 389.65628052 152.02708435 391.64935303 156.51878357 393.75546265 160.23245239 C 395.93264771 165.55908203 394.59716797 168.20893860 391.71041870 169.55888367 C 388.82366943 170.90884399 384.38568115 170.95889282 380.35787964 171.08593750 C 377.90789795 171.27900696 375.58709717 172.18257141 372.81201172 173.81446838 C 370.03689575 175.44636536 366.80749512 177.80659485 362.54028320 180.91300964 C 357.84594727 184.42886353 354.21163940 187.24284363 350.85034180 189.67845154 C 347.48904419 192.11404419 344.40075684 194.17126465 340.79852295 196.17361450 C 334.82366943 200.34417725 332.25292969 201.94175720 330.26831055 203.17106628 C 328.28369141 204.40036011 326.88522339 205.26141357 323.25494385 207.95893860 C 319.67327881 210.67193604 315.66387939 214.59930420 311.91403198 217.09620667 C 308.16418457 219.59312439 304.67388916 220.65960693 302.13043213 217.65086365 C 302.97515869 214.13873291 306.00082397 211.45726013 309.56768799 208.75151062 C 313.13458252 206.04576111 317.24264526 203.31573486 320.25219727 199.70643616 C 323.23837280 197.09585571 326.35757446 194.31474304 329.53588867 191.40077209 C 332.71417236 188.48678589 335.95159912 185.43997192 339.17413330 182.29800415 C 343.95959473 178.22882080 347.21081543 175.43988037 350.45413208 172.69970703 C 353.69744873 169.95953369 356.93280029 167.26812744 361.68655396 163.39401245" stroke-width="0.19186060" fill="rgb(222, 74, 49)" opacity="1.0" stroke="rgb(163, 0, 10)" stroke-opacity="1.0" stroke-linecap="round" stroke-linejoin="round"/>
    <path d="M 210.53903198 350.29055786 C 213.35154724 352.41223145 216.31268311 353.07757568 218.74111938 353.87814331 C 221.16955566 354.67871094 223.06530762 355.61456299 223.74703979 358.27716064 C 222.52578735 362.59277344 220.86886597 366.42468262 219.31661987 369.79638672 C 217.76438904 373.16809082 216.31686401 376.07965088 215.51443481 378.55447388 C 211.36221313 380.16870117 208.76652527 379.99035645 205.84272766 379.76470947 C 202.91893005 379.53909302 199.66702271 379.26617432 194.20233154 380.69125366 C 191.61851501 380.80993652 187.78430176 382.07705688 183.72972107 383.37149048 C 179.67512512 384.66595459 175.40014648 385.98767090 171.93481445 386.21551514 C 169.17047119 385.64013672 166.31066895 383.64187622 163.34272766 381.17025757 C 160.37478638 378.69866943 157.29867554 375.75369263 154.10173035 373.28491211 C 150.66183472 370.44549561 148.79986572 368.23226929 147.07064819 366.16744995 C 145.34143066 364.10260010 143.74494934 362.18615723 140.83604431 359.94036865 C 137.73440552 357.09390259 138.18569946 353.36428833 139.95893860 350.09332275 C 141.73219299 346.82238770 144.82742310 344.01007080 147.01364136 342.99822998 C 151.74436951 344.02008057 155.70446777 345.40087891 159.14799500 345.91198730 C 162.59152222 346.42309570 165.51846313 346.06445312 168.18287659 343.60736084 C 171.41088867 341.84729004 175.14642334 340.53482056 178.95304871 339.77014160 C 182.75968933 339.00543213 186.63742065 338.78851318 190.14987183 339.21954346 C 194.58793640 339.61932373 197.62396240 340.41577148 200.58111572 342.09793091 C 203.53825378 343.78009033 206.41650391 346.34796143 210.53903198 350.29055786" stroke-width="2.00000000" fill="rgb(48, 87, 75)" opacity="1.0" stroke="rgb(250, 248, 255)" stroke-opacity="1.0" stroke-linecap="round" stroke-linejoin="round"/>
    <path d="M 358.47863770 373.09405518 C 356.41442871 374.70574951 354.56591797 375.92669678 352.55957031 377.27972412 C 350.55325317 378.63278198 348.38909912 380.11791992 345.69372559 382.25805664 C 342.98739624 384.33963013 341.11492920 386.00299072 339.08926392 386.66494751 C 337.06359863 387.32687378 334.88473511 386.98736572 331.56561279 385.06323242 C 328.07995605 384.09539795 325.92230225 383.28759766 323.75210571 382.46035767 C 321.58187866 381.63311768 319.39907837 380.78646851 315.86309814 379.74093628 C 313.10305786 378.92102051 310.21963501 378.23052979 308.02069092 376.97045898 C 305.82177734 375.71038818 304.30731201 373.88067627 304.28518677 370.78228760 C 303.64447021 368.05926514 303.46859741 365.37887573 304.03472900 362.87072754 C 304.60089111 360.36260986 305.90905762 358.02670288 308.23654175 355.99264526 C 310.45635986 354.20513916 311.93737793 352.67883301 313.56921387 351.32473755 C 315.20108032 349.97064209 316.98382568 348.78875732 319.80706787 347.69006348 C 322.01739502 346.91052246 324.13415527 346.23922729 326.57666016 345.97860718 C 329.01919556 345.71798706 331.78747559 345.86804199 335.30078125 346.73114014 C 338.45562744 347.69131470 341.00921631 348.70196533 343.33279419 349.85302734 C 345.65637207 351.00408936 347.74993896 352.29559326 349.98468018 353.81744385 C 352.31445312 355.42996216 354.82901001 356.91293335 357.41577148 358.27529907 C 360.00256348 359.63769531 362.66149902 360.87945557 365.27999878 362.00964355 C 367.46835327 363.22863770 367.46249390 365.00424194 366.06231689 366.97283936 C 364.66213989 368.94146729 361.86761475 371.10305786 358.47863770 373.09405518" stroke-width="2.00000000" fill="rgb(79, 131, 71)" opacity="1.0" stroke="rgb(0, 0, 156)" stroke-opacity="1.0" stroke-linecap="round" stroke-linejoin="round"/>
    <path d="M 326.14862061 255.12861633 C 332.17425537 255.13076782 336.71166992 255.33256531 341.25344849 255.43725586 C 345.79525757 255.54194641 350.34143066 255.54954529 356.38461304 255.16329956 C 362.30209351 255.63671875 367.51138306 255.63652039 372.77691650 255.57128906 C 378.04248047 255.50605774 383.36431885 255.37579346 389.50686646 255.58908081 C 396.91564941 254.68676758 401.37683105 255.27783203 405.71032715 256.20593262 C 410.04382324 257.13406372 414.24963379 258.39926147 421.14761353 258.84524536 C 427.90509033 259.01071167 432.53549194 257.48934937 435.05908203 254.96162415 C 437.58264160 252.43389893 437.99938965 248.89978027 436.32952881 245.03976440 C 433.72738647 246.74012756 434.51657104 249.89306641 435.25503540 253.20758057 C 435.99349976 256.52209473 436.68121338 259.99822998 433.87615967 262.34490967 C 427.76751709 263.23840332 424.02386475 261.27551270 421.11843872 259.34887695 C 418.21301270 257.42224121 416.14587402 255.53186035 413.39025879 256.57034302 C 407.86465454 260.34069824 405.18676758 262.33779907 401.55038452 263.75634766 C 397.91397095 265.17489624 393.31909180 266.01489258 383.95944214 267.47109985 C 376.65063477 267.25372314 371.51748657 265.50839233 367.28732300 264.18997192 C 363.05715942 262.87155151 359.72998047 261.98004150 356.03305054 263.47039795 C 349.77716064 266.72290039 345.70208740 268.17254639 341.88400269 268.24417114 C 338.06591797 268.31579590 334.50482178 267.00939941 329.27688599 264.74990845 C 323.90386963 260.05566406 318.77819824 257.59518433 317.16757202 256.33584595 C 315.55694580 255.07650757 317.46139526 255.01831055 326.14862061 255.12861633" stroke-width="0.99816525" fill="rgb(0, 35, 72)" opacity="1.0" stroke="rgb(113, 186, 152)" stroke-opacity="1.0" stroke-linecap="round" stroke-linejoin="round"/>
    <path d="M 191.36312866 255.05764771 C 194.59777832 255.25718689 197.69766235 255.56344604 201.29089355 256.40414429 C 204.88414001 257.24484253 208.97074890 258.61996460 214.17884827 260.95724487 C 217.00547791 265.57330322 216.47541809 268.33786011 213.98574829 269.13226318 C 211.49606323 269.92663574 207.04678345 268.75085449 202.03495789 265.48626709 C 197.08935547 264.63342285 193.15121460 263.87637329 189.45234680 263.63177490 C 185.75347900 263.38714600 182.29389954 263.65496826 178.30541992 264.85186768 C 172.66561890 266.66101074 169.20867920 267.88140869 166.06779480 267.99542236 C 162.92689514 268.10943604 160.10203552 267.11709595 155.72637939 264.50073242 C 150.83306885 262.77429199 146.92999268 262.82696533 143.13743591 263.64859009 C 139.34487915 264.47018433 135.66287231 266.06072998 131.21173096 267.40994263 C 126.28816223 268.30130005 123.65254211 267.68823242 121.36245728 266.70050049 C 119.07237244 265.71276855 117.12780762 264.35031128 113.58634949 263.74288940 C 105.39065552 263.42797852 102.26722717 261.20309448 102.70672607 259.07366943 C 103.14623260 256.94424438 107.14867401 254.91029358 113.20472717 254.97721863 C 117.41011810 254.95281982 121.18608093 255.11169434 124.92561340 255.20626831 C 128.66514587 255.30082703 132.36825562 255.33108521 136.42796326 255.04940796 C 140.60556030 254.96231079 144.89373779 255.00497437 149.36004639 255.05445862 C 153.82637024 255.10394287 158.47085571 255.16024780 163.36106873 255.10040283 C 169.34246826 255.39884949 172.69065857 255.43066406 176.36964417 255.36662292 C 180.04864502 255.30258179 184.05845642 255.14266968 191.36312866 255.05764771" stroke-width="1.37687421" fill="rgb(8, 40, 75)" opacity="1.0" stroke="rgb(204, 255, 255)" stroke-opacity="1.0" stroke-linecap="round" stroke-linejoin="round"/>
    <path d="M 349.11434937 316.94409180 C 347.30328369 319.22662354 345.17922974 321.15582275 342.88888550 323.18252563 C 340.59857178 325.20922852 338.14190674 327.33343506 335.66558838 330.00598145 C 332.70007324 332.88952637 331.09832764 334.13708496 329.23718262 335.59033203 C 327.37600708 337.04354858 325.25546265 338.70245361 321.25234985 342.40869141 C 318.58459473 344.69702148 316.68164062 346.74786377 314.86776733 349.04055786 C 313.05389404 351.33328247 311.32910156 353.86788940 309.01773071 357.12371826 C 307.60876465 360.01498413 306.45605469 363.28887939 305.15988159 365.62374878 C 303.86370850 367.95864868 302.42404175 369.35455322 300.44122314 368.48980713 C 296.74871826 365.55706787 293.14883423 363.49206543 290.87783813 361.70028687 C 288.60681152 359.90850830 287.66467285 358.38995361 289.28768921 356.55014038 C 292.60482788 352.51336670 294.75140381 351.35717773 296.71340942 350.86401367 C 298.67541504 350.37088013 300.45288086 350.54077148 303.03179932 349.15615845 C 306.34613037 346.63378906 308.14865112 345.75225830 309.96627808 344.39581299 C 311.78393555 343.03933716 313.61663818 341.20794678 316.99130249 336.78579712 C 318.61828613 334.00390625 319.95172119 331.52209473 321.22024536 328.82174683 C 322.48876953 326.12142944 323.69238281 323.20257568 325.05975342 319.54666138 C 326.45733643 317.63830566 327.70959473 314.97790527 329.60278320 312.37988281 C 331.49597168 309.78192139 334.03015137 307.24633789 337.99166870 305.58776855 C 341.77474976 307.28933716 344.44055176 308.32714844 346.21804810 309.84020996 C 347.99551392 311.35327148 348.88464355 313.34155273 349.11434937 316.94409180" stroke-width="2.00000000" fill="rgb(0, 24, 66)" opacity="1.0" stroke="rgb(255, 255, 255)" stroke-opacity="1.0" stroke-linecap="round" stroke-linejoin="round"/>
    <path d="M 193.71664429 300.11141968 C 196.14797974 300.12515259 198.47134399 302.89352417 199.45814514 306.13211060 C 200.44494629 309.37072754 200.09515381 313.07955933 197.18017578 314.97424316 C 192.51229858 313.98760986 189.15011597 312.41610718 186.19119263 311.27795410 C 183.23225403 310.13977051 180.67657471 309.43499756 177.62168884 310.18185425 C 174.13830566 310.57843018 171.32958984 311.56192017 168.47158813 312.84738159 C 165.61358643 314.13287354 162.70632935 315.72033691 159.02583313 317.32495117 C 154.82519531 318.05493164 151.60714722 317.28445435 148.55627441 316.01293945 C 145.50540161 314.74142456 142.62173462 312.96887207 139.08990479 311.69473267 C 135.87083435 309.89556885 132.14930725 309.74105835 128.35690308 310.53820801 C 124.56449890 311.33538818 120.70121765 313.08416748 117.19863892 315.09158325 C 115.46340942 313.96655273 115.33564758 311.86727905 115.03204346 309.77648926 C 114.72843170 307.68572998 114.24897766 305.60345459 111.81036377 304.51245117 C 112.09558105 303.44299316 114.53964996 302.42901611 117.93756104 301.41867065 C 121.33546448 300.40832520 125.68721008 299.40164185 129.78778076 298.34680176 C 133.49569702 297.31188965 136.73802185 297.64013672 140.01139832 298.88992310 C 143.28477478 300.13970947 146.58920288 302.31109619 150.42127991 304.96252441 C 153.95184326 305.27752686 157.61563110 304.85711670 161.36978149 304.06152344 C 165.12393188 303.26596069 168.96844482 302.09527588 172.86041260 300.90975952 C 176.54046631 298.76626587 179.69294739 297.87231445 182.95619202 297.86141968 C 186.21945190 297.85052490 189.59347534 298.72265625 193.71664429 300.11141968" stroke-width="1.06021655" fill="rgb(1, 35, 83)" opacity="1.0" stroke="rgb(0, 32, 77)" stroke-opacity="1.0" stroke-linecap="round" stroke-linejoin="round"/>
    <path d="M 195.71640015 335.24554443 C 195.69099426 335.80966187 194.07705688 334.67138672 191.35548401 333.50952148 C 188.63391113 332.34765625 184.80468750 331.16217041 180.34870911 331.63189697 C 175.98463440 332.44186401 173.92343140 333.36105347 171.73876953 334.48742676 C 169.55410767 335.61380005 167.24598694 336.94735718 162.38809204 338.58609009 C 157.76068115 338.69769287 155.42219543 337.89935303 153.05212402 336.58831787 C 150.68203735 335.27728271 148.28036499 333.45355225 143.52656555 331.51428223 C 139.30133057 331.14465332 135.45257568 331.19491577 132.61691284 331.58847046 C 129.78125000 331.98205566 127.95870209 332.71887207 127.78591919 333.72232056 C 127.57878113 333.14062500 125.04075623 330.83154297 123.52881622 328.21185303 C 122.01687622 325.59219360 121.53100586 322.66198730 125.42817688 320.83810425 C 129.78771973 319.61352539 132.57548523 319.56317139 134.75608826 320.12979126 C 136.93669128 320.69641113 138.51014709 321.88003540 140.44107056 323.12338257 C 143.92788696 324.56604004 145.66107178 325.66131592 147.95312500 326.35317993 C 150.24517822 327.04501343 153.09609985 327.33343506 158.81840515 327.16241455 C 163.08459473 326.25897217 165.40025330 325.51785278 167.33006287 324.60156250 C 169.25988770 323.68530273 170.80383301 322.59390259 173.52661133 320.98989868 C 177.59309387 320.33892822 181.64933777 319.81817627 185.32058716 320.03225708 C 188.99182129 320.24633789 192.27807617 321.19528198 194.80459595 323.48364258 C 195.17132568 327.18731689 194.03530884 330.05456543 193.48959351 332.03253174 C 192.94387817 334.01046753 192.98846436 335.09909058 195.71640015 335.24554443" stroke-width="1.51349318" fill="rgb(4, 36, 86)" opacity="1.0" stroke="rgb(1, 35, 80)" stroke-opacity="1.0" stroke-linecap="round" stroke-linejoin="round"/>
    <path d="M 397.83068848 314.08892822 C 394.37667847 314.12521362 391.68908691 313.40261841 388.97335815 313.27667236 C 386.25762939 313.15072632 383.51379395 313.62145996 379.94726562 316.04434204 C 376.26089478 317.98522949 372.59362793 319.19500732 368.84222412 319.58282471 C 365.09078979 319.97064209 361.25524902 319.53646851 357.23226929 318.18945312 C 353.31015015 316.73132324 349.86932373 315.03695679 346.56695557 313.44992065 C 343.26455688 311.86285400 340.10058594 310.38311768 336.73217773 309.35430908 C 331.05017090 308.35333252 327.60528564 309.11297607 324.73336792 310.13626099 C 321.86145020 311.15954590 319.56243896 312.44647217 316.17221069 312.50015259 C 313.01000977 308.70593262 311.09582520 305.88845825 311.34039307 303.37231445 C 311.58496094 300.85614014 313.98825073 298.64129639 319.46096802 296.05224609 C 325.63128662 295.61663818 327.94720459 295.33764648 330.04495239 295.21484375 C 332.14270020 295.09207153 334.02227783 295.12548828 339.31991577 295.31478882 C 343.36840820 295.27740479 346.61950684 295.19287109 350.01956177 295.69332886 C 353.41961670 296.19378662 356.96862793 297.27917480 361.61294556 299.58160400 C 365.41259766 301.44146729 368.95178223 302.61013794 372.58258057 302.70431519 C 376.21340942 302.79849243 379.93585205 301.81823730 384.10202026 299.38024902 C 388.08648682 297.76062012 392.53729248 295.54400635 396.10076904 294.77923584 C 399.66427612 294.01449585 402.34045410 294.70166016 402.77575684 298.88961792 C 402.38336182 303.11508179 401.02880859 307.05444336 399.83145142 309.86767578 C 398.63412476 312.68090820 397.59405518 314.36798096 397.83068848 314.08892822" stroke-width="2.00000000" fill="rgb(9, 42, 85)" opacity="1.0" stroke="rgb(197, 255, 255)" stroke-opacity="1.0" stroke-linecap="round" stroke-linejoin="round"/>
    <path d="M 195.51165771 339.22265625 C 198.36323547 337.71066284 199.88412476 338.77685547 201.16558838 340.98391724 C 202.44703674 343.19097900 203.48907471 346.53887939 205.38291931 349.59033203 C 206.22698975 354.02221680 204.68084717 355.13671875 202.11160278 355.00164795 C 199.54234314 354.86660767 195.95001221 353.48205566 192.70170593 352.91586304 C 187.57446289 352.42526245 184.76458740 352.24737549 181.90960693 352.38177490 C 179.05461121 352.51614380 176.15449524 352.96276855 170.84672546 353.72113037 C 167.60958862 353.76602173 164.83590698 354.19741821 162.48609924 355.64297485 C 160.13629150 357.08856201 158.21032715 359.54827881 156.66857910 363.64990234 C 154.52143860 368.95166016 151.87854004 369.31369019 149.38485718 367.92749023 C 146.89117432 366.54132080 144.54669189 363.40692139 142.99642944 361.71588135 C 139.45217896 356.66900635 138.21376038 355.02792358 137.01736450 353.62887573 C 135.82098389 352.22985840 134.66665649 351.07287598 131.29058838 346.99429321 C 128.11035156 342.96166992 128.37634277 340.63885498 130.47174072 339.45971680 C 132.56713867 338.28060913 136.49194336 338.24520874 140.62930298 338.78744507 C 143.57992554 339.50067139 146.03500366 340.76071167 148.89143372 342.14266968 C 151.74786377 343.52459717 155.00564575 345.02844238 159.56166077 346.22918701 C 162.79592896 346.37905884 165.92964172 345.50329590 169.06291199 344.18716431 C 172.19618225 342.87103271 175.32901001 341.11453247 178.56149292 339.50289917 C 181.48121643 337.27099609 183.54324341 337.77844238 185.96310425 338.55511475 C 188.38294983 339.33178711 191.16062927 340.37768555 195.51165771 339.22265625" stroke-width="2.00000000" fill="rgb(9, 42, 80)" opacity="1.0" stroke="rgb(255, 255, 255)" stroke-opacity="1.0" stroke-linecap="round" stroke-linejoin="round"/>
    <path d="M 194.59164429 291.46347046 C 192.08032227 290.31253052 189.05307007 289.27761841 185.60171509 288.84011841 C 182.15036011 288.40261841 178.27490234 288.56253052 174.06724548 289.80126953 C 169.49368286 291.09393311 166.74618530 292.92968750 163.77026367 294.05996704 C 160.79434204 295.19024658 157.59001160 295.61505127 152.10279846 294.08572388 C 148.48210144 292.49603271 145.46188354 290.70233154 142.07069397 289.47286987 C 138.67948914 288.24340820 134.91731262 287.57818604 129.81268311 288.24548340 C 125.11286926 289.11303711 120.81211090 290.50234985 117.61994934 291.98159790 C 114.42778015 293.46087646 112.34420776 295.03005981 112.07876587 296.25741577 C 111.77229309 294.10461426 109.91470337 290.22930908 109.27863312 287.47811890 C 108.64256287 284.72695923 109.22800446 283.09991455 113.80760193 285.44369507 C 118.42578125 286.55877686 120.96757507 287.74530029 123.37904358 288.43206787 C 125.79049683 289.11886597 128.07162476 289.30590820 132.16845703 288.42214966 C 135.84799194 286.55364990 138.38735962 284.93157959 141.25328064 284.15060425 C 144.11920166 283.36962891 147.31167603 283.42977905 152.29742432 284.92581177 C 156.34956360 286.32479858 159.71789551 287.80349731 163.42800903 288.28854370 C 167.13812256 288.77362061 171.19003296 288.26504517 176.60932922 285.68951416 C 181.04174805 284.68386841 184.81924438 283.34838867 188.64158630 282.43304443 C 192.46392822 281.51773071 196.33108521 281.02255249 200.94277954 281.69754028 C 203.72114563 283.98748779 205.22789001 288.05120850 204.49278259 290.73132324 C 203.75767517 293.41146851 200.78070068 294.70797729 194.59164429 291.46347046" stroke-width="1.53885269" fill="rgb(0, 32, 81)" opacity="1.0" stroke="rgb(0, 35, 82)" stroke-opacity="1.0" stroke-linecap="round" stroke-linejoin="round"/>
    <path d="M 143.48979187 268.96340942 C 146.51943970 268.92108154 149.18646240 269.50280762 152.08044434 270.36276245 C 154.97441101 271.22271729 158.09533691 272.36096191 162.03279114 273.43170166 C 165.86196899 273.51855469 168.07612610 273.96356201 170.87294006 273.63504028 C 173.66975403 273.30648804 177.04922485 272.20434570 183.20903015 269.19686890 C 188.60571289 268.94482422 192.62115479 268.04803467 196.05012512 267.98712158 C 199.47909546 267.92620850 202.32159424 268.70120239 205.37237549 271.79272461 C 202.07089233 274.88540649 199.12516785 275.39089966 195.35446167 275.25433350 C 191.58374023 275.11773682 186.98803711 274.33911133 180.38661194 274.86355591 C 176.14819336 275.60070801 173.59204102 277.14166260 170.81018066 278.00137329 C 168.02833557 278.86108398 165.02078247 279.03955078 159.87954712 277.05169678 C 154.58712769 275.96942139 151.55773926 274.40734863 148.86146545 273.50955200 C 146.16519165 272.61172485 143.80203247 272.37817383 139.84207153 273.95297241 C 135.96786499 275.93701172 132.70736694 277.56988525 129.47396851 278.22583008 C 126.24057007 278.88177490 123.03428650 278.56079102 119.26852417 276.63708496 C 116.02707672 275.13616943 114.01996613 274.70397949 112.36553955 274.43075562 C 110.71112061 274.15753174 109.40937805 274.04327393 107.57867432 273.17822266 C 106.11756897 268.65087891 108.03991699 268.52243042 111.32395935 269.63211060 C 114.60799408 270.74182129 119.25371552 273.08966064 123.23934937 273.51486206 C 129.43640137 273.80639648 132.65374756 273.64367676 135.24447632 272.92050171 C 137.83518982 272.19732666 139.79928589 270.91369629 143.48979187 268.96340942" stroke-width="1.58807290" fill="rgb(5, 36, 86)" opacity="1.0" stroke="rgb(0, 30, 75)" stroke-opacity="1.0" stroke-linecap="round" stroke-linejoin="round"/>
    <path d="M 400.02655029 292.06329346 C 396.70806885 291.47363281 393.86505127 291.29721069 391.05584717 291.83923340 C 388.24664307 292.38125610 385.47128296 293.64169312 382.28811646 295.92575073 C 378.92883301 297.52984619 375.44674683 298.24011230 371.99069214 298.17886353 C 368.53466797 298.11764526 365.10467529 297.28491211 361.84967041 295.80294800 C 359.11682129 293.38812256 356.17276001 292.16296387 352.92889404 291.76953125 C 349.68502808 291.37609863 346.14138794 291.81439209 342.20944214 292.72647095 C 338.24075317 293.52185059 334.42523193 295.81274414 331.03640747 297.03222656 C 327.64758301 298.25170898 324.68545532 298.39978027 322.42358398 294.90948486 C 321.34225464 292.54516602 320.12448120 287.78573608 320.51824951 284.07006836 C 320.91201782 280.35437012 322.91732788 277.68246460 328.28216553 279.49313354 C 332.47360229 280.72277832 334.33117676 282.04959106 336.25656128 283.04507446 C 338.18194580 284.04055786 340.17517090 284.70468140 344.63793945 284.60894775 C 348.46954346 283.62921143 351.09655762 282.22564697 354.05133057 281.31582642 C 357.00607300 280.40603638 360.28851318 279.99005127 365.43090820 280.98544312 C 369.19989014 282.04037476 371.89208984 283.67028809 374.82653809 284.66540527 C 377.76101685 285.66052246 380.93774414 286.02087402 385.67584229 284.53665161 C 389.30831909 283.23098755 392.91705322 281.61746216 396.32608032 280.75512695 C 399.73507690 279.89279175 402.94433594 279.78167725 405.77783203 281.48083496 C 406.36453247 284.65747070 406.04827881 288.04220581 405.02453613 290.26324463 C 404.00082397 292.48425293 402.26965332 293.54156494 400.02655029 292.06329346" stroke-width="1.83385885" fill="rgb(3, 35, 79)" opacity="1.0" stroke="rgb(243, 255, 255)" stroke-opacity="1.0" stroke-linecap="round" stroke-linejoin="round"/>
    <path d="M 390.86727905 336.33688354 C 388.52868652 336.78015137 385.68151855 339.17370605 382.85565186 342.50109863 C 380.02978516 345.82852173 377.22525024 350.08984375 374.97192383 354.26867676 C 373.40966797 359.22958374 371.69686890 363.92495728 369.20901489 366.18191528 C 366.72116089 368.43887329 363.45825195 368.25744629 358.79586792 363.46472168 C 355.42675781 359.83764648 351.97564697 356.84362793 348.10321045 354.78591919 C 344.23077393 352.72821045 339.93701172 351.60681152 334.88253784 351.72494507 C 327.52154541 351.79559326 322.89828491 352.15948486 318.94580078 352.96817017 C 314.99331665 353.77682495 311.71160889 355.03024292 307.03375244 356.87991333 C 302.65454102 358.20492554 300.43908691 356.43890381 300.81866455 353.73730469 C 301.19824219 351.03570557 304.17285156 347.39849854 310.17391968 344.98114014 C 315.88800049 343.32843018 318.97259521 342.71133423 321.66107178 342.16485596 C 324.34957886 341.61837769 326.64196777 341.14251709 330.77163696 339.77233887 C 336.00805664 338.39260864 338.31488037 337.91217041 340.71600342 338.32473755 C 343.11712646 338.73733521 345.61254883 340.04296875 351.22610474 342.23544312 C 355.26336670 344.58929443 357.05041504 346.17480469 359.42858887 346.31430054 C 361.80676270 346.45379639 364.77609253 345.14727783 371.17791748 341.71701050 C 378.18789673 340.11874390 381.50851440 339.82928467 384.44885254 338.99700928 C 387.38919067 338.16476440 389.94921875 336.78967285 395.43807983 333.02014160 C 400.00088501 331.15930176 401.84881592 329.36987305 401.06076050 329.35491943 C 400.27267456 329.33999634 396.84857178 331.09960938 390.86727905 336.33688354" stroke-width="0.00000000" fill="rgb(3, 36, 79)" opacity="1.0" stroke="rgb(0, 187, 255)" stroke-opacity="1.0" stroke-linecap="round" stroke-linejoin="round"/>
    <path d="M 332.79019165 270.25076294 C 336.42584229 270.63366699 338.76916504 271.03543091 341.28903198 270.98117065 C 343.80889893 270.92691040 346.50524902 270.41662598 350.84689331 268.97546387 C 353.42028809 267.34707642 356.25564575 266.44934082 359.16967773 266.18710327 C 362.08367920 265.92483521 365.07635498 266.29803467 367.96435547 267.21151733 C 372.04556274 268.80975342 373.86737061 269.84609985 375.81814575 270.40133667 C 377.76892090 270.95654297 379.84869385 271.03060913 384.44580078 270.70422363 C 388.82116699 269.87240601 391.03195190 268.44213867 393.41860962 267.34747314 C 395.80529785 266.25283813 398.36785889 265.49377441 403.44674683 266.00442505 C 407.70135498 267.50439453 408.99151611 270.43783569 408.58203125 272.85473633 C 408.17254639 275.27160645 406.06335449 277.17193604 403.51922607 276.60562134 C 397.44268799 277.48223877 394.96951294 277.77801514 392.91476440 278.31607056 C 390.85998535 278.85412598 389.22360229 279.63442993 384.82058716 281.48010254 C 379.87673950 282.37918091 377.64007568 282.07183838 375.36392212 281.17202759 C 373.08776855 280.27221680 370.77209473 278.77990723 365.67019653 277.30902100 C 362.32373047 276.91207886 360.49902344 276.67108154 358.25888062 277.02914429 C 356.01873779 277.38723755 353.36315918 278.34439087 348.35488892 280.34378052 C 346.01171875 281.15289307 342.57656860 282.05227661 338.73074341 282.46173096 C 334.88494873 282.87118530 330.62847900 282.79067993 326.64263916 281.63998413 C 323.57492065 279.81179810 323.28268433 276.54623413 324.67193604 273.94683838 C 326.06118774 271.34747314 329.13195801 269.41424561 332.79019165 270.25076294" stroke-width="1.37110639" fill="rgb(0, 26, 70)" opacity="1.0" stroke="rgb(242, 255, 255)" stroke-opacity="1.0" stroke-linecap="round" stroke-linejoin="round"/>
    <path d="M 297.92785645 411.42089844 C 295.49639893 413.74102783 293.44311523 415.10717773 290.84112549 415.72497559 C 288.23913574 416.34280396 285.08850098 416.21231079 280.46237183 415.53912354 C 277.01489258 414.69293213 273.60055542 413.42227173 270.16131592 412.08752441 C 266.72204590 410.75277710 263.25787354 409.35394287 259.71075439 408.25131226 C 255.62968445 406.56207275 252.27375793 405.84713745 249.71505737 404.59027100 C 247.15634155 403.33340454 245.39483643 401.53457642 244.50260925 397.67749023 C 244.06320190 392.63024902 245.56004333 389.82952881 248.22315979 388.17465210 C 250.88627625 386.51980591 254.71566772 386.01083374 258.94137573 385.54711914 C 262.32562256 385.57553101 264.29364014 383.44436646 264.63229370 380.40991211 C 264.97094727 377.37542725 263.68023682 373.43762207 260.54705811 369.85275269 C 260.84451294 367.37121582 262.63684082 365.04864502 264.26315308 364.10003662 C 265.88946533 363.15142822 267.34973145 363.57684326 266.98306274 366.59118652 C 266.93524170 371.18218994 266.88049316 373.66558838 267.96105957 375.71679688 C 269.04159546 377.76800537 271.25744629 379.38708496 275.75070190 382.24935913 C 279.14880371 384.82208252 279.55828857 385.85235596 278.69012451 386.60296631 C 277.82192993 387.35357666 275.67608643 387.82452393 273.96362305 389.27853394 C 274.29925537 391.59924316 276.01834106 392.53475952 278.68917847 393.06814575 C 281.36001587 393.60156250 284.98260498 393.73284912 289.12524414 394.44512939 C 292.18728638 395.73538208 295.50427246 397.07946777 297.49758911 399.55090332 C 299.49090576 402.02233887 300.16052246 405.62115479 297.92785645 411.42089844" stroke-width="0.00000000" fill="rgb(10, 38, 89)" opacity="1.0" stroke="rgb(110, 180, 255)" stroke-opacity="1.0" stroke-linecap="round" stroke-linejoin="round"/>
    <path d="M 399.05252075 319.56567383 C 395.52859497 319.84161377 393.84237671 322.31915283 392.42071533 325.55279541 C 390.99905396 328.78646851 389.84191895 332.77630615 387.37615967 336.07681274 C 384.21343994 337.21881104 380.59545898 337.12219238 377.00146484 337.39038086 C 373.40747070 337.65859985 369.83743286 338.29162598 366.77056885 340.89291382 C 361.75610352 341.61691284 358.87811279 341.11590576 355.73773193 339.92092896 C 352.59735107 338.72595215 349.19451904 336.83694458 343.13037109 334.78494263 C 339.34899902 333.45568848 334.62890625 334.40704346 330.55358887 335.94909668 C 326.47827148 337.49114990 323.04766846 339.62393188 321.84527588 340.65750122 C 319.65197754 338.68539429 320.49499512 334.24688721 322.46649170 330.14776611 C 324.43798828 326.04864502 327.53796387 322.28894043 329.85870361 321.67443848 C 337.72918701 319.11096191 340.79959106 318.37231445 342.99310303 318.26568604 C 345.18664551 318.15902710 346.50323486 318.68435669 350.86614990 318.64886475 C 355.43060303 319.64678955 357.19274902 321.23748779 359.51156616 322.34295654 C 361.83038330 323.44845581 364.70593262 324.06872559 371.49725342 323.12576294 C 375.43524170 322.71893311 377.15466309 321.75714111 379.24847412 320.56152344 C 381.34231567 319.36590576 383.81060791 317.93640137 389.24639893 316.59417725 C 395.45901489 318.05383301 398.81640625 319.49246216 400.74304199 321.51696777 C 402.66967773 323.54147339 403.16549683 326.15185547 403.65496826 329.95504761 C 401.30505371 331.71917725 400.62475586 328.54748535 400.29675293 325.22192383 C 399.96875000 321.89639282 399.99310303 318.41699219 399.05252075 319.56567383" stroke-width="1.79322922" fill="rgb(8, 39, 84)" opacity="1.0" stroke="rgb(255, 255, 255)" stroke-opacity="1.0" stroke-linecap="round" stroke-linejoin="round"/>
    <path d="M 349.36923218 385.87951660 C 343.00158691 390.41979980 336.36291504 395.78805542 328.40429688 400.63552856 C 320.44567871 405.48300171 311.16711426 409.80966187 299.51959229 412.26669312 C 285.15240479 415.71209717 273.47421265 417.76000977 263.36575317 418.45675659 C 253.25730896 419.15350342 244.71858215 418.49908447 236.63027954 416.53988647 C 238.05264282 419.58093262 242.20341492 418.51538086 243.04704285 415.59985352 C 243.89068604 412.68429565 241.42718506 407.91876221 229.62101746 403.55984497 C 218.68673706 398.47052002 208.48785400 396.19207764 198.70384216 393.65109253 C 188.91984558 391.11010742 179.55072021 388.30664062 170.27593994 382.16735840 C 166.01260376 381.41268921 174.53695679 384.88693237 185.37875366 389.08404541 C 196.22055054 393.28112793 209.37977600 398.20108032 214.38616943 400.33779907 C 228.94332886 406.26397705 238.79891968 409.57556152 244.84407043 411.33612061 C 250.88922119 413.09671021 253.12393188 413.30627441 252.43933105 413.02847290 C 255.03015137 415.55633545 262.62738037 415.12316895 272.05245972 413.47375488 C 281.47753906 411.82437134 292.73040771 408.95880127 302.63256836 406.62185669 C 317.07196045 400.65322876 326.26135254 396.38861084 333.66445923 392.00469971 C 341.06753540 387.62078857 346.68429565 383.11758423 353.97833252 376.67175293 C 362.94342041 369.36795044 371.30941772 359.01782227 377.75784302 350.84271240 C 384.20623779 342.66763306 388.73706055 336.66760254 390.03170776 338.06396484 C 389.01708984 343.42419434 385.07507324 349.97668457 378.27493286 357.88977051 C 371.47479248 365.80288696 361.81646729 375.07666016 349.36923218 385.87951660" stroke-width="2.00000000" fill="rgb(255, 255, 255)" opacity="1.0" stroke="rgb(0, 41, 87)" stroke-opacity="1.0" stroke-linecap="round" stroke-linejoin="round"/>
    <path d="M 340.64624023 415.79672241 C 329.87506104 425.10174561 311.77429199 430.74328613 292.64920044 434.17507935 C 273.52407837 437.60687256 253.37464905 438.82885742 238.50613403 439.29479980 C 231.09381104 440.55694580 238.22985840 436.48983765 254.24151611 430.26724243 C 270.25317383 424.04461670 295.14047241 415.66650391 323.23065186 408.30661011 C 348.99728394 392.13796997 360.47155762 383.63909912 360.34457397 381.55371094 C 360.21759033 379.46835327 348.48937988 383.79647827 327.85101318 393.28186035 C 307.96923828 399.03985596 288.54830933 403.48632812 274.57989502 406.11965942 C 260.61145020 408.75299072 252.09552002 409.57321167 254.02371216 408.07873535 C 263.09106445 397.36734009 267.66781616 393.52258301 268.59844971 393.59304810 C 269.52905273 393.66354370 266.81353760 397.64923096 261.29638672 402.59878540 C 267.11328125 406.40820312 274.23153687 406.41345215 282.19128418 404.99615479 C 290.15100098 403.57885742 298.95220947 400.73901367 308.13510132 398.85830688 C 326.30093384 393.84298706 340.78277588 389.42736816 353.10369873 383.17434692 C 365.42459106 376.92132568 375.58459473 368.83090210 385.10675049 356.46597290 C 400.26898193 333.44104004 405.89227295 319.88366699 409.70104980 305.62847900 C 413.50982666 291.37326050 415.50402832 276.42022705 423.40808105 250.60397339 C 433.25921631 244.94937134 434.95175171 255.70120239 433.29052734 271.48321533 C 431.62930298 287.26525879 426.61431885 308.07745361 423.05047607 322.54357910 C 410.69528198 345.95117188 400.80575562 363.05523682 388.64926147 377.41198730 C 376.49273682 391.76873779 362.06927490 403.37823486 340.64624023 415.79672241" stroke-width="1.61660135" fill="rgb(239, 111, 20)" opacity="1.0" stroke="rgb(0, 6, 41)" stroke-opacity="1.0" stroke-linecap="round" stroke-linejoin="round"/>
    <path d="M 266.46109009 403.83911133 C 261.33435059 404.40936279 257.28512573 404.19241333 252.82617188 403.52197266 C 248.36723328 402.85150146 243.49856567 401.72750854 236.73292542 400.48361206 C 235.98286438 401.56134033 239.72027588 403.31695557 244.42419434 405.38363647 C 249.12809753 407.45034790 254.79849243 409.82809448 257.91439819 412.15005493 C 251.72113037 413.38055420 246.58773804 413.86343384 241.60380554 413.62661743 C 236.61985779 413.38977051 231.78536987 412.43322754 226.18992615 410.78475952 C 220.85040283 409.53594971 216.26396179 408.25204468 211.63403320 406.74392700 C 207.00408936 405.23577881 202.33065796 403.50341797 196.81710815 401.35757446 C 189.58157349 398.94366455 184.95932007 395.83801270 184.04074097 393.70935059 C 183.12216187 391.58071899 185.90727234 390.42913818 193.48648071 391.92333984 C 199.95339966 393.26901245 203.41821289 394.99691772 206.58311462 395.83200073 C 209.74801636 396.66708374 212.61303711 396.60931396 217.88032532 394.38366699 C 222.91519165 392.16845703 225.98550415 391.12997437 229.20347595 390.98529053 C 232.42143250 390.84057617 235.78704834 391.58966064 241.41255188 392.94964600 C 245.87704468 394.23309326 247.29495239 395.64538574 248.19879150 395.73992920 C 249.10264587 395.83444214 249.49244690 394.61117554 251.90077209 390.62347412 C 256.06274414 389.11401367 260.18188477 387.60089111 263.77508545 387.01724243 C 267.36828613 386.43359375 270.43548584 386.77941895 272.49365234 388.98782349 C 272.78161621 393.35101318 273.59487915 396.53915405 273.17547607 398.89886475 C 272.75604248 401.25854492 271.10394287 402.78979492 266.46109009 403.83911133" stroke-width="2.00000000" fill="rgb(17, 50, 90)" opacity="1.0" stroke="rgb(237, 255, 255)" stroke-opacity="1.0" stroke-linecap="round" stroke-linejoin="round"/>
    <path d="M 288.04641724 377.06311035 C 288.62216187 374.42282104 290.28063965 372.23638916 292.76736450 370.19711304 C 295.25408936 368.15786743 298.56909180 366.26580811 302.45791626 364.21426392 C 305.68289185 361.01385498 309.44836426 360.41455078 312.33587646 360.72045898 C 315.22338867 361.02633667 317.23294067 362.23742676 316.94601440 362.65768433 C 311.13861084 365.09179688 307.85705566 367.86920166 307.79678345 370.08340454 C 307.73651123 372.29757690 310.89758301 373.94857788 317.97546387 374.12991333 C 323.61877441 374.66259766 329.17382812 374.30535889 334.22576904 374.43249512 C 339.27774048 374.55960083 343.82659912 375.17108154 347.45751953 377.64108276 C 348.61529541 380.08416748 344.21099854 381.16979980 338.87478638 381.41195679 C 333.53857422 381.65408325 327.27044678 381.05270386 324.70043945 380.12167358 C 317.38159180 379.74285889 312.66494751 378.62350464 309.13516235 378.32611084 C 305.60537720 378.02868652 303.26245117 378.55325317 300.69107056 381.46224976 C 297.64373779 387.43621826 297.30053711 390.55712891 296.82308960 391.68530273 C 296.34561157 392.81347656 295.73385620 391.94894409 292.14932251 389.95199585 C 291.84246826 387.40197754 292.71166992 385.66699219 291.83773804 385.29632568 C 290.96383667 384.92562866 288.34680176 385.91918945 281.06744385 388.82629395 C 275.81262207 388.86505127 269.56851196 389.61407471 265.44964600 389.32989502 C 261.33078003 389.04571533 259.33715820 387.72827148 262.58337402 383.63406372 C 268.69812012 381.95227051 274.04040527 381.88873291 278.36572266 381.45608521 C 282.69107056 381.02340698 285.99945068 380.22155762 288.04641724 377.06311035" stroke-width="0.43877062" fill="rgb(0, 27, 73)" opacity="1.0" stroke="rgb(0, 21, 77)" stroke-opacity="1.0" stroke-linecap="round" stroke-linejoin="round"/>
    <path d="M 256.94735718 397.34503174 C 256.07302856 397.55590820 254.92552185 397.56640625 253.57365417 397.31573486 C 252.22178650 397.06506348 250.66557312 396.55322266 248.97383118 395.71948242 C 247.45855713 394.64440918 246.36465454 393.68319702 245.27926636 392.76455688 C 244.19387817 391.84591675 243.11698914 390.96984863 241.63572693 390.06512451 C 239.57644653 389.27371216 238.33753967 388.86071777 237.05024719 388.50018311 C 235.76295471 388.13964844 234.42727661 387.83154297 232.17446899 387.24984741 C 230.71340942 386.85760498 228.94268799 386.65481567 227.19006348 386.28155518 C 225.43742371 385.90826416 223.70288086 385.36450195 222.31411743 384.29022217 C 222.65321350 382.38256836 223.25106812 381.69006348 224.35458374 381.38406372 C 225.45809937 381.07806396 227.06727600 381.15859985 229.42900085 380.79699707 C 231.42842102 380.72772217 232.53584290 380.66903687 233.55834961 380.59100342 C 234.58085632 380.51293945 235.51844788 380.41558838 237.17822266 380.26892090 C 239.37300110 380.00769043 240.25802612 379.77560425 241.13235474 379.32360840 C 242.00668335 378.87158203 242.87028503 378.19964600 245.02221680 377.05865479 C 245.87158203 376.17034912 246.11396790 376.86572266 246.46655273 378.15353394 C 246.81913757 379.44134521 247.28193665 381.32159424 248.57214355 382.80297852 C 249.58840942 384.17974854 250.81913757 385.38317871 252.00845337 386.47970581 C 253.19776917 387.57623291 254.34567261 388.56591797 255.19625854 389.51528931 C 256.81665039 390.99893188 258.08892822 392.33609009 258.53887939 393.61248779 C 258.98883057 394.88888550 258.61642456 396.10449219 256.94735718 397.34503174" stroke-width="0.14137532" fill="rgb(1, 34, 81)" opacity="1.0" stroke="rgb(0, 0, 62)" stroke-opacity="1.0" stroke-linecap="round" stroke-linejoin="round"/>
    <path d="M 284.54223633 382.27770996 C 290.75860596 384.69604492 294.26605225 384.88882446 297.96093750 384.31750488 C 301.65582275 383.74621582 305.53817749 382.41082764 312.50436401 381.77273560 C 317.71136475 384.31231689 323.23236084 385.93920898 328.71768188 386.26214600 C 334.20300293 386.58511353 339.65270996 385.60412598 344.71713257 382.92800903 C 345.79644775 378.58587646 342.18200684 379.30035400 338.71600342 382.16079712 C 335.25000000 385.02124023 331.93237305 390.02764893 333.60528564 394.26931763 C 338.90252686 394.66769409 343.31011963 392.42514038 347.92181396 388.81555176 C 352.53353882 385.20599365 357.34936523 380.22937012 363.46307373 375.15969849 C 372.92736816 368.94458008 374.35662842 368.84112549 372.51815796 371.02517700 C 370.67971802 373.20922852 365.57354736 377.68078613 361.96704102 380.61566162 C 356.25137329 386.51858521 351.69372559 389.03500366 348.72802734 390.67620850 C 345.76235962 392.31744385 344.38861084 393.08346558 345.04074097 395.48559570 C 343.32580566 395.89767456 340.59295654 395.20867920 336.58074951 394.49688721 C 332.56854248 393.78509521 327.27697754 393.05047607 320.44458008 393.37130737 C 313.32482910 392.26309204 311.58148193 392.44476318 310.18606567 392.92312622 C 308.79064941 393.40151978 307.74316406 394.17663574 302.01504517 394.25527954 C 295.90924072 392.25244141 289.86010742 390.94125366 284.34991455 389.46780396 C 278.83969116 387.99438477 273.86834717 386.35867310 269.91809082 383.70681763 C 263.33261108 377.67010498 262.96508789 376.46795654 266.25567627 377.19738770 C 269.54632568 377.92681885 276.49508667 380.58789062 284.54223633 382.27770996" stroke-width="1.97756100" fill="rgb(4, 31, 75)" opacity="1.0" stroke="rgb(255, 255, 255)" stroke-opacity="1.0" stroke-linecap="round" stroke-linejoin="round"/>
    <path d="M 234.32588196 386.42959595 C 236.39506531 387.23669434 235.94436646 387.34402466 234.17706299 387.28207397 C 232.40975952 387.22015381 229.32585144 386.98895264 226.12860107 387.11911011 C 223.17977905 387.95819092 220.19108582 388.86053467 217.23246765 389.79855347 C 214.27384949 390.73660278 211.34530640 391.71035767 208.51681519 392.69232178 C 205.09550476 392.88330078 202.33428955 392.59265137 199.79844666 392.35504150 C 197.26260376 392.11743164 194.95216370 391.93286133 192.43240356 392.33599854 C 188.47656250 394.28546143 186.56176758 395.27694702 184.94500732 395.02709961 C 183.32824707 394.77725220 182.00952148 393.28607178 179.24581909 390.27026367 C 177.05014038 389.29251099 173.32110596 387.36407471 170.51994324 385.44659424 C 167.71876526 383.52914429 165.84542847 381.62268066 167.36111450 380.68890381 C 172.06321716 380.85192871 173.75210571 382.18957520 175.30638123 383.59808350 C 176.86064148 385.00659180 178.28027344 386.48596191 182.44384766 386.93252563 C 186.26171875 386.51812744 188.13571167 386.01419067 190.36996460 385.30355835 C 192.60420227 384.59292603 195.19871521 383.67559814 200.45762634 382.43435669 C 204.58438110 381.92425537 207.13940430 382.53356934 208.84535217 382.45742798 C 210.55128479 382.38125610 211.40811157 381.61962891 212.13848877 378.36761475 C 214.77136230 374.57287598 217.44578552 371.56610107 219.71284485 370.49737549 C 221.97988892 369.42864990 223.83956909 370.29800415 224.84294128 374.25546265 C 224.32122803 377.54611206 224.64480591 380.62872314 226.12237549 382.86914062 C 227.59996033 385.10955811 230.23153687 386.50778198 234.32588196 386.42959595" stroke-width="0.17963929" fill="rgb(6, 37, 81)" opacity="1.0" stroke="rgb(12, 45, 93)" stroke-opacity="1.0" stroke-linecap="round" stroke-linejoin="round"/>
    <path d="M 217.00306702 293.04071045 C 216.16464233 293.63323975 214.78625488 294.88000488 213.21844482 296.49151611 C 211.65063477 298.10302734 209.89338684 300.07928467 208.29725647 302.13070679 C 207.33047485 303.59747314 205.55287170 306.17709351 203.78709412 307.90951538 C 202.02131653 309.64196777 200.26736450 310.52719116 199.34786987 308.60516357 C 199.10841370 306.57513428 199.09552002 304.07513428 199.10995483 301.62881470 C 199.12438965 299.18252563 199.16613770 296.78991699 199.03594971 294.97470093 C 198.78164673 291.68218994 198.63378906 289.30899048 199.09608459 287.28750610 C 199.55836487 285.26599121 200.63079834 283.59619141 202.81703186 281.71044922 C 204.06074524 280.68688965 205.11138916 279.13250732 206.35087585 277.30178833 C 207.59034729 275.47106934 209.01864624 273.36407471 211.01763916 271.23532104 C 212.72904968 269.64251709 214.30212402 268.84344482 215.85334778 268.30029297 C 217.40457153 267.75711060 218.93392944 267.46984863 220.55790710 266.90057373 C 222.53103638 265.82604980 223.82431030 263.90048218 225.12753296 262.20230103 C 226.43074036 260.50411987 227.74386597 259.03329468 229.75671387 258.86822510 C 231.43443298 259.25982666 232.49034119 260.66265869 233.13859558 262.46035767 C 233.78686523 264.25805664 234.02746582 266.45062256 234.07455444 268.42160034 C 233.17416382 271.11587524 232.07023621 273.30642700 230.94160461 275.25967407 C 229.81295776 277.21292114 228.65960693 278.92883301 227.66032410 280.67382812 C 226.23579407 282.71624756 225.06268311 284.27001953 223.50009155 286.08215332 C 221.93750000 287.89428711 219.98545837 289.96478271 217.00306702 293.04071045" stroke-width="2.00000000" fill="rgb(11, 39, 80)" opacity="1.0" stroke="rgb(255, 255, 255)" stroke-opacity="1.0" stroke-linecap="round" stroke-linejoin="round"/>
    <path d="M 327.07452393 273.24307251 C 322.64971924 270.84967041 318.60339355 268.47833252 313.98269653 267.26794434 C 309.36203003 266.05755615 304.16699219 266.00808716 297.44482422 268.25839233 C 293.81433105 271.41604614 289.09136963 273.36932373 283.76007080 275.09246826 C 278.42880249 276.81558228 272.48919678 278.30859375 266.42541504 280.54565430 C 261.38742065 282.70251465 257.30603027 284.80694580 253.56018066 287.78973389 C 249.81434631 290.77252197 246.40405273 294.63366699 242.70823669 300.30398560 C 239.16979980 304.96249390 235.55088806 311.90512085 232.18795776 315.68463135 C 228.82502747 319.46411133 225.71810913 320.08044434 223.20365906 312.08636475 C 225.34976196 305.53234863 226.95922852 302.44854736 229.34722900 298.95602417 C 231.73521423 295.46347046 234.90173340 291.56222534 240.16197205 283.37335205 C 242.99572754 277.96429443 244.46496582 273.74227905 244.94288635 269.62179565 C 245.42080688 265.50134277 244.90744019 261.48242188 243.77593994 256.47961426 C 249.99281311 254.50885010 254.12252808 254.60693359 258.84667969 254.99971008 C 263.57080078 255.39248657 268.88934326 256.07992554 277.48391724 255.28787231 C 284.53411865 254.30633545 290.54562378 254.72015381 295.87774658 255.08108521 C 301.20983887 255.44200134 305.86260986 255.75003052 310.19531250 254.55693054 C 316.48498535 255.05920410 320.27618408 256.35928345 323.56677246 258.83340454 C 326.85736084 261.30755615 329.64733887 264.95574951 333.93457031 270.15426636 C 339.23547363 275.03192139 341.61892700 279.06454468 340.62792969 280.24755859 C 339.63693237 281.43057251 335.27148438 279.76394653 327.07452393 273.24307251" stroke-width="2.00000000" fill="rgb(12, 39, 83)" opacity="1.0" stroke="rgb(255, 255, 255)" stroke-opacity="1.0" stroke-linecap="round" stroke-linejoin="round"/>
    <path d="M 274.78030396 92.63960266 C 274.60668945 89.37107849 275.33270264 86.38977051 274.18209839 83.23645020 C 273.02398682 80.00701904 271.85369873 77.25735474 273.54455566 74.96533203 C 276.36007690 77.26016235 277.02062988 78.29782104 278.80007935 82.07891846 C 280.57626343 86.28375244 281.84075928 88.32666016 280.38195801 90.14706421 C 280.16519165 92.06600952 280.26724243 94.92123413 278.37454224 97.70837402 C 275.46548462 102.71722412 275.22747803 101.16163635 273.24075317 104.04956055 C 271.92193604 107.49848938 272.60421753 105.66328430 270.27722168 109.36660767 C 269.61917114 113.70210266 269.37658691 111.96528625 267.85635376 107.85128784 C 266.26113892 105.21371460 266.24951172 101.60935974 267.89529419 99.44197083 C 270.59597778 96.21350098 274.47891235 96.93437195 274.78030396 92.63960266" stroke-width="1.77129114" fill="rgb(245, 141, 40)" opacity="1.0" stroke="rgb(90, 68, 57)" stroke-opacity="1.0" stroke-linecap="round" stroke-linejoin="round"/>
    <path d="M 302.06198120 279.57431030 C 301.42782593 278.03048706 301.18432617 276.06414795 301.16305542 274.04113770 C 301.14178467 272.01812744 301.34271240 269.93847656 301.59741211 268.16802979 C 302.89984131 266.02661133 304.51708984 267.03985596 306.27407837 268.28723145 C 308.03106689 269.53460693 309.92779541 271.01605225 311.78918457 269.81097412 C 313.91424561 267.34320068 316.39050293 266.30999756 319.41122437 266.29766846 C 322.43194580 266.28536987 325.99713135 267.29391479 330.30004883 268.90963745 C 334.39172363 269.57437134 337.84182739 270.14709473 341.00744629 270.41992188 C 344.17303467 270.69274902 347.05413818 270.66564941 350.00778198 270.13082886 C 355.64605713 269.60504150 355.95397949 270.62243652 354.28079224 271.65875244 C 352.60760498 272.69506836 348.95330811 273.75024414 346.66720581 273.30004883 C 339.62316895 273.09454346 336.55975342 272.20556641 333.96365356 271.61761475 C 331.36755371 271.02969360 329.23870850 270.74279785 324.06381226 271.74148560 C 319.88293457 275.48825073 317.87304688 277.24133301 315.53564453 278.59399414 C 313.19824219 279.94665527 310.53326416 280.89892578 305.04226685 283.04406738 C 301.49401855 284.05615234 299.02932739 284.32681274 295.95303345 284.85446167 C 292.87670898 285.38214111 289.18881226 286.16674805 283.19412231 288.20669556 C 278.50479126 289.60766602 273.03436279 290.11413574 270.30862427 289.69918823 C 267.58288574 289.28424072 267.60186768 287.94790649 273.89135742 285.66329956 C 279.99395752 284.44708252 285.05297852 283.93371582 289.57815552 283.21997070 C 294.10333252 282.50625610 298.09466553 281.59210205 302.06198120 279.57431030" stroke-width="1.95801079" fill="rgb(7, 40, 80)" opacity="1.0" stroke="rgb(223, 255, 255)" stroke-opacity="1.0" stroke-linecap="round" stroke-linejoin="round"/>
  </g>
</svg>
