<?xml version="1.0" ?>
<svg xmlns="http://www.w3.org/2000/svg" version="1.1" width="512" height="512" viewBox="0 0 512 512">
  <defs/>
  <g>
    <path d="M -15.73768997 571.40789795 C -29.63324547 550.66473389 -43.46483994 529.84460449 -57.07303238 508.91827393 C -70.18438721 487.87307739 -82.75685120 466.62908936 -94.50340271 445.01135254 C -105.35544586 422.73626709 -114.78919983 400.01983643 -122.62361908 376.59225464 C -128.64500427 352.47369385 -132.64675903 327.89343262 -134.43179321 302.79971313 C -133.87155151 277.51068115 -130.79750061 252.25517273 -125.32107544 227.33009338 C -117.44061279 203.01133728 -107.35802460 179.27923584 -95.37218475 156.17497253 C -81.46100616 133.75994873 -65.77418518 112.42898560 -48.42683792 92.13695526 C -29.74318695 72.80738831 -10.07024574 54.18007278 10.35689640 35.98616791 C 31.34676170 18.14793396 53.14085770 0.99557120 75.35848236 -15.68846607 C 98.12709808 -31.62674522 121.16025543 -46.77672195 144.59187317 -60.71329498 C 168.28141785 -73.23497772 192.23664856 -84.08766937 216.47055054 -92.79162598 C 241.07743835 -99.24465942 265.89215088 -103.30656433 290.71533203 -104.89141083 C 315.58114624 -103.81460571 340.41793823 -100.18213654 365.01852417 -94.12174988 C 389.14868164 -85.87322998 412.55642700 -75.44045258 435.24423218 -63.25632095 C 457.01187134 -49.60418701 477.77032471 -34.85687256 497.32730103 -18.82765198 C 515.64678955 -1.85807800 532.49493408 16.04280472 547.86132812 34.56603241 C 561.68536377 53.73464966 573.87066650 73.48252869 584.61901855 93.67510223 C 593.79418945 114.37361145 601.58776855 135.72436523 607.93963623 157.77279663 C 612.70605469 180.32371521 616.13531494 203.54367065 618.21923828 227.33981323 C 618.96234131 251.68916321 618.35473633 276.39324951 616.29260254 301.36666870 C 612.66796875 326.35772705 607.57342529 351.25891113 600.92755127 375.76831055 C 592.55249023 399.50939941 582.33251953 422.30181885 570.45855713 444.02005005 C 556.72454834 464.66528320 541.14654541 484.13366699 523.76928711 502.60610962 C 504.72717285 520.13134766 484.21682739 536.81207275 462.41683960 552.54638672 C 439.59259033 567.30340576 415.95257568 581.00830078 391.69058228 593.44226074 C 367.01736450 604.54833984 341.99795532 613.85491943 316.68939209 621.39758301 C 291.25616455 626.86639404 265.84359741 630.27844238 240.39852905 631.67138672 C 214.95610046 631.14843750 189.48065186 628.96728516 163.73310852 625.25195312 C 137.73115540 620.30346680 111.48233032 614.40747070 85.00085449 608.01422119 C 58.32897949 601.30426025 31.56103897 594.52105713 -15.73768997 571.40789795" stroke-width="2.00000000" fill="rgb(253, 255, 255)" opacity="1.0" stroke="rgb(255, 255, 255)" stroke-opacity="0.0" stroke-linecap="round" stroke-linejoin="round"/>
    <path d="M 393.51535034 373.88845825 C 387.09472656 381.66296387 379.96215820 388.91583252 372.13284302 395.93356323 C 363.92041016 402.96798706 354.94573975 409.42196655 345.09762573 415.37918091 C 334.49252319 421.64077759 323.04071045 426.95513916 310.61767578 431.22061157 C 298.38180542 435.53744507 285.57485962 438.23257446 272.64199829 439.50247192 C 260.05929565 440.61520386 247.39878845 440.60797119 234.94540405 438.93225098 C 223.00791931 436.89382935 211.28051758 434.05633545 199.69657898 430.31384277 C 188.46372986 426.48062134 177.68186951 421.51794434 167.47067261 415.35726929 C 156.93893433 408.98818970 146.55653381 401.57064819 136.55738831 392.68078613 C 126.29393768 382.92636108 116.78575897 371.50711060 108.00186157 359.25399780 C 99.85350037 346.76800537 93.39157867 333.67324829 88.42049408 320.62344360 C 84.15657043 308.09851074 81.03070068 296.13378906 79.18040466 284.11758423 C 77.47841644 273.05181885 77.18099976 262.11270142 77.25959015 250.77362061 C 77.57035065 239.32652283 78.99005127 227.65438843 82.01292419 215.94445801 C 85.04081726 203.50613403 89.57403564 190.72183228 94.84455109 178.22859192 C 100.96398163 166.05378723 108.17902374 154.78407288 116.06418610 144.56916809 C 124.02542114 135.14118958 132.23841858 126.84393311 140.79507446 119.69213867 C 149.04557800 112.71109772 157.68405151 106.80961609 166.82493591 101.42804718 C 176.06570435 96.03906250 186.18560791 91.69836426 196.85932922 87.79048157 C 207.77290344 84.27528381 218.91506958 81.59069061 230.45655823 79.58316803 C 242.21130371 78.33987427 254.02066040 78.23558044 265.85595703 79.14369965 C 277.59695435 80.95323944 289.00772095 83.72148895 299.96914673 87.71846771 C 310.78601074 92.93082428 321.75119019 98.86652374 332.91360474 105.58086395 C 344.33108521 112.81845093 355.97897339 120.35259247 367.84686279 127.74839783 C 379.85470581 134.77587891 391.76599121 141.72067261 401.12176514 151.02134705 C 408.23309326 161.49839783 414.29116821 172.34677124 419.94970703 184.01832581 C 424.68090820 196.09248352 429.03881836 208.43423462 431.61334229 220.94023132 C 433.96832275 233.70033264 435.35681152 246.60026550 435.39416504 259.71594238 C 435.03585815 273.03479004 433.42984009 286.29034424 430.52426147 299.24005127 C 427.11926270 312.39807129 422.87561035 325.06600952 417.11224365 337.00103760 C 411.23767090 348.86270142 404.60516357 360.23056030 393.51535034 373.88845825" stroke-width="2.00000000" fill="rgb(218, 180, 159)" opacity="1.0" stroke="rgb(0, 32, 72)" stroke-opacity="1.0" stroke-linecap="round" stroke-linejoin="round"/>
    <path d="M 412.16635132 253.74432373 C 398.78921509 255.92604065 385.70925903 257.83151245 372.89178467 259.50805664 C 360.53930664 260.80239868 348.92309570 261.27560425 338.13381958 260.69720459 C 328.07897949 259.05346680 318.73135376 256.53115845 310.10308838 253.00924683 C 302.03149414 248.66545105 294.42272949 243.90615845 286.89965820 239.19375610 C 279.56338501 235.02706909 272.16201782 231.88101196 264.79055786 229.80656433 C 257.37274170 228.92300415 250.09710693 229.45306396 242.44493103 231.43376160 C 234.47816467 234.63156128 226.34666443 238.73712158 218.04692078 243.50735474 C 209.67266846 248.70893860 200.77093506 253.70935059 190.91629028 257.44372559 C 180.17694092 259.63702393 168.98385620 260.72515869 157.76364136 261.13265991 C 146.65142822 261.24087524 135.94558716 261.06823730 126.24173737 260.55355835 C 118.01969910 259.54779053 111.57447815 257.72991943 107.28560638 254.55848694 C 105.70466614 249.73994446 106.01309204 243.13119507 107.04761505 235.00117493 C 108.45909882 225.44348145 111.12554169 215.03277588 114.96163177 204.11381531 C 119.24598694 192.83843994 124.70423889 181.83799744 131.60668945 171.66735840 C 138.67295837 161.90078735 146.29016113 152.96980286 154.12799072 145.14793396 C 162.18417358 138.18539429 170.19523621 132.15342712 178.13891602 127.49230194 C 185.78282166 123.54780579 193.31806946 120.46875000 200.67478943 118.16502380 C 208.02792358 116.69390106 215.57601929 115.99877930 223.12196350 115.86376190 C 230.85807800 116.19998169 238.94770813 117.11972046 247.46194458 118.31716156 C 256.31149292 119.24142456 265.70944214 119.80418396 275.69503784 119.95346069 C 286.08908081 119.70583344 296.40563965 119.03140259 305.95520020 117.58419037 C 314.04421997 114.07135010 320.38989258 108.18405151 325.29620361 101.90069580 C 329.77050781 97.56650543 334.63693237 96.43096924 340.78280640 99.05574799 C 349.05987549 103.77196503 358.57760620 109.90243530 368.04101562 117.16068268 C 377.07446289 124.41211700 385.06341553 132.24011230 392.43783569 140.50279236 C 398.28076172 150.26905823 403.67886353 159.83868408 409.36605835 167.97589111 C 415.31552124 177.97454834 420.08782959 188.64328003 423.78646851 199.88166809 C 427.32177734 210.78063965 429.75408936 220.84649658 431.13122559 230.05659485 C 432.24005127 238.49411011 432.94741821 246.43148804 433.36285400 253.74047852 C 434.52545166 260.52807617 435.87573242 267.09616089 412.16635132 253.74432373" stroke-width="2.00000000" fill="rgb(245, 164, 23)" opacity="1.0" stroke="rgb(105, 79, 51)" stroke-opacity="1.0" stroke-linecap="round" stroke-linejoin="round"/>
    <path d="M 301.80743408 261.16061401 C 297.27221680 261.72979736 292.56597900 262.24380493 287.88705444 262.81396484 C 283.21362305 263.17523193 278.64212036 263.45172119 274.11837769 263.64251709 C 269.57717896 263.53012085 265.25125122 263.26000977 260.99551392 262.55499268 C 257.06130981 261.44015503 253.29887390 259.86190796 249.88044739 257.77154541 C 246.74278259 255.24450684 243.75735474 252.07394409 240.96990967 248.40686035 C 237.49780273 245.04821777 233.18750000 242.99658203 227.86904907 242.26606750 C 222.09181213 242.17242432 216.68589783 242.67874146 212.21090698 244.97833252 C 209.20530701 248.68363953 206.81669617 252.02235413 204.69418335 253.67022705 C 203.21777344 253.11181641 202.97894287 250.30154419 203.69140625 245.65774536 C 205.12274170 239.94747925 207.41427612 233.85929871 210.45777893 228.19927979 C 213.73962402 223.45610046 217.29576111 219.46463013 220.80415344 216.19117737 C 223.93775940 213.16450500 227.45373535 210.91607666 231.29516602 209.51722717 C 235.45278931 208.07872009 239.61218262 206.42703247 244.07568359 205.17591858 C 248.77557373 204.22146606 253.75685120 204.00376892 258.95544434 204.20230103 C 264.14074707 204.00723267 269.24520874 204.35241699 274.05474854 205.83218384 C 278.65377808 207.75900269 283.08041382 210.21269226 287.42825317 213.02426147 C 291.51263428 215.92120361 294.91760254 219.34013367 297.89642334 223.26959229 C 300.79373169 227.17774963 302.99923706 231.22843933 304.97796631 235.31150818 C 306.55517578 239.26972961 307.67987061 243.48500061 308.51562500 247.66239929 C 309.06265259 251.77389526 309.74316406 255.76387024 301.80743408 261.16061401" stroke-width="2.00000000" fill="rgb(227, 53, 36)" opacity="1.0" stroke="rgb(0, 21, 53)" stroke-opacity="1.0" stroke-linecap="round" stroke-linejoin="round"/>
    <path d="M 302.77206421 373.08670044 C 298.20712280 374.89724731 293.71786499 376.75875854 289.30566406 378.51434326 C 284.95455933 380.15338135 280.77853394 381.60406494 276.80984497 382.98886108 C 273.03903198 384.35595703 269.24188232 385.56640625 265.21554565 386.53964233 C 261.08358765 387.35598755 256.69189453 387.94705200 252.15541077 388.20529175 C 247.44364929 388.18319702 242.67791748 387.77905273 237.92756653 386.80026245 C 233.00022888 385.13677979 228.19776917 382.61386108 223.95916748 379.43475342 C 220.44210815 375.59390259 218.25180054 370.75973511 217.62055969 365.34628296 C 218.33218384 359.74136353 218.97103882 354.32626343 218.22045898 349.57241821 C 216.45606995 345.98867798 215.76358032 343.69400024 217.22059631 342.79763794 C 220.45465088 343.90957642 224.13813782 345.54476929 227.29666138 345.76336670 C 228.14715576 343.21664429 228.07403564 339.32928467 228.37155151 336.37606812 C 230.65708923 336.30422974 233.76548767 337.27023315 236.45567322 336.69940186 C 237.67269897 333.75543213 238.36216736 330.49810791 240.18887329 329.64309692 C 243.10130310 332.24368286 246.61917114 333.82330322 251.21607971 331.94253540 C 257.22882080 331.11465454 264.46615601 331.57022095 271.50439453 331.44940186 C 277.02526855 333.39160156 281.36019897 335.12832642 284.03430176 336.71984863 C 284.42276001 340.05865479 283.89529419 343.60394287 284.69018555 345.87820435 C 287.66851807 345.66659546 291.36550903 344.09933472 294.35220337 342.85641479 C 296.00219727 342.73696899 296.02886963 344.46246338 294.85125732 347.60314941 C 292.92083740 351.53466797 291.25387573 356.13510132 302.77206421 373.08670044" stroke-width="2.00000000" fill="rgb(188, 102, 148)" opacity="1.0" stroke="rgb(1, 22, 68)" stroke-opacity="0.92068595" stroke-linecap="round" stroke-linejoin="round"/>
    <path d="M 264.49572754 134.98435974 C 268.43392944 141.26029968 272.13342285 147.42846680 275.56411743 153.35618591 C 278.31887817 159.38076782 280.38024902 165.60067749 281.35183716 171.95674133 C 281.18081665 178.26086426 279.67733765 184.46070862 276.89151001 190.21394348 C 272.73812866 195.11009216 267.30010986 198.68690491 260.74249268 200.52566528 C 253.34356689 200.69432068 245.96308899 201.19360352 239.26956177 202.77182007 C 233.49855042 204.92364502 228.79730225 206.26712036 225.14273071 205.60438538 C 222.69816589 202.66731262 221.60200500 197.84205627 221.85714722 191.34814453 C 223.43450928 183.51788330 226.29006958 174.94639587 230.16238403 166.03202820 C 234.60768127 156.74761963 239.22525024 147.23756409 243.32504272 137.77392578 C 246.13331604 128.46475220 247.05212402 119.63786316 245.83416748 111.77574158 C 242.48602295 105.29309845 237.45198059 100.57804108 231.02874756 98.14414978 C 223.65753174 98.71202850 215.05325317 101.03144836 205.17639160 103.93858337 C 194.65020752 107.64513397 184.16445923 112.64046478 173.93740845 118.34076691 C 164.41114807 124.49174500 155.92933655 130.74577332 148.71508789 137.20494080 C 142.20578003 143.62402344 136.24545288 150.03158569 130.42073059 156.74401855 C 124.87775421 164.26412964 119.73840332 172.67333984 114.77831268 180.63584900 C 108.25730896 184.24076843 101.06256104 184.35974121 95.62182617 182.36083984 C 95.88299561 178.39082336 99.50562286 172.34968567 104.18122101 164.61315918 C 109.26821899 156.32328796 115.30017853 148.10118103 121.72266388 140.32366943 C 128.59808350 132.62200928 136.09642029 125.39594269 144.37229919 118.62355042 C 153.14375305 111.77893066 162.63177490 105.45978546 172.68418884 99.96398163 C 182.53572083 94.95766449 192.33219910 90.99775696 201.73974609 87.88188934 C 210.57691956 85.15061188 219.20133972 83.08800507 227.52432251 81.58218384 C 235.11123657 79.56217194 242.17320251 77.27157593 248.78486633 75.06194305 C 254.93577576 73.13195801 260.57278442 71.83357239 265.41693115 71.51489258 C 268.89147949 71.52543640 270.49188232 72.17453766 270.14889526 74.20280457 C 268.41644287 77.50817108 266.03509521 81.82865143 263.56945801 86.90029907 C 261.31469727 92.38694000 259.35281372 98.16083527 257.55148315 103.99110413 C 255.81980896 109.96529388 254.42567444 116.04936218 253.56790161 122.29334259 C 253.36894226 128.74838257 253.05244446 135.39079285 264.49572754 134.98435974" stroke-width="2.00000000" fill="rgb(227, 102, 27)" opacity="1.0" stroke="rgb(15, 32, 56)" stroke-opacity="1.0" stroke-linecap="round" stroke-linejoin="round"/>
    <path d="M 280.37155151 97.27611542 C 277.56011963 100.96219635 274.79946899 104.73896790 272.48745728 108.57202911 C 270.08843994 112.22296906 267.72009277 115.85063171 266.03826904 119.58583069 C 266.60632324 123.84183502 268.38677979 128.31181335 270.85357666 132.77420044 C 272.80590820 136.89599609 273.81097412 140.30867004 273.91290283 142.67074585 C 273.31811523 143.83387756 272.25872803 143.81111145 270.44436646 142.53269958 C 267.50845337 140.07574463 263.64172363 136.95631409 259.50296021 133.48210144 C 257.62420654 128.76966858 257.49978638 123.59973145 257.62893677 119.73262787 C 255.96939087 118.47119904 252.91000366 118.76919556 248.74612427 118.42580414 C 244.32641602 115.80670929 240.69317627 110.64167786 237.20333862 104.51564026 C 233.50003052 98.51182556 230.91369629 92.74224091 230.21388245 87.24772644 C 231.30970764 81.80350494 233.79081726 76.95106506 238.01017761 73.59374237 C 243.78735352 71.62654114 250.34611511 71.90756989 257.09274292 73.46604156 C 263.62350464 73.44869995 269.50942993 72.85852814 274.05657959 73.60339355 C 277.01925659 76.30273438 279.54031372 79.20021057 283.33547974 80.30621338 C 289.03955078 81.08058167 295.88919067 82.56662750 303.14834595 84.39472961 C 310.64822388 86.51455688 317.88217163 88.93544006 324.63513184 91.63583374 C 330.81878662 93.71996307 335.44055176 96.04925537 337.91784668 99.37088776 C 338.07846069 103.53925323 336.31036377 107.51477051 332.63977051 110.46199799 C 327.46502686 111.44826508 321.31436157 109.92586517 314.40399170 106.92539978 C 306.61880493 103.98143768 298.75894165 101.23149109 280.37155151 97.27611542" stroke-width="2.00000000" fill="rgb(214, 113, 34)" opacity="1.0" stroke="rgb(3, 21, 58)" stroke-opacity="1.0" stroke-linecap="round" stroke-linejoin="round"/>
    <path d="M 290.28674316 164.59602356 C 288.05789185 169.11842346 285.68222046 173.78794861 283.10302734 178.46034241 C 280.50488281 183.08482361 277.93115234 187.46835327 275.38833618 191.58328247 C 272.69378662 195.14120483 269.93551636 197.85069275 267.09710693 199.50654602 C 264.43054199 200.19203186 262.06512451 200.13487244 260.50473022 199.43502808 C 259.99362183 197.73289490 260.21136475 195.23628235 260.73220825 191.92034912 C 261.13003540 187.79650879 261.45993042 183.22041321 261.84945679 178.46897888 C 262.23239136 173.54534912 262.60858154 168.57948303 262.89840698 163.59674072 C 263.24493408 158.85192871 263.63354492 154.36032104 264.01831055 150.03831482 C 264.10177612 145.90197754 263.93728638 141.80438232 263.66995239 137.74946594 C 263.96655273 133.62866211 264.53115845 129.58360291 265.36450195 125.84898376 C 266.93490601 122.53128815 269.24545288 119.49513245 271.42950439 116.28883362 C 273.27648926 112.82236481 275.22686768 109.76769257 277.59130859 107.57810211 C 280.39797974 106.74015808 283.80114746 107.10082245 287.73547363 108.02553558 C 291.96621704 109.03831482 296.17019653 110.19372559 300.11810303 111.48099518 C 303.55532837 112.67906189 306.20410156 113.79298401 307.98254395 114.50896454 C 308.80816650 114.69118500 308.81622314 115.06602478 308.15255737 116.44715881 C 306.83358765 118.93875885 305.09677124 122.49734497 302.99511719 126.85873413 C 300.84716797 131.65115356 298.58215332 136.55055237 296.27392578 141.27961731 C 293.80926514 145.58319092 291.18099976 149.58444214 288.31472778 153.29896545 C 285.47695923 156.87361145 282.41546631 160.44668579 290.28674316 164.59602356" stroke-width="1.05046523" fill="rgb(253, 195, 2)" opacity="1.0" stroke="rgb(231, 168, 36)" stroke-opacity="1.0" stroke-linecap="round" stroke-linejoin="round"/>
    <path d="M 248.93399048 178.12503052 C 249.21926880 181.96020508 249.57502747 185.87832642 250.02557373 189.54615784 C 250.42346191 192.95863342 250.35340881 195.81372070 249.08992004 197.91140747 C 246.14433289 199.13281250 241.88948059 200.16096497 236.88182068 201.74502563 C 231.34654236 203.92120361 225.72320557 206.58164978 220.24241638 209.04362488 C 214.72625732 210.41093445 209.38639832 210.40367126 204.46360779 209.09658813 C 200.04154968 206.56098938 196.08686829 203.21122742 192.64971924 199.01785278 C 190.21913147 194.08348083 188.84495544 188.63702393 188.51715088 182.86854553 C 189.22413635 176.83285522 190.24958801 170.80191040 191.04011536 164.79766846 C 191.03671265 158.96264648 190.17900085 153.47087097 188.67030334 148.35913086 C 186.67359924 143.56286621 184.36831665 139.15618896 182.06521606 134.98364258 C 180.27830505 131.28628540 179.79556274 128.13520813 181.15270996 125.57368469 C 184.40682983 123.40802002 188.90875244 121.22310638 193.98696899 118.99703979 C 199.19242859 116.79998779 204.63951111 114.78420258 210.13471985 113.02525330 C 215.44589233 111.44938660 220.40846252 110.07583618 224.84516907 108.88172913 C 228.72990417 108.10071564 231.98760986 107.78223419 234.53796387 108.57449341 C 236.27557373 110.82178497 237.72738647 113.90933990 239.50785828 117.09439087 C 242.04798889 119.84210205 244.41545105 122.57932281 245.66871643 126.07478333 C 245.94236755 130.32691956 246.14176941 134.96562195 246.37399292 139.89598083 C 246.64990234 145.02980042 247.02665710 150.28684998 247.34634399 155.67927551 C 247.71873474 160.93443298 248.30902100 166.20214844 248.93399048 178.12503052" stroke-width="2.00000000" fill="rgb(255, 195, 1)" opacity="1.0" stroke="rgb(249, 191, 20)" stroke-opacity="0.9885564" stroke-linecap="round" stroke-linejoin="round"/>
    <path d="M 212.28935242 137.39743042 C 210.68235779 133.18495178 208.95153809 129.00520325 207.31268311 124.92413330 C 205.87182617 121.34091187 204.66902161 118.23577881 204.07592773 115.95854187 C 204.40602112 114.42166138 205.78826904 113.48432159 207.80714417 112.91529083 C 210.18867493 112.23764038 212.65820312 111.50489044 214.95468140 110.72289276 C 216.84069824 110.32170105 218.18490601 110.77455902 219.02282715 112.38034058 C 219.74792480 114.96814728 220.49842834 118.40522766 221.41333008 122.30226898 C 222.31010437 126.48586273 223.22186279 130.75347900 224.27374268 134.90449524 C 225.39796448 139.00869751 226.41442871 142.95823669 227.24108887 146.77890015 C 228.18916321 150.48960876 229.09735107 154.14782715 230.04359436 157.69866943 C 230.89396667 161.26269531 231.71801758 164.85816956 232.59024048 168.55999756 C 233.43653870 172.34117126 234.39654541 176.16944885 235.27978516 179.82612610 C 236.16893005 183.52426147 237.03660583 186.90444946 237.89891052 190.02886963 C 238.71676636 192.65405273 239.15989685 194.89768982 239.10691833 196.62884521 C 238.47354126 197.65895081 237.40467834 198.16397095 236.19679260 197.80714417 C 235.17657471 196.53082275 234.30650330 194.50735474 233.31326294 192.01002502 C 232.18771362 188.88591003 230.91744995 185.50762939 229.37518311 181.91731262 C 227.97982788 178.21415710 226.56404114 174.55166626 225.12878418 170.72291565 C 223.76638794 166.96646118 222.32905579 163.26403809 220.89356995 159.62200928 C 219.51156616 156.07608032 218.13075256 152.53623962 216.70578003 148.98707581 C 215.43775940 145.44511414 214.03778076 141.99761963 212.28935242 137.39743042" stroke-width="1.57736611" fill="rgb(241, 56, 33)" opacity="1.0" stroke="rgb(200, 0, 23)" stroke-opacity="0.6251939" stroke-linecap="round" stroke-linejoin="round"/>
    <path d="M 291.68890381 162.06404114 C 289.68713379 167.09004211 287.73559570 172.08700562 285.87438965 176.98612976 C 284.11138916 181.70912170 282.38964844 186.06517029 280.93005371 190.04621887 C 279.80718994 193.55413818 278.66870117 196.38949585 277.31027222 198.31861877 C 275.64544678 199.20065308 273.90811157 199.12846375 272.45336914 198.57652283 C 271.45593262 197.51136780 271.13293457 195.82055664 271.57766724 193.48074341 C 272.24658203 190.59646606 273.25781250 187.22248840 274.32821655 183.56340027 C 275.11019897 179.57934570 275.95529175 175.52023315 277.05841064 171.28204346 C 278.17333984 167.13435364 279.24441528 162.80752563 280.26498413 158.44313049 C 281.29202271 154.31904602 282.30636597 150.24958801 283.29949951 146.23593140 C 284.32644653 142.16658020 285.24258423 138.14219666 286.17321777 134.27458191 C 287.10101318 130.46600342 288.01342773 126.75615692 288.92715454 123.02996826 C 289.86718750 119.45433807 290.66348267 116.09815216 291.36587524 113.21618652 C 291.91690063 110.74379730 292.85208130 109.17768097 294.22659302 108.46296692 C 296.38815308 108.81930542 298.97866821 109.68232727 301.86129761 110.65078735 C 304.77532959 111.49928284 307.44012451 112.46514893 309.21191406 113.47073364 C 309.92178345 114.68499756 309.64828491 116.43489838 308.60186768 118.85137177 C 307.15753174 122.01906586 305.68530273 125.70741272 304.24130249 129.52268982 C 302.74896240 133.48704529 301.08807373 137.57110596 299.43249512 141.77607727 C 297.90057373 145.87080383 296.39584351 149.93420410 294.77078247 153.99090576 C 293.22506714 157.99888611 291.60452271 162.03689575 291.68890381 162.06404114" stroke-width="2.00000000" fill="rgb(235, 60, 28)" opacity="1.0" stroke="rgb(255, 255, 168)" stroke-opacity="0.08659199" stroke-linecap="round" stroke-linejoin="round"/>
    <path d="M 150.46667480 180.40638733 C 147.24995422 178.19857788 144.15499878 176.09750366 141.08483887 174.03318787 C 138.35490417 172.26266479 136.04513550 170.55828857 134.64979553 169.08805847 C 134.33383179 167.53677368 134.98248291 165.86785889 136.23425293 164.22692871 C 137.69255066 162.39845276 139.19071960 160.52947998 140.62763977 159.06257629 C 142.14955139 158.28889465 143.79713440 158.46325684 145.55409241 159.68411255 C 147.69869995 161.44189453 149.98561096 163.59284973 152.60862732 165.97431946 C 155.43481445 168.44978333 158.37120056 171.09690857 161.35144043 173.79309082 C 164.37934875 176.50030518 167.44702148 179.16134644 170.40068054 181.83380127 C 173.33947754 184.43421936 176.23515320 187.06205750 179.14459229 189.74423218 C 182.15870667 192.30609131 185.09263611 194.84098816 188.06500244 197.43063354 C 190.95899963 200.02331543 193.84390259 202.71609497 196.65748596 205.19618225 C 199.40908813 207.62316895 201.96446228 210.02114868 204.42372131 212.03692627 C 206.41671753 213.89668274 207.76928711 215.59138489 208.46728516 216.97329712 C 208.23635864 218.17277527 207.44447327 218.90084839 206.17199707 218.93663025 C 204.43461609 218.20671082 202.25115967 216.88244629 199.63597107 215.16030884 C 196.72865295 213.06008911 193.62406921 210.74153137 190.36744690 208.31794739 C 186.98368835 205.95742798 183.54850769 203.56190491 180.23854065 201.27822876 C 177.02037048 199.04330444 173.83451843 196.83422852 170.78234863 194.63177490 C 167.72998047 192.74089050 164.84513855 190.79537964 162.11473083 188.83123779 C 159.51310730 186.83316040 156.90991211 184.81253052 150.46667480 180.40638733" stroke-width="1.40577126" fill="rgb(240, 57, 35)" opacity="1.0" stroke="rgb(216, 57, 14)" stroke-opacity="0.91142887" stroke-linecap="round" stroke-linejoin="round"/>
    <path d="M 168.46516418 242.44500732 C 164.24421692 241.72155762 159.92787170 241.02830505 155.71456909 240.34054565 C 151.53630066 239.64027405 147.51072693 238.91542053 143.51234436 238.38258362 C 139.57443237 237.83010864 135.68913269 237.17112732 132.05136108 236.34271240 C 128.68087769 235.25785828 125.71651459 233.79754639 123.29470062 231.84803772 C 121.48350525 229.33335876 120.31046295 226.31437683 119.64897919 222.84049988 C 119.63603210 219.14062500 120.16820526 215.13458252 121.36902618 210.92063904 C 123.04181671 206.61190796 125.23690796 202.37989807 127.79253387 198.30529785 C 130.79981995 194.54652405 133.96528625 191.39953613 137.32083130 188.89006042 C 140.83229065 187.12048340 144.45304871 186.15446472 148.11087036 186.10282898 C 151.66583252 186.80372620 155.13067627 188.18988037 158.37954712 190.00097656 C 161.60661316 192.13439941 164.65519714 194.34498596 167.77293396 196.62907410 C 170.79441833 199.00299072 173.94476318 201.19036865 177.08760071 203.40084839 C 180.32745361 205.56941223 183.52790833 207.64047241 186.68733215 209.78530884 C 189.93257141 211.84143066 193.13012695 213.92428589 196.26963806 216.01205444 C 199.23162842 218.11164856 201.72375488 220.22467041 203.50436401 222.54896545 C 204.48300171 225.15504456 204.59584045 228.01683044 204.04412842 231.09896851 C 203.00140381 234.26365662 201.82752991 237.40014648 200.42971802 240.31930542 C 198.68194580 242.80966187 196.52688599 244.56228638 194.01756287 245.54515076 C 191.08901978 245.73300171 187.89146423 245.43853760 184.46173096 244.83251953 C 181.07937622 244.17041016 177.67857361 243.54125977 168.46516418 242.44500732" stroke-width="1.54663622" fill="rgb(254, 200, 1)" opacity="1.0" stroke="rgb(255, 204, 13)" stroke-opacity="0.8331772" stroke-linecap="round" stroke-linejoin="round"/>
    <path d="M 171.80125427 148.36029053 C 169.93405151 146.14686584 168.07434082 143.91584778 166.27648926 141.72781372 C 164.54087830 139.71403503 163.46839905 137.83708191 163.47413635 136.22511292 C 164.86112976 134.60559082 167.01042175 132.96348572 169.34915161 131.32290649 C 171.79479980 129.56414795 174.08641052 128.08622742 176.09934998 127.31178284 C 177.90939331 127.73020172 179.39590454 129.42646790 180.83673096 131.81222534 C 182.47673035 134.80206299 184.36819458 138.12701416 186.49467468 141.64694214 C 188.82183838 145.32553101 191.06315613 149.03408813 193.22465515 152.74472046 C 195.36929321 156.22160339 197.40074158 159.54597473 199.31129456 162.79154968 C 201.20066833 165.87149048 203.08944702 168.93009949 204.88220215 172.07173157 C 206.76651001 175.15289307 208.60069275 178.28630066 210.49118042 181.41065979 C 212.50610352 184.54412842 214.47744751 187.85925293 216.47801208 191.18023682 C 218.51306152 194.32897949 220.34417725 197.33666992 221.95442200 200.01658630 C 223.25471497 202.12007141 223.84144592 203.94369507 223.52586365 205.53192139 C 222.35351562 206.88230896 220.70709229 207.69218445 218.96154785 207.55921936 C 217.10859680 206.27766418 215.25965881 203.88032532 213.07839966 200.97500610 C 210.54302979 197.75520325 207.84397888 194.32043457 205.04420471 190.77014160 C 202.25398254 187.21838379 199.52656555 183.73838806 196.81784058 180.33204651 C 194.29656982 177.24911499 191.97039795 174.23440552 189.80686951 171.40426636 C 187.72769165 168.76856995 185.79399109 166.24133301 183.90769958 163.83807373 C 182.05772400 161.49330139 180.25025940 159.17153931 171.80125427 148.36029053" stroke-width="1.11529124" fill="rgb(232, 60, 28)" opacity="1.0" stroke="rgb(247, 144, 70)" stroke-opacity="0.3437873" stroke-linecap="round" stroke-linejoin="round"/>
    <path d="M 349.03704834 137.63183594 C 343.88781738 144.17936707 338.62390137 150.76849365 333.26785278 157.56257629 C 327.87570190 164.29180908 322.48205566 171.06871033 317.09359741 177.99008179 C 311.71206665 184.75778198 306.60473633 191.34437561 301.97784424 197.39961243 C 298.11886597 202.58151245 294.97509766 206.27270508 292.24591064 208.12028503 C 289.85919189 207.82575989 288.74548340 205.50355530 289.54244995 201.38484192 C 292.46279907 195.81979370 296.77810669 188.90757751 301.76184082 180.92156982 C 306.89233398 172.18623352 312.26757812 163.33944702 317.75216675 154.65817261 C 322.85836792 146.35771179 327.19366455 138.86611938 330.67291260 132.50595093 C 333.23223877 127.92419434 335.49008179 125.92231750 338.21295166 126.76170349 C 341.77178955 129.23168945 345.81848145 132.27198792 349.66326904 135.05926514 C 352.99179077 136.17572021 355.10714722 135.62583923 354.96923828 133.60670471 C 351.84750366 130.86190796 346.95632935 127.56129456 341.19543457 123.67184448 C 335.09216309 119.89342499 329.21826172 116.88756561 324.82299805 113.95264435 C 323.72262573 110.15824127 325.28427124 106.83025360 329.01199341 105.30565643 C 334.37252808 106.35040283 340.73541260 109.68256378 347.73358154 114.66528320 C 355.36254883 120.24388123 363.06781006 126.39371490 370.27078247 132.59671021 C 376.27685547 138.60046387 380.18698120 144.49308777 381.79760742 150.03698730 C 382.03689575 154.38626099 380.81481934 156.81866455 378.05865479 156.42782593 C 374.63400269 153.01258850 370.30102539 148.17012024 365.14749146 142.91900635 C 359.79177856 137.32179260 354.39376831 131.97157288 349.03704834 137.63183594" stroke-width="2.00000000" fill="rgb(205, 68, 31)" opacity="1.0" stroke="rgb(255, 238, 177)" stroke-opacity="0.42460826" stroke-linecap="round" stroke-linejoin="round"/>
    <path d="M 126.51138306 212.28071594 C 123.67189026 211.32295227 120.98554993 210.44657898 118.43363190 209.71589661 C 116.27721405 208.93196106 114.70042419 207.79367065 114.02580261 206.34661865 C 114.28419495 204.43490601 115.06583405 202.36434937 115.99292755 200.06686401 C 116.89971161 197.86180115 117.95336151 196.06610107 119.59878540 195.31703186 C 121.79673004 195.73939514 124.70197296 196.86006165 127.90181732 198.36976624 C 131.62371826 200.05641174 135.46485901 201.95164490 139.39210510 203.94534302 C 143.27668762 205.73033142 146.99365234 207.36593628 150.41163635 209.00354004 C 153.84428406 210.64718628 157.18054199 212.24066162 160.51867676 213.71899414 C 163.84063721 215.21551514 167.07824707 216.67861938 170.32893372 218.18681335 C 173.59672546 219.90974426 177.00129700 221.62251282 180.45709229 223.24192810 C 184.10440063 224.86874390 187.62590027 226.51567078 191.04333496 228.04299927 C 194.01249695 229.37303162 196.45365906 230.62544250 198.23468018 231.75820923 C 199.12577820 232.92721558 199.07452393 234.04476929 198.38685608 234.97349548 C 197.26332092 235.38076782 195.74478149 235.26860046 193.71875000 234.62991333 C 191.28515625 233.72727966 188.37101746 232.71702576 185.07868958 231.65664673 C 181.61116028 230.46458435 177.88819885 229.20956421 174.05998230 227.99652100 C 170.13961792 226.78233337 166.31219482 225.45899963 162.52008057 224.01756287 C 158.77682495 222.75543213 155.14050293 221.61053467 151.63314819 220.51495361 C 148.33038330 219.44828796 145.11810303 218.24038696 142.02857971 217.16687012 C 138.82377625 216.35246277 135.77441406 215.62571716 126.51138306 212.28071594" stroke-width="1.57523334" fill="rgb(241, 53, 33)" opacity="1.0" stroke="rgb(219, 64, 15)" stroke-opacity="0.9128586" stroke-linecap="round" stroke-linejoin="round"/>
    <path d="M 323.26202393 227.28392029 C 326.83871460 225.54681396 330.37533569 223.79591370 334.07495117 222.15184021 C 337.69528198 220.49070740 341.42657471 218.71824646 345.27593994 216.84814453 C 349.27169800 214.86592102 353.53100586 212.94293213 357.90478516 210.88960266 C 362.54937744 208.77709961 367.26522827 206.57009888 372.10467529 204.23652649 C 376.92407227 201.94015503 381.70022583 199.67312622 386.10949707 197.57995605 C 390.34405518 195.84271240 394.12051392 194.62484741 397.22628784 193.59303284 C 399.21966553 192.20886230 400.40637207 190.78675842 401.52169800 189.79530334 C 402.76007080 189.79971313 404.18545532 190.79093933 405.61453247 192.51097107 C 407.04302979 194.72561646 408.22744751 197.20100403 408.92391968 199.66377258 C 409.00875854 202.00027466 408.25338745 203.85816956 406.61703491 205.24440002 C 403.95056152 206.02226257 400.75961304 206.95780945 397.06784058 208.27613831 C 392.99383545 209.65721130 388.62652588 211.10127258 384.18862915 212.57437134 C 379.61001587 213.97831726 375.12432861 215.46054077 370.68435669 216.93798828 C 366.28787231 218.32916260 361.99057007 219.78147888 357.80218506 221.20385742 C 353.57797241 222.56703186 349.32952881 223.92858887 345.20004272 225.33793640 C 341.18051147 226.73153687 337.26400757 228.00175476 333.55615234 229.16725159 C 330.02560425 230.31794739 326.65451050 231.38081360 323.69580078 232.40606689 C 320.90429688 233.34564209 318.63357544 234.26074219 316.71127319 234.95629883 C 315.28314209 235.30319214 314.16604614 235.07717896 313.23687744 234.24282837 C 312.32409668 233.29539490 311.33203125 232.21757507 323.26202393 227.28392029" stroke-width="1.54386914" fill="rgb(225, 67, 50)" opacity="1.0" stroke="rgb(198, 26, 30)" stroke-opacity="0.62701786" stroke-linecap="round" stroke-linejoin="round"/>
    <path d="M 368.22888184 158.49765015 C 371.76773071 159.75717163 375.06558228 160.44477844 377.89508057 159.91461182 C 380.19613647 158.06832886 382.02523804 156.00558472 383.84555054 154.44287109 C 385.76513672 153.99856567 387.70339966 154.68550110 389.29956055 156.41555786 C 390.61029053 158.69155884 391.51898193 161.24856567 391.88455200 163.85734558 C 391.45199585 165.86462402 390.38934326 167.06701660 388.92419434 167.01162720 C 387.24438477 165.54164124 385.46115112 163.52917480 383.43798828 162.22966003 C 381.30841064 162.73023987 379.33905029 165.07321167 376.96997070 168.59486389 C 373.52005005 172.09465027 369.18438721 175.24806213 364.54367065 178.35295105 C 360.09552002 181.53892517 355.64120483 184.53356934 351.32336426 187.41445923 C 347.25057983 190.30184937 343.39636230 192.92430115 339.65280151 195.61610413 C 335.90615845 198.29136658 332.18524170 200.90126038 328.27359009 203.52696228 C 324.49438477 206.17417908 320.65936279 208.80538940 317.03918457 211.41851807 C 313.60858154 213.91719055 310.64709473 216.11036682 308.11715698 217.72233582 C 306.03591919 218.73593140 304.54086304 218.79187012 303.69369507 218.10673523 C 303.61932373 216.75321960 304.73623657 215.14224243 306.76397705 213.04034424 C 309.46188354 210.62106323 312.77279663 207.64179993 316.41900635 204.50952148 C 320.27606201 201.10253906 324.21762085 197.55664062 328.21017456 193.84144592 C 332.24938965 190.20448303 336.31637573 186.67427063 340.33752441 183.16287231 C 344.15841675 179.69354248 347.95059204 176.31799316 351.65206909 173.08224487 C 355.29794312 169.82781982 358.81072998 166.49046326 368.22888184 158.49765015" stroke-width="1.54787052" fill="rgb(235, 61, 40)" opacity="1.0" stroke="rgb(181, 0, 31)" stroke-opacity="0.5292116" stroke-linecap="round" stroke-linejoin="round"/>
    <path d="M 213.00567627 352.23223877 C 216.55468750 352.89764404 220.14041138 354.20962524 223.06730652 356.82928467 C 225.90939331 360.43170166 228.33692932 363.61218262 228.63232422 365.36245728 C 226.13693237 364.40734863 222.65580750 362.94058228 219.10714722 363.29718018 C 216.41061401 365.21627808 214.80479431 369.04415894 213.77697754 373.33569336 C 212.72233582 377.02029419 211.26911926 379.30038452 208.93778992 379.92434692 C 205.44978333 378.90570068 201.15234375 378.63314819 196.51950073 379.98327637 C 191.90295410 381.90173340 187.46420288 383.09387207 183.03430176 383.12847900 C 178.58085632 382.84484863 174.40316772 383.28771973 170.91705322 384.09820557 C 168.06649780 384.33453369 165.79202271 383.45465088 163.73287964 381.58782959 C 161.33346558 379.46652222 158.57313538 377.08181763 155.53056335 374.37283325 C 152.21556091 371.64028931 148.95889282 368.66043091 146.02818298 365.34762573 C 143.07894897 362.20440674 140.34988403 359.10488892 138.05203247 356.23934937 C 136.49691772 353.73544312 136.09863281 351.46536255 136.83996582 349.33068848 C 138.68284607 347.61666870 141.49378967 346.03723145 145.08473206 344.88406372 C 149.08094788 344.35412598 153.25830078 344.60708618 157.30183411 345.09478760 C 161.18873596 345.38403320 164.90946960 345.07043457 168.34623718 343.87924194 C 171.76667786 341.96820068 175.23526001 340.14834595 178.63595581 338.69467163 C 181.92822266 337.68347168 185.25366211 337.56845093 188.74310303 338.39862061 C 192.28044128 339.47900391 195.61572266 340.60018921 198.92591858 342.06924438 C 202.12762451 343.94625854 204.91947937 345.97055054 213.00567627 352.23223877" stroke-width="2.00000000" fill="rgb(48, 91, 75)" opacity="1.0" stroke="rgb(255, 255, 255)" stroke-opacity="0.59278065" stroke-linecap="round" stroke-linejoin="round"/>
    <path d="M 360.58264160 369.66381836 C 357.22976685 373.09506226 353.94393921 376.58184814 350.67404175 379.88702393 C 347.20941162 382.72625732 343.63214111 384.71960449 340.09808350 386.02035522 C 336.86691284 386.43377686 334.61703491 386.20629883 333.40017700 385.41058350 C 333.29272461 384.33547974 333.79177856 383.39916992 333.79605103 382.60202026 C 332.65524292 382.64614868 330.58081055 383.05191040 327.60171509 383.26763916 C 324.00732422 382.81192017 320.46643066 381.71676636 317.14331055 380.43374634 C 313.91287231 379.26473999 310.89056396 378.49548340 308.49407959 377.55133057 C 306.54824829 376.02877808 304.96334839 373.99948120 304.06909180 371.54760742 C 303.57849121 368.87957764 303.27288818 365.99984741 303.41583252 362.91903687 C 304.04003906 360.01757812 305.11383057 357.55786133 306.52795410 355.42831421 C 308.10507202 353.51843262 309.78814697 351.87802124 311.70462036 350.40231323 C 313.87158203 349.27758789 316.26171875 348.35055542 318.72650146 347.69143677 C 321.36029053 347.26208496 323.97671509 347.02569580 326.67068481 346.94860840 C 329.41275024 347.01156616 332.22225952 347.15988159 334.99951172 347.56185913 C 337.87396240 348.23468018 340.81848145 349.06369019 343.62319946 350.07141113 C 346.32296753 351.22564697 348.90438843 352.48266602 351.26495361 353.81585693 C 353.50564575 355.35824585 355.62973022 356.80902100 357.61325073 358.32604980 C 359.29681396 359.87768555 360.80264282 361.47875977 362.20660400 362.98876953 C 363.47882080 364.55117798 364.66357422 366.05130005 365.89028931 367.43826294 C 367.10647583 368.90893555 368.34341431 370.21618652 360.58264160 369.66381836" stroke-width="2.00000000" fill="rgb(82, 133, 70)" opacity="1.0" stroke="rgb(240, 244, 255)" stroke-opacity="0.98853374" stroke-linecap="round" stroke-linejoin="round"/>
    <path d="M 324.18423462 255.21470642 C 329.71643066 255.38694763 335.22979736 255.24804688 340.76049805 255.25671387 C 346.16659546 255.27600098 351.50790405 255.26487732 356.69247437 255.26167297 C 361.89962769 255.09455872 367.23321533 255.19216919 372.63375854 255.33662415 C 378.34906006 255.35668945 384.46691895 255.30978394 390.97640991 255.14114380 C 397.70190430 255.19769287 404.40237427 255.45375061 410.83422852 255.61697388 C 416.69491577 255.63986206 421.89706421 256.05566406 426.39178467 256.18753052 C 430.11508179 256.20648193 433.22180176 256.28240967 435.66232300 255.62976074 C 437.08154297 254.26086426 437.47940063 252.40257263 437.16851807 250.40618896 C 436.35964966 248.92240906 435.37713623 248.55941772 434.66827393 249.55833435 C 434.52822876 251.64965820 434.13656616 254.11343384 432.59213257 256.06298828 C 428.82867432 256.66613770 423.82150269 256.31143188 418.51632690 255.46234131 C 413.87075806 254.99935913 410.51718140 255.12835693 408.80023193 256.61944580 C 408.89990234 259.49761963 409.04449463 262.20498657 407.15014648 263.83825684 C 402.12704468 263.44470215 395.48336792 264.05984497 388.70315552 266.53231812 C 382.39743042 268.58349609 376.72540283 267.94064331 371.52798462 265.48135376 C 366.75820923 263.18646240 362.04312134 262.43646240 357.18606567 263.35714722 C 352.58706665 265.34167480 348.13580322 267.11044312 343.66488647 267.91912842 C 339.04879761 267.87649536 334.54156494 266.73831177 330.06838989 264.93722534 C 325.63546753 263.12088013 321.19296265 261.17944336 316.74090576 259.08346558 C 312.31594849 256.71731567 307.65686035 254.38594055 324.18423462 255.21470642" stroke-width="1.79193437" fill="rgb(9, 34, 72)" opacity="1.0" stroke="rgb(185, 255, 255)" stroke-opacity="0.19518608" stroke-linecap="round" stroke-linejoin="round"/>
    <path d="M 207.30442810 254.96110535 C 207.04437256 258.16610718 206.96458435 260.18988037 208.37492371 260.38497925 C 210.70278931 259.41229248 212.96562195 258.27282715 214.59684753 258.73236084 C 215.19125366 261.64520264 215.53845215 264.81091309 215.32083130 266.81451416 C 213.19309998 267.40405273 209.55905151 267.49859619 205.11514282 267.74029541 C 200.53414917 267.27523804 195.91871643 265.99002075 191.41354370 264.15850830 C 186.94132996 263.05786133 182.67364502 263.58395386 178.48915100 265.13085938 C 174.48959351 266.87829590 170.34606934 267.92657471 166.17509460 268.08779907 C 162.20149231 267.55270386 158.43742371 266.35360718 154.70516968 264.64703369 C 150.97378540 263.13861084 147.34153748 262.73413086 143.65794373 263.38583374 C 139.82629395 264.47210693 135.90916443 266.12237549 131.77206421 267.56533813 C 127.39708710 268.26882935 123.31891632 267.86669922 119.55348969 266.43402100 C 115.80858612 264.70611572 112.15823364 263.62554932 108.81279755 263.10873413 C 106.29569244 263.37933350 104.45575714 263.80398560 103.45365906 263.11169434 C 103.25587463 260.66955566 103.13174438 257.74462891 103.63760376 255.55841064 C 105.69676208 254.96423340 109.16684723 255.15974426 113.86032104 255.37602234 C 119.41014099 255.15740967 125.60926819 255.15449524 131.89544678 255.20085144 C 138.24948120 255.24935913 144.36555481 255.35720825 150.13471985 255.34382629 C 155.40940857 255.26771545 160.27912903 255.30749512 164.83094788 255.15348816 C 169.13854980 255.13973999 173.24777222 255.26046753 177.23434448 255.28503418 C 181.09455872 255.29885864 185.02534485 255.39717102 207.30442810 254.96110535" stroke-width="1.87566054" fill="rgb(10, 42, 71)" opacity="1.0" stroke="rgb(223, 255, 255)" stroke-opacity="0.25703758" stroke-linecap="round" stroke-linejoin="round"/>
    <path d="M 341.90585327 316.32281494 C 341.22781372 318.60623169 340.55599976 321.01284790 339.94409180 323.50009155 C 339.28848267 325.97268677 338.47167969 328.45513916 337.19506836 330.90008545 C 335.25192261 333.14907837 332.90093994 335.18045044 330.16326904 336.93515015 C 327.01919556 338.55474854 323.65686035 340.24908447 320.26196289 341.86599731 C 317.02905273 343.49304199 314.24847412 345.27764893 311.86398315 347.23593140 C 309.70419312 349.56756592 307.89276123 352.24633789 306.37435913 355.34231567 C 305.15328979 358.51562500 304.07257080 361.17675781 302.35556030 363.13052368 C 300.11010742 364.27258301 297.48171997 364.49990845 294.81176758 363.88635254 C 292.03152466 363.13629150 289.32427979 362.67733765 287.35052490 362.47540283 C 286.66250610 361.49761963 287.30856323 359.83004761 289.15093994 357.76354980 C 291.06228638 355.31732178 292.23953247 352.73416138 293.11669922 350.72518921 C 294.65713501 350.43374634 296.50341797 350.92337036 298.93844604 350.93600464 C 301.75970459 349.58203125 305.02059937 347.68786621 308.68844604 345.43698120 C 311.95907593 342.83660889 315.04150391 339.94393921 317.58749390 336.69256592 C 319.60769653 333.08184814 321.91003418 329.65747070 323.99362183 326.71051025 C 324.92724609 324.06683350 324.73187256 321.56616211 324.55429077 319.23687744 C 326.08389282 317.29916382 328.24121094 315.15106201 330.04980469 312.55651855 C 331.11798096 309.74569702 332.02258301 307.44503784 333.53598022 306.29199219 C 336.20227051 306.66629028 339.68569946 308.19927979 343.86148071 310.54592896 C 348.40750122 313.12649536 352.94320679 316.08288574 341.90585327 316.32281494" stroke-width="2.00000000" fill="rgb(4, 28, 72)" opacity="1.0" stroke="rgb(253, 255, 255)" stroke-opacity="0.4263505" stroke-linecap="round" stroke-linejoin="round"/>
    <path d="M 205.16506958 301.48715210 C 203.20283508 305.53149414 201.15927124 309.58673096 199.35781860 313.04641724 C 197.93150330 315.74743652 197.38751221 317.62667847 196.98614502 318.24716187 C 196.02447510 317.19451904 194.39990234 315.70855713 191.82756042 314.09451294 C 188.50880432 312.57415771 184.63143921 311.40826416 180.43580627 310.97860718 C 176.22827148 311.00930786 172.27990723 312.05514526 168.67370605 313.76431274 C 165.16349792 315.71029663 161.54974365 317.34811401 157.91087341 318.27328491 C 154.48072815 318.56951904 151.05883789 317.98443604 147.55490112 316.61883545 C 143.95578003 314.67825317 140.16474915 312.82562256 136.12263489 311.55310059 C 131.99989319 310.93331909 128.08062744 311.26107788 124.35500336 312.51019287 C 121.04511261 314.04782104 118.62974548 315.43179321 116.91320801 315.92306519 C 115.82020569 314.80136108 114.96811676 312.35110474 114.00535583 309.54397583 C 113.08797455 306.72869873 112.24148560 304.38961792 112.08798981 302.97308350 C 113.31111145 302.47348022 115.42812347 302.07714844 118.10163879 301.28024292 C 121.11862946 299.98590088 124.46287537 298.49377441 128.08316040 297.40301514 C 131.64674377 296.65301514 135.22856140 296.72357178 139.01359558 297.78051758 C 142.83714294 299.40866089 146.49502563 301.20742798 150.31744385 302.78698730 C 154.37551880 303.76016235 158.34864807 304.01858521 162.03074646 303.56082153 C 165.60528564 302.56307983 169.22027588 301.16384888 172.46974182 299.50347900 C 175.63490295 298.04016113 178.76196289 297.06347656 181.68504333 296.57962036 C 184.29138184 296.53543091 186.53388977 297.72601318 205.16506958 301.48715210" stroke-width="1.47291327" fill="rgb(4, 36, 82)" opacity="1.0" stroke="rgb(0, 30, 70)" stroke-opacity="0.99219316" stroke-linecap="round" stroke-linejoin="round"/>
    <path d="M 196.77670288 338.13311768 C 194.54515076 336.17678833 192.04820251 334.68438721 189.16125488 333.52194214 C 186.23300171 332.86276245 183.36366272 332.55746460 180.26303101 332.76611328 C 177.09457397 333.25375366 174.08879089 334.59466553 171.15811157 336.33682251 C 168.12048340 338.05664062 164.99861145 339.20187378 161.73696899 339.80914307 C 158.60180664 339.79589844 155.60079956 339.22848511 152.59138489 337.61825562 C 149.40216064 335.69757080 146.02661133 334.01513672 142.38227844 332.86300659 C 138.76684570 332.11862183 135.27046204 332.19549561 132.25302124 333.04119873 C 129.90675354 334.20095825 128.02853394 335.16226196 126.58466339 335.27944946 C 125.32811737 333.76049805 124.21005249 331.15621948 122.88315582 328.37680054 C 121.32814026 325.77902222 120.13082886 323.65136719 120.11322784 321.94689941 C 121.86340332 320.74505615 124.66977692 319.81173706 128.10253906 318.84634399 C 131.75555420 318.38272095 135.18753052 318.69073486 138.41641235 320.16146851 C 141.73063660 322.19262695 145.15768433 323.90597534 148.59605408 324.96694946 C 151.83763123 325.66323853 154.78875732 326.00796509 157.73637390 325.92837524 C 160.79512024 325.59497070 163.64036560 324.76751709 166.64076233 323.33065796 C 169.84681702 321.46560669 173.10462952 319.66622925 176.68579102 318.58224487 C 180.45921326 317.97857666 184.30981445 318.39968872 187.94337463 319.67654419 C 191.01776123 320.74935913 193.66145325 321.26828003 195.56849670 321.43688965 C 195.91554260 322.91091919 195.62622070 325.52490234 195.51747131 329.00125122 C 195.62864685 333.03247070 195.94284058 337.16336060 196.77670288 338.13311768" stroke-width="1.86623538" fill="rgb(6, 39, 86)" opacity="1.0" stroke="rgb(0, 31, 70)" stroke-opacity="0.9995422" stroke-linecap="round" stroke-linejoin="round"/>
    <path d="M 397.80258179 315.16766357 C 394.87734985 313.73303223 391.75360107 312.99252319 388.67242432 312.70153809 C 385.57540894 313.12387085 382.49371338 314.26208496 379.40347290 315.97882080 C 376.07806396 317.69592285 372.68771362 319.14410400 369.02343750 320.03994751 C 365.15881348 320.18005371 361.32385254 319.17443848 357.38983154 317.34692383 C 353.16171265 315.90847778 348.76693726 314.96383667 344.63021851 313.34808350 C 340.91015625 310.42727661 337.34982300 307.64309692 333.76483154 306.30746460 C 330.04864502 307.44134521 326.22860718 309.52246094 321.87570190 311.48449707 C 317.60385132 312.83779907 314.73434448 313.35720825 313.33334351 312.31710815 C 313.74920654 309.31484985 313.82836914 305.21939087 313.36203003 301.23870850 C 315.16311646 298.66809082 317.90567017 296.58432007 320.88708496 295.00598145 C 323.76095581 295.11547852 326.40576172 296.33432007 328.92337036 297.94943237 C 331.47680664 299.21041870 334.25991821 299.27947998 337.30059814 298.31668091 C 340.79211426 296.74166870 344.76910400 295.57229614 349.06640625 295.27899170 C 353.45239258 295.84609985 357.64630127 297.36398315 361.55679321 299.59817505 C 365.68164062 301.48092651 369.87713623 302.30245972 373.94866943 302.43875122 C 377.97290039 302.00115967 381.87100220 300.56451416 385.62219238 298.39205933 C 389.10214233 296.47442627 392.66790771 295.43511963 396.23001099 295.19534302 C 399.53427124 295.48742676 402.06311035 296.02264404 403.33331299 296.92044067 C 403.20730591 298.79739380 402.36123657 301.42492676 401.36996460 304.63363647 C 400.12026978 308.20623779 398.90020752 311.87008667 397.80258179 315.16766357" stroke-width="2.00000000" fill="rgb(8, 36, 83)" opacity="1.0" stroke="rgb(216, 255, 255)" stroke-opacity="0.42067403" stroke-linecap="round" stroke-linejoin="round"/>
    <path d="M 197.49908447 332.43069458 C 198.63343811 336.67596436 200.37707520 340.55813599 202.66110229 343.99169922 C 205.13862610 346.88070679 207.39317322 349.16793823 208.76835632 351.36746216 C 209.11956787 353.90432739 208.61303711 355.98504639 207.33299255 356.98837280 C 205.14736938 356.63726807 201.97767639 355.32135010 198.08341980 353.86099243 C 193.48963928 352.88220215 188.44055176 352.38211060 183.11381531 352.19821167 C 177.76260376 352.41421509 172.61735535 353.01757812 167.72178650 354.01049805 C 163.49234009 355.30590820 159.89970398 356.95269775 157.13729858 358.86639404 C 155.49559021 361.20898438 154.88664246 363.84933472 154.73002625 366.61300659 C 154.09584045 368.80557251 152.88479614 370.05972290 151.27270508 370.05120850 C 149.45033264 368.46737671 147.25799561 366.01300049 144.65170288 363.12438965 C 141.71844482 359.81213379 138.84983826 356.37152100 136.16030884 353.12750244 C 133.65324402 349.90106201 131.57254028 346.73825073 129.72261047 344.31158447 C 128.25541687 342.66830444 127.70701599 341.42617798 128.58517456 340.43905640 C 130.84837341 339.57006836 133.70387268 338.68139648 136.90382385 338.09234619 C 140.32176208 338.17807007 143.68237305 339.33120728 147.04550171 341.33868408 C 150.56777954 343.30419922 154.24754333 345.10980225 157.85502625 346.12008667 C 161.55613708 346.29959106 165.29597473 345.69708252 168.84344482 344.18661499 C 172.40422058 342.14556885 176.06614685 340.22827148 179.95425415 338.89331055 C 183.77317810 338.29589844 187.52888489 338.63699341 191.12695312 339.72619629 C 194.57440186 341.31820679 197.83795166 343.22064209 197.49908447 332.43069458" stroke-width="2.00000000" fill="rgb(4, 39, 78)" opacity="1.0" stroke="rgb(255, 255, 255)" stroke-opacity="0.26345736" stroke-linecap="round" stroke-linejoin="round"/>
    <path d="M 194.21078491 292.54812622 C 191.06155396 291.28631592 187.63586426 290.31478882 184.04365540 289.86270142 C 180.30699158 289.85235596 176.56996155 290.28817749 173.01565552 291.32577515 C 169.39967346 292.85769653 165.86569214 294.65716553 162.39447021 295.96844482 C 159.09190369 296.73013306 155.66058350 296.48986816 152.10931396 295.56259155 C 148.54719543 294.10171509 145.01512146 292.31076050 141.33512878 290.71679688 C 137.41436768 289.57067871 133.06594849 289.13952637 128.65724182 289.66186523 C 124.29716492 291.04824829 120.23988342 292.73284912 116.67460632 294.54058838 C 113.84181213 295.94165039 111.62822723 296.43905640 110.16594696 295.59872437 C 109.55207062 293.15136719 109.04498291 289.71475220 108.32217407 286.33300781 C 107.47550201 283.65100098 107.41001129 282.21838379 108.87397766 281.91461182 C 111.80053711 282.71340942 115.48025513 284.32540894 119.51178741 286.12875366 C 123.55267334 287.32461548 127.70705414 287.41400146 131.69902039 286.66043091 C 135.32910156 285.34768677 138.82380676 283.74670410 142.25038147 282.40795898 C 145.67642212 281.84124756 149.11218262 282.12567139 152.53181458 283.51715088 C 156.14938354 285.16461182 159.82006836 286.47738647 163.80053711 287.06311035 C 168.07228088 286.93295288 172.36497498 285.90151978 176.65513611 284.12063599 C 180.86100769 282.27420044 185.28921509 281.64077759 189.63328552 281.77825928 C 193.63644409 281.22793579 197.08593750 280.80480957 199.77745056 281.43710327 C 201.71702576 283.29171753 203.29315186 286.10348511 204.68395996 289.90744019 C 205.94665527 294.51110840 207.28959656 299.41085815 194.21078491 292.54812622" stroke-width="2.00000000" fill="rgb(4, 35, 82)" opacity="1.0" stroke="rgb(0, 31, 73)" stroke-opacity="0.9829663" stroke-linecap="round" stroke-linejoin="round"/>
    <path d="M 143.68113708 268.10034180 C 146.47431946 267.75012207 149.08113098 267.74465942 151.93797302 268.53768921 C 155.04220581 269.78381348 158.38159180 271.13601685 161.95379639 272.19195557 C 165.69160461 272.83743286 169.48805237 272.68994141 173.28605652 271.61785889 C 177.11811829 269.78778076 180.91876221 268.16149902 184.69610596 267.44842529 C 188.79963684 267.75103760 192.96638489 268.46371460 196.93479919 268.49517822 C 200.31457520 268.40664673 202.76170349 268.83285522 203.89019775 269.98849487 C 203.50419617 272.18264771 201.88279724 274.97296143 199.34765625 277.05932617 C 195.59039307 277.53338623 190.95886230 276.87734985 186.00402832 275.90856934 C 181.10110474 275.83090210 176.51609802 277.11254883 172.20263672 278.93688965 C 168.08862305 280.21142578 164.15943909 280.15740967 160.58418274 279.18579102 C 157.20002747 277.55990601 153.70953369 276.05145264 150.12457275 275.16156006 C 146.43707275 274.76409912 142.82670593 274.63726807 139.40406799 275.45593262 C 135.79373169 277.20468140 131.84893799 278.95358276 127.70482635 279.97592163 C 123.56846619 279.99465942 119.72917938 278.65756226 116.09949493 276.73718262 C 112.48639679 275.32168579 109.17144775 274.95687866 106.74017334 274.55221558 C 105.91264343 272.63769531 105.85401917 270.33377075 105.97261810 268.49383545 C 106.74416351 267.57211304 108.20464325 267.41470337 110.31898499 267.77856445 C 113.04992676 268.80465698 116.20649719 270.09045410 119.93624878 271.49398804 C 124.16232300 272.68713379 128.28974915 272.94033813 132.68212891 272.14575195 C 136.88478088 270.88671875 141.24945068 268.94561768 143.68113708 268.10034180" stroke-width="2.00000000" fill="rgb(3, 36, 83)" opacity="1.0" stroke="rgb(1, 31, 71)" stroke-opacity="0.9752216" stroke-linecap="round" stroke-linejoin="round"/>
    <path d="M 401.86129761 292.24737549 C 398.26818848 291.59140015 394.69915771 291.40576172 391.31692505 291.83969116 C 388.16915894 293.01898193 385.00006104 294.48593140 381.99401855 296.14505005 C 378.97198486 297.59555054 375.89245605 298.57882690 372.69839478 298.69058228 C 369.34121704 298.50271606 365.98208618 297.59548950 362.72640991 295.99130249 C 359.31359863 294.39385986 355.91101074 292.84091187 352.42883301 291.84869385 C 348.72824097 291.59094238 344.94860840 292.12637329 341.20507812 293.51611328 C 337.47842407 295.34371948 333.71353149 297.30535889 329.78512573 298.44808960 C 326.50408936 298.76007080 324.22390747 297.65838623 322.72851562 295.11956787 C 321.86114502 291.99270630 320.04748535 289.59350586 317.54287720 287.95721436 C 317.75949097 285.68145752 319.59326172 283.29541016 322.03021240 281.15988159 C 324.90032959 280.09042358 328.21990967 280.16610718 331.86486816 281.20806885 C 335.50363159 282.77154541 339.23083496 284.06427002 342.93615723 284.44418335 C 346.83395386 283.87030029 350.74575806 282.67590332 354.57324219 281.31906128 C 358.11282349 279.91479492 361.70318604 279.72369385 365.30371094 280.74798584 C 368.90185547 281.97131348 372.36123657 283.30065918 376.00366211 284.80990601 C 379.56195068 285.64981079 383.28448486 285.24398804 387.01989746 284.02499390 C 390.76995850 282.33810425 394.51824951 280.80004883 398.24462891 279.94299316 C 401.76376343 280.01828003 404.67941284 280.42059326 406.46774292 281.28466797 C 406.82720947 283.02484131 406.36447144 285.48699951 405.56283569 288.23419189 C 405.29098511 291.28460693 405.30230713 294.59521484 401.86129761 292.24737549" stroke-width="2.00000000" fill="rgb(9, 36, 78)" opacity="1.0" stroke="rgb(240, 255, 255)" stroke-opacity="0.669742" stroke-linecap="round" stroke-linejoin="round"/>
    <path d="M 392.55938721 338.34213257 C 389.04193115 337.96511841 385.97323608 338.87899780 383.35922241 341.68069458 C 380.71942139 346.08853149 377.68533325 351.39871216 374.07763672 356.98904419 C 370.17074585 361.96157837 366.17532349 365.94812012 362.30120850 368.89425659 C 359.19833374 370.53634644 357.48089600 370.42770386 357.09640503 368.49224854 C 357.55932617 365.26568604 357.46051025 361.72558594 355.37893677 358.57363892 C 351.25094604 355.89123535 345.57803345 353.93966675 339.00061035 352.75704956 C 332.29635620 351.94342041 325.47180176 351.78317261 318.97930908 352.51940918 C 313.25582886 353.79074097 309.04806519 355.39175415 306.43960571 356.84564209 C 304.80661011 357.02551270 304.30755615 356.23776245 304.83090210 354.52081299 C 306.20141602 352.05599976 308.08801270 349.16528320 310.53582764 346.34429932 C 313.46496582 344.32763672 316.72927856 343.44403076 320.04113770 343.32055664 C 323.54971313 342.72384644 326.94802856 341.43395996 330.17950439 339.69946289 C 333.52548218 338.49197388 337.00094604 338.03613281 340.52978516 338.38162231 C 344.08822632 339.08422852 347.34555054 340.35266113 350.49707031 342.27676392 C 353.91488647 344.02288818 357.43194580 345.11141968 360.98947144 345.44415283 C 364.63983154 345.42309570 368.37228394 344.26004028 371.83889771 342.24179077 C 375.61111450 340.56890869 379.61135864 339.69583130 384.05993652 339.88885498 C 388.90551758 339.30395508 393.48422241 338.13833618 397.30215454 335.96725464 C 400.06982422 332.42956543 401.67276001 328.03302002 402.28698730 323.28979492 C 402.41513062 318.95932007 403.10488892 315.25598145 392.55938721 338.34213257" stroke-width="0.00000000" fill="rgb(2, 34, 79)" opacity="1.0" stroke="rgb(0, 71, 119)" stroke-opacity="0.59351575" stroke-linecap="round" stroke-linejoin="round"/>
    <path d="M 329.45202637 267.56466675 C 333.36404419 268.99279785 337.19937134 270.14282227 341.05581665 270.68862915 C 344.64007568 270.68893433 347.80709839 270.03179932 350.63916016 268.72882080 C 353.50155640 267.26132202 356.45965576 266.37722778 359.35031128 265.95443726 C 362.25143433 265.74493408 364.86831665 265.94287109 367.44906616 266.85543823 C 370.21405029 267.94265747 372.90893555 269.03558350 376.04934692 269.90530396 C 379.53308105 270.66827393 383.10006714 270.86462402 386.86779785 269.90362549 C 390.82226562 267.99523926 394.92401123 266.20034790 399.05639648 265.36376953 C 402.89797974 265.46832275 406.18881226 266.25744629 408.21881104 267.15783691 C 408.81539917 268.81820679 408.26937866 270.95785522 407.92495728 273.46383667 C 407.83404541 275.72705078 407.71743774 277.25262451 406.68212891 277.94177246 C 404.42208862 277.38519287 401.25231934 276.81561279 397.63409424 276.89746094 C 393.97964478 277.61380005 390.48654175 278.93112183 387.25000000 280.67288208 C 383.90237427 281.67526245 380.25830078 282.01724243 376.74975586 281.69424438 C 373.39413452 280.38925171 370.15679932 278.92388916 366.77957153 277.63549805 C 363.59030151 276.67590332 360.24911499 276.46649170 356.49365234 277.17477417 C 352.48217773 278.49328613 348.61300659 280.25109863 344.76986694 281.85302734 C 340.90579224 282.63012695 337.15151978 282.13940430 333.51214600 281.31414795 C 329.59490967 281.38662720 326.22695923 281.67953491 323.71731567 281.48153687 C 322.56008911 280.81033325 323.15713501 279.52304077 324.36935425 277.43759155 C 325.12435913 274.73254395 325.40216064 271.90582275 329.45202637 267.56466675" stroke-width="2.00000000" fill="rgb(1, 31, 75)" opacity="1.0" stroke="rgb(252, 255, 255)" stroke-opacity="0.52135074" stroke-linecap="round" stroke-linejoin="round"/>
    <path d="M 311.02221680 409.05407715 C 304.19403076 410.74584961 297.59616089 412.58325195 291.63812256 414.73645020 C 286.38711548 416.71575928 281.77838135 417.92590332 277.43951416 418.27709961 C 273.27786255 417.87930298 269.28146362 417.13531494 265.63021851 416.13183594 C 262.34445190 414.74566650 259.55316162 413.04852295 257.34982300 411.07733154 C 255.57737732 408.81613159 253.98431396 406.42593384 252.84080505 403.99380493 C 252.13693237 401.48080444 251.85426331 399.05044556 252.04484558 396.60855103 C 252.71206665 394.14791870 254.05610657 391.59167480 256.28704834 389.20721436 C 259.14578247 386.86209106 261.91207886 384.52151489 264.18176270 381.86642456 C 265.61114502 378.90792847 265.63806152 375.98956299 264.47894287 373.51440430 C 262.36068726 371.83633423 259.97741699 370.72836304 258.32150269 369.72445679 C 258.64303589 368.45092773 260.61044312 367.13665771 262.85760498 365.57833862 C 264.53802490 363.79586792 265.74081421 362.88638306 266.45318604 363.47225952 C 266.49822998 365.42929077 266.36346436 368.17068481 266.27841187 371.29498291 C 266.95578003 374.34179688 268.13635254 377.32305908 269.11798096 380.56088257 C 269.18264771 384.04251099 268.65469360 387.72106934 267.96917725 391.00042725 C 267.45138550 393.58840942 267.20751953 394.98934937 267.60202026 395.29714966 C 268.91564941 394.92178345 270.97146606 394.39227295 273.74179077 393.66305542 C 277.25149536 392.85388184 281.24609375 392.69781494 285.76025391 393.77813721 C 290.87161255 395.81927490 296.84268188 397.68759155 303.97332764 398.00668335 C 311.65261841 397.60824585 319.59878540 396.67355347 311.02221680 409.05407715" stroke-width="0.19757877" fill="rgb(0, 35, 82)" opacity="1.0" stroke="rgb(0, 24, 90)" stroke-opacity="0.65959173" stroke-linecap="round" stroke-linejoin="round"/>
    <path d="M 396.31451416 318.36517334 C 394.66488647 322.30056763 392.66699219 326.09933472 390.84564209 329.90039062 C 389.39978027 333.17355347 387.62066650 335.94168091 385.42547607 337.68869019 C 383.07559204 337.87451172 380.47134399 337.31036377 377.46264648 337.36843872 C 374.07095337 337.92062378 370.56564331 339.02853394 366.93484497 340.48117065 C 363.14178467 341.62951660 359.27307129 341.57070923 355.27636719 340.12243652 C 350.76794434 337.89254761 346.23077393 335.75091553 341.41195679 334.33343506 C 336.62615967 333.98724365 332.35665894 334.89959717 328.55038452 336.95367432 C 325.34835815 339.12481689 322.73574829 340.69064331 320.92785645 340.92907715 C 320.14877319 339.28268433 319.96661377 336.24850464 320.94561768 332.47396851 C 323.24322510 328.29135132 325.75302124 324.05920410 328.17489624 320.67370605 C 331.00244141 319.15786743 334.25796509 319.31124878 337.92086792 319.51382446 C 341.47396851 318.77624512 345.15438843 317.79937744 348.89599609 317.86886597 C 352.54788208 318.74096680 356.20278931 320.34350586 359.76364136 322.18270874 C 363.32531738 323.56695557 366.94863892 323.91091919 370.64321899 323.62329102 C 374.12792969 322.66070557 377.52301025 321.30139160 380.79431152 319.55957031 C 383.98513794 317.96810913 387.17407227 316.81207275 390.36618042 316.52838135 C 393.70446777 317.09237671 396.51260376 318.24536133 398.89691162 319.71261597 C 400.62976074 321.23239136 402.08126831 322.37210083 403.27862549 323.01486206 C 404.06268311 323.29364014 404.46957397 323.26107788 404.57061768 323.09326172 C 404.48999023 322.95578003 404.28964233 322.96072388 396.31451416 318.36517334" stroke-width="2.00000000" fill="rgb(9, 37, 80)" opacity="1.0" stroke="rgb(249, 255, 255)" stroke-opacity="0.58605456" stroke-linecap="round" stroke-linejoin="round"/>
    <path d="M 351.26239014 385.65200806 C 343.62017822 391.28067017 335.30105591 396.40078735 326.67947388 401.19146729 C 317.36788940 406.08889771 307.16921997 410.13613892 296.04510498 413.41766357 C 284.73559570 416.48736572 273.40048218 418.20660400 262.65588379 418.70315552 C 252.92869568 419.03128052 244.54225159 418.52993774 237.80441284 418.12438965 C 233.04458618 417.80319214 230.42158508 417.31082153 230.11499023 415.19949341 C 229.30793762 411.51089478 226.17181396 407.59960938 220.66683960 403.85021973 C 213.55908203 400.09069824 205.90670776 396.07009888 198.33139038 392.24349976 C 191.30043030 389.65814209 185.68952942 388.13522339 182.37794495 387.59082031 C 181.92295837 388.16033936 184.33190918 389.24420166 189.21121216 390.69610596 C 195.97300720 392.77593994 204.01837158 395.56915283 212.84265137 398.81292725 C 221.73645020 402.15054321 230.32157898 405.67303467 238.23434448 408.70028687 C 245.41142273 411.20376587 252.16397095 413.07049561 258.78897095 414.06130981 C 265.10699463 414.08087158 271.25857544 413.41387939 277.91735840 412.22683716 C 285.30899048 411.13479614 293.30236816 409.37875366 301.75701904 406.60577393 C 311.22351074 403.19491577 320.76593018 399.03039551 330.13781738 393.83071899 C 339.71392822 387.79266357 349.29403687 380.90991211 358.55911255 372.44973755 C 367.73696899 363.82669067 375.48107910 354.71438599 381.37313843 345.66070557 C 385.72140503 338.59075928 389.41711426 335.99557495 391.80221558 337.68655396 C 390.22091675 341.54446411 386.04953003 347.85565186 380.53512573 355.55508423 C 374.02221680 363.84194946 366.87844849 372.00088501 351.26239014 385.65200806" stroke-width="2.00000000" fill="rgb(254, 253, 254)" opacity="1.0" stroke="rgb(5, 35, 74)" stroke-opacity="0.8754887" stroke-linecap="round" stroke-linejoin="round"/>
    <path d="M 341.42849731 415.77993774 C 323.60485840 425.33721924 304.17407227 432.54879761 282.54760742 436.66030884 C 260.40802002 439.35122681 240.95101929 439.28176880 227.70828247 435.24645996 C 224.68913269 427.42401123 232.08496094 421.88034058 248.41479492 422.00933838 C 270.29962158 423.14715576 293.22106934 419.27178955 314.14443970 411.28341675 C 331.74539185 403.08389282 344.31561279 395.85433960 349.97070312 389.77087402 C 347.24813843 386.23129272 339.17913818 386.69308472 327.97494507 391.10720825 C 314.31207275 396.94732666 299.59576416 401.73410034 285.72552490 405.33996582 C 273.95486450 407.22384644 264.66949463 407.73171997 258.31085205 408.15020752 C 254.79393005 407.80657959 253.85154724 406.84121704 255.00939941 405.69476318 C 257.62332153 405.13055420 261.18185425 405.21505737 265.36560059 405.89773560 C 270.12106323 406.97967529 275.50970459 406.98580933 282.05697632 405.96121216 C 290.13363647 404.54574585 299.74575806 401.66815186 311.02499390 397.80148315 C 323.32556152 392.27389526 336.96554565 388.15560913 351.65194702 386.09027100 C 364.72851562 379.60443115 376.06399536 368.16729736 386.92193604 353.50833130 C 397.38699341 337.77026367 405.00378418 319.57864380 410.72909546 300.13729858 C 415.10507202 281.48492432 416.27606201 264.97747803 417.21264648 253.61439514 C 422.40783691 249.18721008 428.96078491 251.52523804 433.56738281 261.21331787 C 433.60327148 277.73507690 429.68508911 298.38726807 422.54531860 320.55377197 C 413.79226685 341.91049194 402.12274170 360.60391235 389.16705322 376.50534058 C 376.01409912 390.68341064 362.62017822 403.45413208 341.42849731 415.77993774" stroke-width="2.00000000" fill="rgb(235, 112, 25)" opacity="1.0" stroke="rgb(11, 12, 39)" stroke-opacity="0.8013121" stroke-linecap="round" stroke-linejoin="round"/>
    <path d="M 263.43304443 405.09808350 C 255.12579346 405.13989258 247.44416809 403.25222778 240.23490906 400.30856323 C 233.59298706 398.67489624 229.45544434 398.90347290 229.39308167 400.39178467 C 234.46095276 401.57284546 241.86267090 404.17098999 249.69386292 407.60342407 C 256.85388184 409.20104980 262.70974731 408.83438110 266.47430420 409.46197510 C 267.67205811 411.88711548 265.30487061 413.66342163 258.94161987 413.94253540 C 249.99885559 414.00985718 240.66848755 413.48324585 231.45045471 411.98022461 C 222.95994568 410.42657471 215.44584656 408.29995728 208.79881287 406.05413818 C 203.04270935 403.92535400 197.92333984 401.92010498 193.62748718 399.91406250 C 190.15594482 398.08465576 187.46394348 396.98339844 186.25639343 395.78967285 C 186.88128662 394.40283203 188.88827515 393.17428589 191.75279236 392.48370361 C 195.32200623 392.80014038 199.46455383 394.02841187 203.61286926 395.26651001 C 207.79383850 396.09643555 212.02685547 395.76223755 216.29029846 394.43695068 C 220.44120789 392.74218750 224.77758789 391.52334595 229.04486084 390.96301270 C 233.11351013 391.04708862 236.85115051 391.70596313 240.23268127 392.62460327 C 243.26835632 393.90545654 246.10697937 394.73974609 248.90429688 394.41302490 C 251.62255859 392.97338867 254.27203369 390.89419556 256.85168457 388.42230225 C 258.97958374 386.21435547 260.96759033 385.63864136 263.15194702 386.56405640 C 264.88143921 388.63580322 265.66238403 391.89129639 265.72177124 395.67999268 C 266.34399414 398.49472046 268.28540039 399.68707275 272.05581665 399.67205811 C 276.99884033 399.25048828 282.42687988 399.12100220 263.43304443 405.09808350" stroke-width="2.00000000" fill="rgb(11, 42, 84)" opacity="1.0" stroke="rgb(245, 255, 255)" stroke-opacity="0.6629007" stroke-linecap="round" stroke-linejoin="round"/>
    <path d="M 286.48483276 373.66210938 C 290.16821289 372.49945068 293.63031006 370.98757935 296.90814209 368.71142578 C 299.98297119 365.93630981 302.83639526 363.25607300 305.62460327 361.41442871 C 308.47650146 361.13854980 310.89904785 361.84417725 312.16354370 362.80377197 C 311.75067139 363.87152100 310.31802368 364.93771362 308.20190430 365.94598389 C 306.40802002 367.32257080 305.81723022 368.98333740 306.79608154 370.84887695 C 309.50543213 372.70864868 313.85165405 374.24026489 319.54370117 375.14642334 C 325.77404785 375.71417236 332.28286743 375.64840698 338.54904175 374.85021973 C 344.04333496 373.82952881 348.22430420 373.35598755 350.64135742 374.09152222 C 350.77407837 376.05908203 348.58035278 378.41479492 344.62860107 380.35403442 C 339.22061157 381.09457397 332.97152710 381.14129639 326.51300049 380.77624512 C 320.41058350 379.23690796 314.81176758 377.60263062 309.78927612 377.14370728 C 305.48956299 377.38357544 302.22692871 378.43292236 299.82778931 380.16943359 C 297.73519897 381.75787354 296.00042725 382.88793945 294.85202026 383.84829712 C 294.14538574 384.90393066 293.54611206 385.98178101 292.68319702 386.64462280 C 291.12478638 386.80026245 288.88882446 386.70425415 286.06665039 386.57113647 C 282.72348022 386.77801514 279.02371216 387.17749023 275.33041382 388.02157593 C 271.92474365 389.15023804 268.95657349 390.44845581 266.42245483 391.07742310 C 264.54684448 390.12976074 263.99246216 388.62869263 265.00357056 387.09017944 C 268.45046997 385.83645630 273.62179565 384.64923096 280.09497070 383.46627808 C 287.25067139 382.22711182 294.45150757 380.94741821 286.48483276 373.66210938" stroke-width="1.59992266" fill="rgb(0, 35, 82)" opacity="1.0" stroke="rgb(1, 30, 69)" stroke-opacity="0.9573293" stroke-linecap="round" stroke-linejoin="round"/>
    <path d="M 256.94601440 400.00228882 C 255.70498657 399.09954834 254.47338867 398.24249268 253.07206726 397.43121338 C 251.73190308 396.64385986 250.57612610 395.91455078 249.45852661 394.98693848 C 248.24510193 394.04382324 246.93379211 393.21044922 245.62405396 392.38284302 C 244.28810120 391.58148193 243.09320068 390.57644653 241.68547058 389.70571899 C 240.08416748 388.92892456 238.45445251 388.25897217 236.74111938 387.56231689 C 235.03482056 387.06048584 233.18974304 386.81372070 231.28794861 386.62869263 C 229.46954346 386.14224243 227.84315491 385.46279907 226.37608337 384.73818970 C 225.17384338 384.00222778 224.22126770 383.27783203 223.52085876 382.52319336 C 223.05876160 381.79541016 222.84921265 381.10394287 223.11102295 380.67340088 C 223.66369629 380.53076172 224.68159485 380.59979248 226.10322571 380.67962646 C 227.87719727 380.75366211 229.89530945 380.77883911 232.31983948 380.84927368 C 234.96577454 380.95870972 237.83711243 380.75607300 240.62254333 379.96768188 C 243.05831909 378.87808228 244.79432678 377.05438232 245.59214783 374.22833252 C 245.87442017 370.93771362 246.51786804 367.98175049 248.07470703 365.83697510 C 250.02871704 365.40982056 251.52151489 366.77981567 251.65223694 369.06121826 C 249.82737732 371.28036499 247.45619202 373.55459595 245.89178467 376.21380615 C 245.97023010 379.09555054 247.24131775 381.77371216 248.94621277 384.20458984 C 251.02165222 386.24627686 253.00505066 387.94595337 254.90132141 389.35333252 C 256.61611938 390.55862427 258.21328735 391.55624390 259.74792480 392.37451172 C 261.08416748 393.09002686 262.36080933 393.85061646 256.94601440 400.00228882" stroke-width="0.75589895" fill="rgb(9, 38, 85)" opacity="1.0" stroke="rgb(10, 22, 66)" stroke-opacity="0.81467515" stroke-linecap="round" stroke-linejoin="round"/>
    <path d="M 290.18746948 380.97198486 C 293.59265137 383.01794434 297.05642700 384.10012817 300.58200073 383.38665771 C 304.52319336 381.77917480 308.99407959 381.22296143 313.89505005 382.44619751 C 318.93676758 384.55422974 323.86172485 385.80804443 328.65795898 385.56311035 C 333.37313843 385.21673584 337.25555420 385.16339111 339.49484253 384.72341919 C 339.57620239 383.49542236 338.12551880 382.83126831 336.35348511 383.16275024 C 335.30218506 384.11700439 335.63656616 385.50723267 337.41766357 386.94000244 C 340.55850220 387.58663940 345.02151489 387.47140503 349.72088623 386.74063110 C 353.90887451 384.02304077 357.79214478 380.10256958 361.43554688 376.39086914 C 364.80886841 373.76629639 367.55859375 372.78820801 368.94171143 373.43301392 C 368.41476440 374.95681763 366.35858154 376.92196655 363.65866089 379.18167114 C 360.71450806 381.84802246 357.54660034 384.64913940 354.58642578 387.36318970 C 351.48361206 388.20465088 348.59817505 387.63662720 345.45022583 387.03781128 C 341.84854126 386.99755859 338.36553955 388.05804443 335.35845947 389.38421631 C 332.27334595 390.74130249 328.87417603 391.72427368 325.09750366 392.29650879 C 321.05334473 392.43450928 316.88357544 392.27325439 312.47698975 392.83010864 C 307.94387817 394.48709106 302.95883179 395.00195312 297.66735840 393.71011353 C 292.75366211 391.81329346 287.89733887 389.91979980 283.05807495 389.00607300 C 278.49856567 389.05337524 274.55242920 389.06225586 271.14895630 388.05227661 C 268.52163696 386.23248291 266.60211182 384.03421021 265.02487183 381.84085083 C 263.26580811 379.82748413 261.08697510 378.09341431 290.18746948 380.97198486" stroke-width="2.00000000" fill="rgb(6, 35, 82)" opacity="1.0" stroke="rgb(210, 255, 255)" stroke-opacity="0.26416454" stroke-linecap="round" stroke-linejoin="round"/>
    <path d="M 239.59472656 386.82229614 C 237.34947205 386.75155640 234.94927979 386.79956055 232.41238403 386.96096802 C 229.80297852 387.15969849 227.12911987 387.33624268 224.52894592 387.67059326 C 221.90899658 388.26580811 219.21003723 389.32287598 216.56427002 390.50860596 C 213.60319519 391.62963867 210.69371033 392.57846069 207.60795593 393.19726562 C 204.42730713 393.20642090 201.31384277 392.67639160 198.41540527 392.16360474 C 195.85498047 392.44018555 193.72473145 393.34124756 191.61096191 394.49423218 C 189.59086609 395.38961792 187.37892151 395.76773071 185.15084839 395.40545654 C 182.89541626 394.17053223 180.28556824 392.57144165 177.51998901 390.70706177 C 174.53817749 388.84249878 171.62236023 386.95172119 169.04830933 385.13885498 C 167.04852295 383.75695801 165.96891785 382.71749878 166.00637817 381.85775757 C 167.23796082 381.25436401 169.42005920 381.10202026 172.14477539 381.71002197 C 175.25125122 383.03475952 178.65924072 384.56643677 182.19950867 385.72616577 C 185.84425354 386.32357788 189.48886108 385.77783203 193.38056946 384.51266479 C 197.50283813 382.91796875 201.54127502 381.67205811 205.34394836 381.66229248 C 208.47352600 382.51385498 210.66174316 383.09454346 211.44409180 382.22534180 C 210.48002625 379.95907593 209.28396606 376.78076172 208.86662292 373.23034668 C 209.78092957 370.00003052 212.16500854 368.10583496 215.61492920 368.08306885 C 219.51092529 369.56237793 223.47312927 371.07656860 226.83662415 372.04241943 C 228.45080566 372.88357544 227.95361328 374.15383911 225.92588806 375.74032593 C 223.31556702 377.62985229 220.73139954 379.44155884 239.59472656 386.82229614" stroke-width="0.27353063" fill="rgb(3, 35, 84)" opacity="1.0" stroke="rgb(0, 41, 143)" stroke-opacity="0.40921763" stroke-linecap="round" stroke-linejoin="round"/>
    <path d="M 218.18614197 291.27673340 C 216.22113037 293.19735718 214.10200500 295.23516846 212.18786621 297.53024292 C 210.23391724 299.81005859 208.19245911 301.98953247 206.38493347 304.22802734 C 204.89512634 306.44467163 203.54635620 308.58340454 202.34365845 310.26898193 C 201.42825317 311.24053955 200.94873047 311.36083984 200.89694214 310.69403076 C 201.41716003 309.35546875 202.33325195 307.53250122 203.32424927 305.24804688 C 203.99905396 302.60760498 204.08680725 299.67871094 203.47776794 296.63552856 C 202.78544617 293.63284302 201.81486511 290.68130493 200.83753967 287.97393799 C 200.42276001 285.42126465 200.69635010 283.14239502 201.69946289 281.14276123 C 203.29710388 279.58142090 205.11386108 278.00817871 207.18804932 276.09420776 C 209.30152893 274.28259277 211.16098022 272.52386475 212.37846375 270.58929443 C 212.72647095 268.70773315 212.62916565 267.48867798 213.41003418 267.04690552 C 214.90814209 267.49023438 216.80491638 267.85479736 218.93936157 267.51416016 C 221.40229797 266.28146362 223.81228638 264.56671143 225.53485107 262.70193481 C 226.37466431 260.71694946 227.26573181 259.30114746 228.40618896 258.69421387 C 229.76519775 258.92950439 231.26358032 259.57220459 232.62348938 260.98413086 C 233.74279785 262.49139404 234.07427979 264.52325439 233.97239685 266.87255859 C 233.70530701 269.33892822 233.03842163 271.76919556 231.81651306 274.23800659 C 230.59425354 276.61010742 229.17491150 278.81884766 227.75196838 280.91311646 C 226.32617188 282.86029053 224.81242371 284.56176758 223.30552673 286.14538574 C 221.86270142 287.70266724 220.36079407 289.34240723 218.18614197 291.27673340" stroke-width="2.00000000" fill="rgb(6, 38, 83)" opacity="1.0" stroke="rgb(255, 255, 255)" stroke-opacity="0.1927651" stroke-linecap="round" stroke-linejoin="round"/>
    <path d="M 326.58444214 265.69857788 C 323.44558716 262.61041260 319.72964478 261.86581421 315.47137451 264.41726685 C 310.86929321 266.86099243 305.76425171 267.27328491 300.58450317 266.41293335 C 296.37194824 268.59310913 292.13528442 271.62820435 287.00473022 274.22808838 C 281.31228638 275.85000610 275.34768677 277.49279785 269.37719727 279.45306396 C 263.55242920 281.59631348 258.02346802 284.53225708 252.98254395 288.44866943 C 248.08374023 292.83273315 243.96865845 298.04980469 240.52035522 303.58682251 C 237.44638062 308.90582275 234.61206055 313.57821655 231.57292175 317.06542969 C 228.41444397 318.71853638 225.80343628 318.13308716 223.90443420 315.65890503 C 223.08134460 311.83508301 224.19621277 307.18270874 227.30674744 301.84643555 C 231.34623718 295.99380493 235.84710693 289.88751221 239.90589905 283.74288940 C 243.08470154 277.73110962 245.08619690 272.04843140 245.49203491 266.76861572 C 245.14064026 262.23809814 244.23547363 258.80224609 243.85717773 256.59210205 C 245.55609131 255.56834412 248.93652344 255.29429626 253.49856567 255.34059143 C 259.18408203 255.30052185 265.69772339 255.30313110 272.95874023 255.40841675 C 280.36593628 255.28366089 287.72485352 255.20568848 295.09170532 255.26599121 C 302.15756226 255.47840881 308.52951050 255.34785461 314.02789307 255.28024292 C 318.64132690 255.69252014 322.38848877 256.86221313 325.38119507 258.88677979 C 327.75061035 261.53546143 329.54843140 264.72195435 330.92462158 268.28433228 C 332.46279907 271.91366577 334.06719971 275.42236328 335.68676758 278.94461060 C 337.06314087 282.76351929 338.36843872 286.81536865 326.58444214 265.69857788" stroke-width="2.00000000" fill="rgb(14, 45, 87)" opacity="1.0" stroke="rgb(228, 255, 255)" stroke-opacity="0.22320014" stroke-linecap="round" stroke-linejoin="round"/>
    <path d="M 274.65353394 95.15674591 C 274.12213135 90.86975098 273.59570312 86.80181122 273.40081787 83.11106110 C 273.40927124 79.98648071 273.78375244 77.75188446 274.75576782 76.84637451 C 276.06173706 77.39011383 277.60040283 78.79193878 279.31387329 80.80868530 C 280.76260376 83.32668304 281.44421387 86.18315887 281.57275391 89.05764008 C 281.21707153 91.94678497 280.11935425 94.68944550 278.17718506 97.42781067 C 276.13217163 100.19860840 274.08996582 102.93430328 272.34997559 105.49071503 C 270.73297119 107.87305450 269.49243164 110.28836060 268.50170898 111.83854675 C 267.44381714 112.13487244 266.72619629 111.17536163 266.39913940 109.54476929 C 266.38583374 107.66115570 266.37713623 105.51142120 266.41711426 103.09048462 C 266.41339111 100.19472504 266.19229126 97.04856873 274.65353394 95.15674591" stroke-width="2.00000000" fill="rgb(233, 138, 46)" opacity="1.0" stroke="rgb(0, 29, 60)" stroke-opacity="0.5894572" stroke-linecap="round" stroke-linejoin="round"/>
    <path d="M 303.75241089 274.09487915 C 299.93853760 276.92868042 297.03445435 278.13119507 295.98132324 277.70706177 C 297.44998169 276.02185059 299.85113525 273.12283325 301.58978271 269.62188721 C 302.64462280 266.78161621 304.05023193 265.63897705 305.44915771 266.20217896 C 306.49517822 267.66433716 306.87405396 269.22024536 307.67230225 269.96658325 C 309.85971069 269.07962036 313.38284302 267.65292358 317.80529785 266.44918823 C 322.25875854 265.28067017 326.42153931 265.61026001 330.23022461 267.35067749 C 334.44052124 269.45803833 338.82763672 270.75561523 343.11557007 270.92639160 C 346.92367554 270.47244263 350.17813110 269.62228394 352.69451904 269.12292480 C 354.37509155 269.58428955 355.00637817 270.73593140 354.53164673 272.09188843 C 352.86270142 273.14242554 350.24877930 273.67010498 346.78689575 273.64926147 C 342.85791016 273.67095947 338.84698486 273.67141724 334.94082642 273.37878418 C 331.22210693 272.65728760 327.85211182 271.70462036 325.10223389 271.48010254 C 322.93142700 272.80709839 320.58294678 274.86587524 318.06735229 276.99288940 C 315.21527100 278.83389282 311.78491211 280.40643311 308.11074829 281.94720459 C 304.15063477 283.51837158 299.39672852 284.67224121 293.60830688 285.74301147 C 287.06173706 286.76168823 279.90270996 288.13427734 272.48431396 290.36279297 C 265.10653687 293.42041016 258.80776978 298.02740479 254.11718750 301.50567627 C 252.21867371 300.36883545 254.69508362 296.83630371 260.67544556 292.38900757 C 267.94992065 287.86322021 276.78866577 284.79626465 286.33398438 283.26254272 C 295.88449097 281.97833252 305.55276489 281.00610352 303.75241089 274.09487915" stroke-width="2.00000000" fill="rgb(6, 37, 73)" opacity="1.0" stroke="rgb(227, 255, 255)" stroke-opacity="0.28477123" stroke-linecap="round" stroke-linejoin="round"/>
  </g>
</svg>
