<?xml version="1.0" ?>
<svg xmlns="http://www.w3.org/2000/svg" version="1.1" width="512" height="512" viewBox="0 0 512 512">
  <defs/>
  <g>
    <path d="M -64.53821564 581.54547119 C -70.43866730 557.82031250 -76.29488373 534.11389160 -82.09932709 510.43127441 C -87.69243622 486.74041748 -93.10689545 463.01113892 -98.11447906 439.22521973 C -102.53974915 415.52255249 -106.29569244 391.75747681 -109.25074768 368.00836182 C -111.22678375 344.26055908 -112.10283661 320.48452759 -111.76151276 296.82836914 C -110.03363800 273.14529419 -106.90955353 249.57521057 -102.23887634 226.13583374 C -95.99333954 202.94277954 -88.16409302 179.95280457 -78.72811127 157.29054260 C -67.71801758 135.01158142 -54.94454575 113.39910889 -40.63024521 92.31031799 C -24.72123528 72.04209900 -7.33761787 52.61602402 11.29500580 34.03810501 C 30.63264847 16.10199738 51.54613495 -0.20518231 73.50067902 -15.31101036 C 96.33887482 -29.11787033 119.95700073 -41.60962677 144.12533569 -52.69739151 C 168.70881653 -62.33649445 193.53054810 -70.50998688 218.50367737 -77.07981110 C 243.46572876 -82.00634003 268.34771729 -85.17343903 293.10208130 -86.49547577 C 317.63906860 -86.09060669 341.75320435 -83.88693237 365.36056519 -79.86929321 C 388.41571045 -74.13929749 410.70834351 -66.66043091 432.25244141 -57.38277435 C 453.08309937 -46.49154663 472.92715454 -34.00571823 491.77407837 -19.96121216 C 509.62857056 -4.50757599 526.19689941 12.22109890 541.62030029 30.25064087 C 555.72155762 49.40179825 568.51342773 69.61416626 579.91101074 90.73935699 C 589.83911133 112.73648071 598.33825684 135.48365784 605.32440186 158.79856873 C 610.75537109 182.70428467 614.57177734 206.89979553 616.83642578 231.38858032 C 617.48956299 256.10226440 616.59777832 280.85180664 614.13641357 305.53048706 C 610.02984619 330.02917480 604.39086914 354.14398193 597.14044189 377.82849121 C 588.35046387 400.86367798 578.07165527 423.21597290 566.30682373 444.76516724 C 553.03955078 465.27496338 538.24896240 484.60296631 521.98217773 502.68167114 C 504.36517334 519.34564209 485.32470703 534.64227295 465.10937500 548.44970703 C 443.75631714 560.97497559 421.47677612 572.09906006 398.38400269 582.04632568 C 374.46420288 590.71069336 350.01919556 598.38470459 325.06814575 604.99530029 C 299.59927368 610.71667480 273.80929565 615.53424072 247.69200134 619.71606445 C 221.41702271 623.30407715 194.97012329 626.42169189 168.42750549 629.10858154 C 141.72109985 631.60882568 115.03427124 633.78863525 88.29373932 635.96118164 C 61.53240967 638.04064941 34.81693268 640.15252686 -64.53821564 581.54547119" stroke-width="2.00000000" fill="rgb(254, 255, 255)" opacity="1.0" stroke="rgb(255, 255, 255)" stroke-opacity="0.0" stroke-linecap="round" stroke-linejoin="round"/>
    <path d="M 393.11257935 374.46432495 C 386.23306274 382.55349731 378.62429810 390.03991699 370.51165771 397.29623413 C 361.97750854 404.32501221 353.00665283 410.95272827 343.05187988 416.66030884 C 332.97406006 422.59875488 322.11099243 427.36254883 310.59274292 431.27755737 C 299.11889648 435.29696655 287.10992432 437.87796021 274.90560913 439.29214478 C 262.60214233 440.70132446 250.33393860 440.53894043 237.76866150 439.35397339 C 225.36195374 437.63723755 213.16638184 435.41912842 201.48144531 431.22683716 C 189.35974121 427.20306396 177.91996765 422.00497437 166.70437622 415.27539062 C 155.29217529 408.44360352 144.51786804 400.43878174 134.66653442 391.01480103 C 124.55034637 381.69891357 116.01766968 370.83517456 108.04891205 358.94091797 C 100.18923950 347.20541382 93.97600555 334.92861938 89.32206726 322.17562866 C 84.81582642 309.49734497 80.83750153 296.99395752 78.69422150 283.95382690 C 77.04455566 271.13769531 76.15646362 258.64328003 77.14003754 246.56762695 C 77.69149017 234.56834412 79.84518433 222.85156250 82.65652466 211.31808472 C 85.60815430 199.62831116 90.09931183 188.43330383 95.41117096 177.38969421 C 100.80873871 166.36645508 107.34214783 156.03781128 114.76783752 146.40821838 C 122.21498108 136.91812134 130.47004700 128.30082703 139.57714844 120.68032837 C 148.59162903 113.13469696 157.94087219 106.48277283 167.98573303 100.84197998 C 177.81739807 95.17583466 188.41883850 90.84970093 199.15631104 86.96391296 C 210.08872986 83.58015442 221.27423096 81.36077881 232.58731079 78.98871613 C 244.12927246 77.69807434 256.12463379 77.53471375 268.24349976 77.95921326 C 280.26171875 79.20571899 292.45635986 81.28479767 304.63043213 84.59379578 C 316.89996338 88.08558655 328.85589600 92.59394073 340.12274170 98.81614685 C 351.63928223 104.92662048 362.41687012 112.28551483 372.65240479 120.75700378 C 382.78421021 129.34741211 391.71292114 139.08497620 399.62496948 149.69598389 C 407.56347656 160.07255554 413.95016479 171.34071350 419.41687012 183.12875366 C 424.58190918 195.09817505 428.76428223 207.22416687 431.37017822 219.73921204 C 433.89901733 232.48954773 435.17224121 245.44445801 435.36941528 258.46533203 C 435.19094849 271.51486206 433.61804199 284.23800659 430.96496582 297.05123901 C 427.94290161 309.65649414 424.01254272 321.85168457 418.73989868 333.47274780 C 413.08782959 345.16226196 407.19937134 356.82360840 393.11257935 374.46432495" stroke-width="2.00000000" fill="rgb(235, 228, 218)" opacity="1.0" stroke="rgb(4, 30, 62)" stroke-opacity="0.9773117" stroke-linecap="round" stroke-linejoin="round"/>
    <path d="M 416.26660156 228.69848633 C 410.39721680 243.18830872 405.37426758 254.93356323 398.44808960 261.86901855 C 388.79431152 264.01626587 377.44064331 263.59783936 364.96755981 261.95266724 C 351.90835571 260.41668701 338.64627075 258.91119385 325.59671021 257.28192139 C 313.20852661 255.06596375 301.48275757 252.43725586 290.58450317 249.73002625 C 280.35467529 247.15960693 270.84362793 244.79808044 261.83847046 242.75540161 C 253.40954590 241.18983459 245.17787170 240.31546021 237.32067871 240.28419495 C 229.60850525 241.01162720 222.04031372 242.47668457 214.64057922 245.74174500 C 207.20613098 251.01243591 198.70936584 255.73405457 188.74884033 258.84762573 C 177.64665222 260.29458618 165.92308044 260.83538818 154.17832947 261.24035645 C 142.85713196 261.82965088 132.24368286 262.23196411 122.82269287 262.11911011 C 115.02021027 261.00213623 109.08699036 258.66455078 105.51940155 254.93376160 C 104.60965729 249.49015808 105.28887939 242.77265930 106.78848267 234.91929626 C 108.55068207 225.95930481 110.62956238 216.11621094 113.67105103 206.10897827 C 117.53780365 196.26936340 122.24467468 186.47927856 127.84374237 176.93894958 C 133.87358093 167.83673096 140.46676636 159.13896179 147.68226624 151.16609192 C 155.35981750 143.67106628 163.78631592 137.17573547 173.01329041 131.56488037 C 183.12950134 126.69863892 194.24525452 122.65973663 206.55230713 119.56638336 C 220.01066589 117.53485870 234.45022583 116.70708466 249.61743164 117.52754211 C 265.51699829 120.12785339 282.04049683 124.32258606 298.70208740 129.84402466 C 315.26480103 136.09828186 331.15887451 142.33775330 345.53268433 147.56092834 C 357.31671143 150.75158691 365.37258911 150.57283020 368.76187134 146.07104492 C 365.81491089 138.03419495 358.97085571 128.77572632 351.21511841 119.42761230 C 344.80236816 111.12338257 341.16561890 104.69721222 340.93081665 101.23641968 C 343.86181641 102.21318817 349.90228271 106.18105316 358.70129395 112.00498199 C 368.94058228 119.30097961 379.00866699 128.25834656 388.24365234 138.20986938 C 396.72045898 147.98925781 403.85260010 157.70861816 409.60961914 167.54058838 C 415.04672241 177.23014832 419.79867554 187.43322754 423.76089478 198.93890381 C 428.15020752 211.09761047 431.12588501 224.94808960 432.85311890 240.51649475 C 434.72772217 256.61645508 433.00039673 272.98593140 427.37557983 289.83331299 C 419.65765381 307.22592163 412.05831909 324.97293091 416.26660156 228.69848633" stroke-width="1.63365173" fill="rgb(241, 151, 30)" opacity="1.0" stroke="rgb(21, 11, 32)" stroke-opacity="0.84261775" stroke-linecap="round" stroke-linejoin="round"/>
    <path d="M 304.97860718 261.51007080 C 298.24462891 262.42947388 291.60711670 263.14791870 284.95657349 263.66915894 C 278.45953369 263.93978882 272.30490112 263.89541626 266.50009155 263.44692993 C 261.06091309 262.53155518 256.10714722 261.03054810 251.90605164 258.92630005 C 248.44543457 256.12176514 245.68855286 252.78291321 243.37809753 249.44230652 C 240.62629700 246.69865417 236.85144043 245.14767456 232.88035583 243.43785095 C 229.20861816 242.14147949 225.11463928 242.50534058 221.03126526 242.42373657 C 217.41889954 241.95394897 213.90788269 243.39285278 210.82806396 246.02383423 C 208.05616760 249.09124756 205.81153870 251.55551147 203.99606323 252.78218079 C 203.12139893 252.66706848 203.25234985 250.65983582 203.51022339 247.38349915 C 204.19836426 243.32702637 205.69747925 238.46563721 207.68923950 233.34692383 C 210.34014893 228.14648438 213.75628662 223.52775574 217.78059387 218.96662903 C 222.13349915 214.91261292 226.74913025 211.33784485 231.53453064 208.79142761 C 236.32597351 206.85813904 241.18524170 205.80895996 246.03968811 204.82772827 C 250.77824402 204.20083618 255.26559448 204.13856506 259.64596558 204.30522156 C 264.01202393 204.62670898 268.64813232 205.06826782 273.33847046 205.68534851 C 277.73004150 207.28549194 281.81790161 209.41897583 285.99032593 212.11584473 C 290.06463623 214.84576416 293.75082397 218.16539001 296.92288208 221.75445557 C 299.76263428 225.53794861 302.15481567 229.34695435 304.03381348 233.47966003 C 305.90478516 237.48200989 307.30484009 241.58473206 308.27819824 245.88740540 C 308.93759155 250.28591919 309.59707642 254.68023682 304.97860718 261.51007080" stroke-width="2.00000000" fill="rgb(230, 56, 40)" opacity="1.0" stroke="rgb(0, 19, 53)" stroke-opacity="1.0" stroke-linecap="round" stroke-linejoin="round"/>
    <path d="M 298.42849731 367.20254517 C 294.47921753 372.67636108 290.23336792 377.69110107 285.27874756 382.09234619 C 279.78826904 385.70422363 273.71762085 388.25900269 267.21273804 389.60253906 C 260.63540649 389.81994629 253.87687683 389.30209351 246.96089172 387.96948242 C 240.22157288 386.37744141 233.98149109 385.49176025 228.29537964 385.35864258 C 223.40495300 383.89279175 219.62400818 381.18853760 216.99963379 377.70300293 C 215.41810608 373.60974121 214.87678528 369.13787842 215.42312622 364.75970459 C 217.34573364 360.79705811 219.22761536 356.75823975 219.53317261 352.44546509 C 217.35531616 348.75930786 216.08280945 344.89663696 216.19772339 342.56204224 C 217.80152893 342.78802490 221.00567627 343.99078369 224.67021179 345.42730713 C 227.00878906 348.30667114 228.56144714 349.72631836 229.23136902 347.73480225 C 228.19575500 343.23010254 227.11570740 338.48718262 227.84104919 335.33676147 C 230.72218323 335.98382568 234.21066284 338.38165283 237.03651428 338.76953125 C 237.45582581 334.44427490 237.72145081 329.69451904 240.22334290 328.43823242 C 244.82603455 333.32931519 248.40332031 337.05795288 251.19584656 333.23580933 C 254.13766479 325.91918945 256.77731323 325.45367432 260.44183350 332.15399170 C 268.21713257 333.40280151 277.02844238 333.45172119 283.81762695 334.69592285 C 285.02130127 337.31448364 284.12127686 341.04431152 283.27883911 344.44195557 C 283.21163940 346.30233765 285.16372681 346.08209229 288.48580933 344.71643066 C 292.51870728 343.52011108 295.61984253 342.26553345 296.46624756 342.57443237 C 295.03024292 346.55868530 291.31072998 350.91571045 298.42849731 367.20254517" stroke-width="2.00000000" fill="rgb(200, 109, 153)" opacity="1.0" stroke="rgb(0, 19, 60)" stroke-opacity="0.9975179" stroke-linecap="round" stroke-linejoin="round"/>
    <path d="M 273.43386841 131.69487000 C 274.61013794 142.10609436 275.60671997 152.32354736 276.28854370 162.20162964 C 276.62725830 171.50115967 276.50842285 179.92495728 275.89538574 187.29290771 C 274.71737671 193.38888550 272.71890259 197.92138672 269.78387451 200.64300537 C 266.14035034 201.43310547 261.85641479 201.22222900 257.09436035 200.60453796 C 252.26016235 200.50343323 247.52903748 200.68481445 243.40243530 201.53927612 C 240.45738220 202.48483276 238.53689575 202.25387573 237.55656433 200.16648865 C 237.62132263 196.24890137 238.51612854 190.87564087 239.96768188 184.34837341 C 241.69679260 176.69013977 243.62971497 168.22572327 245.50845337 159.30123901 C 246.89938354 150.22378540 247.75494385 141.28187561 248.02563477 132.69491577 C 247.60137939 124.72711945 245.44474792 117.75362396 241.56965637 112.06398773 C 238.03753662 106.40007019 235.15560913 101.20098877 231.90534973 98.11265564 C 226.61018372 98.44482422 219.92161560 99.84757233 211.82810974 102.28002167 C 202.52632141 104.79796600 192.94120789 108.75629425 182.46058655 113.69747162 C 171.69567871 119.44013977 160.51272583 126.98603058 148.85884094 137.32078552 C 135.05609131 149.91709900 121.14100647 166.87164307 109.81130981 191.03657532 C 97.42356873 218.62301636 93.89638519 248.71699524 97.36030579 277.90264893 C 100.79621124 297.03558350 95.23976898 301.68466187 83.12893677 296.10412598 C 77.94239807 278.98168945 77.12886810 255.43482971 80.35420227 229.12231445 C 85.09242249 203.01422119 94.32216644 179.76489258 106.80670929 159.92701721 C 118.59384155 142.81250000 130.86322021 129.43278503 143.41262817 119.38345337 C 154.57456970 110.62195587 165.31562805 103.80275726 175.88388062 98.30168152 C 185.90853882 93.53527832 195.50758362 89.83454895 204.78517151 86.85928345 C 213.60420227 84.36819458 221.91632080 82.28995514 229.90130615 81.19750977 C 237.15844727 79.51585388 243.76380920 77.29164124 249.65403748 75.02899933 C 254.93885803 73.16684723 259.69091797 72.12981415 263.93511963 71.57244873 C 267.40942383 71.49618530 270.20764160 72.03778839 272.15472412 73.03344727 C 272.64205933 75.05125427 271.86608887 78.19326782 270.17712402 82.25311279 C 267.92083740 87.08340454 265.23770142 92.71648407 262.30496216 99.07274628 C 259.36849976 106.02306366 256.70794678 113.58756256 254.52883911 121.77311707 C 252.85386658 130.20327759 250.95951843 138.61174011 273.43386841 131.69487000" stroke-width="2.00000000" fill="rgb(231, 111, 31)" opacity="1.0" stroke="rgb(14, 27, 54)" stroke-opacity="1.0" stroke-linecap="round" stroke-linejoin="round"/>
    <path d="M 280.62039185 97.24073792 C 276.19555664 102.62729645 272.83853149 107.74737549 270.42614746 112.17002869 C 269.10955811 115.94266510 266.89407349 117.71163177 264.75912476 118.72983551 C 264.40310669 121.81243134 264.87411499 126.18079376 265.04898071 130.77488708 C 264.60034180 134.41542053 263.33660889 136.09672546 261.28646851 135.50611877 C 259.04632568 132.98570251 257.70657349 129.27589417 257.53283691 125.32855225 C 257.95159912 122.42449188 259.95370483 121.57440948 262.92855835 121.74637604 C 265.14605713 120.50237274 265.64825439 118.98213959 263.64770508 118.30505371 C 259.05697632 118.47883606 253.32730103 118.72058105 247.94084167 118.53829193 C 244.81617737 116.08385468 242.77294922 111.71266937 240.30938721 106.85131836 C 237.05853271 101.98221588 233.21403503 97.34317017 230.48217773 92.55604553 C 230.04153442 86.52996063 232.10755920 80.34084320 236.09690857 74.80554199 C 241.89193726 71.51966095 248.95915222 71.51321411 256.05917358 73.54473877 C 262.93588257 73.49389648 268.96600342 73.10319519 273.90817261 73.81077576 C 277.41845703 75.55587769 279.33056641 78.60821533 281.56600952 81.20595551 C 286.36703491 81.75066376 292.93679810 83.02845001 300.22900391 85.07190704 C 308.20129395 87.24767303 316.16412354 89.87451172 323.89480591 92.81544495 C 330.60510254 95.48908997 335.91577148 97.87914276 339.31872559 100.28566742 C 340.03652954 103.22740936 338.92822266 106.43438721 336.44827271 109.27481079 C 333.04159546 111.35138702 328.98013306 112.15316772 324.38522339 111.44815063 C 319.52307129 109.13575745 314.67346191 105.48115540 280.62039185 97.24073792" stroke-width="2.00000000" fill="rgb(225, 119, 33)" opacity="1.0" stroke="rgb(5, 25, 55)" stroke-opacity="1.0" stroke-linecap="round" stroke-linejoin="round"/>
    <path d="M 374.74322510 158.25636292 C 362.28305054 170.52134705 350.05926514 182.35505676 338.43475342 193.12020874 C 327.65521240 202.20573425 317.99508667 209.18614197 309.31466675 213.73641968 C 301.62026978 215.58335876 295.10284424 214.29516602 289.67282104 210.11186218 C 283.99722290 205.92755127 278.10723877 203.00076294 272.15386963 201.19157410 C 267.07919312 200.22157288 263.08474731 199.77076721 260.69805908 199.08064270 C 260.36593628 197.13941956 260.94485474 194.12588501 261.50967407 190.04348755 C 261.72525024 184.94894409 262.25811768 179.31884766 262.58383179 173.35658264 C 262.96185303 166.98361206 263.51000977 160.31129456 264.08319092 153.76194763 C 264.63510132 147.38522339 264.72860718 141.17794800 264.76257324 135.43090820 C 265.33206177 130.25373840 265.72100830 125.76294708 266.61505127 122.22621155 C 269.13342285 120.07444763 271.51449585 117.84753418 273.01892090 114.65560913 C 274.50057983 111.29946136 276.17904663 108.55806732 278.07128906 106.55804443 C 280.94583130 106.23622131 284.82775879 107.29709625 289.45187378 108.40509033 C 294.82369995 109.87089539 300.44161987 111.50193787 306.18710327 113.16964722 C 311.98178101 114.97930908 317.49630737 117.35839081 322.59671021 119.67317200 C 327.07037354 122.01992035 331.05566406 124.28780365 334.23660278 126.27209473 C 336.59722900 128.31936646 338.17407227 130.37866211 339.10305786 132.40110779 C 339.68865967 134.21858215 340.15328979 135.62313843 340.57595825 136.60697937 C 341.12597656 137.14761353 342.00646973 137.09429932 343.30081177 136.30854797 C 345.00839233 134.99124146 347.12734985 133.10400391 374.74322510 158.25636292" stroke-width="1.29191005" fill="rgb(255, 193, 4)" opacity="1.0" stroke="rgb(241, 199, 68)" stroke-opacity="1.0" stroke-linecap="round" stroke-linejoin="round"/>
    <path d="M 251.73295593 199.78817749 C 249.15101624 199.97610474 246.24545288 200.28968811 243.12269592 200.74729919 C 239.87350464 201.66981506 236.30413818 202.86593628 232.37371826 204.21391296 C 228.39527893 206.03692627 224.47723389 208.36976624 220.73826599 211.37115479 C 217.26037598 214.73263550 213.96754456 217.99902344 210.74884033 220.40745544 C 206.88156128 220.93414307 202.45353699 219.84146118 197.45655823 217.31039429 C 191.89291382 213.63703918 185.99427795 208.96476746 179.91033936 203.67060852 C 173.69537354 198.14881897 167.47996521 192.41969299 161.41668701 186.60452271 C 155.65419006 180.82269287 150.63719177 175.16441345 146.75691223 169.71652222 C 144.32577515 164.43669128 143.38008118 159.27897644 144.23074341 154.43142700 C 147.47203064 150.29664612 151.87802124 145.97434998 157.00585938 141.25808716 C 162.64952087 136.49205017 168.92492676 132.15263367 175.11190796 127.95699310 C 181.30200195 123.75833893 187.76559448 120.33279419 194.22163391 117.55950928 C 200.41676331 115.10269165 206.48078918 113.03807068 212.06359863 111.29502869 C 217.14077759 109.69667816 221.78739929 108.36289978 225.92922974 107.47293854 C 229.42469788 106.63887787 232.14791870 106.40618134 234.40791321 106.73303986 C 236.18299866 108.35643768 237.57534790 111.16209412 239.06802368 114.41223145 C 240.79699707 117.35621643 242.85380554 119.81493378 245.06326294 122.04889679 C 246.27438354 124.53322601 246.66386414 127.38834381 246.70881653 130.71595764 C 246.92756653 134.32772827 247.16523743 138.15122986 247.40925598 142.07518005 C 247.61909485 146.00238037 247.55928040 149.84970093 251.73295593 199.78817749" stroke-width="1.15695786" fill="rgb(253, 193, 6)" opacity="1.0" stroke="rgb(234, 188, 52)" stroke-opacity="0.9562538" stroke-linecap="round" stroke-linejoin="round"/>
    <path d="M 203.70545959 116.23100281 C 203.60238647 115.39118195 203.47630310 114.61244965 203.54307556 114.05404663 C 204.02619934 113.82622528 204.76870728 113.65072632 205.67561340 113.43444824 C 206.79899597 112.88458252 208.11642456 112.51121521 209.69783020 111.98835754 C 211.34130859 111.28594208 213.12339783 110.74348450 214.83589172 110.34754181 C 216.31788635 109.82327271 217.45018005 109.66245270 218.33793640 110.07815552 C 218.86355591 111.50420380 219.35174561 113.76623535 219.92835999 116.65491486 C 220.80285645 119.89740753 221.93653870 123.56890106 222.92425537 127.67627716 C 223.86351013 132.15342712 224.93615723 136.92401123 226.24385071 141.68882751 C 227.46180725 146.63336182 228.64532471 151.66960144 229.85879517 156.70468140 C 231.16511536 161.63136292 232.20838928 166.43832397 233.35562134 171.10571289 C 234.48863220 175.47242737 235.42141724 179.55439758 236.30343628 183.38101196 C 237.19708252 186.82566833 238.02488708 189.79829407 238.71644592 192.40306091 C 239.33636475 194.43222046 239.56565857 196.00645447 239.22268677 197.01559448 C 238.36755371 197.58937073 237.21733093 197.93388367 236.04685974 197.95584106 C 235.23918152 197.19323730 234.56446838 195.75614929 233.84687805 193.85879517 C 233.03440857 191.55249023 231.92588806 188.85688782 230.76335144 185.81135559 C 229.42800903 182.52127075 228.00717163 178.87789917 226.60287476 175.06939697 C 225.08158875 171.17884827 223.57957458 167.05274963 222.01396179 162.84471130 C 220.35554504 158.67303467 218.76336670 154.44029236 217.00885010 150.09304810 C 215.36878967 145.75863647 213.67364502 141.49377441 203.70545959 116.23100281" stroke-width="1.37929451" fill="rgb(239, 57, 34)" opacity="1.0" stroke="rgb(195, 0, 19)" stroke-opacity="0.60120934" stroke-linecap="round" stroke-linejoin="round"/>
    <path d="M 286.18386841 176.36734009 C 285.03540039 179.44425964 283.86788940 182.55772400 282.65216064 185.60951233 C 281.54443359 188.45214844 280.50692749 191.13906860 279.61596680 193.63151550 C 278.86798096 195.76206970 278.25439453 197.45181274 277.41513062 198.58811951 C 276.33724976 199.03831482 275.02716064 199.01162720 273.57073975 198.67610168 C 272.29342651 198.33946228 271.42929077 197.82356262 271.16766357 196.75947571 C 271.45718384 194.82968140 272.07934570 192.16313171 272.92691040 188.90318298 C 273.91503906 185.17593384 274.95233154 180.95526123 276.02465820 176.28987122 C 277.22424316 171.40118408 278.56848145 166.40824890 279.89727783 161.19929504 C 281.05764771 155.91142273 282.31433105 150.57366943 283.56439209 145.33660889 C 284.86111450 140.32695007 286.11203003 135.34819031 287.24411011 130.52316284 C 288.29873657 126.07177734 289.26400757 121.97672272 290.13555908 118.18551636 C 291.07922363 114.96152496 291.91531372 112.32049561 292.36428833 110.20667267 C 292.70550537 108.62747955 293.21456909 107.89719391 294.08544922 108.09963226 C 295.43817139 108.83284760 297.21035767 109.45771027 299.35543823 109.80036926 C 301.64892578 110.41575623 303.87164307 111.31879425 306.02688599 111.98255920 C 307.90304565 112.70966339 309.17001343 113.61201477 309.75411987 114.82734680 C 309.41778564 116.56671906 308.49172974 118.89071655 307.26882935 121.89614105 C 305.86840820 125.53773499 304.26373291 129.65498352 302.48458862 134.06951904 C 300.68002319 138.67298889 298.82748413 143.40986633 296.99603271 148.31658936 C 295.17181396 153.13581848 293.35110474 158.00244141 286.18386841 176.36734009" stroke-width="1.18534970" fill="rgb(234, 56, 30)" opacity="1.0" stroke="rgb(194, 23, 250)" stroke-opacity="0.112678185" stroke-linecap="round" stroke-linejoin="round"/>
    <path d="M 132.65002441 168.55957031 C 133.11560059 168.33648682 133.48612976 167.99121094 133.82740784 167.33789062 C 134.36244202 166.68849182 135.04705811 165.80444336 135.80917358 164.72917175 C 136.66113281 163.58163452 137.39224243 162.27316284 138.46228027 161.16166687 C 139.34323120 159.84123230 140.27561951 158.60833740 141.08732605 157.63621521 C 141.93823242 156.97616577 142.81504822 157.06849670 143.85665894 157.82487488 C 145.34452820 159.12609863 147.27804565 160.82028198 149.61936951 162.92634583 C 152.34643555 165.24160767 155.29522705 167.79856873 158.42362976 170.64907837 C 161.76753235 173.64347839 165.21890259 176.72251892 168.80194092 179.83633423 C 172.38870239 183.16607666 175.98651123 186.49229431 179.54431152 189.70399475 C 183.16259766 192.87249756 186.72201538 195.88638306 190.05644226 198.98454285 C 193.28291321 201.85350037 196.36517334 204.54357910 199.15904236 207.18484497 C 201.64776611 209.59794617 203.97958374 211.63513184 206.02966309 213.30790710 C 207.72038269 214.71885681 208.83068848 215.80261230 209.13610840 216.83586121 C 208.68257141 217.88406372 207.77325439 218.96257019 206.59968567 219.65480042 C 205.18698120 219.48800659 203.63676453 218.60017395 201.89614868 217.16171265 C 199.76167297 215.43145752 197.21170044 213.51826477 194.42567444 211.48786926 C 191.34548950 209.27629089 188.00062561 206.96437073 184.48402405 204.66653442 C 180.90202332 202.27243042 177.30572510 199.63917542 173.69834900 196.93864441 C 170.05693054 194.29862976 166.18704224 191.72370911 162.38130188 189.14999390 C 158.64060974 186.31225586 155.03767395 183.43963623 132.65002441 168.55957031" stroke-width="1.28637147" fill="rgb(238, 55, 35)" opacity="1.0" stroke="rgb(210, 58, 10)" stroke-opacity="0.8601843" stroke-linecap="round" stroke-linejoin="round"/>
    <path d="M 168.43536377 242.87557983 C 161.57769775 241.88385010 154.68299866 240.83276367 147.86221313 239.80761719 C 141.15577698 238.72158813 134.82069397 237.74470520 128.79661560 236.78038025 C 123.19422913 235.78369141 118.15777588 234.96873474 113.82769775 234.46241760 C 110.32815552 234.31562805 107.70716095 234.22294617 106.32454681 233.54479980 C 106.26268005 231.44154358 106.97454834 227.95336914 107.89588165 223.23741150 C 109.22517395 217.78140259 111.14704895 211.75724792 113.43505859 205.41815186 C 115.99185944 199.09564209 118.59255219 192.88142395 121.09180450 187.07229614 C 123.72927856 181.98731995 126.40468597 177.85556030 128.40660095 174.51699829 C 129.68156433 171.96238708 130.63226318 170.59358215 132.12477112 170.86378479 C 134.60476685 172.72473145 138.13623047 175.51091003 142.58566284 178.77952576 C 147.71710205 182.33787537 153.41767883 186.16589355 159.33886719 190.18746948 C 165.24830627 194.28509521 171.20796204 198.22854614 176.87940979 202.20896912 C 182.16802979 206.02688599 187.04487610 209.51306152 191.64659119 212.61926270 C 195.73522949 215.42573547 199.39257812 217.89010620 202.42245483 220.00260925 C 204.92999268 221.63960266 206.97473145 222.77421570 208.19444275 223.75070190 C 208.28367615 224.82247925 207.54592896 226.03523254 206.45756531 227.62968445 C 205.36117554 229.61384583 204.24647522 231.91421509 203.19400024 234.36630249 C 202.18701172 236.94433594 201.31394958 239.50895691 200.54960632 241.95350647 C 199.93487549 244.06881714 199.73370361 245.83108521 199.93377686 247.12780762 C 200.24053955 247.88047791 200.63000488 248.21937561 168.43536377 242.87557983" stroke-width="1.09793389" fill="rgb(251, 193, 4)" opacity="1.0" stroke="rgb(255, 197, 37)" stroke-opacity="0.8214314" stroke-linecap="round" stroke-linejoin="round"/>
    <path d="M 163.39952087 136.03227234 C 164.67561340 135.21572876 166.04722595 134.34899902 167.44955444 133.27000427 C 168.99464417 132.27249146 170.40176392 131.41175842 171.69323730 130.42674255 C 172.98547363 129.44822693 174.22604370 128.79084778 175.40144348 128.23171997 C 176.21702576 127.79627991 176.69152832 127.65887451 177.05075073 128.00973511 C 177.38291931 128.93136597 178.02606201 130.31097412 179.01345825 132.06764221 C 180.52531433 133.97586060 182.04649353 136.39472961 183.65394592 139.32693481 C 185.54086304 142.51954651 187.70283508 145.84138489 189.89540100 149.47047424 C 192.14907837 153.43692017 194.68775940 157.39845276 197.21278381 161.60379028 C 199.66702271 165.85919189 202.18376160 170.09114075 204.81050110 174.25801086 C 207.30883789 178.34408569 209.61840820 182.34332275 211.93717957 186.00186157 C 214.07496643 189.56274414 215.96087646 192.77056885 217.72155762 195.70031738 C 219.33532715 198.23600769 220.69830322 200.26803589 221.74751282 201.91157532 C 222.52972412 203.23329163 222.80229187 204.20843506 222.31738281 204.89462280 C 221.45399475 205.61302185 220.48754883 206.36633301 219.51597595 206.72305298 C 218.42910767 206.10105896 217.32296753 204.71229553 215.99473572 202.79197693 C 214.28437805 200.53573608 212.23680115 197.96583557 210.03274536 195.04069519 C 207.65675354 191.80923462 204.96942139 188.60765076 202.19902039 185.17102051 C 199.41444397 181.51348877 196.49975586 177.86073303 193.47087097 174.11691284 C 190.50045776 170.23001099 187.45185852 166.42208862 184.42161560 162.60739136 C 181.33117676 158.76399231 178.21923828 154.92837524 163.39952087 136.03227234" stroke-width="1.37092030" fill="rgb(238, 55, 35)" opacity="1.0" stroke="rgb(190, 0, 24)" stroke-opacity="0.60582995" stroke-linecap="round" stroke-linejoin="round"/>
    <path d="M 349.79190063 136.91696167 C 342.67886353 145.60971069 335.88992310 154.25033569 329.41323853 162.59593201 C 323.18704224 170.33993530 317.53085327 177.53591919 312.27593994 184.23202515 C 307.34576416 190.21073914 303.10571289 195.62243652 299.65631104 200.49488831 C 296.83590698 204.37005615 294.45715332 207.17344666 292.20550537 208.24877930 C 289.83676147 207.63148499 288.20532227 205.79837036 288.53649902 202.68174744 C 291.19161987 198.02639771 295.10974121 191.72744751 299.72320557 183.96166992 C 304.86370850 175.53161621 310.18634033 166.72918701 315.58178711 157.80545044 C 320.76925659 149.33813477 325.59851074 141.56219482 329.53744507 134.91928101 C 332.16375732 129.50488281 334.14581299 126.32576752 337.00521851 126.45802307 C 341.32473755 129.47697449 346.84204102 133.97541809 353.74511719 137.71141052 C 360.24575806 140.23954773 364.03796387 142.41235352 364.30822754 141.71002197 C 360.97518921 137.95895386 354.41812134 132.61419678 346.25109863 126.86113739 C 338.63198853 121.29630280 331.98873901 117.86860657 328.02349854 115.32415009 C 329.71621704 111.37158203 334.21972656 106.67443085 338.62814331 102.62430573 C 340.99536133 101.22546387 342.22039795 103.93646240 344.23138428 109.46491241 C 349.07424927 115.80423737 356.45452881 122.15457153 365.11129761 128.70327759 C 373.77175903 135.85978699 381.15835571 143.94238281 386.38217163 152.53022766 C 389.09579468 160.80679321 389.74411011 167.00125122 388.43884277 169.74331665 C 385.80026245 167.39599609 381.99050903 161.82055664 376.61447144 155.09336853 C 371.14541626 148.08250427 366.77557373 140.61853027 349.79190063 136.91696167" stroke-width="2.00000000" fill="rgb(206, 65, 33)" opacity="1.0" stroke="rgb(255, 233, 255)" stroke-opacity="0.14036147" stroke-linecap="round" stroke-linejoin="round"/>
    <path d="M 112.88638306 208.09782410 C 113.61005402 206.23008728 114.10173798 204.37451172 114.67449951 202.49214172 C 115.32987976 200.60249329 116.24333954 198.86903381 116.77758026 197.39665222 C 117.37034607 195.92478943 117.80487823 194.82974243 118.30568695 194.02638245 C 118.84406281 193.77671814 119.57579803 194.08538818 120.63508606 194.66267395 C 122.02117920 195.43038940 123.85150909 196.30384827 126.16248322 197.30281067 C 128.80714417 198.53567505 131.79354858 200.02978516 135.11090088 201.60859680 C 138.67561340 203.35859680 142.61228943 205.05783081 146.77464294 206.92906189 C 151.01637268 209.03666687 155.42630005 211.14173889 159.98867798 213.19737244 C 164.46350098 215.18434143 168.81086731 217.33633423 173.16427612 219.51457214 C 177.34135437 221.53742981 181.21943665 223.26229858 185.01268005 225.05032349 C 188.51600647 226.63436890 191.57662964 228.10220337 194.23062134 229.32701111 C 196.45149231 230.38446045 198.24314880 231.18760681 199.19926453 232.15830994 C 199.35343933 233.38774109 199.03617859 234.59487915 198.42073059 235.55978394 C 197.50082397 235.91683960 196.22076416 235.69589233 194.50518799 235.03494263 C 192.46022034 234.24342346 190.04899597 233.47473145 187.28820801 232.57131958 C 184.32318115 231.56391907 181.13272095 230.48475647 177.60629272 229.32003784 C 173.89997864 228.25767517 170.23342896 227.01742554 166.46287537 225.62449646 C 162.49804688 224.23928833 158.42626953 223.04450989 154.32833862 221.62977600 C 150.26545715 220.19371033 146.08413696 218.87199402 141.80659485 217.50259399 C 137.57658386 216.17880249 133.55764771 214.64135742 112.88638306 208.09782410" stroke-width="1.36477804" fill="rgb(239, 56, 37)" opacity="1.0" stroke="rgb(192, 0, 25)" stroke-opacity="0.6007695" stroke-linecap="round" stroke-linejoin="round"/>
    <path d="M 311.74374390 231.36907959 C 319.46517944 227.69445801 327.19091797 224.12956238 334.78967285 220.63507080 C 342.35134888 217.10301208 349.54577637 213.67120361 356.47702026 210.41316223 C 363.14193726 207.24371338 369.35421753 204.38888550 374.95715332 201.68920898 C 380.07205200 199.29846191 384.44223022 197.29447937 388.08432007 195.54341125 C 390.83883667 194.09606934 392.93609619 193.35823059 394.52816772 193.77047729 C 395.66937256 195.72781372 396.67404175 198.47727966 397.75338745 201.36317444 C 398.63656616 204.21322632 399.54791260 206.63038635 401.00036621 208.00532532 C 403.41036987 207.91860962 406.29431152 207.38702393 408.77465820 207.62530518 C 410.23284912 209.31094360 410.88433838 211.33255005 410.58197021 212.82736206 C 409.51089478 212.78125000 408.35537720 211.56469727 407.61721802 209.71432495 C 407.02810669 208.06182861 405.67828369 207.43206787 403.34158325 207.80224609 C 399.95385742 208.38311768 396.02072144 209.57995605 391.63958740 211.17634583 C 386.94314575 212.76083374 382.00961304 214.43496704 376.88558960 216.11505127 C 371.66989136 217.75956726 366.57089233 219.42869568 361.65893555 221.17446899 C 356.55032349 222.70993042 351.57254028 224.33135986 346.90145874 225.93144226 C 342.41964722 227.47343445 338.19305420 228.86448669 334.19897461 230.09263611 C 330.55865479 231.26589966 327.31134033 232.24859619 324.51196289 233.14099121 C 322.00503540 234.14047241 319.86819458 234.96774292 318.04629517 235.48651123 C 316.46322632 235.86471558 315.16732788 236.26622009 314.25695801 236.77146912 C 313.62408447 237.25592041 313.13308716 237.68592834 311.74374390 231.36907959" stroke-width="0.34210309" fill="rgb(233, 54, 34)" opacity="1.0" stroke="rgb(74, 4, 39)" stroke-opacity="0.40286192" stroke-linecap="round" stroke-linejoin="round"/>
    <path d="M 370.05187988 155.39050293 C 372.87557983 159.21009827 375.21456909 162.42651367 377.01254272 164.25149536 C 378.35775757 163.70983887 379.71762085 162.15127563 381.58352661 160.97125244 C 383.47897339 161.03379822 385.36431885 162.63577271 387.12066650 164.90979004 C 389.39910889 166.90621948 390.75363159 168.72050476 390.74969482 170.00042725 C 389.98846436 169.87356567 389.03753662 168.46482849 388.07394409 166.28311157 C 386.52758789 163.92366028 384.66641235 161.98332214 382.71734619 160.99702454 C 380.76980591 161.08831787 379.06185913 162.31887817 377.91772461 164.06060791 C 377.98162842 166.36315918 377.68554688 168.78425598 375.88076782 171.21221924 C 372.35519409 174.00300598 367.59378052 177.16564941 362.26458740 180.78485107 C 356.52386475 184.73916626 350.57492065 188.89408875 344.52389526 193.05120850 C 338.63464355 197.19493103 332.97369385 201.18009949 327.58874512 204.96652222 C 322.40792847 208.57379150 317.79553223 211.81253052 313.75598145 214.73609924 C 310.38275146 217.19178772 307.75015259 219.00903320 305.74020386 219.85453796 C 304.17581177 219.42721558 302.98455811 218.23133850 302.32272339 216.81019592 C 302.51205444 215.42684937 303.69802856 214.14285278 305.68209839 212.66854858 C 307.99737549 210.73258972 310.65747070 208.31861877 313.69012451 205.57640076 C 317.11682129 202.64552307 320.77316284 199.44502258 324.53695679 195.91929626 C 328.48553467 192.23405457 332.59030151 188.47056580 336.96008301 184.72557068 C 341.39794922 180.92697144 345.86614990 176.96119690 350.20501709 172.83680725 C 354.67645264 168.83924866 359.19448853 164.81729126 370.05187988 155.39050293" stroke-width="0.74881899" fill="rgb(233, 57, 30)" opacity="1.0" stroke="rgb(88, 0, 72)" stroke-opacity="0.38106087" stroke-linecap="round" stroke-linejoin="round"/>
    <path d="M 223.81913757 358.58258057 C 227.65200806 363.19537354 232.09638977 366.24694824 236.66430664 366.72677612 C 240.82374573 364.99322510 244.18061829 365.46591187 246.19833374 368.02804565 C 246.41253662 370.44317627 244.51150513 371.38803101 240.57142639 370.91854858 C 235.40580750 370.61105347 230.55500793 369.03134155 227.00685120 365.56256104 C 223.93595886 362.53146362 220.36512756 362.23431396 216.19483948 364.43173218 C 212.25028992 368.47964478 208.08427429 373.16275024 203.61192322 377.40795898 C 198.43383789 379.83059692 192.82786560 381.26828003 187.75834656 382.74169922 C 183.16505432 383.53216553 179.24085999 382.99511719 175.52938843 381.45120239 C 171.85887146 380.01330566 168.01005554 378.96728516 164.15771484 377.97381592 C 160.46131897 376.74465942 157.07666016 375.13601685 153.98237610 372.94464111 C 151.11126709 370.28652954 148.39755249 367.28414917 145.36840820 364.50115967 C 142.78617859 361.49642944 140.37812805 358.74453735 138.30987549 356.49920654 C 137.27917480 354.20654297 137.36300659 351.94427490 138.44100952 349.83502197 C 140.10992432 348.06796265 142.35260010 346.68356323 145.20812988 345.64050293 C 148.52828979 344.86791992 151.97521973 344.64987183 155.37852478 345.15802002 C 158.71015930 345.91415405 162.17216492 345.85113525 165.79368591 344.97930908 C 169.55410767 343.67337036 173.51481628 342.14654541 177.42037964 340.14959717 C 181.34237671 338.78497314 185.42098999 338.50942993 189.78038025 339.14144897 C 194.45120239 340.54678345 199.06892395 342.48593140 203.56506348 345.00134277 C 207.52076721 348.41577148 211.34567261 352.15319824 223.81913757 358.58258057" stroke-width="2.00000000" fill="rgb(59, 104, 73)" opacity="1.0" stroke="rgb(248, 255, 255)" stroke-opacity="0.15896928" stroke-linecap="round" stroke-linejoin="round"/>
    <path d="M 358.07254028 373.63571167 C 356.37734985 375.80166626 354.50622559 377.90103149 352.57467651 379.73379517 C 350.74319458 381.06271362 349.00753784 382.00759888 347.17236328 382.62789917 C 345.27716064 382.90850830 343.35781860 382.88763428 341.51647949 382.64785767 C 339.65173340 382.40512085 337.63061523 382.20639038 335.33807373 382.21566772 C 332.74246216 382.61437988 330.06976318 382.94525146 327.05996704 383.14028931 C 324.15606689 382.51220703 321.04766846 381.71307373 317.89385986 380.79519653 C 315.11865234 379.60995483 312.51660156 378.52554321 309.99411011 377.57489014 C 307.70227051 376.57476807 305.51214600 375.21215820 303.75076294 373.67404175 C 302.36602783 371.79492188 301.52020264 369.55242920 301.12722778 367.10815430 C 301.36126709 364.63809204 302.04364014 362.13421631 303.13848877 359.66223145 C 304.68115234 357.37368774 306.57385254 355.32925415 308.73175049 353.54443359 C 311.11807251 351.98953247 313.79147339 350.70108032 316.56307983 349.59744263 C 319.46102905 348.77593994 322.29962158 348.17834473 325.16781616 347.82324219 C 327.92797852 347.63830566 330.76110840 347.70880127 333.59011841 347.96008301 C 336.33767700 348.38140869 339.01977539 349.02264404 341.71438599 349.81637573 C 344.31661987 350.67639160 346.82473755 351.66622925 349.22189331 352.72775269 C 351.49264526 353.94485474 353.65667725 355.28372192 355.77493286 356.60684204 C 357.68688965 358.03964233 359.40213013 359.63821411 361.00997925 361.27423096 C 362.49923706 362.92019653 363.90954590 364.51541138 365.25686646 366.01617432 C 366.40097046 367.38098145 367.46072388 368.71896362 358.07254028 373.63571167" stroke-width="2.00000000" fill="rgb(90, 143, 71)" opacity="1.0" stroke="rgb(246, 250, 252)" stroke-opacity="0.9717885" stroke-linecap="round" stroke-linejoin="round"/>
    <path d="M 319.91189575 255.11102295 C 328.70922852 255.08859253 337.51669312 255.06068420 346.27993774 255.21647644 C 355.03094482 255.14021301 363.78649902 255.07682800 372.43103027 255.21913147 C 380.66610718 255.26522827 388.38751221 255.14125061 395.22125244 255.09861755 C 400.83572388 255.22418213 404.95681763 255.45178223 407.43362427 254.83660889 C 407.99200439 252.01029968 408.31735229 248.45001221 410.02841187 245.64956665 C 413.48684692 245.65510559 416.25756836 246.94818115 417.54421997 249.28688049 C 418.26593018 250.99412537 419.78576660 250.71998596 421.70291138 250.27911377 C 423.25500488 249.97457886 424.46838379 250.23426819 424.99392700 250.50749207 C 424.63754272 250.35473633 423.41940308 250.15942383 421.46667480 250.28877258 C 418.59384155 250.89762878 415.84350586 252.10702515 414.18222046 251.22875977 C 414.21548462 247.97962952 412.99890137 245.55567932 410.18649292 245.55273438 C 408.46823120 247.75614929 407.72070312 251.21188354 408.44775391 255.12475586 C 408.99792480 259.17926025 408.77694702 262.74514771 408.05105591 265.05001831 C 405.98736572 264.34783936 402.96466064 263.27185059 399.01092529 263.13555908 C 394.77368164 264.23254395 390.27593994 266.17187500 385.34295654 267.76879883 C 379.80880737 268.25537109 374.45919800 267.12826538 369.38684082 264.66482544 C 364.42114258 262.96484375 359.54119873 262.62020874 354.86135864 264.15820312 C 350.51181030 266.56198120 345.68392944 267.80197144 340.78195190 267.97671509 C 336.31240845 267.46151733 332.22357178 265.81161499 328.10739136 263.71789551 C 324.06726074 261.65301514 320.00225830 259.66409302 319.91189575 255.11102295" stroke-width="0.67486209" fill="rgb(10, 36, 72)" opacity="1.0" stroke="rgb(223, 255, 173)" stroke-opacity="0.50599855" stroke-linecap="round" stroke-linejoin="round"/>
    <path d="M 211.26651001 249.97535706 C 207.76606750 254.12562561 205.97560120 257.80789185 206.76879883 260.59640503 C 209.53627014 260.95193481 212.51406860 258.75396729 215.31231689 255.55825806 C 217.86183167 253.89695740 218.71244812 254.59671021 217.52293396 257.73446655 C 214.67794800 261.73043823 210.10980225 265.25637817 206.17385864 268.83398438 C 202.35559082 269.38510132 198.62277222 267.85430908 194.75740051 265.39099121 C 190.56642151 263.70840454 186.12948608 263.33996582 181.57049561 264.01855469 C 177.13938904 265.55343628 172.92449951 267.27774048 168.58338928 268.00198364 C 164.36108398 268.25765991 160.34944153 267.27911377 156.54335022 265.61526489 C 152.84625244 263.78338623 149.25541687 262.65002441 145.33387756 262.96102905 C 141.18870544 263.82855225 137.12774658 265.35559082 133.06660461 267.13769531 C 129.01409912 268.23257446 124.84019470 268.16857910 120.59540558 266.98733521 C 116.66928101 265.04110718 112.77406311 263.64987183 109.12520599 263.16680908 C 106.42380524 263.22293091 104.73725128 263.77050781 103.81215668 263.86236572 C 103.41816711 262.31100464 103.33618164 260.15438843 103.28945923 257.89526367 C 103.11231232 256.08526611 103.03353882 255.06088257 104.00161743 255.04808044 C 106.48936462 255.21116638 110.42049408 255.29589844 115.48447418 255.22132874 C 121.53803253 255.14433289 128.54870605 255.16485596 136.26528931 255.30552673 C 144.36468506 255.35568237 152.80114746 255.32366943 161.40977478 255.36860657 C 170.06469727 255.09040833 178.54368591 255.22819519 186.86709595 255.21911621 C 194.97659302 255.38671875 202.63951111 256.14163208 211.26651001 249.97535706" stroke-width="1.66282284" fill="rgb(7, 38, 75)" opacity="1.0" stroke="rgb(193, 255, 255)" stroke-opacity="0.1439693" stroke-linecap="round" stroke-linejoin="round"/>
    <path d="M 340.41705322 316.82498169 C 339.98287964 320.47610474 339.45001221 323.89981079 338.77325439 327.12765503 C 337.69506836 329.98663330 336.10787964 332.42691040 334.16070557 334.37338257 C 331.73294067 335.69198608 329.11721802 336.80117798 326.70874023 338.14532471 C 324.50634766 339.91659546 321.84014893 341.19311523 318.94934082 342.49536133 C 316.42687988 345.12658691 313.91180420 348.35470581 311.40682983 351.79693604 C 308.67901611 354.99481201 305.59649658 357.86148071 303.22940063 360.93630981 C 301.05209351 363.40017700 298.36993408 364.53579712 295.14361572 364.02670288 C 291.70352173 362.21560669 288.47888184 362.31423950 284.81161499 365.82540894 C 279.22146606 369.92984009 273.53057861 371.25936890 271.00796509 369.11566162 C 274.99588013 367.48669434 281.22625732 365.63156128 286.19036865 361.56762695 C 289.86734009 357.32553101 292.15426636 353.59677124 293.13583374 350.72738647 C 293.82373047 349.74288940 294.79510498 350.57192993 296.50643921 351.74227905 C 299.06115723 350.92361450 302.69787598 349.03076172 307.27691650 346.57879639 C 312.06985474 343.16949463 316.77035522 338.38473511 320.71209717 332.26229858 C 324.86999512 326.37081909 328.19473267 321.33477783 329.86764526 318.39855957 C 328.92694092 318.14379883 326.50076294 319.71188354 323.80407715 321.02368164 C 322.66464233 320.69787598 323.61541748 319.47760010 326.14456177 317.58740234 C 328.91171265 314.80654907 330.66406250 311.12643433 332.19610596 307.91064453 C 335.29669189 306.92883301 339.50820923 307.48495483 344.51605225 309.01318359 C 350.09475708 311.20236206 356.03045654 313.75921631 340.41705322 316.82498169" stroke-width="1.99709892" fill="rgb(7, 30, 76)" opacity="1.0" stroke="rgb(209, 255, 255)" stroke-opacity="0.05720123" stroke-linecap="round" stroke-linejoin="round"/>
    <path d="M 204.94638062 301.43945312 C 203.04202271 305.25610352 201.17430115 308.85479736 199.47299194 312.12692261 C 197.99514771 314.70794678 197.20100403 316.62768555 196.91984558 317.67813110 C 196.33558655 316.67053223 194.69529724 315.18933105 192.03033447 313.87460327 C 188.66815186 312.36764526 184.92062378 311.20309448 180.84600830 310.56405640 C 176.57630920 310.53927612 172.48202515 311.53506470 168.64128113 313.40542603 C 164.74879456 315.45571899 160.98631287 317.21197510 157.01791382 317.99475098 C 153.19873047 317.97674561 149.20352173 317.33428955 145.81050110 315.51037598 C 142.29533386 313.27249146 138.44966125 311.79769897 134.15031433 310.90924072 C 129.96170044 310.70956421 126.08231354 311.48165894 122.58716583 312.76864624 C 119.85784912 314.15414429 118.07063293 315.37097168 116.92644501 315.65405273 C 116.25386810 314.25277710 115.31728363 311.91607666 114.27221680 309.28057861 C 113.51851654 306.64074707 112.68441772 304.46490479 112.22254944 303.17434692 C 113.02785492 302.77691650 114.61892700 302.69708252 116.73793793 302.19799805 C 119.43784332 300.95312500 122.77914429 299.66888428 126.36085510 298.28567505 C 130.05340576 297.13558960 133.68359375 296.76586914 137.50382996 297.64154053 C 141.42462158 299.02136230 145.32197571 300.98388672 149.04499817 302.85336304 C 152.97880554 304.11676025 157.16119385 304.34555054 161.41584778 304.00692749 C 165.59960938 303.12155151 169.62646484 301.46844482 173.45051575 299.31695557 C 177.22094727 297.41613770 181.12905884 296.85226440 185.38298035 297.42376709 C 190.10595703 298.32714844 194.44261169 300.23846436 204.94638062 301.43945312" stroke-width="1.91236472" fill="rgb(6, 39, 84)" opacity="1.0" stroke="rgb(2, 30, 68)" stroke-opacity="0.9820089" stroke-linecap="round" stroke-linejoin="round"/>
    <path d="M 196.13249207 337.13137817 C 193.66569519 335.41073608 190.95698547 334.06277466 188.01226807 333.13864136 C 185.03166199 332.83059692 182.07113647 332.76766968 179.02493286 332.89215088 C 175.69099426 334.03833008 172.34707642 335.54351807 169.10482788 337.41622925 C 165.78726196 339.06463623 162.43907166 339.96392822 159.15788269 339.90573120 C 155.75950623 339.16125488 152.43757629 337.61010742 149.06347656 335.87637329 C 145.98101807 333.97485352 142.68679810 332.74768066 139.41950989 332.34539795 C 136.34312439 332.29885864 133.48727417 333.03625488 131.01036072 333.54608154 C 129.10586548 334.51635742 127.88381958 335.48831177 126.83702850 335.61343384 C 125.67342377 334.15234375 124.30934143 331.75546265 122.99658203 328.91281128 C 121.56545258 326.02404785 120.27542877 323.65100098 119.73859406 322.02044678 C 121.24087524 321.15063477 123.84462738 320.08602905 126.69281006 319.15368652 C 130.17791748 318.26144409 133.70339966 318.28475952 137.15145874 319.55081177 C 140.64538574 321.42507935 144.28190613 323.36318970 148.17613220 324.85684204 C 152.27764893 325.87008667 155.98974609 326.18716431 159.87956238 325.53347778 C 163.46643066 324.62454224 166.80557251 323.16772461 169.92617798 321.44921875 C 172.84709167 319.60424805 175.89106750 318.43862915 179.02142334 318.04983521 C 181.87448120 318.15560913 184.87805176 318.73925781 187.66569519 319.34274292 C 189.99487305 320.25775146 192.03091431 321.13998413 193.66235352 321.43951416 C 195.18783569 321.00790405 196.06144714 320.87524414 196.39495850 321.13708496 C 195.93812561 321.79147339 194.83267212 322.46618652 196.13249207 337.13137817" stroke-width="1.90771985" fill="rgb(4, 37, 84)" opacity="1.0" stroke="rgb(2, 30, 66)" stroke-opacity="0.9861568" stroke-linecap="round" stroke-linejoin="round"/>
    <path d="M 397.88635254 315.18637085 C 394.39520264 313.64279175 390.90161133 312.66717529 387.35754395 312.92605591 C 383.66198730 313.94110107 379.85568237 315.83081055 375.79336548 317.74258423 C 371.86587524 319.80465698 367.85797119 320.62991333 363.32894897 319.60177612 C 358.35015869 317.70504761 352.87780762 315.87661743 347.06057739 314.32366943 C 341.59927368 311.11624146 336.53604126 308.21356201 331.24148560 307.20370483 C 326.02813721 310.05587769 320.18249512 311.79598999 315.12924194 313.73620605 C 313.66226196 319.57498169 311.47848511 321.43161011 305.78155518 318.53189087 C 296.99642944 320.08096313 290.44369507 320.24432373 291.28997803 318.03411865 C 302.15930176 316.55358887 313.47665405 311.35253906 318.69738770 303.49639893 C 316.83956909 302.41787720 310.37582397 305.80484009 301.93572998 306.87530518 C 296.52142334 306.72033691 297.16067505 305.42294312 303.00405884 304.14434814 C 310.20379639 302.22863770 316.03079224 298.59045410 320.25469971 295.16937256 C 325.26712036 297.07351685 330.81384277 299.67526245 336.82751465 298.56793213 C 343.56756592 295.24380493 350.42218018 294.38943481 356.86141968 297.05450439 C 362.35714722 300.47323608 367.70394897 302.16284180 372.94302368 302.44393921 C 377.19799805 302.21166992 380.69851685 301.08160400 383.55493164 299.48898315 C 386.23403931 297.99633789 388.74252319 296.72537231 391.11248779 295.86694336 C 393.40548706 295.49627686 395.64398193 295.02868652 397.60455322 295.20285034 C 399.50531006 295.63320923 401.35342407 296.04724121 402.90274048 296.42507935 C 403.82763672 296.17977905 404.47732544 295.87539673 397.88635254 315.18637085" stroke-width="2.00000000" fill="rgb(9, 36, 79)" opacity="1.0" stroke="rgb(219, 255, 255)" stroke-opacity="0.11817662" stroke-linecap="round" stroke-linejoin="round"/>
    <path d="M 197.70355225 333.02606201 C 199.19389343 338.66052246 201.92173767 343.68060303 205.94892883 347.68109131 C 210.29565430 351.16110229 214.94413757 353.30157471 219.13853455 353.96609497 C 222.04833984 355.25189209 223.22200012 356.78253174 222.34159851 357.65530396 C 219.09497070 357.73391724 214.30445862 357.90679932 208.74877930 357.56582642 C 203.23937988 355.47082520 197.73257446 353.54144287 191.63688660 352.58203125 C 185.09362793 351.96395874 178.53836060 352.03009033 172.39454651 352.94869995 C 166.77137756 354.03536987 161.97915649 355.56768799 158.23080444 357.73757935 C 155.72860718 359.94281006 154.75939941 362.59313965 154.89505005 365.50234985 C 154.90684509 368.21002197 154.20909119 370.07525635 152.88652039 370.95617676 C 151.16728210 370.54067993 149.24740601 368.54623413 146.86480713 365.68341064 C 143.88572693 362.39852905 140.73078918 358.57775879 137.43327332 354.79129028 C 134.45538330 351.03033447 131.94717407 347.50259399 129.94924927 344.57214355 C 128.35832214 342.62002563 127.68202972 341.27255249 128.08503723 340.45935059 C 129.95420837 339.96044922 132.75036621 339.10034180 135.72451782 338.08242798 C 138.95947266 337.92300415 142.39378357 338.77120972 145.77845764 340.54519653 C 149.39668274 342.78567505 153.18128967 344.58425903 157.19213867 345.73229980 C 161.20111084 346.04058838 165.17420959 345.32342529 169.05815125 343.92098999 C 172.70631409 341.93365479 176.05494690 339.89401245 179.85302734 338.56298828 C 183.93937683 338.04074097 187.85127258 338.26159668 191.31274414 339.59304810 C 194.05586243 341.65237427 196.18774414 344.03454590 197.70355225 333.02606201" stroke-width="2.00000000" fill="rgb(3, 38, 79)" opacity="1.0" stroke="rgb(255, 255, 255)" stroke-opacity="0.098133266" stroke-linecap="round" stroke-linejoin="round"/>
    <path d="M 193.21797180 292.14447021 C 189.41661072 290.98510742 185.91752625 290.11166382 182.29356384 289.92572021 C 178.52185059 290.03079224 174.79972839 290.63693237 171.30094910 291.97885132 C 167.96794128 293.79318237 164.51654053 295.35662842 160.96919250 296.40411377 C 157.71768188 296.77102661 154.23587036 296.24298096 150.75669861 295.24142456 C 147.52133179 293.65460205 144.16844177 291.80566406 140.69223022 290.47561646 C 136.77928162 289.49798584 133.08723450 289.20901489 129.07197571 289.64376831 C 125.01744080 290.88006592 121.06053162 292.26290894 117.73223114 294.14685059 C 114.74876404 295.67092896 112.21401215 296.35528564 110.55329132 296.04528809 C 109.75814819 294.43756104 109.26731873 291.75564575 108.74465179 288.78472900 C 108.22877502 285.84667969 107.59136200 283.50335693 107.59989929 281.97079468 C 109.45849609 281.79486084 112.29809570 282.55203247 115.77024078 284.36178589 C 119.47545624 286.42364502 123.69312286 287.31076050 128.22349548 287.10089111 C 132.74679565 286.58651733 136.68090820 284.87103271 140.49993896 282.97305298 C 144.33694458 281.65887451 148.27232361 281.74908447 152.14556885 283.12890625 C 156.12535095 285.10119629 160.20330811 286.70230103 164.62231445 286.98117065 C 169.26377869 286.65997314 173.68609619 285.56109619 177.63038635 283.50668335 C 181.78887939 281.93536377 186.19219971 281.63699341 190.49337769 281.72332764 C 194.44267273 281.22702026 197.87422180 280.78170776 200.71261597 281.19165039 C 202.85845947 283.47021484 204.26333618 286.78967285 205.10488892 290.67984009 C 205.72309875 294.96990967 206.45550537 299.42221069 193.21797180 292.14447021" stroke-width="1.99791431" fill="rgb(5, 36, 83)" opacity="1.0" stroke="rgb(4, 31, 69)" stroke-opacity="0.98002434" stroke-linecap="round" stroke-linejoin="round"/>
    <path d="M 142.10910034 268.27917480 C 146.22882080 267.41513062 150.15121460 267.71691895 153.98794556 269.22570801 C 157.76972961 270.97021484 161.55105591 272.22817993 165.59342957 272.61990356 C 169.77844238 272.48657227 173.74815369 271.47915649 177.39344788 269.78671265 C 180.95121765 268.15426636 184.39353943 267.19500732 187.89662170 267.25897217 C 191.56671143 268.03033447 195.21452332 268.68853760 198.37463379 269.05349731 C 200.87893677 269.19418335 202.82620239 269.51943970 203.92723083 270.43408203 C 203.68400574 272.35433960 201.96098328 274.66366577 199.98675537 276.94732666 C 197.36282349 277.72406006 193.95561218 277.45828247 190.11988831 276.91027832 C 186.10437012 275.88650513 182.43841553 275.53137207 178.63592529 276.65182495 C 174.45292664 278.52825928 169.89102173 279.97433472 165.10659790 280.46615601 C 160.60847473 279.46173096 156.21813965 277.28994751 151.58897400 275.58709717 C 146.90684509 274.53863525 142.54154968 274.56405640 138.35072327 275.99212646 C 134.43061829 278.15429688 130.57882690 279.69952393 126.26824188 280.02044678 C 122.21065521 279.88439941 118.58793640 278.46383667 115.18365479 276.46203613 C 111.78990173 275.12585449 108.56369019 274.70474243 106.41557312 274.83956909 C 105.81404114 274.27536011 106.03748322 273.13928223 106.35237122 271.65676880 C 106.07829285 270.13290405 105.80214691 268.86776733 105.81985474 267.80532837 C 107.30580139 267.25988770 110.10847473 267.58557129 113.30179596 268.63793945 C 116.78189850 270.14337158 120.33324432 271.52932739 124.09656525 272.31445312 C 128.00685120 272.74829102 132.22238159 273.33874512 142.10910034 268.27917480" stroke-width="1.99135685" fill="rgb(5, 38, 82)" opacity="1.0" stroke="rgb(10, 35, 72)" stroke-opacity="0.99870116" stroke-linecap="round" stroke-linejoin="round"/>
    <path d="M 402.02160645 292.46069336 C 398.01910400 291.52471924 394.34854126 291.31326294 390.43389893 292.16409302 C 386.45980835 293.69097900 382.60342407 295.77703857 378.68475342 297.60266113 C 374.78384399 298.89254761 370.68972778 298.94705200 366.32217407 297.59750366 C 361.71572876 295.57501221 357.05279541 293.40850830 352.47125244 291.89117432 C 347.54873657 291.51733398 342.74383545 292.66342163 338.27301025 294.73931885 C 334.40216064 297.39202881 330.34262085 298.55252075 326.32955933 298.42071533 C 323.17544556 297.94625854 321.15771484 296.63235474 320.88992310 294.09512329 C 322.76327515 290.82995605 324.40441895 288.09857178 323.81207275 286.88265991 C 321.03207397 288.71041870 316.37713623 291.38330078 310.46786499 292.92495728 C 305.77404785 294.62435913 303.48989868 294.91949463 304.31320190 293.58190918 C 308.04980469 291.88629150 313.33251953 289.49566650 317.95874023 285.70751953 C 321.33963013 281.50039673 325.03952026 279.45007324 329.49020386 280.14190674 C 334.09075928 282.67013550 338.92156982 284.71853638 344.21408081 284.45715332 C 349.76669312 283.04647827 355.24462891 280.86468506 360.52389526 279.93515015 C 365.69058228 280.53689575 370.51266479 282.52203369 375.09463501 284.49362183 C 379.29119873 285.84063721 383.25753784 285.20874023 387.23098755 283.77032471 C 391.13485718 282.15332031 394.87396240 280.69842529 398.48709106 279.90304565 C 402.04431152 280.03039551 405.00704956 280.38070679 406.65228271 281.39730835 C 406.59652710 283.55590820 406.09204102 286.31680298 405.23095703 289.32235718 C 404.84219360 292.07455444 405.15255737 294.65042114 402.02160645 292.46069336" stroke-width="2.00000000" fill="rgb(7, 35, 79)" opacity="1.0" stroke="rgb(250, 255, 255)" stroke-opacity="0.43701494" stroke-linecap="round" stroke-linejoin="round"/>
    <path d="M 397.41226196 336.73590088 C 392.94207764 343.12786865 388.07443237 349.12533569 382.78121948 354.34097290 C 376.86181641 358.36141968 370.91400146 361.80865479 365.46673584 364.74679565 C 361.20443726 367.94729614 357.98898315 370.68539429 355.53753662 372.25225830 C 353.99658203 372.23135376 353.44036865 371.14285278 354.03744507 369.37643433 C 355.80285645 367.69497681 357.49853516 365.73910522 358.27056885 363.25921631 C 357.62350464 360.54586792 355.43554688 357.97747803 351.82266235 355.78155518 C 347.28540039 354.03961182 341.91665649 352.71170044 336.01449585 351.77096558 C 330.22869873 351.19662476 324.67675781 351.36959839 319.62561035 352.08163452 C 315.36279297 352.79531860 312.07046509 353.58673096 309.92401123 354.01516724 C 309.02987671 353.33251953 309.28756714 351.69964600 310.47564697 349.54183960 C 312.52581787 347.32080078 315.20751953 345.37460327 318.53369141 343.93353271 C 322.37918091 343.54486084 325.98114014 342.44262695 329.57751465 340.66995239 C 333.02935791 339.00823975 336.68057251 338.57952881 340.52603149 338.94009399 C 344.47662354 339.60662842 348.17294312 341.49060059 352.24212646 343.76815796 C 356.63040161 345.85162354 361.19076538 346.37799072 366.12927246 345.44131470 C 370.33572388 343.73547363 374.58981323 341.45535278 379.29421997 340.50729370 C 384.66870117 340.78030396 389.79125977 339.38516235 394.54110718 335.35675049 C 399.05279541 329.39804077 403.58316040 321.70645142 408.01681519 312.58071899 C 410.40975952 302.89547729 411.33493042 292.76770020 412.18786621 282.47927856 C 414.64227295 273.21206665 419.30001831 265.76296997 397.41226196 336.73590088" stroke-width="0.61564833" fill="rgb(4, 35, 79)" opacity="1.0" stroke="rgb(0, 41, 64)" stroke-opacity="0.9045522" stroke-linecap="round" stroke-linejoin="round"/>
    <path d="M 326.61083984 267.40698242 C 330.84066772 268.56777954 335.06124878 269.73260498 339.05258179 270.72299194 C 342.74679565 271.02642822 346.27780151 270.55905151 349.74862671 269.37164307 C 352.95434570 267.67834473 356.16909790 266.40197754 359.79244995 265.89428711 C 363.40267944 265.73764038 367.15423584 266.53564453 370.99984741 268.06494141 C 374.66564941 269.83935547 378.50222778 270.66012573 382.40103149 270.62655640 C 386.09658813 270.31549072 389.63690186 268.89532471 393.12515259 267.32351685 C 396.18862915 265.94934082 399.27496338 265.62417603 402.40652466 265.53494263 C 405.41842651 266.11410522 407.32211304 266.50097656 408.53863525 267.27368164 C 408.38320923 268.94653320 407.96371460 271.40548706 407.76202393 274.03668213 C 407.78094482 276.23956299 407.59136963 277.67773438 406.40234375 278.18298340 C 404.31356812 277.19424438 401.49636841 276.71194458 398.00531006 276.95816040 C 394.47967529 277.50775146 391.01846313 278.87139893 387.52893066 280.60397339 C 384.06912231 281.81420898 380.72702026 281.99856567 377.04223633 281.64730835 C 373.53216553 280.33197021 370.01422119 278.76159668 366.12945557 277.33538818 C 362.07867432 276.37615967 358.18743896 276.62533569 354.20584106 277.93838501 C 350.40032959 279.39086914 346.75573730 281.07235718 343.54037476 282.28204346 C 340.42730713 282.54425049 337.16784668 281.95895386 333.98855591 281.32308960 C 330.61175537 281.32022095 327.21990967 281.43304443 324.35174561 281.60943604 C 322.39047241 281.72656250 321.42416382 281.51266479 321.51455688 281.03292847 C 322.76568604 280.16735840 324.77044678 279.39431763 326.61083984 267.40698242" stroke-width="2.00000000" fill="rgb(7, 38, 77)" opacity="1.0" stroke="rgb(255, 255, 255)" stroke-opacity="0.14929956" stroke-linecap="round" stroke-linejoin="round"/>
    <path d="M 314.57266235 420.09228516 C 308.23516846 421.37939453 302.18692017 422.49942017 296.49014282 423.15374756 C 291.28692627 423.24377441 286.80624390 422.73675537 283.11834717 421.52139282 C 280.20672607 419.45178223 278.20947266 416.43969727 277.08541870 412.77374268 C 276.32196045 408.88543701 275.30291748 405.18969727 273.34921265 402.16741943 C 270.25668335 400.06155396 266.78207397 398.55355835 263.90997314 396.85632324 C 262.13751221 394.53823853 261.35302734 391.85577393 261.43020630 389.09085083 C 262.36563110 386.28942871 263.93734741 383.31616211 265.59591675 380.43435669 C 266.46762085 377.93362427 266.42611694 375.86364746 265.42965698 373.72879028 C 263.94357300 371.85464478 262.21575928 370.70870972 260.26208496 370.07733154 C 258.63565063 369.82666016 257.64035034 369.61523438 257.44622803 369.42074585 C 258.43246460 368.89971924 260.22381592 368.46337891 261.93280029 367.69119263 C 263.19427490 366.39129639 264.38436890 365.22079468 265.25439453 365.11798096 C 265.72555542 366.82244873 265.70706177 369.55435181 265.41204834 372.70773315 C 266.83752441 375.89657593 268.55487061 379.23370361 268.71899414 383.09915161 C 267.21478271 387.15856934 265.12503052 390.91409302 263.39096069 394.04885864 C 262.84597778 396.24368286 263.80929565 397.28756714 266.37451172 396.95275879 C 270.07897949 395.23968506 274.85830688 393.93292236 280.49984741 393.53408813 C 286.56335449 394.64639282 292.68246460 397.02328491 299.03192139 398.78372192 C 305.64001465 398.93441772 312.38400269 397.16821289 319.55505371 394.32431030 C 327.35510254 391.72479248 335.31420898 389.34738159 314.57266235 420.09228516" stroke-width="1.01548064" fill="rgb(0, 31, 83)" opacity="1.0" stroke="rgb(11, 26, 66)" stroke-opacity="0.9601056" stroke-linecap="round" stroke-linejoin="round"/>
    <path d="M 395.71688843 318.16921997 C 394.09927368 322.92114258 392.46749878 327.35610962 391.01290894 331.33990479 C 389.21121216 334.62313843 386.88528442 336.91632080 384.25241089 337.72677612 C 381.39596558 337.45690918 378.50576782 337.20599365 375.33868408 337.65481567 C 371.71472168 338.59796143 368.18145752 340.07330322 364.38076782 341.19754028 C 360.64468384 341.65606689 356.70718384 340.54040527 352.53894043 338.90460205 C 348.66360474 336.66488647 344.72106934 334.94845581 340.57785034 334.26562500 C 336.52102661 334.02767944 332.87106323 334.73251343 329.66107178 336.19689941 C 326.88876343 337.95172119 324.40829468 339.01019287 322.30197144 339.15121460 C 320.75994873 338.07971191 320.07672119 335.96722412 320.57595825 333.23660278 C 322.08703613 330.06527710 324.13088989 326.74395752 326.26718140 323.46920776 C 328.43627930 320.83740234 330.61624146 319.36340332 333.50769043 319.37854004 C 337.07385254 319.68136597 340.94491577 319.01321411 344.81036377 317.90808105 C 348.68661499 317.56936646 352.55889893 318.50518799 356.29470825 320.47659302 C 359.94238281 322.53192139 363.99615479 323.58963013 368.10659790 323.73806763 C 372.32574463 323.36929321 376.10079956 322.02111816 379.78366089 319.99795532 C 383.30587769 318.19046021 386.73184204 316.92398071 389.88546753 316.56704712 C 392.69287109 317.05432129 395.19635010 317.68933105 397.45114136 318.22476196 C 399.67074585 318.70645142 401.64712524 319.16152954 403.40100098 319.57077026 C 405.21118164 319.86294556 407.14572144 320.17205811 409.06015015 320.60443115 C 410.80395508 321.17242432 412.49453735 321.86972046 395.71688843 318.16921997" stroke-width="2.00000000" fill="rgb(5, 34, 80)" opacity="1.0" stroke="rgb(255, 255, 255)" stroke-opacity="0.15106459" stroke-linecap="round" stroke-linejoin="round"/>
    <path d="M 349.19125366 387.24749756 C 340.94335938 392.98526001 332.42611694 398.17193604 323.61724854 402.68365479 C 314.82556152 407.09704590 306.03057861 410.68927002 296.59600830 413.21688843 C 287.36514282 415.86883545 278.23471069 417.41513062 268.77642822 418.33374023 C 259.26333618 418.94030762 250.23756409 419.10714722 241.41665649 418.18304443 C 232.34571838 417.21112061 223.30976868 415.61944580 214.72549438 413.12286377 C 206.72207642 410.45285034 198.91099548 407.72772217 191.97694397 404.58386230 C 185.99745178 401.60949707 181.86779785 399.29504395 179.01918030 397.57629395 C 177.22563171 396.73034668 177.63378906 396.71328735 178.98255920 396.06826782 C 180.84365845 394.47076416 183.53176880 393.65002441 187.53816223 393.54577637 C 192.86344910 393.96768188 199.01966858 395.29321289 205.43821716 397.56576538 C 212.21299744 400.26412964 219.52239990 403.22811890 227.27101135 406.14770508 C 235.12330627 408.88427734 242.96224976 411.26571655 250.99522400 413.00012207 C 259.09036255 413.87881470 267.19192505 413.83801270 275.42324829 412.88635254 C 283.94039917 411.45916748 292.89614868 409.37969971 302.24243164 406.31463623 C 312.29315186 402.70852661 323.04037476 398.16705322 333.82855225 391.68041992 C 345.29470825 384.11483765 356.65719604 375.09707642 367.10983276 363.88851929 C 377.45639038 352.30569458 385.88574219 340.11654663 391.71157837 328.34432983 C 395.36773682 319.14605713 399.20098877 315.38265991 402.17056274 316.77639771 C 400.66226196 321.95889282 396.44360352 330.33422852 390.32147217 341.07589722 C 382.77996826 352.97625732 374.93109131 365.58422852 349.19125366 387.24749756" stroke-width="1.44696808" fill="rgb(251, 252, 250)" opacity="1.0" stroke="rgb(14, 38, 69)" stroke-opacity="0.89621854" stroke-linecap="round" stroke-linejoin="round"/>
    <path d="M 300.03347778 433.17083740 C 266.13012695 441.21438599 232.67878723 440.23583984 198.56552124 428.86596680 C 163.40316772 414.88180542 134.85577393 393.03399658 117.20210266 369.35614014 C 118.20676422 353.58447266 131.81604004 358.13140869 152.96896362 381.95883179 C 180.62283325 406.55282593 211.70712280 419.48287964 244.94929504 422.00918579 C 274.94570923 423.63540649 300.81042480 417.67105103 322.00918579 407.64666748 C 338.33782959 399.00537109 348.63131714 392.47543335 352.00244141 388.71472168 C 347.36529541 386.53155518 338.00314331 386.65814209 326.53479004 389.82647705 C 314.83935547 395.98815918 303.71975708 401.57702637 293.09747314 404.40664673 C 284.56802368 404.33660889 278.10873413 403.21633911 273.85705566 402.71942139 C 272.80154419 401.42395020 273.73861694 400.78192139 276.43222046 401.40036011 C 280.20068359 403.54782104 285.68075562 404.54959106 292.74066162 404.38085938 C 300.50277710 402.50967407 309.14492798 398.74792480 318.65167236 393.80712891 C 328.52178955 388.43313599 339.82205200 386.56488037 352.83023071 386.54467773 C 366.01928711 378.86840820 378.50259399 365.03662109 390.40658569 348.03228760 C 401.62295532 330.19046021 409.22891235 311.42797852 413.55538940 292.74111938 C 416.81878662 275.85375977 417.34365845 262.23336792 417.38442993 252.96258545 C 421.78393555 250.15794373 428.20523071 250.96005249 433.35394287 255.58166504 C 434.44363403 265.65194702 432.68536377 279.75354004 429.10382080 297.37344360 C 424.69192505 317.54855347 415.93307495 338.83505249 401.23831177 360.88943481 C 382.47375488 384.89874268 363.06927490 411.86590576 300.03347778 433.17083740" stroke-width="2.00000000" fill="rgb(239, 111, 22)" opacity="1.0" stroke="rgb(25, 28, 49)" stroke-opacity="0.93003225" stroke-linecap="round" stroke-linejoin="round"/>
    <path d="M 252.47377014 404.81973267 C 242.67521667 400.66744995 234.62786865 398.15176392 228.49200439 399.47137451 C 225.94958496 400.72842407 227.89424133 401.06536865 233.53848267 401.15951538 C 240.76776123 403.59130859 248.41996765 407.68038940 256.73193359 409.23226929 C 265.03009033 408.78326416 271.94833374 405.19067383 277.79473877 401.71417236 C 281.84213257 401.87246704 282.67178345 405.55648804 280.58654785 410.07141113 C 275.15939331 413.04827881 266.69696045 413.97021484 255.97198486 413.92846680 C 244.35934448 413.88778687 232.97117615 412.65637207 222.07064819 409.87698364 C 211.66770935 407.27825928 202.69299316 404.03921509 195.04426575 400.58627319 C 189.06045532 397.38183594 184.78564453 395.39471436 182.44267273 393.76065063 C 182.45747375 392.50067139 184.29452515 391.24276733 187.53041077 390.58486938 C 191.69993591 391.09857178 196.22538757 392.54244995 200.95599365 394.50756836 C 205.63755798 396.06268311 210.38218689 396.15927124 215.26152039 394.85015869 C 219.81350708 393.03195190 224.42115784 391.59951782 228.72300720 391.12579346 C 233.10221863 390.87905884 236.85588074 391.60519409 240.62176514 392.83151245 C 243.95658875 394.06314087 247.16102600 394.96038818 250.59352112 395.44958496 C 253.82144165 395.41107178 256.58312988 395.24417114 258.96743774 395.28417969 C 261.07522583 395.59185791 262.93734741 396.31793213 264.62570190 397.41198730 C 266.35293579 398.71875000 267.98266602 399.97894287 269.52603149 400.66796875 C 270.85836792 401.06747437 271.76284790 401.58825684 271.50698853 401.83175659 C 270.05999756 402.51568604 267.93804932 404.81185913 252.47377014 404.81973267" stroke-width="2.00000000" fill="rgb(8, 40, 80)" opacity="1.0" stroke="rgb(235, 255, 255)" stroke-opacity="0.26610276" stroke-linecap="round" stroke-linejoin="round"/>
    <path d="M 286.88000488 373.66989136 C 291.63049316 372.67297363 295.74026489 370.40240479 298.99264526 367.54183960 C 301.59439087 364.44436646 304.37863159 362.40591431 307.34091187 361.81912231 C 310.34027100 362.06030273 312.47103882 362.52209473 312.60275269 363.49945068 C 310.32571411 364.46539307 307.27438354 365.59161377 305.02462769 367.36117554 C 304.77847290 369.65835571 306.83905029 371.83520508 310.89648438 373.52856445 C 316.07855225 374.89596558 322.07647705 375.68743896 328.41909790 376.17776489 C 334.45764160 375.90704346 340.03152466 375.24786377 344.93624878 374.02877808 C 348.94259644 372.64849854 351.65823364 371.93908691 352.96243286 372.56283569 C 352.78582764 374.35034180 351.21121216 376.65393066 348.57638550 378.82208252 C 344.94158936 380.12954712 340.55679321 380.34774780 335.71228027 380.17599487 C 330.71493530 381.17926025 325.97610474 381.16888428 321.47482300 379.69055176 C 317.30459595 377.75747681 313.17117310 376.67391968 308.86477661 376.70883179 C 304.73284912 377.09762573 301.33666992 378.66522217 298.06961060 381.08325195 C 294.07913208 383.43310547 289.75485229 385.12988281 285.12280273 386.17498779 C 280.24237061 386.79602051 275.55880737 387.46511841 271.38110352 388.81628418 C 267.69494629 390.56567383 264.76440430 392.61325073 262.19268799 393.80010986 C 260.16671753 393.75036621 258.77487183 392.63415527 258.34817505 390.75738525 C 259.41445923 388.80014038 261.88500977 386.84204102 265.45355225 384.92349243 C 270.37887573 383.59899902 276.08880615 382.67938232 282.23498535 382.03601074 C 288.81634521 381.60397339 295.58209229 381.24853516 286.88000488 373.66989136" stroke-width="1.98716772" fill="rgb(0, 34, 82)" opacity="1.0" stroke="rgb(0, 21, 65)" stroke-opacity="0.9361863" stroke-linecap="round" stroke-linejoin="round"/>
    <path d="M 260.05511475 402.24972534 C 258.28698730 401.04092407 256.44372559 399.87893677 254.66822815 398.68701172 C 253.03121948 397.40609741 251.49659729 396.07318115 249.95228577 394.88549805 C 248.39433289 393.75772095 246.85592651 392.63403320 245.32637024 391.69546509 C 243.90359497 390.53717041 242.39736938 389.49868774 240.71652222 388.73855591 C 238.72848511 388.09365845 236.79219055 387.36422729 234.87237549 386.57287598 C 232.86054993 386.09945679 230.84756470 385.70593262 229.02061462 385.18707275 C 227.48291016 384.41342163 226.31494141 383.61099243 225.54299927 382.74603271 C 225.17053223 381.91943359 225.11512756 381.22140503 225.31793213 380.92892456 C 226.00296021 380.91546631 227.13995361 381.07089233 228.53913879 381.19079590 C 230.04759216 381.33697510 231.64051819 381.37506104 233.51483154 381.38925171 C 235.64096069 381.25134277 237.88975525 381.17193604 239.97254944 380.61672974 C 241.98724365 379.78530884 243.84378052 378.91790771 245.15686035 377.57318115 C 246.03518677 375.37524414 246.67289734 372.93002319 246.85127258 370.50006104 C 247.48506165 368.26461792 247.85780334 366.80154419 248.40370178 366.43023682 C 249.57699585 367.34609985 251.46917725 368.39218140 253.16033936 369.21310425 C 253.54718018 369.80798340 252.59693909 370.05831909 250.88243103 370.46643066 C 248.88206482 371.32559204 246.96205139 372.79394531 245.81927490 374.68307495 C 245.36787415 376.88177490 245.68577576 379.42950439 246.80868530 381.90646362 C 248.42282104 384.52618408 250.58940125 386.85253906 253.40917969 388.77795410 C 256.16812134 390.93627930 259.03973389 392.93829346 260.05511475 402.24972534" stroke-width="1.17728984" fill="rgb(5, 38, 84)" opacity="1.0" stroke="rgb(9, 25, 69)" stroke-opacity="0.95677364" stroke-linecap="round" stroke-linejoin="round"/>
    <path d="M 299.01800537 383.84475708 C 302.35345459 382.58999634 305.67828369 381.55786133 308.99246216 381.48001099 C 312.71154785 382.10330200 316.81137085 383.23889160 320.92999268 384.85494995 C 325.40008545 385.98507690 329.67098999 386.07025146 333.40319824 384.72320557 C 336.18865967 382.48953247 339.34194946 381.34304810 342.48553467 381.04904175 C 344.72338867 381.54122925 345.70013428 382.64154053 345.03515625 383.94677734 C 342.93716431 384.77523804 340.53073120 386.20349121 339.84323120 387.45056152 C 341.75866699 387.59844971 345.12722778 387.49984741 348.85717773 387.18136597 C 352.01980591 385.14089966 355.17480469 382.04742432 358.63421631 379.18664551 C 361.77136230 376.30075073 364.47857666 373.67889404 366.55734253 371.98992920 C 368.34628296 371.97372437 369.26007080 372.90051270 368.76873779 374.44799805 C 366.74954224 376.41159058 363.86676025 378.87228394 360.74960327 381.83880615 C 357.64926147 384.62478638 354.94079590 387.14794922 352.20431519 388.39837646 C 348.63662720 387.36846924 344.22625732 387.02828979 339.38751221 387.61193848 C 335.79360962 389.67956543 332.43054199 392.25411987 328.72879028 393.96841431 C 324.25152588 393.72427368 319.66522217 392.76336670 314.85385132 392.25372314 C 310.59716797 393.64086914 306.41860962 394.73138428 301.93338013 394.47589111 C 297.33142090 393.73464966 292.89797974 392.38946533 288.94400024 390.27468872 C 284.95169067 389.08273315 280.75976562 388.93945312 276.55838013 388.80017090 C 272.69424438 387.62603760 269.32327271 385.42089844 266.13961792 382.74844360 C 263.12231445 379.54495239 260.18893433 376.09600830 299.01800537 383.84475708" stroke-width="1.68177950" fill="rgb(7, 36, 77)" opacity="1.0" stroke="rgb(241, 255, 255)" stroke-opacity="0.26318166" stroke-linecap="round" stroke-linejoin="round"/>
    <path d="M 227.12548828 387.43026733 C 225.70806885 387.30780029 224.17045593 387.71389771 222.64642334 388.25683594 C 221.10208130 388.71740723 219.09710693 389.37097168 217.19413757 390.37869263 C 215.16357422 391.20623779 213.03182983 391.95187378 211.11795044 392.52243042 C 208.95349121 393.09759521 206.68931580 393.30865479 204.49203491 393.14138794 C 202.33822632 393.08929443 200.37374878 392.65502930 198.31764221 392.05456543 C 196.02049255 392.47622681 193.58070374 393.25015259 190.80230713 394.08175659 C 187.64520264 394.54852295 184.09790039 394.17886353 180.10983276 392.40838623 C 175.29272461 389.43588257 169.89659119 385.94714355 164.68984985 381.77722168 C 159.51808167 377.81262207 155.27851868 374.26284790 152.95622253 371.04769897 C 153.21743774 368.54342651 155.66227722 367.90197754 159.78796387 369.11587524 C 165.03862000 371.24008179 169.68014526 374.78158569 172.82240295 379.75448608 C 176.02210999 384.05429077 180.52993774 386.02008057 186.13049316 386.07336426 C 191.93708801 385.25396729 197.29504395 382.94689941 202.74392700 381.60140991 C 208.11131287 382.07919312 212.37292480 383.53060913 214.54035950 383.89208984 C 213.56582642 382.33233643 210.00883484 380.12268066 205.04989624 378.81793213 C 200.08139038 378.75125122 196.94020081 377.81799316 196.95060730 375.41802979 C 200.30456543 371.95294189 205.07568359 368.07965088 210.03005981 365.43215942 C 214.75360107 366.36434937 219.21235657 369.39495850 223.76756287 371.50778198 C 227.89784241 371.49133301 230.41603088 371.04965210 229.84991455 372.28985596 C 226.13163757 374.78567505 220.95841980 377.43347168 227.12548828 387.43026733" stroke-width="0.23955736" fill="rgb(6, 38, 82)" opacity="1.0" stroke="rgb(0, 12, 70)" stroke-opacity="0.5163025" stroke-linecap="round" stroke-linejoin="round"/>
    <path d="M 215.86988831 293.46612549 C 214.15760803 295.42245483 212.43486023 297.44830322 210.67759705 299.28424072 C 208.83076477 301.02447510 207.28819275 302.69024658 206.31698608 304.59091187 C 205.29220581 306.18444824 204.39285278 307.34661865 203.75218201 307.93218994 C 203.29284668 307.79885864 203.06690979 306.95153809 203.09017944 305.38442993 C 203.29998779 303.31640625 203.54553223 300.90124512 203.56822205 298.10903931 C 203.09466553 295.08828735 202.44033813 292.04788208 201.77134705 289.01809692 C 201.33430481 286.07952881 201.28941345 283.40893555 201.85797119 281.12951660 C 203.40939331 279.29425049 205.47576904 277.62646484 207.45390320 275.65576172 C 209.42550659 273.72106934 211.18405151 271.86297607 212.68984985 270.31597900 C 212.76417542 268.44082642 211.67964172 266.73718262 210.47009277 265.20129395 C 211.06077576 263.38259888 212.67156982 262.00927734 214.30004883 261.61141968 C 214.93341064 262.61831665 215.36819458 264.36431885 215.72612000 266.53726196 C 216.04437256 268.15588379 217.00836182 268.44601440 218.57240295 267.45944214 C 220.92927551 266.44332886 223.25669861 264.91171265 225.22131348 262.95410156 C 226.31636047 260.85757446 227.14355469 259.17117310 228.22521973 258.65832520 C 230.02319336 259.03192139 231.91017151 259.80825806 233.12098694 261.49679565 C 233.90737915 263.58703613 233.91162109 266.27783203 233.66307068 269.14181519 C 233.14247131 271.90600586 231.66967773 274.66848755 229.97798157 277.34121704 C 228.36784363 280.27352905 226.40614319 282.99374390 223.99877930 285.40615845 C 221.50582886 287.82534790 219.22608948 290.46957397 215.86988831 293.46612549" stroke-width="1.78246379" fill="rgb(6, 38, 79)" opacity="1.0" stroke="rgb(255, 255, 141)" stroke-opacity="0.051410668" stroke-linecap="round" stroke-linejoin="round"/>
    <path d="M 325.36254883 263.12283325 C 318.26654053 263.04803467 312.14526367 265.33563232 307.41580200 267.79751587 C 304.55868530 267.83340454 302.99496460 265.98281860 301.75961304 264.50781250 C 299.94992065 266.11596680 296.70947266 268.94448853 291.97946167 271.96920776 C 286.06887817 274.68713379 278.94201660 276.63092041 271.46447754 278.79348755 C 263.94857788 281.28131104 257.20889282 284.67556763 251.63114929 289.64691162 C 246.30116272 294.80926514 242.29136658 300.72198486 238.80589294 306.66110229 C 235.96485901 311.75692749 233.45817566 315.73306274 230.44659424 317.72500610 C 227.37348938 318.58697510 225.17512512 317.64004517 223.75639343 314.78442383 C 223.01121521 311.15692139 224.34844971 306.71444702 227.22729492 301.73767090 C 231.12593079 296.03143311 235.80520630 290.10620117 240.09356689 283.30383301 C 244.12872314 276.35421753 246.05853271 269.15420532 245.07765198 261.73104858 C 243.64021301 255.20375061 240.45075989 250.77656555 237.14341736 248.51428223 C 236.99217224 247.18905640 239.05688477 247.72782898 241.98150635 250.34805298 C 244.89782715 253.96859741 249.33627319 255.53764343 255.56764221 255.48547363 C 262.87829590 255.23730469 270.79232788 255.35614014 279.12380981 255.34931946 C 287.47149658 255.27296448 295.50442505 255.24496460 303.03390503 255.40290833 C 309.94061279 255.35812378 315.94723511 255.03515625 320.98315430 255.22856140 C 324.90219116 256.25161743 327.61059570 258.06555176 329.40811157 260.39456177 C 330.29882812 263.23382568 330.30767822 266.51400757 329.17532349 270.19958496 C 327.29003906 274.04281616 325.10885620 277.90411377 325.36254883 263.12283325" stroke-width="2.00000000" fill="rgb(15, 42, 85)" opacity="1.0" stroke="rgb(213, 255, 255)" stroke-opacity="0.08323003" stroke-linecap="round" stroke-linejoin="round"/>
    <path d="M 274.45022583 96.09836578 C 274.39675903 91.52938080 273.67089844 87.14695740 273.40563965 83.13914490 C 273.54986572 79.70142365 273.42135620 77.14219666 273.57739258 75.72131348 C 274.14157104 75.68881226 275.20053101 76.51382446 276.61032104 77.90118408 C 278.16516113 80.00695038 279.96176147 82.25110626 281.31088257 84.79602814 C 281.84860229 88.10330200 281.73846436 91.54352570 280.13388062 94.74696350 C 277.57809448 98.03148651 274.92437744 101.66999817 272.44445801 105.35655975 C 270.18972778 109.06616974 268.45111084 112.32879639 267.35363770 114.68054962 C 266.73574829 116.08872223 266.53384399 116.19251251 266.41485596 114.84299469 C 266.53979492 112.31098938 266.47412109 108.90253448 266.45089722 104.95137024 C 266.39141846 100.47819519 266.18914795 95.87016296 274.45022583 96.09836578" stroke-width="2.00000000" fill="rgb(236, 140, 43)" opacity="1.0" stroke="rgb(0, 26, 63)" stroke-opacity="0.61249155" stroke-linecap="round" stroke-linejoin="round"/>
    <path d="M 303.94512939 273.93978882 C 299.95449829 276.91412354 296.23745728 278.76483154 293.86947632 279.64633179 C 293.70886230 278.76083374 295.63452148 277.20449829 298.48730469 274.73947144 C 300.89907837 271.69964600 302.07797241 268.53170776 302.60452271 266.15951538 C 304.33666992 266.04415894 305.89151001 267.57495117 307.25946045 269.76950073 C 309.42141724 269.76034546 312.19985962 268.41192627 315.60134888 266.75659180 C 319.24230957 265.63827515 323.39340210 265.61141968 327.59814453 266.48587036 C 331.65243530 268.08422852 335.48281860 269.70413208 338.95767212 270.46316528 C 342.01077271 270.98574829 344.47088623 270.87640381 346.34774780 270.40625000 C 347.50219727 270.21621704 347.91146851 270.49038696 347.61651611 271.04629517 C 346.55511475 271.70974731 344.66836548 272.19012451 342.21398926 272.47952271 C 339.26510620 272.45434570 336.03100586 271.96826172 332.92526245 271.00256348 C 329.98559570 270.18829346 327.18603516 270.01867676 324.79840088 270.99920654 C 322.77447510 273.25708008 320.07064819 275.77755737 316.24819946 278.24642944 C 311.22558594 280.78158569 305.22796631 283.33850098 297.90826416 284.95452881 C 289.45620728 286.40322876 280.53686523 287.91467285 271.77694702 290.61590576 C 263.63226318 293.86645508 256.95565796 298.91183472 251.72756958 304.77786255 C 248.00463867 309.69082642 245.75959778 312.77902222 245.04724121 312.65979004 C 245.91662598 309.46670532 249.16499329 304.04614258 254.36825562 297.80307007 C 260.74090576 291.26248169 269.62036133 286.85665894 280.79394531 284.37509155 C 292.93612671 282.19610596 305.52224731 281.68145752 303.94512939 273.93978882" stroke-width="2.00000000" fill="rgb(5, 38, 71)" opacity="1.0" stroke="rgb(255, 255, 255)" stroke-opacity="0.07234461" stroke-linecap="round" stroke-linejoin="round"/>
  </g>
</svg>
