<?xml version="1.0" ?>
<svg xmlns="http://www.w3.org/2000/svg" version="1.1" width="512" height="512" viewBox="0 0 512 512">
  <defs/>
  <g>
    <path d="M -52.51287079 581.13146973 C -60.30706024 557.58666992 -67.92809296 534.01867676 -75.55127716 510.42169189 C -82.90686035 486.87557983 -89.98785400 463.36080933 -96.59610748 439.75515747 C -102.52532196 416.12734985 -107.69048309 392.55511475 -111.81821442 368.98309326 C -114.78378296 345.46762085 -116.49160767 321.95367432 -116.74295044 298.43765259 C -115.40745544 275.03890991 -112.49122620 251.61048889 -107.83098602 228.29934692 C -101.31053925 205.27342224 -92.99938202 182.49504089 -82.96309662 159.93011475 C -71.26123810 137.72047424 -57.90037537 115.84976959 -42.93598938 94.63333130 C -26.46160316 74.02912140 -8.54862213 54.17332077 10.46979809 34.95306396 C 30.32363892 16.49273300 51.63697815 -0.41430634 73.92839813 -16.03000069 C 96.98281860 -30.36557770 120.80599976 -43.26771927 144.98794556 -54.90800858 C 169.41148376 -65.13109589 194.15322876 -73.76570892 218.92756653 -80.69809723 C 243.91664124 -85.72742462 268.91305542 -88.83280182 293.80023193 -90.10559082 C 318.26565552 -89.56575012 342.39682007 -87.24530792 365.92602539 -83.10188293 C 388.88214111 -77.18086243 411.27648926 -69.33009338 432.96774292 -59.65831757 C 453.87509155 -48.40661621 473.79510498 -35.51962662 492.76437378 -21.17032433 C 510.60278320 -5.43654203 527.24945068 11.54697132 542.73217773 29.74618149 C 556.97534180 49.13191986 569.88092041 69.49131775 581.32946777 90.70673370 C 591.37762451 112.71295166 599.93579102 135.44581604 606.87573242 158.65370178 C 612.34051514 182.38168335 616.13513184 206.52250671 618.39764404 230.90029907 C 618.99047852 255.43484497 617.96154785 280.01922607 615.25195312 304.56597900 C 611.03021240 328.96765137 605.14764404 353.12365723 597.66613770 376.83370972 C 588.68261719 400.03421021 578.09765625 422.62423706 565.99066162 444.38003540 C 552.47949219 465.20297241 537.45764160 484.95947266 520.97814941 503.53189087 C 503.16619873 520.58020020 483.93032837 536.34075928 463.45391846 550.59857178 C 442.03326416 563.40948486 419.62686157 574.83789062 396.40789795 584.95190430 C 372.48797607 593.68389893 347.94799805 601.15301514 322.91976929 607.46398926 C 297.44610596 612.64532471 271.74542236 616.85253906 245.67628479 620.27587891 C 219.42268372 622.85754395 193.03396606 624.88934326 166.50810242 626.42889404 C 139.89703369 627.61517334 113.29389954 628.67449951 86.66259766 629.53411865 C 59.95907593 630.30883789 33.32609558 631.10400391 -52.51287079 581.13146973" stroke-width="2.00000000" fill="rgb(254, 255, 255)" opacity="1.0" stroke="rgb(255, 255, 255)" stroke-opacity="0.0" stroke-linecap="round" stroke-linejoin="round"/>
    <path d="M 393.32223511 374.20565796 C 386.55435181 382.30480957 379.04171753 389.79849243 370.91812134 396.99713135 C 362.47674561 404.10510254 353.26754761 410.64218140 343.33999634 416.42297363 C 333.12780762 422.36511230 322.24374390 427.26275635 310.87069702 431.30380249 C 299.05499268 435.24221802 287.18859863 437.97183228 274.92822266 439.17138672 C 262.40319824 440.56652832 249.92213440 440.50967407 237.67739868 439.31362915 C 225.38238525 437.65124512 213.14808655 435.27566528 201.29592896 431.27749634 C 189.53533936 427.15136719 177.91113281 421.89562988 166.86886597 415.28414917 C 155.52709961 408.69534302 145.15003967 400.30728149 135.05929565 391.12176514 C 125.25328064 381.39242554 116.22230530 370.70346069 108.07327271 359.24868774 C 100.53214264 347.35968018 93.93613434 335.11993408 89.20727539 322.27175903 C 84.55323029 309.40213013 80.92966461 296.70736694 79.27412415 284.03659058 C 77.22016144 271.91027832 76.97157288 259.74859619 77.10253143 247.53668213 C 77.69940186 235.37387085 79.75087738 223.37216187 82.54834747 211.50027466 C 85.53866577 199.76473999 89.97682953 188.62391663 95.24620056 177.47598267 C 100.80164337 166.47332764 107.30930328 156.04441833 114.81000519 146.32223511 C 122.40585327 136.83250427 130.67883301 128.17698669 139.69839478 120.49226379 C 148.71475220 113.08470917 158.11112976 106.57817078 167.90808105 100.82501221 C 177.79055786 95.36521149 188.17619324 90.89836121 198.90634155 87.14307404 C 209.85182190 83.70977020 220.92738342 81.28303528 232.33009338 79.06681824 C 244.08908081 77.80962372 256.10647583 77.53109741 268.13793945 77.92408752 C 280.00741577 79.15753937 292.26715088 81.36273193 304.46661377 84.52317047 C 316.64639282 88.03060913 328.62155151 92.50262451 339.94839478 98.71041107 C 351.55062866 104.69680786 362.32684326 112.23829651 372.59310913 120.75633240 C 382.80621338 129.32147217 391.75228882 139.10905457 399.78564453 149.67172241 C 407.68371582 160.16593933 414.09182739 171.43432617 419.46136475 183.34066772 C 424.66278076 195.20898438 428.59039307 207.32046509 431.35253906 219.89018250 C 433.79061890 232.53033447 435.27301025 245.36779785 435.45101929 258.38287354 C 435.09259033 271.57821655 433.65548706 284.63986206 430.87631226 297.51766968 C 427.73339844 310.33807373 423.73959351 322.69131470 418.34771729 334.49545288 C 412.66113281 346.20153809 406.49371338 357.66278076 393.32223511 374.20565796" stroke-width="2.00000000" fill="rgb(228, 205, 193)" opacity="1.0" stroke="rgb(1, 26, 61)" stroke-opacity="0.9956346" stroke-linecap="round" stroke-linejoin="round"/>
    <path d="M 414.44976807 248.49993896 C 406.01831055 254.45867920 396.64514160 258.79766846 386.48654175 261.15682983 C 375.71630859 262.06036377 364.48861694 262.01010132 352.99713135 261.23666382 C 341.35253906 259.91610718 329.88787842 258.26101685 318.67172241 256.20593262 C 307.82611084 253.69468689 297.56506348 250.88589478 287.86517334 248.09236145 C 278.49218750 245.55033875 269.48294067 243.36872864 260.76892090 241.56349182 C 252.35202026 240.09112549 244.32017517 239.33891296 236.59716797 239.50755310 C 228.92556763 240.61981201 221.31584167 242.64234924 213.89335632 246.25021362 C 206.34983826 251.34085083 197.59994507 255.80517578 187.47727966 258.81967163 C 176.47454834 260.31094360 164.99163818 261.04342651 153.42398071 261.47708130 C 142.18438721 261.82525635 131.62994385 262.09445190 122.43405151 261.81958008 C 114.85970306 260.73791504 109.07759094 258.51824951 105.43582916 254.84898376 C 104.79694366 249.32556152 105.41963959 242.33432007 106.89275360 234.01605225 C 108.62683868 224.78448486 110.97224426 214.81094360 114.23695374 204.68992615 C 118.15419769 194.52618408 123.14113617 184.69442749 129.14498901 175.40084839 C 135.76591492 166.49784851 142.66238403 157.83833313 149.80461121 149.77923584 C 157.14370728 142.44206238 164.76173401 135.89147949 172.88366699 129.97572327 C 181.65303040 125.04008484 190.96505737 121.12647247 200.89733887 118.34163666 C 211.61643982 116.80693817 223.10861206 116.30297852 235.59341431 116.56545258 C 248.99620056 117.54026031 263.22866821 119.07187653 278.03347778 121.27088165 C 293.21850586 124.10263824 308.55944824 127.59872437 323.74105835 131.48226929 C 338.23886108 135.54347229 351.09643555 139.86949158 360.89718628 143.09913635 C 365.17321777 141.04579163 363.37966919 135.04481506 356.76895142 126.17163849 C 348.52883911 115.99040222 341.79956055 106.77158356 339.38311768 100.86965179 C 342.59295654 100.96646881 350.00442505 105.84114075 360.20352173 113.00655365 C 371.09732056 121.06770325 381.08483887 130.05651855 389.65701294 139.72544861 C 397.63168335 149.05252075 404.36697388 158.48391724 409.86624146 168.15162659 C 415.23345947 177.46728516 419.70437622 187.09719849 423.30212402 197.15426636 C 426.82711792 207.56904602 429.66473389 218.67810059 431.54037476 230.53932190 C 433.46286011 243.29893494 434.31878662 256.62884521 432.99526978 270.63085938 C 429.22689819 284.91711426 423.92022705 299.38418579 414.44976807 248.49993896" stroke-width="1.59313035" fill="rgb(240, 150, 31)" opacity="1.0" stroke="rgb(13, 3, 18)" stroke-opacity="0.8311635" stroke-linecap="round" stroke-linejoin="round"/>
    <path d="M 303.81192017 262.92367554 C 298.16061401 263.42288208 292.49963379 263.81695557 286.80392456 264.14230347 C 281.15560913 264.12487793 275.67251587 263.87121582 270.40045166 263.28350830 C 265.36935425 262.40576172 260.55749512 261.14056396 255.88760376 259.49899292 C 251.39794922 257.40020752 247.28558350 254.86209106 243.79145813 251.86100769 C 241.07997131 248.31578064 237.83183289 245.46586609 234.03627014 243.70767212 C 229.98623657 242.45489502 225.65365601 242.34146118 221.31794739 242.30801392 C 217.44744873 242.08494568 213.92195129 243.46720886 210.82890320 245.98994446 C 208.16438293 248.92289734 205.95257568 251.35173035 204.19584656 252.60089111 C 203.32997131 252.29922485 203.17491150 250.75642395 203.51867676 247.64326477 C 204.11547852 243.45704651 205.49261475 238.69447327 207.60366821 233.61468506 C 210.27807617 228.53158569 213.72015381 223.49412537 217.96234131 218.94389343 C 222.08958435 214.65977478 227.02862549 211.20425415 232.00823975 208.59288025 C 236.65242004 206.47448730 241.59399414 205.59652710 246.49964905 204.89460754 C 251.19189453 204.14741516 255.69483948 204.03765869 260.22924805 204.22201538 C 264.89996338 204.55609131 269.34786987 205.05502319 273.64859009 205.67308044 C 278.02423096 207.39515686 282.24157715 209.75415039 286.33523560 212.41500854 C 290.36865234 215.28033447 294.04614258 218.43580627 297.14111328 221.95594788 C 299.84906006 225.59030151 302.07907104 229.29792786 304.03671265 233.26234436 C 305.78323364 237.28050232 307.24069214 241.35427856 308.04687500 245.53137207 C 308.89416504 249.89375305 310.09936523 254.40934753 303.81192017 262.92367554" stroke-width="2.00000000" fill="rgb(229, 54, 37)" opacity="1.0" stroke="rgb(0, 22, 54)" stroke-opacity="1.0" stroke-linecap="round" stroke-linejoin="round"/>
    <path d="M 299.23538208 369.83697510 C 295.67266846 373.33728027 291.86340332 376.71887207 287.67660522 379.79638672 C 283.24655151 382.37667847 278.31561279 384.52679443 272.88491821 386.27001953 C 267.08898926 387.52563477 260.82617188 388.33132935 254.30329895 388.54107666 C 247.66775513 387.69082642 240.96737671 386.62109375 234.55993652 385.85958862 C 228.50155640 385.58688354 223.43496704 384.44393921 219.49734497 381.91445923 C 216.68095398 377.92175293 215.13893127 372.99948120 214.96337891 367.56353760 C 216.42904663 362.10192871 218.44000244 357.10375977 219.13314819 352.46987915 C 217.60375977 348.23556519 216.11483765 344.75067139 215.88168335 342.52548218 C 216.65832520 342.28182983 218.65313721 343.09228516 221.56181335 344.29415894 C 225.18045044 345.64245605 227.77703857 346.36120605 228.77375793 345.02102661 C 228.06324768 341.49206543 227.32672119 337.82980347 228.29344177 335.45556641 C 231.17001343 336.20050049 234.22157288 338.35635376 236.67018127 338.79379272 C 237.42292786 335.47390747 237.89910889 330.98489380 239.67601013 328.53924561 C 242.45051575 330.21731567 245.15811157 333.77575684 248.02960205 335.33288574 C 251.24821472 332.09078979 255.39767456 330.26736450 261.88290405 331.49316406 C 269.79739380 331.68649292 277.49197388 333.73968506 283.42440796 334.87915039 C 284.94958496 337.56469727 284.17031860 341.06442261 283.26168823 344.37734985 C 283.84124756 346.50881958 286.13888550 346.20672607 289.28894043 344.58914185 C 292.67312622 343.18112183 295.37286377 342.64077759 296.40628052 343.48431396 C 294.73727417 346.18783569 291.69235229 349.28167725 299.23538208 369.83697510" stroke-width="2.00000000" fill="rgb(191, 107, 153)" opacity="1.0" stroke="rgb(0, 20, 65)" stroke-opacity="0.9368519" stroke-linecap="round" stroke-linejoin="round"/>
    <path d="M 272.30181885 131.96066284 C 273.62130737 141.98623657 274.71832275 151.70599365 275.66729736 161.07621765 C 276.35083008 169.83708191 276.62020874 177.97299194 276.43737793 185.26344299 C 275.70239258 191.53317261 274.29281616 196.54867554 272.04965210 199.87297058 C 268.98391724 201.42710876 265.20382690 201.41429138 260.66143799 200.86143494 C 255.76097107 200.49934387 250.93194580 200.49081421 246.57575989 201.16276550 C 242.82736206 202.07600403 240.03196716 202.46008301 238.44667053 201.36344910 C 238.07690430 198.14996338 238.58631897 193.09461975 239.67129517 186.49710083 C 241.26533508 178.81709290 243.14550781 170.28782654 245.10704041 161.17677307 C 246.69470215 151.78222656 247.77258301 142.40403748 248.12013245 133.47534180 C 247.71562195 125.29463196 245.55790710 118.18235016 241.75576782 112.19607544 C 238.01402283 106.29296112 235.17976379 101.14495087 231.77096558 98.00005341 C 226.14747620 98.50811768 218.70744324 100.29404449 209.81364441 102.46354675 C 200.37969971 105.45335388 190.50790405 109.66863251 180.60797119 114.71284485 C 170.35151672 120.33711243 159.92597961 127.51136017 149.33673096 136.87947083 C 137.46882629 147.61114502 125.91487122 161.42103577 115.34879303 179.75953674 C 104.05578613 200.83380127 97.48775482 224.40313721 96.20034027 246.33576965 C 96.66355896 260.58926392 89.57543945 264.00155640 79.14717102 258.58236694 C 77.06159210 244.63717651 80.51218414 225.74546814 86.04057312 204.98510742 C 92.56480408 184.81213379 101.40923309 167.25700378 112.12001038 152.28424072 C 122.28947449 138.85148621 132.98896790 127.63668823 144.28625488 118.67482758 C 154.54217529 110.65122223 164.76045227 104.16014862 174.92140198 98.89057159 C 184.66606140 94.10808563 194.21713257 90.39062500 203.80137634 87.18788910 C 212.81665039 84.52729034 221.44102478 82.62767029 229.62997437 81.24531555 C 236.93417358 79.16693115 243.72415161 76.99437714 249.78453064 74.82333374 C 255.25411987 73.06854248 260.01049805 72.16609192 264.27621460 71.64884949 C 267.71612549 71.59709167 270.27893066 71.95903778 271.82955933 72.82840729 C 272.11657715 75.01265717 271.35363770 78.08230591 269.76519775 82.00109863 C 267.71136475 86.88179016 265.37033081 92.63555908 262.65966797 99.08048248 C 259.82052612 106.11051941 257.15173340 113.68177795 254.76502991 121.74430847 C 252.70237732 129.97729492 250.77992249 138.23060608 272.30181885 131.96066284" stroke-width="2.00000000" fill="rgb(228, 107, 28)" opacity="1.0" stroke="rgb(15, 26, 55)" stroke-opacity="1.0" stroke-linecap="round" stroke-linejoin="round"/>
    <path d="M 280.78298950 97.20228577 C 276.48971558 102.12456512 273.05499268 107.17982483 270.50442505 112.15204620 C 269.06436157 115.88732147 266.78079224 117.57891846 264.37249756 118.28173065 C 264.03408813 120.85046387 264.91772461 124.41181946 265.28860474 128.49656677 C 264.70642090 132.35671997 263.53637695 135.05189514 261.89749146 135.95185852 C 260.09143066 134.61749268 258.48004150 131.35302734 257.45123291 127.34598541 C 257.36862183 123.98719025 258.71096802 121.99919128 261.61422729 121.66349030 C 264.42349243 121.01074982 265.46417236 119.62236786 263.81491089 118.38239288 C 259.42434692 118.25757599 253.73876953 118.68781281 248.37588501 118.58121490 C 244.90380859 115.94702148 242.58090210 111.33053589 240.04850769 106.24839783 C 236.37159729 101.29541016 232.48841858 96.74662018 230.31501770 91.52124023 C 230.18235779 85.45650482 232.19543457 79.43045807 236.20646667 74.71457672 C 242.04322815 71.58467865 248.88285828 71.48078156 255.79460144 73.43540955 C 262.57199097 73.50668335 268.65548706 73.21614838 273.74557495 73.72380829 C 277.08996582 75.45758057 279.17672729 78.41739655 281.95629883 81.03014374 C 286.84161377 81.91589355 292.93533325 83.05529022 299.95181274 84.80955505 C 307.48419189 87.00747681 315.02716064 89.54985046 322.16735840 92.15402985 C 328.65243530 94.63909149 333.89089966 96.91748810 337.50750732 99.22220612 C 338.19583130 102.05874634 337.13146973 105.20545197 335.14248657 108.33686829 C 332.26867676 110.82416534 328.69271851 112.01107788 324.43768311 111.40917206 C 319.72857666 109.20378876 315.16772461 105.61991882 280.78298950 97.20228577" stroke-width="2.00000000" fill="rgb(222, 120, 34)" opacity="1.0" stroke="rgb(10, 26, 55)" stroke-opacity="1.0" stroke-linecap="round" stroke-linejoin="round"/>
    <path d="M 349.04705811 174.62762451 C 339.18695068 185.25328064 329.74505615 195.30976868 320.80615234 203.95660400 C 312.44357300 210.21319580 304.67178345 213.40815735 297.61364746 213.37593079 C 291.18865967 210.34335327 285.03448486 206.08322144 278.92285156 202.62826538 C 272.95318604 200.54158020 267.76837158 199.61132812 263.83557129 199.09570312 C 261.47003174 198.57545471 260.90173340 197.40689087 261.40957642 195.26275635 C 261.87399292 192.09573364 262.24044800 188.12826538 262.62823486 183.66157532 C 262.91006470 178.90180969 263.19732666 173.76092529 263.66827393 168.41616821 C 264.17837524 162.94343567 264.62219238 157.52703857 265.01742554 152.26573181 C 265.27124023 146.99389648 264.96530151 141.74949646 264.61221313 136.58540344 C 265.24725342 131.64579773 266.02639771 127.01861572 267.11895752 123.20433044 C 269.55606079 120.92581940 271.79119873 118.18399811 273.62896729 115.34156036 C 274.99319458 112.41784668 276.47943115 109.63039398 278.46520996 107.81771851 C 281.22396851 107.62943268 284.81631470 108.36724854 289.14498901 109.38726044 C 293.92776489 110.43312836 299.08264160 111.83129883 304.68106079 113.59833527 C 310.40432739 115.59877014 316.03100586 117.75642395 321.27441406 120.23043060 C 326.04299927 122.75402069 330.28567505 124.99276733 333.40692139 127.21167755 C 335.04995728 129.77493286 335.33752441 132.66818237 334.58401489 135.64494324 C 333.34735107 138.39237976 331.91198730 140.96583557 330.39111328 143.27966309 C 329.00164795 145.17179871 327.88024902 146.47227478 327.14642334 147.23667908 C 327.06060791 147.40974426 327.19989014 147.37413025 349.04705811 174.62762451" stroke-width="2.00000000" fill="rgb(254, 193, 0)" opacity="1.0" stroke="rgb(244, 188, 22)" stroke-opacity="1.0" stroke-linecap="round" stroke-linejoin="round"/>
    <path d="M 251.60589600 200.04908752 C 249.87199402 199.97186279 247.96517944 200.03591919 245.72784424 200.27868652 C 243.32209778 200.68638611 240.54609680 201.43125916 237.34303284 202.32757568 C 233.78684998 203.41958618 230.06361389 205.10398865 226.27909851 207.34100342 C 222.74053955 210.16743469 219.19534302 212.95426941 215.34941101 215.18228149 C 210.93901062 216.18710327 206.11616516 215.93615723 200.86442566 214.46903992 C 195.09846497 211.95825195 188.88882446 208.60853577 182.43927002 204.39152527 C 175.72769165 199.50917053 169.09465027 194.27751160 162.80284119 188.68653870 C 156.89706421 182.78704834 151.73291016 176.73100281 147.58891296 170.83972168 C 144.76748657 165.01208496 143.71145630 159.41372681 144.66673279 154.26911926 C 147.89352417 149.72207642 152.64532471 145.25903320 158.00854492 140.63281250 C 163.97145081 136.18310547 170.13151550 131.62402344 176.51942444 127.20798492 C 182.77839661 123.28105927 189.17794800 120.04544067 195.37570190 117.25891876 C 201.24375916 114.72061920 206.99176025 112.75499725 212.37910461 111.22477722 C 217.22433472 109.81652832 221.55430603 108.64227295 225.51585388 107.62519073 C 228.95307922 106.79560089 231.84767151 106.39881134 234.15245056 106.76643372 C 235.85006714 108.37194824 237.30534363 110.90221405 238.80120850 113.98506165 C 240.58547974 117.03791809 242.79646301 119.92782593 245.07485962 122.44496155 C 246.36618042 125.57318878 246.77719116 129.13545227 246.93721008 132.98692322 C 247.21563721 136.95370483 247.34176636 140.98571777 247.56983948 145.19076538 C 247.79238892 149.68785095 247.87768555 154.31681824 251.60589600 200.04908752" stroke-width="1.17054558" fill="rgb(253, 192, 6)" opacity="1.0" stroke="rgb(238, 184, 50)" stroke-opacity="1.0" stroke-linecap="round" stroke-linejoin="round"/>
    <path d="M 204.94029236 119.32501984 C 204.64860535 118.14700317 204.20585632 117.01757812 203.75468445 115.93528748 C 203.46759033 115.06014252 203.54652405 114.45574188 204.15113831 114.05767059 C 205.23536682 113.69992828 206.68991089 113.07320404 208.58665466 112.48979950 C 210.50265503 111.82798767 212.42666626 111.15313721 214.24681091 110.54271698 C 215.87989807 110.07188416 217.30021667 109.92921448 218.31057739 110.42525482 C 218.94416809 111.85559845 219.55639648 114.08573151 220.11456299 117.00775146 C 220.85438538 120.36864471 221.88838196 124.10066986 222.99803162 128.28349304 C 224.01489258 132.82284546 225.14064026 137.54415894 226.39288330 142.32421875 C 227.71101379 147.24771118 228.90574646 152.21182251 229.96366882 157.20417786 C 231.16671753 162.11015320 232.31852722 166.77973938 233.43905640 171.29759216 C 234.44879150 175.61102295 235.41209412 179.70137024 236.35794067 183.45111084 C 237.24768066 186.81695557 238.04330444 189.70956421 238.72270203 192.31227112 C 239.27613831 194.39276123 239.47541809 195.91983032 239.23692322 196.98667908 C 238.30520630 197.70735168 237.19343567 198.04119873 236.14291382 197.92491150 C 235.23648071 197.11215210 234.51251221 195.64289856 233.71177673 193.54119873 C 232.75871277 191.01826477 231.68896484 188.20220947 230.52613831 185.08378601 C 229.10290527 181.76377869 227.71160889 178.13742065 226.30630493 174.28016663 C 224.89692688 170.29681396 223.30963135 166.28642273 221.64094543 162.19142151 C 219.94609070 158.03729248 218.33287048 153.80235291 216.75881958 149.54031372 C 215.25096130 145.31999207 213.57014465 141.05540466 204.94029236 119.32501984" stroke-width="1.39873862" fill="rgb(238, 53, 36)" opacity="1.0" stroke="rgb(195, 0, 22)" stroke-opacity="0.6133266" stroke-linecap="round" stroke-linejoin="round"/>
    <path d="M 286.96710205 173.89419556 C 285.75335693 177.37297058 284.53579712 180.79907227 283.26742554 184.09753418 C 282.00000000 187.23078918 280.75238037 190.25242615 279.79818726 192.95019531 C 279.12747192 195.34950256 278.41589355 197.33334351 277.40347290 198.62124634 C 275.98229980 199.04505920 274.52822876 198.95437622 273.08413696 198.59129333 C 271.91339111 198.17611694 271.23287964 197.43357849 271.20321655 196.00553894 C 271.56500244 193.90225220 272.27029419 191.14030457 273.14215088 187.93836975 C 274.19268799 184.16111755 275.25909424 179.96253967 276.26699829 175.42764282 C 277.41369629 170.68054199 278.74136353 165.81565857 280.02239990 160.76393127 C 281.17291260 155.62666321 282.34671021 150.51298523 283.57785034 145.42706299 C 284.75244141 140.41293335 285.95733643 135.50044250 287.13726807 130.93762207 C 288.13769531 126.52091217 289.09674072 122.41476440 289.99755859 118.76230621 C 290.92715454 115.59459686 291.68215942 112.88938141 292.28286743 110.64165497 C 292.69760132 109.11393738 293.35314941 108.40000916 294.37683105 108.39568329 C 295.95657349 108.88670349 298.13012695 109.54756165 300.63009644 110.19647980 C 303.00924683 111.05014038 305.46203613 111.81790161 307.53659058 112.52763367 C 309.01959229 113.38016510 309.75320435 114.54072571 309.56121826 116.12028503 C 308.72879028 118.27286530 307.54483032 121.10810852 306.19586182 124.48072052 C 304.77041626 128.24908447 303.20114136 132.29420471 301.46182251 136.51155090 C 299.72653198 140.96545410 297.98596191 145.49072266 296.18481445 150.08558655 C 294.51846313 154.72288513 292.81439209 159.40489197 286.96710205 173.89419556" stroke-width="1.24885869" fill="rgb(234, 58, 29)" opacity="1.0" stroke="rgb(203, 31, 255)" stroke-opacity="0.11047724" stroke-linecap="round" stroke-linejoin="round"/>
    <path d="M 132.84068298 168.73313904 C 132.61785889 168.71035767 132.54519653 168.60522461 132.70217896 168.49382019 C 133.11531067 168.13841248 133.71609497 167.44631958 134.44917297 166.40943909 C 135.30395508 165.31278992 136.39881897 163.90882874 137.52239990 162.38862610 C 138.76773071 160.93830872 139.90914917 159.33543396 140.84622192 157.94003296 C 141.74554443 157.22116089 142.73066711 157.14125061 143.83532715 157.88156128 C 145.43968201 159.26744080 147.34370422 161.01765442 149.60923767 163.02261353 C 152.23854065 165.32101440 155.18511963 167.91430664 158.44609070 170.74974060 C 161.85620117 173.76097107 165.29022217 176.88323975 168.89935303 180.10089111 C 172.57495117 183.37022400 176.14247131 186.70985413 179.65071106 189.94970703 C 183.25094604 193.06619263 186.79267883 196.04521179 190.11042786 199.00143433 C 193.18208313 201.90065002 196.25276184 204.55313110 199.04310608 207.07176208 C 201.50144958 209.45294189 203.74414062 211.42411804 205.73890686 213.01394653 C 207.41226196 214.37318420 208.44245911 215.55175781 208.80383301 216.64471436 C 208.47358704 217.78111267 207.78022766 218.69252014 206.65557861 219.23219299 C 205.33139038 218.97195435 203.62266541 218.08729553 201.66679382 216.84333801 C 199.37933350 215.18200684 196.73704529 213.22299194 193.86563110 211.16329956 C 190.75857544 208.85845947 187.46533203 206.55403137 184.08546448 204.17547607 C 180.49484253 201.73292542 176.80863953 199.15184021 173.22851562 196.55583191 C 169.47288513 194.14361572 165.75198364 191.52587891 162.06840515 188.78479004 C 158.42544556 185.98684692 154.86973572 183.19154358 132.84068298 168.73313904" stroke-width="1.31871617" fill="rgb(236, 55, 36)" opacity="1.0" stroke="rgb(210, 55, 8)" stroke-opacity="0.8496976" stroke-linecap="round" stroke-linejoin="round"/>
    <path d="M 171.58457947 243.28956604 C 165.06700134 242.41383362 158.66481018 241.50827026 152.23272705 240.48999023 C 145.82931519 239.51196289 139.52275085 238.51181030 133.33879089 237.48565674 C 127.40711212 236.52436829 121.85382080 235.67304993 116.84152222 234.96903992 C 112.47856903 234.47174072 108.95436859 234.07487488 106.70402527 233.41578674 C 106.09934998 231.59327698 106.69200897 228.72598267 107.66098022 224.69123840 C 108.85486603 219.53863525 110.58345795 213.59233093 112.89440155 207.16691589 C 115.51043701 200.31985474 118.23834991 193.48060608 121.15370941 187.01528931 C 124.34926605 181.27659607 127.21919250 176.41429138 129.40466309 172.61732483 C 131.03048706 170.55715942 132.67599487 170.59736633 135.06826782 172.54101562 C 138.45223999 175.33343506 142.61994934 178.48335266 147.43798828 181.92378235 C 152.64758301 185.49528503 158.03712463 189.11520386 163.36860657 192.79254150 C 168.59220886 196.51763916 173.65425110 200.11695862 178.65007019 203.44531250 C 183.46095276 206.63412476 187.79461670 209.64091492 191.80105591 212.46675110 C 195.48417664 215.11155701 198.89578247 217.50415039 201.91375732 219.57891846 C 204.53826904 221.26722717 206.53886414 222.68495178 207.73997498 223.99708557 C 207.87727356 225.47222900 207.15599060 227.11050415 205.99923706 228.91436768 C 204.77697754 231.10606384 203.66300964 233.49098206 202.65368652 235.86201477 C 201.68609619 238.29054260 200.90043640 240.64414978 200.30467224 242.69978333 C 199.94009399 244.45594788 199.83674622 245.97445679 199.95663452 247.10577393 C 200.34654236 247.85000610 200.71661377 248.32315063 171.58457947 243.28956604" stroke-width="1.03367531" fill="rgb(252, 192, 5)" opacity="1.0" stroke="rgb(255, 200, 39)" stroke-opacity="0.7982385" stroke-linecap="round" stroke-linejoin="round"/>
    <path d="M 162.86189270 136.21562195 C 164.01651001 135.38909912 165.12660217 134.59477234 166.27828979 133.56440735 C 167.64097595 132.58207703 169.09483337 131.56950378 170.52661133 130.55227661 C 172.08711243 129.77798462 173.55853271 129.06329346 174.69241333 128.18753052 C 175.57350159 127.55814362 176.31376648 127.15261841 176.87928772 127.09677887 C 177.53613281 127.65366364 178.30332947 128.83528137 179.20861816 130.47674561 C 180.42471313 132.68685913 181.98147583 135.42980957 183.81317139 138.40170288 C 185.82051086 141.58366394 187.93092346 145.06449890 190.16893005 148.85560608 C 192.41629028 152.85456848 194.79333496 156.93951416 197.46286011 161.05123901 C 199.96214294 165.36956787 202.56886292 169.54743958 205.14097595 173.68865967 C 207.78828430 177.80351257 210.14047241 181.79951477 212.42614746 185.75837708 C 214.56698608 189.44277954 216.67782593 192.84483337 218.55561829 195.89318848 C 220.14572144 198.60983276 221.58305359 200.81196594 222.71118164 202.59939575 C 223.35696411 203.89213562 223.21220398 204.84553528 222.48326111 205.60572815 C 221.58389282 206.38540649 220.60212708 207.02922058 219.45095825 207.28585815 C 218.22373962 206.63146973 216.88592529 205.18041992 215.35054016 203.10214233 C 213.53138733 200.67132568 211.47042847 197.92315674 209.24339294 194.86143494 C 206.75885010 191.59461975 204.11962891 188.21600342 201.36087036 184.77487183 C 198.49919128 181.18988037 195.56071472 177.61293030 192.61602783 173.91888428 C 189.72149658 170.20205688 186.79901123 166.49154663 183.87733459 162.78097534 C 180.98608398 159.05482483 177.93057251 155.45524597 162.86189270 136.21562195" stroke-width="0.86429089" fill="rgb(239, 54, 34)" opacity="1.0" stroke="rgb(193, 28, 17)" stroke-opacity="0.65897876" stroke-linecap="round" stroke-linejoin="round"/>
    <path d="M 349.26501465 137.70388794 C 342.68429565 145.34474182 336.43472290 153.34681702 330.41659546 161.32019043 C 324.34597778 169.09983826 318.25650024 176.62457275 312.65148926 183.61444092 C 307.42013550 190.17068481 302.90270996 196.10879517 299.16958618 201.28387451 C 296.18569946 205.46940613 293.61401367 207.86116028 291.11358643 208.08253479 C 288.72393799 206.97952271 287.69738770 204.86773682 288.96264648 201.70230103 C 292.01763916 196.67248535 296.07629395 190.11145020 300.64794922 182.47305298 C 305.71987915 174.21325684 311.00332642 165.67553711 316.06347656 156.89736938 C 320.99508667 148.65437317 325.67770386 141.28637695 329.49411011 134.91351318 C 331.99734497 129.64468384 334.12124634 126.53997040 336.89468384 126.33904266 C 340.89480591 129.00833130 346.09158325 132.91055298 351.39892578 136.98670959 C 356.51626587 139.91032410 360.32598877 140.94923401 361.67269897 139.75920105 C 359.22134399 136.42822266 353.90817261 132.09449768 346.65859985 127.03761292 C 339.18948364 121.61322784 331.98400879 117.76208496 326.83786011 114.79896545 C 326.58984375 110.46528625 329.43902588 105.68419647 333.63973999 101.79663849 C 337.80197144 100.52248383 341.45285034 103.46106720 345.41952515 110.01584625 C 351.52133179 117.11163330 359.35848999 123.99556732 367.64672852 130.69836426 C 375.20288086 137.37513733 381.16317749 144.33160400 384.80334473 151.33808899 C 386.11932373 157.83999634 386.02246094 162.74064636 384.91564941 164.96231079 C 382.90802002 163.35885620 379.77935791 159.11558533 375.15890503 153.31063843 C 369.91366577 146.60977173 364.65814209 139.67082214 349.26501465 137.70388794" stroke-width="2.00000000" fill="rgb(204, 67, 34)" opacity="1.0" stroke="rgb(255, 255, 255)" stroke-opacity="0.18721776" stroke-linecap="round" stroke-linejoin="round"/>
    <path d="M 112.95529175 207.94749451 C 113.22734070 206.50325012 113.79595184 204.97859192 114.45639038 203.50881958 C 115.02761841 202.09039307 115.55524445 200.59252930 116.16357422 199.07348633 C 116.82621765 197.68013000 117.32412720 196.34161377 117.69757843 195.15023804 C 118.12114716 194.20236206 118.70050812 193.92489624 119.55091095 194.15570068 C 120.90059662 194.88883972 122.79152679 195.83956909 125.14228821 196.95115662 C 127.98002625 198.15403748 131.14677429 199.61251831 134.61051941 201.35963440 C 138.40998840 203.11097717 142.46463013 204.98170471 146.68678284 206.91847229 C 150.98799133 209.05320740 155.43484497 211.22259521 159.93624878 213.31367493 C 164.57182312 215.28659058 168.99975586 217.32685852 173.20242310 219.55284119 C 177.24903870 221.62153625 181.27098083 223.41189575 185.05830383 225.10647583 C 188.48545837 226.60247803 191.62809753 227.99783325 194.30943298 229.23646545 C 196.48596191 230.27545166 198.11602783 231.26803589 199.07556152 232.27732849 C 199.28662109 233.35800171 199.03605652 234.42840576 198.32548523 235.30328369 C 197.30793762 235.76228333 195.96551514 235.66670227 194.30282593 235.05799866 C 192.17326355 234.16644287 189.67448425 233.29541016 186.85783386 232.41824341 C 183.75289917 231.31929016 180.44029236 230.22230530 176.89103699 229.07507324 C 173.17813110 227.98188782 169.42012024 226.72735596 165.68205261 225.31843567 C 161.79492188 223.99902344 157.68595886 222.72096252 153.60278320 221.40026855 C 149.59661865 220.12261963 145.62765503 218.65708923 141.56280518 217.32098389 C 137.42712402 216.02934265 133.31918335 214.76034546 112.95529175 207.94749451" stroke-width="1.39843297" fill="rgb(239, 54, 35)" opacity="1.0" stroke="rgb(192, 0, 22)" stroke-opacity="0.6121885" stroke-linecap="round" stroke-linejoin="round"/>
    <path d="M 311.19760132 231.48333740 C 318.20739746 228.24748230 325.17468262 224.94282532 332.05548096 221.72814941 C 338.89855957 218.60139465 345.69308472 215.45045471 352.40841675 212.27864075 C 359.00497437 209.15051270 365.53256226 206.08581543 371.82705688 203.15013123 C 377.69555664 200.43022156 382.97506714 197.82189941 387.36743164 195.59367371 C 390.85113525 194.09014893 393.51705933 194.03182983 395.50088501 195.56504822 C 396.93328857 198.66088867 398.15982056 202.37458801 399.54016113 205.64453125 C 401.33282471 207.39971924 403.30334473 207.63240051 404.99743652 206.98648071 C 405.61123657 205.81431580 405.56054688 204.45294189 405.56137085 203.26411438 C 406.18756104 202.56059265 407.20889282 202.47351074 408.19055176 203.03469849 C 408.76174927 204.08058167 408.82977295 205.45419312 408.33587646 206.62339783 C 406.90469360 207.10394287 404.58694458 207.09033203 401.74615479 207.20208740 C 398.70242310 208.31729126 395.24960327 209.91751099 391.38269043 211.45344543 C 386.99636841 213.01162720 382.29580688 214.53810120 377.18240356 216.16601562 C 372.01635742 217.84945679 366.75030518 219.52014160 361.42880249 221.23908997 C 356.11215210 222.91802979 350.95394897 224.60276794 345.88986206 226.26033020 C 341.11978149 227.91178894 336.62631226 229.50260925 332.37530518 230.89399719 C 328.37145996 232.12084961 324.78070068 233.28974915 321.66232300 234.36587524 C 319.08282471 235.31527710 316.95315552 236.07984924 315.27291870 236.54454041 C 314.01672363 236.65747070 313.25396729 236.39639282 312.77017212 235.78375244 C 312.52722168 234.96995544 312.29580688 234.19198608 311.19760132 231.48333740" stroke-width="0.30515566" fill="rgb(232, 55, 29)" opacity="1.0" stroke="rgb(132, 44, 24)" stroke-opacity="0.420185" stroke-linecap="round" stroke-linejoin="round"/>
    <path d="M 370.03924561 156.08581543 C 372.77627563 159.65148926 375.14178467 162.67280579 377.06970215 164.55975342 C 378.57974243 164.33216858 380.01687622 162.85414124 381.62234497 161.39886475 C 383.46603394 160.93202209 385.31988525 161.56343079 387.08529663 163.13827515 C 388.48471069 165.20332336 389.37951660 167.13572693 389.76162720 168.58316040 C 389.33975220 168.90759277 388.29830933 168.18290710 386.99600220 166.65989685 C 385.96038818 164.60104370 384.94595337 162.59721375 383.63247681 161.24015808 C 382.08612061 161.08815002 380.62176514 162.01535034 378.91549683 163.94496155 C 378.00399780 166.61070251 376.85208130 169.58158875 374.30233765 172.48060608 C 370.45779419 175.31446838 365.84280396 178.48716736 360.58926392 181.92117310 C 354.92581177 185.58952332 349.21810913 189.70396423 343.41021729 193.84408569 C 337.75836182 197.90565491 332.15902710 201.72512817 326.80102539 205.42768860 C 321.81881714 208.84793091 317.39974976 212.00967407 313.62649536 214.80680847 C 310.40887451 217.15725708 307.77404785 218.86241150 305.82836914 219.81079102 C 304.40866089 219.67910767 303.48410034 218.70080566 303.01651001 217.30772400 C 303.12493896 215.74661255 304.07803345 214.22093201 305.84149170 212.51049805 C 308.20727539 210.60829163 310.89501953 208.22486877 313.92471313 205.46679688 C 317.28961182 202.49334717 320.92095947 199.25474548 324.75885010 195.77981567 C 328.79492188 192.17506409 333.04052734 188.46072388 337.36206055 184.55499268 C 341.69909668 180.54878235 346.17315674 176.62356567 350.88687134 172.78051758 C 355.45349121 168.76350403 359.97534180 164.76286316 370.03924561 156.08581543" stroke-width="0.74794000" fill="rgb(235, 54, 34)" opacity="1.0" stroke="rgb(121, 0, 32)" stroke-opacity="0.4890272" stroke-linecap="round" stroke-linejoin="round"/>
    <path d="M 223.01367188 357.42343140 C 226.67146301 362.11968994 230.84681702 365.34179688 235.60992432 366.74063110 C 240.10115051 365.88354492 243.93237305 365.83285522 246.27285767 367.69338989 C 246.69795227 370.08859253 244.76258850 371.31286621 240.71527100 371.19311523 C 235.36915588 370.62039185 230.40997314 368.71130371 226.48741150 365.11209106 C 222.92344666 362.44158936 218.97743225 362.58312988 214.72616577 365.08676147 C 210.84112549 369.21578979 207.12210083 373.95236206 202.88710022 378.05761719 C 197.62327576 379.96496582 192.39364624 381.47396851 187.41790771 382.90386963 C 182.81523132 383.49993896 178.70129395 382.78311157 174.88877869 381.32592773 C 170.77447510 380.93566895 166.99972534 380.75524902 163.41323853 380.27978516 C 160.36480713 378.87182617 157.72401428 376.46905518 154.89048767 373.70709229 C 151.90608215 370.73965454 148.84135437 367.70474243 145.78141785 364.64633179 C 142.91790771 361.66970825 140.41221619 358.81402588 138.22973633 356.33834839 C 137.10729980 353.88043213 136.96025085 351.56088257 137.64660645 349.50460815 C 139.14309692 347.75167847 141.44224548 346.29748535 144.40487671 345.20309448 C 147.65264893 344.59960938 151.12329102 344.48608398 154.72433472 344.92718506 C 158.50425720 345.68426514 162.19792175 345.79165649 165.92971802 344.99652100 C 169.69488525 343.59616089 173.21430969 341.61465454 176.57717896 339.58090210 C 180.35546875 338.05856323 184.32481384 337.96585083 188.80288696 338.67907715 C 193.57720947 340.05194092 198.38728333 341.92681885 203.35186768 344.74508667 C 207.79991150 348.53475952 211.96023560 352.87097168 223.01367188 357.42343140" stroke-width="2.00000000" fill="rgb(61, 103, 75)" opacity="1.0" stroke="rgb(255, 255, 255)" stroke-opacity="0.31293893" stroke-linecap="round" stroke-linejoin="round"/>
    <path d="M 358.50732422 372.22357178 C 356.38293457 374.81787109 354.30648804 377.29650879 352.27432251 379.56738281 C 350.15176392 381.47448730 348.03067017 382.94058228 345.98156738 383.78985596 C 343.97338867 384.06811523 342.10787964 383.72528076 340.26107788 383.05728149 C 338.35513306 382.39178467 336.14956665 382.09133911 333.80273438 382.39041138 C 331.35552979 382.97793579 328.84762573 383.41580200 326.14517212 383.06054688 C 323.22436523 382.24703979 320.22467041 381.57925415 317.39630127 380.47073364 C 314.55825806 379.52786255 311.78427124 378.88388062 309.32391357 378.22866821 C 307.26287842 377.18222046 305.53497314 375.76565552 304.15643311 373.82525635 C 303.13391113 371.56393433 302.76403809 369.19729614 302.74215698 366.75003052 C 303.00762939 364.15341187 303.45983887 361.56750488 304.46997070 359.16668701 C 305.97387695 356.85513306 307.78662109 354.71249390 309.76260376 352.86788940 C 311.97912598 351.23568726 314.46856689 349.88568115 317.08358765 348.84570312 C 319.81585693 348.04699707 322.75692749 347.44415283 325.73873901 347.23425293 C 328.70223999 347.20471191 331.57449341 347.28485107 334.41052246 347.56036377 C 337.19522095 348.08898926 340.04010010 348.81210327 342.68222046 349.76525879 C 345.18585205 350.83831787 347.52603149 351.97937012 349.83874512 353.16375732 C 352.06375122 354.36285400 354.17648315 355.57128906 356.06497192 356.93084717 C 357.89849854 358.39190674 359.55850220 360.01986694 361.20440674 361.69802856 C 362.75631714 363.36691284 364.17630005 364.96142578 365.54251099 366.51467896 C 367.00503540 368.11758423 368.51193237 369.75607300 358.50732422 372.22357178" stroke-width="2.00000000" fill="rgb(87, 141, 71)" opacity="1.0" stroke="rgb(252, 251, 255)" stroke-opacity="1.0" stroke-linecap="round" stroke-linejoin="round"/>
    <path d="M 320.14071655 255.10809326 C 328.18557739 255.19966125 336.24313354 255.16116333 344.25100708 255.21925354 C 352.21093750 255.17419434 360.02658081 255.09341431 367.58374023 255.12872314 C 374.75305176 255.22201538 381.48132324 255.27174377 387.77673340 255.14051819 C 393.63681030 255.05838013 398.84512329 255.18902588 403.00564575 255.35882568 C 406.14166260 255.27888489 408.31015015 253.98695374 410.24209595 251.92651367 C 412.58340454 250.41577148 415.30847168 250.09866333 418.34628296 250.65002441 C 421.42297363 250.59921265 424.28854370 250.33396912 426.64422607 250.66618347 C 428.73794556 251.27645874 429.96710205 252.06692505 430.47460938 252.38041687 C 430.22186279 252.25833130 429.47235107 251.57460022 427.78271484 251.00683594 C 425.72879028 250.30439758 423.14385986 250.13458252 420.29949951 250.54133606 C 417.32937622 251.27398682 414.58053589 251.29429626 411.90661621 251.08714294 C 409.42031860 252.07072449 408.16055298 253.76306152 408.68179321 256.57376099 C 408.87811279 260.08325195 408.74279785 263.25109863 407.91262817 264.97341919 C 405.40478516 264.01254272 401.86523438 263.07098389 397.45962524 263.59698486 C 392.45498657 265.08413696 387.69082642 267.16983032 382.69424438 267.98190308 C 377.40435791 267.85336304 372.34399414 266.27020264 367.71432495 263.93469238 C 363.12741089 262.67373657 358.67355347 262.78881836 354.55361938 264.40231323 C 350.29373169 266.60852051 345.48281860 267.82534790 340.51528931 268.01602173 C 335.41720581 267.09967041 330.42883301 265.21096802 325.49038696 262.92538452 C 320.34210205 260.46945190 315.18847656 258.00158691 320.14071655 255.10809326" stroke-width="0.86304080" fill="rgb(9, 37, 72)" opacity="1.0" stroke="rgb(233, 255, 192)" stroke-opacity="0.5004642" stroke-linecap="round" stroke-linejoin="round"/>
    <path d="M 210.61663818 250.21064758 C 207.63720703 254.74351501 205.95610046 258.53601074 206.86399841 260.82064819 C 209.60823059 260.73617554 212.65408325 258.44876099 215.57373047 255.47798157 C 218.02494812 253.76170349 218.75299072 254.72207642 217.53021240 257.75320435 C 214.44223022 261.63031006 210.18376160 265.60324097 205.93333435 268.76864624 C 202.18162537 269.21453857 198.33442688 267.67245483 194.56709290 265.41220093 C 190.47369385 263.74249268 185.91812134 263.28610229 181.45158386 264.04132080 C 177.17033386 265.72134399 172.68954468 267.39395142 168.45979309 268.00823975 C 164.10781860 267.90026855 159.80973816 266.93341064 155.77407837 265.16726685 C 152.03094482 263.39321899 148.22143555 262.57135010 144.28036499 263.14172363 C 140.01176453 264.25357056 136.03079224 266.03253174 131.71234131 267.59173584 C 127.32450104 268.25430298 123.19336700 267.94100952 119.39487457 266.42144775 C 115.54367828 264.56515503 111.79309845 263.53622437 108.44319153 263.18374634 C 105.91677856 263.41122437 104.34663391 263.83459473 103.58419800 263.40521240 C 103.41606903 261.61825562 103.43933868 259.32998657 103.28424072 257.10137939 C 103.19716644 255.53717041 103.97802734 254.96914673 106.08334351 255.11036682 C 109.46109772 255.26039124 113.85108948 255.24395752 119.15429688 255.17074585 C 125.29237366 255.21635437 132.01664734 255.15141296 139.16113281 255.25268555 C 146.55038452 255.39358521 154.29312134 255.28135681 162.26684570 255.38560486 C 170.33671570 255.11544800 178.44052124 255.16607666 186.56611633 255.25030518 C 194.53981018 255.36872864 202.44050598 255.88056946 210.61663818 250.21064758" stroke-width="1.77170396" fill="rgb(8, 39, 73)" opacity="1.0" stroke="rgb(226, 255, 255)" stroke-opacity="0.19084944" stroke-linecap="round" stroke-linejoin="round"/>
    <path d="M 341.65878296 316.48294067 C 340.49307251 319.51419067 339.62249756 322.55337524 338.90243530 325.62753296 C 338.07641602 328.57806396 336.87786865 331.21759033 335.25024414 333.44033813 C 333.03158569 335.07061768 330.51657104 336.38479614 327.75817871 337.71002197 C 324.95294189 339.32150269 322.09661865 341.03088379 319.00823975 342.69137573 C 316.22500610 345.39147949 313.70117188 348.50433350 311.15426636 351.66354370 C 308.53186035 354.73394775 305.87860107 357.61166382 303.79144287 360.45764160 C 301.95556641 362.70535278 300.02514648 364.14285278 297.75561523 364.53390503 C 295.18377686 363.91217041 292.32427979 363.19677734 289.40499878 362.66510010 C 286.95510864 362.82846069 285.40127563 363.02111816 285.09252930 362.50930786 C 286.05581665 361.26141357 287.80621338 359.32543945 289.75134277 357.17843628 C 291.48754883 354.79119873 292.37686157 352.22009277 293.08352661 350.42028809 C 293.96163940 350.27532959 295.07775879 351.31890869 296.41705322 351.91067505 C 298.59844971 351.05990601 301.63568115 349.47994995 305.46716309 347.60433960 C 309.72177124 345.06002808 314.01788330 341.33090210 317.88110352 336.13446045 C 322.04974365 330.46417236 325.78640747 325.00686646 328.12750244 320.97186279 C 328.11883545 319.19897461 326.36123657 319.41525269 324.20962524 319.92837524 C 323.96270752 319.31134033 325.51016235 318.06011963 328.01062012 315.65475464 C 330.10736084 312.58615112 331.37719727 309.24209595 333.02551270 306.60601807 C 336.01773071 306.37304688 339.98107910 307.82168579 344.52725220 309.96176147 C 349.47567749 312.40963745 354.64678955 314.89724731 341.65878296 316.48294067" stroke-width="2.00000000" fill="rgb(2, 30, 75)" opacity="1.0" stroke="rgb(247, 255, 255)" stroke-opacity="0.21938199" stroke-linecap="round" stroke-linejoin="round"/>
    <path d="M 204.99429321 301.67428589 C 203.05282593 305.20004272 201.10646057 308.81082153 199.47729492 311.86041260 C 198.34291077 314.62341309 197.52708435 316.64157104 197.02824402 317.38330078 C 196.19703674 316.46072388 194.44303894 315.28372192 191.74523926 313.78475952 C 188.57353210 312.29904175 185.04084778 311.19329834 180.79820251 310.60366821 C 176.84100342 310.57781982 172.83570862 311.46875000 168.88189697 313.31625366 C 165.09658813 315.25045776 161.37028503 317.08221436 157.41690063 317.94497681 C 153.44361877 317.98507690 149.70700073 317.32290649 146.07142639 315.52725220 C 142.41380310 313.35327148 138.48844910 311.75195312 134.29380798 310.88470459 C 130.22828674 310.66912842 126.54666901 311.42395020 123.13651276 312.67245483 C 120.25048065 313.93710327 118.11408997 315.27886963 116.95656586 315.63125610 C 116.18740845 314.29650879 115.35022736 311.95697021 114.41324615 309.43646240 C 113.50345612 306.80181885 112.69739532 304.54205322 112.42156982 303.11163330 C 113.34253693 302.80755615 114.90036774 302.69699097 117.22153473 301.86318970 C 120.19168091 300.69647217 123.54154205 299.26406860 127.01884460 298.04141235 C 130.63409424 296.96636963 134.36843872 296.93170166 138.15910339 297.81167603 C 141.93759155 299.31082153 145.57640076 301.23318481 149.36445618 302.99658203 C 153.30085754 304.06433105 157.41062927 304.32525635 161.45370483 304.08090210 C 165.58489990 303.11059570 169.52595520 301.53173828 173.09159851 299.42459106 C 176.82316589 297.73791504 180.50318909 296.93661499 184.51289368 297.18576050 C 188.28717041 297.92092896 191.92037964 299.46786499 204.99429321 301.67428589" stroke-width="1.88161743" fill="rgb(3, 36, 84)" opacity="1.0" stroke="rgb(0, 28, 69)" stroke-opacity="0.9941281" stroke-linecap="round" stroke-linejoin="round"/>
    <path d="M 195.96478271 336.98464966 C 193.41932678 335.33050537 190.91073608 333.96566772 187.92120361 333.05941772 C 184.91487122 332.70443726 181.81796265 332.65963745 178.56962585 332.85775757 C 175.35865784 334.00997925 172.02342224 335.53521729 168.92065430 337.38330078 C 165.76982117 338.96322632 162.28182983 339.65631104 159.05972290 339.76449585 C 155.90631104 339.11538696 152.60519409 337.69824219 149.53254700 335.88076782 C 146.50689697 334.08438110 143.42980957 332.99917603 140.06271362 332.35647583 C 136.78268433 332.14532471 133.88327026 332.42803955 131.53742981 333.30004883 C 129.43510437 334.44088745 127.76953125 335.31384277 126.84938812 335.57226562 C 125.64385986 333.94738770 124.41361237 331.58062744 123.19168854 328.96597290 C 121.67501831 326.09628296 120.39015198 323.73272705 119.89890289 322.02197266 C 121.17671204 321.01849365 123.54025269 320.28454590 126.50783539 319.44241333 C 129.86434937 318.62271118 133.30831909 318.50869751 136.72351074 319.51129150 C 140.27757263 321.22592163 143.82945251 323.13882446 147.68789673 324.75994873 C 151.72450256 325.73416138 155.70024109 326.01257324 159.54081726 325.61859131 C 163.21096802 324.87506104 166.56880188 323.36593628 169.75552368 321.62252808 C 172.62300110 319.93170166 175.71826172 318.86154175 178.60108948 318.22866821 C 181.43826294 318.11956787 184.23374939 318.63095093 186.95922852 319.21612549 C 189.33303833 320.24960327 191.48287964 320.94320679 193.41297913 321.33923340 C 194.89648438 321.15560913 196.02246094 320.94494629 196.40960693 321.15698242 C 195.95677185 321.67504883 194.90960693 322.27633667 195.96478271 336.98464966" stroke-width="1.94897175" fill="rgb(4, 36, 83)" opacity="1.0" stroke="rgb(1, 29, 68)" stroke-opacity="0.9950513" stroke-linecap="round" stroke-linejoin="round"/>
    <path d="M 397.79721069 315.09518433 C 394.51013184 313.70803833 391.37469482 312.91073608 388.03408813 312.80059814 C 384.63330078 313.42938232 381.35769653 314.83639526 377.81039429 316.88580322 C 374.00900269 318.98992920 370.08932495 320.16061401 365.69427490 319.99029541 C 360.51168823 318.87731934 355.31860352 316.78259277 349.32431030 314.84591675 C 343.82901001 311.53350830 338.91964722 308.28750610 334.37985229 306.56771851 C 330.49877930 307.17773438 326.27703857 309.62789917 321.63159180 311.49676514 C 317.19628906 311.90396118 314.80505371 315.19674683 311.72552490 319.52206421 C 303.76577759 319.45706177 296.34445190 319.50817871 294.11105347 317.98226929 C 300.68060303 316.19842529 310.34539795 312.66409302 316.87774658 306.35797119 C 317.73031616 302.80044556 312.91592407 304.22375488 306.33459473 306.01531982 C 305.06210327 304.14425659 310.23327637 301.43994141 317.28240967 297.52215576 C 323.01583862 295.14956665 328.76522827 296.96340942 334.03463745 299.06405640 C 338.61834717 297.76782227 343.27932739 295.82733154 348.35720825 295.16360474 C 353.18176270 295.47164917 357.33410645 297.07623291 361.25158691 299.55593872 C 365.29754639 301.42013550 369.54272461 302.27319336 373.70178223 302.41442871 C 377.70773315 302.05380249 381.36752319 300.82513428 384.70074463 298.95117188 C 387.72256470 297.17996216 390.57144165 295.95309448 393.32916260 295.42648315 C 395.82763672 295.17135620 398.00469971 295.24102783 399.57983398 295.54440308 C 400.90866089 295.96591187 402.06201172 296.21859741 403.21130371 296.57910156 C 403.75735474 296.74279785 404.10803223 296.75280762 397.79721069 315.09518433" stroke-width="2.00000000" fill="rgb(9, 37, 81)" opacity="1.0" stroke="rgb(201, 255, 255)" stroke-opacity="0.24728303" stroke-linecap="round" stroke-linejoin="round"/>
    <path d="M 197.62617493 332.28631592 C 198.70585632 337.58557129 201.16969299 342.53894043 204.73393250 346.75991821 C 208.65280151 350.30679321 212.99606323 352.58529663 217.46255493 353.47564697 C 220.92741394 353.85266113 222.64636230 355.36599731 222.23951721 357.14483643 C 219.53091431 357.94186401 214.96742249 358.07498169 209.19929504 357.47958374 C 203.09022522 355.54086304 196.65339661 353.44238281 189.72924805 352.23739624 C 182.74082947 351.86288452 176.04429626 352.27780151 169.73556519 353.38955688 C 164.13241577 354.73034668 159.64846802 356.62606812 156.63150024 359.05010986 C 155.02752686 361.91543579 154.59791565 365.03085327 154.74339294 368.05441284 C 154.92166138 370.55215454 154.69837952 372.04159546 153.73593140 372.16186523 C 151.82716370 370.97842407 149.50581360 368.67575073 146.78042603 365.40966797 C 143.53298950 361.91598511 140.16519165 358.17794800 137.05477905 354.37808228 C 134.23274231 350.71505737 131.82754517 347.38787842 129.99821472 344.52395630 C 128.42268372 342.59826660 127.58262634 341.47439575 128.16130066 340.48175049 C 129.97306824 339.79815674 132.57980347 338.99975586 135.69552612 338.13098145 C 138.95094299 337.87554932 142.32174683 338.84381104 145.92733765 340.53381348 C 149.47285461 342.77355957 153.28500366 344.75741577 157.44883728 345.89190674 C 161.40458679 346.17816162 165.30027771 345.39370728 169.08898926 343.92294312 C 172.75469971 342.05456543 176.36199951 339.96789551 179.90238953 338.46734619 C 183.81913757 337.91851807 187.67514038 338.48992920 191.23449707 339.67645264 C 194.15353394 341.53424072 196.50625610 343.78076172 197.62617493 332.28631592" stroke-width="2.00000000" fill="rgb(6, 36, 78)" opacity="1.0" stroke="rgb(255, 255, 255)" stroke-opacity="0.13443659" stroke-linecap="round" stroke-linejoin="round"/>
    <path d="M 192.75016785 291.98931885 C 189.20709229 290.77230835 185.68911743 289.89303589 182.02571106 289.87435913 C 178.39671326 289.82617188 174.87799072 290.56549072 171.40423584 291.96640015 C 167.86814880 293.69927979 164.37145996 295.20806885 160.96047974 296.39736938 C 157.51551819 296.75335693 153.96862793 296.14093018 150.57110596 295.09533691 C 147.34550476 293.42739868 143.88644409 291.68496704 140.28813171 290.42013550 C 136.64837646 289.49496460 132.91345215 289.12176514 128.90364075 289.67288208 C 124.85854340 290.85699463 120.97938538 292.35668945 117.63441467 294.17279053 C 114.66059113 295.71914673 112.05664062 296.37588501 110.40261078 295.95092773 C 109.64194489 294.09371948 109.18997192 291.37100220 108.75315857 288.26956177 C 108.14700317 285.30334473 107.45508575 283.22241211 107.72189331 282.10656738 C 109.41737366 281.88351440 112.61299133 282.84997559 116.39568329 284.67825317 C 120.27408600 286.68527222 124.65757751 287.44213867 129.36105347 287.08288574 C 133.91461182 286.09805298 137.81091309 284.23632812 141.71440125 282.44497681 C 145.65751648 281.71249390 149.38491821 282.18209839 153.03176880 283.60443115 C 156.94818115 285.46276855 160.77410889 286.75216675 164.99000549 287.03973389 C 169.46806335 286.62719727 173.75050354 285.42709351 177.72785950 283.50308228 C 181.87663269 282.04180908 186.05169678 281.65786743 190.15599060 281.71496582 C 194.14073181 281.31259155 197.71281433 280.91732788 200.66969299 281.23999023 C 202.87246704 283.15655518 204.51153564 286.29479980 205.87081909 290.34356689 C 206.95864868 294.92691040 207.96295166 299.68426514 192.75016785 291.98931885" stroke-width="2.00000000" fill="rgb(5, 35, 86)" opacity="1.0" stroke="rgb(0, 29, 69)" stroke-opacity="0.98821276" stroke-linecap="round" stroke-linejoin="round"/>
    <path d="M 142.40408325 268.17050171 C 146.29127502 267.52874756 150.02239990 267.73214722 153.72467041 269.08715820 C 157.41043091 270.84600830 161.10643005 272.14782715 165.16127014 272.62393188 C 169.15379333 272.54870605 172.91189575 271.69482422 176.52836609 270.15264893 C 180.14701843 268.43997192 183.72879028 267.40515137 187.22734070 267.20373535 C 190.85948181 267.95150757 194.52113342 268.67462158 198.10836792 268.99606323 C 200.98638916 269.05282593 202.98454285 269.40896606 203.89201355 270.46508789 C 203.39979553 272.31268311 201.99650574 274.67202759 200.10290527 276.77902222 C 197.29940796 277.56323242 193.92344666 277.57873535 190.19735718 276.84597778 C 186.35200500 275.74887085 182.52195740 275.55581665 178.47389221 276.67272949 C 174.26875305 278.65023804 169.64089966 279.98300171 164.96296692 280.29251099 C 160.37229919 279.26330566 156.01530457 277.26287842 151.47552490 275.51931763 C 146.94204712 274.45178223 142.62075806 274.46423340 138.51705933 276.02603149 C 134.47416687 278.24136353 130.47463989 279.67459106 126.15424347 280.05273438 C 121.97228241 279.65081787 118.32682037 278.08041382 114.85233307 276.23367310 C 111.50379181 275.12921143 108.53269196 274.84558105 106.46786499 274.61871338 C 105.87133789 273.14968872 105.99152374 271.03820801 106.01706696 269.03475952 C 105.62636566 267.69067383 106.35433960 267.38998413 108.24137115 267.61425781 C 110.57579803 267.85916138 113.43746185 268.70806885 116.27579498 269.86444092 C 119.21807861 271.23889160 122.44402313 272.25610352 125.83724976 272.52752686 C 129.43818665 272.77050781 132.87530518 273.04318237 142.40408325 268.17050171" stroke-width="2.00000000" fill="rgb(5, 39, 84)" opacity="1.0" stroke="rgb(10, 36, 73)" stroke-opacity="0.99560064" stroke-linecap="round" stroke-linejoin="round"/>
    <path d="M 401.86843872 292.43502808 C 398.30130005 291.62695312 394.62759399 291.43695068 391.00390625 291.89508057 C 387.43484497 293.22677612 383.95776367 295.04266357 380.25418091 296.98098755 C 376.61880493 298.53890991 372.72070312 298.88348389 368.57339478 298.30255127 C 364.47183228 296.90304565 360.39819336 294.88497925 355.87634277 292.90496826 C 351.22140503 291.45260620 346.57006836 291.30505371 341.85610962 293.09390259 C 336.99188232 295.71289062 332.42388916 297.99340820 327.81268311 298.58889771 C 323.97961426 298.04498291 321.28945923 296.66680908 320.87652588 294.20068359 C 322.67694092 290.99868774 324.39682007 288.26315308 323.79403687 286.88677979 C 320.65219116 288.97515869 316.17654419 291.27728271 310.57873535 292.99032593 C 306.21817017 294.43371582 304.20269775 294.18313599 306.11218262 292.87759399 C 310.84225464 290.88031006 316.30813599 287.44601440 320.83868408 282.84771729 C 324.93145752 280.15536499 329.27783203 280.26016235 333.51165771 282.07891846 C 337.56948853 284.08987427 342.10916138 284.81567383 346.97753906 283.95678711 C 351.65686035 282.25708008 356.54907227 280.44873047 361.31127930 279.99807739 C 366.27841187 280.67642212 371.09451294 282.61688232 375.47952271 284.70605469 C 379.66870117 285.70275879 383.80938721 285.15139771 387.88699341 283.68942261 C 391.70468140 282.01040649 395.32171631 280.44879150 398.77664185 279.88568115 C 401.95474243 280.24539185 404.96585083 280.63589478 406.72195435 281.40771484 C 406.75100708 283.19976807 406.17514038 285.90505981 405.36209106 288.77679443 C 404.85876465 291.51971436 405.36688232 294.59481812 401.86843872 292.43502808" stroke-width="2.00000000" fill="rgb(8, 37, 81)" opacity="1.0" stroke="rgb(247, 255, 255)" stroke-opacity="0.5705053" stroke-linecap="round" stroke-linejoin="round"/>
    <path d="M 399.02761841 334.59918213 C 394.07934570 340.56826782 388.92633057 346.15127563 383.30734253 351.31018066 C 377.45394897 356.14709473 371.61984253 360.63793945 366.16708374 364.59146118 C 361.72622681 368.15313721 358.13595581 370.93380737 355.42276001 372.42816162 C 353.49642944 372.39767456 352.58056641 371.29260254 352.97888184 369.59698486 C 354.77792358 367.81579590 356.74774170 365.73254395 357.80255127 363.14382935 C 357.14508057 360.34945679 354.79507446 357.83001709 350.99993896 355.81182861 C 346.14614868 354.10610962 340.59469604 352.86563110 334.71090698 352.15988159 C 328.86508179 351.71432495 323.33480835 351.99667358 318.23156738 352.74960327 C 313.87603760 353.77322388 310.54907227 354.85134888 308.46676636 355.37542725 C 307.69018555 354.61532593 308.01452637 352.79211426 309.22253418 350.36148071 C 311.38815308 347.80426025 314.43627930 345.49392700 318.08810425 343.75399780 C 321.90292358 343.21682739 325.64212036 342.26330566 329.24597168 340.39129639 C 332.65045166 338.70718384 336.37255859 338.04388428 340.37289429 338.40832520 C 344.46899414 339.14935303 348.32922363 340.91738892 352.17745972 343.19628906 C 356.31481934 345.23010254 360.65802002 345.88696289 365.12454224 345.13772583 C 369.63485718 343.44250488 373.72457886 341.39456177 378.42816162 340.13415527 C 383.68634033 339.94705200 388.81552124 338.54452515 393.62994385 335.54586792 C 398.08102417 330.48675537 402.22299194 323.93240356 405.79000854 316.30578613 C 408.80303955 307.39965820 411.10540771 297.40713501 412.62908936 286.75534058 C 414.15487671 276.19558716 416.62426758 266.05114746 399.02761841 334.59918213" stroke-width="0.27736855" fill="rgb(4, 35, 78)" opacity="1.0" stroke="rgb(0, 71, 106)" stroke-opacity="0.51382244" stroke-linecap="round" stroke-linejoin="round"/>
    <path d="M 326.40533447 267.19769287 C 330.80749512 268.35687256 334.98107910 269.45193481 338.99307251 270.36480713 C 342.61334229 271.00738525 346.01950073 270.70983887 349.32583618 269.50851440 C 352.54760742 267.73669434 355.88131714 266.48550415 359.51370239 265.86917114 C 363.04986572 265.74102783 366.58856201 266.42465210 370.21554565 267.78057861 C 373.62097168 269.48226929 377.21081543 270.36047363 381.10586548 270.68499756 C 384.98895264 270.55569458 388.52645874 269.50482178 391.92211914 267.74548340 C 395.37927246 266.35031128 399.01196289 265.77972412 402.22082520 265.48895264 C 405.05334473 266.03198242 407.20510864 266.62255859 408.54443359 267.47311401 C 408.42843628 269.24703979 408.01397705 271.69720459 407.87112427 274.26953125 C 407.70724487 276.35946655 407.38552856 277.69335938 406.33938599 278.02682495 C 404.40402222 277.29977417 401.42337036 276.77444458 397.96127319 276.94717407 C 394.42086792 277.39102173 390.97528076 278.80404663 387.66152954 280.65048218 C 384.21963501 281.67129517 380.65405273 282.09912109 376.80444336 281.62908936 C 373.08663940 280.40750122 369.41732788 278.64532471 365.76873779 277.13485718 C 361.69839478 276.43899536 357.55206299 276.80804443 353.73797607 278.00302124 C 349.98400879 279.55957031 346.54913330 281.32400513 343.32150269 282.37365723 C 340.08605957 282.47650146 336.93057251 281.96136475 333.86370850 281.26049805 C 330.43020630 281.34234619 326.98760986 281.44088745 324.19183350 281.59921265 C 322.31210327 281.85519409 321.43069458 281.66281128 321.63916016 280.90829468 C 322.92245483 280.05117798 324.97897339 279.47207642 326.40533447 267.19769287" stroke-width="2.00000000" fill="rgb(5, 35, 79)" opacity="1.0" stroke="rgb(248, 255, 255)" stroke-opacity="0.32403556" stroke-linecap="round" stroke-linejoin="round"/>
    <path d="M 312.96215820 412.63021851 C 307.41473389 415.15667725 301.81250000 417.45394897 296.27331543 419.34439087 C 290.92193604 420.79150391 285.94506836 421.60525513 281.46237183 421.84121704 C 277.73468018 420.93014526 274.77844238 419.21624756 272.55419922 417.08517456 C 270.87039185 414.55120850 269.73611450 411.53665161 268.80697632 408.23007202 C 267.36782837 404.87332153 265.54904175 401.48983765 263.78866577 398.03302002 C 262.63409424 394.47781372 262.30258179 390.81466675 262.93600464 387.25714111 C 264.23034668 383.95840454 265.64236450 381.09118652 266.48123169 378.46395874 C 266.60064697 376.11721802 266.05117798 374.12643433 264.86352539 372.32086182 C 263.36514282 371.09906006 261.70074463 370.31066895 260.15942383 369.82525635 C 258.98864746 369.63046265 258.62301636 369.57992554 258.95568848 369.28494263 C 260.04077148 368.92529297 261.40203857 368.41400146 262.65002441 367.30819702 C 263.80963135 365.98812866 264.46759033 365.28268433 264.94845581 365.71502686 C 265.30371094 367.23501587 265.51211548 369.77288818 265.36331177 372.90942383 C 266.49914551 376.05511475 267.99359131 379.27838135 268.18695068 383.08377075 C 266.92507935 387.29638672 265.02062988 391.27416992 263.10992432 394.40060425 C 262.56445312 396.61282349 263.35906982 397.53686523 265.54699707 397.25900269 C 269.31735229 395.91961670 274.10961914 394.46267700 279.42184448 393.82812500 C 284.71911621 394.27947998 289.99893188 396.32751465 295.57614136 398.22171021 C 301.54962158 399.50411987 307.85989380 398.90472412 314.70715332 396.45498657 C 321.93322754 392.69094849 329.38436890 388.26083374 312.96215820 412.63021851" stroke-width="1.25256741" fill="rgb(6, 37, 90)" opacity="1.0" stroke="rgb(0, 18, 66)" stroke-opacity="0.9639751" stroke-linecap="round" stroke-linejoin="round"/>
    <path d="M 395.67233276 318.31896973 C 394.10995483 323.10278320 392.44155884 327.52157593 390.76400757 331.55770874 C 388.96136475 334.83666992 386.74905396 336.89651489 384.06680298 337.66726685 C 381.25073242 337.41589355 378.15139771 337.13995361 374.67404175 337.74624634 C 371.18090820 338.98394775 367.51553345 340.32803345 363.65652466 341.18066406 C 359.82714844 341.49951172 356.03848267 340.46304321 352.06658936 338.69610596 C 348.31402588 336.53250122 344.30654907 334.97283936 340.19430542 334.20892334 C 336.04919434 333.96475220 332.21020508 334.99603271 328.87487793 336.67233276 C 326.01745605 338.58850098 323.72674561 340.19244385 321.90844727 340.50592041 C 320.61038208 339.05999756 320.01712036 336.48095703 320.43887329 333.23431396 C 322.27597046 329.72769165 324.54437256 326.04528809 326.85116577 322.65032959 C 328.83438110 320.03985596 330.95727539 318.98190308 333.69619751 319.57012939 C 337.03054810 319.90823364 340.84893799 318.97799683 344.90261841 317.81286621 C 348.94897461 317.57516479 352.76284790 318.67150879 356.69915771 320.83456421 C 360.66687012 322.80999756 364.71649170 323.84472656 368.95483398 323.73086548 C 373.02798462 323.15921021 376.68118286 321.83255005 380.03665161 319.92242432 C 383.31680298 318.23733521 386.52883911 317.14117432 389.38046265 316.71264648 C 391.86984253 316.68005371 394.04666138 317.28775024 396.08020020 318.29684448 C 397.96292114 319.34863281 399.78717041 320.25878906 401.69015503 320.98861694 C 403.78366089 321.48706055 405.84628296 321.80075073 407.77578735 321.99682617 C 409.60488892 322.19180298 411.49761963 322.40026855 395.67233276 318.31896973" stroke-width="2.00000000" fill="rgb(7, 35, 79)" opacity="1.0" stroke="rgb(255, 255, 255)" stroke-opacity="0.36062524" stroke-linecap="round" stroke-linejoin="round"/>
    <path d="M 349.17776489 387.28182983 C 341.07022095 392.98376465 332.67703247 398.13671875 323.82092285 402.61108398 C 314.91577148 406.97500610 305.72430420 410.69348145 296.20526123 413.38900757 C 286.73086548 415.82391357 277.43420410 417.52743530 268.29443359 418.27493286 C 259.28237915 419.03341675 250.12216187 419.00958252 241.10159302 418.23056030 C 232.24078369 417.17074585 223.65206909 415.52697754 215.33340454 413.16180420 C 206.99818420 410.62084961 199.15690613 407.95040894 192.48980713 404.77871704 C 186.39782715 401.77893066 181.78416443 399.32208252 178.76699829 397.44769287 C 177.62838745 396.71536255 178.49613953 396.26773071 180.79309082 395.23934937 C 184.32200623 395.01071167 188.77755737 395.61645508 193.92304993 396.67431641 C 199.59330750 398.06689453 205.66694641 399.85037231 211.98214722 401.92169189 C 218.47909546 403.97393799 225.25202942 406.03988647 232.12730408 408.11938477 C 238.89265442 410.09176636 245.69085693 411.65908813 252.82286072 412.58804321 C 260.26425171 413.16119385 267.86651611 413.26187134 275.89221191 412.61022949 C 284.34570312 411.36843872 293.12506104 409.32434082 302.32586670 406.34390259 C 312.05368042 402.89050293 322.13470459 398.37496948 332.47390747 392.46060181 C 343.36492920 385.55911255 354.34463501 377.12585449 364.70858765 366.37872314 C 375.44085693 355.07983398 384.40444946 342.49734497 390.81784058 330.00076294 C 395.16403198 319.74472046 398.85650635 314.94921875 402.14767456 316.57064819 C 400.86111450 322.09710693 396.04348755 330.97930908 389.57495117 342.28128052 C 381.75640869 354.46218872 373.35012817 366.98559570 349.17776489 387.28182983" stroke-width="1.68606937" fill="rgb(250, 252, 250)" opacity="1.0" stroke="rgb(11, 37, 72)" stroke-opacity="0.9023205" stroke-linecap="round" stroke-linejoin="round"/>
    <path d="M 308.91650391 430.64175415 C 279.49682617 438.88131714 249.74943542 440.95996094 220.17030334 434.99014282 C 191.35211182 427.09759521 167.30848694 416.05874634 152.26954651 402.84130859 C 151.45298767 389.33856201 161.61645508 387.74099731 178.18252563 400.88327026 C 201.66024780 415.40765381 229.77059937 422.61749268 259.24325562 422.64489746 C 287.12002563 421.03649902 310.82250977 413.98974609 329.22311401 404.01614380 C 342.65359497 396.50698853 350.17233276 391.50448608 350.07528687 387.66845703 C 342.86499023 386.20050049 331.82647705 388.78475952 318.71655273 394.30545044 C 305.92620850 400.16616821 293.86953735 404.11026001 283.51602173 405.69445801 C 275.03848267 405.87051392 269.00085449 405.32400513 265.26766968 405.19342041 C 263.60314941 404.35363770 264.22976685 404.09277344 266.77749634 404.14901733 C 271.03497314 405.44610596 277.17828369 406.07135010 285.16445923 405.43835449 C 294.84613037 403.59661865 305.75750732 400.16424561 316.84268188 395.08975220 C 328.09463501 389.71157837 341.13592529 387.26068115 354.81707764 385.81005859 C 367.43518066 377.51296997 379.34127808 364.17565918 390.57257080 347.50329590 C 401.55184937 330.28341675 409.43218994 311.68823242 413.81405640 292.99249268 C 415.63131714 276.04113770 415.63742065 262.49844360 417.38073730 253.38873291 C 422.42343140 249.78031921 428.74661255 250.87307739 433.29705811 256.28906250 C 434.36547852 266.80560303 432.41915894 281.56329346 428.53146362 299.75003052 C 423.58703613 319.99050903 414.78976440 340.69366455 400.78887939 361.33633423 C 383.92471313 383.11474609 367.14044189 407.09558105 308.91650391 430.64175415" stroke-width="2.00000000" fill="rgb(238, 111, 20)" opacity="1.0" stroke="rgb(11, 12, 35)" stroke-opacity="0.8398513" stroke-linecap="round" stroke-linejoin="round"/>
    <path d="M 253.18272400 405.02679443 C 244.27201843 401.41650391 236.58584595 398.94702148 230.14163208 399.25692749 C 226.27168274 400.20727539 226.62599182 400.95574951 231.25813293 401.01797485 C 237.78788757 402.09088135 245.24284363 405.90765381 253.91134644 408.93856812 C 263.06265259 408.78680420 270.66461182 406.73736572 276.97561646 405.58422852 C 281.22445679 407.47836304 281.93878174 410.12060547 278.68206787 412.12429810 C 272.01730347 413.44833374 262.98611450 413.98379517 252.46690369 413.87042236 C 241.16142273 413.68835449 229.85748291 412.05493164 218.89796448 409.16076660 C 208.93197632 406.45397949 200.40255737 403.18850708 193.84788513 399.85733032 C 188.54348755 397.30355835 184.99778748 395.56909180 183.35270691 394.11254883 C 183.55999756 392.75399780 185.45690918 391.81182861 188.65882874 391.33486938 C 192.71321106 391.60205078 197.06474304 392.86215210 201.53140259 394.78094482 C 206.15844727 396.13421631 210.90901184 396.05487061 215.62849426 394.72262573 C 220.36468506 392.80041504 225.17141724 391.38098145 230.22564697 390.96853638 C 234.92149353 391.11514282 239.27963257 392.30908203 243.14294434 393.71893311 C 246.22212219 394.88116455 248.80137634 394.96667480 251.06755066 394.01025391 C 253.07936096 392.65237427 254.67068481 391.36666870 255.87760925 390.64147949 C 257.08837891 390.81320190 258.66442871 391.55017090 260.70684814 392.85742188 C 263.45935059 394.55017090 266.26504517 396.58041382 268.93582153 398.88983154 C 271.32055664 399.98794556 273.14593506 400.29959106 274.01132202 400.75332642 C 273.65432739 401.89859009 272.90219116 403.55853271 253.18272400 405.02679443" stroke-width="2.00000000" fill="rgb(11, 40, 81)" opacity="1.0" stroke="rgb(243, 255, 255)" stroke-opacity="0.4515286" stroke-linecap="round" stroke-linejoin="round"/>
    <path d="M 286.95053101 373.94207764 C 291.38183594 372.51657104 295.47415161 370.40744019 298.90386963 367.68933105 C 301.57373047 364.70056152 304.01055908 362.39120483 306.42849731 361.39089966 C 308.81265259 361.64093018 310.01077271 362.67211914 309.62515259 364.19515991 C 307.83181763 365.55364990 305.84426880 367.00180054 304.86657715 368.81622314 C 305.67108154 370.75653076 308.27877808 372.45211792 312.24929810 373.97421265 C 317.16900635 375.16302490 322.82263184 375.93780518 328.83847046 376.07901001 C 334.94769287 375.87228394 340.57867432 375.08782959 345.41711426 373.91278076 C 349.20892334 372.67337036 351.70346069 371.97665405 352.84555054 372.71643066 C 352.35058594 374.74151611 350.41574097 377.10113525 347.25830078 379.12197876 C 343.16088867 380.19274902 338.32943726 380.23474121 333.10488892 380.45925903 C 328.01165771 380.85418701 323.34722900 380.49105835 319.14288330 378.80215454 C 314.95547485 377.10858154 311.09255981 376.46780396 307.26809692 376.83505249 C 303.60546875 377.40097046 300.50659180 379.14169312 297.47280884 381.50149536 C 293.46798706 383.13824463 289.20657349 384.39385986 284.79455566 385.49017334 C 280.24496460 386.55709839 275.84658813 387.54046631 271.88916016 388.59231567 C 268.50991821 390.19277954 265.78298950 391.80624390 263.39157104 393.23107910 C 261.07067871 393.12545776 259.48992920 392.17135620 258.97268677 390.52224731 C 259.83718872 388.46591187 262.08349609 386.47674561 265.63992310 384.60833740 C 270.23620605 383.45523071 275.68289185 382.68786621 281.77862549 382.02301025 C 288.34878540 381.63513184 295.30572510 381.39028931 286.95053101 373.94207764" stroke-width="2.00000000" fill="rgb(0, 34, 83)" opacity="1.0" stroke="rgb(0, 30, 66)" stroke-opacity="0.9579679" stroke-linecap="round" stroke-linejoin="round"/>
    <path d="M 259.03179932 401.21945190 C 257.35357666 400.13488770 255.67829895 398.99758911 254.25173950 397.86932373 C 252.92681885 396.79052734 251.46804810 395.70166016 249.87429810 394.68109131 C 248.37269592 393.66052246 247.04209900 392.72085571 245.56187439 391.83169556 C 244.16758728 390.67388916 242.80473328 389.75735474 241.22804260 388.92953491 C 239.51164246 388.18508911 237.48234558 387.51748657 235.36494446 386.84640503 C 233.34381104 386.07543945 231.46104431 385.49197388 229.72366333 384.97573853 C 228.17039490 384.32064819 226.86026001 383.52850342 225.76687622 382.75750732 C 225.18649292 382.03729248 225.02571106 381.36227417 225.26725769 381.00283813 C 225.83856201 381.04727173 226.78089905 381.15487671 228.09919739 381.27487183 C 229.79023743 381.30035400 231.69070435 381.43063354 233.79278564 381.58987427 C 235.97854614 381.54980469 237.97114563 381.27069092 239.90884399 380.57742310 C 241.93261719 379.89041138 243.76817322 378.94079590 245.00526428 377.60415649 C 245.70451355 375.50830078 246.52030945 373.29428101 246.93168640 370.87921143 C 247.04466248 368.78396606 247.58171082 367.32644653 248.54898071 366.81939697 C 249.83004761 367.35641479 251.25111389 368.36746216 252.05947876 369.45315552 C 251.65252686 370.07226562 250.30944824 370.55535889 248.72013855 371.38189697 C 247.17108154 372.79284668 246.03234863 374.42379761 245.40113831 376.52395630 C 245.41870117 378.75320435 246.15351868 381.12371826 247.81452942 383.52355957 C 249.76112366 385.96499634 252.13160706 388.22747803 254.92741394 390.13107300 C 258.03704834 391.95132446 261.36251831 393.71246338 259.03179932 401.21945190" stroke-width="1.22626758" fill="rgb(4, 36, 83)" opacity="1.0" stroke="rgb(9, 27, 71)" stroke-opacity="0.9453219" stroke-linecap="round" stroke-linejoin="round"/>
    <path d="M 299.03826904 383.98919678 C 302.03106689 382.81707764 304.83239746 381.99658203 307.97262573 381.44308472 C 311.44653320 381.64852905 315.03625488 382.58206177 318.78015137 384.14746094 C 322.76943970 385.56338501 326.98941040 385.92846680 331.08999634 385.53552246 C 334.83935547 384.06570435 337.96279907 382.22781372 340.68048096 381.24444580 C 342.79693604 381.39569092 343.76831055 382.63763428 343.32067871 384.21206665 C 341.72109985 385.63284302 340.32641602 386.51834106 340.22851562 387.32238770 C 341.86437988 387.63613892 344.52056885 387.99264526 347.80584717 387.64880371 C 351.17239380 385.76095581 354.81329346 382.77719116 358.56915283 379.16711426 C 362.26589966 375.99432373 365.00424194 373.37802124 367.14764404 372.11538696 C 368.91809082 372.30844116 369.39132690 373.46054077 368.23364258 375.31936646 C 365.39080811 377.63070679 362.20657349 380.47131348 358.81860352 383.60000610 C 355.50375366 386.41140747 352.94369507 388.87573242 350.42639160 389.53515625 C 347.29635620 387.93923950 343.36154175 387.25326538 339.22653198 387.59335327 C 335.61184692 389.46475220 332.29824829 391.50350952 328.44863892 392.61398315 C 323.97357178 392.60394287 319.14730835 392.29550171 314.53189087 392.33383179 C 310.41632080 393.74652100 306.17074585 394.65496826 301.70611572 394.39883423 C 297.24017334 393.71994019 293.01184082 392.28140259 289.05902100 390.27603149 C 284.90386963 389.09396362 280.73504639 388.94949341 276.69079590 388.75421143 C 273.03024292 387.42138672 269.72097778 385.23474121 266.39492798 382.60656738 C 263.18972778 379.43023682 260.06335449 376.13635254 299.03826904 383.98919678" stroke-width="1.98873138" fill="rgb(3, 31, 81)" opacity="1.0" stroke="rgb(231, 255, 255)" stroke-opacity="0.2260296" stroke-linecap="round" stroke-linejoin="round"/>
    <path d="M 227.52523804 387.52050781 C 226.36965942 387.38113403 224.90516663 387.67822266 223.22485352 388.02447510 C 221.65148926 388.45938110 219.92826843 389.11697388 218.00587463 390.00546265 C 215.99507141 390.86300659 213.81440735 391.53182983 211.78518677 392.16525269 C 209.83871460 392.80780029 207.55528259 393.16952515 205.13482666 393.26330566 C 202.73506165 393.08819580 200.37258911 392.66500854 198.14881897 392.03884888 C 195.86892700 392.52691650 193.36790466 393.33334351 190.66288757 394.14361572 C 187.75077820 394.68191528 184.54949951 394.39663696 181.04672241 392.90130615 C 177.05201721 390.44418335 172.49620056 387.64169312 167.82243347 384.25128174 C 163.28140259 380.70098877 159.38893127 377.52160645 157.14784241 374.38360596 C 157.19580078 371.57015991 159.13482666 370.16314697 162.51426697 370.41677856 C 166.48312378 372.15072632 169.99125671 375.60357666 172.86846924 380.17126465 C 176.08636475 383.98089600 180.60588074 385.95120239 185.95407104 386.12661743 C 191.76800537 385.15106201 197.38174438 383.07211304 202.76448059 381.55783081 C 207.84867859 381.88989258 211.77195740 383.27780151 213.78475952 383.65838623 C 213.37368774 382.19396973 210.59478760 380.39364624 206.37084961 379.18048096 C 202.07759094 378.68557739 199.36915588 377.58352661 199.10476685 375.13107300 C 201.28242493 371.68865967 204.82548523 368.06442261 208.75923157 365.53912354 C 212.84934998 365.55560303 217.04756165 367.79736328 221.31793213 370.46203613 C 225.63740540 371.64468384 228.27188110 372.33154297 228.15814209 373.68838501 C 225.31060791 375.63763428 221.35278320 377.59011841 227.52523804 387.52050781" stroke-width="0.18184721" fill="rgb(6, 35, 79)" opacity="1.0" stroke="rgb(0, 11, 99)" stroke-opacity="0.5000993" stroke-linecap="round" stroke-linejoin="round"/>
    <path d="M 216.30960083 293.03616333 C 214.46380615 294.95526123 212.69232178 296.92544556 210.98907471 298.96783447 C 209.16006470 300.69357300 207.56083679 302.42193604 206.45814514 304.31616211 C 205.32609558 305.90103149 204.45443726 307.03622437 203.81968689 307.83206177 C 203.35357666 307.98547363 203.07272339 307.57809448 202.94401550 306.52584839 C 203.14018250 304.90740967 203.50555420 302.83084106 203.68931580 300.34994507 C 203.55964661 297.61160278 202.98858643 294.80535889 202.29762268 291.74798584 C 201.58177185 288.54510498 201.20550537 285.50723267 201.51931763 282.84121704 C 202.68672180 280.53707886 204.56805420 278.41265869 206.85305786 276.33856201 C 209.10559082 274.15307617 211.23522949 272.29824829 212.66015625 270.41195679 C 212.60282898 268.70046997 211.66885376 266.87466431 211.04524231 264.88552856 C 211.81248474 263.04196167 213.23716736 261.78735352 214.53598022 261.56448364 C 215.11506653 262.86148071 215.44375610 265.02532959 215.68161011 266.98535156 C 216.25471497 268.30291748 217.45115662 268.21813965 219.16616821 267.29251099 C 221.45559692 266.20291138 223.58383179 264.61169434 225.35173035 262.79516602 C 226.33592224 260.65682983 227.08958435 259.24191284 228.24565125 258.75830078 C 230.07331848 258.96017456 231.80462646 259.85229492 232.98834229 261.49868774 C 233.84135437 263.58816528 233.99110413 266.24777222 233.70985413 269.23986816 C 232.93687439 272.17919922 231.39248657 275.02307129 229.74032593 277.98291016 C 227.87413025 280.72775269 225.87875366 283.37344360 223.51609802 285.71118164 C 221.33106995 288.09579468 219.19209290 290.59753418 216.30960083 293.03616333" stroke-width="2.00000000" fill="rgb(9, 38, 77)" opacity="1.0" stroke="rgb(255, 255, 255)" stroke-opacity="0.07018093" stroke-linecap="round" stroke-linejoin="round"/>
    <path d="M 324.64831543 263.15414429 C 318.34997559 263.23544312 312.74822998 265.07156372 308.29202271 267.39053345 C 305.27243042 268.03845215 303.13687134 266.33889771 301.21936035 265.10623169 C 298.93685913 266.78372192 295.44006348 269.89337158 290.56304932 272.68753052 C 284.52185059 275.21740723 277.64266968 276.98239136 270.42471313 279.08078003 C 263.45785522 281.47363281 257.21765137 284.82528687 251.75395203 289.51400757 C 246.61312866 294.54086304 242.48515320 300.25555420 239.08776855 306.11651611 C 236.14544678 311.40701294 233.50645447 315.41470337 230.36579895 317.76354980 C 227.34016418 318.70510864 225.05342102 317.57177734 223.68508911 314.83511353 C 223.03616333 311.03128052 224.46917725 306.64288330 227.42210388 301.65093994 C 231.14877319 296.15496826 235.41699219 290.65823364 239.31710815 284.58218384 C 242.91549683 278.46667480 245.03594971 272.31088257 245.34143066 266.40499878 C 245.22648621 261.19293213 243.97723389 257.18420410 242.52389526 254.53326416 C 242.57531738 253.80819702 244.44543457 254.34263611 247.80168152 255.23718262 C 252.36965942 255.45668030 257.94259644 255.30131531 264.44873047 255.20918274 C 271.67736816 255.34397888 279.20486450 255.43418884 286.82238770 255.23062134 C 294.21359253 255.19250488 301.20330811 255.36798096 307.70184326 255.44160461 C 313.60195923 255.37219238 318.67147827 255.09906006 322.83740234 255.26504517 C 326.16436768 256.43206787 328.41201782 258.69842529 329.76644897 261.59527588 C 330.26196289 264.85580444 330.12625122 268.31912231 329.26690674 272.10455322 C 327.99639893 275.88723755 326.54910278 279.73855591 324.64831543 263.15414429" stroke-width="2.00000000" fill="rgb(12, 41, 85)" opacity="1.0" stroke="rgb(226, 255, 255)" stroke-opacity="0.13950801" stroke-linecap="round" stroke-linejoin="round"/>
    <path d="M 274.61538696 95.76756287 C 274.24725342 91.26299286 273.61419678 87.09805298 273.46966553 83.34412384 C 273.43301392 80.15144348 273.78665161 77.84456635 274.44845581 76.62584686 C 275.33114624 76.50204468 276.42538452 77.34531403 277.64523315 78.93591309 C 279.07205200 80.98334503 280.60491943 83.30122375 281.51797485 85.93141174 C 281.79031372 89.04402924 281.27969360 92.22296143 279.55834961 95.41824341 C 277.19250488 98.80083466 274.53933716 102.38226318 272.08163452 105.89548492 C 270.05465698 109.30318451 268.58691406 112.26621246 267.48684692 114.48502350 C 266.84338379 115.65398407 266.50265503 115.51556396 266.43386841 114.05474091 C 266.45498657 111.57888031 266.47860718 108.37030792 266.44604492 104.58573914 C 266.33129883 100.43604279 266.04467773 96.16024017 274.61538696 95.76756287" stroke-width="2.00000000" fill="rgb(231, 137, 47)" opacity="1.0" stroke="rgb(0, 28, 58)" stroke-opacity="0.60155046" stroke-linecap="round" stroke-linejoin="round"/>
    <path d="M 303.88424683 273.98901367 C 300.06155396 276.76455688 296.34597778 278.57519531 294.10165405 279.31314087 C 294.03701782 278.73815918 295.83462524 277.05691528 298.55139160 274.86740112 C 300.70089722 272.03585815 301.90325928 268.75164795 302.78634644 266.24688721 C 304.39309692 266.17977905 305.97177124 267.74276733 307.18356323 269.66909790 C 309.34164429 269.71258545 312.31283569 268.49603271 315.64468384 266.75567627 C 319.33956909 265.65972900 323.51004028 265.51928711 327.97909546 266.46478271 C 332.01721191 268.38830566 336.20950317 269.99148560 340.36309814 270.85388184 C 344.20327759 270.92395020 347.32467651 270.21051025 349.78149414 269.48852539 C 351.62802124 269.25460815 352.40270996 269.63726807 351.95944214 270.49182129 C 350.47647095 271.47366333 348.24090576 272.45669556 345.30493164 273.36395264 C 341.72644043 273.83575439 337.89392090 273.64782715 334.22351074 272.91668701 C 330.91915894 271.86465454 328.05126953 270.87561035 325.52023315 270.72512817 C 323.44573975 272.53179932 320.87316895 274.94226074 317.28890991 277.58544922 C 312.50613403 280.26766968 306.56457520 282.78335571 299.48968506 284.68667603 C 291.35284424 286.08276367 282.71997070 287.63406372 273.99279785 289.84295654 C 265.70089722 292.69473267 258.91128540 297.30551147 253.39999390 302.97171021 C 249.13726807 308.25372314 246.55812073 312.07632446 245.20133972 312.81210327 C 245.71394348 309.91336060 248.80784607 304.78616333 253.86187744 298.44696045 C 260.30572510 291.70513916 268.97912598 287.00988770 280.28399658 284.38452148 C 292.71752930 282.21783447 305.73373413 281.54995728 303.88424683 273.98901367" stroke-width="2.00000000" fill="rgb(11, 33, 74)" opacity="1.0" stroke="rgb(254, 255, 255)" stroke-opacity="0.17971484" stroke-linecap="round" stroke-linejoin="round"/>
  </g>
</svg>
