<?xml version="1.0" ?>
<svg xmlns="http://www.w3.org/2000/svg" version="1.1" width="512" height="512" viewBox="0 0 512 512">
  <defs/>
  <g>
    <path d="M -75.28503418 582.18823242 C -79.62409973 558.30767822 -83.94039154 534.41589355 -88.23086548 510.47473145 C -92.37600708 486.50640869 -96.31274414 462.56005859 -99.93639374 438.58969116 C -103.09984589 414.57067871 -105.72047424 390.52966309 -107.64440155 366.49133301 C -108.74024963 342.48416138 -108.90801239 318.52493286 -108.05175018 294.58251953 C -106.05958557 270.71908569 -102.84621429 246.98941040 -98.26111603 223.46813965 C -92.26235199 200.20245361 -84.82313538 177.23283386 -75.91165161 154.62588501 C -65.41581726 132.52917480 -53.26744080 111.06365204 -39.40139389 90.40742493 C -23.81298637 70.66728973 -6.55568361 51.87758255 11.75517273 33.59706116 C 30.70000458 15.78274536 51.38392639 -0.07697153 73.64356995 -14.21276188 C 96.59249115 -27.35825920 120.12753296 -39.40208817 144.10870361 -50.17154694 C 168.47390747 -59.49493027 193.06262207 -67.37796021 217.76567078 -73.77251434 C 242.57818604 -78.51883698 267.44253540 -81.55017853 292.22308350 -82.91211700 C 316.77673340 -82.55151367 341.01925659 -80.43918610 364.76132202 -76.64548492 C 387.87533569 -71.18942261 410.28338623 -64.03336334 431.90451050 -55.22700119 C 452.60586548 -44.80818176 472.38986206 -32.71026993 491.21487427 -18.96704292 C 508.95574951 -3.80009532 525.52062988 12.81153202 540.87084961 30.71394348 C 554.91406250 49.82682800 567.57397461 69.96770477 578.81231689 91.08066559 C 588.60070801 113.10024261 596.97314453 135.90414429 603.87463379 159.33468628 C 609.25122070 183.23612976 613.06384277 207.49101257 615.36962891 232.06098938 C 616.15289307 256.81359863 615.39868164 281.55139160 613.06719971 306.14349365 C 609.15332031 330.49609375 603.71545410 354.51837158 596.75903320 378.05676270 C 588.24499512 401.00582886 578.20520020 423.21505737 566.64550781 444.55975342 C 553.55230713 464.84255981 538.99346924 483.94097900 523.03381348 501.83676147 C 505.60162354 518.29229736 486.82861328 533.30401611 466.78179932 546.92767334 C 445.64743042 559.26849365 423.49011230 570.33325195 400.42810059 580.23809814 C 376.65072632 589.02087402 352.20675659 596.80670166 327.23153687 603.69934082 C 301.81881714 609.80957031 275.99676514 615.21258545 249.86953735 619.98608398 C 223.49929810 624.25592041 196.99118042 628.12377930 170.37387085 631.68859863 C 143.65524292 635.03784180 116.88815308 638.22723389 90.09723663 641.31701660 C 63.27976227 644.37823486 36.48340225 647.41790771 -75.28503418 582.18823242" stroke-width="2.00000000" fill="rgb(255, 255, 255)" opacity="1.0" stroke="rgb(255, 255, 255)" stroke-opacity="0.0" stroke-linecap="round" stroke-linejoin="round"/>
    <path d="M 393.01602173 374.58212280 C 386.15771484 382.99429321 378.31909180 390.29608154 370.14086914 397.70028687 C 361.78045654 404.66714478 352.70739746 411.01162720 342.87200928 416.72567749 C 332.83633423 422.68890381 321.94830322 427.35665894 310.41854858 431.26617432 C 298.77096558 435.33090210 287.08129883 437.83477783 274.65948486 439.19305420 C 262.20434570 440.69107056 250.15040588 440.58416748 237.74131775 439.25503540 C 225.19190979 437.56646729 213.02261353 435.55343628 201.50036621 431.17456055 C 189.41838074 427.15255737 177.91441345 422.12503052 166.71902466 415.23361206 C 155.20341492 408.49786377 144.42785645 400.47463989 134.59460449 391.00134277 C 124.46659851 381.43453979 115.36981201 370.78720093 107.56636810 358.70736694 C 99.08915710 347.53829956 94.53360748 335.30651855 88.84985352 322.60632324 C 84.04594421 309.79821777 80.63430786 296.96472168 78.63579559 283.41500854 C 76.96015167 270.19085693 76.03700256 257.32995605 77.33401489 245.16372681 C 77.54312897 233.64242554 80.16112518 222.39512634 82.72839355 210.75495911 C 85.70535278 199.36434937 90.18799591 188.34538269 95.34826660 177.31175232 C 100.89514923 166.42849731 107.33741760 156.03527832 114.70709229 146.36964417 C 122.20353699 136.99327087 130.45037842 128.38580322 139.49882507 120.69055176 C 148.50128174 113.07553864 157.96870422 106.47382355 168.01287842 100.77722931 C 177.81858826 95.10282898 188.38742065 90.90167236 199.19137573 87.00713348 C 210.01591492 83.38407898 221.29524231 81.42369843 232.52384949 78.97429657 C 244.12423706 77.76757812 256.04373169 77.42485046 268.22241211 77.96759796 C 280.38650513 79.07067108 292.51998901 81.24026489 304.62466431 84.61780548 C 316.89685059 88.06343842 328.84246826 92.67840576 340.24548340 98.75110626 C 351.78427124 104.96383667 362.62780762 112.01453400 372.49493408 120.78108215 C 382.77288818 129.24455261 391.83609009 138.99125671 399.61380005 149.63082886 C 407.82778931 159.59849548 413.80026245 171.15495300 419.30029297 183.04983521 C 424.55117798 194.94995117 428.80203247 207.06884766 431.36560059 219.55445862 C 433.68066406 232.31413269 435.48321533 245.12507629 435.38629150 258.05184937 C 435.22848511 271.14959717 433.61709595 283.95764160 431.04220581 296.64910889 C 428.11474609 309.17355347 424.16220093 321.29769897 419.07266235 332.87014771 C 413.36035156 344.57385254 407.65316772 356.42141724 393.01602173 374.58212280" stroke-width="2.00000000" fill="rgb(243, 247, 247)" opacity="1.0" stroke="rgb(5, 31, 64)" stroke-opacity="0.9649224" stroke-linecap="round" stroke-linejoin="round"/>
    <path d="M 414.99841309 219.14318848 C 404.94644165 228.94276428 404.77075195 239.56503296 407.78717041 251.43861389 C 405.51242065 258.83840942 397.53192139 262.24102783 385.47369385 263.09887695 C 370.76248169 262.22622681 354.46826172 260.67541504 337.91806030 258.75457764 C 322.05493164 256.57794189 307.38043213 253.81748962 293.81579590 251.64753723 C 281.27346802 250.49114990 269.78768921 249.75308228 259.32135010 249.04716492 C 249.82661438 247.96337891 241.31431580 246.37750244 233.87040710 244.18461609 C 227.35658264 241.93789673 221.00964355 242.05841064 214.80102539 245.23591614 C 207.69888306 249.96916199 199.53810120 254.73342896 190.13926697 258.83285522 C 179.41848755 260.52239990 167.79251099 260.95681763 155.89414978 261.01412964 C 144.19454956 261.32687378 133.10997009 261.59072876 123.28820038 261.40954590 C 115.25727844 260.47235107 109.34399414 258.57226562 105.79318237 255.47189331 C 104.99279022 250.05535889 105.73020935 243.21783447 106.89974213 235.42601013 C 108.84865570 226.60943604 110.66925812 217.32431030 113.51452637 207.72277832 C 117.23815155 197.69094849 122.02812195 187.90376282 127.52890015 178.22779846 C 133.13403320 168.46379089 140.29673767 160.01005554 147.91337585 151.77572632 C 156.23130798 143.47541809 165.34262085 135.89697266 175.26951599 128.96862793 C 185.69523621 122.18965149 197.14108276 116.65629578 210.16572571 114.05564880 C 225.12718201 114.91913605 241.62194824 118.05976868 259.20779419 123.18585205 C 278.13027954 129.63133240 297.76477051 137.13700867 317.76586914 145.54888916 C 337.84585571 154.21435547 357.07666016 162.60211182 374.25054932 170.36010742 C 388.04959106 177.29089355 396.06631470 178.76292419 390.32876587 169.92974854 C 377.82290649 149.69763184 361.32479858 134.85725403 346.06335449 123.77585602 C 334.21072388 117.58786011 330.45065308 111.27963257 334.81869507 102.70088196 C 341.58712769 99.60050201 348.78649902 105.05702972 358.47076416 111.99439240 C 368.66244507 119.15060425 378.38000488 127.74319458 387.41271973 137.50689697 C 396.09838867 147.01165771 403.21707153 156.98606873 409.25073242 167.27482605 C 415.07266235 177.55523682 420.34652710 188.35015869 424.45916748 200.39962769 C 428.62881470 214.06251526 431.81228638 229.46147156 433.22705078 246.54170227 C 434.44094849 264.96362305 431.87396240 284.45693970 427.03924561 304.77233887 C 421.21197510 325.42498779 415.69940186 346.05770874 414.99841309 219.14318848" stroke-width="2.00000000" fill="rgb(244, 149, 25)" opacity="1.0" stroke="rgb(20, 16, 33)" stroke-opacity="0.86548626" stroke-linecap="round" stroke-linejoin="round"/>
    <path d="M 305.73275757 260.59271240 C 297.78494263 261.43206787 290.05627441 262.14923096 282.63778687 262.71786499 C 275.54193115 263.09231567 268.79428101 263.14916992 262.55557251 262.80368042 C 256.95965576 261.95651245 252.18923950 260.42681885 248.59254456 258.07836914 C 246.53956604 254.61602783 244.91293335 250.95223999 242.29022217 248.12580872 C 239.69815063 245.55337524 236.24403381 243.49449158 232.98536682 241.97866821 C 229.06811523 241.15600586 224.84786987 241.25904846 220.62794495 241.58749390 C 216.49221802 242.32212830 212.95358276 244.21212769 209.98011780 246.79031372 C 207.63685608 249.66027832 205.68023682 251.75265503 203.99870300 252.78257751 C 203.14688110 252.65405273 203.27455139 250.92021179 203.61752319 247.49851990 C 203.71438599 243.46995544 205.70303345 239.03193665 207.73278809 233.77659607 C 210.21049500 228.08331299 213.81065369 223.27311707 218.02279663 218.84390259 C 222.10598755 214.88551331 226.10421753 211.76939392 230.59529114 209.51011658 C 235.64900208 208.25524902 240.52259827 206.12977600 245.70703125 204.80184937 C 250.63879395 204.10098267 255.41378784 204.06431580 259.93685913 204.28257751 C 264.24008179 204.41197205 268.47994995 205.14343262 272.99133301 205.53562927 C 277.61282349 207.24710083 281.89550781 209.33493042 285.94326782 212.21948242 C 290.13958740 214.88414001 293.68588257 218.07583618 296.82601929 221.81030273 C 299.72198486 225.68493652 302.28103638 229.35615540 304.15722656 233.43209839 C 306.07812500 237.47784424 307.20684814 241.87280273 307.79006958 245.63333130 C 309.20626831 249.52343750 309.74929810 254.33078003 305.73275757 260.59271240" stroke-width="2.00000000" fill="rgb(230, 54, 37)" opacity="1.0" stroke="rgb(0, 20, 53)" stroke-opacity="1.0" stroke-linecap="round" stroke-linejoin="round"/>
    <path d="M 299.07101440 366.14453125 C 294.90890503 371.72158813 290.22021484 377.12301636 285.07885742 381.97027588 C 278.99371338 385.44131470 273.05346680 388.45611572 266.72634888 389.98693848 C 259.99783325 389.94161987 253.04809570 388.98559570 246.15515137 387.64221191 C 239.57800293 386.21044922 233.48689270 385.34515381 228.35502625 385.41867065 C 224.20152283 383.98992920 220.99418640 381.59786987 218.46223450 378.19833374 C 216.56036377 373.99359131 215.34500122 369.37255859 215.16961670 364.82781982 C 216.97598267 360.60781860 219.31130981 356.83920288 219.90818787 353.10006714 C 217.28683472 349.13180542 215.90065002 345.04879761 216.06291199 342.59686279 C 219.08990479 343.60968018 223.59817505 343.79519653 226.42565918 346.82684326 C 228.58483887 357.20587158 233.90133667 365.32485962 237.80165100 364.14151001 C 231.13386536 356.56130981 227.06359863 344.37698364 227.76362610 335.21783447 C 231.05769348 335.13427734 235.01753235 339.25820923 237.96223450 340.97268677 C 237.01945496 336.62536621 237.17782593 330.80740356 240.06292725 328.25247192 C 245.68359375 333.66519165 249.26626587 337.79733276 251.72888184 332.08450317 C 255.53668213 323.79785156 256.95837402 325.03530884 260.81558228 333.50799561 C 269.04330444 330.87188721 276.26046753 333.51168823 284.33908081 334.80880737 C 285.35372925 345.64212036 280.71746826 357.55838013 272.26989746 365.77450562 C 276.85189819 367.28344727 282.82095337 358.94403076 285.34741211 348.00207520 C 287.86395264 343.47039795 292.95904541 343.41229248 296.41317749 342.48638916 C 295.43289185 346.85522461 290.46731567 351.80319214 299.07101440 366.14453125" stroke-width="2.00000000" fill="rgb(210, 113, 159)" opacity="1.0" stroke="rgb(4, 19, 58)" stroke-opacity="0.98431635" stroke-linecap="round" stroke-linejoin="round"/>
    <path d="M 271.79333496 128.62731934 C 273.24301147 140.13226318 274.51181030 151.18420410 275.44717407 161.61250305 C 275.97518921 171.29187012 275.99432373 180.07844543 275.46060181 187.58692932 C 274.24545288 193.62614441 272.11575317 198.12551880 268.95571899 200.80949402 C 264.90805054 201.55250549 260.14779663 200.87280273 254.75474548 200.59541321 C 249.20220947 200.51060486 243.97816467 201.17056274 239.39761353 203.19337463 C 235.05276489 204.23184204 232.07562256 205.25968933 230.59385681 204.54806519 C 230.53009033 200.86035156 231.64622498 194.67341614 233.56208801 186.57469177 C 235.86897278 177.12602234 238.43711853 166.72068787 241.12370300 155.87666321 C 243.62216187 145.23280334 245.74496460 135.28773499 247.45741272 126.87400818 C 248.58970642 121.15226746 245.75114441 117.47360992 241.28428650 112.97763824 C 238.23730469 106.57884979 235.43879700 101.14766693 231.72708130 98.12752533 C 226.72242737 98.99823761 219.89331055 99.94803619 211.93496704 102.34411621 C 203.16645813 104.94435883 193.60174561 108.16944122 183.67988586 113.42530823 C 172.51780701 118.68094635 160.82623291 126.69809723 148.54309082 137.72622681 C 133.65055847 151.63058472 118.51130676 169.94213867 107.33245087 197.00134277 C 94.44743347 229.52813721 92.82707214 264.92172241 101.74646759 301.47457886 C 112.45230103 327.92318726 113.84631348 333.36331177 93.02213287 328.49887085 C 82.64218903 305.48056030 77.00929260 275.49801636 78.75782013 243.82849121 C 81.46137238 212.91859436 90.95936584 186.25941467 104.49028015 163.69587708 C 116.70677185 144.63616943 129.73695374 130.51518250 142.86608887 119.98587799 C 154.33322144 110.53870392 165.52297974 103.58287811 176.39479065 98.07460785 C 186.40788269 93.21900940 196.14002991 89.49215698 205.29478455 86.70858765 C 214.20593262 84.38654327 222.29539490 81.85152435 229.81448364 81.50850677 C 236.83390808 79.66649628 243.45834351 77.22446442 249.47430420 74.83281708 C 254.85800171 73.09661865 259.81814575 72.18537903 263.95303345 71.48314667 C 267.53381348 71.67332458 270.70898438 72.33721161 272.35803223 72.90915680 C 272.51440430 74.62939453 271.54779053 77.64235687 269.72796631 81.61009979 C 267.16250610 86.21917725 263.94219971 91.43308258 260.27069092 97.46055603 C 256.89260864 104.38048553 254.51431274 112.14839935 253.46255493 120.91281128 C 253.78157043 130.44430542 251.77886963 139.75395203 271.79333496 128.62731934" stroke-width="2.00000000" fill="rgb(230, 110, 30)" opacity="1.0" stroke="rgb(8, 26, 55)" stroke-opacity="1.0" stroke-linecap="round" stroke-linejoin="round"/>
    <path d="M 280.61215210 97.42455292 C 276.58193970 102.18128967 273.33779907 106.67333984 271.21011353 110.79136658 C 269.58935547 114.15450287 267.75149536 116.91941833 265.83236694 119.64337921 C 264.76654053 123.39341736 264.75952148 127.76499176 265.00555420 132.10615540 C 264.49957275 135.34156799 263.04513550 136.31544495 261.37725830 135.34568787 C 258.69735718 133.04367065 257.68643188 128.76606750 257.49798584 124.33102417 C 257.47549438 122.42189026 259.72976685 122.35839844 263.17077637 121.75629425 C 265.85916138 120.55970764 267.09753418 118.74710083 265.94757080 118.00461578 C 261.39453125 118.48064423 254.82505798 118.54439545 248.77362061 118.60308075 C 245.19094849 116.33012390 242.82475281 112.31533051 240.65278625 107.46334076 C 237.65283203 102.47732544 233.76466370 97.92453766 230.74153137 93.03618622 C 229.48562622 86.94348145 231.83091736 80.78379822 235.90115356 75.03359985 C 242.22422791 71.38902283 249.66082764 71.36074829 256.88061523 73.92528534 C 263.31182861 73.11817932 268.94329834 73.15842438 274.32836914 74.05299377 C 277.86373901 75.85132599 279.79687500 78.73638153 281.44964600 81.70107269 C 285.86221313 81.17755127 291.89428711 82.86457825 299.68344116 84.87532806 C 308.00326538 87.12839508 316.23901367 89.83746338 324.07257080 92.93894958 C 330.95654297 95.84967041 336.60073853 98.28667450 339.88931274 100.56217194 C 339.97277832 103.69379425 338.68881226 107.02290344 336.51449585 109.91429901 C 333.50524902 111.76296234 329.64425659 112.15273285 324.77511597 111.46580505 C 319.25070190 109.30537415 314.11911011 105.15466309 280.61215210 97.42455292" stroke-width="2.00000000" fill="rgb(225, 119, 34)" opacity="1.0" stroke="rgb(8, 25, 56)" stroke-opacity="1.0" stroke-linecap="round" stroke-linejoin="round"/>
    <path d="M 373.07064819 160.14945984 C 362.11325073 170.59976196 351.33969116 180.76501465 340.88812256 190.30589294 C 330.97491455 199.04129028 321.92135620 206.83142090 313.97244263 213.49066162 C 307.39904785 218.54907227 302.06170654 220.32917786 297.45159912 217.38604736 C 292.15515137 211.57655334 285.14950562 206.66374207 277.29452515 203.09049988 C 270.04354858 200.48458862 263.40945435 199.42761230 258.45025635 199.45635986 C 256.44433594 199.27055359 257.76486206 198.35090637 260.53268433 196.33380127 C 261.30123901 191.99920654 261.50942993 186.41262817 262.16488647 179.69752502 C 262.41552734 172.14425659 262.99789429 164.39996338 263.64312744 156.90611267 C 264.55816650 149.62142944 264.74591064 142.72850037 264.38009644 136.32736206 C 265.25552368 130.75125122 265.66580200 125.86625671 266.54592896 122.28375244 C 269.10461426 120.30226135 271.23944092 118.00000000 272.80285645 115.03028107 C 274.56286621 111.68543243 275.94192505 108.61923981 277.69439697 106.49662781 C 280.62341309 106.16561127 284.32037354 107.25622559 289.17251587 108.25234985 C 294.40222168 109.48146057 300.08761597 111.34815216 305.93322754 112.96773529 C 311.80334473 114.78018951 317.15310669 117.25711823 322.36376953 119.51509094 C 327.02551270 121.99407196 331.19500732 124.48307800 334.77090454 126.42751312 C 337.21490479 128.51765442 338.70791626 130.62432861 339.64028931 132.53800964 C 340.18704224 134.31156921 340.57470703 135.85469055 341.07171631 136.93467712 C 341.81985474 137.51202393 342.83883667 137.62454224 344.39819336 137.17973328 C 346.94403076 135.91877747 350.46490479 133.86009216 373.07064819 160.14945984" stroke-width="1.23299074" fill="rgb(255, 195, 4)" opacity="1.0" stroke="rgb(231, 185, 51)" stroke-opacity="0.97878283" stroke-linecap="round" stroke-linejoin="round"/>
    <path d="M 251.67601013 199.63769531 C 248.63328552 200.05633545 245.34825134 200.29295349 241.86981201 200.83621216 C 238.26174927 201.93627930 234.53477478 203.68879700 230.55885315 205.44354248 C 226.39350891 207.23202515 222.61344910 209.73803711 219.24302673 212.52064514 C 216.33586121 215.51750183 213.62789917 218.50001526 210.99826050 220.62092590 C 207.24238586 220.72703552 202.77391052 219.43394470 197.58477783 216.80989075 C 192.04867554 213.06608582 186.22587585 208.42909241 180.04362488 203.04037476 C 173.69862366 197.24430847 167.23822021 191.47793579 160.90014648 185.77961731 C 154.99301147 180.13499451 149.81904602 174.54287720 145.72035217 169.07966614 C 143.04594421 163.79406738 142.16726685 158.88577271 143.43492126 154.59184265 C 147.02539062 150.68731689 151.54585266 146.21080017 156.65840149 141.38969421 C 162.17245483 136.57936096 168.52429199 132.39660645 174.98275757 128.21919250 C 180.68182373 123.67629242 187.24020386 120.47047424 193.62149048 117.47993469 C 200.02993774 114.88109589 205.95008850 112.91050720 211.87074280 111.34584808 C 217.07861328 109.69388580 221.64140320 108.07678986 225.84596252 107.31188965 C 229.34750366 106.57706451 232.33692932 106.11824799 234.49217224 106.43387604 C 236.12080383 108.54967499 237.72401428 111.78652191 239.72990417 114.85813141 C 241.32948303 118.24185181 243.29843140 120.87500763 245.88867188 122.09770203 C 246.82534790 123.36181641 246.47679138 125.29113007 246.47175598 127.85930634 C 246.47500610 130.89620972 246.67829895 134.24584961 247.12327576 137.77359009 C 247.41983032 141.52151489 247.17579651 145.47099304 251.67601013 199.63769531" stroke-width="1.15278208" fill="rgb(253, 192, 6)" opacity="1.0" stroke="rgb(240, 197, 53)" stroke-opacity="0.8749098" stroke-linecap="round" stroke-linejoin="round"/>
    <path d="M 203.67431641 115.85099792 C 203.49023438 115.01818848 203.42187500 114.38507843 203.57614136 114.07868195 C 204.22990417 113.83419037 205.15501404 113.71446991 206.08488464 113.31655121 C 207.25555420 112.52261353 208.51995850 112.01725006 209.87507629 111.76574707 C 211.57243347 111.31653595 213.27416992 110.69802094 214.75251770 110.11396027 C 216.20365906 109.78272247 217.30171204 109.52870941 218.19941711 109.81688690 C 218.77015686 111.26927948 219.41735840 113.48452759 219.98844910 116.38858032 C 220.89543152 119.68032074 221.91058350 123.29631042 222.74540710 127.43901825 C 223.88729858 131.96665955 224.83473206 136.59535217 226.18287659 141.29927063 C 227.35966492 146.28305054 228.66578674 151.38864136 229.75375366 156.35185242 C 230.98098755 161.28520203 232.17704773 166.27000427 233.30432129 170.91233826 C 234.52354431 175.45774841 235.51670837 179.60313416 236.40325928 183.43704224 C 237.33816528 187.02061462 238.13180542 190.08549500 238.75439453 192.59552002 C 239.27030945 194.67268372 239.49833679 196.13623047 239.38119507 197.09246826 C 238.28305054 197.40495300 236.94944763 197.83416748 235.99264526 197.95370483 C 235.36622620 197.38481140 234.84887695 196.22303772 233.98510742 194.32275391 C 232.99940491 191.99493408 232.04101562 189.25070190 230.93771362 186.14830017 C 229.46102905 182.88993835 228.05177307 179.26098633 226.78242493 175.38584900 C 225.24288940 171.46012878 223.68995667 167.36849976 222.12957764 163.26115417 C 220.40689087 159.05065918 218.77409363 154.73025513 217.09024048 150.46017456 C 215.54632568 146.06671143 213.69831848 141.74945068 203.67431641 115.85099792" stroke-width="1.36963701" fill="rgb(238, 55, 36)" opacity="1.0" stroke="rgb(196, 0, 19)" stroke-opacity="0.61416996" stroke-linecap="round" stroke-linejoin="round"/>
    <path d="M 285.54440308 177.57525635 C 284.42285156 180.56530762 283.35369873 183.50556946 282.21456909 186.29156494 C 281.06698608 189.06141663 280.09875488 191.62500000 279.17675781 194.05393982 C 278.63558960 196.05386353 278.05557251 197.73323059 277.22833252 199.02955627 C 276.25091553 199.48480225 275.00213623 199.06333923 273.77786255 198.38874817 C 272.66336060 198.09307861 271.70974731 197.87295532 271.25708008 197.15779114 C 271.54739380 195.52287292 272.08862305 193.08709717 272.86730957 189.84777832 C 273.88476562 186.10563660 274.94079590 181.82565308 276.01248169 177.20198059 C 277.07473755 172.13586426 278.55709839 167.11236572 279.84524536 161.82553101 C 281.07135010 156.31214905 282.55276489 150.99967957 283.82962036 145.72994995 C 285.07699585 140.40698242 286.28942871 135.34127808 287.49771118 130.65750122 C 288.60144043 126.03438568 289.48251343 121.80437469 290.30648804 117.97349548 C 291.26693726 114.68550873 292.08834839 112.11625671 292.55273438 110.18028259 C 292.96456909 108.85374451 293.63781738 108.38407135 294.42361450 108.66515350 C 295.36239624 109.21849823 296.84619141 109.61342621 298.89797974 110.01232910 C 301.19586182 110.50696564 303.32495117 111.34314728 305.55868530 111.99185944 C 307.46224976 112.58388519 308.92150879 113.39920044 309.74639893 114.52452850 C 309.47534180 116.21466064 308.58850098 118.48763275 307.30648804 121.22270203 C 305.96206665 124.76983643 304.43545532 128.75497437 302.76623535 133.02632141 C 301.00155640 137.48844910 299.23965454 142.22242737 297.32986450 147.01614380 C 295.38552856 151.69100952 293.53970337 156.57611084 285.54440308 177.57525635" stroke-width="0.89683044" fill="rgb(236, 57, 31)" opacity="1.0" stroke="rgb(184, 31, 85)" stroke-opacity="0.29410124" stroke-linecap="round" stroke-linejoin="round"/>
    <path d="M 132.95756531 168.70310974 C 133.24375916 168.33666992 133.55096436 167.66441345 134.02716064 166.93167114 C 134.51164246 166.09133911 135.14813232 165.26277161 135.93617249 164.30770874 C 136.64916992 163.20477295 137.69238281 161.98449707 138.53265381 160.52809143 C 139.53106689 159.17938232 140.71907043 158.02862549 141.95765686 157.20109558 C 142.34887695 156.05116272 142.53855896 156.09562683 143.24468994 157.32164001 C 144.73745728 158.73835754 146.89070129 160.48867798 149.42820740 162.72377014 C 152.28337097 165.01797485 155.24810791 167.70297241 158.58023071 170.61593628 C 161.78630066 173.68614197 165.01300049 176.96714783 168.77546692 179.88671875 C 172.38793945 183.11724854 175.90095520 186.48968506 179.53646851 189.74070740 C 183.19937134 192.85572815 186.84700012 195.79716492 190.07135010 198.91342163 C 193.11978149 201.89599609 196.33892822 204.48152161 199.13914490 207.07563782 C 201.59007263 209.53630066 204.07757568 211.49395752 206.04502869 213.28741455 C 207.69075012 214.83351135 208.85459900 215.84400940 209.34645081 216.66082764 C 208.56474304 217.74418640 207.51820374 218.97750854 206.54769897 219.69631958 C 205.53117371 219.45326233 203.97895813 218.50885010 202.07141113 217.29705811 C 199.76348877 215.72598267 197.29006958 213.76036072 194.50282288 211.65748596 C 191.46820068 209.30187988 188.12359619 207.10113525 184.61540222 204.88656616 C 181.11231995 202.42695618 177.57707214 199.73561096 173.94190979 197.24710083 C 170.33387756 194.63401794 166.60647583 192.11985779 162.82965088 189.53915405 C 159.22236633 186.70451355 155.46829224 183.80508423 132.95756531 168.70310974" stroke-width="1.27354252" fill="rgb(237, 55, 33)" opacity="1.0" stroke="rgb(207, 49, 13)" stroke-opacity="0.80615693" stroke-linecap="round" stroke-linejoin="round"/>
    <path d="M 164.40127563 242.18275452 C 157.69213867 241.11953735 151.15267944 240.08923340 144.77436829 239.08140564 C 138.42761230 238.08937073 132.28695679 237.17704773 126.57540894 236.21632385 C 121.41432190 235.25891113 116.75764465 234.48321533 112.80895233 233.72976685 C 109.73963928 233.45329285 107.68885040 233.74705505 106.61920166 233.73849487 C 106.25121307 231.59631348 106.73531342 227.92080688 107.92051697 223.33932495 C 109.24931335 217.77143860 110.26334381 211.84341431 113.31094360 206.20199585 C 115.69566345 199.99337769 117.85781097 193.82652283 120.50397491 188.30902100 C 122.89083099 183.10974121 125.34328461 178.82072449 127.66391754 175.43913269 C 129.47021484 172.78584290 130.38508606 170.79496765 131.47711182 170.46905518 C 133.36550903 171.86074829 136.35038757 174.34838867 140.43072510 177.63189697 C 145.39163208 181.14204407 151.11039734 184.83561707 157.19607544 188.78012085 C 163.31639099 193.00000000 169.42254639 197.21936035 175.31037903 201.40106201 C 180.94781494 205.24977112 186.29164124 208.84767151 191.15504456 212.22900391 C 195.47686768 215.32786560 199.28892517 218.08807373 202.50030518 220.27239990 C 205.05499268 222.20074463 207.22012329 222.85537720 208.68020630 223.00053406 C 208.70127869 223.88418579 207.88877869 225.25526428 206.68226624 227.09169006 C 205.43060303 229.34281921 204.19198608 231.95117188 202.94241333 234.71963501 C 201.84922791 237.64173889 200.85922241 240.52491760 200.19728088 243.34988403 C 199.73568726 245.80516052 199.70553589 247.57676697 199.81140137 248.37641907 C 200.04920959 248.10137939 200.22392273 247.18295288 164.40127563 242.18275452" stroke-width="1.22217727" fill="rgb(253, 193, 2)" opacity="1.0" stroke="rgb(255, 203, 40)" stroke-opacity="0.7392878" stroke-linecap="round" stroke-linejoin="round"/>
    <path d="M 163.68304443 136.33941650 C 164.83717346 135.05661011 166.12945557 133.99166870 167.50453186 133.05981445 C 168.99194336 132.05111694 170.63354492 131.21826172 172.03109741 130.17498779 C 173.28758240 129.18598938 174.51525879 128.54513550 175.62994385 128.02090454 C 176.25401306 127.56835938 176.79199219 127.49928284 177.18711853 127.96265411 C 177.37040710 129.08622742 178.10314941 130.55023193 179.14558411 132.25788879 C 180.76072693 134.12852478 182.17056274 136.61117554 183.86662292 139.46371460 C 185.81613159 142.56532288 188.05957031 145.97801208 190.01545715 149.83932495 C 192.37457275 153.81082153 194.90005493 157.74617004 197.51779175 161.80476379 C 199.83822632 166.00022888 202.36045837 170.13473511 204.92849731 174.27076721 C 207.31217957 178.26763916 209.49661255 182.16070557 211.87782288 185.79821777 C 213.95037842 189.34349060 215.90055847 192.53591919 217.61724854 195.48928833 C 219.30111694 198.15126038 220.65794373 200.31756592 221.82235718 202.02857971 C 222.72196960 203.29394531 223.10285950 204.02090454 222.61013794 204.64962769 C 221.61929321 205.39030457 220.52043152 206.18717957 219.44831848 206.73266602 C 218.46223450 206.26124573 217.52830505 204.90972900 216.21134949 203.06134033 C 214.46258545 200.84576416 212.34141541 198.36723328 210.23527527 195.51210022 C 207.94009399 192.32379150 205.24234009 189.09498596 202.55050659 185.65483093 C 199.76690674 181.89474487 196.69944763 178.18313599 193.68669128 174.34208679 C 190.69558716 170.37004089 187.44479370 166.58413696 184.44845581 162.60217285 C 181.34634399 158.73548889 178.03791809 154.99043274 163.68304443 136.33941650" stroke-width="1.35555279" fill="rgb(238, 55, 35)" opacity="1.0" stroke="rgb(190, 0, 19)" stroke-opacity="0.6009457" stroke-linecap="round" stroke-linejoin="round"/>
    <path d="M 350.33612061 135.74240112 C 343.42202759 144.74319458 336.38513184 153.47160339 329.73333740 162.02169800 C 323.35891724 170.04470825 317.46426392 177.59739685 311.97607422 184.45042419 C 307.01510620 190.46885681 302.85202026 195.85536194 299.38946533 200.53741455 C 296.47830200 204.18963623 294.45251465 207.02226257 292.65518188 208.27961731 C 290.32339478 207.33563232 288.31658936 205.86666870 288.16195679 203.45323181 C 290.86111450 199.17036438 294.65423584 192.77888489 299.30258179 184.94584656 C 304.42852783 176.28216553 310.00643921 167.12583923 315.59344482 157.97816467 C 320.99078369 149.26113892 325.81207275 141.42895508 329.73587036 134.50486755 C 332.42742920 129.10733032 334.43637085 126.27672577 337.04107666 126.47708893 C 340.72753906 128.74665833 345.18878174 132.47029114 350.28329468 135.62973022 C 356.83755493 135.27188110 361.93838501 137.78469849 364.49142456 139.25015259 C 362.01379395 135.67190552 355.02713013 130.09059143 346.06680298 123.95782471 C 338.21624756 118.12641144 330.50817871 117.50285339 325.65151978 114.73166656 C 330.74880981 111.23806000 337.13131714 106.23828888 340.62759399 100.68550110 C 342.51721191 100.67646790 341.15530396 104.47883606 340.63427734 110.27549744 C 346.83996582 115.65476227 356.69876099 122.02516937 367.76968384 130.82128906 C 379.15695190 141.87756348 388.61456299 155.45370483 395.67938232 170.75500488 C 402.04287720 184.41708374 405.34490967 193.48533630 401.07531738 194.19427490 C 395.45104980 183.61445618 391.70407104 169.11975098 382.36877441 157.91459656 C 372.28952026 147.02244568 365.21090698 134.58178711 350.33612061 135.74240112" stroke-width="2.00000000" fill="rgb(212, 66, 28)" opacity="1.0" stroke="rgb(0, 0, 255)" stroke-opacity="0.06037982" stroke-linecap="round" stroke-linejoin="round"/>
    <path d="M 112.87599945 208.07220459 C 113.68822479 205.69273376 114.25445557 203.27163696 114.90158081 201.21749878 C 115.67050171 199.57858276 116.45202637 198.24478149 116.89105225 196.87904358 C 117.57271576 195.73196411 117.94628143 194.57429504 118.43312836 194.03413391 C 119.05609894 193.80464172 119.97889709 194.11453247 121.09973907 194.81860352 C 122.53236389 195.72370911 124.32575226 196.59855652 126.58515167 197.59660339 C 129.27252197 198.73370361 132.16725159 200.18070984 135.35066223 201.80296326 C 139.00732422 203.47616577 142.72898865 205.21141052 146.96525574 207.00361633 C 151.07734680 209.09977722 155.42861938 211.15057373 159.89566040 213.31265259 C 164.41743469 215.22480774 168.91166687 217.17782593 173.08027649 219.40701294 C 177.12568665 221.60501099 181.14801025 223.27186584 184.81898499 225.05694580 C 188.34364319 226.60699463 191.50344849 227.96606445 194.27836609 229.31419373 C 196.50985718 230.51422119 198.31010437 231.06541443 199.30052185 231.68505859 C 199.15661621 233.02590942 198.53218079 234.67082214 198.06550598 236.00056458 C 197.43563843 236.04071045 196.30451965 235.40609741 194.61083984 234.85652161 C 192.38009644 234.17759705 189.85435486 233.41664124 187.07090759 232.67221069 C 184.26354980 231.54168701 181.15792847 230.38883972 177.80592346 229.23078918 C 174.26388550 228.28366089 170.69902039 227.11866760 166.91600037 225.76087952 C 163.04443359 224.40203857 159.19360352 222.97413635 154.94311523 221.86981201 C 150.79084778 220.35035706 146.54161072 219.09500122 142.32273865 217.54924011 C 137.97065735 216.16461182 133.58407593 214.85188293 112.87599945 208.07220459" stroke-width="1.36453784" fill="rgb(238, 54, 34)" opacity="1.0" stroke="rgb(194, 0, 24)" stroke-opacity="0.59969395" stroke-linecap="round" stroke-linejoin="round"/>
    <path d="M 312.00692749 231.72048950 C 319.83450317 227.95402527 327.58056641 224.34716797 335.29547119 220.80569458 C 342.78015137 217.24169922 350.03140259 213.80328369 356.94897461 210.62498474 C 363.54769897 207.52693176 369.81167603 204.64428711 375.37066650 202.03520203 C 380.21038818 199.80725098 384.52261353 197.80709839 388.16046143 195.93618774 C 391.03588867 194.61468506 393.13922119 193.66938782 394.32431030 194.07189941 C 395.34378052 195.99456787 396.25335693 198.41282654 396.65792847 200.29235840 C 396.93966675 200.97644043 397.08474731 200.44462585 397.32733154 198.65893555 C 398.71740723 195.91940308 401.16500854 193.90396118 403.82232666 194.62255859 C 406.01260376 198.65000916 407.91958618 204.17657471 409.37551880 209.46580505 C 409.93316650 212.08506775 408.82159424 211.44313049 407.42962646 208.16764832 C 405.62094116 203.44934082 404.11358643 197.96885681 401.52645874 194.76770020 C 396.92092896 196.21844482 395.99832153 200.67494202 399.30255127 206.21755981 C 398.03948975 209.43486023 392.05276489 210.97906494 384.48883057 213.05728149 C 376.79617310 215.72953796 369.48532104 218.07711792 362.60290527 220.34487915 C 356.52758789 222.21643066 351.19720459 223.89683533 346.40209961 225.63673401 C 342.03579712 227.27435303 338.12121582 228.63452148 334.34170532 229.64912415 C 330.98400879 230.62864685 327.95275879 231.79693604 325.05322266 232.50131226 C 322.60168457 233.43890381 320.40222168 234.38101196 318.48510742 235.24694824 C 316.89038086 235.58963013 315.50170898 235.91679382 314.48397827 236.29576111 C 313.93597412 236.80392456 313.57461548 237.20314026 312.00692749 231.72048950" stroke-width="0.71777058" fill="rgb(232, 54, 33)" opacity="1.0" stroke="rgb(97, 5, 47)" stroke-opacity="0.53787386" stroke-linecap="round" stroke-linejoin="round"/>
    <path d="M 369.87756348 155.21913147 C 371.94821167 157.83709717 373.75442505 160.06092834 375.41546631 160.99592590 C 377.05673218 159.40509033 379.34832764 157.39799500 381.96780396 156.61604309 C 383.81069946 158.89277649 385.59725952 161.68411255 387.82733154 164.73143005 C 389.18325806 167.18943787 390.51498413 169.02352905 391.66729736 169.38153076 C 391.06799316 169.35421753 389.42913818 167.90565491 388.18057251 165.44618225 C 385.93487549 162.14773560 383.80343628 158.82975769 381.86093140 156.48751831 C 379.12182617 157.76660156 376.33126831 159.45780945 375.37973022 161.56886292 C 378.45919800 165.53424072 381.96978760 169.60528564 382.47491455 173.25964355 C 378.59683228 172.36851501 373.65463257 172.32991028 368.10311890 176.88987732 C 360.82333374 182.22700500 353.17730713 187.37040710 346.03567505 192.38124084 C 339.42315674 196.92353821 333.42541504 201.06637573 327.87219238 204.95359802 C 322.51754761 208.64088440 317.74890137 212.07960510 313.54702759 215.14280701 C 309.97409058 217.57078552 307.20501709 219.54211426 305.40036011 220.47848511 C 303.93725586 219.48240662 302.85485840 217.82456970 301.82608032 216.31842041 C 302.16876221 215.22874451 303.70117188 214.15390015 305.55352783 212.52207947 C 307.84902954 210.49876404 310.65762329 208.21516418 313.55780029 205.48699951 C 316.64346313 202.38766479 320.38037109 199.44046021 324.15002441 196.00802612 C 328.12268066 192.34008789 332.31094360 188.51356506 336.73022461 184.78166199 C 341.11926270 180.87821960 345.38076782 176.77407837 349.87203979 172.86462402 C 354.46084595 169.01417542 358.81964111 164.82356262 369.87756348 155.21913147" stroke-width="0.54646856" fill="rgb(235, 57, 30)" opacity="1.0" stroke="rgb(38, 0, 14)" stroke-opacity="0.3115641" stroke-linecap="round" stroke-linejoin="round"/>
    <path d="M 223.63192749 358.47457886 C 227.82949829 363.58990479 232.57403564 366.51602173 235.94529724 366.13470459 C 237.03607178 362.41775513 239.36361694 363.78265381 245.05903625 366.94635010 C 247.86140442 369.36660767 246.96801758 370.88439941 243.10420227 371.06683350 C 237.41731262 370.78250122 231.53283691 369.11254883 227.38224792 365.87460327 C 224.57815552 362.55551147 221.18772888 362.26556396 216.66941833 364.07479858 C 212.14018250 367.20953369 207.75653076 371.12811279 203.26516724 375.08245850 C 198.46733093 378.54913330 193.69689941 381.19598389 189.11364746 382.56054688 C 184.67004395 383.48794556 180.64813232 383.36245728 176.47067261 381.91378784 C 172.94154358 379.86401367 169.04745483 378.28536987 164.94978333 377.20239258 C 160.81668091 376.13366699 156.85536194 374.80154419 153.51420593 372.72750854 C 151.04359436 369.60748291 147.96722412 366.90307617 144.97973633 364.12640381 C 142.41479492 361.16262817 140.27975464 358.39321899 138.22367859 356.44717407 C 137.76754761 354.21957397 138.09817505 352.10888672 139.14109802 350.17721558 C 140.90138245 348.47149658 143.27552795 347.04678345 146.11637878 345.98873901 C 149.33001709 345.29193115 152.73435974 344.98764038 156.10060120 345.25732422 C 159.02574158 346.07772827 162.25453186 345.67575073 165.91113281 344.81286621 C 169.75241089 343.47174072 173.73023987 342.05535889 178.10699463 340.66506958 C 182.61282349 339.61831665 186.99890137 339.23709106 191.25820923 339.70736694 C 195.54997253 341.23260498 199.77227783 343.22882080 203.97080994 345.36944580 C 207.47219849 348.42254639 210.88258362 351.79153442 223.63192749 358.47457886" stroke-width="1.70352709" fill="rgb(67, 113, 76)" opacity="1.0" stroke="rgb(255, 244, 255)" stroke-opacity="0.13862395" stroke-linecap="round" stroke-linejoin="round"/>
    <path d="M 357.79653931 372.39526367 C 356.85400391 374.82907104 355.83706665 377.20040894 354.74114990 379.13723755 C 353.27319336 380.48315430 351.65258789 381.50051880 349.93005371 382.39370728 C 347.96142578 382.86843872 345.95422363 382.82687378 343.66879272 382.57678223 C 340.97003174 382.55911255 338.31814575 382.62704468 335.81808472 382.22991943 C 333.15747070 382.78475952 330.02584839 382.93908691 327.19927979 383.18212891 C 324.38952637 382.51193237 321.34548950 381.79473877 318.38418579 380.93267822 C 315.51101685 379.79022217 312.87435913 378.45306396 310.40600586 377.08312988 C 308.40542603 375.34707642 306.60556030 373.32107544 304.85623169 371.17422485 C 303.21646118 369.14166260 301.85833740 367.20419312 301.10314941 365.17245483 C 301.04919434 362.99136353 301.41445923 360.76492310 302.28997803 358.72344971 C 303.77963257 356.99703979 305.63720703 355.63894653 307.68130493 354.43801880 C 309.95092773 353.30322266 312.44451904 352.15893555 315.09603882 350.94137573 C 317.87307739 349.80120850 320.81454468 348.90850830 323.82012939 348.24652100 C 326.80920410 347.85385132 329.78662109 347.77987671 332.78045654 347.87170410 C 335.77221680 348.10205078 338.64337158 348.46676636 341.36569214 349.03750610 C 343.92675781 349.89096069 346.38623047 350.96990967 348.70779419 352.24514771 C 350.88378906 353.60568237 353.02731323 355.06906128 355.02383423 356.60311890 C 356.88854980 358.15856934 358.82733154 359.64562988 360.69369507 361.18194580 C 362.38891602 362.87139893 363.99420166 364.63323975 365.59448242 366.38027954 C 367.24340820 368.05609131 368.81152344 369.87548828 357.79653931 372.39526367" stroke-width="2.00000000" fill="rgb(91, 144, 73)" opacity="1.0" stroke="rgb(242, 247, 255)" stroke-opacity="0.6112743" stroke-linecap="round" stroke-linejoin="round"/>
    <path d="M 319.87683105 255.15431213 C 329.80636597 255.18771362 339.69635010 255.09487915 349.58425903 255.24473572 C 359.19067383 255.07025146 368.63980103 255.09306335 378.14627075 255.30671692 C 387.26382446 255.21234131 395.45779419 255.15170288 402.27832031 255.28997803 C 407.07379150 255.34808350 408.91754150 255.51077271 408.95712280 251.62863159 C 408.17645264 244.39428711 406.67691040 235.72496033 408.98800659 228.12442017 C 412.39089966 225.35583496 414.78060913 226.26884460 415.31445312 231.18464661 C 416.66778564 236.98873901 416.57717896 242.56793213 417.22912598 247.28572083 C 417.20349121 251.14610291 417.03353882 254.36062622 416.19543457 257.10824585 C 414.40551758 258.46569824 413.64739990 258.40670776 414.02319336 255.33000183 C 414.08892822 249.84948730 413.73629761 243.23376465 412.47601318 236.36300659 C 411.87493896 229.49813843 411.34451294 225.94528198 409.12176514 228.01518250 C 406.75662231 234.11906433 407.89453125 242.15576172 408.88571167 250.14300537 C 408.35424805 257.23767090 408.98901367 262.51303101 408.58795166 265.29211426 C 406.35552979 264.46307373 403.21670532 263.15722656 399.01748657 263.34414673 C 394.80047607 263.98226929 390.50445557 266.00823975 385.57412720 267.70651245 C 380.29965210 268.56216431 375.00225830 267.42037964 369.74496460 264.83029175 C 364.97784424 262.71020508 359.48223877 262.70669556 354.66397095 264.20132446 C 350.48919678 267.05047607 345.57940674 267.66320801 340.31936646 267.96517944 C 335.97863770 267.27996826 332.09564209 265.71405029 328.08514404 263.95910645 C 324.22003174 262.02413940 320.27215576 260.18106079 319.87683105 255.15431213" stroke-width="1.10487735" fill="rgb(6, 35, 70)" opacity="1.0" stroke="rgb(252, 242, 184)" stroke-opacity="0.4994959" stroke-linecap="round" stroke-linejoin="round"/>
    <path d="M 212.06134033 249.32789612 C 207.84390259 253.51170349 205.97946167 257.51260376 206.81538391 260.60678101 C 209.87409973 260.88015747 212.76158142 258.42187500 216.01330566 254.99197388 C 218.92333984 253.40072632 219.02658081 254.89973450 216.71849060 259.10363770 C 212.76095581 262.71081543 208.43762207 265.79415894 206.37863159 269.88888550 C 203.44332886 270.71978760 199.42158508 268.55361938 195.52166748 265.83175659 C 190.98866272 263.71701050 186.32662964 263.17834473 181.41830444 264.03503418 C 176.97959900 265.63543701 172.80442810 267.44174194 168.62286377 268.05187988 C 164.48278809 268.30151367 160.99177551 267.57400513 157.52070618 265.83374023 C 153.61648560 264.43081665 150.16133118 262.86645508 146.35372925 263.06024170 C 141.94010925 263.49411011 137.76293945 265.01852417 133.58337402 267.06774902 C 129.36793518 268.31857300 125.15868378 268.14675903 120.69409180 267.04840088 C 116.81426239 265.14697266 112.84548950 263.76068115 109.53132629 263.41308594 C 107.16441345 262.81439209 105.28369141 263.28872681 104.11694336 263.94641113 C 103.35385895 263.36563110 103.43603516 261.91671753 103.26359558 259.83163452 C 103.28742981 257.52893066 103.15563202 255.62629700 103.45785522 254.99050903 C 105.43171692 255.17968750 108.92926788 255.15135193 114.13452148 255.29421997 C 120.55255127 255.18164062 127.69062042 255.21080017 135.57411194 255.28381348 C 144.13862610 255.42993164 153.11784363 255.17269897 162.28285217 255.35119629 C 171.62646484 254.89387512 180.70869446 255.58044434 188.95960999 255.10850525 C 196.23622131 255.39178467 202.29875183 256.03689575 212.06134033 249.32789612" stroke-width="1.63384295" fill="rgb(7, 34, 74)" opacity="1.0" stroke="rgb(182, 255, 158)" stroke-opacity="0.20541295" stroke-linecap="round" stroke-linejoin="round"/>
    <path d="M 341.69793701 316.53659058 C 338.25497437 318.91824341 335.19021606 321.02447510 333.33425903 323.58508301 C 332.45346069 326.83413696 332.07574463 330.25939941 331.62387085 333.32833862 C 330.83813477 335.86895752 329.14614868 337.21426392 326.53628540 338.07766724 C 324.32745361 340.02618408 321.50115967 341.46936035 318.14804077 342.88388062 C 315.47827148 346.42141724 312.34078979 350.48818970 308.92739868 354.79858398 C 305.03707886 358.65795898 301.38592529 362.52697754 297.99548340 364.76046753 C 294.92987061 363.96777344 291.93533325 363.00729370 288.95623779 362.45843506 C 286.54531860 364.04541016 283.24417114 366.56146240 279.95736694 369.88775635 C 274.17367554 370.07684326 268.80511475 371.46551514 265.27661133 370.84210205 C 265.28485107 366.80075073 269.31845093 364.88250732 275.57455444 366.92425537 C 282.44735718 365.55712891 287.92071533 360.59512329 291.67471313 354.18685913 C 292.94757080 349.73690796 293.88708496 349.45462036 295.99896240 351.86846924 C 298.87496948 351.14801025 302.89175415 348.79281616 307.85800171 345.95346069 C 313.15402222 342.34259033 317.62615967 337.20330811 321.64154053 330.93478394 C 325.11489868 324.67657471 328.51397705 320.05606079 330.74099731 317.67782593 C 329.79827881 317.90026855 326.91900635 319.73056030 323.81546021 320.88653564 C 322.42205811 320.70489502 323.17025757 319.24035645 325.79409790 317.69268799 C 328.81909180 315.10836792 330.74172974 311.43310547 331.98703003 307.86810303 C 335.02413940 306.49114990 339.46499634 306.74026489 344.83334351 308.30139160 C 350.83639526 310.74652100 357.12976074 313.35192871 341.69793701 316.53659058" stroke-width="1.94776213" fill="rgb(12, 35, 78)" opacity="1.0" stroke="rgb(159, 255, 255)" stroke-opacity="0.08184426" stroke-linecap="round" stroke-linejoin="round"/>
    <path d="M 205.39680481 301.09176636 C 203.08869934 305.16915894 201.07130432 309.05352783 199.25119019 312.54840088 C 197.70997620 315.30157471 196.99136353 317.10830688 196.86505127 318.14044189 C 196.97100830 317.02377319 195.93515015 315.76934814 192.65101624 314.55868530 C 189.21392822 312.68600464 185.12091064 311.22323608 180.48246765 310.52954102 C 176.23768616 310.48980713 172.28332520 312.08331299 168.01757812 313.65228271 C 164.30863953 315.75790405 160.66552734 317.44503784 156.76217651 318.03079224 C 152.62162781 317.92236328 148.98963928 317.49996948 145.78289795 315.58889771 C 142.63153076 313.14154053 138.75747681 311.73095703 134.41978455 311.00527954 C 129.88241577 310.81530762 126.05393982 311.64169312 122.44542694 312.95590210 C 119.51729584 314.31707764 117.89120483 315.69134521 116.86901093 316.05065918 C 116.39718628 314.43017578 115.34352112 311.99346924 114.12506866 309.09173584 C 113.49931335 306.35955811 112.74411774 304.10720825 112.14482117 302.96926880 C 112.76998138 302.63830566 114.27883148 302.51159668 116.60171509 302.33245850 C 119.13092804 300.75137329 122.70370483 299.82864380 126.25759125 298.28305054 C 129.93566895 297.16427612 133.52911377 296.89779663 137.25329590 297.51687622 C 140.67024231 298.82516479 144.20326233 300.45166016 147.81604004 302.18881226 C 151.97578430 303.62179565 155.84173584 304.62976074 160.71661377 304.00653076 C 165.29315186 303.15728760 169.72494507 301.41915894 173.89317322 299.10733032 C 178.01368713 297.17535400 182.35871887 296.76141357 187.10108948 297.66030884 C 192.37754822 298.64102173 197.12455750 301.25970459 205.39680481 301.09176636" stroke-width="1.94765329" fill="rgb(5, 38, 84)" opacity="1.0" stroke="rgb(5, 32, 67)" stroke-opacity="0.97606504" stroke-linecap="round" stroke-linejoin="round"/>
    <path d="M 196.35981750 337.80313110 C 193.90505981 335.39370728 190.75656128 334.22967529 187.75704956 333.17593384 C 184.97422791 332.62820435 182.73928833 333.14813232 179.95262146 332.89022827 C 176.61967468 333.87539673 172.78982544 335.31774902 169.36901855 337.46850586 C 165.90603638 339.23428345 162.49000549 340.17602539 159.16613770 339.87002563 C 155.76344299 339.36065674 152.64274597 337.65875244 149.31724548 335.98376465 C 146.03540039 334.02059937 142.46287537 332.85595703 138.86505127 332.54656982 C 135.96719360 332.27890015 133.47181702 333.29867554 130.78495789 333.74093628 C 129.27641296 334.86282349 127.93485260 335.59448242 126.75449371 335.68322754 C 125.61093903 334.23382568 124.08208466 331.93240356 122.87344360 328.89373779 C 121.45697021 326.11679077 120.21169281 323.54968262 119.60531616 321.96960449 C 121.02896881 320.76123047 123.92351532 319.69720459 127.31559753 319.17523193 C 130.80863953 318.10165405 133.57247925 318.20507812 137.26908875 319.51425171 C 140.93272400 320.96951294 144.33296204 323.26165771 147.94645691 324.87426758 C 152.27088928 325.73394775 156.58323669 325.84552002 160.72834778 325.38214111 C 164.03289795 324.35943604 167.15615845 322.85705566 170.12184143 321.27862549 C 172.93972778 319.33245850 176.10665894 318.25851440 179.37643433 317.98947144 C 182.58102417 318.06805420 185.41159058 318.59457397 187.98898315 319.39282227 C 190.22181702 320.29425049 192.50740051 321.02624512 194.42955017 321.66864014 C 195.72851562 320.69595337 196.44026184 319.77178955 196.63638306 320.00402832 C 196.11224365 321.58737183 194.69024658 323.49215698 196.35981750 337.80313110" stroke-width="1.85211241" fill="rgb(3, 36, 83)" opacity="1.0" stroke="rgb(3, 28, 65)" stroke-opacity="0.9760295" stroke-linecap="round" stroke-linejoin="round"/>
    <path d="M 397.86230469 315.21075439 C 394.23736572 313.75289917 390.90051270 312.53155518 387.31604004 313.05532837 C 383.48318481 313.58374023 379.96783447 316.09973145 375.65237427 317.90634155 C 371.59814453 319.92590332 367.55364990 320.60644531 363.16000366 319.57962036 C 358.33303833 317.99786377 353.26513672 315.66564941 347.23229980 314.68713379 C 341.20877075 311.72790527 336.00549316 308.50173950 331.48223877 307.05758667 C 327.90710449 309.47143555 322.70996094 310.99270630 315.67773438 313.62982178 C 308.28652954 328.05639648 301.94833374 329.79498291 306.78695679 319.01303101 C 299.75369263 319.33197021 289.76309204 320.81961060 286.86959839 318.60830688 C 297.62265015 317.29644775 310.07135010 314.11779785 317.62771606 304.88336182 C 321.31359863 300.46313477 318.41156006 302.08456421 310.90316772 305.21923828 C 301.70379639 307.35589600 294.80154419 307.22509766 294.09399414 306.02349854 C 300.82485962 305.12478638 309.39132690 302.61135864 316.45339966 298.24151611 C 322.07568359 298.79141235 326.92968750 300.57986450 332.27694702 299.72741699 C 338.90713501 297.54846191 345.55288696 294.47286987 352.69213867 295.47354126 C 358.75714111 297.53591919 363.30343628 300.98114014 368.13165283 301.77413940 C 372.93893433 302.94668579 377.08044434 302.31604004 381.55825806 300.53640747 C 385.11846924 298.74343872 388.07769775 296.94238281 390.74047852 295.91467285 C 393.00384521 295.62612915 394.73428345 295.08071899 396.61819458 295.18112183 C 398.84249878 295.55889893 400.97760010 295.81829834 402.82998657 296.43447876 C 403.83859253 295.59628296 404.86471558 294.75088501 397.86230469 315.21075439" stroke-width="2.00000000" fill="rgb(6, 39, 80)" opacity="1.0" stroke="rgb(114, 255, 255)" stroke-opacity="0.0272772" stroke-linecap="round" stroke-linejoin="round"/>
    <path d="M 197.72128296 332.66198730 C 199.36738586 338.84674072 202.16062927 344.19528198 206.49505615 348.18997192 C 211.10020447 351.78009033 215.90713501 353.65249634 220.22888184 353.88211060 C 222.27340698 355.80218506 223.22361755 357.53625488 222.31889343 358.75509644 C 218.45391846 358.38052368 213.51495361 358.17086792 208.08917236 357.72244263 C 203.12168884 355.10055542 197.95454407 353.03988647 191.88905334 352.61428833 C 185.31632996 351.75827026 178.69427490 351.77786255 172.22399902 352.86434937 C 166.28300476 353.85308838 161.34013367 355.55844116 157.59922791 358.29479980 C 154.88533020 360.75167847 154.23269653 363.09481812 155.50958252 365.50894165 C 156.09065247 367.96603394 155.39262390 370.18667603 153.78985596 371.37536621 C 151.52398682 371.05569458 149.40118408 369.03585815 147.22361755 365.72036743 C 143.99511719 362.42218018 140.73309326 358.78479004 137.52464294 354.92437744 C 134.43930054 351.31448364 131.99214172 347.70172119 130.06541443 344.69973755 C 128.49011230 342.55776978 127.49240875 341.34515381 127.74315643 340.73327637 C 129.64215088 339.99957275 132.45326233 339.23080444 135.59629822 338.09396362 C 138.82743835 337.87237549 142.31448364 338.96017456 146.10566711 340.53567505 C 149.52380371 342.82501221 153.36964417 344.66061401 157.46441650 345.74197388 C 161.57757568 346.06198120 165.55563354 345.45233154 169.45753479 344.01177979 C 172.83283997 341.79217529 176.05857849 339.45590210 180.09840393 338.46997070 C 184.73809814 337.96444702 188.91015625 338.36669922 192.26103210 339.98870850 C 194.96553040 341.42999268 196.28289795 343.56832886 197.72128296 332.66198730" stroke-width="2.00000000" fill="rgb(3, 37, 81)" opacity="1.0" stroke="rgb(255, 255, 255)" stroke-opacity="0.052493908" stroke-linecap="round" stroke-linejoin="round"/>
    <path d="M 193.46229553 292.31384277 C 189.55050659 291.19418335 186.22645569 289.99624634 182.74230957 289.94967651 C 178.74736023 290.17935181 174.91041565 290.67007446 171.47604370 292.09143066 C 167.98490906 293.94454956 164.41352844 295.37420654 160.96739197 296.48529053 C 157.56666565 296.90536499 154.24848938 296.36117554 150.87113953 295.39343262 C 147.44592285 293.81451416 144.21508789 291.85412598 140.69085693 290.54769897 C 137.10879517 289.49548340 133.23611450 289.59143066 129.15919495 289.66564941 C 125.08688354 290.93545532 121.23360443 292.31689453 117.79350281 294.23837280 C 114.74684143 295.62966919 112.17485046 296.45736694 110.48087311 296.17089844 C 109.80163574 294.65359497 109.32878113 292.05087280 108.64591217 289.02432251 C 108.32097626 286.02044678 107.78230286 283.51531982 107.28170013 281.93209839 C 108.88439178 281.74865723 111.65238953 282.44625854 114.92340851 283.83184814 C 117.86788940 285.73074341 121.86943054 286.47778320 126.14608765 287.29614258 C 130.60983276 286.66656494 135.02540588 285.75616455 139.01036072 283.58703613 C 143.12214661 281.61849976 147.39764404 281.51367188 151.73547363 282.92025757 C 156.06965637 284.83523560 160.22106934 286.56344604 164.82853699 286.84133911 C 169.42230225 286.55554199 173.76023865 285.55438232 177.55584717 283.30184937 C 181.96760559 281.83621216 186.35916138 281.64233398 190.46910095 281.58941650 C 194.24461365 281.26077271 197.45758057 280.97296143 199.82583618 281.35690308 C 201.55819702 283.22180176 202.74118042 286.33041382 203.49702454 290.23883057 C 204.40431213 294.64447021 205.53601074 299.00140381 193.46229553 292.31384277" stroke-width="1.96723676" fill="rgb(4, 38, 84)" opacity="1.0" stroke="rgb(5, 32, 68)" stroke-opacity="0.9813339" stroke-linecap="round" stroke-linejoin="round"/>
    <path d="M 141.61204529 268.45019531 C 146.27647400 267.09130859 150.32189941 267.59274292 154.69882202 269.30639648 C 158.80894470 271.27517700 162.57237244 272.78137207 166.49430847 272.38052368 C 170.32997131 272.48733521 173.82905579 270.97430420 177.84269714 269.63681030 C 181.10122681 267.86718750 184.16809082 266.91744995 187.64642334 267.07955933 C 191.26222229 268.23455811 195.02659607 268.58712769 198.40130615 268.94854736 C 201.05271912 269.59906006 202.76638794 270.33938599 203.88554382 271.57754517 C 203.76354980 273.08279419 201.61100769 274.91067505 199.88621521 277.41253662 C 196.88108826 277.87362671 192.97589111 277.35183716 188.87884521 276.73272705 C 185.41412354 275.66946411 182.03346252 275.64202881 178.28283691 276.94515991 C 174.03852844 278.59237671 169.51316833 280.18023682 165.03492737 280.43566895 C 160.63908386 279.70529175 156.23576355 277.31060791 151.36589050 275.65792847 C 146.64559937 274.50048828 142.47933960 274.62533569 138.25846863 276.11279297 C 134.58580017 278.27618408 130.96528625 279.57913208 126.83955383 280.04669189 C 122.68534851 279.98300171 119.07530212 278.84976196 115.60968018 276.77258301 C 111.87071991 275.26187134 108.65357971 274.68231201 106.23085785 274.98736572 C 105.95255280 274.30709839 105.99095154 272.92630005 106.38676453 271.42205811 C 106.14044189 270.35287476 105.61058044 268.92102051 105.65241241 267.76065063 C 106.85854340 267.28634644 108.90468597 267.44027710 111.48905945 268.15460205 C 114.69952393 268.89797974 118.05112457 270.32266235 121.85424042 271.87655640 C 126.34167480 272.54028320 131.59190369 273.61459351 141.61204529 268.45019531" stroke-width="1.94465959" fill="rgb(6, 38, 85)" opacity="1.0" stroke="rgb(15, 39, 72)" stroke-opacity="0.9964149" stroke-linecap="round" stroke-linejoin="round"/>
    <path d="M 402.67938232 292.69335938 C 398.37118530 291.43203735 394.22592163 291.30728149 389.94726562 292.21118164 C 385.95086670 293.90438843 382.10955811 296.20712280 378.20245361 297.83065796 C 374.35983276 298.94723511 370.27166748 298.70700073 366.05004883 297.43368530 C 361.46453857 295.49633789 356.95681763 293.13388062 352.19256592 291.88610840 C 346.89941406 291.54333496 341.93353271 292.74642944 336.90954590 295.65686035 C 331.47900391 298.61685181 324.73803711 299.62365723 318.75277710 299.95590210 C 315.70431519 299.03610229 317.07260132 297.44311523 320.47152710 294.73098755 C 322.88403320 291.07327271 324.30877686 287.64968872 324.22564697 286.35327148 C 321.72055054 288.73941040 317.24197388 291.24362183 311.21911621 292.73171997 C 305.69561768 294.42102051 302.02044678 294.83840942 302.06643677 294.45834351 C 306.32974243 292.85882568 311.91842651 290.16043091 317.53356934 286.19311523 C 321.51699829 281.82470703 324.65316772 279.07846069 328.30886841 279.43109131 C 332.54672241 281.89706421 337.08563232 284.21609497 342.46112061 284.47561646 C 347.96572876 283.78594971 353.14254761 281.49230957 358.63162231 280.14743042 C 364.61099243 279.78009033 369.63702393 282.21044922 374.96578979 284.34573364 C 379.23242188 286.08615112 383.09432983 285.16867065 387.38681030 283.71987915 C 391.56481934 282.16546631 395.28628540 280.34469604 398.79409790 279.94091797 C 402.50939941 280.30651855 405.36383057 280.34640503 406.77249146 281.49139404 C 406.61151123 283.64065552 406.06854248 286.49835205 405.17691040 289.65673828 C 404.48986816 292.59353638 405.39086914 294.96563721 402.67938232 292.69335938" stroke-width="1.43119407" fill="rgb(9, 38, 79)" opacity="1.0" stroke="rgb(163, 255, 255)" stroke-opacity="0.009896706" stroke-linecap="round" stroke-linejoin="round"/>
    <path d="M 397.76473999 337.64407349 C 392.36462402 343.92077637 387.51425171 350.13125610 382.12197876 355.02651978 C 375.94940186 358.34555054 369.95285034 361.24862671 364.59960938 364.06726074 C 360.96179199 367.81777954 358.02520752 370.95086670 355.30300903 372.48080444 C 353.28192139 372.53048706 352.46957397 371.50314331 353.07110596 369.97906494 C 355.72976685 368.70916748 357.99185181 366.42996216 358.80010986 363.48974609 C 358.34542847 360.34008789 356.30648804 357.66717529 352.80163574 355.64154053 C 348.58496094 353.65695190 343.64572144 352.23519897 337.99243164 351.44683838 C 332.15390015 350.78042603 326.51742554 350.56161499 321.22567749 351.25830078 C 316.42279053 351.92834473 312.59887695 352.91665649 309.83386230 353.57800293 C 308.23635864 353.09948730 308.01864624 351.42071533 309.16885376 349.26757812 C 311.60543823 347.15853882 314.96612549 345.39431763 318.71951294 344.55767822 C 322.41723633 344.28961182 325.97415161 343.08245850 329.45220947 341.27029419 C 333.17950439 339.51266479 337.28152466 339.04498291 341.39080811 339.72103882 C 345.11578369 340.01016235 348.43591309 342.59930420 352.74005127 344.60867310 C 357.38507080 346.68374634 362.21240234 346.92605591 367.28463745 345.59771729 C 371.91351318 343.74670410 375.98260498 341.57791138 379.84225464 340.72372437 C 384.87719727 341.93191528 389.91397095 341.05331421 394.30880737 336.62591553 C 398.93649292 329.63046265 403.08953857 320.52551270 406.72775269 309.75637817 C 410.11483765 297.61715698 413.20040894 284.95590210 414.09912109 272.74920654 C 415.85116577 264.52453613 422.25283813 259.94808960 397.76473999 337.64407349" stroke-width="1.21459270" fill="rgb(4, 35, 84)" opacity="1.0" stroke="rgb(0, 28, 57)" stroke-opacity="0.95361" stroke-linecap="round" stroke-linejoin="round"/>
    <path d="M 326.15081787 269.34954834 C 330.42303467 269.67596436 334.74752808 270.22860718 338.65722656 270.71298218 C 342.36584473 271.03314209 346.01855469 270.61724854 349.53591919 269.44360352 C 352.63790894 267.49090576 356.15899658 266.39916992 360.00268555 265.92758179 C 363.73764038 265.53042603 367.32632446 266.63760376 371.40982056 268.21725464 C 375.18838501 270.31530762 379.74243164 270.68148804 384.52615356 270.49929810 C 387.92150879 269.58261108 391.30282593 268.15548706 394.34936523 266.56076050 C 397.60156250 265.91836548 400.77432251 265.42123413 403.36254883 265.62115479 C 405.41146851 266.66342163 407.33615112 266.57427979 408.56344604 267.17666626 C 408.45928955 269.12344360 408.24554443 271.64654541 407.83694458 274.37661743 C 407.63174438 276.65954590 407.47897339 278.11950684 406.63726807 278.35025024 C 404.53106689 277.23428345 401.76641846 276.64218140 398.49542236 277.03695679 C 395.00097656 277.19543457 391.31634521 278.74127197 387.73645020 280.57055664 C 384.28738403 281.90826416 380.72427368 281.92349243 377.26821899 281.78784180 C 373.77990723 280.51705933 370.22174072 279.13992310 366.62387085 277.59054565 C 362.58850098 276.62667847 358.80453491 276.41894531 355.06085205 277.73703003 C 351.33657837 279.03314209 347.73696899 280.54852295 344.62286377 282.10403442 C 341.08599854 282.73269653 337.58511353 282.18032837 334.15469360 281.38308716 C 330.51907349 281.30130005 327.29196167 281.54632568 324.56698608 281.52609253 C 322.41061401 281.47372437 321.20016479 281.46908569 321.48394775 281.59295654 C 322.70657349 280.45727539 324.60180664 279.38415527 326.15081787 269.34954834" stroke-width="2.00000000" fill="rgb(9, 35, 83)" opacity="1.0" stroke="rgb(185, 255, 255)" stroke-opacity="0.044153783" stroke-linecap="round" stroke-linejoin="round"/>
    <path d="M 317.92828369 430.03659058 C 309.00189209 429.39556885 300.32394409 428.59442139 292.30911255 427.72201538 C 285.39794922 426.49038696 280.04949951 424.53781128 276.76333618 421.63964844 C 276.12051392 417.49877930 277.41363525 412.57702637 279.34277344 407.59643555 C 281.00222778 403.22552490 281.89675903 400.49307251 280.22680664 399.35647583 C 276.29718018 399.10885620 270.90914917 398.84024048 265.59295654 398.11102295 C 262.12478638 396.43194580 260.44369507 394.02169800 260.22418213 391.02529907 C 261.19467163 387.76116943 263.03854370 384.43087769 265.15719604 381.36508179 C 266.43655396 378.35421753 266.48892212 375.93093872 265.53875732 373.98797607 C 264.22634888 372.08334351 262.34869385 370.96594238 260.14257812 370.33847046 C 258.24829102 369.61303711 256.79864502 369.58563232 256.29776001 369.52340698 C 257.52005005 369.03890991 259.77490234 368.54034424 262.13638306 367.37576294 C 264.02865601 365.43908691 265.30499268 363.69778442 266.19802856 363.76889038 C 265.29827881 365.76626587 264.87631226 368.98309326 265.40008545 372.66638184 C 266.85440063 376.16860962 269.19763184 378.92922974 270.10089111 381.83413696 C 268.72689819 385.43914795 265.99362183 389.26922607 263.32992554 392.99929810 C 262.23962402 395.93835449 262.98336792 397.49102783 265.67233276 396.94900513 C 269.68957520 394.94476318 274.78359985 393.42022705 280.59735107 393.35781860 C 286.51394653 394.31121826 292.20452881 396.80313110 298.31762695 398.26306152 C 305.69567871 398.74877930 313.82431030 396.54046631 323.09851074 393.44781494 C 333.65643311 391.16812134 345.07913208 389.11093140 317.92828369 430.03659058" stroke-width="0.91061723" fill="rgb(2, 33, 81)" opacity="1.0" stroke="rgb(0, 17, 57)" stroke-opacity="0.83881927" stroke-linecap="round" stroke-linejoin="round"/>
    <path d="M 397.95513916 316.28375244 C 393.71868896 319.99703979 392.07003784 325.56463623 390.68017578 330.64065552 C 389.44448853 334.13439941 387.63323975 336.68289185 385.84542847 337.88052368 C 383.18350220 337.65792847 379.80184937 337.17373657 375.86666870 337.60140991 C 371.50512695 338.41574097 367.71838379 340.63400269 363.84567261 341.21749878 C 360.42056274 341.86080933 356.66760254 340.48266602 352.40319824 338.89401245 C 348.63571167 336.55258179 344.67739868 335.16326904 340.54711914 334.38259888 C 336.49923706 334.00628662 333.34255981 334.57705688 330.63916016 336.29678345 C 328.06420898 337.28271484 325.84402466 337.76318359 324.10671997 337.63467407 C 322.84237671 336.70248413 322.16580200 334.94256592 322.06018066 332.50482178 C 322.65750122 329.70681763 323.94735718 326.45376587 326.13595581 323.69558716 C 328.65948486 322.22634888 331.20471191 321.43551636 334.01770020 320.81579590 C 337.03393555 319.61016846 340.58996582 318.30532837 344.31515503 317.87817383 C 348.39956665 317.57119751 352.56469727 318.23669434 355.97723389 320.35198975 C 359.89117432 322.51821899 363.95098877 323.75634766 368.42376709 323.62173462 C 372.16610718 323.52825928 376.33663940 322.05297852 379.84085083 319.98629761 C 383.38076782 318.06048584 386.88287354 316.88183594 390.07965088 316.53332520 C 392.91635132 317.06454468 395.08010864 317.63705444 396.38827515 318.02557373 C 397.30056763 316.52682495 398.58566284 315.93548584 400.79785156 315.92752075 C 403.64093018 314.87725830 406.57318115 314.27313232 409.38806152 314.10275269 C 412.28601074 314.17376709 415.14523315 313.71853638 397.95513916 316.28375244" stroke-width="0.00000000" fill="rgb(6, 36, 80)" opacity="1.0" stroke="rgb(106, 255, 255)" stroke-opacity="0.049845397" stroke-linecap="round" stroke-linejoin="round"/>
    <path d="M 349.35192871 387.09793091 C 341.03353882 392.99557495 332.59286499 398.31478882 323.69131470 402.75939941 C 314.83361816 407.08258057 305.90417480 410.58547974 296.56454468 413.21145630 C 287.40850830 415.87197876 278.20605469 417.61450195 268.68591309 418.31979370 C 259.27728271 418.91525269 250.23002625 418.95806885 241.21575928 418.10119629 C 232.07670593 417.13958740 223.21720886 415.63330078 214.74002075 413.08309937 C 206.50608826 410.70593262 199.07951355 407.61718750 192.14591980 404.60519409 C 185.93395996 401.74929810 181.35032654 398.88330078 178.24148560 397.18646240 C 175.84355164 397.07638550 177.06059265 396.32302856 180.05364990 395.64309692 C 182.07444763 394.44061279 183.67626953 392.39324951 186.49650574 391.58834839 C 190.53755188 392.31463623 195.56791687 393.98501587 201.56443787 396.22167969 C 208.47135925 398.80679321 216.13200378 401.60449219 224.21043396 404.56585693 C 232.36138916 407.59448242 240.43240356 410.49023438 248.69015503 413.00805664 C 257.18811035 414.34988403 265.61920166 413.81179810 274.16674805 412.61804199 C 283.44943237 411.63220215 292.95544434 409.65554810 302.48724365 406.21887207 C 313.06320190 402.71743774 323.64843750 397.90512085 334.51260376 391.12030029 C 346.12091064 383.46865845 357.56124878 374.38265991 367.94027710 363.03234863 C 378.20715332 351.38732910 386.46432495 339.12603760 392.13479614 327.48037720 C 395.72103882 318.75283813 398.83416748 315.35440063 402.33331299 316.80160522 C 400.53485107 321.78372192 396.67657471 330.26351929 390.49978638 340.57977295 C 383.22277832 352.46243286 375.24105835 365.05191040 349.35192871 387.09793091" stroke-width="1.33641076" fill="rgb(249, 249, 250)" opacity="1.0" stroke="rgb(12, 33, 64)" stroke-opacity="0.88223886" stroke-linecap="round" stroke-linejoin="round"/>
    <path d="M 297.65936279 433.58584595 C 259.82873535 442.47399902 222.49520874 439.67251587 184.85180664 422.99389648 C 144.39172363 404.25018311 114.35456085 372.20776367 96.40547180 336.52053833 C 104.50362396 321.05419922 112.84375763 329.05105591 134.75936890 363.99633789 C 167.27323914 398.50833130 199.72775269 416.68789673 236.47654724 420.98342896 C 268.55151367 424.90948486 296.23608398 419.03060913 319.13092041 409.03897095 C 336.26037598 400.52401733 346.23452759 393.54995728 349.89105225 390.61242676 C 345.77450562 387.16613770 338.22903442 384.92691040 328.00616455 387.92364502 C 317.02420044 394.82666016 306.25003052 400.88513184 296.15155029 404.16665649 C 287.87451172 405.01049805 281.65359497 404.78579712 277.72085571 404.88220215 C 275.95202637 405.22860718 276.29223633 405.27972412 278.79632568 404.88397217 C 283.00402832 404.77377319 288.68261719 404.90039062 295.74240112 404.22567749 C 303.60571289 401.84915161 312.25448608 397.56106567 321.60897827 391.74267578 C 330.74533081 385.68688965 339.19146729 384.87490845 349.12170410 389.31958008 C 363.20083618 381.08718872 377.72402954 366.06237793 390.10205078 348.37145996 C 401.57229614 330.58361816 409.28982544 311.72103882 413.57495117 292.28045654 C 417.09603882 274.35675049 417.59646606 259.74005127 417.12576294 251.50799561 C 420.22335815 252.21566772 426.28002930 254.24594116 433.29449463 255.89447021 C 434.36676025 264.58374023 432.89904785 278.76409912 429.22338867 296.69937134 C 425.12701416 316.75030518 416.39999390 338.11978149 401.27374268 360.96627808 C 381.87197876 386.08511353 358.83215332 415.07888794 297.65936279 433.58584595" stroke-width="2.00000000" fill="rgb(235, 113, 22)" opacity="1.0" stroke="rgb(32, 33, 54)" stroke-opacity="0.98801684" stroke-linecap="round" stroke-linejoin="round"/>
    <path d="M 249.69625854 403.69256592 C 240.37596130 399.95712280 233.21430969 397.81185913 227.50598145 399.98501587 C 224.65234375 400.80865479 227.48620605 400.99649048 233.55310059 401.39089966 C 240.97523499 403.20123291 247.66485596 408.23614502 255.88195801 408.90426636 C 265.15206909 409.24310303 272.48632812 405.03485107 279.06646729 401.02316284 C 283.82958984 402.26510620 285.27914429 406.38299561 282.37051392 410.96966553 C 276.03909302 413.13983154 267.35641479 413.00659180 257.01538086 413.64910889 C 245.70271301 413.81155396 234.34271240 412.87551880 223.40046692 410.19567871 C 213.00593567 407.59194946 203.46102905 404.23205566 195.67602539 400.72076416 C 189.41445923 397.50717163 184.75779724 395.31982422 182.11192322 393.66940308 C 181.90148926 392.04174805 183.63499451 390.87860107 186.76606750 390.43371582 C 190.80465698 390.93756104 195.54957581 392.31155396 200.24835205 394.37005615 C 205.33224487 396.26400757 210.28564453 396.40203857 215.27583313 395.04196167 C 220.02162170 393.12008667 224.18803406 391.75808716 228.67073059 391.26559448 C 232.89509583 391.19491577 236.66328430 391.52816772 240.09553528 392.73199463 C 243.66065979 393.58694458 246.80661011 394.99285889 249.67103577 395.73736572 C 252.99032593 396.21362305 256.74212646 396.49737549 260.57580566 396.69137573 C 264.10754395 396.63699341 267.51892090 396.36038208 271.14218140 396.63571167 C 274.40850830 397.66680908 276.70242310 398.97988892 277.66329956 399.94216919 C 277.29412842 400.53448486 275.12033081 401.07546997 270.98547363 402.26440430 C 265.74008179 403.83413696 259.08822632 406.05999756 249.69625854 403.69256592" stroke-width="0.18460265" fill="rgb(6, 38, 81)" opacity="1.0" stroke="rgb(6, 27, 37)" stroke-opacity="0.687519" stroke-linecap="round" stroke-linejoin="round"/>
    <path d="M 286.66726685 374.07098389 C 291.86480713 372.32110596 296.25387573 369.90454102 300.05169678 366.92883301 C 302.02178955 363.39166260 303.58889771 361.33325195 306.29257202 361.67968750 C 310.38995361 362.41058350 313.98236084 362.78826904 315.19671631 363.41061401 C 313.26864624 364.27142334 309.65612793 364.78454590 305.94647217 366.15899658 C 304.24734497 368.55523682 305.31750488 370.72042847 308.84216309 372.64544678 C 313.50793457 374.82479858 319.34317017 375.72763062 325.97174072 375.84582520 C 332.61911011 376.07641602 338.87344360 375.42517090 344.26733398 374.10916138 C 348.78836060 372.92892456 351.63418579 371.96310425 353.09332275 372.23947144 C 352.88867188 374.19003296 351.24371338 376.59713745 348.59164429 378.85482788 C 345.53265381 380.27999878 341.62377930 379.66873169 337.31051636 379.12933350 C 332.76211548 380.86965942 327.78646851 381.53036499 322.80856323 380.06045532 C 317.81777954 378.06564331 313.16134644 376.61917114 308.74114990 376.75338745 C 304.48110962 377.35214233 301.01431274 378.41418457 298.07019043 381.16421509 C 294.21942139 382.85510254 289.90072632 384.50064087 285.23767090 386.06164551 C 280.52062988 386.96997070 275.97167969 387.56332397 271.56988525 388.76745605 C 267.58578491 390.59295654 264.28619385 392.74078369 261.71032715 394.62747192 C 259.53646851 394.80023193 257.83197021 393.28790283 257.35934448 391.22406006 C 259.07647705 389.36831665 261.94189453 386.95639038 265.33932495 384.70697021 C 270.33331299 383.36410522 275.93756104 382.43893433 281.93280029 382.00335693 C 288.43423462 381.60372925 294.99972534 381.80151367 286.66726685 374.07098389" stroke-width="1.97509718" fill="rgb(4, 36, 83)" opacity="1.0" stroke="rgb(0, 27, 68)" stroke-opacity="0.9339957" stroke-linecap="round" stroke-linejoin="round"/>
    <path d="M 261.87289429 403.65835571 C 259.30548096 402.72888184 256.98562622 401.57940674 254.94689941 400.20642090 C 253.03620911 398.69873047 251.39729309 396.99206543 250.00837708 395.20748901 C 248.49125671 393.74441528 246.87245178 392.63510132 245.22740173 391.72747803 C 243.82131958 390.40942383 242.12135315 389.35946655 240.12138367 388.50228882 C 238.01446533 388.06600952 236.34164429 387.12292480 234.18070984 386.26248169 C 231.98922729 385.92965698 229.77064514 385.88735962 227.77198792 385.71817017 C 226.24696350 385.19201660 225.10882568 384.39337158 224.33584595 383.37536621 C 223.97966003 382.19989014 223.96614075 381.18566895 224.30946350 380.73468018 C 225.30654907 380.81365967 226.54771423 380.91082764 228.18403625 381.17889404 C 229.91676331 381.22711182 231.64483643 381.38827515 233.43830872 381.37152100 C 235.36793518 381.18481445 237.50505066 381.24127197 239.49996948 380.70669556 C 241.62712097 379.88778687 243.67398071 379.10504150 245.09109497 377.68035889 C 246.19773865 375.24273682 246.89202881 372.45428467 246.95645142 369.93051147 C 247.76260376 367.71389771 247.76066589 365.97363281 247.82928467 365.68908691 C 249.26850891 367.25152588 251.46113586 368.71917725 253.73655701 369.30566406 C 254.92918396 369.58990479 254.40940857 369.74353027 252.44300842 370.05282593 C 249.73835754 370.63665771 247.54324341 372.23754883 245.90721130 374.38098145 C 245.19367981 376.74533081 245.57394409 379.13623047 246.64340210 381.56335449 C 248.30497742 383.87512207 250.05044556 386.29010010 252.42149353 388.09863281 C 254.94010925 390.04476929 257.73358154 391.83401489 261.87289429 403.65835571" stroke-width="1.14936769" fill="rgb(6, 36, 84)" opacity="1.0" stroke="rgb(9, 28, 69)" stroke-opacity="0.95645577" stroke-linecap="round" stroke-linejoin="round"/>
    <path d="M 299.36712646 383.75723267 C 302.43740845 382.46221924 305.62313843 381.42193604 309.10989380 381.53775024 C 313.10595703 382.03256226 317.10198975 383.28448486 321.27182007 385.01388550 C 326.23077393 385.85095215 330.57061768 386.14633179 334.31893921 384.34973145 C 337.27221680 381.80279541 340.83224487 380.93273926 344.13677979 381.38214111 C 345.88125610 381.84710693 345.98718262 383.02572632 344.82308960 384.13845825 C 342.29541016 385.17089844 340.41116333 386.43679810 339.83908081 387.26391602 C 341.52337646 387.20223999 344.45751953 387.72348022 347.26651001 388.41397095 C 350.41821289 386.08334351 354.18798828 382.82824707 358.36239624 379.41235352 C 362.52877808 376.14431763 366.21365356 372.19082642 369.99972534 368.11349487 C 373.19210815 364.43075562 375.29666138 364.25305176 375.45434570 367.50225830 C 371.65887451 371.68481445 366.78561401 376.36758423 361.62225342 381.01278687 C 357.09918213 385.08801270 353.14328003 388.64013672 349.93765259 390.43728638 C 347.46856689 388.10333252 343.72180176 387.18536377 339.25573730 387.39843750 C 335.18414307 390.43457031 330.45416260 393.65209961 326.02493286 396.02655029 C 322.28985596 394.91278076 318.89926147 392.70217896 315.27325439 392.09729004 C 311.20895386 393.60098267 306.81454468 394.80603027 301.91876221 394.50506592 C 297.30261230 393.80364990 292.97048950 392.45541382 289.11306763 390.26565552 C 284.63482666 389.17047119 280.15420532 388.87472534 275.95803833 388.93029785 C 272.51513672 387.36352539 269.13189697 385.25448608 265.94119263 382.72705078 C 263.36444092 379.48452759 260.68014526 376.20376587 299.36712646 383.75723267" stroke-width="1.72364259" fill="rgb(8, 35, 74)" opacity="1.0" stroke="rgb(226, 243, 255)" stroke-opacity="0.22406676" stroke-linecap="round" stroke-linejoin="round"/>
    <path d="M 226.55911255 387.51452637 C 225.49736023 387.60052490 224.00192261 387.98919678 222.45492554 388.13540649 C 220.82327271 388.83969116 218.89561462 389.55630493 216.89799500 390.27264404 C 214.93690491 391.21701050 212.93276978 392.00335693 210.80711365 392.40115356 C 208.84590149 393.03555298 206.76716614 393.30236816 204.68185425 393.27703857 C 202.47798157 393.01269531 200.29472351 392.55386353 198.40135193 391.93371582 C 196.21919250 392.38192749 194.00781250 393.04678345 191.34767151 393.74066162 C 188.19343567 394.17288208 184.60037231 393.86206055 180.30912781 392.45877075 C 175.29637146 389.34243774 169.60954285 385.68676758 164.00421143 381.19760132 C 158.49739075 376.77508545 153.89726257 372.82742310 152.38981628 369.15905762 C 154.99304199 367.78656006 160.75177002 370.08578491 168.70397949 372.64660645 C 175.77204895 373.56259155 177.21745300 376.70315552 174.17684937 381.29876709 C 175.73736572 383.76702881 179.71549988 385.70938110 185.36657715 386.07626343 C 191.43910217 385.90307617 196.74383545 382.97882080 202.49815369 381.63943481 C 208.53126526 381.91397095 213.03906250 383.99612427 215.05009460 384.34796143 C 213.12263489 381.54794312 208.07167053 378.19992065 200.15454102 378.56072998 C 190.09852600 382.22540283 182.84602356 383.02966309 182.75572205 377.08059692 C 191.63616943 374.35305786 202.88059998 371.52520752 211.17541504 365.58465576 C 216.74876404 367.24804688 221.11685181 371.53338623 226.37083435 371.95608521 C 231.69874573 368.46350098 235.60459900 366.23007202 235.43852234 368.73419189 C 228.61230469 372.82366943 218.95162964 376.69519043 226.55911255 387.51452637" stroke-width="0.43628663" fill="rgb(6, 35, 78)" opacity="1.0" stroke="rgb(0, 5, 59)" stroke-opacity="0.5556398" stroke-linecap="round" stroke-linejoin="round"/>
    <path d="M 215.76123047 293.64846802 C 214.03483582 295.46554565 212.35340881 297.34747314 210.68014526 299.24795532 C 208.80560303 301.15893555 207.23590088 302.96194458 206.22679138 304.79864502 C 205.06361389 306.32000732 204.18223572 307.47070312 203.58094788 307.76660156 C 203.71762085 307.46286011 204.33216858 306.79336548 204.73356628 305.58883667 C 204.80734253 303.68911743 204.45574951 301.39056396 203.58082581 298.91397095 C 202.55581665 296.10504150 201.86412048 292.91790771 201.43901062 289.47387695 C 201.16168213 286.17797852 201.14604187 283.26101685 201.84883118 280.94293213 C 203.47268677 279.20791626 205.51014709 277.54421997 207.53842163 275.66400146 C 209.48620605 273.85745239 210.93078613 271.90783691 212.48422241 270.52621460 C 212.93484497 268.18432617 211.92996216 266.83609009 210.29115295 265.83273315 C 210.69265747 263.88702393 212.56506348 261.93283081 214.71139526 260.95196533 C 215.18072510 261.91802979 215.10078430 264.13912964 215.60003662 266.36865234 C 216.24446106 268.04281616 216.91667175 268.53790283 218.34193420 267.51583862 C 220.92985535 266.65789795 223.27987671 264.76242065 225.37886047 262.50579834 C 226.43113708 260.49722290 227.28009033 259.14492798 228.43681335 258.69378662 C 230.52479553 259.18597412 232.41117859 260.03598022 233.38079834 262.02862549 C 233.97801208 264.25045776 233.79408264 266.59277344 233.64085388 269.35827637 C 233.17427063 271.97872925 231.72329712 274.54776001 230.11962891 277.19454956 C 228.42910767 280.02215576 226.64485168 282.81286621 224.20466614 285.04611206 C 221.77600098 287.65472412 219.37773132 290.42401123 215.76123047 293.64846802" stroke-width="2.00000000" fill="rgb(5, 37, 78)" opacity="1.0" stroke="rgb(193, 94, 0)" stroke-opacity="0.11586" stroke-linecap="round" stroke-linejoin="round"/>
    <path d="M 325.56961060 263.51098633 C 318.68560791 262.47225952 312.53552246 265.70846558 306.81753540 267.90963745 C 303.94293213 266.88818359 303.01031494 264.84420776 302.24731445 263.53042603 C 300.75314331 265.56744385 297.50390625 268.79678345 292.37210083 271.73486328 C 286.45846558 275.08435059 279.25442505 276.39303589 271.91366577 278.69247437 C 264.13540649 281.30657959 257.21963501 284.38998413 251.79212952 289.63800049 C 246.25254822 294.68618774 242.45364380 300.80435181 238.78335571 306.64038086 C 235.77763367 311.70275879 233.71888733 315.79177856 230.71426392 317.53918457 C 227.55685425 318.95767212 225.13848877 318.19244385 223.85324097 315.02825928 C 222.80665588 311.15942383 224.18034363 306.94815063 227.29919434 301.61218262 C 231.32723999 295.63150024 236.36907959 289.57089233 240.50544739 282.38656616 C 244.57710266 274.91482544 246.28393555 267.86502075 244.70434570 260.59594727 C 243.23498535 254.23365784 239.84744263 249.99821472 235.70864868 247.47015381 C 233.68568420 246.06068420 234.55535889 245.38928223 237.34129333 246.18173218 C 240.36921692 249.02574158 243.53964233 252.71563721 247.76687622 255.26866150 C 253.99601746 255.64649963 261.63208008 255.12869263 270.14721680 255.38664246 C 279.12716675 255.47357178 288.22204590 255.33067322 297.07925415 255.24055481 C 305.23220825 255.46415710 312.38308716 255.46557617 318.43853760 255.25547791 C 323.38107300 255.93698120 326.73843384 257.85601807 328.95074463 260.51324463 C 330.18572998 263.50033569 330.36962891 266.89321899 329.40530396 270.63183594 C 327.44061279 274.40234375 324.87536621 277.92578125 325.56961060 263.51098633" stroke-width="1.70165074" fill="rgb(13, 41, 82)" opacity="1.0" stroke="rgb(107, 255, 255)" stroke-opacity="0.04458494" stroke-linecap="round" stroke-linejoin="round"/>
    <path d="M 271.67794800 97.52458191 C 274.93072510 94.37464905 275.81289673 91.83827972 273.77020264 88.87369537 C 273.37033081 84.91795349 273.47702026 80.64582825 273.51171875 77.11783600 C 273.00643921 74.90885162 273.70227051 74.98368835 275.43536377 76.82366180 C 277.64553833 79.35487366 279.42376709 82.18765259 281.20654297 85.05247498 C 281.76864624 88.07903290 281.74743652 90.99083710 280.57376099 94.08554840 C 278.02548218 97.33316040 275.15042114 101.05570984 272.66180420 105.11183929 C 270.22766113 108.74385834 268.73620605 112.32628632 267.19363403 114.75991821 C 266.76751709 116.34411621 266.74987793 116.53721619 266.60977173 115.39028931 C 266.37158203 112.99154663 266.32568359 109.47875214 266.49084473 105.07189178 C 266.55279541 100.06352234 267.45474243 94.35935974 271.67794800 97.52458191" stroke-width="2.00000000" fill="rgb(236, 137, 45)" opacity="1.0" stroke="rgb(0, 26, 54)" stroke-opacity="0.6151277" stroke-linecap="round" stroke-linejoin="round"/>
    <path d="M 303.98522949 273.82669067 C 300.42996216 277.05603027 296.40731812 278.44250488 293.65817261 279.84048462 C 293.14178467 278.90905762 295.45425415 277.48260498 298.54843140 274.62905884 C 301.32849121 271.28448486 302.48275757 267.81680298 302.64782715 264.97708130 C 304.83166504 264.88308716 306.38916016 266.81921387 306.73275757 269.65673828 C 308.76586914 269.89263916 311.86978149 268.47668457 315.59820557 266.82284546 C 319.33322144 265.56024170 323.48156738 265.62686157 327.41436768 266.35882568 C 331.01046753 267.75085449 334.18145752 269.17776489 337.11709595 270.01306152 C 340.01910400 270.29766846 342.77270508 270.94146729 345.05114746 271.35827637 C 346.49929810 271.41339111 346.96005249 271.69033813 346.50115967 272.18441772 C 345.18533325 272.57165527 343.40600586 272.60629272 341.11099243 272.32479858 C 338.38681030 271.48028564 335.49221802 270.99060059 332.53094482 270.42956543 C 329.66610718 269.98062134 327.18374634 269.71490479 325.09640503 270.68640137 C 323.30374146 273.12017822 320.42169189 275.55966187 316.27853394 278.26382446 C 310.76556396 281.09994507 304.26132202 283.88064575 296.47378540 285.23278809 C 287.92428589 286.84561157 278.97283936 288.02413940 270.42266846 291.30099487 C 262.50891113 294.64230347 256.29379272 299.69134521 251.38766479 305.27145386 C 247.87657166 310.06173706 245.82933044 313.05606079 245.12628174 312.84594727 C 246.08320618 309.12353516 249.17811584 303.61956787 254.67636108 297.63879395 C 261.00711060 290.89767456 270.24768066 286.33688354 281.68557739 284.29177856 C 293.60986328 281.49462891 305.18450928 282.12496948 303.98522949 273.82669067" stroke-width="1.72385061" fill="rgb(8, 34, 70)" opacity="1.0" stroke="rgb(255, 255, 255)" stroke-opacity="0.0" stroke-linecap="round" stroke-linejoin="round"/>
  </g>
</svg>
