<?xml version="1.0" ?>
<svg xmlns="http://www.w3.org/2000/svg" version="1.1" width="512" height="512" viewBox="0 0 512 512">
  <defs/>
  <g>
    <path d="M -36.59582520 579.88781738 C -46.79321671 556.78814697 -56.93827438 533.62414551 -67.01433563 510.33584595 C -76.87586212 487.15972900 -86.33074951 463.90875244 -95.18348694 440.65493774 C -103.22091675 417.31597900 -110.16320801 393.90686035 -115.85949707 370.46780396 C -120.17852783 346.98635864 -122.91524506 323.41464233 -123.95114899 299.82028198 C -122.99414825 276.30108643 -120.17939758 252.86669922 -115.33999634 229.56250000 C -108.53247833 206.35890198 -99.75999451 183.46348572 -89.07408905 160.87202454 C -76.55847168 138.64407349 -62.34899902 116.83074188 -46.42086411 95.65123749 C -28.92559624 75.12587738 -10.22794628 55.16455078 9.69737720 36.01646042 C 30.98562241 18.05020142 53.03469467 0.89745015 75.73857117 -15.29290295 C 98.87989807 -30.43938637 122.46047974 -44.30599213 146.41357422 -56.79401779 C 170.60015869 -67.72468567 195.05485535 -76.95388794 219.68547058 -84.30075836 C 244.41729736 -89.78708649 269.05609131 -93.32744598 293.60650635 -94.83936310 C 317.99896240 -94.36289978 342.03421021 -91.90375519 365.65762329 -87.40578461 C 388.90173340 -80.87687683 411.49981689 -72.55822754 433.31665039 -62.49032974 C 454.41836548 -50.54033661 474.63784790 -37.08248901 493.75668335 -22.17304611 C 511.79397583 -5.82964993 528.69390869 11.73374081 544.29589844 30.40074539 C 558.63592529 50.08867645 571.52191162 70.60336304 583.01910400 91.91700745 C 593.01300049 113.86280060 601.47863770 136.39321899 608.45501709 159.39578247 C 613.77124023 182.76148987 617.55749512 206.53720093 619.73687744 230.43785095 C 620.25421143 254.54508972 619.12805176 278.77896118 616.40789795 302.96768188 C 612.05505371 327.03457642 606.05065918 350.99487305 598.51373291 374.66998291 C 589.27508545 397.95901489 578.54595947 420.69049072 566.28588867 442.84600830 C 552.44433594 464.10803223 537.19042969 484.47735596 520.42364502 503.73336792 C 502.19692993 521.71319580 482.84234619 538.23321533 462.17401123 553.33520508 C 440.44622803 566.92950439 417.85678101 578.96508789 394.44949341 589.42883301 C 370.37658691 598.50158691 345.80007935 605.97973633 320.64135742 612.06915283 C 295.18652344 616.75146484 269.43353271 620.19335938 243.44514465 622.48291016 C 217.30903625 623.81072998 191.00382996 624.27581787 164.65257263 624.09313965 C 138.27116394 623.41870117 111.80757141 622.40167236 85.36083221 621.16265869 C 58.89435196 619.84295654 32.42963791 618.51593018 -36.59582520 579.88781738" stroke-width="2.00000000" fill="rgb(255, 254, 255)" opacity="1.0" stroke="rgb(255, 255, 255)" stroke-opacity="0.0" stroke-linecap="round" stroke-linejoin="round"/>
    <path d="M 393.47381592 373.99005127 C 386.87420654 381.98400879 379.59725952 389.45849609 371.51818848 396.49920654 C 363.09552002 403.59606934 353.99624634 410.19668579 343.87750244 416.10580444 C 333.59829712 422.15536499 322.48733521 427.19836426 310.74990845 431.29354858 C 298.87774658 435.33422852 286.68142700 437.95272827 273.97869873 439.24411011 C 261.54888916 440.59741211 249.21397400 440.57717896 236.82032776 439.20727539 C 224.36460876 437.54306030 212.41551208 435.05609131 200.84913635 431.07870483 C 189.26394653 426.85806274 177.94500732 421.63458252 167.19468689 415.16412354 C 156.27955627 408.40808105 145.57783508 400.80035400 135.61886597 391.60565186 C 125.69147491 381.75775146 116.40811157 371.02520752 108.11296844 359.29016113 C 100.44344330 347.35443115 93.88758087 335.06176758 89.27670288 322.32275391 C 84.53215027 309.66064453 81.08115387 297.16607666 79.32714081 284.65484619 C 77.23648834 272.48272705 77.09304047 260.23590088 77.26665497 248.26049805 C 78.00946045 236.38035583 80.25054932 224.54063416 82.31172180 212.54312134 C 85.34037781 200.91270447 89.76657104 189.49928284 95.10294342 177.96163940 C 100.76033783 166.52064514 107.53227997 155.85356140 115.17945099 145.90995789 C 122.88202667 136.38150024 131.22709656 127.78701782 140.20542908 120.19245148 C 149.08468628 112.87937927 158.08186340 106.43133545 167.75447083 100.86315918 C 177.56228638 95.56863403 187.72230530 91.19794464 198.21058655 87.27486420 C 209.08294678 83.81657410 220.31773376 81.32151794 231.91130066 79.36977386 C 243.68035889 77.83098602 255.58755493 77.19333649 267.53045654 77.54256439 C 279.56079102 78.93584442 291.75103760 81.30713654 303.91040039 84.45339966 C 316.11193848 87.86527252 328.25564575 92.41122437 339.75311279 98.48101044 C 351.38867188 104.75923157 362.25320435 112.20851898 372.52929688 120.76539612 C 382.65429688 129.39825439 391.67126465 139.14656067 399.61968994 149.82644653 C 407.59451294 160.31736755 414.07043457 171.67572021 419.56127930 183.59446716 C 424.75112915 195.54379272 428.62130737 207.84892273 431.39135742 220.41267395 C 433.78811646 233.05879211 435.04962158 246.06378174 435.35617065 259.00167847 C 435.00894165 272.10281372 433.50985718 285.52023315 430.74267578 298.39251709 C 427.48815918 311.20593262 423.32525635 323.74172974 417.72244263 335.52929688 C 411.99087524 347.46087646 405.61923218 358.98327637 393.47381592 373.99005127" stroke-width="2.00000000" fill="rgb(225, 191, 170)" opacity="1.0" stroke="rgb(0, 23, 61)" stroke-opacity="1.0" stroke-linecap="round" stroke-linejoin="round"/>
    <path d="M 413.48138428 251.49057007 C 402.05865479 255.38851929 390.38751221 258.40728760 378.62963867 260.35784912 C 366.89700317 261.33007812 355.38107300 261.38073730 344.29718018 260.58050537 C 333.58343506 259.06008911 323.27380371 257.03436279 313.33877563 254.58061218 C 303.93853760 251.91441345 294.99963379 249.12319946 286.43258667 246.43223572 C 278.04336548 244.03504944 269.74792480 241.89065552 261.64843750 240.08287048 C 253.66543579 238.75465393 245.88783264 238.25122070 237.95648193 238.68914795 C 230.01612854 240.09045410 222.07051086 242.48992920 214.23782349 246.31510925 C 206.07348633 251.19778442 197.03147888 255.64546204 187.07864380 258.83032227 C 176.31628418 260.51925659 165.05439758 261.36846924 153.60461426 261.68536377 C 142.60585022 261.86148071 132.24005127 261.79016113 123.09676361 261.37112427 C 115.31504059 260.25448608 109.36779022 257.95971680 105.60230255 254.16206360 C 104.72975922 248.63824463 105.61473083 241.51275635 106.81771088 232.90132141 C 108.32965851 223.39741516 111.08136749 213.56483459 114.62057495 203.35606384 C 118.68566132 192.93652344 123.65598297 182.93457031 129.68576050 173.42994690 C 136.26327515 164.32102966 143.21208191 155.71278381 150.50207520 147.91229248 C 158.07685852 140.84280396 165.84197998 134.67181396 173.82743835 129.27714539 C 181.99629211 124.68675995 190.59228516 121.26503754 199.57388306 118.81449127 C 208.76429749 117.11391449 218.21084595 116.22013092 228.25662231 116.22603607 C 238.88073730 117.16486359 249.85781860 118.96801758 260.93896484 121.19104004 C 272.12237549 123.50811768 283.45941162 125.55717468 294.64535522 127.20090485 C 305.36447144 128.13812256 314.99026489 128.23257446 323.18365479 127.09857941 C 329.40759277 124.07670593 333.37622070 118.99648285 335.01950073 112.66919708 C 335.83886719 106.49825287 337.53131104 102.20546722 341.23107910 101.18767548 C 347.04345703 103.94966125 354.87341309 109.14263153 363.84249878 115.83168030 C 373.35580444 123.06028748 382.17736816 131.42245483 390.30249023 140.49285889 C 397.99215698 149.58673096 404.65652466 159.07682800 410.27438354 168.84715271 C 415.58789062 178.35301208 419.96536255 187.92074585 423.37619019 197.57716370 C 426.74099731 207.24809265 429.35778809 217.06016541 431.16030884 227.55133057 C 432.72503662 238.40074158 433.74447632 249.66952515 434.04843140 261.46200562 C 433.51495361 273.41448975 433.16128540 285.60714722 413.48138428 251.49057007" stroke-width="1.44782281" fill="rgb(240, 155, 27)" opacity="1.0" stroke="rgb(60, 33, 1)" stroke-opacity="0.7393493" stroke-linecap="round" stroke-linejoin="round"/>
    <path d="M 302.47097778 263.57342529 C 297.52590942 263.99160767 292.40188599 264.53186035 287.36663818 265.00640869 C 282.35342407 265.28494263 277.44952393 265.39871216 272.50900269 265.29946899 C 267.76361084 264.89184570 263.12811279 264.05703735 258.66079712 262.79006958 C 254.43009949 260.95944214 250.68049622 258.45239258 247.17886353 255.58729553 C 243.96495056 252.13316345 240.78292847 248.60382080 237.18811035 245.40232849 C 233.21292114 242.86395264 228.52871704 241.97268677 223.53282166 242.33158875 C 218.55688477 242.35848999 214.31706238 243.66883850 211.07884216 246.25318909 C 208.82865906 249.55224609 206.85421753 251.98307800 204.65823364 252.92405701 C 203.32853699 252.55395508 203.08872986 250.75344849 203.48297119 247.51571655 C 204.10899353 243.14659119 205.59622192 238.17262268 207.85754395 232.99392700 C 210.64422607 227.72843933 214.17611694 222.86215210 218.24472046 218.41421509 C 222.71366882 214.41693115 227.49803162 211.03900146 232.31228638 208.32308960 C 237.44068909 206.64830017 242.70149231 205.62028503 247.71496582 204.52839661 C 252.46226501 204.02308655 257.14999390 204.20889282 261.78451538 204.36837769 C 266.18887329 204.41610718 270.34106445 204.93371582 274.38265991 206.14318848 C 278.67556763 207.82455444 282.91430664 209.91656494 286.92944336 212.63211060 C 290.71124268 215.49432373 294.17974854 218.77777100 297.34011841 222.15676880 C 299.95748901 226.03814697 302.24337769 229.79187012 304.39636230 233.81381226 C 305.97036743 237.86631775 307.29672241 242.24798584 308.41818237 246.53282166 C 309.03811646 250.94491577 309.78952026 255.63594055 302.47097778 263.57342529" stroke-width="2.00000000" fill="rgb(228, 54, 37)" opacity="1.0" stroke="rgb(0, 23, 53)" stroke-opacity="1.0" stroke-linecap="round" stroke-linejoin="round"/>
    <path d="M 297.99026489 372.60162354 C 294.77163696 374.98474121 291.57717896 377.13049316 288.18060303 379.05093384 C 284.35449219 380.82757568 280.27960205 382.65380859 276.09597778 384.37518311 C 271.68981934 385.86053467 266.88916016 387.09378052 261.73736572 387.95419312 C 256.24295044 388.29196167 250.68388367 388.06884766 245.14707947 387.47970581 C 239.47293091 386.67892456 233.75247192 385.74481201 228.28541565 384.65902710 C 223.57049561 382.39355469 219.67866516 379.07455444 216.99258423 375.02081299 C 215.67283630 370.57308960 215.78710938 365.79971313 217.26461792 360.90808105 C 218.93656921 356.21612549 219.16906738 351.85922241 217.76435852 348.08514404 C 216.09736633 345.01266479 215.60870361 343.14633179 217.40754700 342.88388062 C 220.75744629 344.01266479 224.42524719 345.55743408 227.42140198 345.77383423 C 228.40089417 342.92095947 228.15002441 339.02117920 228.33482361 336.18557739 C 230.68455505 336.22125244 233.61596680 337.70178223 236.36399841 337.76477051 C 237.53181458 334.51165771 238.28636169 330.69317627 239.86654663 328.75555420 C 242.39193726 330.47116089 244.81394958 333.58068848 247.57626343 335.04919434 C 250.97581482 332.43746948 255.33802795 330.44268799 261.88067627 331.46014404 C 269.88433838 332.02059937 277.65246582 333.52456665 283.48214722 335.11413574 C 284.92700195 338.04168701 284.14505005 341.55484009 283.27993774 344.65704346 C 284.21673584 346.31063843 286.54299927 346.01455688 289.65338135 344.58361816 C 292.91329956 343.11996460 295.43655396 342.75854492 296.19461060 344.03659058 C 294.81787109 346.05712891 292.05538940 348.13369751 297.99026489 372.60162354" stroke-width="2.00000000" fill="rgb(192, 105, 154)" opacity="1.0" stroke="rgb(2, 20, 67)" stroke-opacity="0.93396795" stroke-linecap="round" stroke-linejoin="round"/>
    <path d="M 271.60784912 129.70892334 C 272.55014038 138.62042236 273.52145386 147.61543274 274.38363647 156.59658813 C 275.05236816 165.34504700 275.42889404 173.59664917 275.41879272 181.13314819 C 274.88854980 187.88764954 273.69927979 193.60438538 271.74230957 197.87846375 C 268.96304321 200.38568115 265.17782593 201.08325195 260.57247925 200.87176514 C 255.58895874 200.50579834 250.54136658 200.56425476 245.76173401 201.13041687 C 241.71847534 202.23063660 238.63998413 203.05085754 236.70834351 202.59707642 C 235.95341492 199.85519409 236.02888489 195.25671387 236.76786804 189.05619812 C 238.10218811 181.51150513 239.80763245 172.83283997 241.71914673 163.42347717 C 243.58851624 153.58586121 245.27897644 143.81118774 246.55351257 134.22085571 C 247.05137634 125.12354279 246.49507141 116.76218414 244.37167358 109.58826447 C 240.75875854 103.93468475 236.01354980 99.98603821 230.20959473 98.15390778 C 223.24882507 98.83188629 215.05198669 100.90450287 206.06755066 103.65488434 C 196.77006531 106.98311615 187.30210876 111.20597839 177.98091125 116.10930634 C 168.51783752 121.47083282 159.37901306 127.98941040 150.11695862 135.83580017 C 140.52429199 144.60496521 130.98803711 155.33602905 122.06775665 168.76940918 C 112.49264526 183.50456238 105.41098022 199.79705811 101.51874542 214.88528442 C 96.36992645 222.74705505 88.70231628 222.80535889 83.22618103 217.22517395 C 84.64674377 207.73553467 88.80097198 195.92724609 94.30898285 182.94886780 C 100.66918182 169.69091797 108.41337585 157.22520447 117.08950043 145.75804138 C 125.85514832 135.22282410 135.18600464 126.11824036 144.85649109 118.17203522 C 154.26229858 110.87889862 163.77989197 104.73577881 173.47189331 99.53083038 C 183.06640625 94.79809570 192.60864258 90.79165649 202.33895874 87.69977570 C 211.66094971 84.87286377 220.62821960 82.81008148 229.14982605 81.26766205 C 237.10501099 79.47702026 244.21786499 77.13983154 250.35687256 74.73571014 C 255.70603943 73.05414581 260.37985229 72.07569885 264.37622070 71.53965759 C 267.69195557 71.75914001 270.14782715 71.93001556 271.38372803 72.89199066 C 271.32815552 75.06426239 270.45437622 78.25019836 268.76034546 82.49168396 C 266.52825928 87.59420013 263.86218262 93.40894318 261.04647827 99.87228394 C 258.47274780 106.94594574 256.22845459 114.42582703 254.36172485 122.23195648 C 252.99974060 130.64645386 251.69120789 139.31228638 271.60784912 129.70892334" stroke-width="2.00000000" fill="rgb(230, 107, 29)" opacity="1.0" stroke="rgb(14, 31, 57)" stroke-opacity="1.0" stroke-linecap="round" stroke-linejoin="round"/>
    <path d="M 280.34051514 97.09460449 C 277.29483032 101.15769196 274.53536987 105.18534851 272.21499634 109.22775269 C 270.27517700 113.29151917 267.81427002 116.54201508 264.85760498 118.97859955 C 264.15246582 122.45502472 264.21899414 126.28482819 263.98818970 129.71809387 C 263.50350952 132.56628418 262.95492554 134.67156982 262.16925049 135.75613403 C 260.92584229 135.40298462 259.70901489 134.05270386 258.57946777 131.70233154 C 257.65859985 129.01683044 257.41015625 126.14230347 258.08078003 123.21065521 C 259.13543701 120.74007416 259.36749268 119.04331970 258.19564819 118.19795990 C 255.51858521 118.40036011 252.11242676 118.81695557 248.37388611 118.47637177 C 244.69049072 116.37068176 241.71743774 112.37368011 238.93292236 106.86550140 C 235.07612610 101.45902252 231.81681824 95.55140686 230.26011658 89.40717316 C 230.74670410 83.34322357 233.23289490 77.87258911 237.54722595 74.00912476 C 243.03192139 71.55530548 249.18444824 71.61541748 255.81062317 73.42720032 C 262.51846313 73.63954163 268.67315674 73.27226257 273.70922852 73.75536346 C 276.86355591 75.40917206 279.10977173 78.36045074 282.08041382 81.08784485 C 286.73519897 82.05473328 292.96731567 83.02458191 299.89239502 84.97283936 C 307.06378174 87.03565216 314.86236572 89.57969666 322.36062622 92.12466431 C 329.00018311 94.74666595 334.47244263 97.01274872 337.74032593 99.38752747 C 338.29598999 101.98374939 337.09881592 104.77902222 334.22039795 107.69708252 C 330.14123535 109.88961029 325.51971436 110.43450165 320.75213623 109.58306885 C 316.11334229 107.62917328 311.72070312 104.65948486 280.34051514 97.09460449" stroke-width="2.00000000" fill="rgb(219, 119, 37)" opacity="1.0" stroke="rgb(13, 23, 57)" stroke-opacity="1.0" stroke-linecap="round" stroke-linejoin="round"/>
    <path d="M 320.55337524 162.93049622 C 313.60073853 171.51736450 306.88128662 179.73344421 300.54196167 187.25598145 C 294.68215942 193.76663208 289.32986450 198.85005188 284.35961914 202.02059937 C 279.77111816 202.86167908 275.55712891 202.05056763 271.63385010 200.70208740 C 267.91149902 199.69866943 264.68106079 199.08662415 262.33221436 198.55610657 C 261.27059937 197.54852295 261.29061890 195.80862427 261.69265747 193.22657776 C 262.06161499 189.82002258 262.43087769 185.73043823 262.82797241 181.28651428 C 263.03735352 176.57394409 263.31829834 171.57287598 263.79153442 166.36807251 C 264.15875244 161.24766541 264.53875732 156.20909119 264.99502563 151.01037598 C 265.29208374 145.77195740 265.14633179 140.69667053 264.70904541 135.77690125 C 265.18087769 131.02285767 265.60382080 126.70077515 266.66189575 123.15805817 C 269.21780396 120.73188782 271.42907715 118.35822296 273.22299194 115.43768311 C 274.60473633 112.56836700 276.03738403 110.06232452 278.06292725 108.45232391 C 280.76025391 108.00240326 283.96008301 108.31742859 287.68286133 109.00544739 C 291.82116699 109.93031311 296.35476685 111.16947174 301.07614136 112.53087616 C 305.83135986 114.15901947 310.63006592 115.94118500 315.55569458 117.82641602 C 320.31250000 119.62876892 324.53424072 121.68316650 327.76071167 124.40768433 C 329.22595215 128.50961304 329.08139038 133.25537109 327.62026978 138.13371277 C 325.00271606 142.73847961 321.49224854 146.51509094 317.39669800 149.45079041 C 313.05563354 151.15243530 308.68362427 151.60983276 304.41049194 150.93992615 C 300.26663208 149.63162231 296.25759888 148.09344482 320.55337524 162.93049622" stroke-width="2.00000000" fill="rgb(254, 195, 0)" opacity="1.0" stroke="rgb(245, 187, 15)" stroke-opacity="0.96312374" stroke-linecap="round" stroke-linejoin="round"/>
    <path d="M 251.00633240 199.23106384 C 250.48069763 199.22866821 249.87194824 199.12368774 249.05545044 199.21049500 C 247.77310181 199.40188599 246.04809570 199.68698120 243.61714172 199.93270874 C 240.56520081 200.76445007 236.80697632 201.89323425 232.54800415 203.30755615 C 228.15170288 205.53118896 223.69230652 208.46742249 219.33554077 211.48622131 C 214.79621887 213.66398621 210.12178040 214.37219238 205.11225891 213.60549927 C 199.91107178 211.37318420 194.48648071 208.08601379 189.13081360 204.00335693 C 183.58955383 199.24278259 178.24493408 193.91069031 173.13368225 188.27371216 C 168.31835938 182.17951965 164.00781250 175.84266663 160.57910156 169.52427673 C 158.43797302 163.22506714 157.80519104 157.02629089 158.59249878 151.13580322 C 160.73287964 145.75927734 163.96189880 140.88305664 167.84669495 136.48840332 C 172.03797913 132.52151489 176.33226013 128.79502869 180.73544312 125.48816681 C 185.23748779 122.87033844 189.86296082 120.48252869 194.54692078 118.46225739 C 199.31645203 116.52590179 204.03849792 114.75157166 208.77819824 113.27210999 C 213.43879700 111.84042358 217.98556519 110.50054932 222.23448181 109.37487793 C 226.19052124 108.37930298 229.78570557 107.58159637 232.72250366 107.57924652 C 234.98017883 108.81198120 236.69595337 111.14048767 238.13485718 114.11750793 C 240.13259888 117.23737335 242.42314148 120.20001221 244.54721069 123.08772278 C 245.66152954 126.55615234 246.15568542 130.67781067 246.34443665 135.27270508 C 246.57669067 140.04728699 246.79972839 144.84680176 247.15867615 149.73892212 C 247.49931335 154.72018433 247.84658813 159.76794434 251.00633240 199.23106384" stroke-width="1.79446638" fill="rgb(254, 197, 3)" opacity="1.0" stroke="rgb(243, 188, 23)" stroke-opacity="1.0" stroke-linecap="round" stroke-linejoin="round"/>
    <path d="M 207.07809448 124.51164246 C 206.29156494 122.48165894 205.52629089 120.46232605 204.76553345 118.58483124 C 204.11607361 117.01074219 203.73385620 115.59823608 203.89179993 114.51390839 C 204.84889221 113.86088562 206.27108765 113.22750092 208.06404114 112.70381165 C 210.11833191 112.18521118 212.15763855 111.48642731 214.07485962 110.76773071 C 215.80981445 110.20553589 217.21791077 110.06867981 218.33543396 110.75630951 C 219.08789062 112.31122589 219.78117371 114.75039673 220.32876587 117.87712860 C 221.15666199 121.43759155 222.22961426 125.39079285 223.25506592 129.64282227 C 224.22142029 134.14982605 225.38415527 138.82984924 226.64408875 143.62608337 C 227.81747437 148.36053467 228.94137573 153.14140320 230.12834167 157.87707520 C 231.22607422 162.52320862 232.28878784 166.95390320 233.38710022 171.26400757 C 234.46041870 175.36532593 235.36717224 179.28219604 236.20001221 182.96997070 C 237.10971069 186.32249451 237.81900024 189.29402161 238.57287598 191.84109497 C 239.17727661 194.02711487 239.41578674 195.76805115 239.12872314 196.94380188 C 238.21604919 197.74713135 237.17466736 198.05282593 236.13156128 197.86993408 C 235.28170776 196.92926025 234.42362976 195.21478271 233.55351257 193.01524353 C 232.50871277 190.37005615 231.40959167 187.39392090 230.19006348 184.14343262 C 228.75671387 180.69941711 227.38578796 176.96743774 225.99320984 173.06985474 C 224.39715576 169.19799805 222.86624146 165.27304077 221.33671570 161.14746094 C 219.69430542 157.09941101 218.06542969 153.03733826 216.62658691 148.95619202 C 215.07722473 144.80943298 213.46194458 140.66743469 207.07809448 124.51164246" stroke-width="1.44183767" fill="rgb(237, 54, 37)" opacity="1.0" stroke="rgb(196, 0, 20)" stroke-opacity="0.6076788" stroke-linecap="round" stroke-linejoin="round"/>
    <path d="M 288.87942505 169.57914734 C 287.34457397 173.58897400 285.80679321 177.55023193 284.31704712 181.36088562 C 282.85021973 185.05795288 281.43289185 188.49092102 280.37554932 191.66993713 C 279.49661255 194.54833984 278.57687378 196.88864136 277.45791626 198.39428711 C 275.91564941 199.05604553 274.26989746 199.00587463 272.62170410 198.62617493 C 271.49368286 197.97181702 271.10479736 196.82670593 271.28512573 194.99807739 C 271.84390259 192.63258362 272.60403442 189.67140198 273.54473877 186.23583984 C 274.59103394 182.44142151 275.59170532 178.35353088 276.58862305 173.91116333 C 277.73431396 169.42811584 278.98260498 164.89239502 280.15411377 160.05390930 C 281.28781128 155.20979309 282.35186768 150.37989807 283.47821045 145.59297180 C 284.71630859 140.86505127 285.88378906 136.32542419 286.90185547 131.86517334 C 287.90808105 127.52948761 288.88159180 123.40706635 289.78973389 119.72349548 C 290.60696411 116.44319153 291.36889648 113.51402283 291.97924805 111.19221497 C 292.48696899 109.54867554 293.32321167 108.65515900 294.75460815 108.50985718 C 296.67407227 109.00178528 298.99063110 109.71320343 301.51925659 110.49838257 C 304.07952881 111.48528290 306.60046387 112.24903870 308.58255005 112.99997711 C 309.63150024 114.14121246 309.83132935 115.63733673 309.17590332 117.51728821 C 308.05636597 120.04237366 306.75708008 123.01222229 305.46530151 126.66435242 C 304.01269531 130.48684692 302.35675049 134.57395935 300.64651489 138.89001465 C 298.93258667 143.29980469 297.22250366 147.77423096 295.51788330 152.38035583 C 293.74822998 156.90687561 292.00234985 161.50874329 288.87942505 169.57914734" stroke-width="1.35747933" fill="rgb(236, 55, 27)" opacity="1.0" stroke="rgb(217, 81, 255)" stroke-opacity="0.09901641" stroke-linecap="round" stroke-linejoin="round"/>
    <path d="M 140.86918640 173.94001770 C 139.24314880 172.81132507 137.63136292 171.81877136 136.20907593 170.86361694 C 134.84394836 169.99609375 133.96038818 169.08090210 133.71896362 168.01719666 C 134.33120728 166.83078003 135.35572815 165.45562744 136.67509460 163.84667969 C 138.04368591 162.06314087 139.22268677 160.20204163 140.47039795 158.53144836 C 141.62348938 157.45332336 142.85223389 157.35641479 144.27702332 158.17437744 C 145.94552612 159.78219604 148.10855103 161.77554321 150.63647461 164.10151672 C 153.33233643 166.50805664 156.20745850 169.07458496 159.40960693 171.70767212 C 162.70018005 174.57910156 166.11213684 177.48112488 169.44435120 180.53248596 C 172.85334778 183.61923218 176.27226257 186.77352905 179.62840271 189.83818054 C 183.01109314 192.82472229 186.38572693 195.72300720 189.64828491 198.62841797 C 192.72846985 201.50541687 195.66754150 204.16882324 198.49293518 206.66705322 C 201.05879211 209.06298828 203.43405151 211.09675598 205.56459045 212.80702209 C 207.25221252 214.29524231 208.41418457 215.62843323 208.84416199 216.76036072 C 208.51606750 217.88453674 207.74453735 218.74725342 206.49986267 219.18617249 C 204.94586182 218.79357910 203.17060852 217.81985474 200.96028137 216.32121277 C 198.54151917 214.49545288 195.79457092 212.42489624 192.69409180 210.20651245 C 189.56024170 207.87501526 186.27452087 205.43283081 182.75355530 203.12026978 C 179.29411316 200.79527283 175.75465393 198.33995056 172.28034973 195.86109924 C 168.74403381 193.44686890 165.23022461 191.03199768 161.72264099 188.55119324 C 158.27708435 186.05683899 154.83229065 183.52870178 140.86918640 173.94001770" stroke-width="1.28700662" fill="rgb(237, 55, 33)" opacity="1.0" stroke="rgb(213, 54, 10)" stroke-opacity="0.878185" stroke-linecap="round" stroke-linejoin="round"/>
    <path d="M 167.27697754 241.72125244 C 162.82331848 240.97822571 158.32096863 240.26702881 153.89947510 239.60517883 C 149.49839783 238.87965393 145.29373169 238.23341370 141.16368103 237.65339661 C 137.03091431 237.10533142 133.09890747 236.43417358 129.32798767 235.70115662 C 125.73840332 234.69949341 122.59543610 233.23211670 120.01174164 231.18869019 C 118.12982941 228.49810791 117.01088715 225.15805054 116.51272583 221.42170715 C 116.78311920 217.14335632 117.61518860 212.45935059 118.85060883 207.66584778 C 120.42333984 202.80197144 122.31560516 197.99786377 124.28977203 193.47436523 C 126.52669525 189.32630920 129.02249146 185.77223206 131.91973877 183.05813599 C 135.10234070 181.35696411 138.64489746 180.74597168 142.20236206 181.19548035 C 145.88789368 182.61395264 149.67501831 184.81546021 153.41098022 187.38438416 C 157.33634949 190.23205566 161.40118408 193.07489014 165.40438843 195.97369385 C 169.43119812 198.75373840 173.55433655 201.53091431 177.55358887 204.30847168 C 181.49716187 207.08901978 185.34654236 209.73312378 189.11051941 212.29682922 C 192.65029907 214.54254150 195.97975159 216.74386597 198.98295593 218.72125244 C 201.59486389 220.53257751 203.60176086 222.44236755 204.71325684 224.47787476 C 205.00788879 226.68173218 204.51100159 228.93939209 203.46185303 231.38739014 C 202.34417725 233.90408325 201.18881226 236.56771851 200.31515503 239.19134521 C 199.49183655 241.57165527 198.66685486 243.56527710 197.76138306 245.06773376 C 196.63270569 245.88215637 195.20079041 246.11466980 193.68797302 245.86622620 C 192.11468506 245.48864746 190.39805603 244.90406799 167.27697754 241.72125244" stroke-width="2.00000000" fill="rgb(250, 197, 3)" opacity="1.0" stroke="rgb(255, 203, 7)" stroke-opacity="0.875481" stroke-linecap="round" stroke-linejoin="round"/>
    <path d="M 162.23078918 136.58059692 C 162.38674927 136.44737244 162.70716858 136.23703003 163.12590027 135.91488647 C 163.79243469 135.41508484 164.84210205 134.68295288 166.21716309 133.70286560 C 167.75352478 132.52648926 169.64225769 131.29452515 171.62051392 130.03132629 C 173.47322083 128.77565002 174.98950195 127.73541260 176.41949463 127.20811462 C 177.62626648 127.54092407 178.59266663 128.61439514 179.73384094 130.46495056 C 181.16567993 132.69905090 182.72349548 135.50946045 184.54849243 138.61622620 C 186.60054016 141.98408508 188.79670715 145.47622681 191.05314636 149.29284668 C 193.47416687 153.16969299 195.85604858 157.08337402 198.21345520 161.05378723 C 200.55795288 165.07901001 202.97341919 169.06323242 205.34423828 173.03593445 C 207.72254944 176.93095398 210.00286865 180.69213867 212.23168945 184.30628967 C 214.33749390 187.91896057 216.34233093 191.31993103 218.18157959 194.51933289 C 219.92826843 197.34552002 221.53813171 199.73402405 222.88313293 201.77874756 C 223.74896240 203.42819214 223.95545959 204.66918945 223.38287354 205.75575256 C 222.22770691 206.69841003 220.85037231 207.45310974 219.36999512 207.54092407 C 217.86206055 206.71298218 216.22193909 205.02116394 214.43179321 202.68043518 C 212.38768005 199.94549561 210.08636475 196.99363708 207.55194092 193.86221313 C 204.96520996 190.46110535 202.35816956 186.98707581 199.50250244 183.53886414 C 196.69766235 180.07710266 193.98271179 176.56837463 191.26995850 173.12086487 C 188.56880188 169.66882324 185.88569641 166.27442932 183.16079712 162.94282532 C 180.54370117 159.54689026 177.89149475 156.20474243 162.23078918 136.58059692" stroke-width="0.89831817" fill="rgb(236, 57, 31)" opacity="1.0" stroke="rgb(238, 125, 57)" stroke-opacity="0.48941347" stroke-linecap="round" stroke-linejoin="round"/>
    <path d="M 350.44433594 135.56355286 C 344.05798340 143.91651917 337.67410278 152.09840393 331.24957275 160.05651855 C 325.10040283 167.86685181 319.17318726 175.43318176 313.49472046 182.51080322 C 308.30194092 189.04811096 303.68963623 195.16177368 299.65582275 200.37123108 C 296.53857422 204.55859375 293.95394897 207.36233521 291.67144775 208.26969910 C 289.64749146 207.34725952 288.61431885 205.02246094 289.44317627 201.26858521 C 292.23040771 196.08792114 296.18884277 189.67092896 300.83581543 182.21792603 C 305.82196045 173.92399597 311.05975342 165.27131653 316.41455078 156.71369934 C 321.41979980 148.61212158 325.88415527 141.05790710 329.54257202 134.52593994 C 332.21960449 129.34658813 334.46243286 126.31399536 337.18984985 126.31098175 C 341.20037842 128.98960876 346.18231201 132.79081726 351.56710815 135.92874146 C 356.43154907 138.02714539 359.43884277 138.60942078 359.57821655 137.15905762 C 356.28338623 134.15170288 350.53268433 130.09062195 343.65979004 125.26325226 C 336.34393311 120.42984009 329.52563477 116.73954010 324.74325562 113.81283569 C 323.69717407 110.23281097 325.19927979 107.05607605 328.72213745 105.22783661 C 333.67797852 105.74428558 339.61181641 108.91626740 346.42318726 113.94802856 C 354.28543091 119.71655273 362.26016235 126.04570770 369.89370728 132.60850525 C 376.83328247 139.26982117 382.15856934 145.96725464 385.14453125 152.36045837 C 386.14654541 157.96998596 385.62948608 161.75978088 383.70318604 163.03337097 C 381.05432129 161.08239746 377.75888062 156.82275391 373.42892456 151.48637390 C 368.51211548 145.49916077 363.69589233 139.05665588 350.44433594 135.56355286" stroke-width="2.00000000" fill="rgb(204, 64, 34)" opacity="1.0" stroke="rgb(255, 255, 222)" stroke-opacity="0.3338374" stroke-linecap="round" stroke-linejoin="round"/>
    <path d="M 112.93025208 207.80442810 C 113.00260162 207.61360168 113.20930481 207.16981506 113.44647217 206.58177185 C 113.90219116 205.76371765 114.21358490 204.64494324 114.62773895 203.26637268 C 115.27585602 201.58729553 116.04762268 199.84381104 116.73367310 198.17257690 C 117.32862091 196.58839417 118.01784515 195.35386658 119.09873962 194.71562195 C 120.62832642 194.84420776 122.63019562 195.61634827 125.16201782 196.89567566 C 128.11633301 198.32135010 131.48913574 199.91348267 135.13230896 201.67771912 C 139.00769043 203.55009460 143.07788086 205.43533325 147.35369873 207.33189392 C 151.66519165 209.31755066 156.00889587 211.37010193 160.29000854 213.48468018 C 164.57981873 215.37370300 168.81817627 217.33705139 172.91256714 219.46197510 C 176.91717529 221.42959595 180.74777222 223.30287170 184.36805725 224.93466187 C 187.90953064 226.48347473 191.04167175 227.86848450 193.80305481 229.13040161 C 196.19346619 230.22718811 197.92401123 231.23725891 199.03927612 232.22467041 C 199.37542725 233.38452148 199.09523010 234.48483276 198.39033508 235.39833069 C 197.21713257 235.70672607 195.75062561 235.42124939 193.83215332 234.79827881 C 191.56089783 233.92683411 188.85433960 233.04910278 185.95686340 232.06390381 C 182.75900269 230.92443848 179.28858948 229.75538635 175.73800659 228.59526062 C 172.06684875 227.41888428 168.28332520 226.19390869 164.46263123 224.95472717 C 160.66577148 223.58796692 156.85850525 222.33273315 152.96623230 221.03826904 C 149.04708862 219.78210449 145.18380737 218.55572510 141.34092712 217.29353333 C 137.47444153 216.12638855 133.57402039 214.84799194 112.93025208 207.80442810" stroke-width="1.41454995" fill="rgb(237, 56, 33)" opacity="1.0" stroke="rgb(215, 62, 18)" stroke-opacity="0.90816224" stroke-linecap="round" stroke-linejoin="round"/>
    <path d="M 318.90734863 228.62348938 C 323.63296509 226.43026733 328.32879639 224.21354675 332.95013428 222.03231812 C 337.56292725 219.95196533 342.13397217 217.71922302 346.72708130 215.47904968 C 351.45547485 213.36625671 356.24435425 211.17514038 361.22232056 208.75958252 C 366.55389404 206.29975891 372.07363892 203.72114563 377.42437744 200.99957275 C 382.45816040 198.30958557 387.20358276 196.44853210 391.45138550 196.27128601 C 394.96957397 198.35162354 397.92276001 201.15936279 400.88848877 202.80303955 C 403.39807129 201.97058105 404.24841309 199.89485168 403.71456909 197.40261841 C 402.93179321 195.75343323 402.85217285 194.98391724 403.36123657 195.14424133 C 404.33428955 196.12309265 405.49508667 197.60127258 406.37466431 199.20536804 C 406.70379639 200.46540833 406.08703613 201.13806152 404.43713379 201.32879639 C 402.41561890 201.52046204 400.56219482 202.79185486 398.83544922 205.34849548 C 396.64834595 208.14654541 393.33886719 210.33546448 389.00228882 211.72563171 C 384.10226440 213.17634583 378.95397949 214.84622192 373.60214233 216.57182312 C 368.44482422 218.27410889 363.42391968 219.99716187 358.59713745 221.58982849 C 353.83514404 223.04847717 349.35906982 224.54777527 345.00201416 226.00375366 C 340.83334351 227.43365479 336.89782715 228.67875671 333.19494629 229.85758972 C 329.71243286 230.90704346 326.50570679 231.91116333 323.59378052 232.92523193 C 321.01364136 233.93772888 318.65982056 234.88388062 316.84222412 235.60206604 C 315.34628296 236.02140808 314.13372803 235.68243408 313.02810669 234.69676208 C 312.02273560 233.33277893 310.83456421 231.83813477 318.90734863 228.62348938" stroke-width="0.96630347" fill="rgb(235, 55, 34)" opacity="1.0" stroke="rgb(172, 34, 32)" stroke-opacity="0.6143758" stroke-linecap="round" stroke-linejoin="round"/>
    <path d="M 370.15609741 155.95455933 C 372.50201416 159.38375854 374.80743408 162.19271851 376.98971558 163.76559448 C 379.13363647 163.56721497 381.24911499 162.47502136 383.60845947 161.58454895 C 385.64163208 161.75228882 387.39959717 162.92512512 388.66677856 164.80958557 C 389.76617432 166.89962769 390.39028931 168.75883484 390.33624268 169.80407715 C 389.54434204 169.81912231 388.42764282 168.86122131 387.25781250 167.35321045 C 386.06478882 165.47148132 384.89068604 163.49768066 383.54153442 162.19314575 C 382.02532959 161.96134949 380.30038452 162.69502258 378.82031250 164.31846619 C 377.77926636 167.11628723 376.07135010 170.22406006 373.19134521 173.31300354 C 369.00833130 176.37269592 364.09591675 179.70573425 358.71133423 183.35969543 C 353.05383301 187.10884094 347.34020996 191.11692810 341.63455200 195.22010803 C 336.03955078 199.05653381 330.62432861 202.81176758 325.55947876 206.40467834 C 320.84149170 209.61993408 316.68661499 212.60615540 313.08123779 215.24165344 C 310.07278442 217.41210938 307.60913086 219.05688477 305.71353149 219.90209961 C 304.25646973 219.68124390 303.28634644 218.70419312 302.79809570 217.39154053 C 303.12915039 215.97642517 304.30947876 214.45443726 306.15231323 212.75137329 C 308.45916748 210.60298157 311.21768188 208.12152100 314.32022095 205.28477478 C 317.75994873 202.19921875 321.39578247 198.92573547 325.30349731 195.46546936 C 329.44409180 191.87261963 333.67907715 188.08558655 338.00521851 184.21954346 C 342.44589233 180.28692627 346.99981689 176.30998230 351.46383667 172.22026062 C 355.99124146 168.12207031 360.48889160 163.97741699 370.15609741 155.95455933" stroke-width="0.71613932" fill="rgb(235, 54, 36)" opacity="1.0" stroke="rgb(117, 0, 22)" stroke-opacity="0.47812366" stroke-linecap="round" stroke-linejoin="round"/>
    <path d="M 221.20054626 354.80474854 C 224.99258423 360.75009155 229.81739807 365.05844116 235.90258789 366.57717896 C 242.11517334 366.29135132 246.17060852 367.20260620 246.64411926 369.66027832 C 244.02795410 371.33016968 239.22248840 371.08743286 233.82180786 369.86920166 C 229.39942932 367.50994873 226.00848389 364.74359131 222.80847168 362.82995605 C 219.24458313 362.70227051 215.82684326 364.16378784 212.76101685 367.23382568 C 209.91426086 371.03070068 206.89862061 375.04446411 202.98452759 378.37994385 C 197.89949036 379.80294800 192.81652832 381.23272705 187.88377380 382.85137939 C 183.40321350 383.48480225 179.17436218 382.70840454 175.31925964 381.44329834 C 171.35972595 381.35998535 167.44836426 381.60446167 164.10147095 381.17843628 C 161.21974182 379.47903442 158.23419189 376.89434814 155.18283081 374.13562012 C 151.90481567 371.33340454 148.80926514 368.06033325 145.62573242 364.90374756 C 142.83503723 361.84982300 140.28599548 358.92657471 138.26132202 356.29272461 C 137.15602112 353.72653198 136.94165039 351.40792847 137.66749573 349.40997314 C 139.39363098 347.71289062 141.68043518 346.24835205 144.44682312 345.24456787 C 147.69897461 344.64404297 151.27734375 344.63308716 154.99980164 345.04748535 C 158.75215149 345.48818970 162.48037720 345.53958130 166.18045044 344.87725830 C 169.81906128 343.45635986 173.36793518 341.55224609 176.57727051 339.57977295 C 180.11712646 338.32968140 183.80981445 337.86419678 187.59214783 338.25454712 C 191.46635437 339.27246094 195.21134949 340.77148438 198.67852783 343.15667725 C 202.02410889 346.22341919 205.24658203 349.58526611 221.20054626 354.80474854" stroke-width="2.00000000" fill="rgb(55, 96, 73)" opacity="1.0" stroke="rgb(248, 255, 255)" stroke-opacity="0.3593616" stroke-linecap="round" stroke-linejoin="round"/>
    <path d="M 358.05236816 372.82003784 C 356.01855469 375.27664185 353.88168335 377.59197998 351.87377930 379.71902466 C 349.84970093 381.47122192 347.73141479 382.94665527 345.55529785 383.97470093 C 343.52841187 384.28015137 341.63745117 383.82015991 339.74127197 382.98587036 C 337.71713257 382.16683960 335.52053833 381.92312622 333.22421265 382.43045044 C 330.82870483 383.02682495 328.20736694 383.27856445 325.44848633 383.08050537 C 322.67327881 382.40249634 319.82931519 381.43127441 316.93234253 380.39950562 C 314.08111572 379.39093018 311.45193481 378.73086548 309.00775146 378.09045410 C 306.92205811 377.01336670 305.23379517 375.42065430 303.99090576 373.37176514 C 303.29415894 370.94787598 302.90365601 368.45431519 302.83154297 365.81082153 C 303.18692017 363.10568237 303.90823364 360.47494507 305.08761597 357.95678711 C 306.65206909 355.74105835 308.51394653 353.66992188 310.62472534 351.78030396 C 312.92877197 350.30603027 315.47314453 349.08132935 318.17449951 348.13742065 C 320.94552612 347.48901367 323.76217651 347.06307983 326.60479736 346.87799072 C 329.46173096 346.92382812 332.35696411 347.24295044 335.20794678 347.67129517 C 337.94195557 348.24520874 340.66287231 349.03494263 343.30941772 349.94869995 C 345.82934570 350.97094727 348.29663086 352.12011719 350.53674316 353.29092407 C 352.67175293 354.47784424 354.76651001 355.75976562 356.70080566 357.16226196 C 358.59457397 358.59265137 360.39254761 360.13995361 362.07604980 361.74172974 C 363.73553467 363.33224487 365.30905151 364.92410278 366.85137939 366.47418213 C 368.32611084 368.04260254 369.86804199 369.49673462 358.05236816 372.82003784" stroke-width="2.00000000" fill="rgb(86, 133, 73)" opacity="1.0" stroke="rgb(254, 251, 255)" stroke-opacity="1.0" stroke-linecap="round" stroke-linejoin="round"/>
    <path d="M 320.00494385 255.04052734 C 326.44400024 255.10908508 333.01370239 255.12164307 339.77420044 255.14602661 C 346.67352295 255.23869324 353.63156128 255.23072815 360.56164551 255.13180542 C 367.64920044 255.07107544 374.75875854 255.31181335 381.67639160 255.18667603 C 388.31094360 255.07084656 394.63140869 255.09017944 400.37802124 255.35641479 C 405.08239746 255.93601990 408.79718018 254.99661255 411.69104004 252.36247253 C 414.50424194 250.32427979 417.93289185 249.94128418 421.87561035 250.64884949 C 425.74014282 251.43179321 429.35952759 252.56611633 432.33807373 253.48460388 C 434.45687866 254.18267822 435.69638062 254.51239014 436.10852051 254.30194092 C 435.59011841 253.83380127 434.11715698 253.54537964 431.75039673 253.18734741 C 428.58215332 252.32183838 424.96331787 251.12307739 421.21051025 250.45018005 C 417.60162354 250.69395447 414.10278320 251.50558472 410.99060059 252.73333740 C 408.83062744 253.89082336 408.32794189 256.06008911 408.66195679 258.97967529 C 408.84796143 261.88610840 408.77575684 264.07257080 407.62811279 264.84463501 C 405.08084106 263.82992554 401.50085449 262.96841431 396.85351562 263.61123657 C 391.57681274 265.66928101 386.21011353 267.77136230 380.67144775 268.24435425 C 375.07681274 267.08843994 369.61718750 264.75033569 364.33679199 262.98605347 C 359.16024780 262.77017212 354.21078491 264.23977661 349.41751099 266.48999023 C 344.60968018 268.14605713 339.82058716 268.27917480 334.89938354 266.68234253 C 329.51486206 264.56655884 324.08142090 262.20568848 318.57730103 259.94692993 C 312.94409180 257.62484741 307.20907593 255.18069458 320.00494385 255.04052734" stroke-width="0.92238623" fill="rgb(8, 36, 71)" opacity="1.0" stroke="rgb(195, 255, 255)" stroke-opacity="0.29862863" stroke-linecap="round" stroke-linejoin="round"/>
    <path d="M 208.51609802 253.40147400 C 206.65036011 257.22634888 206.09298706 259.89370728 207.81001282 260.92886353 C 210.91458130 260.01901245 214.05079651 257.19876099 216.80245972 254.53582764 C 218.50549316 254.28677368 218.27583313 256.25704956 216.22448730 259.54391479 C 213.11833191 263.44720459 209.37461853 267.13629150 205.58404541 269.70895386 C 201.86579895 269.58898926 198.32142639 267.76394653 194.43879700 265.34893799 C 190.23788452 263.54653931 185.93818665 263.24325562 181.49975586 264.11578369 C 176.91030884 265.77490234 172.37556458 267.34106445 167.94546509 268.04226685 C 163.37290955 267.77813721 158.83778381 266.60601807 154.64971924 264.73455811 C 150.65847778 262.95007324 146.87449646 262.67324829 142.88681030 263.57492065 C 138.93731689 264.89654541 135.16085815 266.44088745 131.13113403 267.73733521 C 126.99276733 268.12405396 122.88760376 267.69015503 119.02596283 266.41244507 C 115.34261322 264.68511963 111.59973145 263.39657593 108.31066132 263.07968140 C 105.82699585 263.53829956 104.23198700 263.87936401 103.41171265 263.21072388 C 103.35115814 261.11441040 103.38568878 258.31799316 103.35752869 255.87879944 C 104.27463531 254.99002075 106.24453735 255.05796814 109.29096985 255.27839661 C 113.26127625 255.29032898 117.98144531 255.20013428 123.28538513 255.15887451 C 128.98484802 255.20983887 135.06109619 255.22564697 141.53536987 255.26887512 C 148.15293884 255.17289734 154.70755005 255.23805237 161.48190308 255.34686279 C 168.31053162 255.13304138 175.18736267 255.20584106 182.19142151 255.24755859 C 189.38859558 255.27894592 196.60064697 255.77337646 208.51609802 253.40147400" stroke-width="1.92601478" fill="rgb(6, 37, 74)" opacity="1.0" stroke="rgb(215, 255, 255)" stroke-opacity="0.2092139" stroke-linecap="round" stroke-linejoin="round"/>
    <path d="M 341.65917969 316.46386719 C 341.10571289 319.53973389 340.51632690 322.64163208 339.71408081 325.50009155 C 338.76837158 328.15603638 337.54718018 330.66592407 336.03799438 332.92330933 C 334.02679443 334.68905640 331.43829346 336.14184570 328.47824097 337.42288208 C 325.57028198 339.12017822 322.37084961 340.86376953 319.04864502 342.65542603 C 316.14682007 345.12484741 313.25753784 347.90670776 310.52938843 350.91461182 C 308.09246826 354.13955688 305.94284058 357.43185425 304.16088867 360.37289429 C 302.48953247 362.72659302 300.65856934 364.18399048 298.41195679 364.56237793 C 295.43948364 364.00250244 292.46038818 363.27166748 289.54116821 362.67388916 C 287.01803589 362.96081543 285.30599976 363.02294922 284.77105713 362.43771362 C 285.67776489 361.40213013 287.52185059 359.78369141 289.56378174 357.32785034 C 291.26416016 354.82504272 292.28610229 352.41653442 292.91809082 350.65457153 C 293.78930664 350.26834106 295.03930664 351.02435303 296.80374146 351.70220947 C 299.21548462 350.80502319 302.47647095 349.27685547 306.33239746 347.22732544 C 310.24658203 344.55282593 313.91250610 341.28002930 316.98062134 337.46838379 C 319.71560669 333.38153076 322.31982422 329.65045166 324.38250732 326.35156250 C 325.22161865 323.61502075 324.82928467 321.32934570 324.27636719 319.40423584 C 325.65078735 317.65399170 327.60083008 315.94873047 329.40206909 313.77239990 C 330.57467651 311.20501709 331.42822266 308.95336914 332.91790771 307.60546875 C 335.35339355 307.66098022 338.64410400 308.93804932 342.64358521 310.78109741 C 347.30349731 312.89517212 352.21746826 315.18829346 341.65917969 316.46386719" stroke-width="2.00000000" fill="rgb(5, 28, 77)" opacity="1.0" stroke="rgb(255, 255, 255)" stroke-opacity="0.34441873" stroke-linecap="round" stroke-linejoin="round"/>
    <path d="M 204.97926331 301.80203247 C 203.05706787 305.41778564 201.24667358 308.92391968 199.62605286 311.96145630 C 198.19056702 314.58761597 197.39689636 316.62387085 197.01127625 317.46463013 C 196.11174011 316.77258301 194.44653320 315.20129395 191.96409607 313.91070557 C 188.83766174 312.33938599 185.22419739 311.36868286 181.12107849 310.64913940 C 177.09399414 310.62472534 173.14404297 311.47860718 169.21105957 313.17385864 C 165.41583252 315.30322266 161.57247925 317.06582642 157.59870911 317.98330688 C 153.76443481 318.08282471 149.81875610 317.36715698 146.13496399 315.72531128 C 142.38616943 313.57644653 138.60061646 311.81604004 134.65206909 310.88226318 C 130.56967163 310.78765869 126.73874664 311.50009155 123.31822205 312.59518433 C 120.53562927 314.03796387 118.47470093 315.28533936 116.93663788 315.70776367 C 116.00585938 314.45327759 115.27230835 312.14556885 114.28825378 309.62533569 C 113.45789337 306.90356445 112.66109467 304.70916748 112.30669403 303.19790649 C 113.20848083 302.66397095 115.12632751 302.44232178 117.66289520 301.76928711 C 120.45014191 300.46572876 123.68614960 299.12850952 127.33126068 297.94631958 C 130.87579346 296.89004517 134.45883179 296.76379395 138.21340942 297.77709961 C 141.84945679 299.36517334 145.61189270 301.24008179 149.42881775 302.95626831 C 153.38368225 303.99279785 157.45562744 304.28842163 161.49522400 304.00115967 C 165.31694031 302.98825073 169.17102051 301.65402222 172.59411621 299.56933594 C 176.16545105 297.97640991 179.62530518 297.16430664 182.96534729 296.95089722 C 185.96340942 297.35580444 189.03739929 298.46365356 204.97926331 301.80203247" stroke-width="1.78636265" fill="rgb(3, 35, 82)" opacity="1.0" stroke="rgb(0, 28, 69)" stroke-opacity="1.0" stroke-linecap="round" stroke-linejoin="round"/>
    <path d="M 195.78591919 336.73086548 C 193.27513123 335.27951050 190.87756348 333.87362671 188.01524353 332.99609375 C 185.10360718 332.64404297 181.86395264 332.59268188 178.49230957 332.81942749 C 175.36083984 333.82913208 172.33369446 335.49768066 169.30274963 337.26464844 C 166.19160461 338.67425537 163.04766846 339.51269531 159.92932129 339.82031250 C 156.76557922 339.43206787 153.70646667 338.14431763 150.64489746 336.48233032 C 147.67887878 334.46432495 144.36111450 333.04644775 140.90036011 332.44995117 C 137.71321106 332.07583618 134.66349792 332.36038208 131.89309692 333.11233521 C 129.75411987 334.27960205 128.13195801 335.19653320 126.61568451 335.22683716 C 125.44992828 333.81817627 124.38678741 331.40930176 123.21236420 328.51998901 C 121.66623688 325.93505859 120.51080322 323.91247559 120.05123138 322.13024902 C 121.23349762 321.20144653 123.24169922 320.38922119 126.04727173 319.58425903 C 129.27720642 318.74691772 132.67199707 318.52627563 136.04487610 319.30108643 C 139.39746094 320.94845581 143.00326538 322.95349121 146.74148560 324.69683838 C 150.76824951 325.80819702 154.92147827 326.20950317 159.01913452 325.83554077 C 162.92379761 325.25445557 166.56526184 323.82061768 169.77384949 321.78005981 C 172.87490845 319.85241699 176.12980652 318.71154785 179.34454346 318.29330444 C 182.38505554 318.25854492 185.32583618 318.78659058 187.98783875 319.53497314 C 190.15605164 320.49899292 192.14785767 321.24871826 193.64543152 321.50570679 C 194.87008667 321.30639648 195.78712463 321.16629028 196.07821655 321.22668457 C 195.73934937 321.53543091 194.99147034 321.76400757 195.78591919 336.73086548" stroke-width="1.98787165" fill="rgb(7, 35, 87)" opacity="1.0" stroke="rgb(0, 30, 72)" stroke-opacity="0.99626374" stroke-linecap="round" stroke-linejoin="round"/>
    <path d="M 397.84573364 315.00646973 C 394.42028809 313.79342651 391.16540527 312.83358765 387.82345581 312.72152710 C 384.61877441 313.42031860 381.20666504 314.97140503 377.80844116 316.81808472 C 374.44119263 318.58923340 370.76480103 319.94805908 366.82281494 320.12002563 C 362.66513062 319.49902344 358.54479980 318.02502441 354.30398560 316.10211182 C 349.92428589 315.32629395 345.88055420 314.36508179 342.18167114 312.38650513 C 339.01983643 309.92535400 335.48748779 307.94656372 330.73754883 307.55966187 C 324.93881226 309.76974487 318.11199951 312.62286377 312.30111694 316.77362061 C 307.81924438 318.58010864 306.13784790 316.76296997 308.53845215 312.78894043 C 313.22830200 310.18328857 315.18658447 307.33255005 313.09570312 303.34802246 C 313.45828247 299.80050659 316.61892700 297.36242676 320.23416138 295.22851562 C 322.92938232 294.86962891 325.45941162 296.08935547 327.85955811 297.97509766 C 330.33334351 299.47189331 333.16305542 299.81027222 336.37399292 298.60540771 C 340.15426636 297.04837036 344.46627808 295.65347290 348.89746094 295.30017090 C 353.31112671 295.81695557 357.39788818 297.28457642 361.33767700 299.53115845 C 365.30993652 301.40921021 369.55560303 302.36666870 373.80471802 302.44671631 C 378.11334229 302.03628540 381.96899414 300.60583496 385.63076782 298.54342651 C 389.09893799 296.57931519 392.50280762 295.61206055 395.81942749 295.12304688 C 398.75912476 295.33544922 401.07202148 295.85369873 402.71670532 296.43148804 C 403.58395386 296.97012329 403.44274902 297.73791504 402.94226074 298.83718872 C 402.49667358 300.28924561 402.47976685 302.13208008 397.84573364 315.00646973" stroke-width="2.00000000" fill="rgb(11, 39, 86)" opacity="1.0" stroke="rgb(189, 255, 255)" stroke-opacity="0.32981664" stroke-linecap="round" stroke-linejoin="round"/>
    <path d="M 197.55230713 332.00155640 C 198.51432800 336.79208374 200.34858704 340.97039795 203.26864624 344.74670410 C 206.85281372 348.08688354 210.76911926 350.94442749 214.46876526 353.17694092 C 216.50830078 355.21252441 216.61540222 356.79290771 214.80262756 357.85238647 C 211.25747681 358.10150146 206.67420959 357.20205688 201.44491577 355.10238647 C 195.67085266 353.20690918 189.41049194 352.29486084 182.97404480 352.14559937 C 176.67356873 352.43505859 170.82980347 353.32327271 165.59959412 354.59088135 C 161.15184021 356.19763184 157.72024536 358.21856689 155.60125732 360.62924194 C 154.85563660 363.42630005 154.75125122 366.42163086 154.73912048 368.98547363 C 154.64735413 370.81170654 154.19624329 371.80761719 153.04980469 371.68026733 C 151.18122864 370.25469971 148.80416870 367.73397827 145.99226379 364.67135620 C 142.94784546 361.23367310 139.76249695 357.49383545 136.72375488 353.82171631 C 133.94300842 350.31970215 131.69262695 347.03842163 129.89184570 344.53790283 C 128.38365173 342.57025146 127.59592438 341.53601074 128.21363831 340.62155151 C 129.87945557 339.91909790 132.57489014 338.94494629 135.70973206 338.17074585 C 138.86859131 338.10220337 142.18367004 338.93927002 145.77572632 340.69039917 C 149.49671936 342.76852417 153.33012390 344.66784668 157.26118469 345.98352051 C 161.14128113 346.20346069 165.17253113 345.40939331 169.13136292 343.84609985 C 172.76051331 341.97640991 176.18711853 340.02902222 179.87669373 338.55178833 C 183.85983276 338.10812378 187.76121521 338.61111450 191.24702454 339.76565552 C 194.15936279 341.56713867 196.62165833 343.70837402 197.55230713 332.00155640" stroke-width="2.00000000" fill="rgb(3, 35, 81)" opacity="1.0" stroke="rgb(255, 255, 255)" stroke-opacity="0.19407676" stroke-linecap="round" stroke-linejoin="round"/>
    <path d="M 193.08755493 292.10671997 C 189.81390381 290.90130615 186.46534729 290.05123901 183.01461792 289.83752441 C 179.35755920 289.89541626 175.63046265 290.46707153 172.00770569 291.77954102 C 168.39456177 293.54754639 164.73498535 295.18444824 161.09692383 296.36367798 C 157.47547913 296.79489136 154.06379700 296.20925903 150.61880493 294.96121216 C 147.30065918 293.27142334 143.80380249 291.61160278 140.20283508 290.26943970 C 136.50784302 289.39855957 132.82208252 289.08834839 128.74276733 289.70791626 C 124.72956085 290.90759277 120.92442322 292.25170898 117.42852783 294.13555908 C 114.55711365 295.72070312 112.23123932 296.36428833 110.44766998 295.77822876 C 109.64324188 294.00970459 109.24658966 291.15850830 108.65335083 288.05404663 C 107.87436676 285.16387939 107.55448151 283.01452637 108.25612640 281.97280884 C 110.44406891 282.12142944 113.49823761 283.26296997 117.01162720 285.16061401 C 120.97321320 286.85772705 125.41799927 287.45425415 129.93711853 287.05902100 C 134.30531311 285.87841797 138.31883240 284.11422729 142.25744629 282.44964600 C 146.09999084 281.77789307 149.79733276 282.28292847 153.42243958 283.84487915 C 157.23252869 285.62588501 161.07801819 286.77221680 165.24761963 287.10278320 C 169.66995239 286.65667725 173.78770447 285.57467651 177.53483582 283.62301636 C 181.38566589 282.07989502 185.38049316 281.60195923 189.43217468 281.77386475 C 193.30584717 281.49163818 196.75219727 280.91540527 199.71826172 281.37283325 C 202.13168335 283.31924438 204.03082275 286.33401489 205.46405029 290.28665161 C 206.64044189 294.87359619 207.60528564 299.61596680 193.08755493 292.10671997" stroke-width="2.00000000" fill="rgb(1, 38, 85)" opacity="1.0" stroke="rgb(0, 32, 71)" stroke-opacity="0.9870845" stroke-linecap="round" stroke-linejoin="round"/>
    <path d="M 142.74609375 268.04925537 C 146.36965942 267.68780518 149.98847961 267.93045044 153.36625671 269.00378418 C 156.60391235 270.55218506 160.16079712 271.80581665 163.76626587 272.45425415 C 167.31556702 272.76336670 170.86325073 272.24954224 174.31567383 271.15310669 C 177.76435852 269.66961670 181.12522888 268.14358521 184.82072449 267.38607788 C 188.90977478 267.71798706 192.93318176 268.36318970 196.62052917 268.92333984 C 199.82022095 269.57504272 202.13470459 270.29269409 203.29414368 271.45529175 C 202.91702271 273.32919312 201.54100037 275.41201782 199.59095764 277.18881226 C 196.83042908 277.75616455 193.28245544 277.40734863 189.36819458 276.61669922 C 185.39622498 275.55606079 181.49528503 275.64859009 177.65527344 276.96316528 C 173.44322205 278.90496826 168.95384216 280.13717651 164.35664368 280.10919189 C 159.93486023 279.00320435 155.60285950 277.04101562 151.09411621 275.39746094 C 146.62805176 274.50231934 142.41868591 274.68038940 138.21963501 275.97058105 C 134.12792969 278.15847778 130.23350525 279.67407227 126.28836823 280.06155396 C 122.11926270 279.52972412 118.30426788 278.16720581 114.86476135 276.36895752 C 111.53434753 275.11383057 108.66031647 274.87915039 106.66027832 274.60546875 C 105.94371033 272.67980957 105.82186890 270.29226685 105.95877075 268.27105713 C 106.90592957 267.47991943 108.51002502 267.51235962 110.76466370 268.06286621 C 113.43327332 268.79031372 116.16873169 269.99749756 118.78804779 271.17504883 C 121.69903564 272.05236816 124.72232056 272.62438965 127.71541595 272.65832520 C 130.81231689 272.51687622 134.02865601 272.43399048 142.74609375 268.04925537" stroke-width="2.00000000" fill="rgb(5, 37, 86)" opacity="1.0" stroke="rgb(4, 31, 71)" stroke-opacity="0.97826284" stroke-linecap="round" stroke-linejoin="round"/>
    <path d="M 401.58178711 292.27551270 C 398.18701172 291.58337402 394.72857666 291.42568970 391.31478882 291.75936890 C 388.12844849 293.06723022 385.12335205 294.49938965 382.02322388 296.05984497 C 379.11303711 297.59078979 375.99630737 298.55984497 372.36547852 298.69009399 C 368.36126709 298.37203979 364.37011719 297.08761597 360.39874268 294.86953735 C 356.13076782 292.47485352 351.19564819 291.35610962 345.49481201 291.95190430 C 340.07141113 293.75125122 335.04931641 296.60412598 329.94049072 298.41375732 C 325.12207031 298.86975098 322.00225830 297.22149658 321.18826294 294.10180664 C 322.98831177 290.33227539 324.42687988 287.43826294 323.53866577 287.15130615 C 319.93124390 289.41885376 314.47509766 291.98312378 308.68179321 293.65780640 C 304.97140503 294.51742554 304.49423218 293.71392822 307.23281860 292.22207642 C 312.12689209 290.00433350 317.20562744 286.31304932 321.63729858 282.02160645 C 326.77151489 280.45028687 331.92568970 281.07119751 336.95822144 283.29519653 C 341.82577515 284.75854492 346.56372070 284.23156738 351.42633057 282.27993774 C 356.09652710 280.56118774 360.46005249 279.76049805 364.49722290 280.62448120 C 368.93096924 281.86965942 373.12026978 283.63809204 377.03735352 285.09500122 C 380.76181030 285.57940674 384.48593140 284.85061646 388.20388794 283.49493408 C 391.82342529 281.78793335 395.30792236 280.49774170 398.90518188 279.94241333 C 402.14880371 280.14907837 404.98422241 280.52639771 406.64096069 281.44161987 C 406.79385376 283.19400024 406.08688354 285.68344116 405.55957031 288.64221191 C 405.29580688 291.64489746 405.34176636 294.49212646 401.58178711 292.27551270" stroke-width="2.00000000" fill="rgb(5, 39, 76)" opacity="1.0" stroke="rgb(252, 255, 255)" stroke-opacity="0.6649694" stroke-linecap="round" stroke-linejoin="round"/>
    <path d="M 396.48764038 334.58917236 C 391.40908813 339.12112427 386.68518066 343.79687500 382.19967651 348.58544922 C 378.15969849 353.34204102 374.52529907 357.93490601 370.96801758 361.98114014 C 367.58111572 365.48934937 364.51181030 368.02478027 361.79724121 369.60992432 C 359.64373779 370.29998779 358.11068726 369.73034668 357.36572266 367.88482666 C 357.49252319 365.21704102 357.26367188 362.10870361 355.97668457 359.23806763 C 353.13256836 356.79977417 348.92602539 354.97473145 343.88925171 353.58419800 C 338.34127808 352.55947876 332.46743774 351.95327759 326.74652100 351.78598022 C 321.39932251 352.17434692 316.72567749 352.97637939 312.77169800 354.00003052 C 309.92440796 355.00097656 308.14141846 355.66638184 307.27932739 355.69406128 C 307.33410645 354.64764404 308.22885132 352.71722412 309.72515869 350.26077271 C 311.88281250 347.68572998 314.71600342 345.36459351 318.12493896 343.84466553 C 321.89544678 343.18496704 325.67333984 342.14315796 329.10232544 340.46447754 C 332.59741211 338.85021973 336.33016968 338.02401733 340.18582153 338.38180542 C 344.10699463 339.23379517 347.74844360 340.83950806 351.42037964 342.90905762 C 355.16940308 344.78381348 358.93014526 345.54479980 362.95855713 345.52633667 C 366.98190308 344.75604248 370.98751831 342.91009521 375.19030762 341.00210571 C 379.82760620 340.03237915 384.75180054 339.20230103 389.85632324 337.87249756 C 394.92684937 335.59344482 399.48873901 332.07986450 403.37332153 326.86181641 C 406.35375977 320.09140015 408.55596924 312.25518799 409.96771240 303.68627930 C 410.95199585 294.94781494 412.62258911 286.46466064 396.48764038 334.58917236" stroke-width="0.25411281" fill="rgb(4, 39, 82)" opacity="1.0" stroke="rgb(6, 73, 107)" stroke-opacity="0.62119746" stroke-linecap="round" stroke-linejoin="round"/>
    <path d="M 327.45156860 266.72143555 C 331.53250122 268.30001831 335.21737671 269.61474609 338.75964355 270.63531494 C 342.28955078 270.95788574 345.70257568 270.47888184 348.95977783 269.34646606 C 352.06179810 267.94610596 355.37863159 266.72598267 358.79907227 266.03903198 C 361.91915894 265.73193359 365.29125977 266.22116089 368.70455933 267.19488525 C 372.02590942 268.70578003 375.46417236 269.98236084 379.19595337 270.53198242 C 383.06158447 270.86373901 386.76364136 270.17172241 390.13723755 268.53863525 C 393.73922729 266.84899902 397.52072144 265.82699585 401.13369751 265.50396729 C 404.31713867 265.85983276 406.95602417 266.53561401 408.49856567 267.34326172 C 408.51824951 269.05960083 408.10052490 271.44216919 407.78390503 273.87863159 C 407.84783936 276.08511353 407.61151123 277.45822144 406.60122681 277.81320190 C 404.64505005 277.31326294 401.70306396 276.86837769 398.23605347 276.85903931 C 394.66494751 277.27987671 391.16833496 278.74172974 387.78836060 280.50384521 C 384.24151611 281.76800537 380.60690308 282.04187012 376.83624268 281.48587036 C 373.15325928 280.29455566 369.22451782 278.58029175 365.52404785 277.15704346 C 361.56408691 276.54522705 357.61743164 276.89859009 353.70199585 277.90185547 C 350.01867676 279.55514526 346.73275757 281.26913452 343.32589722 282.35461426 C 340.32440186 282.38159180 337.28546143 281.83755493 334.05496216 281.24514771 C 330.92013550 281.47570801 327.81613159 281.43630981 324.98171997 281.62774658 C 322.88931274 281.91210938 321.77975464 281.73181152 321.74920654 281.04971313 C 322.69070435 280.29678345 324.00231934 279.43237305 327.45156860 266.72143555" stroke-width="2.00000000" fill="rgb(0, 30, 77)" opacity="1.0" stroke="rgb(239, 255, 255)" stroke-opacity="0.44210413" stroke-linecap="round" stroke-linejoin="round"/>
    <path d="M 313.38110352 408.62503052 C 306.95343018 409.85327148 300.72473145 411.79071045 294.86273193 414.11181641 C 289.39334106 416.21139526 284.01620483 417.58447266 278.95938110 418.11172485 C 274.26800537 418.01736450 270.14855957 417.49206543 266.74649048 416.62109375 C 263.88034058 415.41531372 261.33795166 413.92449951 259.44009399 412.06887817 C 258.28582764 409.88717651 257.75277710 407.22851562 257.68365479 404.05197144 C 258.06036377 400.44412231 258.89288330 396.49136353 260.10714722 392.40756226 C 261.64788818 388.30419922 263.38375854 384.20898438 265.02590942 380.47323608 C 266.01147461 377.27456665 265.64111328 374.62371826 263.92504883 372.54013062 C 261.32363892 370.85284424 258.39746094 370.05621338 255.75260925 370.13879395 C 253.91598511 370.27853394 253.29815674 369.83590698 254.11714172 369.13088989 C 256.30828857 368.90438843 259.24240112 368.34136963 262.21679688 366.75146484 C 264.67477417 364.22210693 266.64483643 361.67767334 268.03964233 360.15814209 C 268.40417480 360.55596924 267.65243530 362.24371338 266.27865601 364.93908691 C 265.75518799 368.74548340 266.30490112 372.93612671 267.67065430 377.31768799 C 267.83694458 381.94992065 267.19229126 386.35772705 266.13037109 390.10122681 C 265.19302368 393.06747437 265.29876709 395.05093384 266.56213379 395.72460938 C 269.26913452 395.28390503 273.01333618 394.10931396 277.45797729 393.10247803 C 282.14486694 392.99014282 286.94799805 394.22668457 292.06524658 396.26550293 C 297.49407959 398.17153931 303.53192139 398.59350586 310.12213135 397.56732178 C 317.05102539 396.17089844 324.17922974 394.63415527 313.38110352 408.62503052" stroke-width="0.48050830" fill="rgb(2, 34, 87)" opacity="1.0" stroke="rgb(0, 16, 58)" stroke-opacity="0.8682342" stroke-linecap="round" stroke-linejoin="round"/>
    <path d="M 396.52386475 318.00872803 C 394.57830811 322.32843018 392.23522949 326.50567627 390.01803589 330.51376343 C 388.13168335 334.03073120 386.26913452 336.51516724 383.91357422 337.72314453 C 381.24652100 337.43255615 378.10125732 337.09259033 374.77017212 337.69766235 C 371.28399658 338.89010620 367.76370239 340.27880859 363.93832397 341.16967773 C 359.98348999 341.52743530 356.22640991 340.66027832 352.26666260 338.76501465 C 348.37600708 336.54605103 344.22753906 334.95401001 340.01766968 334.17691040 C 335.87945557 334.05859375 331.92779541 335.27410889 328.45986938 337.00982666 C 325.57357788 339.21640015 323.25717163 340.78952026 321.37045288 340.85232544 C 320.18173218 339.34365845 319.97189331 336.63775635 320.66537476 332.97100830 C 322.66662598 328.98413086 325.18460083 325.11907959 327.46200562 321.50094604 C 329.84158325 319.34063721 332.82830811 319.11752319 336.47875977 319.59924316 C 340.14736938 319.23803711 343.49047852 318.13906860 347.24203491 317.69537354 C 351.21609497 318.13458252 354.82501221 319.56289673 358.37789917 321.68911743 C 362.23028564 323.30163574 366.05993652 323.88879395 369.98214722 323.67803955 C 373.83657837 322.86776733 377.33361816 321.46115112 380.56979370 319.76629639 C 383.89117432 317.99935913 386.88858032 316.90579224 389.75833130 316.62393188 C 392.49166870 316.93829346 394.96707153 317.51788330 396.81423950 318.22906494 C 398.46020508 319.15451050 399.75296021 320.22256470 401.02786255 321.38034058 C 402.49267578 322.34356689 403.98913574 323.21218872 405.47930908 324.11776733 C 406.90319824 325.12731934 408.21347046 326.28302002 396.52386475 318.00872803" stroke-width="2.00000000" fill="rgb(6, 37, 82)" opacity="1.0" stroke="rgb(255, 255, 255)" stroke-opacity="0.51154125" stroke-linecap="round" stroke-linejoin="round"/>
    <path d="M 350.45312500 386.57748413 C 342.14761353 392.17724609 333.52572632 397.58990479 324.41094971 402.40255737 C 315.11557007 406.91390991 305.47976685 410.65911865 295.81433105 413.61996460 C 285.99411011 416.16278076 276.24780273 417.75973511 266.72177124 418.44491577 C 257.44442749 418.95022583 248.52230835 419.00674438 239.87553406 418.04602051 C 231.64324951 417.01980591 223.95686340 415.52365112 216.68734741 413.58111572 C 210.21624756 411.70724487 204.36888123 410.14575195 199.96205139 408.67483521 C 197.55088806 407.84402466 197.44020081 406.31814575 198.39292908 403.72460938 C 199.44166565 400.81347656 200.28997803 398.10501099 200.54200745 396.03817749 C 200.38583374 394.96228027 200.25735474 394.70596313 200.59803772 395.42056274 C 202.04389954 396.79058838 204.86392212 398.63208008 209.08619690 400.79629517 C 214.36492920 402.98846436 220.40232849 405.19549561 227.05706787 407.27960205 C 234.42073059 409.19448853 242.40182495 410.73776245 250.65263367 411.99984741 C 259.19265747 412.85153198 267.85681152 412.99951172 276.64025879 412.54614258 C 285.45431519 411.35647583 294.35440063 409.04138184 303.26229858 405.94424438 C 312.57577515 402.48007202 322.31100464 398.18258667 332.17239380 392.77246094 C 342.06307983 386.37957764 352.08789062 378.94824219 361.48504639 369.75335693 C 371.09197998 360.02743530 379.46862793 349.24899292 386.31652832 338.14242554 C 390.96020508 328.83535767 394.55178833 323.88430786 397.84283447 326.00598145 C 395.98431396 332.24340820 390.76242065 340.52664185 384.47015381 350.10229492 C 377.88195801 359.33300781 370.97744751 368.40740967 350.45312500 386.57748413" stroke-width="2.00000000" fill="rgb(253, 253, 253)" opacity="1.0" stroke="rgb(8, 34, 69)" stroke-opacity="0.9263167" stroke-linecap="round" stroke-linejoin="round"/>
    <path d="M 322.48040771 425.35650635 C 298.12170410 434.63339233 272.90795898 439.30764771 247.32814026 438.61779785 C 223.09158325 436.20660400 203.17636108 431.59274292 190.74148560 424.41329956 C 189.28099060 415.19967651 198.66400146 412.05459595 216.14398193 416.92456055 C 238.58374023 423.23168945 263.56039429 423.97720337 288.92703247 419.38668823 C 311.83349609 413.02651978 330.05889893 404.36074829 342.94976807 395.95956421 C 350.55526733 390.78881836 350.18777466 387.88201904 343.03933716 387.69561768 C 331.89978027 389.58917236 319.01544189 394.02853394 306.10473633 399.35153198 C 293.55648804 403.39508057 282.15777588 405.55535889 272.13525391 405.94311523 C 264.21417236 407.46231079 258.83908081 408.91876221 255.94001770 408.79217529 C 255.39785767 407.35272217 257.03210449 405.40093994 260.77062988 404.61093140 C 266.50411987 405.43234253 273.97903442 406.06701660 282.84912109 405.05410767 C 293.31643677 403.31787109 304.62918091 400.11914062 316.41000366 395.30062866 C 328.61480713 390.36843872 341.39828491 388.29809570 354.85525513 385.99151611 C 367.80618286 377.37646484 379.42520142 363.79946899 390.59481812 347.99139404 C 400.98022461 331.07336426 408.61935425 313.22662354 412.40939331 295.27423096 C 415.35079956 278.32122803 416.11621094 263.88723755 417.05618286 253.80831909 C 422.33169556 249.43690491 429.05334473 250.47157288 433.57492065 257.01562500 C 434.03274536 269.72976685 431.63754272 286.57949829 426.95382690 306.14675903 C 420.85031128 327.00918579 411.04922485 347.29544067 397.20797729 366.36257935 C 382.14678955 385.01531982 366.91717529 403.83078003 322.48040771 425.35650635" stroke-width="2.00000000" fill="rgb(236, 114, 23)" opacity="1.0" stroke="rgb(10, 10, 35)" stroke-opacity="0.7962735" stroke-linecap="round" stroke-linejoin="round"/>
    <path d="M 253.00651550 404.83609009 C 244.96156311 401.77743530 237.80177307 399.39083862 231.90690613 398.86907959 C 227.89714050 399.74038696 227.22250366 400.56512451 230.24662781 400.92361450 C 236.12181091 401.75958252 243.37382507 405.06542969 252.26559448 408.41073608 C 262.22894287 409.09463501 271.57290649 409.38601685 278.71386719 409.66400146 C 282.09860229 410.66226196 280.90505981 411.86349487 275.66796875 412.70550537 C 267.58242798 413.71002197 257.38809204 414.11770630 246.05505371 413.59750366 C 234.52722168 412.84869385 223.56286621 410.64144897 213.54441833 407.58981323 C 204.74308777 404.74896240 197.51882935 401.81289673 192.05102539 399.04785156 C 187.81178284 397.06149292 185.13380432 395.65441895 184.26020813 394.44409180 C 185.04400635 393.17721558 187.16833496 392.21041870 190.24647522 391.90878296 C 193.96188354 392.23928833 197.93910217 393.43441772 202.26499939 395.04769897 C 206.71035767 396.14547729 211.30694580 396.01782227 216.10252380 394.64599609 C 220.60993958 392.63250732 225.51171875 391.28009033 230.62091064 391.01846313 C 235.53405762 391.38317871 240.17556763 392.58422852 244.41041565 394.22698975 C 247.95777893 394.85278320 250.96572876 394.03350830 253.56471252 392.24734497 C 255.69982910 389.97906494 257.47232056 388.06207275 258.73571777 386.95516968 C 259.53338623 387.09915161 260.19744873 388.28158569 260.89859009 390.23950195 C 261.77548218 392.58795166 263.28298950 394.90093994 265.63284302 396.84930420 C 267.86660767 398.61932373 270.28933716 399.45068359 272.43096924 400.26306152 C 273.61331177 401.85128784 274.26791382 404.70840454 253.00651550 404.83609009" stroke-width="2.00000000" fill="rgb(10, 37, 82)" opacity="1.0" stroke="rgb(239, 255, 255)" stroke-opacity="0.58400065" stroke-linecap="round" stroke-linejoin="round"/>
    <path d="M 286.95761108 374.01229858 C 291.28494263 372.44692993 295.30972290 370.48416138 298.72085571 368.04022217 C 301.49023438 365.22314453 303.89672852 362.88421631 306.10894775 361.59829712 C 308.18698120 361.58880615 309.39410400 362.33544922 309.35897827 363.58822632 C 307.99609375 365.13476562 306.49002075 367.01165771 305.73745728 369.12802124 C 306.37603760 371.14007568 308.60836792 372.72372437 312.11779785 373.98275757 C 316.48208618 375.04840088 321.43173218 375.80493164 326.88888550 376.10995483 C 332.48004150 376.09710693 337.87808228 375.58819580 342.53292847 374.59368896 C 346.59539795 373.54013062 349.50164795 373.04290771 350.74804688 373.59274292 C 349.99468994 375.31356812 347.70825195 377.48129272 344.22732544 379.34988403 C 339.79223633 380.09530640 334.93618774 380.47076416 329.99822998 380.76007080 C 325.16149902 380.54614258 320.58886719 379.31048584 316.29251099 377.77578735 C 312.40100098 376.66806030 308.75869751 376.53765869 305.42871094 377.20437622 C 302.30715942 378.16821289 299.60592651 379.66394043 296.97113037 381.67202759 C 293.82238770 383.22888184 290.43115234 384.31021118 286.79406738 385.16549683 C 282.91503906 386.02224731 279.00085449 386.91702271 275.06735229 387.68041992 C 271.34661865 388.70822144 268.08157349 390.35052490 265.23336792 392.16680908 C 262.91082764 393.28018188 260.97439575 392.99661255 259.53045654 391.38995361 C 259.22628784 389.17016602 260.87371826 387.19613647 264.06726074 385.31530762 C 268.47698975 383.80740356 274.11752319 382.82635498 280.83691406 382.16763306 C 287.92410278 381.71490479 295.04800415 381.40621948 286.95761108 374.01229858" stroke-width="2.00000000" fill="rgb(0, 34, 84)" opacity="1.0" stroke="rgb(0, 30, 70)" stroke-opacity="0.95502144" stroke-linecap="round" stroke-linejoin="round"/>
    <path d="M 257.29177856 401.29858398 C 255.99746704 400.02313232 254.70751953 398.82781982 253.41206360 397.62750244 C 252.11311340 396.40695190 250.86581421 395.34310913 249.60449219 394.33367920 C 248.36393738 393.40591431 246.90126038 392.52316284 245.57267761 391.77362061 C 244.43225098 390.76577759 243.04495239 389.85882568 241.59358215 389.09869385 C 239.90267944 388.34991455 238.18484497 387.64443970 236.35928345 386.92373657 C 234.41809082 386.34103394 232.57736206 385.64672852 230.79776001 385.05703735 C 229.16610718 384.57647705 227.64407349 383.91235352 226.42047119 383.13745117 C 225.57281494 382.48294067 225.02987671 381.88616943 224.83044434 381.34912109 C 225.00622559 380.93460083 225.64590454 380.89663696 226.75622559 381.23947144 C 228.26322937 381.39285278 230.20979309 381.43508911 232.21911621 381.58782959 C 234.45549011 381.51031494 236.93904114 381.33599854 239.32017517 380.90652466 C 241.60336304 380.10165405 243.67762756 379.14434814 245.35229492 377.67102051 C 246.31248474 375.50967407 246.83438110 373.09573364 246.69869995 370.85415649 C 246.40533447 368.72268677 246.68247986 367.09457397 247.72561646 366.39837646 C 249.37078857 367.01226807 250.97198486 368.15390015 251.83349609 369.26574707 C 251.33439636 370.13064575 249.79470825 370.92031860 247.93440247 371.98272705 C 246.21223450 373.36730957 245.46853638 375.27676392 245.38639832 377.69311523 C 245.81996155 380.37725830 247.21092224 383.01147461 249.31983948 385.43472290 C 251.65988159 387.87203979 254.43502808 390.09475708 257.47656250 392.12048340 C 260.69482422 394.20898438 263.90686035 396.36895752 257.29177856 401.29858398" stroke-width="1.25121176" fill="rgb(7, 36, 82)" opacity="1.0" stroke="rgb(9, 27, 72)" stroke-opacity="0.94237214" stroke-linecap="round" stroke-linejoin="round"/>
    <path d="M 299.17947388 383.91076660 C 301.47152710 383.08038330 303.78668213 382.18896484 306.19134521 381.64654541 C 308.78637695 381.35803223 311.55517578 381.78042603 314.63751221 382.68347168 C 317.89907837 384.06503296 321.51608276 385.24218750 325.44253540 385.85388184 C 329.20245361 386.06372070 332.76843262 385.26092529 335.64813232 383.50860596 C 338.39300537 382.09561157 340.40646362 381.31796265 341.61685181 381.70587158 C 341.80508423 383.26950073 341.37268066 385.47933960 341.52975464 387.39605713 C 343.40487671 388.36856079 346.42053223 388.36285400 349.64935303 387.12841797 C 353.05029297 384.21621704 356.69760132 380.75115967 360.41198730 377.42001343 C 363.67120361 374.62811279 366.18798828 373.19094849 367.76907349 373.35263062 C 367.92828369 374.56665039 366.58480835 376.48370361 363.99960327 378.79418945 C 361.09765625 381.56378174 358.07815552 384.11618042 355.13293457 386.57968140 C 352.70834351 388.94433594 350.89306641 390.00216675 348.95263672 389.46435547 C 346.73016357 388.07019043 343.64584351 387.49771118 340.07986450 387.74685669 C 336.74908447 389.15878296 333.00973511 390.94268799 328.61267090 392.26824951 C 323.89660645 392.64520264 319.18389893 392.49322510 314.48416138 392.37594604 C 310.22375488 393.81146240 306.01367188 394.64129639 301.64227295 394.44113159 C 297.33950806 393.72216797 293.12457275 392.34527588 289.08154297 390.43981934 C 285.05667114 389.26931763 280.98837280 388.90975952 276.93325806 388.56124878 C 273.20492554 387.47415161 269.69934082 385.52490234 266.41748047 382.78103638 C 263.27563477 379.41033936 260.07705688 376.10903931 299.17947388 383.91076660" stroke-width="2.00000000" fill="rgb(6, 35, 79)" opacity="1.0" stroke="rgb(221, 255, 255)" stroke-opacity="0.2345457" stroke-linecap="round" stroke-linejoin="round"/>
    <path d="M 228.18309021 387.27120972 C 227.65374756 387.28964233 226.90390015 387.35867310 225.96321106 387.53536987 C 224.66690063 387.70510864 223.14683533 387.94369507 221.36218262 388.53436279 C 219.23930359 389.36798096 216.84701538 390.46902466 214.08941650 391.53491211 C 211.27221680 392.53207397 208.30377197 393.10806274 205.47732544 393.40307617 C 203.00665283 393.13470459 200.63035583 392.54104614 198.30595398 392.10937500 C 196.06767273 392.59436035 194.03117371 393.24099731 191.90165710 394.09197998 C 189.63287354 394.92126465 187.20823669 395.37072754 184.55583191 395.01409912 C 181.59085083 393.54641724 178.22367859 391.25039673 174.12562561 388.56909180 C 169.73097229 385.69345093 165.49200439 382.65991211 162.12930298 379.63064575 C 160.40646362 376.20687866 160.73757935 373.27563477 162.70851135 371.83697510 C 165.63551331 372.59197998 168.75956726 375.35824585 171.85249329 379.35708618 C 175.40223694 383.34912109 179.88873291 385.66131592 185.43353271 386.17272949 C 191.32005310 385.30062866 196.95104980 383.27642822 202.39816284 381.69729614 C 207.36532593 381.90213013 211.29048157 383.08633423 213.65734863 383.62869263 C 213.73376465 382.52462769 211.40199280 380.90011597 207.63587952 379.61315918 C 203.76620483 378.79962158 200.97779846 377.34384155 200.26470947 374.65658569 C 201.73707581 371.34878540 204.81845093 368.19805908 208.76605225 365.99441528 C 213.13919067 366.01632690 217.35743713 367.95056152 221.50160217 370.37286377 C 225.47071838 371.48635864 227.94099426 372.36489868 227.89718628 373.92623901 C 225.10421753 375.91363525 221.50390625 378.01010132 228.18309021 387.27120972" stroke-width="0.26704928" fill="rgb(5, 35, 81)" opacity="1.0" stroke="rgb(0, 31, 165)" stroke-opacity="0.37894154" stroke-linecap="round" stroke-linejoin="round"/>
    <path d="M 217.54887390 292.05856323 C 215.26191711 294.11462402 213.16177368 296.32861328 211.31309509 298.76257324 C 209.29991150 300.68945312 207.57170105 302.55505371 206.27255249 304.46807861 C 205.15759277 306.17395020 204.32888794 307.48947144 203.51271057 308.30636597 C 202.86491394 308.78720093 202.58691406 308.80133057 202.63891602 308.27099609 C 202.81280518 307.25650024 203.08798218 305.81860352 203.40641785 304.04800415 C 203.66806030 302.09814453 203.67242432 299.89993286 203.28619385 297.29635620 C 202.31350708 294.33001709 201.23724365 291.30215454 200.59939575 288.28671265 C 200.71734619 285.31573486 201.64816284 282.31365967 203.46304321 279.53811646 C 206.38578796 276.77413940 209.50947571 274.06527710 211.98530579 271.52352905 C 213.03602600 269.20877075 212.50408936 267.05249023 212.02275085 264.83914185 C 212.59101868 262.94448853 213.76374817 262.04129028 214.73426819 262.40371704 C 215.27055359 264.06063843 215.60639954 266.17288208 216.24194336 267.85998535 C 217.64306641 268.08471680 219.66674805 267.22558594 222.05590820 265.85946655 C 224.16113281 264.17453003 225.76202393 262.23315430 226.80654907 260.20239258 C 227.79975891 258.79449463 228.86808777 258.62326050 230.18307495 259.28143311 C 231.90893555 259.92926025 233.29335022 261.20703125 233.74250793 263.27584839 C 234.05665588 265.81359863 233.92333984 268.46582031 233.12046814 271.17291260 C 231.97640991 274.10864258 230.48446655 276.77008057 228.83479309 279.29956055 C 227.29550171 281.90762329 225.42596436 284.01971436 223.40895081 286.02917480 C 221.36976624 288.01345825 219.39492798 290.06045532 217.54887390 292.05856323" stroke-width="2.00000000" fill="rgb(10, 38, 81)" opacity="1.0" stroke="rgb(255, 255, 255)" stroke-opacity="0.1412066" stroke-linecap="round" stroke-linejoin="round"/>
    <path d="M 324.47140503 262.72763062 C 318.41983032 263.43804932 312.92205811 265.19119263 308.64266968 267.19515991 C 305.40005493 267.71722412 302.88034058 266.71636963 300.45849609 266.19192505 C 297.70495605 267.92788696 294.13555908 270.66232300 289.31036377 273.06423950 C 283.63470459 275.30517578 277.26098633 277.07589722 270.50469971 279.10482788 C 263.61666870 281.34954834 257.47766113 284.67050171 252.07594299 289.25210571 C 246.92494202 294.29260254 242.73106384 299.85699463 239.27941895 305.62576294 C 236.33110046 310.98474121 233.67063904 315.28628540 230.54852295 317.67477417 C 227.50320435 318.57037354 225.17231750 317.57186890 223.81602478 314.93722534 C 223.19485474 311.14544678 224.38606262 306.91668701 227.11912537 302.02835083 C 230.82162476 296.59963989 234.99163818 291.06655884 238.99090576 285.07553101 C 242.40513611 279.29525757 244.60464478 273.48898315 245.36630249 267.96429443 C 245.35154724 263.05554199 244.55369568 259.18020630 243.63766479 256.61203003 C 244.31411743 255.40196228 246.65171814 255.15441895 250.54669189 255.32795715 C 255.65420532 255.32162476 261.66171265 255.42002869 268.32400513 255.28585815 C 275.45251465 255.40148926 282.67208862 255.29901123 289.70867920 255.16148376 C 296.59017944 255.26542664 303.20205688 255.42129517 309.23980713 255.37971497 C 314.57470703 254.98542786 319.41000366 255.11103821 323.58181763 255.96916199 C 326.74279785 257.88577271 328.78527832 260.44631958 329.95693970 263.64901733 C 330.05148315 267.25625610 329.46649170 271.23144531 328.58413696 275.44110107 C 327.65365601 279.63656616 326.54946899 283.91729736 324.47140503 262.72763062" stroke-width="2.00000000" fill="rgb(12, 44, 86)" opacity="1.0" stroke="rgb(234, 255, 255)" stroke-opacity="0.18130799" stroke-linecap="round" stroke-linejoin="round"/>
    <path d="M 274.59152222 95.74693298 C 274.17639160 91.14672852 273.64581299 86.93589020 273.47296143 83.13957214 C 273.35479736 79.98113251 273.83059692 77.78410339 274.63919067 76.64431763 C 275.63653564 76.76413727 276.98178101 77.85162354 278.39282227 79.75946045 C 279.84698486 81.94817352 281.05416870 84.56121826 281.73361206 87.50690460 C 281.59368896 90.64692688 280.59060669 93.81546021 278.41003418 96.97386932 C 275.90258789 100.26581573 273.43884277 103.78891754 271.27807617 107.09911346 C 269.56195068 110.29854584 268.19656372 112.89810944 267.31021118 114.80245972 C 266.69369507 115.67453003 266.33456421 115.31296539 266.33456421 113.71311188 C 266.35723877 111.28297424 266.43667603 108.06106567 266.43215942 104.34306335 C 266.38088989 100.33062744 266.34777832 96.22766113 274.59152222 95.74693298" stroke-width="2.00000000" fill="rgb(228, 132, 44)" opacity="1.0" stroke="rgb(0, 32, 57)" stroke-opacity="0.60829014" stroke-linecap="round" stroke-linejoin="round"/>
    <path d="M 303.88534546 274.05541992 C 299.98986816 276.71438599 296.62063599 278.62954712 294.37622070 279.22485352 C 294.06121826 278.45278931 295.95059204 276.97143555 298.51504517 274.85858154 C 300.59259033 272.03848267 301.83035278 268.93814087 302.87042236 266.68392944 C 304.54504395 266.50735474 306.07745361 267.85128784 307.32330322 269.58453369 C 309.52066040 269.70111084 312.31021118 268.46704102 315.55960083 266.81954956 C 319.40972900 265.66955566 323.50231934 265.55572510 327.78768921 266.44345093 C 332.02029419 268.29412842 336.32543945 270.05715942 340.61523438 270.75799561 C 344.61489868 270.90447998 348.11663818 270.17651367 350.93041992 269.28793335 C 352.99185181 269.02737427 354.26123047 269.42544556 354.56860352 270.37396240 C 353.58599854 271.55758667 351.38018799 272.62524414 348.17761230 273.39025879 C 344.49664307 273.67477417 340.41833496 273.63800049 336.19448853 273.09356689 C 332.01281738 271.96844482 328.34561157 271.21087646 325.28671265 271.06411743 C 323.28485107 272.46243286 321.31872559 274.59768677 318.37420654 276.70254517 C 314.59494019 279.14553833 309.69845581 281.39682007 303.82611084 283.39425659 C 297.16198730 285.22943115 289.55010986 286.59237671 281.54415894 287.92059326 C 273.44927979 289.55413818 265.56756592 292.91873169 258.55453491 298.27273560 C 252.34446716 303.79229736 248.32702637 308.99969482 245.94717407 311.54290771 C 245.80111694 309.66650391 248.59616089 305.06967163 253.61260986 298.55911255 C 260.18548584 291.64422607 269.49398804 286.81726074 280.85345459 284.30859375 C 293.13262939 282.24667358 305.83374023 281.46276855 303.88534546 274.05541992" stroke-width="2.00000000" fill="rgb(6, 34, 76)" opacity="1.0" stroke="rgb(241, 255, 255)" stroke-opacity="0.29072696" stroke-linecap="round" stroke-linejoin="round"/>
  </g>
</svg>
