<?xml version="1.0" ?>
<svg xmlns="http://www.w3.org/2000/svg" version="1.1" width="512" height="512" viewBox="0 0 512 512">
  <defs/>
  <g>
    <path d="M 351.35037231 262.97195435 C 350.19656372 269.13269043 348.86141968 275.16156006 347.33529663 281.08932495 C 345.20452881 286.93615723 342.66381836 292.82376099 339.60247803 298.64086914 C 336.16372681 304.25393677 332.54043579 309.81347656 328.50610352 315.28225708 C 324.04486084 320.54501343 319.11416626 325.73657227 313.83123779 330.66793823 C 308.23977661 335.36260986 302.19085693 339.50204468 295.70068359 342.88693237 C 289.09509277 345.93249512 282.36853027 348.29910278 275.67401123 349.49581909 C 268.97586060 349.21255493 262.30364990 347.95697021 255.59709167 347.05447388 C 248.89514160 347.41754150 242.13169861 348.52145386 235.47392273 349.35037231 C 229.13548279 349.20089722 223.10781860 347.83624268 217.18574524 345.61190796 C 211.23715210 342.92095947 205.43766785 339.71560669 199.94898987 336.10940552 C 194.79365540 332.07824707 189.89381409 327.52789307 185.24118042 322.61053467 C 180.67588806 317.53402710 176.52467346 312.16244507 172.86746216 306.51217651 C 169.35824585 300.44329834 166.17204285 294.01455688 163.39678955 287.51770020 C 160.91030884 280.84237671 159.07217407 273.89520264 157.75851440 266.68060303 C 156.77005005 259.58706665 156.26719666 252.63450623 156.29243469 245.80917358 C 156.63914490 239.19210815 157.53532410 232.68344116 158.80305481 226.52610779 C 160.21458435 220.48266602 162.01870728 214.81895447 164.22097778 209.39805603 C 166.77833557 204.05467224 169.70739746 198.86145020 172.95864868 193.99409485 C 176.50616455 189.23849487 180.52549744 184.86540222 185.21820068 180.74296570 C 190.17546082 177.09365845 195.57626343 174.09396362 201.37892151 171.56385803 C 207.47534180 169.32373047 213.97036743 167.70231628 220.75431824 166.71401978 C 227.71389771 166.11558533 234.79402161 165.73587036 242.04179382 165.64183044 C 249.39727783 165.61399841 256.70590210 165.61054993 263.91772461 165.65248108 C 271.08480835 165.72039795 278.22622681 166.10942078 285.19403076 166.67834473 C 291.91763306 167.78065491 298.49063110 169.62147522 304.91378784 172.05361938 C 311.21728516 174.85446167 317.06597900 178.27911377 322.61029053 182.46510315 C 327.88885498 187.09893799 332.68951416 192.25044250 337.07699585 197.83853149 C 341.02389526 203.92329407 344.24114990 210.33982849 346.90985107 216.98754883 C 348.99499512 223.88438416 350.49346924 230.91900635 351.35751343 238.07995605 C 351.81137085 245.27488708 352.10284424 252.49586487 351.35037231 262.97195435" stroke-width="2.00000000" fill="rgb(228, 20, 4)" opacity="1.0" stroke="rgb(27, 0, 0)" stroke-opacity="0.9329179" stroke-linecap="round" stroke-linejoin="round"/>
    <path d="M 189.39126587 212.99522400 C 189.44476318 212.01278687 189.52545166 210.90753174 189.77700806 209.89826965 C 190.12144470 208.80860901 190.53684998 207.78224182 191.11718750 206.67727661 C 191.66693115 205.64152527 192.40333557 204.66632080 193.31233215 203.69319153 C 194.24266052 202.91540527 195.36491394 202.23777771 196.56138611 201.64210510 C 197.77441406 201.17103577 199.10537720 200.77941895 200.46334839 200.57022095 C 201.78425598 200.41134644 203.14797974 200.44172668 204.43147278 200.43733215 C 205.64973450 200.70367432 206.79638672 201.01918030 207.84498596 201.69090271 C 208.85382080 202.36482239 209.71273804 203.30567932 210.55479431 204.27790833 C 211.30853271 205.36433411 211.93995667 206.51750183 212.42558289 207.73782349 C 212.88056946 208.97570801 213.09025574 210.33798218 213.24565125 211.61080933 C 213.20715332 213.01850891 213.17558289 214.32765198 212.96633911 215.58195496 C 212.65934753 216.98017883 212.28166199 218.23616028 211.81729126 219.46159363 C 211.14201355 220.63705444 210.40925598 221.63861084 209.54682922 222.56610107 C 208.58810425 223.43626404 207.57482910 224.19804382 206.45547485 224.81346130 C 205.23028564 225.29730225 203.98542786 225.66072083 202.63932800 225.76333618 C 201.32705688 225.92425537 200.01954651 225.91979980 198.71524048 225.75155640 C 197.49064636 225.43225098 196.28073120 224.99293518 195.17442322 224.43812561 C 194.17723083 223.80393982 193.25134277 223.05310059 192.42726135 222.26931763 C 191.76170349 221.42329407 191.12709045 220.45854187 190.59397888 219.54541016 C 190.16545105 218.61685181 189.74967957 217.58309937 189.39126587 212.99522400" stroke-width="1.00887251" fill="rgb(248, 219, 213)" opacity="1.0" stroke="rgb(175, 141, 142)" stroke-opacity="0.5236792" stroke-linecap="round" stroke-linejoin="round"/>
    <path d="M 258.72549438 149.36740112 C 258.74777222 149.33627319 258.73614502 149.36708069 258.73785400 149.33103943 C 258.74136353 149.39033508 258.72564697 149.30873108 258.74893188 149.38938904 C 258.76089478 149.33309937 258.73440552 149.36041260 258.73114014 149.36552429 C 258.77359009 149.33715820 258.70700073 149.38330078 258.77224731 149.32585144 C 258.74133301 149.38290405 258.72369385 149.36595154 258.75274658 149.34165955 C 258.75286865 149.37591553 258.71868896 149.34997559 258.75854492 149.35997009 C 258.74826050 149.37545776 258.72982788 149.34930420 258.72726440 149.36984253 C 258.76428223 149.37484741 258.71960449 149.34147644 258.75860596 149.38600159 C 258.72903442 149.35456848 258.72088623 149.33863831 258.76766968 149.38867188 C 258.71142578 149.34126282 258.76107788 149.37448120 258.72549438 149.36740112" stroke-width="0.00000000" fill="rgb(255, 255, 223)" opacity="1.0" stroke="rgb(192, 243, 233)" stroke-opacity="1.0" stroke-linecap="round" stroke-linejoin="round"/>
    <path d="M 262.42642212 160.62606812 C 260.98367310 160.64466858 259.67941284 160.56289673 258.32244873 160.50982666 C 256.90206909 160.46308899 255.54722595 160.36898804 254.11106873 160.27264404 C 252.68052673 160.13378906 251.26397705 159.82846069 249.78843689 159.52455139 C 248.40264893 159.12564087 246.97445679 158.76651001 245.55455017 158.23994446 C 244.26622009 157.84107971 242.99584961 157.27163696 241.82788086 156.73002625 C 240.79745483 156.13902283 239.88987732 155.58853149 239.17222595 154.94279480 C 238.52458191 154.37164307 238.23326111 153.77333069 238.01716614 153.21173096 C 238.06840515 152.55998230 238.31210327 152.08673096 238.63789368 151.59997559 C 239.26889038 151.09671021 239.90383911 150.72984314 240.83238220 150.35960388 C 241.69001770 150.03768921 242.76855469 149.74253845 243.87362671 149.56303406 C 245.10731506 149.34692383 246.32830811 149.22688293 247.63073730 149.20446777 C 248.97003174 149.19007874 250.35293579 149.23347473 251.73756409 149.42002869 C 253.30639648 149.41673279 254.61840820 149.56655884 256.20303345 149.62432861 C 257.66433716 149.68041992 259.12173462 149.79194641 260.55249023 149.89088440 C 261.94638062 150.13424683 263.17514038 150.46969604 264.32125854 150.92166138 C 265.29064941 151.59852600 266.09170532 152.37464905 266.74554443 153.12136841 C 267.37261963 153.95500183 267.68917847 154.72366333 267.98989868 155.49827576 C 268.12191772 156.21075439 268.15179443 156.87052917 268.11950684 157.51004028 C 268.01818848 158.19801331 267.91195679 158.65974426 267.69482422 159.14762878 C 267.55722046 159.62605286 267.32745361 160.04841614 262.42642212 160.62606812" stroke-width="1.23488569" fill="rgb(235, 234, 232)" opacity="1.0" stroke="rgb(186, 188, 180)" stroke-opacity="0.20548093" stroke-linecap="round" stroke-linejoin="round"/>
    <path d="M 271.55215454 145.83972168 C 272.20446777 145.72454834 272.89300537 145.72589111 273.51135254 145.80453491 C 274.18667603 145.69291687 274.79199219 145.79956055 275.40582275 145.85928345 C 275.90896606 145.98428345 276.42575073 146.14822388 276.75924683 146.35813904 C 277.06228638 146.60433960 277.09994507 146.89697266 277.17721558 147.16958618 C 277.10305786 147.39918518 276.90927124 147.63610840 276.53723145 147.77890015 C 276.14651489 148.00303650 275.67984009 148.16279602 275.09280396 148.26773071 C 274.52459717 148.32142639 273.91381836 148.34623718 273.34707642 148.29267883 C 272.76596069 148.20376587 272.21688843 148.07749939 271.67990112 147.87335205 C 271.21990967 147.59736633 270.71368408 147.30412292 270.25576782 146.85916138 C 269.81515503 146.49008179 269.37976074 145.99255371 271.55215454 145.83972168" stroke-width="2.00000000" fill="rgb(255, 255, 255)" opacity="1.0" stroke="rgb(243, 255, 240)" stroke-opacity="0.0034040879" stroke-linecap="round" stroke-linejoin="round"/>
    <path d="M 239.84396362 166.45808411 C 237.50549316 166.41195679 235.12840271 166.35083008 232.69873047 166.31101990 C 230.52363586 166.22380066 228.21736145 165.98318481 226.08424377 165.73182678 C 223.97853088 165.23277283 221.96989441 164.68118286 219.97421265 163.94374084 C 218.01214600 163.16720581 216.13940430 162.20524597 214.26368713 160.87518311 C 212.43319702 159.34928894 210.62617493 157.45495605 208.87403870 155.31004333 C 207.26080322 152.95437622 205.62355042 150.45675659 204.23640442 147.80853271 C 202.92218018 145.04209900 201.74542236 142.38900757 200.88368225 139.84503174 C 200.09632874 137.54243469 199.55529785 135.67433167 199.20303345 134.19082642 C 199.21208191 133.28579712 199.73129272 132.93223572 200.80798340 133.10325623 C 202.44906616 133.43379211 204.51518250 133.71243286 206.78533936 133.97348022 C 209.31784058 134.22695923 211.99789429 134.53463745 214.75283813 134.73153687 C 217.51965332 135.02163696 220.18208313 135.37731934 222.75556946 135.74174500 C 225.08514404 136.15473938 227.42826843 136.55979919 229.55551147 137.17752075 C 231.62130737 138.02455139 233.55612183 139.02598572 235.42857361 140.15428162 C 237.33235168 141.23506165 239.19619751 142.69851685 240.83322144 144.44259644 C 242.57936096 146.33906555 244.18966675 148.36932373 245.69033813 150.52806091 C 247.02830505 152.83422852 248.20924377 155.20722961 249.14158630 157.47074890 C 249.99905396 159.42608643 250.77001953 161.15698242 251.37623596 162.63825989 C 251.95419312 163.86364746 252.31614685 164.85997009 252.79270935 165.62738037 C 253.39315796 166.19509888 253.98577881 166.67506409 239.84396362 166.45808411" stroke-width="2.00000000" fill="rgb(79, 177, 58)" opacity="1.0" stroke="rgb(1, 8, 0)" stroke-opacity="0.9306845" stroke-linecap="round" stroke-linejoin="round"/>
    <path d="M 259.10256958 172.30827332 C 258.67269897 175.32897949 258.35311890 178.26239014 257.96295166 181.14331055 C 257.68356323 184.08192444 257.45089722 186.78047180 257.20092773 189.13072205 C 256.92355347 191.19116211 256.61724854 192.74462891 256.27450562 193.76927185 C 255.87217712 194.09819031 255.45951843 193.75239563 255.24414062 192.73986816 C 255.18083191 191.15365601 255.17941284 188.96249390 255.31365967 186.44416809 C 255.45935059 183.68934631 255.52146912 180.74465942 255.59545898 177.83618164 C 255.88185120 174.87385559 256.23205566 171.98670959 256.47109985 169.16574097 C 256.57788086 166.43504333 256.67694092 163.79882812 256.58660889 161.12771606 C 256.50866699 158.55000305 256.46466064 155.93141174 256.32608032 153.34889221 C 256.02758789 150.75245667 255.61947632 148.01045227 255.36016846 145.24627686 C 254.99824524 142.44692993 254.68972778 139.65293884 254.25093079 137.06208801 C 253.73768616 134.59909058 253.42428589 132.50221252 253.24447632 130.92456055 C 253.41477966 129.91111755 254.14241028 129.44525146 255.29171753 129.50883484 C 256.76647949 129.59686279 258.43710327 129.74845886 260.16574097 129.81643677 C 261.60894775 130.13328552 262.53295898 130.97839355 262.73843384 132.41914368 C 262.67367554 134.51853943 262.54379272 136.97332764 262.42938232 139.75967407 C 262.26251221 142.93759155 261.90197754 146.02793884 261.52255249 149.11138916 C 261.46725464 152.05201721 261.26681519 154.85411072 260.90768433 157.52464294 C 260.57751465 159.96656799 260.40826416 162.36238098 260.13812256 164.67546082 C 259.71572876 166.98081970 259.35922241 169.21208191 259.10256958 172.30827332" stroke-width="2.00000000" fill="rgb(185, 138, 106)" opacity="1.0" stroke="rgb(38, 9, 8)" stroke-opacity="1.0" stroke-linecap="round" stroke-linejoin="round"/>
    <path d="M 270.48870850 199.27355957 C 266.37643433 199.92562866 262.20669556 200.44415283 258.13516235 200.83845520 C 254.18800354 200.89186096 250.51063538 200.74395752 247.14463806 200.36294556 C 244.14517212 199.86886597 241.60009766 199.25306702 239.54579163 198.73559570 C 238.13829041 198.37933350 237.37745667 197.97406006 237.25845337 197.69120789 C 237.75828552 197.51637268 238.87789917 197.52012634 240.68666077 197.57131958 C 242.81655884 197.80419922 245.38920593 197.89994812 248.35316467 197.93235779 C 251.52343750 197.80813599 254.82818604 197.71665955 258.22500610 197.69165039 C 261.54821777 197.79393005 264.90356445 197.75372314 268.01321411 197.53034973 C 270.92092896 197.23446655 273.71102905 196.92379761 276.39227295 196.55908203 C 278.99945068 196.21495056 281.56265259 195.83050537 270.48870850 199.27355957" stroke-width="1.27719796" fill="rgb(64, 7, 8)" opacity="1.0" stroke="rgb(128, 22, 20)" stroke-opacity="0.9006053" stroke-linecap="round" stroke-linejoin="round"/>
  </g>
</svg>
