<?xml version="1.0" ?>
<svg xmlns="http://www.w3.org/2000/svg" version="1.1" width="512" height="512" viewBox="0 0 512 512">
  <defs/>
  <g>
    <path d="M 351.43624878 262.43585205 C 350.28002930 268.74847412 348.97131348 275.17031860 347.17156982 281.55166626 C 344.91714478 287.83453369 342.05276489 294.06222534 338.67346191 300.24066162 C 334.91787720 306.32827759 330.92636108 312.35049438 326.19619751 318.02032471 C 321.15310669 323.42123413 315.75830078 328.63772583 310.28533936 333.54956055 C 304.55297852 337.98449707 298.44311523 341.63732910 292.08224487 344.55120850 C 285.90676880 347.11080933 279.64788818 348.90490723 273.31051636 349.47888184 C 267.05667114 348.82644653 260.85140991 347.54644775 254.52050781 346.74700928 C 248.09823608 347.46957397 241.69458008 348.72061157 235.41714478 349.44116211 C 229.27590942 349.22763062 223.22900391 347.83096313 217.29386902 345.64315796 C 211.40472412 342.95901489 205.56680298 339.86926270 199.94705200 336.09164429 C 194.68115234 332.02212524 189.62936401 327.38372803 184.94989014 322.30532837 C 180.40258789 317.20620728 176.29679871 311.60876465 172.51123047 305.77609253 C 168.85423279 299.91619873 165.87750244 293.72335815 163.30165100 287.27554321 C 160.83642578 280.75842285 159.03312683 274.18164062 157.92784119 267.42205811 C 157.03228760 260.60961914 156.35475159 253.86466980 156.30929565 247.14213562 C 156.59167480 240.39065552 157.44720459 233.80825806 158.64585876 227.41873169 C 160.08876038 221.12202454 161.87054443 214.98759460 164.27375793 209.12881470 C 166.93382263 203.58169556 169.96064758 198.28756714 173.40937805 193.21662903 C 177.13150024 188.44804382 181.28703308 184.12805176 185.83059692 180.12200928 C 190.91091919 176.76196289 196.32365417 173.80587769 202.08425903 171.28277588 C 208.14553833 169.12448120 214.55653381 167.60647583 221.24470520 166.73741150 C 228.23062134 166.25788879 235.39608765 165.90335083 242.70249939 165.79067993 C 250.17680359 165.80859375 257.76422119 165.78469849 265.20812988 165.68606567 C 272.56161499 165.68449402 279.95324707 166.13621521 287.13430786 166.92092896 C 294.04620361 168.23835754 300.67535400 170.31594849 307.08056641 172.87428284 C 313.11660767 175.76406860 318.78164673 179.40036011 323.82534790 183.60197449 C 328.72003174 188.00996399 333.19213867 192.77259827 337.09051514 197.91763306 C 340.50524902 203.20343018 343.35974121 208.76393127 345.88034058 214.39692688 C 347.91714478 220.04348755 349.34707642 225.66410828 350.46817017 231.38410950 C 351.35778809 237.17671204 352.18951416 243.01376343 351.43624878 262.43585205" stroke-width="2.00000000" fill="rgb(230, 19, 4)" opacity="1.0" stroke="rgb(26, 0, 0)" stroke-opacity="0.94093174" stroke-linecap="round" stroke-linejoin="round"/>
    <path d="M 189.40005493 212.07490540 C 189.51803589 210.97616577 189.75276184 209.95375061 190.10754395 208.88163757 C 190.52511597 207.85247803 191.00242615 206.84793091 191.60580444 205.86947632 C 192.18598938 204.87135315 192.93867493 203.98803711 193.77949524 203.26730347 C 194.79258728 202.57415771 195.86947632 201.93212891 197.00929260 201.45428467 C 198.21279907 201.03166199 199.46041870 200.69470215 200.71293640 200.52516174 C 202.00500488 200.49047852 203.24990845 200.44993591 204.48081970 200.49517822 C 205.61059570 200.58044434 206.70596313 200.91821289 207.71299744 201.47839355 C 208.68186951 202.21112061 209.53726196 203.09982300 210.39538574 204.02391052 C 211.13883972 205.11437988 211.80342102 206.27194214 212.39120483 207.43165588 C 212.82347107 208.72512817 213.04443359 210.06605530 213.21636963 211.41897583 C 213.27346802 212.77626038 213.23883057 214.16473389 212.99641418 215.51197815 C 212.71257019 216.88751221 212.21931458 218.24102783 211.69621277 219.46788025 C 211.16076660 220.72274780 210.34350586 221.77827454 209.43473816 222.68328857 C 208.46022034 223.56320190 207.44738770 224.27059937 206.31828308 224.87480164 C 205.17785645 225.36604309 203.94868469 225.58786011 202.78277588 225.81867981 C 201.54023743 225.91082764 200.33747864 225.91613770 199.16072083 225.80941772 C 198.10614014 225.61160278 197.00100708 225.27072144 195.96316528 224.85531616 C 194.97439575 224.33862305 194.03828430 223.71458435 193.25135803 223.03727722 C 192.48031616 222.20849609 191.79437256 221.34103394 191.12174988 220.41993713 C 190.39923096 219.53576660 189.70960999 218.60867310 189.40005493 212.07490540" stroke-width="1.00136101" fill="rgb(251, 223, 216)" opacity="1.0" stroke="rgb(176, 130, 126)" stroke-opacity="0.5447666" stroke-linecap="round" stroke-linejoin="round"/>
    <path d="M 258.75292969 149.34997559 C 258.72863770 149.35533142 258.75073242 149.34976196 258.71643066 149.34812927 C 258.76324463 149.35897827 258.73251343 149.34916687 258.72723389 149.35569763 C 258.75634766 149.35882568 258.73767090 149.35340881 258.73727417 149.37985229 C 258.75286865 149.33572388 258.72610474 149.37881470 258.75869751 149.35008240 C 258.73342896 149.35346985 258.74838257 149.37455750 258.73434448 149.36752319 C 258.73770142 149.34889221 258.75250244 149.37159729 258.72760010 149.36862183 C 258.74215698 149.35919189 258.76330566 149.37031555 258.70709229 149.36891174 C 258.73443604 149.35673523 258.77972412 149.36775208 258.72201538 149.36955261 C 258.71520996 149.36500549 258.77545166 149.35815430 258.73535156 149.37065125 C 258.73913574 149.36383057 258.74908447 149.36326599 258.75292969 149.34997559" stroke-width="0.00000000" fill="rgb(255, 255, 223)" opacity="1.0" stroke="rgb(192, 243, 233)" stroke-opacity="1.0" stroke-linecap="round" stroke-linejoin="round"/>
    <path d="M 262.14880371 160.53965759 C 260.63955688 160.73568726 259.12582397 160.88206482 257.62866211 160.99984741 C 256.15866089 160.96337891 254.62960815 160.98074341 253.18544006 160.86801147 C 251.76643372 160.70542908 250.30503845 160.46176147 248.99986267 160.11363220 C 247.65632629 159.65061951 246.40928650 159.20971680 245.20065308 158.66505432 C 244.14584351 158.09468079 243.07743835 157.57020569 242.19511414 156.93649292 C 241.35511780 156.31536865 240.69943237 155.73626709 240.08886719 155.13665771 C 239.65863037 154.50305176 239.34867859 153.90054321 239.15634155 153.33639526 C 239.17536926 152.75962830 239.28289795 152.30947876 239.54789734 151.72740173 C 239.97755432 151.25865173 240.52183533 150.82237244 241.22816467 150.40766907 C 242.05616760 150.04393005 243.02529907 149.71754456 244.03875732 149.39433289 C 245.22938538 149.15992737 246.45462036 149.04260254 247.74336243 149.00547791 C 249.18762207 149.04257202 250.60925293 149.15274048 252.09869385 149.21992493 C 253.65113831 149.23133850 255.15321350 149.21649170 256.61502075 149.14398193 C 258.05535889 149.16963196 259.41873169 149.13728333 260.64794922 149.20216370 C 261.78085327 149.28294373 262.77487183 149.44813538 263.61816406 149.81045532 C 264.25527954 150.31040955 264.83724976 150.87995911 265.24728394 151.57823181 C 265.67758179 152.37574768 265.99511719 153.11174011 266.38809204 153.94250488 C 266.73675537 154.72769165 266.99887085 155.55079651 267.35931396 156.33360291 C 267.62036133 157.25889587 267.88000488 158.05578613 268.13632202 158.99681091 C 268.44253540 159.90060425 268.64395142 160.81504822 262.14880371 160.53965759" stroke-width="0.52231240" fill="rgb(236, 234, 231)" opacity="1.0" stroke="rgb(255, 255, 255)" stroke-opacity="0.2728522" stroke-linecap="round" stroke-linejoin="round"/>
    <path d="M 271.94625854 144.65791321 C 272.40954590 145.06405640 272.85397339 145.33749390 273.31631470 145.70149231 C 273.67086792 145.96896362 274.09774780 146.04055786 274.56240845 146.00003052 C 274.90228271 146.01165771 275.29977417 146.01808167 275.65026855 146.06668091 C 275.82406616 146.21203613 275.98767090 146.41177368 276.05880737 146.64590454 C 276.13732910 146.96542358 276.06677246 147.24583435 275.97525024 147.46299744 C 275.83496094 147.71493530 275.58221436 147.87133789 275.23825073 148.03421021 C 274.87567139 148.08682251 274.42883301 148.12884521 273.95639038 148.05802917 C 273.39913940 147.98081970 272.88931274 147.85469055 272.34378052 147.71174622 C 271.75756836 147.50956726 271.16754150 147.37705994 270.60363770 147.19421387 C 270.02548218 147.02822876 269.44558716 146.87466431 271.94625854 144.65791321" stroke-width="1.90787971" fill="rgb(255, 255, 255)" opacity="1.0" stroke="rgb(255, 255, 255)" stroke-opacity="0.0" stroke-linecap="round" stroke-linejoin="round"/>
    <path d="M 239.14108276 166.33737183 C 236.65164185 166.37026978 234.14985657 166.30235291 231.68470764 166.29571533 C 229.19731140 166.10073853 226.79516602 165.74751282 224.42248535 165.32214355 C 222.08161926 164.64187622 219.87207031 163.84046936 217.63531494 162.95677185 C 215.51000977 161.82057190 213.59715271 160.38865662 211.90789795 158.70928955 C 210.25486755 156.91325378 208.65344238 155.04721069 207.24618530 152.93930054 C 205.95069885 150.69198608 204.70661926 148.41769409 203.56686401 146.10749817 C 202.46986389 143.96548462 201.49021912 141.87364197 200.75776672 139.84835815 C 200.19195557 137.89482117 199.79916382 136.27513123 199.45796204 134.82287598 C 199.28036499 133.67927551 199.22480774 133.04212952 199.62402344 132.83197021 C 200.50192261 133.14686584 201.93013000 133.40863037 203.79426575 133.57154846 C 206.03259277 133.80783081 208.54968262 134.18762207 211.34631348 134.49942017 C 214.33445740 134.73860168 217.38508606 135.03999329 220.43893433 135.40322876 C 223.57609558 135.79188538 226.50656128 136.28028870 229.28024292 137.04656982 C 231.80426025 138.07585144 234.15750122 139.34577942 236.31094360 140.64192200 C 238.25132751 142.02908325 239.88502502 143.49598694 241.45512390 145.07966614 C 242.87075806 146.78446960 244.16865540 148.42631531 245.36291504 150.03857422 C 246.39125061 151.75787354 247.26924133 153.57206726 248.05075073 155.33512878 C 248.93249512 157.06828308 249.68017578 158.73562622 250.36903381 160.35571289 C 250.95454407 161.95092773 251.49909973 163.46514893 252.10821533 164.81785583 C 252.80424500 165.99787903 253.68147278 166.89346313 239.14108276 166.33737183" stroke-width="2.00000000" fill="rgb(82, 172, 57)" opacity="1.0" stroke="rgb(2, 6, 0)" stroke-opacity="0.9347017" stroke-linecap="round" stroke-linejoin="round"/>
    <path d="M 257.91244507 181.48628235 C 257.74786377 183.72477722 257.51788330 185.88493347 257.28720093 188.06469727 C 257.03393555 190.16853333 256.76336670 192.05906677 256.56515503 193.83828735 C 256.34506226 195.35221863 256.15777588 196.39916992 255.89128113 197.08071899 C 255.56817627 197.21495056 255.32003784 196.83097839 255.21942139 195.89454651 C 255.23823547 194.41827393 255.25765991 192.52265930 255.21543884 190.26480103 C 255.25344849 187.70018005 255.37033081 184.80226135 255.49513245 181.70854187 C 255.56365967 178.50630188 255.80628967 175.10601807 256.17681885 171.68325806 C 256.44177246 168.23385620 256.63351440 164.66197205 256.67095947 161.15684509 C 256.55709839 157.65194702 256.39099121 154.17710876 256.16726685 150.87864685 C 255.73837280 147.63688660 255.22721863 144.54953003 254.67805481 141.61480713 C 254.52484131 138.85063171 254.14944458 136.33226013 253.67329407 134.13844299 C 253.47848511 132.30416870 253.30946350 130.82604980 253.36306763 129.79908752 C 253.86618042 129.46652222 254.57092285 129.46501160 255.54878235 129.65843201 C 256.79421997 129.66247559 258.19543457 129.64018250 259.56414795 129.71531677 C 260.81085205 130.05120850 261.79946899 130.46563721 262.41165161 131.20666504 C 262.59048462 132.52844238 262.53152466 134.30574036 262.51086426 136.32020569 C 262.57904053 138.64590454 262.29132080 141.19129944 261.75140381 143.94705200 C 261.56259155 146.99630737 261.50616455 150.00144958 261.47756958 153.15086365 C 261.11895752 156.26483154 260.64984131 159.64617920 260.38732910 162.93344116 C 259.88137817 166.21749878 259.31036377 169.39285278 257.91244507 181.48628235" stroke-width="2.00000000" fill="rgb(189, 139, 108)" opacity="1.0" stroke="rgb(35, 7, 7)" stroke-opacity="1.0" stroke-linecap="round" stroke-linejoin="round"/>
    <path d="M 259.46179199 201.08988953 C 257.20672607 201.06774902 254.95651245 201.01962280 252.73440552 200.96186829 C 250.62199402 200.78988647 248.60905457 200.58961487 246.74940491 200.24011230 C 245.00340271 199.86729431 243.55213928 199.55169678 242.28497314 199.16355896 C 241.33793640 198.84481812 240.72914124 198.48364258 240.55755615 198.18371582 C 240.78662109 197.97375488 241.41857910 197.87350464 242.51290894 197.91859436 C 243.88514709 198.00274658 245.65922546 198.17758179 247.76350403 198.24325562 C 250.04788208 198.25454712 252.65246582 198.21574402 255.47908020 198.20733643 C 258.41433716 198.18136597 261.60275269 198.06619263 264.92730713 197.87667847 C 268.26608276 197.57637024 271.72857666 197.06278992 275.27838135 196.76544189 C 278.87930298 196.53927612 282.45153809 196.30313110 259.46179199 201.08988953" stroke-width="1.32716107" fill="rgb(60, 7, 3)" opacity="1.0" stroke="rgb(98, 23, 22)" stroke-opacity="0.707835" stroke-linecap="round" stroke-linejoin="round"/>
  </g>
</svg>
