<?xml version="1.0" ?>
<svg xmlns="http://www.w3.org/2000/svg" version="1.1" width="512" height="512" viewBox="0 0 512 512">
  <defs/>
  <g>
    <path d="M 351.47586060 262.08660889 C 350.47244263 268.37756348 349.24713135 274.60705566 347.39923096 280.94763184 C 344.94982910 287.39440918 342.35440063 293.83572388 338.69097900 300.03359985 C 334.96850586 306.22067261 331.05368042 312.41448975 326.26519775 317.89941406 C 321.18969727 323.40484619 315.83758545 328.63626099 310.22360229 333.48168945 C 304.60409546 338.08840942 298.48168945 341.64816284 292.05905151 344.47576904 C 285.85736084 347.09088135 279.58050537 349.06640625 273.43756104 349.50439453 C 267.22219849 348.97332764 261.08447266 347.56838989 254.95216370 346.63653564 C 248.43673706 347.57754517 241.77677917 348.74798584 235.17442322 349.46182251 C 228.88912964 349.15917969 222.83694458 347.69909668 216.86286926 345.32669067 C 210.74768066 342.84835815 205.03952026 339.52075195 199.47338867 335.63305664 C 194.09492493 331.61700439 189.20240784 327.03381348 184.75914001 321.91638184 C 180.14448547 316.90542603 176.01467896 311.48501587 172.35205078 305.62521362 C 168.88851929 299.57443237 165.92517090 293.41473389 163.31588745 287.06472778 C 160.66853333 280.65890503 158.87469482 274.21862793 158.09039307 267.44961548 C 156.71168518 260.59399414 156.33953857 253.88079834 156.39042664 247.05026245 C 156.42532349 240.26901245 157.42953491 233.71800232 158.64231873 227.18545532 C 160.23893738 220.77255249 161.99163818 214.69013977 164.42036438 208.87118530 C 167.07707214 203.31604004 170.13145447 198.14572144 173.59095764 193.20426941 C 177.40916443 188.38571167 181.50132751 183.79856873 186.35289001 179.83264160 C 191.52653503 176.06723022 197.49748230 173.26217651 203.70594788 170.77517700 C 209.92697144 168.46942139 216.49696350 167.16554260 223.47181702 166.63400269 C 230.63235474 166.32829285 237.98461914 166.26794434 245.45320129 166.26420593 C 252.88342285 166.27975464 260.12133789 166.12345886 267.12942505 165.59985352 C 273.73416138 165.76788330 280.27087402 166.35601807 286.98278809 166.75717163 C 293.80575562 168.25645447 300.67407227 170.15711975 307.02319336 172.97319031 C 313.22930908 175.74531555 318.87167358 179.50111389 324.00726318 183.70875549 C 329.01623535 187.92814636 333.32830811 192.75267029 337.13885498 197.84733582 C 340.50653076 203.10968018 343.18841553 208.63645935 345.66302490 214.16903687 C 347.90396118 219.43344116 349.17242432 224.93324280 350.36227417 230.56431580 C 351.27923584 236.18774414 352.23950195 241.67010498 351.47586060 262.08660889" stroke-width="2.00000000" fill="rgb(229, 16, 3)" opacity="1.0" stroke="rgb(28, 0, 0)" stroke-opacity="0.9386436" stroke-linecap="round" stroke-linejoin="round"/>
    <path d="M 189.52780151 209.54553223 C 189.86894226 208.87995911 190.30677795 208.10621643 190.56236267 207.27784729 C 191.04612732 206.74534607 191.56015015 206.04431152 192.14497375 205.13635254 C 192.69313049 204.14501953 193.36293030 203.37225342 194.35893250 202.68833923 C 195.51486206 202.01493835 196.69372559 201.36421204 197.87950134 200.77622986 C 199.04956055 200.40011597 200.20075989 200.29713440 201.44131470 200.40274048 C 202.76231384 200.59640503 203.94892883 200.46310425 205.00344849 200.20706177 C 206.02258301 200.39176941 207.12541199 200.84324646 208.11404419 201.44665527 C 209.14965820 201.91542053 209.85195923 202.75358582 210.41067505 203.81480408 C 210.99374390 204.93614197 211.70407104 205.93052673 212.34385681 207.01525879 C 212.80119324 208.15850830 213.06150818 209.42776489 213.10212708 210.75157166 C 213.24337769 212.08494568 213.32032776 213.43685913 213.31765747 214.86174011 C 213.15591431 216.25817871 212.93542480 217.55067444 212.33106995 218.81127930 C 211.69033813 220.06997681 210.94667053 221.25338745 209.95481873 222.17572021 C 209.00648499 223.24603271 207.82723999 224.01426697 206.67820740 224.75299072 C 205.46963501 225.32568359 204.10873413 225.61036682 202.69696045 225.86109924 C 201.28215027 225.95529175 200.00469971 225.93653870 198.80665588 225.83193970 C 197.61268616 225.77897644 196.59063721 225.49116516 195.70890808 224.84263611 C 194.73089600 224.13237000 193.77032471 223.55497742 192.88098145 222.88841248 C 192.16596985 222.28569031 191.70237732 221.30235291 191.14791870 220.33778381 C 190.24166870 219.32737732 189.24121094 218.32559204 189.52780151 209.54553223" stroke-width="1.38887346" fill="rgb(249, 217, 213)" opacity="1.0" stroke="rgb(140, 82, 85)" stroke-opacity="0.41343614" stroke-linecap="round" stroke-linejoin="round"/>
    <path d="M 258.73425293 149.35404968 C 258.73648071 149.34794617 258.74163818 149.35464478 258.72988892 149.35253906 C 258.74530029 149.35395813 258.73611450 149.35925293 258.73785400 149.35057068 C 258.73294067 149.36347961 258.74606323 149.36164856 258.73715210 149.34559631 C 258.73742676 149.37290955 258.73892212 149.35853577 258.74230957 149.35382080 C 258.73712158 149.36972046 258.73623657 149.36027527 258.74600220 149.36598206 C 258.72976685 149.35896301 258.74652100 149.37080383 258.74664307 149.36216736 C 258.72882080 149.36630249 258.74816895 149.36550903 258.73950195 149.37065125 C 258.74069214 149.36241150 258.74731445 149.36135864 258.73266602 149.37931824 C 258.75094604 149.35362244 258.74133301 149.37332153 258.73889160 149.37181091 C 258.75131226 149.36053467 258.74002075 149.37594604 258.73425293 149.35404968" stroke-width="0.00000000" fill="rgb(255, 255, 223)" opacity="1.0" stroke="rgb(192, 243, 233)" stroke-opacity="1.0" stroke-linecap="round" stroke-linejoin="round"/>
    <path d="M 263.21853638 163.63198853 C 261.41210938 163.03536987 259.61358643 162.52954102 257.81164551 162.13226318 C 256.06369019 161.83589172 254.41473389 161.64088440 252.84841919 161.58618164 C 251.30195618 161.56147766 249.84457397 161.35398865 248.46929932 160.97038269 C 247.18081665 160.42869568 245.93466187 159.90435791 244.81278992 159.42842102 C 243.84237671 158.91853333 242.99601746 158.26489258 242.27569580 157.54393005 C 241.60906982 156.82513428 241.12574768 156.09265137 240.72798157 155.34617615 C 240.36842346 154.66683960 240.10693359 154.00393677 239.96482849 153.32258606 C 239.95196533 152.62974548 240.08311462 151.99517822 240.30664062 151.44882202 C 240.71127319 150.99247742 241.32237244 150.63858032 242.13067627 150.29948425 C 243.01594543 149.88777161 243.89578247 149.53874207 244.74722290 149.23770142 C 245.70103455 148.97785950 246.76812744 148.88493347 247.91445923 149.02528381 C 249.13421631 149.18705750 250.45336914 149.33154297 251.84117126 149.13877869 C 253.28732300 148.77348328 254.73262024 148.34130859 256.24334717 147.99851990 C 257.85626221 147.72492981 259.43630981 147.53262329 260.84921265 147.49819946 C 262.07281494 147.68617249 263.14318848 148.07778931 263.97268677 148.65925598 C 264.43270874 149.37716675 264.64208984 150.30557251 264.86239624 151.26919556 C 264.94134521 152.12774658 265.12979126 152.80574036 265.54489136 153.29174805 C 265.92425537 153.75778198 265.92562866 154.21788025 265.55520630 154.71798706 C 265.00296021 155.25593567 264.42004395 155.81962585 263.89224243 156.18794250 C 263.43765259 156.28384399 263.06149292 156.35249329 263.21853638 163.63198853" stroke-width="0.23129161" fill="rgb(231, 229, 226)" opacity="1.0" stroke="rgb(247, 243, 243)" stroke-opacity="0.4437483" stroke-linecap="round" stroke-linejoin="round"/>
    <path d="M 271.88479614 144.89379883 C 272.17892456 144.92445374 272.49227905 144.98931885 272.92507935 145.04316711 C 273.06332397 145.38508606 273.14950562 145.69596863 273.34008789 145.91828918 C 273.62466431 145.94108582 274.05456543 145.78665161 274.56588745 145.66787720 C 275.00732422 145.61146545 275.52151489 145.73994446 275.90408325 146.09423828 C 275.98406982 146.46397400 275.98388672 146.82160950 276.03042603 147.18455505 C 276.05441284 147.49423218 275.96484375 147.73548889 275.65502930 147.91033936 C 275.23559570 147.97950745 274.71328735 148.05795288 274.09170532 148.18209839 C 273.47415161 148.24534607 272.85885620 148.14091492 272.22003174 147.91868591 C 271.65277100 147.53562927 271.04071045 147.21578979 270.50094604 147.02307129 C 270.00183105 146.96366882 269.42886353 146.98034668 271.88479614 144.89379883" stroke-width="2.00000000" fill="rgb(255, 255, 255)" opacity="1.0" stroke="rgb(255, 255, 255)" stroke-opacity="0.0" stroke-linecap="round" stroke-linejoin="round"/>
    <path d="M 237.69680786 166.41300964 C 235.38365173 166.36196899 233.07217407 166.28501892 230.82876587 166.23168945 C 228.59568787 166.00407410 226.39482117 165.76614380 224.32165527 165.37704468 C 222.26945496 164.45887756 220.14663696 163.69239807 217.89117432 163.17771912 C 215.84983826 162.17539978 213.89184570 160.56532288 212.01560974 158.92112732 C 210.42375183 157.05262756 208.68959045 155.14405823 207.27870178 152.98265076 C 205.89570618 150.52308655 204.54895020 148.09362793 203.58435059 145.81169128 C 202.33905029 143.82954407 201.25381470 141.83676147 200.63867188 140.11253357 C 200.44369507 138.38223267 199.83738708 136.48756409 199.52267456 134.80500793 C 199.45697021 133.26997375 199.08164978 132.23934937 198.64796448 132.26896667 C 198.84129333 133.34289551 199.92193604 133.44255066 201.94473267 133.26046753 C 204.37431335 133.39541626 207.12065125 134.05836487 210.12086487 134.43055725 C 213.06567383 134.31892395 216.08950806 134.86531067 219.08050537 135.19860840 C 222.11361694 135.49162292 225.19667053 136.10758972 228.00370789 136.67129517 C 230.81874084 137.50071716 233.16000366 138.75660706 235.39056396 140.17616272 C 237.47959900 141.36027527 239.31611633 142.65757751 240.79981995 144.49563599 C 242.33621216 146.23027039 243.93605042 148.00325012 245.36073303 149.77416992 C 246.36430359 151.73463440 247.30641174 153.74972534 248.23135376 155.74057007 C 249.20367432 157.57357788 249.94960022 159.37826538 250.68222046 161.23789978 C 251.42672729 162.85990906 251.89862061 164.35914612 252.31637573 165.61366272 C 253.07559204 166.21688843 253.85760498 166.49687195 237.69680786 166.41300964" stroke-width="2.00000000" fill="rgb(81, 176, 57)" opacity="1.0" stroke="rgb(2, 7, 0)" stroke-opacity="0.93494594" stroke-linecap="round" stroke-linejoin="round"/>
    <path d="M 257.12246704 189.90634155 C 256.73001099 191.45828247 256.44207764 192.94665527 256.37268066 194.31954956 C 256.31604004 195.63932800 256.38858032 196.85342407 256.43875122 197.81454468 C 256.15103149 198.43043518 255.74865723 198.76510620 255.33906555 198.76316833 C 255.10165405 198.33963013 255.00450134 197.52098083 255.07980347 196.34828186 C 255.32206726 194.80308533 255.36053467 192.86724854 255.23165894 190.59323120 C 255.30084229 187.98762512 255.35151672 185.11535645 255.50201416 182.08601379 C 255.52569580 178.89399719 255.58570862 175.62690735 256.24002075 172.41278076 C 256.40560913 169.05451965 256.51181030 165.45591736 256.72146606 161.77033997 C 256.63153076 158.14863586 256.43969727 154.58378601 256.16845703 151.03228760 C 255.70068359 147.64881897 255.43034363 144.42472839 254.77409363 141.78302002 C 254.72125244 139.16712952 254.34266663 136.80886841 253.70654297 134.70372009 C 253.55403137 132.69918823 253.32325745 130.88891602 253.40182495 129.58190918 C 254.12574768 129.31080627 255.13244629 129.54402161 256.03146362 129.91476440 C 257.06826782 129.76853943 258.09539795 129.45837402 259.23022461 129.69897461 C 260.39459229 130.27963257 261.75598145 130.54461670 262.74237061 130.73054504 C 262.85247803 131.72880554 262.49993896 133.54663086 262.50210571 135.91416931 C 262.56036377 138.56520081 262.40609741 141.33018494 261.64361572 144.07255554 C 261.59228516 146.89544678 261.53555298 150.00236511 261.35943604 153.17565918 C 260.68350220 156.04083252 260.55932617 158.72583008 260.61767578 161.37423706 C 260.02981567 164.09671021 259.28933716 166.98355103 257.12246704 189.90634155" stroke-width="2.00000000" fill="rgb(189, 138, 106)" opacity="1.0" stroke="rgb(36, 9, 4)" stroke-opacity="1.0" stroke-linecap="round" stroke-linejoin="round"/>
    <path d="M 260.15121460 201.22831726 C 257.21981812 201.33406067 254.29710388 201.47895813 251.36553955 201.33103943 C 248.44869995 200.79829407 245.55404663 200.21289062 242.81457520 199.61628723 C 240.24549866 199.17239380 237.88919067 198.65429688 235.91412354 198.20185852 C 234.37840271 197.74627686 233.39910889 197.21287537 233.29397583 196.72534180 C 234.00364685 196.44453430 235.44259644 196.45744324 237.38801575 196.73979187 C 239.79005432 197.09909058 242.46122742 197.50915527 245.37368774 197.98390198 C 248.45275879 198.28738403 251.69659424 198.39096069 255.05526733 198.42381287 C 258.42590332 198.37368774 261.87387085 198.07579041 265.39154053 197.60224915 C 269.01773071 197.08984375 272.74386597 196.58934021 276.52957153 196.34136963 C 280.31399536 196.32327271 284.18942261 196.39089966 260.15121460 201.22831726" stroke-width="1.12820077" fill="rgb(66, 5, 3)" opacity="1.0" stroke="rgb(56, 30, 39)" stroke-opacity="0.43554178" stroke-linecap="round" stroke-linejoin="round"/>
  </g>
</svg>
