<?xml version="1.0" ?>
<svg xmlns="http://www.w3.org/2000/svg" version="1.1" width="512" height="512" viewBox="0 0 512 512">
  <defs/>
  <g>
    <path d="M 351.48800659 262.28387451 C 350.47253418 268.56164551 348.94964600 274.84558105 347.19711304 281.25393677 C 344.91677856 287.59893799 342.19137573 294.08688354 338.69122314 300.19543457 C 334.87530518 306.31549072 330.84161377 312.34768677 326.19726562 318.12451172 C 321.03393555 323.51553345 315.72033691 328.77990723 310.19302368 333.69168091 C 304.42535400 338.15719604 298.37551880 341.65853882 291.98733521 344.58200073 C 285.72384644 347.14807129 279.49331665 348.99496460 273.29370117 349.53787231 C 266.98999023 348.86434937 260.72738647 347.56185913 254.47059631 346.71044922 C 248.08094788 347.43948364 241.62669373 348.66888428 235.25930786 349.41873169 C 229.04171753 349.23220825 222.99685669 347.81811523 217.05276489 345.45401001 C 211.16177368 342.86596680 205.28102112 339.69479370 199.73600769 335.98709106 C 194.47450256 331.77075195 189.57124329 327.14801025 184.85101318 322.10873413 C 180.33575439 317.01242065 176.12036133 311.46371460 172.36614990 305.73513794 C 168.85217285 299.78817749 165.86723328 293.56433105 163.37771606 287.12628174 C 161.01533508 280.62805176 159.06892395 274.17816162 157.83016968 267.47579956 C 157.00619507 260.58276367 156.38978577 253.77783203 156.36660767 247.04588318 C 156.48428345 240.31933594 157.34536743 233.74839783 158.65937805 227.35314941 C 160.15441895 221.02215576 161.98927307 214.85641479 164.30310059 209.05036926 C 166.97903442 203.45492554 170.00332642 198.21937561 173.51480103 193.21948242 C 177.33561707 188.49186707 181.40708923 183.94055176 186.08172607 180.00761414 C 191.24909973 176.46211243 196.85960388 173.50405884 202.67500305 170.93127441 C 208.85108948 168.80950928 215.36840820 167.39776611 222.20141602 166.64361572 C 229.10490417 166.12078857 236.23397827 165.84078979 243.49938965 165.84614563 C 250.93167114 165.86341858 258.32809448 165.84536743 265.65136719 165.73574829 C 272.91284180 165.69467163 280.16961670 166.17620850 287.36184692 166.92153931 C 294.21261597 168.31886292 300.86972046 170.33570862 307.23739624 173.04603577 C 313.46420288 175.84790039 318.99453735 179.43884277 324.00924683 183.66392517 C 328.80410767 188.09628296 333.20919800 192.71882629 337.00946045 197.59567261 C 340.36791992 202.90577698 343.17059326 208.32246399 345.54394531 213.70285034 C 347.83666992 219.07182312 349.13806152 224.66810608 350.25723267 230.38690186 C 351.25854492 236.00901794 352.23632812 241.66801453 351.48800659 262.28387451" stroke-width="2.00000000" fill="rgb(229, 18, 5)" opacity="1.0" stroke="rgb(26, 0, 0)" stroke-opacity="0.9341687" stroke-linecap="round" stroke-linejoin="round"/>
    <path d="M 189.43923950 210.67184448 C 189.80662537 209.77261353 190.14888000 208.88513184 190.39392090 207.91674805 C 190.71510315 207.08975220 191.20565796 206.33056641 191.79171753 205.54077148 C 192.39437866 204.62782288 193.09986877 203.73146057 194.00178528 202.99411011 C 194.98591614 202.40036011 196.10905457 201.83576965 197.24348450 201.29287720 C 198.43852234 200.88818359 199.72853088 200.64653015 201.01457214 200.49160767 C 202.32084656 200.48825073 203.52478027 200.43974304 204.71228027 200.42260742 C 205.85209656 200.46934509 206.82687378 200.79370117 207.70158386 201.42965698 C 208.67071533 202.19247437 209.55427551 203.04519653 210.36640930 203.99725342 C 211.11303711 205.06427002 211.79669189 206.19020081 212.36437988 207.35585022 C 212.78504944 208.66241455 213.03706360 209.93936157 213.17489624 211.30885315 C 213.30104065 212.63923645 213.34014893 213.96186829 213.11022949 215.31288147 C 212.73834229 216.65475464 212.36810303 218.00486755 211.87928772 219.30541992 C 211.27098083 220.54025269 210.53945923 221.62728882 209.62281799 222.61276245 C 208.61157227 223.49287415 207.52040100 224.21241760 206.41450500 224.84886169 C 205.28968811 225.32542419 204.07571411 225.60671997 202.87559509 225.83425903 C 201.68759155 225.86534119 200.43728638 225.88415527 199.27575684 225.86238098 C 198.15362549 225.74177551 197.10890198 225.36428833 196.11444092 224.90417480 C 195.11898804 224.38288879 194.12635803 223.72193909 193.25108337 223.03244019 C 192.45401001 222.23977661 191.68038940 221.29888916 191.03689575 220.25578308 C 190.31048584 219.30541992 189.46479797 218.27708435 189.43923950 210.67184448" stroke-width="1.09272683" fill="rgb(250, 219, 215)" opacity="1.0" stroke="rgb(167, 119, 118)" stroke-opacity="0.5344708" stroke-linecap="round" stroke-linejoin="round"/>
    <path d="M 258.71984863 149.33930969 C 258.75802612 149.36193848 258.72424316 149.35046387 258.73364258 149.33955383 C 258.75201416 149.36921692 258.72622681 149.36030579 258.73904419 149.33848572 C 258.73095703 149.38212585 258.75814819 149.33497620 258.72595215 149.35494995 C 258.72851562 149.37832642 258.75057983 149.35339355 258.74331665 149.36477661 C 258.72277832 149.35060120 258.75225830 149.38191223 258.73672485 149.34552002 C 258.73638916 149.38520813 258.74853516 149.34834290 258.73114014 149.38160706 C 258.75076294 149.36813354 258.72988892 149.36024475 258.74783325 149.37748718 C 258.74578857 149.35198975 258.72293091 149.37640381 258.75820923 149.37722778 C 258.74679565 149.35127258 258.72039795 149.37690735 258.75326538 149.37145996 C 258.74215698 149.36199951 258.73739624 149.37391663 258.71984863 149.33930969" stroke-width="0.00000000" fill="rgb(255, 255, 223)" opacity="1.0" stroke="rgb(192, 243, 233)" stroke-opacity="1.0" stroke-linecap="round" stroke-linejoin="round"/>
    <path d="M 261.77502441 160.69500732 C 260.30505371 160.77273560 258.82412720 160.86824036 257.34048462 160.81098938 C 255.91644287 160.77465820 254.41786194 160.74206543 252.99328613 160.76426697 C 251.59403992 160.64207458 250.18981934 160.46841431 248.86987305 160.23251343 C 247.58149719 159.84696960 246.36959839 159.36149597 245.23345947 158.85664368 C 244.15100098 158.34338379 243.19573975 157.78738403 242.31089783 157.19061279 C 241.53323364 156.56114197 240.87051392 155.89834595 240.34085083 155.23823547 C 239.94671631 154.64657593 239.65823364 153.98754883 239.50907898 153.34463501 C 239.52571106 152.72058105 239.68176270 152.16200256 239.91854858 151.59820557 C 240.36622620 151.10382080 240.91078186 150.63163757 241.58120728 150.21987915 C 242.41479492 149.87335205 243.31436157 149.60501099 244.33670044 149.30058289 C 245.45841980 149.12239075 246.67243958 148.99711609 247.95849609 149.02325439 C 249.29714966 149.19084167 250.67918396 149.33489990 252.11436462 149.32936096 C 253.56642151 149.23815918 255.00386047 149.11022949 256.41366577 148.98225403 C 257.76367188 148.95018005 259.03796387 148.93431091 260.27001953 148.91264343 C 261.37646484 149.01702881 262.34344482 149.25317383 263.19317627 149.56265259 C 263.84869385 150.00248718 264.40118408 150.55895996 264.79357910 151.28901672 C 265.08953857 152.11602783 265.36318970 152.93081665 265.56814575 153.85690308 C 265.78128052 154.77665710 266.12145996 155.61616516 266.35110474 156.53852844 C 266.62451172 157.41477966 267.01062012 158.21214294 267.43750000 158.98114014 C 267.84384155 159.76426697 268.27862549 160.57511902 261.77502441 160.69500732" stroke-width="0.64865941" fill="rgb(232, 230, 229)" opacity="1.0" stroke="rgb(254, 255, 249)" stroke-opacity="0.3435552" stroke-linecap="round" stroke-linejoin="round"/>
    <path d="M 272.02163696 144.61505127 C 272.47463989 144.99687195 272.85958862 145.36407471 273.18936157 145.70222473 C 273.49807739 145.97311401 273.84457397 146.09971619 274.27868652 146.09353638 C 274.65682983 146.00000000 274.99780273 145.86534119 275.34762573 145.85638428 C 275.63973999 146.00112915 275.84106445 146.25885010 276.01684570 146.56182861 C 276.13504028 146.86408997 276.14328003 147.17596436 276.13549805 147.38557434 C 276.01644897 147.58975220 275.85916138 147.75006104 275.51907349 147.88528442 C 275.13806152 148.06689453 274.64215088 148.17207336 274.11111450 148.20161438 C 273.53695679 148.13117981 273.06359863 147.94728088 272.47924805 147.72085571 C 271.85769653 147.52970886 271.26412964 147.39726257 270.64300537 147.20791626 C 269.95443726 146.99223328 269.24185181 146.74755859 272.02163696 144.61505127" stroke-width="2.00000000" fill="rgb(255, 255, 255)" opacity="1.0" stroke="rgb(255, 255, 255)" stroke-opacity="0.0" stroke-linecap="round" stroke-linejoin="round"/>
    <path d="M 238.34506226 166.36741638 C 235.90382385 166.30720520 233.52874756 166.36897278 231.24604797 166.20878601 C 228.81480408 166.03469849 226.44302368 165.77029419 224.21263123 165.27333069 C 221.98271179 164.47767639 219.73649597 163.71249390 217.53865051 162.91304016 C 215.49617004 161.76249695 213.68731689 160.34971619 211.84858704 158.76095581 C 210.21528625 156.99662781 208.63398743 155.03282166 207.26628113 152.82507324 C 205.87515259 150.64360046 204.64782715 148.39651489 203.52937317 146.18446350 C 202.42124939 144.00201416 201.46777344 141.94017029 200.71308899 139.82618713 C 200.22770691 137.86981201 199.75944519 136.16606140 199.44047546 134.69578552 C 199.24757385 133.63777161 199.17082214 132.98309326 199.47856140 132.79942322 C 200.23748779 133.19177246 201.29655457 133.48008728 202.75846863 133.48678589 C 204.82348633 133.56881714 207.34425354 133.92611694 210.16148376 134.36161804 C 213.09001160 134.58340454 216.08030701 134.88078308 219.18569946 135.28248596 C 222.28024292 135.58303833 225.22323608 136.04933167 228.08119202 136.76094055 C 230.81013489 137.66134644 233.30662537 138.81457520 235.58268738 140.18891907 C 237.74037170 141.50141907 239.53828430 142.97561646 241.08587646 144.65089417 C 242.65850830 146.47010803 244.06930542 148.12187195 245.35855103 149.88037109 C 246.40512085 151.70904541 247.36936951 153.58169556 248.16233826 155.47630310 C 248.99229431 157.24470520 249.73408508 158.99755859 250.47349548 160.74861145 C 251.20196533 162.26974487 251.79481506 163.63664246 252.31211853 164.94332886 C 252.97235107 166.01678467 253.49391174 166.81538391 238.34506226 166.36741638" stroke-width="2.00000000" fill="rgb(81, 173, 55)" opacity="1.0" stroke="rgb(6, 9, 2)" stroke-opacity="0.9311193" stroke-linecap="round" stroke-linejoin="round"/>
    <path d="M 257.58383179 185.42959595 C 257.38195801 187.31169128 257.14599609 189.22883606 256.79541016 191.11499023 C 256.55743408 192.93693542 256.44973755 194.59126282 256.33432007 196.10552979 C 256.20983887 197.29393005 255.95260620 198.11476135 255.63996887 198.51190186 C 255.30546570 198.38467407 255.11701965 197.75360107 255.08782959 196.67774963 C 255.17846680 195.14184570 255.24778748 193.18002319 255.20126343 190.84651184 C 255.24205017 188.25465393 255.34725952 185.37800598 255.50073242 182.29113770 C 255.55426025 179.09457397 255.63087463 175.78288269 256.12924194 172.27400208 C 256.49737549 168.76405334 256.58688354 165.18815613 256.60104370 161.64128113 C 256.50375366 158.09513855 256.41040039 154.57505798 256.20007324 151.12413025 C 255.75180054 147.91091919 255.27993774 144.75140381 254.79425049 141.72612000 C 254.57568359 138.95239258 254.26615906 136.45756531 253.61421204 134.21806335 C 253.39204407 132.27079773 253.27305603 130.70642090 253.44012451 129.67098999 C 253.87165833 129.36114502 254.56446838 129.46286011 255.56719971 129.64855957 C 256.77569580 129.70420837 258.01217651 129.71797180 259.29788208 129.85699463 C 260.57189941 130.22856140 261.76974487 130.64662170 262.58029175 131.02987671 C 262.63363647 132.08422852 262.59307861 133.71710205 262.50833130 135.81330872 C 262.50521851 138.22923279 262.43154907 140.87934875 262.21752930 143.74246216 C 261.71566772 146.66419983 261.49713135 149.70542908 261.42059326 152.85011292 C 261.09378052 155.92520142 260.70562744 158.89100647 260.41894531 161.97279358 C 259.92880249 164.96282959 259.43447876 167.84806824 257.58383179 185.42959595" stroke-width="2.00000000" fill="rgb(190, 139, 107)" opacity="1.0" stroke="rgb(38, 11, 7)" stroke-opacity="1.0" stroke-linecap="round" stroke-linejoin="round"/>
    <path d="M 259.39514160 201.20286560 C 256.95538330 201.16416931 254.49769592 201.15722656 252.11206055 201.02949524 C 249.78713989 200.78247070 247.59989929 200.41531372 245.54466248 199.99432373 C 243.63844299 199.65310669 241.94914246 199.27497864 240.60205078 198.92320251 C 239.53433228 198.51635742 238.89372253 198.10940552 238.76210022 197.77511597 C 239.14920044 197.53979492 240.01278687 197.47596741 241.31365967 197.50614929 C 242.94752502 197.73483276 244.94148254 198.03034973 247.22111511 198.24694824 C 249.74504089 198.48292542 252.53358459 198.56394958 255.46878052 198.59490967 C 258.59490967 198.47073364 261.85159302 198.23928833 265.21716309 197.90908813 C 268.66256714 197.44569397 272.19238281 196.98298645 275.80151367 196.60229492 C 279.44717407 196.45719910 283.13070679 196.33229065 259.39514160 201.20286560" stroke-width="1.18327487" fill="rgb(61, 4, 4)" opacity="1.0" stroke="rgb(52, 23, 30)" stroke-opacity="0.5310699" stroke-linecap="round" stroke-linejoin="round"/>
  </g>
</svg>
