<?xml version="1.0" ?>
<svg xmlns="http://www.w3.org/2000/svg" version="1.1" width="512" height="512" viewBox="0 0 512 512">
  <defs/>
  <g>
    <path d="M 351.44851685 262.86566162 C 350.26651001 268.91955566 348.92990112 275.09603882 347.24847412 281.27700806 C 345.10845947 287.45858765 342.40679932 293.54238892 339.06985474 299.56402588 C 335.44039917 305.60739136 331.34313965 311.52383423 326.84228516 317.33297729 C 321.87188721 322.71142578 316.57977295 328.07531738 311.09912109 333.06640625 C 305.28283691 337.51947021 299.03894043 341.18701172 292.66589355 344.26083374 C 286.37976074 346.98980713 280.06564331 348.84509277 273.74911499 349.53222656 C 267.36633301 348.86633301 260.99063110 347.57058716 254.66667175 346.96841431 C 248.23509216 347.48226929 241.77568054 348.60299683 235.52151489 349.40383911 C 229.42475891 349.32284546 223.37773132 347.94100952 217.46612549 345.67733765 C 211.62739563 343.06179810 205.86692810 339.97360229 200.15896606 336.20309448 C 194.84846497 332.11846924 189.86746216 327.59133911 185.03207397 322.50665283 C 180.44306946 317.31015015 176.33468628 311.76419067 172.47683716 305.95565796 C 168.94061279 299.85522461 165.96612549 293.59280396 163.33816528 287.26287842 C 160.98255920 280.69937134 159.08348083 274.03738403 157.83499146 267.34512329 C 156.88136292 260.68179321 156.39260864 253.78370667 156.34524536 247.01992798 C 156.55178833 240.35157776 157.39079285 233.82041931 158.62133789 227.35264587 C 160.11441040 221.03930664 162.00880432 215.03778076 164.29811096 209.23350525 C 167.02380371 203.64645386 170.03289795 198.31684875 173.34849548 193.28764343 C 177.13916016 188.58709717 181.18826294 184.14239502 185.72929382 180.32212830 C 190.65109253 176.87158203 195.99092102 173.86763000 201.65902710 171.40214539 C 207.75161743 169.29568481 214.05799866 167.71334839 220.65357971 166.73785400 C 227.58663940 166.27845764 234.79574585 165.97302246 242.15396118 165.75399780 C 249.56523132 165.75024414 257.11215210 165.82742310 264.61587524 165.73506165 C 272.05194092 165.64869690 279.38549805 166.01774597 286.56793213 166.79739380 C 293.53155518 168.14822388 300.12939453 170.06915283 306.41442871 172.61122131 C 312.48074341 175.51397705 318.20208740 179.00772095 323.39141846 183.13655090 C 328.37234497 187.56323242 333.07714844 192.46194458 337.11682129 197.73748779 C 340.64587402 203.49555969 343.75088501 209.50769043 346.44161987 215.58087158 C 348.44427490 221.79888916 349.96289062 228.31752014 350.97219849 234.83149719 C 351.66748047 241.29238892 352.11465454 247.66688538 351.44851685 262.86566162" stroke-width="2.00000000" fill="rgb(232, 15, 1)" opacity="1.0" stroke="rgb(28, 0, 0)" stroke-opacity="0.9372766" stroke-linecap="round" stroke-linejoin="round"/>
    <path d="M 189.28608704 212.17800903 C 189.51051331 211.18380737 189.72702026 210.14511108 189.99449158 209.16644287 C 190.33676147 208.17536926 190.84747314 207.17192078 191.38792419 206.15438843 C 191.96200562 205.22822571 192.65689087 204.28807068 193.53367615 203.49626160 C 194.48475647 202.77589417 195.56671143 202.13978577 196.71115112 201.59765625 C 197.91633606 201.12295532 199.18988037 200.77157593 200.49766541 200.59474182 C 201.79925537 200.44949341 203.09030151 200.45251465 204.37178040 200.49069214 C 205.59210205 200.63745117 206.69746399 201.00906372 207.74057007 201.53109741 C 208.72448730 202.24848938 209.59527588 203.16654968 210.38543701 204.09739685 C 211.14663696 205.20756531 211.83358765 206.34524536 212.40675354 207.53770447 C 212.80976868 208.84265137 213.06512451 210.11773682 213.23912048 211.46528625 C 213.24542236 212.85162354 213.18722534 214.22651672 213.02102661 215.57618713 C 212.65344238 216.95066833 212.24644470 218.25581360 211.72856140 219.52795410 C 211.07730103 220.65846252 210.34307861 221.75439453 209.44584656 222.72491455 C 208.40257263 223.59947205 207.42005920 224.33308411 206.28878784 225.00273132 C 205.02748108 225.31439209 203.83558655 225.66383362 202.59812927 225.81962585 C 201.33709717 225.91041565 200.13208008 225.89440918 198.92994690 225.81655884 C 197.79010010 225.52436829 196.70590210 225.21539307 195.67951965 224.70141602 C 194.74276733 224.18705750 193.82000732 223.55831909 193.01419067 222.86175537 C 192.32188416 222.03782654 191.63323975 221.20045471 191.02069092 220.31388855 C 190.40940857 219.43505859 189.72645569 218.53413391 189.28608704 212.17800903" stroke-width="0.99276847" fill="rgb(250, 219, 215)" opacity="1.0" stroke="rgb(180, 137, 134)" stroke-opacity="0.5345517" stroke-linecap="round" stroke-linejoin="round"/>
    <path d="M 258.75811768 149.36434937 C 258.74282837 149.33784485 258.71325684 149.35542297 258.74035645 149.35830688 C 258.76034546 149.33833313 258.71585083 149.37414551 258.75622559 149.33644104 C 258.73645020 149.37097168 258.73001099 149.34187317 258.75769043 149.34613037 C 258.73086548 149.38685608 258.74032593 149.34371948 258.75079346 149.37289429 C 258.74539185 149.36148071 258.74588013 149.33760071 258.71826172 149.40077209 C 258.77554321 149.35646057 258.71932983 149.30975342 258.75787354 149.42491150 C 258.73291016 149.33277893 258.73532104 149.35821533 258.77291870 149.37419128 C 258.71832275 149.36647034 258.76528931 149.34266663 258.73556519 149.39700317 C 258.72494507 149.33265686 258.75161743 149.36573792 258.74331665 149.36915588 C 258.73016357 149.35313416 258.72830200 149.36972046 258.75811768 149.36434937" stroke-width="0.00000000" fill="rgb(255, 255, 223)" opacity="1.0" stroke="rgb(192, 243, 233)" stroke-opacity="1.0" stroke-linecap="round" stroke-linejoin="round"/>
    <path d="M 262.49584961 160.58534241 C 261.00164795 160.67678833 259.50018311 160.69354248 257.98425293 160.74250793 C 256.49050903 160.69058228 255.00431824 160.69374084 253.52017212 160.55592346 C 252.03492737 160.35969543 250.60295105 160.14340210 249.21875000 159.85299683 C 247.81495667 159.44712830 246.54382324 158.97465515 245.28219604 158.56427002 C 244.10780334 157.92752075 243.04425049 157.35742188 242.04782104 156.84005737 C 241.16468811 156.17868042 240.42912292 155.59687805 239.79826355 154.99595642 C 239.30348206 154.38894653 238.98959351 153.82435608 238.78189087 153.19824219 C 238.75854492 152.68875122 238.85205078 152.17962646 239.15531921 151.69294739 C 239.54728699 151.24281311 240.12147522 150.85748291 240.84811401 150.45039368 C 241.70063782 150.17933655 242.65451050 149.93084717 243.76240540 149.66583252 C 244.96534729 149.60989380 246.28637695 149.46795654 247.63050842 149.46527100 C 249.09193420 149.46716309 250.58299255 149.55865479 252.10853577 149.51898193 C 253.63031006 149.49943542 255.17356873 149.43724060 256.66589355 149.36201477 C 258.10955811 149.29264832 259.49392700 149.30203247 260.83728027 149.34275818 C 261.95437622 149.48429871 263.08016968 149.80371094 264.03015137 150.13424683 C 264.82180786 150.70083618 265.48242188 151.31610107 266.07015991 152.09085083 C 266.51220703 152.83758545 266.87136841 153.64567566 267.19393921 154.46359253 C 267.49349976 155.24880981 267.72982788 156.03662109 267.86691284 156.72982788 C 268.06860352 157.45475769 268.18753052 158.17797852 268.24856567 158.75233459 C 268.36090088 159.42747498 268.40438843 160.03489685 262.49584961 160.58534241" stroke-width="0.90537912" fill="rgb(237, 230, 227)" opacity="1.0" stroke="rgb(217, 220, 214)" stroke-opacity="0.2719604" stroke-linecap="round" stroke-linejoin="round"/>
    <path d="M 271.96191406 144.75834656 C 272.52563477 145.19638062 273.03936768 145.52688599 273.57247925 145.81080627 C 274.11309814 145.98678589 274.61358643 145.99781799 275.05908203 146.02011108 C 275.44848633 146.02700806 275.76739502 146.16311646 276.01638794 146.31631470 C 276.11306763 146.56109619 276.19680786 146.81950378 276.22384644 147.12843323 C 276.17028809 147.34414673 276.10906982 147.55163574 275.98117065 147.68316650 C 275.71090698 147.76219177 275.46688843 147.91456604 275.11608887 147.93774414 C 274.70233154 147.97615051 274.27664185 147.96502686 273.81567383 147.93415833 C 273.26785278 147.89369202 272.76641846 147.78953552 272.21694946 147.64053345 C 271.69403076 147.48266602 271.10891724 147.29743958 270.54632568 147.12879944 C 270.02813721 146.97984314 269.43344116 146.77514648 271.96191406 144.75834656" stroke-width="1.98112142" fill="rgb(255, 255, 255)" opacity="1.0" stroke="rgb(255, 255, 255)" stroke-opacity="0.0" stroke-linecap="round" stroke-linejoin="round"/>
    <path d="M 239.14772034 166.37593079 C 236.98194885 166.40216064 234.63082886 166.29592896 232.40992737 166.33937073 C 230.07273865 166.14006042 227.78889465 165.94515991 225.36520386 165.52772522 C 223.14468384 164.96997070 220.86831665 164.24752808 218.73200989 163.42668152 C 216.57507324 162.45738220 214.61376953 161.10618591 212.73994446 159.59936523 C 211.00761414 157.87428284 209.32406616 155.91824341 207.82395935 153.75729370 C 206.42646790 151.39784241 205.05178833 149.08747864 203.77067566 146.61488342 C 202.58126831 144.21348572 201.46470642 141.92553711 200.68171692 139.64356995 C 200.13662720 137.57557678 199.69485474 135.82945251 199.36233521 134.41865540 C 199.16909790 133.31663513 199.20014954 132.71269226 199.66911316 132.62030029 C 200.71226501 132.94709778 202.24877930 133.36643982 204.29579163 133.63264465 C 206.68013000 133.90647888 209.31738281 134.24913025 212.23674011 134.52897644 C 215.23403931 134.82081604 218.27589417 135.09672546 221.38223267 135.43923950 C 224.32640076 135.91052246 227.17845154 136.56025696 229.75942993 137.31744385 C 232.16957092 138.37242126 234.42813110 139.48324585 236.50041199 140.71363831 C 238.39572144 142.12950134 239.98956299 143.61195374 241.46441650 145.27764893 C 242.92285156 146.85882568 244.29501343 148.58004761 245.53126526 150.26196289 C 246.58110046 152.03569031 247.51449585 153.80546570 248.30558777 155.58761597 C 249.07173157 157.35800171 249.80697632 158.96795654 250.43296814 160.56965637 C 251.18623352 162.10467529 251.75346375 163.48213196 252.26972961 164.73748779 C 252.84858704 165.84669495 253.55114746 166.84478760 239.14772034 166.37593079" stroke-width="2.00000000" fill="rgb(82, 172, 55)" opacity="1.0" stroke="rgb(2, 7, 0)" stroke-opacity="0.93657434" stroke-linecap="round" stroke-linejoin="round"/>
    <path d="M 258.44531250 177.72100830 C 258.07455444 180.07759094 257.82604980 182.40788269 257.65979004 184.74911499 C 257.48413086 186.99903870 257.29650879 189.12184143 256.97052002 191.02806091 C 256.70938110 192.67953491 256.42416382 193.94781494 256.10784912 194.83366394 C 255.74449158 195.11032104 255.50994873 194.90524292 255.30102539 194.07113647 C 255.20834351 192.74632263 255.15528870 190.92272949 255.21591187 188.75619507 C 255.36721802 186.15606689 255.44535828 183.41119385 255.49259949 180.48265076 C 255.63426208 177.38394165 255.89189148 174.24128723 256.28717041 171.07997131 C 256.52569580 167.77796936 256.59744263 164.50405884 256.58026123 161.21017456 C 256.55929565 157.77908325 256.47564697 154.51686096 256.18917847 151.24911499 C 255.75189209 147.98818970 255.37718201 144.84877014 254.85566711 141.94046021 C 254.48071289 139.16590881 254.12405396 136.65101624 253.63534546 134.38931274 C 253.44499207 132.47531128 253.30436707 130.95783997 253.33770752 129.96377563 C 253.74391174 129.51004028 254.55189514 129.42794800 255.59410095 129.58978271 C 256.77456665 129.67185974 258.07400513 129.61663818 259.43762207 129.72569275 C 260.75476074 130.00978088 261.83917236 130.54014587 262.55261230 131.34101868 C 262.70587158 132.60774231 262.62661743 134.35906982 262.59741211 136.55007935 C 262.53665161 139.04740906 262.32955933 141.91348267 261.91156006 144.82208252 C 261.62210083 147.87660217 261.43948364 151.14514160 261.33560181 154.49273682 C 260.97409058 157.88012695 260.55978394 161.22328186 260.04586792 164.62951660 C 259.54626465 168.00674438 259.08804321 171.42770386 258.44531250 177.72100830" stroke-width="2.00000000" fill="rgb(188, 136, 105)" opacity="1.0" stroke="rgb(34, 8, 6)" stroke-opacity="1.0" stroke-linecap="round" stroke-linejoin="round"/>
    <path d="M 262.37881470 200.69905090 C 259.82543945 200.92367554 257.21481323 200.92735291 254.65928650 201.04557800 C 252.11370850 200.87501526 249.72465515 200.76254272 247.43820190 200.37019348 C 245.37326050 200.05787659 243.59764099 199.57653809 242.05221558 199.17648315 C 240.91783142 198.74247742 240.21487427 198.36714172 239.90472412 198.00064087 C 240.17225647 197.86627197 240.84367371 197.72097778 241.95700073 197.82562256 C 243.50169373 197.94374084 245.40977478 198.05754089 247.60755920 198.06851196 C 250.18243408 198.02153015 252.87690735 197.82836914 255.87554932 197.79414368 C 259.00048828 197.87539673 262.22021484 197.91293335 265.56222534 197.81346130 C 268.98303223 197.50559998 272.42221069 197.10806274 275.89370728 196.66070557 C 279.48049927 196.34216309 282.95526123 195.91604614 262.37881470 200.69905090" stroke-width="1.27658629" fill="rgb(64, 5, 7)" opacity="1.0" stroke="rgb(133, 19, 20)" stroke-opacity="0.92510366" stroke-linecap="round" stroke-linejoin="round"/>
  </g>
</svg>
