<?xml version="1.0" ?>
<svg xmlns="http://www.w3.org/2000/svg" version="1.1" width="512" height="512" viewBox="0 0 512 512">
  <defs/>
  <g>
    <path d="M 350.01165771 263.77951050 C 348.90979004 269.91824341 347.87622070 275.16293335 346.36334229 280.24481201 C 344.85046387 285.32672119 342.85827637 290.24584961 339.83923340 295.73339844 C 336.82015991 301.22094727 332.77416992 307.27697754 327.15371704 314.63265991 C 322.16537476 320.36782837 317.39422607 325.56646729 312.46670532 330.05126953 C 307.53918457 334.53607178 302.45532227 338.30700684 296.84155273 341.18682861 C 291.22781372 344.06665039 285.08416748 346.05532837 278.03707886 346.97558594 C 272.48388672 346.99621582 265.74343872 347.31726074 258.55810547 347.51501465 C 251.37274170 347.71276855 243.74246216 347.78717041 236.40959167 347.31457520 C 229.07673645 346.84194946 222.04129028 345.82226562 216.04557800 343.83181763 C 208.30943298 339.63421631 203.11401367 336.83117676 198.90539551 333.99124146 C 194.69677734 331.15130615 191.47496033 328.27447510 187.68603516 323.92932129 C 183.89710999 319.58416748 179.54107666 313.77069092 173.06401062 305.05740356 C 170.51507568 299.78613281 167.64193726 293.59188843 165.03556824 286.82644653 C 162.42919922 280.06103516 160.08958435 272.72445679 158.60772705 265.16854858 C 157.12585449 257.61264038 156.50173950 249.83740234 157.32632446 242.19468689 C 158.78855896 235.30343628 159.61834717 229.92488098 160.56819153 225.12062073 C 161.51803589 220.31636047 162.58795166 216.08639526 164.53044128 211.49235535 C 166.47293091 206.89830017 169.28796387 201.94015503 173.72808838 195.67953491 C 177.64778137 189.85339355 181.38656616 185.39688110 185.65948486 181.82369995 C 189.93238831 178.25051880 194.73941040 175.56063843 200.79556274 173.26777649 C 206.85173035 170.97491455 214.15701294 169.07907104 223.42646790 167.09390259 C 230.76483154 165.44978333 237.54373169 164.55322266 244.06959534 164.24652100 C 250.59545898 163.93981934 256.86831665 164.22296143 263.19461060 164.93827820 C 269.52090454 165.65357971 275.90063477 166.80104065 282.64025879 168.22294617 C 289.98553467 169.17864990 296.90237427 170.67935181 303.35858154 173.01522827 C 309.81478882 175.35110474 315.81036377 178.52217102 321.31317139 182.81857300 C 326.81597900 187.11499023 331.82601929 192.53674316 336.31109619 199.37399292 C 340.86117554 207.05400085 344.11611938 213.66500854 346.36178589 220.10140991 C 348.60745239 226.53781128 349.84384155 232.79960632 350.35687256 239.78115845 C 350.86987305 246.76272583 350.65951538 254.46405029 350.01165771 263.77951050" stroke-width="1.73425889" fill="rgb(232, 18, 3)" opacity="1.0" stroke="rgb(65, 0, 0)" stroke-opacity="1.0" stroke-linecap="round" stroke-linejoin="round"/>
    <path d="M 189.53698730 214.17979431 C 189.33787537 212.93301392 189.45668030 211.61120605 189.76147461 210.37551880 C 190.06625366 209.13983154 190.55703735 207.99026489 191.10189819 207.08793640 C 191.90872192 205.70852661 192.58784485 204.57678223 193.42520142 203.65754700 C 194.26255798 202.73831177 195.25814819 202.03158569 196.69784546 201.50224304 C 197.79563904 201.19346619 198.88394165 200.82702637 200.10058594 200.55726624 C 201.31724548 200.28750610 202.66224670 200.11441040 204.27345276 200.19233704 C 205.59182739 200.39520264 206.67091370 200.71963501 207.72094727 201.39994812 C 208.77098083 202.08026123 209.79196167 203.11645508 210.99415588 204.74288940 C 211.44552612 205.56855774 212.02580261 206.62393188 212.51210022 207.92498779 C 212.99839783 209.22602844 213.39073181 210.77275085 213.46621704 212.58110046 C 213.29194641 213.76594543 213.18107605 214.76217651 213.01092529 215.71051025 C 212.84078979 216.65884399 212.61137390 217.55928040 212.20002747 218.55255127 C 211.51725769 220.01660156 210.72331238 221.21777344 209.75126648 222.23977661 C 208.77923584 223.26177979 207.62908936 224.10461426 206.23393250 224.85198975 C 205.36068726 225.23034668 204.23115540 225.65963745 202.88317871 225.94000244 C 201.53518677 226.22038269 199.96875000 226.35185242 198.22172546 226.13455200 C 197.33203125 225.78778076 196.28953552 225.44189453 195.23873901 224.84692383 C 194.18794250 224.25193787 193.12886047 223.40785217 192.20602417 222.06468201 C 191.26901245 220.48521423 190.71868896 219.22161865 190.34416199 217.99908447 C 189.96963501 216.77655029 189.77087402 215.59506226 189.53698730 214.17979431" stroke-width="0.71246940" fill="rgb(249, 220, 218)" opacity="1.0" stroke="rgb(118, 132, 146)" stroke-opacity="1.0" stroke-linecap="round" stroke-linejoin="round"/>
    <path d="M 258.73873901 149.35610962 C 258.73880005 149.35479736 258.73883057 149.35464478 258.73873901 149.35313416 C 258.73880005 149.35198975 258.73861694 149.35119629 258.73931885 149.35044861 C 258.74014282 149.35110474 258.74035645 149.35194397 258.74078369 149.35282898 C 258.74114990 149.35392761 258.74145508 149.35452271 258.74139404 149.35580444 C 258.74139404 149.35714722 258.74145508 149.35786438 258.74124146 149.35861206 C 258.74090576 149.36048889 258.74093628 149.36012268 258.74081421 149.36129761 C 258.74081421 149.36245728 258.74093628 149.36357117 258.74011230 149.36392212 C 258.73919678 149.36405945 258.73892212 149.36328125 258.73849487 149.36210632 C 258.73822021 149.36088562 258.73846436 149.36019897 258.73855591 149.35928345 C 258.73880005 149.35848999 258.73880005 149.35729980 258.73873901 149.35610962" stroke-width="0.00000000" fill="rgb(255, 255, 223)" opacity="1.0" stroke="rgb(192, 243, 233)" stroke-opacity="1.0" stroke-linecap="round" stroke-linejoin="round"/>
    <path d="M 261.78976440 160.09805298 C 260.72570801 160.01956177 259.57186890 160.04365540 258.31570435 160.04908752 C 257.05953979 160.05450439 255.70108032 160.04127502 254.22781372 159.88813782 C 253.17147827 159.77185059 251.93446350 159.51319885 250.59146118 159.22387695 C 249.24845886 158.93453979 247.79948425 158.61454773 246.31922913 158.37556458 C 244.79803467 157.87852478 243.45336914 157.68536377 242.23892212 157.45150757 C 241.02447510 157.21765137 239.94024658 156.94308472 238.93989563 156.28323364 C 237.92706299 155.12069702 237.10905457 153.92045593 236.65310669 152.88423157 C 236.19717407 151.84802246 236.10327148 150.97583008 236.53866577 150.46939087 C 237.69622803 149.99938965 239.12945557 149.82548523 240.54783630 149.74595642 C 241.96623230 149.66644287 243.36978149 149.68130493 244.46795654 149.58883667 C 246.79580688 149.78744507 247.71597290 149.84048462 248.41622925 149.85691833 C 249.11650085 149.87336731 249.59687805 149.85321045 251.04519653 149.90545654 C 252.72691345 149.90138245 254.23892212 149.98901367 255.63867188 150.11343384 C 257.03842163 150.23783875 258.32589722 150.39903259 259.55856323 150.54206848 C 260.59069824 150.72877502 261.65606689 150.94587708 262.85641479 151.40252686 C 264.05679321 151.85917664 265.39221191 152.55535889 266.96447754 153.70022583 C 268.27328491 154.75378418 269.32492065 155.67504883 269.92474365 156.59136963 C 270.52459717 157.50770569 270.67263794 158.41909790 270.17428589 159.45292664 C 269.08947754 159.85046387 267.87844849 159.90649414 266.49609375 159.91575623 C 265.11373901 159.92503357 263.55999756 159.88754272 261.78976440 160.09805298" stroke-width="2.00000000" fill="rgb(245, 243, 234)" opacity="1.0" stroke="rgb(255, 255, 255)" stroke-opacity="1.0" stroke-linecap="round" stroke-linejoin="round"/>
    <path d="M 271.03930664 146.48507690 C 271.51809692 146.36219788 272.29693604 146.08372498 272.89599609 145.93191528 C 273.64990234 145.74900818 274.26864624 145.52999878 274.89584351 145.56404114 C 275.73056030 145.64553833 276.30746460 145.82949829 276.86947632 146.06788635 C 277.63375854 146.47853088 278.25137329 146.87695312 278.45254517 147.35998535 C 278.44284058 148.02981567 277.50054932 148.17018127 276.71594238 148.14881897 C 276.02301025 148.19808960 275.66223145 148.22554016 275.13958740 148.15948486 C 274.37899780 148.18009949 273.67901611 148.10906982 272.98504639 148.12449646 C 272.20150757 148.09550476 271.54739380 148.09413147 270.94351196 148.04127502 C 270.18432617 147.95960999 269.26614380 147.77441406 269.14462280 147.32189941 C 269.78115845 146.89303589 270.11587524 146.90243530 271.03930664 146.48507690" stroke-width="1.98784029" fill="rgb(255, 255, 255)" opacity="1.0" stroke="rgb(253, 255, 255)" stroke-opacity="1.0" stroke-linecap="round" stroke-linejoin="round"/>
    <path d="M 239.92297363 166.18988037 C 237.70559692 166.11810303 235.57397461 165.92794800 233.43084717 165.71046448 C 231.28773499 165.49298096 229.13311768 165.24819946 226.86978149 165.06713867 C 224.32640076 164.49984741 222.31869507 164.15844727 220.36878967 163.52297974 C 218.41888428 162.88751221 216.52677917 161.95800781 214.21461487 160.21447754 C 212.16603088 158.13024902 210.78732300 156.40567017 209.58418274 154.73281860 C 208.38102722 153.05998230 207.35343933 151.43887329 206.00708008 149.56163025 C 204.66479492 146.74752808 203.77314758 144.73710632 202.91271973 142.73474121 C 202.05227661 140.73239136 201.22306824 138.73808289 200.00563049 135.95623779 C 199.91006470 133.40441895 200.94975281 133.38484192 202.78616333 133.92318726 C 204.62255859 134.46153259 207.25569153 135.55778503 210.34701538 135.23762512 C 213.75796509 135.69076538 215.30659485 135.69744873 216.63143921 135.71327209 C 217.95626831 135.72911072 219.05732727 135.75408936 221.57313538 136.24378967 C 224.58328247 136.71939087 226.90443420 137.28877258 228.91473389 137.96707153 C 230.92501831 138.64535522 232.62445068 139.43255615 234.39115906 140.34379578 C 236.88288879 141.89205933 238.73908997 143.37992859 240.27020264 144.93820190 C 241.80130005 146.49649048 243.00732422 148.12515259 244.19865417 149.95500183 C 245.58148193 151.85884094 246.80874634 154.09725952 247.86651611 156.30876160 C 248.92428589 158.52027893 249.81256104 160.70489502 250.51739502 162.50115967 C 251.35055542 165.07290649 250.26651001 165.82928467 248.19189453 166.02561951 C 246.11727905 166.22195435 243.05209351 165.85826111 239.92297363 166.18988037" stroke-width="1.45006907" fill="rgb(84, 180, 58)" opacity="1.0" stroke="rgb(13, 26, 6)" stroke-opacity="1.0" stroke-linecap="round" stroke-linejoin="round"/>
    <path d="M 258.65435791 171.74087524 C 258.22924805 174.74664307 257.95706177 176.64985657 257.73120117 178.66645813 C 257.50531006 180.68304443 257.32571411 182.81304932 257.08578491 186.27236938 C 256.96997070 189.70083618 256.61846924 193.02716064 256.22894287 194.44841003 C 255.83940125 195.86964417 255.41184998 195.38577271 255.14396667 191.19381714 C 255.43406677 188.04078674 255.85714722 185.36761475 256.14505005 182.86273193 C 256.43295288 180.35784912 256.58569336 178.02124023 256.33505249 175.54130554 C 256.44348145 173.19766235 256.47451782 170.95285034 256.60488892 168.57279968 C 256.73529053 166.19274902 256.96502686 163.67745972 257.47085571 160.79286194 C 257.52023315 158.02151489 257.31088257 156.29785156 257.03628540 154.39826965 C 256.76165771 152.49868774 256.42175293 150.42315674 256.21005249 146.94805908 C 255.87953186 142.92922974 255.83299255 141.48941040 255.71443176 140.23875427 C 255.59588623 138.98809814 255.40530396 137.92658997 254.78671265 134.66436768 C 253.14363098 131.72590637 253.84472656 130.82589722 255.39215088 130.63772583 C 256.93957520 130.44955444 259.33328247 130.97320557 261.07543945 130.88209534 C 261.74902344 132.61680603 261.80432129 134.80093384 261.71475220 137.07701111 C 261.62518311 139.35308838 261.39074707 141.72109985 261.48483276 143.82357788 C 260.96499634 146.38150024 260.70007324 148.47782898 260.51086426 150.60855103 C 260.32165527 152.73927307 260.20812988 154.90438843 259.99114990 157.59991455 C 259.91827393 160.63681030 259.78198242 162.27590942 259.56494141 164.10385132 C 259.34790039 165.93179321 259.05014038 167.94859314 258.65435791 171.74087524" stroke-width="1.58382118" fill="rgb(221, 163, 124)" opacity="1.0" stroke="rgb(61, 27, 25)" stroke-opacity="1.0" stroke-linecap="round" stroke-linejoin="round"/>
    <path d="M 269.95098877 199.74481201 C 267.64257812 199.77119446 264.02075195 201.09580994 260.42651367 201.50830078 C 257.11972046 202.25328064 253.45034790 202.18894958 249.62066650 201.34837341 C 246.38128662 200.85717773 243.47731018 200.43888855 239.51452637 199.35691833 C 235.98699951 198.08157349 231.25256348 198.16287231 230.34242249 196.18653870 C 233.87461853 194.87963867 237.38877869 196.15007019 240.15959167 196.79983521 C 245.79914856 197.40727234 245.99597168 197.51411438 248.76904297 197.64643860 C 251.82209778 197.33944702 255.48625183 198.30737305 258.33853149 197.91038513 C 262.95657349 197.31053162 264.67184448 197.60142517 268.33328247 196.57601929 C 272.53713989 196.76991272 276.25003052 194.98098755 279.27233887 195.67034912 C 279.01501465 198.47222900 275.20324707 198.57717896 269.95098877 199.74481201" stroke-width="0.33264601" fill="rgb(82, 9, 6)" opacity="1.0" stroke="rgb(132, 35, 44)" stroke-opacity="1.0" stroke-linecap="round" stroke-linejoin="round"/>
  </g>
</svg>
