<svg xmlns="http://www.w3.org/2000/svg" viewBox="0 0 512 512" height="512.0px" width="512.0px">
<path id="" fill="rgb(232, 18, 3)" fill-opacity="1.0" stroke="rgb(65, 0, 0)" stroke-width="1.73425889" stroke-opacity="1.0" stroke-linecap="round" stroke-linejoin="round"  filling="0" d="M350.011658 263.779510 C348.909790 269.918243 347.876221 275.162933 346.363342 280.244812 C344.850464 285.326721 342.858276 290.245850 339.839233 295.733398 C336.820160 301.220947 332.774170 307.276978 327.153717 314.632660 C322.165375 320.367828 317.394226 325.566467 312.466705 330.051270 C307.539185 334.536072 302.455322 338.307007 296.841553 341.186829 C291.227814 344.066650 285.084167 346.055328 278.037079 346.975586 C272.483887 346.996216 265.743439 347.317261 258.558105 347.515015 C251.372742 347.712769 243.742462 347.787170 236.409592 347.314575 C229.076736 346.841949 222.041290 345.822266 216.045578 343.831818 C208.309433 339.634216 203.114014 336.831177 198.905396 333.991241 C194.696777 331.151306 191.474960 328.274475 187.686035 323.929321 C183.897110 319.584167 179.541077 313.770691 173.064011 305.057404 C170.515076 299.786133 167.641937 293.591888 165.035568 286.826447 C162.429199 280.061035 160.089584 272.724457 158.607727 265.168549 C157.125854 257.612640 156.501740 249.837402 157.326324 242.194687 C158.788559 235.303436 159.618347 229.924881 160.568192 225.120621 C161.518036 220.316360 162.587952 216.086395 164.530441 211.492355 C166.472931 206.898300 169.287964 201.940155 173.728088 195.679535 C177.647781 189.853394 181.386566 185.396881 185.659485 181.823700 C189.932388 178.250519 194.739410 175.560638 200.795563 173.267776 C206.851730 170.974915 214.157013 169.079071 223.426468 167.093903 C230.764832 165.449783 237.543732 164.553223 244.069595 164.246521 C250.595459 163.939819 256.868317 164.222961 263.194611 164.938278 C269.520905 165.653580 275.900635 166.801041 282.640259 168.222946 C289.985535 169.178650 296.902374 170.679352 303.358582 173.015228 C309.814789 175.351105 315.810364 178.522171 321.313171 182.818573 C326.815979 187.114990 331.826019 192.536743 336.311096 199.373993 C340.861176 207.054001 344.116119 213.665009 346.361786 220.101410 C348.607452 226.537811 349.843842 232.799606 350.356873 239.781158 C350.869873 246.762726 350.659515 254.464050 350.011658 263.779510"></path>
<path id="" fill="rgb(249, 220, 218)" fill-opacity="1.0" stroke="rgb(118, 132, 146)" stroke-width="0.7124694" stroke-opacity="1.0" stroke-linecap="round" stroke-linejoin="round"  filling="0" d="M189.536987 214.179794 C189.337875 212.933014 189.456680 211.611206 189.761475 210.375519 C190.066254 209.139832 190.557037 207.990265 191.101898 207.087936 C191.908722 205.708527 192.587845 204.576782 193.425201 203.657547 C194.262558 202.738312 195.258148 202.031586 196.697845 201.502243 C197.795639 201.193466 198.883942 200.827026 200.100586 200.557266 C201.317245 200.287506 202.662247 200.114410 204.273453 200.192337 C205.591827 200.395203 206.670914 200.719635 207.720947 201.399948 C208.770981 202.080261 209.791962 203.116455 210.994156 204.742889 C211.445526 205.568558 212.025803 206.623932 212.512100 207.924988 C212.998398 209.226028 213.390732 210.772751 213.466217 212.581100 C213.291946 213.765945 213.181076 214.762177 213.010925 215.710510 C212.840790 216.658844 212.611374 217.559280 212.200027 218.552551 C211.517258 220.016602 210.723312 221.217773 209.751266 222.239777 C208.779236 223.261780 207.629089 224.104614 206.233932 224.851990 C205.360687 225.230347 204.231155 225.659637 202.883179 225.940002 C201.535187 226.220383 199.968750 226.351852 198.221725 226.134552 C197.332031 225.787781 196.289536 225.441895 195.238739 224.846924 C194.187943 224.251938 193.128860 223.407852 192.206024 222.064682 C191.269012 220.485214 190.718689 219.221619 190.344162 217.999084 C189.969635 216.776550 189.770874 215.595062 189.536987 214.179794"></path>
<path id="" fill="rgb(255, 255, 223)" fill-opacity="1.0" stroke="rgb(192, 243, 233)" stroke-width="0.0" stroke-opacity="1.0" stroke-linecap="round" stroke-linejoin="round"  filling="0" d="M258.738739 149.356110 C258.738800 149.354797 258.738831 149.354645 258.738739 149.353134 C258.738800 149.351990 258.738617 149.351196 258.739319 149.350449 C258.740143 149.351105 258.740356 149.351944 258.740784 149.352829 C258.741150 149.353928 258.741455 149.354523 258.741394 149.355804 C258.741394 149.357147 258.741455 149.357864 258.741241 149.358612 C258.740906 149.360489 258.740936 149.360123 258.740814 149.361298 C258.740814 149.362457 258.740936 149.363571 258.740112 149.363922 C258.739197 149.364059 258.738922 149.363281 258.738495 149.362106 C258.738220 149.360886 258.738464 149.360199 258.738556 149.359283 C258.738800 149.358490 258.738800 149.357300 258.738739 149.356110"></path>
<path id="" fill="rgb(245, 243, 234)" fill-opacity="1.0" stroke="rgb(255, 255, 255)" stroke-width="2.0" stroke-opacity="1.0" stroke-linecap="round" stroke-linejoin="round"  filling="0" d="M261.789764 160.098053 C260.725708 160.019562 259.571869 160.043655 258.315704 160.049088 C257.059540 160.054504 255.701080 160.041275 254.227814 159.888138 C253.171478 159.771851 251.934464 159.513199 250.591461 159.223877 C249.248459 158.934540 247.799484 158.614548 246.319229 158.375565 C244.798035 157.878525 243.453369 157.685364 242.238922 157.451508 C241.024475 157.217651 239.940247 156.943085 238.939896 156.283234 C237.927063 155.120697 237.109055 153.920456 236.653107 152.884232 C236.197174 151.848022 236.103271 150.975830 236.538666 150.469391 C237.696228 149.999390 239.129456 149.825485 240.547836 149.745956 C241.966232 149.666443 243.369781 149.681305 244.467957 149.588837 C246.795807 149.787445 247.715973 149.840485 248.416229 149.856918 C249.116501 149.873367 249.596878 149.853210 251.045197 149.905457 C252.726913 149.901382 254.238922 149.989014 255.638672 150.113434 C257.038422 150.237839 258.325897 150.399033 259.558563 150.542068 C260.590698 150.728775 261.656067 150.945877 262.856415 151.402527 C264.056793 151.859177 265.392212 152.555359 266.964478 153.700226 C268.273285 154.753784 269.324921 155.675049 269.924744 156.591370 C270.524597 157.507706 270.672638 158.419098 270.174286 159.452927 C269.089478 159.850464 267.878448 159.906494 266.496094 159.915756 C265.113739 159.925034 263.559998 159.887543 261.789764 160.098053"></path>
<path id="" fill="rgb(255, 255, 255)" fill-opacity="1.0" stroke="rgb(253, 255, 255)" stroke-width="1.98784029" stroke-opacity="1.0" stroke-linecap="round" stroke-linejoin="round"  filling="0" d="M271.039307 146.485077 C271.518097 146.362198 272.296936 146.083725 272.895996 145.931915 C273.649902 145.749008 274.268646 145.529999 274.895844 145.564041 C275.730560 145.645538 276.307465 145.829498 276.869476 146.067886 C277.633759 146.478531 278.251373 146.876953 278.452545 147.359985 C278.442841 148.029816 277.500549 148.170181 276.715942 148.148819 C276.023010 148.198090 275.662231 148.225540 275.139587 148.159485 C274.378998 148.180099 273.679016 148.109070 272.985046 148.124496 C272.201508 148.095505 271.547394 148.094131 270.943512 148.041275 C270.184326 147.959610 269.266144 147.774414 269.144623 147.321899 C269.781158 146.893036 270.115875 146.902435 271.039307 146.485077"></path>
<path id="" fill="rgb(84, 180, 58)" fill-opacity="1.0" stroke="rgb(13, 26, 6)" stroke-width="1.45006907" stroke-opacity="1.0" stroke-linecap="round" stroke-linejoin="round"  filling="0" d="M239.922974 166.189880 C237.705597 166.118103 235.573975 165.927948 233.430847 165.710464 C231.287735 165.492981 229.133118 165.248199 226.869781 165.067139 C224.326401 164.499847 222.318695 164.158447 220.368790 163.522980 C218.418884 162.887512 216.526779 161.958008 214.214615 160.214478 C212.166031 158.130249 210.787323 156.405670 209.584183 154.732819 C208.381027 153.059982 207.353439 151.438873 206.007080 149.561630 C204.664795 146.747528 203.773148 144.737106 202.912720 142.734741 C202.052277 140.732391 201.223068 138.738083 200.005630 135.956238 C199.910065 133.404419 200.949753 133.384842 202.786163 133.923187 C204.622559 134.461533 207.255692 135.557785 210.347015 135.237625 C213.757965 135.690765 215.306595 135.697449 216.631439 135.713272 C217.956268 135.729111 219.057327 135.754089 221.573135 136.243790 C224.583282 136.719391 226.904434 137.288773 228.914734 137.967072 C230.925018 138.645355 232.624451 139.432556 234.391159 140.343796 C236.882889 141.892059 238.739090 143.379929 240.270203 144.938202 C241.801300 146.496490 243.007324 148.125153 244.198654 149.955002 C245.581482 151.858841 246.808746 154.097260 247.866516 156.308762 C248.924286 158.520279 249.812561 160.704895 250.517395 162.501160 C251.350555 165.072906 250.266510 165.829285 248.191895 166.025620 C246.117279 166.221954 243.052094 165.858261 239.922974 166.189880"></path>
<path id="" fill="rgb(221, 163, 124)" fill-opacity="1.0" stroke="rgb(61, 27, 25)" stroke-width="1.58382118" stroke-opacity="1.0" stroke-linecap="round" stroke-linejoin="round"  filling="0" d="M258.654358 171.740875 C258.229248 174.746643 257.957062 176.649857 257.731201 178.666458 C257.505310 180.683044 257.325714 182.813049 257.085785 186.272369 C256.969971 189.700836 256.618469 193.027161 256.228943 194.448410 C255.839401 195.869644 255.411850 195.385773 255.143967 191.193817 C255.434067 188.040787 255.857147 185.367615 256.145050 182.862732 C256.432953 180.357849 256.585693 178.021240 256.335052 175.541306 C256.443481 173.197662 256.474518 170.952850 256.604889 168.572800 C256.735291 166.192749 256.965027 163.677460 257.470856 160.792862 C257.520233 158.021515 257.310883 156.297852 257.036285 154.398270 C256.761658 152.498688 256.421753 150.423157 256.210052 146.948059 C255.879532 142.929230 255.832993 141.489410 255.714432 140.238754 C255.595886 138.988098 255.405304 137.926590 254.786713 134.664368 C253.143631 131.725906 253.844727 130.825897 255.392151 130.637726 C256.939575 130.449554 259.333282 130.973206 261.075439 130.882095 C261.749023 132.616806 261.804321 134.800934 261.714752 137.077011 C261.625183 139.353088 261.390747 141.721100 261.484833 143.823578 C260.964996 146.381500 260.700073 148.477829 260.510864 150.608551 C260.321655 152.739273 260.208130 154.904388 259.991150 157.599915 C259.918274 160.636810 259.781982 162.275909 259.564941 164.103851 C259.347900 165.931793 259.050140 167.948593 258.654358 171.740875"></path>
<path id="" fill="rgb(82, 9, 6)" fill-opacity="1.0" stroke="rgb(132, 35, 44)" stroke-width="0.33264601" stroke-opacity="1.0" stroke-linecap="round" stroke-linejoin="round"  filling="0" d="M269.950989 199.744812 C267.642578 199.771194 264.020752 201.095810 260.426514 201.508301 C257.119720 202.253281 253.450348 202.188950 249.620667 201.348373 C246.381287 200.857178 243.477310 200.438889 239.514526 199.356918 C235.987000 198.081573 231.252563 198.162872 230.342422 196.186539 C233.874619 194.879639 237.388779 196.150070 240.159592 196.799835 C245.799149 197.407272 245.995972 197.514114 248.769043 197.646439 C251.822098 197.339447 255.486252 198.307373 258.338531 197.910385 C262.956573 197.310532 264.671844 197.601425 268.333282 196.576019 C272.537140 196.769913 276.250031 194.980988 279.272339 195.670349 C279.015015 198.472229 275.203247 198.577179 269.950989 199.744812"></path>
</svg>