<svg xmlns="http://www.w3.org/2000/svg" viewBox="0 0 256 256" height="256.0px" width="256.0px">
<path id="" fill="#f4f4f4" fill-opacity="1.0" stroke="#000000" stroke-width="0.0" stroke-opacity="1.0" stroke-linecap="round" stroke-linejoin="round"  filling="0" d="M0.000 0.000 C85.333 0.000 170.667 0.000 256.000 0.000 C256.000 85.333 256.000 170.667 256.000 256.000 C170.667 256.000 85.333 256.000 0.000 256.000 C0.000 170.667 0.000 85.333 0.000 0.000"></path>
<path id="" fill="#333333" fill-opacity="1.0" stroke="#000000" stroke-width="0.0" stroke-opacity="1.0" stroke-linecap="round" stroke-linejoin="round"  filling="0" d="M76.000 94.500 C110.667 94.500 145.333 94.500 180.000 94.500 C183.728 94.500 186.910 95.818 189.546 98.454 C192.182 101.090 193.500 104.272 193.500 108.000 C193.500 126.667 193.500 145.333 193.500 164.000 C193.500 167.728 192.182 170.910 189.546 173.546 C186.910 176.182 183.728 177.500 180.000 177.500 C145.333 177.500 110.667 177.500 76.000 177.500 C72.272 177.500 69.090 176.182 66.454 173.546 C63.818 170.910 62.500 167.728 62.500 164.000 C62.500 145.333 62.500 126.667 62.500 108.000 C62.500 104.272 63.818 101.090 66.454 98.454 C69.090 95.818 72.272 94.500 76.000 94.500"></path>
<path id="" fill="#333333" fill-opacity="1.0" stroke="#000000" stroke-width="0.0" stroke-opacity="1.0" stroke-linecap="round" stroke-linejoin="round"  filling="0" d="M76.000 97.500 C73.101 97.500 70.626 98.525 68.575 100.575 C66.525 102.626 65.500 105.101 65.500 108.000 C65.500 126.667 65.500 145.333 65.500 164.000 C65.500 166.899 66.525 169.374 68.575 171.425 C70.626 173.475 73.101 174.500 76.000 174.500 C110.667 174.500 145.333 174.500 180.000 174.500 C182.899 174.500 185.374 173.475 187.425 171.425 C189.475 169.374 190.500 166.899 190.500 164.000 C190.500 145.333 190.500 126.667 190.500 108.000 C190.500 105.101 189.475 102.626 187.425 100.575 C185.374 98.525 182.899 97.500 180.000 97.500 C145.333 97.500 110.667 97.500 76.000 97.500"></path>
<path id="" fill="#8b5a2b" fill-opacity="1.0" stroke="#000000" stroke-width="0.0" stroke-opacity="1.0" stroke-linecap="round" stroke-linejoin="round"  filling="0" d="M78.000 104.000 C111.333 104.000 144.667 104.000 178.000 104.000 C179.591 104.000 181.118 104.633 182.243 105.757 C183.367 106.882 184.000 108.409 184.000 110.000 C184.000 112.667 184.000 115.333 184.000 118.000 C184.000 119.591 183.367 121.118 182.243 122.243 C181.118 123.367 179.591 124.000 178.000 124.000 C144.667 124.000 111.333 124.000 78.000 124.000 C76.409 124.000 74.882 123.367 73.757 122.243 C72.633 121.118 72.000 119.591 72.000 118.000 C72.000 115.333 72.000 112.667 72.000 110.000 C72.000 108.409 72.633 106.882 73.757 105.757 C74.882 104.633 76.409 104.000 78.000 104.000"></path>
<path id="" fill="#333333" fill-opacity="1.0" stroke="#000000" stroke-width="0.0" stroke-opacity="1.0" stroke-linecap="round" stroke-linejoin="round"  filling="0" d="M192.000 106.500 C197.353 106.500 201.555 109.702 204.604 116.105 C207.201 121.559 208.500 128.191 208.500 136.000 C208.500 143.809 207.201 150.441 204.604 155.895 C201.555 162.298 197.354 165.500 192.000 165.500 C189.305 165.500 187.130 164.879 185.475 163.637 C183.825 162.400 183.000 160.854 183.000 159.000 C183.000 157.146 183.825 155.600 185.475 154.363 C187.130 153.121 189.305 152.500 192.000 152.500 C193.142 152.500 194.163 150.983 195.062 147.949 C196.021 144.713 196.500 140.730 196.500 136.000 C196.500 131.270 196.021 127.287 195.062 124.051 C194.163 121.017 193.142 119.500 192.000 119.500 C189.305 119.500 187.130 118.879 185.475 117.637 C183.825 116.400 183.000 114.854 183.000 113.000 C183.000 111.146 183.825 109.600 185.475 108.363 C187.130 107.121 189.305 106.500 192.000 106.500"></path>
<path id="" fill="#333333" fill-opacity="1.0" stroke="#000000" stroke-width="0.0" stroke-opacity="1.0" stroke-linecap="round" stroke-linejoin="round"  filling="0" d="M192.000 109.500 C188.000 109.500 186.000 110.667 186.000 113.000 C186.000 115.333 188.000 116.500 192.000 116.500 C194.635 116.500 196.615 118.733 197.938 123.199 C198.979 126.713 199.500 130.980 199.500 136.000 C199.500 141.020 198.979 145.287 197.938 148.801 C196.615 153.267 194.635 155.500 192.000 155.500 C188.000 155.500 186.000 156.667 186.000 159.000 C186.000 161.333 188.000 162.500 192.000 162.500 C196.091 162.500 199.389 159.868 201.896 154.605 C204.299 149.559 205.500 143.357 205.500 136.000 C205.500 128.643 204.299 122.441 201.896 117.395 C199.389 112.132 196.091 109.500 192.000 109.500"></path>
<path id="" fill="#333333" fill-opacity="1.0" stroke="#000000" stroke-width="0.0" stroke-opacity="1.0" stroke-linecap="round" stroke-linejoin="round"  filling="0" d="M94.752 84.832 C92.777 81.869 91.946 78.753 92.257 75.483 C92.437 73.590 93.220 70.910 94.607 67.443 C95.887 64.243 96.604 61.840 96.757 60.233 C97.001 57.670 96.333 55.203 94.752 52.832 C94.197 52.000 94.336 51.307 95.168 50.752 C95.584 50.475 95.965 50.371 96.312 50.440 C96.659 50.509 96.971 50.752 97.248 51.168 C99.223 54.131 100.054 57.247 99.743 60.517 C99.563 62.410 98.780 65.090 97.393 68.557 C96.113 71.757 95.396 74.160 95.243 75.767 C94.999 78.330 95.667 80.797 97.248 83.168 C97.803 84.000 97.664 84.693 96.832 85.248 C96.000 85.803 95.307 85.664 94.752 84.832"></path>
<path id="" fill="#333333" fill-opacity="1.0" stroke="#000000" stroke-width="0.0" stroke-opacity="1.0" stroke-linecap="round" stroke-linejoin="round"  filling="0" d="M126.698 84.744 C124.765 81.363 123.951 77.885 124.255 74.310 C124.433 72.220 125.211 69.279 126.590 65.487 C127.878 61.945 128.600 59.261 128.755 57.435 C129.006 54.482 128.321 51.585 126.698 48.744 C126.450 48.310 126.372 47.922 126.465 47.581 C126.558 47.240 126.822 46.946 127.256 46.698 C128.124 46.201 128.806 46.387 129.302 47.256 C131.235 50.637 132.049 54.115 131.745 57.690 C131.567 59.781 130.789 62.722 129.410 66.513 C128.122 70.054 127.400 72.738 127.245 74.565 C126.994 77.518 127.679 80.415 129.302 83.256 C129.799 84.124 129.613 84.806 128.744 85.302 C128.310 85.550 127.922 85.628 127.581 85.535 C127.240 85.442 126.946 85.178 126.698 84.744"></path>
<path id="" fill="#333333" fill-opacity="1.0" stroke="#000000" stroke-width="0.0" stroke-opacity="1.0" stroke-linecap="round" stroke-linejoin="round"  filling="0" d="M158.752 84.832 C156.777 81.869 155.946 78.753 156.257 75.483 C156.437 73.590 157.220 70.910 158.607 67.443 C159.887 64.243 160.604 61.840 160.757 60.233 C161.001 57.670 160.333 55.203 158.752 52.832 C158.197 52.000 158.336 51.307 159.168 50.752 C159.584 50.475 159.965 50.371 160.312 50.440 C160.659 50.509 160.971 50.752 161.248 51.168 C163.223 54.131 164.054 57.247 163.743 60.517 C163.563 62.410 162.780 65.090 161.393 68.557 C160.113 71.757 159.396 74.160 159.243 75.767 C158.999 78.330 159.667 80.797 161.248 83.168 C161.803 84.000 161.664 84.693 160.832 85.248 C160.000 85.803 159.307 85.664 158.752 84.832"></path>
<path id="" fill="#333333" fill-opacity="1.0" stroke="#000000" stroke-width="0.0" stroke-opacity="1.0" stroke-linecap="round" stroke-linejoin="round"  filling="0" d="M56.000 178.500 C104.000 178.500 152.000 178.500 200.000 178.500 C201.000 178.500 201.500 179.000 201.500 180.000 C201.500 181.000 201.000 181.500 200.000 181.500 C152.000 181.500 104.000 181.500 56.000 181.500 C55.000 181.500 54.500 181.000 54.500 180.000 C54.500 179.000 55.000 178.500 56.000 178.500"></path>
<path id="" fill="#030303" fill-opacity="1.0" stroke="#000000" stroke-width="0.0" stroke-opacity="1.0" stroke-linecap="round" stroke-linejoin="round"  filling="0" d="M88.500 182.000 C88.000 182.500 87.500 183.000 87.000 183.500 C84.667 183.500 82.333 183.500 80.000 183.500 C79.667 183.833 79.333 184.167 79.000 184.500 C75.000 184.500 71.000 184.500 67.000 184.500 C66.667 184.833 66.333 185.167 66.000 185.500 C65.000 185.500 64.000 185.500 63.000 185.500 C62.833 185.667 62.667 185.833 62.500 186.000 C62.500 186.333 62.500 186.667 62.500 187.000 C62.167 187.333 61.833 187.667 61.500 188.000 C61.500 189.333 61.500 190.667 61.500 192.000 C61.000 192.500 60.500 193.000 60.000 193.500 C59.333 193.500 58.667 193.500 58.000 193.500 C54.500 190.000 51.000 186.500 47.500 183.000 C47.500 182.667 47.500 182.333 47.500 182.000 C46.000 180.500 44.500 179.000 43.000 177.500 C42.333 177.500 41.667 177.500 41.000 177.500 C40.667 177.167 40.333 176.833 40.000 176.500 C39.667 176.500 39.333 176.500 39.000 176.500 C38.667 176.167 38.333 175.833 38.000 175.500 C37.333 175.500 36.667 175.500 36.000 175.500 C35.000 174.833 34.000 174.167 33.000 173.500 C31.667 173.500 30.333 173.500 29.000 173.500 C28.833 173.333 28.667 173.167 28.500 173.000 C28.667 172.833 28.833 172.667 29.000 172.500 C29.667 172.500 30.333 172.500 31.000 172.500 C31.333 172.167 31.667 171.833 32.000 171.500 C33.000 171.500 34.000 171.500 35.000 171.500 C35.333 171.167 35.667 170.833 36.000 170.500 C36.333 170.500 36.667 170.500 37.000 170.500 C37.333 170.167 37.667 169.833 38.000 169.500 C38.333 169.500 38.667 169.500 39.000 169.500 C39.667 168.833 40.333 168.167 41.000 167.500 C41.333 167.500 41.667 167.500 42.000 167.500 C42.667 166.833 43.333 166.167 44.000 165.500 C45.667 165.500 47.333 165.500 49.000 165.500 C49.667 166.167 50.333 166.833 51.000 167.500 C51.667 167.500 52.333 167.500 53.000 167.500 C53.333 167.833 53.667 168.167 54.000 168.500 C54.333 168.500 54.667 168.500 55.000 168.500 C55.667 169.167 56.333 169.833 57.000 170.500 C57.333 170.500 57.667 170.500 58.000 170.500 C58.667 171.167 59.333 171.833 60.000 172.500 C60.333 172.500 60.667 172.500 61.000 172.500 C61.333 172.833 61.667 173.167 62.000 173.500 C65.333 173.500 68.667 173.500 72.000 173.500 C72.333 173.167 72.667 172.833 73.000 172.500 C73.333 172.500 73.667 172.500 74.000 172.500 C74.667 173.167 75.333 173.833 76.000 174.500 C76.333 174.500 76.667 174.500 77.000 174.500 C77.333 174.833 77.667 175.167 78.000 175.500 C78.667 175.500 79.333 175.500 80.000 175.500 C80.667 176.167 81.333 176.833 82.000 177.500 C82.333 177.500 82.667 177.500 83.000 177.500 C83.333 177.833 83.667 178.167 84.000 178.500 C84.667 178.500 85.333 178.500 86.000 178.500 C86.333 178.833 86.667 179.167 87.000 179.500 C87.333 179.500 87.667 179.500 88.000 179.500 C88.167 179.667 88.333 179.833 88.500 180.000 C88.500 180.667 88.500 181.333 88.500 182.000"></path>
<path id="" fill="#11070a" fill-opacity="1.0" stroke="#000000" stroke-width="0.0" stroke-opacity="1.0" stroke-linecap="round" stroke-linejoin="round"  filling="0" d="M132.000 92.500 C128.667 92.500 125.333 92.500 122.000 92.500 C121.833 92.333 121.667 92.167 121.500 92.000 C121.500 91.333 121.500 90.667 121.500 90.000 C121.833 89.667 122.167 89.333 122.500 89.000 C122.500 88.667 122.500 88.333 122.500 88.000 C122.833 87.667 123.167 87.333 123.500 87.000 C123.500 84.333 123.500 81.667 123.500 79.000 C123.833 78.667 124.167 78.333 124.500 78.000 C124.500 77.000 124.500 76.000 124.500 75.000 C124.833 74.667 125.167 74.333 125.500 74.000 C125.500 73.667 125.500 73.333 125.500 73.000 C125.833 72.667 126.167 72.333 126.500 72.000 C126.500 71.667 126.500 71.333 126.500 71.000 C126.833 70.667 127.167 70.333 127.500 70.000 C127.500 69.667 127.500 69.333 127.500 69.000 C128.167 68.333 128.833 67.667 129.500 67.000 C129.500 66.000 129.500 65.000 129.500 64.000 C129.167 63.667 128.833 63.333 128.500 63.000 C128.500 62.000 128.500 61.000 128.500 60.000 C128.167 59.667 127.833 59.333 127.500 59.000 C127.500 58.333 127.500 57.667 127.500 57.000 C127.167 56.667 126.833 56.333 126.500 56.000 C126.500 55.333 126.500 54.667 126.500 54.000 C126.167 53.667 125.833 53.333 125.500 53.000 C125.500 52.000 125.500 51.000 125.500 50.000 C125.167 49.667 124.833 49.333 124.500 49.000 C124.500 46.000 124.500 43.000 124.500 40.000 C125.000 39.500 125.500 39.000 126.000 38.500 C126.167 38.667 126.333 38.833 126.500 39.000 C126.500 40.000 126.500 41.000 126.500 42.000 C126.833 42.333 127.167 42.667 127.500 43.000 C127.500 44.000 127.500 45.000 127.500 46.000 C127.833 46.333 128.167 46.667 128.500 47.000 C128.500 47.333 128.500 47.667 128.500 48.000 C128.833 48.333 129.167 48.667 129.500 49.000 C129.500 49.333 129.500 49.667 129.500 50.000 C129.833 50.333 130.167 50.667 130.500 51.000 C130.500 51.333 130.500 51.667 130.500 52.000 C130.833 52.333 131.167 52.667 131.500 53.000 C131.500 53.333 131.500 53.667 131.500 54.000 C131.833 54.333 132.167 54.667 132.500 55.000 C132.500 55.333 132.500 55.667 132.500 56.000 C133.167 56.667 133.833 57.333 134.500 58.000 C134.500 58.333 134.500 58.667 134.500 59.000 C134.833 59.333 135.167 59.667 135.500 60.000 C135.500 60.333 135.500 60.667 135.500 61.000 C135.833 61.333 136.167 61.667 136.500 62.000 C136.500 62.333 136.500 62.667 136.500 63.000 C136.833 63.333 137.167 63.667 137.500 64.000 C137.500 65.333 137.500 66.667 137.500 68.000 C136.667 68.833 135.833 69.667 135.000 70.500 C134.667 70.500 134.333 70.500 134.000 70.500 C132.833 71.667 131.667 72.833 130.500 74.000 C130.500 74.333 130.500 74.667 130.500 75.000 C130.167 75.333 129.833 75.667 129.500 76.000 C129.500 77.000 129.500 78.000 129.500 79.000 C129.167 79.333 128.833 79.667 128.500 80.000 C128.500 81.333 128.500 82.667 128.500 84.000 C128.833 84.333 129.167 84.667 129.500 85.000 C129.500 85.333 129.500 85.667 129.500 86.000 C129.833 86.333 130.167 86.667 130.500 87.000 C130.500 87.333 130.500 87.667 130.500 88.000 C131.167 88.667 131.833 89.333 132.500 90.000 C132.500 90.667 132.500 91.333 132.500 92.000 C132.333 92.167 132.167 92.333 132.000 92.500"></path>
<path id="" fill="#080406" fill-opacity="1.0" stroke="#000000" stroke-width="0.0" stroke-opacity="1.0" stroke-linecap="round" stroke-linejoin="round"  filling="0" d="M207.500 184.000 C207.000 184.500 206.500 185.000 206.000 185.500 C204.000 185.500 202.000 185.500 200.000 185.500 C199.667 185.167 199.333 184.833 199.000 184.500 C198.667 184.500 198.333 184.500 198.000 184.500 C197.000 183.500 196.000 182.500 195.000 181.500 C194.667 181.500 194.333 181.500 194.000 181.500 C193.667 181.167 193.333 180.833 193.000 180.500 C192.667 180.500 192.333 180.500 192.000 180.500 C191.667 180.833 191.333 181.167 191.000 181.500 C190.000 181.500 189.000 181.500 188.000 181.500 C187.667 181.833 187.333 182.167 187.000 182.500 C182.333 182.500 177.667 182.500 173.000 182.500 C172.667 182.167 172.333 181.833 172.000 181.500 C171.333 181.500 170.667 181.500 170.000 181.500 C169.667 181.167 169.333 180.833 169.000 180.500 C168.333 180.500 167.667 180.500 167.000 180.500 C166.833 180.333 166.667 180.167 166.500 180.000 C167.333 179.167 168.167 178.333 169.000 177.500 C169.667 177.500 170.333 177.500 171.000 177.500 C171.333 177.167 171.667 176.833 172.000 176.500 C173.333 176.500 174.667 176.500 176.000 176.500 C177.000 175.500 178.000 174.500 179.000 173.500 C179.333 173.500 179.667 173.500 180.000 173.500 C180.333 173.167 180.667 172.833 181.000 172.500 C181.667 172.500 182.333 172.500 183.000 172.500 C183.333 172.167 183.667 171.833 184.000 171.500 C187.000 171.500 190.000 171.500 193.000 171.500 C193.333 171.833 193.667 172.167 194.000 172.500 C194.333 172.500 194.667 172.500 195.000 172.500 C195.333 172.833 195.667 173.167 196.000 173.500 C196.333 173.500 196.667 173.500 197.000 173.500 C197.667 174.167 198.333 174.833 199.000 175.500 C199.333 175.500 199.667 175.500 200.000 175.500 C200.667 176.167 201.333 176.833 202.000 177.500 C202.333 177.500 202.667 177.500 203.000 177.500 C204.500 179.000 206.000 180.500 207.500 182.000 C207.500 182.667 207.500 183.333 207.500 184.000"></path>
<path id="" fill="#100303" fill-opacity="1.0" stroke="#000000" stroke-width="0.0" stroke-opacity="1.0" stroke-linecap="round" stroke-linejoin="round"  filling="0" d="M91.000 79.500 C89.667 79.500 88.333 79.500 87.000 79.500 C86.500 79.000 86.000 78.500 85.500 78.000 C86.167 77.333 86.833 76.667 87.500 76.000 C87.500 75.667 87.500 75.333 87.500 75.000 C87.833 74.667 88.167 74.333 88.500 74.000 C88.500 73.667 88.500 73.333 88.500 73.000 C89.167 72.333 89.833 71.667 90.500 71.000 C90.500 70.667 90.500 70.333 90.500 70.000 C92.833 67.667 95.167 65.333 97.500 63.000 C97.500 62.667 97.500 62.333 97.500 62.000 C97.667 61.833 97.833 61.667 98.000 61.500 C98.333 61.500 98.667 61.500 99.000 61.500 C99.500 61.000 100.000 60.500 100.500 60.000 C100.500 59.333 100.500 58.667 100.500 58.000 C100.167 57.667 99.833 57.333 99.500 57.000 C99.500 56.667 99.500 56.333 99.500 56.000 C98.000 54.500 96.500 53.000 95.000 51.500 C94.667 51.500 94.333 51.500 94.000 51.500 C93.333 50.833 92.667 50.167 92.000 49.500 C91.667 49.500 91.333 49.500 91.000 49.500 C90.333 48.833 89.667 48.167 89.000 47.500 C88.333 47.500 87.667 47.500 87.000 47.500 C86.500 47.000 86.000 46.500 85.500 46.000 C85.500 45.667 85.500 45.333 85.500 45.000 C85.667 44.833 85.833 44.667 86.000 44.500 C86.667 44.500 87.333 44.500 88.000 44.500 C88.333 44.833 88.667 45.167 89.000 45.500 C89.667 45.500 90.333 45.500 91.000 45.500 C91.333 45.833 91.667 46.167 92.000 46.500 C92.333 46.500 92.667 46.500 93.000 46.500 C93.333 46.833 93.667 47.167 94.000 47.500 C94.333 47.500 94.667 47.500 95.000 47.500 C95.333 47.833 95.667 48.167 96.000 48.500 C96.333 48.500 96.667 48.500 97.000 48.500 C99.500 51.000 102.000 53.500 104.500 56.000 C104.500 56.333 104.500 56.667 104.500 57.000 C105.167 57.667 105.833 58.333 106.500 59.000 C106.500 60.000 106.500 61.000 106.500 62.000 C106.833 62.333 107.167 62.667 107.500 63.000 C107.167 63.333 106.833 63.667 106.500 64.000 C106.500 65.000 106.500 66.000 106.500 67.000 C106.167 67.333 105.833 67.667 105.500 68.000 C105.500 68.333 105.500 68.667 105.500 69.000 C105.167 69.333 104.833 69.667 104.500 70.000 C104.500 70.333 104.500 70.667 104.500 71.000 C103.000 72.500 101.500 74.000 100.000 75.500 C99.667 75.500 99.333 75.500 99.000 75.500 C98.667 75.833 98.333 76.167 98.000 76.500 C97.667 76.500 97.333 76.500 97.000 76.500 C96.667 76.833 96.333 77.167 96.000 77.500 C95.667 77.500 95.333 77.500 95.000 77.500 C94.667 77.833 94.333 78.167 94.000 78.500 C93.333 78.500 92.667 78.500 92.000 78.500 C91.667 78.833 91.333 79.167 91.000 79.500"></path>
<path id="" fill="#fdfefa" fill-opacity="1.0" stroke="#000000" stroke-width="0.0" stroke-opacity="1.0" stroke-linecap="round" stroke-linejoin="round"  filling="0" d="M197.000 211.500 C196.500 211.000 196.000 210.500 195.500 210.000 C195.500 209.667 195.500 209.333 195.500 209.000 C195.167 208.667 194.833 208.333 194.500 208.000 C194.500 205.000 194.500 202.000 194.500 199.000 C194.833 198.667 195.167 198.333 195.500 198.000 C195.500 197.667 195.500 197.333 195.500 197.000 C197.333 195.167 199.167 193.333 201.000 191.500 C202.667 191.500 204.333 191.500 206.000 191.500 C206.500 192.000 207.000 192.500 207.500 193.000 C207.500 194.333 207.500 195.667 207.500 197.000 C208.167 197.667 208.833 198.333 209.500 199.000 C209.500 200.000 209.500 201.000 209.500 202.000 C207.833 203.667 206.167 205.333 204.500 207.000 C204.500 207.333 204.500 207.667 204.500 208.000 C204.000 208.500 203.500 209.000 203.000 209.500 C202.667 209.500 202.333 209.500 202.000 209.500 C201.667 209.833 201.333 210.167 201.000 210.500 C200.667 210.500 200.333 210.500 200.000 210.500 C199.667 210.833 199.333 211.167 199.000 211.500 C198.333 211.500 197.667 211.500 197.000 211.500"></path>
<path id="" fill="#060308" fill-opacity="1.0" stroke="#000000" stroke-width="0.0" stroke-opacity="1.0" stroke-linecap="round" stroke-linejoin="round"  filling="0" d="M160.000 94.500 C159.667 94.500 159.333 94.500 159.000 94.500 C158.500 94.000 158.000 93.500 157.500 93.000 C157.500 91.667 157.500 90.333 157.500 89.000 C157.167 88.667 156.833 88.333 156.500 88.000 C156.500 87.333 156.500 86.667 156.500 86.000 C156.167 85.667 155.833 85.333 155.500 85.000 C155.500 84.333 155.500 83.667 155.500 83.000 C155.167 82.667 154.833 82.333 154.500 82.000 C154.500 81.333 154.500 80.667 154.500 80.000 C154.167 79.667 153.833 79.333 153.500 79.000 C153.500 78.667 153.500 78.333 153.500 78.000 C153.167 77.667 152.833 77.333 152.500 77.000 C152.500 76.333 152.500 75.667 152.500 75.000 C152.167 74.667 151.833 74.333 151.500 74.000 C151.500 73.667 151.500 73.333 151.500 73.000 C151.167 72.667 150.833 72.333 150.500 72.000 C150.500 71.333 150.500 70.667 150.500 70.000 C150.833 69.667 151.167 69.333 151.500 69.000 C151.500 68.333 151.500 67.667 151.500 67.000 C151.833 66.667 152.167 66.333 152.500 66.000 C152.500 65.667 152.500 65.333 152.500 65.000 C154.167 63.333 155.833 61.667 157.500 60.000 C157.500 59.667 157.500 59.333 157.500 59.000 C157.833 58.667 158.167 58.333 158.500 58.000 C158.500 57.000 158.500 56.000 158.500 55.000 C158.167 54.667 157.833 54.333 157.500 54.000 C157.500 53.667 157.500 53.333 157.500 53.000 C154.833 50.333 152.167 47.667 149.500 45.000 C149.667 44.833 149.833 44.667 150.000 44.500 C151.000 44.500 152.000 44.500 153.000 44.500 C153.500 45.000 154.000 45.500 154.500 46.000 C154.500 46.333 154.500 46.667 154.500 47.000 C155.333 47.833 156.167 48.667 157.000 49.500 C157.333 49.500 157.667 49.500 158.000 49.500 C159.667 51.167 161.333 52.833 163.000 54.500 C163.333 54.500 163.667 54.500 164.000 54.500 C164.833 55.333 165.667 56.167 166.500 57.000 C165.667 57.833 164.833 58.667 164.000 59.500 C163.667 59.500 163.333 59.500 163.000 59.500 C162.833 59.667 162.667 59.833 162.500 60.000 C162.500 60.333 162.500 60.667 162.500 61.000 C160.167 63.333 157.833 65.667 155.500 68.000 C155.500 68.333 155.500 68.667 155.500 69.000 C155.167 69.333 154.833 69.667 154.500 70.000 C154.500 71.333 154.500 72.667 154.500 74.000 C154.833 74.333 155.167 74.667 155.500 75.000 C155.500 75.667 155.500 76.333 155.500 77.000 C155.833 77.333 156.167 77.667 156.500 78.000 C156.500 78.333 156.500 78.667 156.500 79.000 C156.833 79.333 157.167 79.667 157.500 80.000 C157.500 80.667 157.500 81.333 157.500 82.000 C157.833 82.333 158.167 82.667 158.500 83.000 C158.500 83.667 158.500 84.333 158.500 85.000 C158.833 85.333 159.167 85.667 159.500 86.000 C159.500 86.667 159.500 87.333 159.500 88.000 C159.833 88.333 160.167 88.667 160.500 89.000 C160.500 90.667 160.500 92.333 160.500 94.000 C160.333 94.167 160.167 94.333 160.000 94.500"></path>
<path id="" fill="#010303" fill-opacity="1.0" stroke="#000000" stroke-width="0.0" stroke-opacity="1.0" stroke-linecap="round" stroke-linejoin="round"  filling="0" d="M174.000 193.500 C173.000 193.500 172.000 193.500 171.000 193.500 C170.667 193.833 170.333 194.167 170.000 194.500 C166.667 194.500 163.333 194.500 160.000 194.500 C159.833 194.333 159.667 194.167 159.500 194.000 C159.500 192.000 159.500 190.000 159.500 188.000 C159.833 187.667 160.167 187.333 160.500 187.000 C160.500 184.667 160.500 182.333 160.500 180.000 C161.333 179.167 162.167 178.333 163.000 177.500 C163.667 177.500 164.333 177.500 165.000 177.500 C165.167 177.667 165.333 177.833 165.500 178.000 C165.500 178.333 165.500 178.667 165.500 179.000 C166.167 179.667 166.833 180.333 167.500 181.000 C166.500 182.000 165.500 183.000 164.500 184.000 C164.500 185.000 164.500 186.000 164.500 187.000 C165.333 187.833 166.167 188.667 167.000 189.500 C168.000 189.500 169.000 189.500 170.000 189.500 C170.333 189.833 170.667 190.167 171.000 190.500 C171.667 190.500 172.333 190.500 173.000 190.500 C173.333 190.833 173.667 191.167 174.000 191.500 C174.333 191.500 174.667 191.500 175.000 191.500 C175.167 191.667 175.333 191.833 175.500 192.000 C175.000 192.500 174.500 193.000 174.000 193.500"></path>
<path id="" fill="#030805" fill-opacity="1.0" stroke="#000000" stroke-width="0.0" stroke-opacity="1.0" stroke-linecap="round" stroke-linejoin="round"  filling="0" d="M82.500 198.000 C82.500 197.667 82.500 197.333 82.500 197.000 C82.667 196.833 82.833 196.667 83.000 196.500 C83.333 196.500 83.667 196.500 84.000 196.500 C84.333 196.167 84.667 195.833 85.000 195.500 C85.333 195.500 85.667 195.500 86.000 195.500 C86.667 194.833 87.333 194.167 88.000 193.500 C88.333 193.500 88.667 193.500 89.000 193.500 C90.667 191.833 92.333 190.167 94.000 188.500 C98.333 188.500 102.667 188.500 107.000 188.500 C107.333 188.833 107.667 189.167 108.000 189.500 C109.333 189.500 110.667 189.500 112.000 189.500 C112.167 189.667 112.333 189.833 112.500 190.000 C112.333 190.167 112.167 190.333 112.000 190.500 C111.667 190.500 111.333 190.500 111.000 190.500 C110.667 190.833 110.333 191.167 110.000 191.500 C109.667 191.500 109.333 191.500 109.000 191.500 C108.667 191.833 108.333 192.167 108.000 192.500 C106.667 192.500 105.333 192.500 104.000 192.500 C103.667 192.833 103.333 193.167 103.000 193.500 C101.667 193.500 100.333 193.500 99.000 193.500 C98.667 193.833 98.333 194.167 98.000 194.500 C97.000 194.500 96.000 194.500 95.000 194.500 C94.667 194.833 94.333 195.167 94.000 195.500 C93.667 195.500 93.333 195.500 93.000 195.500 C92.667 195.833 92.333 196.167 92.000 196.500 C91.667 196.500 91.333 196.500 91.000 196.500 C90.667 196.833 90.333 197.167 90.000 197.500 C89.000 197.500 88.000 197.500 87.000 197.500 C86.667 197.833 86.333 198.167 86.000 198.500 C85.000 198.500 84.000 198.500 83.000 198.500 C82.833 198.333 82.667 198.167 82.500 198.000"></path>
<path id="" fill="#290202" fill-opacity="1.0" stroke="#000000" stroke-width="0.0" stroke-opacity="1.0" stroke-linecap="round" stroke-linejoin="round"  filling="0" d="M77.000 150.500 C76.833 150.333 76.667 150.167 76.500 150.000 C76.500 149.000 76.500 148.000 76.500 147.000 C76.167 146.667 75.833 146.333 75.500 146.000 C75.500 144.667 75.500 143.333 75.500 142.000 C75.833 141.667 76.167 141.333 76.500 141.000 C76.500 135.333 76.500 129.667 76.500 124.000 C76.833 123.667 77.167 123.333 77.500 123.000 C77.500 122.667 77.500 122.333 77.500 122.000 C77.667 121.833 77.833 121.667 78.000 121.500 C78.667 121.500 79.333 121.500 80.000 121.500 C80.167 121.667 80.333 121.833 80.500 122.000 C80.167 122.333 79.833 122.667 79.500 123.000 C79.500 128.667 79.500 134.333 79.500 140.000 C79.167 140.333 78.833 140.667 78.500 141.000 C78.500 143.000 78.500 145.000 78.500 147.000 C78.167 147.333 77.833 147.667 77.500 148.000 C77.500 148.667 77.500 149.333 77.500 150.000 C77.333 150.167 77.167 150.333 77.000 150.500"></path>
<path id="" fill="#e7ed93" fill-opacity="1.0" stroke="#000000" stroke-width="0.0" stroke-opacity="1.0" stroke-linecap="round" stroke-linejoin="round"  filling="0" d="M133.500 91.000 C133.500 91.333 133.500 91.667 133.500 92.000 C133.333 92.167 133.167 92.333 133.000 92.500 C132.667 92.500 132.333 92.500 132.000 92.500 C131.667 92.833 131.333 93.167 131.000 93.500 C128.000 93.500 125.000 93.500 122.000 93.500 C121.500 93.000 121.000 92.500 120.500 92.000 C120.833 91.667 121.167 91.333 121.500 91.000 C121.500 90.667 121.500 90.333 121.500 90.000 C121.833 89.667 122.167 89.333 122.500 89.000 C122.500 88.667 122.500 88.333 122.500 88.000 C123.000 87.500 123.500 87.000 124.000 86.500 C124.333 86.500 124.667 86.500 125.000 86.500 C125.333 86.167 125.667 85.833 126.000 85.500 C126.333 85.500 126.667 85.500 127.000 85.500 C127.333 85.167 127.667 84.833 128.000 84.500 C128.333 84.500 128.667 84.500 129.000 84.500 C129.167 84.667 129.333 84.833 129.500 85.000 C129.500 85.333 129.500 85.667 129.500 86.000 C129.833 86.333 130.167 86.667 130.500 87.000 C130.500 87.333 130.500 87.667 130.500 88.000 C131.500 89.000 132.500 90.000 133.500 91.000"></path>
<path id="" fill="#f0d724" fill-opacity="1.0" stroke="#000000" stroke-width="0.0" stroke-opacity="1.0" stroke-linecap="round" stroke-linejoin="round"  filling="0" d="M163.500 112.000 C164.000 111.500 164.500 111.000 165.000 110.500 C165.667 110.500 166.333 110.500 167.000 110.500 C167.333 110.167 167.667 109.833 168.000 109.500 C168.333 109.500 168.667 109.500 169.000 109.500 C169.333 109.167 169.667 108.833 170.000 108.500 C170.333 108.500 170.667 108.500 171.000 108.500 C171.333 108.167 171.667 107.833 172.000 107.500 C173.000 107.500 174.000 107.500 175.000 107.500 C175.333 107.167 175.667 106.833 176.000 106.500 C177.333 106.500 178.667 106.500 180.000 106.500 C180.500 107.000 181.000 107.500 181.500 108.000 C181.500 108.667 181.500 109.333 181.500 110.000 C181.333 110.167 181.167 110.333 181.000 110.500 C180.667 110.500 180.333 110.500 180.000 110.500 C179.667 110.833 179.333 111.167 179.000 111.500 C178.333 111.500 177.667 111.500 177.000 111.500 C176.667 111.833 176.333 112.167 176.000 112.500 C174.333 112.500 172.667 112.500 171.000 112.500 C170.667 112.833 170.333 113.167 170.000 113.500 C168.333 113.500 166.667 113.500 165.000 113.500 C164.500 113.000 164.000 112.500 163.500 112.000"></path>
<path id="" fill="#fcfcfc" fill-opacity="1.0" stroke="#000000" stroke-width="0.0" stroke-opacity="1.0" stroke-linecap="round" stroke-linejoin="round"  filling="0" d="M164.500 105.000 C164.333 105.167 164.167 105.333 164.000 105.500 C161.667 105.500 159.333 105.500 157.000 105.500 C156.667 105.167 156.333 104.833 156.000 104.500 C155.667 104.500 155.333 104.500 155.000 104.500 C154.333 103.833 153.667 103.167 153.000 102.500 C152.667 102.500 152.333 102.500 152.000 102.500 C151.500 102.000 151.000 101.500 150.500 101.000 C150.500 100.667 150.500 100.333 150.500 100.000 C150.667 99.833 150.833 99.667 151.000 99.500 C151.667 99.500 152.333 99.500 153.000 99.500 C153.333 99.167 153.667 98.833 154.000 98.500 C155.667 98.500 157.333 98.500 159.000 98.500 C159.333 98.833 159.667 99.167 160.000 99.500 C160.333 99.500 160.667 99.500 161.000 99.500 C162.167 100.667 163.333 101.833 164.500 103.000 C164.500 103.667 164.500 104.333 164.500 105.000"></path>
<path id="" fill="#9f521f" fill-opacity="1.0" stroke="#000000" stroke-width="0.0" stroke-opacity="1.0" stroke-linecap="round" stroke-linejoin="round"  filling="0" d="M150.500 103.000 C150.333 103.167 150.167 103.333 150.000 103.500 C141.667 103.500 133.333 103.500 125.000 103.500 C124.833 103.333 124.667 103.167 124.500 103.000 C124.500 102.667 124.500 102.333 124.500 102.000 C124.667 101.833 124.833 101.667 125.000 101.500 C130.667 101.500 136.333 101.500 142.000 101.500 C142.333 101.167 142.667 100.833 143.000 100.500 C144.000 100.500 145.000 100.500 146.000 100.500 C146.333 100.833 146.667 101.167 147.000 101.500 C148.000 101.500 149.000 101.500 150.000 101.500 C150.167 101.667 150.333 101.833 150.500 102.000 C150.500 102.333 150.500 102.667 150.500 103.000"></path>
<path id="" fill="#010603" fill-opacity="1.0" stroke="#000000" stroke-width="0.0" stroke-opacity="1.0" stroke-linecap="round" stroke-linejoin="round"  filling="0" d="M52.000 162.500 C51.833 162.333 51.667 162.167 51.500 162.000 C51.500 161.667 51.500 161.333 51.500 161.000 C51.833 160.667 52.167 160.333 52.500 160.000 C52.500 159.333 52.500 158.667 52.500 158.000 C52.833 157.667 53.167 157.333 53.500 157.000 C53.500 156.667 53.500 156.333 53.500 156.000 C54.333 155.167 55.167 154.333 56.000 153.500 C56.333 153.500 56.667 153.500 57.000 153.500 C57.333 153.167 57.667 152.833 58.000 152.500 C58.167 152.667 58.333 152.833 58.500 153.000 C58.500 153.667 58.500 154.333 58.500 155.000 C58.833 155.333 59.167 155.667 59.500 156.000 C59.500 157.333 59.500 158.667 59.500 160.000 C59.000 160.500 58.500 161.000 58.000 161.500 C57.667 161.500 57.333 161.500 57.000 161.500 C56.667 161.833 56.333 162.167 56.000 162.500 C54.667 162.500 53.333 162.500 52.000 162.500"></path>
<path id="" fill="#010202" fill-opacity="1.0" stroke="#000000" stroke-width="0.0" stroke-opacity="1.0" stroke-linecap="round" stroke-linejoin="round"  filling="0" d="M126.500 193.000 C125.667 193.833 124.833 194.667 124.000 195.500 C122.333 195.500 120.667 195.500 119.000 195.500 C118.167 194.667 117.333 193.833 116.500 193.000 C116.500 192.000 116.500 191.000 116.500 190.000 C116.667 189.833 116.833 189.667 117.000 189.500 C118.667 189.500 120.333 189.500 122.000 189.500 C122.333 189.833 122.667 190.167 123.000 190.500 C123.667 190.500 124.333 190.500 125.000 190.500 C125.500 191.000 126.000 191.500 126.500 192.000 C126.500 192.333 126.500 192.667 126.500 193.000"></path>
<path id="" fill="#030406" fill-opacity="1.0" stroke="#000000" stroke-width="0.0" stroke-opacity="1.0" stroke-linecap="round" stroke-linejoin="round"  filling="0" d="M123.000 213.500 C122.833 213.333 122.667 213.167 122.500 213.000 C122.500 211.333 122.500 209.667 122.500 208.000 C123.000 207.500 123.500 207.000 124.000 206.500 C124.333 206.500 124.667 206.500 125.000 206.500 C125.333 206.167 125.667 205.833 126.000 205.500 C126.667 205.500 127.333 205.500 128.000 205.500 C128.500 206.000 129.000 206.500 129.500 207.000 C129.500 208.333 129.500 209.667 129.500 211.000 C128.667 211.833 127.833 212.667 127.000 213.500 C125.667 213.500 124.333 213.500 123.000 213.500"></path>
<path id="" fill="#020464" fill-opacity="1.0" stroke="#000000" stroke-width="0.0" stroke-opacity="1.0" stroke-linecap="round" stroke-linejoin="round"  filling="0" d="M54.000 98.500 C53.167 97.667 52.333 96.833 51.500 96.000 C51.500 95.667 51.500 95.333 51.500 95.000 C51.167 94.667 50.833 94.333 50.500 94.000 C50.500 93.667 50.500 93.333 50.500 93.000 C50.833 92.667 51.167 92.333 51.500 92.000 C51.500 91.333 51.500 90.667 51.500 90.000 C52.000 89.500 52.500 89.000 53.000 88.500 C53.333 88.500 53.667 88.500 54.000 88.500 C54.333 88.833 54.667 89.167 55.000 89.500 C55.333 89.500 55.667 89.500 56.000 89.500 C56.167 89.667 56.333 89.833 56.500 90.000 C56.500 90.667 56.500 91.333 56.500 92.000 C56.833 92.333 57.167 92.667 57.500 93.000 C57.500 93.333 57.500 93.667 57.500 94.000 C57.167 94.333 56.833 94.667 56.500 95.000 C56.500 95.333 56.500 95.667 56.500 96.000 C55.667 96.833 54.833 97.667 54.000 98.500"></path>
<path id="" fill="#004030" fill-opacity="1.0" stroke="#000000" stroke-width="0.0" stroke-opacity="1.0" stroke-linecap="round" stroke-linejoin="round"  filling="0" d="M49.000 145.500 C48.667 145.167 48.333 144.833 48.000 144.500 C47.667 144.500 47.333 144.500 47.000 144.500 C46.667 144.167 46.333 143.833 46.000 143.500 C45.667 143.500 45.333 143.500 45.000 143.500 C44.500 143.000 44.000 142.500 43.500 142.000 C43.500 141.333 43.500 140.667 43.500 140.000 C43.833 139.667 44.167 139.333 44.500 139.000 C44.500 138.667 44.500 138.333 44.500 138.000 C45.000 137.500 45.500 137.000 46.000 136.500 C46.667 136.500 47.333 136.500 48.000 136.500 C48.500 137.000 49.000 137.500 49.500 138.000 C49.500 138.667 49.500 139.333 49.500 140.000 C49.833 140.333 50.167 140.667 50.500 141.000 C50.500 142.000 50.500 143.000 50.500 144.000 C50.000 144.500 49.500 145.000 49.000 145.500"></path>
<path id="" fill="#91090b" fill-opacity="1.0" stroke="#000000" stroke-width="0.0" stroke-opacity="1.0" stroke-linecap="round" stroke-linejoin="round"  filling="0" d="M47.500 181.000 C47.500 180.333 47.500 179.667 47.500 179.000 C48.333 178.167 49.167 177.333 50.000 176.500 C50.333 176.500 50.667 176.500 51.000 176.500 C51.333 176.167 51.667 175.833 52.000 175.500 C53.333 175.500 54.667 175.500 56.000 175.500 C56.167 175.667 56.333 175.833 56.500 176.000 C56.500 177.000 56.500 178.000 56.500 179.000 C56.000 179.500 55.500 180.000 55.000 180.500 C54.333 180.500 53.667 180.500 53.000 180.500 C52.667 180.833 52.333 181.167 52.000 181.500 C50.667 181.500 49.333 181.500 48.000 181.500 C47.833 181.333 47.667 181.167 47.500 181.000"></path>
<path id="" fill="#ebf6ec" fill-opacity="1.0" stroke="#000000" stroke-width="0.0" stroke-opacity="1.0" stroke-linecap="round" stroke-linejoin="round"  filling="0" d="M149.500 222.000 C149.500 221.667 149.500 221.333 149.500 221.000 C150.333 220.167 151.167 219.333 152.000 218.500 C152.333 218.500 152.667 218.500 153.000 218.500 C153.333 218.167 153.667 217.833 154.000 217.500 C154.333 217.500 154.667 217.500 155.000 217.500 C155.333 217.167 155.667 216.833 156.000 216.500 C156.333 216.500 156.667 216.500 157.000 216.500 C157.500 217.000 158.000 217.500 158.500 218.000 C158.500 218.333 158.500 218.667 158.500 219.000 C158.000 219.500 157.500 220.000 157.000 220.500 C156.667 220.500 156.333 220.500 156.000 220.500 C155.667 220.833 155.333 221.167 155.000 221.500 C154.667 221.500 154.333 221.500 154.000 221.500 C153.833 221.667 153.667 221.833 153.500 222.000 C153.500 222.333 153.500 222.667 153.500 223.000 C153.333 223.167 153.167 223.333 153.000 223.500 C152.333 223.500 151.667 223.500 151.000 223.500 C150.500 223.000 150.000 222.500 149.500 222.000"></path>
</svg>