<svg width="256" height="256" viewBox="0 0 256 256" xmlns="http://www.w3.org/2000/svg">
  <rect width="256" height="256" fill="#f4f4f4"/>
  <rect x="64" y="96" width="128" height="80" rx="12" ry="12" fill="#ffffff" stroke="#333333" stroke-width="3"/>
  <rect x="72" y="104" width="112" height="20" rx="6" ry="6" fill="#8b5a2b"/>
  <path d="M192 108
           C212 108, 212 164, 192 164
           C182 164, 182 154, 192 154
           C200 154, 200 118, 192 118
           C182 118, 182 108, 192 108 Z"
        fill="#ffffff" stroke="#333333" stroke-width="3"/>
  <path d="M96 84 C88 72, 104 64, 96 52" fill="none" stroke="#333333" stroke-width="3" stroke-linecap="round"/>
  <path d="M128 84 C120 70, 136 62, 128 48" fill="none" stroke="#333333" stroke-width="3" stroke-linecap="round"/>
  <path d="M160 84 C152 72, 168 64, 160 52" fill="none" stroke="#333333" stroke-width="3" stroke-linecap="round"/>
  <line x1="56" y1="180" x2="200" y2="180" stroke="#333333" stroke-width="3" stroke-linecap="round"/>
</svg>
