<?xml version="1.0" ?>
<svg xmlns="http://www.w3.org/2000/svg" version="1.1" width="512" height="512" viewBox="0 0 512 512">
  <defs/>
  <g>
    <path d="M 507.69250488 497.99533081 C 498.00610352 501.77606201 487.80099487 504.49050903 476.88378906 506.39245605 C 465.19232178 506.89010620 452.68750000 506.99041748 438.78085327 505.58435059 C 422.95974731 505.61181641 405.49847412 505.65347290 386.72576904 505.58306885 C 367.05676270 503.71716309 346.15829468 503.30569458 324.02911377 503.67431641 C 300.74954224 503.53732300 276.55029297 503.67932129 251.64686584 503.59527588 C 226.37902832 503.53356934 201.22717285 503.71542358 176.44120789 503.58901978 C 152.11518860 503.58636475 128.47111511 503.55871582 105.97955322 503.67733765 C 85.10672760 505.60083008 65.88504028 505.75097656 48.50194550 505.63681030 C 33.40874863 505.34686279 21.24075508 503.23822021 12.51598358 498.41671753 C 7.39850140 488.60134888 4.43899488 475.12768555 3.33720517 458.21484375 C 3.42665601 438.57507324 3.36108875 416.77542114 3.24327826 393.30215454 C 4.66388655 368.88604736 8.22076130 343.47027588 10.43271542 316.87692261 C 10.36806679 288.71112061 10.35055256 259.72393799 10.24292278 230.67578125 C 8.87080956 202.47880554 6.69351244 175.37318420 4.38599300 149.55899048 C 4.22333527 125.33340454 4.24511862 103.00820923 4.27029181 82.30226135 C 6.31159496 63.31568146 8.92642689 46.10165787 12.27179527 30.58411026 C 16.72357750 16.98462486 24.43854141 6.95766973 35.40849304 2.34906983 C 49.66960144 2.32897902 66.64400482 2.48793411 85.83798218 2.44403911 C 106.91808319 2.27909899 129.61778259 2.39096522 153.61294556 2.38354945 C 178.74632263 2.30842566 204.72712708 2.36331892 231.22966003 2.37318063 C 258.07226562 2.30261064 284.80416870 2.37119484 310.93527222 2.40811563 C 335.95764160 4.15590191 360.37579346 3.43531370 384.44760132 2.27692437 C 408.21032715 2.46091223 430.97872925 2.31815052 452.00628662 2.40143561 C 470.26879883 2.08799648 485.21829224 1.77788079 496.24166870 6.07245445 C 503.23245239 16.05858231 507.42782593 29.98944283 509.68563843 46.51820374 C 509.78598022 64.89182281 509.58935547 84.71244049 509.72290039 105.82942963 C 509.99353027 128.27655029 508.48178101 151.92720032 506.60827637 176.77137756 C 504.12286377 202.32630920 502.34805298 228.14978027 502.70867920 254.13909912 C 502.11782837 279.98336792 503.69564819 305.38189697 507.54748535 330.30371094 C 508.00390625 355.57000732 507.56402588 380.70742798 507.69250488 497.99533081" stroke-width="2.00000000" fill="rgb(249, 251, 242)" opacity="1.0" stroke="rgb(248, 239, 0)" stroke-opacity="0.3632311" stroke-linecap="round" stroke-linejoin="round"/>
    <path d="M 359.71481323 335.26251221 C 356.05136108 340.74728394 351.86868286 345.58096313 347.26586914 349.87734985 C 341.66040039 352.63305664 335.22576904 354.37713623 328.13818359 355.73062134 C 320.45678711 356.69470215 312.21411133 357.45343018 303.43399048 358.24691772 C 294.23297119 359.07656860 284.75625610 359.86596680 275.02545166 360.55584717 C 265.04666138 361.02767944 254.92788696 361.34545898 244.77217102 361.59210205 C 234.58891296 361.77346802 224.49732971 361.87365723 214.64369202 361.86178589 C 205.05702209 361.69497681 195.81301880 361.38369751 187.00846863 360.85031128 C 178.63897705 360.25372314 170.91883850 359.19247437 163.94139099 357.04141235 C 157.74523926 353.76403809 152.41885376 349.20175171 148.06652832 343.25564575 C 144.53196716 336.07949829 139.31880188 328.99456787 134.59864807 321.14562988 C 130.17138672 312.87307739 127.33148193 303.71054077 125.29885101 293.87387085 C 123.24162292 283.90478516 122.43630219 273.72470093 122.71401215 263.24688721 C 122.63388824 252.78892517 122.28157043 242.50820923 122.28800201 232.56642151 C 122.00007629 223.28656006 122.46591187 215.07911682 122.98318481 208.22729492 C 124.00695038 202.73431396 126.42047119 198.94923401 130.06913757 196.59315491 C 134.46308899 195.62989807 139.28019714 195.51814270 144.30012512 194.20562744 C 149.51679993 192.37316895 155.26173401 191.72891235 161.75215149 191.97010803 C 169.12506104 191.86680603 177.24078369 191.45863342 186.05201721 190.58821106 C 195.63072205 190.16310120 205.70840454 190.01362610 215.97157288 190.19488525 C 226.30569458 189.62673950 236.19392395 189.25382996 246.10897827 190.80682373 C 256.61453247 190.94357300 267.58489990 190.61665344 278.92849731 190.67349243 C 290.41806030 190.27647400 301.80834961 189.65991211 313.12045288 188.79933167 C 324.49060059 190.50679016 335.88049316 191.62130737 346.68704224 193.48762512 C 356.95300293 195.92346191 366.18615723 198.05351257 373.79458618 201.04533386 C 380.00561523 204.03219604 384.61080933 206.46528625 387.44662476 207.75114441 C 386.14019775 211.66876221 383.25817871 217.08792114 380.25827026 223.10392761 C 380.10211182 228.99670410 382.10614014 235.13496399 383.53195190 241.92994690 C 382.37472534 249.80599976 382.80526733 258.98281860 381.80902100 269.30520630 C 379.94357300 280.26293945 377.26449585 291.74871826 373.54678345 303.14624023 C 370.38415527 314.33541870 368.62625122 325.74758911 359.71481323 335.26251221" stroke-width="1.42004228" fill="rgb(6, 6, 4)" opacity="1.0" stroke="rgb(116, 99, 118)" stroke-opacity="0.8373042" stroke-linecap="round" stroke-linejoin="round"/>
    <path d="M 350.64941406 327.66293335 C 346.77560425 332.99230957 342.61398315 337.79498291 338.07070923 342.33624268 C 333.50537109 346.90231323 328.51400757 350.97448730 322.84283447 354.26736450 C 316.71530151 357.10379028 310.25637817 359.63629150 303.51684570 361.79446411 C 296.47283936 363.46160889 289.05731201 364.64984131 281.34188843 365.62915039 C 273.44073486 366.49844360 265.47598267 367.23696899 257.47576904 367.74389648 C 249.48603821 368.15753174 241.40527344 367.44506836 233.14039612 365.68789673 C 224.64445496 363.81732178 216.14125061 361.81878662 207.73211670 359.60363770 C 199.40989685 356.64035034 191.49642944 352.89392090 184.18862915 348.57711792 C 177.43208313 343.12390137 170.04290771 338.73840332 162.26371765 334.68392944 C 155.78279114 329.01919556 149.48980713 323.09014893 144.30690002 316.24777222 C 140.57417297 308.35223389 137.70428467 299.65139771 135.58325195 290.35723877 C 133.68829346 280.85400391 133.38423157 271.17059326 133.53027344 261.29208374 C 133.29978943 251.58064270 133.45620728 242.51716614 133.43142700 234.54486084 C 133.90197754 228.12243652 132.90116882 223.16976929 131.34934998 219.22984314 C 131.43917847 215.98193359 132.93847656 215.37831116 136.21594238 217.63970947 C 139.47868347 222.00373840 144.12022400 224.42710876 150.64189148 223.12992859 C 156.10348511 218.17372131 160.96974182 211.47145081 166.54211426 205.55007935 C 173.27082825 202.44035339 181.44012451 202.12144470 190.22448730 200.99273682 C 199.08229065 199.83891296 208.05895996 199.67097473 216.66419983 200.07505798 C 224.66090393 200.19766235 231.88972473 199.66304016 238.24969482 200.63504028 C 243.88758850 204.60331726 247.28630066 210.24070740 248.16192627 217.67965698 C 252.03829956 224.62107849 258.69500732 230.14213562 267.37194824 234.04748535 C 277.59207153 236.13749695 288.96640015 236.27268982 300.72128296 235.68923950 C 312.16012573 234.18164062 323.13006592 231.95205688 333.39721680 229.19999695 C 343.20367432 227.17536926 352.04281616 225.14613342 359.55123901 223.61296082 C 365.58959961 223.19598389 370.04879761 223.84951782 372.79522705 224.78456116 C 372.99209595 227.29794312 372.51565552 231.19680786 372.43148804 236.49420166 C 372.44451904 243.01925659 372.37609863 250.47323608 372.42163086 258.57070923 C 371.71835327 267.07138062 370.68096924 276.03283691 368.66339111 285.30886841 C 366.67187500 294.77474976 365.24972534 304.86697388 350.64941406 327.66293335" stroke-width="2.00000000" fill="rgb(113, 62, 47)" opacity="1.0" stroke="rgb(168, 114, 76)" stroke-opacity="0.8776591" stroke-linecap="round" stroke-linejoin="round"/>
    <path d="M 320.07986450 232.17691040 C 307.00930786 233.63600159 294.01828003 234.13233948 280.96597290 233.77813721 C 267.33157349 233.78823853 253.42121887 233.80203247 239.42335510 233.64878845 C 225.49624634 232.57504272 212.32075500 231.19732666 199.71260071 229.25773621 C 187.74441528 226.36141968 176.50538635 224.92570496 167.56355286 222.14646912 C 160.56556702 218.02626038 154.64617920 216.68278503 152.00346375 217.78021240 C 154.31356812 220.78877258 158.00793457 225.83163452 161.64146423 231.41842651 C 167.49713135 233.26449585 174.23362732 234.14282227 180.13537598 235.34666443 C 183.89312744 235.47821045 185.52540588 236.86572266 184.44132996 239.51353455 C 179.60173035 242.30564880 173.91893005 245.05969238 168.76721191 244.12351990 C 164.12501526 234.69552612 156.55215454 223.56054688 149.26620483 213.92498779 C 148.86216736 210.67654419 155.58558655 210.02346802 163.47538757 204.29217529 C 173.40164185 200.80941772 178.00474548 201.69493103 175.51750183 206.67437744 C 168.61166382 210.90853882 170.62004089 214.38621521 179.88281250 215.66690063 C 193.93916321 217.37643433 209.02984619 217.49432373 223.94683838 218.10632324 C 237.23495483 219.59782410 249.13064575 220.28742981 260.49700928 218.72869873 C 271.97119141 218.33552551 283.09207153 218.30445862 293.19335938 218.36151123 C 301.92025757 216.88650513 309.03451538 215.62690735 314.40686035 216.37519836 C 318.09115601 218.17909241 320.41409302 220.41596985 321.82519531 222.82113647 C 323.35235596 224.45088196 323.90100098 225.77760315 323.29751587 227.26347351 C 323.54946899 228.98355103 324.13571167 230.67956543 320.07986450 232.17691040" stroke-width="2.00000000" fill="rgb(244, 247, 235)" opacity="1.0" stroke="rgb(47, 49, 50)" stroke-opacity="1.0" stroke-linecap="round" stroke-linejoin="round"/>
    <path d="M 370.25308228 323.54003906 C 368.58489990 324.21795654 367.37109375 325.12268066 366.67590332 325.48306274 C 366.29208374 324.68475342 366.35119629 322.98684692 366.93579102 320.53497314 C 367.97949219 317.48083496 369.49456787 314.15203857 371.79354858 310.98828125 C 375.12289429 308.03671265 378.20986938 304.36557007 381.36373901 300.33877563 C 384.43090820 296.10601807 387.37747192 291.82916260 388.91744995 286.92407227 C 389.99655151 281.47070312 390.72720337 275.56820679 391.64144897 269.58804321 C 391.86660767 264.02124023 391.71234131 258.89117432 391.91897583 254.11082458 C 391.56243896 249.64205933 391.74707031 245.84753418 391.45932007 243.11033630 C 389.44537354 241.70928955 386.62341309 241.12396240 383.60668945 240.59527588 C 381.19033813 238.58946228 379.52636719 235.86419678 378.69802856 232.74052429 C 378.86148071 229.60041809 380.35189819 227.08518982 383.28256226 225.36329651 C 387.15957642 223.69633484 391.45016479 223.01213074 395.91082764 222.83251953 C 400.05346680 222.98901367 403.52911377 224.94067383 407.15084839 227.85951233 C 410.69744873 231.18939209 413.56896973 235.20536804 415.30737305 240.03871155 C 417.13592529 245.22595215 418.31661987 250.48988342 419.91940308 255.68020630 C 421.20370483 260.45834351 420.90985107 265.11965942 420.54119873 270.03970337 C 421.28967285 274.58319092 421.70187378 279.00531006 421.05642700 283.85946655 C 419.76895142 289.29864502 417.43280029 294.84179688 413.81887817 300.17642212 C 409.70648193 305.88711548 404.64999390 311.39385986 399.32373047 317.06677246 C 392.93725586 322.06619263 387.05908203 327.24639893 370.25308228 323.54003906" stroke-width="1.51943588" fill="rgb(3, 5, 13)" opacity="1.0" stroke="rgb(24, 34, 0)" stroke-opacity="0.5237247" stroke-linecap="round" stroke-linejoin="round"/>
    <path d="M 378.38705444 313.72564697 C 380.31457520 312.13806152 382.37930298 310.70999146 384.29428101 309.34893799 C 386.10589600 307.98269653 387.56274414 306.37606812 388.75836182 304.30368042 C 390.32449341 302.35516357 391.91830444 300.28015137 393.64273071 298.45553589 C 394.62255859 296.19213867 395.93359375 293.84594727 397.11856079 291.38171387 C 398.15585327 288.72497559 398.98245239 285.60098267 399.42346191 282.25024414 C 399.44256592 278.64297485 399.40420532 274.69723511 399.43859863 270.63653564 C 400.09353638 266.57540894 400.00006104 262.50918579 399.27920532 258.52279663 C 398.25228882 254.80503845 397.30068970 251.46833801 396.30172729 248.55899048 C 395.08386230 246.02537537 393.61361694 244.36387634 391.67764282 243.73687744 C 389.52389526 243.78155518 387.45343018 243.46998596 386.21771240 242.66928101 C 386.03625488 241.48541260 387.33444214 240.30525208 389.28155518 238.88681030 C 391.83724976 237.46212769 394.22149658 236.21662903 396.73126221 236.12998962 C 399.06259155 236.69102478 401.18917847 238.01269531 403.19729614 240.01866150 C 404.96350098 242.87763977 406.01629639 246.44944763 406.19210815 250.54647827 C 407.26776123 254.36010742 407.96612549 258.15313721 407.62765503 262.19561768 C 407.79101562 266.34283447 407.33685303 270.27453613 406.59262085 274.25955200 C 406.64318848 278.13366699 406.43283081 281.70318604 405.78521729 285.22689819 C 404.86349487 288.35229492 403.31832886 291.20642090 401.55612183 293.81509399 C 399.75592041 296.19757080 398.29647827 298.64105225 396.79156494 300.83499146 C 395.05725098 302.54461670 393.20968628 303.92709351 378.38705444 313.72564697" stroke-width="1.67269492" fill="rgb(237, 248, 250)" opacity="1.0" stroke="rgb(154, 213, 255)" stroke-opacity="0.5450859" stroke-linecap="round" stroke-linejoin="round"/>
    <path d="M 203.21466064 150.21031189 C 201.49038696 151.27696228 199.68797302 152.33883667 198.06852722 153.25781250 C 196.66853333 153.88114929 195.23654175 154.38931274 194.08982849 154.77967834 C 193.21884155 154.68130493 192.45771790 154.29589844 191.79736328 153.93801880 C 191.31739807 153.41636658 190.96998596 152.78018188 190.88815308 151.95896912 C 191.05424500 151.02168274 191.35856628 150.10044861 191.80908203 149.16171265 C 192.39601135 148.18334961 193.13870239 147.19181824 194.08615112 146.23666382 C 195.27847290 145.35050964 196.64299011 144.55780029 198.10403442 143.78733826 C 199.73999023 142.95263672 201.64979553 142.00701904 203.76779175 141.01055908 C 205.88545227 140.12315369 207.93737793 139.36195374 209.93907166 138.80996704 C 212.03698730 138.59558105 214.29359436 138.73213196 203.21466064 150.21031189" stroke-width="2.00000000" fill="rgb(126, 0, 60)" opacity="1.0" stroke="rgb(242, 120, 118)" stroke-opacity="0.43682384" stroke-linecap="round" stroke-linejoin="round"/>
    <path d="M 259.89981079 151.99433899 C 259.07687378 154.81399536 258.19845581 157.71682739 257.68988037 160.57980347 C 257.52630615 163.39593506 257.52154541 166.06074524 257.58032227 168.40827942 C 257.73303223 170.16246033 257.80502319 171.51766968 257.34582520 172.42735291 C 256.18466187 172.88983154 254.46829224 173.44131470 252.73295593 174.15383911 C 251.16746521 174.66767883 249.82054138 174.67047119 248.94981384 174.42364502 C 248.47642517 173.41786194 248.43887329 171.95544434 248.20011902 170.08447266 C 248.01870728 168.08126831 248.40109253 165.97387695 248.97555542 163.74481201 C 250.06372070 161.56288147 251.03721619 159.09127808 251.60238647 156.36064148 C 252.36029053 153.68852234 253.23309326 151.08593750 254.21092224 148.67216492 C 255.16584778 146.41372681 256.23742676 144.31172180 257.69406128 142.51039124 C 259.32672119 140.91368103 260.88143921 139.40080261 262.29531860 137.98654175 C 263.71261597 136.78211975 265.08682251 135.72644043 266.36300659 134.74092102 C 267.56314087 133.88897705 268.74670410 133.23278809 269.89239502 132.68452454 C 270.93438721 132.18064880 271.93383789 131.75872803 272.84570312 131.50167847 C 273.62185669 131.37535095 274.34683228 131.25755310 274.94351196 131.24996948 C 275.38931274 131.59652710 275.79202271 132.00102234 276.25125122 132.26643372 C 276.51461792 132.55244446 276.40740967 133.00758362 276.11843872 133.85307312 C 275.75686646 135.04454041 275.14605713 136.23281860 274.14233398 137.44741821 C 272.88354492 138.98698425 271.46954346 140.65835571 269.43890381 142.00929260 C 266.92190552 143.40090942 264.11798096 144.74870300 259.89981079 151.99433899" stroke-width="1.57270730" fill="rgb(182, 32, 22)" opacity="1.0" stroke="rgb(227, 152, 105)" stroke-opacity="0.6726786" stroke-linecap="round" stroke-linejoin="round"/>
    <path d="M 307.28302002 142.65830994 C 308.30401611 146.19499207 309.27346802 149.77395630 310.29000854 153.40972900 C 311.21228027 156.87309265 311.90505981 160.24935913 312.33059692 163.50119019 C 313.35983276 166.35044861 314.12789917 168.80064392 314.71954346 170.87454224 C 315.30511475 172.25251770 315.48510742 173.28611755 315.15264893 173.84027100 C 314.31283569 173.62213135 313.38430786 172.66400146 312.78128052 171.16813660 C 312.49362183 169.19325256 311.73785400 166.99736023 310.65411377 164.72605896 C 309.93234253 162.17337036 309.36553955 159.49415588 308.53189087 156.70213318 C 307.79647827 153.85414124 307.41146851 150.88851929 307.37283325 147.80920410 C 307.37249756 144.74319458 307.85952759 141.85501099 308.78823853 139.05792236 C 309.90344238 136.22732544 310.99163818 133.36155701 312.01678467 130.48709106 C 312.88961792 127.73516083 313.61419678 125.16903687 314.52658081 122.94903564 C 315.72470093 120.90680695 316.97534180 118.94060516 318.02099609 117.37615204 C 318.65875244 115.98596191 318.96011353 114.72326660 318.98477173 113.58581543 C 318.80447388 112.68013763 318.60449219 112.08834076 318.46139526 111.80545044 C 318.63421631 111.77111053 319.15872192 111.88789368 319.65698242 112.23854828 C 319.82147217 112.87366486 319.76049805 113.70738220 319.69390869 114.71453857 C 319.67282104 115.97812653 319.65994263 117.46340179 319.66293335 119.02917480 C 319.51742554 120.63473511 319.16809082 122.24211121 318.59829712 123.79886627 C 317.74331665 125.30880737 316.58529663 126.82328796 315.26858521 128.34391785 C 313.95571899 129.86599731 312.72900391 131.28215027 307.28302002 142.65830994" stroke-width="1.24715602" fill="rgb(197, 111, 196)" opacity="1.0" stroke="rgb(192, 86, 206)" stroke-opacity="0.4009886" stroke-linecap="round" stroke-linejoin="round"/>
    <path d="M 357.39938354 354.44662476 C 351.05441284 354.00582886 344.73352051 353.63632202 338.53314209 353.73501587 C 332.42413330 354.54925537 326.21551514 356.20278931 319.71112061 358.87448120 C 313.14990234 363.19009399 305.72622681 366.60321045 296.64950562 368.05746460 C 286.47445679 369.75296021 275.04061890 370.01431274 262.93563843 369.76892090 C 249.84022522 368.97506714 236.14930725 368.51278687 222.83961487 367.41149902 C 209.63865662 366.20388794 196.92100525 364.21539307 184.75976562 361.45825195 C 173.02777100 359.85977173 162.15226746 357.66406250 152.36407471 355.64807129 C 143.84924316 355.21975708 136.87197876 355.75619507 131.88270569 355.25775146 C 129.01831055 352.54943848 127.48052216 349.96020508 127.81346130 348.53637695 C 131.75471497 348.37197876 137.27703857 349.03253174 142.86323547 348.62823486 C 146.65997314 345.46374512 150.34600830 342.21612549 155.46281433 341.30184937 C 162.37428284 342.58789062 170.70350647 345.56008911 180.10678101 349.64523315 C 190.38723755 354.05502319 201.82839966 357.25872803 214.23004150 359.15597534 C 226.80137634 360.06988525 239.55354309 360.39605713 252.51306152 361.15185547 C 265.46267700 361.22363281 278.07299805 360.66790771 290.15832520 359.90023804 C 301.50985718 358.67388916 311.97915649 356.00061035 321.68045044 352.66772461 C 331.00070190 351.24475098 340.24960327 351.81683350 349.58160400 353.54367065 C 359.18612671 355.50662231 368.95162964 357.29846191 378.86776733 358.94705200 C 388.91040039 360.56033325 398.96508789 362.27444458 409.11587524 363.99536133 C 419.35836792 365.56683350 429.53610229 367.15188599 357.39938354 354.44662476" stroke-width="1.36356688" fill="rgb(4, 5, 4)" opacity="1.0" stroke="rgb(0, 8, 21)" stroke-opacity="0.46592426" stroke-linecap="round" stroke-linejoin="round"/>
    <path d="M 163.81501770 355.13989258 C 163.53022766 358.81225586 162.68090820 362.16680908 161.01730347 364.79022217 C 158.75317383 366.99493408 156.12283325 368.98849487 152.98001099 369.91387939 C 149.26216125 368.33865356 144.88426208 367.13955688 140.03616333 367.27569580 C 135.06935120 368.18518066 130.32905579 369.35504150 126.21967316 370.73751831 C 122.93414307 372.51400757 120.94986725 375.07681274 120.67458344 377.70046997 C 121.92717743 379.72183228 123.15167999 381.19860840 122.75221252 382.62896729 C 120.82312012 384.26904297 119.16681671 385.84515381 118.08618927 386.13763428 C 116.60473633 383.92755127 114.23018646 380.75036621 110.80786133 377.57443237 C 106.73493195 374.10607910 102.66929626 370.28659058 99.07769012 365.96252441 C 96.04959106 361.55133057 92.59751129 358.15359497 88.46819305 355.94915771 C 84.35404205 354.13714600 81.57506561 352.65182495 80.17958069 351.82559204 C 80.01390839 351.63717651 81.22901917 351.38369751 83.18164825 351.52331543 C 85.32997131 351.93917847 87.20262909 351.04238892 88.84492493 349.06826782 C 90.77578735 346.89007568 92.19473267 344.59020996 91.80685425 342.29492188 C 90.45313263 340.20669556 89.92602539 338.26306152 90.48409271 336.21789551 C 92.07435608 334.77410889 94.41405487 334.04598999 97.58351135 334.57269287 C 101.62229156 336.43145752 106.02433014 339.64199829 110.52069092 344.07559204 C 115.43761444 348.68249512 120.78512573 352.72457886 126.65196991 355.71038818 C 132.98937988 357.02633667 139.77340698 356.83914185 146.71647644 355.69387817 C 153.78253174 354.57229614 161.12220764 353.21716309 163.81501770 355.13989258" stroke-width="2.00000000" fill="rgb(237, 236, 227)" opacity="1.0" stroke="rgb(69, 116, 59)" stroke-opacity="0.7564926" stroke-linecap="round" stroke-linejoin="round"/>
    <path d="M 260.43762207 144.52101135 C 258.48080444 148.18252563 256.88638306 151.82273865 255.80914307 155.39280701 C 254.89982605 158.85125732 254.09236145 162.08197021 253.63691711 165.00656128 C 253.48561096 167.50074768 253.11245728 169.47714233 252.29220581 170.89109802 C 251.30020142 171.75755310 250.28019714 171.86601257 249.62678528 171.25381470 C 249.19041443 169.94184875 249.32487488 167.88917542 249.57739258 165.43873596 C 249.23500061 162.79107666 249.85795593 159.79891968 250.74845886 156.56718445 C 251.84655762 153.11824036 253.06170654 149.73782349 254.18392944 146.47750854 C 255.27253723 143.48789978 256.45440674 140.98298645 257.96527100 139.10130310 C 259.99291992 138.01156616 261.45486450 137.06631470 261.69903564 135.16595459 C 261.24264526 132.48712158 259.95874023 129.21145630 258.99453735 125.00298309 C 257.79895020 120.52431488 256.40960693 115.69371796 254.93502808 110.65015411 C 253.07878113 105.94654083 251.96279907 101.10221100 251.39570618 96.21741486 C 250.28987122 92.38309479 250.13354492 88.84721375 250.66567993 85.74031830 C 251.35247803 83.26022339 252.00006104 81.70833588 252.67324829 81.12769318 C 252.76904297 82.01612854 253.01440430 83.95946503 253.52264404 86.50592804 C 253.47248840 89.21686554 254.71273804 91.99552155 255.93991089 95.29568481 C 257.52133179 99.00015259 259.36911011 102.76160431 261.36672974 106.35263824 C 263.20352173 110.19007111 265.30364990 113.63925171 267.30221558 117.02343750 C 268.84130859 120.54090881 270.76376343 123.90956879 272.52423096 127.06617737 C 274.34716797 130.08352661 276.22442627 133.36093140 260.43762207 144.52101135" stroke-width="1.82654905" fill="rgb(22, 9, 12)" opacity="1.0" stroke="rgb(0, 0, 4)" stroke-opacity="0.46289012" stroke-linecap="round" stroke-linejoin="round"/>
    <path d="M 399.93548584 370.02911377 C 397.94070435 369.14703369 396.32122803 368.07452393 395.19302368 366.32839966 C 393.48587036 364.99508667 391.59539795 363.85641479 389.73736572 362.82684326 C 387.69387817 362.12265015 385.91040039 361.55624390 384.02853394 361.82431030 C 381.86172485 362.65765381 379.44064331 363.60574341 376.61224365 364.48107910 C 373.21588135 365.32165527 369.82888794 365.81646729 366.18212891 365.69897461 C 362.23373413 366.43682861 358.18310547 366.52020264 354.28582764 366.51116943 C 350.85308838 366.64331055 347.82656860 365.87875366 344.93200684 364.83209229 C 342.22274780 364.05032349 340.09027100 363.18756104 338.71670532 362.54727173 C 338.32958984 361.23358154 338.83502197 359.57546997 339.99578857 357.79653931 C 341.65643311 356.05847168 343.69149780 354.63952637 346.00231934 353.80523682 C 348.38165283 353.72320557 350.54000854 354.10943604 352.39526367 354.50942993 C 353.77902222 353.92065430 355.42288208 352.58026123 357.39068604 351.17242432 C 359.63064575 349.74725342 362.12362671 348.25723267 364.87316895 347.18789673 C 367.87283325 346.17068481 371.12088013 345.37673950 374.06237793 344.46359253 C 377.16653442 344.34802246 380.18960571 344.34161377 383.00988770 344.24057007 C 386.00360107 344.87231445 388.71710205 346.14981079 391.50704956 347.78396606 C 394.41394043 349.42773438 397.23480225 351.17858887 400.17849731 352.74224854 C 403.08013916 354.43252563 405.75543213 356.37536621 408.14007568 358.68539429 C 410.53024292 361.06274414 412.89495850 363.29168701 414.64196777 366.21191406 C 416.56738281 369.25271606 418.39984131 372.41693115 399.93548584 370.02911377" stroke-width="1.75109303" fill="rgb(21, 12, 11)" opacity="1.0" stroke="rgb(120, 117, 110)" stroke-opacity="0.88111013" stroke-linecap="round" stroke-linejoin="round"/>
    <path d="M 199.50703430 151.37432861 C 195.50433350 153.46273804 191.51164246 155.33518982 187.63784790 156.44409180 C 184.51359558 157.55094910 182.05708313 159.37100220 179.45570374 160.18994141 C 176.65216064 159.38710022 173.67169189 158.44566345 172.02671814 157.56632996 C 172.65965271 156.89282227 174.61428833 155.53446960 176.41557312 153.02902222 C 178.38337708 149.47508240 180.19592285 145.41716003 182.70419312 141.22418213 C 186.13711548 137.57931519 189.57666016 133.66110229 193.02067566 129.88816833 C 196.22418213 126.48267365 199.44338989 124.62319946 202.32382202 124.46381378 C 202.90721130 122.28191376 202.71852112 119.08266449 202.22229004 115.52657318 C 200.25149536 112.37790680 197.61213684 109.25315857 194.93402100 105.99368286 C 191.64921570 103.63140106 188.05615234 101.67324829 184.77252197 99.65161896 C 182.20025635 97.09738922 179.50856018 95.40731049 176.67762756 94.57707977 C 174.15476990 94.15571594 172.55696106 92.99720001 171.99757385 91.60472107 C 172.54788208 91.09809113 174.19247437 91.18897247 176.71229553 91.65087128 C 179.40240479 93.06355286 182.74058533 94.32817841 186.50450134 95.35494995 C 190.19654846 97.03929138 193.76893616 99.41936493 197.31187439 102.07484436 C 200.84594727 104.83602142 204.00387573 107.95040131 206.82659912 111.33393097 C 209.58016968 114.58290100 211.76203918 118.04997253 213.38659668 121.56806946 C 214.64524841 124.72194672 214.66896057 128.00958252 214.51156616 131.42791748 C 213.80403137 134.67732239 212.54655457 137.58462524 210.33641052 140.01684570 C 208.53601074 143.27026367 206.71311951 146.68882751 199.50703430 151.37432861" stroke-width="1.84735453" fill="rgb(67, 26, 18)" opacity="1.0" stroke="rgb(123, 99, 58)" stroke-opacity="0.6222781" stroke-linecap="round" stroke-linejoin="round"/>
    <path d="M 418.55163574 399.28848267 C 418.56829834 400.53591919 418.45962524 401.78878784 418.43307495 403.20147705 C 417.99099731 404.29241943 417.25253296 405.47042847 416.51382446 406.64605713 C 415.85235596 407.82220459 415.37149048 408.86166382 414.67361450 409.37097168 C 414.03082275 409.59359741 413.32232666 409.72973633 412.80877686 409.49560547 C 412.33786011 409.56637573 412.22369385 409.49002075 412.36578369 409.05181885 C 412.65084839 408.56445312 412.27059937 407.76406860 411.64443970 406.40811157 C 411.62612915 405.06890869 411.56808472 403.68798828 411.41278076 402.68106079 C 412.17013550 402.01400757 412.68707275 401.36221313 412.91354370 400.50488281 C 413.55407715 400.45010376 414.19122314 400.26126099 414.51980591 399.45565796 C 415.33822632 398.62130737 416.12362671 397.54171753 418.55163574 399.28848267" stroke-width="1.73128855" fill="rgb(25, 30, 26)" opacity="1.0" stroke="rgb(123, 142, 100)" stroke-opacity="0.6604343" stroke-linecap="round" stroke-linejoin="round"/>
    <path d="M 308.62426758 148.55979919 C 310.77987671 154.48385620 313.43203735 160.00140381 315.56555176 165.63403320 C 317.87872314 170.90628052 319.57473755 175.99818420 320.30426025 180.68180847 C 320.96130371 184.67213440 321.67034912 187.73274231 321.42053223 189.75910950 C 319.81753540 190.61265564 317.58535767 190.54490662 315.69616699 189.80366516 C 314.76681519 188.59004211 315.45108032 187.15473938 316.78179932 185.11294556 C 316.98452759 182.02111816 316.05462646 177.93324280 315.42257690 173.28237915 C 314.36730957 168.35929871 312.52899170 163.41769409 310.32150269 158.43649292 C 308.10122681 153.67933655 305.58822632 149.39390564 303.79306030 145.38447571 C 303.53576660 141.41415405 304.34924316 137.28086853 305.95422363 133.40525818 C 308.72882080 129.83526611 312.32754517 126.84307098 315.94805908 123.99900818 C 318.76248169 120.73468018 319.93685913 116.93134308 319.73483276 112.65077209 C 318.76181030 108.39714050 316.31225586 104.77939606 312.48239136 101.52854919 C 308.79031372 97.87813568 305.51208496 94.83741760 303.07830811 93.15541840 C 303.20028687 92.09004974 304.80560303 91.60124969 306.68249512 91.84390259 C 308.08581543 93.16986084 309.35183716 95.47452545 311.55682373 98.03110504 C 314.64682007 100.97220612 318.32534790 103.87368774 322.37829590 106.40988159 C 325.57073975 109.78172302 328.75543213 112.25543213 331.11935425 114.04231262 C 331.96017456 116.18839264 330.45901489 117.65282440 327.16302490 119.44223022 C 324.06277466 122.83813477 320.07009888 126.80217743 315.57974243 131.39126587 C 310.96508789 136.61019897 305.95700073 141.84140015 308.62426758 148.55979919" stroke-width="1.41986489" fill="rgb(21, 16, 14)" opacity="1.0" stroke="rgb(24, 19, 0)" stroke-opacity="0.4683244" stroke-linecap="round" stroke-linejoin="round"/>
    <path d="M 348.31057739 350.78906250 C 348.10925293 354.55218506 346.93728638 357.75173950 344.57186890 359.99114990 C 341.11215210 361.19674683 337.18637085 362.13708496 333.74057007 363.50463867 C 330.93460083 365.24429321 328.94689941 367.18896484 327.94216919 369.48666382 C 327.60015869 371.70169067 327.98086548 373.78182983 328.69738770 375.75744629 C 330.08377075 377.11492920 331.52062988 378.63937378 333.14077759 380.12106323 C 335.68334961 381.03625488 338.51092529 381.84991455 341.44644165 382.50289917 C 344.21365356 383.00830078 346.58959961 383.44287109 348.37847900 384.50289917 C 349.78765869 385.07177734 350.62106323 385.43023682 350.67605591 385.72763062 C 349.49349976 386.37048340 347.62713623 386.67190552 345.28576660 387.33465576 C 342.59436035 387.85839844 339.64965820 388.42337036 336.45391846 389.12762451 C 333.12890625 389.39285278 329.79321289 389.70874023 326.95001221 389.75885010 C 324.69244385 389.54476929 322.97869873 389.64569092 321.81161499 389.99255371 C 321.12139893 389.79089355 321.10076904 388.85998535 321.19589233 387.37182617 C 321.10623169 385.52612305 321.16326904 383.31442261 321.08718872 380.77380371 C 321.61535645 378.37078857 322.10269165 376.00888062 322.46194458 373.52743530 C 322.21496582 370.91180420 322.65170288 368.23144531 322.90100098 365.38012695 C 323.50021362 362.66763306 323.87609863 359.99163818 324.11950684 357.56967163 C 324.82971191 355.42196655 325.84973145 353.53237915 327.19592285 351.97631836 C 329.00616455 350.96078491 331.01052856 350.03991699 333.20556641 349.00802612 C 335.22479248 347.64236450 337.29595947 346.57394409 348.31057739 350.78906250" stroke-width="1.48481178" fill="rgb(2, 6, 5)" opacity="1.0" stroke="rgb(0, 25, 15)" stroke-opacity="0.5400431" stroke-linecap="round" stroke-linejoin="round"/>
    <path d="M 225.37078857 380.93353271 C 223.90023804 381.39486694 222.61698914 382.10641479 221.00784302 382.96594238 C 219.20140076 383.60952759 217.19807434 384.28744507 214.67883301 385.09161377 C 212.15762329 385.74594116 209.59013367 386.24734497 206.78463745 386.23181152 C 204.05758667 386.78292847 201.54672241 387.46768188 198.95007324 387.64266968 C 196.37290955 388.48159790 193.96878052 389.23361206 191.48004150 389.78222656 C 189.06428528 390.83523560 186.65933228 391.90600586 184.46948242 393.08193970 C 182.04229736 393.90737915 179.61529541 394.77221680 177.24742126 395.32369995 C 175.02542114 395.68420410 173.14648438 396.41503906 171.39953613 396.79843140 C 170.12561035 397.46270752 169.25643921 397.58444214 168.24987793 397.36453247 C 167.31481934 397.41317749 166.63665771 397.31146240 166.33514404 396.93798828 C 166.46408081 396.31896973 167.21981812 395.52120972 168.41081238 394.56558228 C 170.13558960 393.73760986 172.16250610 392.89895630 174.27526855 392.09564209 C 176.07170105 390.92248535 177.71258545 389.29718018 179.62132263 387.83486938 C 181.43989563 386.27584839 183.38040161 384.76184082 185.33471680 383.50558472 C 187.00369263 381.96826172 188.40260315 380.29959106 189.69522095 378.91265869 C 191.20443726 378.25747681 192.74981689 377.85681152 194.56378174 377.89291382 C 196.47491455 377.90338135 198.63098145 378.12219238 200.86450195 378.46200562 C 203.16950989 378.59643555 205.59175110 378.71731567 208.02957153 378.71688843 C 210.13772583 379.15148926 212.19386292 379.78094482 214.42567444 379.86492920 C 216.60591125 380.17770386 218.68115234 380.46795654 225.37078857 380.93353271" stroke-width="1.31913805" fill="rgb(22, 29, 10)" opacity="1.0" stroke="rgb(122, 140, 99)" stroke-opacity="0.8754172" stroke-linecap="round" stroke-linejoin="round"/>
    <path d="M 162.34320068 232.16847229 C 166.23162842 237.18389893 168.51713562 243.13772583 169.12326050 250.46597290 C 168.70759583 258.88494873 167.79248047 268.09692383 167.22485352 277.86907959 C 166.73281860 287.83093262 166.00337219 297.79837036 165.42520142 307.49130249 C 165.42649841 316.52551270 165.18157959 324.33200073 165.38029480 330.61761475 C 166.19715881 334.88583374 166.90431213 336.87011719 166.00474548 336.70288086 C 162.87017822 335.16213989 159.14659119 331.58798218 155.33337402 326.29287720 C 151.70581055 320.08264160 149.34382629 312.39553833 147.74105835 303.73477173 C 146.61540222 294.53192139 146.47210693 284.73168945 145.90505981 275.08728027 C 145.92779541 265.83151245 146.02072144 256.94894409 145.62582397 248.64338684 C 145.28295898 241.32203674 145.24224854 235.36526489 144.18264771 230.90242004 C 140.83033752 228.15098572 136.65220642 226.03746033 133.43746948 223.02137756 C 131.17556763 219.71371460 130.95552063 217.36746216 133.05786133 216.54885864 C 136.04396057 218.27102661 139.68739319 221.57316589 144.03074646 225.51995850 C 148.91493225 228.72998047 154.12406921 230.78242493 159.24775696 231.70588684 C 162.80436707 233.66305542 164.84997559 236.56924438 165.16534424 239.50860596 C 163.76789856 241.69723511 161.20712280 242.75363159 157.98962402 243.15335083 C 154.99281311 244.58139038 153.30220032 247.45092773 153.25891113 251.92485046 C 152.96839905 257.57144165 152.43258667 264.30639648 152.39906311 272.09677124 C 152.31752014 280.44067383 151.56950378 289.03854370 152.47407532 298.05517578 C 154.97282410 307.84689331 158.83944702 317.69436646 162.34320068 232.16847229" stroke-width="1.24966228" fill="rgb(252, 252, 241)" opacity="1.0" stroke="rgb(252, 229, 203)" stroke-opacity="0.67197776" stroke-linecap="round" stroke-linejoin="round"/>
    <path d="M 247.68943787 176.19017029 C 250.35121155 176.11793518 252.67767334 175.77894592 254.46290588 174.86618042 C 256.00820923 173.55171204 257.40896606 172.27690125 258.36337280 171.00415039 C 259.04306030 170.29830933 259.55187988 170.35317993 259.96673584 171.34112549 C 260.37347412 172.89036560 260.79479980 174.57418823 261.39358521 176.26800537 C 261.98236084 177.98315430 262.66098022 179.56596375 263.50711060 180.80915833 C 264.29821777 181.77444458 264.80316162 182.59980774 264.83865356 183.33253479 C 264.31716919 183.77456665 263.25512695 183.87582397 261.79122925 183.55609131 C 260.12338257 182.85662842 258.25021362 182.44375610 256.24838257 182.48312378 C 254.08859253 182.53794861 251.74461365 182.47561646 249.36769104 182.49836731 C 247.07716370 182.72224426 244.88475037 182.90159607 247.68943787 176.19017029" stroke-width="2.00000000" fill="rgb(230, 235, 134)" opacity="1.0" stroke="rgb(226, 215, 121)" stroke-opacity="0.4565831" stroke-linecap="round" stroke-linejoin="round"/>
    <path d="M 330.34432983 224.67335510 C 331.44549561 223.91156006 332.59664917 223.31053162 334.11260986 223.24768066 C 335.42922974 222.77088928 336.73324585 221.77122498 338.03045654 220.68411255 C 339.81781006 220.46076965 341.56634521 219.93975830 342.88800049 218.89205933 C 344.50888062 218.27456665 345.99868774 217.40014648 347.53582764 216.60186768 C 349.34756470 216.38446045 351.32156372 216.02513123 353.27621460 215.66683960 C 355.25933838 215.53625488 356.98104858 215.46592712 358.44598389 215.26661682 C 359.66430664 215.47328186 360.68072510 215.37699890 361.27459717 215.28684998 C 361.42749023 215.96134949 361.86929321 216.48114014 362.58062744 216.88824463 C 362.72781372 217.72488403 362.69213867 218.63456726 362.37258911 219.54609680 C 362.40719604 220.41120911 362.42816162 221.17520142 362.21578979 221.34529114 C 361.60137939 221.52442932 360.32705688 221.61447144 358.75827026 221.48634338 C 357.61547852 222.39677429 356.31588745 223.25263977 354.70416260 223.60440063 C 353.03060913 223.45187378 351.50411987 223.58325195 350.18670654 224.39982605 C 348.41275024 224.38911438 346.71975708 224.34790039 345.53909302 224.47485352 C 344.97833252 225.11639404 344.62493896 225.66310120 343.96334839 225.68228149 C 342.63415527 225.55625916 340.74325562 225.68952942 338.87954712 225.73619080 C 337.59457397 226.55760193 336.13400269 226.50178528 334.55850220 226.76248169 C 333.17959595 226.57969666 332.11920166 226.29437256 331.58135986 226.30441284 C 331.37747192 226.85725403 331.44784546 227.97007751 331.13836670 229.04985046 C 330.68731689 229.79626465 330.98852539 230.34442139 330.34432983 224.67335510" stroke-width="2.00000000" fill="rgb(227, 179, 28)" opacity="1.0" stroke="rgb(37, 10, 8)" stroke-opacity="1.0" stroke-linecap="round" stroke-linejoin="round"/>
    <path d="M 309.87365723 200.41748047 C 310.69989014 200.03431702 311.66555786 200.09764099 312.64013672 200.22300720 C 313.59362793 200.01121521 314.61306763 200.00267029 315.55499268 200.25178528 C 316.42541504 200.06838989 317.41989136 200.14913940 318.28643799 200.19743347 C 319.13784790 200.66191101 320.05599976 200.74971008 320.99255371 200.79808044 C 321.66210938 201.54182434 322.59805298 202.25975037 323.65249634 202.64466858 C 324.37374878 203.36868286 325.07241821 204.20428467 325.89016724 204.94923401 C 326.70239258 205.59782410 327.63174438 206.21200562 328.40258789 206.79841614 C 328.66592407 207.74748230 329.13430786 208.43426514 329.42388916 209.03099060 C 329.25372314 209.35807800 328.70050049 209.45645142 328.08349609 209.48065186 C 327.65625000 210.01850891 327.11938477 210.48472595 326.40460205 210.53840637 C 325.58880615 210.34255981 324.72167969 210.65046692 324.19366455 211.36709595 C 322.97140503 211.31265259 321.64743042 211.21421814 320.53137207 211.27140808 C 319.72189331 210.71655273 318.73736572 210.48974609 317.57257080 210.40589905 C 316.28030396 210.31097412 315.28027344 209.79190063 314.23922729 209.18925476 C 313.22213745 208.41461182 312.16906738 207.75845337 310.89129639 207.50559998 C 310.05337524 206.68820190 309.23742676 205.89033508 308.45581055 205.48225403 C 307.62942505 205.54426575 307.04495239 205.32041931 306.68038940 204.72492981 C 306.17190552 204.09790039 305.44631958 203.69207764 304.76699829 203.19137573 C 304.28491211 202.50024414 303.82147217 201.80711365 303.20504761 201.18716431 C 302.56054688 200.70979309 301.89575195 200.64071655 309.87365723 200.41748047" stroke-width="1.32695091" fill="rgb(245, 247, 248)" opacity="1.0" stroke="rgb(118, 122, 149)" stroke-opacity="0.8439859" stroke-linecap="round" stroke-linejoin="round"/>
    <path d="M 261.15606689 205.43026733 C 263.31903076 205.48445129 265.47631836 205.35902405 267.65411377 205.14285278 C 269.75039673 204.96163940 271.78344727 204.71908569 274.00796509 204.63932800 C 276.33508301 204.72016907 278.70092773 204.67189026 280.98910522 204.43299866 C 283.35256958 204.23448181 285.57882690 204.02365112 287.75610352 203.86781311 C 289.98312378 203.91026306 292.13229370 203.94879150 294.13626099 204.00416565 C 295.87915039 204.03408813 297.43423462 204.23635864 298.73345947 204.67602539 C 299.50405884 205.43041992 300.06414795 206.00691223 300.73114014 206.41217041 C 301.34915161 206.62977600 301.64465332 206.97300720 301.58432007 207.20616150 C 301.15881348 207.24319458 300.39013672 207.36164856 299.45666504 207.48927307 C 298.26037598 207.66841125 296.79696655 207.69897461 295.10571289 207.52577209 C 293.33334351 207.65965271 291.43930054 207.68447876 289.39871216 207.67929077 C 287.20211792 207.58517456 284.97015381 207.49665833 282.78543091 207.41020203 C 280.73535156 207.17436218 278.64199829 207.07669067 276.51730347 207.27957153 C 274.36047363 207.33282471 272.21850586 207.30767822 270.03570557 207.18507385 C 267.93399048 207.26484680 265.91622925 207.47636414 263.88439941 207.40916443 C 261.91162109 207.36776733 260.06826782 207.32005310 258.38568115 207.32252502 C 256.84655762 207.35891724 255.39047241 207.42166138 254.07778931 207.51464844 C 253.01443481 207.58087158 252.27894592 207.45867920 251.84977722 207.21145630 C 251.76484680 206.89245605 251.78033447 206.47178650 251.73715210 206.02008057 C 251.45773315 205.61466980 251.05889893 205.41856384 261.15606689 205.43026733" stroke-width="1.11973333" fill="rgb(191, 114, 42)" opacity="1.0" stroke="rgb(102, 47, 23)" stroke-opacity="0.8642563" stroke-linecap="round" stroke-linejoin="round"/>
    <path d="M 112.74346161 325.07485962 C 110.66234589 325.54129028 108.90403748 325.96441650 107.34796906 326.38330078 C 106.13156891 326.33898926 105.28575897 326.07440186 105.10185242 325.21469116 C 105.27046204 323.89828491 105.59244537 322.44937134 106.42168427 320.87869263 C 106.95078278 319.02355957 107.86950684 317.21887207 108.63752747 315.29870605 C 109.43709564 313.55191040 110.64372253 312.05023193 112.15093994 310.87951660 C 113.57927704 310.47857666 114.52583313 309.74911499 115.08298492 308.57754517 C 115.66233826 307.85446167 116.48681641 308.03939819 117.26535797 308.76290894 C 117.43290710 309.72814941 117.56072998 311.03247070 118.06207275 312.41052246 C 118.49789429 313.90063477 119.15278625 315.64135742 119.56542969 317.58291626 C 120.11653900 319.38073730 120.36652374 321.18966675 112.74346161 325.07485962" stroke-width="1.39671469" fill="rgb(6, 13, 6)" opacity="1.0" stroke="rgb(85, 133, 109)" stroke-opacity="0.8005801" stroke-linecap="round" stroke-linejoin="round"/>
    <path d="M 247.88359070 391.55670166 C 244.92126465 391.84100342 242.36915588 391.67797852 240.34611511 391.58255005 C 238.94004822 391.10400391 237.87020874 390.05355835 237.06974792 388.72595215 C 236.11888123 387.42370605 235.43595886 386.27713013 235.27949524 384.92132568 C 235.28741455 383.75875854 234.79512024 382.89834595 234.23733521 382.36514282 C 234.18328857 381.97521973 234.56835938 381.64285278 235.26620483 381.38262939 C 236.15280151 381.31970215 237.17108154 381.68041992 238.48802185 382.21551514 C 240.25834656 382.29318237 241.98699951 382.31781006 243.51374817 381.96490479 C 244.64097595 382.33847046 245.63633728 382.51473999 246.70817566 382.45446777 C 248.08071899 383.08685303 249.71192932 383.73144531 251.48760986 384.28924561 C 253.09669495 385.69970703 254.54647827 387.57452393 247.88359070 391.55670166" stroke-width="1.75897050" fill="rgb(4, 8, 6)" opacity="1.0" stroke="rgb(107, 129, 77)" stroke-opacity="0.80255765" stroke-linecap="round" stroke-linejoin="round"/>
    <path d="M 246.41844177 419.68649292 C 247.53074646 418.45697021 248.23121643 417.22271729 248.85789490 415.92935181 C 249.95195007 415.55676270 251.05592346 415.08367920 252.02177429 414.38537598 C 253.30961609 414.17147827 254.39007568 413.76354980 255.40255737 413.66186523 C 256.33096313 413.95370483 257.21328735 414.32675171 258.00607300 414.88223267 C 258.54135132 415.69955444 259.06958008 416.78091431 259.53720093 417.79827881 C 259.37680054 418.94775391 259.17141724 420.32211304 259.13229370 421.76068115 C 258.68252563 423.02410889 257.86120605 424.07244873 257.07260132 425.24575806 C 255.94299316 426.21688843 254.57550049 426.90225220 253.05731201 427.52520752 C 251.36669922 427.82501221 249.96325684 427.65863037 248.90567017 426.74118042 C 247.42749023 426.59695435 245.93763733 426.73284912 246.41844177 419.68649292" stroke-width="1.63481200" fill="rgb(14, 16, 12)" opacity="1.0" stroke="rgb(120, 128, 116)" stroke-opacity="0.81921864" stroke-linecap="round" stroke-linejoin="round"/>
    <path d="M 104.50346375 183.73306274 C 105.36940002 182.62149048 105.89860535 181.50915527 106.54719543 180.50120544 C 107.49199677 180.14910889 108.40603638 179.77217102 109.01080322 179.29862976 C 109.50364685 179.57110596 110.35984039 180.18051147 111.24960327 180.67102051 C 111.95186615 181.85916138 112.61859894 183.09074402 113.53028870 184.35368347 C 114.01539612 185.65309143 114.50453186 187.14106750 114.45722961 188.58644104 C 114.09498596 190.02052307 113.80803680 191.35350037 113.10365295 192.53799438 C 112.47995758 193.65000916 111.97707367 194.77182007 111.20150757 195.56832886 C 109.98105621 195.84757996 108.96748352 196.01232910 107.86907196 195.60350037 C 106.84480286 194.83016968 105.71558380 194.02233887 105.18812561 192.71676636 C 104.50736237 191.89828491 103.80587006 191.16181946 104.50346375 183.73306274" stroke-width="1.75141144" fill="rgb(6, 10, 104)" opacity="1.0" stroke="rgb(82, 127, 186)" stroke-opacity="0.73246396" stroke-linecap="round" stroke-linejoin="round"/>
    <path d="M 92.49051666 278.50845337 C 92.69657135 277.33273315 93.32606506 276.41989136 94.24884033 275.75000000 C 95.24014282 275.53945923 96.13636780 275.73645020 97.02571106 276.15921021 C 97.74115753 276.66409302 98.22834778 277.54885864 98.55715179 278.55163574 C 98.74794006 279.79574585 99.08945465 281.16793823 99.86738586 282.44271851 C 100.31515503 283.76461792 100.20991516 285.23458862 100.23526001 286.69403076 C 100.05763245 287.91357422 99.76313019 288.90783691 99.78111267 289.72067261 C 99.52986145 290.30764771 99.02917480 290.44351196 98.41798401 290.14788818 C 97.58361816 289.53396606 96.49954224 288.96679688 95.23915100 288.31292725 C 93.76856232 287.98721313 92.18814850 287.18798828 90.92610931 285.86468506 C 89.62184143 284.15655518 88.32395172 282.14553833 92.49051666 278.50845337" stroke-width="1.50641775" fill="rgb(2, 70, 52)" opacity="1.0" stroke="rgb(75, 156, 137)" stroke-opacity="0.7770651" stroke-linecap="round" stroke-linejoin="round"/>
    <path d="M 119.15975952 368.81549072 C 113.92656708 368.10226440 109.17699432 368.49484253 105.86283875 370.19375610 C 104.26235962 372.32723999 102.60804749 371.83871460 100.35919189 369.07873535 C 97.11357117 366.30352783 94.73178101 362.70938110 92.72328949 359.16375732 C 90.38562775 356.79150391 87.69054413 355.41012573 85.17112732 354.30303955 C 83.23392487 353.27154541 82.18738556 352.55319214 82.17582703 352.14605713 C 83.12549591 352.48858643 84.83341980 352.30557251 86.79189301 351.23287964 C 89.12442017 349.03271484 91.46206665 346.39270020 93.06464386 343.05908203 C 94.28668976 339.68325806 94.82323456 337.07971191 95.77630615 335.68548584 C 98.19428253 336.42358398 102.16267395 337.64535522 107.23585510 338.09326172 C 112.57473755 340.44338989 117.70086670 343.79580688 122.55395508 347.28094482 C 127.14028168 349.48471069 129.82667542 352.77352905 130.79841614 356.36239624 C 129.51539612 359.53890991 129.74906921 361.97665405 132.58363342 363.63195801 C 137.16706848 363.87280273 143.42259216 363.29818726 150.58894348 362.40603638 C 157.99375916 360.46319580 165.26844788 358.05743408 172.15827942 357.23947144 C 177.26754761 358.53863525 178.98497009 361.82568359 177.29768372 366.02636719 C 173.86886597 368.88436890 167.01831055 368.98992920 157.36001587 368.91192627 C 146.35235596 369.47662354 135.97703552 369.94506836 127.62105560 371.59521484 C 122.50675964 374.63763428 122.73444366 379.74902344 122.75734711 385.55303955 C 117.83148193 388.34082031 113.37652588 385.71725464 112.45645142 380.06259155 C 117.24736023 377.74475098 123.96871948 374.86541748 119.15975952 368.81549072" stroke-width="1.39584541" fill="rgb(15, 6, 5)" opacity="1.0" stroke="rgb(3, 20, 0)" stroke-opacity="0.53775656" stroke-linecap="round" stroke-linejoin="round"/>
    <path d="M 302.19689941 441.96884155 C 303.73309326 441.50439453 305.26074219 441.02777100 306.74560547 440.56146240 C 308.14654541 440.14382935 309.41317749 439.65234375 310.58108521 439.16595459 C 311.58605957 438.74310303 312.43463135 438.41488647 313.14971924 438.20755005 C 313.65707397 438.18475342 313.96945190 438.30532837 314.02185059 438.51916504 C 313.82653809 438.76519775 313.42544556 439.02545166 312.83599854 439.21432495 C 312.10165405 439.37814331 311.28405762 439.50961304 310.45144653 439.69442749 C 309.64096069 440.04266357 308.90039062 440.52679443 308.23468018 441.18395996 C 307.63809204 441.96731567 307.05496216 442.78656006 306.42880249 443.66043091 C 305.77636719 444.52120972 305.07040405 445.32922363 304.27096558 446.12109375 C 303.45614624 446.87835693 302.59945679 447.62100220 302.19689941 441.96884155" stroke-width="2.00000000" fill="rgb(221, 242, 219)" opacity="1.0" stroke="rgb(229, 246, 231)" stroke-opacity="0.9178099" stroke-linecap="round" stroke-linejoin="round"/>
  </g>
</svg>
