<svg xmlns="http://www.w3.org/2000/svg" viewBox="0 0 256 256" height="256.0px" width="256.0px">
<path id="" fill="#f4f4f4" fill-opacity="1.0" stroke="#000000" stroke-width="0.0" stroke-opacity="1.0" stroke-linecap="round" stroke-linejoin="round"  filling="0" d="M0.000000 0.000000 C85.333336 0.000000 170.666656 0.000000 256.000000 0.000000 C256.000000 85.333336 256.000000 170.666656 256.000000 256.000000 C170.666656 256.000000 85.333336 256.000000 0.000000 256.000000 C0.000000 170.666656 0.000000 85.333336 0.000000 0.000000"></path>
<path id="" fill="#333333" fill-opacity="1.0" stroke="#000000" stroke-width="0.0" stroke-opacity="1.0" stroke-linecap="round" stroke-linejoin="round"  filling="0" d="M76.000000 94.500000 C110.666672 94.500000 145.333328 94.500000 180.000000 94.500000 C183.727997 94.500000 186.910004 95.818001 189.546005 98.454002 C192.182007 101.089996 193.500000 104.271996 193.500000 108.000000 C193.500000 126.666672 193.500000 145.333328 193.500000 164.000000 C193.500000 167.727997 192.182007 170.910004 189.546005 173.546005 C186.910004 176.182007 183.727997 177.500000 180.000000 177.500000 C145.333328 177.500000 110.666672 177.500000 76.000000 177.500000 C72.271996 177.500000 69.089996 176.182007 66.454002 173.546005 C63.818001 170.910004 62.500000 167.727997 62.500000 164.000000 C62.500000 145.333328 62.500000 126.666672 62.500000 108.000000 C62.500000 104.271996 63.818001 101.089996 66.454002 98.454002 C69.089996 95.818001 72.271996 94.500000 76.000000 94.500000"></path>
<path id="" fill="#333333" fill-opacity="1.0" stroke="#000000" stroke-width="0.0" stroke-opacity="1.0" stroke-linecap="round" stroke-linejoin="round"  filling="0" d="M76.000000 97.500000 C73.100670 97.500000 70.625664 98.525002 68.574997 100.574997 C66.525002 102.625664 65.500000 105.100670 65.500000 108.000000 C65.500000 126.666672 65.500000 145.333328 65.500000 164.000000 C65.500000 166.899338 66.525002 169.374329 68.574997 171.425003 C70.625664 173.475006 73.100670 174.500000 76.000000 174.500000 C110.666672 174.500000 145.333328 174.500000 180.000000 174.500000 C182.899338 174.500000 185.374329 173.475006 187.425003 171.425003 C189.475006 169.374329 190.500000 166.899338 190.500000 164.000000 C190.500000 145.333328 190.500000 126.666672 190.500000 108.000000 C190.500000 105.100670 189.475006 102.625664 187.425003 100.574997 C185.374329 98.525002 182.899338 97.500000 180.000000 97.500000 C145.333328 97.500000 110.666672 97.500000 76.000000 97.500000"></path>
<path id="" fill="#8b5a2b" fill-opacity="1.0" stroke="#000000" stroke-width="0.0" stroke-opacity="1.0" stroke-linecap="round" stroke-linejoin="round"  filling="0" d="M78.000000 104.000000 C111.333336 104.000000 144.666656 104.000000 178.000000 104.000000 C179.590683 104.000000 181.117859 104.632576 182.242645 105.757362 C183.367432 106.882149 184.000000 108.409309 184.000000 110.000000 C184.000000 112.666664 184.000000 115.333336 184.000000 118.000000 C184.000000 119.590691 183.367432 121.117851 182.242645 122.242638 C181.117859 123.367424 179.590683 124.000000 178.000000 124.000000 C144.666656 124.000000 111.333336 124.000000 78.000000 124.000000 C76.409309 124.000000 74.882149 123.367424 73.757362 122.242638 C72.632576 121.117851 72.000000 119.590691 72.000000 118.000000 C72.000000 115.333336 72.000000 112.666664 72.000000 110.000000 C72.000000 108.409309 72.632576 106.882149 73.757362 105.757362 C74.882149 104.632576 76.409309 104.000000 78.000000 104.000000"></path>
<path id="" fill="#333333" fill-opacity="1.0" stroke="#000000" stroke-width="0.0" stroke-opacity="1.0" stroke-linecap="round" stroke-linejoin="round"  filling="0" d="M192.000000 106.500000 C197.353333 106.500000 201.554672 109.701668 204.604004 116.105003 C207.201340 121.559006 208.500000 128.190674 208.500000 136.000000 C208.500000 143.809341 207.201340 150.441010 204.604004 155.895004 C201.555344 162.298340 197.354004 165.500000 192.000000 165.500000 C189.305328 165.500000 187.130325 164.878998 185.475006 163.636993 C183.824997 162.399673 183.000000 160.854004 183.000000 159.000000 C183.000000 157.145996 183.824997 155.600327 185.475006 154.363007 C187.130325 153.121002 189.305328 152.500000 192.000000 152.500000 C193.141998 152.500000 194.162659 150.983002 195.061996 147.949005 C196.020660 144.712997 196.500000 140.729996 196.500000 136.000000 C196.500000 131.270004 196.020660 127.287003 195.061996 124.051003 C194.162659 121.016998 193.141998 119.500000 192.000000 119.500000 C189.305328 119.500000 187.130325 118.878998 185.475006 117.637001 C183.824997 116.399666 183.000000 114.853996 183.000000 113.000000 C183.000000 111.146004 183.824997 109.600334 185.475006 108.362999 C187.130325 107.121002 189.305328 106.500000 192.000000 106.500000"></path>
<path id="" fill="#333333" fill-opacity="1.0" stroke="#000000" stroke-width="0.0" stroke-opacity="1.0" stroke-linecap="round" stroke-linejoin="round"  filling="0" d="M192.000000 109.500000 C188.000000 109.500000 186.000000 110.666664 186.000000 113.000000 C186.000000 115.333336 188.000000 116.500000 192.000000 116.500000 C194.635330 116.500000 196.614670 118.733002 197.938004 123.198997 C198.979340 126.712997 199.500000 130.979996 199.500000 136.000000 C199.500000 141.020004 198.979340 145.287003 197.938004 148.800995 C196.614670 153.266998 194.635330 155.500000 192.000000 155.500000 C188.000000 155.500000 186.000000 156.666672 186.000000 159.000000 C186.000000 161.333328 188.000000 162.500000 192.000000 162.500000 C196.090668 162.500000 199.389328 159.868332 201.895996 154.604996 C204.298660 149.558990 205.500000 143.357330 205.500000 136.000000 C205.500000 128.642670 204.298660 122.440994 201.895996 117.394997 C199.389328 112.131668 196.090668 109.500000 192.000000 109.500000"></path>
<path id="" fill="#333333" fill-opacity="1.0" stroke="#000000" stroke-width="0.0" stroke-opacity="1.0" stroke-linecap="round" stroke-linejoin="round"  filling="0" d="M94.751999 84.832001 C92.777336 81.869331 91.945671 78.752998 92.257004 75.483002 C92.437004 73.589668 93.220337 70.909668 94.607002 67.443001 C95.887001 64.243004 96.603668 61.839668 96.757004 60.233002 C97.000999 57.669666 96.332664 55.202667 94.751999 52.832001 C94.197334 52.000000 94.335999 51.306667 95.167999 50.751999 C95.584000 50.474667 95.965332 50.370667 96.311996 50.439999 C96.658669 50.509331 96.970665 50.751999 97.248001 51.167999 C99.222664 54.130665 100.054329 57.246998 99.742996 60.516998 C99.562996 62.410332 98.779663 65.090332 97.392998 68.556999 C96.112999 71.757004 95.396332 74.160332 95.242996 75.766998 C94.999001 78.329666 95.667336 80.796669 97.248001 83.167999 C97.802666 84.000000 97.664001 84.693336 96.832001 85.248001 C96.000000 85.802666 95.306664 85.664001 94.751999 84.832001"></path>
<path id="" fill="#333333" fill-opacity="1.0" stroke="#000000" stroke-width="0.0" stroke-opacity="1.0" stroke-linecap="round" stroke-linejoin="round"  filling="0" d="M126.697998 84.744003 C124.765335 81.362663 123.951004 77.884666 124.254997 74.309998 C124.432999 72.220001 125.211334 69.278999 126.589996 65.487000 C127.877998 61.945000 128.599670 59.261002 128.755005 57.435001 C129.006332 54.481667 128.320663 51.584667 126.697998 48.743999 C126.449997 48.309998 126.372330 47.922333 126.464996 47.581001 C126.558334 47.240334 126.821999 46.945999 127.255997 46.698002 C128.123993 46.201332 128.806000 46.387333 129.302002 47.256001 C131.234665 50.637333 132.048996 54.115334 131.744995 57.689999 C131.567001 59.780666 130.788666 62.721668 129.410004 66.513000 C128.121994 70.054329 127.400330 72.738335 127.245003 74.565002 C126.993668 77.518333 127.679329 80.415337 129.302002 83.255997 C129.798660 84.124001 129.612671 84.806000 128.744003 85.302002 C128.309998 85.550003 127.922333 85.627670 127.581001 85.535004 C127.240334 85.441666 126.945999 85.178001 126.697998 84.744003"></path>
<path id="" fill="#333333" fill-opacity="1.0" stroke="#000000" stroke-width="0.0" stroke-opacity="1.0" stroke-linecap="round" stroke-linejoin="round"  filling="0" d="M158.751999 84.832001 C156.777328 81.869331 155.945663 78.752998 156.257004 75.483002 C156.436996 73.589668 157.220322 70.909668 158.606995 67.443001 C159.886993 64.243004 160.603668 61.839668 160.757004 60.233002 C161.001007 57.669666 160.332672 55.202667 158.751999 52.832001 C158.197327 52.000000 158.335999 51.306667 159.167999 50.751999 C159.584000 50.474667 159.965332 50.370667 160.311996 50.439999 C160.658661 50.509331 160.970673 50.751999 161.248001 51.167999 C163.222672 54.130665 164.054337 57.246998 163.742996 60.516998 C163.563004 62.410332 162.779678 65.090332 161.393005 68.556999 C160.113007 71.757004 159.396332 74.160332 159.242996 75.766998 C158.998993 78.329666 159.667328 80.796669 161.248001 83.167999 C161.802673 84.000000 161.664001 84.693336 160.832001 85.248001 C160.000000 85.802666 159.306671 85.664001 158.751999 84.832001"></path>
<path id="" fill="#333333" fill-opacity="1.0" stroke="#000000" stroke-width="0.0" stroke-opacity="1.0" stroke-linecap="round" stroke-linejoin="round"  filling="0" d="M56.000000 178.500000 C104.000000 178.500000 152.000000 178.500000 200.000000 178.500000 C201.000000 178.500000 201.500000 179.000000 201.500000 180.000000 C201.500000 181.000000 201.000000 181.500000 200.000000 181.500000 C152.000000 181.500000 104.000000 181.500000 56.000000 181.500000 C55.000000 181.500000 54.500000 181.000000 54.500000 180.000000 C54.500000 179.000000 55.000000 178.500000 56.000000 178.500000"></path>
</svg>