<svg xmlns="http://www.w3.org/2000/svg" viewBox="0 0 256 256" height="256.0px" width="256.0px">
<path id="" fill="#FF0000" fill-opacity="1.0" stroke="#000000" stroke-width="0.0" stroke-opacity="1.0" stroke-linecap="round" stroke-linejoin="round"  filling="0" d="M178.000 128.000 C178.000 141.255 172.729 153.982 163.355 163.355 C153.982 172.729 141.255 178.000 128.000 178.000 C114.744 178.000 102.018 172.729 92.645 163.355 C83.271 153.982 78.000 141.255 78.000 128.000 C78.000 114.744 83.271 102.018 92.645 92.645 C102.018 83.271 114.744 78.000 128.000 78.000 C141.255 78.000 153.982 83.271 163.355 92.645 C172.729 102.018 178.000 114.744 178.000 128.000"></path>
<path id="" fill="#FFFFFF" fill-opacity="1.0" stroke="#000000" stroke-width="0.0" stroke-opacity="1.0" stroke-linecap="round" stroke-linejoin="round"  filling="0" d="M110.500 108.000 C110.500 109.326 109.710 110.598 108.303 111.535 C106.897 112.473 104.989 113.000 103.000 113.000 C101.011 113.000 99.103 112.473 97.697 111.535 C96.290 110.598 95.500 109.326 95.500 108.000 C95.500 106.674 96.290 105.402 97.697 104.465 C99.103 103.527 101.011 103.000 103.000 103.000 C104.989 103.000 106.897 103.527 108.303 104.465 C109.710 105.402 110.500 106.674 110.500 108.000"></path>
<path id="" fill="#8B4513" fill-opacity="1.0" stroke="#000000" stroke-width="0.0" stroke-opacity="1.0" stroke-linecap="round" stroke-linejoin="round"  filling="0" d="M127.000 78.000 C127.000 73.000 127.000 68.000 127.000 63.000 C127.666 63.000 128.333 63.000 129.000 63.000 C129.000 68.000 129.000 73.000 129.000 78.000 C128.333 78.000 127.666 78.000 127.000 78.000"></path>
<path id="" fill="#008000" fill-opacity="1.0" stroke="#000000" stroke-width="0.0" stroke-opacity="1.0" stroke-linecap="round" stroke-linejoin="round"  filling="0" d="M128.000 78.000 C121.334 71.334 114.666 69.666 108.000 73.000 C114.666 74.666 121.334 76.334 128.000 78.000"></path>
<path id="" fill="#008000" fill-opacity="1.0" stroke="#000000" stroke-width="0.0" stroke-opacity="1.0" stroke-linecap="round" stroke-linejoin="round"  filling="0" d="M128.000 78.000 C134.667 71.334 141.333 69.666 148.000 73.000 C141.333 74.666 134.667 76.334 128.000 78.000"></path>
<path id="" fill="#51b737" fill-opacity="1.0" stroke="#000000" stroke-width="0.0" stroke-opacity="1.0" stroke-linecap="round" stroke-linejoin="round"  filling="0" d="M126.250 82.500 C126.166 82.584 126.084 82.666 126.000 82.750 C124.666 82.750 123.334 82.750 122.000 82.750 C121.834 82.916 121.666 83.084 121.500 83.250 C119.666 83.250 117.834 83.250 116.000 83.250 C115.834 83.084 115.666 82.916 115.500 82.750 C114.000 82.750 112.500 82.750 111.000 82.750 C110.834 82.584 110.666 82.416 110.500 82.250 C110.000 82.250 109.500 82.250 109.000 82.250 C108.834 82.084 108.666 81.916 108.500 81.750 C108.334 81.750 108.166 81.750 108.000 81.750 C107.834 81.584 107.666 81.416 107.500 81.250 C107.334 81.250 107.166 81.250 107.000 81.250 C105.750 80.000 104.500 78.750 103.250 77.500 C103.250 77.334 103.250 77.166 103.250 77.000 C102.916 76.666 102.584 76.334 102.250 76.000 C102.250 75.834 102.250 75.666 102.250 75.500 C102.084 75.334 101.916 75.166 101.750 75.000 C101.750 74.834 101.750 74.666 101.750 74.500 C101.416 74.166 101.084 73.834 100.750 73.500 C100.750 73.334 100.750 73.166 100.750 73.000 C100.584 72.834 100.416 72.666 100.250 72.500 C100.250 72.166 100.250 71.834 100.250 71.500 C99.916 71.000 99.584 70.500 99.250 70.000 C99.250 69.500 99.250 69.000 99.250 68.500 C99.084 68.334 98.916 68.166 98.750 68.000 C98.750 67.000 98.750 66.000 98.750 65.000 C98.834 64.916 98.916 64.834 99.000 64.750 C99.166 64.750 99.334 64.750 99.500 64.750 C100.000 65.084 100.500 65.416 101.000 65.750 C102.000 65.750 103.000 65.750 104.000 65.750 C104.166 65.916 104.334 66.084 104.500 66.250 C106.166 66.250 107.834 66.250 109.500 66.250 C109.666 66.416 109.834 66.584 110.000 66.750 C110.834 66.750 111.666 66.750 112.500 66.750 C112.666 66.916 112.834 67.084 113.000 67.250 C113.500 67.250 114.000 67.250 114.500 67.250 C114.666 67.416 114.834 67.584 115.000 67.750 C115.166 67.750 115.334 67.750 115.500 67.750 C115.666 67.916 115.834 68.084 116.000 68.250 C116.166 68.250 116.334 68.250 116.500 68.250 C116.666 68.416 116.834 68.584 117.000 68.750 C117.166 68.750 117.334 68.750 117.500 68.750 C117.666 68.916 117.834 69.084 118.000 69.250 C118.166 69.250 118.334 69.250 118.500 69.250 C119.916 70.666 121.334 72.084 122.750 73.500 C122.750 73.666 122.750 73.834 122.750 74.000 C123.084 74.334 123.416 74.666 123.750 75.000 C123.750 75.166 123.750 75.334 123.750 75.500 C123.916 75.666 124.084 75.834 124.250 76.000 C124.250 76.166 124.250 76.334 124.250 76.500 C124.584 77.000 124.916 77.500 125.250 78.000 C125.250 78.334 125.250 78.666 125.250 79.000 C125.584 79.500 125.916 80.000 126.250 80.500 C126.250 81.166 126.250 81.834 126.250 82.500"></path>
<path id="" fill="#dca47c" fill-opacity="1.0" stroke="#000000" stroke-width="0.0" stroke-opacity="1.0" stroke-linecap="round" stroke-linejoin="round"  filling="0" d="M128.000 99.750 C127.666 99.750 127.334 99.750 127.000 99.750 C126.750 99.500 126.500 99.250 126.250 99.000 C126.250 96.000 126.250 93.000 126.250 90.000 C126.416 89.834 126.584 89.666 126.750 89.500 C126.750 84.166 126.750 78.834 126.750 73.500 C126.584 73.334 126.416 73.166 126.250 73.000 C126.250 71.834 126.250 70.666 126.250 69.500 C126.084 69.334 125.916 69.166 125.750 69.000 C125.750 68.000 125.750 67.000 125.750 66.000 C125.584 65.834 125.416 65.666 125.250 65.500 C125.250 65.000 125.250 64.500 125.250 64.000 C125.334 63.917 125.416 63.833 125.500 63.750 C127.166 63.750 128.833 63.750 130.500 63.750 C130.667 63.917 130.833 64.084 131.000 64.250 C131.167 64.250 131.333 64.250 131.500 64.250 C131.750 64.500 132.000 64.750 132.250 65.000 C132.250 66.000 132.250 67.000 132.250 68.000 C132.083 68.166 131.917 68.334 131.750 68.500 C131.750 70.500 131.750 72.500 131.750 74.500 C131.583 74.666 131.417 74.834 131.250 75.000 C131.250 77.000 131.250 79.000 131.250 81.000 C131.083 81.166 130.917 81.334 130.750 81.500 C130.750 82.000 130.750 82.500 130.750 83.000 C130.583 83.166 130.417 83.334 130.250 83.500 C130.250 84.834 130.250 86.166 130.250 87.500 C130.083 87.666 129.917 87.834 129.750 88.000 C129.750 89.500 129.750 91.000 129.750 92.500 C129.583 92.666 129.417 92.834 129.250 93.000 C129.250 94.500 129.250 96.000 129.250 97.500 C129.083 97.666 128.917 97.834 128.750 98.000 C128.750 98.334 128.750 98.666 128.750 99.000 C128.500 99.250 128.250 99.500 128.000 99.750"></path>
<path id="" fill="#530605" fill-opacity="1.0" stroke="#000000" stroke-width="0.0" stroke-opacity="1.0" stroke-linecap="round" stroke-linejoin="round"  filling="0" d="M139.750 98.500 C139.667 98.584 139.583 98.666 139.500 98.750 C139.000 98.750 138.500 98.750 138.000 98.750 C137.833 98.916 137.667 99.084 137.500 99.250 C137.000 99.250 136.500 99.250 136.000 99.250 C135.833 99.416 135.667 99.584 135.500 99.750 C135.000 99.750 134.500 99.750 134.000 99.750 C133.833 99.916 133.667 100.084 133.500 100.250 C132.667 100.250 131.833 100.250 131.000 100.250 C130.833 100.416 130.667 100.584 130.500 100.750 C128.500 100.750 126.500 100.750 124.500 100.750 C124.334 100.584 124.166 100.416 124.000 100.250 C123.166 100.250 122.334 100.250 121.500 100.250 C121.334 100.084 121.166 99.916 121.000 99.750 C120.500 99.750 120.000 99.750 119.500 99.750 C119.334 99.584 119.166 99.416 119.000 99.250 C118.334 99.250 117.666 99.250 117.000 99.250 C116.834 99.084 116.666 98.916 116.500 98.750 C116.166 98.750 115.834 98.750 115.500 98.750 C115.250 98.500 115.000 98.250 114.750 98.000 C114.750 97.834 114.750 97.666 114.750 97.500 C114.834 97.416 114.916 97.334 115.000 97.250 C115.834 97.250 116.666 97.250 117.500 97.250 C117.666 97.416 117.834 97.584 118.000 97.750 C119.166 97.750 120.334 97.750 121.500 97.750 C121.666 97.916 121.834 98.084 122.000 98.250 C122.834 98.250 123.666 98.250 124.500 98.250 C124.666 98.416 124.834 98.584 125.000 98.750 C125.500 98.750 126.000 98.750 126.500 98.750 C126.666 98.916 126.834 99.084 127.000 99.250 C127.166 99.250 127.334 99.250 127.500 99.250 C127.666 99.084 127.834 98.916 128.000 98.750 C128.833 98.750 129.667 98.750 130.500 98.750 C130.667 98.584 130.833 98.416 131.000 98.250 C131.667 98.250 132.333 98.250 133.000 98.250 C133.167 98.084 133.333 97.916 133.500 97.750 C134.500 97.750 135.500 97.750 136.500 97.750 C136.667 97.584 136.833 97.416 137.000 97.250 C137.833 97.250 138.667 97.250 139.500 97.250 C139.583 97.334 139.667 97.416 139.750 97.500 C139.750 97.834 139.750 98.166 139.750 98.500"></path>
</svg>