<?xml version="1.0" ?>
<svg xmlns="http://www.w3.org/2000/svg" version="1.1" width="256" height="256" viewBox="0 0 256 256">
  <defs/>
  <g>
    <path d="M 175.61224365 125.30706787 C 174.72070312 135.29873657 174.40911865 138.84785461 167.77101135 151.70477295 C 161.97471619 160.20500183 155.51316833 167.98449707 144.72595215 171.79676819 C 138.62277222 173.77995300 126.29650879 176.11068726 115.07141113 173.41873169 C 105.85997009 172.28654480 98.78392792 168.05937195 90.25997925 157.90199280 C 84.70597839 149.97277832 79.16474915 139.53446960 78.79885101 127.62600708 C 79.26463318 117.90499878 78.49491882 112.41613007 83.75231934 103.15217590 C 87.89413452 94.18637085 92.54874420 89.20667267 104.36970520 85.25811005 C 115.83001709 82.20602417 124.77011871 82.09989929 135.77642822 83.24124146 C 146.94097900 84.08811188 156.87396240 86.89794922 164.31198120 94.74602509 C 172.81179810 104.68425751 175.00813293 112.53428650 175.61224365 125.30706787" stroke-width="1.71778584" fill="rgb(231, 19, 5)" opacity="1.0" stroke="rgb(64, 0, 0)" stroke-opacity="0.8797874" stroke-linecap="round" stroke-linejoin="round"/>
    <path d="M 94.78387451 106.54035187 C 94.71266937 105.31829071 95.20231628 103.85194397 95.80424500 102.96653748 C 96.66739655 101.70017242 97.33129120 101.02030182 98.88532257 100.50353241 C 100.10040283 100.20449066 101.06590271 99.87712097 102.70505524 100.18707275 C 103.94789886 100.60348511 104.72162628 101.10964966 105.78946686 102.80510712 C 106.21579742 103.81586456 106.71709442 104.85802460 106.72834778 106.76571655 C 106.41393280 108.25572205 106.51264954 108.68319702 105.84420776 109.79737854 C 104.88267517 111.21607208 104.17920685 111.90097046 102.60135651 112.60525513 C 101.43189240 112.96163177 100.57271576 113.22794342 98.53687286 112.79211426 C 97.39066315 112.26751709 96.79660797 112.00202179 95.75952911 110.43338013 C 94.94545746 108.92594910 94.91132355 107.86473846 94.78387451 106.54035187" stroke-width="0.65877903" fill="rgb(247, 229, 217)" opacity="1.0" stroke="rgb(99, 152, 167)" stroke-opacity="0.27441958" stroke-linecap="round" stroke-linejoin="round"/>
    <path d="M 129.35600281 74.65633392 C 129.35661316 74.64344788 129.35679626 74.64189148 129.35610962 74.62685394 C 129.35667419 74.61547089 129.35475159 74.60765076 129.36190796 74.60009766 C 129.37005615 74.60662842 129.37199402 74.61499023 129.37635803 74.62373352 C 129.37991333 74.63471222 129.38293457 74.64065552 129.38223267 74.65331268 C 129.38230896 74.66673279 129.38291931 74.67376709 129.38078308 74.68128967 C 129.37736511 74.69982910 129.37789917 74.69615173 129.37667847 74.70793152 C 129.37655640 74.71936035 129.37783813 74.73040771 129.36968994 74.73402405 C 129.36042786 74.73540497 129.35774231 74.72759247 129.35362244 74.71598816 C 129.35084534 74.70388031 129.35321045 74.69706726 129.35406494 74.68796539 C 129.35659790 74.68010712 129.35650635 74.66820526 129.35600281 74.65633392" stroke-width="0.00000000" fill="rgb(255, 255, 223)" opacity="1.0" stroke="rgb(192, 243, 233)" stroke-opacity="0.11421289" stroke-linecap="round" stroke-linejoin="round"/>
    <path d="M 130.75744629 80.34260559 C 129.33888245 80.24661255 127.76097107 80.04811859 126.10423279 79.81982422 C 124.40818787 79.64127350 122.64468384 79.44550323 121.03305817 79.33055878 C 118.99787903 79.09217834 117.62268829 79.18715668 116.38454437 78.33644104 C 114.98854828 77.05724335 113.43507385 75.62217712 114.52706909 74.82238007 C 116.24600220 74.66902161 118.40389252 74.62665558 119.63470459 74.49572754 C 122.46170044 74.59281921 121.89849854 74.45067596 123.65918732 74.57019043 C 125.73519135 74.62542725 127.36489868 75.01041412 128.94915771 75.22728729 C 130.21563721 75.55027771 131.80905151 75.76480103 133.81939697 76.86277008 C 135.30169678 77.92350006 136.56825256 78.48903656 135.98138428 79.96077728 C 134.73327637 80.31008148 132.70498657 80.20099640 130.75744629 80.34260559" stroke-width="1.73876894" fill="rgb(244, 243, 243)" opacity="1.0" stroke="rgb(255, 255, 255)" stroke-opacity="0.6037821" stroke-linecap="round" stroke-linejoin="round"/>
    <path d="M 132.08042908 73.82178497 C 132.99467468 73.37313080 133.70973206 73.07958984 134.51004028 72.70320129 C 135.65565491 72.17691803 136.22810364 71.83061981 137.21820068 71.68861389 C 138.31332397 71.62670135 139.16137695 71.81124115 140.08274841 71.96380615 C 141.16928101 72.26099396 142.23504639 72.35234833 142.73071289 73.00473022 C 142.17869568 74.00754547 141.30247498 73.58441925 140.30633545 73.83472443 C 139.02876282 74.11595154 138.96260071 74.17318726 138.03611755 74.36433411 C 136.90222168 74.79572296 136.15757751 74.86642456 135.23648071 75.13581085 C 133.85301208 75.36779785 133.39154053 75.46458435 132.33525085 75.63891602 C 131.03985596 75.79006195 130.31715393 76.01753235 129.69601440 75.46000671 C 129.75848389 74.83753204 131.18281555 74.34100342 132.08042908 73.82178497" stroke-width="1.14777923" fill="rgb(251, 254, 250)" opacity="1.0" stroke="rgb(241, 244, 241)" stroke-opacity="0.04248877" stroke-linecap="round" stroke-linejoin="round"/>
    <path d="M 120.33169556 83.03430176 C 117.68276978 82.86955261 115.89418793 82.66381073 113.72016907 82.51734161 C 111.03789520 82.05726624 109.57546234 81.95736694 107.32608795 80.21905518 C 105.13983917 78.10984039 104.45504761 76.70442963 103.21107483 74.99114227 C 101.63034058 72.02821350 101.14387512 70.62734985 100.10449982 68.49603271 C 99.55731201 65.21843719 102.08402252 67.65748596 105.19643402 67.63043213 C 108.37512970 67.93750000 108.26253510 67.55901337 110.93010712 68.14610291 C 113.94536591 68.66535950 115.44429779 69.28607178 117.22641754 70.12857819 C 119.54082489 71.72303009 121.12985229 73.28599548 122.25693512 75.15684509 C 123.58522797 77.09482574 124.76725769 79.71512604 125.49883270 81.30649567 C 126.46609497 83.80205536 122.92276001 82.70220184 120.33169556 83.03430176" stroke-width="1.45449817" fill="rgb(82, 182, 56)" opacity="1.0" stroke="rgb(13, 30, 8)" stroke-opacity="0.90759623" stroke-linecap="round" stroke-linejoin="round"/>
    <path d="M 129.41044617 85.37768555 C 129.03140259 88.24055481 128.95928955 88.87390137 128.64794922 92.29035950 C 128.52343750 95.18043518 128.06452942 98.90847778 127.65045166 95.08290863 C 127.89036560 91.99757385 128.38938904 90.06542206 128.14714050 87.68858337 C 128.26724243 85.38519287 128.26231384 83.33836365 128.76031494 80.60671234 C 128.66072083 77.87972260 128.27371216 77.10842133 128.11610413 73.97624207 C 127.83644867 70.07013702 128.06813049 71.20301056 127.60244751 68.08802032 C 125.90166473 64.98778534 128.27845764 65.15735626 130.52412415 65.55410767 C 131.31399536 67.17604065 130.66925049 69.92404938 130.79986572 71.87099457 C 130.29795837 74.37575531 130.26960754 76.30918884 130.08024597 78.62447357 C 129.94615173 81.46077728 129.77662659 81.94556427 129.41044617 85.37768555" stroke-width="1.55941582" fill="rgb(222, 163, 122)" opacity="1.0" stroke="rgb(61, 26, 22)" stroke-opacity="1.0" stroke-linecap="round" stroke-linejoin="round"/>
    <path d="M 135.10700989 99.84735107 C 133.56129456 99.97882843 131.88920593 100.52165222 130.17468262 100.74647522 C 128.36213684 101.19564819 126.66009521 101.13844299 124.99102020 100.70590973 C 123.34981537 100.42021942 121.87091827 100.25856781 120.04142761 99.77223969 C 118.21514130 99.11180878 116.02362823 99.20191193 115.43504333 98.31124878 C 117.08598328 97.45975494 118.90979004 98.04067993 120.19046021 98.32932281 C 122.95572662 98.74333191 122.91101837 98.75715637 124.55711365 98.81347656 C 126.18831635 98.12847137 127.83679962 98.20775604 129.27398682 98.34513855 C 131.62150574 98.54728699 132.40539551 98.81132507 134.53187561 98.19190979 C 136.68685913 98.14100647 138.36698914 97.39604950 139.72058105 98.00135803 C 139.20756531 99.33566284 137.37876892 99.38790131 135.10700989 99.84735107" stroke-width="0.21926314" fill="rgb(85, 16, 8)" opacity="1.0" stroke="rgb(83, 53, 68)" stroke-opacity="0.42119902" stroke-linecap="round" stroke-linejoin="round"/>
  </g>
</svg>
