<?xml version="1.0" ?>
<svg xmlns="http://www.w3.org/2000/svg" version="1.1" width="256" height="256" viewBox="0 0 256 256">
  <defs/>
  <g>
    <path d="M 178.29809570 131.67915344 C 177.56832886 138.99446106 175.91362000 146.75579834 167.40011597 158.98738098 C 161.51699829 166.47424316 156.72830200 171.19483948 142.26448059 176.04229736 C 131.72148132 178.67649841 125.51820374 179.09693909 110.80587769 175.04531860 C 101.25135803 170.83502197 95.29182434 168.09587097 85.63456726 155.12947083 C 82.59306335 150.43109131 77.62205505 137.21076965 78.79960632 125.82610321 C 79.98744202 113.59123993 81.46485138 107.11789703 87.59014893 100.00268555 C 97.99055481 88.74787903 100.69073486 84.94674683 112.63537598 80.63542175 C 125.97783661 77.35073853 128.07176208 76.14195251 142.39852905 79.49536896 C 156.01159668 85.85850525 161.38505554 89.64634705 168.87625122 97.86941528 C 177.07109070 111.12720490 176.83848572 113.19686127 178.29809570 131.67915344" stroke-width="0.80000001" fill="rgb(255, 0, 0)" opacity="1.0" stroke="rgb(0, 0, 0)" stroke-opacity="1.0" stroke-linecap="round" stroke-linejoin="round"/>
    <path d="M 95.64659882 107.99389648 C 95.61483002 107.18198395 96.41867828 105.54022217 97.37136841 104.64297485 C 98.47274017 103.71312714 99.38855743 103.66236877 100.98548889 103.21177673 C 102.52732849 103.03560638 103.15145874 102.79406738 104.94404602 103.15974426 C 106.04190063 103.25608063 107.50688934 103.91813660 108.75391388 104.71828461 C 109.70344543 105.54843903 110.70526886 106.35270691 110.39693451 108.18162537 C 109.53758240 110.26097107 109.91509247 109.79589844 108.80750275 111.04706573 C 107.44600677 112.16307831 106.48117828 112.51715088 105.10143280 112.88495636 C 102.96083069 113.04256439 103.25991821 113.09029388 101.13840485 112.83961487 C 99.23281097 112.45793152 98.73738098 112.09134674 97.50714111 111.42498016 C 96.05386353 110.45185852 95.61741638 109.48222351 95.64659882 107.99389648" stroke-width="0.80000001" fill="rgb(255, 255, 255)" opacity="1.0" stroke="rgb(0, 0, 0)" stroke-opacity="1.0" stroke-linecap="round" stroke-linejoin="round"/>
    <path d="M 128.99591064 72.16490173 C 128.94235229 73.62820435 129.03910828 73.61750793 129.00114441 75.41519165 C 129.09007263 76.28718567 129.10026550 77.88316345 128.20761108 78.51612854 C 127.11625671 77.87316132 127.30856323 77.37161255 126.97251892 75.85350037 C 126.76747131 74.52174377 126.98107910 73.78190613 127.08411407 72.49686432 C 126.96932983 71.04740143 126.79365540 70.17298126 126.97247314 69.10162354 C 127.03125763 67.02933502 127.02618408 67.43558502 127.01763153 65.99806213 C 126.87773895 64.58547974 126.74114227 63.23591995 127.65786743 62.89517212 C 129.23678589 62.67250061 129.08500671 63.94315720 129.09153748 65.09439850 C 128.90435791 66.45107269 128.97772217 67.31382751 129.10398865 68.47462463 C 128.95596313 69.50315857 128.94862366 70.70967865 128.99591064 72.16490173" stroke-width="0.80000001" fill="rgb(139, 69, 19)" opacity="1.0" stroke="rgb(0, 0, 0)" stroke-opacity="1.0" stroke-linecap="round" stroke-linejoin="round"/>
    <path d="M 123.44848633 76.81333923 C 121.62110901 76.42875671 121.61265564 76.27153015 119.39929962 75.83363342 C 117.65348053 75.46267700 117.30694580 75.32002258 115.28043365 74.90595245 C 113.71617126 74.36785126 112.74466705 74.14236450 111.32172394 73.90462494 C 109.67025757 73.29990387 107.92623901 73.32093048 108.62064362 72.46319580 C 110.24568939 71.98394775 112.15245056 71.43933868 113.06319427 71.46554565 C 115.72946930 71.30465698 115.24737549 71.32734680 116.88997650 71.57562256 C 119.05210114 72.00325775 119.76760864 72.23435974 121.17515564 72.91717529 C 122.89411926 73.91230011 123.40052795 74.18153381 125.23550415 75.31761169 C 126.00406647 76.02256775 128.01226807 77.00268555 128.00158691 78.16433716 C 126.84660339 78.34004974 124.81172943 77.27093506 123.44848633 76.81333923" stroke-width="0.80000001" fill="rgb(0, 128, 0)" opacity="1.0" stroke="rgb(0, 0, 0)" stroke-opacity="1.0" stroke-linecap="round" stroke-linejoin="round"/>
    <path d="M 131.71972656 74.77952576 C 132.93736267 74.03591919 134.07896423 73.35738373 135.26629639 72.77221680 C 137.13438416 71.86508942 137.61250305 71.68865967 139.38056946 71.30916595 C 141.19720459 71.11127472 142.25691223 71.38229370 143.66270447 71.56199646 C 145.24681091 71.99915314 146.95094299 72.09957886 147.70707703 72.80885315 C 146.65495300 73.82546997 144.83940125 73.86411285 143.88800049 74.07082367 C 141.57849121 74.57566833 141.84999084 74.64299774 140.22547913 74.89556885 C 138.23161316 75.45802307 137.68341064 75.51271820 135.92446899 76.03627014 C 134.12156677 76.44760132 133.01597595 76.73265076 131.63761902 77.16013336 C 129.98913574 77.54158783 128.16390991 78.23838806 128.16767883 77.47656250 C 129.55346680 76.35227203 130.25561523 75.96557617 131.71972656 74.77952576" stroke-width="0.80000001" fill="rgb(0, 128, 0)" opacity="1.0" stroke="rgb(0, 0, 0)" stroke-opacity="1.0" stroke-linecap="round" stroke-linejoin="round"/>
    <path d="M 119.86392975 83.24532318 C 116.77610016 83.13731384 115.08210754 82.94204712 112.45227814 82.74377441 C 109.53437042 82.28120422 107.86326599 82.12540436 105.71263123 80.03775024 C 103.36241913 77.78627777 102.64290619 76.44525146 101.35072327 74.23309326 C 100.26918030 71.94987488 98.87782288 68.73446655 98.42662811 67.05828857 C 98.54044342 63.90629196 101.17349243 65.53411102 104.67502594 66.07663727 C 107.65783691 66.36755371 108.18349457 66.03887939 110.91229248 66.72858429 C 114.23122406 67.27554321 115.89178467 67.78776550 118.07558441 69.15000916 C 120.09661865 70.70063019 122.06958008 72.66337585 123.32546234 74.62142181 C 124.55282593 76.47076416 125.93759155 79.21302032 126.32535553 81.54512787 C 125.51791382 83.65803528 122.78533936 82.75320435 119.86392975 83.24532318" stroke-width="0.80000001" fill="rgb(81, 183, 55)" opacity="1.0" stroke="rgb(0, 0, 0)" stroke-opacity="1.0" stroke-linecap="round" stroke-linejoin="round"/>
    <path d="M 130.03483582 87.14039612 C 129.66447449 90.59423828 129.88975525 90.70832825 129.25759888 95.03629303 C 129.31639099 97.42347717 128.14610291 101.74217224 126.33563232 98.64044189 C 125.90195465 94.73965454 126.51907349 93.93933105 126.44478607 90.27441406 C 126.70630646 86.84983063 126.72181702 85.81536102 126.83591461 82.16057587 C 126.83575439 78.57394409 126.76290131 76.76737213 126.57843781 74.13729858 C 126.13721466 69.21701813 126.36602783 70.91072083 125.67826080 67.02718353 C 124.14117432 63.42594147 128.30947876 63.24062347 131.10285950 63.99806976 C 133.21682739 65.30396271 131.75042725 69.13804626 131.84320068 71.02286530 C 131.32102966 74.17272186 131.39508057 76.34960938 131.28529358 78.92674255 C 130.68962097 82.25528717 130.39532471 83.68128204 130.03483582 87.14039612" stroke-width="0.80000001" fill="rgb(220, 164, 124)" opacity="1.0" stroke="rgb(0, 0, 0)" stroke-opacity="1.0" stroke-linecap="round" stroke-linejoin="round"/>
    <path d="M 135.15618896 99.71678925 C 133.57759094 99.93397522 131.87278748 100.42287445 130.18037415 100.54062653 C 128.26628113 100.86692047 126.78049469 100.94144440 124.67951965 100.64762878 C 122.98882294 100.41256714 121.69696045 100.06121063 119.51868439 99.58685303 C 118.12367249 99.10326385 115.60779572 99.16622925 114.61993408 97.94068909 C 116.16382599 96.83655548 118.39456940 97.50166321 119.65219879 97.72623444 C 122.53440857 98.26687622 122.22731018 98.00874329 124.16254425 98.47343445 C 126.57455444 98.67086792 127.44105530 99.04617310 129.48403931 98.67274475 C 131.77742004 98.17411041 132.96153259 98.10462189 134.87448120 97.71758270 C 137.11405945 97.55150604 138.71582031 96.92448425 139.98658752 97.81018829 C 139.03013611 98.98344421 137.31707764 99.02354431 135.15618896 99.71678925" stroke-width="0.80000001" fill="rgb(83, 6, 5)" opacity="1.0" stroke="rgb(0, 0, 0)" stroke-opacity="1.0" stroke-linecap="round" stroke-linejoin="round"/>
  </g>
</svg>
