<?xml version="1.0" ?>
<svg xmlns="http://www.w3.org/2000/svg" version="1.1" width="256" height="256" viewBox="0 0 256 256">
  <defs/>
  <g>
    <path d="M 175.01173401 131.92904663 C 173.38351440 141.01617432 171.97865295 146.46569824 163.54595947 157.41711426 C 155.96649170 166.07919312 149.59484863 172.08483887 138.98240662 173.44946289 C 130.79722595 173.49293518 117.10837555 174.93981934 107.95141602 171.89630127 C 96.14273071 165.45336914 96.23680878 165.52389526 86.49820709 152.44525146 C 82.69198608 144.58949280 77.39015961 132.50621033 78.62713623 121.04251099 C 80.82826996 110.82929993 80.23007202 107.12732697 86.84010315 97.78242493 C 93.42776489 88.61671448 97.87059784 86.62324524 111.71358490 83.52669525 C 122.71355438 80.97409821 131.24343872 81.93167114 141.31732178 84.07487488 C 152.31991577 85.48270416 161.38522339 89.35385132 168.19865417 99.66165924 C 174.99116516 111.01536560 176.04995728 118.35858154 175.01173401 131.92904663" stroke-width="1.73591399" fill="rgb(230, 19, 5)" opacity="1.0" stroke="rgb(64, 0, 0)" stroke-opacity="0.90248865" stroke-linecap="round" stroke-linejoin="round"/>
    <path d="M 94.77595520 107.04350281 C 94.58999634 105.80471802 95.01421356 104.37680054 95.55551910 103.47751617 C 96.35002136 102.10825348 96.92543793 101.25558472 98.37942505 100.71236420 C 99.48069763 100.39340210 100.55134583 99.97811890 102.15753937 100.08649445 C 103.45989990 100.30801392 104.31028748 100.77290344 105.49315643 102.39624786 C 105.94104767 103.24138641 106.63277435 104.48318481 106.72576141 106.30519867 C 106.55155945 107.51437378 106.53588104 108.29802704 106.08397675 109.30511475 C 105.35264587 110.77706909 104.54909515 111.64880371 103.08496094 112.42395782 C 102.19610596 112.78647614 100.86991882 113.25286102 99.08504486 113.02372742 C 98.20421600 112.67478943 97.01737213 112.29487610 96.07959747 110.94015503 C 95.16165924 109.41272736 95.00683594 108.40091705 94.77595520 107.04350281" stroke-width="0.62340391" fill="rgb(248, 225, 220)" opacity="1.0" stroke="rgb(112, 143, 152)" stroke-opacity="0.32085487" stroke-linecap="round" stroke-linejoin="round"/>
    <path d="M 129.37019348 74.68105316 C 129.37014771 74.68203735 129.37013245 74.68215179 129.37017822 74.68330383 C 129.37013245 74.68416595 129.37028503 74.68476868 129.36973572 74.68534088 C 129.36911011 74.68483734 129.36897278 74.68420410 129.36863708 74.68353271 C 129.36836243 74.68269348 129.36813354 74.68224335 129.36817932 74.68128204 C 129.36817932 74.68025970 129.36813354 74.67971802 129.36830139 74.67914581 C 129.36856079 74.67773438 129.36851501 74.67801666 129.36860657 74.67711639 C 129.36862183 74.67624664 129.36851501 74.67539978 129.36914062 74.67512512 C 129.36984253 74.67502594 129.37004089 74.67562103 129.37036133 74.67650604 C 129.37057495 74.67742920 129.37040710 74.67794800 129.37033081 74.67864227 C 129.37014771 74.67923737 129.37014771 74.68014526 129.37019348 74.68105316" stroke-width="0.00000000" fill="rgb(255, 255, 223)" opacity="1.0" stroke="rgb(192, 243, 233)" stroke-opacity="0.11410092" stroke-linecap="round" stroke-linejoin="round"/>
    <path d="M 130.81010437 80.09642792 C 129.71859741 80.00637054 128.43907166 80.11674500 126.87230682 79.96002197 C 125.76383972 79.86627197 124.26457214 79.51251984 122.73008728 79.29900360 C 121.13480377 78.82557678 119.90937805 78.95996857 118.88982391 78.26625061 C 117.84474182 77.04544067 117.09980011 75.77195740 117.55214691 75.19721985 C 118.82888031 74.81091309 120.60160828 74.90000153 121.72486115 74.79711914 C 124.14748383 74.96132660 123.61547852 74.86878204 125.13156891 74.93968201 C 126.87967682 74.97496796 128.26103210 75.18466187 129.56770325 75.30963898 C 130.66296387 75.52426910 131.78390503 75.67888641 133.46592712 76.79854584 C 134.82826233 77.88775635 135.61943054 78.65964508 135.20202637 79.78874207 C 134.11952209 80.21017456 132.60510254 79.87152100 130.81010437 80.09642792" stroke-width="2.00000000" fill="rgb(239, 239, 234)" opacity="1.0" stroke="rgb(255, 255, 255)" stroke-opacity="0.7540469" stroke-linecap="round" stroke-linejoin="round"/>
    <path d="M 135.57240295 73.28204346 C 135.77963257 73.22771454 136.17881775 73.06931305 136.48693848 72.96966553 C 136.83682251 72.86239624 137.16757202 72.71668243 137.49079895 72.72543335 C 137.90235901 72.75501251 138.19519043 72.86283875 138.49317932 72.97832489 C 138.88993835 73.17975616 139.20452881 73.32921600 139.34503174 73.56460571 C 139.28334045 73.89484406 138.85972595 73.94662476 138.45143127 73.95472717 C 138.09976196 73.99159241 137.91252136 74.00662231 137.65309143 73.98635101 C 137.26612854 74.02970886 136.92008972 74.02124786 136.55368042 74.03811646 C 136.15324402 74.03758240 135.81976318 74.04388428 135.52169800 74.03769684 C 135.11849976 74.01911163 134.65748596 73.95241547 134.59596252 73.72011566 C 134.93925476 73.49071503 135.05397034 73.53408813 135.57240295 73.28204346" stroke-width="1.89061356" fill="rgb(255, 255, 255)" opacity="1.0" stroke="rgb(253, 255, 255)" stroke-opacity="0.0" stroke-linecap="round" stroke-linejoin="round"/>
    <path d="M 120.05934143 83.15917206 C 117.74419403 83.05606079 115.69064331 82.78035736 113.52090454 82.58914185 C 110.89342499 82.01048279 109.50025940 81.94430542 107.15609741 80.19357300 C 105.01445770 78.08744812 104.37757111 76.72427368 103.02470398 74.89985657 C 101.52793121 71.80701447 101.23149109 70.90718842 99.97891235 68.13309479 C 99.58505249 65.34854126 102.08014679 67.82918549 105.16115570 67.62305450 C 108.43035889 67.99503326 108.24284363 67.59979248 110.79611969 68.12856293 C 113.88867950 68.66152191 115.32356262 69.24432373 117.12360382 70.16658783 C 119.57402039 71.74191284 120.96017456 73.20767212 122.13158417 75.01342773 C 123.49003601 76.89080048 124.57247162 79.45161438 125.28856659 81.30949402 C 126.14833832 83.86241150 123.09908295 82.84289551 120.05934143 83.15917206" stroke-width="1.45581818" fill="rgb(82, 181, 57)" opacity="1.0" stroke="rgb(11, 31, 5)" stroke-opacity="0.90818185" stroke-linecap="round" stroke-linejoin="round"/>
    <path d="M 129.33850098 85.89826965 C 128.91654968 88.89302826 128.80169678 89.67333984 128.55247498 93.14997864 C 128.44261169 96.52214813 127.84891510 99.82916260 127.56617737 95.67880249 C 127.85427856 92.49261475 128.41914368 90.35533142 128.16615295 87.85563660 C 128.27601624 85.52522278 128.23507690 83.33164215 128.75347900 80.50881958 C 128.80509949 77.73907471 128.33116150 77.03565979 128.12260437 73.58480072 C 127.79326630 69.56036377 128.02429199 70.69976807 127.42025757 67.44557190 C 125.75688934 64.45917511 128.72267151 65.54450226 130.53417969 65.44643402 C 131.27235413 67.10732269 130.70898438 69.80152893 130.80029297 71.89682007 C 130.27494812 74.45322418 130.22257996 76.15359497 129.99830627 78.82723999 C 129.92352295 81.84984589 129.73165894 82.13249969 129.33850098 85.89826965" stroke-width="1.56279278" fill="rgb(220, 166, 118)" opacity="1.0" stroke="rgb(63, 28, 25)" stroke-opacity="0.97398424" stroke-linecap="round" stroke-linejoin="round"/>
    <path d="M 135.01126099 99.84432983 C 133.79382324 99.86502075 131.99935913 100.51821136 130.21115112 100.71524048 C 128.55572510 101.10813904 126.73498535 101.05461884 124.84208679 100.62710571 C 123.22571564 100.38392639 121.76557922 100.18338776 119.80127716 99.64669800 C 118.03186035 99.00797272 115.67881775 99.04183960 115.24434662 98.06188965 C 117.00993347 97.39761353 118.78497314 98.03656769 120.14147186 98.35282898 C 122.96294403 98.65087891 123.04733276 98.69499969 124.44618988 98.75930023 C 126.00818634 98.60589600 127.85440826 99.08888245 129.26184082 98.89791870 C 131.57991028 98.60787201 132.41595459 98.75315857 134.27363586 98.23014069 C 136.36540222 98.32087708 138.23696899 97.43422699 139.70680237 97.84219360 C 139.49069214 99.18289185 137.54138184 99.26770782 135.01126099 99.84432983" stroke-width="0.28171557" fill="rgb(83, 9, 9)" opacity="1.0" stroke="rgb(135, 38, 44)" stroke-opacity="0.5938151" stroke-linecap="round" stroke-linejoin="round"/>
  </g>
</svg>
