<?xml version="1.0" ?>
<svg xmlns="http://www.w3.org/2000/svg" version="1.1" width="256" height="256" viewBox="0 0 256 256">
  <defs/>
  <g>
    <path d="M 175.12191772 130.39300537 C 173.91448975 139.12820435 172.47808838 144.91520691 164.53222656 156.04302979 C 157.23402405 164.85562134 151.29386902 171.09408569 139.85078430 173.09576416 C 133.46757507 173.28408813 120.41293335 175.31381226 109.54919434 172.14463806 C 98.74963379 167.79724121 97.12131500 166.66491699 87.32546234 153.88893127 C 83.11961365 145.87609863 77.83488464 134.27374268 78.66178131 122.53469086 C 80.28355408 112.91706848 79.87301636 107.99725342 86.16943359 99.05538177 C 91.46711731 90.29507446 96.40486145 86.85890198 109.81349182 83.92899323 C 121.09987640 81.36939240 129.57052612 81.88384247 139.98112488 83.79914093 C 150.80972290 84.77549744 159.73852539 88.30793762 167.33386230 98.47734070 C 174.44348145 109.26405334 175.91403198 116.94761658 175.12191772 130.39300537" stroke-width="1.70601451" fill="rgb(232, 16, 2)" opacity="1.0" stroke="rgb(63, 2, 1)" stroke-opacity="0.8904792" stroke-linecap="round" stroke-linejoin="round"/>
    <path d="M 94.72020721 106.82499695 C 94.59300995 105.62471008 95.09375763 104.10117340 95.68167114 103.22684479 C 96.52363586 101.90529633 97.15071869 101.11701965 98.65297699 100.62042999 C 99.84889221 100.33239746 100.84389496 99.96168518 102.46118164 100.16844177 C 103.73284912 100.45829773 104.57207489 101.00593567 105.64952087 102.68573761 C 106.05084991 103.56951141 106.67636108 104.78450012 106.72524261 106.63293457 C 106.49849701 107.90199280 106.49551392 108.62506866 105.92930603 109.62356567 C 105.08911896 111.05695343 104.27532959 111.89275360 102.76345825 112.57872772 C 101.70624542 112.94216919 100.66643524 113.27588654 98.72215271 112.95614624 C 97.75142670 112.55285645 96.81762695 112.16120911 95.86370850 110.67960358 C 95.02091217 109.20455933 94.88823700 108.11724854 94.72020721 106.82499695" stroke-width="0.67638445" fill="rgb(250, 216, 212)" opacity="1.0" stroke="rgb(125, 156, 167)" stroke-opacity="0.33348852" stroke-linecap="round" stroke-linejoin="round"/>
    <path d="M 129.37521362 74.67801666 C 129.37515259 74.67942810 129.37512207 74.67959595 129.37519836 74.68123627 C 129.37513733 74.68247986 129.37535095 74.68333435 129.37457275 74.68415833 C 129.37368774 74.68344116 129.37347412 74.68253326 129.37298584 74.68157959 C 129.37260437 74.68038177 129.37226868 74.67973328 129.37234497 74.67835236 C 129.37234497 74.67688751 129.37226868 74.67611694 129.37251282 74.67529297 C 129.37287903 74.67327118 129.37281799 74.67367554 129.37295532 74.67238617 C 129.37297058 74.67114258 129.37283325 74.66993713 129.37371826 74.66954041 C 129.37472534 74.66938782 129.37503052 74.67024231 129.37547302 74.67150879 C 129.37577820 74.67282867 129.37551880 74.67356873 129.37542725 74.67456818 C 129.37515259 74.67542267 129.37515259 74.67672729 129.37521362 74.67801666" stroke-width="0.00000000" fill="rgb(255, 255, 223)" opacity="1.0" stroke="rgb(192, 243, 233)" stroke-opacity="0.11410092" stroke-linecap="round" stroke-linejoin="round"/>
    <path d="M 130.59970093 80.11214447 C 129.56298828 80.01935577 128.25254822 80.01352692 126.60935974 79.83823395 C 125.45470428 79.73294067 123.84260559 79.44245148 122.31150055 79.27391052 C 120.64360046 78.83390045 119.42186737 78.98371887 118.40498352 78.27682495 C 117.31837463 77.02802277 116.48792267 75.72725677 116.97167206 75.07698822 C 118.32850647 74.78800201 120.14665985 74.84603119 121.26799774 74.75052643 C 123.72865295 74.88219452 123.16162109 74.78643036 124.72896576 74.88632965 C 126.51923370 74.96188354 127.91115570 75.23164368 129.25979614 75.34685516 C 130.34779358 75.60604858 131.59129333 75.67948151 133.33383179 76.68692017 C 134.71823120 77.72970581 135.53041077 78.54649353 135.10964966 79.73511505 C 134.07041931 80.23319244 132.45025635 79.86653900 130.59970093 80.11214447" stroke-width="2.00000000" fill="rgb(253, 253, 252)" opacity="1.0" stroke="rgb(255, 255, 255)" stroke-opacity="0.71283346" stroke-linecap="round" stroke-linejoin="round"/>
    <path d="M 134.69796753 73.52740479 C 134.97245789 73.40457916 135.30769348 73.23855591 135.58274841 73.10826874 C 135.91943359 72.94432831 136.20166016 72.73947906 136.52593994 72.69971466 C 136.87805176 72.69201660 137.21661377 72.76852417 137.55241394 72.85096741 C 137.93612671 72.98700714 138.31752014 73.07897186 138.46469116 73.30809784 C 138.37057495 73.64324951 138.03601074 73.68648529 137.60429382 73.73198700 C 137.26519775 73.78975677 137.08493042 73.81125641 136.81736755 73.83399963 C 136.43208313 73.94719696 136.12042236 74.00637054 135.78511047 74.08433533 C 135.37719727 74.15750122 135.04864502 74.19996643 134.74656677 74.23735046 C 134.32914734 74.27938080 133.94534302 74.29474640 133.81324768 74.08298492 C 133.95130920 73.83781433 134.30891418 73.75507355 134.69796753 73.52740479" stroke-width="2.00000000" fill="rgb(255, 255, 255)" opacity="1.0" stroke="rgb(247, 244, 244)" stroke-opacity="0.17843102" stroke-linecap="round" stroke-linejoin="round"/>
    <path d="M 120.27322388 83.16804504 C 117.93350983 83.02361298 115.75865173 82.78502655 113.73856354 82.61269379 C 111.04597473 82.02222443 109.69242859 81.93144226 107.24598694 80.27497101 C 104.99134827 78.11420441 104.53510284 76.88415527 103.11693573 75.04319763 C 101.45908356 71.80371857 101.29973602 71.04865265 100.03356171 68.32086182 C 99.43870544 65.32028198 102.11797333 67.77297211 105.17024994 67.66818237 C 108.28411102 67.96559906 108.28919983 67.62380981 110.83525848 68.16335297 C 113.80487061 68.66764832 115.42835999 69.36920929 117.07688141 70.15992737 C 119.55164337 71.79797363 121.03414154 73.28352356 122.16563416 75.12677002 C 123.43257141 77.00994110 124.61658478 79.54496765 125.43085480 81.39989471 C 126.29785156 83.85854340 123.25508118 82.85066986 120.27322388 83.16804504" stroke-width="1.43544400" fill="rgb(85, 184, 55)" opacity="1.0" stroke="rgb(15, 26, 8)" stroke-opacity="0.90142846" stroke-linecap="round" stroke-linejoin="round"/>
    <path d="M 129.38858032 85.64379120 C 128.99327087 88.57649231 128.89596558 89.26364899 128.61917114 92.73503113 C 128.52073669 95.90750885 127.96913910 99.38755798 127.62617493 95.36520386 C 127.89500427 92.21860504 128.43690491 90.18287659 128.18476868 87.73088074 C 128.30097961 85.42018127 128.29080200 83.27002716 128.80723572 80.51961517 C 128.77352905 77.76596832 128.31925964 77.03914642 128.13423157 73.74173737 C 127.84167480 69.77224731 128.07153320 70.90894318 127.53971863 67.71482086 C 125.79515839 64.65998077 128.59094238 65.42414856 130.58898926 65.50321198 C 131.33967590 67.08158875 130.71788025 69.84246063 130.81153870 71.85630035 C 130.32525635 74.35954285 130.26763916 76.16796875 130.06880188 78.69704437 C 129.95581055 81.65181732 129.78062439 82.03565216 129.38858032 85.64379120" stroke-width="1.54640603" fill="rgb(208, 161, 119)" opacity="1.0" stroke="rgb(70, 34, 29)" stroke-opacity="0.9752164" stroke-linecap="round" stroke-linejoin="round"/>
    <path d="M 135.09321594 99.91725922 C 133.71240234 99.97359467 131.93132019 100.57399750 130.18148804 100.75830078 C 128.41691589 101.20557404 126.64360809 101.23142242 124.85670471 100.74077606 C 123.22612762 100.45724487 121.70706177 100.23146820 119.80146790 99.72004700 C 117.97417450 99.06768799 115.69532013 99.11250305 115.25041962 98.15993500 C 117.01064301 97.44650269 118.75826263 98.10562897 120.10958862 98.41755676 C 122.91960907 98.75826263 123.00017548 98.78922272 124.47167969 98.81970978 C 126.07076263 98.44435120 127.89456177 98.87674713 129.29928589 98.74901581 C 131.66622925 98.62870789 132.39758301 98.89514923 134.44744873 98.27421570 C 136.55870056 98.32877350 138.35629272 97.47129059 139.78578186 97.95859528 C 139.51586914 99.26691437 137.47087097 99.39948273 135.09321594 99.91725922" stroke-width="0.34308168" fill="rgb(89, 8, 9)" opacity="1.0" stroke="rgb(70, 42, 68)" stroke-opacity="0.35525572" stroke-linecap="round" stroke-linejoin="round"/>
  </g>
</svg>
