<?xml version="1.0" ?>
<svg xmlns="http://www.w3.org/2000/svg" version="1.1" width="256" height="256" viewBox="0 0 256 256">
  <defs/>
  <g>
    <path d="M 175.66659546 125.82419586 C 174.98410034 135.32684326 174.36166382 138.94477844 166.94326782 152.99751282 C 163.15092468 158.51658630 157.31555176 166.25364685 145.26298523 171.39495850 C 132.73254395 175.36407471 129.58094788 175.84011841 113.86007690 173.32275391 C 105.08395386 170.45758057 99.76039124 169.00634766 89.21911621 156.67379761 C 86.30450439 152.63562012 79.55470276 140.11329651 79.07839966 128.15834045 C 79.01530457 117.93052673 78.69578552 111.98085785 84.02108765 102.99951172 C 87.92543030 95.22294617 92.28622437 88.27742004 105.71644592 85.20697784 C 120.49688721 82.64450073 121.35812378 81.35821533 135.77066040 82.81176758 C 151.22665405 86.05863953 152.57083130 85.44966125 164.36090088 94.71238708 C 173.97291565 107.32294464 173.22297668 106.39433289 175.66659546 125.82419586" stroke-width="1.83521509" fill="rgb(231, 16, 2)" opacity="1.0" stroke="rgb(81, 2, 0)" stroke-opacity="0.87203264" stroke-linecap="round" stroke-linejoin="round"/>
    <path d="M 94.98185730 106.52917480 C 94.96710205 105.38996124 95.46401978 104.16329956 96.18186188 103.26647186 C 97.08152771 102.17176819 97.58837128 101.46346283 98.79538727 100.70850372 C 100.66828918 100.00885773 100.56451416 100.00305939 102.50129700 100.47783661 C 103.99812317 101.20610809 104.43921661 101.43920135 105.54320526 103.03503418 C 105.91509247 103.80463409 106.50290680 105.30538940 106.34312439 106.93496704 C 106.11521912 108.12278748 106.09852600 108.93363190 105.45735931 109.88187408 C 104.36174011 111.28530121 104.09204865 111.65643311 102.38655090 112.52431488 C 100.89408112 112.93708801 100.58592987 113.12938690 98.52990723 112.56575012 C 97.60987091 112.05537415 96.76747131 111.59009552 95.73525238 110.15548706 C 94.96018982 108.62308502 95.06334686 108.00334930 94.98185730 106.52917480" stroke-width="0.73081028" fill="rgb(248, 219, 213)" opacity="1.0" stroke="rgb(209, 205, 202)" stroke-opacity="0.5643245" stroke-linecap="round" stroke-linejoin="round"/>
    <path d="M 130.21401978 75.17163849 C 130.19381714 75.98103333 130.21075439 76.03961182 130.27360535 76.97143555 C 130.26268005 77.67169952 130.38233948 78.12203979 129.90956116 78.65830994 C 129.36402893 78.33953094 129.27697754 77.77944946 129.03393555 77.22537231 C 128.81417847 76.56235504 128.68533325 76.16712189 128.78291321 75.35469818 C 128.77056885 74.46522522 128.69210815 74.15273285 128.77343750 73.60794067 C 128.92596436 72.46266937 128.90846252 72.69882202 128.95611572 71.97509766 C 128.95028687 71.24524689 128.90711975 70.58903503 129.41345215 70.29647064 C 130.06643677 70.16626740 130.18399048 70.73107910 130.34196472 71.46826172 C 130.40461731 72.25977325 130.31990051 72.63793182 130.26078796 73.20537567 C 130.13238525 73.70707703 130.16728210 74.46095276 130.21401978 75.17163849" stroke-width="0.11205756" fill="rgb(255, 255, 221)" opacity="1.0" stroke="rgb(181, 229, 220)" stroke-opacity="0.16093771" stroke-linecap="round" stroke-linejoin="round"/>
    <path d="M 129.81466675 80.49637604 C 127.46336365 80.11120605 127.14630127 79.79270935 124.48094940 79.29069519 C 122.00653076 78.91841888 120.85771179 78.78805542 118.79395294 78.57878113 C 116.34703064 78.10912323 114.88255310 77.77858734 113.31851959 77.13365173 C 111.24107361 76.02714539 108.99748230 74.96491241 110.51654816 73.83557129 C 112.59287262 73.33264160 115.14231110 73.14863586 116.47501373 73.14101410 C 119.85015106 73.21089935 119.23064423 73.10234070 121.32565308 73.29608154 C 123.88073730 73.45079803 125.77778625 74.05979156 127.44496155 74.58659363 C 128.97053528 75.14284515 130.65257263 75.76850128 133.08747864 77.08445740 C 134.25976562 77.89804077 136.79109192 78.83097076 136.09188843 80.69407654 C 134.46083069 81.52576447 131.57803345 80.95587921 129.81466675 80.49637604" stroke-width="0.98777997" fill="rgb(249, 249, 250)" opacity="1.0" stroke="rgb(255, 255, 255)" stroke-opacity="0.82957345" stroke-linecap="round" stroke-linejoin="round"/>
    <path d="M 131.64530945 73.68238831 C 132.72937012 73.06432343 133.45851135 72.75096130 134.43341064 72.23211670 C 135.84312439 71.55936432 136.19152832 71.24417114 137.50595093 70.79329681 C 138.88253784 70.62091064 139.84661865 70.88521576 140.88714600 71.05352020 C 142.24786377 71.43138885 143.38972473 71.50687408 144.00059509 72.19187164 C 143.28129578 73.21353149 142.06361389 72.90605164 141.11363220 73.11349487 C 139.40292358 73.44592285 139.51063538 73.48358154 138.33149719 73.69805145 C 136.90379333 74.18519592 136.24548340 74.27257538 135.02478027 74.67628479 C 133.50762939 75.01351166 132.81092834 75.20526123 131.63267517 75.49492645 C 130.20175171 75.76424408 129.19026184 76.20313263 128.74179077 75.57615662 C 129.13104248 74.97795868 130.59799194 74.38028717 131.64530945 73.68238831" stroke-width="0.81317580" fill="rgb(255, 255, 255)" opacity="1.0" stroke="rgb(255, 255, 255)" stroke-opacity="0.0" stroke-linecap="round" stroke-linejoin="round"/>
    <path d="M 119.99851990 83.23078156 C 117.11691284 83.11758423 115.94045258 82.88356781 113.33470917 82.69113159 C 111.01570892 82.35533142 109.08335876 82.00526428 107.07313538 80.15386963 C 104.94423676 77.92229462 104.49839020 76.81284332 103.13008118 75.07203674 C 101.62414551 72.18172455 100.97427368 70.52187347 100.07400513 68.63358307 C 99.95543671 65.53623199 102.31011200 67.52747345 105.47307587 67.67593384 C 108.49668121 67.97750854 108.56314087 67.62747192 111.16582489 68.26840210 C 114.20131683 68.81210327 115.64894104 69.38613892 117.47248077 70.30923462 C 119.67846680 71.91741180 121.27718353 73.56481171 122.37889099 75.38638306 C 123.66134644 77.29895020 124.81005096 79.83772278 125.47138214 81.59305573 C 125.95948792 83.87181854 122.47274017 82.88884735 119.99851990 83.23078156" stroke-width="1.40712416" fill="rgb(81, 184, 57)" opacity="1.0" stroke="rgb(20, 26, 10)" stroke-opacity="0.9074492" stroke-linecap="round" stroke-linejoin="round"/>
    <path d="M 129.29060364 84.91812134 C 129.04995728 87.70780945 129.07078552 88.28233337 128.80578613 91.55268860 C 128.63737488 93.95230865 128.17886353 97.91262817 127.71096802 94.64917755 C 127.92807770 91.76955414 128.31092834 89.71519470 128.15725708 87.59270477 C 128.34684753 84.51792145 128.35105896 83.82158661 128.64955139 80.88012695 C 128.55462646 78.18400574 128.41523743 76.57394409 128.23623657 74.23735809 C 127.92024231 70.29658508 128.11650085 71.70313263 127.59868622 68.46400452 C 125.94545746 65.34761047 128.07568359 64.89176941 130.51403809 65.62744904 C 131.37689209 67.20843506 130.67967224 69.94137573 130.76074219 71.79286194 C 130.26954651 74.26205444 130.22349548 76.18762970 130.00671387 78.28234100 C 129.71336365 80.94514465 129.51731873 81.96968842 129.29060364 84.91812134" stroke-width="1.55172026" fill="rgb(218, 154, 117)" opacity="1.0" stroke="rgb(68, 41, 31)" stroke-opacity="0.99215376" stroke-linecap="round" stroke-linejoin="round"/>
    <path d="M 135.38081360 99.91378021 C 133.64221191 100.11854553 132.50205994 100.53446198 130.61189270 100.71900940 C 128.86357117 101.06104279 127.32766724 101.29389954 125.41119385 100.98556519 C 123.80339050 100.70337677 122.19774628 100.38062286 120.51814270 100.02111816 C 118.71151733 99.43857574 116.67171478 99.54190826 115.61640167 98.55027008 C 117.19544983 97.40391541 118.93576050 98.05780029 120.23178101 98.20502472 C 122.92521667 98.67120361 122.78734589 98.43662262 124.53402710 98.61682129 C 126.45650482 98.33174133 127.86481476 98.44306183 129.68772888 98.34755707 C 132.02851868 98.28280640 132.85952759 98.34708405 134.93119812 98.11332703 C 137.10577393 97.97718811 138.64541626 97.35620880 139.90243530 98.12182617 C 139.31094360 99.35311127 137.49055481 99.48126984 135.38081360 99.91378021" stroke-width="0.46988764" fill="rgb(94, 12, 12)" opacity="1.0" stroke="rgb(168, 74, 99)" stroke-opacity="0.25045088" stroke-linecap="round" stroke-linejoin="round"/>
  </g>
</svg>
