<?xml version="1.0" ?>
<svg xmlns="http://www.w3.org/2000/svg" version="1.1" width="256" height="256" viewBox="0 0 256 256">
  <defs/>
  <g>
    <path d="M 178.29809570 131.67915344 C 177.56831360 138.99447632 175.91360474 146.75581360 167.40010071 158.98738098 C 161.51698303 166.47424316 156.72828674 171.19487000 142.26448059 176.04232788 C 131.72148132 178.67651367 125.51818848 179.09695435 110.80586243 175.04533386 C 101.25133514 170.83502197 95.29180908 168.09587097 85.63455200 155.12948608 C 82.59303284 150.43109131 77.62202454 137.21076965 78.79959106 125.82609558 C 79.98742676 113.59124756 81.46484375 107.11788940 87.59014130 100.00269318 C 97.99053955 88.74787140 100.69071960 84.94674683 112.63536072 80.63542175 C 125.97783661 77.35070801 128.07174683 76.14195251 142.39851379 79.49536133 C 156.01158142 85.85850525 161.38504028 89.64634705 168.87625122 97.86942291 C 177.07107544 111.12720490 176.83848572 113.19687653 178.29809570 131.67915344" stroke-width="1.00000000" fill="rgb(255, 0, 0)" opacity="1.0"/>
    <path d="M 95.64659882 107.99388123 C 95.61483765 107.18196869 96.41868591 105.54020691 97.37136841 104.64295959 C 98.47274017 103.71310425 99.38855743 103.66235352 100.98548889 103.21176147 C 102.52732849 103.03559113 103.15145874 102.79405212 104.94404602 103.15972900 C 106.04189301 103.25606537 107.50688934 103.91812134 108.75391388 104.71826935 C 109.70344543 105.54842377 110.70526886 106.35269165 110.39692688 108.18161011 C 109.53758240 110.26095581 109.91508484 109.79587555 108.80750275 111.04704285 C 107.44599915 112.16306305 106.48117065 112.51713562 105.10143280 112.88494110 C 102.96082306 113.04254913 103.25991821 113.09027863 101.13840485 112.83959198 C 99.23281097 112.45791626 98.73738098 112.09133148 97.50714111 111.42495728 C 96.05386353 110.45184326 95.61742401 109.48220825 95.64659882 107.99388123" stroke-width="1.00000000" fill="rgb(255, 255, 255)" opacity="1.0"/>
    <path d="M 128.99591064 72.16489410 C 128.94233704 73.62819672 129.03910828 73.61750031 129.00114441 75.41518402 C 129.09007263 76.28717804 129.10026550 77.88315582 128.20761108 78.51612091 C 127.11625671 77.87315369 127.30856323 77.37159729 126.97251892 75.85348511 C 126.76747131 74.52173615 126.98107910 73.78189087 127.08411407 72.49685669 C 126.96932983 71.04739380 126.79365540 70.17297363 126.97247314 69.10161591 C 127.03125763 67.02933502 127.02618408 67.43557739 127.01763153 65.99805450 C 126.87773895 64.58547211 126.74114227 63.23591232 127.65786743 62.89516830 C 129.23678589 62.67249298 129.08500671 63.94315338 129.09153748 65.09439087 C 128.90435791 66.45106506 128.97772217 67.31381989 129.10398865 68.47461700 C 128.95596313 69.50315094 128.94862366 70.70967865 128.99591064 72.16489410" stroke-width="1.00000000" fill="rgb(139, 69, 19)" opacity="1.0"/>
    <path d="M 123.44848633 76.81333923 C 121.62110901 76.42875671 121.61265564 76.27152252 119.39929962 75.83363342 C 117.65348053 75.46267700 117.30694580 75.32002258 115.28043365 74.90595245 C 113.71617889 74.36784363 112.74466705 74.14236450 111.32173157 73.90462494 C 109.67025757 73.29990387 107.92623901 73.32092285 108.62064362 72.46319580 C 110.24569702 71.98394775 112.15245056 71.43933105 113.06319427 71.46554565 C 115.72946930 71.30465698 115.24737549 71.32734680 116.88997650 71.57562256 C 119.05210114 72.00325775 119.76761627 72.23435974 121.17515564 72.91717529 C 122.89411926 73.91230011 123.40052795 74.18153381 125.23550415 75.31761169 C 126.00406647 76.02256775 128.01226807 77.00267792 128.00158691 78.16433716 C 126.84660339 78.34004211 124.81172943 77.27093506 123.44848633 76.81333923" stroke-width="1.00000000" fill="rgb(0, 128, 0)" opacity="1.0"/>
    <path d="M 131.71971130 74.77951050 C 132.93734741 74.03589630 134.07894897 73.35736847 135.26628113 72.77220154 C 137.13435364 71.86507416 137.61248779 71.68864441 139.38053894 71.30915070 C 141.19718933 71.11125946 142.25689697 71.38227844 143.66268921 71.56198120 C 145.24679565 71.99913788 146.95092773 72.09956360 147.70706177 72.80883026 C 146.65493774 73.82545471 144.83938599 73.86409760 143.88798523 74.07080841 C 141.57847595 74.57565308 141.84997559 74.64298248 140.22546387 74.89555359 C 138.23158264 75.45800781 137.68339539 75.51270294 135.92445374 76.03625488 C 134.12155151 76.44758606 133.01596069 76.73263550 131.63760376 77.16011810 C 129.98912048 77.54157257 128.16389465 78.23836517 128.16766357 77.47653961 C 129.55345154 76.35225677 130.25559998 75.96556091 131.71971130 74.77951050" stroke-width="1.00000000" fill="rgb(0, 128, 0)" opacity="1.0"/>
    <path d="M 119.86392212 83.24530792 C 116.77609253 83.13729858 115.08210754 82.94203186 112.45227051 82.74375916 C 109.53437042 82.28118896 107.86326599 82.12538910 105.71262360 80.03773499 C 103.36241913 77.78626251 102.64289856 76.44523621 101.35072327 74.23308563 C 100.26918030 71.94985962 98.87782288 68.73445892 98.42662811 67.05827332 C 98.54044342 63.90627670 101.17348480 65.53409576 104.67502594 66.07662201 C 107.65783691 66.36753845 108.18349457 66.03886414 110.91229248 66.72856903 C 114.23122406 67.27552795 115.89177704 67.78775024 118.07557678 69.15000153 C 120.09661102 70.70062256 122.06957245 72.66336060 123.32546234 74.62140656 C 124.55282593 76.47074890 125.93759155 79.21301270 126.32535553 81.54511261 C 125.51791382 83.65802765 122.78533936 82.75318909 119.86392212 83.24530792" stroke-width="1.00000000" fill="rgb(81, 183, 55)" opacity="1.0"/>
    <path d="M 130.03483582 87.14039612 C 129.66447449 90.59423065 129.88975525 90.70832062 129.25759888 95.03629303 C 129.31639099 97.42347717 128.14610291 101.74217224 126.33563232 98.64044189 C 125.90195465 94.73965454 126.51907349 93.93933105 126.44478607 90.27441406 C 126.70630646 86.84982300 126.72181702 85.81536102 126.83591461 82.16057587 C 126.83575439 78.57394409 126.76290131 76.76737213 126.57843781 74.13729858 C 126.13721466 69.21702576 126.36602783 70.91072083 125.67826080 67.02718353 C 124.14117432 63.42594147 128.30947876 63.24061584 131.10285950 63.99806976 C 133.21682739 65.30396271 131.75044250 69.13804626 131.84320068 71.02286530 C 131.32102966 74.17271423 131.39508057 76.34960938 131.28529358 78.92674255 C 130.68962097 82.25528717 130.39532471 83.68128204 130.03483582 87.14039612" stroke-width="1.00000000" fill="rgb(220, 164, 124)" opacity="1.0"/>
    <path d="M 135.15617371 99.71678925 C 133.57759094 99.93397522 131.87278748 100.42287445 130.18037415 100.54062653 C 128.26628113 100.86692047 126.78049469 100.94144440 124.67951965 100.64762878 C 122.98883057 100.41256714 121.69696045 100.06121063 119.51868439 99.58685303 C 118.12368011 99.10326385 115.60779572 99.16622925 114.61993408 97.94068909 C 116.16383362 96.83655548 118.39457703 97.50166321 119.65219879 97.72623444 C 122.53441620 98.26687622 122.22731018 98.00874329 124.16254425 98.47343445 C 126.57455444 98.67086792 127.44105530 99.04616547 129.48402405 98.67273712 C 131.77742004 98.17411041 132.96153259 98.10462189 134.87448120 97.71758270 C 137.11405945 97.55150604 138.71580505 96.92449188 139.98658752 97.81019592 C 139.03013611 98.98344421 137.31707764 99.02354431 135.15617371 99.71678925" stroke-width="1.00000000" fill="rgb(83, 6, 5)" opacity="1.0"/>
  </g>
</svg>
