<?xml version="1.0" ?>
<svg xmlns="http://www.w3.org/2000/svg" version="1.1" width="512" height="512" viewBox="0 0 512 512">
  <defs/>
  <g>
    <path d="M 279.33972168 330.52523804 C 277.56784058 335.82373047 275.81088257 341.18023682 274.08651733 346.51000977 C 272.27703857 351.77548218 270.66641235 357.08175659 269.20181274 362.37792969 C 267.62924194 367.54852295 266.01184082 372.52120972 264.47729492 377.22259521 C 262.97711182 381.73355103 261.63845825 385.84671021 260.48089600 389.51211548 C 259.54977417 392.66363525 258.53781128 395.26727295 257.46392822 396.96398926 C 256.31600952 397.79812622 255.05380249 397.70211792 253.82362366 396.68231201 C 252.83944702 394.79116821 251.83709717 392.08419800 250.73048401 388.75918579 C 249.47145081 384.98526001 248.13957214 380.78936768 246.58624268 376.18460083 C 245.00694275 371.41625977 243.36222839 366.53228760 241.67243958 361.62463379 C 239.95176697 356.53213501 238.35466003 351.47619629 236.97923279 346.42230225 C 235.57913208 341.34622192 234.10227966 336.36587524 232.39514160 331.57498169 C 230.54331970 326.78930664 228.91226196 321.98486328 227.47004700 317.15954590 C 225.99528503 312.37231445 224.58952332 307.57080078 223.19631958 302.78118896 C 221.82875061 298.04827881 220.33380127 293.44549561 218.56475830 288.99545288 C 216.92092896 284.61474609 215.41613770 280.38916016 214.04260254 276.29669189 C 212.92546082 272.50433350 211.94755554 268.92465210 211.15498352 265.76986694 C 211.15199280 262.94931030 211.93357849 260.41598511 213.32978821 258.17080688 C 215.38124084 256.06155396 217.98150635 254.20129395 221.13375854 252.66339111 C 224.67637634 251.18997192 228.72709656 249.94908142 233.04627991 248.93032837 C 237.74110413 248.06210327 242.57313538 247.30824280 247.62942505 246.85923767 C 252.74681091 246.53855896 257.93829346 246.39004517 263.05880737 246.48861694 C 268.09442139 246.72909546 272.94342041 247.21110535 277.54638672 247.84289551 C 281.90585327 248.73744202 285.86672974 249.81085205 289.37826538 251.12614441 C 292.46014404 252.63772583 295.03271484 254.34162903 296.95153809 256.31237793 C 298.35336304 258.59790039 299.10253906 260.99288940 298.94714355 263.65097046 C 297.97155762 266.78558350 296.68011475 270.18780518 295.41931152 274.15045166 C 294.09390259 278.44171143 292.75341797 282.92208862 291.40615845 287.75457764 C 289.81112671 292.55487061 288.33642578 297.66964722 286.96743774 302.72360229 C 285.62802124 307.91320801 284.06088257 313.05838013 282.60073853 318.30169678 C 281.09011841 323.45452881 279.63159180 328.67581177 279.33972168 330.52523804" stroke-width="2.00000000" fill="rgb(213, 167, 111)" opacity="1.0" stroke="rgb(59, 22, 0)" stroke-opacity="0.8155427" stroke-linecap="round" stroke-linejoin="round"/>
    <path d="M 264.43643188 156.15354919 C 267.72003174 158.73188782 271.10894775 161.33900452 274.39129639 163.94412231 C 277.72402954 166.52453613 281.06015015 169.18238831 284.26898193 171.82598877 C 287.48843384 174.54800415 290.64083862 177.17886353 293.72470093 180.08918762 C 296.69247437 182.85725403 299.47015381 185.80461121 302.17385864 188.78118896 C 304.59939575 191.87588501 306.71307373 195.18238831 308.55068970 198.67753601 C 310.15765381 202.20089722 311.55349731 205.95719910 312.58441162 209.86172485 C 313.36569214 213.89778137 313.76651001 218.03907776 313.83322144 222.32553101 C 313.74179077 226.68731689 313.40136719 231.08193970 312.56701660 235.42277527 C 311.36224365 239.82946777 309.65710449 244.02290344 307.54574585 248.23068237 C 305.11413574 252.18289185 302.37899780 255.94868469 299.44335938 259.51126099 C 296.39562988 262.73309326 293.46289062 265.72116089 290.51522827 268.16387939 C 286.98956299 269.37094116 283.25753784 270.20315552 279.58795166 271.38549805 C 275.81619263 272.31732178 271.98410034 273.08428955 268.17285156 273.59515381 C 264.33767700 273.37716675 260.42361450 273.35763550 256.46115112 273.55783081 C 252.48240662 273.45428467 248.49784851 273.36666870 244.62683105 273.41680908 C 240.76165771 272.88412476 236.98144531 271.98532104 233.19479370 270.98632812 C 229.57833862 269.90762329 225.88021851 268.93041992 222.33961487 267.80148315 C 219.20312500 265.96914673 216.31245422 263.66738892 213.43206787 261.15530396 C 210.65232849 258.52371216 208.11293030 255.49967957 205.73413086 252.38150024 C 203.48394775 249.09634399 201.44108582 245.62857056 199.71482849 241.96728516 C 198.29342651 238.20452881 197.23706055 234.20144653 196.39863586 230.16125488 C 195.76568604 226.11248779 195.53211975 222.06440735 195.67515564 217.90136719 C 196.03617859 213.76672363 196.70211792 209.61589050 197.68284607 205.59289551 C 198.82867432 201.66749573 200.26104736 197.84686279 202.12532043 194.24246216 C 204.02523804 190.82127380 206.23788452 187.60870361 208.94256592 184.67486572 C 211.78086853 181.86640930 214.78704834 179.13195801 217.89103699 176.47654724 C 221.02992249 173.84967041 224.34591675 171.39910889 227.62121582 168.94111633 C 230.97822571 166.58174133 234.43080139 164.32485962 237.81271362 162.03890991 C 241.20388794 159.77838135 244.67253113 157.53823853 248.08322144 155.41970825 C 251.60487366 153.12919617 254.90118408 150.98503113 264.43643188 156.15354919" stroke-width="1.89508545" fill="rgb(248, 181, 202)" opacity="1.0" stroke="rgb(67, 33, 37)" stroke-opacity="0.7059228" stroke-linecap="round" stroke-linejoin="round"/>
    <path d="M 300.56021118 183.13880920 C 298.38265991 185.71533203 296.18524170 188.18325806 293.80471802 190.50299072 C 291.27789307 192.65055847 288.52862549 194.61189270 285.58151245 196.33375549 C 282.49230957 197.92008972 279.29525757 199.43824768 275.98318481 200.70355225 C 272.48410034 201.83354187 268.94445801 202.83322144 265.32510376 203.62756348 C 261.63055420 204.08000183 257.81762695 204.24070740 254.06851196 204.26177979 C 250.24162292 204.18894958 246.42202759 203.81010437 242.60371399 203.09196472 C 238.94056702 202.22293091 235.21043396 201.00907898 231.62437439 199.59741211 C 228.16821289 197.99739075 224.88598633 196.20779419 221.63914490 194.35308838 C 218.56304932 192.40579224 215.81901550 190.19027710 213.33207703 187.66679382 C 211.09205627 184.77091980 209.06938171 181.74502563 207.20446777 178.58544922 C 205.57521057 175.20758057 204.17182922 171.72880554 203.19639587 168.03533936 C 202.36091614 164.35003662 201.65530396 160.58563232 201.32008362 156.76260376 C 201.29566956 153.01846313 201.64604187 149.19412231 202.16937256 145.48559570 C 202.68275452 141.74749756 203.43424988 138.10928345 204.55209351 134.60824585 C 206.12297058 131.24786377 207.69168091 127.82865143 209.21170044 124.57682037 C 211.08236694 121.48186493 213.14125061 118.66483307 215.36459351 116.00528717 C 217.83102417 113.61882019 220.36817932 111.46832275 223.09329224 109.48244476 C 226.00634766 107.68032074 228.97468567 106.22262573 232.03962708 104.89219666 C 235.28520203 103.78243256 238.62756348 102.88883209 242.09037781 102.18358612 C 245.59690857 101.70557404 249.25265503 101.48684692 252.94697571 101.35919952 C 256.65457153 101.52071381 260.38912964 101.80741119 264.18365479 102.39300537 C 268.02200317 103.04019928 271.80630493 104.03604126 275.39627075 105.14557648 C 279.02517700 106.47673798 282.57492065 107.96933746 285.89434814 109.78139496 C 289.06063843 111.81304169 292.07113647 113.99324036 294.80282593 116.42485046 C 297.26126099 119.02556610 299.37051392 122.00860596 301.24877930 125.21839905 C 303.00036621 128.41125488 304.68731689 131.73062134 306.15325928 135.10649109 C 307.32077026 138.60412598 308.15081787 142.12522888 308.74737549 145.72296143 C 309.08923340 149.22659302 309.21115112 152.79200745 309.13180542 156.30035400 C 308.91235352 159.77922058 308.43780518 163.03419495 307.76937866 166.36265564 C 306.91735840 169.62936401 306.08007812 172.93090820 300.56021118 183.13880920" stroke-width="1.79765165" fill="rgb(144, 85, 60)" opacity="1.0" stroke="rgb(46, 16, 7)" stroke-opacity="0.8601306" stroke-linecap="round" stroke-linejoin="round"/>
    <path d="M 289.87091064 126.56227875 C 287.67651367 128.57331848 285.36267090 130.60780334 282.95944214 132.50605774 C 280.35180664 134.10246277 277.71774292 135.61953735 274.94213867 137.03138733 C 272.15335083 138.27905273 269.25460815 139.34483337 266.35818481 140.23376465 C 263.37789917 140.93923950 260.41934204 141.44610596 257.27917480 141.67875671 C 254.10356140 141.70925903 250.84675598 141.56806946 247.62374878 141.12828064 C 244.33474731 140.51765442 241.03660583 139.83534241 237.74693298 138.92739868 C 234.65675354 137.75210571 231.63099670 136.27827454 228.72132874 134.57533264 C 225.99291992 132.69886780 223.39727783 130.73880005 220.95240784 128.46705627 C 218.78981018 125.97138977 216.87440491 123.37850189 215.18995667 120.54838562 C 213.69212341 117.58155060 212.46560669 114.38333130 211.35247803 111.29440308 C 210.34777832 108.06217194 209.78399658 104.74323273 209.34005737 101.43185425 C 209.02577209 98.06335449 208.95706177 94.69412994 209.16308594 91.29446411 C 209.48881531 87.90042114 209.92329407 84.61570740 210.54750061 81.37572479 C 211.45106506 78.21305847 212.59286499 75.21195221 213.99557495 72.33467102 C 215.48985291 69.51667786 217.20259094 66.74885559 219.11141968 64.21956635 C 221.08953857 61.77313614 223.22489929 59.44002533 225.47285461 57.21178055 C 227.88395691 55.19939423 230.41801453 53.40943527 233.04588318 51.82938385 C 235.79579163 50.32371521 238.62109375 49.08071136 241.45161438 48.13508224 C 244.41998291 47.35868073 247.42300415 46.77418900 250.36944580 46.31536102 C 253.39399719 46.03256226 256.47781372 46.04534912 259.57797241 46.49463272 C 262.64047241 47.08977890 265.78369141 47.97129822 269.01654053 48.93296432 C 272.09735107 50.13403702 275.09637451 51.61509705 278.09027100 53.36765671 C 280.90673828 55.35707474 283.57394409 57.60012817 286.03976440 60.05552292 C 288.41769409 62.55908203 290.54782104 65.33575439 292.48715210 68.17648315 C 294.28445435 71.07070160 295.71325684 74.10622406 297.02133179 77.18888855 C 298.12997437 80.33577728 298.92687988 83.46440887 299.43975830 86.63278198 C 299.70587158 89.86853027 299.88717651 93.05423737 299.95599365 96.30651855 C 299.81503296 99.49072266 299.53494263 102.55036163 298.89840698 105.62310028 C 297.89337158 108.70714569 296.77423096 111.77902222 295.73889160 114.88616180 C 294.95892334 118.13917542 294.35534668 121.50791168 289.87091064 126.56227875" stroke-width="1.68307233" fill="rgb(253, 247, 217)" opacity="1.0" stroke="rgb(44, 38, 22)" stroke-opacity="0.6729115" stroke-linecap="round" stroke-linejoin="round"/>
    <path d="M 453.69702148 503.60845947 C 442.51144409 503.72055054 431.23516846 503.86120605 420.04931641 503.96484375 C 408.80813599 504.14453125 397.62673950 504.22146606 386.45852661 504.37994385 C 375.26181030 504.54791260 364.15054321 504.62695312 353.02301025 504.82424927 C 341.84936523 504.97497559 330.76300049 505.13650513 319.56750488 505.29537964 C 308.31753540 505.56924438 297.07958984 505.78936768 285.69247437 506.03427124 C 274.15026855 506.36724854 262.55859375 506.69818115 250.72650146 507.07452393 C 238.74194336 507.46200562 226.55128479 507.91305542 214.17057800 508.34942627 C 201.57131958 508.84725952 188.81402588 509.27487183 175.91438293 509.77471924 C 162.93243408 510.17764282 149.89883423 510.59939575 136.99324036 510.92233276 C 124.29904938 511.15585327 111.91133118 511.37261963 99.97824097 511.39285278 C 88.65447998 511.35256958 77.99821472 511.18206787 68.25940704 510.82916260 C 59.50357056 510.42001343 51.90096283 509.78771973 45.46225357 509.04614258 C 40.42929459 508.21835327 36.75049591 507.24237061 34.56723022 506.20407104 C 33.88882446 505.08428955 34.72309494 503.93933105 37.00531387 502.77203369 C 40.74490738 501.60617065 45.79100800 500.51080322 52.06105042 499.41564941 C 59.41829681 498.47842407 67.77986145 497.57208252 76.88769531 496.83523560 C 86.73702240 496.16537476 97.13794708 495.65203857 107.89582062 495.23535156 C 119.00619507 494.96176147 130.22155762 494.73010254 141.57905579 494.69039917 C 152.96217346 494.63693237 164.27912903 494.73962402 175.66351318 494.76589966 C 186.95341492 495.00439453 198.24073792 495.06130981 209.45576477 495.27368164 C 220.72206116 495.40286255 232.04640198 495.49264526 243.39526367 495.56552124 C 254.82585144 495.61233521 266.39538574 495.66638184 278.02661133 495.60537720 C 289.87387085 495.62094116 301.62707520 495.56072998 313.66259766 495.52285767 C 325.63729858 495.49407959 337.57577515 495.45953369 349.47097778 495.42016602 C 361.22445679 495.42382812 372.70437622 495.49310303 383.94543457 495.47055054 C 394.85317993 495.66055298 405.42944336 495.73263550 415.55258179 495.97482300 C 425.31399536 496.16983032 434.64306641 496.51062012 443.53332520 496.74673462 C 452.13232422 497.16598511 460.41046143 497.54052734 468.34414673 497.95883179 C 476.19293213 498.36737061 483.77456665 498.83551025 491.31854248 499.27651978 C 498.82427979 499.69512939 506.28216553 500.21676636 453.69702148 503.60845947" stroke-width="2.00000000" fill="rgb(254, 255, 255)" opacity="1.0" stroke="rgb(253, 252, 252)" stroke-opacity="0.00897352" stroke-linecap="round" stroke-linejoin="round"/>
    <path d="M 262.13351440 345.17025757 C 262.84796143 345.84826660 263.55242920 346.58224487 264.33065796 347.27108765 C 265.02233887 347.84997559 265.68884277 348.32012939 266.37066650 348.74636841 C 266.83081055 349.13183594 267.17846680 349.51330566 267.15969849 349.95535278 C 266.84371948 350.29861450 266.32498169 350.83996582 265.64398193 351.41174316 C 264.85266113 352.12969971 263.97824097 352.93963623 263.05050659 353.86956787 C 262.14782715 354.81658936 261.18304443 355.78747559 260.17660522 356.72418213 C 259.18255615 357.58734131 258.29486084 358.42785645 257.46017456 359.15472412 C 256.78405762 359.94186401 256.21493530 360.34848022 255.72354126 360.62356567 C 255.28204346 360.50457764 254.85108948 360.12051392 254.43434143 359.49215698 C 253.80033875 358.78302002 253.10543823 357.96267700 252.30445862 357.12469482 C 251.50215149 356.10379028 250.62289429 355.12643433 249.71875000 354.15762329 C 248.84394836 353.16415405 248.06593323 352.23272705 247.46080017 351.28305054 C 246.84445190 350.46255493 246.28636169 349.84152222 245.81115723 349.41662598 C 245.55578613 349.05502319 245.66432190 348.75906372 246.04234314 348.33267212 C 246.54092407 347.92968750 247.19007874 347.40899658 247.92919922 346.72396851 C 248.70343018 346.05752563 249.53291321 345.43655396 250.43556213 344.81121826 C 251.29377747 344.20260620 252.11430359 343.61068726 252.98800659 343.00442505 C 253.65528870 342.57675171 254.37727356 342.03097534 254.97785950 341.66186523 C 255.47509766 341.35195923 255.89920044 340.94790649 256.08624268 340.67507935 C 256.31216431 340.37149048 256.40158081 340.13278198 262.13351440 345.17025757" stroke-width="1.47852898" fill="rgb(234, 186, 126)" opacity="1.0" stroke="rgb(67, 25, 1)" stroke-opacity="0.88919795" stroke-linecap="round" stroke-linejoin="round"/>
  </g>
</svg>
