<?xml version="1.0" ?>
<svg xmlns="http://www.w3.org/2000/svg" version="1.1" width="512" height="512" viewBox="0 0 512 512">
  <defs/>
  <g>
    <path d="M 279.23095703 330.83312988 C 277.36886597 336.47320557 275.60729980 342.08697510 273.73843384 347.57205200 C 271.88894653 353.04418945 270.19406128 358.49169922 268.72714233 363.74395752 C 267.22302246 368.85879517 265.66653442 373.73556519 264.16006470 378.35873413 C 262.76910400 382.58859253 261.42385864 386.41354370 260.29394531 389.87615967 C 259.42102051 392.78811646 258.56951904 395.20590210 257.51513672 396.86868286 C 256.37945557 397.68255615 255.15466309 397.73260498 254.04132080 397.00036621 C 253.02699280 395.28793335 252.14118958 392.77111816 251.06768799 389.72833252 C 249.70498657 386.18444824 248.44285583 382.19424438 247.12322998 377.79748535 C 245.57055664 373.10699463 244.00497437 368.38467407 242.30435181 363.43594360 C 240.49070740 358.34207153 238.89814758 353.14364624 237.47384644 347.97799683 C 235.95112610 342.70791626 234.37156677 337.45126343 232.59394836 332.29562378 C 230.70046997 327.14978027 228.98233032 322.07666016 227.35063171 316.87432861 C 225.79284668 311.75503540 224.32324219 306.67730713 222.83238220 301.70803833 C 221.40447998 296.78506470 219.88226318 292.00216675 218.09202576 287.49557495 C 216.41313171 283.18069458 214.83836365 279.11749268 213.60208130 275.14334106 C 212.60847473 271.38119507 211.67897034 268.02563477 211.04800415 265.09033203 C 211.29675293 262.47079468 212.28416443 260.00326538 213.92431641 257.82571411 C 216.08738708 255.84454346 218.80130005 254.06236267 221.90214539 252.43867493 C 225.46907043 250.99649048 229.39453125 249.77987671 233.66275024 248.72871399 C 238.17192078 247.93037415 242.94364929 247.24592590 247.85401917 246.71531677 C 252.83975220 246.44914246 257.84988403 246.36460876 262.85021973 246.44377136 C 267.69628906 246.69680786 272.43811035 247.18766785 276.96008301 247.88551331 C 281.19982910 248.75863647 285.14126587 249.85908508 288.73910522 251.11676025 C 291.90170288 252.60646057 294.54583740 254.27938843 296.65975952 256.13903809 C 298.20217896 258.17965698 299.12475586 260.41864014 299.25811768 262.82574463 C 298.32006836 265.62844849 297.10925293 268.85848999 295.90036011 272.65289307 C 294.58868408 276.86688232 293.24923706 281.35675049 291.88497925 286.15637207 C 290.35314941 291.07644653 288.77832031 296.09994507 287.35668945 301.24822998 C 285.94628906 306.57974243 284.40414429 311.89056396 282.92187500 317.23635864 C 281.35806274 322.53164673 279.86920166 327.92385864 279.23095703 330.83312988" stroke-width="2.00000000" fill="rgb(214, 166, 112)" opacity="1.0" stroke="rgb(59, 22, 0)" stroke-opacity="0.8135881" stroke-linecap="round" stroke-linejoin="round"/>
    <path d="M 265.13229370 155.42092896 C 268.42462158 158.13951111 271.69161987 160.88729858 275.04135132 163.63125610 C 278.36041260 166.33628845 281.63085938 169.10632324 284.81408691 171.91058350 C 288.02099609 174.70695496 291.15554810 177.53894043 294.22634888 180.50465393 C 297.21713257 183.34843445 300.03985596 186.28713989 302.70782471 189.38825989 C 305.08053589 192.55842590 307.20083618 195.90457153 308.96212769 199.45564270 C 310.54000854 203.07710266 311.82043457 206.81008911 312.76086426 210.70465088 C 313.49291992 214.67045593 313.82897949 218.85429382 313.84243774 223.03944397 C 313.82138062 227.29278564 313.43814087 231.62010193 312.46997070 235.94784546 C 311.24380493 240.26008606 309.52145386 244.46031189 307.35357666 248.52760315 C 304.90859985 252.49403381 302.22937012 256.27999878 299.27252197 259.79098511 C 296.10641479 262.91290283 293.22308350 265.91961670 290.30416870 268.39672852 C 286.81631470 269.34259033 283.04949951 270.15826416 279.40188599 271.41506958 C 275.67492676 272.36099243 271.86337280 273.11938477 268.08575439 273.65545654 C 264.29821777 273.33828735 260.41540527 273.26571655 256.53598022 273.55773926 C 252.58073425 273.38891602 248.60749817 273.35519409 244.59266663 273.47521973 C 240.69216919 272.87460327 236.80650330 271.95153809 232.81974792 270.96813965 C 229.01481628 269.78479004 225.16722107 268.73065186 221.49996948 267.37887573 C 218.29849243 265.27777100 215.33349609 262.77435303 212.38816833 260.28805542 C 209.74192810 257.49942017 207.37576294 254.45565796 205.14933777 251.33732605 C 203.00639343 248.17999268 201.05505371 244.88394165 199.51545715 241.35891724 C 198.24177551 237.73094177 197.22402954 233.97288513 196.40116882 230.09167480 C 195.72964478 226.31668091 195.48751831 222.40080261 195.66607666 218.47779846 C 196.05390930 214.52969360 196.56918335 210.59657288 197.40399170 206.62904358 C 198.43191528 202.80087280 199.83407593 199.07263184 201.40846252 195.52441406 C 203.24665833 192.03514099 205.22586060 188.74649048 207.85920715 185.87872314 C 210.73408508 183.06217957 213.77748108 180.27668762 217.00148010 177.57099915 C 220.34715271 174.82209778 223.62960815 172.18896484 226.97477722 169.53999329 C 230.48138428 167.01095581 233.93414307 164.46325684 237.43841553 162.02180481 C 240.90039062 159.59399414 244.41453552 157.17265320 247.84669495 154.71504211 C 251.32710266 152.35142517 254.86024475 150.02729797 265.13229370 155.42092896" stroke-width="1.87929714" fill="rgb(245, 177, 200)" opacity="1.0" stroke="rgb(67, 35, 36)" stroke-opacity="0.699015" stroke-linecap="round" stroke-linejoin="round"/>
    <path d="M 300.70159912 183.00808716 C 298.44628906 185.59524536 296.24066162 188.20378113 293.78182983 190.53901672 C 291.16519165 192.69993591 288.36236572 194.67379761 285.40316772 196.43728638 C 282.32659912 198.08078003 279.07113647 199.52252197 275.72198486 200.73252869 C 272.26202393 201.91735840 268.77352905 202.93367004 265.16714478 203.65757751 C 261.48510742 204.15615845 257.76696777 204.33976746 254.04302979 204.27375793 C 250.20851135 204.21945190 246.47355652 203.82411194 242.75195312 203.15325928 C 239.02404785 202.17628479 235.31901550 201.03439331 231.79689026 199.65093994 C 228.34045410 198.06651306 224.96435547 196.35855103 221.77088928 194.46093750 C 218.75518799 192.53207397 216.03929138 190.26696777 213.48841858 187.79098511 C 211.27381897 185.00886536 209.16320801 181.97323608 207.37503052 178.86087036 C 205.72131348 175.58886719 204.28459167 172.06010437 203.34048462 168.45166016 C 202.41029358 164.83331299 201.80091858 161.08572388 201.44514465 157.27418518 C 201.35275269 153.47525024 201.63774109 149.74179077 202.14692688 146.01870728 C 202.60679626 142.31237793 203.36094666 138.65396118 204.39904785 135.07653809 C 205.87948608 131.70237732 207.46575928 128.36720276 208.97842407 125.07036591 C 210.73051453 122.02716827 212.72381592 119.18080139 215.02577209 116.49910736 C 217.49017334 114.06211090 220.10725403 111.86961365 222.94485474 109.85756683 C 225.92903137 108.06470490 228.99124146 106.46778870 232.13822937 105.04111481 C 235.43980408 103.89007568 238.91188049 102.89706421 242.43864441 102.15808105 C 245.97947693 101.64756775 249.66616821 101.36848450 253.34785461 101.25469208 C 257.07925415 101.33462524 260.90710449 101.66723633 264.66369629 102.31517792 C 268.37191772 102.99683380 272.08786011 103.95655823 275.78204346 105.06745911 C 279.32220459 106.54231262 282.73245239 108.07025146 286.05575562 109.91716003 C 289.15811157 111.83930206 292.08450317 114.07439423 294.76211548 116.38279724 C 297.20318604 119.00881958 299.31707764 121.87413025 301.04974365 124.92144012 C 302.81732178 128.02320862 304.44531250 131.20353699 305.87182617 134.55114746 C 307.08279419 137.84600830 307.89111328 141.30964661 308.58404541 144.76989746 C 308.92617798 148.21342468 309.09585571 151.68154907 309.18698120 155.16395569 C 309.05883789 158.58963013 308.59823608 161.92277527 308.01742554 165.17584229 C 307.26620483 168.52618408 306.58010864 171.87582397 300.70159912 183.00808716" stroke-width="1.79295611" fill="rgb(141, 83, 58)" opacity="1.0" stroke="rgb(45, 17, 8)" stroke-opacity="0.8597737" stroke-linecap="round" stroke-linejoin="round"/>
    <path d="M 290.08853149 126.26670837 C 287.94680786 128.38900757 285.73440552 130.46801758 283.31588745 132.30560303 C 280.69387817 133.89178467 278.06933594 135.39018250 275.30715942 136.85510254 C 272.48217773 138.00239563 269.64578247 139.18533325 266.77532959 140.16767883 C 263.77792358 140.85890198 260.69644165 141.41870117 257.64099121 141.63610840 C 254.44456482 141.67506409 251.13996887 141.56721497 247.82473755 141.23056030 C 244.49011230 140.66511536 241.14242554 139.90179443 237.86120605 138.91827393 C 234.65505981 137.74728394 231.58547974 136.29380798 228.71398926 134.56784058 C 225.91656494 132.68763733 223.33384705 130.60998535 220.98722839 128.31163025 C 218.73942566 125.84438324 216.72915649 123.20883179 215.09538269 120.41615295 C 213.62893677 117.41300964 212.39880371 114.20729828 211.29454041 111.07052612 C 210.38206482 107.89091492 209.69479370 104.56842041 209.32635498 101.32601929 C 209.07960510 97.98653412 209.01504517 94.60007477 209.17439270 91.21527863 C 209.47782898 87.88043976 209.91749573 84.53697205 210.58009338 81.33193970 C 211.50367737 78.25794220 212.60215759 75.18582916 213.98217773 72.29342651 C 215.51762390 69.53388977 217.23529053 66.86639404 219.13476562 64.22689819 C 221.15054321 61.79086685 223.22621155 59.37732315 225.46166992 57.15737915 C 227.97897339 55.20679092 230.51281738 53.32797623 233.16368103 51.60767365 C 235.98811340 50.19697189 238.86337280 49.02564240 241.78184509 47.97716522 C 244.76307678 47.18107986 247.78570557 46.69430923 250.75444031 46.27174759 C 253.75926208 46.06280899 256.78125000 46.21524048 259.81726074 46.58792114 C 262.90072632 47.20836258 266.01132202 47.91039276 269.11547852 48.92574310 C 272.17657471 50.12636185 275.14962769 51.51245499 278.01654053 53.26443863 C 280.72531128 55.23730850 283.32852173 57.33681870 285.87704468 59.65466309 C 288.13653564 62.19509125 290.18191528 64.89864349 292.16320801 67.62039185 C 293.90576172 70.54730988 295.43859863 73.47852325 296.74600220 76.51800537 C 297.90182495 79.68876648 298.76956177 82.88468170 299.42797852 86.07495880 C 299.73284912 89.26161957 299.83963013 92.55181885 299.93252563 95.88519287 C 299.80758667 99.08500671 299.53912354 102.22659302 299.00512695 105.32603455 C 298.01132202 108.48006439 296.86096191 111.56968689 295.81951904 114.72792053 C 295.09140015 117.96945953 294.51181030 121.31874847 290.08853149 126.26670837" stroke-width="1.68993235" fill="rgb(253, 247, 217)" opacity="1.0" stroke="rgb(42, 35, 20)" stroke-opacity="0.68401664" stroke-linecap="round" stroke-linejoin="round"/>
    <path d="M 453.21707153 503.57406616 C 442.27032471 503.67083740 431.20590210 503.78234863 420.19262695 503.88616943 C 409.17538452 503.99905396 398.13067627 504.12661743 387.07925415 504.20846558 C 376.02972412 504.42581177 364.89508057 504.54504395 353.78753662 504.71151733 C 342.54718018 504.94281006 331.29312134 505.14590454 319.92370605 505.41406250 C 308.49224854 505.68875122 296.85614014 505.97686768 285.13934326 506.34472656 C 273.22406006 506.66290283 261.18322754 507.08453369 248.89587402 507.47521973 C 236.45227051 507.87167358 223.90272522 508.32901001 211.15249634 508.75146484 C 198.30969238 509.14276123 185.46437073 509.57070923 172.56423950 509.89346313 C 159.71694946 510.27264404 147.05734253 510.45462036 134.60662842 510.72457886 C 122.44807434 510.82144165 110.79114532 510.84307861 99.58409882 510.81594849 C 89.09243774 510.65167236 79.32534790 510.34234619 70.39830017 510.01596069 C 62.48742676 509.51486206 55.56663132 508.95178223 49.79916000 508.28143311 C 45.26877594 507.50354004 41.92624283 506.68322754 39.85326767 505.79458618 C 39.13238907 504.83596802 39.69547272 503.87390137 41.54569244 502.89062500 C 44.65060806 501.90786743 48.96089172 500.90884399 54.40835571 500.01217651 C 60.81307983 499.14877319 68.25557709 498.27459717 76.43649292 497.54922485 C 85.45212555 496.89102173 95.03540802 496.27273560 105.16466522 495.78460693 C 115.78195190 495.38546753 126.75193024 495.01266479 138.00122070 494.78045654 C 149.50695801 494.65036011 161.13238525 494.50152588 172.93267822 494.51260376 C 184.77320862 494.52981567 196.59930420 494.54373169 208.59407043 494.67062378 C 220.49990845 494.76666260 232.36637878 494.88330078 244.33491516 495.02804565 C 256.18487549 495.12371826 268.09771729 495.24676514 279.97778320 495.30050659 C 291.69680786 495.39285278 303.47927856 495.40942383 315.12243652 495.42660522 C 326.67996216 495.50976562 338.11776733 495.45858765 349.40002441 495.50460815 C 360.53457642 495.56658936 371.41900635 495.61303711 382.16079712 495.70538330 C 392.64526367 495.86651611 402.85003662 495.97824097 412.87628174 496.17514038 C 422.62951660 496.42623901 432.15789795 496.64434814 441.45663452 496.91564941 C 450.58752441 497.22470093 459.56341553 497.56799316 468.36587524 497.83599854 C 477.05987549 498.26376343 485.70294189 498.57943726 494.27069092 498.96246338 C 502.82000732 499.29107666 511.39318848 499.71365356 453.21707153 503.57406616" stroke-width="2.00000000" fill="rgb(254, 255, 253)" opacity="1.0" stroke="rgb(249, 255, 253)" stroke-opacity="0.017683456" stroke-linecap="round" stroke-linejoin="round"/>
    <path d="M 263.43063354 346.25125122 C 263.96920776 346.91888428 264.53396606 347.44390869 265.06665039 347.91458130 C 265.62521362 348.31216431 266.21228027 348.65530396 266.75695801 348.98364258 C 267.05416870 349.32431030 267.19958496 349.68667603 267.12896729 350.04168701 C 266.78198242 350.46334839 266.17199707 350.91107178 265.43698120 351.49935913 C 264.63482666 352.23226929 263.85238647 353.01065063 262.96215820 353.95660400 C 261.97848511 354.90054321 261.05642700 355.82522583 260.04232788 356.79098511 C 259.08276367 357.68652344 258.20040894 358.47305298 257.36138916 359.23052979 C 256.68499756 359.82455444 256.11642456 360.34536743 255.65272522 360.63171387 C 255.27427673 360.50653076 254.84051514 360.08892822 254.41357422 359.43298340 C 253.74346924 358.66363525 253.01550293 357.84902954 252.26148987 356.94277954 C 251.44796753 355.98321533 250.54762268 355.01867676 249.64489746 354.02691650 C 248.82925415 353.04986572 248.10090637 352.08474731 247.47190857 351.23550415 C 246.89488220 350.49542236 246.28614807 349.94079590 245.76327515 349.61428833 C 245.49903870 349.26593018 245.45301819 348.95242310 245.78706360 348.64257812 C 246.29708862 348.26852417 246.86004639 347.80410767 247.54794312 347.18988037 C 248.26104736 346.47708130 249.12554932 345.77136230 249.93016052 345.10330200 C 250.82855225 344.49758911 251.75067139 343.88055420 252.58816528 343.31027222 C 253.45024109 342.77957153 254.17672729 342.26580811 254.86099243 341.83840942 C 255.40763855 341.45599365 255.86747742 341.14160156 256.12680054 340.73269653 C 256.29467773 340.35348511 256.42977905 340.08908081 263.43063354 346.25125122" stroke-width="1.45829499" fill="rgb(236, 185, 126)" opacity="1.0" stroke="rgb(65, 22, 1)" stroke-opacity="0.8627704" stroke-linecap="round" stroke-linejoin="round"/>
  </g>
</svg>
