<?xml version="1.0" ?>
<svg xmlns="http://www.w3.org/2000/svg" version="1.1" width="512" height="512" viewBox="0 0 512 512">
  <defs/>
  <g>
    <path d="M 278.85351562 331.87207031 C 277.40341187 336.34567261 275.95797729 340.85955811 274.47412109 345.34097290 C 272.92453003 349.83828735 271.46536255 354.46688843 270.09692383 359.28393555 C 268.62313843 364.26849365 267.15060425 369.19964600 265.54467773 374.04653931 C 263.90512085 378.87094116 262.43096924 383.44628906 261.04687500 387.73370361 C 259.87191772 391.50772095 258.78466797 394.53259277 257.68695068 396.69195557 C 256.36163330 397.77774048 255.05023193 397.75866699 253.83509827 396.63873291 C 252.64292908 394.29742432 251.52250671 391.10577393 250.23527527 387.29327393 C 248.73515320 382.92941284 247.25842285 378.17669678 245.66661072 373.33157349 C 243.99470520 368.36083984 242.26588440 363.47750854 240.67288208 358.61019897 C 239.09793091 353.85366821 237.77218628 348.99713135 236.41957092 344.40213013 C 235.13623047 339.86898804 233.77687073 335.50180054 232.29055786 331.23974609 C 230.67851257 326.94921875 229.19006348 322.66888428 227.85693359 318.38629150 C 226.52200317 313.97567749 225.16741943 309.43801880 223.80400085 304.77301025 C 222.44168091 300.11477661 220.96710205 295.55825806 219.33084106 290.87023926 C 217.58750916 286.32058716 215.89390564 281.87493896 214.43640137 277.64651489 C 213.19969177 273.51687622 212.08689880 269.74472046 211.22111511 266.48773193 C 210.94874573 263.65307617 211.63906860 261.06130981 212.93078613 258.83502197 C 214.86953735 256.71243286 217.41320801 254.89715576 220.54383850 253.25674438 C 224.08255005 251.84593201 228.08744812 250.55583191 232.45588684 249.45050049 C 237.09645081 248.54931641 242.11180115 247.82452393 247.17347717 247.27729797 C 252.42895508 246.89364624 257.75119019 246.68318176 262.99392700 246.64413452 C 268.20822144 246.86791992 273.21984863 247.23194885 278.02603149 247.81143188 C 282.46942139 248.58007812 286.68246460 249.64790344 290.34237671 250.99331665 C 293.49212646 252.55149841 295.88693237 254.36116028 297.78378296 256.48495483 C 298.81494141 258.89535522 299.16387939 261.61080933 298.67034912 264.77618408 C 297.42340088 268.29553223 295.99618530 272.30981445 294.59225464 276.62921143 C 293.30798340 281.18963623 291.94799805 285.98498535 290.49676514 290.78747559 C 288.93801880 295.50112915 287.52984619 300.24551392 286.39855957 304.94836426 C 285.17959595 309.55490112 283.89254761 314.11935425 282.50833130 318.60647583 C 281.16717529 322.95288086 280.04141235 327.44250488 278.85351562 331.87207031" stroke-width="2.00000000" fill="rgb(215, 165, 113)" opacity="1.0" stroke="rgb(60, 24, 0)" stroke-opacity="0.8081563" stroke-linecap="round" stroke-linejoin="round"/>
    <path d="M 263.73306274 157.19305420 C 267.13171387 159.59759521 270.43844604 161.99534607 273.79629517 164.41339111 C 277.08462524 166.77307129 280.37536621 169.22108459 283.67230225 171.71218872 C 286.90600586 174.30195618 290.09838867 176.85098267 293.16055298 179.60662842 C 296.14691162 182.41053772 299.09201050 185.22149658 301.70687866 188.29057312 C 304.21478271 191.31175232 306.39456177 194.64343262 308.30297852 198.03453064 C 309.96090698 201.65750122 311.32733154 205.32052612 312.44085693 209.20968628 C 313.24725342 213.18251038 313.66567993 217.21463013 313.84146118 221.45960999 C 313.82214355 225.65646362 313.55517578 229.90472412 312.83471680 234.20388794 C 311.68789673 238.41040039 310.17926025 242.62368774 308.29244995 246.75137329 C 306.04788208 250.78285217 303.46231079 254.66433716 300.53839111 258.27847290 C 297.47521973 261.62475586 294.38894653 264.75338745 291.41476440 267.42639160 C 287.96463013 269.02844238 284.26248169 269.98266602 280.45614624 271.14480591 C 276.58044434 272.15286255 272.60577393 272.97201538 268.57873535 273.52297974 C 264.62045288 273.41113281 260.55703735 273.37927246 256.47329712 273.50018311 C 252.41362000 273.38558960 248.49235535 273.39208984 244.58390808 273.36441040 C 240.78723145 272.73333740 237.11293030 271.94180298 233.46778870 271.07727051 C 229.94526672 270.05328369 226.42904663 269.13763428 223.00923157 268.04693604 C 219.99494934 266.44812012 217.11717224 264.36108398 214.34754944 261.86257935 C 211.46397400 259.38796997 208.88453674 256.46539307 206.39195251 253.27694702 C 204.03433228 249.90484619 201.85391235 246.25010681 199.97940063 242.50177002 C 198.47727966 238.51823425 197.27740479 234.37951660 196.40936279 230.12002563 C 195.74002075 225.92065430 195.49035645 221.60595703 195.74801636 217.38038635 C 196.14511108 213.08476257 196.94244385 208.91981506 197.96534729 204.78804016 C 199.14044189 200.85055542 200.75276184 197.01840210 202.51918030 193.47712708 C 204.51614380 190.03565979 206.88580322 186.90611267 209.54646301 183.93850708 C 212.31913757 181.11997986 215.16130066 178.36642456 218.14326477 175.66137695 C 221.16685486 173.11698914 224.34349060 170.62704468 227.68519592 168.26501465 C 231.02157593 166.06539917 234.46061707 163.91950989 238.00256348 161.88659668 C 241.46176147 159.98600769 245.04244995 158.02796936 248.69421387 156.18450928 C 252.32121277 154.44276428 255.91639709 152.56344604 263.73306274 157.19305420" stroke-width="1.91171837" fill="rgb(247, 180, 201)" opacity="1.0" stroke="rgb(69, 35, 37)" stroke-opacity="0.7074556" stroke-linecap="round" stroke-linejoin="round"/>
    <path d="M 300.47854614 183.13830566 C 298.54696655 185.54850769 296.38067627 187.86808777 294.18807983 190.16824341 C 291.70245361 192.27770996 289.08303833 194.18458557 286.16806030 195.98564148 C 283.05258179 197.61592102 279.78887939 199.10780334 276.37664795 200.43708801 C 272.85955811 201.67564392 269.18600464 202.75923157 265.49261475 203.55271912 C 261.64465332 204.13552856 257.73876953 204.32794189 253.85032654 204.30802917 C 249.93788147 204.13333130 246.07347107 203.76089478 242.25999451 203.04125977 C 238.44998169 202.05187988 234.80879211 200.82936096 231.21865845 199.41691589 C 227.84783936 197.79034424 224.57536316 196.04156494 221.43647766 194.24118042 C 218.47245789 192.29423523 215.76667786 190.06817627 213.27494812 187.55296326 C 211.08335876 184.75654602 209.03082275 181.83619690 207.23117065 178.61590576 C 205.68110657 175.16120911 204.35301208 171.62631226 203.26017761 167.92904663 C 202.31153870 164.18743896 201.69638062 160.33502197 201.33383179 156.41264343 C 201.38800049 152.51037598 201.74006653 148.60531616 202.30416870 144.61662292 C 202.87965393 140.83035278 203.71902466 137.14517212 204.96223450 133.63018799 C 206.50302124 130.19726562 208.15032959 126.88317871 209.79359436 123.63115692 C 211.58929443 120.62685394 213.66502380 117.92326355 215.86798096 115.34761810 C 218.21882629 113.02792358 220.68519592 110.91840363 223.23300171 109.08179474 C 225.90051270 107.36915588 228.64817810 105.96891785 231.59808350 104.71563721 C 234.77427673 103.67037201 237.98414612 102.90732574 241.28207397 102.28301239 C 244.89404297 101.88833618 248.47164917 101.63356781 252.23292542 101.62129211 C 256.06213379 101.78187561 259.94000244 102.11489105 263.85546875 102.65676880 C 267.72994995 103.34101105 271.61752319 104.22024536 275.31182861 105.36228180 C 279.00128174 106.62847137 282.55441284 108.14325714 285.91210938 109.85662842 C 289.05960083 111.85948181 292.01412964 114.03084564 294.76922607 116.41823578 C 297.18399048 119.14275360 299.18029785 122.08678436 301.12594604 125.15172577 C 303.05703735 128.34913635 304.69891357 131.70222473 306.10867310 135.25640869 C 307.24475098 138.85052490 308.17153931 142.46420288 308.84368896 146.15896606 C 309.13864136 149.92306519 309.14141846 153.70506287 309.04470825 157.42619324 C 308.74487305 161.06300354 308.16998291 164.57177734 307.29675293 167.98123169 C 306.21102905 171.44189453 305.04061890 174.89598083 300.47854614 183.13830566" stroke-width="1.82701123" fill="rgb(141, 84, 56)" opacity="1.0" stroke="rgb(46, 14, 7)" stroke-opacity="0.8613394" stroke-linecap="round" stroke-linejoin="round"/>
    <path d="M 289.18716431 127.16519928 C 287.12738037 129.12908936 284.98336792 131.03520203 282.63522339 132.71853638 C 280.06088257 134.29063416 277.44354248 135.68313599 274.80929565 137.05902100 C 272.03048706 138.32005310 269.17141724 139.35401917 266.23049927 140.24873352 C 263.31173706 141.01873779 260.29580688 141.49546814 257.11184692 141.63301086 C 253.93705750 141.69070435 250.62231445 141.61444092 247.37780762 141.16294861 C 244.00347900 140.51168823 240.69104004 139.70225525 237.49284363 138.77270508 C 234.29861450 137.47541809 231.29566956 135.99238586 228.48771667 134.32221985 C 225.67132568 132.50964355 223.18145752 130.49423218 220.87899780 128.22975159 C 218.70050049 125.90468597 216.87486267 123.44715881 215.21955872 120.73304749 C 213.80332947 117.85781097 212.64595032 114.80872345 211.48483276 111.69906616 C 210.42544556 108.57294464 209.74342346 105.30026245 209.37393188 101.93165588 C 209.08715820 98.47571564 209.01196289 94.99509430 209.16329956 91.46759033 C 209.42269897 87.94037628 209.95437622 84.51857758 210.63902283 81.12760925 C 211.59654236 77.89585876 212.77436829 74.82442474 214.15737915 71.80122375 C 215.85441589 69.07810211 217.57678223 66.36054230 219.40818787 63.82913971 C 221.35789490 61.43149567 223.40501404 59.20552063 225.55670166 57.13485718 C 227.84144592 55.25723648 230.23457336 53.56663132 232.65759277 52.01192474 C 235.25970459 50.60612488 237.87475586 49.43429947 240.55192566 48.36462784 C 243.40530396 47.48235703 246.34483337 46.94770432 249.38494873 46.49345398 C 252.39953613 46.12956619 255.62069702 46.08782578 258.85910034 46.35686874 C 262.13220215 46.97100449 265.53903198 47.81995773 268.90042114 48.86509323 C 272.27313232 50.18214417 275.54074097 51.73081589 278.51922607 53.67731857 C 281.46542358 55.81402969 284.19082642 58.18161011 286.73599243 60.67517853 C 289.09918213 63.36505127 291.23361206 66.08408356 293.07595825 68.95114899 C 294.72808838 71.92465973 296.05688477 74.93664551 297.31143188 77.93761444 C 298.29064941 81.05631256 299.03536987 84.12920380 299.53662109 87.35011292 C 299.83584595 90.53641510 299.90875244 93.73329926 299.93878174 96.95799255 C 299.86679077 100.17948151 299.47305298 103.32699585 298.66564941 106.39486694 C 297.65570068 109.46948242 296.52529907 112.53366852 295.51419067 115.64474487 C 294.74160767 118.78577423 293.99475098 122.07368469 289.18716431 127.16519928" stroke-width="1.68073118" fill="rgb(249, 243, 213)" opacity="1.0" stroke="rgb(45, 40, 22)" stroke-opacity="0.6887513" stroke-linecap="round" stroke-linejoin="round"/>
    <path d="M 453.01095581 503.85934448 C 441.95761108 504.09106445 430.90185547 504.15921021 419.91366577 504.09658813 C 408.87203979 504.07052612 397.76971436 504.10766602 386.70544434 504.14590454 C 375.59594727 504.27310181 364.44970703 504.51123047 353.32403564 504.80209351 C 341.97872925 505.13851929 330.66027832 505.35366821 319.16867065 505.52609253 C 307.76690674 505.65228271 296.32165527 505.77624512 284.85025024 505.83303833 C 273.25308228 506.01583862 261.58944702 506.39114380 249.91677856 506.96749878 C 238.22106934 507.57489014 226.59033203 508.01370239 214.98596191 508.31677246 C 203.51707458 508.59823608 191.97529602 508.82067871 180.41833496 508.99850464 C 168.74079895 509.22485352 156.86405945 509.49053955 144.59887695 509.74731445 C 131.97982788 510.01681519 119.07120514 510.37063599 105.92610931 510.86651611 C 92.82532501 511.34277344 79.83238983 511.93011475 67.47727203 512.50634766 C 56.06010818 512.92205811 45.86679459 512.97650146 37.08818436 512.61779785 C 30.12809753 511.60156250 25.30154800 510.07327271 22.71181679 508.07971191 C 22.42356110 505.94091797 24.36945152 503.72879028 28.32763863 501.58660889 C 34.20587158 499.61190796 41.71902466 497.97241211 50.58522415 496.67449951 C 60.39996338 495.81884766 70.96921539 495.24932861 81.93687439 494.94351196 C 93.07804108 494.83456421 104.17041016 494.89508057 115.18756866 495.17715454 C 125.87088776 495.40670776 136.38905334 495.70208740 146.66900635 495.85119629 C 156.74269104 496.00222778 166.84486389 496.04608154 176.89387512 496.03732300 C 187.16798401 495.94036865 197.72676086 495.89773560 208.58419800 495.91622925 C 219.73425293 495.95428467 231.10105896 495.97586060 242.64375305 495.95263672 C 254.16506958 495.86288452 265.68048096 495.89001465 277.05215454 495.87634277 C 288.22518921 495.83633423 299.35354614 495.74075317 310.53939819 495.70452881 C 321.82778931 495.79467773 333.30664062 495.86874390 345.14486694 495.90982056 C 357.19546509 495.86013794 369.65591431 495.90316772 382.49520874 495.95422363 C 395.47131348 495.90466309 408.37277222 495.84213257 420.85412598 495.83044434 C 432.62689209 495.80447388 443.36639404 495.77542114 452.69055176 495.91577148 C 460.77880859 496.24285889 467.52551270 496.79888916 473.14947510 497.38705444 C 477.80084229 498.25030518 481.66482544 499.08242798 485.09484863 500.20629883 C 488.26684570 501.30322266 491.30706787 502.52127075 453.01095581 503.85934448" stroke-width="2.00000000" fill="rgb(255, 255, 255)" opacity="1.0" stroke="rgb(251, 253, 253)" stroke-opacity="0.009790145" stroke-linecap="round" stroke-linejoin="round"/>
    <path d="M 260.78964233 343.88952637 C 261.60494995 344.73141479 262.52893066 345.48083496 263.35723877 346.31195068 C 264.18338013 347.10574341 265.06112671 347.79534912 265.76556396 348.41436768 C 266.46340942 348.88827515 266.86926270 349.35733032 267.05053711 349.88772583 C 266.87887573 350.38394165 266.36999512 350.86721802 265.69143677 351.54876709 C 264.92605591 352.20550537 263.94937134 352.98959351 263.06991577 353.86257935 C 262.11825562 354.76568604 261.14978027 355.73983765 260.22705078 356.71762085 C 259.21374512 357.54556274 258.30038452 358.41711426 257.45816040 359.10055542 C 256.81396484 359.79919434 256.23718262 360.27914429 255.74386597 360.55114746 C 255.34785461 360.51705933 254.95579529 360.19125366 254.49612427 359.57192993 C 253.92173767 358.95541382 253.18557739 358.15280151 252.47129822 357.25234985 C 251.67712402 356.37469482 250.82731628 355.38034058 249.97117615 354.40411377 C 249.10227966 353.39016724 248.33445740 352.49468994 247.66017151 351.51486206 C 246.97210693 350.67657471 246.40629578 350.00341797 245.86787415 349.50079346 C 245.59611511 349.04098511 245.64218140 348.69064331 246.00430298 348.25473022 C 246.62321472 347.79067993 247.35343933 347.23132324 248.14842224 346.50192261 C 249.12379456 345.85412598 250.09071350 345.02520752 251.12251282 344.27682495 C 252.09635925 343.63790894 253.06874084 342.94342041 253.94570923 342.27938843 C 254.73051453 341.76263428 255.39682007 341.30691528 255.87754822 340.89562988 C 256.29400635 340.70251465 256.54782104 340.52072144 256.69696045 340.57629395 C 256.84579468 340.79052734 256.87625122 340.88757324 260.78964233 343.88952637" stroke-width="1.46560502" fill="rgb(239, 186, 127)" opacity="1.0" stroke="rgb(73, 30, 3)" stroke-opacity="0.9036887" stroke-linecap="round" stroke-linejoin="round"/>
  </g>
</svg>
