<svg xmlns="http://www.w3.org/2000/svg" viewBox="0 0 512 512" height="512.0px" width="512.0px">
<path id="" fill="rgb(214, 167, 110)" fill-opacity="1.0" stroke="rgb(73, 30, 0)" stroke-width="1.31809545" stroke-opacity="1.0" stroke-linecap="round" stroke-linejoin="round"  filling="0" d="M277.947937 332.651550 C276.517090 336.755829 275.199768 341.078278 273.930328 345.410889 C272.660889 349.743530 271.439331 354.086304 270.199982 358.231262 C268.960663 362.376221 267.703552 366.323364 266.363037 369.864655 C264.509674 374.526703 263.132935 379.676331 261.881409 384.209686 C260.629913 388.743073 259.503662 392.660217 258.151306 394.857330 C256.798920 397.054413 255.220459 397.531494 253.064499 395.184692 C251.516968 390.881989 250.156021 386.682098 248.856064 382.514954 C247.556122 378.347839 246.317154 374.213501 245.013611 370.041931 C243.710052 365.870422 242.341919 361.661682 240.783585 357.345734 C239.483551 353.324554 238.213104 349.212860 236.921310 344.987976 C235.629517 340.763092 234.316360 336.425049 232.930939 331.951141 C231.545517 327.477234 230.087830 322.867493 228.506943 318.099243 C226.610535 311.602875 225.229156 307.285614 223.978882 303.639282 C222.728607 299.992950 221.609436 297.017548 220.237457 293.204865 C218.865479 289.392212 217.240677 284.742249 214.979141 277.746826 C214.256119 273.433716 212.996765 269.485016 212.162674 266.059082 C211.328583 262.633179 210.919754 259.730072 211.897781 257.508118 C212.875809 255.286194 215.240692 253.745422 219.954010 253.044250 C225.920944 251.942581 230.943527 251.116211 235.497360 250.476624 C240.051208 249.837021 244.136292 249.384186 248.228256 249.029572 C252.320221 248.674957 256.419037 248.418549 261.000366 248.171814 C265.711792 248.270142 270.687653 247.957825 275.525970 247.806763 C280.364319 247.655701 285.065125 247.665909 289.226440 248.409271 C293.387787 249.152618 297.009644 250.629150 299.690094 253.410721 C299.413300 258.337341 298.445801 263.060699 297.213104 267.535309 C295.980408 272.009949 294.482483 276.235809 293.144836 280.167480 C291.807220 284.099121 290.629883 287.736572 290.038330 291.034363 C288.686951 294.943512 287.420685 299.232178 286.157135 303.759216 C284.893555 308.286224 283.632629 313.051575 282.291931 317.914032 C280.951233 322.776489 279.530701 327.736084 277.947937 332.651550"></path>
<path id="" fill="rgb(245, 179, 202)" fill-opacity="1.0" stroke="rgb(75, 35, 46)" stroke-width="1.25530422" stroke-opacity="1.0" stroke-linecap="round" stroke-linejoin="round"  filling="0" d="M262.134796 159.212341 C266.606873 160.944077 270.561584 162.860794 274.124329 164.914658 C277.687073 166.968506 280.857819 169.159485 283.762054 171.439758 C286.666260 173.720032 289.303955 176.089569 291.800507 178.500549 C295.221252 181.786423 298.424805 185.057938 301.230133 188.381012 C304.035461 191.704102 306.442566 195.078766 308.270477 198.570908 C310.098389 202.063049 311.347046 205.672699 311.835510 209.465759 C312.626526 213.246979 313.162140 217.234863 313.307434 221.292389 C313.452759 225.349915 313.207825 229.477081 312.437775 233.536819 C311.667725 237.596558 310.372559 241.588898 308.417480 245.376770 C306.641907 249.397781 304.234894 253.366226 301.432892 256.925507 C298.630890 260.484802 295.433899 263.634918 292.078430 266.019287 C288.722961 268.403625 285.208984 270.022186 281.772949 270.518372 C278.469421 271.572571 274.808136 272.237701 270.831757 272.632874 C266.855408 273.028015 262.563965 273.153168 258.000214 273.127411 C253.436478 273.101654 248.600403 272.924988 243.534714 272.716461 C239.562714 272.147858 235.754059 271.477448 232.277008 270.630066 C228.799957 269.782684 225.654510 268.758301 223.008881 267.481720 C220.363251 266.205139 218.217468 264.676392 216.739731 262.820190 C212.998520 260.122375 209.753418 257.003571 207.012939 253.560745 C204.272461 250.117920 202.036636 246.351120 200.313995 242.357346 C198.591370 238.363571 197.381927 234.142838 196.694214 229.792160 C196.180405 225.332550 196.011276 220.912369 196.253143 216.612350 C196.495026 212.312332 197.147888 208.132477 198.278046 204.153549 C199.408203 200.174622 201.015656 196.396606 203.166718 192.900238 C204.739609 190.558823 206.736557 188.048523 209.118530 185.336090 C211.500504 182.623642 214.267502 179.709045 217.380524 176.559052 C220.493530 173.409058 223.952545 170.023682 227.718567 166.369629 C230.735504 163.397491 234.053574 161.105728 237.640656 159.539612 C241.227737 157.973480 245.083847 157.132996 249.176910 157.063370 C253.269958 156.993744 257.599945 157.694977 262.134796 159.212341"></path>
<path id="" fill="rgb(142, 81, 56)" fill-opacity="1.0" stroke="rgb(42, 10, 0)" stroke-width="1.193344" stroke-opacity="1.0" stroke-linecap="round" stroke-linejoin="round"  filling="0" d="M300.521240 182.516434 C298.776367 185.014221 296.833862 187.275742 294.567108 189.357712 C292.300354 191.439667 289.709290 193.342072 286.667267 195.121613 C283.625275 196.901154 280.132324 198.557831 276.061768 200.148346 C272.199677 201.609146 268.281952 202.667114 264.421326 203.333054 C260.560699 203.998993 256.757202 204.272919 253.123566 204.165634 C249.489960 204.058350 246.026215 203.569855 242.845154 202.710938 C238.825195 201.413986 234.968628 200.153381 231.382309 198.741837 C227.795990 197.330292 224.479889 195.767792 221.540878 193.867050 C218.601868 191.966293 216.039917 189.727295 213.961899 186.962723 C211.474960 184.498962 209.371826 181.609253 207.648376 178.394882 C205.924927 175.180511 204.581161 171.641479 203.612991 167.879074 C202.644836 164.116669 202.052246 160.130890 201.831177 156.023026 C201.665710 152.553497 201.802689 148.920883 202.340500 145.199280 C202.878296 141.477692 203.816940 137.667130 205.254776 133.841721 C206.692627 130.016327 208.629669 126.176071 211.164322 122.395111 C213.390808 119.720345 215.325607 117.211685 217.207016 114.950386 C219.088440 112.689087 220.916473 110.675140 222.929428 108.989799 C224.942398 107.304459 227.140305 105.947708 229.761459 105.000809 C233.538162 103.592064 237.253845 102.780991 240.990433 102.364952 C244.727020 101.948921 248.484482 101.927933 252.344772 102.099365 C256.205078 102.270805 260.168152 102.634659 264.316010 102.988327 C267.604279 103.479851 271.113251 104.031921 274.657990 104.957809 C278.202698 105.883698 281.783142 107.183411 285.214264 109.170204 C288.645416 111.156998 291.927246 113.830872 294.874817 117.505096 C297.192322 119.820961 299.172668 122.311264 300.885986 125.124046 C302.599304 127.936829 304.045593 131.072083 305.294983 134.677841 C306.544373 138.283615 307.596863 142.359894 308.522614 147.054703 C308.777802 150.770493 308.955750 154.103867 308.752289 157.512054 C308.548828 160.920227 307.963928 164.403214 306.693481 168.418213 C305.423035 172.433197 303.466980 176.980209 300.521240 182.516434"></path>
<path id="" fill="rgb(251, 245, 217)" fill-opacity="1.0" stroke="rgb(55, 53, 37)" stroke-width="1.12770045" stroke-opacity="1.0" stroke-linecap="round" stroke-linejoin="round"  filling="0" d="M288.489655 127.679016 C286.781708 129.430450 284.978455 130.938202 282.909485 132.321991 C280.840515 133.705780 278.505798 134.965637 275.734985 136.221252 C272.964203 137.476898 269.757263 138.728302 265.943848 140.095261 C262.788940 140.616257 259.483490 141.051315 256.150879 141.250473 C252.818268 141.449615 249.458496 141.412872 246.194946 140.990204 C242.931396 140.567566 239.764069 139.759003 236.816360 138.414581 C234.126099 137.179626 231.428024 135.895096 228.830902 134.353928 C226.233795 132.812744 223.737610 131.014923 221.451141 128.753326 C219.164658 126.491737 217.087875 123.766388 215.329529 120.370193 C213.294830 116.917656 211.953629 113.840820 211.074203 110.889259 C210.194778 107.937706 209.777145 105.111435 209.589600 102.160019 C209.402054 99.208603 209.444611 96.132050 209.485565 92.679932 C209.340195 88.953934 209.693771 85.451630 210.474670 82.121719 C211.255554 78.791801 212.463776 75.634270 214.027710 72.597809 C215.591644 69.561356 217.511292 66.645966 219.715042 63.800339 C223.655014 59.753849 225.905518 57.369526 227.550705 55.793777 C229.195892 54.218029 230.235718 53.450855 231.754349 52.638660 C233.272964 51.826469 235.270355 50.969261 238.830658 49.213440 C242.331909 47.857189 245.706024 46.963528 249.063675 46.523960 C252.421326 46.084393 255.762527 46.098919 259.197906 46.559044 C262.633301 47.019169 266.162872 47.924889 269.897308 49.267715 C272.866730 50.526409 275.919525 52.209045 278.836975 54.213478 C281.754425 56.217915 284.536499 58.544151 286.964447 61.090042 C289.392395 63.635933 291.466187 66.401482 292.967102 69.284546 C294.923920 72.442810 296.364502 75.739624 297.392090 78.989525 C298.419678 82.239426 299.034302 85.442413 299.339172 88.413002 C299.644043 91.383598 299.639191 94.121811 299.427826 96.442154 C299.049072 100.230408 298.829254 103.485039 298.330536 106.633842 C297.831818 109.782639 297.054230 112.825615 295.560028 116.190544 C294.065796 119.555481 291.854919 123.242371 288.489655 127.679016"></path>
<path id="" fill="rgb(255, 255, 255)" fill-opacity="1.0" stroke="rgb(255, 255, 255)" stroke-width="1.90635872" stroke-opacity="1.0" stroke-linecap="round" stroke-linejoin="round"  filling="0" d="M452.110260 504.128693 C441.169037 503.830017 430.843933 503.768402 420.414886 503.810730 C409.985840 503.853088 399.452820 503.999390 388.095795 504.116516 C376.738739 504.233673 364.557678 504.321686 350.832458 504.247437 C338.444275 504.819122 328.381042 505.255188 318.612000 505.554291 C308.842987 505.853394 299.368164 506.015503 288.156799 506.039276 C276.945435 506.063049 263.997498 505.948486 247.282257 505.694244 C235.324158 506.394928 224.286591 507.216095 213.486847 507.955658 C202.687103 508.695221 192.125183 509.353210 181.118408 509.727570 C170.111633 510.101929 158.659973 510.192627 146.080765 509.797699 C132.307388 508.241577 120.513496 507.533234 109.330086 507.588287 C98.146667 507.643311 87.573730 508.461731 76.242271 509.959076 C64.910820 511.456421 52.820843 513.632690 38.603348 516.403503 C25.234140 515.495239 17.633482 512.680908 15.028090 509.428162 C12.422699 506.175415 14.812573 502.484192 21.424435 499.822144 C28.036297 497.160095 38.870144 495.527252 53.152695 496.391205 C70.252190 495.704071 83.084801 495.519379 93.411255 495.538269 C103.737717 495.557129 111.558014 495.779510 118.632896 495.906494 C125.707779 496.033478 132.037247 496.065063 139.382019 495.702271 C152.721497 496.293304 165.364563 496.304993 177.381653 496.165009 C189.398743 496.025024 200.789825 495.733368 211.625381 495.717712 C222.460922 495.702087 232.740921 495.962402 242.535797 496.926422 C256.012726 495.746399 267.503662 495.513245 278.343994 495.612885 C289.184296 495.712555 299.373962 496.145020 310.248322 496.296265 C321.122711 496.447510 332.681763 496.317505 346.260895 495.292236 C358.280762 496.168915 369.125580 496.281616 379.795135 496.161743 C390.464722 496.041870 400.959015 495.689453 412.277832 495.635895 C423.596649 495.582336 435.739990 495.827637 449.707581 496.903168 C463.186462 495.012024 474.901947 495.301300 482.213440 496.488556 C489.524963 497.675812 492.432495 499.761047 488.295471 501.461884 C484.158478 503.162720 472.976929 504.479126 452.110260 504.128693"></path>
<path id="" fill="rgb(237, 188, 127)" fill-opacity="1.0" stroke="rgb(64, 26, 16)" stroke-width="0.9551" stroke-opacity="1.0" stroke-linecap="round" stroke-linejoin="round"  filling="0" d="M259.934875 343.730896 C260.882446 344.426086 261.595917 345.071838 262.308441 345.705231 C263.020966 346.338623 263.732544 346.959717 264.676270 347.605591 C265.796539 348.779297 266.479187 349.357300 266.572144 349.912231 C266.665100 350.467194 266.168396 350.999084 264.929901 352.080566 C264.048645 352.772278 263.363586 353.390411 262.645569 354.067993 C261.927582 354.745575 261.176636 355.482605 260.163605 356.412048 C259.282501 357.193176 258.548828 358.067169 257.886292 358.881195 C257.223785 359.695190 256.632446 360.449219 256.036072 360.990387 C255.294449 360.447235 254.795563 359.873657 254.241653 359.155457 C253.687744 358.437256 253.078796 357.574402 252.117050 356.452667 C251.446442 355.539734 250.820084 354.935730 250.235291 354.385834 C249.650513 353.835938 249.107269 353.340088 248.602905 352.643494 C247.864761 351.561493 247.117432 350.812378 246.690491 350.141907 C246.263550 349.471466 246.157013 348.879700 246.700455 348.112457 C247.461151 347.477051 248.242477 347.022095 249.080353 346.487213 C249.918228 345.952332 250.812622 345.337585 251.799454 344.382629 C252.514893 343.865295 253.265900 343.276489 254.009018 342.586975 C254.752136 341.897461 255.487381 341.107300 256.171295 340.187286 C256.608673 340.519318 256.977997 341.081604 257.523743 341.722656 C258.069519 342.363739 258.791718 343.083618 259.934875 343.730896"></path>
</svg>