<?xml version="1.0" ?>
<svg xmlns="http://www.w3.org/2000/svg" version="1.1" width="512" height="512" viewBox="0 0 512 512">
  <defs/>
  <g>
    <path d="M 279.25732422 330.92959595 C 277.27398682 336.61355591 275.47070312 342.35632324 273.58389282 347.99926758 C 271.75750732 353.49221802 270.14138794 359.00134277 268.53582764 364.36221313 C 267.03454590 369.50125122 265.44290161 374.24844360 263.91714478 378.69921875 C 262.61904907 382.97174072 261.36325073 386.76599121 260.30453491 390.01837158 C 259.44232178 392.88803101 258.52737427 395.18099976 257.59103394 396.78430176 C 256.41421509 397.61441040 255.17460632 397.78161621 254.09965515 397.07864380 C 253.11105347 395.53173828 252.19120789 393.20715332 251.24610901 390.24578857 C 250.03858948 386.82742310 248.66378784 382.85818481 247.45333862 378.57751465 C 245.94441223 374.04400635 244.30680847 369.31213379 242.65049744 364.45938110 C 240.90788269 359.42718506 239.19349670 354.32351685 237.75387573 349.11441040 C 236.20283508 343.79669189 234.68815613 338.51446533 232.94592285 333.18957520 C 230.88758850 327.92556763 229.07127380 322.58731079 227.45780945 317.11032104 C 225.85270691 311.70996094 224.24577332 306.47012329 222.72740173 301.24337769 C 221.25277710 296.23556519 219.47676086 291.46350098 217.75181580 286.94305420 C 216.12315369 282.60177612 214.71562195 278.49893188 213.49208069 274.59872437 C 212.55529785 270.94003296 211.60627747 267.75064087 211.04254150 264.85284424 C 211.30310059 262.27929688 212.39991760 259.95321655 214.12884521 257.76998901 C 216.34043884 255.76673889 219.07048035 253.99414062 222.27760315 252.39656067 C 225.89199829 250.92260742 229.81155396 249.62611389 234.07945251 248.65309143 C 238.59301758 247.85440063 243.21763611 247.14526367 247.98947144 246.63356018 C 252.85865784 246.42033386 257.77828979 246.41558838 262.63626099 246.59893799 C 267.42825317 246.93092346 272.01995850 247.51315308 276.40173340 248.38716125 C 280.57586670 249.35025024 284.48226929 250.53033447 287.98809814 251.93803406 C 291.09924316 253.50216675 293.79473877 255.21449280 296.00759888 257.04080200 C 297.74703979 258.94561768 298.94400024 260.88409424 299.36593628 262.95922852 C 298.45278931 265.27590942 297.22589111 268.13800049 296.23767090 271.69137573 C 294.99606323 275.73437500 293.58807373 280.04013062 292.33865356 284.69204712 C 290.82437134 289.59060669 289.22052002 294.55883789 287.69781494 299.75350952 C 286.41989136 305.19851685 284.97576904 310.55114746 283.29937744 315.84097290 C 281.67483521 321.32012939 280.14468384 326.68313599 279.25732422 330.92959595" stroke-width="2.00000000" fill="rgb(214, 165, 110)" opacity="1.0" stroke="rgb(60, 25, 0)" stroke-opacity="0.8081508" stroke-linecap="round" stroke-linejoin="round"/>
    <path d="M 265.71765137 154.80780029 C 269.05072021 157.62243652 272.37719727 160.52210999 275.58251953 163.38739014 C 278.87057495 166.26091003 282.12036133 169.09725952 285.37234497 172.08401489 C 288.49194336 174.96665955 291.62744141 177.91186523 294.71005249 180.86320496 C 297.67196655 183.91221619 300.55221558 186.91821289 303.26815796 189.98274231 C 305.56622314 193.30255127 307.61148071 196.83824158 309.40350342 200.39520264 C 310.94003296 204.02958679 312.14932251 207.83161926 313.02529907 211.78651428 C 313.62603760 215.71105957 313.82250977 219.75123596 313.83175659 223.83578491 C 313.73599243 228.00013733 313.35073853 232.17602539 312.35955811 236.36366272 C 310.97793579 240.52301025 309.30078125 244.71264648 307.21163940 248.90904236 C 304.77740479 252.98182678 301.94656372 256.70571899 298.78704834 260.19650269 C 295.48806763 263.36575317 292.71014404 266.46865845 289.91836548 268.72894287 C 286.38241577 269.12542725 282.72503662 269.77221680 279.26403809 271.43606567 C 275.59201050 272.45831299 271.73721313 273.12313843 267.92581177 273.74700928 C 264.24038696 273.09460449 260.56567383 272.98895264 256.65328979 273.57467651 C 252.67611694 273.32907104 248.63238525 273.30673218 244.50968933 273.54888916 C 240.25335693 272.81680298 235.92738342 271.78198242 231.75311279 270.68453979 C 227.66824341 269.49603271 223.79020691 268.44070435 220.30648804 266.75674438 C 217.39674377 264.36401367 214.59397888 261.84866333 211.61181641 259.53500366 C 209.17570496 256.71176147 206.88145447 253.70529175 204.63407898 250.65721130 C 202.57752991 247.55230713 200.79725647 244.30041504 199.30880737 240.89500427 C 198.02442932 237.44013977 197.20439148 233.81961060 196.41667175 230.14314270 C 195.79093933 226.50854492 195.51770020 222.88526917 195.59169006 219.14686584 C 195.91502380 215.38316345 196.38647461 211.56138611 197.09112549 207.89817810 C 198.09060669 204.19441223 199.24090576 200.57009888 200.69256592 197.05448914 C 202.39514160 193.59207153 204.25430298 190.28744507 206.59069824 187.17637634 C 209.42134094 184.35711670 212.50094604 181.52259827 215.68864441 178.75022888 C 219.07838440 175.98480225 222.50566101 173.19389343 225.99467468 170.36640930 C 229.53599548 167.65370178 233.16629028 164.97647095 236.81590271 162.25378418 C 240.43383789 159.53465271 244.06300354 156.88694763 247.69444275 154.26237488 C 251.32925415 151.58564758 254.92887878 148.84370422 265.71765137 154.80780029" stroke-width="1.87317264" fill="rgb(245, 177, 199)" opacity="1.0" stroke="rgb(63, 27, 31)" stroke-opacity="0.7049933" stroke-linecap="round" stroke-linejoin="round"/>
    <path d="M 300.64822388 182.94413757 C 298.47930908 185.63517761 296.26263428 188.28520203 293.79327393 190.60815430 C 291.12704468 192.76570129 288.27645874 194.66888428 285.34185791 196.47798157 C 282.22372437 198.15742493 278.94326782 199.60392761 275.57583618 200.82757568 C 272.11068726 201.97497559 268.57409668 202.92213440 265.02328491 203.67897034 C 261.32839966 204.11999512 257.71304321 204.29289246 253.97717285 204.34649658 C 250.24581909 204.20942688 246.50048828 203.87309265 242.79374695 203.21501160 C 239.10563660 202.24542236 235.38334656 201.02745056 231.80920410 199.69114685 C 228.44137573 198.10598755 225.10739136 196.25039673 221.86947632 194.45898438 C 218.80973816 192.61195374 215.99607849 190.47113037 213.51760864 187.97810364 C 211.26663208 185.13330078 209.26269531 182.16273499 207.40350342 179.04547119 C 205.82090759 175.68312073 204.42266846 172.16609192 203.32617188 168.65548706 C 202.43911743 164.92782593 201.70718384 161.16758728 201.37835693 157.37918091 C 201.29014587 153.54536438 201.65110779 149.76539612 202.16354370 146.03063965 C 202.58438110 142.30018616 203.27850342 138.57728577 204.34902954 135.08027649 C 205.81022644 131.70576477 207.49986267 128.42732239 208.87176514 125.15802765 C 210.40493774 121.99362946 212.45710754 119.15866089 214.84553528 116.70238495 C 217.36036682 114.35948181 220.00294495 112.15982056 222.90339661 110.14101410 C 225.83959961 108.30831909 228.96060181 106.66535950 232.19654846 105.24977112 C 235.65213013 104.05590057 239.06007385 103.11819458 242.62521362 102.30699158 C 246.25633240 101.72288513 249.96620178 101.36457825 253.64283752 101.31690216 C 257.39816284 101.43217468 261.23715210 101.75289154 265.00906372 102.36567688 C 268.70947266 103.19458771 272.38482666 104.10623932 275.91690063 105.28371429 C 279.42416382 106.70404053 282.83731079 108.34709167 286.02902222 110.17013550 C 289.10409546 112.04177856 292.08218384 114.08177948 294.74005127 116.37409210 C 297.22186279 118.76112366 299.16519165 121.52649689 300.81439209 124.56409454 C 302.58825684 127.67503357 304.17477417 130.72714233 305.65023804 133.90728760 C 306.84765625 137.25195312 307.68188477 140.58924866 308.45584106 144.00587463 C 308.92346191 147.48695374 309.07681274 150.94728088 309.10528564 154.43980408 C 309.12258911 157.89524841 308.83981323 161.27259827 308.14956665 164.64648438 C 307.46365356 168.01329041 306.83776855 171.37973022 300.64822388 182.94413757" stroke-width="1.78890181" fill="rgb(142, 81, 56)" opacity="1.0" stroke="rgb(50, 19, 9)" stroke-opacity="0.8740139" stroke-linecap="round" stroke-linejoin="round"/>
    <path d="M 290.18594360 126.19757080 C 287.97323608 128.24276733 285.86032104 130.29394531 283.43280029 132.12733459 C 280.98205566 133.68785095 278.31143188 135.20460510 275.57952881 136.66607666 C 272.89898682 137.94412231 270.09225464 139.05682373 267.16842651 139.97955322 C 264.23101807 140.76268005 261.20492554 141.39840698 258.06307983 141.54879761 C 254.80220032 141.57867432 251.51918030 141.54313660 248.13825989 141.24600220 C 244.70063782 140.62039185 241.21554565 139.86814880 237.79635620 138.95545959 C 234.52467346 137.77230835 231.51539612 136.16897583 228.57807922 134.37882996 C 225.71488953 132.54325867 223.08273315 130.42767334 220.74002075 128.04768372 C 218.43296814 125.62810516 216.53575134 122.85559845 214.91107178 119.99393463 C 213.58486938 116.98206329 212.39994812 113.89643860 211.17552185 110.76902008 C 210.24493408 107.67153931 209.61122131 104.44640350 209.28793335 101.12873077 C 209.01287842 97.77600098 209.13107300 94.43695068 209.25463867 91.12406921 C 209.55439758 87.81980133 210.02511597 84.46450806 210.59100342 81.25038910 C 211.40498352 78.15071106 212.62471008 75.20650482 214.04418945 72.33151245 C 215.52668762 69.53690338 217.19689941 66.80841827 219.14796448 64.27128601 C 221.12751770 61.81110382 223.25714111 59.43713379 225.50999451 57.24374390 C 227.89155579 55.14693832 230.52673340 53.27918243 233.29838562 51.65713882 C 236.14787292 50.22834015 239.00590515 49.00085449 241.99043274 47.87564468 C 245.01600647 47.15964508 247.93634033 46.61343765 250.98046875 46.31702042 C 253.98095703 46.10509872 256.94998169 46.08729935 259.91192627 46.50117874 C 262.92755127 47.20547485 265.97470093 48.00359726 269.08142090 48.94244766 C 272.11029053 50.04899216 275.01220703 51.51760864 277.82879639 53.22491455 C 280.57586670 55.16382980 283.22180176 57.18995285 285.62683105 59.58128738 C 287.98483276 62.03559113 290.04595947 64.63455963 292.01623535 67.40158081 C 293.77276611 70.25922394 295.36959839 73.19641113 296.66711426 76.25446320 C 297.78704834 79.42259979 298.75604248 82.55542755 299.38623047 85.71617126 C 299.66452026 88.89291382 299.84082031 92.13875580 299.87786865 95.36644745 C 299.94592285 98.57495117 299.73220825 101.77564240 299.12597656 104.88140869 C 298.08145142 108.09344482 296.96450806 111.35543060 295.88870239 114.55355072 C 295.15139771 117.98432922 294.42395020 121.28874969 290.18594360 126.19757080" stroke-width="1.70469260" fill="rgb(251, 247, 216)" opacity="1.0" stroke="rgb(40, 35, 19)" stroke-opacity="0.66818047" stroke-linecap="round" stroke-linejoin="round"/>
    <path d="M 453.69265747 503.34262085 C 442.69247437 503.43804932 431.64962769 503.61038208 420.71234131 503.77380371 C 409.68734741 503.88552856 398.62039185 504.04263306 387.57928467 504.19998169 C 376.45401001 504.39114380 365.26217651 504.56365967 354.02127075 504.78802490 C 342.65176392 505.01293945 331.19213867 505.28759766 319.63742065 505.55267334 C 307.86212158 505.89596558 296.02935791 506.18789673 284.01101685 506.54809570 C 271.81567383 506.97271729 259.47140503 507.33703613 247.00186157 507.69491577 C 234.36079407 508.13134766 221.64132690 508.51943970 208.82279968 508.89483643 C 195.96070862 509.26119995 183.15843201 509.60125732 170.39581299 509.86889648 C 157.77397156 510.13018799 145.39503479 510.29995728 133.33766174 510.42391968 C 121.63346863 510.48016357 110.43708038 510.43185425 99.83606720 510.33557129 C 89.86883545 510.12625122 80.67829895 509.83166504 72.31545258 509.46542358 C 64.87985992 508.99542236 58.48003006 508.43032837 53.06468964 507.83230591 C 48.80480576 507.12741089 45.69804001 506.34811401 43.73412704 505.56185913 C 42.91225433 504.71502686 43.34152222 503.81326294 44.88923264 502.95739746 C 47.63740921 502.01306152 51.45267868 501.15618896 56.37806702 500.27011108 C 62.24656677 499.47937012 69.07532501 498.62432861 76.71184540 497.95788574 C 85.15038300 497.23364258 94.28159332 496.62686157 103.98283386 496.09786987 C 114.27515411 495.62930298 125.00692749 495.25448608 136.08671570 494.92474365 C 147.55250549 494.69006348 159.24069214 494.54592896 171.09873962 494.41662598 C 183.14076233 494.37322998 195.27911377 494.33346558 207.45716858 494.42211914 C 219.68736267 494.40017700 231.88963318 494.47293091 244.08149719 494.56607056 C 256.17364502 494.69442749 268.23721313 494.76394653 280.17001343 494.89569092 C 291.98568726 495.05209351 303.71701050 495.15292358 315.25442505 495.28906250 C 326.68624878 495.36618042 337.91848755 495.47988892 348.99148560 495.53659058 C 359.92715454 495.64501953 370.62554932 495.74853516 381.15203857 495.89160156 C 391.51046753 496.00650024 401.67810059 496.21710205 411.67968750 496.37341309 C 421.47634888 496.56341553 431.14907837 496.79571533 440.67718506 497.02880859 C 450.05343628 497.27758789 459.37634277 497.51864624 468.56237793 497.82043457 C 477.72439575 498.10879517 486.83618164 498.36938477 495.91015625 498.69512939 C 505.00988770 498.95968628 514.06292725 499.29876709 453.69265747 503.34262085" stroke-width="2.00000000" fill="rgb(254, 255, 255)" opacity="1.0" stroke="rgb(250, 254, 251)" stroke-opacity="0.016827963" stroke-linecap="round" stroke-linejoin="round"/>
    <path d="M 263.98480225 346.84194946 C 264.42861938 347.39199829 264.92547607 347.83102417 265.48718262 348.20098877 C 266.05920410 348.54342651 266.52780151 348.81845093 266.85223389 349.09869385 C 267.13754272 349.44915771 267.20968628 349.77374268 267.05355835 350.08993530 C 266.67834473 350.51651001 266.12237549 351.08850098 265.34848022 351.71545410 C 264.54440308 352.40118408 263.64468384 353.19577026 262.75430298 354.06732178 C 261.83386230 355.05596924 260.88208008 356.05279541 259.84268188 356.90747070 C 258.88626099 357.78054810 257.96173096 358.60418701 257.09585571 359.31451416 C 256.36331177 359.99124146 255.88348389 360.48709106 255.55644226 360.76828003 C 255.21369934 360.58541870 254.88967896 360.13467407 254.46418762 359.40029907 C 253.84242249 358.75555420 253.01126099 357.97485352 252.23187256 357.04251099 C 251.45639038 356.04565430 250.59320068 355.06085205 249.71910095 354.13146973 C 248.89704895 353.15921021 248.12147522 352.25106812 247.48390198 351.34097290 C 246.98840332 350.53054810 246.48664856 349.96926880 245.94828796 349.59970093 C 245.49855042 349.42492676 245.34544373 349.14498901 245.56234741 348.74789429 C 246.00862122 348.39440918 246.58421326 348.04983521 247.20872498 347.54571533 C 247.91842651 346.88354492 248.64624023 346.04574585 249.56239319 345.33898926 C 250.44551086 344.73101807 251.40791321 344.19335938 252.34121704 343.57559204 C 253.18801880 342.92904663 253.93820190 342.27569580 254.67149353 341.75509644 C 255.37878418 341.40914917 255.88520813 341.06384277 256.09622192 340.67333984 C 256.28045654 340.31500244 256.39328003 339.99737549 263.98480225 346.84194946" stroke-width="1.47310770" fill="rgb(235, 188, 127)" opacity="1.0" stroke="rgb(63, 22, 2)" stroke-opacity="0.8613136" stroke-linecap="round" stroke-linejoin="round"/>
  </g>
</svg>
