<?xml version="1.0" ?>
<svg xmlns="http://www.w3.org/2000/svg" version="1.1" width="512" height="512" viewBox="0 0 512 512">
  <defs/>
  <g>
    <path d="M 279.26611328 330.89099121 C 277.21020508 336.51416016 275.50790405 342.46759033 273.61804199 348.00308228 C 271.57818604 353.56939697 270.16983032 359.14553833 268.50830078 364.50628662 C 267.06314087 369.74578857 265.50234985 374.54534912 263.79095459 379.00000000 C 262.56512451 383.14959717 261.28207397 386.84762573 260.25897217 390.07196045 C 259.52847290 392.90515137 258.52044678 395.16549683 257.69500732 396.75286865 C 256.53530884 397.48126221 255.42533875 397.80947876 254.43170166 397.33010864 C 253.18716431 395.79351807 252.11283875 393.50439453 251.34721375 390.40786743 C 250.17065430 386.77398682 248.73815918 383.03097534 247.49374390 378.81158447 C 246.01731873 374.23590088 244.37307739 369.60427856 242.80476379 364.75921631 C 240.99470520 359.74227905 239.31614685 354.76098633 237.96801758 349.59487915 C 236.35197449 344.38598633 234.84321594 339.02059937 233.25933838 333.73217773 C 231.16239929 328.44818115 229.22746277 323.00714111 227.60328674 317.53826904 C 225.80491638 312.11123657 224.27249146 306.67761230 222.75192261 301.29937744 C 221.31407166 296.22106934 219.43159485 291.46136475 217.80638123 286.83615112 C 216.17161560 282.50070190 214.54249573 278.51284790 213.48312378 274.59982300 C 212.60681152 270.96606445 211.59422302 267.77429199 210.96092224 264.96786499 C 211.37071228 262.39376831 212.50906372 260.05349731 214.20591736 257.79278564 C 216.54084778 255.73867798 219.30889893 253.91954041 222.46649170 252.26551819 C 226.08355713 250.76315308 230.05761719 249.45095825 234.23239136 248.42605591 C 238.60409546 247.68127441 243.17929077 247.12940979 247.86344910 246.77909851 C 252.56228638 246.64898682 257.34167480 246.81483459 262.17211914 247.27595520 C 266.91989136 247.94880676 271.50720215 248.79310608 275.79977417 249.88084412 C 279.76712036 251.26943970 283.49935913 252.89729309 287.01528931 254.64511108 C 290.27313232 256.40350342 293.11297607 258.04077148 295.51113892 259.58517456 C 297.55438232 260.94659424 299.02770996 262.03176880 299.50497437 263.20581055 C 298.57363892 265.02096558 297.25741577 267.58108521 296.51531982 271.09573364 C 295.20822144 275.02374268 293.71264648 279.20886230 292.50915527 284.00222778 C 291.22729492 288.95343018 289.59329224 293.91647339 287.86178589 299.10540771 C 286.65829468 304.38882446 285.19412231 309.63858032 283.49890137 314.97396851 C 281.99313354 320.42208862 280.43240356 325.76473999 279.26611328 330.89099121" stroke-width="2.00000000" fill="rgb(213, 163, 110)" opacity="1.0" stroke="rgb(62, 24, 0)" stroke-opacity="0.8142864" stroke-linecap="round" stroke-linejoin="round"/>
    <path d="M 266.54940796 154.36625671 C 269.68185425 157.37467957 272.87692261 160.35012817 276.07015991 163.28959656 C 279.29464722 166.23156738 282.46237183 169.22703552 285.59518433 172.19876099 C 288.70562744 175.15336609 291.78927612 178.11578369 294.83206177 181.07966614 C 297.86221313 184.00422668 300.75723267 187.00889587 303.44369507 190.16046143 C 305.85476685 193.60607910 307.95913696 197.25726318 309.74218750 201.12561035 C 311.34249878 205.13453674 312.46533203 209.19709778 313.32525635 213.32156372 C 313.82125854 217.47509766 313.88790894 221.55737305 313.73757935 225.55776978 C 313.87350464 229.51681519 313.01724243 233.62631226 311.74533081 237.83592224 C 310.53750610 242.39163208 308.46469116 246.72221375 305.80197144 251.09909058 C 303.06005859 255.78102112 299.47406006 259.77270508 295.27514648 262.86962891 C 292.87249756 266.76611328 291.02249146 269.33203125 287.94662476 269.35632324 C 284.22644043 268.28692627 281.11975098 269.84793091 278.16384888 272.72244263 C 274.20471191 272.03002930 270.99752808 272.82214355 268.13226318 274.71319580 C 265.09408569 272.58157349 262.26052856 271.62142944 258.90869141 273.78472900 C 254.65415955 273.69601440 249.96025085 272.83004761 244.80950928 273.63983154 C 239.16532898 272.72567749 233.57611084 271.38259888 228.42919922 269.43966675 C 223.38671875 268.67636108 219.46073914 267.00817871 217.18426514 264.32321167 C 216.61692810 261.49246216 215.09671021 260.46279907 212.36894226 260.53863525 C 210.28729248 258.42190552 207.98066711 255.11956787 205.23828125 251.61250305 C 202.80020142 248.19305420 200.88836670 244.55778503 199.40655518 241.01013184 C 198.11593628 237.47814941 197.13502502 233.82896423 196.47947693 230.25024414 C 195.77636719 226.67008972 195.47013855 223.00746155 195.54837036 219.33200073 C 195.94606018 215.62702942 196.23088074 211.90670776 196.98712158 208.23214722 C 197.96951294 204.58355713 198.95880127 200.97839355 200.45867920 197.61763000 C 202.09330750 194.09176636 203.94221497 190.62901306 206.19473267 187.55566406 C 208.91949463 184.67724609 211.92692566 181.97206116 215.18235779 179.31517029 C 218.52947998 176.58735657 221.94538879 173.76226807 225.38311768 170.91043091 C 228.89874268 168.09930420 232.45002747 165.27635193 236.10432434 162.44281006 C 239.77668762 159.62170410 243.50276184 156.81718445 247.22602844 154.01588440 C 250.94950867 151.21704102 254.62710571 148.45219421 266.54940796 154.36625671" stroke-width="1.84096277" fill="rgb(246, 179, 200)" opacity="1.0" stroke="rgb(38, 3, 9)" stroke-opacity="0.65103614" stroke-linecap="round" stroke-linejoin="round"/>
    <path d="M 300.71551514 182.90428162 C 298.44802856 185.56750488 296.18582153 188.25354004 293.70101929 190.62467957 C 291.14321899 192.83074951 288.19094849 194.71894836 285.21618652 196.48005676 C 282.11422729 198.18896484 278.85186768 199.64465332 275.49645996 200.83619690 C 272.02377319 202.03845215 268.63818359 203.05224609 265.16070557 203.63768005 C 261.56832886 204.19245911 257.95095825 204.34153748 254.30320740 204.24362183 C 250.65258789 204.12553406 246.95243835 203.83306885 243.16957092 203.25488281 C 239.38470459 202.24494934 235.49645996 201.20716858 231.78015137 199.74685669 C 228.26467896 198.14639282 224.99108887 196.30535889 221.80067444 194.48085022 C 218.79446411 192.67758179 216.07829285 190.42860413 213.59896851 187.90988159 C 211.37100220 185.13410950 209.40580750 182.04832458 207.38928223 179.00057983 C 205.83526611 175.74540710 204.35275269 172.32563782 203.40307617 168.72781372 C 202.44474792 165.02951050 201.75225830 161.24754333 201.44152832 157.44059753 C 201.27281189 153.68487549 201.54832458 149.93135071 202.14341736 146.07092285 C 202.51298523 142.22634888 203.28417969 138.60758972 204.37940979 134.98866272 C 205.93496704 131.65953064 207.49514771 128.38900757 208.79100037 125.10353088 C 210.36097717 122.05381012 212.39921570 119.41868591 214.68955994 116.88877106 C 217.33512878 114.60716248 220.12890625 112.51377106 222.98205566 110.54473877 C 225.94819641 108.64938354 229.11514282 106.94155884 232.42276001 105.52146912 C 235.80947876 104.35628510 239.26582336 103.36418152 242.80714417 102.55116272 C 246.45187378 101.97146606 250.14253235 101.65435028 253.87078857 101.59132385 C 257.68923950 101.75208282 261.44931030 102.12958527 265.08456421 102.72091675 C 268.71182251 103.53983307 272.38006592 104.58475494 275.98080444 105.81564331 C 279.47613525 107.17819214 282.83990479 108.75862885 285.99142456 110.62857819 C 289.01254272 112.61376190 291.90585327 114.59852600 294.60604858 116.64908600 C 297.21435547 118.78604126 299.13537598 121.30857849 300.65255737 124.34023285 C 302.55538940 127.26629639 304.21386719 130.50003052 305.55316162 133.84680176 C 306.83306885 137.15270996 307.67434692 140.55447388 308.49874878 143.94894409 C 308.97897339 147.45309448 308.98941040 151.04222107 309.13485718 154.59805298 C 309.10775757 158.00152588 308.79806519 161.44830322 308.10220337 164.67723083 C 307.46520996 167.96343994 306.85983276 171.30940247 300.71551514 182.90428162" stroke-width="1.79755247" fill="rgb(142, 84, 59)" opacity="1.0" stroke="rgb(47, 18, 10)" stroke-opacity="0.8768946" stroke-linecap="round" stroke-linejoin="round"/>
    <path d="M 290.09783936 126.19888306 C 287.95645142 128.20698547 285.90664673 130.25747681 283.62170410 132.03556824 C 281.12896729 133.67944336 278.59436035 135.16146851 275.85485840 136.51521301 C 273.25280762 137.73071289 270.40148926 138.81144714 267.62390137 139.88896179 C 264.76651001 140.72966003 261.79397583 141.29138184 258.58691406 141.51629639 C 255.31324768 141.57469177 252.02847290 141.72825623 248.54962158 141.39811707 C 244.93765259 140.61425781 241.26460266 139.91024780 237.65124512 138.98242188 C 234.36021423 137.66979980 231.16786194 135.94822693 228.19906616 134.16020203 C 225.28184509 132.28741455 222.76087952 130.07946777 220.37373352 127.66224670 C 218.05479431 125.16934967 216.23281860 122.48246765 214.61814880 119.49051666 C 213.24018860 116.68519592 212.38710022 113.53992462 211.09567261 110.60987854 C 210.21963501 107.39537048 209.55120850 104.19674683 209.34678650 100.88645935 C 208.95991516 97.60097504 208.99435425 94.31409454 209.26847839 91.02810669 C 209.36462402 87.78205872 210.03620911 84.56738281 210.53686523 81.37635040 C 211.44392395 78.30671692 212.53419495 75.30050659 213.98811340 72.39535522 C 215.50918579 69.59664154 217.22636414 66.91432190 219.08090210 64.29439545 C 221.06546021 61.89475632 223.13610840 59.45481873 225.38435364 57.24464035 C 227.84967041 55.23193741 230.51405334 53.29745483 233.24575806 51.60692596 C 236.17927551 50.14422989 239.19165039 48.86898422 242.20419312 47.85515594 C 245.28773499 47.14029694 248.38844299 46.60918808 251.26121521 46.26963806 C 254.19055176 46.02918243 257.04785156 46.02746964 259.84460449 46.55371857 C 262.82510376 47.22127533 265.88891602 47.92624283 268.97549438 48.87331009 C 271.91342163 50.03000259 274.86718750 51.53320312 277.67938232 53.17502594 C 280.48468018 55.07658005 283.12799072 57.20273209 285.61175537 59.51383972 C 287.93249512 61.88034058 289.97613525 64.61180878 291.95956421 67.34446716 C 293.74279785 70.14450073 295.32070923 73.16842651 296.73684692 76.10455322 C 297.68988037 79.36719513 298.68405151 82.38511658 299.39727783 85.43060303 C 299.65414429 88.52593994 299.72058105 91.53914642 299.92419434 94.61174774 C 299.92901611 97.89245605 299.77066040 101.21488953 299.23016357 104.47264099 C 298.25286865 107.81063080 297.06832886 111.22188568 295.73538208 114.42364502 C 295.17312622 117.68402100 294.59649658 121.18271637 290.09783936 126.19888306" stroke-width="1.68881500" fill="rgb(251, 244, 215)" opacity="1.0" stroke="rgb(44, 39, 23)" stroke-opacity="0.6716352" stroke-linecap="round" stroke-linejoin="round"/>
    <path d="M 454.74911499 502.83041382 C 443.62991333 503.01666260 432.50653076 503.23120117 421.40115356 503.41860962 C 410.25018311 503.65472412 399.09750366 503.86413574 387.88110352 504.10824585 C 376.61343384 504.34219360 365.25888062 504.59945679 353.83178711 504.85772705 C 342.28320312 505.14129639 330.60928345 505.42944336 318.81616211 505.76712036 C 306.86828613 506.08218384 294.77041626 506.42080688 282.54534912 506.78933716 C 270.15972900 507.15911865 257.64193726 507.49884033 245.02230835 507.88192749 C 232.30451965 508.25088501 219.54428101 508.57894897 206.75129700 508.91754150 C 194.00205994 509.23495483 181.32489014 509.49905396 168.78948975 509.74050903 C 156.46429443 509.91775513 144.38917542 510.03741455 132.67958069 510.10461426 C 121.41849518 510.09564209 110.62673187 510.02630615 100.45716095 509.88113403 C 90.93280029 509.66091919 82.15365601 509.35623169 74.20104218 508.99346924 C 67.12758636 508.53469849 60.98461914 508.02191162 55.85871124 507.43798828 C 51.76626205 506.81857300 48.73675537 506.09387207 46.83740616 505.37280273 C 46.01080322 504.56710815 46.29714203 503.77792358 47.70477295 502.93392944 C 50.16262054 502.07711792 53.66059494 501.25326538 58.21111298 500.40173340 C 63.69433212 499.58554077 70.10270691 498.78561401 77.36218262 498.06390381 C 85.41967773 497.35568237 94.19494629 496.72335815 103.59172058 496.16760254 C 113.61106110 495.67379761 124.13538361 495.25357056 135.05480957 494.92346191 C 146.37672424 494.67825317 158.01789856 494.51562500 169.86132812 494.44412231 C 181.92323303 494.39669800 194.10089111 494.40637207 206.35655212 494.39187622 C 218.67453003 494.40896606 230.97013855 494.42810059 243.24568176 494.42190552 C 255.45533752 494.44180298 267.57540894 494.44595337 279.57540894 494.47259521 C 291.45736694 494.52670288 303.17727661 494.60006714 314.75369263 494.72927856 C 326.13681030 494.90045166 337.38522339 495.11279297 348.41436768 495.32354736 C 359.27368164 495.53573608 369.96826172 495.74298096 380.47283936 495.94482422 C 390.80642700 496.13998413 400.99649048 496.31842041 411.03622437 496.47137451 C 420.91989136 496.62591553 430.71835327 496.78140259 440.37478638 496.97897339 C 449.95205688 497.18981934 459.44354248 497.39535522 468.89462280 497.65725708 C 478.28027344 497.88665771 487.64846802 498.15045166 496.99688721 498.44253540 C 506.36328125 498.70391846 515.66583252 498.98001099 454.74911499 502.83041382" stroke-width="2.00000000" fill="rgb(255, 255, 255)" opacity="1.0" stroke="rgb(249, 250, 254)" stroke-opacity="0.011413019" stroke-linecap="round" stroke-linejoin="round"/>
    <path d="M 264.03164673 346.87130737 C 264.43591309 347.52044678 264.94317627 347.90042114 265.42187500 348.21621704 C 265.95773315 348.56079102 266.52453613 348.87310791 266.91259766 349.17758179 C 267.09039307 349.54229736 267.20074463 349.71231079 267.24539185 349.97009277 C 266.88616943 350.44024658 266.32202148 350.91998291 265.49890137 351.57333374 C 264.62725830 352.34762573 263.73617554 353.24334717 262.71026611 354.16830444 C 261.68298340 355.23355103 260.66165161 356.34994507 259.46606445 357.38281250 C 258.19946289 358.37838745 257.10479736 359.30966187 256.40997314 360.16418457 C 255.92329407 360.81008911 255.58282471 360.97619629 255.37536621 360.97293091 C 255.49903870 360.66131592 255.48432922 360.19641113 254.92915344 359.59106445 C 254.00701904 358.84698486 253.10171509 358.13522339 252.39923096 357.29666138 C 251.83934021 356.15640259 250.81329346 355.19818115 249.70065308 354.24578857 C 248.85392761 353.25439453 248.20422363 352.26885986 247.59593201 351.50057983 C 247.04881287 350.75598145 246.56582642 350.08941650 246.04901123 349.81002808 C 245.61180115 349.60269165 245.36351013 349.35409546 245.41580200 349.03128052 C 245.78958130 348.65130615 246.36776733 348.14984131 247.07563782 347.61749268 C 247.77464294 346.92089844 248.53178406 346.14804077 249.45672607 345.54696655 C 250.45953369 344.87152100 251.45266724 344.20962524 252.27551270 343.50628662 C 253.21006775 342.92492676 254.08212280 342.25250244 254.75790405 341.68496704 C 255.40977478 341.39633179 256.10049438 341.09030151 256.42053223 340.69140625 C 256.24047852 340.27871704 256.17504883 339.91311646 264.03164673 346.87130737" stroke-width="1.44893324" fill="rgb(234, 183, 126)" opacity="1.0" stroke="rgb(62, 19, 0)" stroke-opacity="0.87759626" stroke-linecap="round" stroke-linejoin="round"/>
  </g>
</svg>
