<?xml version="1.0" ?>
<svg xmlns="http://www.w3.org/2000/svg" version="1.1" width="512" height="512" viewBox="0 0 512 512">
  <defs/>
  <g>
    <path d="M 277.94793701 332.65155029 C 276.51708984 336.75582886 275.19976807 341.07827759 273.93032837 345.41088867 C 272.66088867 349.74353027 271.43933105 354.08630371 270.19998169 358.23126221 C 268.96066284 362.37622070 267.70355225 366.32336426 266.36303711 369.86465454 C 264.50967407 374.52670288 263.13293457 379.67633057 261.88140869 384.20968628 C 260.62991333 388.74307251 259.50366211 392.66021729 258.15130615 394.85733032 C 256.79891968 397.05441284 255.22045898 397.53149414 253.06449890 395.18469238 C 251.51696777 390.88198853 250.15602112 386.68209839 248.85606384 382.51495361 C 247.55612183 378.34783936 246.31715393 374.21350098 245.01361084 370.04193115 C 243.71005249 365.87042236 242.34191895 361.66168213 240.78358459 357.34573364 C 239.48355103 353.32455444 238.21310425 349.21286011 236.92131042 344.98797607 C 235.62951660 340.76309204 234.31636047 336.42504883 232.93093872 331.95114136 C 231.54551697 327.47723389 230.08782959 322.86749268 228.50694275 318.09924316 C 226.61053467 311.60287476 225.22915649 307.28561401 223.97888184 303.63928223 C 222.72860718 299.99295044 221.60943604 297.01754761 220.23745728 293.20486450 C 218.86547852 289.39221191 217.24067688 284.74224854 214.97914124 277.74682617 C 214.25611877 273.43371582 212.99676514 269.48501587 212.16267395 266.05908203 C 211.32858276 262.63317871 210.91975403 259.73007202 211.89778137 257.50811768 C 212.87580872 255.28619385 215.24069214 253.74542236 219.95401001 253.04425049 C 225.92094421 251.94258118 230.94352722 251.11621094 235.49736023 250.47662354 C 240.05120850 249.83702087 244.13629150 249.38418579 248.22825623 249.02957153 C 252.32022095 248.67495728 256.41903687 248.41854858 261.00036621 248.17181396 C 265.71179199 248.27014160 270.68765259 247.95782471 275.52597046 247.80676270 C 280.36431885 247.65570068 285.06512451 247.66590881 289.22644043 248.40927124 C 293.38778687 249.15261841 297.00964355 250.62915039 299.69009399 253.41072083 C 299.41329956 258.33734131 298.44580078 263.06069946 297.21310425 267.53530884 C 295.98040771 272.00994873 294.48248291 276.23580933 293.14483643 280.16748047 C 291.80722046 284.09912109 290.62988281 287.73657227 290.03833008 291.03436279 C 288.68695068 294.94351196 287.42068481 299.23217773 286.15713501 303.75921631 C 284.89355469 308.28622437 283.63262939 313.05157471 282.29193115 317.91403198 C 280.95123291 322.77648926 279.53070068 327.73608398 277.94793701 332.65155029" stroke-width="1.31809545" fill="rgb(214, 167, 110)" opacity="1.0" stroke="rgb(73, 30, 0)" stroke-opacity="1.0" stroke-linecap="round" stroke-linejoin="round"/>
    <path d="M 262.13479614 159.21234131 C 266.60687256 160.94407654 270.56158447 162.86079407 274.12432861 164.91465759 C 277.68707275 166.96850586 280.85781860 169.15948486 283.76205444 171.43975830 C 286.66625977 173.72003174 289.30395508 176.08956909 291.80050659 178.50054932 C 295.22125244 181.78642273 298.42480469 185.05793762 301.23013306 188.38101196 C 304.03546143 191.70410156 306.44256592 195.07876587 308.27047729 198.57090759 C 310.09838867 202.06304932 311.34704590 205.67269897 311.83551025 209.46575928 C 312.62652588 213.24697876 313.16213989 217.23486328 313.30743408 221.29238892 C 313.45275879 225.34991455 313.20782471 229.47708130 312.43777466 233.53681946 C 311.66772461 237.59655762 310.37255859 241.58889771 308.41748047 245.37677002 C 306.64190674 249.39778137 304.23489380 253.36622620 301.43289185 256.92550659 C 298.63088989 260.48480225 295.43389893 263.63491821 292.07843018 266.01928711 C 288.72296143 268.40362549 285.20898438 270.02218628 281.77294922 270.51837158 C 278.46942139 271.57257080 274.80813599 272.23770142 270.83175659 272.63287354 C 266.85540771 273.02801514 262.56396484 273.15316772 258.00021362 273.12741089 C 253.43647766 273.10165405 248.60040283 272.92498779 243.53471375 272.71646118 C 239.56271362 272.14785767 235.75405884 271.47744751 232.27700806 270.63006592 C 228.79995728 269.78268433 225.65451050 268.75830078 223.00888062 267.48171997 C 220.36325073 266.20513916 218.21746826 264.67639160 216.73973083 262.82019043 C 212.99851990 260.12237549 209.75341797 257.00357056 207.01293945 253.56074524 C 204.27246094 250.11791992 202.03663635 246.35112000 200.31399536 242.35734558 C 198.59136963 238.36357117 197.38192749 234.14283752 196.69421387 229.79216003 C 196.18040466 225.33255005 196.01127625 220.91236877 196.25314331 216.61235046 C 196.49502563 212.31233215 197.14788818 208.13247681 198.27804565 204.15354919 C 199.40820312 200.17462158 201.01565552 196.39660645 203.16671753 192.90023804 C 204.73960876 190.55882263 206.73655701 188.04852295 209.11853027 185.33609009 C 211.50050354 182.62364197 214.26750183 179.70904541 217.38052368 176.55905151 C 220.49353027 173.40905762 223.95254517 170.02368164 227.71856689 166.36962891 C 230.73550415 163.39749146 234.05357361 161.10572815 237.64065552 159.53961182 C 241.22773743 157.97348022 245.08384705 157.13299561 249.17691040 157.06336975 C 253.26995850 156.99374390 257.59994507 157.69497681 262.13479614 159.21234131" stroke-width="1.25530422" fill="rgb(245, 179, 202)" opacity="1.0" stroke="rgb(75, 35, 46)" stroke-opacity="1.0" stroke-linecap="round" stroke-linejoin="round"/>
    <path d="M 300.52124023 182.51643372 C 298.77636719 185.01422119 296.83386230 187.27574158 294.56710815 189.35771179 C 292.30035400 191.43966675 289.70928955 193.34207153 286.66726685 195.12161255 C 283.62527466 196.90115356 280.13232422 198.55783081 276.06176758 200.14834595 C 272.19967651 201.60914612 268.28195190 202.66711426 264.42132568 203.33305359 C 260.56069946 203.99899292 256.75720215 204.27291870 253.12356567 204.16563416 C 249.48995972 204.05834961 246.02621460 203.56985474 242.84515381 202.71093750 C 238.82519531 201.41398621 234.96862793 200.15338135 231.38230896 198.74183655 C 227.79598999 197.33029175 224.47988892 195.76779175 221.54087830 193.86705017 C 218.60186768 191.96629333 216.03991699 189.72729492 213.96189880 186.96272278 C 211.47496033 184.49896240 209.37182617 181.60925293 207.64837646 178.39488220 C 205.92492676 175.18051147 204.58116150 171.64147949 203.61299133 167.87907410 C 202.64483643 164.11666870 202.05224609 160.13088989 201.83117676 156.02302551 C 201.66571045 152.55349731 201.80268860 148.92088318 202.34049988 145.19927979 C 202.87829590 141.47769165 203.81694031 137.66712952 205.25477600 133.84172058 C 206.69262695 130.01632690 208.62966919 126.17607117 211.16432190 122.39511108 C 213.39080811 119.72034454 215.32560730 117.21168518 217.20701599 114.95038605 C 219.08843994 112.68908691 220.91647339 110.67514038 222.92942810 108.98979950 C 224.94239807 107.30445862 227.14030457 105.94770813 229.76145935 105.00080872 C 233.53816223 103.59206390 237.25384521 102.78099060 240.99043274 102.36495209 C 244.72702026 101.94892120 248.48448181 101.92793274 252.34477234 102.09936523 C 256.20507812 102.27080536 260.16815186 102.63465881 264.31600952 102.98832703 C 267.60427856 103.47985077 271.11325073 104.03192139 274.65798950 104.95780945 C 278.20269775 105.88369751 281.78314209 107.18341064 285.21426392 109.17020416 C 288.64541626 111.15699768 291.92724609 113.83087158 294.87481689 117.50509644 C 297.19232178 119.82096100 299.17266846 122.31126404 300.88598633 125.12404633 C 302.59930420 127.93682861 304.04559326 131.07208252 305.29498291 134.67784119 C 306.54437256 138.28361511 307.59686279 142.35989380 308.52261353 147.05470276 C 308.77780151 150.77049255 308.95574951 154.10386658 308.75228882 157.51205444 C 308.54882812 160.92022705 307.96392822 164.40321350 306.69348145 168.41821289 C 305.42303467 172.43319702 303.46697998 176.98020935 300.52124023 182.51643372" stroke-width="1.19334400" fill="rgb(142, 81, 56)" opacity="1.0" stroke="rgb(42, 10, 0)" stroke-opacity="1.0" stroke-linecap="round" stroke-linejoin="round"/>
    <path d="M 288.48965454 127.67901611 C 286.78170776 129.43045044 284.97845459 130.93820190 282.90948486 132.32199097 C 280.84051514 133.70578003 278.50579834 134.96563721 275.73498535 136.22125244 C 272.96420288 137.47689819 269.75726318 138.72830200 265.94384766 140.09526062 C 262.78894043 140.61625671 259.48348999 141.05131531 256.15087891 141.25047302 C 252.81826782 141.44961548 249.45849609 141.41287231 246.19494629 140.99020386 C 242.93139648 140.56756592 239.76406860 139.75900269 236.81636047 138.41458130 C 234.12609863 137.17962646 231.42802429 135.89509583 228.83090210 134.35392761 C 226.23379517 132.81274414 223.73760986 131.01492310 221.45114136 128.75332642 C 219.16465759 126.49173737 217.08787537 123.76638794 215.32952881 120.37019348 C 213.29483032 116.91765594 211.95362854 113.84082031 211.07420349 110.88925934 C 210.19477844 107.93770599 209.77714539 105.11143494 209.58959961 102.16001892 C 209.40205383 99.20860291 209.44461060 96.13204956 209.48556519 92.67993164 C 209.34019470 88.95393372 209.69377136 85.45162964 210.47467041 82.12171936 C 211.25555420 78.79180145 212.46377563 75.63426971 214.02770996 72.59780884 C 215.59164429 69.56135559 217.51129150 66.64596558 219.71504211 63.80033875 C 223.65501404 59.75384903 225.90551758 57.36952591 227.55070496 55.79377747 C 229.19589233 54.21802902 230.23571777 53.45085526 231.75434875 52.63866043 C 233.27296448 51.82646942 235.27035522 50.96926117 238.83065796 49.21343994 C 242.33190918 47.85718918 245.70602417 46.96352768 249.06367493 46.52396011 C 252.42132568 46.08439255 255.76252747 46.09891891 259.19790649 46.55904388 C 262.63330078 47.01916885 266.16287231 47.92488861 269.89730835 49.26771545 C 272.86672974 50.52640915 275.91952515 52.20904541 278.83697510 54.21347809 C 281.75442505 56.21791458 284.53649902 58.54415131 286.96444702 61.09004211 C 289.39239502 63.63593292 291.46618652 66.40148163 292.96710205 69.28454590 C 294.92391968 72.44281006 296.36450195 75.73962402 297.39208984 78.98952484 C 298.41967773 82.23942566 299.03430176 85.44241333 299.33917236 88.41300201 C 299.64404297 91.38359833 299.63919067 94.12181091 299.42782593 96.44215393 C 299.04907227 100.23040771 298.82925415 103.48503876 298.33053589 106.63384247 C 297.83181763 109.78263855 297.05422974 112.82561493 295.56002808 116.19054413 C 294.06579590 119.55548096 291.85491943 123.24237061 288.48965454 127.67901611" stroke-width="1.12770045" fill="rgb(251, 245, 217)" opacity="1.0" stroke="rgb(55, 53, 37)" stroke-opacity="1.0" stroke-linecap="round" stroke-linejoin="round"/>
    <path d="M 452.11026001 504.12869263 C 441.16903687 503.83001709 430.84393311 503.76840210 420.41488647 503.81072998 C 409.98583984 503.85308838 399.45281982 503.99938965 388.09579468 504.11651611 C 376.73873901 504.23367310 364.55767822 504.32168579 350.83245850 504.24743652 C 338.44427490 504.81912231 328.38104248 505.25518799 318.61199951 505.55429077 C 308.84298706 505.85339355 299.36816406 506.01550293 288.15679932 506.03927612 C 276.94543457 506.06304932 263.99749756 505.94848633 247.28225708 505.69424438 C 235.32415771 506.39492798 224.28659058 507.21609497 213.48684692 507.95565796 C 202.68710327 508.69522095 192.12518311 509.35321045 181.11840820 509.72756958 C 170.11163330 510.10192871 158.65997314 510.19262695 146.08076477 509.79769897 C 132.30738831 508.24157715 120.51349640 507.53323364 109.33008575 507.58828735 C 98.14666748 507.64331055 87.57373047 508.46173096 76.24227142 509.95907593 C 64.91082001 511.45642090 52.82084274 513.63269043 38.60334778 516.40350342 C 25.23414040 515.49523926 17.63348198 512.68090820 15.02808952 509.42816162 C 12.42269897 506.17541504 14.81257343 502.48419189 21.42443466 499.82214355 C 28.03629684 497.16009521 38.87014389 495.52725220 53.15269470 496.39120483 C 70.25218964 495.70407104 83.08480072 495.51937866 93.41125488 495.53826904 C 103.73771667 495.55712891 111.55801392 495.77951050 118.63289642 495.90649414 C 125.70777893 496.03347778 132.03724670 496.06506348 139.38201904 495.70227051 C 152.72149658 496.29330444 165.36456299 496.30499268 177.38165283 496.16500854 C 189.39874268 496.02502441 200.78982544 495.73336792 211.62538147 495.71771240 C 222.46092224 495.70208740 232.74092102 495.96240234 242.53579712 496.92642212 C 256.01272583 495.74639893 267.50366211 495.51324463 278.34399414 495.61288452 C 289.18429565 495.71255493 299.37396240 496.14501953 310.24832153 496.29626465 C 321.12271118 496.44750977 332.68176270 496.31750488 346.26089478 495.29223633 C 358.28076172 496.16891479 369.12557983 496.28161621 379.79513550 496.16174316 C 390.46472168 496.04187012 400.95901489 495.68945312 412.27783203 495.63589478 C 423.59664917 495.58233643 435.73999023 495.82763672 449.70758057 496.90316772 C 463.18646240 495.01202393 474.90194702 495.30130005 482.21343994 496.48855591 C 489.52496338 497.67581177 492.43249512 499.76104736 488.29547119 501.46188354 C 484.15847778 503.16271973 472.97692871 504.47912598 452.11026001 504.12869263" stroke-width="1.90635872" fill="rgb(255, 255, 255)" opacity="1.0" stroke="rgb(255, 255, 255)" stroke-opacity="1.0" stroke-linecap="round" stroke-linejoin="round"/>
    <path d="M 259.93487549 343.73089600 C 260.88244629 344.42608643 261.59591675 345.07183838 262.30844116 345.70523071 C 263.02096558 346.33862305 263.73254395 346.95971680 264.67626953 347.60559082 C 265.79653931 348.77929688 266.47918701 349.35729980 266.57214355 349.91223145 C 266.66510010 350.46719360 266.16839600 350.99908447 264.92990112 352.08056641 C 264.04864502 352.77227783 263.36358643 353.39041138 262.64556885 354.06799316 C 261.92758179 354.74557495 261.17663574 355.48260498 260.16360474 356.41204834 C 259.28250122 357.19317627 258.54882812 358.06716919 257.88629150 358.88119507 C 257.22378540 359.69519043 256.63244629 360.44921875 256.03607178 360.99038696 C 255.29444885 360.44723511 254.79556274 359.87365723 254.24165344 359.15545654 C 253.68774414 358.43725586 253.07879639 357.57440186 252.11705017 356.45266724 C 251.44644165 355.53973389 250.82008362 354.93572998 250.23529053 354.38583374 C 249.65051270 353.83593750 249.10726929 353.34008789 248.60290527 352.64349365 C 247.86476135 351.56149292 247.11743164 350.81237793 246.69049072 350.14190674 C 246.26354980 349.47146606 246.15701294 348.87969971 246.70045471 348.11245728 C 247.46115112 347.47705078 248.24247742 347.02209473 249.08035278 346.48721313 C 249.91822815 345.95233154 250.81262207 345.33758545 251.79945374 344.38262939 C 252.51489258 343.86529541 253.26589966 343.27648926 254.00901794 342.58697510 C 254.75213623 341.89746094 255.48738098 341.10729980 256.17129517 340.18728638 C 256.60867310 340.51931763 256.97799683 341.08160400 257.52374268 341.72265625 C 258.06951904 342.36373901 258.79171753 343.08361816 259.93487549 343.73089600" stroke-width="0.95510000" fill="rgb(237, 188, 127)" opacity="1.0" stroke="rgb(64, 26, 16)" stroke-opacity="1.0" stroke-linecap="round" stroke-linejoin="round"/>
  </g>
</svg>
