<?xml version="1.0" ?>
<svg xmlns="http://www.w3.org/2000/svg" version="1.1" width="512" height="512" viewBox="0 0 512 512">
  <defs/>
  <g>
    <path d="M 351.78430176 445.41482544 C 350.53002930 447.85809326 349.04260254 448.80322266 346.11593628 448.46475220 C 341.93435669 448.51782227 336.70706177 448.48846436 330.63491821 448.52258301 C 323.96524048 448.53720093 316.83334351 448.52575684 309.43402100 448.56335449 C 301.78872681 448.56268311 293.94470215 448.55316162 286.00723267 448.50741577 C 277.92944336 448.60726929 269.69042969 448.53842163 261.39099121 448.55743408 C 252.95983887 448.53692627 244.38874817 448.56390381 235.75782776 448.55267334 C 227.03871155 448.52670288 218.27648926 448.55285645 209.56253052 448.53173828 C 200.96229553 448.49423218 192.60649109 448.57348633 184.64593506 448.52337646 C 177.18615723 448.61361694 170.35177612 448.56350708 164.34002686 448.44784546 C 159.17633057 448.54919434 155.11994934 448.63220215 152.22557068 448.12207031 C 150.53985596 447.27218628 150.55807495 444.91165161 150.36912537 441.30929565 C 150.39186096 436.48159790 150.16661072 430.56173706 150.06295776 423.78594971 C 149.51580811 416.30627441 149.24256897 408.19091797 148.88650513 399.87585449 C 148.75416565 391.32241821 148.05288696 383.01684570 148.06721497 375.03863525 C 148.62013245 368.55917358 147.27923584 363.91421509 143.75389099 360.51882935 C 141.07565308 356.96990967 140.78698730 352.88287354 141.42282104 349.34487915 C 143.25466919 348.25671387 146.63235474 347.84231567 152.07225037 348.36596680 C 159.52317810 348.35443115 168.53211975 348.26336670 178.22708130 348.40988159 C 187.94172668 348.33160400 197.68318176 348.33584595 207.56790161 348.25500488 C 217.47297668 348.35763550 227.20449829 348.27984619 236.71307373 348.28610229 C 245.84159851 347.75061035 254.70018005 347.27584839 263.40368652 347.71737671 C 272.12597656 348.68087769 281.20013428 348.29089355 290.48791504 348.30276489 C 299.90649414 348.18850708 309.28131104 348.27978516 318.35751343 348.27291870 C 327.04425049 348.19757080 335.21551514 348.35977173 342.70553589 348.27740479 C 349.21542358 348.35565186 354.43444824 348.17941284 358.00689697 347.89779663 C 359.89511108 348.65603638 360.60302734 350.65170288 360.22677612 353.67337036 C 359.09573364 357.50003052 357.71200562 362.01025391 356.38635254 367.24734497 C 356.10296631 373.16668701 355.79922485 379.65103149 355.40960693 386.62506104 C 355.22308350 393.96746826 354.38705444 401.62524414 353.78933716 409.42562866 C 353.33569336 417.23941040 353.04110718 425.22058105 351.78430176 445.41482544" stroke-width="0.73715264" fill="rgb(20, 8, 10)" opacity="1.0" stroke="rgb(0, 0, 0)" stroke-opacity="0.38040927" stroke-linecap="round" stroke-linejoin="round"/>
    <path d="M 347.21331787 438.94015503 C 341.34848022 438.13760376 335.42199707 437.31961060 329.47253418 436.42190552 C 323.49502563 435.49087524 317.46286011 434.64477539 311.31015015 433.89016724 C 305.07043457 433.28750610 298.71746826 432.89205933 292.18743896 432.66366577 C 285.50579834 432.64434814 278.66854858 432.84896851 271.65838623 433.21347046 C 264.53277588 433.75436401 257.29867554 434.47955322 249.93031311 435.33828735 C 242.39523315 436.29031372 234.82971191 437.30810547 227.28144836 438.40948486 C 219.70034790 439.54385376 212.10563660 440.64245605 204.60063171 441.65158081 C 197.25071716 442.45126343 190.13795471 443.00817871 183.27491760 443.33502197 C 176.74075317 443.49847412 170.80398560 443.54177856 165.61523438 443.53811646 C 161.25135803 443.56054688 157.85047913 443.52008057 155.75788879 443.40243530 C 155.10293579 442.76071167 155.23696899 441.39321899 155.37843323 439.19772339 C 155.18385315 436.05249023 155.16226196 432.10287476 155.07798767 427.40597534 C 154.93707275 422.07208252 154.69334412 416.34170532 154.48841858 410.36981201 C 154.27267456 404.23449707 153.97131348 398.15304565 153.56130981 392.26541138 C 153.59342957 386.76107788 153.11785889 381.85620117 153.17364502 377.60913086 C 153.17614746 374.03018188 152.93835449 371.14938354 152.54188538 369.13348389 C 152.34660339 368.12457275 152.59880066 367.98809814 153.68518066 368.32369995 C 155.83470154 368.22775269 159.33155823 368.35009766 164.22770691 368.44723511 C 170.33439636 368.45169067 177.39047241 368.36901855 185.20950317 368.35083008 C 193.65716553 368.32305908 202.57099915 368.33245850 211.77227783 368.35632324 C 221.13243103 368.40002441 230.48648071 368.35333252 239.73185730 368.35443115 C 248.79820251 368.47000122 257.70477295 368.38269043 266.43020630 368.31848145 C 274.84985352 368.34695435 282.93017578 368.32730103 290.69976807 368.36270142 C 298.22885132 368.40951538 305.48999023 368.37976074 312.40249634 368.40032959 C 318.82513428 368.38803101 324.70233154 368.31234741 330.03500366 368.36370850 C 334.76232910 368.24581909 338.80624390 368.24468994 342.11700439 368.52380371 C 344.65405273 369.79614258 346.53649902 371.91009521 347.85205078 374.83776855 C 348.64608765 378.49649048 349.09390259 382.67782593 349.33657837 387.25231934 C 349.44448853 392.12899780 349.55645752 397.26019287 349.80184937 402.52792358 C 349.59710693 407.64108276 348.91848755 412.62747192 347.21331787 438.94015503" stroke-width="1.87710178" fill="rgb(174, 70, 0)" opacity="1.0" stroke="rgb(193, 95, 30)" stroke-opacity="0.96885693" stroke-linecap="round" stroke-linejoin="round"/>
    <path d="M 328.79855347 445.11590576 C 320.52133179 445.07220459 312.27719116 444.99139404 304.00256348 445.04238892 C 295.72402954 445.14505005 287.43008423 445.09359741 279.12298584 445.12008667 C 270.88418579 445.02108765 262.69158936 444.96502686 254.58657837 444.98321533 C 246.59104919 444.98110962 238.79859924 445.01593018 231.18449402 444.98846436 C 223.76515198 444.98004150 216.67459106 444.95788574 209.93936157 444.98455811 C 203.55828857 445.01873779 197.62908936 444.96548462 192.15962219 444.90985107 C 187.27412415 444.94659424 183.00459290 444.65612793 179.36477661 444.51010132 C 176.39103699 444.56924438 174.19860840 444.40777588 172.77572632 443.85476685 C 172.16085815 442.98477173 172.38003540 441.85571289 173.41001892 440.62762451 C 175.17195129 439.34237671 177.62821960 438.03146362 180.76254272 436.64157104 C 184.56155396 435.25665283 188.94786072 433.93563843 193.85675049 432.73901367 C 199.25625610 431.54748535 205.12165833 430.43542480 211.35781860 429.38592529 C 217.89192200 428.44934082 224.68084717 427.53881836 231.68017578 426.70294189 C 238.83940125 425.94699097 246.05967712 425.32449341 253.27810669 424.88775635 C 260.45623779 424.69665527 267.57525635 424.77008057 274.63415527 425.09176636 C 281.53619385 425.57696533 288.25604248 426.22863770 294.84420776 427.03189087 C 301.23214722 427.97622681 307.41809082 429.03408813 313.36312866 430.20980835 C 319.09536743 431.53512573 324.66220093 433.04879761 330.02560425 434.75338745 C 335.15429688 436.68157959 340.11383057 438.82449341 344.98721313 441.11343384 C 349.79730225 443.35064697 354.63156128 445.43569946 328.79855347 445.11590576" stroke-width="0.94862992" fill="rgb(176, 69, 2)" opacity="1.0" stroke="rgb(176, 64, 8)" stroke-opacity="0.4863457" stroke-linecap="round" stroke-linejoin="round"/>
    <path d="M 247.79205322 301.38290405 C 248.76229858 311.89004517 250.49526978 321.20092773 253.63650513 329.83383179 C 256.40618896 337.25622559 259.32189941 343.11242676 261.18228149 347.17755127 C 260.24734497 349.78128052 256.58895874 350.79974365 251.52706909 350.51699829 C 247.15896606 349.55728149 244.50782776 346.08148193 243.25517273 339.79437256 C 239.96716309 332.04531860 238.38415527 321.99380493 236.78756714 310.45901489 C 234.96850586 298.28408813 235.76202393 285.66989136 237.00514221 272.39456177 C 238.58010864 258.81002808 239.67784119 245.80029297 243.98323059 233.48875427 C 246.98997498 220.66114807 249.38380432 208.00520325 250.68086243 195.53433228 C 252.42578125 183.92950439 255.76744080 173.79904175 256.71090698 163.65483093 C 254.73454285 153.58393860 251.81353760 143.83245850 249.22253418 134.86364746 C 247.46699524 126.65183258 246.52102661 119.09652710 246.16700745 112.42961884 C 246.27743530 106.84800720 246.66943359 102.48465729 247.19998169 99.43350983 C 247.88339233 97.69790649 248.68522644 97.18656158 249.58024597 97.92919922 C 250.60429382 100.06078339 251.70953369 103.64113617 252.85450745 108.49192810 C 254.05642700 114.44726562 255.25387573 121.41532898 256.43167114 129.39714050 C 257.61605835 138.17576599 258.79583740 147.48141479 259.73342896 157.28704834 C 260.17550659 167.44833374 260.77200317 177.32725525 260.19967651 186.85475159 C 261.18457031 195.94390869 259.46810913 205.20471191 256.99316406 215.33848572 C 254.86973572 226.55270386 252.77658081 238.69218445 250.74037170 251.38362122 C 248.60612488 264.58630371 246.62934875 278.35824585 247.79205322 301.38290405" stroke-width="2.00000000" fill="rgb(182, 147, 102)" opacity="1.0" stroke="rgb(0, 0, 0)" stroke-opacity="1.0" stroke-linecap="round" stroke-linejoin="round"/>
    <path d="M 196.47241211 232.59159851 C 199.32556152 232.88810730 202.14047241 233.14334106 204.91790771 233.33242798 C 207.73419189 233.49055481 210.58062744 233.66685486 213.38737488 233.87622070 C 216.09989929 234.10491943 218.75822449 234.32022095 221.44075012 234.60848999 C 224.08332825 235.14434814 226.64607239 235.68818665 229.18605042 235.92393494 C 231.62998962 236.59941101 233.90753174 237.36869812 235.97422791 237.61399841 C 238.07618713 237.94512939 239.62780762 238.86857605 241.02273560 240.05462646 C 243.20552063 240.07684326 245.19897461 240.16899109 246.73716736 241.32971191 C 248.52735901 241.62440491 250.05653381 241.41511536 251.05812073 241.51617432 C 251.14540100 242.35937500 250.72088623 243.66554260 250.31387329 245.30654907 C 250.15626526 246.83309937 250.24661255 248.00169373 249.66717529 248.70736694 C 247.60475159 248.49201965 244.89378357 248.43678284 242.44891357 248.77320862 C 241.05796814 248.49160767 241.05513000 246.68130493 240.47479248 245.39912415 C 238.54277039 245.84497070 236.94668579 245.08128357 235.12486267 243.44537354 C 232.68946838 242.85093689 230.10752869 242.11540222 228.04096985 241.04246521 C 226.03015137 241.17030334 223.91259766 241.44331360 221.78265381 241.61280823 C 219.61900330 241.88615417 217.42716980 241.95272827 215.21650696 241.93696594 C 213.01547241 242.00263977 210.71963501 242.00601196 208.29824829 241.84214783 C 205.81625366 241.65132141 203.39414978 241.54203796 201.05801392 241.44171143 C 198.70211792 241.27758789 196.30810547 241.08078003 193.89273071 240.89796448 C 191.51573181 240.70376587 189.18278503 240.45672607 196.47241211 232.59159851" stroke-width="2.00000000" fill="rgb(194, 155, 111)" opacity="1.0" stroke="rgb(61, 47, 35)" stroke-opacity="1.0" stroke-linecap="round" stroke-linejoin="round"/>
    <path d="M 305.68411255 192.25933838 C 301.39367676 192.33073425 297.17544556 192.69483948 293.12866211 193.24897766 C 289.15151978 193.74812317 285.14166260 194.10736084 280.92501831 194.60406494 C 276.24227905 195.13784790 271.63565063 195.94650269 267.52728271 196.94210815 C 264.52758789 198.36334229 262.55200195 198.85383606 260.92919922 197.85624695 C 259.69625854 198.01614380 259.38177490 199.72441101 259.06500244 201.58372498 C 257.33953857 201.66725159 254.99552917 201.38024902 252.44776917 201.44767761 C 250.83015442 202.02133179 250.66499329 201.59803772 251.36734009 200.02883911 C 251.73504639 197.55070496 252.05999756 195.21429443 252.57232666 193.49743652 C 254.18783569 193.46246338 256.57342529 193.70614624 258.99703979 193.51348877 C 261.16857910 192.93223572 263.19708252 191.74647522 265.54165649 190.81863403 C 268.04376221 190.15525818 270.77865601 189.28984070 273.62136841 188.55258179 C 276.25430298 187.42547607 279.00582886 186.47532654 281.72805786 185.64179993 C 284.31765747 184.84001160 286.81057739 184.21990967 289.19055176 183.84274292 C 291.46105957 183.59765625 293.72167969 183.50959778 295.88906860 183.53771973 C 297.98901367 183.65856934 300.00567627 183.85131836 301.85446167 184.11201477 C 303.49325562 184.46099854 305.03741455 184.92083740 306.47079468 185.48023987 C 307.80133057 186.11260986 309.06842041 186.84814453 310.25640869 187.70402527 C 311.34701538 188.57377625 312.37783813 189.39657593 313.34710693 190.24461365 C 314.29934692 191.15499878 315.23275757 192.12681580 316.10134888 193.08810425 C 317.01400757 194.04580688 317.93884277 194.99736023 305.68411255 192.25933838" stroke-width="2.00000000" fill="rgb(202, 157, 116)" opacity="1.0" stroke="rgb(50, 40, 28)" stroke-opacity="1.0" stroke-linecap="round" stroke-linejoin="round"/>
    <path d="M 246.05599976 156.84280396 C 243.98487854 156.75502014 241.91421509 156.63963318 239.85392761 156.51271057 C 237.82217407 156.39038086 235.81251526 156.27772522 233.78881836 156.12924194 C 231.82890320 155.96640015 229.92103577 155.75283813 228.06051636 155.53399658 C 226.30702209 155.24867249 224.62962341 154.93820190 223.10119629 154.57597351 C 221.66238403 154.14082336 220.34434509 153.59336853 219.18196106 153.03958130 C 218.22543335 152.40460205 217.44891357 151.67097473 216.86099243 150.85446167 C 216.48406982 149.95617676 216.33073425 149.04232788 216.40135193 148.15090942 C 216.68812561 147.23345947 217.14872742 146.17605591 217.85629272 144.98316956 C 218.83381653 143.73648071 220.00920105 142.41252136 221.39920044 141.09254456 C 222.94165039 139.91061401 224.63427734 138.91781616 226.55992126 138.17297363 C 228.66127014 137.61209106 230.87286377 137.22973633 233.23818970 137.06832886 C 235.61566162 137.11128235 237.88586426 137.24470520 240.08508301 137.37083435 C 242.24291992 137.40278625 244.16682434 137.51879883 245.79031372 137.84671021 C 247.11750793 138.46249390 248.02096558 139.46568298 248.69453430 140.58131409 C 249.23628235 141.93922424 249.48588562 143.36283875 249.57673645 144.70533752 C 250.39704895 145.57546997 250.99168396 146.52494812 251.16816711 147.63027954 C 251.76123047 148.15364075 252.59788513 148.27828979 253.31809998 148.55471802 C 253.40374756 149.24855042 253.74725342 150.18251038 254.51887512 151.14497375 C 255.21423340 152.37362671 256.09127808 153.71147156 257.07989502 155.07489014 C 258.11367798 156.44981384 259.23861694 157.83363342 246.05599976 156.84280396" stroke-width="2.00000000" fill="rgb(53, 44, 34)" opacity="1.0" stroke="rgb(227, 210, 134)" stroke-opacity="1.0" stroke-linecap="round" stroke-linejoin="round"/>
    <path d="M 221.30070496 249.88949585 C 219.92683411 253.00190735 218.45266724 256.15151978 216.41169739 258.79479980 C 214.80810547 261.70693970 212.32666016 263.89801025 209.76832581 266.29412842 C 206.84729004 268.56195068 203.63803101 270.58770752 200.24902344 272.31539917 C 196.52496338 273.66159058 192.52105713 274.72351074 188.26065063 275.39413452 C 183.56236267 275.41555786 179.24458313 275.72128296 175.17826843 274.79315186 C 171.10768127 273.62338257 167.27180481 271.81478882 163.60003662 269.62930298 C 160.07832336 267.43054199 157.08091736 264.68371582 154.77061462 261.43786621 C 152.36010742 258.35818481 150.36741638 255.40545654 149.73347473 251.60646057 C 148.37783813 247.66783142 147.61325073 243.28619385 147.49331665 238.84539795 C 147.80163574 234.86184692 148.54876709 230.81463623 149.48623657 226.80369568 C 151.07821655 223.23138428 152.69245911 219.68888855 154.91378784 216.48210144 C 157.21929932 213.56445312 160.10038757 211.18339539 163.00105286 208.76910400 C 165.73954773 206.43041992 169.39837646 204.90339661 173.50352478 203.35147095 C 177.65522766 201.68692017 182.24598694 201.14395142 186.93139648 201.36927795 C 190.75088501 200.95283508 193.95484924 202.47315979 197.74992371 202.63868713 C 200.91555786 203.92640686 203.95259094 205.77915955 207.26121521 207.49267578 C 210.22181702 209.40071106 212.74865723 211.75479126 215.17260742 214.55554199 C 217.72244263 217.37817383 219.82916260 220.63104248 221.56027222 224.57615662 C 222.93429565 229.28767395 224.02926636 233.32017517 223.11273193 236.64453125 C 223.28816223 239.91835022 223.74533081 243.02560425 221.30070496 249.88949585" stroke-width="2.00000000" fill="rgb(63, 138, 49)" opacity="1.0" stroke="rgb(3, 0, 4)" stroke-opacity="0.9768054" stroke-linecap="round" stroke-linejoin="round"/>
    <path d="M 240.11679077 138.98542786 C 237.68511963 134.64553833 235.33915710 130.32067871 233.12380981 126.30245209 C 230.97782898 122.59568024 228.80674744 119.17597961 226.57106018 116.26782227 C 224.02104187 113.98590088 221.18862915 112.64424133 218.11071777 111.91188049 C 215.03076172 110.19358063 212.13186646 107.56616974 209.23486328 104.89846039 C 206.91506958 101.80924225 204.96028137 98.66040039 203.09226990 95.30628204 C 201.81898499 91.83930206 200.44203186 88.06855774 199.58268738 84.53668213 C 199.32304382 80.98436737 199.40782166 77.15383148 199.61811829 73.08477783 C 200.43745422 68.78097534 201.57824707 64.54206085 202.95079041 60.22335815 C 204.71849060 55.97734070 207.15824890 52.09947205 209.74635315 48.39166260 C 212.22430420 44.81738281 215.08648682 41.79192352 218.42433167 39.26062775 C 221.48362732 36.53438568 224.43783569 34.21751404 228.15290833 32.71781540 C 231.70155334 30.61781311 235.23759460 28.76844025 238.94499207 28.16902924 C 242.21774292 26.64475441 245.79272461 26.39945793 249.83041382 25.88645554 C 253.99307251 25.48078346 258.29095459 25.39604568 262.62905884 25.85111237 C 266.84695435 26.31046295 270.77746582 27.35202408 275.00128174 28.67021179 C 279.00152588 29.99924660 282.58020020 31.77735329 285.85260010 33.71488953 C 288.89285278 35.59135437 291.70034790 37.51939011 294.49679565 39.55363083 C 297.18002319 41.97257996 299.65628052 44.49068832 301.88314819 47.44258881 C 304.12408447 50.57237244 306.31561279 53.59850311 308.21551514 56.96279907 C 309.68222046 60.39443207 311.22262573 63.81082153 311.85208130 67.44795227 C 313.03375244 70.89749908 314.04495239 74.45121002 314.58312988 78.15478516 C 314.71466064 81.91408539 314.49383545 85.66770935 313.93072510 89.35834503 C 313.00421143 93.02200317 311.75213623 96.69720459 310.15301514 100.35646820 C 308.28445435 103.95074463 306.20745850 107.47274017 303.96313477 110.88700104 C 301.53610229 114.14342499 298.92898560 117.16146851 296.12606812 119.94248962 C 293.14553833 122.56327820 290.06414795 125.06183624 286.81094360 127.39888763 C 283.41363525 129.46766663 279.94384766 131.29766846 276.45416260 132.96464539 C 272.96932983 134.46861267 269.43185425 135.81553650 265.78585815 136.90591431 C 262.13619995 137.69757080 258.70205688 138.15304565 255.60264587 138.15347290 C 253.04931641 137.31079102 250.58943176 136.82511902 240.11679077 138.98542786" stroke-width="2.00000000" fill="rgb(78, 152, 59)" opacity="1.0" stroke="rgb(9, 4, 7)" stroke-opacity="1.0" stroke-linecap="round" stroke-linejoin="round"/>
    <path d="M 370.39151001 180.19432068 C 370.63278198 183.62878418 370.61953735 187.19535828 370.77526855 190.85604858 C 370.59066772 194.66708374 370.15570068 198.41705322 368.75900269 201.85922241 C 367.96520996 205.21228027 366.49050903 208.35789490 364.92062378 211.50851440 C 363.51034546 214.41806030 361.29583740 216.96669006 359.38900757 219.79971313 C 357.17935181 222.28999329 354.78567505 224.48994446 352.33438110 226.49603271 C 349.56329346 228.21867371 347.55474854 230.09300232 344.69482422 230.78298950 C 341.82153320 232.24766541 338.81838989 233.44055176 335.53671265 234.49525452 C 332.22158813 235.28735352 328.93093872 236.06767273 325.64260864 235.73339844 C 322.10562134 235.77348328 318.45223999 235.91239929 314.63867188 235.42893982 C 311.00100708 234.63262939 307.47344971 233.76370239 304.15509033 232.29255676 C 301.13067627 230.78196716 298.46270752 228.82115173 295.65191650 227.25202942 C 293.20480347 225.44639587 291.15869141 223.36698914 289.21456909 221.16390991 C 287.76992798 218.49874878 285.36953735 216.31326294 283.80435181 213.46316528 C 282.34729004 210.66749573 281.47567749 207.67460632 280.22937012 205.13597107 C 279.32296753 202.95666504 278.97247314 200.25552368 278.58374023 197.65609741 C 279.02584839 194.96070862 279.51055908 191.78820801 279.33242798 188.32081604 C 279.24838257 184.73065186 279.56527710 181.09700012 279.73443604 177.46588135 C 280.34832764 174.02845764 281.33795166 170.59880066 282.62850952 167.23866272 C 284.22192383 164.11839294 286.13204956 161.22370911 288.30346680 158.47305298 C 290.60415649 155.82121277 293.05874634 153.30464172 295.72897339 150.96743774 C 298.60617065 148.81077576 301.60574341 146.84564209 304.69989014 145.05642700 C 307.76278687 143.51399231 310.77639771 142.29890442 313.86975098 141.36917114 C 317.03692627 140.72956848 320.16305542 140.48184204 323.08465576 140.24566650 C 325.80889893 140.48912048 328.01629639 140.54678345 330.02600098 141.46374512 C 332.63894653 141.17239380 335.44039917 142.40980530 338.52108765 143.21705627 C 341.67504883 144.11198425 344.31649780 145.88853455 347.43951416 147.14099121 C 350.35107422 149.05273438 353.30825806 151.12400818 356.07128906 153.58512878 C 358.67462158 156.42228699 361.53472900 159.01924133 363.17651367 162.54621887 C 365.22259521 165.21260071 366.35848999 168.33203125 367.76934814 171.27024841 C 368.72125244 174.30465698 369.91488647 177.37718201 370.39151001 180.19432068" stroke-width="2.00000000" fill="rgb(66, 141, 52)" opacity="1.0" stroke="rgb(5, 2, 7)" stroke-opacity="1.0" stroke-linecap="round" stroke-linejoin="round"/>
    <path d="M 205.72697449 184.73858643 C 202.77044678 187.95188904 199.53977966 189.35479736 195.49896240 189.30516052 C 191.54489136 189.73744202 187.39448547 189.72920227 183.57942200 189.22431946 C 180.02233887 188.21630859 176.43681335 187.58271790 173.49732971 186.34913635 C 170.80590820 185.14204407 168.71897888 183.19908142 166.35888672 181.67303467 C 164.07620239 180.08300781 162.15580750 177.97207642 160.03611755 176.05276489 C 158.28399658 174.00163269 157.37689209 171.74485779 155.88711548 169.57997131 C 154.51423645 167.16836548 153.57215881 164.71485901 153.17388916 161.96676636 C 152.12669373 159.49916077 151.40168762 156.84344482 151.56398010 153.63720703 C 151.39559937 150.37145996 151.45338440 146.88581848 151.71903992 143.27464294 C 152.76792908 139.53933716 153.72518921 135.93666077 154.89428711 132.53994751 C 156.52461243 129.67825317 158.26068115 126.97253418 159.70439148 124.14099884 C 161.71934509 121.77282715 163.56233215 119.13272095 165.98429871 117.12503815 C 168.37785339 114.94300079 170.81294250 113.17466736 173.32771301 111.51900482 C 176.12895203 110.53347015 178.64723206 108.88460541 181.33125305 107.71784210 C 184.27201843 106.99368286 186.92599487 106.18578339 189.52743530 106.38510132 C 191.65679932 105.27530670 194.17184448 105.72673035 197.12416077 105.68847656 C 199.82017517 106.40160370 202.12356567 106.42151642 204.16963196 106.51241302 C 206.29570007 107.69898987 208.22705078 108.96083832 210.55635071 110.24433899 C 212.92715454 111.76545715 215.44534302 113.33059692 217.63432312 115.24538422 C 219.50190735 117.52121735 221.16929626 120.07560730 223.01794434 122.50513458 C 224.57289124 125.15363312 225.97911072 127.69491577 227.15518188 130.12194824 C 227.50148010 132.65556335 227.62770081 135.13813782 227.42117310 137.48963928 C 227.12208557 139.96122742 226.85627747 142.58769226 226.73391724 145.22233582 C 226.80622864 147.76365662 227.00668335 150.25996399 227.11366272 152.72570801 C 227.05088806 155.15773010 226.86172485 157.54975891 226.57382202 159.90049744 C 226.15216064 162.19268799 225.41854858 164.34925842 224.31069946 166.40332031 C 222.92272949 168.43467712 221.37902832 170.51678467 219.58235168 172.56970215 C 217.54640198 174.53141785 215.39126587 176.47785950 213.23385620 178.51502991 C 211.06176758 180.68621826 208.79591370 182.83602905 206.48313904 184.89656067 C 204.19070435 187.00621033 202.56652832 189.60478210 205.72697449 184.73858643" stroke-width="2.00000000" fill="rgb(94, 168, 75)" opacity="1.0" stroke="rgb(0, 0, 0)" stroke-opacity="1.0" stroke-linecap="round" stroke-linejoin="round"/>
    <path d="M 294.28320312 146.96955872 C 292.25271606 144.06221008 290.17163086 141.18075562 288.06427002 138.35379028 C 286.01907349 135.48504639 283.95611572 132.62118530 281.80441284 129.87036133 C 279.64739990 127.20419312 277.54620361 124.67813110 275.48794556 122.38689423 C 273.36041260 120.41779327 271.32763672 118.64422607 269.81286621 116.82890320 C 269.47811890 114.22489929 269.44158936 111.02333832 269.41159058 107.42431641 C 269.59939575 103.77428436 270.43115234 100.39414978 271.94122314 97.08789062 C 273.25653076 93.71134186 274.89108276 90.49769592 277.19042969 87.61707306 C 279.38742065 84.64520264 282.24417114 82.18598938 285.10421753 79.78606415 C 288.14624023 77.58721161 291.35382080 75.92590332 294.82684326 74.62167358 C 298.14962769 73.32652283 301.44879150 72.33950043 305.04360962 72.36389923 C 308.86499023 72.37255096 312.74835205 72.41379547 316.40914917 72.56871796 C 320.08782959 74.04080963 323.79534912 75.76618195 327.22140503 78.08499908 C 330.44659424 80.73175049 333.30633545 83.76698303 335.97509766 87.06729126 C 338.17709351 90.65116882 339.99993896 94.27215576 341.18362427 97.94689941 C 341.67395020 101.62980652 341.87557983 105.04209137 341.68771362 108.64745331 C 341.85317993 112.21319580 341.07714844 115.63730621 339.48681641 118.98939514 C 337.52108765 122.08131409 335.88900757 125.28462982 333.34609985 128.12380981 C 330.42089844 130.99188232 327.44583130 133.66023254 324.08920288 135.49421692 C 320.65338135 135.92147827 317.51129150 136.76060486 314.31622314 137.57810974 C 310.88949585 138.33828735 307.34918213 138.96685791 294.28320312 146.96955872" stroke-width="2.00000000" fill="rgb(98, 171, 75)" opacity="1.0" stroke="rgb(0, 0, 0)" stroke-opacity="1.0" stroke-linecap="round" stroke-linejoin="round"/>
    <path d="M 236.31115723 192.65220642 C 234.89279175 192.58180237 233.72401428 192.35316467 232.59687805 193.21136475 C 230.73721313 193.43212891 228.46049500 193.61593628 225.80824280 193.48052979 C 223.33189392 193.44178772 220.78895569 192.90731812 218.17402649 192.33717346 C 215.65374756 191.36763000 213.22822571 190.57176208 211.57153320 188.70016479 C 209.16468811 187.03788757 207.36473083 184.59904480 205.43959045 182.20704651 C 203.71965027 179.82215881 202.73649597 177.11196899 202.37718201 173.98251343 C 201.77822876 171.05435181 201.74513245 168.13014221 201.67025757 164.95091248 C 202.05700684 162.17628479 202.74172974 159.47171021 203.96875000 156.92800903 C 205.20849609 154.53245544 206.76751709 152.10090637 208.48260498 149.83573914 C 210.72979736 147.69624329 213.03337097 145.60803223 215.74409485 143.96643066 C 218.57873535 142.39875793 221.72712708 141.35707092 224.68383789 140.46333313 C 227.81253052 140.85623169 231.01901245 140.82669067 234.07745361 140.72113037 C 237.06907654 141.36883545 239.85231018 142.29754639 242.45112610 143.61682129 C 245.14709473 144.83152771 247.55650330 146.41729736 249.58584595 148.41220093 C 251.54040527 150.64720154 253.01977539 153.22581482 254.09855652 156.03236389 C 254.98284912 158.89674377 256.04196167 161.42477417 256.87411499 163.49461365 C 256.56027222 165.47882080 255.77119446 167.31594849 254.86367798 169.38917542 C 254.57028198 171.87098694 254.28453064 174.57489014 253.63761902 177.03083801 C 252.23376465 178.94348145 250.77246094 180.88764954 249.46653748 182.98219299 C 248.28398132 185.18266296 246.97296143 187.58772278 236.31115723 192.65220642" stroke-width="2.00000000" fill="rgb(101, 173, 79)" opacity="1.0" stroke="rgb(0, 0, 0)" stroke-opacity="1.0" stroke-linecap="round" stroke-linejoin="round"/>
    <path d="M 308.13397217 169.05754089 C 305.65356445 170.62677002 303.16812134 172.02377319 300.50054932 173.44955444 C 297.85739136 174.60986328 295.12338257 175.39866638 292.11416626 175.64070129 C 289.16043091 176.14930725 286.38952637 176.58296204 283.50933838 176.27706909 C 280.72189331 175.46275330 278.04449463 174.72305298 275.08538818 174.50407410 C 272.39437866 173.34245300 269.65512085 171.84877014 266.97732544 170.15476990 C 264.68518066 167.88949585 262.71365356 165.33903503 260.75775146 162.92968750 C 259.70819092 160.03634644 258.65362549 156.97689819 257.36492920 154.11651611 C 256.71966553 151.14939880 256.74230957 147.81890869 257.50933838 144.53770447 C 257.87612915 141.37358093 258.36401367 138.23225403 259.86953735 135.47308350 C 261.39907837 132.46211243 263.05709839 129.57376099 265.45370483 127.28527069 C 268.05007935 124.90380859 270.99975586 122.80258942 273.91693115 120.58245087 C 277.04431152 118.70433044 280.36276245 117.53902435 283.78427124 116.81333160 C 286.98052979 116.57703400 289.96231079 116.46409607 292.82250977 116.66085815 C 295.71142578 117.34193420 298.55636597 117.70030212 301.30151367 118.68587494 C 304.11935425 119.83974457 306.55984497 121.55767059 308.87512207 123.68634796 C 311.22802734 125.69396210 313.18746948 128.02154541 314.82073975 130.49786377 C 316.46618652 132.89218140 317.44589233 135.30914307 317.73266602 138.10205078 C 318.57901001 140.99356079 319.07931519 144.11192322 319.30001831 147.21420288 C 318.86050415 150.30718994 318.31912231 153.37857056 317.41967773 156.44873047 C 316.14797974 159.67454529 314.90225220 162.94813538 308.13397217 169.05754089" stroke-width="2.00000000" fill="rgb(100, 177, 79)" opacity="1.0" stroke="rgb(0, 0, 0)" stroke-opacity="1.0" stroke-linecap="round" stroke-linejoin="round"/>
    <path d="M 237.54325867 216.17999268 C 236.70597839 215.84150696 235.82637024 215.86563110 235.06385803 216.09155273 C 234.57235718 216.57708740 234.03417969 217.27613831 233.71252441 218.02357483 C 232.94155884 218.17070007 231.75152588 217.97286987 230.59405518 217.84442139 C 229.32630920 218.03283691 228.22842407 218.20787048 227.44958496 218.10758972 C 227.02690125 217.60835266 226.63197327 216.82539368 226.02995300 215.96731567 C 225.87205505 214.86164856 225.88166809 213.67710876 226.00848389 212.48818970 C 226.14228821 211.24867249 226.08251953 209.91744995 225.93342590 208.58189392 C 225.99554443 207.31967163 226.07173157 206.15948486 226.05593872 205.15310669 C 226.49070740 204.35534668 227.21466064 203.45274353 228.02783203 202.51779175 C 229.01678467 201.68022156 229.87950134 200.74293518 230.71080017 199.87599182 C 231.71571350 199.47479248 232.65722656 199.25033569 233.13966370 198.33645630 C 233.73966980 197.46290588 234.35211182 196.79487610 235.31578064 196.87629700 C 236.71377563 196.87545776 238.19702148 196.84625244 239.55664062 197.08274841 C 240.45910645 197.79548645 241.22206116 198.61340332 241.94250488 199.39146423 C 242.09834290 200.36740112 242.00631714 201.25067139 242.03186035 202.20765686 C 242.02363586 203.29399109 241.91247559 204.40403748 241.96406555 205.46606445 C 242.08029175 206.47196960 241.99523926 207.41903687 241.91174316 208.25840759 C 242.20964050 209.09300232 242.27494812 209.96649170 242.05027771 210.83575439 C 241.74615479 211.54537964 241.40057373 212.20005798 240.93606567 212.72859192 C 240.26396179 212.96403503 239.73608398 213.44104004 237.54325867 216.17999268" stroke-width="0.74957460" fill="rgb(255, 255, 255)" opacity="1.0" stroke="rgb(255, 255, 255)" stroke-opacity="0.0" stroke-linecap="round" stroke-linejoin="round"/>
    <path d="M 264.70016479 61.94857407 C 264.71963501 61.95760345 264.70431519 61.95018387 264.70318604 61.95430756 C 264.70660400 61.94983673 264.69699097 61.96014404 264.70819092 61.95378113 C 264.68740845 61.94893646 264.69854736 61.95738220 264.69458008 61.95533752 C 264.69009399 61.95036316 264.68402100 61.94991302 264.68817139 61.95995712 C 264.69458008 61.94432449 264.68011475 61.94736099 264.68292236 61.95349884 C 264.68957520 61.94587326 264.68865967 61.94261169 264.67169189 61.94676971 C 264.69274902 61.94150925 264.68060303 61.93654251 264.68627930 61.94742966 C 264.68725586 61.92331314 264.68618774 61.93616867 264.68377686 61.94229507 C 264.69201660 61.91828918 264.68569946 61.92568207 264.69326782 61.93456650 C 264.68984985 61.91585541 264.69180298 61.92668533 264.70016479 61.94857407" stroke-width="2.00000000" fill="rgb(61, 209, 0)" opacity="1.0" stroke="rgb(76, 156, 59)" stroke-opacity="0.9975347" stroke-linecap="round" stroke-linejoin="round"/>
    <path d="M 359.66131592 363.81188965 C 349.66467285 363.51425171 339.58477783 363.34567261 329.34179688 363.46023560 C 319.05364990 363.52133179 308.68426514 363.58972168 298.18066406 363.53201294 C 287.52157593 363.51272583 276.73922729 363.44955444 265.83230591 363.43664551 C 254.91543579 363.47042847 244.04609680 363.54586792 233.26725769 363.53945923 C 222.57588196 363.58358765 211.84010315 363.70379639 201.08204651 363.58367920 C 190.53993225 363.66876221 180.44206238 363.55541992 170.85333252 363.53137207 C 161.97222900 363.51239014 154.24502563 363.57623291 148.38131714 363.10501099 C 145.72206116 364.71719360 144.52084351 364.97778320 143.52774048 363.78277588 C 143.13832092 362.16979980 143.52598572 360.16775513 143.34107971 358.22119141 C 143.31509399 356.30587769 144.27447510 354.17285156 144.59243774 351.96304321 C 146.05746460 351.33602905 148.97082520 351.54528809 153.26980591 351.73666382 C 158.81643677 351.61532593 165.61854553 351.60064697 173.47245789 351.58929443 C 182.29368591 351.55468750 192.07051086 351.53463745 202.64019775 351.62478638 C 213.76690674 351.53628540 225.07112122 351.56564331 236.08801270 351.52304077 C 246.29394531 351.03259277 255.53536987 349.90417480 264.30749512 351.24230957 C 273.33358765 351.64096069 282.56826782 351.62866211 291.88525391 351.58142090 C 301.14773560 351.58532715 310.23757935 351.45489502 318.99578857 351.66030884 C 327.44354248 351.80950928 335.48672485 351.61563110 342.92059326 351.54049683 C 349.45742798 351.72906494 354.66979980 351.52871704 358.13543701 350.96176147 C 359.55126953 349.57821655 359.63949585 347.86709595 359.66131592 363.81188965" stroke-width="2.00000000" fill="rgb(186, 69, 6)" opacity="1.0" stroke="rgb(6, 1, 8)" stroke-opacity="1.0" stroke-linecap="round" stroke-linejoin="round"/>
    <path d="M 353.29071045 366.94750977 C 353.07931519 371.72680664 352.84628296 376.34509277 352.57562256 381.06390381 C 352.29498291 385.86636353 352.12362671 390.49734497 351.70803833 395.04071045 C 351.13803101 399.67837524 350.72512817 404.31417847 350.33029175 408.67941284 C 349.93035889 412.92916870 349.73312378 417.15121460 349.47470093 421.31213379 C 349.10208130 425.18981934 348.90515137 428.80352783 348.84616089 432.10614014 C 348.75866699 435.12622070 348.84835815 437.95343018 348.68493652 440.39392090 C 348.42138672 442.32354736 348.22949219 443.77362061 347.79702759 444.74188232 C 346.76287842 445.02587891 345.34921265 444.92501831 343.73635864 444.72558594 C 341.99722290 444.71838379 340.35009766 444.78170776 339.16281128 444.92297363 C 338.60333252 444.49972534 338.55767822 443.45083618 338.83636475 441.91036987 C 338.80731201 439.86254883 339.02603149 437.34213257 339.55633545 434.42697144 C 339.66149902 431.09219360 339.73690796 427.48858643 340.01232910 423.65948486 C 340.34036255 419.71273804 340.60546875 415.69937134 340.82476807 411.57321167 C 340.97671509 407.51889038 341.21624756 403.56011963 341.47637939 399.73345947 C 341.86538696 396.14059448 341.97167969 392.75061035 341.86923218 389.46289062 C 342.13427734 386.31796265 342.40014648 383.43960571 342.54086304 380.81649780 C 342.62179565 378.37292480 342.68350220 376.13113403 342.79388428 374.13806152 C 342.72717285 372.45159912 342.77264404 371.03234863 342.74932861 369.75027466 C 343.00061035 368.70068359 343.14477539 367.91427612 343.15921021 367.36169434 C 343.01464844 366.91567993 342.79653931 366.66476440 353.29071045 366.94750977" stroke-width="0.52385348" fill="rgb(252, 168, 79)" opacity="1.0" stroke="rgb(235, 159, 105)" stroke-opacity="0.49133417" stroke-linecap="round" stroke-linejoin="round"/>
    <path d="M 235.33952332 138.23316956 C 234.38244629 138.00990295 233.20745850 138.11840820 232.11599731 138.45283508 C 231.48229980 137.88407898 230.74142456 137.55175781 230.03746033 137.40243530 C 229.98187256 136.95144653 230.30975342 136.37117004 230.50906372 135.55490112 C 230.37251282 134.61776733 230.20216370 133.72831726 230.37304688 132.41967773 C 229.91584778 131.07971191 229.49259949 129.50532532 229.10733032 127.76046753 C 228.17109680 125.90057373 227.10050964 124.11413574 226.04399109 122.23729706 C 224.94673157 120.73929596 223.72666931 119.57054138 223.02880859 118.21692657 C 222.60444641 117.05225372 222.33110046 116.32427216 222.61335754 116.01177979 C 223.10893250 115.95884705 223.45393372 116.28272247 223.82356262 117.17675781 C 224.65892029 117.92072296 226.34620667 118.27845764 227.91174316 118.84870911 C 229.57487488 119.72731781 231.38906860 120.44072723 233.04983521 121.28694916 C 234.68281555 121.57038116 236.35134888 122.05894470 238.05543518 122.57002258 C 239.49044800 122.43976593 240.72598267 122.84275818 242.12179565 123.22753906 C 243.03370667 123.66574097 243.73562622 124.33380890 243.77487183 125.45634460 C 244.27803040 126.72653961 244.42964172 128.26205444 244.47912598 129.73794556 C 244.51405334 131.06933594 244.74504089 132.11141968 245.38516235 133.16549683 C 245.29283142 134.90733337 245.31758118 137.02928162 245.56851196 138.68023682 C 245.91485596 140.08352661 245.63291931 141.57910156 245.57026672 142.87478638 C 245.10092163 142.78475952 244.64654541 142.44100952 244.35978699 141.99530029 C 244.41540527 141.25738525 244.44725037 141.07112122 235.33952332 138.23316956" stroke-width="2.00000000" fill="rgb(250, 246, 246)" opacity="1.0" stroke="rgb(4, 3, 7)" stroke-opacity="0.97619426" stroke-linecap="round" stroke-linejoin="round"/>
    <path d="M 251.11517334 122.77244568 C 248.49447632 123.10180664 246.10696411 123.60049438 244.17535400 123.81922913 C 243.25758362 122.58184814 242.95495605 121.33760071 243.42053223 120.59725952 C 244.76463318 120.50783539 246.51046753 120.77875519 248.59826660 120.66575623 C 250.99990845 120.61577606 253.13253784 120.34900665 254.47334290 120.29700470 C 255.16914368 121.31893921 255.04026794 122.72977448 253.95222473 124.37989044 C 254.12571716 126.85717773 254.45205688 129.99098206 254.87474060 133.55941772 C 254.76286316 136.97445679 255.11427307 139.88183594 256.81253052 143.03460693 C 257.09167480 147.36422729 257.35375977 152.44464111 257.77752686 157.92852783 C 257.49279785 163.64260864 257.54107666 169.44201660 256.99230957 175.31388855 C 256.82546997 181.10137939 258.36303711 186.50283813 251.11517334 122.77244568" stroke-width="2.00000000" fill="rgb(21, 15, 10)" opacity="1.0" stroke="rgb(255, 211, 234)" stroke-opacity="0.25072247" stroke-linecap="round" stroke-linejoin="round"/>
    <path d="M 358.30395508 362.33206177 C 358.24838257 362.56997681 358.03347778 362.53826904 357.60647583 362.49487305 C 357.11477661 362.55404663 356.48474121 362.74398804 355.60537720 362.79476929 C 354.79217529 362.47451782 354.12728882 362.58847046 353.36877441 362.92987061 C 352.19900513 363.06289673 350.91528320 363.02316284 349.77523804 362.86608887 C 348.96130371 362.91531372 348.54348755 362.60992432 348.53466797 361.77291870 C 348.79101562 360.68878174 348.59902954 359.18911743 348.61907959 357.21978760 C 348.84048462 355.01028442 348.64172363 353.00262451 348.55795288 351.80310059 C 349.26620483 351.49304199 350.54779053 351.48632812 352.07788086 351.50442505 C 353.74731445 351.67904663 355.48709106 351.69134521 357.03625488 351.46185303 C 358.20141602 350.67645264 359.07672119 349.88388062 358.30395508 362.33206177" stroke-width="1.18077099" fill="rgb(248, 169, 87)" opacity="1.0" stroke="rgb(27, 3, 6)" stroke-opacity="0.77717274" stroke-linecap="round" stroke-linejoin="round"/>
  </g>
</svg>
