<svg xmlns="http://www.w3.org/2000/svg" viewBox="0 0 512 512" height="512.0px" width="512.0px">
<path id="" fill="#D32F2F" fill-opacity="1.0" stroke="#000000" stroke-width="0.0" stroke-opacity="1.0" stroke-linecap="round" stroke-linejoin="round"  filling="0" d="M166.000 350.000 C226.000 350.000 286.000 350.000 346.000 350.000 C348.651 350.000 351.196 351.054 353.071 352.929 C354.946 354.804 356.000 357.349 356.000 360.000 C356.000 386.667 356.000 413.333 356.000 440.000 C356.000 442.651 354.946 445.196 353.071 447.071 C351.196 448.946 348.651 450.000 346.000 450.000 C286.000 450.000 226.000 450.000 166.000 450.000 C163.349 450.000 160.804 448.946 158.929 447.071 C157.054 445.196 156.000 442.651 156.000 440.000 C156.000 413.333 156.000 386.667 156.000 360.000 C156.000 357.349 157.054 354.804 158.929 352.929 C160.804 351.054 163.349 350.000 166.000 350.000"></path>
<path id="" fill="#B71C1C" fill-opacity="1.0" stroke="#000000" stroke-width="0.0" stroke-opacity="1.0" stroke-linecap="round" stroke-linejoin="round"  filling="0" d="M156.000 350.000 C222.667 363.333 289.333 363.333 356.000 350.000 C356.000 383.333 356.000 416.667 356.000 450.000 C289.333 436.667 222.667 436.667 156.000 450.000 C156.000 416.667 156.000 383.333 156.000 350.000"></path>
<path id="" fill="#8B0000" fill-opacity="1.0" stroke="#000000" stroke-width="0.0" stroke-opacity="1.0" stroke-linecap="round" stroke-linejoin="round"  filling="0" d="M161.000 440.000 C224.333 440.000 287.667 440.000 351.000 440.000 C351.000 443.333 351.000 446.667 351.000 450.000 C287.667 450.000 224.333 450.000 161.000 450.000 C161.000 446.667 161.000 443.333 161.000 440.000"></path>
<path id="" fill="#5D4037" fill-opacity="1.0" stroke="#000000" stroke-width="0.0" stroke-opacity="1.0" stroke-linecap="round" stroke-linejoin="round"  filling="0" d="M249.036 352.785 C235.151 318.072 231.687 283.320 238.646 248.529 C245.215 215.681 248.500 182.838 248.500 150.000 C248.500 149.752 248.500 149.505 248.500 149.257 C248.549 149.014 248.597 148.772 248.646 148.529 C255.116 116.176 255.116 83.824 248.646 51.471 C253.549 50.490 258.451 49.510 263.354 48.529 C270.169 82.600 270.217 116.670 263.499 150.740 C263.450 184.322 260.069 217.899 253.354 251.471 C246.979 283.347 250.183 315.262 262.964 347.215 C258.321 349.072 253.679 350.928 249.036 352.785"></path>
<path id="" fill="#5D4037" fill-opacity="1.0" stroke="#000000" stroke-width="0.0" stroke-opacity="1.0" stroke-linecap="round" stroke-linejoin="round"  filling="0" d="M243.172 252.828 C230.906 240.563 212.172 237.580 186.970 243.881 C186.323 241.294 185.677 238.706 185.030 236.119 C213.161 229.086 234.427 232.771 248.828 247.172 C246.943 249.057 245.057 250.943 243.172 252.828"></path>
<path id="" fill="#5D4037" fill-opacity="1.0" stroke="#000000" stroke-width="0.0" stroke-opacity="1.0" stroke-linecap="round" stroke-linejoin="round"  filling="0" d="M253.781 196.672 C274.762 182.684 299.159 179.166 326.970 186.119 C326.323 188.706 325.677 191.294 325.030 193.881 C299.507 187.500 277.237 190.649 258.219 203.328 C256.740 201.109 255.260 198.891 253.781 196.672"></path>
<path id="" fill="#5D4037" fill-opacity="1.0" stroke="#000000" stroke-width="0.0" stroke-opacity="1.0" stroke-linecap="round" stroke-linejoin="round"  filling="0" d="M254.336 152.496 C235.445 139.903 216.555 139.903 197.664 152.496 C196.555 150.832 195.445 149.168 194.336 147.504 C215.445 133.431 236.555 133.431 257.664 147.504 C256.555 149.168 255.445 150.832 254.336 152.496"></path>
<path id="" fill="#1B5E20" fill-opacity="1.0" stroke="#000000" stroke-width="0.0" stroke-opacity="1.0" stroke-linecap="round" stroke-linejoin="round"  filling="0" d="M226.000 240.000 C226.000 250.605 221.783 260.786 214.284 268.284 C206.786 275.783 196.605 280.000 186.000 280.000 C175.395 280.000 165.214 275.783 157.716 268.284 C150.217 260.786 146.000 250.605 146.000 240.000 C146.000 229.395 150.217 219.214 157.716 211.716 C165.214 204.217 175.395 200.000 186.000 200.000 C196.605 200.000 206.786 204.217 214.284 211.716 C221.783 219.214 226.000 229.395 226.000 240.000"></path>
<path id="" fill="#2E7D32" fill-opacity="1.0" stroke="#000000" stroke-width="0.0" stroke-opacity="1.0" stroke-linecap="round" stroke-linejoin="round"  filling="0" d="M316.000 80.000 C316.000 95.907 309.674 111.179 298.426 122.426 C287.179 133.674 271.907 140.000 256.000 140.000 C240.093 140.000 224.821 133.674 213.574 122.426 C202.326 111.179 196.000 95.907 196.000 80.000 C196.000 64.093 202.326 48.821 213.574 37.574 C224.821 26.326 240.093 20.000 256.000 20.000 C271.907 20.000 287.179 26.326 298.426 37.574 C309.674 48.821 316.000 64.093 316.000 80.000"></path>
<path id="" fill="#388E3C" fill-opacity="1.0" stroke="#000000" stroke-width="0.0" stroke-opacity="1.0" stroke-linecap="round" stroke-linejoin="round"  filling="0" d="M376.000 190.000 C376.000 203.256 370.729 215.982 361.355 225.355 C351.982 234.729 339.256 240.000 326.000 240.000 C312.744 240.000 300.018 234.729 290.645 225.355 C281.271 215.982 276.000 203.256 276.000 190.000 C276.000 176.744 281.271 164.018 290.645 154.645 C300.018 145.271 312.744 140.000 326.000 140.000 C339.256 140.000 351.982 145.271 361.355 154.645 C370.729 164.018 376.000 176.744 376.000 190.000"></path>
<path id="" fill="#43A047" fill-opacity="1.0" stroke="#000000" stroke-width="0.0" stroke-opacity="1.0" stroke-linecap="round" stroke-linejoin="round"  filling="0" d="M241.000 150.000 C241.000 161.930 236.256 173.384 227.820 181.820 C219.384 190.256 207.930 195.000 196.000 195.000 C184.070 195.000 172.616 190.256 164.180 181.820 C155.744 173.384 151.000 161.930 151.000 150.000 C151.000 138.070 155.744 126.616 164.180 118.180 C172.616 109.744 184.070 105.000 196.000 105.000 C207.930 105.000 219.384 109.744 227.820 118.180 C236.256 126.616 241.000 138.070 241.000 150.000"></path>
<path id="" fill="#4CAF50" fill-opacity="1.0" stroke="#000000" stroke-width="0.0" stroke-opacity="1.0" stroke-linecap="round" stroke-linejoin="round"  filling="0" d="M346.000 110.000 C346.000 120.605 341.783 130.786 334.284 138.284 C326.786 145.783 316.605 150.000 306.000 150.000 C295.395 150.000 285.214 145.783 277.716 138.284 C270.217 130.786 266.000 120.605 266.000 110.000 C266.000 99.395 270.217 89.214 277.716 81.716 C285.214 74.217 295.395 70.000 306.000 70.000 C316.605 70.000 326.786 74.217 334.284 81.716 C341.783 89.214 346.000 99.395 346.000 110.000"></path>
<path id="" fill="#66BB6A" fill-opacity="1.0" stroke="#000000" stroke-width="0.0" stroke-opacity="1.0" stroke-linecap="round" stroke-linejoin="round"  filling="0" d="M251.000 170.000 C251.000 176.628 248.364 182.991 243.678 187.678 C238.991 192.364 232.628 195.000 226.000 195.000 C219.372 195.000 213.009 192.364 208.322 187.678 C203.636 182.991 201.000 176.628 201.000 170.000 C201.000 163.372 203.636 157.009 208.322 152.322 C213.009 147.636 219.372 145.000 226.000 145.000 C232.628 145.000 238.991 147.636 243.678 152.322 C248.364 157.009 251.000 163.372 251.000 170.000"></path>
<path id="" fill="#81C784" fill-opacity="1.0" stroke="#000000" stroke-width="0.0" stroke-opacity="1.0" stroke-linecap="round" stroke-linejoin="round"  filling="0" d="M316.000 150.000 C316.000 157.953 312.837 165.589 307.213 171.213 C301.589 176.837 293.953 180.000 286.000 180.000 C278.047 180.000 270.411 176.837 264.787 171.213 C259.163 165.589 256.000 157.953 256.000 150.000 C256.000 142.047 259.163 134.411 264.787 128.787 C270.411 123.163 278.047 120.000 286.000 120.000 C293.953 120.000 301.589 123.163 307.213 128.787 C312.837 134.411 316.000 142.047 316.000 150.000"></path>
<path id="" fill="#A5D6A7" fill-opacity="1.0" stroke="#000000" stroke-width="0.0" stroke-opacity="1.0" stroke-linecap="round" stroke-linejoin="round"  filling="0" d="M266.000 210.000 C266.000 215.302 263.891 220.393 260.142 224.142 C256.393 227.891 251.302 230.000 246.000 230.000 C240.698 230.000 235.607 227.891 231.858 224.142 C228.109 220.393 226.000 215.302 226.000 210.000 C226.000 204.698 228.109 199.607 231.858 195.858 C235.607 192.109 240.698 190.000 246.000 190.000 C251.302 190.000 256.393 192.109 260.142 195.858 C263.891 199.607 266.000 204.698 266.000 210.000"></path>
<path id="" fill="#C8E6C9" fill-opacity="1.0" stroke="#000000" stroke-width="0.0" stroke-opacity="1.0" stroke-linecap="round" stroke-linejoin="round"  filling="0" d="M291.000 70.000 C291.000 73.977 289.419 77.795 286.607 80.607 C283.795 83.419 279.977 85.000 276.000 85.000 C272.023 85.000 268.205 83.419 265.393 80.607 C262.581 77.795 261.000 73.977 261.000 70.000 C261.000 66.023 262.581 62.205 265.393 59.393 C268.205 56.581 272.023 55.000 276.000 55.000 C279.977 55.000 283.795 56.581 286.607 59.393 C289.419 62.205 291.000 66.023 291.000 70.000"></path>
<path id="" fill="#bf4401" fill-opacity="1.0" stroke="#000000" stroke-width="0.0" stroke-opacity="1.0" stroke-linecap="round" stroke-linejoin="round"  filling="0" d="M141.500 362.000 C141.500 358.000 141.500 354.000 141.500 350.000 C142.000 349.500 142.500 349.000 143.000 348.500 C215.167 348.667 287.333 348.833 359.500 349.000 C359.500 353.667 359.500 358.333 359.500 363.000 C359.000 363.500 358.500 364.000 358.000 364.500 C288.667 364.500 219.333 364.500 150.000 364.500 C148.333 364.833 146.667 365.167 145.000 365.500 C143.833 364.333 142.667 363.167 141.500 362.000"></path>
<path id="" fill="#fea64a" fill-opacity="1.0" stroke="#000000" stroke-width="0.0" stroke-opacity="1.0" stroke-linecap="round" stroke-linejoin="round"  filling="0" d="M340.000 445.500 C339.167 445.000 338.333 444.500 337.500 444.000 C337.500 441.333 337.500 438.667 337.500 436.000 C337.833 435.667 338.167 435.333 338.500 435.000 C338.500 430.000 338.500 425.000 338.500 420.000 C338.833 419.667 339.167 419.333 339.500 419.000 C339.500 413.667 339.500 408.333 339.500 403.000 C339.833 402.667 340.167 402.333 340.500 402.000 C340.500 396.000 340.500 390.000 340.500 384.000 C340.833 383.667 341.167 383.333 341.500 383.000 C341.500 377.667 341.500 372.333 341.500 367.000 C341.667 366.833 341.833 366.667 342.000 366.500 C345.667 366.500 349.333 366.500 353.000 366.500 C353.167 366.667 353.333 366.833 353.500 367.000 C353.500 370.000 353.500 373.000 353.500 376.000 C353.167 376.333 352.833 376.667 352.500 377.000 C352.500 382.667 352.500 388.333 352.500 394.000 C352.167 394.333 351.833 394.667 351.500 395.000 C351.500 399.000 351.500 403.000 351.500 407.000 C351.167 407.333 350.833 407.667 350.500 408.000 C350.500 413.000 350.500 418.000 350.500 423.000 C350.167 423.333 349.833 423.667 349.500 424.000 C349.500 429.333 349.500 434.667 349.500 440.000 C349.167 440.333 348.833 440.667 348.500 441.000 C348.500 442.000 348.500 443.000 348.500 444.000 C348.333 444.167 348.167 444.333 348.000 444.500 C347.667 444.500 347.333 444.500 347.000 444.500 C346.667 444.833 346.333 445.167 346.000 445.500 C345.333 445.500 344.667 445.500 344.000 445.500 C343.667 445.167 343.333 444.833 343.000 444.500 C342.667 444.833 342.333 445.167 342.000 445.500 C341.333 445.500 340.667 445.500 340.000 445.500"></path>
<path id="" fill="#fcfdfc" fill-opacity="1.0" stroke="#000000" stroke-width="0.0" stroke-opacity="1.0" stroke-linecap="round" stroke-linejoin="round"  filling="0" d="M244.000 141.500 C243.667 141.167 243.333 140.833 243.000 140.500 C242.667 140.500 242.333 140.500 242.000 140.500 C241.667 140.167 241.333 139.833 241.000 139.500 C240.667 139.500 240.333 139.500 240.000 139.500 C239.667 139.167 239.333 138.833 239.000 138.500 C237.667 138.500 236.333 138.500 235.000 138.500 C234.667 138.167 234.333 137.833 234.000 137.500 C233.000 137.500 232.000 137.500 231.000 137.500 C230.500 137.000 230.000 136.500 229.500 136.000 C229.500 134.667 229.500 133.333 229.500 132.000 C229.167 131.667 228.833 131.333 228.500 131.000 C228.500 129.667 228.500 128.333 228.500 127.000 C228.167 126.667 227.833 126.333 227.500 126.000 C227.500 125.667 227.500 125.333 227.500 125.000 C227.167 124.667 226.833 124.333 226.500 124.000 C226.500 123.667 226.500 123.333 226.500 123.000 C225.833 122.333 225.167 121.667 224.500 121.000 C224.500 120.333 224.500 119.667 224.500 119.000 C224.667 118.833 224.833 118.667 225.000 118.500 C226.000 118.500 227.000 118.500 228.000 118.500 C228.333 118.833 228.667 119.167 229.000 119.500 C229.667 119.500 230.333 119.500 231.000 119.500 C231.333 119.833 231.667 120.167 232.000 120.500 C233.000 120.500 234.000 120.500 235.000 120.500 C235.333 120.833 235.667 121.167 236.000 121.500 C237.000 121.500 238.000 121.500 239.000 121.500 C239.333 121.833 239.667 122.167 240.000 122.500 C240.667 122.500 241.333 122.500 242.000 122.500 C242.500 123.000 243.000 123.500 243.500 124.000 C243.500 125.667 243.500 127.333 243.500 129.000 C243.833 129.333 244.167 129.667 244.500 130.000 C244.500 132.333 244.500 134.667 244.500 137.000 C244.833 137.333 245.167 137.667 245.500 138.000 C245.500 138.667 245.500 139.333 245.500 140.000 C245.000 140.500 244.500 141.000 244.000 141.500"></path>
<path id="" fill="#dec27c" fill-opacity="1.0" stroke="#000000" stroke-width="0.0" stroke-opacity="1.0" stroke-linecap="round" stroke-linejoin="round"  filling="0" d="M253.000 149.500 C251.167 147.667 249.333 145.833 247.500 144.000 C247.500 143.667 247.500 143.333 247.500 143.000 C247.167 142.667 246.833 142.333 246.500 142.000 C246.500 141.667 246.500 141.333 246.500 141.000 C246.167 140.667 245.833 140.333 245.500 140.000 C245.500 138.000 245.500 136.000 245.500 134.000 C245.167 133.667 244.833 133.333 244.500 133.000 C244.500 131.333 244.500 129.667 244.500 128.000 C244.167 127.667 243.833 127.333 243.500 127.000 C243.500 126.000 243.500 125.000 243.500 124.000 C244.000 123.500 244.500 123.000 245.000 122.500 C247.333 122.500 249.667 122.500 252.000 122.500 C252.500 123.000 253.000 123.500 253.500 124.000 C253.500 126.667 253.500 129.333 253.500 132.000 C253.833 132.333 254.167 132.667 254.500 133.000 C254.500 138.000 254.500 143.000 254.500 148.000 C254.000 148.500 253.500 149.000 253.000 149.500"></path>
<path id="" fill="#fcaa4e" fill-opacity="1.0" stroke="#000000" stroke-width="0.0" stroke-opacity="1.0" stroke-linecap="round" stroke-linejoin="round"  filling="0" d="M357.000 362.500 C354.333 362.500 351.667 362.500 349.000 362.500 C348.500 362.000 348.000 361.500 347.500 361.000 C347.500 360.333 347.500 359.667 347.500 359.000 C347.833 358.667 348.167 358.333 348.500 358.000 C348.500 355.667 348.500 353.333 348.500 351.000 C348.667 350.833 348.833 350.667 349.000 350.500 C351.667 350.500 354.333 350.500 357.000 350.500 C357.500 351.000 358.000 351.500 358.500 352.000 C358.500 355.000 358.500 358.000 358.500 361.000 C358.000 361.500 357.500 362.000 357.000 362.500"></path>
</svg>