<svg xmlns="http://www.w3.org/2000/svg" viewBox="0 0 512 512" height="512.0px" width="512.0px">
<path id="" fill="#f4f4f4" fill-opacity="1.0" stroke="#000000" stroke-width="0.0" stroke-opacity="1.0" stroke-linecap="round" stroke-linejoin="round"  filling="0" d="M0 0 C171 0 341 0 512 0 C512 171 512 341 512 512 C341 512 171 512 0 512 C0 341 0 171 0 0"></path>
<path id="" fill="#333333" fill-opacity="1.0" stroke="#000000" stroke-width="0.0" stroke-opacity="1.0" stroke-linecap="round" stroke-linejoin="round"  filling="0" d="M152 189 C221 189 291 189 360 189 C367 189 374 192 379 197 C384 202 387 209 387 216 C387 253 387 291 387 328 C387 335 384 342 379 347 C374 352 367 355 360 355 C291 355 221 355 152 355 C145 355 138 352 133 347 C128 342 125 335 125 328 C125 291 125 253 125 216 C125 209 128 202 133 197 C138 192 145 189 152 189"></path>
<path id="" fill="#333333" fill-opacity="1.0" stroke="#000000" stroke-width="0.0" stroke-opacity="1.0" stroke-linecap="round" stroke-linejoin="round"  filling="0" d="M152 195 C146 195 141 197 137 201 C133 205 131 210 131 216 C131 253 131 291 131 328 C131 334 133 339 137 343 C141 347 146 349 152 349 C221 349 291 349 360 349 C366 349 371 347 375 343 C379 339 381 334 381 328 C381 291 381 253 381 216 C381 210 379 205 375 201 C371 197 366 195 360 195 C291 195 221 195 152 195"></path>
<path id="" fill="#8b5a2b" fill-opacity="1.0" stroke="#000000" stroke-width="0.0" stroke-opacity="1.0" stroke-linecap="round" stroke-linejoin="round"  filling="0" d="M156 208 C223 208 289 208 356 208 C359 208 362 209 364 212 C367 214 368 217 368 220 C368 225 368 231 368 236 C368 239 367 242 364 244 C362 247 359 248 356 248 C289 248 223 248 156 248 C153 248 150 247 148 244 C145 242 144 239 144 236 C144 231 144 225 144 220 C144 217 145 214 148 212 C150 209 153 208 156 208"></path>
<path id="" fill="#333333" fill-opacity="1.0" stroke="#000000" stroke-width="0.0" stroke-opacity="1.0" stroke-linecap="round" stroke-linejoin="round"  filling="0" d="M384 213 C395 213 403 219 409 232 C414 243 417 256 417 272 C417 288 414 301 409 312 C403 325 395 331 384 331 C379 331 374 330 371 327 C368 325 366 322 366 318 C366 314 368 311 371 309 C374 306 379 305 384 305 C386 305 388 302 390 296 C392 289 393 281 393 272 C393 263 392 255 390 248 C388 242 386 239 384 239 C379 239 374 238 371 235 C368 233 366 230 366 226 C366 222 368 219 371 217 C374 214 379 213 384 213"></path>
<path id="" fill="#333333" fill-opacity="1.0" stroke="#000000" stroke-width="0.0" stroke-opacity="1.0" stroke-linecap="round" stroke-linejoin="round"  filling="0" d="M384 219 C376 219 372 221 372 226 C372 231 376 233 384 233 C389 233 393 237 396 246 C398 253 399 262 399 272 C399 282 398 291 396 298 C393 307 389 311 384 311 C376 311 372 313 372 318 C372 323 376 325 384 325 C392 325 399 320 404 309 C409 299 411 287 411 272 C411 257 409 245 404 235 C399 224 392 219 384 219"></path>
<path id="" fill="#333333" fill-opacity="1.0" stroke="#000000" stroke-width="0.0" stroke-opacity="1.0" stroke-linecap="round" stroke-linejoin="round"  filling="0" d="M190 170 C186 164 184 158 185 151 C185 147 186 142 189 135 C192 128 193 124 194 120 C194 115 193 110 190 106 C188 104 189 103 190 102 C191 101 192 101 193 101 C193 101 194 102 194 102 C198 108 200 114 199 121 C199 125 198 130 195 137 C192 144 191 148 190 152 C190 157 191 162 194 166 C196 168 195 169 194 170 C192 172 191 171 190 170"></path>
<path id="" fill="#333333" fill-opacity="1.0" stroke="#000000" stroke-width="0.0" stroke-opacity="1.0" stroke-linecap="round" stroke-linejoin="round"  filling="0" d="M253 169 C250 163 248 156 249 149 C249 144 250 139 253 131 C256 124 257 119 258 115 C258 109 257 103 253 97 C253 97 253 96 253 95 C253 94 254 94 255 93 C256 92 258 93 259 95 C262 101 264 108 263 115 C263 120 262 125 259 133 C256 140 255 145 254 149 C254 155 255 161 259 167 C260 168 259 170 257 171 C257 171 256 171 255 171 C254 171 254 170 253 169"></path>
<path id="" fill="#333333" fill-opacity="1.0" stroke="#000000" stroke-width="0.0" stroke-opacity="1.0" stroke-linecap="round" stroke-linejoin="round"  filling="0" d="M318 170 C314 164 312 158 313 151 C313 147 314 142 317 135 C320 128 321 124 322 120 C322 115 321 110 318 106 C316 104 317 103 318 102 C319 101 320 101 321 101 C321 101 322 102 322 102 C326 108 328 114 327 121 C327 125 326 130 323 137 C320 144 319 148 318 152 C318 157 319 162 322 166 C324 168 323 169 322 170 C320 172 319 171 318 170"></path>
<path id="" fill="#333333" fill-opacity="1.0" stroke="#000000" stroke-width="0.0" stroke-opacity="1.0" stroke-linecap="round" stroke-linejoin="round"  filling="0" d="M112 357 C208 357 304 357 400 357 C402 357 403 358 403 360 C403 362 402 363 400 363 C304 363 208 363 112 363 C110 363 109 362 109 360 C109 358 110 357 112 357"></path>
</svg>