<?xml version="1.0" ?>
<svg xmlns="http://www.w3.org/2000/svg" version="1.1" width="256" height="256" viewBox="0 0 256 256">
  <defs/>
  <g>
    <path d="M 198.38876343 206.09214783 C 186.34973145 210.81422424 180.41551208 210.19042969 157.12927246 213.08802795 C 143.68713379 214.28280640 141.56800842 216.26698303 116.18099213 216.51528931 C 101.40122223 215.53759766 91.57755280 213.72198486 75.36802673 212.06475830 C 57.58782196 206.34632874 49.19033813 202.59349060 30.77684021 197.77928162 C 23.25423431 189.32273865 37.32833862 181.95910645 50.16482544 175.57241821 C 72.38729095 170.90353394 70.10985565 172.46687317 88.19783020 170.68559265 C 111.05160522 171.01155090 123.02760315 170.06475830 129.42712402 169.61766052 C 149.69543457 170.73249817 154.70260620 171.54461670 172.24490356 173.88369751 C 187.87127686 177.16064453 195.41125488 175.44683838 211.53102112 184.04986572 C 222.31283569 193.89727783 216.53382874 199.30718994 198.38876343 206.09214783" stroke-width="1.26731396" fill="rgb(18, 12, 13)" opacity="1.0" stroke="rgb(0, 41, 75)" stroke-opacity="0.558585" stroke-linecap="round" stroke-linejoin="round"/>
    <path d="M 205.68218994 201.20863342 C 189.12504578 205.24525452 187.87780762 204.99867249 167.39250183 208.45376587 C 155.26043701 209.35635376 150.93585205 206.93507385 133.93615723 207.83042908 C 114.47820282 209.45790100 102.39959717 210.85974121 88.09799194 207.57817078 C 76.32608032 207.69738770 59.54544067 204.86009216 43.54849243 199.64389038 C 26.49325562 189.85025024 40.09033203 183.97045898 60.73162842 180.42114258 C 77.74349213 175.95307922 81.79226685 171.20588684 91.96422577 176.07180786 C 104.74111938 187.98878479 106.37325287 201.90306091 117.98432922 201.57743835 C 132.80557251 203.17990112 142.69122314 199.39593506 157.45129395 196.33297729 C 175.09590149 192.58305359 178.67974854 183.98007202 186.54602051 180.10650635 C 207.16304016 182.25022888 215.23681641 186.48512268 205.68218994 201.20863342" stroke-width="1.15244496" fill="rgb(205, 149, 57)" opacity="1.0" stroke="rgb(189, 160, 99)" stroke-opacity="0.5472454" stroke-linecap="round" stroke-linejoin="round"/>
    <path d="M 221.67657471 142.08782959 C 219.76556396 151.45945740 220.20974731 155.08549500 208.62487793 162.55834961 C 201.62182617 166.31364441 193.08325195 172.07902527 183.82771301 169.30792236 C 176.96264648 167.07296753 177.89251709 171.39122009 170.79158020 175.80256653 C 161.02424622 177.35899353 154.33734131 172.08628845 162.30923462 166.82313538 C 171.48582458 162.62304688 176.79272461 157.67437744 183.00404358 152.50209045 C 187.89085388 141.97937012 192.21810913 138.86405945 185.06149292 143.86541748 C 175.25030518 145.09133911 171.15254211 137.94557190 175.74237061 124.81424713 C 179.30633545 114.07301331 181.66120911 107.97061157 192.09391785 104.79071045 C 200.72158813 103.38110352 207.54005432 105.67250061 215.32817078 113.65949249 C 220.63566589 120.97766113 221.91586304 134.43516541 221.67657471 142.08782959" stroke-width="1.02259338" fill="rgb(40, 122, 54)" opacity="1.0" stroke="rgb(38, 0, 0)" stroke-opacity="0.3353214" stroke-linecap="round" stroke-linejoin="round"/>
    <path d="M 171.39733887 169.88659668 C 171.50204468 172.04142761 158.36091614 187.46797180 149.38476562 190.09959412 C 133.08956909 195.29800415 125.52155304 194.75779724 114.43408966 194.54522705 C 97.40605164 193.43678284 93.63227081 196.83927917 81.75786591 193.21450806 C 78.79930115 184.21015930 80.23022461 171.69229126 72.97385406 157.84327698 C 61.45305252 143.46726990 61.61450195 141.51150513 76.66409302 136.64785767 C 92.33255005 125.96341705 89.48497009 128.97221375 96.42716980 116.70520020 C 103.11328888 106.28132629 118.67893219 107.65558624 129.32232666 107.19589233 C 145.27455139 107.80380249 154.39717102 107.93629456 163.35453796 108.40019226 C 175.83737183 109.78363037 184.85067749 115.26309967 181.95266724 130.92028809 C 179.82745361 147.18925476 178.98089600 148.22489929 171.39733887 169.88659668" stroke-width="2.00000000" fill="rgb(240, 100, 39)" opacity="1.0" stroke="rgb(58, 0, 0)" stroke-opacity="0.74011755" stroke-linecap="round" stroke-linejoin="round"/>
    <path d="M 173.20581055 128.72367859 C 164.93785095 136.16017151 161.43948364 135.87579346 151.53244019 146.05921936 C 141.12048340 155.39292908 138.03649902 167.21282959 131.41967773 151.45042419 C 126.22261047 142.56861877 116.03387451 135.31089783 106.69477844 129.59848022 C 95.37402344 122.23583984 92.91845703 120.50196075 78.34326172 112.82044983 C 69.73718262 104.73559570 76.05580139 102.02400970 79.12406158 91.04414368 C 88.46656799 82.95276642 93.46395874 81.18182373 101.51840210 84.25150299 C 113.54364777 84.75312042 120.07723236 87.43345642 126.99706268 82.85761261 C 134.86407471 81.49175262 144.19746399 82.19956970 156.53318787 83.97171021 C 166.06025696 86.35209656 175.47743225 89.74215698 180.73495483 99.63694000 C 187.13240051 113.19354248 181.93795776 120.30602264 173.20581055 128.72367859" stroke-width="0.69508189" fill="rgb(251, 122, 46)" opacity="1.0" stroke="rgb(234, 83, 32)" stroke-opacity="0.36661556" stroke-linecap="round" stroke-linejoin="round"/>
    <path d="M 182.04512024 116.88645172 C 181.66722107 99.98821259 183.61817932 102.95136261 164.68249512 110.62716675 C 149.56999207 114.49912262 138.27322388 115.95601654 125.72966766 116.25846100 C 108.38397980 117.57083893 100.66721344 112.67148590 90.41336060 122.61854553 C 90.58595276 134.87103271 99.91459656 159.02244568 83.34394836 145.58462524 C 77.76549530 133.84884644 73.94958496 115.93820953 76.76869965 108.06443787 C 82.29328918 88.06744385 91.57977295 91.80978394 98.03538513 91.78673553 C 104.71536255 89.07600403 122.11595917 91.70497894 134.97152710 91.24089813 C 152.89875793 84.94751740 153.84864807 83.69673920 156.35406494 79.43212891 C 169.70458984 85.95462036 180.42720032 84.83888245 185.89237976 97.46958923 C 189.28788757 112.45916748 187.11407471 128.81202698 182.04512024 116.88645172" stroke-width="0.99237865" fill="rgb(68, 15, 7)" opacity="1.0" stroke="rgb(49, 0, 3)" stroke-opacity="0.4554985" stroke-linecap="round" stroke-linejoin="round"/>
    <path d="M 97.73645782 171.83857727 C 99.18717194 174.78379822 104.81414032 185.55654907 104.83988953 190.43598938 C 96.04002380 191.56834412 91.82467651 187.28660583 84.80625153 183.63655090 C 79.89735413 180.03247070 74.07505035 176.42718506 67.44858551 170.43489075 C 59.51057053 160.29219055 65.47687531 158.09103394 73.06329346 152.71127319 C 75.26855469 144.37733459 72.01825714 133.42196655 71.43434906 128.57064819 C 70.17920685 115.11141968 68.95003510 118.34889221 68.77230072 108.61792755 C 71.52412415 107.66474915 83.73645782 117.69001770 87.86265564 111.49018097 C 94.44026184 110.25306702 85.53594971 121.22774506 86.17521667 129.83135986 C 86.52848053 139.25828552 85.95075989 145.31455994 88.77228546 153.45520020 C 90.71350861 162.40832520 91.98603821 159.93652344 97.73645782 171.83857727" stroke-width="1.05659449" fill="rgb(254, 252, 249)" opacity="1.0" stroke="rgb(254, 255, 214)" stroke-opacity="0.41382858" stroke-linecap="round" stroke-linejoin="round"/>
    <path d="M 108.57258606 47.67604065 C 107.23526764 52.48237228 105.93782806 57.02272797 107.61074829 62.32086945 C 108.94081879 68.53726196 108.96248627 73.41284180 105.88644409 77.85652161 C 102.37768555 75.65861511 100.99169922 70.18244171 99.13755035 64.36859894 C 97.05493164 59.30545425 97.33757019 54.33745575 97.49226379 48.26448822 C 98.88143921 42.14772797 100.28540802 37.39589310 102.76985931 33.14339447 C 107.08379364 24.64558029 107.12035370 25.96956635 108.95442200 21.00045395 C 108.89897919 15.59203339 110.37188721 9.52819824 114.95596313 7.68212509 C 117.66003418 8.81729126 119.13066101 12.89155388 121.16502380 17.35131454 C 122.28038788 22.86946869 119.00750732 27.17850494 116.57841492 32.87262344 C 113.84348297 37.92451477 110.17559052 42.61994934 108.57258606 47.67604065" stroke-width="2.00000000" fill="rgb(247, 251, 250)" opacity="1.0" stroke="rgb(209, 250, 229)" stroke-opacity="0.25863287" stroke-linecap="round" stroke-linejoin="round"/>
    <path d="M 129.62516785 36.57321167 C 130.73646545 26.79488182 132.61924744 23.16823959 131.56053162 16.15872955 C 124.99001312 9.27728271 121.26168060 4.38193512 124.31567383 3.33472443 C 122.51303101 4.52091599 123.23612213 9.93627167 130.20173645 12.96397400 C 133.30599976 20.16225052 131.07896423 26.67407799 129.63140869 36.11634445 C 126.84080505 47.20047760 124.89961243 50.98977280 121.28334045 59.80982971 C 121.79384613 72.35001373 117.54190063 73.87052917 132.41172791 73.29064941 C 149.19384766 75.74950409 150.60263062 82.73931885 138.05126953 79.83882141 C 126.97467804 76.48562622 127.71401978 77.51281738 118.82148743 81.78696442 C 108.80792236 80.79870605 113.91171265 76.17564392 119.22013092 65.46554565 C 122.49501038 56.45575714 127.35272980 46.56077576 129.62516785 36.57321167" stroke-width="0.00000000" fill="rgb(116, 73, 98)" opacity="1.0" stroke="rgb(255, 255, 255)" stroke-opacity="0.0" stroke-linecap="round" stroke-linejoin="round"/>
    <path d="M 147.95742798 47.70126343 C 149.67520142 43.78996277 151.06248474 38.56519318 153.28184509 32.13202667 C 153.70243835 25.64714050 149.30781555 20.47173691 149.56944275 19.74309921 C 150.88447571 22.78282166 152.57142639 24.92917061 153.50726318 30.59467888 C 152.00549316 37.04173660 149.92832947 40.65913773 148.40661621 47.74045944 C 144.02416992 52.73889542 144.83457947 57.81439590 142.19479370 64.05313110 C 142.26043701 73.86151123 140.22479248 74.04563904 145.19676208 76.29487610 C 154.63667297 74.72084045 160.74224854 74.78413391 155.86360168 80.26403046 C 153.02020264 86.38288879 149.37156677 89.09826660 144.97415161 83.77676392 C 140.77523804 76.15957642 141.73924255 73.53968811 141.99530029 66.46038818 C 142.87030029 59.36322021 145.01548767 56.18980789 147.95742798 47.70126343" stroke-width="0.00000000" fill="rgb(23, 12, 50)" opacity="1.0" stroke="rgb(255, 255, 255)" stroke-opacity="0.0" stroke-linecap="round" stroke-linejoin="round"/>
    <path d="M 64.76599884 135.54556274 C 65.25242615 136.54046631 65.46446228 139.43695068 65.60575867 144.50875854 C 65.68750000 147.30557251 65.77663422 151.50503540 60.38029480 151.35098267 C 57.55269623 151.42942810 53.91907883 151.72790527 49.69896317 151.38650513 C 46.88480759 151.31883240 43.54286957 151.32377625 39.28419113 151.25634766 C 36.36647797 150.89723206 31.09373856 150.10722351 29.06129074 148.72273254 C 26.75764656 145.33442688 27.59705544 143.78933716 28.38667679 140.59361267 C 29.31662560 136.51429749 32.23133850 135.01028442 35.31806946 134.51806641 C 41.28559875 134.35673523 40.52375031 133.96264648 46.45017242 134.45423889 C 49.90760803 134.93389893 51.44075012 134.67077637 55.66021729 132.25250244 C 59.67426300 130.69831848 63.69014740 130.53179932 64.76599884 135.54556274" stroke-width="2.00000000" fill="rgb(222, 240, 246)" opacity="1.0" stroke="rgb(0, 71, 147)" stroke-opacity="0.49546856" stroke-linecap="round" stroke-linejoin="round"/>
    <path d="M 241.60630798 176.90853882 C 240.85069275 179.64672852 241.85556030 184.40367126 241.41485596 192.22949219 C 241.52949524 197.17718506 241.39169312 201.74407959 240.42475891 208.27403259 C 239.65872192 214.15145874 240.36820984 219.63520813 240.03366089 224.91989136 C 239.30851746 231.63259888 234.31889343 232.84237671 229.46488953 228.62220764 C 226.25595093 221.33717346 227.89750671 216.94110107 227.59362793 212.08683777 C 226.82119751 204.30541992 228.70616150 201.38183594 223.64036560 199.38629150 C 216.57072449 199.94126892 215.78634644 197.98583984 216.85464478 191.60983276 C 217.79183960 186.99342346 218.98240662 183.74116516 222.55729675 176.95606995 C 224.68038940 172.83538818 229.37626648 167.94966125 234.48091125 165.33560181 C 241.10168457 162.28741455 241.67166138 166.93342590 241.60630798 176.90853882" stroke-width="2.00000000" fill="rgb(221, 225, 236)" opacity="1.0" stroke="rgb(248, 235, 226)" stroke-opacity="0.29710826" stroke-linecap="round" stroke-linejoin="round"/>
    <path d="M 204.15652466 124.02999878 C 204.78640747 126.17454529 205.02639771 129.53169250 204.46231079 132.25401306 C 203.98074341 134.69471741 202.33300781 137.82035828 200.59652710 140.13269043 C 198.49624634 142.77203369 196.38090515 144.35633850 194.07580566 145.66156006 C 190.55216980 147.14831543 188.40783691 147.20724487 185.55694580 147.20109558 C 181.96972656 145.78466797 183.86572266 142.47402954 184.88764954 139.63473511 C 185.74562073 136.55210876 185.59416199 135.40066528 186.75672913 132.91255188 C 187.83348083 129.48075867 187.37559509 127.33791351 187.67335510 123.95754242 C 187.64762878 121.58979797 186.29142761 118.16061401 189.42388916 116.63276672 C 193.16249084 116.30722809 195.00126648 116.67066956 198.26976013 117.55693054 C 201.74681091 119.34105682 202.06256104 119.75244141 204.15652466 124.02999878" stroke-width="2.00000000" fill="rgb(245, 243, 246)" opacity="1.0" stroke="rgb(12, 0, 8)" stroke-opacity="0.6822432" stroke-linecap="round" stroke-linejoin="round"/>
    <path d="M 174.31398010 165.48289490 C 172.08122253 169.25735474 171.86489868 169.13934326 168.88124084 173.67991638 C 166.88035583 176.25880432 165.56304932 178.43154907 162.85791016 181.71069336 C 159.47372437 185.40962219 159.45675659 185.65969849 155.70991516 189.28718567 C 153.79492188 191.05294800 151.15274048 193.96961975 146.44578552 193.21029663 C 142.44668579 191.21972656 142.66366577 189.53056335 145.84764099 186.34107971 C 149.84671021 182.06604004 148.81439209 183.16174316 151.88169861 180.06272888 C 154.87944031 176.71290588 156.09651184 175.26948547 158.14138794 172.52125549 C 160.13525391 170.16203308 161.51820374 167.17919922 163.09605408 163.64314270 C 164.27464294 160.68556213 165.00842285 157.46926880 169.29931641 158.37466431 C 174.07824707 160.44229126 175.63400269 160.77944946 174.31398010 165.48289490" stroke-width="2.00000000" fill="rgb(247, 248, 233)" opacity="1.0" stroke="rgb(36, 0, 0)" stroke-opacity="0.22820021" stroke-linecap="round" stroke-linejoin="round"/>
    <path d="M 257.74575806 21.66551018 C 258.72589111 24.96628189 258.27230835 27.89894867 258.64477539 31.32695389 C 258.69314575 36.17500687 259.41696167 39.00520325 256.37817383 40.39291382 C 252.14465332 41.99191666 248.86936951 42.79003143 246.42753601 42.57381439 C 244.98011780 40.05472565 246.08374023 36.30917740 245.38890076 31.98212433 C 245.12530518 27.86958313 244.42509460 24.78391838 244.36340332 21.27228546 C 243.93215942 14.56125832 244.04367065 16.43463707 243.61424255 11.84312248 C 243.80227661 7.86397743 243.07348633 6.15058136 243.46702576 0.79067039 C 245.02334595 -3.23992538 247.56362915 -1.12261963 250.38043213 1.93905258 C 252.70976257 5.45340157 252.56015015 8.19344807 253.75842285 11.36460209 C 255.18380737 15.96159363 256.91622925 17.81781387 257.74575806 21.66551018" stroke-width="2.00000000" fill="rgb(157, 125, 137)" opacity="1.0" stroke="rgb(115, 146, 208)" stroke-opacity="0.5073604" stroke-linecap="round" stroke-linejoin="round"/>
    <path d="M 162.79804993 103.72486877 C 159.69155884 104.14759064 159.64637756 102.52780914 162.18623352 98.32081604 C 165.51774597 94.83268738 167.31042480 91.81188965 163.70443726 90.82523346 C 160.10095215 91.36961365 155.80935669 92.50186157 152.80319214 92.23375702 C 148.36157227 91.42678833 146.84988403 91.18756104 143.73205566 86.33310699 C 145.40205383 81.22131348 148.38861084 82.97520447 152.43771362 83.34613800 C 157.86755371 85.13959503 157.42416382 85.35364532 161.65341187 86.17002869 C 167.18252563 85.87232971 166.32730103 85.38249969 171.39376831 87.38790894 C 174.41528320 88.21157074 175.16638184 86.37125397 176.91821289 90.61182404 C 178.92353821 94.78244019 175.96937561 98.30364227 172.94772339 99.55854034 C 168.19726562 102.48005676 167.21466064 102.20943451 162.79804993 103.72486877" stroke-width="1.00575924" fill="rgb(250, 252, 250)" opacity="1.0" stroke="rgb(247, 246, 236)" stroke-opacity="0.5400127" stroke-linecap="round" stroke-linejoin="round"/>
    <path d="M 76.83426666 89.66436005 C 74.85809326 91.75487518 73.72155762 95.41053772 75.34680176 99.99545288 C 76.11607361 104.64550018 73.91293335 105.90531921 68.44016266 103.47226715 C 64.72263336 100.81399536 63.67021561 99.21908569 64.36560059 93.76699829 C 65.20623779 89.67407227 68.36000824 86.82289886 71.16222382 84.81275940 C 74.11127472 80.37271118 76.06516266 79.52909851 80.48242188 79.43124390 C 87.80072784 79.89546204 86.05821228 79.81253815 91.16311646 80.95504761 C 96.31233978 82.24316406 97.21369171 82.01882172 103.61091614 84.10227966 C 107.80762482 86.89553833 101.49292755 86.69300842 96.36885834 86.50985718 C 90.93488312 86.66489410 89.23039246 87.10125732 86.19860077 87.95144653 C 83.76975250 86.91242218 80.38694000 84.27243805 76.83426666 89.66436005" stroke-width="0.93828768" fill="rgb(5, 8, 6)" opacity="1.0" stroke="rgb(39, 21, 18)" stroke-opacity="0.5209596" stroke-linecap="round" stroke-linejoin="round"/>
    <path d="M 136.14698792 207.82180786 C 133.20742798 209.60136414 132.58166504 209.27191162 129.10800171 209.80915833 C 126.60573578 210.12301636 125.11747742 210.35932922 121.41152191 210.57049561 C 119.26119232 210.47129822 116.83555603 211.10668945 114.03474426 208.78898621 C 112.63717651 207.50001526 110.51106262 206.14385986 107.69328308 203.99372864 C 106.12252045 200.78569031 106.83110046 200.35681152 110.56439972 199.53398132 C 114.80874634 199.50007629 113.64485931 199.44316101 117.08803558 199.65815735 C 120.43671417 199.96733093 121.99079895 199.41639709 124.46755981 199.63565063 C 126.69547272 199.90576172 128.90393066 199.32495117 132.20065308 198.78865051 C 135.17190552 198.19334412 137.27058411 198.76870728 138.87741089 200.87651062 C 139.89056396 203.09642029 137.75028992 206.81779480 136.14698792 207.82180786" stroke-width="2.00000000" fill="rgb(235, 163, 51)" opacity="1.0" stroke="rgb(17, 0, 8)" stroke-opacity="1.0" stroke-linecap="round" stroke-linejoin="round"/>
    <path d="M 132.11888123 100.66528320 C 130.10868835 101.16958618 127.69756317 101.46490479 125.34055328 101.52312469 C 123.48336792 101.44602966 120.44294739 101.84556580 118.60484314 100.27088928 C 117.07302094 98.85424042 115.66939545 96.77098083 114.95886230 94.56140137 C 114.23062897 91.92822266 113.62303925 89.60095978 114.57020569 87.74813080 C 116.24536896 86.47055054 118.01403809 85.48538208 120.69346619 83.79289246 C 122.92063904 82.99771118 124.24040222 83.17810059 125.79792786 83.47331238 C 128.44322205 83.16806793 131.60499573 83.19477844 132.91122437 83.96678925 C 136.15838623 86.35814667 136.43389893 86.69149780 137.30889893 89.10747528 C 137.79901123 91.77575684 136.87165833 94.36529541 136.54727173 96.08084106 C 135.98095703 98.81771088 135.01528931 99.84832764 132.11888123 100.66528320" stroke-width="2.00000000" fill="rgb(15, 7, 5)" opacity="1.0" stroke="rgb(241, 101, 3)" stroke-opacity="0.654367" stroke-linecap="round" stroke-linejoin="round"/>
    <path d="M 75.01033020 56.24580765 C 76.06980896 58.05624390 75.43540192 60.47812271 75.68861389 62.48314667 C 76.10633850 65.91433716 75.70016479 67.84820557 72.65019226 67.53886414 C 70.15986633 66.74143982 66.85720825 66.41891479 64.76348114 65.98002625 C 61.85633087 65.03482819 60.07126617 64.16479492 58.87749863 62.43610764 C 57.20449066 61.62545013 57.65920639 58.85490417 58.31998062 56.18494797 C 59.95772934 52.03879929 59.91213608 52.28973389 60.53642654 50.28440475 C 59.86813736 48.71422577 60.29394913 46.46153259 61.75972366 43.97762299 C 63.16459656 42.65401077 64.16761780 44.17556381 66.89657593 45.50917816 C 69.04620361 46.32272720 69.93795776 48.44062424 70.46150208 51.47471237 C 70.66877747 55.10349655 71.84396362 55.17899704 75.01033020 56.24580765" stroke-width="2.00000000" fill="rgb(252, 246, 241)" opacity="1.0" stroke="rgb(224, 189, 168)" stroke-opacity="0.044636484" stroke-linecap="round" stroke-linejoin="round"/>
    <path d="M 231.99818420 78.42488861 C 232.13934326 79.87567139 232.22207642 82.56688690 232.28158569 84.74550629 C 232.57638550 86.94353485 232.88334656 90.06121063 231.08485413 90.61408234 C 229.71902466 87.89070892 229.63995361 85.89558411 228.79515076 83.88504791 C 228.29096985 81.66953278 227.80180359 79.65484619 227.93954468 76.71629333 C 227.96437073 74.60012817 228.37347412 73.11353302 228.48443604 69.65707397 C 228.49716187 66.94951630 228.74748230 66.20967102 228.27378845 64.08006287 C 227.91575623 61.18827820 228.05731201 59.39048004 230.54307556 58.21130753 C 233.21981812 58.35208893 232.15473938 61.00000381 232.68484497 63.49111176 C 232.80235291 66.73117065 232.40190125 67.92547607 232.21221924 70.45603943 C 232.06610107 72.70129395 231.99110413 74.51534271 231.99818420 78.42488861" stroke-width="1.69797945" fill="rgb(249, 251, 250)" opacity="1.0" stroke="rgb(212, 158, 229)" stroke-opacity="0.024857137" stroke-linecap="round" stroke-linejoin="round"/>
    <path d="M 257.31970215 6.12743187 C 258.37182617 8.12943268 258.96511841 9.82742691 259.50744629 11.44232082 C 260.15264893 13.01677132 259.50643921 15.09766579 257.84436035 16.42742920 C 256.47372437 17.57804298 254.59757996 17.59272003 252.25595093 17.58070755 C 250.29647827 17.44896507 247.86697388 18.09762001 246.37506104 17.51599312 C 245.37713623 14.79378891 245.77702332 13.99581146 245.50347900 11.41017818 C 245.44856262 7.60435200 245.53785706 8.28581905 245.29534912 5.89349699 C 245.22760010 3.69086170 245.04611206 1.26477909 246.23855591 -0.73548317 C 247.61311340 -2.88530922 248.78269958 -3.87116909 249.45401001 -2.69043541 C 250.92062378 -1.88101482 252.26751709 -0.47832203 253.75776672 0.99823713 C 255.53692627 2.76712990 256.44448853 4.13894749 257.31970215 6.12743187" stroke-width="2.00000000" fill="rgb(215, 201, 205)" opacity="1.0" stroke="rgb(198, 198, 200)" stroke-opacity="0.8103311" stroke-linecap="round" stroke-linejoin="round"/>
    <path d="M 116.48931885 21.52133179 C 117.17086792 19.48770523 117.44434357 16.85233879 116.52502441 13.79640961 C 114.59372711 10.56756496 112.23886871 9.63738251 109.06815338 7.51140976 C 108.76766205 5.52759933 110.87853241 6.32635021 114.92210388 6.21922302 C 117.59367371 6.29607677 120.85410309 7.12514210 123.65048218 8.70226669 C 125.43725586 9.88629532 130.73802185 10.61710739 129.94209290 13.92557335 C 127.49726868 16.43612862 126.11277771 16.07127571 123.71359253 17.26670074 C 121.37580872 19.68064690 120.68193817 20.06841660 117.25429535 23.20169449 C 114.84003448 26.21552658 113.85140991 25.93305016 113.53585052 27.71282387 C 111.52065277 30.39755630 110.23993683 31.07885742 112.18114471 28.30080032 C 114.54407501 24.81917763 116.31881714 24.22460175 116.48931885 21.52133179" stroke-width="0.87303817" fill="rgb(10, 5, 9)" opacity="1.0" stroke="rgb(81, 77, 78)" stroke-opacity="0.8513508" stroke-linecap="round" stroke-linejoin="round"/>
    <path d="M 108.66352081 34.33582306 C 108.24160004 34.65836716 107.63862610 35.09031296 107.22731781 35.62747192 C 106.74033356 36.18653107 106.39392090 36.87922668 106.33480072 37.38547897 C 106.41977692 36.84378433 106.60503387 36.58000183 106.58297729 35.75029373 C 106.52115631 34.92530060 106.70115662 34.48021698 107.28761292 34.37957382 C 107.70426941 33.95328522 107.36977386 33.53919601 108.01800537 32.86026382 C 108.78804016 31.99109077 108.95223999 32.32830811 109.09175110 31.70193672 C 109.13850403 30.81303406 109.36145782 30.21582603 110.26972961 30.22262764 C 111.30834961 30.19904137 111.18687439 30.49405670 111.12632751 31.27282333 C 111.18073273 31.93430710 110.83319092 32.23070908 110.25286102 32.91256332 C 109.86829376 33.46769714 109.41285706 33.76438141 108.66352081 34.33582306" stroke-width="0.93436223" fill="rgb(176, 143, 39)" opacity="1.0" stroke="rgb(212, 193, 33)" stroke-opacity="0.37384844" stroke-linecap="round" stroke-linejoin="round"/>
    <path d="M 241.46614075 6.85454988 C 241.48899841 8.04586601 241.44886780 9.59180927 241.65626526 11.90543461 C 241.62129211 14.29542637 241.67459106 15.16176987 242.45970154 18.13218689 C 243.17649841 20.54847908 242.98033142 21.67481995 240.83251953 22.61560631 C 238.23770142 23.56573677 237.13064575 24.11766243 237.10197449 21.84853935 C 236.85981750 19.66948318 235.94889832 17.64999390 235.18833923 15.62019062 C 234.26329041 11.78937626 234.45419312 13.05357647 233.74075317 10.31361580 C 233.27148438 8.07298088 232.57568359 6.67419338 231.62315369 4.08302307 C 231.48213196 1.96348763 233.15307617 0.62729549 235.40779114 -0.18612194 C 237.21411133 -0.81412601 240.12928772 -1.98493195 241.24401855 -0.34318733 C 241.69514465 1.55597782 241.38873291 3.01062059 241.46614075 6.85454988" stroke-width="2.00000000" fill="rgb(214, 243, 244)" opacity="1.0" stroke="rgb(193, 237, 199)" stroke-opacity="0.18824995" stroke-linecap="round" stroke-linejoin="round"/>
    <path d="M 157.00160217 155.40454102 C 155.18190002 154.80499268 155.08728027 154.74592590 153.34692383 152.91923523 C 152.49810791 151.32965088 152.28567505 150.52548218 152.54008484 148.30589294 C 152.72116089 147.01136780 153.13908386 145.74645996 154.25541687 143.97648621 C 154.82038879 143.25212097 155.89959717 141.46580505 157.16525269 140.00480652 C 158.27270508 139.07362366 159.29795837 139.58183289 161.18464661 141.01243591 C 162.25016785 142.36073303 162.83222961 142.72619629 163.29168701 144.04687500 C 163.88679504 145.99874878 164.75103760 146.75718689 165.54460144 148.05447388 C 165.96945190 149.61387634 166.12182617 151.06266785 165.30441284 152.14303589 C 164.37586975 153.61151123 163.28428650 154.66191101 162.06399536 155.36656189 C 160.38534546 155.95870972 158.47874451 155.71134949 157.00160217 155.40454102" stroke-width="0.84304416" fill="rgb(250, 254, 252)" opacity="1.0" stroke="rgb(243, 221, 192)" stroke-opacity="0.6541582" stroke-linecap="round" stroke-linejoin="round"/>
    <path d="M 254.39016724 185.76963806 C 254.62158203 193.05386353 253.86737061 199.54017639 255.07351685 205.67803955 C 256.16827393 212.03675842 255.64556885 220.85482788 253.85874939 225.00567627 C 249.35661316 223.53015137 247.16862488 217.47938538 245.34591675 209.56785583 C 243.32115173 201.05664062 243.60260010 200.03640747 245.89447021 194.46421814 C 247.08033752 189.07530212 244.15625000 181.05700684 245.07929993 175.95402527 C 244.31625366 164.54336548 246.77130127 165.73599243 240.96939087 160.87890625 C 234.93876648 158.83334351 241.38673401 155.50894165 248.32885742 147.64892578 C 251.85690308 142.65701294 252.75840759 134.09127808 254.49787903 141.17253113 C 254.57229614 150.30686951 254.05926514 156.23558044 254.64826965 163.42866516 C 254.87463379 169.89663696 254.20487976 177.66023254 254.39016724 185.76963806" stroke-width="1.28482854" fill="rgb(216, 214, 220)" opacity="1.0" stroke="rgb(179, 174, 188)" stroke-opacity="0.44288933" stroke-linecap="round" stroke-linejoin="round"/>
    <path d="M 100.57149506 61.94169617 C 101.29346466 63.42131424 102.30539703 63.77913284 102.93908691 66.76667786 C 102.92798615 69.43691254 103.01832581 70.10176086 101.01225281 72.58521271 C 98.29183960 73.34450531 97.57122040 70.87321472 97.37728119 69.06987000 C 97.16502380 66.56809998 97.46430206 64.36408997 97.39158630 62.25981522 C 97.24005890 59.05943298 97.12001801 57.86863327 97.14107513 55.53755951 C 97.35432434 51.56303406 97.21045685 52.43015289 97.39464569 49.85284805 C 97.08056641 47.26013947 97.35710907 44.63188934 99.21590424 43.87068558 C 101.92716980 43.15299988 101.91533661 45.06409836 101.01711273 47.55018234 C 100.46277618 50.29632568 99.90760040 52.15432739 99.90019989 54.37704849 C 99.69566345 56.44366837 99.58927917 58.69130707 100.57149506 61.94169617" stroke-width="1.09996808" fill="rgb(3, 14, 9)" opacity="1.0" stroke="rgb(0, 89, 30)" stroke-opacity="0.61593854" stroke-linecap="round" stroke-linejoin="round"/>
    <path d="M 110.31605530 51.20707703 C 107.90913391 53.33026886 107.34716034 53.64184570 105.48934937 56.48616028 C 104.56971741 58.52841187 104.29869843 61.44743347 102.98141479 62.57950211 C 102.86671448 60.87804413 102.95874786 57.85469818 102.98380280 55.36447144 C 103.14495850 51.50089264 103.51436615 50.86925507 104.78308105 48.66605377 C 106.82531738 45.60955811 107.78787994 45.04806519 110.51851654 44.29465485 C 114.31768799 43.89905930 114.88171387 44.95605469 116.34685516 45.21567154 C 117.14296722 43.91165161 116.21859741 40.82650757 118.09748077 38.94886017 C 119.19258881 36.54819107 119.71334076 39.19836807 120.45674133 42.04204559 C 121.17077637 45.34325027 120.13269043 46.08734512 117.96108246 47.29196548 C 114.53009033 48.33994293 112.75321198 48.89398575 110.31605530 51.20707703" stroke-width="0.97695827" fill="rgb(143, 9, 16)" opacity="1.0" stroke="rgb(118, 44, 84)" stroke-opacity="0.5549385" stroke-linecap="round" stroke-linejoin="round"/>
    <path d="M 155.07690430 136.48948669 C 154.93804932 136.19932556 154.44781494 134.71165466 154.35609436 133.05986023 C 154.33145142 131.90151978 154.49591064 130.07974243 155.09707642 128.88958740 C 155.90086365 127.53500366 156.69679260 126.71211243 157.80419922 126.11053467 C 159.42985535 125.47591400 160.53182983 125.28871155 161.71206665 125.23760223 C 163.41914368 125.59255219 163.60539246 126.74220276 164.53059387 128.24153137 C 165.13279724 129.94650269 165.18754578 129.90895081 165.12466431 131.49038696 C 165.04183960 133.37876892 165.10589600 134.14620972 164.52313232 135.58268738 C 164.03442383 136.70826721 163.10417175 138.15737915 162.02822876 138.89718628 C 161.18664551 139.52960205 159.87698364 139.61116028 158.09010315 139.72817993 C 156.38427734 139.02803040 156.55075073 138.86474609 155.07690430 136.48948669" stroke-width="0.80974299" fill="rgb(253, 253, 250)" opacity="1.0" stroke="rgb(241, 198, 153)" stroke-opacity="0.9334041" stroke-linecap="round" stroke-linejoin="round"/>
    <path d="M 90.55374146 228.69915771 C 95.89551544 229.65719604 96.61091614 233.16600037 93.76738739 233.63932800 C 90.66464233 230.44378662 88.85808563 228.21238708 83.02025604 230.60095215 C 76.27896118 234.96017456 76.12571716 233.35679626 77.10116577 226.71226501 C 76.49433899 221.49188232 77.90599060 222.37954712 77.85285187 222.51022339 C 76.91572571 218.97903442 83.16290283 217.91156006 85.80090332 217.60440063 C 92.87892151 217.66442871 95.64576721 220.76889038 94.10275269 220.50485229 C 91.47099304 220.24234009 89.40708923 222.42321777 88.65440369 220.65242004 C 84.02172089 220.32310486 82.73907471 219.67564392 80.06906891 222.56681824 C 77.66867828 226.67419434 78.14542389 229.32536316 78.91950226 229.84185791 C 82.43671417 229.65150452 85.27000427 228.52694702 90.55374146 228.69915771" stroke-width="1.14876318" fill="rgb(96, 251, 255)" opacity="1.0" stroke="rgb(73, 240, 247)" stroke-opacity="0.17705029" stroke-linecap="round" stroke-linejoin="round"/>
    <path d="M 67.50977325 122.54010010 C 66.95223236 123.50890350 66.48248291 124.47821808 65.40618134 125.62712860 C 64.64307404 126.84741211 63.89729309 127.86001587 62.72243500 126.96160889 C 61.10205841 125.81358337 60.75199127 125.17765045 60.35140991 123.69712067 C 60.06897736 121.69732666 60.13349915 121.23108673 60.17684174 119.35102081 C 60.23635864 117.82567596 60.15677261 116.72668457 60.30578613 114.97271729 C 60.52878571 113.61057281 60.83407974 112.99969482 60.67163467 111.49832916 C 60.90245056 109.85839844 61.86061096 112.57162476 62.83494186 113.42459106 C 63.81224823 114.86781311 64.01072693 114.70346069 65.47144318 115.64400482 C 66.40278625 116.63570404 66.96159363 117.70864105 67.94471741 118.47058868 C 68.92881775 119.56545258 68.05786133 121.05927277 67.50977325 122.54010010" stroke-width="0.85268104" fill="rgb(3, 18, 9)" opacity="1.0" stroke="rgb(68, 110, 70)" stroke-opacity="0.9221785" stroke-linecap="round" stroke-linejoin="round"/>
    <path d="M 238.75418091 232.43066406 C 239.88432312 233.78230286 240.27839661 234.44822693 240.99917603 235.81304932 C 241.81564331 237.66664124 241.92950439 237.93348694 242.08779907 239.91307068 C 242.17420959 240.91572571 241.82423401 242.67933655 240.93707275 244.07015991 C 240.08049011 244.96528625 239.39601135 245.82029724 237.35650635 245.14422607 C 236.11317444 244.54426575 235.19813538 243.87631226 233.94512939 242.57051086 C 233.09342957 241.46511841 232.29067993 240.86039734 231.90579224 239.69580078 C 231.41664124 238.26870728 231.21104431 237.66850281 229.44749451 237.19334412 C 229.87023926 236.42424011 231.12593079 235.64256287 232.07220459 234.44268799 C 233.41461182 233.13046265 234.01629639 232.37059021 235.08415222 231.54164124 C 236.74876404 230.59054565 238.18676758 231.42451477 238.75418091 232.43066406" stroke-width="0.98366231" fill="rgb(235, 10, 16)" opacity="1.0" stroke="rgb(210, 2, 23)" stroke-opacity="0.49659494" stroke-linecap="round" stroke-linejoin="round"/>
    <path d="M 90.37300873 184.73771667 C 91.18753815 186.71679688 89.43112946 185.78706360 88.17271423 184.21839905 C 86.19834137 182.50614929 84.59554291 182.04949951 83.07023621 181.07402039 C 80.85172272 180.07838440 79.99089813 179.56817627 77.73561096 178.81285095 C 75.31746674 178.13964844 74.27234650 176.93534851 75.34405518 175.81230164 C 76.82055664 174.08486938 77.75878906 172.73243713 78.76512146 171.18830872 C 80.42386627 168.53781128 80.23992920 169.26918030 80.66584778 166.42750549 C 81.19951630 164.20538330 82.55853271 166.67462158 84.00481415 168.56814575 C 85.05599976 170.72018433 85.02512360 172.33251953 85.57902527 174.16337585 C 86.20040131 176.19404602 86.53810120 177.60226440 87.30682373 179.23452759 C 87.99196625 181.49423218 88.98023224 182.57626343 90.37300873 184.73771667" stroke-width="0.92343271" fill="rgb(4, 5, 4)" opacity="1.0" stroke="rgb(30, 11, 0)" stroke-opacity="0.565425" stroke-linecap="round" stroke-linejoin="round"/>
    <path d="M 108.33427429 194.64300537 C 110.20372772 194.82453918 115.40232849 194.09068298 113.41854095 196.47286987 C 109.33612823 199.52258301 108.30284119 199.85359192 110.67575073 205.06130981 C 110.98556519 207.45036316 107.33269501 201.66694641 104.87046814 201.46800232 C 102.20125580 199.69654846 97.98673248 198.15248108 95.88399506 201.02615356 C 92.65121460 202.98008728 91.77507782 204.20933533 88.72647095 199.83280945 C 87.39337921 195.98187256 88.96224976 193.74052429 87.72834778 193.96653748 C 85.38932037 193.93049622 85.87272644 192.57287598 86.25335693 190.45898438 C 85.48976135 192.78065491 86.04881287 195.59169006 88.69768524 192.54988098 C 92.07269287 190.02076721 93.96618652 190.07946777 97.45186615 191.90733337 C 100.61146545 193.33306885 102.28189850 193.83358765 108.33427429 194.64300537" stroke-width="0.35412744" fill="rgb(5, 4, 6)" opacity="1.0" stroke="rgb(108, 25, 32)" stroke-opacity="0.5746097" stroke-linecap="round" stroke-linejoin="round"/>
    <path d="M 144.27662659 48.77593613 C 146.59669495 47.25655365 147.36477661 47.14678574 149.80215454 44.98501205 C 152.16387939 43.67054749 153.55714417 45.63508606 155.28097534 46.91190720 C 157.74746704 49.20176315 156.31054688 50.66300964 157.07611084 54.18010712 C 157.88487244 57.00112152 157.52055359 57.77803040 157.57942200 58.21014786 C 157.16268921 59.39915466 156.00636292 58.49415588 155.64843750 56.06712341 C 153.48893738 52.28045654 155.68406677 51.09856796 152.64080811 49.12778091 C 148.97450256 49.00764084 149.09126282 48.19922638 146.38032532 51.91713333 C 145.76350403 53.21309280 148.73197937 54.33208847 147.59719849 56.20660400 C 146.39918518 55.89698029 144.66513062 55.74293900 142.97851562 53.17791748 C 142.97612000 51.28773117 142.05145264 49.90518570 144.27662659 48.77593613" stroke-width="2.00000000" fill="rgb(234, 135, 192)" opacity="1.0" stroke="rgb(222, 215, 188)" stroke-opacity="0.13720962" stroke-linecap="round" stroke-linejoin="round"/>
    <path d="M 59.75876617 112.63523102 C 59.28589630 114.79478455 59.26133728 115.61143494 59.24982071 118.42176056 C 59.31540298 120.35388947 59.84307861 124.45497131 59.12684250 122.52993774 C 58.92338943 119.33934021 59.13518906 117.83551788 58.46696472 115.65338135 C 58.11972809 113.64717102 57.37579346 111.69490051 56.31205368 109.60865784 C 55.56740952 107.85009003 55.12407684 106.63388824 54.62680054 103.41847229 C 54.32072449 101.04886627 54.55685425 100.23670197 54.31342316 98.25486755 C 53.90913391 95.13053894 54.59413910 93.63856506 57.38097000 94.72234344 C 58.73946762 96.77281952 57.99291611 99.16705322 58.86206436 100.93598175 C 59.39114761 103.20953369 60.24259186 105.02370453 60.86831665 106.54503632 C 61.66274643 108.82462311 60.07003403 109.84874725 59.75876617 112.63523102" stroke-width="1.72788227" fill="rgb(177, 254, 242)" opacity="1.0" stroke="rgb(126, 228, 215)" stroke-opacity="0.1268474" stroke-linecap="round" stroke-linejoin="round"/>
    <path d="M 178.99143982 137.21371460 C 178.76542664 138.09317017 178.38735962 139.92642212 177.90884399 141.83665466 C 177.65345764 143.58244324 176.64950562 144.38226318 174.60311890 146.19204712 C 172.50032043 147.24833679 173.18583679 144.45750427 173.02879333 142.90272522 C 173.06251526 140.07742310 173.11772156 139.93348694 174.50361633 137.74818420 C 175.75642395 135.19361877 175.72499084 134.69790649 176.38616943 132.43403625 C 176.97595215 129.53248596 176.61936951 129.81732178 177.18875122 128.04565430 C 177.90638733 126.57349396 178.53063965 125.38549805 179.02737427 123.42154694 C 179.63954163 120.27819824 179.52963257 123.17156982 180.11515808 125.33895111 C 180.05963135 127.69622803 180.30810547 128.85478210 180.17166138 130.81373596 C 180.00212097 133.13009644 179.70046997 134.21716309 178.99143982 137.21371460" stroke-width="0.81521845" fill="rgb(248, 252, 253)" opacity="1.0" stroke="rgb(234, 252, 233)" stroke-opacity="0.54495287" stroke-linecap="round" stroke-linejoin="round"/>
    <path d="M 114.76998901 75.16525269 C 114.63020325 75.95119476 114.59593201 76.65297699 114.70091248 78.76465607 C 114.48200226 79.63456726 114.88931274 81.27452850 114.04101562 82.64724731 C 113.34305573 83.49610901 112.10070038 83.87994385 110.50357056 84.09666443 C 108.93198395 84.28353119 108.13748169 84.67690277 107.10721588 83.70952606 C 106.55941772 82.23484802 106.46173859 80.58414459 106.53223419 79.52716827 C 106.92803192 76.89233398 106.71720886 77.67936707 106.98231506 75.95586395 C 107.35115051 73.99742126 107.45333099 73.65494537 108.10156250 71.86688995 C 108.98120880 70.11440277 109.31606293 69.46190643 110.86672211 69.43441010 C 111.66757202 69.31833649 113.34188843 69.78448486 114.33188629 70.81292725 C 115.40806580 71.69035339 114.73928833 72.82553864 114.76998901 75.16525269" stroke-width="0.98930776" fill="rgb(44, 15, 10)" opacity="1.0" stroke="rgb(170, 81, 45)" stroke-opacity="0.80256623" stroke-linecap="round" stroke-linejoin="round"/>
    <path d="M 61.72303772 122.87645721 C 61.67976379 122.34023285 62.22293091 120.67310333 62.65789795 119.62833405 C 63.65117645 118.06871033 64.05749512 117.51554108 64.66260529 116.24311066 C 65.66349030 115.12984467 66.34999847 115.24334717 68.08596802 116.06357574 C 69.02107239 116.44067383 70.31465912 117.60599518 70.91297913 118.82238770 C 71.29392242 120.01039124 71.50971222 121.00479889 71.52096558 122.73184967 C 71.02888489 124.42144775 71.13148499 124.62593079 70.48514557 125.62788391 C 69.49147797 126.85755920 68.83593750 127.23521423 67.14591217 127.74761200 C 65.51662445 128.19976807 65.55233765 128.25393677 63.48969650 128.77481079 C 61.80867004 128.83717346 61.14566803 128.70561218 61.50783539 127.28595734 C 61.75231171 125.88499451 61.78073502 124.97818756 61.72303772 122.87645721" stroke-width="1.02429342" fill="rgb(188, 28, 19)" opacity="1.0" stroke="rgb(110, 7, 67)" stroke-opacity="0.5281166" stroke-linecap="round" stroke-linejoin="round"/>
    <path d="M 74.82659149 95.65259552 C 74.51640320 96.66551971 73.17513275 97.54359436 72.01641846 98.29222107 C 70.74782562 99.19645691 69.28712463 99.98953247 68.26567078 99.26535797 C 67.90663147 97.81403351 68.02919006 96.53271484 68.47420502 94.94378662 C 68.62611389 93.35901642 69.58290863 92.26279449 70.46591187 91.15513611 C 71.52458191 90.00321198 72.68622589 88.84313965 73.61931610 88.28240967 C 75.99929810 87.19137573 75.52008820 87.38449860 77.04856873 86.88790894 C 78.52812195 86.69997406 80.03738403 87.14317322 80.81436920 87.84154510 C 80.74946594 88.83050537 78.81848145 88.39130402 77.49796295 89.11057281 C 76.52320099 90.01016235 76.02866364 90.25277710 75.36995697 91.68531036 C 74.65372467 93.19318390 75.04844666 94.19561768 74.82659149 95.65259552" stroke-width="0.90074617" fill="rgb(233, 16, 8)" opacity="1.0" stroke="rgb(255, 32, 52)" stroke-opacity="0.5191573" stroke-linecap="round" stroke-linejoin="round"/>
    <path d="M 154.46086121 235.36553955 C 152.99247742 236.91548157 151.59141541 236.81750488 149.71952820 237.06967163 C 147.67639160 237.23655701 146.36358643 237.22816467 143.97604370 237.26637268 C 141.70446777 237.23020935 140.15618896 237.35595703 138.49092102 237.15972900 C 137.08099365 236.71531677 135.95919800 234.97618103 135.82984924 232.65356445 C 136.17424011 231.09153748 137.63540649 229.93614197 140.07899475 229.79580688 C 141.80984497 229.74490356 142.72430420 229.78100586 144.26190186 229.79766846 C 146.02938843 229.90769958 147.14012146 229.80429077 148.43955994 229.00012207 C 149.63330078 228.47753906 151.22244263 227.46244812 153.18281555 227.33859253 C 155.23199463 226.84753418 157.10153198 228.22692871 156.78671265 230.16899109 C 156.40771484 232.26876831 155.57496643 234.24645996 154.46086121 235.36553955" stroke-width="2.00000000" fill="rgb(227, 249, 253)" opacity="1.0" stroke="rgb(207, 245, 241)" stroke-opacity="0.09466774" stroke-linecap="round" stroke-linejoin="round"/>
    <path d="M 118.21550751 30.25895119 C 118.72693634 29.63766479 119.55071259 28.52310181 120.67009735 27.31580925 C 121.42034912 26.37965012 122.78566742 25.35014725 124.33789062 25.51193428 C 125.76308441 26.33760071 125.22937012 27.25403976 124.28567505 28.40519524 C 122.90129089 29.87900352 122.10036469 30.98978424 121.41654205 32.15527344 C 120.51426697 34.38870621 120.57058716 34.28390503 119.76509857 36.60504532 C 119.17345428 38.01358032 118.33760834 38.90966797 118.17591858 39.46216583 C 117.47695160 40.22463989 115.50585938 40.41315460 114.21084595 40.59294510 C 111.63744354 41.29139328 112.58554077 40.22045898 113.24219513 38.14551926 C 113.71733093 36.87555695 114.03773499 35.60985184 115.03923798 34.04276276 C 115.74479675 32.70735550 116.69517517 32.10971069 118.21550751 30.25895119" stroke-width="0.94940913" fill="rgb(4, 2, 1)" opacity="1.0" stroke="rgb(22, 4, 5)" stroke-opacity="0.5907906" stroke-linecap="round" stroke-linejoin="round"/>
    <path d="M 95.13415527 31.13135147 C 95.46498108 30.55602455 95.91659546 29.58266068 96.40785217 28.11132240 C 96.84687042 27.28680801 97.35270691 26.06488419 98.18101501 24.85793686 C 99.24213409 24.11836433 99.64907837 24.42752838 101.21292877 25.33133507 C 102.31803131 26.15526581 103.06108856 27.27447128 103.06214905 28.14901924 C 103.36238098 29.31017494 102.97389221 30.66409302 102.33261871 31.53232765 C 100.73831940 33.42959976 101.23204803 33.13246155 100.35127258 34.13685989 C 99.61304474 35.34399033 98.93338013 36.14367676 97.89423370 37.36387634 C 96.72236633 38.74735260 96.54434204 38.90405655 95.23146820 37.94092941 C 94.33924866 37.62749481 93.52880096 36.83393478 93.63197327 35.15816879 C 93.95046997 33.79170227 94.43630981 33.48213959 95.13415527 31.13135147" stroke-width="1.14147019" fill="rgb(245, 220, 54)" opacity="1.0" stroke="rgb(217, 249, 0)" stroke-opacity="0.2503652" stroke-linecap="round" stroke-linejoin="round"/>
    <path d="M 128.79269409 235.46583557 C 126.90018463 235.46537781 125.18599701 235.40693665 122.95421600 235.14985657 C 120.90479279 234.63354492 118.90980530 234.52072144 116.60592651 234.28231812 C 113.92398071 234.31303406 112.90480042 234.05497742 111.20126343 234.33106995 C 108.84199524 234.82348633 107.01062775 236.72799683 105.97462463 235.40612793 C 106.08323669 232.89103699 105.50032043 231.95524597 108.58914185 230.69589233 C 110.86937714 230.52673340 112.36365509 231.57543945 112.67999268 231.39910889 C 114.96188354 231.38597107 115.89983368 231.55386353 118.68811798 231.82438660 C 121.10669708 232.00572205 122.82611847 233.70317078 124.71197510 233.38975525 C 126.27113342 231.92098999 127.34908295 230.22875977 129.13636780 231.68067932 C 130.35325623 233.55218506 131.98406982 235.41023254 128.79269409 235.46583557" stroke-width="1.11653864" fill="rgb(191, 246, 252)" opacity="1.0" stroke="rgb(204, 232, 232)" stroke-opacity="0.10336423" stroke-linecap="round" stroke-linejoin="round"/>
    <path d="M 228.58610535 57.68051147 C 228.72456360 56.78933716 229.26777649 55.09079361 230.14123535 54.29351044 C 231.81166077 52.97043610 232.32772827 54.29508972 232.08566284 56.38543701 C 232.02912903 57.52133179 232.05043030 59.05238342 232.16639709 60.60968399 C 232.21929932 62.40321732 232.58653259 63.42833328 232.54940796 64.85323334 C 232.52705383 66.12332916 232.65136719 67.74821472 232.63114929 68.95026398 C 232.57203674 70.75663757 231.28469849 70.43559265 230.53559875 70.28936768 C 229.38751221 70.44315338 228.24067688 71.35781097 227.76986694 70.63043213 C 228.13937378 69.21296692 228.42677307 68.50984192 228.01139832 66.72702789 C 227.86178589 64.88927460 227.88745117 64.35054779 228.01467896 62.37294006 C 228.29542542 60.64002228 228.19177246 59.88498688 228.58610535 57.68051147" stroke-width="1.07713187" fill="rgb(195, 96, 83)" opacity="1.0" stroke="rgb(147, 47, 14)" stroke-opacity="0.25904748" stroke-linecap="round" stroke-linejoin="round"/>
    <path d="M 30.52274513 136.71572876 C 28.94685936 138.24147034 27.99087334 140.37670898 27.66722870 143.40132141 C 27.87914467 147.18373108 27.99804306 148.12478638 30.53749084 149.40513611 C 34.15972519 151.50248718 32.87118149 151.82077026 29.81081581 151.66085815 C 26.85228348 151.41609192 26.06501007 150.73561096 26.44893837 148.23359680 C 25.94681168 145.50437927 25.26399803 144.20300293 26.18881226 141.07064819 C 27.65136909 137.06512451 28.00213623 137.61645508 29.03542900 135.11260986 C 29.46797752 132.52818298 30.40772629 134.29797363 31.81889343 133.01638794 C 32.44033813 132.29560852 32.88107681 132.26588440 35.64694595 132.07072449 C 39.05339432 132.06694031 40.76307678 132.89788818 37.95760727 134.08468628 C 35.17959595 134.52859497 32.99570847 133.82351685 30.52274513 136.71572876" stroke-width="0.91489774" fill="rgb(49, 212, 250)" opacity="1.0" stroke="rgb(190, 255, 255)" stroke-opacity="0.3025759" stroke-linecap="round" stroke-linejoin="round"/>
    <path d="M 231.87030029 84.87867737 C 231.80566406 86.00906372 231.88189697 86.60756683 231.98481750 88.50293732 C 232.10263062 89.80186462 232.07327271 90.82832336 232.13613892 92.31956482 C 232.16014099 93.51126862 232.36361694 94.62818909 232.30197144 96.33421326 C 232.17449951 97.26371002 232.13592529 98.80937195 230.70294189 99.75651550 C 229.21981812 99.66118622 228.88522339 99.14663696 228.39315796 97.23017120 C 228.29255676 95.73499298 228.36407471 95.66178894 228.37120056 94.09123993 C 228.39649963 92.84295654 228.37446594 91.41713715 228.38385010 89.96012878 C 228.49366760 88.66472626 228.51655579 87.87011719 228.54066467 86.21469879 C 228.65336609 84.96826935 228.61601257 83.59481812 229.86897278 82.77310181 C 231.45788574 81.83780670 231.64881897 82.93836212 231.87030029 84.87867737" stroke-width="0.92669606" fill="rgb(193, 13, 83)" opacity="1.0" stroke="rgb(133, 0, 126)" stroke-opacity="0.34113917" stroke-linecap="round" stroke-linejoin="round"/>
    <path d="M 78.60021210 165.19592285 C 78.12175751 166.29586792 77.93402100 166.33006287 76.69326782 167.45291138 C 75.84705353 168.01246643 75.17568970 168.79504395 74.08874512 168.86592102 C 72.90313721 169.08190918 71.78696442 168.82096863 71.37863159 167.90969849 C 70.89131165 166.75410461 70.41769409 165.36822510 70.21269226 164.73175049 C 69.76450348 163.30268860 69.60850525 163.22753906 69.56406403 161.53845215 C 69.98637390 159.71470642 69.79141235 160.18359375 70.33938599 158.98469543 C 70.67317963 158.02952576 72.07160950 157.82522583 72.96609497 157.89974976 C 74.10224915 158.28562927 74.41523743 158.86813354 75.36808777 159.66668701 C 76.51383209 160.67782593 76.77265167 160.92446899 77.52113342 162.04458618 C 78.42102814 163.41081238 78.79062653 164.06112671 78.60021210 165.19592285" stroke-width="0.93916583" fill="rgb(5, 3, 6)" opacity="1.0" stroke="rgb(73, 70, 69)" stroke-opacity="0.7287534" stroke-linecap="round" stroke-linejoin="round"/>
    <path d="M 68.27677155 48.06126022 C 68.71134949 49.13014984 68.70612335 49.35612488 69.14825439 50.58920670 C 69.21560669 51.36006546 69.78496552 52.46227646 69.43657684 53.14801025 C 68.41430664 53.52365494 67.44899750 53.47700500 66.60536194 53.53826141 C 65.47455597 53.42167664 64.76227570 53.40070343 63.68149948 52.94835281 C 62.59300995 52.42929077 61.96560669 51.69295883 61.74470139 51.01891708 C 61.43725586 49.21944046 61.46045303 49.61848831 61.52760696 48.64826584 C 61.39706802 47.68489075 61.34711075 46.39394379 61.97668076 45.71128082 C 62.85628128 45.04763412 63.30414200 44.35296249 64.33084869 44.04502869 C 65.52487183 44.03784943 65.49118805 44.52161789 66.36949921 45.31990433 C 67.22174072 46.27534103 67.59814453 47.13341522 68.27677155 48.06126022" stroke-width="0.76786351" fill="rgb(246, 77, 62)" opacity="1.0" stroke="rgb(246, 156, 147)" stroke-opacity="0.9836186" stroke-linecap="round" stroke-linejoin="round"/>
    <path d="M 235.20651245 169.97068787 C 235.18339539 170.71919250 235.80145264 171.95295715 234.79560852 172.50027466 C 233.29660034 172.40364075 232.72830200 171.92318726 231.22476196 171.57696533 C 230.05058289 171.31037903 228.88449097 171.20925903 227.62200928 171.73757935 C 226.40515137 172.29937744 225.52716064 173.19505310 224.83213806 174.24815369 C 223.62583923 175.13389587 224.12904358 174.48516846 224.04071045 172.63226318 C 224.32373047 171.28358459 224.42111206 171.09378052 224.47529602 169.89379883 C 224.41020203 168.43795776 224.95973206 167.59062195 225.87792969 167.50022888 C 227.06193542 167.60371399 227.58406067 168.02377319 229.02857971 167.83749390 C 230.08100891 167.75552368 231.38830566 167.84208679 232.65890503 168.02598572 C 234.19204712 168.37319946 235.11495972 168.07766724 235.20651245 169.97068787" stroke-width="1.17107236" fill="rgb(112, 125, 166)" opacity="1.0" stroke="rgb(55, 81, 140)" stroke-opacity="0.28636727" stroke-linecap="round" stroke-linejoin="round"/>
    <path d="M 116.41808319 4.62336731 C 117.04024506 4.72850132 117.82298279 4.94587898 118.62190247 5.10556221 C 119.41724396 5.37417173 120.29149628 5.61716318 120.82038116 5.91378736 C 121.72280884 6.60672092 122.04066467 6.89307022 121.22688293 7.43437195 C 120.58228302 7.92961121 120.17542267 8.07474709 119.41442871 8.86011505 C 118.52703857 9.60113430 118.52964020 9.59241867 117.36560822 9.99496269 C 116.51013947 9.97047138 116.10861969 9.93368435 115.64622498 9.69499397 C 115.02805328 9.34681702 114.64277649 8.36648369 114.15089417 7.83374071 C 113.80253601 7.34290314 112.93357849 7.11179638 112.48124695 6.43047810 C 112.35677338 5.78896618 113.43203735 5.04498482 114.03166962 4.77795029 C 114.90516663 4.28881741 115.43727112 4.46790504 116.41808319 4.62336731" stroke-width="1.13885319" fill="rgb(255, 205, 14)" opacity="1.0" stroke="rgb(255, 152, 17)" stroke-opacity="0.42779854" stroke-linecap="round" stroke-linejoin="round"/>
    <path d="M 90.59439850 110.60945892 C 90.96025848 111.00046539 91.83061218 111.81928253 92.76348877 112.56967926 C 93.56341553 113.50720978 94.41725159 114.14768982 94.74208832 114.81383514 C 93.76948547 115.13646698 93.07584381 115.01943207 91.82187653 115.67958069 C 90.69348907 116.38883972 90.03358459 117.39160919 89.64362335 115.95664978 C 88.86547089 114.60810852 87.88105774 114.57838440 87.12807465 114.00523376 C 85.34488678 113.13211060 85.74591827 113.33322144 84.50831604 113.00059509 C 83.79916382 112.63630676 84.27606201 111.09830475 84.33685303 110.26119995 C 84.20580292 108.63036346 83.84864044 108.40665436 85.08759308 107.80450439 C 86.19813538 107.29883575 86.62940979 107.42763519 87.82707977 108.22103119 C 89.00510406 109.14125824 89.03647614 109.32104492 90.59439850 110.60945892" stroke-width="2.00000000" fill="rgb(100, 233, 43)" opacity="1.0" stroke="rgb(0, 128, 81)" stroke-opacity="0.19543502" stroke-linecap="round" stroke-linejoin="round"/>
    <path d="M 244.61065674 24.29746246 C 245.45291138 24.69742584 246.20816040 25.47015381 245.77502441 26.27865219 C 245.41415405 27.22416687 244.95234680 27.99718475 245.25350952 29.03812408 C 245.52613831 29.85898018 245.96014404 30.58451843 245.89559937 31.74540710 C 245.73660278 32.51692581 245.48933411 33.86863708 245.04763794 34.14119720 C 244.08204651 33.41345596 243.67919922 32.83463287 243.02854919 32.19833374 C 242.00822449 30.87157440 242.16139221 31.17247963 241.46249390 30.33308029 C 240.44561768 29.12969017 240.45724487 29.24461365 239.81388855 27.79747200 C 239.56066895 26.97227287 238.92277527 26.60721016 239.30290222 25.48542213 C 239.73229980 24.80328178 241.06433105 24.63533020 241.82768250 24.42293167 C 243.17593384 24.10212708 243.46444702 24.10323715 244.61065674 24.29746246" stroke-width="1.55411315" fill="rgb(42, 27, 17)" opacity="1.0" stroke="rgb(15, 23, 0)" stroke-opacity="0.3865987" stroke-linecap="round" stroke-linejoin="round"/>
    <path d="M 138.94326782 22.41952324 C 138.11898804 22.19219398 137.53918457 21.69846535 137.03041077 21.23662567 C 136.33186340 20.28825378 136.13270569 19.85964775 135.91140747 19.13560295 C 135.74165344 18.27599335 135.33784485 17.58592415 135.60966492 16.82394981 C 135.81661987 15.89859200 136.46716309 15.30468369 137.30140686 15.16435623 C 138.09353638 15.01022148 138.61073303 15.02505493 139.75064087 15.28880215 C 140.69833374 15.82146168 140.96371460 15.90075493 141.37528992 16.32947540 C 141.99620056 17.17557716 142.18418884 17.53608131 142.81184387 18.52865028 C 143.15341187 19.27573586 143.94873047 19.83233833 143.21223450 20.76884460 C 142.44441223 21.79064178 142.47174072 21.74750519 141.44403076 22.44929504 C 140.38517761 22.78503609 139.85760498 22.54087067 138.94326782 22.41952324" stroke-width="1.06288826" fill="rgb(4, 0, 1)" opacity="1.0" stroke="rgb(0, 0, 0)" stroke-opacity="0.30048913" stroke-linecap="round" stroke-linejoin="round"/>
    <path d="M 127.52498627 43.15353394 C 127.19116211 43.07318497 126.30822754 43.12334824 125.50438690 43.32034683 C 124.92997742 43.33995056 123.74962616 43.61203384 123.52041626 42.83368683 C 123.38573456 42.11260986 123.54206848 41.64761734 124.17719269 40.86148071 C 124.63925934 40.19991684 125.15309906 39.83798218 125.78668213 39.28343582 C 126.41819763 38.69297409 127.21004486 38.42798233 127.80468750 38.34970093 C 129.20037842 38.25567627 128.84455872 38.19487000 129.76437378 38.29041672 C 130.51562500 38.50772858 131.21691895 39.20311737 131.59268188 39.72441101 C 132.22463989 40.74239731 132.23683167 41.08112717 131.70448303 41.82314301 C 131.49618530 42.21886826 130.85295105 43.06334305 130.14488220 43.30354309 C 129.48945618 43.61755753 128.91314697 43.23372269 127.52498627 43.15353394" stroke-width="1.26602447" fill="rgb(29, 11, 31)" opacity="1.0" stroke="rgb(176, 140, 0)" stroke-opacity="0.37359563" stroke-linecap="round" stroke-linejoin="round"/>
  </g>
</svg>
