<svg xmlns="http://www.w3.org/2000/svg" viewBox="0 0 200 200" height="200.0px" width="200.0px">
<path id="" fill="#E9C46A" fill-opacity="1.0" stroke="#000000" stroke-width="0.0" stroke-opacity="1.0" stroke-linecap="round" stroke-linejoin="round"  filling="0" d="M175.000000 155.000000 C175.000000 159.772064 167.092834 164.353561 153.033005 167.727921 C138.973175 171.102280 119.883606 173.000000 100.000000 173.000000 C80.116394 173.000000 61.026825 171.102280 46.966991 167.727921 C32.907154 164.353561 24.999998 159.772064 25.000000 155.000000 C25.000002 150.227936 32.907158 145.646439 46.966988 142.272079 C61.026825 138.897720 80.116386 137.000000 100.000000 137.000000 C119.883606 137.000000 138.973160 138.897720 153.032990 142.272079 C167.092834 145.646439 175.000000 150.227936 175.000000 155.000000"></path>
<path id="" fill="#D4AF37" fill-opacity="1.0" stroke="#000000" stroke-width="0.0" stroke-opacity="1.0" stroke-linecap="round" stroke-linejoin="round"  filling="0" d="M145.000000 155.000000 C145.000000 157.651154 140.255707 160.196426 131.819809 162.071075 C123.383911 163.945724 111.930161 165.000000 100.000000 165.000000 C88.069839 165.000000 76.616089 163.945724 68.180191 162.071075 C59.744289 160.196426 55.000000 157.651154 55.000000 155.000000 C55.000000 152.348846 59.744293 149.803589 68.180191 147.928940 C76.616089 146.054291 88.069832 145.000000 100.000000 145.000000 C111.930161 145.000000 123.383896 146.054276 131.819794 147.928925 C140.255707 149.803574 145.000000 152.348846 145.000000 155.000000"></path>
<path id="" fill="#E76F51" fill-opacity="1.0" stroke="#000000" stroke-width="0.0" stroke-opacity="1.0" stroke-linecap="round" stroke-linejoin="round"  filling="0" d="M143.302002 88.209000 C154.992004 85.286331 164.281006 86.695000 171.169006 92.434998 C177.647003 97.833664 180.324005 105.216667 179.199997 114.584000 C178.156662 123.276665 174.100327 130.697006 167.031006 136.845001 C159.245010 143.615005 149.568008 147.000000 138.000000 147.000000 C136.066666 147.000000 134.416672 146.316666 133.050003 144.949997 C131.683334 143.582672 131.000000 141.932663 131.000000 140.000000 C131.000000 138.066666 131.683334 136.416672 133.050003 135.050003 C134.416672 133.683334 136.066666 133.000000 138.000000 133.000000 C146.078003 133.000000 152.692673 130.759995 157.843994 126.279999 C162.199997 122.492668 164.685333 118.038002 165.300003 112.916000 C165.820007 108.584000 164.788666 105.342003 162.205994 103.190002 C158.959335 100.484001 153.789993 100.017662 146.697998 101.791000 C144.822662 102.259666 143.056335 101.996666 141.399002 101.001999 C139.740997 100.008003 138.677673 98.573334 138.209000 96.697998 C137.740326 94.822670 138.003326 93.056335 138.998001 91.399002 C139.992004 89.741005 141.426666 88.677666 143.302002 88.209000"></path>
<path id="" fill="#E76F51" fill-opacity="1.0" stroke="#000000" stroke-width="0.0" stroke-opacity="1.0" stroke-linecap="round" stroke-linejoin="round"  filling="0" d="M50.000000 80.000000 C53.333332 101.666672 56.666668 123.333328 60.000000 145.000000 C63.333332 155.000000 76.666664 160.000000 100.000000 160.000000 C123.333336 160.000000 136.666672 155.000000 140.000000 145.000000 C143.333328 123.333328 146.666672 101.666672 150.000000 80.000000 C116.666664 80.000000 83.333336 80.000000 50.000000 80.000000"></path>
<path id="" fill="#F4A261" fill-opacity="1.0" stroke="#000000" stroke-width="0.0" stroke-opacity="1.0" stroke-linecap="round" stroke-linejoin="round"  filling="0" d="M150.000000 80.000000 C150.000000 83.711609 144.728577 87.274994 135.355347 89.899498 C125.982124 92.524002 113.255737 94.000000 100.000000 94.000000 C86.744263 94.000000 74.017883 92.524002 64.644661 89.899498 C55.271439 87.274994 50.000000 83.711609 50.000000 80.000000 C50.000000 76.288391 55.271435 72.725014 64.644653 70.100510 C74.017876 67.476006 86.744263 66.000000 100.000000 66.000000 C113.255737 66.000000 125.982109 67.475998 135.355331 70.100502 C144.728561 72.725006 150.000000 76.288391 150.000000 80.000000"></path>
<path id="" fill="#3E2723" fill-opacity="1.0" stroke="#000000" stroke-width="0.0" stroke-opacity="1.0" stroke-linecap="round" stroke-linejoin="round"  filling="0" d="M144.000000 82.000000 C144.000000 84.916260 139.361130 87.716064 131.112701 89.778175 C122.864265 91.840286 111.665047 93.000000 100.000000 93.000000 C88.334953 93.000000 77.135735 91.840286 68.887299 89.778175 C60.638863 87.716064 56.000000 84.916260 56.000000 82.000000 C56.000000 79.083740 60.638863 76.283936 68.887299 74.221825 C77.135735 72.159714 88.334946 71.000000 100.000000 71.000000 C111.665047 71.000000 122.864250 72.159714 131.112686 74.221825 C139.361130 76.283936 144.000000 79.083740 144.000000 82.000000"></path>
<path id="" fill="#FFFFFF" fill-opacity="1.0" stroke="#000000" stroke-width="0.0" stroke-opacity="1.0" stroke-linecap="round" stroke-linejoin="round"  filling="0" d="M60.000000 88.000000 C62.666668 106.000000 65.333336 124.000000 68.000000 142.000000 C70.666664 148.666672 76.333336 153.000000 85.000000 155.000000 C78.333336 145.000000 72.666664 122.666672 68.000000 88.000000 C65.333336 88.000000 62.666668 88.000000 60.000000 88.000000"></path>
<path id="" fill="#BCAAA4" fill-opacity="1.0" stroke="#000000" stroke-width="0.0" stroke-opacity="1.0" stroke-linecap="round" stroke-linejoin="round"  filling="0" d="M83.335999 61.109001 C76.176003 50.369667 76.176003 39.630333 83.335999 28.891001 C86.445335 24.226334 88.000000 20.429333 88.000000 17.500000 C88.000000 14.990666 86.702003 13.087000 84.106003 11.789000 C82.913338 11.192333 82.614998 10.298000 83.210999 9.106000 C83.508995 8.509334 83.881668 8.136667 84.329002 7.988000 C84.776337 7.838666 85.297997 7.913000 85.893997 8.211000 C89.964668 10.246334 92.000000 13.342667 92.000000 17.500000 C92.000000 21.237333 90.221336 25.773666 86.664001 31.108999 C80.490669 40.369667 80.490669 49.630333 86.664001 58.890999 C87.403336 60.000332 87.218338 60.924667 86.109001 61.664001 C85.554337 62.034000 85.045998 62.172668 84.584000 62.080002 C84.122002 61.987335 83.706001 61.663670 83.335999 61.109001"></path>
<path id="" fill="#BCAAA4" fill-opacity="1.0" stroke="#000000" stroke-width="0.0" stroke-opacity="1.0" stroke-linecap="round" stroke-linejoin="round"  filling="0" d="M97.919998 66.387001 C90.636665 55.462334 90.636665 44.537666 97.919998 33.612999 C100.973335 29.032999 102.500000 25.328667 102.500000 22.500000 C102.500000 20.196667 101.293999 18.441999 98.882004 17.236000 C97.391335 16.490667 97.018669 15.372666 97.764000 13.882000 C98.509338 12.391334 99.627335 12.018666 101.117996 12.764000 C105.372665 14.891334 107.500000 18.136665 107.500000 22.500000 C107.500000 26.337999 105.693336 30.966999 102.080002 36.387001 C96.029999 45.462334 96.029999 54.537666 102.080002 63.612999 C103.004669 64.999664 102.773666 66.155334 101.387001 67.080002 C100.000336 68.004669 98.844666 67.773666 97.919998 66.387001"></path>
<path id="" fill="#BCAAA4" fill-opacity="1.0" stroke="#000000" stroke-width="0.0" stroke-opacity="1.0" stroke-linecap="round" stroke-linejoin="round"  filling="0" d="M113.335999 61.109001 C106.176003 50.369667 106.176003 39.630333 113.335999 28.891001 C116.445335 24.226334 118.000000 20.429333 118.000000 17.500000 C118.000000 14.990666 116.702003 13.087000 114.106003 11.789000 C112.913338 11.192333 112.614998 10.298000 113.210999 9.106000 C113.508995 8.509334 113.881668 8.136667 114.329002 7.988000 C114.776337 7.838666 115.297997 7.913000 115.893997 8.211000 C119.964668 10.246334 122.000000 13.342667 122.000000 17.500000 C122.000000 21.237333 120.221336 25.773666 116.664001 31.108999 C110.490669 40.369667 110.490669 49.630333 116.664001 58.890999 C117.403336 60.000332 117.218338 60.924667 116.109001 61.664001 C115.554337 62.034000 115.045998 62.172668 114.584000 62.080002 C114.122002 61.987335 113.706001 61.663670 113.335999 61.109001"></path>
</svg>