<svg xmlns="http://www.w3.org/2000/svg" viewBox="0 0 200 200" height="200.0px" width="200.0px">
<path id="" fill="#E9C46A" fill-opacity="1.0" stroke="#000000" stroke-width="0.0" stroke-opacity="1.0" stroke-linecap="round" stroke-linejoin="round"  filling="0" d="M175.000 155.000 C175.000 159.772 167.093 164.354 153.033 167.728 C138.973 171.102 119.884 173.000 100.000 173.000 C80.116 173.000 61.027 171.102 46.967 167.728 C32.907 164.354 25.000 159.772 25.000 155.000 C25.000 150.228 32.907 145.646 46.967 142.272 C61.027 138.898 80.116 137.000 100.000 137.000 C119.884 137.000 138.973 138.898 153.033 142.272 C167.093 145.646 175.000 150.228 175.000 155.000"></path>
<path id="" fill="#D4AF37" fill-opacity="1.0" stroke="#000000" stroke-width="0.0" stroke-opacity="1.0" stroke-linecap="round" stroke-linejoin="round"  filling="0" d="M145.000 155.000 C145.000 157.651 140.256 160.196 131.820 162.071 C123.384 163.946 111.930 165.000 100.000 165.000 C88.070 165.000 76.616 163.946 68.180 162.071 C59.744 160.196 55.000 157.651 55.000 155.000 C55.000 152.349 59.744 149.804 68.180 147.929 C76.616 146.054 88.070 145.000 100.000 145.000 C111.930 145.000 123.384 146.054 131.820 147.929 C140.256 149.804 145.000 152.349 145.000 155.000"></path>
<path id="" fill="#E76F51" fill-opacity="1.0" stroke="#000000" stroke-width="0.0" stroke-opacity="1.0" stroke-linecap="round" stroke-linejoin="round"  filling="0" d="M143.302 88.209 C154.992 85.286 164.281 86.695 171.169 92.435 C177.647 97.834 180.324 105.217 179.200 114.584 C178.157 123.277 174.100 130.697 167.031 136.845 C159.245 143.615 149.568 147.000 138.000 147.000 C136.067 147.000 134.417 146.317 133.050 144.950 C131.683 143.583 131.000 141.933 131.000 140.000 C131.000 138.067 131.683 136.417 133.050 135.050 C134.417 133.683 136.067 133.000 138.000 133.000 C146.078 133.000 152.693 130.760 157.844 126.280 C162.200 122.493 164.685 118.038 165.300 112.916 C165.820 108.584 164.789 105.342 162.206 103.190 C158.959 100.484 153.790 100.018 146.698 101.791 C144.823 102.260 143.056 101.997 141.399 101.002 C139.741 100.008 138.678 98.573 138.209 96.698 C137.740 94.823 138.003 93.056 138.998 91.399 C139.992 89.741 141.427 88.678 143.302 88.209"></path>
<path id="" fill="#E76F51" fill-opacity="1.0" stroke="#000000" stroke-width="0.0" stroke-opacity="1.0" stroke-linecap="round" stroke-linejoin="round"  filling="0" d="M50.000 80.000 C53.333 101.667 56.667 123.333 60.000 145.000 C63.333 155.000 76.667 160.000 100.000 160.000 C123.333 160.000 136.667 155.000 140.000 145.000 C143.333 123.333 146.667 101.667 150.000 80.000 C116.667 80.000 83.333 80.000 50.000 80.000"></path>
<path id="" fill="#F4A261" fill-opacity="1.0" stroke="#000000" stroke-width="0.0" stroke-opacity="1.0" stroke-linecap="round" stroke-linejoin="round"  filling="0" d="M150.000 80.000 C150.000 83.712 144.729 87.275 135.355 89.899 C125.982 92.524 113.256 94.000 100.000 94.000 C86.744 94.000 74.018 92.524 64.645 89.899 C55.271 87.275 50.000 83.712 50.000 80.000 C50.000 76.288 55.271 72.725 64.645 70.101 C74.018 67.476 86.744 66.000 100.000 66.000 C113.256 66.000 125.982 67.476 135.355 70.101 C144.729 72.725 150.000 76.288 150.000 80.000"></path>
<path id="" fill="#3E2723" fill-opacity="1.0" stroke="#000000" stroke-width="0.0" stroke-opacity="1.0" stroke-linecap="round" stroke-linejoin="round"  filling="0" d="M144.000 82.000 C144.000 84.916 139.361 87.716 131.113 89.778 C122.864 91.840 111.665 93.000 100.000 93.000 C88.335 93.000 77.136 91.840 68.887 89.778 C60.639 87.716 56.000 84.916 56.000 82.000 C56.000 79.084 60.639 76.284 68.887 74.222 C77.136 72.160 88.335 71.000 100.000 71.000 C111.665 71.000 122.864 72.160 131.113 74.222 C139.361 76.284 144.000 79.084 144.000 82.000"></path>
<path id="" fill="#FFFFFF" fill-opacity="1.0" stroke="#000000" stroke-width="0.0" stroke-opacity="1.0" stroke-linecap="round" stroke-linejoin="round"  filling="0" d="M60.000 88.000 C62.667 106.000 65.333 124.000 68.000 142.000 C70.667 148.667 76.333 153.000 85.000 155.000 C78.333 145.000 72.667 122.667 68.000 88.000 C65.333 88.000 62.667 88.000 60.000 88.000"></path>
<path id="" fill="#BCAAA4" fill-opacity="1.0" stroke="#000000" stroke-width="0.0" stroke-opacity="1.0" stroke-linecap="round" stroke-linejoin="round"  filling="0" d="M83.336 61.109 C76.176 50.370 76.176 39.630 83.336 28.891 C86.445 24.226 88.000 20.429 88.000 17.500 C88.000 14.991 86.702 13.087 84.106 11.789 C82.913 11.192 82.615 10.298 83.211 9.106 C83.509 8.509 83.882 8.137 84.329 7.988 C84.776 7.839 85.298 7.913 85.894 8.211 C89.965 10.246 92.000 13.343 92.000 17.500 C92.000 21.237 90.221 25.774 86.664 31.109 C80.491 40.370 80.491 49.630 86.664 58.891 C87.403 60.000 87.218 60.925 86.109 61.664 C85.554 62.034 85.046 62.173 84.584 62.080 C84.122 61.987 83.706 61.664 83.336 61.109"></path>
<path id="" fill="#BCAAA4" fill-opacity="1.0" stroke="#000000" stroke-width="0.0" stroke-opacity="1.0" stroke-linecap="round" stroke-linejoin="round"  filling="0" d="M97.920 66.387 C90.637 55.462 90.637 44.538 97.920 33.613 C100.973 29.033 102.500 25.329 102.500 22.500 C102.500 20.197 101.294 18.442 98.882 17.236 C97.391 16.491 97.019 15.373 97.764 13.882 C98.509 12.391 99.627 12.019 101.118 12.764 C105.373 14.891 107.500 18.137 107.500 22.500 C107.500 26.338 105.693 30.967 102.080 36.387 C96.030 45.462 96.030 54.538 102.080 63.613 C103.005 65.000 102.774 66.155 101.387 67.080 C100.000 68.005 98.845 67.774 97.920 66.387"></path>
<path id="" fill="#BCAAA4" fill-opacity="1.0" stroke="#000000" stroke-width="0.0" stroke-opacity="1.0" stroke-linecap="round" stroke-linejoin="round"  filling="0" d="M113.336 61.109 C106.176 50.370 106.176 39.630 113.336 28.891 C116.445 24.226 118.000 20.429 118.000 17.500 C118.000 14.991 116.702 13.087 114.106 11.789 C112.913 11.192 112.615 10.298 113.211 9.106 C113.509 8.509 113.882 8.137 114.329 7.988 C114.776 7.839 115.298 7.913 115.894 8.211 C119.965 10.246 122.000 13.343 122.000 17.500 C122.000 21.237 120.221 25.774 116.664 31.109 C110.491 40.370 110.491 49.630 116.664 58.891 C117.403 60.000 117.218 60.925 116.109 61.664 C115.554 62.034 115.046 62.173 114.584 62.080 C114.122 61.987 113.706 61.664 113.336 61.109"></path>
<path id="" fill="#f8fbf8" fill-opacity="1.0" stroke="#000000" stroke-width="0.0" stroke-opacity="1.0" stroke-linecap="round" stroke-linejoin="round"  filling="0" d="M56.500 118.000 C56.000 118.500 55.500 119.000 55.000 119.500 C54.000 119.500 53.000 119.500 52.000 119.500 C51.667 119.167 51.333 118.833 51.000 118.500 C50.333 118.500 49.667 118.500 49.000 118.500 C48.667 118.833 48.333 119.167 48.000 119.500 C46.333 119.500 44.667 119.500 43.000 119.500 C42.667 119.167 42.333 118.833 42.000 118.500 C41.667 118.500 41.333 118.500 41.000 118.500 C40.667 118.167 40.333 117.833 40.000 117.500 C39.667 117.500 39.333 117.500 39.000 117.500 C38.667 117.833 38.333 118.167 38.000 118.500 C37.000 118.500 36.000 118.500 35.000 118.500 C34.667 118.833 34.333 119.167 34.000 119.500 C33.000 119.500 32.000 119.500 31.000 119.500 C30.333 118.833 29.667 118.167 29.000 117.500 C28.000 117.500 27.000 117.500 26.000 117.500 C25.667 117.833 25.333 118.167 25.000 118.500 C24.333 118.500 23.667 118.500 23.000 118.500 C22.667 118.167 22.333 117.833 22.000 117.500 C21.667 117.500 21.333 117.500 21.000 117.500 C20.500 117.000 20.000 116.500 19.500 116.000 C19.500 114.000 19.500 112.000 19.500 110.000 C19.833 109.667 20.167 109.333 20.500 109.000 C20.500 108.333 20.500 107.667 20.500 107.000 C22.000 105.500 23.500 104.000 25.000 102.500 C26.667 102.500 28.333 102.500 30.000 102.500 C30.333 102.833 30.667 103.167 31.000 103.500 C33.000 103.500 35.000 103.500 37.000 103.500 C37.333 103.167 37.667 102.833 38.000 102.500 C39.000 102.500 40.000 102.500 41.000 102.500 C41.667 101.833 42.333 101.167 43.000 100.500 C43.333 100.500 43.667 100.500 44.000 100.500 C44.333 100.167 44.667 99.833 45.000 99.500 C46.000 99.500 47.000 99.500 48.000 99.500 C48.500 100.000 49.000 100.500 49.500 101.000 C49.500 101.333 49.500 101.667 49.500 102.000 C50.500 103.000 51.500 104.000 52.500 105.000 C52.500 105.333 52.500 105.667 52.500 106.000 C52.667 106.167 52.833 106.333 53.000 106.500 C54.000 106.500 55.000 106.500 56.000 106.500 C56.167 106.667 56.333 106.833 56.500 107.000 C56.500 108.333 56.500 109.667 56.500 111.000 C55.167 111.667 53.833 112.333 52.500 113.000 C52.667 113.167 52.833 113.333 53.000 113.500 C53.667 113.500 54.333 113.500 55.000 113.500 C55.167 113.667 55.333 113.833 55.500 114.000 C55.500 114.333 55.500 114.667 55.500 115.000 C55.833 115.333 56.167 115.667 56.500 116.000 C56.500 116.667 56.500 117.333 56.500 118.000"></path>
<path id="" fill="#f3f5f7" fill-opacity="1.0" stroke="#000000" stroke-width="0.0" stroke-opacity="1.0" stroke-linecap="round" stroke-linejoin="round"  filling="0" d="M182.000 179.500 C181.667 179.500 181.333 179.500 181.000 179.500 C180.333 178.833 179.667 178.167 179.000 177.500 C178.667 177.500 178.333 177.500 178.000 177.500 C176.833 176.333 175.667 175.167 174.500 174.000 C174.500 159.667 174.500 145.333 174.500 131.000 C175.000 130.500 175.500 130.000 176.000 129.500 C177.333 129.500 178.667 129.500 180.000 129.500 C180.333 129.833 180.667 130.167 181.000 130.500 C181.667 130.500 182.333 130.500 183.000 130.500 C183.500 131.000 184.000 131.500 184.500 132.000 C184.500 133.000 184.500 134.000 184.500 135.000 C184.833 135.333 185.167 135.667 185.500 136.000 C185.500 144.000 185.500 152.000 185.500 160.000 C185.833 160.333 186.167 160.667 186.500 161.000 C186.500 166.333 186.500 171.667 186.500 177.000 C186.000 177.500 185.500 178.000 185.000 178.500 C184.333 178.500 183.667 178.500 183.000 178.500 C182.667 178.833 182.333 179.167 182.000 179.500"></path>
<path id="" fill="#fdfdfd" fill-opacity="1.0" stroke="#000000" stroke-width="0.0" stroke-opacity="1.0" stroke-linecap="round" stroke-linejoin="round"  filling="0" d="M143.000 114.500 C142.833 114.333 142.667 114.167 142.500 114.000 C142.500 113.333 142.500 112.667 142.500 112.000 C142.833 111.667 143.167 111.333 143.500 111.000 C143.500 110.000 143.500 109.000 143.500 108.000 C143.833 107.667 144.167 107.333 144.500 107.000 C144.500 106.333 144.500 105.667 144.500 105.000 C144.833 104.667 145.167 104.333 145.500 104.000 C145.500 100.333 145.500 96.667 145.500 93.000 C145.833 92.667 146.167 92.333 146.500 92.000 C146.500 91.667 146.500 91.333 146.500 91.000 C146.667 90.833 146.833 90.667 147.000 90.500 C149.000 90.500 151.000 90.500 153.000 90.500 C153.333 90.833 153.667 91.167 154.000 91.500 C154.333 91.500 154.667 91.500 155.000 91.500 C155.333 91.833 155.667 92.167 156.000 92.500 C156.333 92.500 156.667 92.500 157.000 92.500 C157.500 93.000 158.000 93.500 158.500 94.000 C158.500 94.667 158.500 95.333 158.500 96.000 C158.833 96.333 159.167 96.667 159.500 97.000 C159.500 99.333 159.500 101.667 159.500 104.000 C159.167 104.333 158.833 104.667 158.500 105.000 C158.500 105.333 158.500 105.667 158.500 106.000 C157.833 106.667 157.167 107.333 156.500 108.000 C156.500 108.333 156.500 108.667 156.500 109.000 C155.667 109.833 154.833 110.667 154.000 111.500 C153.667 111.500 153.333 111.500 153.000 111.500 C152.333 112.167 151.667 112.833 151.000 113.500 C150.333 113.500 149.667 113.500 149.000 113.500 C148.667 113.833 148.333 114.167 148.000 114.500 C146.333 114.500 144.667 114.500 143.000 114.500"></path>
<path id="" fill="#fafcf9" fill-opacity="1.0" stroke="#000000" stroke-width="0.0" stroke-opacity="1.0" stroke-linecap="round" stroke-linejoin="round"  filling="0" d="M113.000 150.500 C112.500 150.000 112.000 149.500 111.500 149.000 C111.500 148.333 111.500 147.667 111.500 147.000 C112.167 146.333 112.833 145.667 113.500 145.000 C113.500 144.667 113.500 144.333 113.500 144.000 C116.167 141.333 118.833 138.667 121.500 136.000 C121.500 135.667 121.500 135.333 121.500 135.000 C122.500 134.000 123.500 133.000 124.500 132.000 C124.500 131.667 124.500 131.333 124.500 131.000 C125.167 130.333 125.833 129.667 126.500 129.000 C126.500 128.667 126.500 128.333 126.500 128.000 C126.833 127.667 127.167 127.333 127.500 127.000 C127.500 126.667 127.500 126.333 127.500 126.000 C127.833 125.667 128.167 125.333 128.500 125.000 C128.500 124.667 128.500 124.333 128.500 124.000 C129.000 123.500 129.500 123.000 130.000 122.500 C130.333 122.500 130.667 122.500 131.000 122.500 C131.333 122.833 131.667 123.167 132.000 123.500 C132.333 123.500 132.667 123.500 133.000 123.500 C133.333 123.833 133.667 124.167 134.000 124.500 C134.333 124.500 134.667 124.500 135.000 124.500 C135.500 125.000 136.000 125.500 136.500 126.000 C136.500 126.667 136.500 127.333 136.500 128.000 C136.167 128.333 135.833 128.667 135.500 129.000 C135.500 129.333 135.500 129.667 135.500 130.000 C135.167 130.333 134.833 130.667 134.500 131.000 C134.500 131.333 134.500 131.667 134.500 132.000 C133.833 132.667 133.167 133.333 132.500 134.000 C132.500 134.333 132.500 134.667 132.500 135.000 C131.500 136.000 130.500 137.000 129.500 138.000 C129.500 138.333 129.500 138.667 129.500 139.000 C127.833 140.667 126.167 142.333 124.500 144.000 C124.500 144.333 124.500 144.667 124.500 145.000 C123.333 146.167 122.167 147.333 121.000 148.500 C120.667 148.500 120.333 148.500 120.000 148.500 C119.667 148.833 119.333 149.167 119.000 149.500 C118.667 149.500 118.333 149.500 118.000 149.500 C117.667 149.833 117.333 150.167 117.000 150.500 C115.667 150.500 114.333 150.500 113.000 150.500"></path>
<path id="" fill="#906b6a" fill-opacity="1.0" stroke="#000000" stroke-width="0.0" stroke-opacity="1.0" stroke-linecap="round" stroke-linejoin="round"  filling="0" d="M199.000 28.500 C197.333 28.500 195.667 28.500 194.000 28.500 C193.167 27.667 192.333 26.833 191.500 26.000 C191.500 23.333 191.500 20.667 191.500 18.000 C191.167 17.667 190.833 17.333 190.500 17.000 C190.500 13.000 190.500 9.000 190.500 5.000 C190.167 4.667 189.833 4.333 189.500 4.000 C189.833 3.667 190.167 3.333 190.500 3.000 C190.500 2.667 190.500 2.333 190.500 2.000 C190.167 1.667 189.833 1.333 189.500 1.000 C189.833 0.667 190.167 0.333 190.500 0.000 C193.333 9.500 196.167 19.000 199.000 28.500"></path>
<path id="" fill="#fcfdfd" fill-opacity="1.0" stroke="#000000" stroke-width="0.0" stroke-opacity="1.0" stroke-linecap="round" stroke-linejoin="round"  filling="0" d="M138.500 75.000 C138.000 75.500 137.500 76.000 137.000 76.500 C136.667 76.500 136.333 76.500 136.000 76.500 C135.333 77.167 134.667 77.833 134.000 78.500 C133.667 78.500 133.333 78.500 133.000 78.500 C132.667 78.833 132.333 79.167 132.000 79.500 C131.667 79.500 131.333 79.500 131.000 79.500 C130.667 79.833 130.333 80.167 130.000 80.500 C129.333 80.500 128.667 80.500 128.000 80.500 C127.667 80.833 127.333 81.167 127.000 81.500 C126.333 81.500 125.667 81.500 125.000 81.500 C124.833 81.333 124.667 81.167 124.500 81.000 C124.500 80.000 124.500 79.000 124.500 78.000 C125.500 77.000 126.500 76.000 127.500 75.000 C127.500 74.667 127.500 74.333 127.500 74.000 C127.833 73.667 128.167 73.333 128.500 73.000 C128.500 72.667 128.500 72.333 128.500 72.000 C128.333 71.833 128.167 71.667 128.000 71.500 C123.667 71.500 119.333 71.500 115.000 71.500 C113.833 70.333 112.667 69.167 111.500 68.000 C111.500 67.333 111.500 66.667 111.500 66.000 C112.333 65.167 113.167 64.333 114.000 63.500 C115.667 63.500 117.333 63.500 119.000 63.500 C119.333 63.833 119.667 64.167 120.000 64.500 C120.333 64.500 120.667 64.500 121.000 64.500 C121.333 64.833 121.667 65.167 122.000 65.500 C123.000 65.500 124.000 65.500 125.000 65.500 C125.333 65.833 125.667 66.167 126.000 66.500 C128.000 66.500 130.000 66.500 132.000 66.500 C132.333 66.833 132.667 67.167 133.000 67.500 C134.000 67.500 135.000 67.500 136.000 67.500 C136.833 68.333 137.667 69.167 138.500 70.000 C138.500 71.667 138.500 73.333 138.500 75.000"></path>
<path id="" fill="#020504" fill-opacity="1.0" stroke="#000000" stroke-width="0.0" stroke-opacity="1.0" stroke-linecap="round" stroke-linejoin="round"  filling="0" d="M49.500 77.000 C49.500 75.333 49.500 73.667 49.500 72.000 C49.833 71.667 50.167 71.333 50.500 71.000 C50.500 70.667 50.500 70.333 50.500 70.000 C53.333 67.167 56.167 64.333 59.000 61.500 C62.000 61.500 65.000 61.500 68.000 61.500 C68.333 61.833 68.667 62.167 69.000 62.500 C70.333 62.500 71.667 62.500 73.000 62.500 C73.333 62.833 73.667 63.167 74.000 63.500 C74.667 63.500 75.333 63.500 76.000 63.500 C76.333 63.833 76.667 64.167 77.000 64.500 C78.000 64.500 79.000 64.500 80.000 64.500 C80.167 64.667 80.333 64.833 80.500 65.000 C80.500 65.333 80.500 65.667 80.500 66.000 C80.000 66.500 79.500 67.000 79.000 67.500 C75.667 67.500 72.333 67.500 69.000 67.500 C68.667 67.833 68.333 68.167 68.000 68.500 C67.333 68.500 66.667 68.500 66.000 68.500 C65.667 68.167 65.333 67.833 65.000 67.500 C64.000 67.500 63.000 67.500 62.000 67.500 C60.833 68.667 59.667 69.833 58.500 71.000 C58.500 74.000 58.500 77.000 58.500 80.000 C58.000 80.500 57.500 81.000 57.000 81.500 C56.333 81.500 55.667 81.500 55.000 81.500 C54.667 81.167 54.333 80.833 54.000 80.500 C53.667 80.500 53.333 80.500 53.000 80.500 C51.833 79.333 50.667 78.167 49.500 77.000"></path>
<path id="" fill="#eecd2f" fill-opacity="1.0" stroke="#000000" stroke-width="0.0" stroke-opacity="1.0" stroke-linecap="round" stroke-linejoin="round"  filling="0" d="M107.500 160.000 C107.167 160.333 106.833 160.667 106.500 161.000 C106.500 161.333 106.500 161.667 106.500 162.000 C106.000 162.500 105.500 163.000 105.000 163.500 C103.667 163.500 102.333 163.500 101.000 163.500 C100.667 163.833 100.333 164.167 100.000 164.500 C96.667 164.500 93.333 164.500 90.000 164.500 C88.833 163.333 87.667 162.167 86.500 161.000 C86.500 160.667 86.500 160.333 86.500 160.000 C86.167 159.667 85.833 159.333 85.500 159.000 C85.500 158.667 85.500 158.333 85.500 158.000 C85.167 157.667 84.833 157.333 84.500 157.000 C84.500 156.667 84.500 156.333 84.500 156.000 C85.000 155.500 85.500 155.000 86.000 154.500 C86.333 154.500 86.667 154.500 87.000 154.500 C87.333 154.833 87.667 155.167 88.000 155.500 C92.000 155.500 96.000 155.500 100.000 155.500 C100.333 155.167 100.667 154.833 101.000 154.500 C102.667 154.500 104.333 154.500 106.000 154.500 C106.500 155.000 107.000 155.500 107.500 156.000 C107.500 157.333 107.500 158.667 107.500 160.000"></path>
<path id="" fill="#030204" fill-opacity="1.0" stroke="#000000" stroke-width="0.0" stroke-opacity="1.0" stroke-linecap="round" stroke-linejoin="round"  filling="0" d="M105.500 75.000 C104.667 75.833 103.833 76.667 103.000 77.500 C99.667 77.500 96.333 77.500 93.000 77.500 C92.167 76.667 91.333 75.833 90.500 75.000 C90.500 74.667 90.500 74.333 90.500 74.000 C90.167 73.667 89.833 73.333 89.500 73.000 C89.500 72.333 89.500 71.667 89.500 71.000 C89.167 70.667 88.833 70.333 88.500 70.000 C88.500 69.667 88.500 69.333 88.500 69.000 C89.667 67.833 90.833 66.667 92.000 65.500 C93.667 65.500 95.333 65.500 97.000 65.500 C97.333 65.167 97.667 64.833 98.000 64.500 C99.333 64.500 100.667 64.500 102.000 64.500 C102.333 64.833 102.667 65.167 103.000 65.500 C103.333 65.500 103.667 65.500 104.000 65.500 C104.500 66.000 105.000 66.500 105.500 67.000 C105.500 69.667 105.500 72.333 105.500 75.000"></path>
<path id="" fill="#fdfefc" fill-opacity="1.0" stroke="#000000" stroke-width="0.0" stroke-opacity="1.0" stroke-linecap="round" stroke-linejoin="round"  filling="0" d="M57.000 52.500 C56.667 52.167 56.333 51.833 56.000 51.500 C54.333 51.500 52.667 51.500 51.000 51.500 C50.667 51.167 50.333 50.833 50.000 50.500 C49.667 50.500 49.333 50.500 49.000 50.500 C48.667 50.167 48.333 49.833 48.000 49.500 C47.667 49.500 47.333 49.500 47.000 49.500 C46.833 49.333 46.667 49.167 46.500 49.000 C46.500 46.667 46.500 44.333 46.500 42.000 C46.833 41.667 47.167 41.333 47.500 41.000 C47.500 40.667 47.500 40.333 47.500 40.000 C47.167 39.667 46.833 39.333 46.500 39.000 C46.500 38.000 46.500 37.000 46.500 36.000 C47.333 35.167 48.167 34.333 49.000 33.500 C49.667 33.500 50.333 33.500 51.000 33.500 C51.833 34.333 52.667 35.167 53.500 36.000 C53.500 36.667 53.500 37.333 53.500 38.000 C53.833 38.333 54.167 38.667 54.500 39.000 C54.500 39.667 54.500 40.333 54.500 41.000 C55.333 41.833 56.167 42.667 57.000 43.500 C57.333 43.500 57.667 43.500 58.000 43.500 C58.167 43.667 58.333 43.833 58.500 44.000 C58.500 46.333 58.500 48.667 58.500 51.000 C58.000 51.500 57.500 52.000 57.000 52.500"></path>
<path id="" fill="#fdfefd" fill-opacity="1.0" stroke="#000000" stroke-width="0.0" stroke-opacity="1.0" stroke-linecap="round" stroke-linejoin="round"  filling="0" d="M178.000 77.500 C177.833 77.333 177.667 77.167 177.500 77.000 C177.500 69.667 177.500 62.333 177.500 55.000 C177.167 54.667 176.833 54.333 176.500 54.000 C176.500 51.667 176.500 49.333 176.500 47.000 C176.833 46.667 177.167 46.333 177.500 46.000 C177.500 45.000 177.500 44.000 177.500 43.000 C178.333 42.167 179.167 41.333 180.000 40.500 C180.333 40.500 180.667 40.500 181.000 40.500 C181.167 40.667 181.333 40.833 181.500 41.000 C181.500 44.000 181.500 47.000 181.500 50.000 C181.833 50.333 182.167 50.667 182.500 51.000 C182.500 52.000 182.500 53.000 182.500 54.000 C182.167 54.333 181.833 54.667 181.500 55.000 C181.500 62.333 181.500 69.667 181.500 77.000 C181.333 77.167 181.167 77.333 181.000 77.500 C180.000 77.500 179.000 77.500 178.000 77.500"></path>
<path id="" fill="#d9ced0" fill-opacity="1.0" stroke="#000000" stroke-width="0.0" stroke-opacity="1.0" stroke-linecap="round" stroke-linejoin="round"  filling="0" d="M199.000 16.500 C196.667 16.500 194.333 16.500 192.000 16.500 C191.500 16.000 191.000 15.500 190.500 15.000 C190.500 10.000 190.500 5.000 190.500 0.000 C193.333 5.500 196.167 11.000 199.000 16.500"></path>
<path id="" fill="#080709" fill-opacity="1.0" stroke="#000000" stroke-width="0.0" stroke-opacity="1.0" stroke-linecap="round" stroke-linejoin="round"  filling="0" d="M84.000 27.500 C83.833 27.333 83.667 27.167 83.500 27.000 C83.500 26.667 83.500 26.333 83.500 26.000 C83.833 25.667 84.167 25.333 84.500 25.000 C84.500 24.667 84.500 24.333 84.500 24.000 C85.167 23.333 85.833 22.667 86.500 22.000 C86.500 21.667 86.500 21.333 86.500 21.000 C87.500 20.000 88.500 19.000 89.500 18.000 C89.500 17.667 89.500 17.333 89.500 17.000 C89.833 16.667 90.167 16.333 90.500 16.000 C90.500 14.333 90.500 12.667 90.500 11.000 C90.167 10.667 89.833 10.333 89.500 10.000 C89.500 9.667 89.500 9.333 89.500 9.000 C89.000 8.500 88.500 8.000 88.000 7.500 C87.667 7.500 87.333 7.500 87.000 7.500 C86.667 7.167 86.333 6.833 86.000 6.500 C85.667 6.500 85.333 6.500 85.000 6.500 C84.833 6.333 84.667 6.167 84.500 6.000 C84.500 5.333 84.500 4.667 84.500 4.000 C84.667 3.833 84.833 3.667 85.000 3.500 C85.667 3.500 86.333 3.500 87.000 3.500 C87.333 3.167 87.667 2.833 88.000 2.500 C89.333 2.500 90.667 2.500 92.000 2.500 C92.333 2.833 92.667 3.167 93.000 3.500 C93.333 3.500 93.667 3.500 94.000 3.500 C94.667 4.167 95.333 4.833 96.000 5.500 C96.333 5.500 96.667 5.500 97.000 5.500 C97.333 5.833 97.667 6.167 98.000 6.500 C98.333 6.500 98.667 6.500 99.000 6.500 C99.833 7.333 100.667 8.167 101.500 9.000 C101.500 9.667 101.500 10.333 101.500 11.000 C101.333 11.167 101.167 11.333 101.000 11.500 C100.667 11.500 100.333 11.500 100.000 11.500 C99.667 11.833 99.333 12.167 99.000 12.500 C98.667 12.500 98.333 12.500 98.000 12.500 C97.667 12.833 97.333 13.167 97.000 13.500 C96.667 13.500 96.333 13.500 96.000 13.500 C93.500 16.000 91.000 18.500 88.500 21.000 C88.500 21.333 88.500 21.667 88.500 22.000 C87.500 23.000 86.500 24.000 85.500 25.000 C85.500 25.333 85.500 25.667 85.500 26.000 C85.000 26.500 84.500 27.000 84.000 27.500"></path>
<path id="" fill="#080709" fill-opacity="1.0" stroke="#000000" stroke-width="0.0" stroke-opacity="1.0" stroke-linecap="round" stroke-linejoin="round"  filling="0" d="M83.000 28.500 C82.833 28.333 82.667 28.167 82.500 28.000 C82.667 27.833 82.833 27.667 83.000 27.500 C83.167 27.667 83.333 27.833 83.500 28.000 C83.333 28.167 83.167 28.333 83.000 28.500"></path>
<path id="" fill="#d7f3f4" fill-opacity="1.0" stroke="#000000" stroke-width="0.0" stroke-opacity="1.0" stroke-linecap="round" stroke-linejoin="round"  filling="0" d="M181.500 0.000 C184.167 0.000 186.833 0.000 189.500 0.000 C189.500 3.667 189.500 7.333 189.500 11.000 C189.833 11.333 190.167 11.667 190.500 12.000 C190.500 13.333 190.500 14.667 190.500 16.000 C190.000 16.500 189.500 17.000 189.000 17.500 C188.333 17.500 187.667 17.500 187.000 17.500 C186.667 17.833 186.333 18.167 186.000 18.500 C185.833 18.333 185.667 18.167 185.500 18.000 C185.500 17.333 185.500 16.667 185.500 16.000 C185.167 15.667 184.833 15.333 184.500 15.000 C184.500 14.667 184.500 14.333 184.500 14.000 C184.167 13.667 183.833 13.333 183.500 13.000 C183.500 12.333 183.500 11.667 183.500 11.000 C183.167 10.667 182.833 10.333 182.500 10.000 C182.500 8.333 182.500 6.667 182.500 5.000 C182.167 4.667 181.833 4.333 181.500 4.000 C181.500 2.667 181.500 1.333 181.500 0.000"></path>
<path id="" fill="#fdfdfc" fill-opacity="1.0" stroke="#000000" stroke-width="0.0" stroke-opacity="1.0" stroke-linecap="round" stroke-linejoin="round"  filling="0" d="M126.000 121.500 C124.333 121.500 122.667 121.500 121.000 121.500 C120.167 120.667 119.333 119.833 118.500 119.000 C118.500 117.000 118.500 115.000 118.500 113.000 C118.833 112.667 119.167 112.333 119.500 112.000 C119.500 111.667 119.500 111.333 119.500 111.000 C120.333 110.167 121.167 109.333 122.000 108.500 C123.000 108.500 124.000 108.500 125.000 108.500 C125.833 109.333 126.667 110.167 127.500 111.000 C127.500 111.333 127.500 111.667 127.500 112.000 C127.833 112.333 128.167 112.667 128.500 113.000 C128.500 113.333 128.500 113.667 128.500 114.000 C128.833 114.333 129.167 114.667 129.500 115.000 C129.500 116.333 129.500 117.667 129.500 119.000 C129.000 119.500 128.500 120.000 128.000 120.500 C127.667 120.500 127.333 120.500 127.000 120.500 C126.667 120.833 126.333 121.167 126.000 121.500"></path>
<path id="" fill="#d8d0cf" fill-opacity="1.0" stroke="#000000" stroke-width="0.0" stroke-opacity="1.0" stroke-linecap="round" stroke-linejoin="round"  filling="0" d="M199.000 173.500 C198.333 173.500 197.667 173.500 197.000 173.500 C196.667 173.167 196.333 172.833 196.000 172.500 C195.667 172.500 195.333 172.500 195.000 172.500 C194.167 171.667 193.333 170.833 192.500 170.000 C192.500 169.667 192.500 169.333 192.500 169.000 C192.167 168.667 191.833 168.333 191.500 168.000 C191.500 166.667 191.500 165.333 191.500 164.000 C191.833 163.667 192.167 163.333 192.500 163.000 C192.500 162.333 192.500 161.667 192.500 161.000 C193.667 159.833 194.833 158.667 196.000 157.500 C196.333 157.500 196.667 157.500 197.000 157.500 C197.333 157.167 197.667 156.833 198.000 156.500 C198.333 156.500 198.667 156.500 199.000 156.500 C199.000 162.167 199.000 167.833 199.000 173.500"></path>
<path id="" fill="#06100b" fill-opacity="1.0" stroke="#000000" stroke-width="0.0" stroke-opacity="1.0" stroke-linecap="round" stroke-linejoin="round"  filling="0" d="M79.000 56.500 C78.000 56.500 77.000 56.500 76.000 56.500 C75.833 56.333 75.667 56.167 75.500 56.000 C75.500 55.333 75.500 54.667 75.500 54.000 C75.167 53.667 74.833 53.333 74.500 53.000 C74.500 47.333 74.500 41.667 74.500 36.000 C74.833 35.667 75.167 35.333 75.500 35.000 C75.500 34.667 75.500 34.333 75.500 34.000 C75.667 33.833 75.833 33.667 76.000 33.500 C77.000 33.500 78.000 33.500 79.000 33.500 C79.167 33.667 79.333 33.833 79.500 34.000 C79.500 35.000 79.500 36.000 79.500 37.000 C79.167 37.333 78.833 37.667 78.500 38.000 C78.500 40.667 78.500 43.333 78.500 46.000 C78.833 46.333 79.167 46.667 79.500 47.000 C79.500 47.667 79.500 48.333 79.500 49.000 C79.833 49.333 80.167 49.667 80.500 50.000 C80.500 51.333 80.500 52.667 80.500 54.000 C80.167 54.333 79.833 54.667 79.500 55.000 C79.500 55.333 79.500 55.667 79.500 56.000 C79.333 56.167 79.167 56.333 79.000 56.500"></path>
<path id="" fill="#c4070b" fill-opacity="1.0" stroke="#000000" stroke-width="0.0" stroke-opacity="1.0" stroke-linecap="round" stroke-linejoin="round"  filling="0" d="M80.000 47.500 C79.833 47.333 79.667 47.167 79.500 47.000 C79.500 45.000 79.500 43.000 79.500 41.000 C79.833 40.667 80.167 40.333 80.500 40.000 C80.500 39.333 80.500 38.667 80.500 38.000 C80.833 37.667 81.167 37.333 81.500 37.000 C81.500 36.667 81.500 36.333 81.500 36.000 C81.667 35.833 81.833 35.667 82.000 35.500 C82.333 35.500 82.667 35.500 83.000 35.500 C83.667 34.833 84.333 34.167 85.000 33.500 C85.333 33.500 85.667 33.500 86.000 33.500 C86.667 32.833 87.333 32.167 88.000 31.500 C88.667 31.500 89.333 31.500 90.000 31.500 C90.333 31.167 90.667 30.833 91.000 30.500 C91.667 30.500 92.333 30.500 93.000 30.500 C93.167 30.667 93.333 30.833 93.500 31.000 C93.500 31.333 93.500 31.667 93.500 32.000 C93.833 32.333 94.167 32.667 94.500 33.000 C94.500 33.333 94.500 33.667 94.500 34.000 C93.667 34.833 92.833 35.667 92.000 36.500 C91.667 36.500 91.333 36.500 91.000 36.500 C90.667 36.833 90.333 37.167 90.000 37.500 C89.667 37.500 89.333 37.500 89.000 37.500 C88.667 37.833 88.333 38.167 88.000 38.500 C87.667 38.500 87.333 38.500 87.000 38.500 C85.500 40.000 84.000 41.500 82.500 43.000 C82.500 43.333 82.500 43.667 82.500 44.000 C82.167 44.333 81.833 44.667 81.500 45.000 C81.500 45.333 81.500 45.667 81.500 46.000 C81.000 46.500 80.500 47.000 80.000 47.500"></path>
<path id="" fill="#fcfefd" fill-opacity="1.0" stroke="#000000" stroke-width="0.0" stroke-opacity="1.0" stroke-linecap="round" stroke-linejoin="round"  filling="0" d="M126.000 108.500 C124.667 108.500 123.333 108.500 122.000 108.500 C121.167 107.667 120.333 106.833 119.500 106.000 C119.500 104.000 119.500 102.000 119.500 100.000 C120.333 99.167 121.167 98.333 122.000 97.500 C122.333 97.500 122.667 97.500 123.000 97.500 C123.333 97.167 123.667 96.833 124.000 96.500 C124.667 96.500 125.333 96.500 126.000 96.500 C126.833 97.333 127.667 98.167 128.500 99.000 C128.500 99.333 128.500 99.667 128.500 100.000 C128.833 100.333 129.167 100.667 129.500 101.000 C129.500 101.667 129.500 102.333 129.500 103.000 C129.167 103.333 128.833 103.667 128.500 104.000 C128.500 104.667 128.500 105.333 128.500 106.000 C127.667 106.833 126.833 107.667 126.000 108.500"></path>
<path id="" fill="#89fafe" fill-opacity="1.0" stroke="#000000" stroke-width="0.0" stroke-opacity="1.0" stroke-linecap="round" stroke-linejoin="round"  filling="0" d="M74.500 181.000 C74.000 181.500 73.500 182.000 73.000 182.500 C72.667 182.500 72.333 182.500 72.000 182.500 C71.000 181.500 70.000 180.500 69.000 179.500 C68.000 179.500 67.000 179.500 66.000 179.500 C65.667 179.833 65.333 180.167 65.000 180.500 C64.333 180.500 63.667 180.500 63.000 180.500 C62.667 180.833 62.333 181.167 62.000 181.500 C61.333 181.500 60.667 181.500 60.000 181.500 C59.833 181.333 59.667 181.167 59.500 181.000 C59.500 178.333 59.500 175.667 59.500 173.000 C60.667 171.833 61.833 170.667 63.000 169.500 C65.667 169.500 68.333 169.500 71.000 169.500 C71.333 169.833 71.667 170.167 72.000 170.500 C72.333 170.500 72.667 170.500 73.000 170.500 C73.167 170.667 73.333 170.833 73.500 171.000 C73.000 171.500 72.500 172.000 72.000 172.500 C69.333 172.500 66.667 172.500 64.000 172.500 C63.500 173.000 63.000 173.500 62.500 174.000 C62.500 174.333 62.500 174.667 62.500 175.000 C62.167 175.333 61.833 175.667 61.500 176.000 C61.500 176.333 61.500 176.667 61.500 177.000 C62.000 177.500 62.500 178.000 63.000 178.500 C63.333 178.167 63.667 177.833 64.000 177.500 C66.333 177.500 68.667 177.500 71.000 177.500 C71.333 177.833 71.667 178.167 72.000 178.500 C72.333 178.500 72.667 178.500 73.000 178.500 C73.500 179.000 74.000 179.500 74.500 180.000 C74.500 180.333 74.500 180.667 74.500 181.000"></path>
<path id="" fill="#00090d" fill-opacity="1.0" stroke="#000000" stroke-width="0.0" stroke-opacity="1.0" stroke-linecap="round" stroke-linejoin="round"  filling="0" d="M53.000 99.500 C51.333 99.500 49.667 99.500 48.000 99.500 C47.833 99.333 47.667 99.167 47.500 99.000 C47.500 98.667 47.500 98.333 47.500 98.000 C47.167 97.667 46.833 97.333 46.500 97.000 C46.500 93.667 46.500 90.333 46.500 87.000 C46.667 86.833 46.833 86.667 47.000 86.500 C47.333 86.500 47.667 86.500 48.000 86.500 C48.167 86.667 48.333 86.833 48.500 87.000 C48.500 87.333 48.500 87.667 48.500 88.000 C48.667 88.167 48.833 88.333 49.000 88.500 C49.333 88.500 49.667 88.500 50.000 88.500 C50.333 88.833 50.667 89.167 51.000 89.500 C51.667 89.500 52.333 89.500 53.000 89.500 C53.833 90.333 54.667 91.167 55.500 92.000 C55.500 93.667 55.500 95.333 55.500 97.000 C54.667 97.833 53.833 98.667 53.000 99.500"></path>
<path id="" fill="#e9090b" fill-opacity="1.0" stroke="#000000" stroke-width="0.0" stroke-opacity="1.0" stroke-linecap="round" stroke-linejoin="round"  filling="0" d="M187.000 191.500 C186.000 191.500 185.000 191.500 184.000 191.500 C182.833 190.333 181.667 189.167 180.500 188.000 C180.500 187.667 180.500 187.333 180.500 187.000 C180.167 186.667 179.833 186.333 179.500 186.000 C179.500 185.333 179.500 184.667 179.500 184.000 C179.833 183.667 180.167 183.333 180.500 183.000 C180.500 182.667 180.500 182.333 180.500 182.000 C181.333 181.167 182.167 180.333 183.000 179.500 C183.667 179.500 184.333 179.500 185.000 179.500 C186.167 180.667 187.333 181.833 188.500 183.000 C188.500 183.667 188.500 184.333 188.500 185.000 C188.833 185.333 189.167 185.667 189.500 186.000 C189.500 186.333 189.500 186.667 189.500 187.000 C189.167 187.333 188.833 187.667 188.500 188.000 C188.500 188.667 188.500 189.333 188.500 190.000 C188.000 190.500 187.500 191.000 187.000 191.500"></path>
<path id="" fill="#040303" fill-opacity="1.0" stroke="#000000" stroke-width="0.0" stroke-opacity="1.0" stroke-linecap="round" stroke-linejoin="round"  filling="0" d="M69.000 143.500 C68.667 143.500 68.333 143.500 68.000 143.500 C67.667 143.167 67.333 142.833 67.000 142.500 C66.667 142.500 66.333 142.500 66.000 142.500 C65.667 142.167 65.333 141.833 65.000 141.500 C64.667 141.500 64.333 141.500 64.000 141.500 C63.667 141.167 63.333 140.833 63.000 140.500 C62.667 140.500 62.333 140.500 62.000 140.500 C61.667 140.167 61.333 139.833 61.000 139.500 C60.667 139.500 60.333 139.500 60.000 139.500 C59.667 139.167 59.333 138.833 59.000 138.500 C58.667 138.500 58.333 138.500 58.000 138.500 C57.833 138.333 57.667 138.167 57.500 138.000 C57.500 137.667 57.500 137.333 57.500 137.000 C58.167 136.333 58.833 135.667 59.500 135.000 C59.500 134.667 59.500 134.333 59.500 134.000 C60.167 133.333 60.833 132.667 61.500 132.000 C61.500 131.667 61.500 131.333 61.500 131.000 C62.000 130.500 62.500 130.000 63.000 129.500 C63.333 129.500 63.667 129.500 64.000 129.500 C64.500 130.000 65.000 130.500 65.500 131.000 C65.500 131.333 65.500 131.667 65.500 132.000 C65.833 132.333 66.167 132.667 66.500 133.000 C66.500 134.000 66.500 135.000 66.500 136.000 C66.833 136.333 67.167 136.667 67.500 137.000 C67.500 137.667 67.500 138.333 67.500 139.000 C67.833 139.333 68.167 139.667 68.500 140.000 C68.500 140.333 68.500 140.667 68.500 141.000 C68.833 141.333 69.167 141.667 69.500 142.000 C69.500 142.333 69.500 142.667 69.500 143.000 C69.333 143.167 69.167 143.333 69.000 143.500"></path>
<path id="" fill="#040303" fill-opacity="1.0" stroke="#000000" stroke-width="0.0" stroke-opacity="1.0" stroke-linecap="round" stroke-linejoin="round"  filling="0" d="M70.000 144.500 C69.833 144.333 69.667 144.167 69.500 144.000 C69.667 143.833 69.833 143.667 70.000 143.500 C70.167 143.667 70.333 143.833 70.500 144.000 C70.333 144.167 70.167 144.333 70.000 144.500"></path>
<path id="" fill="#f5f6f7" fill-opacity="1.0" stroke="#000000" stroke-width="0.0" stroke-opacity="1.0" stroke-linecap="round" stroke-linejoin="round"  filling="0" d="M122.500 44.000 C122.333 44.167 122.167 44.333 122.000 44.500 C121.667 44.167 121.333 43.833 121.000 43.500 C118.667 43.500 116.333 43.500 114.000 43.500 C113.167 42.667 112.333 41.833 111.500 41.000 C111.500 40.000 111.500 39.000 111.500 38.000 C112.333 37.167 113.167 36.333 114.000 35.500 C114.333 35.500 114.667 35.500 115.000 35.500 C115.333 35.167 115.667 34.833 116.000 34.500 C117.000 34.500 118.000 34.500 119.000 34.500 C119.833 35.333 120.667 36.167 121.500 37.000 C121.500 37.333 121.500 37.667 121.500 38.000 C121.833 38.333 122.167 38.667 122.500 39.000 C122.500 40.667 122.500 42.333 122.500 44.000"></path>
<path id="" fill="#a9fdef" fill-opacity="1.0" stroke="#000000" stroke-width="0.0" stroke-opacity="1.0" stroke-linecap="round" stroke-linejoin="round"  filling="0" d="M46.000 97.500 C45.833 97.333 45.667 97.167 45.500 97.000 C45.500 96.667 45.500 96.333 45.500 96.000 C45.167 95.667 44.833 95.333 44.500 95.000 C44.500 93.667 44.500 92.333 44.500 91.000 C44.167 90.667 43.833 90.333 43.500 90.000 C43.500 89.000 43.500 88.000 43.500 87.000 C43.167 86.667 42.833 86.333 42.500 86.000 C42.500 84.667 42.500 83.333 42.500 82.000 C42.167 81.667 41.833 81.333 41.500 81.000 C41.500 78.667 41.500 76.333 41.500 74.000 C42.000 73.500 42.500 73.000 43.000 72.500 C43.500 73.000 44.000 73.500 44.500 74.000 C44.500 74.333 44.500 74.667 44.500 75.000 C44.833 75.333 45.167 75.667 45.500 76.000 C45.500 77.000 45.500 78.000 45.500 79.000 C45.833 79.333 46.167 79.667 46.500 80.000 C46.500 81.000 46.500 82.000 46.500 83.000 C46.833 83.333 47.167 83.667 47.500 84.000 C47.500 84.667 47.500 85.333 47.500 86.000 C47.167 86.333 46.833 86.667 46.500 87.000 C46.500 90.333 46.500 93.667 46.500 97.000 C46.333 97.167 46.167 97.333 46.000 97.500"></path>
<path id="" fill="#f7fdfb" fill-opacity="1.0" stroke="#000000" stroke-width="0.0" stroke-opacity="1.0" stroke-linecap="round" stroke-linejoin="round"  filling="0" d="M135.000 115.500 C134.833 115.333 134.667 115.167 134.500 115.000 C134.500 112.667 134.500 110.333 134.500 108.000 C134.833 107.667 135.167 107.333 135.500 107.000 C135.500 106.667 135.500 106.333 135.500 106.000 C135.833 105.667 136.167 105.333 136.500 105.000 C136.500 103.667 136.500 102.333 136.500 101.000 C136.833 100.667 137.167 100.333 137.500 100.000 C137.500 99.667 137.500 99.333 137.500 99.000 C137.833 98.667 138.167 98.333 138.500 98.000 C138.500 97.667 138.500 97.333 138.500 97.000 C139.000 96.500 139.500 96.000 140.000 95.500 C140.167 95.667 140.333 95.833 140.500 96.000 C140.500 100.000 140.500 104.000 140.500 108.000 C140.167 108.333 139.833 108.667 139.500 109.000 C139.500 109.667 139.500 110.333 139.500 111.000 C139.167 111.333 138.833 111.667 138.500 112.000 C138.500 112.333 138.500 112.667 138.500 113.000 C138.333 113.167 138.167 113.333 138.000 113.500 C137.667 113.500 137.333 113.500 137.000 113.500 C136.333 114.167 135.667 114.833 135.000 115.500"></path>
<path id="" fill="#140e08" fill-opacity="1.0" stroke="#000000" stroke-width="0.0" stroke-opacity="1.0" stroke-linecap="round" stroke-linejoin="round"  filling="0" d="M84.000 65.500 C83.500 65.000 83.000 64.500 82.500 64.000 C82.500 62.000 82.500 60.000 82.500 58.000 C82.833 57.667 83.167 57.333 83.500 57.000 C83.500 56.667 83.500 56.333 83.500 56.000 C83.833 55.667 84.167 55.333 84.500 55.000 C84.500 54.667 84.500 54.333 84.500 54.000 C84.667 53.833 84.833 53.667 85.000 53.500 C86.000 53.500 87.000 53.500 88.000 53.500 C88.500 54.000 89.000 54.500 89.500 55.000 C89.500 57.667 89.500 60.333 89.500 63.000 C89.000 63.500 88.500 64.000 88.000 64.500 C87.667 64.500 87.333 64.500 87.000 64.500 C86.667 64.833 86.333 65.167 86.000 65.500 C85.333 65.500 84.667 65.500 84.000 65.500"></path>
<path id="" fill="#c8120e" fill-opacity="1.0" stroke="#000000" stroke-width="0.0" stroke-opacity="1.0" stroke-linecap="round" stroke-linejoin="round"  filling="0" d="M53.000 99.500 C51.333 99.500 49.667 99.500 48.000 99.500 C47.833 99.333 47.667 99.167 47.500 99.000 C47.500 97.000 47.500 95.000 47.500 93.000 C47.833 92.667 48.167 92.333 48.500 92.000 C48.500 91.667 48.500 91.333 48.500 91.000 C49.000 90.500 49.500 90.000 50.000 89.500 C51.000 89.500 52.000 89.500 53.000 89.500 C53.833 90.333 54.667 91.167 55.500 92.000 C55.500 93.667 55.500 95.333 55.500 97.000 C54.667 97.833 53.833 98.667 53.000 99.500"></path>
<path id="" fill="#ed100d" fill-opacity="1.0" stroke="#000000" stroke-width="0.0" stroke-opacity="1.0" stroke-linecap="round" stroke-linejoin="round"  filling="0" d="M53.000 78.500 C52.500 78.000 52.000 77.500 51.500 77.000 C51.500 76.000 51.500 75.000 51.500 74.000 C51.833 73.667 52.167 73.333 52.500 73.000 C52.500 72.667 52.500 72.333 52.500 72.000 C54.000 70.500 55.500 69.000 57.000 67.500 C57.333 67.500 57.667 67.500 58.000 67.500 C58.333 67.167 58.667 66.833 59.000 66.500 C60.333 66.500 61.667 66.500 63.000 66.500 C63.167 66.667 63.333 66.833 63.500 67.000 C63.333 67.167 63.167 67.333 63.000 67.500 C62.667 67.500 62.333 67.500 62.000 67.500 C60.833 68.667 59.667 69.833 58.500 71.000 C58.500 73.000 58.500 75.000 58.500 77.000 C58.333 77.167 58.167 77.333 58.000 77.500 C57.333 77.500 56.667 77.500 56.000 77.500 C55.667 77.833 55.333 78.167 55.000 78.500 C54.333 78.500 53.667 78.500 53.000 78.500"></path>
<path id="" fill="#dffafc" fill-opacity="1.0" stroke="#000000" stroke-width="0.0" stroke-opacity="1.0" stroke-linecap="round" stroke-linejoin="round"  filling="0" d="M119.500 184.000 C119.333 184.167 119.167 184.333 119.000 184.500 C115.000 184.500 111.000 184.500 107.000 184.500 C106.833 184.333 106.667 184.167 106.500 184.000 C106.500 183.667 106.500 183.333 106.500 183.000 C106.167 182.667 105.833 182.333 105.500 182.000 C105.500 181.333 105.500 180.667 105.500 180.000 C105.667 179.833 105.833 179.667 106.000 179.500 C110.000 179.500 114.000 179.500 118.000 179.500 C118.500 180.000 119.000 180.500 119.500 181.000 C119.500 182.000 119.500 183.000 119.500 184.000"></path>
<path id="" fill="#030303" fill-opacity="1.0" stroke="#000000" stroke-width="0.0" stroke-opacity="1.0" stroke-linecap="round" stroke-linejoin="round"  filling="0" d="M87.000 31.500 C86.833 31.333 86.667 31.167 86.500 31.000 C86.833 30.667 87.167 30.333 87.500 30.000 C87.500 29.333 87.500 28.667 87.500 28.000 C87.833 27.667 88.167 27.333 88.500 27.000 C88.500 26.667 88.500 26.333 88.500 26.000 C89.833 24.667 91.167 23.333 92.500 22.000 C92.500 21.667 92.500 21.333 92.500 21.000 C93.000 20.500 93.500 20.000 94.000 19.500 C94.333 19.500 94.667 19.500 95.000 19.500 C95.333 19.167 95.667 18.833 96.000 18.500 C96.500 19.000 97.000 19.500 97.500 20.000 C97.500 20.333 97.500 20.667 97.500 21.000 C97.167 21.333 96.833 21.667 96.500 22.000 C96.500 22.333 96.500 22.667 96.500 23.000 C95.833 23.667 95.167 24.333 94.500 25.000 C94.500 25.333 94.500 25.667 94.500 26.000 C94.167 26.333 93.833 26.667 93.500 27.000 C93.500 28.000 93.500 29.000 93.500 30.000 C93.333 30.167 93.167 30.333 93.000 30.500 C92.667 30.500 92.333 30.500 92.000 30.500 C91.667 30.833 91.333 31.167 91.000 31.500 C89.667 31.500 88.333 31.500 87.000 31.500"></path>
<path id="" fill="#f6f136" fill-opacity="1.0" stroke="#000000" stroke-width="0.0" stroke-opacity="1.0" stroke-linecap="round" stroke-linejoin="round"  filling="0" d="M73.000 29.500 C72.833 29.333 72.667 29.167 72.500 29.000 C72.500 27.667 72.500 26.333 72.500 25.000 C72.833 24.667 73.167 24.333 73.500 24.000 C73.500 23.667 73.500 23.333 73.500 23.000 C73.833 22.667 74.167 22.333 74.500 22.000 C74.500 21.667 74.500 21.333 74.500 21.000 C75.333 20.167 76.167 19.333 77.000 18.500 C77.333 18.500 77.667 18.500 78.000 18.500 C78.833 19.333 79.667 20.167 80.500 21.000 C80.500 21.667 80.500 22.333 80.500 23.000 C80.167 23.333 79.833 23.667 79.500 24.000 C79.500 24.333 79.500 24.667 79.500 25.000 C79.167 25.333 78.833 25.667 78.500 26.000 C78.500 26.333 78.500 26.667 78.500 27.000 C77.667 27.833 76.833 28.667 76.000 29.500 C75.000 29.500 74.000 29.500 73.000 29.500"></path>
<path id="" fill="#e8f8f8" fill-opacity="1.0" stroke="#000000" stroke-width="0.0" stroke-opacity="1.0" stroke-linecap="round" stroke-linejoin="round"  filling="0" d="M101.500 183.000 C101.333 183.167 101.167 183.333 101.000 183.500 C98.333 183.500 95.667 183.500 93.000 183.500 C92.667 183.167 92.333 182.833 92.000 182.500 C90.000 182.500 88.000 182.500 86.000 182.500 C85.667 182.833 85.333 183.167 85.000 183.500 C84.333 183.500 83.667 183.500 83.000 183.500 C82.833 183.333 82.667 183.167 82.500 183.000 C82.500 182.333 82.500 181.667 82.500 181.000 C83.000 180.500 83.500 180.000 84.000 179.500 C85.667 179.500 87.333 179.500 89.000 179.500 C89.333 179.833 89.667 180.167 90.000 180.500 C92.333 180.500 94.667 180.500 97.000 180.500 C97.333 180.167 97.667 179.833 98.000 179.500 C98.667 179.500 99.333 179.500 100.000 179.500 C100.167 179.667 100.333 179.833 100.500 180.000 C100.500 180.333 100.500 180.667 100.500 181.000 C100.833 181.333 101.167 181.667 101.500 182.000 C101.500 182.333 101.500 182.667 101.500 183.000"></path>
<path id="" fill="#b8695c" fill-opacity="1.0" stroke="#000000" stroke-width="0.0" stroke-opacity="1.0" stroke-linecap="round" stroke-linejoin="round"  filling="0" d="M178.000 55.500 C177.833 55.333 177.667 55.167 177.500 55.000 C177.500 51.000 177.500 47.000 177.500 43.000 C178.333 42.167 179.167 41.333 180.000 40.500 C180.500 41.000 181.000 41.500 181.500 42.000 C181.500 46.000 181.500 50.000 181.500 54.000 C181.333 54.167 181.167 54.333 181.000 54.500 C180.667 54.500 180.333 54.500 180.000 54.500 C179.667 54.833 179.333 55.167 179.000 55.500 C178.667 55.500 178.333 55.500 178.000 55.500"></path>
<path id="" fill="#56e0fd" fill-opacity="1.0" stroke="#000000" stroke-width="0.0" stroke-opacity="1.0" stroke-linecap="round" stroke-linejoin="round"  filling="0" d="M21.000 117.500 C20.500 117.000 20.000 116.500 19.500 116.000 C19.500 113.667 19.500 111.333 19.500 109.000 C19.833 108.667 20.167 108.333 20.500 108.000 C20.500 107.667 20.500 107.333 20.500 107.000 C20.833 106.667 21.167 106.333 21.500 106.000 C21.500 105.667 21.500 105.333 21.500 105.000 C22.000 104.500 22.500 104.000 23.000 103.500 C23.333 103.500 23.667 103.500 24.000 103.500 C24.333 103.167 24.667 102.833 25.000 102.500 C26.667 102.500 28.333 102.500 30.000 102.500 C30.500 103.000 31.000 103.500 31.500 104.000 C31.333 104.167 31.167 104.333 31.000 104.500 C29.333 104.500 27.667 104.500 26.000 104.500 C24.833 105.667 23.667 106.833 22.500 108.000 C22.500 108.333 22.500 108.667 22.500 109.000 C22.167 109.333 21.833 109.667 21.500 110.000 C21.500 111.333 21.500 112.667 21.500 114.000 C22.000 114.500 22.500 115.000 23.000 115.500 C23.333 115.500 23.667 115.500 24.000 115.500 C24.333 115.833 24.667 116.167 25.000 116.500 C25.333 116.500 25.667 116.500 26.000 116.500 C26.167 116.667 26.333 116.833 26.500 117.000 C26.333 117.167 26.167 117.333 26.000 117.500 C24.333 117.500 22.667 117.500 21.000 117.500"></path>
<path id="" fill="#d80058" fill-opacity="1.0" stroke="#000000" stroke-width="0.0" stroke-opacity="1.0" stroke-linecap="round" stroke-linejoin="round"  filling="0" d="M180.000 77.500 C179.667 77.500 179.333 77.500 179.000 77.500 C178.500 77.000 178.000 76.500 177.500 76.000 C177.500 72.333 177.500 68.667 177.500 65.000 C178.000 64.500 178.500 64.000 179.000 63.500 C179.667 63.500 180.333 63.500 181.000 63.500 C181.167 63.667 181.333 63.833 181.500 64.000 C181.500 68.000 181.500 72.000 181.500 76.000 C181.000 76.500 180.500 77.000 180.000 77.500"></path>
<path id="" fill="#020101" fill-opacity="1.0" stroke="#000000" stroke-width="0.0" stroke-opacity="1.0" stroke-linecap="round" stroke-linejoin="round"  filling="0" d="M58.000 131.500 C57.333 131.500 56.667 131.500 56.000 131.500 C55.500 131.000 55.000 130.500 54.500 130.000 C54.500 129.667 54.500 129.333 54.500 129.000 C54.167 128.667 53.833 128.333 53.500 128.000 C53.500 126.667 53.500 125.333 53.500 124.000 C54.000 123.500 54.500 123.000 55.000 122.500 C55.667 122.500 56.333 122.500 57.000 122.500 C58.167 123.667 59.333 124.833 60.500 126.000 C60.500 126.333 60.500 126.667 60.500 127.000 C60.833 127.333 61.167 127.667 61.500 128.000 C61.167 128.333 60.833 128.667 60.500 129.000 C60.500 129.333 60.500 129.667 60.500 130.000 C60.333 130.167 60.167 130.333 60.000 130.500 C59.667 130.500 59.333 130.500 59.000 130.500 C58.667 130.833 58.333 131.167 58.000 131.500"></path>
<path id="" fill="#f84738" fill-opacity="1.0" stroke="#000000" stroke-width="0.0" stroke-opacity="1.0" stroke-linecap="round" stroke-linejoin="round"  filling="0" d="M54.000 41.500 C52.333 41.500 50.667 41.500 49.000 41.500 C48.500 41.000 48.000 40.500 47.500 40.000 C47.500 39.667 47.500 39.333 47.500 39.000 C47.167 38.667 46.833 38.333 46.500 38.000 C46.500 37.667 46.500 37.333 46.500 37.000 C46.833 36.667 47.167 36.333 47.500 36.000 C47.500 35.667 47.500 35.333 47.500 35.000 C48.000 34.500 48.500 34.000 49.000 33.500 C49.667 33.500 50.333 33.500 51.000 33.500 C51.500 34.000 52.000 34.500 52.500 35.000 C52.500 35.333 52.500 35.667 52.500 36.000 C52.833 36.333 53.167 36.667 53.500 37.000 C53.500 37.333 53.500 37.667 53.500 38.000 C53.833 38.333 54.167 38.667 54.500 39.000 C54.500 39.667 54.500 40.333 54.500 41.000 C54.333 41.167 54.167 41.333 54.000 41.500"></path>
<path id="" fill="#7884ae" fill-opacity="1.0" stroke="#000000" stroke-width="0.0" stroke-opacity="1.0" stroke-linecap="round" stroke-linejoin="round"  filling="0" d="M174.500 136.000 C174.500 134.000 174.500 132.000 174.500 130.000 C174.667 129.833 174.833 129.667 175.000 129.500 C177.000 129.500 179.000 129.500 181.000 129.500 C181.333 129.833 181.667 130.167 182.000 130.500 C182.333 130.500 182.667 130.500 183.000 130.500 C183.167 130.667 183.333 130.833 183.500 131.000 C183.500 131.667 183.500 132.333 183.500 133.000 C183.000 133.500 182.500 134.000 182.000 134.500 C180.333 134.500 178.667 134.500 177.000 134.500 C176.333 135.167 175.667 135.833 175.000 136.500 C174.833 136.333 174.667 136.167 174.500 136.000"></path>
<path id="" fill="#7a121a" fill-opacity="1.0" stroke="#000000" stroke-width="0.0" stroke-opacity="1.0" stroke-linecap="round" stroke-linejoin="round"  filling="0" d="M95.500 5.000 C94.333 6.167 93.167 7.333 92.000 8.500 C91.333 8.500 90.667 8.500 90.000 8.500 C88.500 7.000 87.000 5.500 85.500 4.000 C85.667 3.833 85.833 3.667 86.000 3.500 C86.333 3.500 86.667 3.500 87.000 3.500 C87.333 3.167 87.667 2.833 88.000 2.500 C89.333 2.500 90.667 2.500 92.000 2.500 C92.333 2.833 92.667 3.167 93.000 3.500 C93.333 3.500 93.667 3.500 94.000 3.500 C94.500 4.000 95.000 4.500 95.500 5.000"></path>
<path id="" fill="#91f00f" fill-opacity="1.0" stroke="#000000" stroke-width="0.0" stroke-opacity="1.0" stroke-linecap="round" stroke-linejoin="round"  filling="0" d="M73.500 89.000 C73.333 89.167 73.167 89.333 73.000 89.500 C71.667 89.500 70.333 89.500 69.000 89.500 C68.667 89.167 68.333 88.833 68.000 88.500 C67.333 88.500 66.667 88.500 66.000 88.500 C65.500 88.000 65.000 87.500 64.500 87.000 C64.500 86.000 64.500 85.000 64.500 84.000 C64.667 83.833 64.833 83.667 65.000 83.500 C66.000 83.500 67.000 83.500 68.000 83.500 C68.667 84.167 69.333 84.833 70.000 85.500 C70.333 85.500 70.667 85.500 71.000 85.500 C71.833 86.333 72.667 87.167 73.500 88.000 C73.500 88.333 73.500 88.667 73.500 89.000"></path>
<path id="" fill="#211108" fill-opacity="1.0" stroke="#000000" stroke-width="0.0" stroke-opacity="1.0" stroke-linecap="round" stroke-linejoin="round"  filling="0" d="M191.000 26.500 C189.500 25.000 188.000 23.500 186.500 22.000 C186.500 21.667 186.500 21.333 186.500 21.000 C186.167 20.667 185.833 20.333 185.500 20.000 C185.500 19.667 185.500 19.333 185.500 19.000 C185.667 18.833 185.833 18.667 186.000 18.500 C186.333 18.500 186.667 18.500 187.000 18.500 C187.333 18.167 187.667 17.833 188.000 17.500 C189.000 17.500 190.000 17.500 191.000 17.500 C191.167 17.667 191.333 17.833 191.500 18.000 C191.500 20.667 191.500 23.333 191.500 26.000 C191.333 26.167 191.167 26.333 191.000 26.500"></path>
<path id="" fill="#010101" fill-opacity="1.0" stroke="#000000" stroke-width="0.0" stroke-opacity="1.0" stroke-linecap="round" stroke-linejoin="round"  filling="0" d="M110.000 17.500 C109.333 17.500 108.667 17.500 108.000 17.500 C107.167 16.667 106.333 15.833 105.500 15.000 C105.500 14.000 105.500 13.000 105.500 12.000 C106.000 11.500 106.500 11.000 107.000 10.500 C107.333 10.500 107.667 10.500 108.000 10.500 C108.333 10.833 108.667 11.167 109.000 11.500 C109.333 11.500 109.667 11.500 110.000 11.500 C110.500 12.000 111.000 12.500 111.500 13.000 C111.500 14.000 111.500 15.000 111.500 16.000 C111.000 16.500 110.500 17.000 110.000 17.500"></path>
<path id="" fill="#090815" fill-opacity="1.0" stroke="#000000" stroke-width="0.0" stroke-opacity="1.0" stroke-linecap="round" stroke-linejoin="round"  filling="0" d="M103.500 31.000 C103.167 31.333 102.833 31.667 102.500 32.000 C102.500 32.333 102.500 32.667 102.500 33.000 C102.333 33.167 102.167 33.333 102.000 33.500 C100.000 33.500 98.000 33.500 96.000 33.500 C95.833 33.333 95.667 33.167 95.500 33.000 C95.500 32.667 95.500 32.333 95.500 32.000 C95.833 31.667 96.167 31.333 96.500 31.000 C96.500 30.667 96.500 30.333 96.500 30.000 C97.000 29.500 97.500 29.000 98.000 28.500 C99.333 28.500 100.667 28.500 102.000 28.500 C102.167 28.667 102.333 28.833 102.500 29.000 C102.500 29.333 102.500 29.667 102.500 30.000 C102.833 30.333 103.167 30.667 103.500 31.000"></path>
</svg>