<?xml version="1.0" ?>
<svg xmlns="http://www.w3.org/2000/svg" version="1.1" width="256" height="256" viewBox="0 0 256 256">
  <defs/>
  <g>
    <path d="M 175.00582886 131.88975525 C 173.35301208 141.09783936 172.00756836 146.28277588 163.57685852 157.31632996 C 156.09436035 165.91909790 149.58915710 172.10740662 139.01853943 173.48779297 C 130.68875122 173.51873779 117.01634979 174.90159607 108.02278900 171.91590881 C 96.41857147 165.61949158 96.24760437 165.59863281 86.53200531 152.52870178 C 82.70860291 144.62181091 77.42627716 132.56141663 78.66316223 121.09734344 C 80.85650635 110.76046753 80.20386505 107.23070526 86.86404419 97.83976746 C 92.74358368 89.10055542 97.80906677 86.52469635 111.71323395 83.54695129 C 122.72078705 81.08076477 131.21069336 81.97861481 141.32012939 84.11147308 C 152.33805847 85.54502106 161.42793274 89.43110657 168.15554810 99.68699646 C 174.98068237 111.20700073 175.97761536 117.91655731 175.00582886 131.88975525" stroke-width="1.73425889" fill="rgb(232, 18, 3)" opacity="1.0" stroke="rgb(65, 0, 0)" stroke-opacity="0.8916745" stroke-linecap="round" stroke-linejoin="round"/>
    <path d="M 94.76849365 107.08989716 C 94.56938171 105.84311676 95.00609589 104.44628906 95.55094910 103.54396820 C 96.35776520 102.16455841 96.90921783 101.28047180 98.34892273 100.75112152 C 99.44671631 100.44234467 100.52552032 100.01824188 102.13672638 100.09616852 C 103.45510864 100.29904175 104.29488373 100.74501801 105.49707794 102.37144470 C 105.94844818 103.19711304 106.65762329 104.48220062 106.73310852 106.29055023 C 106.55883789 107.47539520 106.51136017 108.28300476 106.10001373 109.27627563 C 105.41724396 110.74032593 104.51212311 111.67861938 103.11696625 112.42599487 C 102.24372864 112.80434418 100.85789490 113.28457642 99.11086273 113.06727600 C 98.22117615 112.72050476 97.02584839 112.37551117 96.10301208 111.03234100 C 95.16600037 109.45287323 95.00238037 108.50516510 94.76849365 107.08989716" stroke-width="0.71246940" fill="rgb(249, 220, 218)" opacity="1.0" stroke="rgb(118, 132, 146)" stroke-opacity="0.3129028" stroke-linecap="round" stroke-linejoin="round"/>
    <path d="M 129.36936951 74.67805481 C 129.36940002 74.67739868 129.36941528 74.67732239 129.36936951 74.67656708 C 129.36940002 74.67599487 129.36930847 74.67559814 129.36965942 74.67522430 C 129.37007141 74.67555237 129.37017822 74.67597198 129.37039185 74.67641449 C 129.37057495 74.67696381 129.37072754 74.67726135 129.37069702 74.67790222 C 129.37069702 74.67857361 129.37072754 74.67893219 129.37062073 74.67930603 C 129.37045288 74.68024445 129.37046814 74.68006134 129.37040710 74.68064880 C 129.37040710 74.68122864 129.37046814 74.68178558 129.37005615 74.68196106 C 129.36959839 74.68202972 129.36946106 74.68164062 129.36924744 74.68105316 C 129.36911011 74.68044281 129.36923218 74.68009949 129.36927795 74.67964172 C 129.36940002 74.67924500 129.36940002 74.67864990 129.36936951 74.67805481" stroke-width="0.00000000" fill="rgb(255, 255, 223)" opacity="1.0" stroke="rgb(192, 243, 233)" stroke-opacity="0.11410092" stroke-linecap="round" stroke-linejoin="round"/>
    <path d="M 130.89488220 80.04902649 C 129.83084106 79.97054291 128.58717346 80.09720612 127.11390686 79.94406891 C 126.05757141 79.82778168 124.63986969 79.42676544 123.15961456 79.18778229 C 121.63841248 78.69074249 120.47029877 78.80147552 119.46994781 78.14161682 C 118.45710754 76.97908020 117.83394623 75.74112701 118.26933289 75.23469543 C 119.42688751 74.76469421 121.13579559 74.88687897 122.23397827 74.79441833 C 124.56183624 74.99302673 124.07427979 74.90048981 125.52259827 74.95272827 C 127.20431519 74.94865417 128.54661560 75.12799835 129.77928162 75.27103424 C 130.81143188 75.45774078 131.90995789 75.70524597 133.48223877 76.85011292 C 134.79104614 77.90367126 135.58549500 78.69263458 135.08714294 79.72646332 C 134.00231934 80.12400055 132.66513062 79.83851624 130.89488220 80.04902649" stroke-width="2.00000000" fill="rgb(245, 243, 234)" opacity="1.0" stroke="rgb(255, 255, 255)" stroke-opacity="0.7545005" stroke-linecap="round" stroke-linejoin="round"/>
    <path d="M 135.51965332 73.24253845 C 135.75904846 73.18109894 136.14846802 73.04186249 136.44799805 72.96595764 C 136.82495117 72.87450409 137.13432312 72.76499939 137.44792175 72.78202057 C 137.86528015 72.82276917 138.15373230 72.91474915 138.43473816 73.03394318 C 138.81687927 73.23926544 139.12568665 73.43847656 139.22627258 73.67999268 C 139.22142029 74.01490784 138.75027466 74.08509064 138.35797119 74.07440948 C 138.01150513 74.09904480 137.83111572 74.11277008 137.56979370 74.07974243 C 137.18949890 74.09004974 136.83950806 74.05453491 136.49252319 74.06224823 C 136.10075378 74.04775238 135.77369690 74.04706573 135.47175598 74.02063751 C 135.09216309 73.97980499 134.63307190 73.88720703 134.57231140 73.66094971 C 134.89057922 73.44651794 135.05793762 73.45121765 135.51965332 73.24253845" stroke-width="1.98784029" fill="rgb(255, 255, 255)" opacity="1.0" stroke="rgb(253, 255, 255)" stroke-opacity="0.0" stroke-linecap="round" stroke-linejoin="round"/>
    <path d="M 119.96148682 83.09494019 C 117.74411011 83.02316284 115.69823456 82.71462250 113.43489075 82.53356934 C 110.89151001 81.96627808 109.41947174 81.85076141 107.10730743 80.10723877 C 105.05872345 78.02301025 104.34989929 76.65806580 103.00354004 74.78081512 C 101.66124725 71.96672058 101.22025299 70.75996399 100.00281525 67.97811890 C 99.90725708 65.42630005 102.08218384 67.93897247 105.17350769 67.61881256 C 108.58445740 68.07194519 108.27075958 67.63218689 110.78656769 68.12189484 C 113.79670715 68.59750366 115.42887878 69.26065063 117.19557953 70.17189789 C 119.68730927 71.72015381 120.90798950 73.14765930 122.09932709 74.97750092 C 123.48215485 76.88134003 124.55386353 79.45432281 125.25869751 81.25057983 C 126.09185791 83.82233429 123.09061432 82.76332092 119.96148682 83.09494019" stroke-width="1.45006907" fill="rgb(84, 180, 58)" opacity="1.0" stroke="rgb(13, 26, 6)" stroke-opacity="0.9128466" stroke-linecap="round" stroke-linejoin="round"/>
    <path d="M 129.32717896 85.87043762 C 128.90206909 88.87620544 128.78282166 89.67685699 128.54289246 93.13618469 C 128.42707825 96.56464386 127.83986664 99.78886414 127.57198334 95.59690857 C 127.86208344 92.44387817 128.41815186 90.25057983 128.16752625 87.77065277 C 128.27595520 85.42700195 128.22958374 83.28103638 128.73542786 80.39643097 C 128.78480530 77.62507629 128.31674194 76.94913483 128.10502625 73.47402954 C 127.77450562 69.45520020 128.01194763 70.59440613 127.39335632 67.33218384 C 125.75027466 64.39372253 128.79556274 65.53216553 130.53771973 65.44104767 C 131.21128845 67.17575836 130.64834595 69.80931854 130.74241638 71.91178894 C 130.22257996 74.46971893 130.21257019 76.10443878 129.99557495 78.79995728 C 129.92271423 81.83685303 129.72296143 82.07815552 129.32717896 85.87043762" stroke-width="1.58382118" fill="rgb(221, 163, 124)" opacity="1.0" stroke="rgb(61, 27, 25)" stroke-opacity="0.9728484" stroke-linecap="round" stroke-linejoin="round"/>
    <path d="M 134.97549438 99.87240601 C 133.82128906 99.88559723 132.01037598 100.54790497 130.21325684 100.75415039 C 128.55986023 101.12664032 126.72517395 101.09447479 124.81033325 100.67418671 C 123.19064331 100.42858887 121.73865509 100.21944427 119.75726318 99.67845917 C 117.99349976 99.04078674 115.62628174 99.08143616 115.17121124 98.09326935 C 116.93730927 97.43981934 118.69438934 98.07503510 120.07979584 98.39991760 C 122.89957428 98.70363617 122.99798584 98.75705719 124.38452148 98.82321930 C 125.91104889 98.66972351 127.74312592 99.15368652 129.16926575 98.95519257 C 131.47828674 98.65526581 132.33592224 98.80071259 134.16664124 98.28800964 C 136.26856995 98.38495636 138.12501526 97.49049377 139.63616943 97.83517456 C 139.50750732 99.23611450 137.60162354 99.28858948 134.97549438 99.87240601" stroke-width="0.33264601" fill="rgb(82, 9, 6)" opacity="1.0" stroke="rgb(132, 35, 44)" stroke-opacity="0.5698847" stroke-linecap="round" stroke-linejoin="round"/>
  </g>
</svg>
