<svg xmlns="http://www.w3.org/2000/svg" viewBox="0 0 512 512" height="512.0px" width="512.0px">
<path id="" fill="#FF0000" fill-opacity="1.0" stroke="#000000" stroke-width="0.0" stroke-opacity="1.0" stroke-linecap="round" stroke-linejoin="round"  filling="0" d="M356.000 256.000 C356.000 282.511 345.457 307.964 326.711 326.711 C307.964 345.457 282.511 356.000 256.000 356.000 C229.489 356.000 204.036 345.457 185.289 326.711 C166.543 307.964 156.000 282.511 156.000 256.000 C156.000 229.489 166.543 204.036 185.289 185.289 C204.036 166.543 229.489 156.000 256.000 156.000 C282.511 156.000 307.964 166.543 326.711 185.289 C345.457 204.036 356.000 229.489 356.000 256.000"></path>
<path id="" fill="#FFFFFF" fill-opacity="1.0" stroke="#000000" stroke-width="0.0" stroke-opacity="1.0" stroke-linecap="round" stroke-linejoin="round"  filling="0" d="M221.000 216.000 C221.000 218.651 219.419 221.196 216.607 223.071 C213.795 224.946 209.977 226.000 206.000 226.000 C202.023 226.000 198.205 224.946 195.393 223.071 C192.581 221.196 191.000 218.651 191.000 216.000 C191.000 213.349 192.581 210.804 195.393 208.929 C198.205 207.054 202.023 206.000 206.000 206.000 C209.977 206.000 213.795 207.054 216.607 208.929 C219.419 210.804 221.000 213.349 221.000 216.000"></path>
<path id="" fill="#8B4513" fill-opacity="1.0" stroke="#000000" stroke-width="0.0" stroke-opacity="1.0" stroke-linecap="round" stroke-linejoin="round"  filling="0" d="M254.000 156.000 C254.000 146.000 254.000 136.000 254.000 126.000 C255.333 126.000 256.667 126.000 258.000 126.000 C258.000 136.000 258.000 146.000 258.000 156.000 C256.667 156.000 255.333 156.000 254.000 156.000"></path>
<path id="" fill="#008000" fill-opacity="1.0" stroke="#000000" stroke-width="0.0" stroke-opacity="1.0" stroke-linecap="round" stroke-linejoin="round"  filling="0" d="M256.000 156.000 C242.667 142.667 229.333 139.333 216.000 146.000 C229.333 149.333 242.667 152.667 256.000 156.000"></path>
<path id="" fill="#008000" fill-opacity="1.0" stroke="#000000" stroke-width="0.0" stroke-opacity="1.0" stroke-linecap="round" stroke-linejoin="round"  filling="0" d="M256.000 156.000 C269.333 142.667 282.667 139.333 296.000 146.000 C282.667 149.333 269.333 152.667 256.000 156.000"></path>
<path id="" fill="#51b737" fill-opacity="1.0" stroke="#000000" stroke-width="0.0" stroke-opacity="1.0" stroke-linecap="round" stroke-linejoin="round"  filling="0" d="M252.500 165.000 C252.333 165.167 252.167 165.333 252.000 165.500 C249.333 165.500 246.667 165.500 244.000 165.500 C243.667 165.833 243.333 166.167 243.000 166.500 C239.333 166.500 235.667 166.500 232.000 166.500 C231.667 166.167 231.333 165.833 231.000 165.500 C228.000 165.500 225.000 165.500 222.000 165.500 C221.667 165.167 221.333 164.833 221.000 164.500 C220.000 164.500 219.000 164.500 218.000 164.500 C217.667 164.167 217.333 163.833 217.000 163.500 C216.667 163.500 216.333 163.500 216.000 163.500 C215.667 163.167 215.333 162.833 215.000 162.500 C214.667 162.500 214.333 162.500 214.000 162.500 C211.500 160.000 209.000 157.500 206.500 155.000 C206.500 154.667 206.500 154.333 206.500 154.000 C205.833 153.333 205.167 152.667 204.500 152.000 C204.500 151.667 204.500 151.333 204.500 151.000 C204.167 150.667 203.833 150.333 203.500 150.000 C203.500 149.667 203.500 149.333 203.500 149.000 C202.833 148.333 202.167 147.667 201.500 147.000 C201.500 146.667 201.500 146.333 201.500 146.000 C201.167 145.667 200.833 145.333 200.500 145.000 C200.500 144.333 200.500 143.667 200.500 143.000 C199.833 142.000 199.167 141.000 198.500 140.000 C198.500 139.000 198.500 138.000 198.500 137.000 C198.167 136.667 197.833 136.333 197.500 136.000 C197.500 134.000 197.500 132.000 197.500 130.000 C197.667 129.833 197.833 129.667 198.000 129.500 C198.333 129.500 198.667 129.500 199.000 129.500 C200.000 130.167 201.000 130.833 202.000 131.500 C204.000 131.500 206.000 131.500 208.000 131.500 C208.333 131.833 208.667 132.167 209.000 132.500 C212.333 132.500 215.667 132.500 219.000 132.500 C219.333 132.833 219.667 133.167 220.000 133.500 C221.667 133.500 223.333 133.500 225.000 133.500 C225.333 133.833 225.667 134.167 226.000 134.500 C227.000 134.500 228.000 134.500 229.000 134.500 C229.333 134.833 229.667 135.167 230.000 135.500 C230.333 135.500 230.667 135.500 231.000 135.500 C231.333 135.833 231.667 136.167 232.000 136.500 C232.333 136.500 232.667 136.500 233.000 136.500 C233.333 136.833 233.667 137.167 234.000 137.500 C234.333 137.500 234.667 137.500 235.000 137.500 C235.333 137.833 235.667 138.167 236.000 138.500 C236.333 138.500 236.667 138.500 237.000 138.500 C239.833 141.333 242.667 144.167 245.500 147.000 C245.500 147.333 245.500 147.667 245.500 148.000 C246.167 148.667 246.833 149.333 247.500 150.000 C247.500 150.333 247.500 150.667 247.500 151.000 C247.833 151.333 248.167 151.667 248.500 152.000 C248.500 152.333 248.500 152.667 248.500 153.000 C249.167 154.000 249.833 155.000 250.500 156.000 C250.500 156.667 250.500 157.333 250.500 158.000 C251.167 159.000 251.833 160.000 252.500 161.000 C252.500 162.333 252.500 163.667 252.500 165.000"></path>
<path id="" fill="#dca47c" fill-opacity="1.0" stroke="#000000" stroke-width="0.0" stroke-opacity="1.0" stroke-linecap="round" stroke-linejoin="round"  filling="0" d="M256.000 199.500 C255.333 199.500 254.667 199.500 254.000 199.500 C253.500 199.000 253.000 198.500 252.500 198.000 C252.500 192.000 252.500 186.000 252.500 180.000 C252.833 179.667 253.167 179.333 253.500 179.000 C253.500 168.333 253.500 157.667 253.500 147.000 C253.167 146.667 252.833 146.333 252.500 146.000 C252.500 143.667 252.500 141.333 252.500 139.000 C252.167 138.667 251.833 138.333 251.500 138.000 C251.500 136.000 251.500 134.000 251.500 132.000 C251.167 131.667 250.833 131.333 250.500 131.000 C250.500 130.000 250.500 129.000 250.500 128.000 C250.667 127.833 250.833 127.667 251.000 127.500 C254.333 127.500 257.667 127.500 261.000 127.500 C261.333 127.833 261.667 128.167 262.000 128.500 C262.333 128.500 262.667 128.500 263.000 128.500 C263.500 129.000 264.000 129.500 264.500 130.000 C264.500 132.000 264.500 134.000 264.500 136.000 C264.167 136.333 263.833 136.667 263.500 137.000 C263.500 141.000 263.500 145.000 263.500 149.000 C263.167 149.333 262.833 149.667 262.500 150.000 C262.500 154.000 262.500 158.000 262.500 162.000 C262.167 162.333 261.833 162.667 261.500 163.000 C261.500 164.000 261.500 165.000 261.500 166.000 C261.167 166.333 260.833 166.667 260.500 167.000 C260.500 169.667 260.500 172.333 260.500 175.000 C260.167 175.333 259.833 175.667 259.500 176.000 C259.500 179.000 259.500 182.000 259.500 185.000 C259.167 185.333 258.833 185.667 258.500 186.000 C258.500 189.000 258.500 192.000 258.500 195.000 C258.167 195.333 257.833 195.667 257.500 196.000 C257.500 196.667 257.500 197.333 257.500 198.000 C257.000 198.500 256.500 199.000 256.000 199.500"></path>
<path id="" fill="#530605" fill-opacity="1.0" stroke="#000000" stroke-width="0.0" stroke-opacity="1.0" stroke-linecap="round" stroke-linejoin="round"  filling="0" d="M279.500 197.000 C279.333 197.167 279.167 197.333 279.000 197.500 C278.000 197.500 277.000 197.500 276.000 197.500 C275.667 197.833 275.333 198.167 275.000 198.500 C274.000 198.500 273.000 198.500 272.000 198.500 C271.667 198.833 271.333 199.167 271.000 199.500 C270.000 199.500 269.000 199.500 268.000 199.500 C267.667 199.833 267.333 200.167 267.000 200.500 C265.333 200.500 263.667 200.500 262.000 200.500 C261.667 200.833 261.333 201.167 261.000 201.500 C257.000 201.500 253.000 201.500 249.000 201.500 C248.667 201.167 248.333 200.833 248.000 200.500 C246.333 200.500 244.667 200.500 243.000 200.500 C242.667 200.167 242.333 199.833 242.000 199.500 C241.000 199.500 240.000 199.500 239.000 199.500 C238.667 199.167 238.333 198.833 238.000 198.500 C236.667 198.500 235.333 198.500 234.000 198.500 C233.667 198.167 233.333 197.833 233.000 197.500 C232.333 197.500 231.667 197.500 231.000 197.500 C230.500 197.000 230.000 196.500 229.500 196.000 C229.500 195.667 229.500 195.333 229.500 195.000 C229.667 194.833 229.833 194.667 230.000 194.500 C231.667 194.500 233.333 194.500 235.000 194.500 C235.333 194.833 235.667 195.167 236.000 195.500 C238.333 195.500 240.667 195.500 243.000 195.500 C243.333 195.833 243.667 196.167 244.000 196.500 C245.667 196.500 247.333 196.500 249.000 196.500 C249.333 196.833 249.667 197.167 250.000 197.500 C251.000 197.500 252.000 197.500 253.000 197.500 C253.333 197.833 253.667 198.167 254.000 198.500 C254.333 198.500 254.667 198.500 255.000 198.500 C255.333 198.167 255.667 197.833 256.000 197.500 C257.667 197.500 259.333 197.500 261.000 197.500 C261.333 197.167 261.667 196.833 262.000 196.500 C263.333 196.500 264.667 196.500 266.000 196.500 C266.333 196.167 266.667 195.833 267.000 195.500 C269.000 195.500 271.000 195.500 273.000 195.500 C273.333 195.167 273.667 194.833 274.000 194.500 C275.667 194.500 277.333 194.500 279.000 194.500 C279.167 194.667 279.333 194.833 279.500 195.000 C279.500 195.667 279.500 196.333 279.500 197.000"></path>
</svg>