<?xml version="1.0" ?>
<svg xmlns="http://www.w3.org/2000/svg" version="1.1" width="512" height="512" viewBox="0 0 512 512">
  <defs/>
  <g>
    <path d="M 351.47167969 262.08093262 C 350.47470093 268.37957764 349.24395752 274.63171387 347.42398071 280.95458984 C 344.91537476 287.36257935 342.30151367 293.77993774 338.72592163 300.05941772 C 334.93148804 306.19558716 331.01254272 312.36236572 326.28814697 317.92355347 C 321.19696045 323.41094971 315.86108398 328.65249634 310.27020264 333.53347778 C 304.66503906 338.11428833 298.50344849 341.68170166 292.03512573 344.43734741 C 285.83651733 347.08627319 279.57693481 349.05310059 273.42581177 349.55313110 C 267.25479126 348.94799805 261.10897827 347.57708740 254.91053772 346.61437988 C 248.46546936 347.55050659 241.72860718 348.72018433 235.17431641 349.44680786 C 228.89495850 349.16445923 222.79074097 347.72131348 216.84204102 345.35284424 C 210.73571777 342.85333252 205.06105042 339.49621582 199.48933411 335.60644531 C 194.11300659 331.59310913 189.24406433 326.98977661 184.76689148 321.90222168 C 180.10913086 316.94589233 176.00593567 311.49401855 172.35174561 305.61843872 C 168.86581421 299.60327148 165.89701843 293.43972778 163.28100586 287.09786987 C 160.67881775 280.63098145 158.90155029 274.22717285 158.10949707 267.42559814 C 156.77474976 260.54415894 156.38655090 253.83961487 156.41120911 247.03999329 C 156.41465759 240.27839661 157.44110107 233.68798828 158.63937378 227.18820190 C 160.19937134 220.72328186 161.95925903 214.66517639 164.46200562 208.89389038 C 167.05287170 203.28988647 170.07325745 198.09234619 173.60707092 193.21916199 C 177.37536621 188.35647583 181.44715881 183.74130249 186.34721375 179.83267212 C 191.54512024 176.09341431 197.53942871 173.28979492 203.63769531 170.72383118 C 209.96897888 168.47564697 216.57054138 167.20176697 223.47497559 166.71528625 C 230.61077881 166.27500916 238.01921082 166.25883484 245.51652527 166.32731628 C 252.96763611 166.35536194 260.19726562 166.17138672 267.17025757 165.57722473 C 273.76516724 165.76005554 280.25051880 166.38180542 286.95776367 166.78210449 C 293.76196289 168.28587341 300.65447998 170.16157532 307.07196045 172.92666626 C 313.28204346 175.69189453 318.88446045 179.46423340 323.96624756 183.75468445 C 328.99166870 187.95524597 333.28054810 192.79418945 337.08651733 197.90614319 C 340.54476929 203.07710266 343.25466919 208.59715271 345.71932983 214.10389709 C 347.97412109 219.38787842 349.19274902 224.91610718 350.35214233 230.56437683 C 351.26074219 236.24246216 352.24017334 241.66816711 351.47167969 262.08093262" stroke-width="2.00000000" fill="rgb(231, 17, 3)" opacity="1.0" stroke="rgb(28, 0, 0)" stroke-opacity="0.9376729" stroke-linecap="round" stroke-linejoin="round"/>
    <path d="M 189.46839905 209.48019409 C 189.84675598 208.85020447 190.24110413 208.03733826 190.51330566 207.24751282 C 191.00984192 206.69009399 191.53207397 206.02505493 192.11561584 205.11659241 C 192.64999390 204.10195923 193.40097046 203.39852905 194.38516235 202.74494934 C 195.54370117 202.03253174 196.76110840 201.40246582 197.93937683 200.82925415 C 199.08038330 200.45854187 200.21752930 200.28561401 201.45994568 200.36984253 C 202.76983643 200.62759399 203.98368835 200.48735046 205.01754761 200.24621582 C 206.00616455 200.42539978 207.00772095 200.87889099 208.05311584 201.52455139 C 209.14805603 201.94636536 209.89439392 202.70674133 210.39506531 203.82226562 C 210.95080566 204.95924377 211.67088318 205.98745728 212.32644653 207.02244568 C 212.78599548 208.15107727 213.02400208 209.45191956 213.08753967 210.73672485 C 213.22213745 212.06867981 213.31153870 213.45478821 213.29266357 214.84153748 C 213.16583252 216.24990845 212.95791626 217.53550720 212.33863831 218.79420471 C 211.63296509 220.03984070 210.88801575 221.18002319 209.90153503 222.11677551 C 208.96549988 223.21417236 207.86756897 224.04042053 206.71141052 224.77397156 C 205.47636414 225.36277771 204.13053894 225.65213013 202.67677307 225.87481689 C 201.29624939 225.99140930 200.01753235 225.91972351 198.79161072 225.81785583 C 197.58668518 225.75871277 196.61593628 225.47430420 195.72244263 224.82904053 C 194.67411804 224.20726013 193.71788025 223.55664062 192.88031006 222.89920044 C 192.17810059 222.23757935 191.72460938 221.34561157 191.15060425 220.32662964 C 190.26617432 219.28872681 189.21989441 218.33152771 189.46839905 209.48019409" stroke-width="1.39099145" fill="rgb(251, 221, 216)" opacity="1.0" stroke="rgb(144, 81, 85)" stroke-opacity="0.4074103" stroke-linecap="round" stroke-linejoin="round"/>
    <path d="M 258.72766113 149.35055542 C 258.74389648 149.35235596 258.73358154 149.34851074 258.73672485 149.35641479 C 258.73794556 149.35693359 258.74697876 149.34938049 258.72293091 149.36323547 C 258.74862671 149.35624695 258.74389648 149.35708618 258.72821045 149.35867310 C 258.74478149 149.36010742 258.73907471 149.36172485 258.73727417 149.36146545 C 258.73895264 149.36152649 258.73886108 149.36895752 258.73934937 149.34957886 C 258.74053955 149.37815857 258.73681641 149.36146545 258.74224854 149.35752869 C 258.74645996 149.37622070 258.73001099 149.36497498 258.74774170 149.35647583 C 258.74600220 149.37536621 258.73474121 149.36138916 258.74539185 149.36532593 C 258.74392700 149.37240601 258.74038696 149.36325073 258.74481201 149.36721802 C 258.74655151 149.37171936 258.74319458 149.36421204 258.72766113 149.35055542" stroke-width="0.00000000" fill="rgb(255, 255, 223)" opacity="1.0" stroke="rgb(192, 243, 233)" stroke-opacity="1.0" stroke-linecap="round" stroke-linejoin="round"/>
    <path d="M 263.26663208 163.53941345 C 261.45452881 163.01019287 259.63088989 162.58062744 257.83248901 162.13156128 C 256.08978271 161.77763367 254.44291687 161.55291748 252.86128235 161.50335693 C 251.31471252 161.60522461 249.82800293 161.40608215 248.46064758 160.98591614 C 247.19740295 160.47970581 245.95587158 159.93495178 244.82543945 159.42042542 C 243.82769775 158.88958740 242.98577881 158.26223755 242.26502991 157.55976868 C 241.62548828 156.82647705 241.11186218 156.10577393 240.68684387 155.38262939 C 240.36164856 154.65339661 240.13627625 153.97634888 240.01182556 153.29516602 C 239.97084045 152.61486816 240.05816650 152.01583862 240.28106689 151.49589539 C 240.72105408 151.05381775 241.37751770 150.65476990 242.16505432 150.24533081 C 243.02153015 149.87065125 243.86585999 149.52856445 244.74375916 149.24093628 C 245.68692017 148.99566650 246.76632690 148.90722656 247.90718079 149.05261230 C 249.14599609 149.15045166 250.47789001 149.30102539 251.87428284 149.14251709 C 253.26867676 148.77943420 254.73338318 148.36589050 256.29397583 147.95600891 C 257.91900635 147.66188049 259.44854736 147.53898621 260.81332397 147.56462097 C 262.06472778 147.69250488 263.16204834 148.05851746 264.01434326 148.63281250 C 264.45324707 149.40097046 264.70053101 150.34645081 264.87036133 151.30184937 C 264.92214966 152.11785889 265.11129761 152.80061340 265.57199097 153.30653381 C 265.95013428 153.75643921 265.94955444 154.21577454 265.56906128 154.71224976 C 264.99658203 155.24790955 264.42858887 155.80189514 263.94387817 156.16873169 C 263.47265625 156.26036072 263.02975464 156.26985168 263.26663208 163.53941345" stroke-width="0.21611620" fill="rgb(230, 225, 225)" opacity="1.0" stroke="rgb(245, 240, 241)" stroke-opacity="0.45691028" stroke-linecap="round" stroke-linejoin="round"/>
    <path d="M 271.85574341 144.89665222 C 272.13726807 144.97082520 272.48257446 144.98236084 272.91439819 145.05598450 C 273.09512329 145.34031677 273.09069824 145.68376160 273.30566406 145.92300415 C 273.68203735 145.99453735 274.12628174 145.87557983 274.56692505 145.72892761 C 274.98797607 145.64871216 275.46655273 145.76522827 275.89816284 146.05728149 C 276.05728149 146.41279602 276.01446533 146.82528687 276.00595093 147.18782043 C 276.05416870 147.48120117 275.91210938 147.74394226 275.64227295 147.89979553 C 275.21966553 147.93980408 274.70727539 148.01268005 274.10208130 148.16775513 C 273.45324707 148.22189331 272.83685303 148.18429565 272.16732788 147.98260498 C 271.60751343 147.53845215 271.04620361 147.20069885 270.48391724 147.05993652 C 269.95892334 146.97964478 269.37762451 146.93782043 271.85574341 144.89665222" stroke-width="2.00000000" fill="rgb(255, 255, 255)" opacity="1.0" stroke="rgb(255, 255, 255)" stroke-opacity="0.0" stroke-linecap="round" stroke-linejoin="round"/>
    <path d="M 237.69699097 166.40164185 C 235.37434387 166.32798767 233.07336426 166.25617981 230.82218933 166.21092224 C 228.55976868 166.04859924 226.40452576 165.76715088 224.33810425 165.33085632 C 222.33969116 164.39491272 220.18719482 163.66032410 217.89578247 163.16017151 C 215.89108276 162.12629700 213.96568298 160.51434326 212.02963257 158.90478516 C 210.42892456 157.05960083 208.67523193 155.16229248 207.29168701 152.96452332 C 205.84140015 150.54501343 204.52650452 148.13174438 203.55763245 145.84165955 C 202.33546448 143.77052307 201.30827332 141.81161499 200.64627075 140.12448120 C 200.45245361 138.33662415 199.85562134 136.44190979 199.58451843 134.75492859 C 199.47482300 133.19064331 199.03114319 132.16627502 198.69969177 132.17883301 C 198.87403870 133.25874329 199.89549255 133.37873840 201.85427856 133.31700134 C 204.30824280 133.45756531 207.13606262 134.03181458 210.13142395 134.42286682 C 213.10668945 134.34902954 216.07740784 134.82571411 219.02821350 135.23728943 C 222.17362976 135.46563721 225.16491699 136.09149170 228.02835083 136.66226196 C 230.81900024 137.49089050 233.15805054 138.75991821 235.35983276 140.21734619 C 237.46624756 141.39178467 239.30397034 142.66664124 240.76499939 144.52011108 C 242.33099365 146.22875977 243.91333008 148.03684998 245.36734009 149.76905823 C 246.34927368 151.72981262 247.27798462 153.74943542 248.26564026 155.73423767 C 249.15203857 157.60131836 249.94647217 159.40087891 250.63314819 161.27969360 C 251.47566223 162.85920715 251.92724609 164.35466003 252.30235291 165.59187317 C 253.04072571 166.28096008 253.89895630 166.52612305 237.69699097 166.40164185" stroke-width="2.00000000" fill="rgb(82, 173, 54)" opacity="1.0" stroke="rgb(4, 7, 0)" stroke-opacity="0.93225753" stroke-linecap="round" stroke-linejoin="round"/>
    <path d="M 257.16366577 189.96612549 C 256.70693970 191.48475647 256.46670532 192.96450806 256.38461304 194.34463501 C 256.32604980 195.67968750 256.41394043 196.87554932 256.42996216 197.80558777 C 256.14047241 198.44544983 255.74877930 198.80642700 255.40130615 198.76362610 C 255.08494568 198.30914307 254.97671509 197.50872803 255.10231018 196.38066101 C 255.35505676 194.81208801 255.35913086 192.86677551 255.21170044 190.58874512 C 255.29454041 188.00273132 255.32019043 185.13354492 255.51951599 182.04768372 C 255.57179260 178.84635925 255.57418823 175.65304565 256.21255493 172.42597961 C 256.38589478 169.02157593 256.44232178 165.39965820 256.65402222 161.80163574 C 256.55804443 158.22879028 256.43838501 154.58769226 256.18969727 150.98394775 C 255.71759033 147.64170837 255.45855713 144.45916748 254.77854919 141.77378845 C 254.72274780 139.15270996 254.36408997 136.84237671 253.69596863 134.75375366 C 253.53424072 132.71417236 253.29743958 130.86203003 253.38075256 129.60322571 C 254.16523743 129.35781860 255.07736206 129.60337830 256.04376221 129.93069458 C 257.10903931 129.76705933 258.10159302 129.50404358 259.21496582 129.68954468 C 260.42898560 130.21754456 261.82894897 130.50233459 262.70635986 130.67193604 C 262.81246948 131.77134705 262.50271606 133.56777954 262.50543213 135.90455627 C 262.53454590 138.54956055 262.36624146 141.28955078 261.66131592 144.07945251 C 261.58822632 146.92332458 261.50177002 150.04147339 261.36770630 153.17205811 C 260.67437744 156.00167847 260.54144287 158.69059753 260.59039307 161.40246582 C 260.06567383 164.12762451 259.38262939 166.97769165 257.16366577 189.96612549" stroke-width="2.00000000" fill="rgb(191, 140, 109)" opacity="1.0" stroke="rgb(36, 7, 5)" stroke-opacity="1.0" stroke-linecap="round" stroke-linejoin="round"/>
    <path d="M 260.15664673 201.20695496 C 257.25173950 201.30070496 254.29310608 201.46957397 251.36451721 201.32525635 C 248.43208313 200.82402039 245.56251526 200.15899658 242.78204346 199.60061646 C 240.19917297 199.11892700 237.85742188 198.65811157 235.83337402 198.16261292 C 234.25933838 197.74195862 233.33779907 197.23988342 233.20942688 196.70950317 C 233.94076538 196.43458557 235.34318542 196.44422913 237.35816956 196.69894409 C 239.73587036 197.11839294 242.42102051 197.51536560 245.33129883 197.98124695 C 248.41859436 198.29499817 251.66923523 198.36164856 255.03645325 198.46627808 C 258.43954468 198.39389038 261.87213135 198.06382751 265.42669678 197.60951233 C 269.02563477 197.11152649 272.76031494 196.64842224 276.52478027 196.38237000 C 280.32986450 196.28617859 284.14785767 196.33961487 260.15664673 201.20695496" stroke-width="1.12751591" fill="rgb(69, 2, 1)" opacity="1.0" stroke="rgb(56, 29, 39)" stroke-opacity="0.42995074" stroke-linecap="round" stroke-linejoin="round"/>
  </g>
</svg>
