<?xml version="1.0" ?>
<svg xmlns="http://www.w3.org/2000/svg" version="1.1" width="256" height="256" viewBox="0 0 256 256">
  <defs/>
  <g>
    <path d="M 253.80453491 215.80935669 C 253.88171387 250.14094543 248.64553833 258.53128052 199.29803467 251.38679504 C 160.81533813 251.94195557 140.30372620 251.46914673 95.84802246 251.74108887 C 51.89163971 250.61889648 28.29076385 256.26992798 5.59722137 248.60942078 C 2.23707581 221.44705200 6.03437805 185.23599243 5.42707062 144.50561523 C 4.95050812 105.63801575 6.82820129 83.61299133 2.45175934 45.77346039 C 1.16867828 6.01475525 15.62586212 -5.22646332 49.92707062 4.53585815 C 88.61543274 4.40817261 105.03054810 2.44947815 148.36927795 3.24976349 C 193.61373901 5.26943207 218.10791016 -1.70293427 246.63224792 5.24577332 C 259.30334473 30.54625702 251.42483521 63.70649338 251.38500977 103.19390869 C 251.20748901 139.43960571 254.02029419 155.15266418 253.80453491 215.80935669" stroke-width="2.00000000" fill="rgb(248, 250, 245)" opacity="1.0" stroke="rgb(242, 235, 0)" stroke-opacity="0.35603142" stroke-linecap="round" stroke-linejoin="round"/>
    <path d="M 179.98413086 168.08158875 C 173.96264648 176.08331299 167.91128540 178.39923096 148.50903320 181.27235413 C 131.93771362 181.81054688 124.40032959 181.23370361 110.59971619 180.44865417 C 90.97297668 179.02722168 86.37095642 179.58299255 73.73268127 170.77638245 C 62.28410721 153.88035583 64.46591949 154.96697998 61.26458740 134.88310242 C 61.81323624 122.05207062 58.45111847 101.87290192 65.15216827 98.44836426 C 80.57292938 94.96655273 83.57542419 95.66844177 98.79206848 95.26672363 C 115.04294586 94.92036438 119.80180359 94.80912781 138.16842651 95.18058777 C 152.37341309 95.04216766 160.78805542 94.74197388 179.09118652 97.60350037 C 197.08529663 102.10868835 191.01269531 105.48449707 191.45236206 126.92152405 C 190.74636841 133.97659302 189.44183350 150.83673096 179.98413086 168.08158875" stroke-width="0.66525960" fill="rgb(11, 3, 6)" opacity="1.0" stroke="rgb(41, 11, 53)" stroke-opacity="0.65334016" stroke-linecap="round" stroke-linejoin="round"/>
    <path d="M 172.65713501 165.65995789 C 166.42419434 173.73791504 157.05401611 178.00979614 147.45365906 180.78399658 C 134.95394897 185.62205505 124.49283600 183.18324280 112.95692444 179.92733765 C 98.15605927 175.37620544 95.83439636 175.54159546 82.32844543 166.65899658 C 69.26200867 155.12277222 70.59516907 153.61840820 67.87384033 136.96327209 C 68.48504639 126.98339081 63.21532059 115.20561981 73.66318512 107.31515503 C 93.88689423 100.93667603 86.56112671 102.28553772 102.39201355 101.17546844 C 116.16877747 100.29223633 119.18174744 102.74342346 135.39141846 106.49099731 C 146.60842896 107.60602570 157.55908203 109.27350616 170.39241028 111.42167664 C 185.06942749 109.47795105 186.62350464 113.58038330 184.71473694 132.12898254 C 183.50021362 142.78968811 183.24034119 150.66067505 172.65713501 165.65995789" stroke-width="2.00000000" fill="rgb(115, 66, 50)" opacity="1.0" stroke="rgb(194, 137, 98)" stroke-opacity="0.87221605" stroke-linecap="round" stroke-linejoin="round"/>
    <path d="M 166.21195984 114.20323944 C 161.68278503 116.10169220 152.07978821 117.15322113 138.61294556 117.39286804 C 129.16247559 117.37924957 119.86942291 117.59126282 107.56932068 115.33766174 C 93.22185516 114.92855835 87.31552124 110.74293518 84.69979858 112.14762115 C 83.19731903 122.54543304 87.10038757 133.91323853 83.18164062 145.09179688 C 77.48776245 149.77453613 78.80453491 134.22306824 80.31213379 125.45406342 C 81.88475037 110.35839844 80.34606171 106.77848053 88.05817413 107.21701050 C 104.06245422 109.44509888 105.92820740 108.61444092 120.90059662 109.48721313 C 133.87222290 108.71492004 137.71907043 110.03873444 151.48339844 108.16443634 C 159.05291748 107.76804352 166.64874268 111.25399017 175.30508423 114.27610016 C 180.52815247 114.93727875 175.47856140 110.88512421 166.21195984 114.20323944" stroke-width="2.00000000" fill="rgb(240, 240, 238)" opacity="1.0" stroke="rgb(24, 18, 23)" stroke-opacity="1.0" stroke-linecap="round" stroke-linejoin="round"/>
    <path d="M 190.00218201 162.61866760 C 185.17631531 161.76792908 178.72679138 162.84448242 177.85845947 160.15771484 C 182.00254822 156.69764709 188.25929260 154.39619446 191.42263794 149.30178833 C 195.30934143 143.45304871 195.50582886 138.49478149 195.91381836 132.00277710 C 195.87185669 125.06957245 196.02420044 120.29678345 193.34892273 119.09353638 C 193.28599548 123.29629517 187.04176331 119.84279633 186.69351196 112.99927521 C 189.54223633 110.56797791 191.72431946 112.88047791 195.44186401 111.60758209 C 202.14830017 110.18034363 206.96496582 116.15282440 208.38458252 122.07534790 C 210.39947510 126.98150635 210.44558716 130.83889771 210.65736389 138.68934631 C 210.65707397 143.82864380 209.31872559 148.02938843 203.86238098 153.70880127 C 201.42173767 157.35473633 196.95555115 162.71473694 190.00218201 162.61866760" stroke-width="0.67825186" fill="rgb(5, 8, 8)" opacity="1.0" stroke="rgb(107, 102, 62)" stroke-opacity="0.7183538" stroke-linecap="round" stroke-linejoin="round"/>
    <path d="M 193.72731018 154.12590027 C 192.23316956 154.97001648 187.99909973 157.67160034 192.63502502 154.02497864 C 195.52401733 150.98617554 197.32977295 149.15614319 198.71363831 145.58160400 C 199.37402344 141.53256226 199.83593750 139.62467957 199.68276978 135.10256958 C 199.56739807 131.36135864 200.38699341 128.89984131 198.14988708 124.98046875 C 197.13685608 121.86214447 194.49897766 121.55101013 193.46452332 120.45210266 C 194.74884033 118.84818268 196.25689697 118.16134644 199.25627136 118.16455078 C 203.09065247 120.42298889 202.23432922 120.76691437 203.51197815 127.23681641 C 204.25259399 132.22969055 203.75868225 134.42683411 203.45401001 138.49606323 C 203.07727051 142.37512207 202.58633423 144.59515381 200.18106079 148.11003113 C 198.51312256 151.16177368 197.00013733 151.22402954 193.72731018 154.12590027" stroke-width="0.77998990" fill="rgb(250, 252, 253)" opacity="1.0" stroke="rgb(123, 203, 255)" stroke-opacity="0.5240405" stroke-linecap="round" stroke-linejoin="round"/>
    <path d="M 100.17123413 73.76226807 C 100.08230591 74.33200073 99.95445251 75.49689484 99.25648499 76.10709381 C 98.57196808 76.76406097 97.64804077 76.78042603 96.78411102 77.42803192 C 95.81467438 78.01188660 95.54067230 77.34242249 95.84297943 75.97949219 C 95.97131348 75.11385345 96.19834900 74.10749817 96.26863861 72.97379303 C 96.09590149 71.80692291 96.56158447 71.73062134 97.54122925 70.79632568 C 98.62612915 69.83814240 99.04723358 69.76515961 99.00988770 68.72323608 C 98.85405731 67.27248383 98.50654602 66.91519165 99.38748932 66.80901337 C 100.25785065 66.48764801 100.43534851 66.79301453 100.86402130 67.82948303 C 101.34680939 68.63651276 101.29155731 69.76036072 100.78330994 70.63076019 C 100.28039551 71.71166992 99.94335175 72.15293884 100.17123413 73.76226807" stroke-width="0.83827126" fill="rgb(126, 0, 48)" opacity="1.0" stroke="rgb(224, 95, 109)" stroke-opacity="0.5714194" stroke-linecap="round" stroke-linejoin="round"/>
    <path d="M 130.63719177 75.07421112 C 129.12161255 77.72132874 129.04214478 78.04344177 128.73565674 82.35588837 C 128.96339417 84.72411346 129.06845093 87.88324738 126.78498840 90.29952240 C 124.08419800 89.28450012 124.73867035 87.06877136 124.04373932 84.33844757 C 124.06408691 81.15767670 125.11630249 79.36448669 126.00057983 77.27350616 C 127.77100372 74.27526093 129.06733704 72.08240509 130.42115784 70.31522369 C 132.77659607 66.22418976 133.14376831 66.72977448 132.90876770 64.06095886 C 132.08799744 60.79468536 130.17994690 57.60377502 131.94078064 56.18271255 C 133.03572083 57.21096420 132.41226196 60.55996704 134.49792480 62.83135223 C 136.59292603 65.04636383 138.76210022 65.30766296 137.44508362 68.29930878 C 134.63342285 71.27633667 132.81411743 71.52292633 130.63719177 75.07421112" stroke-width="0.79304969" fill="rgb(157, 0, 0)" opacity="1.0" stroke="rgb(224, 112, 51)" stroke-opacity="0.49008793" stroke-linecap="round" stroke-linejoin="round"/>
    <path d="M 154.58695984 71.58147430 C 154.31784058 73.64280701 154.24177551 75.33318329 155.40003967 78.64430237 C 156.55830383 80.96047211 158.10278320 83.67012787 157.52256775 86.81876373 C 155.71211243 85.03852081 156.09437561 82.57423401 154.94895935 80.16139984 C 153.39208984 76.33109283 153.38212585 76.27692413 153.71321106 73.09150696 C 155.15501404 69.28859711 155.34336853 67.28141785 156.54377747 65.06671906 C 158.35984802 60.80939484 158.16546631 61.42716980 158.77593994 58.37211609 C 158.82658386 54.55247879 157.54536438 52.89486694 160.15686035 51.02043915 C 161.10401917 52.20271301 160.34483337 55.06197739 161.68623352 57.62175369 C 162.91307068 60.62471008 161.29643250 62.12724304 159.68133545 64.23783112 C 158.25090027 66.08209991 155.67854309 67.50290680 154.58695984 71.58147430" stroke-width="0.00000000" fill="rgb(118, 63, 96)" opacity="1.0" stroke="rgb(255, 255, 255)" stroke-opacity="0.0" stroke-linecap="round" stroke-linejoin="round"/>
    <path d="M 194.62908936 179.68351746 C 182.87953186 178.99386597 176.03045654 175.82843018 162.07762146 178.42352295 C 155.11062622 182.72181702 147.85392761 185.95333862 133.46813965 184.74845886 C 123.07109070 184.90301514 113.75296783 184.26527405 101.35147858 182.58760071 C 88.04029846 179.61434937 80.68370056 180.51684570 72.27076721 181.72596741 C 54.39778137 181.17790222 56.10147095 173.96328735 67.04761505 174.13700867 C 86.36444092 174.49533081 86.04415894 175.02270508 95.07878876 176.31347656 C 107.74922943 180.23458862 116.48528290 179.88398743 127.02466583 180.17150879 C 142.88841248 180.77096558 147.53161621 180.37312317 159.62130737 175.96710205 C 171.77378845 175.65159607 180.50460815 175.48863220 191.89184570 177.52157593 C 206.45780945 180.77203369 210.61036682 183.42718506 194.62908936 179.68351746" stroke-width="0.48390156" fill="rgb(5, 6, 7)" opacity="1.0" stroke="rgb(4, 8, 42)" stroke-opacity="0.43843022" stroke-linecap="round" stroke-linejoin="round"/>
    <path d="M 78.49351501 175.81372070 C 80.61344910 177.76612854 91.94014740 181.10574341 85.57825470 183.19461060 C 78.80315399 184.45011902 74.54592896 183.20652771 68.45507050 183.96488953 C 61.60689163 185.07258606 59.23605347 187.60488892 60.76954651 191.41352844 C 59.99771881 194.21583557 57.70178986 192.04632568 54.86277390 187.92274475 C 50.38059616 184.33912659 49.57115173 180.23486328 45.48224640 177.45791626 C 39.84986877 175.90730286 35.21543884 173.79927063 37.24816132 174.80592346 C 42.21827698 176.48619080 44.91044617 177.99275208 47.09248352 171.76403809 C 48.70554352 165.43643188 49.88313293 167.82794189 54.94611740 174.58949280 C 58.43965530 178.17550659 63.57834244 180.35816956 69.75026703 176.77671814 C 75.24388123 173.01741028 74.57125854 172.62501526 78.49351501 175.81372070" stroke-width="1.45423543" fill="rgb(106, 103, 100)" opacity="1.0" stroke="rgb(5, 28, 0)" stroke-opacity="0.86322975" stroke-linecap="round" stroke-linejoin="round"/>
    <path d="M 129.53552246 73.76959991 C 127.43411255 79.18122101 126.66967773 80.42216492 126.28654480 86.88259888 C 127.13222504 93.94822693 125.95749664 91.57424927 122.78031158 92.59150696 C 121.45211792 92.58236694 124.45657349 87.96356201 125.07076263 82.94430542 C 125.17068481 78.34584045 125.99732208 73.09175873 128.95835876 69.86477661 C 132.66502380 68.37721252 129.88978577 65.14447021 128.61679077 59.78609848 C 126.57701874 53.25069046 126.74168396 53.66960907 125.85864258 50.19612885 C 125.37136078 46.01087189 124.14121246 41.66082764 126.71464539 39.89426422 C 126.79595947 43.28700256 127.02007294 46.46197128 129.89613342 51.15628815 C 130.78974915 55.00408936 134.49766541 59.37867355 136.18913269 62.92377472 C 138.40051270 68.09860229 132.53718567 68.87625885 129.53552246 73.76959991" stroke-width="0.91278076" fill="rgb(21, 7, 13)" opacity="1.0" stroke="rgb(0, 10, 23)" stroke-opacity="0.38665724" stroke-linecap="round" stroke-linejoin="round"/>
    <path d="M 204.59974670 185.48457336 C 201.39176941 185.92390442 199.28988647 184.78352356 196.28413391 182.26033020 C 194.40495300 180.62300110 191.64524841 180.43150330 188.34446716 182.15676880 C 183.81172180 183.40365601 183.06658936 183.10404968 178.86286926 183.19003296 C 175.48260498 183.34315491 171.53738403 182.51071167 168.96472168 181.20805359 C 165.63511658 178.26951599 168.54711914 177.44750977 172.95466614 177.28686523 C 176.07437134 176.60185242 177.78405762 177.11866760 179.70152283 174.94544983 C 183.10636902 172.51205444 185.03675842 172.78366089 188.49116516 172.12605286 C 192.97082520 171.66868591 193.83236694 172.87460327 196.74861145 174.39010620 C 199.69595337 175.94593811 202.58724976 177.89324951 204.44055176 179.55862427 C 207.58438110 182.54655457 209.97822571 185.80032349 204.59974670 185.48457336" stroke-width="0.81687480" fill="rgb(16, 8, 8)" opacity="1.0" stroke="rgb(105, 100, 89)" stroke-opacity="0.7374642" stroke-linecap="round" stroke-linejoin="round"/>
    <path d="M 100.94105530 75.35232544 C 97.54538727 76.91474915 95.39768982 77.50801086 92.06558228 79.08061218 C 87.33399963 81.42430115 85.56271362 79.64418793 89.26776886 74.44135284 C 91.56584167 69.60957336 94.02388000 68.09462738 96.38434601 64.93127441 C 100.58181763 61.67278290 101.46813965 61.94553757 101.28497314 58.92969513 C 100.36824799 54.31957245 95.84516907 52.36071014 92.97331238 50.14809418 C 88.58467102 46.99868774 88.84742737 48.16509247 86.15615082 46.14619064 C 85.32434082 44.52389908 91.20095062 46.82794189 94.70973206 48.46213531 C 99.21383667 51.05409241 100.55791473 52.09102631 103.09886932 55.49289703 C 106.45168304 59.03516769 108.03334045 62.47604752 107.25259399 65.87020874 C 105.48491669 70.26495361 105.16883850 72.07627106 100.94105530 75.35232544" stroke-width="0.95832086" fill="rgb(67, 21, 15)" opacity="1.0" stroke="rgb(123, 92, 42)" stroke-opacity="0.58242327" stroke-linecap="round" stroke-linejoin="round"/>
    <path d="M 209.24421692 200.49798584 C 209.25433350 201.02117920 209.23338318 201.03900146 209.08743286 201.79008484 C 208.94502258 202.14627075 208.80133057 202.53791809 208.40466309 203.02159119 C 208.15060425 203.33877563 207.86727905 203.68382263 207.47547913 204.06465149 C 207.12387085 204.40225220 206.79737854 204.85641479 206.33090210 204.88340759 C 206.02156067 204.38162231 206.13470459 204.19535828 206.10246277 203.51794434 C 206.00119019 202.80639648 205.97862244 202.98049927 205.91891479 202.27986145 C 205.94653320 201.75045776 205.78955078 201.44050598 206.14669800 201.03308105 C 206.65313721 200.55134583 206.69044495 200.46998596 207.23588562 200.00701904 C 207.81182861 199.65113831 207.72329712 199.53462219 208.43203735 199.30848694 C 209.06423950 199.45921326 209.09715271 199.78079224 209.24421692 200.49798584" stroke-width="0.87791032" fill="rgb(0, 16, 7)" opacity="1.0" stroke="rgb(86, 111, 58)" stroke-opacity="0.6044076" stroke-linecap="round" stroke-linejoin="round"/>
    <path d="M 154.18106079 74.13050079 C 155.61985779 78.21635437 157.60803223 81.08237457 158.89431763 85.83449554 C 160.81044006 91.03797913 161.49389648 95.72705841 160.11592102 99.22597504 C 156.46269226 97.59814453 158.73179626 92.20590210 157.90213013 88.57723236 C 157.57952881 81.94421387 156.81353760 80.56388092 153.52516174 76.14205170 C 150.32162476 70.29485321 151.84197998 68.72577667 155.56427002 64.05059052 C 159.47622681 59.10776520 162.03813171 59.11122894 160.33822632 55.53527451 C 156.80929565 50.14678955 150.92156982 47.35164642 152.30697632 45.15651703 C 153.61549377 45.84029388 156.53723145 50.68212128 160.40240479 53.06690979 C 165.67517090 55.76113129 166.83035278 58.54505539 160.98699951 61.87489319 C 157.21360779 66.33761597 152.99081421 68.20818329 154.18106079 74.13050079" stroke-width="0.68745649" fill="rgb(7, 6, 11)" opacity="1.0" stroke="rgb(5, 0, 0)" stroke-opacity="0.45671102" stroke-linecap="round" stroke-linejoin="round"/>
    <path d="M 168.02342224 176.56192017 C 169.96449280 178.23052979 170.12455750 179.56175232 167.37561035 181.53605652 C 165.07194519 183.07983398 163.12576294 184.97755432 164.11605835 187.71858215 C 165.53053284 189.87435913 167.57553101 190.35440063 169.89595032 191.02740479 C 172.15666199 192.19555664 174.17579651 191.19932556 175.00796509 192.81350708 C 173.28915405 194.06248474 172.14964294 193.47052002 169.08877563 194.44152832 C 165.73042297 194.57600403 165.87622070 194.52940369 162.94723511 195.16877747 C 159.55610657 194.48446655 160.40270996 193.97317505 160.53894043 190.12347412 C 160.73605347 187.35429382 161.72392273 186.01788330 161.25765991 183.99194336 C 161.50495911 180.85337830 161.77722168 180.82698059 163.40023804 177.57403564 C 164.04837036 175.05442810 165.85313416 173.38873291 168.02342224 176.56192017" stroke-width="0.68705451" fill="rgb(1, 4, 4)" opacity="1.0" stroke="rgb(0, 22, 10)" stroke-opacity="0.6202268" stroke-linecap="round" stroke-linejoin="round"/>
    <path d="M 112.84831238 189.95773315 C 112.37815857 191.41497803 109.34341431 192.32617188 107.25880432 192.65840149 C 104.42397308 193.31082153 103.01378632 193.33752441 100.36203766 193.92848206 C 97.53554535 194.10090637 96.58678436 194.62400818 94.01750946 195.90730286 C 91.28139496 197.02693176 89.83792114 197.60491943 88.40609741 197.85855103 C 87.12941742 197.85034180 82.51818848 199.74725342 82.80242157 197.98034668 C 85.35956573 196.13415527 85.64019775 197.06459045 87.99593353 195.24121094 C 90.51192474 193.25949097 90.47246552 192.96937561 93.36217499 190.60450745 C 95.12306213 188.67620850 96.50694275 188.55842590 99.25210571 189.01574707 C 101.13969421 188.90429688 103.18462372 189.12443542 106.01762390 189.54994202 C 107.62909698 189.70278931 110.75696564 190.43154907 112.84831238 189.95773315" stroke-width="0.48269778" fill="rgb(15, 28, 4)" opacity="1.0" stroke="rgb(111, 146, 66)" stroke-opacity="0.5513233" stroke-linecap="round" stroke-linejoin="round"/>
    <path d="M 81.13680267 143.96336365 C 84.61251831 142.20097351 83.31823730 143.84458923 83.30213928 152.64944458 C 82.73149109 157.26821899 84.20455170 163.39593506 82.30594635 167.90417480 C 78.42798615 167.70593262 76.69847107 160.83857727 75.02750397 157.42318726 C 73.17803192 152.33892822 73.20854187 149.88710022 73.27517700 144.73910522 C 73.02885437 140.66078186 72.38550568 135.28193665 72.70578003 129.86868286 C 72.53006744 122.85527039 73.53789520 122.86279297 71.52545166 118.49905396 C 73.14956665 111.61074066 74.32837677 113.27111816 80.56536102 116.09787750 C 82.80395508 119.52929688 78.14026642 121.95564270 76.69498444 126.44427490 C 76.75074768 132.20843506 76.51129150 135.14230347 76.19978333 140.32263184 C 76.31594086 148.27221680 75.82762909 150.25254822 81.13680267 143.96336365" stroke-width="0.33810380" fill="rgb(249, 243, 240)" opacity="1.0" stroke="rgb(234, 179, 157)" stroke-opacity="0.5917933" stroke-linecap="round" stroke-linejoin="round"/>
    <path d="M 124.59719086 87.45251465 C 125.31095886 87.57056427 126.47676086 87.84450531 127.52824402 87.20153046 C 128.11866760 86.76644897 129.13468933 85.27999115 130.05226135 85.11508942 C 130.43722534 85.98365784 130.50698853 86.96195984 131.13761902 88.24948883 C 131.47552490 89.42205048 132.35360718 90.28675842 133.01239014 90.83188629 C 133.00340271 92.00352478 132.09539795 92.12850189 131.06089783 92.49320984 C 128.96696472 92.48897552 129.29483032 92.37029266 128.33489990 92.27921295 C 127.37581635 92.45598602 126.85143280 92.28458405 125.48107147 92.17823029 C 124.29100037 91.85733032 123.97962189 93.01481628 122.86901855 92.27479553 C 122.12910461 91.58296204 122.60037994 90.06957245 122.76792145 89.27635193 C 123.24108124 87.67074585 122.88946533 87.45194244 124.59719086 87.45251465" stroke-width="0.80895466" fill="rgb(230, 231, 144)" opacity="1.0" stroke="rgb(255, 238, 207)" stroke-opacity="0.7877001" stroke-linecap="round" stroke-linejoin="round"/>
    <path d="M 165.72439575 111.36128998 C 167.22721863 110.91262054 167.28784180 110.80982208 169.23812866 110.20710754 C 170.85691833 109.65002441 171.22636414 109.57546234 173.16551208 108.96672821 C 174.37319946 108.56449127 175.36291504 108.32727051 176.95973206 107.89714050 C 178.43292236 107.64678192 179.89314270 106.80014038 181.05209351 107.91718292 C 181.78161621 108.50953674 181.93815613 110.28530121 179.95503235 110.79479218 C 178.05400085 111.25942993 178.11442566 111.31816101 176.64376831 111.69486237 C 175.04182434 112.06349945 174.79106140 112.15270996 172.75799561 112.53725433 C 171.18209839 112.87300873 170.41322327 113.08029175 168.61315918 113.26688385 C 166.92224121 113.29673767 166.29891968 113.54857635 164.52899170 113.51486969 C 163.06002808 112.79907227 164.07087708 111.90077972 165.72439575 111.36128998" stroke-width="2.00000000" fill="rgb(224, 169, 30)" opacity="1.0" stroke="rgb(3, 0, 7)" stroke-opacity="1.0" stroke-linecap="round" stroke-linejoin="round"/>
    <path d="M 153.81623840 99.89409637 C 154.13430786 99.87980652 155.71772766 99.66983795 156.69134521 99.62077332 C 158.12591553 99.76506805 158.88739014 99.49425507 159.84297180 100.10755920 C 161.07159424 100.67901611 161.89109802 101.20800018 162.68255615 101.77602386 C 164.01518250 102.79087067 164.29229736 102.98977661 165.38320923 103.98750305 C 165.95986938 105.10388947 164.36355591 105.03688049 163.10281372 105.66720581 C 161.71907043 106.11320496 161.61062622 106.25984192 160.54780579 106.08063507 C 159.38917542 105.79280853 158.55204773 105.50611877 157.33090210 105.01385498 C 156.39581299 104.60871124 155.27633667 104.03748322 154.41021729 103.43413544 C 153.54969788 102.84285736 152.53446960 102.12903595 151.66397095 101.32143402 C 150.71121216 100.16877747 151.89222717 100.22232819 153.81623840 99.89409637" stroke-width="2.00000000" fill="rgb(237, 234, 244)" opacity="1.0" stroke="rgb(0, 0, 17)" stroke-opacity="1.0" stroke-linecap="round" stroke-linejoin="round"/>
    <path d="M 131.05403137 102.38303375 C 133.04304504 102.50000763 134.08480835 102.20075989 136.13644409 102.23163605 C 138.07905579 101.96283722 139.60777283 102.06396484 141.48600769 101.94914246 C 143.66827393 101.72959900 145.17097473 101.39640808 146.71163940 101.65077209 C 148.35871887 102.03721619 150.87069702 102.04118347 150.69375610 103.64533997 C 148.50360107 104.70930481 146.63833618 104.60698700 145.24728394 104.59659576 C 142.48146057 104.47181702 142.68746948 104.56752777 140.63281250 104.58188629 C 138.04740906 104.53511047 138.02040100 104.40403748 135.15510559 104.46852875 C 133.51283264 104.43618011 132.17285156 104.43006897 129.70628357 104.55046844 C 128.11471558 104.48148346 126.23381805 104.69147491 125.40591431 103.04688263 C 126.96092224 101.90010071 129.50935364 102.42515564 131.05403137 102.38303375" stroke-width="2.00000000" fill="rgb(155, 86, 34)" opacity="1.0" stroke="rgb(0, 0, 0)" stroke-opacity="1.0" stroke-linecap="round" stroke-linejoin="round"/>
    <path d="M 57.18457794 162.16760254 C 56.10710907 162.55491638 56.04429626 162.59530640 54.65514755 162.98701477 C 53.85505295 163.00721741 52.62696838 163.60008240 52.51012802 162.86566162 C 52.66189957 161.76033020 52.95577621 161.18359375 53.20344162 160.23983765 C 53.70656586 158.92814636 53.86300278 158.95193481 54.41336060 157.64414978 C 54.99706268 156.59114075 55.17952728 156.32728577 56.03373337 155.67224121 C 57.32759476 154.79347229 57.02278519 155.05535889 57.91637802 154.18571472 C 58.65439224 153.21675110 58.65699768 154.36221313 59.02598190 155.57524109 C 59.23691177 156.38594055 59.24668884 156.88285828 59.59435654 157.97975159 C 59.92900848 159.02549744 60.12677002 159.69891357 59.65398407 160.33287048 C 58.93110275 161.15487671 58.03130722 161.66159058 57.18457794 162.16760254" stroke-width="0.61382294" fill="rgb(1, 10, 5)" opacity="1.0" stroke="rgb(31, 120, 78)" stroke-opacity="0.6552918" stroke-linecap="round" stroke-linejoin="round"/>
    <path d="M 124.05017090 195.69210815 C 123.76515198 195.87295532 123.05363464 196.06124878 121.98758698 196.09251404 C 121.40171814 196.08666992 120.41810608 195.98016357 119.67118073 195.55065918 C 119.09790039 195.27194214 118.41113281 194.70457458 118.01185608 193.85743713 C 117.71957397 193.29237366 117.34226990 192.21943665 117.29760742 191.46160889 C 117.24978638 190.68229675 118.18254852 190.56349182 119.28836823 190.61911011 C 120.13516235 190.71206665 120.31170654 190.63378906 121.25138092 190.86529541 C 121.79967499 190.98767090 122.74639893 191.14445496 123.47311401 191.25801086 C 124.15502167 191.32734680 124.90208435 191.54978943 125.78784943 192.09423828 C 126.33773041 192.47842407 126.88658142 193.05337524 126.20620728 194.01168823 C 125.73191071 194.60626221 125.37064362 194.93200684 124.05017090 195.69210815" stroke-width="0.83114165" fill="rgb(2, 18, 2)" opacity="1.0" stroke="rgb(99, 131, 44)" stroke-opacity="0.5813956" stroke-linecap="round" stroke-linejoin="round"/>
    <path d="M 123.29545593 211.58746338 C 123.27291870 210.77305603 123.34524536 210.53761292 123.65476990 209.71156311 C 124.13761902 208.72042847 124.12495422 208.67790222 124.87162781 208.06439209 C 125.64669800 207.57307434 125.89177704 207.49908447 126.91992950 207.25015259 C 127.52465820 207.22381592 128.29652405 207.00251770 128.97193909 207.50778198 C 129.51307678 208.34924316 129.47029114 208.35688782 129.65130615 209.47575378 C 129.57164001 210.61143494 129.62400818 210.28623962 129.36741638 211.27775574 C 129.16810608 211.66021729 129.01004028 212.32829285 128.34918213 212.99813843 C 127.84547424 213.25576782 127.39383698 213.48075867 126.38607025 213.74334717 C 125.90087891 213.77471924 125.13716888 213.85116577 124.33168793 213.51866150 C 123.75090027 213.04904175 123.50357819 212.71638489 123.29545593 211.58746338" stroke-width="0.86575180" fill="rgb(2, 3, 6)" opacity="1.0" stroke="rgb(71, 85, 68)" stroke-opacity="0.71948695" stroke-linecap="round" stroke-linejoin="round"/>
    <path d="M 52.28658295 92.38466644 C 52.44660568 92.09623718 52.77459717 91.32736969 53.18909073 90.80059814 C 53.58070374 90.31276703 54.10574341 90.00203705 54.91057968 90.04286957 C 55.73622513 90.15991211 56.15640640 90.71942139 56.38781357 91.16385651 C 56.93099976 92.24256134 56.87378693 92.38563538 57.09910583 93.28507996 C 57.22300720 94.56766510 57.25857544 94.38742828 56.98959732 95.48661804 C 56.40476608 96.61053467 56.59380722 96.33438110 56.08792114 97.02893066 C 55.76327515 97.68203735 54.94407272 98.27519226 54.42167664 98.06824493 C 53.62609863 97.72210693 53.23611450 97.25890350 52.86321259 96.66995239 C 52.55047607 96.20381165 52.10886383 95.42877197 52.02518463 94.74796295 C 51.87940598 94.04375458 52.07336426 93.60418701 52.28658295 92.38466644" stroke-width="0.80892891" fill="rgb(2, 3, 108)" opacity="1.0" stroke="rgb(22, 87, 168)" stroke-opacity="0.61262584" stroke-linecap="round" stroke-linejoin="round"/>
    <path d="M 45.11569595 140.27757263 C 45.22788239 140.13562012 45.76561737 139.21594238 46.21165848 138.78208923 C 46.67234421 138.20480347 47.14904022 137.45568848 47.87976074 137.78207397 C 48.61569214 138.21934509 48.81207275 138.24909973 49.31445694 139.23104858 C 49.58279800 139.64152527 49.79531097 140.56359863 49.94263458 141.26504517 C 50.02480316 141.98475647 50.40066528 142.53509521 50.44209671 143.42466736 C 50.25207520 144.09025574 50.08719635 144.26686096 49.88533020 144.92707825 C 49.75865173 145.87319946 48.77797318 144.89073181 48.17782211 144.66778564 C 47.14022446 144.12379456 47.11531448 144.17347717 46.27514648 143.83256531 C 45.45603943 143.48518372 45.08152008 142.87356567 44.75000000 142.43829346 C 44.24021912 141.82090759 44.74861526 141.23521423 45.11569595 140.27757263" stroke-width="0.59733105" fill="rgb(5, 76, 53)" opacity="1.0" stroke="rgb(23, 146, 119)" stroke-opacity="0.5214835" stroke-linecap="round" stroke-linejoin="round"/>
    <path d="M 54.08513641 182.97338867 C 52.39602280 183.33207703 52.21422958 183.96553040 49.97579956 182.70295715 C 47.95019531 180.40481567 48.27286148 179.69947815 46.48488235 178.03817749 C 44.24224472 176.53942871 45.93434143 174.61582947 46.84741211 173.37313843 C 48.88959885 171.24116516 49.49065781 170.30290222 50.91800690 169.91043091 C 53.00878525 170.20268250 54.42014313 171.00888062 56.61856079 171.88824463 C 59.46902466 174.12731934 58.93008804 173.45420837 60.53701782 174.75318909 C 61.79861069 176.63558960 62.33331680 178.19233704 63.09027100 180.08833313 C 63.53355789 181.96849060 65.50563049 182.24935913 65.08837128 184.14900208 C 64.25224304 185.26306152 62.16781235 184.03842163 60.10070038 183.22731018 C 58.10571671 182.40858459 57.26166534 182.16426086 54.08513641 182.97338867" stroke-width="1.75327420" fill="rgb(26, 4, 2)" opacity="1.0" stroke="rgb(0, 5, 1)" stroke-opacity="0.9616422" stroke-linecap="round" stroke-linejoin="round"/>
    <path d="M 151.14918518 220.26321411 C 151.43327332 219.96475220 152.00433350 219.73474121 152.90284729 219.42460632 C 153.69401550 219.18461609 154.37539673 218.86463928 155.13926697 218.45883179 C 155.84782410 218.08271790 156.44500732 217.52285767 157.33979797 217.64198303 C 158.01016235 217.87602234 158.63667297 218.13645935 158.82048035 219.01754761 C 158.35345459 220.12992859 157.87724304 220.24250793 157.13037109 220.49972534 C 155.92854309 220.81437683 156.15211487 220.71421814 155.15289307 221.10093689 C 154.38049316 221.47424316 154.02674866 221.85044861 153.75012207 222.81246948 C 153.67295837 223.27937317 152.97990417 223.66136169 152.17492676 223.79260254 C 151.35755920 223.89750671 150.55969238 223.40966797 150.40245056 222.62513733 C 150.24118042 221.88011169 150.50357056 221.25210571 151.14918518 220.26321411" stroke-width="0.11714476" fill="rgb(224, 242, 228)" opacity="1.0" stroke="rgb(255, 255, 255)" stroke-opacity="0.0" stroke-linecap="round" stroke-linejoin="round"/>
  </g>
</svg>
