<?xml version="1.0" ?>
<svg xmlns="http://www.w3.org/2000/svg" version="1.1" width="256" height="256" viewBox="0 0 256 256">
  <defs/>
  <g>
    <path d="M 258.06622314 217.24601746 C 256.13427734 258.58557129 245.74264526 259.87145996 198.71337891 255.94638062 C 154.67601013 256.28521729 141.66534424 255.70156860 96.46923828 255.97395325 C 58.72798920 253.85179138 19.90819550 263.73590088 1.64715576 245.50051880 C -2.91885376 216.86126709 0.73298645 186.16337585 0.10501099 144.23643494 C 1.32570648 113.98365784 -0.52987671 78.65223694 -0.92250061 42.78918457 C 3.36716461 7.22007751 21.77621460 -6.44885254 55.19127655 1.60279846 C 94.91041565 1.23149872 122.23001099 -1.48310852 156.24497986 -0.22735596 C 201.91004944 2.71269989 225.62803650 -10.57212830 252.83624268 8.72843170 C 262.01879883 42.33303833 257.20465088 65.93029785 254.73312378 107.46182251 C 252.89007568 150.75894165 259.28564453 166.77830505 258.06622314 217.24601746" stroke-width="0.80000001" fill="rgb(244, 244, 244)" opacity="1.0" stroke="rgb(0, 0, 0)" stroke-opacity="1.0" stroke-linecap="round" stroke-linejoin="round"/>
    <path d="M 192.53851318 171.44990540 C 187.59902954 179.97883606 166.47213745 177.55488586 156.41476440 177.66741943 C 140.18486023 177.34115601 130.30195618 177.02024841 116.11314392 177.26278687 C 95.31313324 177.74702454 94.41006470 179.10983276 73.60264587 177.73243713 C 57.29264069 170.28393555 64.45705414 159.53082275 62.01418304 142.02452087 C 62.88118744 134.75230408 60.65316010 112.75648499 66.90487671 102.84239197 C 79.53300476 93.36700439 84.08393860 94.32585144 98.77639008 94.47898865 C 116.44649506 94.68154907 122.53385162 94.26329041 140.35510254 94.77650452 C 156.36877441 94.58525085 161.51959229 93.30026245 182.57987976 94.45616150 C 197.12081909 97.03259277 192.54994202 116.54972076 193.62298584 126.81604767 C 193.48336792 146.94645691 194.85931396 148.93504333 192.53851318 171.44990540" stroke-width="0.80000001" fill="rgb(51, 51, 51)" opacity="1.0" stroke="rgb(0, 0, 0)" stroke-opacity="1.0" stroke-linecap="round" stroke-linejoin="round"/>
    <path d="M 189.10298157 172.64230347 C 180.50251770 176.40338135 163.28868103 173.87994385 153.16064453 174.49359131 C 134.24856567 174.67787170 129.25216675 173.84970093 113.91143799 174.26155090 C 97.29768372 174.39816284 92.00574493 175.12533569 73.31028748 174.78536987 C 61.53539276 166.60925293 66.97393036 156.20652771 65.01499939 139.70686340 C 66.08868408 132.63870239 64.22422791 109.06188965 70.61417389 102.63927460 C 84.02180481 95.80662537 87.67796326 97.28878784 102.83602905 97.36158752 C 118.69005585 98.18730164 124.06337738 97.56459045 142.53878784 97.75227356 C 155.35337830 96.97016907 164.05615234 96.92239380 183.13558960 97.30665588 C 193.38092041 101.63006592 189.44790649 119.42639160 190.94650269 130.34657288 C 190.00694275 146.83551025 191.75753784 152.19206238 189.10298157 172.64230347" stroke-width="0.80000001" fill="rgb(51, 51, 51)" opacity="1.0" stroke="rgb(0, 0, 0)" stroke-opacity="1.0" stroke-linecap="round" stroke-linejoin="round"/>
    <path d="M 180.15522766 122.32369995 C 172.72850037 125.07475281 162.94943237 124.03415680 155.40248108 124.13583374 C 145.55633545 123.85174561 139.39230347 124.16827393 129.87049866 123.78536224 C 119.23271942 124.28002930 114.18225861 123.77306366 104.74563599 124.12957764 C 92.45299530 123.64934540 89.20136261 124.64888763 77.87534332 123.67012787 C 70.22619629 122.05464172 68.68633270 109.41903687 79.66454315 105.59183502 C 89.73220825 104.08667755 91.80187988 104.00432587 99.51007080 104.12981415 C 110.80398560 103.89609528 117.47187805 104.04705048 125.23870087 103.99406433 C 138.13911438 103.60115051 139.07800293 103.68785095 152.32020569 104.03076935 C 161.21803284 104.72097015 166.43542480 103.60343170 177.72735596 103.48460388 C 185.61358643 104.45954132 188.01232910 120.75582123 180.15522766 122.32369995" stroke-width="0.80000001" fill="rgb(139, 90, 43)" opacity="1.0" stroke="rgb(0, 0, 0)" stroke-opacity="1.0" stroke-linecap="round" stroke-linejoin="round"/>
    <path d="M 192.38626099 165.91075134 C 187.57934570 164.81579590 181.46351624 162.63343811 183.24578857 156.46958923 C 187.93397522 152.29449463 193.86741638 151.54521179 195.40272522 147.40069580 C 196.88378906 141.60018921 196.23298645 138.77571106 196.31990051 131.13079834 C 196.27719116 124.82632446 195.36465454 119.31948853 189.07092285 119.35684204 C 183.17755127 116.48591614 180.88641357 112.05001068 186.48767090 107.32287598 C 194.13137817 107.45188141 194.16757202 107.56473541 200.36318970 109.73611450 C 205.67288208 116.97235107 204.15998840 114.95281219 207.42539978 124.70446777 C 209.77490234 131.36198425 207.88211060 134.41970825 207.97004700 140.32545471 C 208.12930298 146.87823486 208.32707214 149.82037354 204.10546875 156.28985596 C 202.48428345 161.22039795 198.43605042 164.62609863 192.38626099 165.91075134" stroke-width="0.80000001" fill="rgb(51, 51, 51)" opacity="1.0" stroke="rgb(0, 0, 0)" stroke-opacity="1.0" stroke-linecap="round" stroke-linejoin="round"/>
    <path d="M 190.32313538 162.46525574 C 186.22084045 160.72128296 184.53160095 158.56678772 191.60475159 155.14987183 C 196.78399658 153.49002075 199.27485657 149.26274109 199.01586914 144.27851868 C 199.62814331 139.07812500 199.28730774 134.99942017 199.26069641 130.17901611 C 198.75317383 123.81878662 199.14866638 120.53432465 193.23162842 117.99810791 C 189.13592529 116.95930481 183.52200317 112.34095001 189.29275513 109.76689148 C 194.71899414 110.61058044 196.04928589 111.23458862 199.89012146 113.87792969 C 203.39779663 119.83490753 203.42973328 119.25241089 204.82539368 127.94264221 C 206.66046143 134.87277222 205.53425598 137.23353577 205.13354492 141.88146973 C 204.68130493 146.84179688 204.00210571 151.04924011 201.21127319 155.06896973 C 199.92802429 160.26298523 195.06083679 162.91107178 190.32313538 162.46525574" stroke-width="0.80000001" fill="rgb(51, 51, 51)" opacity="1.0" stroke="rgb(0, 0, 0)" stroke-opacity="1.0" stroke-linecap="round" stroke-linejoin="round"/>
    <path d="M 95.59790039 73.20330048 C 95.19575500 75.73398590 94.94398499 76.78952026 95.75188446 80.22827148 C 96.82251740 82.56156158 98.37117767 86.11982727 95.27551270 85.45750427 C 93.02749634 83.26219940 92.89468384 80.61748505 92.43766785 78.41481781 C 91.97299194 74.30077362 92.08503723 74.31858063 93.51297760 70.79345703 C 94.81531525 68.06533813 94.76999664 65.77571106 95.76435852 63.48979568 C 96.77617645 58.80176163 96.86370850 59.91373062 96.42247772 56.99751282 C 94.86511993 54.06802368 93.61715698 50.09294128 96.84648895 50.81893921 C 99.15137482 52.97241592 98.56158447 54.67967224 99.45137024 57.31989288 C 100.03038788 60.76232910 99.78537750 62.84351349 99.08812714 64.91272736 C 97.67299652 67.80685425 96.37182617 69.42157745 95.59790039 73.20330048" stroke-width="0.80000001" fill="rgb(51, 51, 51)" opacity="1.0" stroke="rgb(0, 0, 0)" stroke-opacity="1.0" stroke-linecap="round" stroke-linejoin="round"/>
    <path d="M 127.76638794 71.26073456 C 127.33762360 74.60350800 127.05041504 74.98867035 127.63961029 79.05377197 C 128.49264526 82.21188354 130.23397827 85.88282013 127.33842468 85.52220154 C 125.51106262 83.37959290 124.80957031 80.41804504 124.31660461 77.71455383 C 123.47221375 74.33744049 124.63579559 72.35942841 125.37631226 69.51984406 C 126.55001068 66.20278168 126.70206451 63.91040421 127.78837585 61.03905106 C 128.78741455 55.87653732 128.90710449 57.09705353 128.60952759 53.84577560 C 127.25072479 50.84098434 125.26097107 46.38163757 128.70921326 46.78782272 C 131.15547180 49.09474182 130.70960999 51.23209763 131.49534607 54.01231003 C 131.94844055 57.55909729 131.64570618 59.97816086 131.09516907 62.46504593 C 129.84065247 65.17472076 128.38792419 67.83270264 127.76638794 71.26073456" stroke-width="0.80000001" fill="rgb(51, 51, 51)" opacity="1.0" stroke="rgb(0, 0, 0)" stroke-opacity="1.0" stroke-linecap="round" stroke-linejoin="round"/>
    <path d="M 159.86830139 72.30086517 C 159.33869934 75.20327759 159.00083923 75.63202667 159.65017700 79.32360077 C 160.37115479 82.08411407 162.10055542 85.06089020 159.71942139 85.84533691 C 157.75756836 84.10667419 156.96047974 81.38629150 156.42266846 79.09451294 C 155.50950623 76.06659698 156.59010315 74.07293701 157.19573975 71.58021545 C 158.37301636 68.46880341 158.62612915 66.40066528 159.62654114 63.99567032 C 160.73904419 59.35791779 160.70257568 60.37156677 160.60005188 57.44238663 C 159.63885498 54.59821320 157.40835571 51.04310226 160.17980957 50.60940933 C 162.82423401 52.11840057 162.66047668 54.39402390 163.39613342 56.70522690 C 163.98460388 59.76867294 163.76705933 62.20602798 163.17947388 64.42850494 C 162.14973450 67.19988251 160.57463074 69.14738464 159.86830139 72.30086517" stroke-width="0.80000001" fill="rgb(51, 51, 51)" opacity="1.0" stroke="rgb(0, 0, 0)" stroke-opacity="1.0" stroke-linecap="round" stroke-linejoin="round"/>
    <path d="M 189.24014282 181.57997131 C 181.95944214 181.88752747 172.38032532 180.92469788 159.54727173 181.80007935 C 149.06478882 181.09295654 141.52627563 181.93997192 130.06297302 181.27915955 C 119.89566040 180.72138977 113.42458344 182.92518616 100.50813293 181.67799377 C 88.41972351 180.03332520 81.74488068 181.45986938 72.20280457 182.33883667 C 51.96799469 185.08734131 55.31870270 176.61494446 65.12858582 178.12680054 C 84.38153076 177.99752808 82.10091400 179.30940247 93.70137024 178.05615234 C 108.28036499 179.08570862 111.90580750 179.10876465 125.01425934 177.59417725 C 139.12286377 178.23820496 141.13565063 180.14404297 153.88284302 178.45190430 C 166.31298828 178.55429077 174.83447266 178.01776123 184.88841248 178.51977539 C 197.49929810 177.80613708 207.31994629 180.96826172 189.24014282 181.57997131" stroke-width="0.80000001" fill="rgb(51, 51, 51)" opacity="1.0" stroke="rgb(0, 0, 0)" stroke-opacity="1.0" stroke-linecap="round" stroke-linejoin="round"/>
    <path d="M 83.09760284 176.36935425 C 86.86318970 178.77708435 90.81153870 182.76019287 84.59788513 184.13107300 C 76.71884918 184.95257568 76.13256073 183.12657166 69.82973480 184.33569336 C 63.43685913 185.42613220 63.36946106 186.73501587 60.51171875 192.63148499 C 55.86162949 194.97135925 54.51412582 188.46520996 50.47650909 184.92575073 C 46.15898132 181.99382019 43.46290207 178.11492920 39.45625687 176.50033569 C 34.24707413 173.73516846 30.20474815 174.07104492 30.69968796 172.23846436 C 36.19749069 169.92362976 38.75325012 169.40145874 44.10060120 167.13478088 C 48.09504700 165.53277588 52.17449188 165.18235779 56.26131821 169.88990784 C 60.11254501 173.59715271 63.83849335 172.33462524 68.03608704 173.44354248 C 74.83182526 173.93223572 76.93727112 174.41511536 83.09760284 176.36935425" stroke-width="0.80000001" fill="rgb(3, 3, 3)" opacity="1.0" stroke="rgb(0, 0, 0)" stroke-opacity="1.0" stroke-linecap="round" stroke-linejoin="round"/>
    <path d="M 129.73779297 75.22486877 C 128.27796936 79.84535217 128.01023865 83.76068115 130.49601746 87.58527374 C 133.33670044 92.78923035 130.68331909 92.39654541 124.50984192 93.27127838 C 120.04769135 91.96061707 123.23967743 87.04423523 123.34510803 82.51725769 C 123.75424957 78.78105164 124.95699310 73.87291718 127.29053497 70.00023651 C 129.52774048 66.11943054 129.14849854 64.15631866 127.29096222 58.04830933 C 125.88148499 52.55930710 126.79635620 52.21046066 124.93714142 48.69650650 C 122.90662384 42.35817719 123.38675690 38.22540283 128.19137573 42.13389587 C 129.77082825 48.05155945 128.74066162 50.14782715 131.71653748 54.26949310 C 134.03440857 57.86653900 137.35354614 61.79827118 137.32446289 65.54014587 C 137.84881592 70.83532715 132.27763367 70.42678833 129.73779297 75.22486877" stroke-width="0.80000001" fill="rgb(17, 7, 10)" opacity="1.0" stroke="rgb(0, 0, 0)" stroke-opacity="1.0" stroke-linecap="round" stroke-linejoin="round"/>
    <path d="M 204.21362305 185.53298950 C 201.18473816 186.02745056 198.87391663 185.09895325 195.87132263 182.51129150 C 193.76393127 180.83151245 191.15144348 180.57363892 187.65522766 181.65441895 C 183.09542847 182.57525635 182.77665710 182.52200317 178.21284485 182.54945374 C 175.63749695 182.69786072 171.41189575 182.33689880 168.38024902 181.39509583 C 164.68879700 179.59828186 168.75148010 177.53622437 172.51254272 176.83634949 C 175.52937317 175.72119141 177.39949036 175.05778503 179.35868835 173.69808960 C 183.76954651 171.81213379 184.48420715 171.81617737 188.33027649 171.40011597 C 192.91206360 171.46131897 194.12165833 171.76254272 197.09210205 174.02311707 C 199.66273499 175.67770386 202.78268433 177.34068298 204.74662781 179.17662048 C 207.83412170 181.62008667 209.07978821 185.09298706 204.21362305 185.53298950" stroke-width="0.80000001" fill="rgb(8, 4, 6)" opacity="1.0" stroke="rgb(0, 0, 0)" stroke-opacity="1.0" stroke-linecap="round" stroke-linejoin="round"/>
    <path d="M 101.51911163 73.98988342 C 99.16519165 75.90932465 95.21956635 78.08935547 92.23786926 78.73477936 C 88.39674377 79.90493774 85.25286865 80.43738556 87.37754822 75.20480347 C 88.88774872 71.30342102 91.34535980 70.40969849 94.13534546 66.61114502 C 96.33233643 63.57688522 98.87260437 61.79891968 100.32713318 58.84400940 C 100.24792480 54.56385422 96.30091095 53.26791000 93.06923676 50.71192551 C 89.44106293 47.83347321 87.86019135 48.40701675 86.19285583 44.80127335 C 88.43852234 43.31082535 92.60043335 46.57516479 95.48796082 48.28583527 C 99.33802795 50.58161163 101.11153412 51.55664825 103.66117859 55.61797714 C 106.18637848 58.89203644 107.57691956 60.38408279 106.68729401 64.84275055 C 105.75254059 68.80650330 104.64150238 70.93239594 101.51911163 73.98988342" stroke-width="0.80000001" fill="rgb(16, 3, 3)" opacity="1.0" stroke="rgb(0, 0, 0)" stroke-opacity="1.0" stroke-linecap="round" stroke-linejoin="round"/>
    <path d="M 208.90275574 196.00563049 C 209.40632629 198.27795410 209.21784973 198.51622009 209.02684021 201.09680176 C 208.21978760 203.63183594 208.14965820 203.65106201 206.46269226 205.75050354 C 204.76086426 207.76885986 204.52189636 207.95040894 202.18292236 209.63020325 C 200.89477539 210.39285278 199.43876648 211.83366394 197.12709045 211.42558289 C 196.01423645 211.00827026 194.99049377 208.76182556 194.94625854 206.74523926 C 194.82424927 204.67001343 194.31808472 203.76214600 194.47868347 201.71080017 C 194.88540649 199.48323059 195.14855957 198.51483154 195.94869995 196.61140442 C 197.51123047 194.80279541 198.61347961 193.80157471 200.09463501 192.67778015 C 202.31797791 191.50280762 203.17527771 190.94010925 205.38929749 191.27598572 C 207.35993958 192.27163696 208.35031128 194.10731506 208.90275574 196.00563049" stroke-width="0.80000001" fill="rgb(253, 254, 250)" opacity="1.0" stroke="rgb(0, 0, 0)" stroke-opacity="1.0" stroke-linecap="round" stroke-linejoin="round"/>
    <path d="M 154.61238098 69.89724731 C 154.79385376 73.38735962 155.44451904 77.47868347 157.49645996 81.49942017 C 159.07838440 85.15365601 160.72666931 87.87108612 160.54069519 93.34236145 C 158.34069824 95.77724457 157.16957092 89.28330231 155.81530762 85.68267822 C 154.59915161 80.89186859 154.22544861 78.67731476 151.66914368 74.39080048 C 150.01869202 70.20407867 151.67425537 66.88107300 154.00566101 63.71693039 C 157.10440063 57.80672073 158.44262695 58.00439072 157.44067383 54.33663559 C 154.55926514 49.04664230 149.04751587 46.43074799 152.05453491 44.10440826 C 154.58357239 45.83683014 156.59632874 50.04223633 160.20922852 51.95470810 C 164.72697449 54.29488754 168.05725098 57.45957184 164.45816040 60.28766632 C 160.66311646 64.02545929 154.97480774 64.74400330 154.61238098 69.89724731" stroke-width="0.80000001" fill="rgb(6, 3, 8)" opacity="1.0" stroke="rgb(0, 0, 0)" stroke-opacity="1.0" stroke-linecap="round" stroke-linejoin="round"/>
    <path d="M 165.30941772 178.51339722 C 167.09800720 180.21434021 167.76408386 181.12637329 165.50566101 183.00222778 C 163.89810181 185.04664612 164.17660522 186.63444519 165.59628296 188.10194397 C 167.46076965 189.53546143 169.24136353 189.71400452 171.02616882 190.30274963 C 173.34233093 190.71885681 175.13786316 190.62263489 175.22434998 192.94879150 C 173.19601440 193.90194702 170.70436096 194.07341003 168.91572571 194.31443787 C 165.07974243 194.34397888 166.26574707 194.17668152 163.42086792 194.65063477 C 160.57228088 195.37095642 159.49101257 193.92683411 159.20056152 191.50692749 C 158.97674561 189.15495300 160.33528137 188.06289673 160.61622620 185.82624817 C 159.97734070 182.95895386 160.32373047 182.31976318 161.20629883 179.98872375 C 161.99626160 176.96145630 163.94259644 177.03872681 165.30941772 178.51339722" stroke-width="0.80000001" fill="rgb(1, 3, 3)" opacity="1.0" stroke="rgb(0, 0, 0)" stroke-opacity="1.0" stroke-linecap="round" stroke-linejoin="round"/>
    <path d="M 112.21826935 189.38449097 C 112.08031464 191.09963989 109.61621094 192.43379211 107.18572235 192.39096069 C 104.75214386 192.52571106 102.99827576 192.80780029 100.67261505 193.78401184 C 98.50710297 193.65049744 96.79756927 194.15846252 94.46823120 195.17330933 C 92.09717560 196.01686096 91.03878021 196.85980225 88.82498932 197.57348633 C 86.53565979 198.16952515 84.09514618 199.70948792 82.61354828 197.52154541 C 84.99008942 194.66256714 85.10324860 195.61094666 87.14427185 194.42170715 C 90.30206299 192.40963745 88.99254608 192.53367615 92.50855255 189.98666382 C 94.61548615 188.23939514 95.73468018 188.48999023 98.95655060 188.58671570 C 100.66629791 188.38148499 102.76460266 188.10760498 105.74117279 188.59190369 C 107.61589813 188.80403137 109.62709045 189.92623901 112.21826935 189.38449097" stroke-width="0.80000001" fill="rgb(3, 8, 5)" opacity="1.0" stroke="rgb(0, 0, 0)" stroke-opacity="1.0" stroke-linecap="round" stroke-linejoin="round"/>
    <path d="M 79.23594666 140.39457703 C 78.80505371 143.00828552 78.82212067 143.17480469 78.28735352 146.38465881 C 77.95705414 148.15878296 77.73834991 151.43823242 76.05066681 150.03128052 C 75.24670410 147.01580811 75.82768250 145.94187927 75.73934174 143.40670776 C 76.00612640 140.62626648 76.07865143 140.08911133 76.37944794 136.97900391 C 76.49562836 135.29191589 76.52993774 133.41500854 76.51055145 130.73217773 C 76.62865448 128.09587097 76.48036957 127.24348450 76.61148071 125.26943970 C 76.71928406 122.83010864 78.17840576 120.97375488 79.97537231 121.69494629 C 79.85707092 123.57975006 79.20841980 125.91710663 79.56240845 127.61953735 C 79.43222809 129.92855835 79.54553223 131.86062622 79.54863739 133.85867310 C 79.56546783 136.10276794 79.41602325 138.12356567 79.23594666 140.39457703" stroke-width="0.80000001" fill="rgb(41, 2, 2)" opacity="1.0" stroke="rgb(0, 0, 0)" stroke-opacity="1.0" stroke-linecap="round" stroke-linejoin="round"/>
    <path d="M 123.76667786 86.87631989 C 124.19429016 86.36640167 125.36689758 85.93800354 126.51407623 85.42336273 C 127.56369019 85.09548950 128.70454407 83.93567657 129.39683533 84.91481018 C 129.89076233 86.64759827 129.85437012 86.64419556 130.90890503 88.15534210 C 131.49253845 89.24626160 132.27880859 89.96247101 133.42169189 90.67198181 C 134.02474976 91.92970276 132.52723694 92.74938965 131.49751282 93.11292267 C 129.03848267 93.54767609 129.82298279 93.46291351 128.32550049 93.51567841 C 126.85643005 93.42896271 125.81401062 93.59413147 124.60131836 93.52449799 C 123.00158691 93.30723572 122.41482544 93.71015167 121.42443848 92.88734436 C 120.52641296 92.08013153 121.00830841 90.79273987 121.64709473 90.00213623 C 122.37191772 88.55844116 122.44824982 88.18975067 123.76667786 86.87631989" stroke-width="0.80000001" fill="rgb(231, 237, 147)" opacity="1.0" stroke="rgb(0, 0, 0)" stroke-opacity="1.0" stroke-linecap="round" stroke-linejoin="round"/>
    <path d="M 165.56063843 110.02495575 C 166.95133972 109.62104797 167.51411438 109.30761719 169.24024963 108.82490540 C 171.04779053 108.29573059 171.27888489 108.21717834 173.20114136 107.70966339 C 174.70883179 107.28659058 175.32550049 107.16323853 177.10968018 106.80387878 C 178.39106750 106.56484985 179.97683716 106.02874756 181.10867310 107.47305298 C 181.81266785 108.21411133 181.82283020 110.12695312 179.85404968 110.74922943 C 178.37429810 111.18673706 178.05831909 111.36595154 176.53135681 111.76129913 C 174.89721680 112.18489075 174.47814941 112.15809631 172.64318848 112.74526215 C 171.45797729 113.04359436 169.97094727 113.43943024 168.37255859 113.70407867 C 167.26939392 113.70823669 166.02578735 114.01315308 164.39790344 113.14219666 C 163.30841064 111.77927399 164.18418884 110.72126770 165.56063843 110.02495575" stroke-width="0.80000001" fill="rgb(240, 215, 36)" opacity="1.0" stroke="rgb(0, 0, 0)" stroke-opacity="1.0" stroke-linecap="round" stroke-linejoin="round"/>
    <path d="M 153.30677795 98.71956635 C 153.61529541 98.63727570 154.91108704 98.55228424 156.22154236 98.42346954 C 157.45594788 98.54647827 158.56837463 98.26226807 159.55291748 98.92679596 C 160.72338867 99.49697876 161.54603577 100.23686981 162.27066040 100.86328125 C 163.53720093 101.99461365 164.16983032 102.62169647 164.58590698 103.43247986 C 164.92434692 105.09594727 163.43577576 105.35403442 162.29618835 105.36982727 C 160.94049072 105.39682007 160.49311829 105.55603027 159.31190491 105.41860962 C 157.80264282 105.29323578 157.26634216 105.16506958 155.91316223 104.70732880 C 155.12727356 104.39815521 154.12345886 103.99861908 152.78352356 103.20563507 C 151.72456360 102.40602112 151.23703003 102.22399139 150.60397339 100.62276459 C 150.45358276 99.51975250 151.17156982 99.13908386 153.30677795 98.71956635" stroke-width="0.80000001" fill="rgb(252, 252, 252)" opacity="1.0" stroke="rgb(0, 0, 0)" stroke-opacity="1.0" stroke-linecap="round" stroke-linejoin="round"/>
    <path d="M 130.07109070 101.51985931 C 132.15882874 101.69395447 133.03460693 101.43067932 135.47566223 101.39650726 C 137.73776245 101.50012207 139.08569336 101.78057861 140.89859009 101.39237976 C 143.01092529 100.58445740 144.06462097 100.06434631 146.06968689 100.88619232 C 147.55661011 101.37427521 150.48330688 101.06905365 150.98965454 102.61941528 C 148.69923401 104.20645905 147.58316040 103.42548370 145.15005493 103.58840942 C 142.74705505 103.51735687 142.27505493 103.36267090 140.28572083 103.52458191 C 137.46531677 103.57686615 137.47680664 103.48435974 134.31002808 103.55911255 C 132.36268616 103.58093262 130.84228516 103.15628815 128.79112244 103.66962433 C 127.28858185 103.59136200 124.45774841 103.76335907 124.11746979 102.14688110 C 125.71922302 100.85819244 128.40820312 101.54400635 130.07109070 101.51985931" stroke-width="0.80000001" fill="rgb(159, 82, 31)" opacity="1.0" stroke="rgb(0, 0, 0)" stroke-opacity="1.0" stroke-linecap="round" stroke-linejoin="round"/>
    <path d="M 56.69173050 161.94995117 C 55.53552246 162.21052551 55.49938202 162.21690369 53.95269012 162.48240662 C 53.21972275 162.42999268 51.71286774 162.94859314 51.56523895 161.98139954 C 51.72711945 160.67724609 51.97921753 160.36231995 52.33293915 159.15112305 C 52.81325912 157.80514526 53.00469589 157.81661987 53.51084137 156.43856812 C 54.29522705 155.07061768 54.04640961 155.12261963 55.29637146 154.18038940 C 56.71952438 153.44407654 56.39628601 153.60028076 57.44829559 153.14096069 C 58.55770493 152.90542603 58.36267471 153.59657288 58.94123840 154.90103149 C 59.18534470 155.69288635 59.32651138 156.06874084 59.48374557 157.37550354 C 59.53216171 158.72239685 59.48917007 159.25097656 59.36637878 160.26239014 C 58.83698273 161.18206787 57.58383942 161.55233765 56.69173050 161.94995117" stroke-width="0.80000001" fill="rgb(1, 6, 3)" opacity="1.0" stroke="rgb(0, 0, 0)" stroke-opacity="1.0" stroke-linecap="round" stroke-linejoin="round"/>
    <path d="M 124.18446350 195.16841125 C 123.20262909 195.52351379 122.65609741 195.52728271 121.70240021 195.61653137 C 120.33521271 195.53045654 120.27182007 195.61943054 119.04385376 195.16696167 C 118.11529541 194.67022705 117.78820801 194.43705750 116.91026306 193.32321167 C 116.55096436 192.62969971 115.94418335 191.95568848 116.19092560 190.79739380 C 116.68347168 190.01002502 117.16508484 189.84909058 118.48943329 189.67382812 C 119.92478180 189.52566528 119.42126465 189.48043823 120.83238220 189.50796509 C 121.47231293 189.52064514 122.31726074 189.49188232 123.32048798 189.55758667 C 124.41186523 190.33067322 124.53896332 190.23385620 125.66826630 191.25830078 C 126.13930511 191.90315247 126.65346527 192.25993347 126.51831055 193.37483215 C 125.90772247 194.30316162 124.84541321 194.86938477 124.18446350 195.16841125" stroke-width="0.80000001" fill="rgb(1, 2, 2)" opacity="1.0" stroke="rgb(0, 0, 0)" stroke-opacity="1.0" stroke-linecap="round" stroke-linejoin="round"/>
    <path d="M 122.12256622 211.16554260 C 121.98177338 210.25939941 122.13991547 209.62733459 122.37657166 208.83833313 C 122.80337524 207.61853027 123.09912872 207.42852783 123.70146942 206.85093689 C 124.91947174 206.04072571 124.90444183 206.08625793 126.22641754 205.62631226 C 127.48336029 205.53158569 127.62352753 205.13008118 128.69187927 205.72459412 C 129.23031616 206.91975403 129.11267090 207.02360535 129.25143433 208.29373169 C 129.25137329 209.72758484 129.33251953 209.28913879 129.19461060 210.56762695 C 129.01452637 211.27032471 128.97886658 211.87466431 128.21310425 212.65196228 C 127.14743042 212.99411011 127.04383087 213.13006592 125.70882416 213.48248291 C 124.93807983 213.54087830 124.26229858 213.74812317 123.19818878 213.66638184 C 122.31487274 212.76507568 122.46221924 212.33999634 122.12256622 211.16554260" stroke-width="0.80000001" fill="rgb(3, 4, 6)" opacity="1.0" stroke="rgb(0, 0, 0)" stroke-opacity="1.0" stroke-linecap="round" stroke-linejoin="round"/>
    <path d="M 51.11195374 91.60534668 C 51.30102158 91.33308411 51.72610474 90.39280701 52.17632294 89.68513489 C 52.62343216 89.08236694 53.01705933 88.13677979 53.89793396 88.41199493 C 54.93653488 88.79748535 55.38795471 89.20677948 55.85308456 89.79908752 C 56.68007278 90.93453217 56.71091461 91.26689911 57.05464935 92.15371704 C 57.30727005 93.68692017 57.33388519 93.55215454 57.02101898 94.80064392 C 56.26636124 96.12571716 56.54247665 95.81531525 55.86717606 96.63399506 C 55.32832718 97.32502747 54.56519318 98.21192932 53.96247101 98.09201813 C 53.06349564 97.80508423 52.65976715 97.16619873 52.06734848 96.50332642 C 51.62688065 95.95843506 50.87970352 95.06058502 50.67836380 94.42002106 C 50.36277390 93.56402588 50.74430847 93.04104614 51.11195374 91.60534668" stroke-width="0.80000001" fill="rgb(2, 4, 100)" opacity="1.0" stroke="rgb(0, 0, 0)" stroke-opacity="1.0" stroke-linecap="round" stroke-linejoin="round"/>
    <path d="M 43.86099243 139.59873962 C 44.21543503 138.93635559 44.42174530 138.43257141 45.04823303 137.65733337 C 45.61240768 137.02691650 46.08218002 136.16719055 46.98407745 136.44520569 C 47.96639633 136.78752136 48.27161407 136.72450256 49.03973770 137.72630310 C 49.54044724 138.72628784 49.45785522 138.90562439 49.98504639 140.09764099 C 50.14942551 140.66998291 50.64923477 141.47373962 50.66678619 142.56719971 C 50.39476776 143.60050964 50.48099899 143.60174561 49.97611618 144.45422363 C 49.69537735 145.45693970 48.55469513 145.05018616 47.93447876 144.82450867 C 46.90749359 144.42530823 46.46891785 144.13949585 45.61849976 143.65298462 C 45.16333771 143.37214661 44.23015213 142.82284546 43.58971405 142.18449402 C 43.18595123 141.31930542 43.67705536 140.64273071 43.86099243 139.59873962" stroke-width="0.80000001" fill="rgb(0, 64, 48)" opacity="1.0" stroke="rgb(0, 0, 0)" stroke-opacity="1.0" stroke-linecap="round" stroke-linejoin="round"/>
    <path d="M 51.06524277 181.60818481 C 49.84983063 181.62626648 49.73221588 181.58949280 48.55989456 181.49058533 C 47.61135864 181.06813049 47.48668289 180.74923706 47.27801514 179.90324402 C 47.57767487 178.89204407 48.21307373 178.15470886 48.63571167 177.64335632 C 49.58331299 176.74328613 50.28370285 176.61621094 50.77220535 176.49537659 C 51.48641968 175.79772949 52.25947189 175.40710449 53.31805801 175.43791199 C 54.90143967 175.44985962 54.51462936 175.49942017 55.58517456 175.60893250 C 56.52088165 175.41648865 56.53425980 176.75971985 56.58599854 177.58634949 C 56.35325241 178.79054260 56.20597076 179.13290405 55.60606003 179.78836060 C 55.17374039 180.47386169 54.24682617 180.62100220 53.35645676 180.52066040 C 52.60139465 180.79125977 52.48135757 181.25164795 51.06524277 181.60818481" stroke-width="0.80000001" fill="rgb(145, 9, 11)" opacity="1.0" stroke="rgb(0, 0, 0)" stroke-opacity="1.0" stroke-linecap="round" stroke-linejoin="round"/>
    <path d="M 150.41851807 219.97766113 C 151.10528564 219.29585266 151.20840454 219.35058594 152.23886108 218.60018921 C 153.03147888 218.19400024 153.36376953 217.84217834 154.33815002 217.44064331 C 155.41246033 217.15682983 155.49200439 217.10836792 156.81547546 216.91326904 C 157.61633301 217.07238770 158.23559570 216.98634338 158.65707397 217.85777283 C 158.23243713 219.06274414 157.89955139 219.24523926 157.16954041 219.88758850 C 156.10882568 220.75646973 156.42453003 220.50196838 155.53732300 221.25971985 C 154.80021667 221.85536194 154.69847107 222.12582397 154.05845642 223.01385498 C 153.15155029 223.19627380 152.89372253 223.28753662 151.60791016 223.25494385 C 150.86860657 223.12239075 150.29695129 223.09056091 149.57835388 222.28555298 C 149.42359924 221.21000671 149.57885742 221.14994812 150.41851807 219.97766113" stroke-width="0.80000001" fill="rgb(235, 246, 236)" opacity="1.0" stroke="rgb(0, 0, 0)" stroke-opacity="1.0" stroke-linecap="round" stroke-linejoin="round"/>
  </g>
</svg>
