<?xml version="1.0" ?>
<svg xmlns="http://www.w3.org/2000/svg" version="1.1" width="256" height="256" viewBox="0 0 256 256">
  <defs/>
  <g>
    <path d="M 253.70513916 215.67007446 C 253.67332458 249.87887573 248.74018860 258.47781372 199.32775879 251.35493469 C 160.91604614 251.93280029 140.43946838 251.37710571 95.91548157 251.64730835 C 52.01174164 250.44432068 28.39698029 256.08486938 5.67700195 248.51318359 C 2.46481323 221.34707642 5.98782349 185.85041809 5.50035858 144.63368225 C 4.94548035 105.49452972 6.97113800 83.97206116 2.56998444 45.83390045 C 1.25457001 6.17153931 15.25517273 -5.16333771 49.89641571 4.61093903 C 88.91070557 4.54193115 104.47325897 2.60523224 148.18652344 3.41455078 C 192.89596558 5.37054443 218.66516113 -1.44869995 246.43778992 5.35394287 C 259.31359863 30.94860840 251.37509155 62.95647049 251.36578369 103.36970520 C 251.12149048 139.23741150 253.95140076 154.93450928 253.70513916 215.67007446" stroke-width="2.00000000" fill="rgb(247, 249, 243)" opacity="1.0" stroke="rgb(244, 237, 0)" stroke-opacity="0.35672477" stroke-linecap="round" stroke-linejoin="round"/>
    <path d="M 180.08262634 167.98570251 C 173.78192139 176.10485840 168.15962219 178.24287415 148.52096558 181.38345337 C 132.10005188 182.03637695 124.19664764 181.56158447 110.54806519 180.77313232 C 91.06658173 179.24497986 86.38055420 179.69448853 73.85737610 170.89743042 C 62.39428329 153.94514465 64.46736145 155.09696960 61.30541992 135.10868835 C 61.92604065 122.21435547 58.36296844 102.07865906 65.19667053 98.32113647 C 80.26342773 95.26041412 82.81732178 95.73376465 98.54294586 95.30232239 C 114.81258392 95.05108643 119.66390228 94.90602875 137.87506104 95.23404694 C 152.11715698 95.07052612 160.42115784 94.82381439 178.82756042 97.63786316 C 197.02310181 102.05858612 190.96121216 105.40957642 191.42477417 126.68260956 C 190.76934814 133.92166138 189.43391418 150.80616760 180.08262634 167.98570251" stroke-width="0.66928715" fill="rgb(9, 4, 4)" opacity="1.0" stroke="rgb(48, 17, 60)" stroke-opacity="0.6517179" stroke-linecap="round" stroke-linejoin="round"/>
    <path d="M 173.50515747 164.90237427 C 166.78648376 173.20159912 161.05679321 175.53671265 149.72979736 179.80072021 C 136.44931030 185.93626404 126.18378448 183.30609131 114.63797760 180.34585571 C 99.79685974 175.82398987 95.60447693 175.40431213 83.86943054 167.79432678 C 69.97121429 156.59091187 70.55587769 153.68872070 67.84542847 138.26669312 C 68.37501526 128.01124573 64.12535095 116.25692749 71.54678345 108.12521362 C 92.40646362 101.14283752 84.28628540 102.70825195 100.85193634 101.19230652 C 115.30389404 100.31231689 118.24035645 101.66528320 133.39546204 106.52882385 C 143.41285706 107.32063293 157.63829041 111.43194580 167.50811768 112.01242065 C 183.06243896 111.09285736 187.20474243 110.91159058 184.82235718 128.93379211 C 184.11961365 141.27209473 183.95399475 149.01451111 173.50515747 164.90237427" stroke-width="2.00000000" fill="rgb(116, 65, 50)" opacity="1.0" stroke="rgb(171, 122, 87)" stroke-opacity="0.9989364" stroke-linecap="round" stroke-linejoin="round"/>
    <path d="M 165.60601807 114.45700073 C 160.30017090 116.33301544 150.45011902 117.16822815 137.24211121 117.24929810 C 127.10865784 117.54707336 117.61149597 117.55413055 105.08668518 114.91273499 C 90.04148865 114.24479675 84.22082520 110.24096680 84.28085327 111.70448303 C 84.05123138 122.27703857 87.02862549 132.64773560 83.22894287 144.78823853 C 77.65356445 150.09022522 78.81556702 134.36810303 80.56587219 124.76170349 C 82.49455261 109.45755005 79.71900940 106.18364716 88.49203491 107.28690338 C 104.67134094 109.56501770 107.73063660 108.61148071 122.09505463 109.47980499 C 134.48112488 108.58585358 141.90954590 110.07894135 153.58628845 107.84991455 C 160.71945190 107.21655273 161.24482727 114.24660492 169.74188232 114.31574249 C 178.23280334 106.19523621 175.44598389 107.64492798 165.60601807 114.45700073" stroke-width="2.00000000" fill="rgb(242, 243, 238)" opacity="1.0" stroke="rgb(26, 16, 24)" stroke-opacity="1.0" stroke-linecap="round" stroke-linejoin="round"/>
    <path d="M 189.81709290 162.48127747 C 185.20478821 161.65310669 178.92811584 163.08280945 177.62223816 160.79667664 C 181.55274963 157.22578430 187.65676880 154.91076660 191.03573608 149.63388062 C 195.12438965 143.71868896 195.36088562 138.72860718 195.83839417 132.12194824 C 195.88404846 125.15571594 195.99923706 120.34297180 193.44577026 119.16928101 C 193.60092163 123.33567810 187.67819214 119.33616638 186.76921082 112.69252777 C 188.97093201 110.18313599 190.99163818 112.96324158 194.49963379 111.74102020 C 201.12626648 109.64634705 206.60223389 115.32144165 208.16947937 121.29970551 C 210.37844849 126.89471436 210.48286438 129.98176575 210.63536072 138.28219604 C 210.91969299 142.74511719 209.21003723 148.47700500 204.11752319 153.48063660 C 201.03924561 157.93267822 196.19975281 163.02197266 189.81709290 162.48127747" stroke-width="0.65215570" fill="rgb(5, 5, 7)" opacity="1.0" stroke="rgb(93, 89, 48)" stroke-opacity="0.6482468" stroke-linecap="round" stroke-linejoin="round"/>
    <path d="M 193.51536560 154.29138184 C 192.15270996 155.01823425 187.69692993 157.89601135 192.27168274 154.28923035 C 195.24151611 151.27478027 197.11021423 149.20143127 198.63923645 145.74481201 C 199.36653137 141.48292542 199.87062073 139.78112793 199.66024780 135.10614014 C 199.56529236 131.32376099 200.35003662 128.85522461 198.11093140 124.85282898 C 196.96121216 121.53439331 194.04530334 121.27320862 192.92198181 120.63095093 C 194.24827576 119.19371033 195.70510864 118.55647278 198.75234985 118.11586761 C 203.05786133 119.80238342 202.11904907 120.35884857 203.48855591 126.94284821 C 204.22239685 132.01408386 203.76271057 134.36436462 203.43421936 138.49531555 C 203.01104736 142.48001099 202.47418213 144.74421692 200.07437134 148.23907471 C 198.42413330 151.36273193 196.58805847 151.49880981 193.51536560 154.29138184" stroke-width="0.79487741" fill="rgb(248, 251, 250)" opacity="1.0" stroke="rgb(118, 198, 255)" stroke-opacity="0.51917577" stroke-linecap="round" stroke-linejoin="round"/>
    <path d="M 100.15875244 74.12221527 C 100.03604889 74.70204926 99.67034912 75.78367615 99.02446747 76.30297852 C 98.21593475 76.87605286 97.34890747 76.82244873 96.56543732 77.47617340 C 95.70712280 78.04875946 95.19848633 77.59523773 95.53575897 76.23658752 C 95.67500305 75.39759064 95.87544250 74.49241638 95.93553925 73.31520844 C 95.79620361 72.27072144 96.22414398 72.06732941 97.27619171 71.22346497 C 98.33464813 70.44011688 98.86500549 70.35269928 98.84288788 69.29965973 C 98.79353333 67.99271393 98.48279572 67.43830109 99.31066895 67.35918427 C 100.11320496 67.29028320 100.28870392 67.42249298 100.72735596 68.36629486 C 101.23890686 69.08766937 101.15169525 70.15552521 100.69578552 71.08161926 C 100.35730743 72.09207916 100.12435913 72.61081696 100.15875244 74.12221527" stroke-width="0.84610665" fill="rgb(130, 17, 60)" opacity="1.0" stroke="rgb(212, 71, 83)" stroke-opacity="0.60734814" stroke-linecap="round" stroke-linejoin="round"/>
    <path d="M 130.51629639 75.17198944 C 129.03276062 77.90276337 128.93960571 78.22316742 128.76541138 82.41690826 C 128.94218445 84.95373535 129.00199890 87.61647797 126.65068817 90.38447571 C 123.94769287 89.53041077 124.71308136 87.09700012 124.04367065 84.48506165 C 123.98802948 81.29989624 124.90218353 79.62905121 125.70603180 77.41618347 C 127.51735687 74.46553802 128.92396545 72.27368927 130.20043945 70.59619904 C 132.65365601 66.60720825 132.99310303 67.16355133 132.94442749 64.41422272 C 132.39672852 60.96694565 130.64581299 58.09567261 132.47483826 56.74015045 C 133.16812134 57.89590836 132.58390808 61.22590637 134.87872314 63.24213409 C 137.15582275 65.29358673 139.02784729 65.70378113 137.14314270 68.64746857 C 134.29425049 71.43230438 132.51951599 71.77435303 130.51629639 75.17198944" stroke-width="0.81372654" fill="rgb(156, 3, 0)" opacity="1.0" stroke="rgb(228, 122, 49)" stroke-opacity="0.48270592" stroke-linecap="round" stroke-linejoin="round"/>
    <path d="M 154.53634644 71.60813904 C 154.27182007 73.43867493 154.16690063 75.58807373 155.37132263 78.79449463 C 156.64912415 81.15557861 158.18048096 83.64212036 157.54698181 86.93229675 C 155.72145081 85.35475159 156.14601135 82.75607300 155.00784302 80.29235840 C 153.48295593 76.43402100 153.22152710 76.54884338 153.56564331 73.25811005 C 155.11227417 69.44062805 155.38401794 67.53665924 156.62368774 65.21298218 C 158.49047852 60.95965958 158.36343384 61.51475143 158.89216614 58.48486328 C 158.95883179 54.71606827 157.56468201 52.75792313 160.23764038 51.05886841 C 161.07673645 52.58037186 160.37008667 55.31434250 161.84338379 57.68300629 C 163.23410034 60.63258743 161.50262451 62.02301025 159.81292725 64.25215912 C 158.32824707 66.03216553 155.64804077 67.50797272 154.53634644 71.60813904" stroke-width="0.00000000" fill="rgb(111, 61, 89)" opacity="1.0" stroke="rgb(255, 255, 255)" stroke-opacity="0.0" stroke-linecap="round" stroke-linejoin="round"/>
    <path d="M 195.07836914 179.99748230 C 182.70852661 179.01885986 176.16452026 175.90538025 161.99615479 178.27488708 C 155.12919617 182.89125061 147.77250671 185.77809143 133.18693542 184.63438416 C 122.64358521 184.86885071 113.05294037 184.21536255 100.60278320 182.46836853 C 86.99328613 179.45500183 79.71049500 180.62867737 71.03462219 182.23387146 C 53.81770325 180.78564453 56.11744690 173.46914673 67.55826569 174.20709229 C 86.91166687 174.56727600 86.64944458 175.36349487 95.74340820 176.56785583 C 108.52455139 180.33259583 117.90107727 179.98049927 128.01022339 180.19131470 C 144.12709045 180.61061096 149.09924316 180.15298462 161.27482605 175.67564392 C 173.26046753 175.49620056 182.00793457 175.72570801 193.42117310 178.05534363 C 207.75834656 182.13362122 211.02391052 184.72291565 195.07836914 179.99748230" stroke-width="0.50710589" fill="rgb(3, 0, 0)" opacity="1.0" stroke="rgb(3, 9, 38)" stroke-opacity="0.44722646" stroke-linecap="round" stroke-linejoin="round"/>
    <path d="M 78.41163635 175.82723999 C 80.52758026 177.74975586 91.95869446 181.07679749 85.65731812 183.17066956 C 78.85860443 184.43528748 74.53440857 183.22383118 68.49322510 183.99725342 C 61.60091782 185.10964966 59.28484344 187.68428040 60.78642273 191.52642822 C 59.91129684 194.08311462 57.70226669 191.87519836 54.78250504 187.76760864 C 50.25868988 184.12059021 49.47947311 180.05290222 45.39354706 177.33091736 C 39.68614197 175.77354431 34.95026779 173.75581360 37.08430481 174.70828247 C 42.06301880 176.34266663 44.70452499 177.93290710 47.07660675 171.77577209 C 48.65977859 165.47863770 49.79070282 167.66645813 54.84646225 174.47314453 C 58.35842514 178.06910706 63.43635178 180.28582764 69.62328339 176.83638000 C 75.12450409 173.19641113 74.32762146 172.76516724 78.41163635 175.82723999" stroke-width="1.40852010" fill="rgb(104, 103, 99)" opacity="1.0" stroke="rgb(0, 17, 0)" stroke-opacity="0.8834933" stroke-linecap="round" stroke-linejoin="round"/>
    <path d="M 129.44305420 73.82745361 C 127.37325287 79.13793182 126.61968994 80.32325745 126.27204895 86.78736115 C 127.05167389 93.44766235 125.87166595 90.77888489 122.70635986 92.22857666 C 121.42508698 92.82830811 124.44701385 87.85456848 125.09212494 82.95954132 C 125.22415924 78.41517639 126.04237366 73.16304016 128.93232727 69.84922028 C 132.56187439 68.31183624 129.97654724 65.80358887 128.65759277 59.99864578 C 126.69602966 53.70900726 126.84860229 53.96349716 125.95780182 50.83569336 C 125.38215637 46.73696136 124.05264282 41.85134888 126.61358643 39.97588348 C 126.85373688 43.35963058 126.97820282 46.51361465 129.87384033 51.17952728 C 130.85455322 55.14326859 134.54858398 59.45264816 136.17462158 62.89749908 C 138.33102417 68.23485565 132.51925659 68.97889709 129.44305420 73.82745361" stroke-width="0.93020731" fill="rgb(17, 3, 7)" opacity="1.0" stroke="rgb(0, 11, 22)" stroke-opacity="0.38350734" stroke-linecap="round" stroke-linejoin="round"/>
    <path d="M 204.72079468 185.51008606 C 201.52734375 185.96154785 199.34095764 184.82720947 196.35656738 182.31610107 C 194.45831299 180.69360352 191.71026611 180.40469360 188.35577393 182.14981079 C 183.84527588 183.39465332 183.04942322 183.11885071 178.85700989 183.21386719 C 175.41316223 183.38711548 171.53919983 182.59083557 168.94995117 181.26261902 C 165.62573242 178.23625183 168.52742004 177.49382019 172.92993164 177.34680176 C 176.06721497 176.66302490 177.77615356 177.19027710 179.67990112 174.99916077 C 183.12165833 172.57626343 184.99658203 172.83064270 188.50914001 172.16802979 C 193.01997375 171.65725708 193.80616760 172.79809570 196.75558472 174.37420654 C 199.54528809 175.84619141 202.47633362 177.75440979 204.51951599 179.61264038 C 207.52735901 182.42993164 210.07228088 185.85842896 204.72079468 185.51008606" stroke-width="0.82709378" fill="rgb(18, 8, 9)" opacity="1.0" stroke="rgb(101, 97, 87)" stroke-opacity="0.76052934" stroke-linecap="round" stroke-linejoin="round"/>
    <path d="M 101.02719879 75.22225189 C 98.16407776 76.63878632 95.15857697 77.26044464 92.09265137 79.00762939 C 87.00941467 81.42311859 85.59126282 79.61878967 89.37028503 74.22620392 C 91.94345856 69.11666870 94.13015747 67.87322998 96.77807617 64.54868317 C 101.22387695 61.40799713 102.11071014 61.81802750 101.12030792 58.39320374 C 99.32144165 53.25537872 95.57934570 52.16155624 91.86031342 49.44660187 C 87.60746765 46.62830353 88.41553497 47.63917160 86.33963013 46.34033966 C 85.65818787 44.33031464 90.90688324 46.92926788 94.43842316 48.24952698 C 98.84029388 50.77165222 99.98120880 51.71962738 102.79454803 55.11796951 C 106.38144684 58.94127274 107.91277313 61.96450424 107.29100037 65.65895844 C 105.41189575 70.39256287 104.90010071 72.34586334 101.02719879 75.22225189" stroke-width="0.94081527" fill="rgb(67, 19, 16)" opacity="1.0" stroke="rgb(98, 63, 5)" stroke-opacity="0.51266986" stroke-linecap="round" stroke-linejoin="round"/>
    <path d="M 209.15660095 200.39340210 C 209.18218994 200.85986328 209.15718079 200.94287109 209.03680420 201.65382385 C 208.89080811 202.06382751 208.74905396 202.45747375 208.38183594 202.89210510 C 208.11816406 203.20552063 207.84765625 203.55825806 207.48843384 203.95632935 C 207.15431213 204.31185913 206.88410950 204.76147461 206.38935852 204.82289124 C 206.05281067 204.33976746 206.14770508 204.20893860 206.07711792 203.48983765 C 205.95989990 202.79257202 205.94692993 202.96673584 205.84481812 202.27575684 C 205.80986023 201.73217773 205.61679077 201.44236755 206.05421448 201.08839417 C 206.61161804 200.61347961 206.58374023 200.56713867 207.15544128 200.05722046 C 207.69992065 199.71499634 207.60023499 199.56991577 208.29199219 199.32376099 C 209.00190735 199.40588379 209.01487732 199.60078430 209.15660095 200.39340210" stroke-width="0.81159759" fill="rgb(5, 9, 13)" opacity="1.0" stroke="rgb(73, 95, 45)" stroke-opacity="0.66440445" stroke-linecap="round" stroke-linejoin="round"/>
    <path d="M 154.31332397 74.41382599 C 155.99850464 78.88888550 157.64721680 81.07315826 159.05751038 86.18787384 C 161.02136230 91.71269226 161.58511353 96.23279572 159.67932129 99.21314240 C 155.90003967 96.80577850 158.83901978 92.68244934 157.92576599 88.69131470 C 157.73570251 82.35301971 156.76293945 80.67818451 153.66212463 76.41470337 C 150.27616882 70.46336365 151.69966125 68.97588348 155.45758057 64.07776642 C 159.40026855 59.08464432 162.15049744 59.18261719 160.34855652 55.57124329 C 156.73672485 50.04565048 150.84596252 47.27153397 152.38052368 45.17644501 C 153.72009277 45.90678406 156.64064026 50.71178818 160.47744751 53.08973694 C 165.97932434 55.88505936 166.66918945 58.71747971 160.96202087 61.90247726 C 156.82807922 66.61793518 153.06271362 68.14332581 154.31332397 74.41382599" stroke-width="0.68060988" fill="rgb(7, 3, 13)" opacity="1.0" stroke="rgb(4, 0, 0)" stroke-opacity="0.42873028" stroke-linecap="round" stroke-linejoin="round"/>
    <path d="M 168.21488953 176.23229980 C 169.91616821 177.85508728 170.27890015 179.26181030 167.57695007 181.34716797 C 165.25645447 182.92033386 163.14622498 184.71842957 164.09083557 187.51266479 C 165.49386597 189.74885559 167.66009521 190.36354065 170.02583313 191.02444458 C 172.38560486 192.27702332 174.85340881 191.19937134 174.91220093 192.95204163 C 173.14694214 193.74577332 172.35414124 193.43589783 168.56779480 194.57015991 C 165.98535156 194.48597717 164.98013306 194.44818115 162.56260681 195.15881348 C 159.34510803 194.24215698 160.49688721 193.76536560 160.59754944 189.92059326 C 160.77012634 187.13638306 161.71520996 186.16407776 161.26235962 184.06750488 C 161.54452515 180.60185242 161.75781250 180.75550842 163.54592896 177.39291382 C 164.17402649 174.95146179 166.28932190 173.23527527 168.21488953 176.23229980" stroke-width="0.66288269" fill="rgb(0, 1, 2)" opacity="1.0" stroke="rgb(0, 33, 20)" stroke-opacity="0.5746529" stroke-linecap="round" stroke-linejoin="round"/>
    <path d="M 112.90164948 189.97984314 C 112.42947388 191.37283325 109.18694305 192.32434082 107.21405029 192.74867249 C 104.34845734 193.43315125 102.96160889 193.35008240 100.30453491 193.95750427 C 97.57505035 194.10166931 96.39247894 194.75224304 93.95539856 195.97453308 C 91.14737701 197.09498596 89.65927124 197.61650085 88.19361877 197.88484192 C 86.93198395 197.89758301 82.40368652 199.76818848 82.79698181 197.93527222 C 85.50685883 196.13229370 85.71939087 197.00912476 88.05853271 195.18424988 C 90.56646729 193.20497131 90.55067444 192.91276550 93.41542053 190.56607056 C 95.13510895 188.60969543 96.52728271 188.54191589 99.38619995 189.02833557 C 101.19580841 188.94380188 103.22620392 189.16525269 106.17391205 189.61276245 C 107.70530701 189.71763611 110.65561676 190.41967773 112.90164948 189.97984314" stroke-width="0.45233011" fill="rgb(19, 28, 7)" opacity="1.0" stroke="rgb(108, 141, 55)" stroke-opacity="0.5724938" stroke-linecap="round" stroke-linejoin="round"/>
    <path d="M 80.97261047 143.81646729 C 84.28526306 140.57592773 83.32956696 142.11598206 83.32135773 151.49421692 C 82.61199951 156.58953857 83.83187866 162.54504395 82.41278076 167.58576965 C 78.17501831 167.87660217 76.66699219 160.84600830 74.97325897 157.20474243 C 73.24124908 152.46182251 73.29604340 150.11732483 73.18669891 144.38151550 C 73.01159668 140.04342651 72.40214539 136.01487732 72.64695740 129.43449402 C 72.63007355 122.52539825 73.32923889 121.25544739 71.41479492 116.96714783 C 75.04020691 111.08187866 76.01966858 114.77944946 81.50984955 116.79164124 C 82.86276245 119.49513245 77.53706360 122.41523743 76.54131317 127.04579926 C 76.66679382 133.19833374 76.53334808 135.62733459 76.13512421 141.46058655 C 76.31571960 149.65980530 75.50634003 151.20841980 80.97261047 143.81646729" stroke-width="0.43370485" fill="rgb(248, 246, 243)" opacity="1.0" stroke="rgb(214, 157, 132)" stroke-opacity="0.7613643" stroke-linecap="round" stroke-linejoin="round"/>
    <path d="M 124.67998505 87.50751495 C 125.39340210 87.56886292 126.58879852 87.89631653 127.60186768 87.24811554 C 128.17402649 86.77802277 129.16848755 85.17894745 130.03205872 85.13088226 C 130.41868591 85.97525024 130.47926331 87.05656433 131.11018372 88.31469727 C 131.45780945 89.51135254 132.29495239 90.27748871 132.93815613 90.87067413 C 133.07374573 91.98297882 132.11514282 92.12375641 131.12487793 92.44355774 C 129.02317810 92.40135956 129.36384583 92.24184418 128.40917969 92.16540527 C 127.47630310 92.44863129 126.87458038 92.10920715 125.65561676 91.87499237 C 124.54488373 91.28337860 124.19915009 92.54917145 122.92213440 92.30076599 C 122.05323029 91.81441498 122.63392639 90.33396149 122.91781616 89.38745880 C 123.40102386 87.94638824 122.83176422 87.53753662 124.67998505 87.50751495" stroke-width="0.76933843" fill="rgb(231, 233, 141)" opacity="1.0" stroke="rgb(255, 242, 204)" stroke-opacity="0.7636031" stroke-linecap="round" stroke-linejoin="round"/>
    <path d="M 166.26048279 111.83068085 C 167.51658630 111.36599731 167.69184875 111.23587036 169.44163513 110.38173676 C 170.93304443 109.61882019 171.50212097 109.40514374 173.05021667 108.83383942 C 174.86955261 108.24668121 174.97653198 108.10906982 176.95330811 107.74495697 C 177.99285889 107.51350403 179.61503601 107.32012177 181.12638855 108.21910095 C 182.05508423 108.68121338 181.84974670 110.44882202 179.76998901 110.94228363 C 178.18499756 111.36923981 178.13397217 111.33769989 176.56948853 111.80696869 C 175.11889648 112.11103821 174.69892883 112.19306946 172.64993286 112.50196075 C 171.25108337 112.86161804 170.79980469 112.90866852 168.94975281 112.95633698 C 167.09030151 113.02895355 166.13761902 113.26113892 164.90737915 113.39979553 C 162.98587036 113.27328491 164.55191040 112.41637421 166.26048279 111.83068085" stroke-width="2.00000000" fill="rgb(236, 181, 31)" opacity="1.0" stroke="rgb(9, 0, 5)" stroke-opacity="1.0" stroke-linecap="round" stroke-linejoin="round"/>
    <path d="M 153.74218750 99.96762085 C 154.02906799 99.95095062 155.61044312 99.69750977 156.59274292 99.61738586 C 157.99430847 99.73118591 158.83267212 99.46504211 159.74725342 100.05043793 C 161.01884460 100.61666870 161.82319641 101.14137268 162.61428833 101.69762421 C 163.96679688 102.70684814 164.21211243 102.90512085 165.31898499 103.91829681 C 166.01570129 105.02819061 164.38467407 105.01887512 163.13940430 105.62927246 C 161.81306458 106.03198242 161.61166382 106.18191528 160.61291504 105.99764252 C 159.41839600 105.74208832 158.54956055 105.48480225 157.34510803 105.00244904 C 156.41139221 104.60012054 155.32954407 104.00318909 154.47293091 103.37059021 C 153.59257507 102.76628876 152.51596069 102.06774902 151.64666748 101.35407257 C 150.63182068 100.26338196 151.83636475 100.36869049 153.74218750 99.96762085" stroke-width="2.00000000" fill="rgb(242, 243, 249)" opacity="1.0" stroke="rgb(0, 1, 24)" stroke-opacity="1.0" stroke-linecap="round" stroke-linejoin="round"/>
    <path d="M 131.08615112 102.35073090 C 133.04229736 102.48466492 134.24520874 102.14256287 136.22312927 102.18176270 C 138.09201050 101.88543701 139.72193909 102.00088501 141.61564636 101.91799927 C 143.78150940 101.71978760 145.33348083 101.37168884 146.88540649 101.64186859 C 148.46611023 101.97963715 151.09124756 102.04481506 150.69404602 103.60013580 C 148.46470642 104.53717804 146.41200256 104.62091827 145.16038513 104.56994629 C 142.33734131 104.49916077 142.56517029 104.61984253 140.56008911 104.66204834 C 137.70855713 104.65675354 137.98130798 104.50291443 134.92521667 104.55641937 C 133.29154968 104.44333649 132.11669922 104.41727448 129.50888062 104.51550293 C 127.72460938 104.42784882 125.95433807 104.69757843 125.37916565 102.97357178 C 127.01911926 101.80258942 129.46771240 102.34716034 131.08615112 102.35073090" stroke-width="2.00000000" fill="rgb(160, 91, 35)" opacity="1.0" stroke="rgb(0, 0, 0)" stroke-opacity="1.0" stroke-linecap="round" stroke-linejoin="round"/>
    <path d="M 57.20566177 162.11347961 C 56.13264084 162.50810242 56.02692413 162.56959534 54.66330338 162.94856262 C 53.82311249 162.97421265 52.63970184 163.55561829 52.51830673 162.85906982 C 52.66939163 161.78222656 52.98554230 161.14184570 53.22224426 160.22491455 C 53.70586395 158.94697571 53.88224792 158.89250183 54.44392395 157.61203003 C 54.96875000 156.59548950 55.22480392 156.27182007 56.03122330 155.65029907 C 57.31426239 154.75791931 57.02639389 155.04087830 57.91960526 154.13685608 C 58.62498093 153.07031250 58.64922714 154.28758240 59.00533676 155.49900818 C 59.20815659 156.32368469 59.22054291 156.83432007 59.56503677 157.90972900 C 59.88428116 158.93724060 60.12111664 159.58050537 59.67314911 160.24423218 C 58.93693542 161.09046936 58.08020401 161.59475708 57.20566177 162.11347961" stroke-width="0.58708972" fill="rgb(0, 5, 3)" opacity="1.0" stroke="rgb(33, 123, 82)" stroke-opacity="0.6502912" stroke-linecap="round" stroke-linejoin="round"/>
    <path d="M 124.09104919 195.71821594 C 123.93544769 195.85154724 122.97008514 196.13500977 122.09682465 196.11656189 C 121.34888458 196.10940552 120.44882965 195.94200134 119.72299957 195.56044006 C 119.05078125 195.26660156 118.43218231 194.76330566 118.08718109 193.91610718 C 117.79369354 193.30361938 117.46332550 192.18301392 117.38172913 191.51329041 C 117.24943542 190.65899658 118.24866486 190.65534973 119.31418610 190.70446777 C 120.13781738 190.77151489 120.37639618 190.69856262 121.28154755 190.90058899 C 121.85486603 191.06098938 122.63490295 191.17153931 123.46490479 191.33970642 C 124.13613129 191.38465881 124.87774658 191.48205566 125.76591492 192.07518005 C 126.37198639 192.59701538 126.81526947 192.96255493 126.20472717 193.99636841 C 125.76828766 194.61351013 125.40517426 194.93040466 124.09104919 195.71821594" stroke-width="0.83949637" fill="rgb(2, 12, 3)" opacity="1.0" stroke="rgb(97, 125, 46)" stroke-opacity="0.59531695" stroke-linecap="round" stroke-linejoin="round"/>
    <path d="M 123.23614502 211.55030823 C 123.21375275 210.72254944 123.27215576 210.53588867 123.58274841 209.66268921 C 124.01616669 208.71255493 124.03618622 208.59922791 124.77114868 208.00727844 C 125.51235962 207.52673340 125.82016754 207.42912292 126.79364014 207.19155884 C 127.41880035 207.13191223 128.20819092 206.92955017 128.87937927 207.43438721 C 129.42291260 208.21574402 129.40377808 208.25164795 129.62353516 209.38670349 C 129.56153870 210.49313354 129.60472107 210.19950867 129.35005188 211.17523193 C 129.14747620 211.56591797 128.98794556 212.22868347 128.34803772 212.91246033 C 127.85488129 213.18711853 127.39206696 213.41647339 126.38570404 213.69325256 C 125.90656281 213.73599243 125.14374542 213.81536865 124.33319855 213.45907593 C 123.79908752 213.09989929 123.43740845 212.65640259 123.23614502 211.55030823" stroke-width="0.85291570" fill="rgb(3, 3, 4)" opacity="1.0" stroke="rgb(70, 85, 68)" stroke-opacity="0.72899234" stroke-linecap="round" stroke-linejoin="round"/>
    <path d="M 52.25411224 92.39074707 C 52.42073822 92.08402252 52.74503326 91.32625580 53.17015839 90.80182648 C 53.56061172 90.31497955 54.10411835 90.01791382 54.91647339 90.07232666 C 55.73408890 90.18325043 56.15581131 90.76021576 56.38068390 91.20056152 C 56.91043472 92.26766968 56.86702347 92.45357513 57.09270859 93.32785034 C 57.22457123 94.62142944 57.26233292 94.43172455 56.98375702 95.54124451 C 56.39224243 96.65733337 56.57002258 96.37644196 56.06953049 97.07413483 C 55.76578140 97.75079346 54.94344330 98.32819366 54.40742111 98.09889221 C 53.61595917 97.72532654 53.22204971 97.27807617 52.83445740 96.68213654 C 52.53788376 96.24433136 52.09656906 95.47708130 51.99419403 94.74825287 C 51.85238266 94.05842590 52.04067993 93.61019897 52.25411224 92.39074707" stroke-width="0.77214468" fill="rgb(0, 0, 107)" opacity="1.0" stroke="rgb(19, 85, 164)" stroke-opacity="0.6403254" stroke-linecap="round" stroke-linejoin="round"/>
    <path d="M 45.15259171 140.15963745 C 45.24074936 140.05239868 45.82907486 139.07164001 46.24012756 138.67733765 C 46.69437027 138.08090210 47.21461487 137.35586548 47.93525696 137.67372131 C 48.60793686 138.05876160 48.89342499 138.21110535 49.32687759 139.13999939 C 49.64237213 139.66313171 49.87964249 140.60740662 49.98991394 141.22143555 C 50.06726837 141.96156311 50.44388962 142.46925354 50.48415756 143.37765503 C 50.30442810 144.03038025 50.08386612 144.21940613 49.92311859 144.85968018 C 49.78509140 145.78787231 48.79886627 144.79296875 48.19090271 144.57304382 C 47.14480209 143.99673462 47.20941162 144.07034302 46.28279495 143.75404358 C 45.42954254 143.39527893 45.09494781 142.75917053 44.77385712 142.33901978 C 44.22562790 141.71391296 44.72169495 141.19775391 45.15259171 140.15963745" stroke-width="0.55286270" fill="rgb(0, 67, 52)" opacity="1.0" stroke="rgb(14, 141, 113)" stroke-opacity="0.57942075" stroke-linecap="round" stroke-linejoin="round"/>
    <path d="M 54.22260666 182.88262939 C 52.46727371 183.29826355 51.87607193 183.30291748 49.93601990 182.61082458 C 48.09827042 180.55642700 48.11784744 179.16358948 46.40101242 177.86676025 C 44.15954590 176.41917419 46.26630402 174.57128906 47.26853561 173.24514771 C 49.00289917 171.35205078 49.30334473 170.40451050 51.24821472 170.11943054 C 53.36606598 170.35188293 54.60676193 171.11715698 56.86952972 172.09591675 C 59.76600647 174.45362854 59.26860809 173.89230347 60.76279449 175.24946594 C 61.92897034 177.06097412 62.81607437 178.61462402 63.15124512 180.50085449 C 63.57545853 182.57679749 65.55403900 182.56918335 64.97254944 184.11508179 C 63.32876205 185.43748474 62.30669403 184.03579712 59.82194519 183.11529541 C 57.63252640 181.90187073 57.20937729 181.94302368 54.22260666 182.88262939" stroke-width="1.80886996" fill="rgb(24, 2, 5)" opacity="1.0" stroke="rgb(0, 9, 3)" stroke-opacity="0.9636217" stroke-linecap="round" stroke-linejoin="round"/>
    <path d="M 151.04748535 220.31608582 C 151.35050964 220.01055908 151.94012451 219.77507019 152.86390686 219.49383545 C 153.68736267 219.25314331 154.38005066 218.96186829 155.15809631 218.52136230 C 155.89202881 218.10232544 156.47448730 217.44155884 157.36044312 217.60267639 C 158.03965759 217.85455322 158.61199951 218.18168640 158.82295227 219.07598877 C 158.35002136 220.24250793 157.87882996 220.28939819 157.10739136 220.48536682 C 155.82861328 220.73762512 156.03317261 220.56149292 155.04409790 220.97694397 C 154.31216431 221.40155029 153.97427368 221.89968872 153.71830750 222.90785217 C 153.57766724 223.29141235 153.02732849 223.63467407 152.21934509 223.85124207 C 151.34912109 223.98374939 150.54016113 223.47587585 150.37074280 222.69070435 C 150.17329407 221.92765808 150.40985107 221.31172180 151.04748535 220.31608582" stroke-width="0.46288624" fill="rgb(223, 240, 229)" opacity="1.0" stroke="rgb(255, 255, 255)" stroke-opacity="0.0" stroke-linecap="round" stroke-linejoin="round"/>
  </g>
</svg>
