<?xml version="1.0" ?>
<svg xmlns="http://www.w3.org/2000/svg" version="1.1" width="256" height="256" viewBox="0 0 256 256">
  <defs/>
  <g>
    <path d="M 253.77799988 215.67883301 C 253.77323914 250.06167603 248.63116455 258.41119385 199.38507080 251.35728455 C 160.78775024 251.94601440 140.48828125 251.39801025 95.90267944 251.67147827 C 51.99008179 250.51840210 28.30704498 256.21890259 5.60912323 248.64236450 C 2.44422150 221.45275879 5.93099213 186.00277710 5.44706726 144.74816895 C 4.88552094 105.59535217 6.86870575 84.06629181 2.45285797 45.88885498 C 1.11386108 6.29194641 15.09747314 -5.16193390 49.74427795 4.58271790 C 88.74636841 4.50244141 104.39049530 2.56920624 148.08880615 3.33027649 C 192.86076355 5.28060913 218.63931274 -1.58883667 246.34240723 5.22869110 C 259.25338745 30.91265106 251.39791870 62.89451218 251.42956543 103.32254028 C 251.18107605 139.24972534 254.00924683 154.88946533 253.77799988 215.67883301" stroke-width="2.00000000" fill="rgb(247, 249, 243)" opacity="1.0" stroke="rgb(245, 236, 0)" stroke-opacity="0.3545847" stroke-linecap="round" stroke-linejoin="round"/>
    <path d="M 180.06675720 167.95771790 C 173.80426025 176.06651306 168.18916321 178.16157532 148.40515137 181.55314636 C 132.28308105 182.24475098 123.92713928 181.70892334 110.33410645 181.09213257 C 91.46652222 179.60110474 85.29139709 179.47306824 73.91431427 171.06030273 C 62.46406937 153.98597717 64.32284546 154.88835144 61.22279739 135.04171753 C 61.85915375 122.00193024 58.60913086 102.01174927 65.19145966 98.10136414 C 79.99132538 95.71856689 82.02134705 95.75376892 98.29537964 95.18181610 C 114.57806396 95.04241943 119.56801605 94.89239502 137.63327026 95.21858215 C 152.07272339 95.00164795 160.18873596 94.79826355 178.72232056 97.59608459 C 197.04888916 102.14392853 190.97662354 105.30480194 191.44552612 126.52296448 C 190.79695129 133.85578918 189.39659119 150.97122192 180.06675720 167.95771790" stroke-width="0.65617800" fill="rgb(8, 4, 4)" opacity="1.0" stroke="rgb(49, 19, 59)" stroke-opacity="0.66871715" stroke-linecap="round" stroke-linejoin="round"/>
    <path d="M 175.09390259 162.81631470 C 168.15165710 171.56008911 165.65431213 173.05981445 152.90283203 179.22567749 C 138.95704651 185.34252930 128.33551025 183.67620850 117.24656677 181.50332642 C 102.81541443 177.69921875 95.49039459 175.08367920 86.24818420 169.49058533 C 71.17030334 158.15701294 70.88491058 156.13763428 68.14385986 140.86088562 C 68.77731323 128.94517517 64.45072174 119.77453613 69.72883606 109.84330750 C 89.03276062 101.17275238 81.39036560 103.65274048 98.36034393 101.35935211 C 113.12634277 100.12641907 118.53612518 101.22604370 129.63902283 106.15921021 C 143.85137939 108.61087799 153.41719055 112.20069885 165.69186401 112.50050354 C 178.94223022 111.92260742 187.77125549 106.94309235 184.91680908 125.29736328 C 184.81912231 137.17106628 184.53013611 146.16194153 175.09390259 162.81631470" stroke-width="2.00000000" fill="rgb(116, 64, 49)" opacity="1.0" stroke="rgb(170, 121, 88)" stroke-opacity="0.9981341" stroke-linecap="round" stroke-linejoin="round"/>
    <path d="M 163.77420044 114.99317169 C 158.00939941 116.75399780 148.75683594 117.12178040 135.55081177 117.27433014 C 125.63359833 117.48242950 116.03356171 117.41538239 103.70117188 114.72768402 C 88.93083191 114.01068115 83.28121948 109.85145569 84.16532135 112.12038422 C 84.49031067 122.68088531 86.74316406 132.15014648 83.29878235 144.80917358 C 77.69302368 150.28216553 78.69172668 134.23475647 80.46836853 124.57106018 C 82.76004028 109.13679504 79.28376770 106.11611176 87.99913025 107.31807709 C 104.20577240 109.50827026 107.51916504 108.63471985 121.52142334 109.52020264 C 133.64614868 108.57052612 142.70147705 110.17031097 153.60493469 107.80580139 C 160.41484070 106.30687714 159.79661560 113.72367859 167.16497803 113.59554291 C 176.49325562 106.25917053 174.61610413 109.09830475 163.77420044 114.99317169" stroke-width="2.00000000" fill="rgb(241, 242, 240)" opacity="1.0" stroke="rgb(18, 13, 20)" stroke-opacity="0.9405726" stroke-linecap="round" stroke-linejoin="round"/>
    <path d="M 189.99241638 162.50373840 C 185.44320679 161.68011475 179.76428223 162.77679443 177.51098633 161.01457214 C 181.21009827 157.34136963 187.41732788 155.20535278 190.90794373 149.88014221 C 195.21298218 143.95849609 195.41696167 139.07862854 195.85401917 132.37338257 C 195.90548706 125.56962585 195.91017151 120.68035126 193.69715881 119.31910706 C 194.09007263 123.21997070 188.24882507 119.21218872 186.96018982 112.66519165 C 188.68086243 109.97978210 190.56295776 112.93544006 194.04690552 111.85998535 C 200.75692749 109.55795288 206.29513550 114.92662811 207.99105835 120.99097443 C 210.18771362 126.52186584 210.38349915 129.72196960 210.62854004 138.04550171 C 211.01483154 142.27944946 209.16302490 148.54077148 204.17114258 153.34875488 C 200.99369812 157.95909119 196.05958557 162.94091797 189.99241638 162.50373840" stroke-width="0.68726134" fill="rgb(4, 3, 10)" opacity="1.0" stroke="rgb(84, 84, 44)" stroke-opacity="0.6575215" stroke-linecap="round" stroke-linejoin="round"/>
    <path d="M 193.57656860 154.24153137 C 192.22099304 154.91462708 187.60438538 157.96855164 192.22015381 154.32145691 C 195.25558472 151.30416870 197.13072205 149.21392822 198.70379639 145.72682190 C 199.40788269 141.51641846 199.90983582 139.71588135 199.70004272 135.05317688 C 199.58000183 131.25991821 200.36804199 128.79675293 198.08731079 124.82881165 C 196.95645142 121.50960541 193.98518372 121.24495697 192.93701172 120.58172607 C 194.27671814 119.17412567 195.74870300 118.53613281 198.76531982 118.07785034 C 203.06726074 119.80398560 202.12696838 120.34387970 203.50907898 126.94176483 C 204.26013184 132.03694153 203.80751038 134.37431335 203.48837280 138.52728271 C 203.05490112 142.53042603 202.47901917 144.77915955 200.13801575 148.22673035 C 198.53340149 151.35421753 196.53845215 151.61685181 193.57656860 154.24153137" stroke-width="0.77977020" fill="rgb(243, 252, 252)" opacity="1.0" stroke="rgb(112, 195, 255)" stroke-opacity="0.4886296" stroke-linecap="round" stroke-linejoin="round"/>
    <path d="M 99.81202698 74.40567017 C 99.66514587 75.03908539 99.26139069 76.03405762 98.69258881 76.52043915 C 97.92979431 77.09819794 97.06196594 77.01287842 96.30037689 77.51113129 C 95.50485229 78.00109100 94.78211975 77.77679443 95.22153473 76.40744019 C 95.37667847 75.63147736 95.55865479 74.75787354 95.68412781 73.63542938 C 95.56957245 72.74932861 95.89580536 72.32466125 96.99699402 71.55030823 C 97.92748260 70.89088440 98.61659241 70.78932953 98.53228760 69.79637909 C 98.52119446 68.63104248 98.29517365 67.96108246 99.09497833 67.87237549 C 99.78247070 67.91062927 99.90254974 68.09545135 100.33380127 68.94387054 C 100.82094574 69.56488037 100.79402924 70.59121704 100.41127014 71.52986145 C 100.17054749 72.51019287 99.87944794 73.05577850 99.81202698 74.40567017" stroke-width="0.94167364" fill="rgb(156, 31, 93)" opacity="1.0" stroke="rgb(215, 78, 83)" stroke-opacity="0.5804945" stroke-linecap="round" stroke-linejoin="round"/>
    <path d="M 130.59642029 75.13661194 C 129.10530090 77.85627747 128.98236084 78.28359985 128.77278137 82.36657715 C 128.87358093 84.99673462 129.12562561 87.61920929 126.99572754 90.48519135 C 124.38820648 89.43465424 124.96749115 87.00833130 124.06888580 84.53543091 C 123.88803864 81.47744751 124.95409393 79.68914032 125.71575165 77.36677551 C 127.42100525 74.44376373 128.84059143 72.23404694 130.15814209 70.60301971 C 132.63058472 66.73558044 133.05128479 67.29190826 133.14227295 64.54415131 C 132.73103333 61.09658813 130.95039368 58.21370316 132.60690308 56.98229980 C 132.95234680 58.21626663 132.66363525 61.45775986 135.06875610 63.32147980 C 137.40249634 65.37593842 139.03901672 65.88902283 137.07507324 68.79235077 C 134.27868652 71.46895599 132.45600891 71.84220123 130.59642029 75.13661194" stroke-width="0.78474033" fill="rgb(158, 2, 0)" opacity="1.0" stroke="rgb(230, 106, 47)" stroke-opacity="0.5040932" stroke-linecap="round" stroke-linejoin="round"/>
    <path d="M 154.38796997 71.62814331 C 154.15481567 73.49215698 154.08160400 75.58791351 155.33959961 78.80364227 C 156.66377258 81.13751984 158.21241760 83.67378235 157.53738403 86.91943359 C 155.67993164 85.28977203 156.22209167 82.85144806 155.07189941 80.29810333 C 153.53045654 76.52277374 153.28691101 76.66029358 153.62673950 73.38229370 C 155.08125305 69.61724854 155.37071228 67.53995514 156.59794617 65.32515717 C 158.48190308 61.04909134 158.38018799 61.64365387 158.88444519 58.60724640 C 158.86921692 54.78861237 157.41687012 52.81446838 160.20223999 51.20237732 C 161.07777405 52.78100204 160.29808044 55.58327866 161.82705688 57.84758759 C 163.26144409 60.76174927 161.46495056 62.12632370 159.75317383 64.33278656 C 158.24380493 66.10890198 155.50682068 67.54262543 154.38796997 71.62814331" stroke-width="0.00000000" fill="rgb(92, 54, 74)" opacity="1.0" stroke="rgb(255, 255, 255)" stroke-opacity="0.0" stroke-linecap="round" stroke-linejoin="round"/>
    <path d="M 195.04722595 180.10861206 C 182.64797974 178.95983887 175.84063721 175.85913086 161.66992188 178.50656128 C 154.80288696 183.19819641 147.18661499 185.83229065 132.39801025 184.66860962 C 121.74348450 184.84742737 112.08300781 184.16546631 99.46219635 182.29240417 C 85.51875305 179.27796936 77.94734192 180.46339417 69.49353027 182.35192871 C 52.45695496 180.31819153 55.79457092 173.33810425 67.23362732 174.24589539 C 86.67962646 174.42185974 86.68450165 175.36036682 95.45578003 176.46267700 C 107.95205688 180.52229309 117.86182404 180.05706787 127.94234467 180.22036743 C 144.50816345 180.61408997 149.40293884 180.16094971 161.60958862 175.67539978 C 173.73019409 175.54756165 182.55465698 175.95234680 194.06094360 178.32931519 C 208.20571899 182.66456604 211.20785522 185.08099365 195.04722595 180.10861206" stroke-width="0.50894499" fill="rgb(1, 5, 4)" opacity="1.0" stroke="rgb(5, 11, 36)" stroke-opacity="0.48414263" stroke-linecap="round" stroke-linejoin="round"/>
    <path d="M 78.30608368 175.74119568 C 80.51102448 177.66122437 92.02651978 180.90409851 86.00380707 183.15339661 C 79.17641449 184.50373840 74.85659027 183.24661255 68.76450348 183.96069336 C 61.88364792 184.95187378 59.41823196 187.50057983 60.85918808 191.44963074 C 59.81444550 194.20780945 57.66424179 191.79412842 54.65427780 187.57507324 C 49.99964523 183.88858032 49.10024261 179.86932373 45.03872681 177.23435974 C 39.27889633 175.63374329 34.22650146 173.44224548 36.82567215 174.52902222 C 41.93836212 176.24598694 44.59435654 177.84300232 47.14874649 171.61709595 C 48.65250397 165.26734924 49.56088257 167.20399475 54.61796188 174.24530029 C 58.09968567 178.01551819 63.05076218 180.43264771 69.34141541 177.03051758 C 74.88533783 173.41958618 73.96005249 172.75715637 78.30608368 175.74119568" stroke-width="1.37265766" fill="rgb(108, 105, 97)" opacity="1.0" stroke="rgb(2, 26, 0)" stroke-opacity="0.84806323" stroke-linecap="round" stroke-linejoin="round"/>
    <path d="M 129.39981079 73.84656525 C 127.34204102 79.15640259 126.58386993 80.29778290 126.25872040 86.78912354 C 126.98255157 93.40812683 125.79060364 90.82691193 122.63290405 92.22218323 C 121.40509796 92.66856384 124.41719055 87.85589600 125.06652832 82.89262390 C 125.20518494 78.31356049 126.01020050 73.03289032 128.93315125 69.75452423 C 132.56474304 68.34632111 129.95143127 65.81256104 128.67231750 60.01005936 C 126.73824310 53.70702362 126.86693573 53.98575592 125.95343018 50.81586075 C 125.38067627 46.63640976 123.99685669 41.75942230 126.63170624 39.87892914 C 126.85590363 43.18810654 126.95162201 46.42735672 129.87458801 51.09294891 C 130.87290955 55.09608841 134.55426025 59.42571259 136.14703369 62.84315491 C 138.23863220 68.21227264 132.44863892 68.99092102 129.39981079 73.84656525" stroke-width="0.94224876" fill="rgb(18, 7, 7)" opacity="1.0" stroke="rgb(0, 17, 28)" stroke-opacity="0.3574232" stroke-linecap="round" stroke-linejoin="round"/>
    <path d="M 204.87239075 185.49195862 C 201.59118652 185.98416138 199.34420776 184.94532776 196.49906921 182.38937378 C 194.62867737 180.74728394 191.93698120 180.35610962 188.54574585 182.15229797 C 184.04548645 183.40385437 183.21218872 183.13191223 179.05233765 183.21844482 C 175.53964233 183.41934204 171.75486755 182.64468384 169.16212463 181.35108948 C 165.76347351 178.33059692 168.48643494 177.50288391 172.92716980 177.35313416 C 176.10334778 176.68545532 177.76171875 177.22009277 179.64566040 175.02757263 C 183.01072693 172.61154175 185.03567505 172.79898071 188.44923401 172.17074585 C 192.98017883 171.69425964 193.76589966 172.74771118 196.70957947 174.32112122 C 199.33393860 175.71665955 202.28753662 177.64215088 204.50802612 179.64863586 C 207.42680359 182.35185242 210.16156006 185.79980469 204.87239075 185.49195862" stroke-width="0.84024763" fill="rgb(17, 11, 6)" opacity="1.0" stroke="rgb(109, 107, 96)" stroke-opacity="0.7757165" stroke-linecap="round" stroke-linejoin="round"/>
    <path d="M 101.19281769 75.19446564 C 98.47458649 76.62882233 95.25933075 77.23305511 92.24635315 78.98616791 C 87.10365295 81.37244415 85.63543701 79.69045258 89.41629791 74.20557404 C 92.02886963 69.06735229 94.13968658 67.85815430 96.83759308 64.46461487 C 101.25276947 61.33089828 102.15564728 61.80212784 101.12856293 58.39023590 C 99.32076263 53.20352936 95.60187531 52.13409424 91.80052948 49.38649368 C 87.53645325 46.58515930 88.41490173 47.63081360 86.37847900 46.35758591 C 85.59268188 44.26831818 90.78829193 46.93114853 94.36126709 48.18877411 C 98.83392334 50.71432114 99.91928864 51.70339203 102.81493378 55.11384583 C 106.50410461 59.20709610 107.77112579 61.70526505 107.34872437 65.68177032 C 105.37548828 70.45919800 104.80477142 72.33436584 101.19281769 75.19446564" stroke-width="0.93150604" fill="rgb(67, 20, 16)" opacity="1.0" stroke="rgb(99, 59, 0)" stroke-opacity="0.47504532" stroke-linecap="round" stroke-linejoin="round"/>
    <path d="M 209.29434204 200.29243469 C 209.32820129 200.67547607 209.28779602 200.88549805 209.16691589 201.56829834 C 209.01077271 202.03198242 208.88056946 202.43659973 208.51225281 202.86543274 C 208.23925781 203.19604492 207.97999573 203.55831909 207.61196899 203.99705505 C 207.29974365 204.36059570 207.03735352 204.83419800 206.47949219 204.88969421 C 206.12271118 204.44424438 206.16355896 204.31498718 206.10960388 203.53276062 C 205.98924255 202.83937073 205.97233582 202.97567749 205.84255981 202.29841614 C 205.75050354 201.71472168 205.56816101 201.44821167 206.04627991 201.09255981 C 206.58444214 200.64059448 206.63267517 200.51275635 207.17936707 200.01011658 C 207.70401001 199.65637207 207.60136414 199.48838806 208.32725525 199.24971008 C 209.08248901 199.30455017 209.10937500 199.36746216 209.29434204 200.29243469" stroke-width="0.86252189" fill="rgb(7, 18, 17)" opacity="1.0" stroke="rgb(97, 121, 60)" stroke-opacity="0.5672648" stroke-linecap="round" stroke-linejoin="round"/>
    <path d="M 154.53939819 74.51906586 C 156.17990112 79.20233154 157.75718689 81.17094421 159.26832581 86.50000000 C 161.33000183 91.99974060 161.62380981 96.59123230 159.42257690 99.30888367 C 155.67555237 96.88088989 158.84274292 92.65878296 157.86750793 88.56376648 C 157.60598755 82.14487457 156.76461792 80.54954529 153.52964783 76.32388306 C 149.99208069 70.67549896 151.77207947 68.63114929 155.38529968 64.09833527 C 159.46989441 58.85813141 162.19338989 59.06272888 160.20199585 55.35266876 C 156.18228149 49.98837662 150.14959717 46.71776199 152.57525635 45.13876343 C 154.12266541 46.37938690 156.74342346 50.98312378 160.83688354 53.22342682 C 166.81500244 55.82456970 167.42204285 58.45180511 161.11953735 61.84678268 C 156.97767639 66.23167419 153.06019592 68.23648834 154.53939819 74.51906586" stroke-width="0.85980058" fill="rgb(12, 12, 11)" opacity="1.0" stroke="rgb(6, 0, 0)" stroke-opacity="0.23562714" stroke-linecap="round" stroke-linejoin="round"/>
    <path d="M 168.82286072 175.76158142 C 170.47622681 177.45681763 170.86340332 178.98028564 168.05662537 181.22653198 C 165.61857605 182.77119446 163.30989075 184.52722168 164.10275269 187.38275146 C 165.38558960 189.74192810 167.74459839 190.42285156 170.21026611 191.06314087 C 172.68276978 192.31211853 175.71363831 191.28434753 174.69525146 193.23858643 C 173.00695801 193.65196228 171.49807739 193.74133301 167.96812439 194.88726807 C 165.44940186 194.76725769 163.80944824 194.73716736 161.86755371 195.22457886 C 159.10806274 193.58651733 160.61283875 193.37229919 160.71086121 189.52374268 C 160.79266357 186.72326660 161.51370239 186.20262146 161.32264709 183.99211121 C 161.71322632 180.06408691 161.90232849 180.57394409 163.91680908 176.99598694 C 164.75183105 174.50886536 166.95152283 173.08955383 168.82286072 175.76158142" stroke-width="0.64856619" fill="rgb(0, 6, 4)" opacity="1.0" stroke="rgb(0, 24, 12)" stroke-opacity="0.54739326" stroke-linecap="round" stroke-linejoin="round"/>
    <path d="M 112.79522705 190.07336426 C 112.34822083 191.40357971 108.98149872 192.34919739 107.03337097 192.79519653 C 104.26399994 193.42353821 102.72500610 193.36006165 100.14920044 193.95336914 C 97.51322174 194.14149475 96.12584686 194.88981628 93.82221222 196.07002258 C 90.96336365 197.22183228 89.53666687 197.70126343 88.05240631 197.97065735 C 86.79241943 198.06842041 82.33988190 199.76600647 82.85704041 197.96331787 C 85.62595367 196.20690918 85.83132172 197.02975464 88.10646820 195.19866943 C 90.58408356 193.23867798 90.59270477 192.91331482 93.43809509 190.61647034 C 95.11637115 188.63827515 96.48233032 188.62776184 99.42031097 189.06271362 C 101.22605896 188.99546814 103.22338867 189.13529968 106.21496582 189.58569336 C 107.78259277 189.71820068 110.61350250 190.40472412 112.79522705 190.07336426" stroke-width="0.47665879" fill="rgb(17, 19, 6)" opacity="1.0" stroke="rgb(113, 143, 66)" stroke-opacity="0.5481197" stroke-linecap="round" stroke-linejoin="round"/>
    <path d="M 81.83506775 141.91186523 C 85.21627045 137.64332581 83.16735840 140.38661194 83.20782471 150.33827209 C 82.51800537 156.08793640 83.67351532 162.84667969 82.23631287 167.74594116 C 77.36624146 165.78721619 76.76704407 161.10276794 74.84128571 156.15798950 C 73.31669617 151.38681030 73.01866150 147.58511353 73.29576111 141.11795044 C 72.69238281 134.46626282 72.39048004 133.44557190 73.03378296 124.53321838 C 72.12371826 118.61590576 73.10385132 116.08379364 68.65944672 112.30199432 C 70.11389160 109.96565247 76.09954071 115.96965027 79.50803375 115.55481720 C 84.36233521 117.78788757 78.33358765 121.54219055 76.51219940 126.91793823 C 76.42182159 133.89582825 76.08222961 135.46875000 75.83672333 142.36920166 C 76.74251556 151.87878418 75.94561768 150.85180664 81.83506775 141.91186523" stroke-width="0.49497572" fill="rgb(251, 251, 241)" opacity="1.0" stroke="rgb(255, 222, 196)" stroke-opacity="0.66981494" stroke-linecap="round" stroke-linejoin="round"/>
    <path d="M 124.85228729 87.57081604 C 125.55853271 87.59820557 126.72337341 87.99131012 127.65659332 87.31678772 C 128.18620300 86.78069305 129.11778259 85.23135376 129.99401855 85.17160797 C 130.38407898 86.07405090 130.36001587 87.04498291 131.02603149 88.32225037 C 131.36189270 89.48383331 132.26487732 90.25612640 132.79666138 90.91683960 C 132.90028381 91.99671173 132.12834167 92.07687378 131.04809570 92.27966309 C 129.00418091 92.08743286 129.29864502 91.91603851 128.47268677 91.65954590 C 127.66680908 91.89031219 127.06000519 91.46339417 125.92691040 91.25538635 C 124.83229065 90.74050140 124.54029846 91.98278046 123.14758301 92.15946960 C 121.98706818 91.91678619 122.54811096 90.39669800 122.93430328 89.45950317 C 123.58351135 88.10134125 123.04448700 87.66410828 124.85228729 87.57081604" stroke-width="0.87032521" fill="rgb(229, 236, 138)" opacity="1.0" stroke="rgb(255, 233, 187)" stroke-opacity="0.80987257" stroke-linecap="round" stroke-linejoin="round"/>
    <path d="M 166.44593811 111.81510162 C 167.10475159 111.68240356 167.91925049 111.28443146 169.66497803 110.39514160 C 170.95401001 109.62599945 171.32040405 109.35312653 173.09268188 108.68149567 C 174.72514343 108.12518311 175.02511597 107.92139435 176.93473816 107.62733459 C 178.12765503 107.48779297 179.76922607 107.35804749 181.23663330 108.10907745 C 182.08958435 108.73651886 181.89718628 110.27845764 179.88487244 110.90003967 C 178.18820190 111.36801147 178.26506042 111.24052429 176.60772705 111.76889801 C 175.32933044 112.05204010 174.55389404 112.21380615 172.74896240 112.52883148 C 171.57669067 112.81252289 170.79663086 112.86687469 168.95025635 112.97689056 C 167.03521729 113.09974670 166.31106567 113.23409271 164.96321106 113.34574127 C 162.91824341 113.21137238 164.22673035 112.55149078 166.44593811 111.81510162" stroke-width="2.00000000" fill="rgb(236, 188, 32)" opacity="1.0" stroke="rgb(13, 0, 4)" stroke-opacity="1.0" stroke-linecap="round" stroke-linejoin="round"/>
    <path d="M 153.48576355 99.94478607 C 153.83245850 99.93839264 155.40306091 99.72925568 156.42366028 99.64109039 C 157.77783203 99.78455353 158.72981262 99.44420624 159.65066528 100.03861237 C 160.87672424 100.55683136 161.76631165 101.13020325 162.58447266 101.69928741 C 163.96722412 102.72075653 164.20008850 102.91428375 165.34275818 103.96942902 C 166.08154297 105.08468628 164.37002563 105.08106995 163.12341309 105.69369507 C 161.85696411 106.06542206 161.50903320 106.17092133 160.57675171 105.96163177 C 159.34007263 105.72439575 158.41491699 105.48596954 157.20463562 104.98854828 C 156.24855042 104.58461761 155.18890381 103.95578003 154.31343079 103.30928040 C 153.39907837 102.68408966 152.29637146 101.98509979 151.40347290 101.28267670 C 150.27397156 100.20474243 151.52702332 100.31966400 153.48576355 99.94478607" stroke-width="2.00000000" fill="rgb(246, 246, 255)" opacity="1.0" stroke="rgb(3, 5, 23)" stroke-opacity="1.0" stroke-linecap="round" stroke-linejoin="round"/>
    <path d="M 131.28274536 102.36783600 C 133.29496765 102.51375580 134.12426758 102.25279999 136.35551453 102.18776703 C 138.20106506 101.89508057 139.81460571 102.01170349 141.74864197 101.89271545 C 143.85601807 101.72306061 145.50543213 101.40045166 147.12350464 101.61450195 C 148.70199585 101.99006653 151.57058716 102.39633942 150.82231140 103.76800537 C 148.38607788 104.37063599 146.92524719 103.95292664 145.22274780 104.08584595 C 142.81039429 104.04528809 142.35128784 104.17240906 140.77906799 104.49550629 C 138.13380432 104.81678772 138.00183105 104.40650940 135.06452942 104.51729584 C 133.41276550 104.46898651 132.28396606 104.44229889 129.63606262 104.48563385 C 127.91022491 104.39994049 125.98825073 104.57548523 125.41177368 102.94138336 C 127.19925690 101.87741852 129.76269531 102.32474518 131.28274536 102.36783600" stroke-width="2.00000000" fill="rgb(160, 92, 39)" opacity="1.0" stroke="rgb(0, 0, 0)" stroke-opacity="1.0" stroke-linecap="round" stroke-linejoin="round"/>
    <path d="M 57.18966293 162.05186462 C 56.11967850 162.45053101 55.99848938 162.51991272 54.63814545 162.88726807 C 53.78156662 162.91156006 52.60955811 163.49856567 52.50112534 162.81192017 C 52.64229202 161.74650574 52.96810532 161.03144836 53.18827820 160.16120911 C 53.64822006 158.90917969 53.83769608 158.79421997 54.41376495 157.53826904 C 54.88270569 156.56663513 55.24209976 156.17869568 55.98850250 155.61808777 C 57.27536774 154.73048401 56.99600983 155.02296448 57.90521240 154.11361694 C 58.59188461 153.00723267 58.61325073 154.27917480 58.96892929 155.47309875 C 59.14420700 156.30502319 59.20764160 156.78710938 59.55422211 157.85330200 C 59.85488510 158.87431335 60.08938599 159.51194763 59.65203094 160.17779541 C 58.89331818 161.03623962 58.08618927 161.53234863 57.18966293 162.05186462" stroke-width="0.62873799" fill="rgb(3, 9, 4)" opacity="1.0" stroke="rgb(38, 124, 84)" stroke-opacity="0.64434516" stroke-linecap="round" stroke-linejoin="round"/>
    <path d="M 124.09518433 195.73757935 C 123.94689941 195.87467957 122.94880676 196.17623901 122.08866119 196.13618469 C 121.28177643 196.10493469 120.41446686 195.93937683 119.67118835 195.56958008 C 118.98911285 195.29574585 118.37997437 194.80429077 118.03276062 193.90124512 C 117.76522827 193.32054138 117.41446686 192.16169739 117.31354523 191.47314453 C 117.18405914 190.56559753 118.14464569 190.65203857 119.24004364 190.69616699 C 120.09944916 190.77223206 120.29032135 190.67942810 121.23151398 190.87391663 C 121.95326233 191.09277344 122.46775818 191.14779663 123.41885376 191.35377502 C 124.08545685 191.41452026 124.82209015 191.45156860 125.74948120 192.04418945 C 126.41339111 192.64022827 126.80980682 192.89201355 126.20800018 193.95603943 C 125.77661133 194.58546448 125.41311646 194.92221069 124.09518433 195.73757935" stroke-width="0.82950234" fill="rgb(3, 13, 5)" opacity="1.0" stroke="rgb(101, 131, 49)" stroke-opacity="0.5834641" stroke-linecap="round" stroke-linejoin="round"/>
    <path d="M 123.20674896 211.55781555 C 123.19420624 210.69606018 123.23426819 210.59095764 123.56179047 209.65010071 C 123.93126678 208.79846191 124.01694489 208.53744507 124.73735046 207.99285889 C 125.41439819 207.53553772 125.81353760 207.40068054 126.73392487 207.17387390 C 127.38828278 207.09049988 128.16328430 206.88763428 128.83607483 207.39402771 C 129.38006592 208.13514709 129.39230347 208.21415710 129.63191223 209.35075378 C 129.57273865 210.36923218 129.61227417 210.17298889 129.34593201 211.11753845 C 129.14125061 211.51042175 128.96174622 212.16802979 128.35559082 212.86952209 C 127.85746765 213.16297913 127.41766357 213.38786316 126.39655304 213.68487549 C 125.91479492 213.74070740 125.16654205 213.82197571 124.33627319 213.44641113 C 123.83480835 213.11253357 123.39460754 212.65304565 123.20674896 211.55781555" stroke-width="0.82954472" fill="rgb(0, 2, 5)" opacity="1.0" stroke="rgb(71, 87, 69)" stroke-opacity="0.7294544" stroke-linecap="round" stroke-linejoin="round"/>
    <path d="M 52.25064850 92.28886414 C 52.43086624 91.92042542 52.73792267 91.21845245 53.18571472 90.69350433 C 53.57502365 90.22698212 54.16220093 89.89794922 54.96485519 89.98225403 C 55.77366257 90.12765503 56.20092010 90.72924042 56.41183853 91.16297913 C 56.93920517 92.23487091 56.89780426 92.45051575 57.11434937 93.30396271 C 57.23575211 94.61028290 57.27202225 94.42695618 56.98177719 95.53547668 C 56.37524414 96.65463257 56.56106186 96.37341309 56.04807281 97.07366943 C 55.73171234 97.75142670 54.89775467 98.31069946 54.35689926 98.07239532 C 53.57618713 97.69134521 53.17686081 97.23554230 52.79541779 96.61795807 C 52.51133347 96.18212128 52.08347321 95.39865112 51.99684906 94.65458679 C 51.86366653 93.96585083 52.03929138 93.50944519 52.25064850 92.28886414" stroke-width="0.80612469" fill="rgb(0, 6, 104)" opacity="1.0" stroke="rgb(29, 91, 167)" stroke-opacity="0.620846" stroke-linecap="round" stroke-linejoin="round"/>
    <path d="M 45.12664795 140.18211365 C 45.21933365 140.07632446 45.81994247 139.08255005 46.22790909 138.70426941 C 46.68967438 138.09303284 47.21978760 137.37663269 47.94289780 137.72525024 C 48.61491776 138.12434387 48.90265274 138.28524780 49.33469772 139.20944214 C 49.65563965 139.75955200 49.89114761 140.69752502 49.99556732 141.30986023 C 50.07424164 142.05009460 50.49371338 142.53218079 50.47768784 143.45265198 C 50.23995972 144.17254639 50.04728699 144.27171326 49.91217041 144.96122742 C 49.75986099 145.84405518 48.79719925 144.83036804 48.17626190 144.61499023 C 47.12870407 144.02229309 47.24191666 144.11178589 46.26606750 143.78878784 C 45.39319992 143.42036438 45.07171631 142.77539062 44.77399826 142.36647034 C 44.18821335 141.74243164 44.66867828 141.24569702 45.12664795 140.18211365" stroke-width="0.58934259" fill="rgb(0, 69, 56)" opacity="1.0" stroke="rgb(30, 149, 123)" stroke-opacity="0.5443248" stroke-linecap="round" stroke-linejoin="round"/>
    <path d="M 54.24384308 182.79167175 C 52.56407547 183.23565674 51.76601028 183.12680054 49.88545609 182.45924377 C 48.17493439 180.51181030 48.14804077 178.93788147 46.32223511 177.69345093 C 44.07151794 176.23420715 46.44002533 174.56517029 47.47313690 173.22595215 C 49.19403839 171.53553772 49.06616974 170.58305359 51.14732361 170.15568542 C 53.28914261 170.35272217 54.44847870 171.13009644 56.79740524 172.11984253 C 59.74882126 174.49427795 59.26737595 173.98890686 60.77095795 175.31121826 C 62.03443909 176.88494873 63.02050400 178.77442932 63.12265778 180.53617859 C 63.22666931 182.63821411 65.40879059 182.47509766 65.03761292 184.08557129 C 63.21986771 185.39346313 62.25209427 183.85253906 59.78313446 183.03976440 C 57.57100296 181.91970825 57.11811829 181.78472900 54.24384308 182.79167175" stroke-width="1.88849318" fill="rgb(27, 2, 4)" opacity="1.0" stroke="rgb(0, 8, 2)" stroke-opacity="0.9598504" stroke-linecap="round" stroke-linejoin="round"/>
    <path d="M 151.02133179 220.36141968 C 151.35438538 220.04379272 151.91978455 219.83587646 152.85127258 219.54690552 C 153.67832947 219.29765320 154.37321472 219.00921631 155.15077209 218.57237244 C 155.89396667 218.14848328 156.47851562 217.46231079 157.34611511 217.63043213 C 158.00183105 217.87693787 158.54936218 218.27056885 158.76103210 219.15354919 C 158.31167603 220.32546997 157.85209656 220.34844971 157.06378174 220.52377319 C 155.76455688 220.75309753 155.96276855 220.54367065 154.99989319 220.98515320 C 154.32766724 221.40490723 153.91302490 222.02258301 153.71127319 222.97712708 C 153.53112793 223.37237549 153.04882812 223.59458923 152.25755310 223.87545776 C 151.34378052 224.00337219 150.54461670 223.47993469 150.39193726 222.71401978 C 150.19398499 221.93746948 150.39884949 221.35649109 151.02133179 220.36141968" stroke-width="0.20028986" fill="rgb(222, 242, 227)" opacity="1.0" stroke="rgb(255, 255, 255)" stroke-opacity="0.0" stroke-linecap="round" stroke-linejoin="round"/>
  </g>
</svg>
