<?xml version="1.0" ?>
<svg xmlns="http://www.w3.org/2000/svg" version="1.1" width="256" height="256" viewBox="0 0 256 256">
  <defs/>
  <g>
    <path d="M 258.06622314 217.24600220 C 256.13430786 258.58560181 245.74267578 259.87145996 198.71340942 255.94638062 C 154.67605591 256.28521729 141.66534424 255.70159912 96.46923828 255.97399902 C 58.72795105 253.85179138 19.90818024 263.73596191 1.64711761 245.50057983 C -2.91885376 216.86129761 0.73298645 186.16340637 0.10501099 144.23641968 C 1.32567596 113.98365784 -0.52987671 78.65221405 -0.92251587 42.78916931 C 3.36711121 7.22002411 21.77619934 -6.44889832 55.19124603 1.60276794 C 94.91040802 1.23145294 122.23001099 -1.48315430 156.24497986 -0.22740173 C 201.91006470 2.71266174 225.62803650 -10.57215881 252.83628845 8.72837830 C 262.01879883 42.33303833 257.20465088 65.93021393 254.73316956 107.46180725 C 252.89013672 150.75891113 259.28570557 166.77827454 258.06622314 217.24600220" stroke-width="1.00000000" fill="rgb(244, 244, 244)" opacity="1.0"/>
    <path d="M 192.53848267 171.44990540 C 187.59899902 179.97882080 166.47210693 177.55488586 156.41474915 177.66741943 C 140.18484497 177.34114075 130.30194092 177.02024841 116.11314392 177.26277161 C 95.31313324 177.74702454 94.41006470 179.10983276 73.60263062 177.73243713 C 57.29263306 170.28393555 64.45705414 159.53082275 62.01417542 142.02452087 C 62.88118744 134.75230408 60.65316010 112.75648499 66.90487671 102.84239197 C 79.53300476 93.36698914 84.08393860 94.32585144 98.77639008 94.47897339 C 116.44648743 94.68154907 122.53385162 94.26329041 140.35510254 94.77649689 C 156.36875916 94.58525085 161.51959229 93.30026245 182.57986450 94.45616150 C 197.12081909 97.03259277 192.54992676 116.54972076 193.62298584 126.81605530 C 193.48336792 146.94645691 194.85928345 148.93505859 192.53848267 171.44990540" stroke-width="1.00000000" fill="rgb(51, 51, 51)" opacity="1.0"/>
    <path d="M 189.10296631 172.64228821 C 180.50250244 176.40338135 163.28868103 173.87994385 153.16064453 174.49359131 C 134.24856567 174.67785645 129.25216675 173.84970093 113.91143799 174.26155090 C 97.29768372 174.39816284 92.00574493 175.12533569 73.31029510 174.78536987 C 61.53539276 166.60925293 66.97393799 156.20651245 65.01500702 139.70686340 C 66.08868408 132.63871765 64.22422791 109.06190491 70.61418915 102.63928223 C 84.02180481 95.80664062 87.67794800 97.28880310 102.83602142 97.36158752 C 118.69005585 98.18731689 124.06336212 97.56460571 142.53877258 97.75227356 C 155.35337830 96.97016907 164.05615234 96.92240906 183.13557434 97.30667114 C 193.38092041 101.63006592 189.44789124 119.42639160 190.94647217 130.34657288 C 190.00692749 146.83551025 191.75752258 152.19206238 189.10296631 172.64228821" stroke-width="1.00000000" fill="rgb(51, 51, 51)" opacity="1.0"/>
    <path d="M 180.15522766 122.32369995 C 172.72850037 125.07474518 162.94943237 124.03414154 155.40246582 124.13581848 C 145.55633545 123.85173035 139.39230347 124.16826630 129.87049866 123.78534698 C 119.23271942 124.28002167 114.18225861 123.77306366 104.74563599 124.12957001 C 92.45299530 123.64934540 89.20137024 124.64888763 77.87533569 123.67012024 C 70.22619629 122.05463409 68.68632507 109.41902924 79.66453552 105.59181976 C 89.73220825 104.08666229 91.80187988 104.00431061 99.51007080 104.12979889 C 110.80397797 103.89608765 117.47187042 104.04705048 125.23869324 103.99404907 C 138.13909912 103.60113525 139.07800293 103.68785095 152.32020569 104.03075409 C 161.21801758 104.72097015 166.43542480 103.60340881 177.72735596 103.48458862 C 185.61358643 104.45952606 188.01232910 120.75581360 180.15522766 122.32369995" stroke-width="1.00000000" fill="rgb(139, 90, 43)" opacity="1.0"/>
    <path d="M 192.38626099 165.91073608 C 187.57934570 164.81579590 181.46351624 162.63342285 183.24578857 156.46958923 C 187.93399048 152.29447937 193.86741638 151.54521179 195.40272522 147.40069580 C 196.88380432 141.60018921 196.23298645 138.77572632 196.31990051 131.13079834 C 196.27719116 124.82633972 195.36465454 119.31948853 189.07092285 119.35684967 C 183.17753601 116.48592377 180.88642883 112.05001068 186.48767090 107.32289124 C 194.13137817 107.45188904 194.16757202 107.56474304 200.36318970 109.73612976 C 205.67288208 116.97235870 204.15998840 114.95281982 207.42539978 124.70447540 C 209.77490234 131.36199951 207.88211060 134.41970825 207.97004700 140.32545471 C 208.12930298 146.87825012 208.32707214 149.82037354 204.10546875 156.28985596 C 202.48426819 161.22038269 198.43605042 164.62609863 192.38626099 165.91073608" stroke-width="1.00000000" fill="rgb(51, 51, 51)" opacity="1.0"/>
    <path d="M 190.32313538 162.46524048 C 186.22085571 160.72128296 184.53158569 158.56678772 191.60475159 155.14985657 C 196.78399658 153.49002075 199.27485657 149.26274109 199.01586914 144.27851868 C 199.62814331 139.07812500 199.28730774 134.99942017 199.26069641 130.17901611 C 198.75317383 123.81879425 199.14866638 120.53432465 193.23162842 117.99811554 C 189.13592529 116.95930481 183.52200317 112.34095001 189.29275513 109.76689911 C 194.71899414 110.61058807 196.04928589 111.23458862 199.89012146 113.87792969 C 203.39779663 119.83491516 203.42973328 119.25242615 204.82539368 127.94264221 C 206.66046143 134.87277222 205.53427124 137.23352051 205.13354492 141.88146973 C 204.68130493 146.84179688 204.00210571 151.04922485 201.21125793 155.06896973 C 199.92802429 160.26298523 195.06083679 162.91107178 190.32313538 162.46524048" stroke-width="1.00000000" fill="rgb(51, 51, 51)" opacity="1.0"/>
    <path d="M 95.59790039 73.20329285 C 95.19575500 75.73400116 94.94398499 76.78950500 95.75188446 80.22826385 C 96.82251740 82.56155396 98.37117767 86.11982727 95.27551270 85.45749664 C 93.02749634 83.26219940 92.89468384 80.61747742 92.43766785 78.41481018 C 91.97299194 74.30076599 92.08503723 74.31858063 93.51297760 70.79345703 C 94.81531525 68.06533813 94.76999664 65.77571106 95.76435852 63.48979568 C 96.77617645 58.80176163 96.86370850 59.91373062 96.42247772 56.99751282 C 94.86511993 54.06802750 93.61715698 50.09294510 96.84648895 50.81894302 C 99.15136719 52.97241974 98.56158447 54.67967224 99.45137024 57.31989288 C 100.03038025 60.76233292 99.78537750 62.84351349 99.08812714 64.91272736 C 97.67299652 67.80684662 96.37181854 69.42158508 95.59790039 73.20329285" stroke-width="1.00000000" fill="rgb(51, 51, 51)" opacity="1.0"/>
    <path d="M 127.76638794 71.26073456 C 127.33762360 74.60350800 127.05041504 74.98867035 127.63961792 79.05377197 C 128.49264526 82.21189117 130.23399353 85.88282013 127.33843231 85.52219391 C 125.51106262 83.37958527 124.80957031 80.41803741 124.31660461 77.71454620 C 123.47221375 74.33744049 124.63579559 72.35942841 125.37631226 69.51984406 C 126.55001068 66.20278168 126.70205688 63.91040039 127.78837585 61.03904343 C 128.78741455 55.87653351 128.90710449 57.09704971 128.60952759 53.84577179 C 127.25071716 50.84098053 125.26097107 46.38163757 128.70921326 46.78782654 C 131.15545654 49.09474945 130.70962524 51.23210144 131.49534607 54.01231384 C 131.94844055 57.55910492 131.64570618 59.97816467 131.09516907 62.46504974 C 129.84065247 65.17472076 128.38792419 67.83270264 127.76638794 71.26073456" stroke-width="1.00000000" fill="rgb(51, 51, 51)" opacity="1.0"/>
    <path d="M 159.86830139 72.30086517 C 159.33869934 75.20327759 159.00083923 75.63202667 159.65017700 79.32360077 C 160.37115479 82.08411407 162.10055542 85.06088257 159.71942139 85.84533691 C 157.75756836 84.10666656 156.96047974 81.38628387 156.42266846 79.09451294 C 155.50950623 76.06659698 156.59010315 74.07293701 157.19573975 71.58021545 C 158.37301636 68.46880341 158.62612915 66.40066528 159.62654114 63.99567032 C 160.73904419 59.35791779 160.70257568 60.37156677 160.60005188 57.44238663 C 159.63885498 54.59821320 157.40835571 51.04309845 160.17980957 50.60941315 C 162.82423401 52.11840820 162.66047668 54.39402008 163.39613342 56.70523071 C 163.98460388 59.76867676 163.76705933 62.20603180 163.17947388 64.42850494 C 162.14973450 67.19988251 160.57463074 69.14738464 159.86830139 72.30086517" stroke-width="1.00000000" fill="rgb(51, 51, 51)" opacity="1.0"/>
    <path d="M 189.24012756 181.57995605 C 181.95944214 181.88752747 172.38032532 180.92469788 159.54727173 181.80007935 C 149.06478882 181.09295654 141.52627563 181.93997192 130.06295776 181.27917480 C 119.89566040 180.72138977 113.42457581 182.92518616 100.50811768 181.67799377 C 88.41972351 180.03332520 81.74488831 181.45986938 72.20280457 182.33882141 C 51.96797180 185.08734131 55.31872559 176.61494446 65.12858582 178.12680054 C 84.38153076 177.99752808 82.10091400 179.30940247 93.70137787 178.05615234 C 108.28034973 179.08570862 111.90582275 179.10876465 125.01426697 177.59419250 C 139.12287903 178.23822021 141.13566589 180.14404297 153.88285828 178.45190430 C 166.31298828 178.55429077 174.83447266 178.01776123 184.88841248 178.51977539 C 197.49929810 177.80612183 207.31994629 180.96826172 189.24012756 181.57995605" stroke-width="1.00000000" fill="rgb(51, 51, 51)" opacity="1.0"/>
    <path d="M 83.09758759 176.36935425 C 86.86316681 178.77708435 90.81152344 182.76019287 84.59786224 184.13107300 C 76.71882629 184.95257568 76.13253784 183.12657166 69.82971191 184.33569336 C 63.43683624 185.42611694 63.36943817 186.73501587 60.51169205 192.63148499 C 55.86159897 194.97134399 54.51410294 188.46520996 50.47649002 184.92575073 C 46.15896225 181.99380493 43.46287918 178.11492920 39.45623398 176.50033569 C 34.24705124 173.73516846 30.20472145 174.07106018 30.69966698 172.23846436 C 36.19747162 169.92362976 38.75323486 169.40144348 44.10057831 167.13476562 C 48.09502029 165.53277588 52.17446899 165.18235779 56.26129913 169.88990784 C 60.11252213 173.59715271 63.83847046 172.33462524 68.03607178 173.44352722 C 74.83181000 173.93223572 76.93724060 174.41511536 83.09758759 176.36935425" stroke-width="1.00000000" fill="rgb(3, 3, 3)" opacity="1.0"/>
    <path d="M 129.73779297 75.22484589 C 128.27796936 79.84532166 128.01023865 83.76065826 130.49601746 87.58524323 C 133.33670044 92.78920746 130.68331909 92.39651489 124.50984192 93.27124786 C 120.04769897 91.96058655 123.23967743 87.04421234 123.34510803 82.51723480 C 123.75424957 78.78102112 124.95699310 73.87289429 127.29053497 70.00021362 C 129.52774048 66.11940765 129.14849854 64.15629578 127.29095459 58.04829025 C 125.88148499 52.55928802 126.79635620 52.21043777 124.93714142 48.69648743 C 122.90662384 42.35815430 123.38677216 38.22537994 128.19137573 42.13387299 C 129.77082825 48.05154037 128.74066162 50.14780426 131.71653748 54.26947784 C 134.03440857 57.86651993 137.35354614 61.79824829 137.32446289 65.54012299 C 137.84880066 70.83530426 132.27763367 70.42675781 129.73779297 75.22484589" stroke-width="1.00000000" fill="rgb(17, 7, 10)" opacity="1.0"/>
    <path d="M 204.21362305 185.53298950 C 201.18475342 186.02745056 198.87391663 185.09895325 195.87132263 182.51127625 C 193.76393127 180.83151245 191.15144348 180.57363892 187.65522766 181.65441895 C 183.09542847 182.57525635 182.77665710 182.52200317 178.21284485 182.54945374 C 175.63749695 182.69786072 171.41189575 182.33689880 168.38024902 181.39509583 C 164.68879700 179.59828186 168.75148010 177.53622437 172.51255798 176.83634949 C 175.52937317 175.72119141 177.39950562 175.05778503 179.35868835 173.69808960 C 183.76954651 171.81213379 184.48420715 171.81617737 188.33027649 171.40011597 C 192.91204834 171.46131897 194.12167358 171.76254272 197.09210205 174.02311707 C 199.66273499 175.67770386 202.78266907 177.34068298 204.74662781 179.17662048 C 207.83410645 181.62008667 209.07978821 185.09298706 204.21362305 185.53298950" stroke-width="1.00000000" fill="rgb(8, 4, 6)" opacity="1.0"/>
    <path d="M 101.51911163 73.98987579 C 99.16519165 75.90930939 95.21957397 78.08934784 92.23787689 78.73477173 C 88.39675903 79.90492249 85.25288391 80.43737793 87.37755585 75.20478821 C 88.88775635 71.30341339 91.34535980 70.40969849 94.13535309 66.61114502 C 96.33234406 63.57688522 98.87260437 61.79891968 100.32714081 58.84400558 C 100.24794006 54.56385803 96.30091858 53.26791382 93.06924438 50.71192551 C 89.44107819 47.83348083 87.86020660 48.40702057 86.19287109 44.80128479 C 88.43852997 43.31082916 92.60044098 46.57517242 95.48797607 48.28583908 C 99.33803558 50.58161926 101.11154175 51.55665588 103.66117859 55.61798096 C 106.18637848 58.89203644 107.57691956 60.38408279 106.68729401 64.84275055 C 105.75254059 68.80649567 104.64150238 70.93239594 101.51911163 73.98987579" stroke-width="1.00000000" fill="rgb(16, 3, 3)" opacity="1.0"/>
    <path d="M 208.90275574 196.00563049 C 209.40632629 198.27795410 209.21784973 198.51622009 209.02684021 201.09680176 C 208.21978760 203.63183594 208.14965820 203.65106201 206.46269226 205.75050354 C 204.76086426 207.76887512 204.52189636 207.95040894 202.18293762 209.63020325 C 200.89477539 210.39285278 199.43876648 211.83366394 197.12709045 211.42558289 C 196.01423645 211.00827026 194.99049377 208.76182556 194.94625854 206.74523926 C 194.82424927 204.67001343 194.31808472 203.76214600 194.47868347 201.71080017 C 194.88540649 199.48323059 195.14855957 198.51483154 195.94869995 196.61140442 C 197.51123047 194.80279541 198.61347961 193.80157471 200.09463501 192.67778015 C 202.31797791 191.50280762 203.17527771 190.94010925 205.38931274 191.27598572 C 207.35993958 192.27162170 208.35031128 194.10733032 208.90275574 196.00563049" stroke-width="1.00000000" fill="rgb(253, 254, 250)" opacity="1.0"/>
    <path d="M 154.61238098 69.89724731 C 154.79385376 73.38735199 155.44451904 77.47867584 157.49645996 81.49941254 C 159.07838440 85.15364838 160.72666931 87.87107849 160.54069519 93.34235382 C 158.34069824 95.77722931 157.16957092 89.28329468 155.81530762 85.68267822 C 154.59915161 80.89186859 154.22543335 78.67730713 151.66914368 74.39079285 C 150.01869202 70.20407104 151.67425537 66.88108063 154.00566101 63.71692657 C 157.10440063 57.80672073 158.44264221 58.00438690 157.44067383 54.33663559 C 154.55926514 49.04664612 149.04751587 46.43075943 152.05453491 44.10441589 C 154.58357239 45.83683395 156.59632874 50.04224014 160.20922852 51.95471191 C 164.72697449 54.29489517 168.05725098 57.45957184 164.45816040 60.28766632 C 160.66311646 64.02545929 154.97480774 64.74400330 154.61238098 69.89724731" stroke-width="1.00000000" fill="rgb(6, 3, 8)" opacity="1.0"/>
    <path d="M 165.30943298 178.51341248 C 167.09802246 180.21434021 167.76409912 181.12637329 165.50567627 183.00222778 C 163.89811707 185.04664612 164.17662048 186.63444519 165.59629822 188.10194397 C 167.46080017 189.53546143 169.24137878 189.71401978 171.02618408 190.30274963 C 173.34236145 190.71885681 175.13787842 190.62263489 175.22436523 192.94879150 C 173.19602966 193.90194702 170.70437622 194.07341003 168.91574097 194.31443787 C 165.07975769 194.34397888 166.26576233 194.17668152 163.42088318 194.65063477 C 160.57229614 195.37095642 159.49102783 193.92683411 159.20057678 191.50694275 C 158.97676086 189.15495300 160.33531189 188.06289673 160.61624146 185.82624817 C 159.97735596 182.95895386 160.32374573 182.31976318 161.20631409 179.98872375 C 161.99627686 176.96145630 163.94261169 177.03872681 165.30943298 178.51341248" stroke-width="1.00000000" fill="rgb(1, 3, 3)" opacity="1.0"/>
    <path d="M 112.21826172 189.38450623 C 112.08030701 191.09963989 109.61621094 192.43379211 107.18572235 192.39096069 C 104.75213623 192.52571106 102.99827576 192.80780029 100.67261505 193.78401184 C 98.50710297 193.65049744 96.79756927 194.15846252 94.46823883 195.17329407 C 92.09717560 196.01686096 91.03878021 196.85980225 88.82498932 197.57348633 C 86.53566742 198.16952515 84.09515381 199.70948792 82.61355591 197.52154541 C 84.99009705 194.66258240 85.10325623 195.61094666 87.14427185 194.42170715 C 90.30206299 192.40962219 88.99254608 192.53367615 92.50855255 189.98666382 C 94.61548615 188.23939514 95.73468018 188.49000549 98.95655060 188.58671570 C 100.66629791 188.38148499 102.76460266 188.10760498 105.74116516 188.59191895 C 107.61589050 188.80404663 109.62709045 189.92623901 112.21826172 189.38450623" stroke-width="1.00000000" fill="rgb(3, 8, 5)" opacity="1.0"/>
    <path d="M 79.23594666 140.39457703 C 78.80505371 143.00828552 78.82212067 143.17480469 78.28734589 146.38464355 C 77.95705414 148.15878296 77.73834991 151.43823242 76.05066681 150.03126526 C 75.24670410 147.01580811 75.82768250 145.94187927 75.73934174 143.40670776 C 76.00612640 140.62626648 76.07865143 140.08911133 76.37944794 136.97900391 C 76.49562836 135.29191589 76.52993774 133.41500854 76.51055145 130.73217773 C 76.62865448 128.09587097 76.48036957 127.24348450 76.61148071 125.26943970 C 76.71928406 122.83011627 78.17840576 120.97375488 79.97537231 121.69494629 C 79.85706329 123.57975769 79.20841217 125.91711426 79.56240845 127.61953735 C 79.43222809 129.92855835 79.54553223 131.86062622 79.54863739 133.85867310 C 79.56546783 136.10276794 79.41602325 138.12356567 79.23594666 140.39457703" stroke-width="1.00000000" fill="rgb(41, 2, 2)" opacity="1.0"/>
    <path d="M 123.76669312 86.87633514 C 124.19431305 86.36641693 125.36691284 85.93801117 126.51409149 85.42337799 C 127.56371307 85.09550476 128.70455933 83.93569183 129.39686584 84.91482544 C 129.89077759 86.64761353 129.85438538 86.64421082 130.90892029 88.15534973 C 131.49255371 89.24626923 132.27882385 89.96247864 133.42172241 90.67198944 C 134.02476501 91.92971039 132.52723694 92.74940491 131.49752808 93.11293030 C 129.03849792 93.54768372 129.82299805 93.46292114 128.32551575 93.51568604 C 126.85644531 93.42897034 125.81401825 93.59413910 124.60133362 93.52450562 C 123.00160980 93.30724335 122.41484833 93.71015930 121.42445374 92.88735199 C 120.52643585 92.08013916 121.00832367 90.79274750 121.64711761 90.00214386 C 122.37193298 88.55844879 122.44827271 88.18975830 123.76669312 86.87633514" stroke-width="1.00000000" fill="rgb(231, 237, 147)" opacity="1.0"/>
    <path d="M 165.56063843 110.02494812 C 166.95133972 109.62103271 167.51411438 109.30760956 169.24024963 108.82489777 C 171.04779053 108.29572296 171.27888489 108.21717072 173.20114136 107.70965576 C 174.70883179 107.28658295 175.32550049 107.16323090 177.10968018 106.80387115 C 178.39106750 106.56483459 179.97683716 106.02873993 181.10867310 107.47304535 C 181.81268311 108.21409607 181.82281494 110.12694550 179.85404968 110.74922180 C 178.37429810 111.18672943 178.05831909 111.36594391 176.53135681 111.76129150 C 174.89721680 112.18488312 174.47814941 112.15808868 172.64318848 112.74525452 C 171.45797729 113.04357910 169.97094727 113.43941498 168.37255859 113.70407104 C 167.26939392 113.70822906 166.02578735 114.01313782 164.39791870 113.14218903 C 163.30841064 111.77926636 164.18418884 110.72126007 165.56063843 110.02494812" stroke-width="1.00000000" fill="rgb(240, 215, 36)" opacity="1.0"/>
    <path d="M 153.30677795 98.71958160 C 153.61529541 98.63729858 154.91108704 98.55229950 156.22154236 98.42348480 C 157.45594788 98.54650116 158.56837463 98.26229095 159.55291748 98.92681122 C 160.72338867 99.49699402 161.54602051 100.23688507 162.27064514 100.86329651 C 163.53720093 101.99462891 164.16983032 102.62171173 164.58589172 103.43249512 C 164.92434692 105.09597015 163.43577576 105.35405731 162.29618835 105.36984253 C 160.94049072 105.39683533 160.49311829 105.55604553 159.31190491 105.41862488 C 157.80262756 105.29325104 157.26634216 105.16509247 155.91316223 104.70734406 C 155.12727356 104.39817047 154.12345886 103.99864197 152.78352356 103.20565033 C 151.72456360 102.40603638 151.23703003 102.22401428 150.60397339 100.62277985 C 150.45358276 99.51977539 151.17158508 99.13909912 153.30677795 98.71958160" stroke-width="1.00000000" fill="rgb(252, 252, 252)" opacity="1.0"/>
    <path d="M 130.07109070 101.51985168 C 132.15882874 101.69394684 133.03460693 101.43067169 135.47566223 101.39649963 C 137.73776245 101.50011444 139.08569336 101.78057098 140.89859009 101.39237213 C 143.01092529 100.58444977 144.06462097 100.06433868 146.06968689 100.88618469 C 147.55661011 101.37426758 150.48332214 101.06905365 150.98965454 102.61940765 C 148.69923401 104.20645142 147.58316040 103.42547607 145.15005493 103.58840179 C 142.74705505 103.51734924 142.27505493 103.36266327 140.28572083 103.52457428 C 137.46531677 103.57685852 137.47680664 103.48435211 134.31002808 103.55910492 C 132.36268616 103.58092499 130.84228516 103.15628052 128.79112244 103.66961670 C 127.28858185 103.59135437 124.45775604 103.76335907 124.11746979 102.14687347 C 125.71922302 100.85818481 128.40820312 101.54399872 130.07109070 101.51985168" stroke-width="1.00000000" fill="rgb(159, 82, 31)" opacity="1.0"/>
    <path d="M 56.69173813 161.94995117 C 55.53553009 162.21052551 55.49938965 162.21688843 53.95269775 162.48240662 C 53.21973038 162.42999268 51.71287537 162.94859314 51.56524658 161.98139954 C 51.72712708 160.67724609 51.97922516 160.36231995 52.33294678 159.15110779 C 52.81326675 157.80514526 53.00470734 157.81661987 53.51084900 156.43856812 C 54.29523468 155.07061768 54.04641342 155.12261963 55.29637909 154.18038940 C 56.71953201 153.44407654 56.39629364 153.60028076 57.44830322 153.14097595 C 58.55770874 152.90542603 58.36268234 153.59657288 58.94124222 154.90103149 C 59.18535233 155.69288635 59.32651520 156.06875610 59.48374939 157.37550354 C 59.53216553 158.72239685 59.48917389 159.25097656 59.36638641 160.26239014 C 58.83699036 161.18205261 57.58385086 161.55233765 56.69173813 161.94995117" stroke-width="1.00000000" fill="rgb(1, 6, 3)" opacity="1.0"/>
    <path d="M 124.18446350 195.16841125 C 123.20262909 195.52351379 122.65609741 195.52728271 121.70240021 195.61653137 C 120.33521271 195.53045654 120.27182007 195.61943054 119.04385376 195.16696167 C 118.11529541 194.67022705 117.78820801 194.43705750 116.91026306 193.32321167 C 116.55096436 192.62969971 115.94418335 191.95568848 116.19092560 190.79739380 C 116.68347168 190.01002502 117.16508484 189.84909058 118.48944092 189.67382812 C 119.92478180 189.52566528 119.42126465 189.48043823 120.83238220 189.50796509 C 121.47231293 189.52064514 122.31725311 189.49188232 123.32048798 189.55758667 C 124.41186523 190.33067322 124.53896332 190.23385620 125.66826630 191.25830078 C 126.13929749 191.90315247 126.65345764 192.25993347 126.51831055 193.37483215 C 125.90772247 194.30316162 124.84541321 194.86938477 124.18446350 195.16841125" stroke-width="1.00000000" fill="rgb(1, 2, 2)" opacity="1.0"/>
    <path d="M 122.12256622 211.16554260 C 121.98177338 210.25939941 122.13991547 209.62733459 122.37657166 208.83833313 C 122.80337524 207.61853027 123.09912872 207.42852783 123.70146942 206.85093689 C 124.91947174 206.04072571 124.90444183 206.08625793 126.22641754 205.62631226 C 127.48336029 205.53158569 127.62352753 205.13009644 128.69187927 205.72459412 C 129.23031616 206.91975403 129.11267090 207.02360535 129.25143433 208.29374695 C 129.25137329 209.72758484 129.33251953 209.28913879 129.19461060 210.56762695 C 129.01452637 211.27032471 128.97886658 211.87466431 128.21310425 212.65196228 C 127.14742279 212.99411011 127.04383087 213.13005066 125.70882416 213.48248291 C 124.93807220 213.54087830 124.26229858 213.74812317 123.19818878 213.66638184 C 122.31487274 212.76507568 122.46221924 212.33999634 122.12256622 211.16554260" stroke-width="1.00000000" fill="rgb(3, 4, 6)" opacity="1.0"/>
    <path d="M 51.11195755 91.60533142 C 51.30102158 91.33306885 51.72610855 90.39279175 52.17632675 89.68511963 C 52.62343597 89.08235931 53.01705933 88.13675690 53.89793396 88.41197968 C 54.93653488 88.79747009 55.38795471 89.20676422 55.85308456 89.79907227 C 56.68007278 90.93451691 56.71091461 91.26688385 57.05464935 92.15370178 C 57.30727005 93.68690491 57.33388138 93.55213165 57.02101517 94.80062866 C 56.26636124 96.12569427 56.54247665 95.81529999 55.86717987 96.63397980 C 55.32832336 97.32501221 54.56519318 98.21190643 53.96247101 98.09200287 C 53.06349182 97.80506897 52.65976715 97.16618347 52.06734848 96.50331116 C 51.62688065 95.95841980 50.87970352 95.06056976 50.67836380 94.42000580 C 50.36277390 93.56401062 50.74430847 93.04103088 51.11195755 91.60533142" stroke-width="1.00000000" fill="rgb(2, 4, 100)" opacity="1.0"/>
    <path d="M 43.86097717 139.59873962 C 44.21541977 138.93637085 44.42173004 138.43257141 45.04821777 137.65733337 C 45.61239243 137.02691650 46.08216476 136.16717529 46.98406219 136.44520569 C 47.96637726 136.78753662 48.27159882 136.72450256 49.03972244 137.72630310 C 49.54043198 138.72628784 49.45783997 138.90562439 49.98503113 140.09764099 C 50.14941025 140.66998291 50.64921951 141.47373962 50.66677094 142.56719971 C 50.39475250 143.60050964 50.48098373 143.60174561 49.97609711 144.45422363 C 49.69535828 145.45693970 48.55467987 145.05020142 47.93446350 144.82450867 C 46.90747833 144.42530823 46.46889877 144.13949585 45.61848068 143.65298462 C 45.16332245 143.37214661 44.23013687 142.82284546 43.58969879 142.18449402 C 43.18593597 141.31930542 43.67704010 140.64273071 43.86097717 139.59873962" stroke-width="1.00000000" fill="rgb(0, 64, 48)" opacity="1.0"/>
    <path d="M 51.06523514 181.60818481 C 49.84982300 181.62626648 49.73220825 181.58949280 48.55988693 181.49058533 C 47.61135483 181.06813049 47.48667526 180.74923706 47.27800751 179.90324402 C 47.57767105 178.89204407 48.21306610 178.15470886 48.63570786 177.64337158 C 49.58330917 176.74328613 50.28369522 176.61621094 50.77220154 176.49537659 C 51.48641205 175.79772949 52.25946426 175.40710449 53.31805038 175.43791199 C 54.90143204 175.44985962 54.51461792 175.49942017 55.58516693 175.60893250 C 56.52087021 175.41648865 56.53424835 176.75971985 56.58598709 177.58634949 C 56.35324097 178.79054260 56.20595932 179.13290405 55.60604858 179.78836060 C 55.17372894 180.47386169 54.24681473 180.62100220 53.35644531 180.52066040 C 52.60138702 180.79124451 52.48134995 181.25164795 51.06523514 181.60818481" stroke-width="1.00000000" fill="rgb(145, 9, 11)" opacity="1.0"/>
    <path d="M 150.41851807 219.97769165 C 151.10528564 219.29588318 151.20840454 219.35061646 152.23886108 218.60021973 C 153.03147888 218.19403076 153.36376953 217.84220886 154.33815002 217.44067383 C 155.41246033 217.15686035 155.49200439 217.10839844 156.81547546 216.91329956 C 157.61633301 217.07241821 158.23559570 216.98637390 158.65707397 217.85780334 C 158.23243713 219.06277466 157.89953613 219.24526978 157.16954041 219.88761902 C 156.10882568 220.75650024 156.42453003 220.50199890 155.53732300 221.25975037 C 154.80021667 221.85539246 154.69847107 222.12585449 154.05845642 223.01388550 C 153.15155029 223.19630432 152.89372253 223.28756714 151.60791016 223.25497437 C 150.86862183 223.12242126 150.29695129 223.09059143 149.57835388 222.28558350 C 149.42359924 221.21003723 149.57885742 221.14997864 150.41851807 219.97769165" stroke-width="1.00000000" fill="rgb(235, 246, 236)" opacity="1.0"/>
  </g>
</svg>
