<?xml version="1.0" ?>
<svg xmlns="http://www.w3.org/2000/svg" version="1.1" width="256" height="256" viewBox="0 0 256 256">
  <defs/>
  <g>
    <path d="M 253.67678833 215.83724976 C 253.00912476 251.30175781 248.25852966 257.91424561 198.24096680 251.30889893 C 160.54483032 251.80847168 139.58163452 251.29589844 95.93492126 251.54718018 C 52.26222992 250.65039062 27.83431244 256.72302246 6.27724457 247.77304077 C 1.80066681 220.43777466 6.28791046 181.69009399 5.45141602 143.59384155 C 5.47507477 106.86494446 6.21768951 81.27644348 2.24242401 45.31434631 C 1.48028564 6.11377716 18.80207062 -5.25273132 50.99072266 4.74594879 C 87.85627747 4.57284546 108.22576904 2.30227661 149.49140930 3.38742828 C 195.53262329 5.65438843 219.90551758 -1.97395325 246.28851318 5.10337830 C 258.47909546 38.99365234 251.98800659 64.05638885 251.57174683 103.03341675 C 251.10896301 141.40753174 253.99037170 155.45202637 253.67678833 215.83724976" stroke-width="2.00000000" fill="rgb(248, 251, 244)" opacity="1.0" stroke="rgb(244, 238, 4)" stroke-opacity="0.34821057" stroke-linecap="round" stroke-linejoin="round"/>
    <path d="M 180.02453613 168.06716919 C 173.69631958 176.39895630 168.27949524 178.39308167 148.83033752 180.97692871 C 131.74955750 181.37677002 125.11313629 180.86433411 111.23410034 180.04000854 C 91.08279419 178.57318115 88.11553955 179.99623108 73.96617126 170.99084473 C 62.31509399 154.32199097 64.70755768 155.15313721 61.33115387 135.15219116 C 61.71958160 123.34310913 58.53296661 102.20502472 65.10899353 98.60816956 C 80.64784241 94.86921692 83.45861053 95.72349548 98.42275238 95.37944031 C 115.14550781 94.93455505 119.30338287 94.81971741 137.92878723 95.14241028 C 151.88398743 95.07280731 160.31448364 94.70933533 178.77204895 97.59382629 C 196.76818848 101.83254242 191.15634155 105.50288391 191.46420288 126.66651917 C 190.70957947 134.25178528 189.54144287 149.98562622 180.02453613 168.06716919" stroke-width="0.67281467" fill="rgb(8, 9, 4)" opacity="1.0" stroke="rgb(38, 8, 50)" stroke-opacity="0.6298394" stroke-linecap="round" stroke-linejoin="round"/>
    <path d="M 171.64143372 167.21601868 C 165.75775146 174.29129028 153.41474915 178.18881226 143.77264404 179.87145996 C 131.12118530 183.43618774 121.05607605 182.05946350 109.63583374 179.05130005 C 95.24364471 174.89242554 91.23805237 173.66262817 80.51626587 164.98944092 C 68.94363403 151.32917786 69.72424316 151.04663086 67.38325500 133.44338989 C 67.96731567 122.49884796 63.49185181 113.38488770 76.72044373 106.24943542 C 96.65452576 100.64558411 90.05928802 101.57830811 105.76897430 101.08752441 C 119.36721039 101.18243408 121.94220734 102.60138702 139.14579773 105.39682007 C 149.86676025 106.44706726 161.65705872 107.37673187 173.56628418 110.43860626 C 187.44512939 110.63050079 186.25740051 116.75834656 184.44184875 135.14370728 C 182.74662781 144.56277466 182.34460449 154.47781372 171.64143372 167.21601868" stroke-width="2.00000000" fill="rgb(118, 65, 52)" opacity="1.0" stroke="rgb(247, 180, 129)" stroke-opacity="0.69171375" stroke-linecap="round" stroke-linejoin="round"/>
    <path d="M 161.99757385 114.87815094 C 156.29669189 116.58882141 152.07713318 117.26673126 139.22401428 117.33907318 C 131.34881592 117.09324646 122.82420349 117.17762756 112.67770386 116.03083038 C 100.59834290 115.82955933 95.59860229 112.09925842 87.06362915 113.71955109 C 83.32646179 122.26057434 86.85565186 133.53857422 82.13517761 141.64569092 C 79.07729340 139.28486633 78.95674133 131.88842773 80.77294922 120.93189240 C 82.00434875 111.14615631 83.54815674 105.13174438 89.71842957 107.59186554 C 102.71399689 109.04786682 106.57953644 108.98062134 118.05722046 109.24078369 C 129.63211060 108.84609222 132.04081726 110.43259430 145.33029175 108.90660858 C 152.54882812 107.90862274 161.66535950 107.37837219 171.29608154 110.15531921 C 182.34802246 113.53022003 173.12319946 114.12836456 161.99757385 114.87815094" stroke-width="2.00000000" fill="rgb(237, 238, 232)" opacity="1.0" stroke="rgb(36, 27, 35)" stroke-opacity="1.0" stroke-linecap="round" stroke-linejoin="round"/>
    <path d="M 189.94096375 162.48710632 C 185.14955139 161.70632935 178.92320251 162.63194275 178.26235962 159.53973389 C 182.55551147 156.03393555 188.69543457 154.07606506 191.74491882 149.07701111 C 195.22979736 143.55709839 195.53785706 138.23731995 196.03225708 132.26296997 C 195.84274292 125.48320770 196.41760254 120.83805847 193.18815613 119.21286774 C 192.10913086 122.96737671 185.57104492 120.20029449 187.43519592 113.26889801 C 191.63496399 111.27873230 193.73146057 112.49915314 197.74172974 111.51107788 C 204.23812866 111.77822876 207.26197815 118.41675568 208.75424194 123.83943176 C 210.51379395 128.31700134 210.50743103 133.07456970 210.43702698 140.14706421 C 210.58004761 144.31391907 208.55590820 148.73381042 203.37397766 154.18862915 C 200.82864380 157.87808228 197.16461182 162.31298828 189.94096375 162.48710632" stroke-width="0.69821149" fill="rgb(3, 4, 9)" opacity="1.0" stroke="rgb(83, 84, 52)" stroke-opacity="0.7464679" stroke-linecap="round" stroke-linejoin="round"/>
    <path d="M 193.66378784 154.28181458 C 192.24732971 155.12924194 188.08679199 157.54139709 192.75852966 153.78260803 C 195.64315796 150.84887695 197.46568298 149.11688232 198.83065796 145.47209167 C 199.47433472 141.61244202 199.90417480 139.60702515 199.73857117 135.17718506 C 199.57429504 131.41183472 200.44587708 129.01129150 198.29139709 125.19690704 C 197.33825684 122.29827118 194.43922424 121.56655121 194.01937866 119.79471588 C 195.67025757 118.35586548 197.44587708 117.76181030 200.29705811 118.51072693 C 203.31857300 121.61528015 202.70829773 121.73753357 203.64595032 128.10292053 C 204.34413147 133.09539795 203.73617554 134.95414734 203.40747070 139.05633545 C 203.06060791 142.85899353 202.51251221 144.98469543 199.99209595 148.56575012 C 198.32360840 151.54000854 196.94227600 151.44224548 193.66378784 154.28181458" stroke-width="0.76714790" fill="rgb(241, 254, 255)" opacity="1.0" stroke="rgb(110, 194, 255)" stroke-opacity="0.48089486" stroke-linecap="round" stroke-linejoin="round"/>
    <path d="M 99.93064117 73.24920654 C 99.91410828 74.09355164 99.71217346 75.32368469 99.56253815 76.25638580 C 99.64061737 77.28314972 99.05245209 77.99714661 98.19104767 78.46989441 C 97.50590515 77.77257538 97.89862823 76.93062592 97.86547089 75.77169800 C 97.89998627 74.74804688 98.08107758 73.60553741 98.19828033 72.71077728 C 98.40644836 71.52810669 98.62841797 71.22830200 99.22522736 70.11866760 C 100.07814789 68.61215973 100.30862427 68.78850555 100.31092072 67.74405670 C 100.25453186 66.27621460 99.63924408 65.69122314 100.18237305 65.36672974 C 100.42070770 65.20716858 100.51604462 66.04084015 101.01100159 67.10400391 C 101.36531830 67.97750854 101.43418884 69.05332947 100.93532562 70.12200928 C 100.55482483 71.09034729 99.90718842 71.63042450 99.93064117 73.24920654" stroke-width="0.00000000" fill="rgb(255, 222, 206)" opacity="1.0" stroke="rgb(255, 254, 254)" stroke-opacity="0.0" stroke-linecap="round" stroke-linejoin="round"/>
    <path d="M 131.08082581 74.42468262 C 129.55561829 76.94528198 129.33117676 77.41279602 128.76162720 81.53778839 C 128.82099915 83.66625214 129.00567627 86.90164948 127.13469696 89.28053284 C 125.72888947 87.18524933 126.47203827 84.37602234 125.89498901 82.22335815 C 125.15418243 78.34019470 125.35958862 78.23762512 127.09128571 76.46066284 C 129.18740845 74.10656738 130.16085815 71.52875519 131.62324524 69.92487335 C 133.67483521 65.68880463 133.89538574 66.32530212 133.77267456 63.62191010 C 132.93186951 60.49529648 130.51248169 57.44356537 131.85545349 55.69128418 C 133.01480103 56.62719345 133.01202393 59.26678848 134.89242554 61.73524475 C 136.53729248 64.38206482 138.22853088 64.97014618 137.78742981 68.05412292 C 135.49844360 70.82671356 133.25564575 71.11124420 131.08082581 74.42468262" stroke-width="1.01427400" fill="rgb(177, 17, 6)" opacity="1.0" stroke="rgb(236, 144, 63)" stroke-opacity="0.3759002" stroke-linecap="round" stroke-linejoin="round"/>
    <path d="M 154.53770447 71.55612183 C 154.12837219 73.90425110 153.97679138 75.04867554 155.20016479 78.47961426 C 156.34503174 80.70710754 158.09553528 83.46865845 157.52526855 86.52413940 C 155.63288879 84.70171356 155.89826965 82.38962555 154.74537659 79.94987488 C 153.34632874 76.11530304 153.23907471 76.01223755 153.69371033 72.76314545 C 155.22283936 69.04451752 155.54823303 67.15500641 156.75823975 65.00976562 C 158.60932922 60.89193344 158.33114624 61.43880844 158.93778992 58.43264008 C 158.78753662 54.55111313 157.61677551 53.16222000 160.07145691 51.05437469 C 161.33059692 52.20509338 160.13731384 54.96004105 161.36500549 57.62389755 C 162.46635437 60.90945435 161.09600830 62.48736572 159.72192383 64.13056183 C 157.73262024 66.40592194 156.06193542 67.18810272 154.53770447 71.55612183" stroke-width="0.00000000" fill="rgb(124, 67, 110)" opacity="1.0" stroke="rgb(255, 255, 255)" stroke-opacity="0.0" stroke-linecap="round" stroke-linejoin="round"/>
    <path d="M 194.05752563 179.31797791 C 182.77877808 178.91499329 175.86442566 175.90737915 162.11592102 178.55455017 C 154.98516846 182.34428406 147.73635864 186.05789185 133.54701233 184.77384949 C 123.47445679 184.90928650 114.13799286 184.29664612 101.77783203 182.66117859 C 88.44671631 179.72285461 81.02502441 180.30126953 72.94312286 181.51356506 C 55.07323456 182.04254150 55.57587433 174.66566467 66.07611084 174.16908264 C 85.31111908 174.41706848 85.04666138 174.60247803 93.95306396 176.10205078 C 107.00744629 180.21592712 114.35902405 180.16082764 125.82714844 180.19798279 C 141.66056824 180.83561707 145.08341980 180.84803772 157.52285767 176.39186096 C 169.94686890 175.83807373 178.59991455 175.26420593 189.78376770 176.93948364 C 204.46328735 178.79568481 210.01123047 181.48690796 194.05752563 179.31797791" stroke-width="0.51291758" fill="rgb(0, 6, 4)" opacity="1.0" stroke="rgb(0, 0, 27)" stroke-opacity="0.48630488" stroke-linecap="round" stroke-linejoin="round"/>
    <path d="M 78.67926788 175.85554504 C 80.78822327 177.83770752 92.00205231 181.10945129 85.71691895 183.10127258 C 78.97362518 184.40432739 74.97288513 183.15187073 68.78821564 183.96640015 C 62.04644394 184.96343994 59.31882477 187.27134705 60.65589523 190.79731750 C 60.57221985 194.12112427 57.77632523 192.53671265 55.05923462 188.11640930 C 50.50006866 184.63322449 49.27489853 180.09634399 45.54058456 177.28051758 C 39.80664825 175.53552246 34.80475235 173.80493164 37.43686676 174.80731201 C 42.55484772 176.20367432 45.10963440 177.71798706 47.16824341 171.37559509 C 48.61832047 165.04658508 49.50424576 167.86962891 54.51192856 174.50692749 C 57.95788574 178.19114685 63.11396408 180.34764099 69.34088135 176.75282288 C 75.12199402 172.94197083 75.00262451 172.62364197 78.67926788 175.85554504" stroke-width="1.33909106" fill="rgb(109, 108, 98)" opacity="1.0" stroke="rgb(0, 23, 0)" stroke-opacity="0.89421254" stroke-linecap="round" stroke-linejoin="round"/>
    <path d="M 129.26794434 74.01025391 C 127.45265198 79.37381744 126.60491943 81.75373840 126.41625977 87.57865143 C 127.41181946 95.54293060 126.85451508 91.61662292 123.98757172 92.14004517 C 121.23819733 93.06074524 124.09860229 87.69479370 124.42787933 83.12580109 C 124.66729736 78.74632263 125.89684296 73.91331482 129.06387329 69.83676147 C 132.55088806 67.68370819 129.73709106 63.83644104 128.28715515 58.97933197 C 126.28994751 51.83885574 126.57527924 52.91440582 125.54441833 48.54646301 C 125.55002594 43.40050507 124.73010254 39.49249268 126.72790527 41.03961182 C 126.81729126 44.86127853 127.79096222 47.70576477 130.52876282 52.53565979 C 131.60052490 56.35678864 135.39335632 61.10662079 136.88198853 64.34779358 C 137.75520325 68.93684387 132.37796021 68.43531036 129.26794434 74.01025391" stroke-width="0.86281234" fill="rgb(19, 9, 13)" opacity="1.0" stroke="rgb(0, 0, 10)" stroke-opacity="0.3767432" stroke-linecap="round" stroke-linejoin="round"/>
    <path d="M 204.50166321 185.53019714 C 201.33004761 185.91523743 199.26948547 184.72273254 196.27264404 182.24890137 C 194.47088623 180.60710144 191.53613281 180.41108704 188.35049438 182.16670227 C 183.69483948 183.44300842 183.20359802 183.10383606 178.83367920 183.21002197 C 175.73141479 183.38078308 171.51889038 182.58586121 168.83883667 181.24336243 C 165.37583923 178.67716980 168.31195068 177.38069153 172.83129883 177.34799194 C 175.92703247 176.68211365 177.84568787 177.29052734 179.64437866 175.06977844 C 183.19963074 172.53459167 184.71031189 172.95039368 188.39941406 172.20391846 C 192.79592896 171.67228699 193.87615967 172.75997925 196.80253601 174.36611938 C 199.81793213 176.02006531 202.72906494 178.03797913 204.49615479 179.59317017 C 207.74668884 182.81805420 209.95880127 185.75660706 204.50166321 185.53019714" stroke-width="0.83071208" fill="rgb(19, 9, 10)" opacity="1.0" stroke="rgb(87, 81, 71)" stroke-opacity="0.68496376" stroke-linecap="round" stroke-linejoin="round"/>
    <path d="M 101.00531769 75.37337494 C 97.44017029 77.00846100 95.63764191 77.70571136 91.99638367 78.97570038 C 87.38214111 81.22270966 85.45707703 79.69848633 89.16086578 74.50845337 C 91.41555786 69.91636658 93.83973694 68.20108032 96.02909851 65.21837616 C 100.04014587 62.02667999 100.94212341 62.27724838 101.31675720 59.51277924 C 101.15116882 55.27860260 96.12767792 52.35371399 93.61917877 50.65443420 C 89.22321320 47.17042542 88.88901520 48.39745712 86.04661560 45.91097641 C 85.41558838 44.56938934 91.32487488 46.79872513 94.92419434 48.50380325 C 99.55124664 51.42451096 101.13719177 52.52082062 103.58911133 55.97662735 C 106.81237030 60.11608887 107.90446472 62.33020401 107.22622681 66.00666046 C 105.31300354 70.26103973 105.27038574 71.86773682 101.00531769 75.37337494" stroke-width="0.96353203" fill="rgb(68, 26, 14)" opacity="1.0" stroke="rgb(142, 113, 67)" stroke-opacity="0.61733395" stroke-linecap="round" stroke-linejoin="round"/>
    <path d="M 209.20162964 200.47485352 C 209.22457886 200.99815369 209.18765259 201.02494812 209.03134155 201.79370117 C 208.88874817 202.13336182 208.74653625 202.54641724 208.32133484 203.04679871 C 208.07032776 203.35781860 207.75538635 203.69731140 207.30871582 204.05923462 C 206.93650818 204.37226868 206.54173279 204.81263733 206.07397461 204.77798462 C 205.77377319 204.27737427 205.85597229 204.11222839 205.88255310 203.37123108 C 205.83564758 202.65426636 205.80453491 202.81669617 205.81260681 202.09559631 C 205.87260437 201.58381653 205.78341675 201.24958801 206.05114746 200.77568054 C 206.49058533 200.27503967 206.67901611 200.10704041 207.10540771 199.70050049 C 207.69860840 199.34410095 207.67546082 199.20373535 208.39729309 199.14314270 C 208.99734497 199.42579651 209.02326965 199.73374939 209.20162964 200.47485352" stroke-width="0.92527997" fill="rgb(13, 18, 29)" opacity="1.0" stroke="rgb(95, 117, 60)" stroke-opacity="0.56915843" stroke-linecap="round" stroke-linejoin="round"/>
    <path d="M 154.29640198 74.13213348 C 155.43637085 77.52166748 157.54872131 81.01862335 158.94123840 85.85577393 C 160.71151733 90.44364166 161.51734924 95.32730103 160.24229431 99.64852142 C 157.38027954 99.00238800 158.58631897 92.19367218 157.78733826 88.51293945 C 157.12927246 81.65600586 156.90061951 80.78102112 153.34423828 75.84300232 C 150.31631470 70.05349731 151.88891602 68.53562927 155.58921814 63.98456573 C 159.45303345 59.03369904 161.85534668 58.92705536 160.19122314 55.36909103 C 156.78553772 50.18238068 150.72491455 47.34718704 151.94641113 45.01891327 C 153.31538391 45.53908539 156.26837158 50.45081711 160.25074768 52.88700104 C 165.26705933 55.51750565 167.05979919 58.45089722 161.16676331 61.94552612 C 157.70944214 66.03987885 152.85394287 68.41059875 154.29640198 74.13213348" stroke-width="0.70167077" fill="rgb(3, 0, 3)" opacity="1.0" stroke="rgb(8, 0, 0)" stroke-opacity="0.42307115" stroke-linecap="round" stroke-linejoin="round"/>
    <path d="M 167.67810059 177.46189880 C 169.61329651 178.90734863 169.28005981 180.21324158 166.65968323 182.04244995 C 164.47358704 183.96543884 163.13667297 185.26983643 164.66239929 188.16899109 C 166.03430176 189.69575500 167.74133301 190.20634460 170.27282715 190.97122192 C 172.13670349 192.02540588 174.26263428 190.98490906 175.22299194 192.83593750 C 173.49134827 194.01356506 171.18978882 193.87471008 169.37818909 194.45950317 C 165.52922058 194.70120239 166.42811584 194.63906860 163.25036621 195.20748901 C 159.88752747 194.82272339 160.24681091 194.09596252 160.39924622 190.56831360 C 160.51829529 187.89550781 161.65882874 186.38676453 161.26074219 184.57290649 C 161.01593018 181.36210632 161.38842773 181.70793152 162.93539429 178.49429321 C 164.27685547 175.74423218 165.51480103 175.34568787 167.67810059 177.46189880" stroke-width="0.60757250" fill="rgb(0, 6, 7)" opacity="1.0" stroke="rgb(0, 55, 30)" stroke-opacity="0.52521646" stroke-linecap="round" stroke-linejoin="round"/>
    <path d="M 112.89665222 190.01019287 C 112.40487671 191.49620056 109.62355042 192.40997314 107.32157898 192.65644836 C 104.42063141 193.30682373 103.17134857 193.37571716 100.46404266 194.02691650 C 97.54648590 194.18655396 96.77530670 194.64833069 94.11753082 195.97584534 C 91.41468048 197.09321594 89.97184753 197.71919250 88.55530548 197.96141052 C 87.29187012 197.91256714 82.76551056 199.82914734 82.77870178 198.14703369 C 85.15970612 196.23132324 85.54777527 197.18576050 87.86200714 195.45201111 C 90.62059784 193.31640625 90.11736298 193.29870605 93.24955750 190.78631592 C 95.03752136 188.86212158 96.43258667 188.56156921 99.17787170 189.10755920 C 101.05177307 188.96900940 103.13525391 189.20593262 105.93013763 189.60289001 C 107.61735535 189.76861572 110.77850342 190.49777222 112.89665222 190.01019287" stroke-width="0.46926561" fill="rgb(20, 23, 4)" opacity="1.0" stroke="rgb(105, 136, 59)" stroke-opacity="0.56528467" stroke-linecap="round" stroke-linejoin="round"/>
    <path d="M 77.68463898 147.23248291 C 81.36579895 148.43043518 82.94731903 148.59210205 83.20732117 154.99758911 C 83.64963531 159.24279785 83.47238922 165.40565491 80.02651978 165.93061829 C 77.03434753 164.97775269 75.50837708 159.32603455 74.63322449 155.31512451 C 73.76528168 150.87411499 73.60173798 147.73526001 72.98939514 143.21891785 C 72.69541931 138.52145386 72.62819672 134.49118042 72.88861084 130.11903381 C 73.11373901 122.60607147 72.96985626 124.79855347 71.95219421 119.52321625 C 72.50320435 112.98320007 73.32277679 113.40513611 80.15278625 115.70147705 C 83.33144379 119.41935730 78.46943665 121.79672241 76.49290466 124.85771942 C 76.52086639 129.00231934 76.52715302 133.72836304 76.35854340 137.01567078 C 76.23667908 143.76658630 74.69822693 146.15498352 77.68463898 147.23248291" stroke-width="0.47759405" fill="rgb(249, 248, 239)" opacity="1.0" stroke="rgb(214, 166, 147)" stroke-opacity="0.8630379" stroke-linecap="round" stroke-linejoin="round"/>
    <path d="M 124.46386719 87.19118500 C 125.11073303 87.35398865 126.17019653 87.83322906 127.45536804 87.13488770 C 128.09152222 86.67131042 129.15412903 84.95678711 130.08670044 85.09881592 C 130.34384155 86.00981903 130.50158691 87.00080872 131.20498657 88.27363586 C 131.60240173 89.40531921 132.42991638 90.39279938 133.17279053 91.05999756 C 133.21499634 92.39674377 132.47116089 92.19377899 131.18402100 92.57342529 C 129.12229919 92.44673920 129.38821411 92.36297607 128.41824341 92.38088226 C 127.32806396 92.60135651 126.95011902 92.37294769 125.42166138 92.20247650 C 124.07050323 91.90695190 123.95868683 92.69889069 122.88552856 91.73503876 C 122.21913147 90.98102570 122.30275726 89.57499695 122.42311859 88.68214417 C 122.76637268 87.16780090 122.68977356 86.94896698 124.46386719 87.19118500" stroke-width="0.76733118" fill="rgb(232, 235, 145)" opacity="1.0" stroke="rgb(255, 235, 207)" stroke-opacity="0.8040683" stroke-linecap="round" stroke-linejoin="round"/>
    <path d="M 165.03340149 110.34574127 C 167.00640869 110.15501404 166.59629822 110.22753143 168.95497131 109.68463135 C 170.15611267 109.42673492 171.00971985 109.27498627 173.14106750 108.76742554 C 174.30155945 108.47386169 175.46772766 108.30149078 177.21136475 107.88832092 C 179.03923035 107.61721802 180.42602539 106.71442413 181.20635986 107.89389038 C 181.73086548 108.82907104 181.94245911 110.59703064 180.14224243 110.96620178 C 177.96186829 111.31047821 178.20713806 111.43122864 176.56982422 111.75364685 C 174.69650269 112.13020325 174.52975464 112.05028534 172.46385193 112.56753540 C 170.69372559 112.89450836 169.68934631 113.07061005 167.91482544 113.46989441 C 166.22862244 113.62513733 164.95585632 114.10052490 163.99272156 113.23704529 C 163.55644226 112.32744598 163.03932190 110.87748718 165.03340149 110.34574127" stroke-width="2.00000000" fill="rgb(202, 152, 25)" opacity="1.0" stroke="rgb(8, 0, 4)" stroke-opacity="1.0" stroke-linecap="round" stroke-linejoin="round"/>
    <path d="M 153.78543091 99.94456482 C 154.00360107 99.91708374 155.55572510 99.67034912 156.62387085 99.58496094 C 158.06999207 99.66126251 158.85610962 99.43108368 159.81523132 100.07049561 C 161.00675964 100.67132568 161.82887268 101.17661285 162.62480164 101.74691010 C 163.97706604 102.76142120 164.39868164 103.03101349 165.27073669 103.96110535 C 165.67874146 105.21878815 164.17999268 105.14701080 162.87857056 105.77860260 C 161.53974915 106.32556915 161.52114868 106.65637970 160.34709167 106.54543304 C 159.22639465 106.18939209 158.58343506 105.61134338 157.29660034 105.00912476 C 156.46194458 104.62641907 155.34901428 104.08488464 154.25433350 103.62332916 C 153.35404968 103.15067291 152.31336975 102.52769470 151.46888733 101.62045288 C 150.64761353 100.46343231 151.72566223 100.29283905 153.78543091 99.94456482" stroke-width="2.00000000" fill="rgb(232, 228, 229)" opacity="1.0" stroke="rgb(0, 0, 9)" stroke-opacity="1.0" stroke-linecap="round" stroke-linejoin="round"/>
    <path d="M 130.85140991 102.44297791 C 132.82936096 102.66471100 134.07138062 102.20074463 136.07464600 102.17652893 C 138.08305359 101.88513947 139.56562805 102.06781769 141.47602844 102.02855682 C 143.61056519 101.85335541 145.13470459 101.31844330 146.78598022 101.74775696 C 148.27099609 102.10742950 151.00883484 102.10633850 151.08338928 103.75136566 C 148.67732239 104.91434479 147.49884033 104.26481628 145.37693787 104.41847992 C 143.13880920 104.36818695 142.72102356 104.37023926 140.76551819 104.52971649 C 138.36573792 104.54081726 138.12179565 104.38818359 135.26515198 104.41316986 C 133.50053406 104.43499756 132.09780884 104.50994110 129.75137329 104.72901154 C 128.34126282 104.61096954 126.20027161 104.58112335 125.31629944 102.61158752 C 126.71050262 101.40147400 129.24246216 102.46757507 130.85140991 102.44297791" stroke-width="2.00000000" fill="rgb(166, 94, 39)" opacity="1.0" stroke="rgb(0, 0, 0)" stroke-opacity="1.0" stroke-linecap="round" stroke-linejoin="round"/>
    <path d="M 57.17517090 162.11888123 C 56.13523865 162.51164246 56.10124969 162.53408813 54.72876740 162.92431641 C 54.00532532 162.93608093 52.76599121 163.50318909 52.64378738 162.69355774 C 52.78873825 161.58670044 53.06726074 161.14993286 53.33411407 160.14450073 C 53.81073380 158.87899780 53.96714401 158.93457031 54.47479630 157.67332458 C 55.08427429 156.56570435 55.23282623 156.34803772 56.03226089 155.68431091 C 57.29481506 154.78733826 56.96612549 155.01646423 57.82975769 154.27113342 C 58.67256927 153.70346069 58.58274841 154.53146362 59.03063965 155.76107788 C 59.25796509 156.48139954 59.28421021 156.88705444 59.60747147 158.02197266 C 59.88198090 159.07565308 60.05714035 159.79507446 59.59165955 160.39271545 C 58.82522202 161.16320801 58.00315094 161.62384033 57.17517090 162.11888123" stroke-width="0.56906599" fill="rgb(0, 11, 3)" opacity="1.0" stroke="rgb(22, 102, 60)" stroke-opacity="0.70058775" stroke-linecap="round" stroke-linejoin="round"/>
    <path d="M 124.03173065 195.76834106 C 123.15206909 196.12028503 123.18476868 196.06777954 121.89520264 196.13586426 C 121.28904724 196.08633423 120.50014496 196.08384705 119.58077240 195.53736877 C 119.18885803 195.30067444 118.54188538 194.75988770 117.97555542 193.81448364 C 117.69734955 193.33345032 117.26139069 192.30595398 117.32321167 191.45530701 C 117.55272675 190.75373840 118.18077850 190.63104248 119.37037659 190.66741943 C 120.51003265 190.85278320 120.22818756 190.69279480 121.33549500 190.97065735 C 121.94842529 191.09455872 122.67570496 191.15167236 123.67713928 191.16348267 C 124.34625244 191.45814514 124.83427429 191.66369629 125.85070038 192.30061340 C 126.37799072 192.74258423 126.84918976 193.21707153 126.21547699 194.17085266 C 125.49977875 194.95666504 125.40559387 195.04878235 124.03173065 195.76834106" stroke-width="0.79685742" fill="rgb(2, 7, 6)" opacity="1.0" stroke="rgb(85, 113, 36)" stroke-opacity="0.6057123" stroke-linecap="round" stroke-linejoin="round"/>
    <path d="M 123.21692657 211.45765686 C 123.19544983 210.61956787 123.26558685 210.42692566 123.60761261 209.57153320 C 124.13090515 208.57112122 124.10579681 208.57984924 124.87155151 207.92655945 C 125.74406433 207.41117859 125.84172058 207.37989807 126.99441528 207.11613464 C 127.58947754 207.16094971 128.28884888 206.90988159 129.01255798 207.43231201 C 129.53683472 208.34857178 129.46705627 208.34408569 129.60060120 209.44422913 C 129.49087524 210.63885498 129.56996155 210.25772095 129.29991150 211.28654480 C 129.10667419 211.68719482 128.95510864 212.35159302 128.26329041 212.99208069 C 127.68627930 213.24105835 127.29291534 213.45155334 126.24967957 213.68968201 C 125.75177002 213.70729065 124.98947906 213.77081299 124.17317963 213.46437073 C 123.53830719 212.78884888 123.46298981 212.61166382 123.21692657 211.45765686" stroke-width="0.86205739" fill="rgb(1, 6, 3)" opacity="1.0" stroke="rgb(64, 81, 63)" stroke-opacity="0.72801304" stroke-linecap="round" stroke-linejoin="round"/>
    <path d="M 52.24283600 92.42547607 C 52.39360046 92.15130615 52.72489929 91.38079071 53.13056946 90.84695435 C 53.52733231 90.37322235 54.03059006 90.02806854 54.82053375 90.03761292 C 55.65154648 90.15927124 56.08208466 90.71897125 56.32143784 91.15248108 C 56.89411926 92.24711609 56.81475830 92.30795288 57.06118011 93.25788116 C 57.19473648 94.52166748 57.23386765 94.34986877 56.97946167 95.44226074 C 56.40848160 96.57311249 56.59862900 96.29676056 56.09746933 96.98538971 C 55.76903152 97.62066650 54.95824051 98.25349426 54.44613266 98.05786133 C 53.65057755 97.73558044 53.25858307 97.25040436 52.88074112 96.68173981 C 52.54199219 96.19395447 52.09901047 95.44612885 52.00948334 94.79097748 C 51.85336685 94.07942963 52.03147507 93.65715790 52.24283600 92.42547607" stroke-width="0.81007904" fill="rgb(0, 4, 108)" opacity="1.0" stroke="rgb(21, 88, 169)" stroke-opacity="0.5983908" stroke-linecap="round" stroke-linejoin="round"/>
    <path d="M 45.06017303 140.25112915 C 45.24724579 140.01609802 45.70603561 139.25654602 46.20361328 138.73312378 C 46.68169022 138.17625427 47.11668396 137.34436035 47.82538986 137.68287659 C 48.58229065 138.15594482 48.77084351 138.14257812 49.31282425 139.14663696 C 49.56346512 139.59994507 49.73235703 140.40768433 49.91316223 141.18028259 C 49.99730682 141.87118530 50.36062241 142.48390198 50.40280914 143.37715149 C 50.23475266 144.04684448 50.11192322 144.25228882 49.86219025 144.92388916 C 49.72492981 145.89936829 48.73646545 144.95077515 48.16125870 144.72283936 C 47.13640213 144.19975281 47.00719833 144.19554138 46.25952148 143.80830383 C 45.49977112 143.46121216 45.06581116 142.85087585 44.72997284 142.38990784 C 44.21574783 141.77627563 44.70971298 141.17449951 45.06017303 140.25112915" stroke-width="0.58525354" fill="rgb(0, 69, 55)" opacity="1.0" stroke="rgb(17, 147, 121)" stroke-opacity="0.4980593" stroke-linecap="round" stroke-linejoin="round"/>
    <path d="M 53.66211700 183.15333557 C 52.13213730 183.35363770 51.83893967 183.94665527 49.83264542 182.59535217 C 47.87846375 180.25157166 48.22900391 179.74589539 46.51413345 178.11264038 C 44.43204880 176.52452087 46.03185654 174.63345337 46.80621338 173.45092773 C 48.89029312 171.31445312 48.80395508 170.95393372 50.57485962 169.91339111 C 52.44990158 170.02058411 53.95356750 170.78047180 56.00395584 171.61102295 C 58.72846603 173.63975525 58.24535370 173.03778076 59.74835205 174.20286560 C 61.24498749 175.80242920 62.52785873 177.10374451 63.03577042 178.98686218 C 63.70512390 181.57394409 63.82388306 181.27926636 64.13895416 183.72726440 C 63.49369812 185.19351196 61.15578461 183.60749817 59.37254715 182.89451599 C 57.43925858 182.29458618 56.63343811 182.36184692 53.66211700 183.15333557" stroke-width="1.77361774" fill="rgb(27, 4, 2)" opacity="1.0" stroke="rgb(0, 8, 0)" stroke-opacity="0.97581744" stroke-linecap="round" stroke-linejoin="round"/>
    <path d="M 151.06115723 220.23504639 C 151.29382324 219.97348022 151.86976624 219.68162537 152.76858521 219.32807922 C 153.47572327 219.09858704 154.17182922 218.75250244 154.94459534 218.39810181 C 155.61030579 218.08854675 156.26768494 217.76885986 157.21907043 217.70008850 C 158.00114441 217.91651917 158.53930664 218.01715088 158.80552673 218.86537170 C 158.38302612 219.93571472 157.91680908 220.13201904 157.18132019 220.55519104 C 156.06956482 221.02778625 156.30775452 220.93382263 155.36058044 221.41287231 C 154.66081238 221.78923035 154.15704346 222.13546753 153.80889893 222.97648621 C 153.58309937 223.49581909 152.82002258 223.67552185 151.97555542 223.77018738 C 151.21661377 223.76551819 150.36596680 223.37063599 150.20687866 222.60908508 C 150.04862976 221.89852905 150.38716125 221.18949890 151.06115723 220.23504639" stroke-width="0.18293062" fill="rgb(223, 245, 225)" opacity="1.0" stroke="rgb(255, 255, 255)" stroke-opacity="0.0" stroke-linecap="round" stroke-linejoin="round"/>
  </g>
</svg>
