<?xml version="1.0" ?>
<svg xmlns="http://www.w3.org/2000/svg" version="1.1" width="256" height="256" viewBox="0 0 256 256">
  <defs/>
  <g>
    <path d="M 261.67132568 218.06387329 C 262.28503418 260.27722168 241.38955688 262.93322754 199.57635498 258.19323730 C 162.72969055 257.63986206 137.65025330 257.15167236 93.73577881 256.62731934 C 49.89468384 254.09970093 17.20152283 262.60174561 -0.80100250 243.55325317 C -5.88130188 215.11192322 -0.24488831 179.51168823 -2.37939453 137.87304688 C -1.78846741 105.49130249 -7.38322449 68.44364929 -7.73059082 33.09066010 C -2.00367737 -2.50613403 18.34934998 -14.34220886 50.90850830 -4.81384277 C 86.42088318 -3.73757935 117.74296570 -6.24781799 155.21554565 -3.96948242 C 198.88192749 -0.49153137 232.54464722 -15.05273438 254.76344299 8.92399597 C 268.33721924 38.40429688 257.84118652 68.58236694 250.42831421 111.73769379 C 249.25039673 150.31340027 262.06137085 179.36962891 261.67132568 218.06387329" stroke-width="1.12707734" fill="rgb(247, 248, 237)" opacity="1.0" stroke="rgb(255, 255, 25)" stroke-opacity="0.3517247" stroke-linecap="round" stroke-linejoin="round"/>
    <path d="M 181.07617188 166.82485962 C 173.50207520 177.41247559 165.46728516 178.09387207 151.30657959 178.24278259 C 134.75032043 178.51342773 126.57288361 177.23521423 113.07214355 176.90678406 C 93.56623840 176.38235474 89.28717804 178.23995972 74.95878601 171.78883362 C 62.95951080 159.85644531 64.35384369 149.99803162 61.26822281 135.89518738 C 61.51234818 128.83935547 58.09458923 105.15289307 65.02082825 98.57304382 C 79.17367554 94.29592896 80.87567902 95.90481567 97.00630188 95.43410492 C 112.64434052 95.51310730 118.10535431 94.93652344 136.15071106 95.03948975 C 151.26029968 95.21900940 157.55592346 94.43681335 176.85073853 97.22912598 C 195.30891418 100.56985474 192.27371216 105.69458008 191.87713623 125.23251343 C 189.66244507 140.12649536 190.44609070 144.43389893 181.07617188 166.82485962" stroke-width="0.86006081" fill="rgb(11, 14, 14)" opacity="1.0" stroke="rgb(74, 50, 79)" stroke-opacity="0.5016254" stroke-linecap="round" stroke-linejoin="round"/>
    <path d="M 175.91662598 170.60635376 C 170.84455872 177.69454956 155.14836121 175.86230469 144.54733276 175.99888611 C 129.26867676 175.77275085 122.72810364 175.26208496 111.49259186 173.82937622 C 95.17207336 172.38287354 87.85676575 171.36441040 79.59047699 165.06860352 C 70.72619629 155.31015015 68.96543121 141.64889526 67.00006104 133.55181885 C 67.71827698 119.76492310 64.18150330 112.81610107 77.83319855 105.24578857 C 95.93347931 100.93461609 89.78205872 101.46026611 105.94841003 100.56708527 C 119.48653412 100.99163818 123.06474304 101.60366821 139.83381653 103.29704285 C 151.97340393 104.70390320 158.19537354 105.94871521 174.15219116 110.34083557 C 189.29331970 115.10223389 186.60566711 125.95497131 184.24775696 136.15524292 C 181.08966064 153.61038208 183.21426392 153.86474609 175.91662598 170.60635376" stroke-width="1.97961938" fill="rgb(115, 69, 54)" opacity="1.0" stroke="rgb(255, 162, 108)" stroke-opacity="0.54670626" stroke-linecap="round" stroke-linejoin="round"/>
    <path d="M 164.79316711 113.88284302 C 160.24179077 114.39729309 155.38487244 115.70829010 145.34507751 116.57029724 C 138.31243896 117.40103149 131.59431458 117.87754822 123.16474152 116.70124054 C 115.97631836 116.35382843 110.44790649 115.27348328 102.04325104 116.34605408 C 92.69430542 117.33330536 88.50141907 121.32669830 78.95616150 123.25086212 C 72.54447937 122.42175293 71.24273682 111.80438232 81.59142303 109.08124542 C 90.31154633 107.83000183 93.34828949 107.67929077 98.79818726 108.28796387 C 109.86688995 108.53620148 113.37724304 109.51420593 120.71117401 109.71498108 C 131.51942444 108.80078888 132.50035095 109.84573364 144.57644653 109.26309967 C 152.47317505 109.13444519 156.39439392 107.51674652 166.88172913 105.76668549 C 178.29464722 104.81419373 177.19683838 112.14320374 164.79316711 113.88284302" stroke-width="1.20577776" fill="rgb(207, 208, 206)" opacity="1.0" stroke="rgb(0, 126, 155)" stroke-opacity="0.22373159" stroke-linecap="round" stroke-linejoin="round"/>
    <path d="M 190.41333008 162.42675781 C 185.79960632 161.91362000 179.59805298 162.28274536 180.84523010 157.19369507 C 185.45407104 153.47662354 191.00001526 151.76184082 193.01280212 147.41725159 C 195.45718384 142.80628967 195.67294312 137.12846375 196.05073547 131.63215637 C 196.04676819 124.85323334 197.94723511 120.41191864 191.79658508 119.04411316 C 186.20938110 121.80152130 183.09989929 117.29695129 188.35975647 112.09685516 C 195.20130920 111.38897705 195.16647339 111.87088776 200.73847961 112.17513275 C 206.71659851 115.54187775 206.90304565 118.56965637 209.04473877 125.04021454 C 210.81842041 130.47257996 210.16114807 134.27693176 210.34051514 140.50627136 C 209.22756958 147.14726257 208.69239807 148.27761841 203.34317017 154.29568481 C 200.49288940 157.87542725 197.17407227 161.67457581 190.41333008 162.42675781" stroke-width="0.84505635" fill="rgb(5, 7, 11)" opacity="1.0" stroke="rgb(87, 84, 56)" stroke-opacity="0.8322583" stroke-linecap="round" stroke-linejoin="round"/>
    <path d="M 192.55155945 155.06582642 C 190.76281738 155.34213257 188.00137329 156.62554932 193.00852966 153.52615356 C 196.13540649 151.48962402 197.75830078 148.27746582 198.35778809 144.80528259 C 199.58447266 140.60154724 199.88049316 138.62541199 199.87442017 134.43473816 C 199.76358032 130.38166809 200.06584167 128.55825806 198.21958923 125.09789276 C 196.86650085 121.80181122 192.00669861 119.42420197 194.94299316 118.44055939 C 198.01919556 118.82689667 199.79364014 118.76952362 202.17842102 119.35526276 C 203.43914795 123.99787140 202.82228088 123.21321106 203.41236877 129.62139893 C 204.09463501 134.79588318 203.62507629 136.76252747 203.29188538 140.25653076 C 202.76342773 144.29748535 201.66267395 146.07188416 199.36531067 149.03160095 C 197.70388794 152.30485535 194.63710022 152.35192871 192.55155945 155.06582642" stroke-width="0.99131960" fill="rgb(239, 252, 251)" opacity="1.0" stroke="rgb(128, 207, 255)" stroke-opacity="0.42861947" stroke-linecap="round" stroke-linejoin="round"/>
    <path d="M 101.10026550 72.59660339 C 100.94564056 73.83143616 100.54370880 76.28831482 100.78973389 78.57945251 C 101.26783752 80.64926910 101.42929077 83.58403778 99.46627045 83.50531769 C 98.45356750 80.82997131 98.79355621 79.29071045 98.22857666 77.09530640 C 97.92884064 74.58086395 97.39174652 72.78599548 98.28379822 70.73346710 C 99.77067566 68.40817261 99.79571533 67.55847931 101.00838470 65.15936279 C 102.06365967 61.72779846 102.40188599 62.14884186 102.11601257 59.94036484 C 101.40863800 57.13269424 99.98135376 54.95873642 101.72628784 54.07645416 C 103.11595917 54.34002686 102.29056549 56.92929459 103.19915771 59.24961472 C 103.79382324 61.74723053 103.99821472 62.88818741 103.33111572 65.63573456 C 102.50716400 67.92005920 101.60052490 68.79071045 101.10026550 72.59660339" stroke-width="0.00000000" fill="rgb(255, 252, 246)" opacity="1.0" stroke="rgb(255, 255, 255)" stroke-opacity="0.0" stroke-linecap="round" stroke-linejoin="round"/>
    <path d="M 130.63273621 75.20135498 C 129.59660339 78.53603363 129.31684875 78.90948486 128.92861938 82.99143219 C 128.74072266 85.42613983 130.02603149 89.94694519 128.16572571 89.71915436 C 127.52038574 86.73829651 126.98828125 83.97329712 126.39502716 81.51208496 C 125.40879822 78.08476257 126.73719788 76.88911438 128.35466003 74.50376892 C 130.02607727 71.68624115 129.88682556 69.24048615 131.29046631 66.59575653 C 132.16989136 61.75287628 132.32128906 62.62155533 132.21971130 59.58623123 C 131.71012878 56.73103333 129.55291748 52.47895813 131.02281189 51.66082001 C 131.55104065 54.19969177 131.50622559 56.65765381 132.84237671 58.94924164 C 133.83140564 62.05080414 134.07946777 63.85299301 133.80801392 66.57654572 C 132.88648987 69.21717072 131.35145569 71.94889832 130.63273621 75.20135498" stroke-width="0.14833102" fill="rgb(255, 34, 26)" opacity="1.0" stroke="rgb(244, 178, 178)" stroke-opacity="0.22295037" stroke-linecap="round" stroke-linejoin="round"/>
    <path d="M 155.12351990 70.04605103 C 154.27275085 72.13797760 154.06463623 73.05945587 154.69842529 76.46923065 C 155.38999939 78.51361084 156.95475769 81.04746246 156.63186646 83.62711334 C 155.06431580 81.89675903 154.96913147 79.61871338 154.16941833 77.53980255 C 153.17352295 73.77693176 153.93127441 73.19464111 154.70166016 70.93675995 C 155.90495300 68.09533691 156.18362427 65.65277863 157.28334045 63.88957977 C 158.75816345 59.73636246 158.31921387 60.54460144 159.01873779 57.62053299 C 159.12767029 54.30432892 157.90902710 52.44475555 159.35928345 50.63189316 C 160.26423645 52.58718872 159.46932983 54.40523529 160.46258545 57.13200378 C 160.99241638 60.38314819 161.02246094 62.18863678 159.92189026 63.62075806 C 158.05792236 66.11275482 156.56721497 66.62283325 155.12351990 70.04605103" stroke-width="0.00000000" fill="rgb(109, 80, 93)" opacity="1.0" stroke="rgb(255, 251, 255)" stroke-opacity="0.0" stroke-linecap="round" stroke-linejoin="round"/>
    <path d="M 192.67590332 178.21939087 C 184.27131653 178.13470459 176.13644409 175.99955750 161.77514648 179.23320007 C 153.43351746 182.20150757 146.12040710 186.43844604 132.38146973 184.91900635 C 121.68833923 184.82501221 113.84429932 184.38226318 100.63189697 182.56820679 C 87.62156677 179.56997681 80.97155762 180.38862610 71.64383698 180.75433350 C 52.18190002 183.31690979 53.25572968 174.02947998 62.93518066 174.34693909 C 83.12957764 174.07185364 81.21536255 175.07771301 92.65560913 174.31695557 C 107.45157623 176.67945862 111.49786377 177.23725891 124.87393188 177.14796448 C 139.00942993 178.85472107 141.44894409 180.09600830 155.05111694 176.20024109 C 168.29344177 175.93791199 177.43669128 175.20407104 188.08380127 176.17118835 C 202.56375122 176.39146423 209.84237671 177.70701599 192.67590332 178.21939087" stroke-width="0.36876813" fill="rgb(35, 20, 17)" opacity="1.0" stroke="rgb(105, 66, 76)" stroke-opacity="0.7505561" stroke-linecap="round" stroke-linejoin="round"/>
    <path d="M 84.84532166 175.32301331 C 87.07075500 177.05126953 93.99986267 180.47029114 86.34375000 184.51884460 C 80.13820648 185.94902039 76.57964325 184.65028381 70.33323669 185.24072266 C 63.94292450 185.09609985 61.81366348 186.85362244 61.89128494 192.48294067 C 58.89020920 196.83573914 55.80438232 191.49522400 52.90311050 187.36709595 C 48.15276337 183.45152283 46.04270172 179.69053650 42.32500076 177.59564209 C 36.16945648 175.19880676 31.78088760 175.15080261 34.03928757 175.23373413 C 39.86088562 175.62319946 41.18504333 175.57321167 46.57150269 170.56306458 C 49.84197998 166.59594727 51.83344269 165.64468384 56.70045471 172.38133240 C 61.48888779 176.18344116 62.86156845 175.53102112 70.01052856 173.92988586 C 76.17153931 171.95001221 77.41767883 172.11485291 84.84532166 175.32301331" stroke-width="0.94786739" fill="rgb(59, 67, 57)" opacity="1.0" stroke="rgb(0, 69, 0)" stroke-opacity="0.1685609" stroke-linecap="round" stroke-linejoin="round"/>
    <path d="M 129.37501526 75.34994507 C 127.51076508 79.56163025 126.68148041 83.45818329 128.20759583 87.68809509 C 131.32260132 93.83668518 130.43832397 91.36511993 125.29867554 91.85569763 C 121.44493103 90.66636658 124.71928406 85.85878754 124.61930847 81.95972443 C 124.77877045 77.95217896 126.01475525 73.81699371 128.97741699 69.76171875 C 131.86668396 66.26339722 129.75306702 63.76675034 128.27143860 58.97595978 C 126.50084686 52.36205673 126.87441254 53.35536194 125.66123199 49.41450882 C 125.19302368 43.52541733 124.73773193 36.92472076 126.93782806 43.34781647 C 127.74231720 47.40731049 128.86747742 50.52941132 131.70413208 54.94372940 C 133.01289368 57.95402527 136.56457520 62.62312317 137.51200867 66.38022614 C 138.10835266 70.35992432 132.66778564 70.03006744 129.37501526 75.34994507" stroke-width="0.85894984" fill="rgb(26, 6, 10)" opacity="1.0" stroke="rgb(64, 27, 32)" stroke-opacity="0.49227285" stroke-linecap="round" stroke-linejoin="round"/>
    <path d="M 204.08604431 185.60076904 C 201.10144043 185.90658569 199.33782959 184.62843323 196.08714294 181.99768066 C 194.18490601 180.43363953 191.16935730 180.82708740 188.10720825 182.18362427 C 183.36822510 183.48268127 183.06613159 183.10974121 178.47714233 183.12236023 C 176.04910278 183.22760010 171.78015137 182.60923767 168.58261108 181.29910278 C 164.94111633 179.38435364 168.65989685 177.70220947 172.87413025 177.57598877 C 176.05259705 176.71951294 178.23695374 177.07534790 179.85311890 175.07368469 C 183.97846985 172.60884094 184.39012146 172.62731934 188.61398315 172.08282471 C 192.92851257 171.96366882 194.34281921 172.92442322 197.05714417 174.69248962 C 199.69114685 176.34765625 202.71339417 178.18156433 204.78131104 179.99452209 C 207.99493408 182.53149414 209.65127563 186.00337219 204.08604431 185.60076904" stroke-width="0.86785913" fill="rgb(16, 9, 8)" opacity="1.0" stroke="rgb(64, 62, 54)" stroke-opacity="0.66686344" stroke-linecap="round" stroke-linejoin="round"/>
    <path d="M 101.20470428 75.21539307 C 98.89074707 76.62703705 95.20587921 78.25762939 91.86607361 79.02084351 C 87.95398712 80.76838684 85.53376770 80.49710083 88.69221497 75.15347290 C 91.00659943 70.83760834 92.96584320 69.06224823 94.93210602 66.31009674 C 98.31830597 63.24014282 99.23542786 63.51102829 101.19249725 60.56800079 C 102.26721954 56.49647141 97.08312225 52.96931839 94.59407043 51.20250702 C 90.37660217 47.66097260 88.33694458 48.85210800 86.33578491 45.64398575 C 87.20028687 44.38118362 92.31068420 47.17132568 95.69149780 49.05409241 C 100.13565826 52.24319839 100.84143066 51.67250443 103.99954224 56.25161362 C 106.89748383 60.66100693 107.87657928 61.42996979 107.28617859 65.98302460 C 105.91886902 69.92227173 105.15853119 71.70865631 101.20470428 75.21539307" stroke-width="0.94009805" fill="rgb(74, 27, 20)" opacity="1.0" stroke="rgb(135, 105, 72)" stroke-opacity="0.63103896" stroke-linecap="round" stroke-linejoin="round"/>
    <path d="M 209.67329407 195.79782104 C 210.50886536 197.70124817 210.42454529 197.96725464 210.68586731 200.32231140 C 210.31896973 202.67974854 210.30136108 202.79231262 208.79296875 204.64077759 C 207.45652771 206.07649231 206.74720764 206.64726257 204.66508484 207.80644226 C 203.39501953 208.49652100 201.84115601 209.72769165 199.90515137 209.20635986 C 198.88352966 208.53736877 198.08943176 206.92015076 197.66467285 204.81480408 C 197.42079163 203.19236755 196.79678345 202.27929688 196.72973633 200.53282166 C 196.91352844 198.39199829 196.74314880 197.48094177 197.52787781 195.90213013 C 198.83598328 194.40078735 199.98704529 193.36193848 201.40382385 192.43682861 C 203.30235291 191.48406982 204.39118958 190.85263062 206.22473145 191.61332703 C 207.69802856 192.42070007 209.06565857 194.40809631 209.67329407 195.79782104" stroke-width="0.20281710" fill="rgb(227, 226, 219)" opacity="1.0" stroke="rgb(232, 223, 255)" stroke-opacity="0.0812574" stroke-linecap="round" stroke-linejoin="round"/>
    <path d="M 154.16587830 73.09975433 C 155.12489319 76.79210663 156.91452026 79.91377258 158.65640259 84.44655609 C 160.29426575 88.42273712 161.23158264 92.34417725 160.66204834 97.98427582 C 158.81417847 99.61782074 158.42468262 91.66926575 157.59887695 88.10585785 C 156.77542114 82.36987305 156.59301758 80.81158447 153.05450439 75.45429230 C 150.38648987 70.15097046 151.57392883 69.00989532 155.39179993 64.22299957 C 159.01402283 59.50957489 161.57765198 59.27394485 159.96046448 55.79196930 C 157.38568115 50.15229034 151.58113098 48.48651886 151.56555176 44.90953827 C 152.74803162 44.93030930 156.22152710 49.93089294 159.71678162 52.13949203 C 164.64582825 54.93962860 167.05749512 58.42215347 162.38119507 61.20364380 C 158.21092224 66.11732483 153.88914490 67.07200623 154.16587830 73.09975433" stroke-width="0.71634567" fill="rgb(11, 4, 11)" opacity="1.0" stroke="rgb(22, 0, 0)" stroke-opacity="0.28575376" stroke-linecap="round" stroke-linejoin="round"/>
    <path d="M 166.77531433 178.93357849 C 168.68043518 180.35183716 168.16166687 180.92164612 165.44055176 183.00614929 C 163.54714966 185.03602600 163.18132019 186.31765747 164.84906006 188.56945801 C 167.24189758 190.68515015 167.54948425 190.08245850 170.44317627 191.24919128 C 171.88883972 192.00643921 173.98265076 191.10839844 175.32415771 192.76568604 C 173.79490662 193.68373108 170.92259216 193.95852661 169.51600647 194.31369019 C 165.66156006 194.63043213 166.87139893 194.53451538 163.82124329 194.99786377 C 160.77590942 194.99409485 160.37649536 194.03341675 160.41571045 191.05067444 C 160.44036865 188.59791565 161.59332275 187.37654114 161.51210022 185.52507019 C 161.05480957 182.55943298 161.48793030 182.35307312 162.48991394 179.75572205 C 163.15014648 176.58239746 165.11489868 177.32211304 166.77531433 178.93357849" stroke-width="0.65658903" fill="rgb(0, 3, 0)" opacity="1.0" stroke="rgb(0, 33, 24)" stroke-opacity="0.65555423" stroke-linecap="round" stroke-linejoin="round"/>
    <path d="M 112.82091522 189.92979431 C 112.45258331 191.35502625 109.76057434 192.31083679 107.37509155 192.52883911 C 104.69925690 193.02273560 103.06257629 193.43176270 100.60306549 194.06309509 C 97.77153015 194.09138489 96.46488953 194.60214233 94.33169556 195.84747314 C 91.65866089 196.95803833 90.63104248 197.44026184 88.70321655 197.74252319 C 87.25547028 197.87200928 82.87199402 199.73910522 82.71173096 198.12133789 C 85.05171967 196.08561707 85.66033936 196.96913147 87.56706238 195.57456970 C 90.61220551 193.20288086 89.36276245 193.52133179 93.12065125 190.85430908 C 95.18465424 188.98376465 96.58438873 188.31478882 99.16614532 189.02178955 C 101.13171387 188.95933533 103.16651154 189.18405151 105.89047241 189.48922729 C 107.69738007 189.68255615 110.70231628 190.46334839 112.82091522 189.92979431" stroke-width="0.41726795" fill="rgb(17, 26, 8)" opacity="1.0" stroke="rgb(96, 131, 57)" stroke-opacity="0.58398974" stroke-linecap="round" stroke-linejoin="round"/>
    <path d="M 75.95304871 143.41296387 C 76.30319214 147.47003174 76.29143524 148.06393433 77.07785034 152.69932556 C 77.95162201 156.74974060 78.14724731 160.56065369 75.04722595 158.61805725 C 73.70424652 153.80743408 74.39251709 152.27389526 73.78800964 148.18196106 C 73.59152985 144.99368286 73.61047363 142.52113342 73.41689301 138.77232361 C 73.30778503 135.30163574 73.01438904 132.29191589 72.80738068 128.57299805 C 72.77005005 123.41613770 72.69367981 123.95446777 72.66417694 120.31903076 C 72.33834839 115.98091888 72.27278137 114.04290771 77.22100830 115.34642029 C 78.59696960 119.00358582 76.77281952 121.65281677 76.80924225 124.47151947 C 76.40738678 128.47030640 76.47527313 131.50833130 76.24359131 133.78468323 C 75.88049316 137.20330811 75.61273956 139.89855957 75.95304871 143.41296387" stroke-width="0.73426825" fill="rgb(254, 255, 254)" opacity="1.0" stroke="rgb(255, 249, 249)" stroke-opacity="0.6183448" stroke-linecap="round" stroke-linejoin="round"/>
    <path d="M 124.05056763 86.71342468 C 124.66436768 86.59225464 125.66170502 87.04582977 127.02832031 86.51422119 C 127.75637054 86.22534180 128.85160828 84.21240234 129.51173401 85.04025269 C 129.93394470 86.74423218 129.97863770 86.55046082 131.24331665 87.95467377 C 131.77609253 88.80246735 132.78176880 89.83259583 133.52491760 90.52071381 C 133.69277954 91.68521881 132.19593811 92.41608429 131.61184692 92.45114136 C 129.30480957 92.57501221 129.93554688 92.61714172 128.65773010 92.54897308 C 127.19720459 92.57040405 126.84515381 92.68623352 125.34004974 92.44252777 C 123.82482910 92.01031494 123.61034393 92.51892090 122.54017639 91.85426331 C 121.77497101 91.24884796 121.92835236 90.13656616 122.17594910 88.94627380 C 122.50613403 87.71489716 122.40643311 87.06335449 124.05056763 86.71342468" stroke-width="0.00000000" fill="rgb(235, 230, 147)" opacity="1.0" stroke="rgb(255, 255, 255)" stroke-opacity="0.22916609" stroke-linecap="round" stroke-linejoin="round"/>
    <path d="M 165.26904297 108.97935486 C 166.69218445 108.69726562 167.13369751 108.47300720 168.96545410 108.03342438 C 170.74662781 107.69728088 170.96459961 107.61685944 172.97268677 107.36257172 C 174.35076904 107.09560394 175.21012878 107.11090088 176.89720154 107.01163483 C 178.25805664 106.96805573 179.79237366 106.61687469 180.71919250 108.24492645 C 181.25013733 108.98369598 181.23744202 110.99937439 179.31294250 111.54158020 C 177.84945679 111.82835388 177.60101318 111.97613525 175.95962524 112.26077271 C 174.41471863 112.52210999 173.95484924 112.48045349 172.03128052 112.87149811 C 170.88148499 113.07215881 169.35447693 113.32304382 167.75814819 113.43779755 C 166.63452148 113.33332062 165.33999634 113.53894043 164.00253296 112.28141785 C 163.24615479 110.68482971 163.59001160 109.88710022 165.26904297 108.97935486" stroke-width="2.00000000" fill="rgb(152, 112, 24)" opacity="1.0" stroke="rgb(0, 0, 0)" stroke-opacity="1.0" stroke-linecap="round" stroke-linejoin="round"/>
    <path d="M 153.87747192 99.81865692 C 154.04956055 99.78636932 155.44735718 99.68766785 156.69367981 99.60025024 C 157.91467285 99.72159576 158.93389893 99.37572479 159.88763428 100.08237457 C 160.97311401 100.65025330 161.88519287 101.23107910 162.65701294 101.79906464 C 163.98634338 102.75249481 164.63945007 103.16300201 165.29069519 103.96743774 C 165.86082458 105.40816498 164.15989685 105.50995636 162.83358765 105.66383362 C 161.74960327 105.73807526 161.28149414 105.98648834 160.07864380 105.83653259 C 158.72779846 105.74292755 158.24504089 105.44572449 156.94941711 104.83537292 C 156.09452820 104.51964569 155.18084717 104.04467010 153.82099915 103.46477509 C 153.00651550 103.07927704 152.09803772 102.63748169 151.27761841 101.33694458 C 150.87290955 100.13748169 151.80895996 100.04161072 153.87747192 99.81865692" stroke-width="2.00000000" fill="rgb(243, 245, 248)" opacity="1.0" stroke="rgb(0, 0, 18)" stroke-opacity="1.0" stroke-linecap="round" stroke-linejoin="round"/>
    <path d="M 130.80192566 102.30239868 C 132.87174988 102.50138092 133.55818176 102.29047394 135.93702698 102.18334198 C 138.14823914 101.88072968 139.39358521 101.93841553 141.32005310 101.93952179 C 143.41517639 101.74600220 144.69746399 101.32487488 146.57537842 101.76186371 C 148.06646729 101.99600220 150.52963257 101.74286652 151.12107849 103.62245941 C 149.04864502 105.05541229 147.43745422 104.29579926 145.51007080 104.39602661 C 143.10302734 104.29682922 142.79945374 104.30004883 140.83026123 104.47707367 C 138.22302246 104.46190643 138.15945435 104.37162018 135.10131836 104.33252716 C 133.26948547 104.41923523 131.76721191 104.18074036 129.76541138 104.63434601 C 128.43295288 104.53443909 125.75889587 104.59893799 125.12981415 102.98715210 C 126.65629578 101.66560364 129.37734985 102.28057098 130.80192566 102.30239868" stroke-width="2.00000000" fill="rgb(164, 90, 39)" opacity="1.0" stroke="rgb(0, 0, 0)" stroke-opacity="1.0" stroke-linecap="round" stroke-linejoin="round"/>
    <path d="M 57.03307724 162.08306885 C 56.00742722 162.45799255 55.93631744 162.46545410 54.60864258 162.87080383 C 53.93345642 162.90997314 52.64205170 163.55278015 52.54995346 162.62487793 C 52.69237518 161.44706726 52.90633011 161.19563293 53.22877502 160.04988098 C 53.68811798 158.81253052 53.84149551 158.85173035 54.35944748 157.62789917 C 55.09186554 156.45195007 54.99363327 156.47505188 55.99670792 155.57565308 C 57.19025803 154.71401978 56.90207672 154.88153076 57.75959778 154.22994995 C 58.61602783 153.83909607 58.40299988 154.53456116 58.93630981 155.78855896 C 59.16613388 156.54116821 59.34679794 156.85791016 59.62503815 157.94364929 C 59.79026794 159.06088257 59.80584717 159.83648682 59.51938248 160.41084290 C 58.87849426 161.20083618 57.81870270 161.63052368 57.03307724 162.08306885" stroke-width="0.67682797" fill="rgb(0, 2, 1)" opacity="1.0" stroke="rgb(42, 120, 91)" stroke-opacity="0.5956159" stroke-linecap="round" stroke-linejoin="round"/>
    <path d="M 124.20878601 195.81045532 C 123.26705170 196.11482239 123.11486053 196.08166504 121.99883270 196.13522339 C 120.96282959 196.01327515 120.67047882 196.09039307 119.66135406 195.59559631 C 118.97029877 195.17701721 118.56309509 194.86123657 117.86684418 193.83631897 C 117.58229828 193.30857849 117.06301880 192.50706482 117.25939941 191.52716064 C 117.49255371 190.91151428 118.23244476 190.61097717 119.39807892 190.70195007 C 120.59473419 190.80119324 120.24684906 190.65916443 121.43524933 190.84848022 C 122.01810455 190.92883301 122.83377075 190.95610046 123.72360229 190.88645935 C 124.68497467 191.54504395 124.82819366 191.45196533 125.88084412 192.32911682 C 126.26848602 192.88526917 126.78124237 193.24967957 126.43178558 194.21864319 C 125.59509277 195.13946533 125.06994629 195.40455627 124.20878601 195.81045532" stroke-width="0.73772764" fill="rgb(4, 13, 2)" opacity="1.0" stroke="rgb(95, 125, 50)" stroke-opacity="0.54174185" stroke-linecap="round" stroke-linejoin="round"/>
    <path d="M 123.18439484 211.44358826 C 123.14160919 210.61805725 123.24873352 210.34434509 123.57770538 209.55299377 C 124.09624481 208.53747559 124.17731476 208.54690552 124.85265350 207.98828125 C 125.88922882 207.41313171 125.86526489 207.44081116 127.01125336 207.16523743 C 127.85860443 207.19525146 128.24134827 206.90263367 129.05130005 207.43415833 C 129.48106384 208.40162659 129.39959717 208.45193481 129.48168945 209.51736450 C 129.36909485 210.72906494 129.46347046 210.33972168 129.23130798 211.38890076 C 129.00167847 211.90437317 128.94874573 212.45321655 128.25680542 213.02957153 C 127.36476898 213.25964355 127.27973938 213.39419556 126.15430450 213.60423279 C 125.57054138 213.59974670 124.93009186 213.67468262 124.06721497 213.49845886 C 123.38021088 212.73976135 123.42244720 212.42561340 123.18439484 211.44358826" stroke-width="0.87871248" fill="rgb(1, 5, 2)" opacity="1.0" stroke="rgb(67, 83, 70)" stroke-opacity="0.69731915" stroke-linecap="round" stroke-linejoin="round"/>
    <path d="M 52.29012680 92.40222931 C 52.41254425 92.12855530 52.76653671 91.40267944 53.16902542 90.85890961 C 53.60123062 90.42585754 54.05962372 89.86814117 54.77550888 89.91356659 C 55.63515854 90.14597321 55.98319244 90.55059052 56.30050659 91.08432007 C 56.90373230 92.19467926 56.77640915 92.12159729 57.02634430 93.15241241 C 57.15316010 94.37564850 57.19794464 94.20190430 56.97150040 95.32215118 C 56.43922043 96.39588928 56.62722778 96.17031860 56.11664581 96.84115601 C 55.71331406 97.40762329 54.95704651 98.06225586 54.47808456 97.92508698 C 53.72184753 97.67536926 53.32720947 97.18502045 52.91973114 96.60530853 C 52.59590149 96.14499664 52.12145615 95.37899780 52.04535675 94.74327850 C 51.88497543 94.03926086 52.03078079 93.62189484 52.29012680 92.40222931" stroke-width="0.76109648" fill="rgb(0, 7, 99)" opacity="1.0" stroke="rgb(1, 77, 159)" stroke-opacity="0.68424803" stroke-linecap="round" stroke-linejoin="round"/>
    <path d="M 45.19499969 140.38414001 C 45.56420135 139.81391907 45.68901443 139.52792358 46.21708679 138.83206177 C 46.64529419 138.33537292 47.00035095 137.44712830 47.68848801 137.72033691 C 48.44643784 138.10652161 48.65677261 138.08035278 49.23794556 139.00949097 C 49.47595978 139.59732056 49.56654358 140.11701965 49.82024384 140.94148254 C 49.91896057 141.54804993 50.28234100 142.17462158 50.28435516 143.04241943 C 50.12423325 143.79168701 50.10251236 143.90571594 49.82972336 144.60314941 C 49.74896622 145.56825256 48.83370590 144.90122986 48.29229736 144.68301392 C 47.42647934 144.28204346 47.03097153 144.12319946 46.45303726 143.75668335 C 45.93836212 143.46809387 45.30086899 142.93231201 44.88827896 142.41938782 C 44.49621201 141.76615906 44.97756195 141.21453857 45.19499969 140.38414001" stroke-width="0.73381168" fill="rgb(2, 71, 54)" opacity="1.0" stroke="rgb(25, 143, 127)" stroke-opacity="0.5363711" stroke-linecap="round" stroke-linejoin="round"/>
    <path d="M 53.03470230 183.11732483 C 51.45517731 182.87803650 51.32497025 182.86763000 49.74962616 181.81201172 C 48.69298935 179.87557983 48.91109467 179.13169861 47.51707840 178.22480774 C 45.87863541 176.99488831 47.13269043 175.21435547 47.69758224 174.40045166 C 49.21244049 172.90995789 49.72534561 172.67898560 51.29765320 172.48291016 C 52.62922668 171.54379272 53.98757172 171.17735291 55.37128448 171.55029297 C 57.79187775 172.64865112 57.32347870 172.38171387 58.37480545 173.35363770 C 59.45166016 174.25871277 60.78554916 175.59808350 60.97449112 176.83412170 C 60.90684509 178.79527283 60.66747665 179.55278015 60.24488831 180.83654785 C 59.74148560 182.27598572 58.16134644 182.34860229 56.93025970 181.81184387 C 55.49126816 181.85711670 54.96654510 182.87272644 53.03470230 183.11732483" stroke-width="2.00000000" fill="rgb(34, 1, 5)" opacity="1.0" stroke="rgb(0, 0, 0)" stroke-opacity="0.98489136" stroke-linecap="round" stroke-linejoin="round"/>
    <path d="M 150.76679993 220.60290527 C 151.40702820 220.05937195 151.44549561 220.14579773 152.47608948 219.50465393 C 153.01960754 219.27806091 153.54319763 218.88505554 154.40168762 218.54261780 C 155.05944824 218.33172607 155.48020935 218.19508362 156.58869934 217.97053528 C 157.06033325 218.00662231 157.95014954 217.90687561 158.29815674 218.58146667 C 157.86410522 219.56021118 157.50752258 219.74223328 156.84281921 220.28660583 C 155.90332031 221.01042175 156.16137695 220.81834412 155.37677002 221.48068237 C 154.80241394 221.94633484 154.57327271 222.32376099 154.04493713 222.97679138 C 153.47015381 223.21217346 152.88943481 223.19311523 151.82028198 223.25775146 C 151.27691650 223.21968079 150.42692566 223.18548584 149.87481689 222.55891418 C 149.66920471 221.75819397 149.90040588 221.63908386 150.76679993 220.60290527" stroke-width="0.00000000" fill="rgb(226, 241, 225)" opacity="1.0" stroke="rgb(255, 255, 255)" stroke-opacity="0.0" stroke-linecap="round" stroke-linejoin="round"/>
  </g>
</svg>
