<?xml version="1.0" ?>
<svg xmlns="http://www.w3.org/2000/svg" version="1.1" width="512" height="512" viewBox="0 0 512 512">
  <defs/>
  <g>
    <path d="M 350.65856934 443.47119141 C 350.40518188 446.12048340 347.81909180 447.48153687 343.50872803 448.14144897 C 339.19836426 448.80139160 333.16369629 448.76022339 326.01318359 448.60510254 C 318.86264038 448.45001221 310.59625244 448.18090820 301.82235718 448.38504028 C 295.20114136 448.22207642 289.34176636 448.16473389 283.50152588 448.16070557 C 277.66125488 448.15667725 271.84011841 448.20599365 265.29528809 448.25634766 C 258.75048828 448.30670166 251.48199463 448.35809326 242.74708557 448.35824585 C 237.52091980 448.58877563 231.78012085 448.68655396 225.63911438 448.70135498 C 219.49810791 448.71612549 212.95692444 448.64788818 206.12997437 448.54641724 C 199.30302429 448.44494629 192.19033813 448.31024170 184.90632629 448.19201660 C 176.23634338 448.97973633 169.29266357 448.87576294 164.03294373 447.45510864 C 158.77322388 446.03448486 155.19747925 443.29718018 153.26338196 438.81829834 C 151.32929993 434.33941650 151.03686523 428.11895752 152.34379578 419.73193359 C 152.38589478 413.01275635 152.15716553 406.37094116 152.15649414 399.90524292 C 152.15583801 393.43951416 152.38323975 387.14990234 153.33760071 381.13510132 C 154.29196167 375.12030029 155.97326660 369.38031006 158.88041687 364.01385498 C 164.00564575 359.33322144 168.48362732 355.85278320 172.86595154 353.38296509 C 177.24829102 350.91314697 181.53497314 349.45397949 186.27763367 348.81585693 C 191.02027893 348.17776489 196.21890259 348.36077881 202.42509460 349.17529297 C 210.69219971 349.34585571 217.87162781 349.42324829 224.44314575 349.42498779 C 231.01467896 349.42675781 236.97830200 349.35287476 242.81379700 349.22091675 C 248.64930725 349.08895874 254.35668945 348.89892578 260.41571045 348.66833496 C 267.56451416 348.65878296 274.72387695 348.71875000 281.62646484 348.80224609 C 288.52905273 348.88574219 295.17486572 348.99276733 301.29653931 349.07730103 C 307.41821289 349.16183472 313.01577759 349.22387695 317.82183838 349.21746826 C 326.65725708 349.66995239 334.31228638 350.33837891 340.39913940 351.96759033 C 346.48596191 353.59680176 351.00463867 356.18679810 353.56732178 360.48236084 C 356.13000488 364.77795410 356.73669434 370.77911377 354.99957275 379.23071289 C 354.34033203 385.68063354 354.29248047 391.27325439 354.30358887 397.09518433 C 354.31469727 402.91711426 354.38476562 408.96835327 353.96139526 416.33547974 C 353.53802490 423.70263672 352.62121582 432.38568115 350.65856934 443.47119141" stroke-width="0.83177620" fill="rgb(10, 6, 13)" opacity="1.0" stroke="rgb(37, 44, 44)" stroke-opacity="1.0" stroke-linecap="round" stroke-linejoin="round"/>
    <path d="M 341.67324829 433.56600952 C 338.05633545 433.78842163 334.21166992 433.35723877 329.72857666 432.72302246 C 325.24551392 432.08880615 320.12402344 431.25161743 313.95346069 430.66204834 C 307.78289795 430.07247925 300.56323242 429.73052979 291.88378906 430.08685303 C 285.93176270 430.22094727 280.18899536 430.35534668 274.29010010 430.43127441 C 268.39123535 430.50720215 262.33621216 430.52465820 255.75970459 430.42489624 C 249.18318176 430.32513428 242.08517456 430.10815430 234.10029602 429.71520996 C 227.71644592 430.21710205 222.18257141 430.94296265 216.75460815 431.92257690 C 211.32662964 432.90219116 206.00457764 434.13555908 200.04434204 435.65252686 C 194.08410645 437.16946411 187.48570251 438.96997070 179.50506592 441.08386230 C 170.33879089 443.13665771 164.23065186 445.25039673 160.19348145 446.00128174 C 156.15631104 446.75213623 154.19013977 446.14016724 153.30778503 442.74157715 C 152.42541504 439.34298706 152.62689209 433.15777588 152.92503357 422.76214600 C 152.77923584 419.32672119 152.41696167 413.42730713 152.02941895 406.62506104 C 151.64189148 399.82281494 151.22911072 392.11770630 150.98229980 385.07086182 C 150.73550415 378.02401733 150.65466309 371.63543701 150.93104553 367.46618652 C 153.74848938 362.05941772 157.01983643 359.14044189 160.73477173 357.77191162 C 164.44970703 356.40338135 168.60820007 356.58529663 173.19995117 357.38031006 C 177.79170227 358.17529297 182.81668091 359.58340454 188.26458740 360.66726685 C 194.75958252 360.54309082 200.89924622 360.70999146 206.95147705 361.03073120 C 213.00369263 361.35144043 218.96849060 361.82595825 225.11376953 362.31695557 C 231.25904846 362.80792236 237.58480835 363.31542969 244.35894775 363.70205688 C 249.93147278 363.45104980 255.90249634 363.15447998 262.15829468 362.81530762 C 268.41409302 362.47610474 274.95468140 362.09426880 281.66632080 361.67266846 C 288.37799072 361.25103760 295.26074219 360.78967285 302.20086670 360.29144287 C 311.53808594 359.81948853 319.16699219 359.61502075 325.23049927 360.36618042 C 331.29400635 361.11737061 335.79205322 362.82418823 338.86752319 366.17486572 C 341.94302368 369.52554321 343.59594727 374.52008057 343.96917725 381.84667969 C 344.00738525 390.19146729 345.01367188 397.89141846 345.92218018 404.72531128 C 346.83068848 411.55920410 347.64147949 417.52700806 347.28860474 422.40753174 C 346.93572998 427.28805542 345.41925049 431.08129883 341.67324829 433.56600952" stroke-width="1.59392202" fill="rgb(176, 73, 0)" opacity="1.0" stroke="rgb(8, 2, 4)" stroke-opacity="1.0" stroke-linecap="round" stroke-linejoin="round"/>
    <path d="M 318.34777832 444.85128784 C 313.91708374 444.70837402 309.91067505 444.71685791 304.59579468 444.79388428 C 299.28091431 444.87091064 292.65759277 445.01647949 282.99304199 445.14776611 C 275.94854736 444.82507324 269.18176270 444.88876343 262.37838745 444.95941162 C 255.57501221 445.03009033 248.73503113 445.10772705 241.54412842 444.81298828 C 231.42843628 444.54479980 225.20184326 444.77706909 219.17253113 444.94558716 C 213.14323425 445.11410522 207.31123352 445.21890259 197.98475647 444.69577026 C 190.59890747 444.25460815 184.06549072 445.27972412 177.40002441 445.32739258 C 170.73454285 445.37506104 163.93699646 444.44525146 156.02290344 440.09423828 C 153.46362305 431.32888794 153.88606262 427.53649902 157.70948792 426.14932251 C 161.53292847 424.76217651 168.75735474 425.78027344 179.80209351 426.63589478 C 188.39416504 427.29580688 194.07650757 427.65280151 198.94297791 427.87274170 C 203.80944824 428.09265137 207.86003113 428.17550659 213.18856812 428.28710938 C 221.90478516 428.24740601 229.14015198 428.37847900 235.80186462 428.38580322 C 242.46357727 428.39312744 248.55163574 428.27667236 254.97329712 427.74191284 C 263.47827148 426.28344727 270.17504883 426.04348755 276.85205078 426.07135010 C 283.52902222 426.09918213 290.18621826 426.39483643 298.61203003 426.00750732 C 305.84185791 426.47192383 313.25793457 425.71618652 320.49353027 425.40951538 C 327.72912598 425.10281372 334.78424072 425.24517822 341.29214478 427.50576782 C 346.85348511 433.42761230 348.29614258 438.51068115 344.75909424 441.73992920 C 341.22204590 444.96917725 332.70526123 446.34460449 318.34777832 444.85128784" stroke-width="0.60289574" fill="rgb(178, 69, 1)" opacity="1.0" stroke="rgb(183, 71, 15)" stroke-opacity="1.0" stroke-linecap="round" stroke-linejoin="round"/>
    <path d="M 246.40324402 291.09762573 C 246.53758240 300.38598633 247.33084106 310.00207520 249.66531372 319.86859131 C 251.99978638 329.73510742 255.87547302 339.85208130 262.17465210 350.14215088 C 262.47314453 360.91110229 258.18695068 361.87103271 253.37484741 357.04324341 C 248.56272888 352.21545410 243.22470093 341.59994507 241.41957092 329.21801758 C 237.89471436 317.06115723 236.78068542 307.74633789 236.77938843 297.95150757 C 236.77810669 288.15667725 237.88955688 277.88180542 238.81564331 263.80480957 C 240.51080322 252.16403198 242.40728760 243.23013306 244.65264893 233.34085083 C 246.89801025 223.45156860 249.49223328 212.60687256 252.58287048 197.14450073 C 252.64666748 184.66744995 252.49603271 175.35122681 251.81712341 165.34300232 C 251.13821411 155.33477783 249.93101501 144.63452148 247.88166809 129.38945007 C 247.80554199 114.63171387 248.12826538 108.33166504 247.00009155 102.44593811 C 245.87191772 96.56020355 243.29284668 91.08878326 237.41319275 77.98829651 C 232.86331177 60.52406311 236.83840942 57.57637024 242.97515869 62.13052750 C 249.11192322 66.68468475 257.41033936 78.74069214 261.50714111 91.28385925 C 266.11553955 103.80877686 266.78070068 114.07781982 265.75463867 124.18957520 C 264.72860718 134.30133057 262.01135254 144.25579834 259.85488892 156.15158081 C 259.11828613 167.32090759 259.66848755 177.13920593 259.55740356 187.09391785 C 259.44631958 197.04862976 258.67395020 207.13975525 255.29222107 218.85472107 C 253.50000000 230.69277954 251.50256348 239.90461731 249.84075928 250.58137512 C 248.17897034 261.25814819 246.85284424 273.39984131 246.40324402 291.09762573" stroke-width="1.66190946" fill="rgb(206, 163, 116)" opacity="1.0" stroke="rgb(4, 0, 0)" stroke-opacity="1.0" stroke-linecap="round" stroke-linejoin="round"/>
    <path d="M 199.00302124 236.67018127 C 201.17071533 236.21832275 203.06422424 235.65365601 204.94673157 235.13874817 C 206.82925415 234.62382507 208.70077515 234.15867615 210.82452393 233.90586853 C 213.26287842 233.56387329 215.45649719 233.65003967 217.58683777 233.97381592 C 219.71717834 234.29760742 221.78424072 234.85900879 223.96949768 235.46743774 C 226.60525513 236.15475464 228.86662292 236.64674377 230.96720886 237.15303040 C 233.06779480 237.65931702 235.00761414 238.17991638 237.00028992 238.92446899 C 239.17987061 239.38836670 241.31425476 239.71768188 243.39643860 240.13980103 C 245.47863770 240.56193542 247.50865173 241.07687378 249.47952271 241.91201782 C 249.53906250 243.53591919 250.12893677 245.74708557 250.04428101 247.34033203 C 249.95962524 248.93357849 249.20043945 249.90890503 246.56190491 249.06112671 C 243.35522461 247.78082275 241.86395264 247.11068726 240.77755737 246.46530151 C 239.69114685 245.81991577 239.00961304 245.19927979 237.42239380 244.01794434 C 234.36465454 242.58148193 232.91354370 241.84597778 231.40606689 241.35578918 C 229.89859009 240.86558533 228.33476257 240.62069702 225.05160522 240.16548157 C 222.66012573 239.80227661 220.71218872 239.43107605 218.65982056 239.44506836 C 216.60745239 239.45907593 214.45063782 239.85827637 211.64141846 241.03587341 C 209.94273376 241.74629211 208.20907593 242.66777039 206.28936768 243.26467896 C 204.36965942 243.86160278 202.26391602 244.13397217 199.82104492 243.54615784 C 197.60589600 241.83938599 195.68711853 240.47512817 195.17926025 239.36021423 C 194.67140198 238.24528503 195.57446289 237.37968445 199.00302124 236.67018127" stroke-width="1.58420730" fill="rgb(210, 167, 117)" opacity="1.0" stroke="rgb(88, 73, 58)" stroke-opacity="1.0" stroke-linecap="round" stroke-linejoin="round"/>
    <path d="M 299.29238892 193.18765259 C 296.24755859 192.63851929 294.19329834 192.15953064 292.17706299 191.97940063 C 290.16082764 191.79928589 288.18261719 191.91799927 285.29003906 192.56427002 C 282.62579346 193.56811523 280.15121460 194.00953674 277.70007324 194.35932922 C 275.24890137 194.70912170 272.82116699 194.96728516 270.25048828 195.60459900 C 266.90142822 196.38385010 264.72509766 196.89796448 262.83587646 197.62760925 C 260.94668579 198.35725403 259.34460449 199.30244446 257.14410400 200.94386292 C 254.02441406 202.42083740 251.96330261 201.75939941 251.31480408 200.38188171 C 250.66632080 199.00436401 251.43045044 196.91078186 253.96130371 195.52348328 C 257.15252686 194.24703979 260.16040039 193.14187622 262.79797363 192.25511169 C 265.43554688 191.36834717 267.70278931 190.70001221 269.41275024 190.29727173 C 273.39263916 189.19132996 275.37225342 188.63325500 276.77621460 187.93623352 C 278.18017578 187.23921204 279.00842285 186.40324402 280.68554688 184.74150085 C 282.99688721 182.88391113 285.41000366 182.30368042 287.98205566 182.16424561 C 290.55407715 182.02481079 293.28503418 182.32617188 296.23211670 182.23182678 C 298.38702393 182.44085693 300.67965698 182.50169373 303.15542603 182.71051025 C 305.63116455 182.91932678 308.29010010 183.27612305 311.17758179 184.07708740 C 314.56317139 185.40328979 317.05953979 186.90740967 318.07659912 188.48468018 C 319.09368896 190.06196594 318.63143921 191.71240234 316.09985352 193.33129883 C 312.49877930 194.97386169 309.39437866 195.41082764 306.64151001 195.20071411 C 303.88864136 194.99060059 301.48730469 194.13339233 299.29238892 193.18765259" stroke-width="1.54205167" fill="rgb(210, 172, 120)" opacity="1.0" stroke="rgb(80, 68, 55)" stroke-opacity="1.0" stroke-linecap="round" stroke-linejoin="round"/>
    <path d="M 246.69279480 156.22624207 C 245.52360535 155.84228516 243.87181091 155.52482605 241.97908020 155.32687378 C 240.08634949 155.12892151 237.95268250 155.05047607 235.81973267 155.14454651 C 233.81613159 155.28732300 231.91426086 155.42346191 230.00611877 155.48442078 C 228.09796143 155.54539490 226.18356323 155.53118896 224.15489197 155.37324524 C 221.86483765 154.98147583 219.74136353 154.54190063 217.89250183 154.25505066 C 216.04364014 153.96820068 214.46940613 153.83404541 213.27784729 154.05310059 C 212.68099976 152.91030884 212.45938110 151.63027954 212.62965393 150.27468872 C 212.79992676 148.91911316 213.36209106 147.48797607 214.33280945 146.04296875 C 215.71383667 145.04231262 217.26072693 144.10527039 218.99058533 143.19766235 C 220.72045898 142.29005432 222.63330078 141.41189575 224.74627686 140.52900696 C 226.92123413 139.80392456 228.28723145 139.42112732 229.56504822 139.04298401 C 230.84286499 138.66482544 232.03250122 138.29132080 233.85473633 137.58480835 C 235.75479126 136.99707031 237.63272095 136.35269165 239.56304932 136.29437256 C 241.49337769 136.23605347 243.47610474 136.76382446 245.58581543 138.52038574 C 247.58361816 140.01638794 248.99064636 141.33956909 250.34185791 142.57821655 C 251.69308472 143.81687927 252.98851013 144.97103882 254.76310730 146.12902832 C 256.65075684 147.30047607 258.27740479 148.62603760 259.09378052 150.12336731 C 259.91015625 151.62069702 259.91629028 153.28982544 258.56286621 155.14837646 C 257.50549316 156.27487183 255.86184692 157.13136292 253.82060242 157.41273499 C 251.77935791 157.69409180 249.34051514 157.40031433 246.69279480 156.22624207" stroke-width="1.61967278" fill="rgb(82, 98, 33)" opacity="1.0" stroke="rgb(255, 255, 108)" stroke-opacity="1.0" stroke-linecap="round" stroke-linejoin="round"/>
    <path d="M 220.19447327 250.98550415 C 219.79040527 251.76858521 218.40956116 254.43707275 216.19058228 257.61340332 C 213.97158813 260.78973389 210.91445923 264.47387695 207.15786743 267.28826904 C 204.04507446 269.48721313 201.47276306 271.01568604 198.39239502 272.14950562 C 195.31201172 273.28332520 191.72355652 274.02246094 186.57844543 274.64270020 C 181.04425049 274.50238037 177.96043396 274.56365967 174.92988586 273.90115356 C 171.89935303 273.23864746 168.92207336 271.85238647 163.60093689 268.81704712 C 161.20764160 267.31134033 158.56867981 265.02252197 156.15873718 261.91961670 C 153.74879456 258.81674194 151.56787109 254.89978027 150.09066772 250.13789368 C 149.37057495 247.68138123 148.67691040 244.10415649 148.60745239 239.95858765 C 148.53799438 235.81303406 149.09274292 231.09913635 150.86944580 226.36929321 C 152.47012329 223.14517212 153.72596741 220.30508423 155.22911072 217.83575439 C 156.73223877 215.36640930 158.48266602 213.26782227 161.07250977 211.52670288 C 164.48292542 208.56198120 167.69506836 206.42883301 171.22581482 204.94601440 C 174.75656128 203.46319580 178.60588074 202.63070679 183.29064941 202.26734924 C 186.44447327 202.12341309 189.99316406 202.13050842 193.78576660 202.82089233 C 197.57836914 203.51127625 201.61486816 204.88493347 205.74427795 207.47409058 C 209.59539795 210.06350708 212.12483215 212.07225037 214.30038452 214.59008789 C 216.47592163 217.10791016 218.29757690 220.13482666 220.73312378 224.76060486 C 222.01461792 228.31896973 222.75181580 231.44099426 222.73269653 235.39053345 C 222.71359253 239.34005737 221.93817139 244.11711121 220.19447327 250.98550415" stroke-width="1.48406780" fill="rgb(64, 142, 50)" opacity="1.0" stroke="rgb(8, 12, 8)" stroke-opacity="1.0" stroke-linecap="round" stroke-linejoin="round"/>
    <path d="M 237.89535522 133.82125854 C 235.49540710 132.81573486 233.24736023 131.43864441 230.96224976 129.63154602 C 228.67713928 127.82443237 226.35494995 125.58729553 223.80670166 122.86164856 C 221.25845337 120.13600159 218.48416138 116.92184448 215.29479980 113.16070557 C 213.27995300 109.17966461 211.02751160 105.84700775 208.90081787 102.74954987 C 206.77410889 99.65208435 204.77314758 96.78982544 203.26123047 93.74957275 C 201.74932861 90.70932007 200.72647095 87.49107361 200.55596924 83.68167114 C 200.15989685 79.21886444 200.32537842 74.84915924 200.95095825 70.73359680 C 201.57653809 66.61803436 202.66223145 62.75661469 204.10656738 59.31035995 C 205.55090332 55.86410522 207.35386658 52.83301544 209.41401672 50.37812805 C 213.22721863 45.60108948 216.27969360 42.21529388 219.15817261 39.61751938 C 222.03666687 37.01974106 224.74118042 35.20998001 227.85848999 33.58501434 C 230.97578430 31.96004486 234.50585938 30.51986694 239.03547668 28.66125488 C 244.35716248 27.49688721 248.80261230 26.82331276 252.75157166 26.54564095 C 256.70053101 26.26796722 260.15301514 26.38619614 263.48870850 26.80543327 C 266.82440186 27.22467041 270.04333496 27.94491577 273.52523804 28.87127686 C 280.09536743 32.00931931 283.97048950 33.74810791 286.62249756 35.06518555 C 289.27450562 36.38226318 290.70339966 37.27762985 292.38113403 38.72882843 C 294.05889893 40.18002701 295.98547363 42.18705750 299.63281250 45.72746277 C 302.62777710 49.64047241 305.04870605 53.32987976 306.98678589 56.96120834 C 308.92486572 60.59253693 310.38015747 64.16579437 311.44387817 67.84650421 C 312.50756836 71.52720642 313.17971802 75.31536865 313.55154419 79.37651062 C 313.63479614 82.80071259 313.37750244 86.59422302 312.73056030 90.48285675 C 312.08361816 94.37149811 311.04699707 98.35527039 309.57165527 102.15998077 C 308.09631348 105.96469116 306.18218994 109.59034729 303.78024292 112.76275635 C 301.49096680 115.84537506 298.95553589 118.80466461 296.14770508 121.57519531 C 293.33987427 124.34571838 290.25964355 126.92747498 286.88085938 129.25503540 C 283.50201416 131.58261108 279.82461548 133.65597534 275.82238770 135.40969849 C 272.85845947 136.58100891 269.71707153 137.64437866 266.15893555 138.25846863 C 262.60083008 138.87255859 258.62600708 139.03738403 253.99516296 138.41162109 C 249.36431885 137.78585815 244.07748413 136.36950684 237.89535522 133.82125854" stroke-width="1.53707123" fill="rgb(75, 156, 59)" opacity="1.0" stroke="rgb(0, 6, 0)" stroke-opacity="1.0" stroke-linecap="round" stroke-linejoin="round"/>
    <path d="M 370.16586304 185.25180054 C 370.30639648 188.06602478 370.31515503 190.46778870 370.07980347 192.84919739 C 369.84445190 195.23062134 369.36499023 197.59169006 368.52911377 200.32452393 C 367.69323730 203.05735779 366.50091553 206.16195679 364.83984375 210.03044128 C 363.40237427 212.64500427 361.57272339 215.42716980 359.44140625 218.09948730 C 357.31005859 220.77182007 354.87701416 223.33432007 352.23275757 225.50953674 C 349.58850098 227.68475342 346.73306274 229.47271729 343.75689697 230.59594727 C 340.47015381 231.93415833 337.14962769 233.07449341 333.87884521 233.90986633 C 330.60806274 234.74523926 327.38702393 235.27561951 324.29934692 235.39393616 C 321.21166992 235.51223755 318.25732422 235.21847534 315.51986694 234.40554810 C 312.19409180 233.91690063 309.19515991 233.16935730 306.36480713 232.09077454 C 303.53448486 231.01220703 300.87271118 229.60260010 298.22131348 227.78982544 C 295.56994629 225.97706604 292.92889404 223.76113892 290.14001465 221.06994629 C 287.85406494 218.01239014 285.81875610 214.94558716 284.15258789 211.87475586 C 282.48641968 208.80392456 281.18942261 205.72906494 280.38009644 202.65534973 C 279.57077026 199.58163452 279.24914551 196.50906372 279.53369141 193.44285583 C 279.79028320 189.45156860 279.96325684 186.32780457 280.21487427 183.62803650 C 280.46649170 180.92826843 280.79669189 178.65248108 281.36773682 176.35714722 C 281.93878174 174.06179810 282.75067139 171.74691772 283.96557617 168.96891785 C 286.32876587 165.16368103 288.12536621 162.22613525 289.84710693 159.73579407 C 291.56884766 157.24545288 293.21575928 155.20233154 295.27957153 153.18591309 C 297.34338379 151.16949463 299.82415771 149.17977905 303.21359253 146.79632568 C 305.30160522 145.65843201 307.94577026 144.43536377 310.96115112 143.43251038 C 313.97656250 142.42965698 317.36318970 141.64701843 320.93618774 141.38998413 C 324.50921631 141.13296509 328.26855469 141.40155029 332.02941895 142.50112915 C 334.81359863 143.04855347 337.46014404 143.73348999 340.09628296 144.72038269 C 342.73242188 145.70727539 345.35818481 146.99609375 348.10070801 148.75129700 C 350.84326172 150.50650024 353.70263672 152.72805786 356.80599976 155.58041382 C 358.91293335 157.94920349 360.83233643 160.34004211 362.54425049 163.04023743 C 364.25616455 165.74041748 365.76055908 168.74995422 367.03747559 172.35612488 C 368.31439209 175.96228027 369.36383057 180.16508484 370.16586304 185.25180054" stroke-width="1.52835023" fill="rgb(66, 143, 51)" opacity="1.0" stroke="rgb(15, 20, 14)" stroke-opacity="1.0" stroke-linecap="round" stroke-linejoin="round"/>
    <path d="M 198.45324707 187.78593445 C 196.86054993 188.30917358 194.56539917 188.64675903 191.90821838 188.73065186 C 189.25103760 188.81454468 186.23181152 188.64476013 183.19097900 188.15321350 C 180.15011597 187.66168213 177.08764648 186.84838867 174.34394836 185.64530945 C 172.15190125 184.64414978 169.79579163 183.26586914 167.48052979 181.53553772 C 165.16528320 179.80520630 162.89086914 177.72283936 160.86224365 175.31349182 C 158.83360291 172.90412903 157.05075073 170.16778564 155.71856689 167.12951660 C 154.87680054 165.12127686 154.01434326 162.87207031 153.34355164 160.35758972 C 152.67276001 157.84310913 152.19366455 155.06336975 152.11862183 151.99403381 C 152.04357910 148.92468262 152.37258911 145.56576538 153.31805420 141.89294434 C 153.61749268 139.91447449 154.23188782 137.56623840 155.21658325 134.99644470 C 156.20127869 132.42663574 157.55625916 129.63526917 159.33685303 126.77048492 C 161.11743164 123.90570831 163.32363892 120.96752930 166.01074219 118.10412598 C 167.58067322 116.70468903 169.33267212 115.23760223 171.44064331 113.81625366 C 173.54861450 112.39489746 176.01257324 111.01927948 179.00640869 109.80276489 C 182.00024414 108.58625793 185.52395630 107.52885437 189.75148010 106.74392700 C 192.88713074 106.77515411 195.37821960 106.69126892 197.57447815 106.73107910 C 199.77072144 106.77088928 201.67214966 106.93440247 203.62844849 107.46043396 C 205.58474731 107.98646545 207.59591675 108.87501526 210.01171875 110.36489868 C 213.15110779 112.12557983 215.97074890 113.94375610 218.50233459 115.81752777 C 221.03393555 117.69130707 223.27748108 119.62068939 225.26473999 121.60379028 C 227.25198364 123.58689880 228.98291016 125.62371826 230.48927307 127.71237183 C 232.36799622 130.61247253 233.93045044 133.55760193 235.11589050 136.45378113 C 236.30133057 139.34994507 237.10977173 142.19715881 237.48046875 144.90141296 C 237.85116577 147.60565186 237.78411865 150.16694641 237.21858215 152.49127197 C 236.51725769 155.33238220 235.49070740 158.11146545 234.19783020 160.76426697 C 232.90495300 163.41705322 231.34574890 165.94357300 229.57911682 168.27952576 C 227.81248474 170.61549377 225.83840942 172.76089478 223.71582031 174.65150452 C 221.76567078 176.50404358 219.63186646 178.13502502 217.21247864 179.63496399 C 214.79307556 181.13488770 212.08807373 182.50378418 208.99551392 183.83210754 C 205.90296936 185.16044617 202.42285156 186.44821167 198.45324707 187.78593445" stroke-width="1.56590128" fill="rgb(97, 175, 77)" opacity="1.0" stroke="rgb(10, 12, 9)" stroke-opacity="1.0" stroke-linecap="round" stroke-linejoin="round"/>
    <path d="M 302.38861084 139.59667969 C 298.78839111 139.96655273 295.34597778 139.66012573 292.10144043 138.93934631 C 288.85690308 138.21856689 285.81027222 137.08343506 283.00161743 135.79589844 C 280.11468506 133.55422974 278.08416748 131.48864746 276.39614868 129.07095337 C 274.70812988 126.65325928 273.36260986 123.88345337 271.84555054 120.23336792 C 270.34484863 116.26184845 269.58483887 112.23091888 269.53927612 108.59284973 C 269.49371338 104.95478821 270.16265869 101.70957947 271.51983643 99.30950928 C 272.88592529 94.88478088 274.94430542 91.20812988 277.28189087 88.14610291 C 279.61947632 85.08408356 282.23623657 82.63669586 284.71905518 80.67050171 C 288.07299805 78.11279297 290.89215088 76.44847107 294.12597656 75.23941803 C 297.35977173 74.03036499 301.00823975 73.27659607 306.02075195 72.53999329 C 312.53274536 73.13047028 315.23519897 73.19519806 317.22521973 73.63507080 C 319.21524048 74.07495117 320.49279785 74.88997650 324.15505981 76.98104858 C 327.83746338 79.24890900 330.94195557 81.99797058 333.49362183 85.06948853 C 336.04528809 88.14100647 338.04412842 91.53498840 339.51531982 95.09269714 C 340.72192383 100.28392792 341.33911133 103.22567749 341.33529663 106.22911072 C 341.33148193 109.23255157 340.70666504 112.29768372 339.42932129 117.73568726 C 337.58300781 120.88401031 336.03073120 123.47639465 333.94146729 126.02611542 C 331.85220337 128.57583618 329.22595215 131.08291626 325.23168945 134.06062317 C 320.69314575 136.48309326 317.14370728 137.79750061 313.64825439 138.54110718 C 310.15277100 139.28469849 306.71130371 139.45747375 302.38861084 139.59667969" stroke-width="1.43172753" fill="rgb(97, 176, 75)" opacity="1.0" stroke="rgb(14, 14, 12)" stroke-opacity="1.0" stroke-linecap="round" stroke-linejoin="round"/>
    <path d="M 240.38452148 190.22042847 C 239.38760376 190.82232666 237.39999390 191.55175781 234.86231995 192.11759949 C 232.32464600 192.68345642 229.23687744 193.08572388 226.03962708 193.03326416 C 223.59582520 192.83288574 220.73822021 192.47328186 217.93037415 191.57846069 C 215.12252808 190.68365479 212.36444092 189.25363159 210.11972046 186.91236877 C 208.51080322 185.19490051 206.91476440 183.49151611 205.54933167 181.28985596 C 204.18389893 179.08819580 203.04904175 176.38824463 202.36251831 172.67765808 C 202.05134583 170.14277649 201.78114319 167.89717102 202.00259399 165.31533813 C 202.22402954 162.73348999 202.93711853 159.81542969 204.59251404 155.93560791 C 206.13296509 153.62565613 207.40266418 151.72425842 209.18312073 149.84072876 C 210.96356201 147.95719910 213.25476074 146.09155273 216.83819580 143.85310364 C 219.62585449 142.83529663 221.63475037 141.96229553 223.52113342 141.40301514 C 225.40751648 140.84373474 227.17137146 140.59817505 229.46893311 140.83531189 C 232.63519287 140.88458252 235.63787842 141.22540283 238.48866272 142.03031921 C 241.33944702 142.83525085 244.03834534 144.10430908 246.59703064 146.01008606 C 249.31326294 148.15884399 251.41354370 150.41900635 252.91868591 152.73014832 C 254.42381287 155.04129028 255.33380127 157.40341187 255.66941833 159.75611877 C 255.86956787 162.09687805 255.73919678 164.61399841 255.30638123 167.41763306 C 254.87356567 170.22128296 254.13832092 173.31146240 253.12872314 176.79832458 C 252.09132385 179.08773804 251.09887695 180.90521240 249.26898193 182.91935730 C 247.43908691 184.93350220 244.77172852 187.14431763 240.38452148 190.22042847" stroke-width="1.43726623" fill="rgb(102, 177, 79)" opacity="1.0" stroke="rgb(15, 13, 19)" stroke-opacity="1.0" stroke-linecap="round" stroke-linejoin="round"/>
    <path d="M 309.52850342 167.50340271 C 307.68591309 169.43905640 304.88635254 171.20773315 301.82101440 172.60437012 C 298.75567627 174.00099182 295.42456055 175.02557373 292.51882935 175.47303772 C 288.91598511 175.85769653 285.74349976 176.05622864 282.71902466 175.79231262 C 279.69458008 175.52841187 276.81811523 174.80204773 273.80737305 173.33692932 C 271.81439209 172.15933228 269.16442871 170.80255127 266.66824341 168.94299316 C 264.17205811 167.08345032 261.82962036 164.72116089 260.45169067 161.53256226 C 258.87371826 159.15338135 257.93273926 156.40988159 257.53463745 153.32350159 C 257.13653564 150.23712158 257.28134155 146.80786133 257.87493896 143.05715942 C 259.01382446 139.34692383 259.88937378 136.71450806 261.14266968 134.27102661 C 262.39599609 131.82754517 264.02706909 129.57299805 266.67703247 126.61856079 C 271.41668701 123.11538696 273.06018066 121.57142639 274.44735718 120.61482239 C 275.83453369 119.65822601 276.96539307 119.28898621 280.67968750 118.13525391 C 284.14086914 117.13058472 287.63488770 116.75178528 291.04742432 116.91983032 C 294.45993042 117.08786774 297.79089355 117.80274200 300.92593384 118.98541260 C 304.29888916 120.52313995 307.25018311 122.52741241 309.62683105 124.67995453 C 312.00347900 126.83248901 313.80551147 129.13330078 314.88000488 131.26409912 C 316.61352539 134.51898193 317.71313477 137.77449036 318.30718994 140.96182251 C 318.90124512 144.14915466 318.98977661 147.26831055 318.70114136 150.25054932 C 318.38735962 153.41952515 317.25881958 156.72421265 315.62643433 159.74092102 C 313.99401855 162.75762939 311.85775757 165.48635864 309.52850342 167.50340271" stroke-width="1.35033047" fill="rgb(100, 181, 80)" opacity="1.0" stroke="rgb(14, 11, 17)" stroke-opacity="1.0" stroke-linecap="round" stroke-linejoin="round"/>
    <path d="M 237.09437561 215.68499756 C 236.69769287 215.80331421 235.70140076 216.10697937 234.60086060 216.46708679 C 233.50032043 216.82717896 232.29551697 217.24372864 231.48179626 217.58781433 C 230.09567261 217.66864014 229.13505554 217.98788452 228.32250977 218.21136475 C 227.50994873 218.43486023 226.84545898 218.56259155 226.05154419 218.26037598 C 226.05249023 217.16395569 226.05625916 216.17311096 226.04936218 215.12794495 C 226.04248047 214.08276367 226.02493286 212.98326111 225.98326111 211.66950989 C 225.91912842 210.34007263 225.90020752 209.15551758 225.95980835 208.06468201 C 226.01940918 206.97384644 226.15751648 205.97671509 226.40744019 205.02214050 C 226.89825439 204.00091553 227.40914917 203.31214905 228.10075378 202.60992432 C 228.79235840 201.90768433 229.66467285 201.19198608 230.87831116 200.11692810 C 231.87057495 199.54460144 232.56243896 199.09988403 233.20114136 198.70613098 C 233.83985901 198.31237793 234.42543030 197.96955872 235.20510864 197.60102844 C 236.09242249 197.08332825 237.17092896 197.28637695 238.21853638 197.74655151 C 239.26614380 198.20674133 240.28283691 198.92407227 241.04653931 199.43493652 C 242.02655029 200.48472595 242.29211426 201.31918335 242.28536987 202.17155457 C 242.27862549 203.02391052 241.99957275 203.89416504 241.89038086 205.01553345 C 241.82910156 205.97174072 241.81417847 207.05136108 241.87095642 208.15324402 C 241.92773438 209.25512695 242.05622864 210.37927246 242.28178406 211.42451477 C 242.23025513 212.56799316 241.66209412 213.16870117 240.74247742 213.71572876 C 239.82286072 214.26275635 238.55177307 214.75613403 237.09437561 215.68499756" stroke-width="0.99926329" fill="rgb(255, 255, 255)" opacity="1.0" stroke="rgb(255, 255, 255)" stroke-opacity="1.0" stroke-linecap="round" stroke-linejoin="round"/>
    <path d="M 264.71252441 61.93859863 C 264.71249390 61.94024658 264.71316528 61.94409180 264.71359253 61.94879150 C 264.71347046 61.95356750 264.71408081 61.95513916 264.71115112 61.95765686 C 264.70831299 61.95994568 264.70431519 61.96102905 264.69989014 61.96087646 C 264.69616699 61.96121216 264.69158936 61.95959473 264.68792725 61.95819092 C 264.68374634 61.95640564 264.68090820 61.95397949 264.67883301 61.95027161 C 264.67703247 61.94337463 264.67715454 61.94473267 264.67840576 61.94094849 C 264.68005371 61.93705750 264.68261719 61.93305969 264.68511963 61.92974854 C 264.68966675 61.92555237 264.69039917 61.92451477 264.69467163 61.92297363 C 264.69876099 61.92230225 264.70263672 61.92427063 264.70565796 61.92677307 C 264.70913696 61.92915344 264.71072388 61.93211365 264.71252441 61.93859863" stroke-width="2.00000000" fill="rgb(61, 209, 0)" opacity="1.0" stroke="rgb(74, 158, 58)" stroke-opacity="1.0" stroke-linecap="round" stroke-linejoin="round"/>
    <path d="M 344.61437988 362.87216187 C 338.54132080 363.33901978 333.41046143 363.28051758 326.84027100 363.17028809 C 320.27005005 363.06008911 312.26049805 362.89813232 300.42999268 363.15814209 C 293.89990234 363.21649170 287.35751343 363.33633423 279.76129150 363.35140991 C 272.16506958 363.36645508 263.51498413 363.27673340 252.76945496 362.91586304 C 246.23950195 362.94049072 239.70906067 363.20126343 232.39245605 363.37918091 C 225.07583618 363.55709839 216.97305298 363.65216064 207.29841614 363.34542847 C 198.10449219 362.93286133 190.14442444 362.86581421 181.91914368 362.99758911 C 173.69384766 363.12936401 165.20333862 363.45996094 154.94851685 363.84277344 C 147.40144348 365.07897949 143.06042480 361.06674194 142.91812134 357.21749878 C 142.77581787 353.36822510 146.83221436 349.68194580 156.07998657 351.56994629 C 168.49697876 351.42053223 174.38571167 351.64398193 179.40444946 351.82202148 C 184.42318726 352.00003052 188.57192993 352.13256836 197.50898743 351.80130005 C 208.67114258 351.75994873 215.08380127 351.57171631 221.15989685 351.52355957 C 227.23597717 351.47543335 232.97549438 351.56735229 242.79138184 352.08630371 C 251.83697510 351.34533691 258.91156006 351.44177246 266.28637695 351.60369873 C 273.66122437 351.76562500 281.33630371 351.99304199 291.58294678 351.51397705 C 301.24514771 352.01287842 309.11019897 351.97692871 316.47821045 351.81411743 C 323.84625244 351.65130615 330.71725464 351.36166382 338.39135742 351.35317993 C 348.79339600 350.66705322 356.05902100 352.77096558 357.86920166 355.43432617 C 359.67938232 358.09768677 356.03411865 361.32049561 344.61437988 362.87216187" stroke-width="1.82167137" fill="rgb(191, 69, 3)" opacity="1.0" stroke="rgb(21, 10, 15)" stroke-opacity="1.0" stroke-linecap="round" stroke-linejoin="round"/>
    <path d="M 353.03479004 378.06353760 C 352.71307373 381.67208862 352.57846069 383.74911499 352.43011475 385.98800659 C 352.28173828 388.22689819 352.11962891 390.62768555 351.74288940 394.88369751 C 351.58636475 397.99307251 351.36239624 400.47186279 351.10064697 403.24441528 C 350.83886719 406.01696777 350.53930664 409.08325195 350.23159790 413.36764526 C 350.34954834 415.49798584 350.24993896 418.53781128 350.08996582 421.70065308 C 349.92999268 424.86346436 349.70959473 428.14932251 349.58593750 430.77169800 C 348.85617065 434.28942871 349.23007202 437.97720337 349.07501221 440.78616333 C 348.91995239 443.59515381 348.23590088 445.52532959 345.39028931 445.52783203 C 341.59838867 445.60522461 339.17922974 444.61276245 338.03054810 442.63427734 C 336.88189697 440.65579224 337.00372314 437.69128418 338.29382324 433.82452393 C 339.40277100 429.42617798 339.64828491 427.08294678 339.72137451 425.19763184 C 339.79449463 423.31231689 339.69519043 421.88488770 340.11450195 419.31817627 C 340.13378906 415.88955688 340.29727173 412.86376953 340.49893188 409.99752808 C 340.70059204 407.13128662 340.94042969 404.42462158 341.11236572 401.63424683 C 340.86828613 398.76104736 341.01611328 395.92739868 341.21890259 392.96362305 C 341.42169189 389.99984741 341.67941284 386.90594482 341.65515137 383.51226807 C 342.05285645 380.34777832 341.60919189 377.11868286 341.62283325 374.16534424 C 341.63647461 371.21197510 342.10742188 368.53436279 344.33435059 366.47280884 C 348.42572021 365.47262573 351.00192261 366.01641846 352.35473633 367.98718262 C 353.70755005 369.95797729 353.83697510 373.35574341 353.03479004 378.06353760" stroke-width="1.69286358" fill="rgb(250, 161, 77)" opacity="1.0" stroke="rgb(110, 34, 2)" stroke-opacity="1.0" stroke-linecap="round" stroke-linejoin="round"/>
    <path d="M 238.87002563 139.31794739 C 238.46389771 139.01382446 237.68608093 138.72309875 236.59098816 138.40281677 C 235.49591064 138.08251953 234.08355713 137.73266602 232.40835571 137.31025696 C 230.92674255 137.03671265 230.31881714 136.40844727 230.10015869 135.52969360 C 229.88148499 134.65093994 230.05206299 133.52169800 230.12745667 132.24624634 C 230.15632629 130.71311951 229.88092041 129.39993286 229.46813965 128.25840759 C 229.05534363 127.11688232 228.50518799 126.14700317 227.98455811 125.30047607 C 227.12208557 123.48025513 226.43901062 122.56075287 225.79086304 121.68436432 C 225.14271545 120.80798340 224.52951050 119.97470856 223.80677795 118.32695007 C 224.20906067 117.87911224 225.38536072 118.33409119 226.70912170 118.91817474 C 228.03286743 119.50225830 229.50408936 120.21543121 230.49617004 120.28398132 C 232.73654175 121.16057587 233.64546204 121.49566650 234.32896423 121.70965576 C 235.01246643 121.92364502 235.47055054 122.01652527 236.80923462 122.40869141 C 238.26116943 122.57299805 239.84109497 122.72354126 241.12733459 123.04791260 C 242.41357422 123.37229156 243.40612793 123.87049866 243.68336487 124.73013306 C 244.26141357 126.60462189 244.42729187 127.86800385 244.51008606 128.99453735 C 244.59289551 130.12106323 244.59260559 131.11074829 244.83831787 132.43782043 C 245.02931213 134.24267578 245.08802795 135.51214600 245.15014648 136.64346313 C 245.21228027 137.77478027 245.27781677 138.76791382 245.48245239 140.02009583 C 245.23387146 141.54788208 244.62861633 141.59214783 243.56158447 141.14456177 C 242.49455261 140.69699097 240.96572876 139.75756836 238.87002563 139.31794739" stroke-width="1.49964380" fill="rgb(249, 251, 249)" opacity="1.0" stroke="rgb(28, 29, 28)" stroke-opacity="1.0" stroke-linecap="round" stroke-linejoin="round"/>
    <path d="M 253.00660706 137.84799194 C 252.67315674 135.83758545 252.54563904 135.11308289 252.13876343 132.97543335 C 251.90821838 130.75773621 252.08004761 129.44659424 251.32739258 127.42813110 C 250.52362061 124.88764954 250.75793457 123.46966553 253.10913086 124.87695312 C 254.48767090 125.85229492 254.63323975 127.81256104 254.13275146 130.24131775 C 254.07762146 131.59742737 253.78636169 132.72279358 254.13458252 135.26623535 C 254.79743958 137.00636292 254.25836182 138.58728027 256.36581421 138.10995483 C 258.57296753 139.36701965 258.23397827 140.37503052 257.41394043 142.56752014 C 256.45800781 144.56011963 257.77102661 147.18663025 256.23275757 147.49501038 C 253.92370605 147.88423157 253.72305298 145.59757996 253.52169800 143.77970886 C 253.09494019 141.05189514 253.35415649 140.05284119 253.00660706 137.84799194" stroke-width="2.00000000" fill="rgb(27, 21, 19)" opacity="1.0" stroke="rgb(255, 183, 193)" stroke-opacity="1.0" stroke-linecap="round" stroke-linejoin="round"/>
    <path d="M 358.51980591 355.64437866 C 358.36239624 357.07595825 358.01092529 358.11294556 357.99807739 359.75305176 C 357.69042969 361.32818604 358.39437866 362.61431885 356.96478271 362.92987061 C 355.63177490 362.73675537 354.73779297 362.69586182 352.85751343 362.75411987 C 351.48297119 362.69293213 349.72302246 363.08285522 348.84228516 362.52932739 C 348.77728271 360.52587891 348.86297607 360.18380737 349.15463257 358.43026733 C 349.47406006 356.15170288 349.30300903 356.65106201 349.22027588 354.92919922 C 349.22161865 353.27871704 348.60568237 351.95571899 350.01815796 351.73245239 C 351.58181763 351.67312622 352.44033813 351.84716797 353.82363892 351.44827271 C 355.45703125 351.35232544 356.57565308 351.24255371 357.74096680 351.82498169 C 358.71813965 352.65866089 358.69174194 354.31732178 358.51980591 355.64437866" stroke-width="1.86264455" fill="rgb(255, 175, 83)" opacity="1.0" stroke="rgb(53, 22, 16)" stroke-opacity="1.0" stroke-linecap="round" stroke-linejoin="round"/>
  </g>
</svg>
