<?xml version="1.0" ?>
<svg xmlns="http://www.w3.org/2000/svg" version="1.1" width="512" height="512" viewBox="0 0 512 512">
  <defs/>
  <g>
    <path d="M 351.27758789 447.60556030 C 347.34918213 448.41775513 343.37319946 448.72750854 339.09655762 448.51632690 C 334.43579102 448.48324585 329.32077026 448.48083496 323.95828247 448.51196289 C 318.21609497 448.47000122 312.12313843 448.51901245 305.79513550 448.55163574 C 299.34848022 448.56210327 292.60263062 448.52322388 285.72393799 448.53042603 C 278.71542358 448.57742310 271.69955444 448.49191284 264.71511841 448.47695923 C 257.86584473 448.50915527 251.11100769 448.49258423 244.44732666 448.52047729 C 237.70507812 448.57278442 230.87902832 448.53759766 223.76445007 448.57617188 C 216.67927551 448.59255981 209.41049194 448.52047729 202.03036499 448.51473999 C 194.66629028 448.56906128 187.27670288 448.63934326 179.90092468 448.60165405 C 172.74060059 448.53497314 166.03874207 448.53427124 160.17010498 448.42138672 C 155.56106567 447.04061890 152.33409119 444.49932861 150.55189514 440.71939087 C 150.05065918 435.60592651 150.02204895 429.43777466 149.94216919 422.64810181 C 149.56886292 415.21582031 149.18641663 407.33401489 148.89291382 399.36770630 C 148.59582520 391.23184204 148.31428528 383.24047852 147.99487305 375.61886597 C 148.66519165 368.69726562 150.66630554 362.55355835 153.81498718 357.46899414 C 157.57867432 353.26361084 161.70420837 350.11672974 166.33024597 348.39779663 C 171.74386597 348.07327271 177.63452148 348.27645874 183.43759155 348.32409668 C 189.45973206 348.38272095 195.63751221 348.39135742 201.88005066 348.30371094 C 208.42176819 348.32824707 215.11224365 348.31723022 221.96638489 348.33981323 C 228.82855225 348.41247559 235.64669800 348.35339355 242.28033447 347.96499634 C 248.88920593 347.59414673 255.30982971 347.34069824 261.62478638 347.46786499 C 267.80987549 348.14175415 274.13690186 348.43743896 280.76556396 348.36401367 C 287.62802124 348.23901367 294.76092529 348.23367310 302.15753174 348.27603149 C 309.79205322 348.27633667 317.53759766 348.26409912 325.09124756 348.25137329 C 332.40350342 348.34338379 339.04638672 348.17373657 344.86166382 348.33721924 C 349.45532227 349.80844116 352.98678589 352.51644897 355.30746460 356.32403564 C 356.46585083 361.02291870 356.58786011 366.61416626 356.19799805 372.84259033 C 355.81051636 379.57949829 355.40042114 386.69299316 354.94952393 394.02380371 C 354.33227539 401.54837036 353.80007935 409.16094971 353.41339111 416.88766479 C 353.00677490 424.49523926 352.86026001 432.09469604 351.27758789 447.60556030" stroke-width="0.74889231" fill="rgb(21, 10, 8)" opacity="1.0" stroke="rgb(0, 0, 0)" stroke-opacity="0.37371415" stroke-linecap="round" stroke-linejoin="round"/>
    <path d="M 346.81460571 436.56982422 C 340.76699829 435.50305176 334.83670044 434.50167847 328.91275024 433.50399780 C 323.02655029 432.67956543 317.22665405 432.01617432 311.24774170 431.42257690 C 305.22943115 430.87078857 299.10543823 430.39801025 292.93710327 429.97592163 C 286.80850220 429.57281494 280.58288574 429.21185303 274.36825562 428.98727417 C 268.06021118 428.78417969 261.87023926 428.79638672 255.50476074 428.92480469 C 249.16545105 429.22814941 242.86299133 429.77578735 236.38232422 430.68170166 C 229.76051331 431.76251221 222.96936035 433.10766602 216.03031921 434.67156982 C 209.14862061 436.36349487 202.25086975 438.22399902 195.32453918 440.12722778 C 188.34130859 441.90997314 181.42366028 443.42639160 174.76048279 444.63943481 C 168.57835388 445.36950684 163.07234192 445.77484131 158.53016663 446.32168579 C 155.00866699 446.88848877 152.96955872 446.69302368 152.28604126 444.82302856 C 152.54922485 440.94464111 152.80973816 435.50787354 152.93098450 428.81970215 C 152.81434631 421.35488892 152.64929199 413.43908691 152.37159729 405.45211792 C 152.07980347 397.67071533 151.58840942 390.33578491 151.27044678 383.41055298 C 151.09146118 377.25659180 150.44682312 372.00531006 149.73213196 367.62161255 C 150.62725830 364.23504639 152.88789368 361.61697388 156.20848083 359.71478271 C 160.38409424 358.36053467 165.08828735 357.41506958 170.30339050 356.84979248 C 175.92846680 356.72775269 181.74824524 357.02511597 187.54188538 357.66403198 C 193.59722900 358.64846802 199.69917297 359.81958008 205.88980103 361.19818115 C 212.10501099 362.48144531 218.34503174 363.65982056 224.62835693 364.67352295 C 230.86943054 365.42510986 237.12265015 365.87585449 243.47358704 366.00405884 C 249.90428162 365.86199951 256.56710815 365.50082397 263.28009033 364.83032227 C 270.18548584 363.84191895 277.13903809 362.83737183 284.31259155 361.64111328 C 291.50646973 360.55233765 298.73724365 359.71936035 305.85882568 359.15847778 C 312.85516357 358.97766113 319.50329590 359.19042969 325.79083252 360.01315308 C 331.60913086 361.50552368 336.80023193 363.70193481 341.16635132 366.66143799 C 344.46978760 370.49444580 347.01086426 375.08874512 348.60986328 380.39541626 C 349.65554810 386.28887939 350.04608154 392.65734863 349.98599243 399.33288574 C 349.59536743 406.34091187 348.99325562 413.52984619 348.39590454 420.74331665 C 347.81475830 427.95361328 347.37063599 435.20147705 346.81460571 436.56982422" stroke-width="2.00000000" fill="rgb(177, 74, 4)" opacity="1.0" stroke="rgb(17, 4, 6)" stroke-opacity="1.0" stroke-linecap="round" stroke-linejoin="round"/>
    <path d="M 324.11959839 445.07366943 C 317.09475708 445.06829834 310.07641602 445.09069824 303.04534912 445.11853027 C 296.06823730 445.18276978 289.32818604 445.15274048 282.70870972 445.11172485 C 276.20236206 445.02874756 269.63146973 444.98889160 263.01470947 445.07507324 C 256.23190308 445.01257324 249.16825867 445.04864502 241.71351624 445.02716064 C 233.95201111 445.00543213 225.87557983 444.93576050 217.61106873 444.92950439 C 209.32658386 444.94735718 201.07638550 445.00552368 193.18771362 445.00833130 C 185.78097534 445.04974365 179.05087280 445.07659912 173.10238647 444.62832642 C 168.43382263 443.41409302 164.94477844 441.45547485 162.72848511 439.11685181 C 161.66722107 436.56665039 161.85171509 434.14736938 163.25286865 431.81390381 C 165.85568237 429.77215576 169.74153137 428.10754395 174.57127380 426.80282593 C 180.33377075 425.93405151 186.66102600 425.42260742 193.46054077 425.31301880 C 200.36419678 425.44595337 207.35012817 425.74737549 214.35289001 426.06726074 C 221.20907593 426.49261475 228.21069336 426.80392456 235.16252136 427.02178955 C 242.22950745 427.18066406 249.37368774 427.19210815 256.67800903 427.04837036 C 264.11019897 426.84237671 271.70266724 426.44549561 279.29470825 426.09222412 C 286.94152832 425.78173828 294.51098633 425.64752197 301.80136108 425.67596436 C 308.67391968 425.96636963 315.09542847 426.58456421 320.93255615 427.47375488 C 326.05087280 428.77667236 330.47714233 430.45419312 334.27304077 432.49966431 C 337.63034058 434.81900024 340.69076538 437.42056274 343.50497437 440.17785645 C 346.34207153 443.02294922 349.16629028 445.97152710 324.11959839 445.07366943" stroke-width="0.93764019" fill="rgb(176, 72, 0)" opacity="1.0" stroke="rgb(177, 65, 7)" stroke-opacity="0.47190946" stroke-linecap="round" stroke-linejoin="round"/>
    <path d="M 247.44270325 294.64959717 C 247.78233337 304.72760010 249.09620667 314.70416260 251.78605652 324.34100342 C 254.81561279 333.22842407 258.33911133 340.70858765 260.55053711 346.39996338 C 259.22460938 350.45574951 255.48318481 352.34103394 250.83349609 351.86608887 C 246.64849854 348.77066040 243.51789856 342.75122070 241.19000244 334.45690918 C 238.83106995 324.46893311 236.80465698 313.05615234 235.71229553 300.92669678 C 235.63621521 288.75833130 236.44845581 276.81732178 237.77029419 265.18576050 C 239.07804871 253.73011780 241.23925781 242.63839722 244.34402466 231.80871582 C 246.94055176 220.93373108 248.89785767 210.00477600 250.31440735 198.91421509 C 252.25201416 187.89988708 253.42843628 176.79875183 253.29452515 165.40057373 C 252.10884094 153.88764954 250.17167664 142.22038269 247.99607849 130.52214050 C 245.80625916 118.93249512 244.06010437 107.78427124 242.81448364 97.34149170 C 242.24822998 88.18074799 242.32138062 80.62666321 243.11264038 74.94029999 C 244.55389404 71.43045044 246.50927734 70.12362671 248.76197815 71.06193542 C 250.95167542 74.28572083 252.88737488 79.57448578 254.56393433 86.73545837 C 255.98364258 95.59884644 257.02822876 105.91456604 257.89233398 117.18657684 C 258.75375366 129.17330933 259.41156006 141.63264465 259.90063477 154.23072815 C 260.29046631 166.58688354 260.48547363 178.41259766 260.34631348 189.62152100 C 260.20489502 200.03944397 258.44967651 209.73292542 256.22485352 219.49798584 C 254.38850403 229.71237183 252.57102966 239.99276733 250.84489441 250.78627014 C 249.04832458 261.74240112 247.19876099 273.03616333 247.44270325 294.64959717" stroke-width="2.00000000" fill="rgb(185, 145, 106)" opacity="1.0" stroke="rgb(0, 0, 0)" stroke-opacity="1.0" stroke-linecap="round" stroke-linejoin="round"/>
    <path d="M 198.26730347 235.16151428 C 200.57800293 235.11152649 202.80761719 234.98564148 204.93084717 234.81607056 C 207.18132019 234.62557983 209.30986023 234.57080078 211.54058838 234.45962524 C 213.59013367 234.39973450 215.68438721 234.35523987 217.81015015 234.31872559 C 219.99024963 234.47857666 222.16523743 234.67655945 224.41523743 235.07801819 C 226.78852844 235.55155945 229.23718262 236.09246826 231.76925659 236.62635803 C 234.37995911 237.16592407 236.86187744 237.70932007 239.21310425 238.72506714 C 241.59071350 239.74607849 243.93183899 240.53027344 246.19801331 241.07987976 C 248.18386841 241.32328796 249.62503052 241.76637268 250.49441528 242.40101624 C 250.76707458 243.55880737 250.58993530 245.01495361 250.33293152 246.65802002 C 250.17065430 247.97698975 249.73988342 248.65103149 248.79792786 248.80789185 C 247.32589722 248.69305420 245.46682739 248.35241699 243.32255554 247.74050903 C 241.23176575 246.94030762 239.16430664 245.86090088 237.09010315 244.69277954 C 234.99467468 243.68437195 232.91824341 242.85226440 230.91790771 242.28971863 C 229.03988647 241.61611938 227.11848450 241.15025330 225.19606018 241.17343140 C 223.05200195 241.26554871 220.95980835 241.29510498 218.78346252 241.29043579 C 216.61671448 241.38592529 214.41770935 241.49468994 212.28436279 241.58894348 C 210.18365479 241.53346252 208.11944580 241.57241821 206.10118103 241.48713684 C 204.17315674 241.34928894 202.31773376 241.27861023 200.46978760 241.10888672 C 198.71632385 240.90824890 196.97862244 240.76560974 195.27372742 240.60945129 C 193.54333496 240.47491455 191.84492493 240.33073425 198.26730347 235.16151428" stroke-width="2.00000000" fill="rgb(185, 151, 111)" opacity="1.0" stroke="rgb(65, 50, 39)" stroke-opacity="1.0" stroke-linecap="round" stroke-linejoin="round"/>
    <path d="M 298.93786621 191.63217163 C 296.84829712 192.02575684 294.59747314 192.49464417 292.36169434 192.81137085 C 290.14932251 193.09425354 287.91549683 193.46771240 285.63464355 193.88253784 C 283.21798706 194.31202698 280.60256958 194.66050720 277.86154175 195.04722595 C 275.04061890 195.41761780 272.27566528 195.90248108 269.42388916 196.59994507 C 266.58349609 197.35577393 263.72677612 198.23666382 260.94165039 199.02151489 C 258.46588135 200.07078552 256.34475708 201.02493286 254.38224792 201.58642578 C 252.73010254 201.80432129 251.57363892 201.57759094 251.04899597 200.91880798 C 251.13154602 199.53480530 251.60165405 197.83621216 252.63397217 196.20037842 C 254.46310425 195.05970764 256.83233643 194.07867432 259.55712891 193.11920166 C 262.37252808 192.11006165 265.17239380 191.00198364 268.05633545 190.01684570 C 271.05120850 189.26194763 273.72201538 188.57713318 276.08728027 187.66537476 C 278.07144165 186.33099365 279.99401855 184.98136902 281.84506226 183.84042358 C 283.98004150 182.98901367 286.36300659 182.39915466 288.86618042 182.04992676 C 291.54946899 181.91609192 294.35504150 182.01666260 297.15469360 182.11740112 C 300.01605225 182.52766418 302.74081421 182.93460083 305.33016968 183.51547241 C 307.56829834 184.16728210 309.58389282 184.92161560 311.20733643 185.66844177 C 312.51104736 186.61210632 313.46890259 187.53639221 313.84555054 188.44474792 C 313.97476196 189.42570496 313.71472168 190.43153381 313.20452881 191.47195435 C 312.39001465 192.56660461 311.50958252 193.60768127 310.53948975 194.66293335 C 309.51660156 195.75912476 308.40640259 196.77574158 298.93786621 191.63217163" stroke-width="2.00000000" fill="rgb(196, 154, 110)" opacity="1.0" stroke="rgb(63, 51, 36)" stroke-opacity="1.0" stroke-linecap="round" stroke-linejoin="round"/>
    <path d="M 248.13308716 155.25573730 C 245.97381592 155.33181763 243.86537170 155.39346313 241.69406128 155.46714783 C 239.65419006 155.53828430 237.45068359 155.58151245 235.38243103 155.60739136 C 233.17614746 155.66026306 231.06027222 155.66325378 228.94874573 155.63934326 C 226.96504211 155.55400085 224.97805786 155.43772888 223.08952332 155.30381775 C 221.27583313 155.05522156 219.63716125 154.73872375 218.18988037 154.27096558 C 216.87739563 153.81550598 215.87947083 153.24998474 215.10659790 152.56929016 C 214.48561096 151.81701660 214.22567749 150.99359131 214.12500000 150.09776306 C 214.28938293 149.19519043 214.62577820 148.20462036 215.26019287 147.24169922 C 216.01437378 146.10868835 217.11822510 145.03335571 218.27210999 143.97702026 C 219.78234863 142.83056641 221.37667847 141.73921204 223.23396301 140.64505005 C 225.21516418 139.56941223 227.35304260 138.65525818 229.47340393 137.80705261 C 231.93945312 137.15197754 234.32304382 136.66181946 236.74171448 136.38488770 C 239.04417419 136.35261536 241.37464905 136.48417664 243.45252991 137.00119019 C 245.40722656 137.61993408 246.95227051 138.60656738 248.19860840 139.80108643 C 248.83959961 141.25337219 249.17324829 142.82926941 249.50547791 144.31965637 C 250.10870361 145.66398621 250.97981262 146.74874878 252.01049805 147.67126465 C 253.01007080 148.46217346 253.99548340 149.31561279 254.82893372 150.22309875 C 255.46183777 151.17570496 255.84304810 152.29335022 256.07373047 153.57385254 C 256.12832642 154.84556580 256.20428467 156.08387756 256.21414185 157.37263489 C 256.17401123 158.63555908 256.07424927 160.02229309 248.13308716 155.25573730" stroke-width="2.00000000" fill="rgb(26, 21, 14)" opacity="1.0" stroke="rgb(230, 214, 131)" stroke-opacity="0.97140473" stroke-linecap="round" stroke-linejoin="round"/>
    <path d="M 221.50886536 249.57699585 C 219.88540649 252.91339111 218.11360168 256.27627563 216.04829407 259.36663818 C 214.02558899 262.48422241 211.39616394 264.98098755 208.52107239 267.30407715 C 205.53999329 269.49063110 202.33587646 271.37362671 198.77290344 272.81677246 C 195.01422119 274.17858887 191.17687988 275.03359985 187.18264771 275.39700317 C 182.99661255 275.49319458 178.82331848 275.48202515 174.90242004 274.73880005 C 170.94711304 273.45767212 167.22795105 271.87200928 163.85330200 269.83016968 C 160.56631470 267.67950439 157.64213562 265.10339355 155.15272522 261.99917603 C 152.66445923 258.89901733 150.74386597 255.45462036 149.50848389 251.48255920 C 148.45574951 247.44612122 147.74510193 243.27705383 147.51989746 239.20817566 C 147.79937744 235.23762512 148.42439270 231.28486633 149.40441895 227.46923828 C 150.59751892 223.94277954 152.16043091 220.58538818 154.12106323 217.61372375 C 156.30630493 214.85734558 158.60688782 212.25173950 161.19108582 209.84236145 C 164.09753418 207.72782898 167.45610046 206.00903320 170.79101562 204.32504272 C 174.40710449 202.87336731 178.24665833 201.93531799 182.20870972 201.42002869 C 186.30123901 201.11694336 190.47343445 201.28930664 194.53337097 202.04208374 C 198.61669922 202.94149780 202.37716675 204.50802612 205.88293457 206.67221069 C 209.37713623 208.87789917 212.48638916 211.53747559 215.17030334 214.37661743 C 217.62390137 217.30091858 219.63043213 220.49661255 221.28892517 223.85375977 C 222.56800842 227.23173523 223.39738464 230.80570984 223.49775696 234.61563110 C 223.41021729 238.59501648 223.54557800 242.48551941 221.50886536 249.57699585" stroke-width="2.00000000" fill="rgb(62, 136, 48)" opacity="1.0" stroke="rgb(2, 0, 3)" stroke-opacity="0.97380364" stroke-linecap="round" stroke-linejoin="round"/>
    <path d="M 236.57426453 139.81730652 C 235.34977722 135.80735779 234.12918091 131.82061768 232.66868591 127.84553528 C 230.91346741 124.07623291 228.85505676 120.73593903 226.56277466 117.70939636 C 223.81111145 115.18243408 220.56796265 113.20910645 217.19346619 111.30981445 C 214.00724792 109.26491547 211.30410767 106.84764862 208.79698181 104.16538239 C 206.52616882 101.27156830 204.59523010 98.23633575 202.95321655 94.82450867 C 201.51632690 91.37960815 200.37405396 87.86524963 199.57765198 84.09076691 C 199.20230103 79.91226959 199.27532959 75.78905487 199.70005798 71.83496857 C 200.62875366 67.79714203 201.83985901 63.54138184 203.24511719 59.44628906 C 205.14048767 55.62920380 207.17745972 52.01432037 209.60945129 48.36997223 C 212.06835938 45.13498306 214.96495056 42.21176147 217.99470520 39.57825470 C 220.89477539 37.01283264 224.10693359 34.66968155 227.59774780 32.87654114 C 231.06140137 30.89347076 234.63540649 29.22348022 238.69860840 27.99263382 C 242.84677124 26.89001083 246.99475098 26.12425041 251.17390442 25.67044830 C 255.50033569 25.43511963 259.80044556 25.51426697 263.81332397 26.01826668 C 267.75198364 26.60148430 271.71423340 27.50863075 275.35809326 28.82259560 C 278.84939575 30.05201721 282.19049072 31.54919052 285.18051147 33.32096481 C 288.20925903 35.03601456 290.92639160 37.00966263 293.56631470 38.92356873 C 296.09347534 41.06908417 298.63732910 43.29287720 301.02819824 46.00424576 C 303.19235229 49.15591812 305.35040283 52.44998932 307.43960571 55.69587326 C 309.35037231 59.31339264 310.82153320 62.95910263 311.81359863 66.70117950 C 312.75201416 70.63271332 313.41552734 74.63591766 313.77368164 78.75086975 C 313.80917358 82.75392914 313.45153809 86.82983398 312.88348389 90.90598297 C 311.98229980 94.81502533 310.87716675 98.60667419 309.43969727 102.18998718 C 307.72784424 105.84994507 305.85372925 109.25532532 303.68045044 112.51976776 C 301.34033203 115.87494659 298.79284668 118.89669037 296.06335449 121.82335663 C 293.14990234 124.44188690 290.09805298 126.85420990 286.91287231 128.96444702 C 283.50573730 130.82978821 280.13070679 132.59599304 276.52581787 134.04455566 C 272.91174316 135.27928162 269.19110107 136.26258850 265.50466919 136.96815491 C 261.64138794 137.37628174 257.90002441 137.57040405 254.15922546 137.52912903 C 250.35330200 137.35392761 246.58782959 137.13949585 236.57426453 139.81730652" stroke-width="2.00000000" fill="rgb(75, 152, 58)" opacity="1.0" stroke="rgb(8, 5, 6)" stroke-opacity="1.0" stroke-linecap="round" stroke-linejoin="round"/>
    <path d="M 370.53775024 183.20382690 C 370.59631348 186.02908325 370.82666016 188.92210388 370.65103149 191.84143066 C 370.61364746 194.69142151 370.09844971 197.69146729 369.26776123 200.86961365 C 368.28393555 204.15492249 366.94131470 207.29920959 365.44772339 210.53219604 C 363.83123779 213.55245972 362.01821899 216.35839844 359.91079712 219.09390259 C 357.74212646 221.67030334 355.32464600 223.93530273 352.79147339 226.23225403 C 350.22061157 228.18177795 347.33786011 229.85224915 344.14141846 231.13519287 C 341.09384155 232.48722839 337.95733643 233.73805237 334.68988037 234.74539185 C 331.33096313 235.49440002 327.91928101 236.01457214 324.66903687 236.24758911 C 321.41906738 236.30999756 318.13201904 235.85182190 314.88208008 235.29960632 C 311.74853516 234.62756348 308.56713867 233.94343567 305.36303711 232.89128113 C 302.49588013 231.62179565 299.91662598 229.82688904 297.00729370 228.18649292 C 294.30789185 226.35121155 291.82995605 224.19078064 289.57476807 221.56237793 C 287.45126343 218.80104065 285.39489746 215.90997314 283.50320435 213.02636719 C 282.11004639 209.82931519 280.80218506 206.62353516 279.66973877 203.57788086 C 278.84518433 200.66703796 278.44894409 197.73252869 278.61047363 194.76759338 C 279.19006348 191.71066284 279.49505615 188.52716064 279.47082520 185.37600708 C 279.35290527 182.15591431 279.54226685 179.06768799 279.88693237 176.09857178 C 280.54910278 172.92922974 281.49966431 169.91479492 282.67611694 167.08963013 C 284.10946655 164.53567505 285.87228394 162.02752686 287.96957397 159.67181396 C 290.28213501 157.34313965 292.79949951 155.15782166 295.43859863 153.05935669 C 298.27191162 150.94987488 301.31335449 148.90873718 304.33514404 147.01324463 C 307.41519165 145.25762939 310.46102905 143.72288513 313.62866211 142.38150024 C 316.84860229 141.38887024 319.98794556 140.66035461 323.02737427 140.30448914 C 325.99652100 140.40118408 329.00616455 140.83020020 331.92932129 141.53501892 C 334.82199097 142.04293823 337.79891968 142.73144531 340.60717773 143.88394165 C 343.49682617 145.08889771 346.29879761 146.53413391 349.02191162 148.15803528 C 351.70904541 150.07527161 354.30310059 152.07330322 356.77377319 154.35554504 C 359.12243652 156.73597717 361.34606934 159.33343506 363.23626709 162.27465820 C 365.11062622 165.30528259 366.66168213 168.54617310 368.12771606 172.16979980 C 369.45004272 175.91049194 370.67556763 179.69116211 370.53775024 183.20382690" stroke-width="2.00000000" fill="rgb(68, 143, 54)" opacity="1.0" stroke="rgb(0, 0, 2)" stroke-opacity="0.9973017" stroke-linecap="round" stroke-linejoin="round"/>
    <path d="M 202.16403198 188.25164795 C 198.82221985 188.83518982 195.48144531 189.38894653 192.18069458 189.60786438 C 189.05683899 189.55311584 186.01298523 189.48947144 182.91552734 189.19323730 C 179.87271118 188.39494324 176.85719299 187.63824463 174.07334900 186.64251709 C 171.43795776 185.39376831 169.08882141 183.73098755 166.71253967 181.91165161 C 164.30596924 180.04096985 162.00195312 178.04808044 159.99385071 175.95387268 C 158.25059509 173.54476929 156.66281128 171.01316833 155.27162170 168.50549316 C 153.92127991 165.98046875 153.22958374 163.11096191 152.60549927 160.24650574 C 151.94302368 157.51431274 151.47190857 154.83746338 151.38882446 151.89309692 C 151.30218506 148.88352966 151.44691467 145.86421204 151.84309387 142.88125610 C 152.60496521 139.90890503 153.60655212 136.86141968 154.57780457 133.84284973 C 155.82676697 130.89797974 157.22340393 128.11491394 158.73095703 125.56262207 C 160.53869629 123.09809113 162.54266357 120.72785950 164.58415222 118.56152344 C 166.75430298 116.31050110 169.11170959 114.28553772 171.68778992 112.57410431 C 174.34867859 111.14343262 177.11351013 109.89148712 179.65994263 108.43910217 C 182.45402527 107.22544098 185.29617310 106.52333069 188.26829529 106.20575714 C 191.22323608 105.58998871 194.13059998 105.40214539 196.86465454 105.70067596 C 199.35301208 106.11411285 201.80249023 106.39810181 204.24418640 106.69449615 C 206.45874023 107.60482788 208.63392639 109.06706238 211.01513672 110.54606628 C 213.48083496 111.97611237 215.79315186 113.64786530 217.97978210 115.53050232 C 219.88290405 117.80267334 221.67652893 120.26728821 223.31770325 122.93762970 C 224.84349060 125.67515564 226.31146240 128.45030212 227.52963257 131.24287415 C 228.98896790 133.88629150 230.48127747 136.35610962 231.94178772 138.73239136 C 233.39572144 140.98818970 234.65924072 143.30116272 235.70919800 145.67013550 C 236.53462219 148.02165222 236.90568542 150.39860535 237.02310181 152.86306763 C 236.70097351 155.27284241 236.04850769 157.74299622 234.97412109 160.24673462 C 233.53457642 162.65814209 231.93646240 164.98240662 230.01768494 167.28918457 C 227.98753357 169.49156189 225.85252380 171.61582947 223.61056519 173.62683105 C 221.25224304 175.44415283 218.77600098 177.16740417 216.18827820 178.82188416 C 213.54989624 180.40261841 210.81745911 182.06880188 208.07850647 183.97834778 C 205.47332764 185.99893188 203.04716492 188.18853760 202.16403198 188.25164795" stroke-width="2.00000000" fill="rgb(97, 169, 77)" opacity="1.0" stroke="rgb(1, 0, 3)" stroke-opacity="1.0" stroke-linecap="round" stroke-linejoin="round"/>
    <path d="M 299.37240601 144.85386658 C 296.78155518 143.18878174 294.20727539 141.38523865 291.58792114 139.56726074 C 289.03091431 137.64532471 286.46981812 135.52752686 283.96850586 133.36592102 C 281.29165649 131.00531006 278.89138794 128.52983093 276.54165649 125.85093689 C 274.35900879 123.23828888 272.41473389 120.53073883 270.81512451 117.80693817 C 269.67886353 115.08042908 269.29318237 112.14450073 269.34573364 109.09670258 C 269.41275024 105.77688599 269.98934937 102.31742859 271.11752319 98.91577911 C 272.57836914 95.39179230 274.34823608 91.78747559 276.56417847 88.40063477 C 279.04092407 85.20956421 281.88943481 82.38083649 284.96209717 79.91971588 C 288.17492676 77.70129395 291.48211670 75.90491486 295.01037598 74.40193939 C 298.61532593 73.35285187 302.22637939 72.66818237 305.85360718 72.35140991 C 309.54843140 72.25357819 313.03939819 72.26957703 316.47640991 72.64109802 C 319.69592285 73.79141235 322.98602295 75.43361664 326.01828003 77.31372833 C 329.04736328 79.50748444 331.73406982 82.10464478 334.28198242 85.05155945 C 336.67947388 88.10563660 338.68023682 91.47392273 340.26107788 94.94231415 C 341.42391968 98.50502777 341.79635620 102.15990448 341.82589722 105.92896271 C 341.79388428 109.68935394 341.45001221 113.42420959 340.41973877 117.03163147 C 338.85491943 120.53411102 336.68029785 123.90843964 334.15231323 127.11550140 C 331.26712036 130.13471985 328.34759521 132.85142517 325.23727417 135.05339050 C 321.83947754 136.16165161 318.38082886 136.85939026 314.99475098 137.43540955 C 311.56280518 137.94967651 307.98239136 138.63731384 299.37240601 144.85386658" stroke-width="2.00000000" fill="rgb(97, 172, 76)" opacity="1.0" stroke="rgb(0, 0, 0)" stroke-opacity="1.0" stroke-linecap="round" stroke-linejoin="round"/>
    <path d="M 240.56384277 190.62626648 C 238.55029297 191.58058167 236.22190857 192.42367554 233.84165955 193.04405212 C 231.43182373 193.58711243 228.85330200 193.56582642 226.12353516 193.45002747 C 223.40170288 193.30538940 220.58628845 192.84193420 217.82672119 192.25256348 C 215.32531738 191.40832520 212.90895081 189.99560547 210.64076233 188.12777710 C 208.53097534 186.10760498 206.57667542 183.91856384 204.92880249 181.44461060 C 203.50463867 178.91841125 202.55400085 176.20629883 202.06405640 173.37998962 C 201.71420288 170.43572998 201.55912781 167.58271790 201.64411926 164.76182556 C 202.09823608 161.98745728 202.89552307 159.23959351 204.03118896 156.57533264 C 205.33857727 154.04621887 206.83776855 151.63485718 208.78662109 149.41993713 C 211.02275085 147.46534729 213.33709717 145.60150146 215.84181213 143.99972534 C 218.44920349 142.55778503 221.12239075 141.41314697 223.81463623 140.62921143 C 226.46109009 140.41477966 229.13653564 140.51167297 231.90133667 140.65673828 C 234.54487610 140.94488525 237.16535950 141.43331909 239.71148682 142.24839783 C 242.24165344 143.36268616 244.67297363 144.76239014 246.95706177 146.22544861 C 249.07444763 147.91873169 250.91162109 149.89064026 252.54739380 152.11012268 C 253.82189941 154.39465332 254.75744629 156.94421387 255.46005249 159.60438538 C 255.83598328 162.45251465 255.94664001 165.24147034 255.67588806 168.08439636 C 255.24539185 170.98866272 254.52082825 173.81394958 253.60916138 176.46842957 C 252.46397400 179.04550171 251.01792908 181.29316711 249.39215088 183.27606201 C 247.90133667 185.30604553 246.52804565 187.34513855 240.56384277 190.62626648" stroke-width="2.00000000" fill="rgb(103, 174, 81)" opacity="1.0" stroke="rgb(0, 0, 0)" stroke-opacity="1.0" stroke-linecap="round" stroke-linejoin="round"/>
    <path d="M 308.10513306 169.09719849 C 305.70281982 170.62318420 303.29821777 172.00712585 300.66906738 173.32481384 C 297.83703613 174.44189453 295.01129150 175.23690796 292.11117554 175.77845764 C 289.18402100 176.25901794 286.30856323 176.34815979 283.34420776 176.12997437 C 280.40435791 175.63214111 277.36874390 174.98602295 274.45660400 174.16706848 C 271.68634033 172.96675110 269.05856323 171.55743408 266.56060791 169.58065796 C 264.30490112 167.25816345 262.22811890 164.75398254 260.25640869 162.03471375 C 258.83401489 159.11329651 257.83920288 156.01802063 257.35763550 152.77279663 C 257.22982788 149.48814392 257.39364624 146.14466858 257.71920776 142.98007202 C 258.21917725 139.79843140 259.21289062 136.77258301 260.61627197 134.05068970 C 262.15206909 131.37066650 263.90783691 128.83068848 266.16073608 126.59291077 C 268.58538818 124.52114105 271.26016235 122.61478424 273.86016846 120.69440460 C 276.55493164 119.09725189 279.45559692 117.86136627 282.48553467 117.12673187 C 285.63961792 116.61578369 288.77670288 116.49901581 291.96087646 116.60371399 C 295.13946533 116.99345398 298.29266357 117.66388702 301.31094360 118.67005157 C 304.16638184 120.05857849 306.86163330 121.84345245 309.38723755 123.95500946 C 311.77783203 126.23742676 313.78091431 128.79989624 315.51153564 131.47340393 C 316.97213745 134.31788635 317.94808960 137.43991089 318.49414062 140.54246521 C 318.83197021 143.79022217 318.89871216 146.73471069 318.78878784 149.68003845 C 318.47869873 152.46995544 317.88009644 155.16809082 316.99499512 157.74534607 C 315.98336792 160.21372986 314.91809082 162.65438843 308.10513306 169.09719849" stroke-width="2.00000000" fill="rgb(98, 175, 77)" opacity="1.0" stroke="rgb(0, 0, 0)" stroke-opacity="1.0" stroke-linecap="round" stroke-linejoin="round"/>
    <path d="M 237.97036743 215.69558716 C 236.82582092 215.85797119 235.71818542 216.06468201 234.71165466 216.49441528 C 233.90917969 217.09028625 233.04072571 217.78097534 232.14141846 218.06858826 C 231.13899231 218.16865540 230.24046326 218.01763916 229.29306030 218.04753113 C 228.41679382 218.09902954 227.74630737 218.05592346 227.18208313 217.78532410 C 226.70805359 217.15098572 226.28916931 216.30532837 226.01489258 215.38943481 C 225.92393494 214.34487915 225.98805237 213.13897705 225.94058228 211.95944214 C 226.03141785 210.73048401 226.02769470 209.51567078 225.96588135 208.37429810 C 225.95103455 207.20936584 226.00190735 206.21003723 226.08624268 205.20317078 C 226.52586365 204.27459717 227.17927551 203.39573669 228.01167297 202.52487183 C 228.74034119 201.69862366 229.50724792 200.93951416 230.36167908 200.23875427 C 231.30740356 199.61419678 232.36782837 198.91276550 233.44422913 198.20690918 C 234.39476013 197.58460999 235.31257629 197.12802124 236.24511719 196.82321167 C 237.20487976 196.81187439 238.19670105 197.03753662 239.24557495 197.23658752 C 240.20924377 197.65049744 241.00323486 198.30958557 241.56655884 198.99076843 C 241.94805908 199.63568115 242.10812378 200.47973633 242.07882690 201.37690735 C 242.04762268 202.49462891 242.05140686 203.70979309 242.03666687 204.95758057 C 241.97944641 206.21914673 241.93026733 207.44111633 242.02339172 208.57734680 C 242.15463257 209.57830811 242.19984436 210.51646423 242.05490112 211.29447937 C 241.65170288 211.92935181 241.17466736 212.48385620 240.63345337 212.94963074 C 240.05113220 213.38404846 239.42855835 213.83723450 237.97036743 215.69558716" stroke-width="0.93350554" fill="rgb(255, 255, 255)" opacity="1.0" stroke="rgb(255, 255, 255)" stroke-opacity="0.0" stroke-linecap="round" stroke-linejoin="round"/>
    <path d="M 264.73831177 61.95849991 C 264.70227051 61.93651199 264.72268677 61.95260239 264.71697998 61.95223236 C 264.72183228 61.94179916 264.66986084 61.94804764 264.71520996 61.97427368 C 264.73800659 61.93796539 264.66220093 61.97317505 264.70538330 61.95304871 C 264.72113037 61.95235443 264.66067505 61.98558807 264.71096802 61.94180679 C 264.69906616 61.95749283 264.68087769 61.96241379 264.67135620 61.96046066 C 264.69458008 61.92589951 264.67230225 61.95008469 264.70117188 61.95693970 C 264.68679810 61.94100571 264.68188477 61.92205429 264.68658447 61.95398331 C 264.70993042 61.91952133 264.66876221 61.92512512 264.71005249 61.94879150 C 264.67547607 61.90981674 264.71850586 61.91716385 264.68008423 61.96125412 C 264.70751953 61.87357712 264.70410156 61.96289825 264.73831177 61.95849991" stroke-width="2.00000000" fill="rgb(61, 209, 0)" opacity="1.0" stroke="rgb(75, 155, 56)" stroke-opacity="0.9493796" stroke-linecap="round" stroke-linejoin="round"/>
    <path d="M 348.18658447 363.09234619 C 340.33877563 363.55651855 332.61120605 364.03793335 324.84158325 364.30752563 C 317.12362671 364.20025635 309.42559814 364.16717529 301.79174805 364.24664307 C 294.15432739 364.25299072 286.66043091 364.23568726 278.99435425 364.27581787 C 271.36288452 364.25808716 263.74020386 364.24035645 256.14941406 364.25872803 C 248.34732056 364.31124878 240.20896912 364.31420898 231.66383362 364.28076172 C 222.46417236 364.26324463 212.46214294 364.25473022 201.60057068 364.16043091 C 190.04751587 364.29614258 178.39340210 364.29525757 167.35099792 364.17144775 C 157.49000549 364.25744629 149.73947144 364.74377441 144.47975159 364.29046631 C 142.91705322 360.66897583 142.78590393 355.90380859 142.83807373 351.68731689 C 144.42637634 349.78125000 147.82603455 349.89447021 152.77587891 350.38125610 C 158.85145569 350.22473145 165.56396484 350.44796753 173.05363464 351.29067993 C 181.20504761 351.61691284 189.58288574 351.55273438 197.82298279 351.49539185 C 205.82756042 351.49926758 213.73637390 351.51986694 221.49230957 351.56439209 C 229.00813293 351.55044556 236.37654114 351.40866089 243.68241882 350.99966431 C 251.18063354 350.42224121 258.91772461 350.58239746 266.89651489 351.23880005 C 275.21136475 351.59484863 283.82345581 351.55203247 292.67709351 351.50543213 C 301.47628784 351.47949219 310.01312256 351.52316284 318.18881226 351.50939941 C 325.76065063 351.63763428 332.73937988 351.73446655 338.94522095 351.50332642 C 344.59487915 350.80480957 349.65417480 349.97375488 354.71307373 349.58090210 C 359.80044556 349.79849243 365.02902222 349.97824097 348.18658447 363.09234619" stroke-width="2.00000000" fill="rgb(178, 64, 5)" opacity="1.0" stroke="rgb(0, 0, 8)" stroke-opacity="1.0" stroke-linecap="round" stroke-linejoin="round"/>
    <path d="M 352.66445923 376.11868286 C 352.52899170 379.24716187 352.46206665 382.47158813 352.28451538 385.54162598 C 352.17568970 388.49783325 351.97894287 391.48324585 351.75390625 394.40466309 C 351.53369141 397.25732422 351.27413940 400.21264648 351.05841064 403.10440063 C 350.82150269 406.18762207 350.53033447 409.42489624 350.34707642 412.89254761 C 350.08386230 416.50704956 349.84933472 420.31478882 349.65582275 424.22375488 C 349.39395142 428.10205078 349.19143677 431.97354126 348.95269775 435.54876709 C 348.80328369 438.78341675 348.65570068 441.51492310 348.34890747 443.56137085 C 347.71936035 444.71212769 346.45187378 445.11160278 344.81668091 445.04901123 C 342.97238159 444.96878052 341.18402100 444.75415039 339.76147461 444.16363525 C 338.98632812 442.87097168 338.72064209 440.96020508 338.92904663 438.57504272 C 339.20239258 435.88836670 339.56954956 432.81549072 339.83642578 429.66165161 C 339.99645996 426.42050171 340.16479492 423.08981323 340.38284302 419.79342651 C 340.60452271 416.50769043 340.80429077 413.14077759 340.94348145 409.89712524 C 341.15069580 406.63150024 341.37307739 403.31704712 341.52920532 399.98233032 C 341.76870728 396.64306641 341.93014526 393.24890137 342.10549927 389.90350342 C 342.33489990 386.56515503 342.52743530 383.16186523 342.72366333 379.83648682 C 342.76580811 376.60067749 342.86264038 373.63937378 342.71688843 371.03689575 C 342.63452148 369.05245972 342.77423096 367.68112183 343.72076416 366.94659424 C 345.35708618 366.75830078 347.41500854 366.84851074 349.72094727 366.87039185 C 351.95516968 366.53164673 354.14617920 366.19735718 352.66445923 376.11868286" stroke-width="0.67980880" fill="rgb(251, 171, 80)" opacity="1.0" stroke="rgb(255, 161, 91)" stroke-opacity="0.47082335" stroke-linecap="round" stroke-linejoin="round"/>
    <path d="M 238.98066711 139.25704956 C 237.76676941 138.89338684 236.57752991 138.60623169 235.34268188 138.30833435 C 234.01275635 138.09414673 232.80067444 137.86347961 231.81626892 137.81224060 C 231.08428955 137.73287964 230.55230713 137.48252869 230.06515503 137.08444214 C 229.73153687 136.39848328 229.59359741 135.31704712 229.80361938 134.03735352 C 230.00512695 132.60865784 229.92398071 131.06405640 229.47787476 129.29698181 C 228.84353638 127.44194794 228.14968872 125.70042419 227.20124817 124.07859039 C 226.11648560 122.33082581 225.01925659 120.83588409 223.94622803 119.66867828 C 223.22525024 118.61212158 222.72923279 117.79144287 222.60462952 117.18804932 C 222.91255188 116.94223785 223.49230957 117.03020477 224.41503906 117.35968781 C 225.67034912 118.03527832 227.12255859 118.74829102 228.93750000 119.28910828 C 230.62091064 120.17327118 232.09062195 120.90989685 233.69325256 121.44805908 C 235.34118652 121.88150024 236.96858215 122.29641724 238.52381897 122.49481964 C 240.00993347 122.63006592 241.12860107 122.75337982 242.00541687 122.91931915 C 242.82354736 123.04712677 243.39437866 123.45817566 243.58866882 124.25898743 C 243.79429626 125.33408356 244.01283264 126.66890717 244.27694702 128.10243225 C 244.39715576 129.71711731 244.76947021 131.37414551 245.27989197 133.01469421 C 245.47964478 134.71324158 245.47138977 136.37852478 245.54722595 137.82954407 C 245.75384521 139.20030212 245.65464783 140.45242310 245.59114075 141.47206116 C 245.49877930 142.06848145 245.35038757 142.47552490 245.06140137 142.47331238 C 244.84387207 142.06265259 244.78526306 141.51507568 238.98066711 139.25704956" stroke-width="2.00000000" fill="rgb(243, 249, 241)" opacity="1.0" stroke="rgb(7, 5, 9)" stroke-opacity="1.0" stroke-linecap="round" stroke-linejoin="round"/>
    <path d="M 252.78773499 137.28640747 C 252.13972473 133.57693481 251.49005127 130.07423401 250.83544922 126.99872589 C 250.13398743 124.49168396 249.50126648 122.57743073 249.40789795 121.24693298 C 250.23255920 120.52535248 251.64303589 120.13380432 253.15171814 120.08494568 C 254.25402832 120.57995605 254.60668945 121.72274017 254.47508240 123.62078094 C 254.39079285 126.23288727 254.44717407 129.25889587 254.73240662 132.60044861 C 254.87461853 135.75547791 255.24089050 138.61119080 255.97842407 141.11135864 C 256.80090332 143.42262268 257.24987793 145.53540039 257.40582275 147.56240845 C 257.22952271 149.23973083 256.72122192 150.44364929 255.94065857 150.92747498 C 255.05513000 150.55975342 254.31764221 149.65365601 253.74464417 148.46894836 C 253.55366516 147.19956970 253.90190125 145.97628784 252.78773499 137.28640747" stroke-width="2.00000000" fill="rgb(32, 25, 20)" opacity="1.0" stroke="rgb(255, 201, 208)" stroke-opacity="0.3999722" stroke-linecap="round" stroke-linejoin="round"/>
    <path d="M 359.17797852 364.53616333 C 359.14044189 363.98059082 358.98159790 363.47241211 358.52499390 363.16244507 C 357.88259888 363.30883789 357.04049683 363.34136963 356.00811768 363.04998779 C 354.63027954 362.71801758 353.20916748 362.84094238 351.91726685 363.08374023 C 350.52154541 363.17318726 349.37567139 362.99224854 348.72463989 362.51766968 C 348.47601318 361.49584961 348.53125000 360.07495117 348.65509033 358.40316772 C 348.72161865 356.79138184 348.69442749 355.16760254 348.59887695 353.57797241 C 348.57846069 352.38912964 349.06112671 351.75350952 349.81347656 351.52081299 C 350.82189941 351.46490479 351.91931152 351.46212769 353.18811035 351.49932861 C 354.46163940 351.48095703 355.75421143 351.41241455 357.13488770 351.50521851 C 358.56698608 351.88421631 359.98397827 352.58135986 359.17797852 364.53616333" stroke-width="2.00000000" fill="rgb(231, 159, 80)" opacity="1.0" stroke="rgb(41, 11, 5)" stroke-opacity="1.0" stroke-linecap="round" stroke-linejoin="round"/>
  </g>
</svg>
