<?xml version="1.0" ?>
<svg xmlns="http://www.w3.org/2000/svg" version="1.1" width="512" height="512" viewBox="0 0 512 512">
  <defs/>
  <g>
    <path d="M 351.35531616 447.40963745 C 347.90499878 448.60507202 343.95291138 448.73519897 339.50659180 448.51669312 C 334.70065308 448.54556274 329.56048584 448.51538086 324.09335327 448.47525024 C 318.30001831 448.51885986 312.28091431 448.52664185 305.99108887 448.57748413 C 299.52026367 448.52087402 292.80883789 448.53601074 285.84033203 448.57183838 C 278.67630005 448.56710815 271.30969238 448.51345825 263.66003418 448.54483032 C 255.76632690 448.60061646 247.72006226 448.56439209 239.50646973 448.55548096 C 231.02624512 448.48474121 222.44656372 448.60113525 213.90425110 448.50802612 C 205.30291748 448.46777344 196.83448792 448.59735107 188.60734558 448.59536743 C 180.77098083 448.49661255 173.44062805 448.50466919 166.78790283 448.47430420 C 161.02864075 448.53866577 156.31462097 448.58795166 152.84683228 448.39447021 C 150.81575012 447.46997070 150.21713257 445.46566772 150.35267639 442.03628540 C 150.42564392 437.20739746 150.21545410 431.27246094 150.06916809 424.59069824 C 149.64640808 417.26132202 149.32723999 409.42681885 148.98548889 401.38510132 C 148.74739075 393.18270874 148.37837219 385.13870239 148.03395081 377.42617798 C 148.12750244 370.15957642 147.81791687 363.55187988 147.31504822 357.94384766 C 146.88232422 353.49981689 147.09272766 350.23385620 148.44531250 348.35134888 C 151.35888672 348.27081299 155.74946594 348.45669556 161.20381165 348.41445923 C 167.61087036 348.38272095 174.93138123 348.28997803 182.76860046 348.31777954 C 191.13685608 348.37536621 199.96969604 348.30847168 209.11361694 348.28878784 C 218.31399536 348.40997314 227.57780457 348.40466309 236.67892456 348.30081177 C 245.67292786 347.77517700 254.52285767 347.48818970 263.32012939 347.71096802 C 271.96780396 348.47601318 280.58279419 348.46090698 289.34777832 348.33407593 C 298.21176147 348.19732666 306.89376831 348.23754883 315.25204468 348.32507324 C 323.34637451 348.23605347 330.98855591 348.34127808 338.06466675 348.34252930 C 344.50463867 348.43823242 349.91891479 348.33322144 354.05130005 347.92947388 C 356.71871948 348.17739868 357.96823120 349.81634521 358.09359741 352.80389404 C 357.75756836 356.77203369 357.26794434 361.51028442 356.61251831 366.86444092 C 356.11160278 372.90856934 355.75344849 379.56552124 355.36550903 386.75292969 C 355.02807617 394.44656372 354.31549072 402.29489136 353.80239868 410.27832031 C 353.18237305 418.31884766 353.13494873 426.19610596 351.35531616 447.40963745" stroke-width="0.73991364" fill="rgb(16, 8, 9)" opacity="1.0" stroke="rgb(0, 0, 0)" stroke-opacity="0.3798156" stroke-linecap="round" stroke-linejoin="round"/>
    <path d="M 348.62020874 437.36541748 C 342.51940918 436.39898682 336.43927002 435.48648071 330.33001709 434.58843994 C 324.22387695 433.73165894 318.15161133 432.92279053 312.02838135 432.21588135 C 305.75128174 431.66455078 299.37570190 431.32437134 292.88552856 431.08020020 C 286.33096313 431.00189209 279.68048096 431.15667725 272.88601685 431.57403564 C 265.88586426 432.11981201 258.70001221 432.87249756 251.46667480 433.78482056 C 244.12220764 434.86154175 236.62104797 436.07711792 229.07756042 437.36804199 C 221.56155396 438.66833496 214.04240417 439.99191284 206.63433838 441.20758057 C 199.41577148 442.30349731 192.34504700 443.27267456 185.56080627 444.03268433 C 179.24952698 444.61029053 173.47399902 444.83883667 168.26954651 444.86480713 C 163.71734619 444.79330444 159.97544861 444.78414917 157.04783630 444.84884644 C 155.03440857 444.79418945 154.03346252 443.92269897 153.78794861 441.95013428 C 153.81483459 438.94277954 153.76821899 434.96023560 153.66885376 430.25274658 C 153.50881958 424.86614990 153.22239685 418.87619019 153.06347656 412.59814453 C 152.82125854 406.05847168 152.61996460 399.38488770 152.41088867 392.84814453 C 152.11734009 386.56057739 151.86785889 380.60128784 151.53146362 375.09124756 C 151.20971680 370.25540161 151.50764465 366.24652100 152.73352051 362.97390747 C 155.05972290 360.41503906 158.30056763 358.57037354 162.42457581 357.34625244 C 167.27029419 356.72476196 172.71897888 356.81298828 178.61260986 357.59191895 C 184.91903687 359.08248901 191.50463867 361.20663452 198.34216309 363.70971680 C 205.40899658 365.89175415 212.77032471 367.05221558 220.38694763 367.10406494 C 228.13351440 367.21350098 236.05346680 367.36523438 244.01191711 367.11123657 C 251.95825195 367.12667847 259.71810913 366.91644287 267.31454468 366.97534180 C 274.79714966 367.12896729 282.20227051 366.98803711 289.38305664 367.06542969 C 296.36868286 366.75784302 303.17593384 367.02301025 309.78952026 367.13562012 C 316.14205933 367.24899292 322.20886230 367.20208740 327.89288330 367.12588501 C 333.06591797 366.87860107 337.53942871 366.87692261 341.33309937 367.41549683 C 344.33340454 369.02896118 346.66104126 371.58038330 348.36566162 374.97674561 C 349.54324341 379.09100342 350.30859375 383.82125854 350.71432495 389.10336304 C 350.91439819 394.72088623 350.87149048 400.42630005 350.69610596 406.26321411 C 350.27117920 412.21557617 349.77059937 418.26522827 348.62020874 437.36541748" stroke-width="0.81233835" fill="rgb(175, 71, 0)" opacity="1.0" stroke="rgb(137, 72, 32)" stroke-opacity="0.95233727" stroke-linecap="round" stroke-linejoin="round"/>
    <path d="M 329.42562866 445.12268066 C 321.22970581 445.06793213 313.02835083 445.02084351 304.78347778 445.04208374 C 296.56472778 445.05148315 288.40844727 445.09805298 280.16281128 445.05068970 C 271.97964478 445.00805664 263.86926270 445.01296997 255.77818298 445.00076294 C 247.80505371 445.00628662 239.95249939 445.04946899 232.24215698 444.98083496 C 224.78599548 444.96267700 217.52113342 444.93743896 210.61854553 445.04605103 C 204.05444336 444.97180176 197.90080261 444.93231201 192.27590942 444.94146729 C 187.12741089 445.00454712 182.65582275 444.94058228 178.80934143 444.71902466 C 175.73904419 444.31222534 173.40528870 443.81671143 171.86427307 442.98666382 C 171.09677124 441.94586182 171.21597290 440.71749878 172.07263184 439.44381714 C 173.75981140 438.06228638 176.17463684 436.66357422 179.38296509 435.24682617 C 183.21479797 433.84048462 187.69523621 432.43978882 192.81535339 431.14599609 C 198.42094421 429.88281250 204.50717163 428.75607300 210.96673584 427.75173950 C 217.79330444 426.85632324 224.84011841 426.13772583 232.09318542 425.57339478 C 239.48831177 425.05441284 246.95101929 424.69262695 254.42968750 424.47576904 C 261.86654663 424.37673950 269.18673706 424.37411499 276.36419678 424.52349854 C 283.42684937 424.79302979 290.22851562 425.29241943 296.81726074 425.83969116 C 303.25558472 426.56137085 309.31076050 427.47979736 315.17370605 428.57095337 C 320.79541016 429.88375854 326.09097290 431.40841675 331.13922119 433.22921753 C 335.98974609 435.30194092 340.63278198 437.57797241 345.12570190 440.08682251 C 349.60253906 442.65130615 354.02896118 445.22650146 329.42562866 445.12268066" stroke-width="0.94196427" fill="rgb(175, 69, 1)" opacity="1.0" stroke="rgb(175, 64, 9)" stroke-opacity="0.48285037" stroke-linecap="round" stroke-linejoin="round"/>
    <path d="M 247.86660767 303.80355835 C 249.14114380 313.40856934 251.10586548 322.40927124 253.86935425 330.45043945 C 256.48892212 337.39352417 259.20910645 342.73986816 260.97625732 346.99929810 C 260.05059814 350.27163696 257.10662842 352.09335327 252.95146179 352.35345459 C 248.54202271 350.86587524 245.07559204 346.91275024 243.24855042 340.05554199 C 240.39910889 331.68264771 238.26083374 321.50918579 236.60882568 310.31039429 C 235.05216980 298.13995361 235.60107422 285.45294189 237.10836792 272.39166260 C 238.23313904 258.99041748 240.21438599 245.96340942 243.92608643 233.28988647 C 247.06158447 220.77677917 249.20312500 208.15484619 250.72662354 195.77209473 C 252.96415710 184.00590515 254.18360901 172.58058167 253.58370972 161.51916504 C 252.10997009 150.97119141 250.29585266 141.04849243 249.06358337 131.76217651 C 248.28706360 123.17229462 247.85421753 115.42508698 247.66609192 108.64768219 C 247.61437988 103.14037323 247.70050049 98.77040863 248.12783813 95.62158203 C 248.65133667 93.60150909 249.43984985 92.85686493 250.27996826 93.44203186 C 251.28076172 95.40004730 252.38471985 98.66747284 253.57421875 103.12570953 C 254.71569824 108.71218872 255.79072571 115.36457825 256.86752319 123.07187653 C 257.89135742 131.75321960 258.73507690 141.21041870 259.49600220 151.19207764 C 260.16986084 161.50340271 260.54968262 172.13055420 260.37817383 182.95660400 C 260.61495972 193.85552979 259.80041504 204.60008240 256.98049927 215.31604004 C 254.76268005 227.01139832 252.67903137 239.30783081 250.60374451 251.90882874 C 248.66348267 265.01116943 246.54037476 278.32351685 247.86660767 303.80355835" stroke-width="2.00000000" fill="rgb(181, 145, 103)" opacity="1.0" stroke="rgb(0, 0, 0)" stroke-opacity="1.0" stroke-linecap="round" stroke-linejoin="round"/>
    <path d="M 196.29542542 233.10923767 C 199.04399109 233.31295776 201.75413513 233.49855042 204.47927856 233.63943481 C 207.30490112 233.77883911 210.13400269 233.93322754 212.93634033 234.00949097 C 215.71896362 234.15692139 218.37916565 234.42462158 221.04681396 234.83306885 C 223.67626953 235.24124146 226.30171204 235.62733459 228.86380005 235.84481812 C 231.23544312 236.59376526 233.35934448 237.29077148 235.72021484 237.62234497 C 237.62065125 237.89422607 239.44242859 238.62704468 241.20959473 239.60105896 C 243.20883179 240.40997314 245.09304810 241.13436890 246.87419128 241.54028320 C 248.47570801 241.48295593 249.92996216 241.39375305 251.00621033 241.58952332 C 251.14811707 242.30543518 250.83921814 243.35479736 250.52993774 244.74311829 C 250.32513428 246.30554199 250.17778015 247.68606567 249.80236816 248.59750366 C 248.81440735 248.73651123 247.41673279 248.67691040 245.72355652 248.52789307 C 243.92831421 248.21723938 242.16127014 247.53628540 240.36105347 246.37963867 C 238.41873169 245.55403137 236.66477966 244.41384888 234.58085632 243.44075012 C 232.35998535 242.82836914 230.15321350 242.05889893 228.12472534 241.26972961 C 226.00772095 241.22645569 223.85327148 241.41093445 221.68605042 241.56091309 C 219.42205811 241.69606018 217.13684082 241.78144836 214.82287598 241.80941772 C 212.44131470 241.79069519 210.09793091 241.71318054 207.82987976 241.63764954 C 205.48484802 241.52931213 203.11808777 241.35923767 200.78504944 241.10746765 C 198.54875183 240.94799805 196.28585815 240.84576416 193.98204041 240.70736694 C 191.67762756 240.51293945 189.40324402 240.35623169 196.29542542 233.10923767" stroke-width="2.00000000" fill="rgb(191, 151, 110)" opacity="1.0" stroke="rgb(59, 46, 34)" stroke-opacity="1.0" stroke-linecap="round" stroke-linejoin="round"/>
    <path d="M 303.89096069 191.90002441 C 300.48950195 192.36204529 296.91027832 192.77883911 293.19976807 193.25952148 C 289.53982544 193.67141724 285.94415283 194.02650452 282.32110596 194.46119690 C 278.68167114 194.89726257 275.00415039 195.39257812 271.31573486 196.15260315 C 267.81036377 197.02343750 264.34140015 198.04148865 261.18356323 198.73371887 C 258.67510986 200.02366638 256.59924316 201.01504517 254.65147400 201.53181458 C 252.89358521 201.63986206 251.65765381 201.69380188 251.05471802 201.53680420 C 251.13220215 200.70494080 251.45002747 199.34211731 251.68762207 197.70423889 C 251.98693848 195.94569397 252.25401306 194.44064331 252.87963867 193.50694275 C 254.22721863 193.47035217 256.16659546 193.65678406 258.37536621 193.59913635 C 260.59396362 193.00074768 262.88137817 191.98680115 265.43286133 190.86463928 C 268.04501343 190.06536865 270.85568237 189.25479126 273.57775879 188.40007019 C 276.39822388 187.38278198 279.16281128 186.45429993 281.85827637 185.63604736 C 284.55859375 184.90765381 287.20065308 184.30480957 289.72760010 183.83532715 C 292.14477539 183.54093933 294.47564697 183.34381104 296.70785522 183.23211670 C 298.75799561 183.24418640 300.69869995 183.51074219 302.49911499 183.78929138 C 304.15982056 184.18849182 305.67800903 184.72903442 307.06677246 185.39814758 C 308.32583618 186.14300537 309.47216797 186.90010071 310.51065063 187.71839905 C 311.39590454 188.57601929 312.24066162 189.50979614 313.04339600 190.48667908 C 313.91418457 191.51583862 314.65405273 192.63398743 315.34075928 193.64442444 C 316.03350830 194.69029236 316.78085327 195.65695190 303.89096069 191.90002441" stroke-width="2.00000000" fill="rgb(197, 152, 112)" opacity="1.0" stroke="rgb(57, 42, 34)" stroke-opacity="1.0" stroke-linecap="round" stroke-linejoin="round"/>
    <path d="M 246.81053162 156.39720154 C 244.64749146 156.33935547 242.55781555 156.31869507 240.42936707 156.22895813 C 238.32156372 156.16728210 236.21713257 156.08586121 234.14010620 156.03547668 C 232.10375977 155.90103149 230.14993286 155.74621582 228.26092529 155.55229187 C 226.37196350 155.30435181 224.64167786 155.08642578 223.04289246 154.78591919 C 221.54779053 154.38304138 220.19548035 153.91468811 218.99475098 153.39219666 C 217.92005920 152.77668762 217.06303406 152.10005188 216.46861267 151.39881897 C 215.97418213 150.61552429 215.74232483 149.68481445 215.79466248 148.73515320 C 216.03770447 147.65377808 216.49006653 146.61341858 217.22615051 145.59812927 C 218.07980347 144.49557495 219.13693237 143.37156677 220.46075439 142.24388123 C 222.12194824 141.15989685 223.96305847 140.13540649 225.86408997 139.19262695 C 227.93597412 138.33583069 230.17291260 137.74212646 232.45593262 137.32926941 C 234.77888489 137.13543701 237.14907837 136.98379517 239.42346191 136.84436035 C 241.63710022 136.87727356 243.62377930 137.07176208 245.35079956 137.54003906 C 246.76228333 138.29013062 247.84259033 139.24732971 248.54148865 140.48181152 C 248.99755859 141.74105835 249.31425476 143.16485596 249.51313782 144.47813416 C 249.97654724 145.55828857 250.84381104 146.46342468 251.59416199 147.34465027 C 252.43013000 148.11717224 253.04725647 148.93765259 253.66087341 149.81773376 C 254.32321167 150.68978882 255.09712219 151.65715027 255.84648132 152.61199951 C 256.58337402 153.61663818 257.30352783 154.62837219 257.99224854 155.69239807 C 258.81060791 156.70159912 259.73385620 157.70248413 246.81053162 156.39720154" stroke-width="2.00000000" fill="rgb(29, 25, 19)" opacity="1.0" stroke="rgb(218, 203, 127)" stroke-opacity="1.0" stroke-linecap="round" stroke-linejoin="round"/>
    <path d="M 221.40921021 249.56471252 C 220.00747681 252.85572815 218.41302490 255.93098450 216.49180603 258.87860107 C 214.59681702 261.73129272 212.30255127 264.16491699 209.55549622 266.41503906 C 206.78645325 268.70486450 203.70075989 270.75759888 200.18035889 272.39831543 C 196.48335266 273.76986694 192.52877808 274.81741333 188.28509521 275.31988525 C 183.86006165 275.53457642 179.41935730 275.39971924 175.26507568 274.75253296 C 171.09051514 273.68652344 167.24545288 271.90802002 163.79789734 269.58084106 C 160.26432800 267.43566895 157.21711731 264.73455811 154.79988098 261.55700684 C 152.25914001 258.63427734 150.48831177 255.22145081 149.61123657 251.44058228 C 148.35440063 247.47628784 147.60603333 243.35070801 147.44668579 239.07286072 C 147.79791260 234.82911682 148.58621216 230.76341248 149.49313354 226.93510437 C 150.96910095 223.28022766 152.67669678 219.96159363 154.71192932 216.77267456 C 157.01083374 213.81265259 159.56785583 211.21890259 162.61625671 208.99362183 C 165.58627319 206.81437683 168.92123413 205.10227966 172.52833557 203.55458069 C 176.36447144 202.16781616 180.29617310 201.41099548 184.50959778 201.33032227 C 188.61582947 201.20251465 192.62313843 201.67555237 196.57241821 202.46350098 C 200.03288269 203.60917664 203.20301819 205.15196228 206.43222046 206.96124268 C 209.48675537 208.98789978 212.48126221 211.50650024 215.11648560 214.38230896 C 217.69477844 217.35522461 219.82269287 220.64260864 221.34927368 224.23252869 C 222.73289490 227.92520142 223.65708923 231.54132080 223.44841003 235.22688293 C 223.18409729 239.26914978 223.63697815 243.39845276 221.40921021 249.56471252" stroke-width="2.00000000" fill="rgb(65, 138, 51)" opacity="1.0" stroke="rgb(1, 0, 1)" stroke-opacity="0.9827455" stroke-linecap="round" stroke-linejoin="round"/>
    <path d="M 243.03051758 137.94790649 C 240.22610474 134.19630432 237.45610046 130.61453247 234.81401062 127.17192078 C 232.17646790 123.69291687 229.53410339 120.31378174 226.80050659 117.24893188 C 223.85330200 114.74220276 220.71057129 112.89701843 217.38652039 111.37640381 C 214.32185364 109.41386414 211.62315369 107.01881409 209.17730713 104.52011871 C 206.81539917 101.81494141 204.87104797 98.61231995 203.15443420 95.46429443 C 201.72508240 92.01725769 200.51074219 88.37522125 199.68804932 84.78628540 C 199.35815430 80.90052032 199.34709167 76.80629730 199.64373779 72.76431274 C 200.48616028 68.58393860 201.66297913 64.21792603 203.00682068 59.96617126 C 204.90052795 55.88074493 207.23373413 52.02854538 209.78512573 48.41502762 C 212.27359009 44.84059525 215.20246887 41.88967896 218.39596558 39.24699783 C 221.40245056 36.51796722 224.50314331 34.24563217 228.09985352 32.65809631 C 231.48226929 30.74321365 234.90019226 29.09625244 238.54414368 28.15841675 C 242.16802979 26.89020729 246.08448792 26.16819572 249.96885681 25.76939011 C 254.09901428 25.39377975 258.32827759 25.49287224 262.61151123 25.85910416 C 266.79223633 26.35297775 270.88897705 27.28960609 274.81991577 28.66256332 C 278.70504761 29.98467445 282.37643433 31.61356544 285.73001099 33.42849350 C 288.75891113 35.49376297 291.64514160 37.56505203 294.58416748 39.59540176 C 297.13497925 42.10602188 299.57598877 44.65281296 301.86126709 47.54542923 C 304.10415649 50.48028183 306.11853027 53.65671539 308.17572021 56.75276566 C 309.72189331 60.07392883 311.02557373 63.54148102 311.90231323 67.14653015 C 312.88601685 70.72812653 313.73864746 74.35482025 314.25436401 78.14701080 C 314.33865356 81.87751770 314.01480103 85.70278168 313.38479614 89.51194763 C 312.38418579 93.41326141 311.16696167 97.17217255 309.64862061 100.88188171 C 307.82263184 104.43615723 305.87042236 107.97666168 303.66485596 111.28368378 C 301.26492310 114.50552368 298.68646240 117.57846069 295.97476196 120.44750977 C 293.05090332 123.08025360 290.09246826 125.55024719 286.94195557 127.74977875 C 283.70599365 129.76507568 280.44174194 131.54194641 277.06591797 133.10937500 C 273.63369751 134.43429565 270.11566162 135.57015991 266.57611084 136.50886536 C 262.98916626 137.11001587 259.43228149 137.38769531 255.84880066 137.55143738 C 252.25988770 137.30177307 248.78436279 137.19989014 243.03051758 137.94790649" stroke-width="2.00000000" fill="rgb(76, 152, 59)" opacity="1.0" stroke="rgb(6, 1, 9)" stroke-opacity="1.0" stroke-linecap="round" stroke-linejoin="round"/>
    <path d="M 370.46084595 180.27670288 C 370.61267090 183.92773438 370.67300415 187.41513062 370.74884033 190.90139771 C 370.78543091 194.50350952 370.19555664 197.90254211 369.15158081 201.27095032 C 368.08038330 204.70257568 366.73553467 208.02748108 365.12808228 211.12037659 C 363.39373779 214.17001343 361.37637329 216.94656372 359.33786011 219.74758911 C 357.12863159 222.18981934 354.80682373 224.43037415 352.42373657 226.51800537 C 349.94891357 228.33509827 347.49536133 229.95556641 344.48464966 230.85011292 C 341.65786743 232.28527832 338.73205566 233.52331543 335.42022705 234.42459106 C 332.14205933 235.26812744 328.87338257 235.91517639 325.48806763 235.84226990 C 321.93164062 235.79437256 318.29754639 235.81553650 314.70074463 235.38937378 C 311.18435669 234.47367859 307.54318237 233.57095337 304.25106812 232.32257080 C 301.03820801 230.83537292 298.39233398 228.91069031 295.65014648 227.14472961 C 293.04861450 225.40724182 290.92211914 223.30508423 289.08468628 220.87986755 C 287.37399292 218.24742126 285.28836060 215.89476013 283.60910034 213.29083252 C 282.35302734 210.61033630 281.33657837 207.90953064 280.27233887 205.35881042 C 279.46502686 202.76925659 278.84384155 200.19854736 278.67291260 197.58787537 C 279.07028198 194.71455383 279.31423950 191.64389038 279.28164673 188.38662720 C 279.31060791 184.84236145 279.44863892 181.21705627 279.69195557 177.67301941 C 280.35543823 174.22341919 281.34558105 170.89971924 282.63320923 167.71852112 C 284.29437256 164.71035767 286.20623779 161.79646301 288.36965942 158.98303223 C 290.72366333 156.25883484 293.21359253 153.77304077 295.83087158 151.43577576 C 298.63214111 149.29945374 301.61398315 147.36393738 304.65359497 145.69795227 C 307.59692383 144.15974426 310.55142212 142.87995911 313.56134033 141.81105042 C 316.67932129 141.05801392 319.77609253 140.55371094 322.60998535 140.33982849 C 325.29846191 140.28262329 327.80444336 140.67256165 330.32684326 141.39916992 C 333.09475708 141.65771484 336.02142334 142.35943604 339.00222778 143.27645874 C 341.90234375 144.35969543 344.74313354 145.67349243 347.60363770 147.25091553 C 350.46435547 149.16184998 353.30822754 151.24174500 356.05914307 153.67137146 C 358.78488159 156.38902283 361.14260864 159.22084045 363.34646606 162.17559814 C 365.02520752 165.12702942 366.36874390 168.29078674 367.75280762 171.19088745 C 368.96932983 174.40611267 369.98501587 177.59654236 370.46084595 180.27670288" stroke-width="2.00000000" fill="rgb(65, 141, 51)" opacity="1.0" stroke="rgb(2, 0, 5)" stroke-opacity="1.0" stroke-linecap="round" stroke-linejoin="round"/>
    <path d="M 200.60264587 187.80111694 C 198.31202698 189.11747742 195.69445801 189.58392334 192.74848938 189.61642456 C 189.64170837 189.67953491 186.48443604 189.54011536 183.29917908 189.21903992 C 180.14839172 188.45301819 176.85821533 187.60238647 173.79527283 186.51213074 C 171.15301514 185.25166321 168.77133179 183.52264404 166.29966736 181.81851196 C 164.17869568 180.02391052 162.12409973 178.12835693 160.16517639 176.28335571 C 158.45454407 174.10369873 157.15106201 171.56530762 155.73005676 169.28034973 C 154.49073792 166.79272461 153.61799622 164.28395081 152.95596313 161.54434204 C 152.20059204 158.79673767 151.59611511 155.91029358 151.53973389 152.82350159 C 151.32803345 149.69598389 151.48994446 146.52554321 151.88442993 143.19638062 C 152.55160522 139.71588135 153.70661926 136.24101257 154.81318665 132.97833252 C 156.20927429 129.78858948 157.91815186 127.07389832 159.59783936 124.22425079 C 161.49334717 121.69116974 163.57330322 119.30468750 165.94477844 117.13099670 C 168.32510376 115.07911682 170.62573242 113.04443359 173.27853394 111.58730316 C 176.07472229 110.45900726 178.66229248 109.01363373 181.19897461 107.75179291 C 183.98994446 106.92617798 186.69728088 106.32048798 189.39099121 106.23656464 C 191.84823608 105.55393982 194.44032288 105.39196014 197.16209412 105.62932587 C 199.47463989 106.36057281 201.92697144 106.52783966 204.19270325 106.56717682 C 206.26947021 107.57333374 208.40473938 108.92054749 210.76765442 110.47031403 C 213.15612793 111.89455414 215.58779907 113.38105011 217.82604980 115.34949493 C 219.66990662 117.69339752 221.39808655 120.14209747 223.06970215 122.61894989 C 224.64935303 125.23354340 226.07868958 127.82017517 227.14305115 130.31620789 C 227.51989746 132.83772278 227.57249451 135.43940735 227.51016235 138.20799255 C 227.39573669 140.73925781 227.49288940 143.22642517 227.67735291 145.55064392 C 228.06683350 147.92646790 228.30856323 150.25234985 228.46658325 152.61869812 C 228.55303955 155.03442383 228.67361450 157.43612671 228.50859070 159.79649353 C 228.07806396 162.07609558 227.37020874 164.36039734 226.61372375 166.70838928 C 225.64482117 169.09213257 224.22511292 171.29808044 222.39337158 173.39221191 C 220.33615112 175.42816162 218.06491089 177.52148438 215.45176697 179.55033875 C 212.43424988 181.41558838 209.18852234 183.24099731 206.07644653 185.29466248 C 203.12110901 187.56509399 200.16918945 189.78810120 200.60264587 187.80111694" stroke-width="2.00000000" fill="rgb(94, 171, 74)" opacity="1.0" stroke="rgb(0, 0, 1)" stroke-opacity="1.0" stroke-linecap="round" stroke-linejoin="round"/>
    <path d="M 295.42675781 147.12564087 C 293.16867065 144.45201111 290.78945923 141.80017090 288.42904663 139.09729004 C 286.10565186 136.44668579 283.75973511 133.82600403 281.55255127 131.14564514 C 279.36575317 128.48422241 277.12326050 126.00811005 275.02752686 123.50559235 C 273.09072876 121.05259705 271.25561523 118.64847565 269.85708618 116.24214935 C 269.40048218 113.26425171 269.33953857 110.03491974 269.47201538 106.73291779 C 269.80844116 103.36302185 270.71655273 99.98981476 271.95974731 96.79760742 C 273.31790161 93.52344513 275.15097046 90.38056183 277.19497681 87.53651428 C 279.60119629 84.75138092 282.20761108 82.16422272 284.98516846 79.79042816 C 287.99819946 77.72797394 291.23007202 76.01745605 294.64147949 74.59380341 C 298.07534790 73.40808105 301.67379761 72.66218567 305.41229248 72.36506653 C 309.19033813 72.36911774 312.99902344 72.31465912 316.81198120 72.64477539 C 320.43869019 74.03832245 323.94845581 75.92932129 327.37963867 78.16024017 C 330.56225586 80.79447174 333.38885498 83.76591492 335.90518188 87.15371704 C 338.19100952 90.62938690 339.99209595 94.18167877 341.18496704 97.85893250 C 341.71371460 101.63925171 341.83248901 105.13083649 341.69860840 108.54592896 C 341.88681030 111.93215942 341.21356201 115.31496429 339.73104858 118.35349274 C 338.03070068 121.78189087 336.07546997 125.12989807 333.36288452 127.91662598 C 330.42849731 130.74670410 327.40014648 133.30477905 324.43585205 135.38825989 C 321.00387573 136.04968262 317.61859131 136.53942871 314.19796753 137.12347412 C 310.71777344 137.74177551 307.23703003 138.40545654 295.42675781 147.12564087" stroke-width="2.00000000" fill="rgb(97, 173, 76)" opacity="1.0" stroke="rgb(0, 0, 0)" stroke-opacity="1.0" stroke-linecap="round" stroke-linejoin="round"/>
    <path d="M 238.11135864 191.79943848 C 236.34660339 192.41401672 234.29171753 192.65896606 232.22857666 193.12023926 C 230.08412170 193.51783752 227.80345154 193.64401245 225.42175293 193.48513794 C 222.89208984 193.34336853 220.48437500 192.69975281 217.99324036 192.26661682 C 215.54779053 191.34538269 213.00106812 190.17800903 211.02931213 188.46195984 C 208.94586182 186.54927063 207.09008789 184.39312744 205.32594299 182.11946106 C 203.94999695 179.63153076 202.87620544 176.97242737 202.33564758 174.15805054 C 201.88859558 171.09133911 201.73600769 168.09748840 201.60290527 165.12495422 C 201.95216370 162.23223877 202.78077698 159.51181030 203.97625732 156.94046021 C 205.23803711 154.30986023 206.81207275 151.73048401 208.74513245 149.52507019 C 210.95664978 147.52595520 213.42341614 145.53709412 215.94406128 143.83682251 C 218.71395874 142.40238953 221.61610413 141.31703186 224.59298706 140.51075745 C 227.68162537 140.59245300 230.78294373 140.72012329 233.74879456 140.80296326 C 236.56414795 141.28128052 239.38659668 142.27221680 242.19589233 143.42008972 C 244.83540344 144.81927490 247.37370300 146.50624084 249.60052490 148.33276367 C 251.39686584 150.60046387 252.84028625 153.19720459 254.04324341 155.99501038 C 255.17018127 158.74838257 256.18655396 161.11976624 256.83770752 163.27822876 C 256.63427734 165.40290833 255.93809509 167.50117493 255.06413269 169.60131836 C 254.55142212 171.83306885 254.17694092 174.23762512 253.73127747 176.77180481 C 253.00405884 178.98719788 251.44335938 180.76589966 249.67982483 182.65681458 C 248.21994019 185.00329590 246.93632507 187.58943176 238.11135864 191.79943848" stroke-width="2.00000000" fill="rgb(99, 176, 77)" opacity="1.0" stroke="rgb(0, 0, 0)" stroke-opacity="1.0" stroke-linecap="round" stroke-linejoin="round"/>
    <path d="M 308.21176147 169.09283447 C 305.65887451 170.69308472 303.11468506 172.20213318 300.49777222 173.46414185 C 297.71701050 174.61093140 294.96182251 175.34303284 292.15750122 175.68772888 C 289.23712158 176.23648071 286.37322998 176.46342468 283.69671631 176.16235352 C 280.88665771 175.61630249 277.84118652 175.09060669 274.91796875 174.44618225 C 272.21292114 173.36000061 269.41989136 171.81356812 266.91934204 170.10375977 C 264.71478271 167.80612183 262.70587158 165.40310669 260.86566162 162.88973999 C 259.65899658 160.06594849 258.50753784 157.10926819 257.37585449 154.12306213 C 256.86273193 151.05686951 256.90887451 147.88877869 257.34405518 144.62393188 C 257.83584595 141.31713867 258.67846680 138.13278198 259.93536377 135.15208435 C 261.51715088 132.17100525 263.34936523 129.39346313 265.77587891 127.05256653 C 268.44113159 124.82626343 271.28619385 122.60613251 273.98272705 120.52107239 C 276.94345093 118.81630707 280.13632202 117.66049957 283.38351440 116.95553589 C 286.40957642 116.55935669 289.50158691 116.48521423 292.59799194 116.65049744 C 295.63604736 117.17919159 298.56341553 117.83399200 301.38586426 118.79812622 C 304.19744873 120.00530243 306.72717285 121.67846680 309.00317383 123.69783020 C 311.24349976 125.78697205 313.26248169 128.11175537 314.97802734 130.56280518 C 316.40533447 133.10850525 317.44351196 135.72863770 318.06060791 138.60775757 C 318.61050415 141.45501709 319.02423096 144.24288940 319.29794312 147.07557678 C 319.08703613 149.94354248 318.36080933 152.80921936 317.66448975 155.79481506 C 316.71939087 158.87019348 315.68872070 162.04953003 308.21176147 169.09283447" stroke-width="2.00000000" fill="rgb(101, 178, 80)" opacity="1.0" stroke="rgb(0, 0, 0)" stroke-opacity="1.0" stroke-linecap="round" stroke-linejoin="round"/>
    <path d="M 237.70256042 215.98370361 C 236.68510437 215.93023682 235.78225708 215.89181519 235.02456665 216.10110474 C 234.45616150 216.66925049 233.99301147 217.43057251 233.53446960 217.98498535 C 232.82606506 218.06481934 231.81953430 217.90245056 230.70408630 217.91369629 C 229.63960266 218.01094055 228.61228943 218.18833923 227.65605164 218.05912781 C 227.01185608 217.52363586 226.54893494 216.83465576 226.05206299 215.99075317 C 225.93370056 214.97286987 226.03514099 213.78330994 226.04440308 212.56259155 C 226.04833984 211.29650879 226.10034180 210.06260681 226.13977051 208.79896545 C 226.08004761 207.52935791 226.02818298 206.32554626 226.05691528 205.26615906 C 226.45443726 204.30691528 227.15994263 203.49728394 227.95541382 202.68348694 C 228.78060913 201.84431458 229.68000793 200.97123718 230.52183533 200.09027100 C 231.57714844 199.54840088 232.52862549 198.99050903 233.43109131 198.19805908 C 234.39082336 197.52557373 235.45010376 197.09152222 236.56576538 196.87097168 C 237.61628723 196.71856689 238.58419800 196.77127075 239.56324768 197.21907043 C 240.51300049 197.70201111 241.25518799 198.56529236 241.81774902 199.30636597 C 242.02105713 200.15646362 242.05593872 201.01879883 242.11900330 202.07614136 C 242.11578369 203.23838806 242.11056519 204.28663635 242.05822754 205.27175903 C 242.02700806 206.34053040 242.11865234 207.44723511 242.11909485 208.42947388 C 242.12307739 209.27615356 242.15867615 210.05642700 242.18374634 210.80729675 C 241.88908386 211.53707886 241.53292847 212.07630920 241.06588745 212.53596497 C 240.45764160 212.94348145 239.84906006 213.38075256 237.70256042 215.98370361" stroke-width="1.05282223" fill="rgb(255, 255, 255)" opacity="1.0" stroke="rgb(255, 255, 255)" stroke-opacity="0.0" stroke-linecap="round" stroke-linejoin="round"/>
    <path d="M 264.71667480 61.98604202 C 264.70935059 61.92954254 264.71713257 61.97134018 264.69284058 61.95354080 C 264.72311401 61.95472336 264.68399048 61.95400238 264.71060181 61.96741104 C 264.69668579 61.93179703 264.68911743 61.96965408 264.69601440 61.94155502 C 264.70043945 61.96136475 264.66925049 61.95175171 264.70477295 61.94636917 C 264.68927002 61.94712448 264.67395020 61.95846176 264.69931030 61.93925095 C 264.67395020 61.94137955 264.70425415 61.96208954 264.66976929 61.92289734 C 264.67962646 61.96153641 264.70520020 61.92043686 264.66613770 61.96551895 C 264.68032837 61.91008377 264.72244263 61.95828247 264.67080688 61.90457535 C 264.69015503 61.95721436 264.70248413 61.90739822 264.68511963 61.93597031 C 264.69995117 61.92034531 264.69497681 61.91809082 264.71667480 61.98604202" stroke-width="2.00000000" fill="rgb(61, 209, 0)" opacity="1.0" stroke="rgb(75, 156, 58)" stroke-opacity="0.88834745" stroke-linecap="round" stroke-linejoin="round"/>
    <path d="M 359.52215576 363.80429077 C 349.71990967 363.52017212 339.99002075 363.36196899 330.18533325 363.49014282 C 320.23892212 363.52096558 310.16915894 363.57217407 299.99572754 363.67337036 C 289.77026367 363.15582275 279.49624634 363.34906006 269.13253784 363.31173706 C 258.64611816 363.64489746 248.23017883 363.63482666 237.85836792 363.82534790 C 227.38375854 363.47109985 216.93627930 363.24505615 206.74865723 363.86981201 C 196.80209351 364.43560791 187.07675171 364.42758179 177.78752136 364.33209229 C 169.23641968 364.20059204 161.57270813 364.20523071 154.89768982 364.16473389 C 149.52278137 364.27838135 145.75640869 364.58248901 143.66287231 364.24566650 C 143.07339478 362.69024658 143.29202271 360.29983521 143.33818054 357.46215820 C 143.29298401 354.48297119 143.09407043 351.84478760 143.39871216 350.17437744 C 145.10058594 349.68206787 148.15071106 350.48080444 152.73597717 351.54895020 C 158.86944580 351.78775024 166.30754089 351.56109619 174.92785645 351.53796387 C 184.38883972 351.54452515 194.41868591 351.54177856 204.63055420 351.59237671 C 215.00720215 351.48114014 225.38203430 351.50872803 235.62829590 351.44049072 C 245.44801331 350.68685913 254.77954102 350.23364258 263.79727173 351.11822510 C 272.79183960 351.60549927 281.73803711 351.57495117 290.54028320 351.54003906 C 299.17309570 351.58755493 307.60885620 351.57357788 315.84735107 351.57229614 C 323.83224487 351.70010376 331.40631104 351.65093994 338.45187378 351.53311157 C 344.82150269 351.57376099 350.37548828 351.41043091 354.85406494 350.82000732 C 358.09686279 349.17532349 360.48052979 347.10314941 359.52215576 363.80429077" stroke-width="2.00000000" fill="rgb(184, 69, 4)" opacity="1.0" stroke="rgb(4, 0, 5)" stroke-opacity="1.0" stroke-linecap="round" stroke-linejoin="round"/>
    <path d="M 353.22241211 366.87640381 C 353.01257324 371.50625610 352.82180786 376.12448120 352.57333374 380.79235840 C 352.28652954 385.37365723 352.09188843 390.04989624 351.80834961 394.63555908 C 351.30923462 399.15713501 350.82690430 403.68899536 350.40084839 408.15112305 C 350.13598633 412.49774170 349.94140625 416.78134155 349.73370361 420.91018677 C 349.34994507 424.78552246 349.13345337 428.56570435 348.95773315 431.98574829 C 348.71627808 435.10256958 348.65417480 437.94824219 348.65176392 440.33068848 C 348.52896118 442.35012817 348.40319824 443.78305054 347.89544678 444.75015259 C 346.82098389 445.04306030 345.32003784 445.04174805 343.59365845 444.90063477 C 341.84823608 444.84078979 340.37225342 444.86038208 339.21630859 444.70196533 C 338.62243652 444.10076904 338.56930542 442.98712158 338.80279541 441.32659912 C 338.92654419 439.19030762 339.20281982 436.56500244 339.51443481 433.60269165 C 339.73449707 430.24801636 339.87164307 426.69775391 340.14645386 422.94924927 C 340.43368530 419.03747559 340.69808960 414.98916626 340.90661621 410.92880249 C 341.14996338 406.81701660 341.39300537 402.79980469 341.59359741 398.81689453 C 341.85794067 395.03781128 342.00628662 391.40405273 342.11602783 387.94140625 C 342.27807617 384.73477173 342.48107910 381.76223755 342.65521240 379.05578613 C 342.72689819 376.67053223 342.84179688 374.58950806 342.78039551 372.74594116 C 342.68170166 371.27929688 342.79800415 370.00088501 342.93185425 369.04620361 C 343.00524902 368.25155640 342.92153931 367.69692993 342.69833374 367.28540039 C 342.48928833 367.03350830 342.32543945 366.76458740 353.22241211 366.87640381" stroke-width="0.58037782" fill="rgb(254, 167, 80)" opacity="1.0" stroke="rgb(255, 170, 106)" stroke-opacity="0.44125986" stroke-linecap="round" stroke-linejoin="round"/>
    <path d="M 235.50857544 138.31526184 C 234.34176636 138.28497314 233.31213379 138.17921448 232.37272644 137.94842529 C 231.52645874 137.66055298 230.69612122 137.60546875 230.12326050 137.37335205 C 230.08361816 136.99542236 230.26603699 136.34852600 230.43438721 135.47080994 C 230.36997986 134.59483337 230.29621887 133.64578247 230.22760010 132.42248535 C 229.78720093 130.91708374 229.46635437 129.28990173 228.93135071 127.51709747 C 228.26969910 125.72689056 227.21414185 124.15607452 226.17861938 122.60742188 C 225.15640259 121.03753662 224.07200623 119.62551880 223.18052673 118.45587921 C 222.68734741 117.41371918 222.47297668 116.54975891 222.61416626 116.05628967 C 222.94183350 116.08193207 223.36796570 116.44878387 223.99600220 117.25524139 C 225.10426331 117.84926605 226.37333679 118.30445099 227.97033691 118.85257721 C 229.52207947 119.62570953 231.30950928 120.37709045 233.03195190 121.11640167 C 234.69490051 121.62132263 236.31677246 122.13951111 237.98983765 122.52303314 C 239.45861816 122.47540283 240.79473877 122.69418335 241.84657288 123.07662964 C 242.72470093 123.36376953 243.26713562 123.87461853 243.64816284 124.81005096 C 243.79475403 126.14520264 244.15953064 127.41696930 244.42366028 128.86257935 C 244.40490723 130.35838318 244.54769897 131.69894409 245.25839233 133.21603394 C 245.40011597 135.04589844 245.40286255 136.94924927 245.61859131 138.67764282 C 245.83618164 140.14193726 245.75520325 141.45008850 245.50700378 142.46214294 C 245.08851624 142.88702393 244.67385864 142.86689758 244.54986572 142.34999084 C 244.45272827 141.64674377 244.28005981 140.89546204 235.50857544 138.31526184" stroke-width="2.00000000" fill="rgb(245, 247, 246)" opacity="1.0" stroke="rgb(8, 7, 9)" stroke-opacity="0.9520438" stroke-linecap="round" stroke-linejoin="round"/>
    <path d="M 251.14112854 122.67271423 C 248.66188049 123.23365784 246.29582214 123.70745850 244.37379456 123.64855194 C 243.14938354 122.84801483 242.88688660 121.71901703 243.37599182 120.78852844 C 244.78715515 120.62554169 246.78442383 120.73123932 248.98002625 120.72270966 C 251.14318848 120.54161072 253.09332275 120.33601379 254.50918579 120.36306763 C 255.05549622 121.10543060 254.81469727 122.46376801 254.18518066 124.27574158 C 254.09062195 126.63644409 254.37344360 129.51397705 254.68685913 132.69819641 C 254.79058838 136.31314087 255.55374146 140.22444153 256.67929077 144.29238892 C 257.36047363 148.73890686 257.69198608 153.61466980 257.76904297 158.86219788 C 257.66186523 164.27661133 257.48056030 169.74795532 256.97592163 175.18423462 C 257.12139893 180.47204590 258.00552368 185.59104919 251.14112854 122.67271423" stroke-width="2.00000000" fill="rgb(20, 14, 10)" opacity="1.0" stroke="rgb(255, 216, 235)" stroke-opacity="0.24908802" stroke-linecap="round" stroke-linejoin="round"/>
    <path d="M 358.07431030 363.18984985 C 358.07165527 362.76776123 357.99804688 362.54122925 357.96173096 362.35003662 C 358.11627197 362.19705200 358.27935791 361.96359253 358.26541138 361.95663452 C 358.01007080 362.27026367 357.46945190 362.59536743 356.55905151 362.68679810 C 355.34097290 362.64224243 353.73452759 362.66079712 352.14056396 362.79916382 C 350.63830566 363.00973511 349.39337158 363.04495239 348.67816162 362.46566772 C 348.60314941 361.03491211 348.62460327 359.21450806 348.58483887 357.35394287 C 348.78683472 355.60147095 348.81301880 353.94955444 348.64868164 352.63052368 C 348.83673096 351.90896606 349.63867188 351.67724609 350.91824341 351.61859131 C 352.54238892 351.61138916 354.52157593 351.61846924 356.56594849 351.47140503 C 358.15319824 351.07025146 359.37927246 350.67575073 358.07431030 363.18984985" stroke-width="1.30252814" fill="rgb(243, 172, 88)" opacity="1.0" stroke="rgb(0, 0, 21)" stroke-opacity="0.56554615" stroke-linecap="round" stroke-linejoin="round"/>
  </g>
</svg>
