<?xml version="1.0" ?>
<svg xmlns="http://www.w3.org/2000/svg" version="1.1" width="512" height="512" viewBox="0 0 512 512">
  <defs/>
  <g>
    <path d="M 351.71905518 445.50662231 C 350.51998901 447.90618896 348.98614502 448.78939819 346.05606079 448.44250488 C 341.84082031 448.48040771 336.58956909 448.49340820 330.55795288 448.52920532 C 323.84652710 448.51266479 316.73263550 448.48803711 309.35150146 448.55145264 C 301.72332764 448.60556030 293.93515015 448.55212402 285.99295044 448.46310425 C 277.90356445 448.59774780 269.68856812 448.53256226 261.38088989 448.57788086 C 252.98805237 448.57000732 244.47915649 448.58041382 235.80886841 448.55404663 C 227.07160950 448.55957031 218.32405090 448.58575439 209.61375427 448.54809570 C 201.00527954 448.47061157 192.64793396 448.52191162 184.70140076 448.54147339 C 177.25465393 448.56875610 170.42916870 448.50622559 164.34968567 448.42352295 C 159.19915771 448.55441284 155.08708191 448.61999512 152.19154358 448.11987305 C 150.49459839 447.30746460 150.49931335 444.99157715 150.33377075 441.29733276 C 150.39891052 436.49374390 150.16561890 430.60137939 150.03495789 423.79852295 C 149.50373840 416.31701660 149.26359558 408.22354126 148.91276550 399.89050293 C 148.77072144 391.35705566 148.08190918 383.06951904 148.08125305 375.15908813 C 148.54974365 368.64141846 147.23425293 363.89004517 143.79402161 360.31872559 C 141.20631409 356.93334961 140.78805542 352.91439819 141.41258240 349.31643677 C 143.13267517 348.19967651 146.55921936 347.85299683 152.11308289 348.39196777 C 159.73121643 348.39605713 168.74684143 348.26388550 178.33724976 348.39990234 C 188.03207397 348.36578369 197.71160889 348.38619995 207.50286865 348.29043579 C 217.43467712 348.41177368 227.23031616 348.32138062 236.70391846 348.28399658 C 245.80909729 347.76437378 254.67277527 347.30007935 263.37744141 347.74029541 C 272.16625977 348.69686890 281.18020630 348.34417725 290.43270874 348.26449585 C 299.88131714 348.18435669 309.27453613 348.29852295 318.36145020 348.25817871 C 326.99716187 348.19097900 335.14797974 348.37759399 342.66049194 348.31878662 C 349.16284180 348.37005615 354.34237671 348.15704346 357.97015381 347.83114624 C 359.92712402 348.66091919 360.60040283 350.61090088 360.18069458 353.62118530 C 359.03298950 357.50637817 357.68234253 362.04989624 356.40466309 367.19192505 C 356.12597656 373.21487427 355.79736328 379.70336914 355.37872314 386.55841064 C 355.20498657 394.00503540 354.40682983 401.69760132 353.81359863 409.45385742 C 353.31701660 417.22744751 353.03842163 425.21871948 351.71905518 445.50662231" stroke-width="0.72730327" fill="rgb(17, 8, 9)" opacity="1.0" stroke="rgb(0, 0, 0)" stroke-opacity="0.3831182" stroke-linecap="round" stroke-linejoin="round"/>
    <path d="M 347.21847534 438.90887451 C 341.31918335 438.09979248 335.43710327 437.25930786 329.49447632 436.36016846 C 323.51766968 435.46902466 317.45175171 434.59649658 311.31246948 433.82656860 C 305.10015869 433.25897217 298.72396851 432.86001587 292.19198608 432.66268921 C 285.52249146 432.65954590 278.69351196 432.82562256 271.68356323 433.19869995 C 264.53536987 433.73074341 257.31018066 434.45358276 249.94116211 435.31890869 C 242.43748474 436.27581787 234.84837341 437.31442261 227.27334595 438.39709473 C 219.71080017 439.50988770 212.14439392 440.60559082 204.63807678 441.62780762 C 197.26956177 442.46166992 190.15487671 443.01556396 183.33244324 443.31195068 C 176.80918884 443.49896240 170.82716370 443.54013062 165.63456726 443.53298950 C 161.28479004 443.56130981 157.88247681 443.49426270 155.73426819 443.37503052 C 155.07121277 442.76651001 155.21107483 441.42846680 155.37939453 439.19723511 C 155.18124390 436.04672241 155.19110107 432.10610962 155.12225342 427.46282959 C 154.91842651 422.14532471 154.68963623 416.38769531 154.48132324 410.39184570 C 154.26530457 404.26898193 153.96582031 398.12908936 153.61244202 392.19995117 C 153.63102722 386.67971802 153.15803528 381.73434448 153.18542480 377.46224976 C 153.20487976 373.90542603 153.01754761 371.07849121 152.56144714 369.10589600 C 152.41636658 368.06311035 152.60252380 367.89730835 153.61218262 368.26675415 C 155.75000000 368.23736572 159.29885864 368.42068481 164.24015808 368.42968750 C 170.37333679 368.42559814 177.42388916 368.34829712 185.23632812 368.38113403 C 193.71615601 368.35397339 202.65730286 368.34844971 211.86279297 368.38058472 C 221.18269348 368.39923096 230.54208374 368.36059570 239.76948547 368.34506226 C 248.83990479 368.46234131 257.73617554 368.40393066 266.41882324 368.37539673 C 274.84075928 368.38015747 282.90066528 368.32543945 290.66400146 368.31912231 C 298.22106934 368.43408203 305.51275635 368.40847778 312.39117432 368.37365723 C 318.80825806 368.36923218 324.68688965 368.32690430 330.02569580 368.32437134 C 334.75442505 368.25759888 338.79248047 368.24606323 342.12408447 368.51522827 C 344.65301514 369.76379395 346.55236816 371.92648315 347.83728027 374.86364746 C 348.64028931 378.49246216 349.09533691 382.68051147 349.33459473 387.24938965 C 349.44073486 392.13198853 349.55279541 397.26296997 349.78158569 402.51815796 C 349.59982300 407.66397095 348.94067383 412.65548706 347.21847534 438.90887451" stroke-width="1.87193274" fill="rgb(177, 72, 0)" opacity="1.0" stroke="rgb(193, 95, 30)" stroke-opacity="0.96682453" stroke-linecap="round" stroke-linejoin="round"/>
    <path d="M 328.80734253 445.15521240 C 320.54266357 445.10043335 312.28634644 445.02987671 304.03259277 445.05645752 C 295.73532104 445.15002441 287.42453003 445.09957886 279.15359497 445.09927368 C 270.88787842 445.01684570 262.70401001 444.96359253 254.58409119 444.97204590 C 246.61242676 444.97259521 238.81095886 444.99606323 231.18791199 444.98083496 C 223.77749634 445.00149536 216.68080139 444.98150635 209.94017029 444.96987915 C 203.57337952 445.05044556 197.62193298 444.95932007 192.18452454 444.92950439 C 187.28024292 444.96887207 183.00849915 444.58801270 179.35430908 444.51138306 C 176.39108276 444.58984375 174.19293213 444.39718628 172.77192688 443.83734131 C 172.15359497 442.92364502 172.38099670 441.82275391 173.40820312 440.62661743 C 175.15797424 439.36370850 177.62048340 437.99859619 180.74517822 436.59628296 C 184.53881836 435.19692993 188.94229126 433.92028809 193.84312439 432.69638062 C 199.25953674 431.53030396 205.10725403 430.38937378 211.32894897 429.37472534 C 217.89187622 428.41140747 224.69685364 427.53216553 231.67854309 426.69512939 C 238.82336426 425.91668701 246.07490540 425.28771973 253.30358887 424.88861084 C 260.47729492 424.70959473 267.60174561 424.75186157 274.64883423 425.04257202 C 281.55917358 425.55856323 288.29467773 426.22451782 294.85302734 427.01434326 C 301.25579834 427.92837524 307.42984009 429.02505493 313.39089966 430.21835327 C 319.12796021 431.51950073 324.65988159 433.03018188 330.02676392 434.73294067 C 335.17291260 436.65252686 340.12265015 438.84396362 344.96148682 441.12738037 C 349.77493286 443.34078979 354.60232544 445.45681763 328.80734253 445.15521240" stroke-width="0.94686610" fill="rgb(177, 71, 1)" opacity="1.0" stroke="rgb(176, 65, 9)" stroke-opacity="0.48619807" stroke-linecap="round" stroke-linejoin="round"/>
    <path d="M 247.75575256 301.45816040 C 248.76689148 311.90588379 250.45709229 321.26419067 253.60127258 329.87066650 C 256.40567017 337.25048828 259.31939697 343.10128784 261.15887451 347.17218018 C 260.21191406 349.65255737 256.59674072 350.78765869 251.55909729 350.45941162 C 247.18463135 349.58160400 244.52239990 346.09356689 243.24330139 339.81838989 C 239.96394348 332.04272461 238.36097717 322.02651978 236.72760010 310.49502563 C 234.93592834 298.35525513 235.73565674 285.68725586 237.01383972 272.39562988 C 238.57878113 258.79583740 239.68252563 245.82615662 244.02265930 233.51535034 C 246.99328613 220.68331909 249.31961060 207.95877075 250.62135315 195.49447632 C 252.48069763 183.98458862 255.75155640 173.79650879 256.67700195 163.65556335 C 254.59651184 153.51890564 251.74903870 143.81954956 249.19705200 134.88114929 C 247.51168823 126.61365509 246.61109924 119.03193665 246.24546814 112.35755920 C 246.33650208 106.79836273 246.71916199 102.47545624 247.23741150 99.41451263 C 247.90071106 97.63065338 248.70530701 97.12504578 249.59944153 97.87331390 C 250.59515381 100.00916290 251.70137024 103.55673218 252.83729553 108.42781067 C 254.02449036 114.39375305 255.23817444 121.36476135 256.45071411 129.30615234 C 257.62243652 138.13410950 258.76293945 147.48289490 259.68096924 157.26150513 C 260.15011597 167.41033936 260.75695801 177.35722351 260.23745728 186.85797119 C 261.19735718 195.93487549 259.46102905 205.19639587 257.01077271 215.35818481 C 254.90066528 226.58439636 252.79188538 238.70831299 250.76033020 251.41046143 C 248.65254211 264.63464355 246.63336182 278.41485596 247.75575256 301.45816040" stroke-width="2.00000000" fill="rgb(182, 145, 104)" opacity="1.0" stroke="rgb(0, 0, 0)" stroke-opacity="1.0" stroke-linecap="round" stroke-linejoin="round"/>
    <path d="M 196.50692749 232.61418152 C 199.30801392 232.88064575 202.10571289 233.11296082 204.90974426 233.33828735 C 207.73675537 233.52401733 210.60243225 233.66897583 213.39099121 233.87591553 C 216.10095215 234.13064575 218.73249817 234.37370300 221.42762756 234.63626099 C 224.08105469 235.15414429 226.65327454 235.66090393 229.18681335 235.90151978 C 231.58209229 236.64820862 233.83605957 237.43066406 235.98262024 237.61531067 C 238.08280945 237.92280579 239.67887878 238.83763123 241.08374023 239.99885559 C 243.13557434 240.11167908 245.16070557 240.22148132 246.72889709 241.37802124 C 248.46026611 241.65461731 250.02209473 241.42965698 251.05825806 241.50828552 C 251.18978882 242.40205383 250.72151184 243.68017578 250.35955811 245.27844238 C 250.20758057 246.86067200 250.28643799 248.04660034 249.66711426 248.67379761 C 247.66333008 248.47116089 245.01977539 248.44793701 242.61494446 248.78941345 C 241.19729614 248.44470215 241.04342651 246.68312073 240.47080994 245.37243652 C 238.56736755 245.76022339 236.93647766 245.04414368 235.08087158 243.45440674 C 232.69944763 242.83508301 230.11758423 242.07911682 228.08714294 241.05799866 C 226.09443665 241.23857117 223.96354675 241.50448608 221.79966736 241.68084717 C 219.62615967 241.86331177 217.43795776 241.93257141 215.25807190 241.96424866 C 213.03471375 242.01533508 210.71839905 241.99931335 208.26510620 241.83497620 C 205.79121399 241.63574219 203.37516785 241.53689575 201.04255676 241.44692993 C 198.71960449 241.27388000 196.32177734 241.08114624 193.90414429 240.91296387 C 191.51272583 240.70367432 189.16064453 240.43762207 196.50692749 232.61418152" stroke-width="2.00000000" fill="rgb(192, 156, 109)" opacity="1.0" stroke="rgb(61, 46, 34)" stroke-opacity="1.0" stroke-linecap="round" stroke-linejoin="round"/>
    <path d="M 305.69390869 192.21549988 C 301.37796021 192.37939453 297.13708496 192.72926331 293.10592651 193.22293091 C 289.16107178 193.73208618 285.08874512 194.10685730 280.86270142 194.55514526 C 276.31869507 195.10737610 271.66156006 195.94450378 267.60873413 196.94715881 C 264.58224487 198.41256714 262.62551880 198.86064148 261.01434326 197.84303284 C 259.72146606 198.11117554 259.35693359 199.76332092 259.01580811 201.51533508 C 257.28231812 201.69940186 254.99749756 201.45732117 252.48023987 201.50579834 C 250.78770447 202.01910400 250.67822266 201.63673401 251.32287598 199.98399353 C 251.71682739 197.54350281 252.06352234 195.19151306 252.59310913 193.49484253 C 254.16685486 193.46311951 256.59835815 193.61854553 259.02764893 193.51860046 C 261.15072632 192.92929077 263.20462036 191.75654602 265.53747559 190.81182861 C 268.05151367 190.16860962 270.77014160 189.27909851 273.59936523 188.52003479 C 276.23211670 187.41532898 278.98782349 186.44540405 281.71548462 185.58367920 C 284.29721069 184.80915833 286.78723145 184.22441101 289.15603638 183.84230042 C 291.47097778 183.61711121 293.72311401 183.52044678 295.92089844 183.56199646 C 298.02209473 183.67628479 300.01901245 183.83500671 301.84338379 184.08491516 C 303.50253296 184.46371460 305.03454590 184.91397095 306.47097778 185.44857788 C 307.81607056 186.11155701 309.07250977 186.87860107 310.24060059 187.72256470 C 311.35809326 188.56182861 312.38354492 189.38301086 313.34216309 190.23966980 C 314.29885864 191.18432617 315.21942139 192.12564087 316.10098267 193.08648682 C 317.00607300 194.04214478 317.92626953 195.02262878 305.69390869 192.21549988" stroke-width="2.00000000" fill="rgb(199, 160, 115)" opacity="1.0" stroke="rgb(51, 41, 30)" stroke-opacity="1.0" stroke-linecap="round" stroke-linejoin="round"/>
    <path d="M 246.05587769 156.83407593 C 244.00160217 156.76098633 241.91909790 156.62771606 239.85321045 156.50382996 C 237.82530212 156.39114380 235.80612183 156.26631165 233.81932068 156.14411926 C 231.83459473 155.96514893 229.90594482 155.76123047 228.07110596 155.51506042 C 226.29602051 155.25497437 224.64173889 154.94023132 223.08563232 154.58828735 C 221.66543579 154.11660767 220.35473633 153.62553406 219.18501282 153.02743530 C 218.21084595 152.40228271 217.44546509 151.69712830 216.85758972 150.86573792 C 216.47689819 149.97956848 216.31632996 149.04029846 216.38732910 148.11901855 C 216.66807556 147.20190430 217.16871643 146.18211365 217.87153625 145.02365112 C 218.79902649 143.75860596 219.98878479 142.46572876 221.39060974 141.14830017 C 222.94770813 139.91442871 224.65092468 138.89054871 226.54530334 138.11671448 C 228.62399292 137.55395508 230.84620667 137.16534424 233.18150330 136.98886108 C 235.59754944 137.03970337 237.93072510 137.19096375 240.11791992 137.31385803 C 242.24476624 137.44329834 244.19213867 137.52775574 245.82328796 137.84300232 C 247.14767456 138.40498352 248.07954407 139.36935425 248.68142700 140.60191345 C 249.21662903 141.94003296 249.47375488 143.41249084 249.61074829 144.64791870 C 250.40243530 145.60307312 250.96725464 146.52781677 251.17691040 147.60870361 C 251.79017639 148.12632751 252.61871338 148.23153687 253.36076355 148.52653503 C 253.43704224 149.23974609 253.78392029 150.17893982 254.48229980 151.22407532 C 255.23793030 152.44209290 256.12979126 153.71598816 257.08551025 155.06352234 C 258.12347412 156.47286987 259.29772949 157.85810852 246.05587769 156.83407593" stroke-width="2.00000000" fill="rgb(49, 40, 31)" opacity="1.0" stroke="rgb(226, 210, 134)" stroke-opacity="1.0" stroke-linecap="round" stroke-linejoin="round"/>
    <path d="M 221.27871704 249.86489868 C 219.91394043 252.97566223 218.40910339 256.10827637 216.39790344 258.77758789 C 214.82690430 261.72125244 212.34828186 263.92086792 209.80534363 266.34103394 C 206.82202148 268.51895142 203.56759644 270.52880859 200.22018433 272.29437256 C 196.58946228 273.71545410 192.53729248 274.75265503 188.26501465 275.38497925 C 183.58906555 275.40802002 179.25329590 275.68997192 175.21078491 274.75286865 C 171.13258362 273.61007690 167.30038452 271.78018188 163.62658691 269.60266113 C 160.09242249 267.41421509 157.09043884 264.67416382 154.75451660 261.45602417 C 152.39852905 258.31845093 150.42260742 255.35775757 149.71998596 251.60133362 C 148.35472107 247.67727661 147.58592224 243.32328796 147.47882080 238.82856750 C 147.75463867 234.81262207 148.49801636 230.77180481 149.50885010 226.83499146 C 151.07492065 223.24374390 152.69869995 219.68931580 154.92462158 216.49984741 C 157.24766541 213.60174561 160.12963867 211.21656799 162.97698975 208.75010681 C 165.72027588 206.42082214 169.41368103 204.92488098 173.56182861 203.40870667 C 177.64175415 201.71258545 182.22698975 201.10897827 186.87110901 201.34660339 C 190.71981812 200.95610046 193.92990112 202.42320251 197.75834656 202.59793091 C 200.85606384 203.98254395 203.90902710 205.82360840 207.25405884 207.50216675 C 210.18930054 209.42320251 212.71119690 211.79402161 215.18882751 214.54077148 C 217.73989868 217.37066650 219.81021118 220.65431213 221.54481506 224.58728027 C 222.93931580 229.26182556 224.03218079 233.27764893 223.12199402 236.72366333 C 223.27313232 239.87142944 223.70957947 243.00422668 221.27871704 249.86489868" stroke-width="2.00000000" fill="rgb(64, 139, 50)" opacity="1.0" stroke="rgb(4, 0, 6)" stroke-opacity="0.97282445" stroke-linecap="round" stroke-linejoin="round"/>
    <path d="M 240.15769958 139.00628662 C 237.63568115 134.56369019 235.29089355 130.26722717 233.13642883 126.28937531 C 230.93533325 122.64968872 228.77201843 119.23291779 226.55049133 116.25077820 C 224.07536316 113.96410370 221.18119812 112.63312531 218.09408569 111.91380310 C 214.95164490 110.25440216 212.08306885 107.60809326 209.25378418 104.88370514 C 206.93420410 101.78526306 204.99137878 98.63980103 203.11614990 95.28227234 C 201.85934448 91.78539276 200.46191406 88.04872131 199.61499023 84.50569153 C 199.32568359 80.94416046 199.40612793 77.10031128 199.61677551 73.06516266 C 200.44441223 68.80189514 201.56848145 64.49296570 202.94982910 60.22530365 C 204.70542908 55.96543503 207.11221313 52.03651810 209.75158691 48.40366364 C 212.26446533 44.85742569 215.10409546 41.80222702 218.37478638 39.21215439 C 221.47779846 36.53120422 224.46566772 34.23769379 228.13281250 32.69073868 C 231.67680359 30.59877968 235.22055054 28.77427483 238.96966553 28.19988060 C 242.24607849 26.68105125 245.81724548 26.44723701 249.86837769 25.88987923 C 254.00288391 25.47046280 258.29678345 25.33624840 262.64337158 25.82283974 C 266.86178589 26.31678772 270.76028442 27.33967781 275.00372314 28.67800331 C 278.97866821 30.00929260 282.59429932 31.76729393 285.89016724 33.66623688 C 288.88641357 35.59917831 291.65084839 37.56304550 294.47015381 39.59257507 C 297.24060059 41.91208649 299.69848633 44.45006943 301.87475586 47.44816589 C 304.10614014 50.60366058 306.30541992 53.60038376 308.17498779 56.99287415 C 309.66403198 60.41585541 311.21218872 63.82013702 311.88507080 67.42234802 C 313.02175903 70.91352081 313.99737549 74.48977661 314.54766846 78.20645142 C 314.69546509 81.92655182 314.50756836 85.64528656 313.94873047 89.36226654 C 313.02478027 93.04206848 311.72100830 96.70235443 310.11654663 100.32581329 C 308.26458740 103.93648529 306.21771240 107.48605347 303.96112061 110.91376495 C 301.54080200 114.14134979 298.94271851 117.18006897 296.11618042 119.97357941 C 293.14633179 122.54447174 290.04428101 125.05183411 286.78991699 127.41124725 C 283.42697144 129.50720215 279.98001099 131.31468201 276.49826050 132.93392944 C 272.96984863 134.43484497 269.42190552 135.76867676 265.84548950 136.86991882 C 262.21630859 137.69119263 258.71905518 138.16792297 255.62919617 138.18302917 C 252.99894714 137.32600403 250.54316711 136.87382507 240.15769958 139.00628662" stroke-width="2.00000000" fill="rgb(75, 153, 62)" opacity="1.0" stroke="rgb(7, 2, 6)" stroke-opacity="1.0" stroke-linecap="round" stroke-linejoin="round"/>
    <path d="M 370.35647583 180.22080994 C 370.62921143 183.59521484 370.61505127 187.19657898 370.78704834 190.87858582 C 370.61932373 194.71827698 370.20291138 198.45646667 368.80474854 201.89804077 C 368.00372314 205.24452209 366.52398682 208.38194275 364.93688965 211.51760864 C 363.52255249 214.44021606 361.28515625 216.95123291 359.35476685 219.77178955 C 357.15325928 222.25425720 354.71835327 224.42417908 352.32940674 226.50212097 C 349.59677124 228.25993347 347.52401733 230.05216980 344.71643066 230.80783081 C 341.86566162 232.29010010 338.82308960 233.45382690 335.48535156 234.43446350 C 332.16363525 235.27656555 328.94668579 236.09516907 325.61322021 235.78713989 C 322.09143066 235.72872925 318.47656250 235.87794495 314.63427734 235.42430115 C 311.03213501 234.62528992 307.48825073 233.74224854 304.09744263 232.34133911 C 301.14230347 230.78387451 298.49536133 228.78933716 295.61413574 227.28741455 C 293.14828491 225.50041199 291.11773682 223.40472412 289.21636963 221.16444397 C 287.76028442 218.50057983 285.35140991 216.33952332 283.79803467 213.46212769 C 282.31576538 210.69473267 281.42541504 207.73063660 280.21868896 205.15974426 C 279.32723999 202.93940735 278.92880249 200.25457764 278.61193848 197.68531799 C 279.04995728 194.95965576 279.52337646 191.79927063 279.35733032 188.26089478 C 279.20150757 184.66616821 279.50595093 181.07809448 279.73193359 177.46733093 C 280.37152100 174.05635071 281.35153198 170.57223511 282.62268066 167.18649292 C 284.20446777 164.12202454 286.12655640 161.27609253 288.28363037 158.49920654 C 290.62463379 155.80653381 293.09252930 153.29008484 295.73202515 150.99266052 C 298.58032227 148.84570312 301.60440063 146.83592224 304.69110107 145.06558228 C 307.77102661 143.54351807 310.80972290 142.30879211 313.86148071 141.35993958 C 317.00570679 140.72814941 320.15213013 140.48429871 323.07315063 140.22801208 C 325.87063599 140.45225525 327.99096680 140.55413818 329.97653198 141.47099304 C 332.65023804 141.21984863 335.44851685 142.38920593 338.54821777 143.18899536 C 341.64199829 144.13920593 344.31240845 145.89260864 347.41390991 147.15945435 C 350.28210449 149.11686707 353.27371216 151.16336060 356.05581665 153.60357666 C 358.63821411 156.47038269 361.53311157 158.99983215 363.23275757 162.50283813 C 365.23348999 165.20399475 366.36941528 168.30532837 367.79357910 171.25088501 C 368.70266724 174.32846069 369.91107178 177.38122559 370.35647583 180.22080994" stroke-width="2.00000000" fill="rgb(64, 139, 50)" opacity="1.0" stroke="rgb(5, 2, 7)" stroke-opacity="1.0" stroke-linecap="round" stroke-linejoin="round"/>
    <path d="M 205.68913269 184.79418945 C 202.72868347 187.95834351 199.48143005 189.38897705 195.52479553 189.38795471 C 191.56376648 189.75230408 187.35345459 189.70527649 183.60520935 189.16429138 C 180.06072998 188.17996216 176.47569275 187.54119873 173.50555420 186.33805847 C 170.84010315 185.11656189 168.74153137 183.17231750 166.36059570 181.67997742 C 164.09208679 180.06927490 162.17097473 177.95906067 160.06951904 176.02560425 C 158.25926208 174.02540588 157.38909912 171.71018982 155.85958862 169.56704712 C 154.49714661 167.18356323 153.56112671 164.72964478 153.15112305 161.99513245 C 152.10310364 159.53070068 151.37583923 156.87101746 151.58119202 153.66865540 C 151.41427612 150.27526855 151.43960571 146.88323975 151.74581909 143.31379700 C 152.79467773 139.56446838 153.74420166 135.93362427 154.91764832 132.57106018 C 156.50753784 129.65762329 158.20405579 126.91768646 159.72985840 124.15974426 C 161.71382141 121.77726746 163.62867737 119.19670868 166.01481628 117.15343475 C 168.32359314 114.89443207 170.77560425 113.13225555 173.34458923 111.53607941 C 176.12948608 110.53153229 178.64857483 108.88289642 181.29330444 107.67935181 C 184.22747803 106.96228790 186.88088989 106.18518066 189.54200745 106.39634705 C 191.65122986 105.24948883 194.19067383 105.69976807 197.18241882 105.67073059 C 199.84405518 106.39204407 202.14863586 106.40946198 204.20500183 106.56369019 C 206.28526306 107.71332550 208.26522827 108.93008423 210.51588440 110.27498627 C 212.89309692 111.77584076 215.40515137 113.39982605 217.67337036 115.21703339 C 219.50752258 117.51388550 221.15093994 120.10316467 223.01013184 122.51454926 C 224.61219788 125.11879730 226.02664185 127.63609314 227.15992737 130.12001038 C 227.52999878 132.68376160 227.66702271 135.10762024 227.43319702 137.47521973 C 227.07971191 139.98464966 226.82685852 142.64326477 226.75819397 145.25506592 C 226.87771606 147.76023865 227.03746033 150.23898315 227.09860229 152.73321533 C 227.04873657 155.18908691 226.90528870 157.56619263 226.63604736 159.89064026 C 226.16296387 162.16583252 225.43249512 164.36291504 224.34484863 166.42935181 C 222.96533203 168.45021057 221.36973572 170.50886536 219.58630371 172.56811523 C 217.59420776 174.55827332 215.43188477 176.48922729 213.21035767 178.49296570 C 211.02253723 180.66476440 208.80287170 182.84486389 206.47830200 184.89025879 C 204.18266296 187.00341797 202.52697754 189.59024048 205.68913269 184.79418945" stroke-width="2.00000000" fill="rgb(95, 170, 73)" opacity="1.0" stroke="rgb(0, 0, 1)" stroke-opacity="1.0" stroke-linecap="round" stroke-linejoin="round"/>
    <path d="M 294.33544922 146.93878174 C 292.25460815 144.06698608 290.14315796 141.21884155 288.05950928 138.35729980 C 286.01541138 135.50204468 283.94857788 132.67381287 281.82037354 129.89668274 C 279.64959717 127.22975922 277.51907349 124.72222137 275.43615723 122.43392944 C 273.33847046 120.43970490 271.31378174 118.66201019 269.75897217 116.83359528 C 269.45745850 114.19679260 269.43572998 111.02843475 269.45870972 107.46149445 C 269.65042114 103.80344391 270.47891235 100.41175842 271.92868042 97.07532501 C 273.19570923 93.65389252 274.81759644 90.42832184 277.15859985 87.59357452 C 279.32363892 84.56888580 282.21026611 82.16017151 285.09640503 79.78443909 C 288.14962769 77.58756256 291.36788940 75.94511414 294.81423950 74.61244965 C 298.17028809 73.34420013 301.45571899 72.33441925 305.06329346 72.31059265 C 308.85250854 72.33918762 312.76611328 72.41046143 316.46035767 72.54886627 C 320.12329102 74.00016022 323.82336426 75.74045563 327.23233032 78.06892395 C 330.44540405 80.73169708 333.30438232 83.76875305 335.97750854 87.06128693 C 338.13952637 90.69053650 339.95730591 94.31055450 341.18716431 97.97947693 C 341.71719360 101.56197357 341.89053345 105.01033783 341.70550537 108.68365479 C 341.86041260 112.22286987 341.11145020 115.66990662 339.51541138 119.00359344 C 337.60327148 122.14299011 335.92871094 125.30773163 333.29574585 128.07275391 C 330.46868896 131.03703308 327.47738647 133.67776489 324.06796265 135.47317505 C 320.68536377 135.93119812 317.52102661 136.74983215 314.27139282 137.55784607 C 310.85311890 138.30558777 307.35418701 138.96922302 294.33544922 146.93878174" stroke-width="2.00000000" fill="rgb(96, 173, 77)" opacity="1.0" stroke="rgb(0, 0, 0)" stroke-opacity="1.0" stroke-linecap="round" stroke-linejoin="round"/>
    <path d="M 236.30929565 192.63417053 C 234.85797119 192.51858521 233.71342468 192.28607178 232.54183960 193.15310669 C 230.70927429 193.48101807 228.46038818 193.67831421 225.80557251 193.51437378 C 223.34112549 193.49661255 220.78390503 192.89414978 218.21365356 192.31240845 C 215.67308044 191.34120178 213.25857544 190.53756714 211.54727173 188.69828796 C 209.12565613 187.05693054 207.31237793 184.63645935 205.42395020 182.22602844 C 203.72134399 179.78746033 202.73776245 177.12284851 202.36172485 174.00352478 C 201.76043701 171.07475281 201.72090149 168.06431580 201.69596863 165.00627136 C 202.08058167 162.20248413 202.70812988 159.40483093 203.92755127 156.89895630 C 205.16790771 154.46118164 206.70716858 152.05484009 208.48678589 149.84197998 C 210.78111267 147.74137878 213.07553101 145.64366150 215.75592041 143.97248840 C 218.56072998 142.35475159 221.69212341 141.28726196 224.67420959 140.48190308 C 227.78752136 140.81530762 231.00862122 140.85086060 234.15495300 140.67813110 C 237.09605408 141.34196472 239.83027649 142.30087280 242.42622375 143.64497375 C 245.11674500 144.87590027 247.52087402 146.44660950 249.55747986 148.45567322 C 251.49613953 150.68980408 252.98332214 153.26390076 254.08398438 156.05467224 C 255.01977539 158.86689758 256.04150391 161.36781311 256.88119507 163.51036072 C 256.54364014 165.52603149 255.76976013 167.31503296 254.83808899 169.41247559 C 254.52244568 171.87388611 254.22969055 174.54458618 253.61039734 176.99798584 C 252.19488525 178.89974976 250.70629883 180.84457397 249.45584106 182.98519897 C 248.27433777 185.17634583 246.97123718 187.57992554 236.30929565 192.63417053" stroke-width="2.00000000" fill="rgb(99, 175, 80)" opacity="1.0" stroke="rgb(0, 0, 0)" stroke-opacity="1.0" stroke-linecap="round" stroke-linejoin="round"/>
    <path d="M 308.13531494 169.06632996 C 305.69146729 170.69192505 303.22106934 172.06063843 300.53201294 173.48197937 C 297.81283569 174.57705688 295.08843994 175.38249207 292.12213135 175.64337158 C 289.14544678 176.11203003 286.35333252 176.57574463 283.47970581 176.30201721 C 280.72546387 175.48307800 277.98736572 174.74653625 275.11657715 174.46839905 C 272.41049194 173.31851196 269.68054199 171.82196045 266.97821045 170.14749146 C 264.71286011 167.86041260 262.73336792 165.31176758 260.79568481 162.88520813 C 259.68835449 160.06091309 258.58200073 157.04655457 257.31387329 154.17601013 C 256.77795410 151.14700317 256.76669312 147.87487793 257.55798340 144.62026978 C 257.91476440 141.38249207 258.41198730 138.28259277 259.85757446 135.44975281 C 261.39828491 132.46044922 263.07699585 129.59860229 265.51168823 127.33795166 C 268.09780884 124.94812012 271.02624512 122.82669830 273.92443848 120.58016205 C 277.06500244 118.71987152 280.37869263 117.56526947 283.79162598 116.82629395 C 286.95657349 116.56171417 289.97543335 116.44532776 292.80987549 116.64659882 C 295.69766235 117.34766388 298.54180908 117.71636200 301.27529907 118.71732330 C 304.06344604 119.90649414 306.53231812 121.57321167 308.87905884 123.68948364 C 311.21200562 125.71704865 313.18679810 128.02482605 314.81930542 130.49861145 C 316.45660400 132.89422607 317.41683960 135.35391235 317.77053833 138.07321167 C 318.53952026 140.98994446 319.04711914 144.12823486 319.30072021 147.22888184 C 318.83816528 150.25749207 318.30426025 153.34629822 317.44760132 156.46592712 C 316.12338257 159.66000366 314.90603638 162.92219543 308.13531494 169.06632996" stroke-width="2.00000000" fill="rgb(102, 176, 80)" opacity="1.0" stroke="rgb(0, 0, 0)" stroke-opacity="1.0" stroke-linecap="round" stroke-linejoin="round"/>
    <path d="M 237.52453613 216.18038940 C 236.70092773 215.91407776 235.80807495 215.92594910 235.09289551 216.12983704 C 234.60116577 216.62689209 234.06330872 217.29588318 233.73265076 218.04795837 C 232.92054749 218.17687988 231.76057434 217.98214722 230.53233337 217.84370422 C 229.34941101 218.05120850 228.28501892 218.15885925 227.42700195 218.11653137 C 227.02478027 217.66116333 226.56898499 216.85092163 226.01109314 215.97369385 C 225.84181213 214.88436890 225.85008240 213.70947266 225.98616028 212.47340393 C 226.14115906 211.21127319 226.07131958 209.91952515 225.94752502 208.61433411 C 226.03936768 207.34735107 226.06268311 206.15902710 226.02374268 205.12705994 C 226.54081726 204.33700562 227.26451111 203.50051880 228.04576111 202.54251099 C 228.97509766 201.64846802 229.82150269 200.69122314 230.67730713 199.85700989 C 231.68070984 199.44235229 232.64140320 199.23884583 233.13490295 198.31105042 C 233.74975586 197.46151733 234.37115479 196.80397034 235.36244202 196.85133362 C 236.68975830 196.84674072 238.20791626 196.79585266 239.57815552 197.06156921 C 240.42362976 197.80937195 241.16914368 198.66873169 241.89131165 199.44859314 C 242.10812378 200.35401917 242.02337646 201.26968384 241.99409485 202.22811890 C 241.98432922 203.26269531 241.90197754 204.38429260 241.93354797 205.46644592 C 242.07142639 206.46084595 242.04347229 207.37860107 241.95030212 208.29913330 C 242.16697693 209.14073181 242.24018860 209.99313354 242.02915955 210.83731079 C 241.71705627 211.49423218 241.35992432 212.16290283 240.91429138 212.68888855 C 240.24133301 212.93170166 239.73361206 213.44839478 237.52453613 216.18038940" stroke-width="0.74958801" fill="rgb(255, 255, 255)" opacity="1.0" stroke="rgb(255, 255, 255)" stroke-opacity="0.0" stroke-linecap="round" stroke-linejoin="round"/>
    <path d="M 264.72607422 61.95714569 C 264.69406128 61.94947815 264.72152710 61.95407867 264.70019531 61.95581818 C 264.70605469 61.95241547 264.69750977 61.94549942 264.70144653 61.96908569 C 264.70245361 61.94557571 264.68194580 61.95261765 264.70620728 61.96166229 C 264.68386841 61.94621277 264.68194580 61.95067596 264.70196533 61.95800781 C 264.66885376 61.95093918 264.70025635 61.93872452 264.68215942 61.95822525 C 264.68310547 61.94238663 264.68106079 61.94848633 264.69485474 61.94083023 C 264.67184448 61.94234467 264.69009399 61.94305420 264.68560791 61.93186569 C 264.68487549 61.94097137 264.68872070 61.93621826 264.68478394 61.92889404 C 264.68682861 61.92609406 264.69253540 61.93047714 264.68753052 61.92647934 C 264.69372559 61.92002487 264.68960571 61.92546082 264.72607422 61.95714569" stroke-width="2.00000000" fill="rgb(61, 209, 0)" opacity="1.0" stroke="rgb(74, 157, 58)" stroke-opacity="1.0" stroke-linecap="round" stroke-linejoin="round"/>
    <path d="M 359.66888428 363.82757568 C 349.72061157 363.53524780 339.61087036 363.35171509 329.35577393 363.50012207 C 319.04156494 363.50674438 308.68402100 363.57272339 298.17803955 363.55642700 C 287.55569458 363.48504639 276.78652954 363.44213867 265.90301514 363.49078369 C 254.94992065 363.47940063 244.03482056 363.54266357 233.24908447 363.53713989 C 222.57948303 363.58340454 211.89575195 363.70983887 201.17796326 363.54946899 C 190.62428284 363.63073730 180.54866028 363.49630737 170.96958923 363.50833130 C 162.13653564 363.46066284 154.45227051 363.53753662 148.53988647 363.13522339 C 145.81523132 364.65307617 144.59040833 364.95928955 143.55084229 363.75381470 C 143.11627197 362.16613770 143.51419067 360.16616821 143.31265259 358.08624268 C 143.25041199 356.18222046 144.23606873 354.19100952 144.55262756 352.05062866 C 146.00431824 351.29376221 148.89231873 351.53042603 153.19300842 351.68759155 C 158.75180054 351.57849121 165.52003479 351.55889893 173.31585693 351.63229370 C 182.17834473 351.60403442 192.01313782 351.55078125 202.61378479 351.61801147 C 213.77752686 351.51617432 225.08656311 351.53204346 236.06474304 351.49700928 C 246.26301575 350.99224854 255.52272034 349.92355347 264.31341553 351.21487427 C 273.38226318 351.58621216 282.60931396 351.61276245 291.87768555 351.57940674 C 301.14364624 351.55639648 310.18078613 351.43530273 318.94616699 351.64892578 C 327.35821533 351.80084229 335.35998535 351.60415649 342.85125732 351.51666260 C 349.34439087 351.66784668 354.58227539 351.53826904 358.09432983 350.92434692 C 359.53836060 349.55847168 359.65109253 347.82150269 359.66888428 363.82757568" stroke-width="2.00000000" fill="rgb(188, 70, 6)" opacity="1.0" stroke="rgb(6, 3, 9)" stroke-opacity="1.0" stroke-linecap="round" stroke-linejoin="round"/>
    <path d="M 353.28997803 366.94403076 C 353.02810669 371.67471313 352.77929688 376.34219360 352.55688477 381.04614258 C 352.30099487 385.83670044 352.16302490 390.55813599 351.76092529 395.06210327 C 351.13882446 399.66543579 350.71414185 404.30947876 350.35244751 408.69558716 C 349.99890137 412.96578979 349.80206299 417.16311646 349.48092651 421.29772949 C 349.16812134 425.21365356 348.90255737 428.80441284 348.83767700 432.11776733 C 348.72686768 435.17813110 348.82260132 437.92422485 348.66931152 440.33648682 C 348.39395142 442.32754517 348.22262573 443.83987427 347.79251099 444.74261475 C 346.72540283 445.05187988 345.30963135 444.96536255 343.71386719 444.74838257 C 342.01358032 444.74023438 340.42846680 444.81378174 339.15338135 444.93707275 C 338.55764771 444.49575806 338.58724976 443.49304199 338.83193970 441.93017578 C 338.77075195 439.85095215 338.97817993 437.29684448 339.48892212 434.37738037 C 339.66091919 431.07318115 339.73501587 427.46112061 340.00866699 423.64984131 C 340.32519531 419.70986938 340.59317017 415.66726685 340.85964966 411.57214355 C 340.96545410 407.52191162 341.18347168 403.56207275 341.49194336 399.70535278 C 341.83035278 396.11041260 341.94177246 392.74273682 341.88903809 389.46090698 C 342.16809082 386.29083252 342.42544556 383.38473511 342.50262451 380.78149414 C 342.60183716 378.36987305 342.66357422 376.12460327 342.80957031 374.12402344 C 342.77029419 372.44372559 342.77407837 371.02102661 342.76669312 369.78836060 C 343.00622559 368.71438599 343.15386963 367.92254639 343.21017456 367.37155151 C 343.03686523 366.93475342 342.74075317 366.67031860 353.28997803 366.94403076" stroke-width="0.52838403" fill="rgb(253, 169, 80)" opacity="1.0" stroke="rgb(235, 160, 106)" stroke-opacity="0.49065298" stroke-linecap="round" stroke-linejoin="round"/>
    <path d="M 235.33766174 138.23310852 C 234.41264343 138.05610657 233.19557190 138.11152649 232.16925049 138.36018372 C 231.56718445 137.81080627 230.79148865 137.51486206 230.05664062 137.38040161 C 230.02516174 136.99580383 230.34014893 136.37748718 230.45855713 135.58155823 C 230.34053040 134.69415283 230.20616150 133.73303223 230.34249878 132.47639465 C 229.83312988 131.14901733 229.42749023 129.57080078 229.06806946 127.79228973 C 228.15211487 125.89204407 227.09243774 124.14294434 226.01907349 122.25260162 C 224.99563599 120.68049622 223.73204041 119.54978943 223.01181030 118.23118591 C 222.59034729 117.04421997 222.31060791 116.35260773 222.59846497 116.01502991 C 223.12306213 115.96163177 223.41995239 116.30898285 223.82415771 117.19521332 C 224.62284851 117.94976807 226.30242920 118.33975220 227.88737488 118.87842560 C 229.60652161 119.68229675 231.43574524 120.38940430 233.04341125 121.32566071 C 234.76313782 121.50826263 236.44194031 121.98928070 238.11486816 122.50241852 C 239.52581787 122.39986420 240.78935242 122.79650879 242.09796143 123.20268250 C 243.03939819 123.69598389 243.70674133 124.30506134 243.72863770 125.48764038 C 244.23738098 126.74070740 244.42140198 128.21043396 244.47688293 129.73789978 C 244.51068115 131.04736328 244.75285339 132.09545898 245.38140869 133.18896484 C 245.33155823 134.86329651 245.34326172 137.05525208 245.57592773 138.71623230 C 245.98638916 140.13427734 245.70402527 141.56188965 245.58117676 142.82376099 C 245.07337952 142.73103333 244.66366577 142.44659424 244.35903931 142.01858521 C 244.39958191 141.30032349 244.42782593 141.08978271 235.33766174 138.23310852" stroke-width="2.00000000" fill="rgb(250, 247, 248)" opacity="1.0" stroke="rgb(6, 6, 7)" stroke-opacity="0.9700218" stroke-linecap="round" stroke-linejoin="round"/>
    <path d="M 251.07498169 122.83383179 C 248.45732117 123.15321350 246.15602112 123.64324951 244.22380066 123.80248260 C 243.27026367 122.57049561 242.95640564 121.33765411 243.44201660 120.62339020 C 244.73236084 120.53376770 246.49400330 120.79165649 248.61647034 120.65031433 C 250.99893188 120.61857605 253.13169861 120.34128571 254.52230835 120.25258636 C 255.19967651 121.27999878 255.02967834 122.75656891 253.94692993 124.37480927 C 254.12843323 126.88069916 254.44015503 129.96562195 254.91172791 133.49176025 C 254.78721619 136.94866943 255.13084412 139.89567566 256.79647827 143.04710388 C 257.12973022 147.36480713 257.37200928 152.46347046 257.77047729 157.96437073 C 257.48870850 163.62356567 257.56130981 169.45686340 257.01574707 175.30717468 C 256.82293701 181.11308289 258.30801392 186.55851746 251.07498169 122.83383179" stroke-width="2.00000000" fill="rgb(17, 12, 8)" opacity="1.0" stroke="rgb(255, 212, 233)" stroke-opacity="0.25340068" stroke-linecap="round" stroke-linejoin="round"/>
    <path d="M 358.30996704 362.35800171 C 358.30245972 362.63427734 358.11544800 362.61282349 357.63217163 362.50180054 C 357.07113647 362.51699829 356.41793823 362.66183472 355.65789795 362.75360107 C 354.83709717 362.50518799 354.14407349 362.59475708 353.29241943 362.89208984 C 352.16168213 362.96127319 350.86895752 362.97253418 349.77996826 362.89599609 C 348.92330933 362.91677856 348.46704102 362.67565918 348.47787476 361.78140259 C 348.81149292 360.63488770 348.63336182 359.15960693 348.61260986 357.20346069 C 348.81777954 354.96279907 348.64266968 353.07266235 348.55725098 351.84698486 C 349.32907104 351.49160767 350.51635742 351.51248169 352.05975342 351.51373291 C 353.78289795 351.64685059 355.49148560 351.62814331 357.00454712 351.42465210 C 358.18536377 350.67752075 359.07247925 349.97537231 358.30996704 362.35800171" stroke-width="1.17251825" fill="rgb(253, 171, 85)" opacity="1.0" stroke="rgb(28, 4, 6)" stroke-opacity="0.78245384" stroke-linecap="round" stroke-linejoin="round"/>
  </g>
</svg>
