<?xml version="1.0" ?>
<svg xmlns="http://www.w3.org/2000/svg" version="1.1" width="512" height="512" viewBox="0 0 512 512">
  <defs/>
  <g>
    <path d="M 351.33670044 447.51473999 C 347.22866821 448.42285156 342.98037720 448.67578125 338.39910889 448.56777954 C 333.56686401 448.52246094 328.43576050 448.56805420 323.03298950 448.50119019 C 317.42468262 448.47756958 311.67941284 448.52548218 305.61050415 448.56277466 C 299.29388428 448.56823730 292.83132935 448.59609985 286.15563965 448.57028198 C 279.20675659 448.59402466 271.96029663 448.55493164 264.60589600 448.52413940 C 256.99783325 448.57379150 249.18458557 448.60772705 241.26768494 448.57629395 C 233.24273682 448.45446777 225.02923584 448.53286743 216.87048340 448.63107300 C 208.73204041 448.47994995 200.74569702 448.60272217 193.01554871 448.61105347 C 185.54389954 448.48532104 178.48475647 448.57125854 171.97801208 448.52975464 C 166.07275391 448.47155762 160.90347290 448.51556396 156.62533569 448.41400146 C 153.39237976 447.26129150 151.24282837 444.93344116 150.30282593 441.38168335 C 150.24902344 436.48367310 150.24411011 430.45767212 150.00386047 423.65820312 C 149.61007690 416.31060791 149.21601868 408.58044434 148.93894958 400.51568604 C 148.73614502 392.45993042 148.33456421 384.46655273 148.05210876 376.88330078 C 147.95759583 369.77783203 147.81288147 363.49063110 147.79679871 357.96807861 C 148.32334900 353.52282715 149.59262085 350.33715820 151.96511841 348.55599976 C 155.67842102 348.16336060 160.52476501 348.28872681 166.40274048 348.35858154 C 173.04707336 348.36166382 180.36239624 348.30215454 188.19572449 348.43273926 C 196.26390076 348.35702515 204.57167053 348.27752686 212.98881531 348.36090088 C 221.46614075 348.34381104 229.96517944 348.32800293 238.35144043 348.25704956 C 246.61105347 347.66622925 254.91566467 347.48226929 263.16427612 347.76321411 C 271.28988647 348.43640137 279.43914795 348.47244263 287.74566650 348.23187256 C 295.89117432 348.19812012 303.90069580 348.28555298 311.71990967 348.31033325 C 319.21160889 348.24407959 326.41650391 348.27120972 333.09487915 348.33587646 C 339.10580444 348.34494019 344.52215576 348.18814087 349.15936279 348.46948242 C 352.80850220 349.73129272 355.49465942 351.91870117 357.15695190 355.09500122 C 357.76187134 358.98348999 357.44219971 363.70480347 356.39508057 369.19186401 C 355.90060425 375.31744385 355.62750244 381.93615723 355.27062988 389.07623291 C 354.88632202 396.53329468 354.20578003 404.21548462 353.65054321 412.07476807 C 353.15490723 420.12155151 353.10165405 428.22540283 351.33670044 447.51473999" stroke-width="0.73619401" fill="rgb(17, 9, 8)" opacity="1.0" stroke="rgb(0, 0, 0)" stroke-opacity="0.3838073" stroke-linecap="round" stroke-linejoin="round"/>
    <path d="M 346.90032959 437.19180298 C 341.03436279 436.21060181 335.13040161 435.22042847 329.34790039 434.20977783 C 323.52496338 433.28372192 317.61541748 432.46353149 311.63995361 431.64425659 C 305.52099609 430.98440552 299.49789429 430.47155762 293.34176636 430.11480713 C 287.05273438 429.93103027 280.61770630 429.99319458 274.09039307 430.17379761 C 267.34231567 430.56933594 260.48422241 431.24234009 253.51469421 432.07495117 C 246.38827515 433.04776001 239.08984375 434.30624390 231.73918152 435.65078735 C 224.23532104 437.03631592 216.69715881 438.48757935 209.12149048 439.97293091 C 201.75582886 441.35482788 194.40022278 442.64999390 187.27542114 443.77764893 C 180.47412109 444.64874268 174.15762329 445.17709351 168.44293213 445.42282104 C 163.28109741 445.41323853 159.01530457 445.54031372 155.81901550 446.18112183 C 153.68576050 446.82415771 152.57034302 446.52307129 152.22894287 444.88449097 C 152.90235901 441.91229248 153.40489197 437.76181030 153.36730957 432.51840210 C 152.96025085 426.42984009 152.68360901 419.65942383 152.57998657 412.56967163 C 152.26750183 405.21264648 151.88096619 397.77035522 151.65438843 390.53524780 C 151.40338135 383.79962158 150.98707581 377.52996826 150.65888977 371.91470337 C 150.67390442 367.12771606 151.63072205 363.30078125 153.74046326 360.31692505 C 156.67166138 358.13830566 160.39123535 356.70693970 164.85208130 355.99707031 C 169.90072632 355.93560791 175.45736694 356.24072266 181.42471313 356.93701172 C 187.73654175 358.03515625 194.29959106 359.29278564 201.09822083 360.62243652 C 208.03323364 361.90130615 215.16204834 363.14862061 222.39533997 364.21530151 C 229.73628235 364.90359497 237.19053650 365.30569458 244.63175964 365.46975708 C 252.18193054 365.46994019 259.70880127 365.25485229 267.24942017 365.00631714 C 274.77017212 364.61062622 282.18725586 364.23153687 289.55661011 363.87399292 C 296.73568726 363.55334473 303.75979614 363.38018799 310.48104858 363.27041626 C 316.89993286 363.24200439 322.96313477 363.57901001 328.54367065 363.99032593 C 333.57275391 364.63043213 338.06744385 365.68524170 341.73233032 367.46887207 C 344.62667847 370.16229248 346.76138306 373.71252441 348.30828857 377.85556030 C 349.31469727 382.62310791 349.94537354 387.82296753 350.29418945 393.38912964 C 350.46386719 399.14663696 350.48751831 405.06390381 350.38159180 411.06298828 C 350.20547485 417.14547729 350.07983398 423.19522095 346.90032959 437.19180298" stroke-width="2.00000000" fill="rgb(177, 73, 2)" opacity="1.0" stroke="rgb(19, 4, 4)" stroke-opacity="1.0" stroke-linecap="round" stroke-linejoin="round"/>
    <path d="M 328.54418945 445.19497681 C 320.69982910 445.10894775 312.83859253 445.02975464 305.03784180 445.06057739 C 297.11730957 445.07662964 289.30056763 445.11706543 281.34591675 445.12039185 C 273.46847534 445.10412598 265.47082520 445.13201904 257.55883789 445.11929321 C 249.60807800 445.04800415 241.76446533 444.97933960 233.90158081 445.03747559 C 226.27406311 445.05682373 218.74732971 445.04751587 211.53044128 445.02386475 C 204.56179810 444.92468262 198.04005432 444.97912598 191.94102478 445.00119019 C 186.42539978 444.95141602 181.49070740 444.96575928 177.38764954 444.95358276 C 173.87174988 444.77429199 171.35975647 444.22640991 169.65226746 443.39331055 C 168.85617065 442.16583252 168.94311523 440.76870728 169.93441772 439.12527466 C 171.73248291 437.47714233 174.38627625 435.75836182 177.79789734 434.05593872 C 181.88549805 432.47824097 186.71058655 431.04669189 192.05006409 429.65100098 C 198.00296021 428.44000244 204.36122131 427.38235474 211.12617493 426.47247314 C 218.17868042 425.72781372 225.49649048 425.15777588 232.98529053 424.71719360 C 240.51676941 424.46228027 248.14892578 424.29977417 255.75628662 424.23547363 C 263.22430420 424.33306885 270.66931152 424.50000000 277.90057373 424.75186157 C 284.90249634 425.13629150 291.73489380 425.68511963 298.29275513 426.28244019 C 304.53854370 427.00531006 310.61605835 427.93505859 316.34582520 428.95779419 C 321.81781006 430.22125244 327.01904297 431.67431641 331.97280884 433.35522461 C 336.67971802 435.39282227 341.14083862 437.64376831 345.46270752 440.05694580 C 349.77545166 442.71194458 354.01367188 445.32305908 328.54418945 445.19497681" stroke-width="0.96214712" fill="rgb(177, 72, 0)" opacity="1.0" stroke="rgb(179, 67, 9)" stroke-opacity="0.48553148" stroke-linecap="round" stroke-linejoin="round"/>
    <path d="M 247.88557434 304.56344604 C 249.27101135 313.97421265 251.25437927 322.86138916 253.96252441 330.85220337 C 256.66857910 337.87454224 259.38143921 343.28472900 261.03347778 347.33990479 C 259.62274170 350.52520752 256.26937866 352.26885986 252.07493591 352.30352783 C 247.95718384 350.29766846 244.76818848 346.00433350 242.66429138 339.05758667 C 240.08839417 330.28265381 237.95991516 320.14285278 236.43095398 308.96017456 C 235.14065552 296.93692017 235.66836548 284.27404785 237.09696960 271.29248047 C 238.35116577 258.24270630 240.47138977 245.41162109 244.06719971 232.88967896 C 247.06732178 220.17030334 249.19822693 207.60658264 250.99589539 195.27175903 C 252.65695190 183.13969421 253.25627136 171.30172729 252.83338928 160.00070190 C 251.63610840 149.17045593 250.30325317 138.82440186 249.21652222 129.04423523 C 248.28923035 120.07689667 247.69253540 112.08215332 247.30793762 105.08862305 C 247.24723816 99.14893341 247.49076843 94.45904541 248.02397156 91.08126068 C 248.59127808 89.10359192 249.35173035 88.50128174 250.13375854 89.24543762 C 251.07641602 91.16494751 252.12619019 94.46840668 253.27720642 99.15321350 C 254.42835999 105.02828217 255.62539673 112.00391388 256.75775146 119.89958191 C 257.79605103 128.69990540 258.68942261 138.42578125 259.37908936 148.73899841 C 259.94512939 159.51641846 260.33493042 170.55458069 260.37899780 181.93138123 C 260.69030762 193.29331970 259.84417725 204.43202209 256.93283081 215.61875916 C 254.58207703 227.47302246 252.51879883 239.89100647 250.54762268 252.43585205 C 248.67259216 265.44625854 246.52189636 278.60510254 247.88557434 304.56344604" stroke-width="2.00000000" fill="rgb(182, 144, 102)" opacity="1.0" stroke="rgb(0, 0, 0)" stroke-opacity="1.0" stroke-linecap="round" stroke-linejoin="round"/>
    <path d="M 196.80726624 233.85792542 C 199.32463074 233.93455505 201.85939026 233.92610168 204.36949158 233.91273499 C 206.96017456 233.96357727 209.45764160 234.03874207 212.06738281 234.08670044 C 214.60343933 234.26336670 217.29635620 234.42430115 219.87493896 234.66481018 C 222.49380493 234.91654968 225.14411926 235.30287170 227.75497437 235.75555420 C 230.09617615 236.26742554 232.46723938 236.92137146 234.86849976 237.44247437 C 237.13873291 237.73593140 239.26220703 238.55052185 241.15397644 239.61668396 C 243.17033386 240.42721558 245.21316528 241.11093140 247.12570190 241.49394226 C 248.79168701 241.53663635 250.11302185 241.43661499 250.93710327 241.58586121 C 251.15934753 242.20487976 250.85215759 243.41700745 250.52481079 244.79519653 C 250.35827637 246.26994324 250.27340698 247.69723511 249.73541260 248.56843567 C 248.73530579 248.86840820 247.14485168 248.79370117 245.32153320 248.46011353 C 243.38433838 247.76339722 241.49099731 246.93246460 239.46054077 246.00994873 C 237.50169373 244.87054443 235.70201111 243.88148499 233.75927734 243.18171692 C 231.65310669 242.65016174 229.75366211 241.86358643 227.88841248 241.25111389 C 225.77664185 241.19499207 223.46450806 241.29696655 220.97560120 241.39764404 C 218.58906555 241.38313293 216.09461975 241.20379639 213.63870239 240.94192505 C 211.25035095 240.90841675 208.93511963 240.78459167 206.72253418 240.76516724 C 204.57289124 240.63995361 202.52996826 240.62892151 200.50952148 240.71321106 C 198.44854736 240.86125183 196.51300049 240.87203979 194.52270508 240.87280273 C 192.60136414 240.96807861 190.54479980 241.15063477 196.80726624 233.85792542" stroke-width="2.00000000" fill="rgb(190, 150, 111)" opacity="1.0" stroke="rgb(62, 46, 34)" stroke-opacity="1.0" stroke-linecap="round" stroke-linejoin="round"/>
    <path d="M 302.93368530 191.96353149 C 299.65667725 192.24078369 296.37231445 192.59004211 293.18667603 193.04200745 C 289.93548584 193.44860840 286.60232544 193.84774780 283.17025757 194.18246460 C 279.82583618 194.63673401 276.41949463 195.16007996 272.98422241 195.69480896 C 269.59085083 196.48660278 266.36663818 197.38378906 263.14520264 198.34371948 C 260.20980835 199.07530212 257.63464355 200.19439697 255.37162781 201.25071716 C 253.55776978 201.71414185 252.17245483 201.75984192 251.36294556 201.48231506 C 251.22612000 200.55574036 251.47198486 199.12074280 251.75953674 197.42239380 C 251.93005371 195.81161499 252.24166870 194.40705872 253.03953552 193.51266479 C 254.48272705 193.48042297 256.13522339 193.62127686 258.17553711 193.50129700 C 260.45321655 192.83049011 262.87991333 191.99008179 265.38095093 190.89643860 C 268.07608032 190.18264771 270.87899780 189.36103821 273.65365601 188.40844727 C 276.49072266 187.40261841 279.32315063 186.46266174 282.21109009 185.57373047 C 284.99957275 184.84741211 287.73754883 184.08436584 290.40447998 183.54031372 C 292.90554810 183.14710999 295.26589966 182.88438416 297.53494263 182.79875183 C 299.64132690 182.87236023 301.58959961 183.05078125 303.32510376 183.37507629 C 304.89205933 183.92747498 306.32015991 184.49011230 307.63372803 185.22305298 C 308.75689697 185.98896790 309.71511841 186.82829285 310.61862183 187.81454468 C 311.46453857 188.78472900 312.15325928 189.81167603 312.74530029 190.86692810 C 313.35437012 191.93672180 313.92794800 193.03921509 314.45114136 194.15930176 C 315.03152466 195.27972412 315.50253296 196.42155457 302.93368530 191.96353149" stroke-width="2.00000000" fill="rgb(197, 158, 111)" opacity="1.0" stroke="rgb(56, 43, 31)" stroke-opacity="1.0" stroke-linecap="round" stroke-linejoin="round"/>
    <path d="M 247.42985535 156.03550720 C 245.26640320 156.03526306 243.06427002 155.98460388 240.92445374 155.96498108 C 238.72561646 155.96455383 236.57546997 155.95761108 234.49812317 155.85652161 C 232.40518188 155.83023071 230.36849976 155.71401978 228.39587402 155.60217285 C 226.49548340 155.41007996 224.74789429 155.16403198 223.03390503 154.93853760 C 221.44541931 154.61622620 220.00630188 154.17489624 218.75704956 153.67326355 C 217.68405151 153.14793396 216.73170471 152.51434326 216.00431824 151.87991333 C 215.53773499 151.08804321 215.23710632 150.20845032 215.20152283 149.33172607 C 215.34831238 148.39044189 215.74557495 147.29988098 216.37020874 146.15129089 C 217.30117798 145.04319763 218.48930359 143.99928284 219.84184265 142.85357666 C 221.38659668 141.72595215 223.06466675 140.59251404 225.00569153 139.63676453 C 227.12631226 138.85533142 229.38543701 138.14685059 231.68618774 137.60180664 C 234.08676147 137.26902771 236.44084167 137.08877563 238.69488525 137.01029968 C 240.95713806 137.00173950 243.07237244 137.08935547 244.90884399 137.41029358 C 246.41496277 137.93678284 247.57495117 138.75338745 248.42683411 139.86567688 C 248.87434387 141.17689514 249.14694214 142.54348755 249.41543579 143.87507629 C 249.77384949 145.08576965 250.47985840 145.94926453 251.30525208 146.86830139 C 252.12362671 147.72294617 252.90156555 148.67349243 253.67944336 149.69400024 C 254.48190308 150.60823059 255.20658875 151.75450134 255.92939758 152.89356995 C 256.69824219 153.89860535 257.42996216 154.99385071 258.09518433 156.13398743 C 258.86019897 157.28163147 259.63046265 158.34265137 247.42985535 156.03550720" stroke-width="2.00000000" fill="rgb(37, 29, 26)" opacity="1.0" stroke="rgb(214, 199, 129)" stroke-opacity="1.0" stroke-linecap="round" stroke-linejoin="round"/>
    <path d="M 221.47485352 249.67286682 C 219.99063110 252.95689392 218.30290222 256.11340332 216.30393982 259.06240845 C 214.29684448 261.87765503 211.92095947 264.38873291 209.34266663 266.66845703 C 206.40863037 268.89370728 203.38993835 270.77700806 200.00901794 272.47015381 C 196.34031677 273.68350220 192.36549377 274.73199463 188.16571045 275.36712646 C 183.92236328 275.59719849 179.50704956 275.51293945 175.29110718 274.81072998 C 171.25578308 273.64932251 167.34864807 271.86392212 163.69215393 269.75762939 C 160.31062317 267.50390625 157.49427795 264.72802734 154.97633362 261.64208984 C 152.45466614 258.72830200 150.61541748 255.35017395 149.52357483 251.53776550 C 148.42631531 247.64079285 147.72566223 243.46247864 147.47029114 239.12307739 C 147.65403748 235.02821350 148.47406006 231.13468933 149.57328796 227.26004028 C 150.77337646 223.53633118 152.47937012 220.28768921 154.51440430 217.18171692 C 156.68940735 214.22688293 159.10682678 211.59922791 162.02603149 209.38322449 C 165.02778625 207.21762085 168.27973938 205.53625488 171.78904724 204.04046631 C 175.38983154 202.57446289 179.19049072 201.60577393 183.08599854 201.36845398 C 187.00715637 201.21340942 191.06173706 201.42111206 195.12002563 202.19671631 C 198.98880005 202.89836121 202.42933655 204.67124939 205.92561340 206.81945801 C 209.29275513 208.90539551 212.29173279 211.49333191 215.05979919 214.36108398 C 217.58850098 217.32905579 219.58312988 220.59591675 221.32048035 224.02699280 C 222.60183716 227.55555725 223.56555176 231.19471741 223.43385315 234.97412109 C 223.26916504 239.01618958 223.50566101 243.12002563 221.47485352 249.67286682" stroke-width="2.00000000" fill="rgb(63, 139, 49)" opacity="1.0" stroke="rgb(2, 0, 2)" stroke-opacity="0.9739904" stroke-linecap="round" stroke-linejoin="round"/>
    <path d="M 243.49836731 137.81803894 C 240.73889160 133.97552490 237.93722534 130.29269409 235.14544678 126.71871185 C 232.30647278 123.29087830 229.46711731 120.09251404 226.50987244 117.23309326 C 223.43127441 114.86276245 220.27249146 112.91690826 217.02153015 111.20762634 C 214.08160400 109.34965515 211.50971985 107.00635529 209.15946960 104.30828857 C 206.90167236 101.69679260 204.84878540 98.71813202 203.08691406 95.48153687 C 201.81709290 92.05377960 200.61662292 88.44481659 199.62841797 84.79550934 C 199.31358337 80.82714844 199.34884644 76.75273132 199.66189575 72.62133026 C 200.45562744 68.43746185 201.78273010 64.14783478 203.09172058 59.79237366 C 204.91333008 55.80597687 207.19665527 52.02706909 209.61778259 48.34188843 C 212.19721985 45.03200912 215.20359802 42.16145325 218.28102112 39.36666489 C 221.20809937 36.70119095 224.42703247 34.30861282 227.87602234 32.64193344 C 231.33074951 30.82014656 234.81382751 29.17078972 238.46368408 28.15349579 C 242.27766418 26.87309074 246.13208008 26.18271255 250.16409302 25.77565002 C 254.31454468 25.52801323 258.52520752 25.45555878 262.65643311 25.85464287 C 266.67544556 26.49116898 270.70904541 27.37401962 274.72064209 28.69061661 C 278.62707520 29.96385002 282.15643311 31.52864265 285.50054932 33.47417450 C 288.60113525 35.44867706 291.53320312 37.53166580 294.46279907 39.59970856 C 297.24792480 41.78176117 299.62353516 44.42316437 301.74908447 47.34329605 C 303.94244385 50.22362900 306.01309204 53.28748703 307.87811279 56.56978607 C 309.49377441 59.73324966 310.72537231 63.14698029 311.82269287 66.84355164 C 312.85028076 70.48398590 313.49185181 74.10882568 313.82009888 77.88933563 C 313.88558960 81.90401459 313.61120605 85.92119598 313.05960083 89.81909180 C 312.01876831 93.64700317 310.82443237 97.53337097 309.34057617 101.30635834 C 307.66448975 104.99527740 305.70312500 108.53016663 303.51776123 111.91412354 C 301.10937500 115.08223724 298.64666748 118.11000061 295.88864136 120.92764282 C 293.03860474 123.59259033 290.03952026 125.97392273 286.88497925 128.12582397 C 283.70217896 130.05050659 280.43722534 131.87779236 277.06509399 133.36882019 C 273.63174438 134.60041809 270.09249878 135.58789062 266.59741211 136.42381287 C 263.11801147 137.06332397 259.56393433 137.44313049 255.99098206 137.56723022 C 252.46968079 137.39691162 249.04547119 137.21086121 243.49836731 137.81803894" stroke-width="2.00000000" fill="rgb(75, 153, 59)" opacity="1.0" stroke="rgb(8, 1, 4)" stroke-opacity="1.0" stroke-linecap="round" stroke-linejoin="round"/>
    <path d="M 370.45059204 180.48486328 C 370.51519775 183.98777771 370.69094849 187.61109924 370.81451416 191.14050293 C 370.78479004 194.52182007 370.15567017 197.82254028 368.99752808 201.06240845 C 368.11898804 204.46395874 366.86175537 207.77175903 365.40423584 211.08418274 C 363.58255005 214.08250427 361.58679199 216.89335632 359.53497314 219.59771729 C 357.26235962 222.10040283 354.91464233 224.40959167 352.56680298 226.53434753 C 349.95428467 228.40243530 347.23117065 229.93145752 344.32482910 230.96038818 C 341.38269043 232.44049072 338.36340332 233.59643555 335.15231323 234.50849915 C 331.97811890 235.46749878 328.74612427 235.97296143 325.29556274 235.79057312 C 321.77493286 235.79986572 318.17776489 235.66888428 314.53314209 235.26559448 C 311.03546143 234.70469666 307.59197998 233.66305542 304.29696655 232.26896667 C 301.36798096 230.74806213 298.51736450 228.97653198 295.72427368 227.26776123 C 293.18176270 225.40383911 291.01315308 223.35964966 289.01651001 220.90751648 C 287.24340820 218.27378845 285.18182373 215.84744263 283.48294067 213.25358582 C 282.30239868 210.37930298 281.19964600 207.63986206 280.04583740 204.99763489 C 279.26037598 202.29655457 278.65725708 199.64456177 278.60968018 196.98744202 C 279.02664185 194.06941223 279.42465210 191.07524109 279.40295410 187.91166687 C 279.33557129 184.51904297 279.42465210 181.09701538 279.78601074 177.70133972 C 280.33926392 174.38323975 281.35083008 171.11918640 282.75674438 167.95713806 C 284.32373047 164.85922241 286.15884399 161.95965576 288.26547241 159.29646301 C 290.62930298 156.65109253 293.20291138 154.17829895 295.86297607 151.87164307 C 298.74676514 149.77442932 301.63876343 147.79328918 304.62023926 146.01690674 C 307.78549194 144.53001404 310.89248657 143.31396484 313.93969727 142.16540527 C 316.98184204 141.28491211 319.93075562 140.62438965 322.79205322 140.26789856 C 325.49258423 140.42900085 328.26010132 140.81262207 331.02136230 141.28796387 C 333.82525635 141.79145813 336.52090454 142.61204529 339.43905640 143.46244812 C 342.38937378 144.49128723 345.20825195 145.93217468 347.88842773 147.55944824 C 350.74407959 149.34207153 353.61538696 151.51136780 356.29785156 153.85710144 C 358.82693481 156.51713562 361.20874023 159.24584961 363.38064575 162.17697144 C 364.95712280 165.22215271 366.34527588 168.35371399 367.79922485 171.40336609 C 368.86743164 174.52449036 369.93981934 177.84454346 370.45059204 180.48486328" stroke-width="2.00000000" fill="rgb(65, 142, 51)" opacity="1.0" stroke="rgb(3, 0, 5)" stroke-opacity="1.0" stroke-linecap="round" stroke-linejoin="round"/>
    <path d="M 202.96264648 187.44555664 C 199.63343811 188.76173401 196.13696289 189.43458557 192.70832825 189.60217285 C 189.29869080 189.63116455 186.01692200 189.41540527 183.00584412 189.19337463 C 180.10960388 188.38931274 177.19544983 187.58711243 174.26513672 186.69270325 C 171.53779602 185.51058960 169.15779114 183.58599854 166.55113220 181.93638611 C 164.17271423 180.10058594 162.02671814 178.02833557 160.00651550 175.96989441 C 158.25202942 173.71064758 156.79866028 171.20024109 155.36689758 168.81483459 C 154.10714722 166.33517456 153.32621765 163.56161499 152.65028381 160.81800842 C 151.95372009 158.00462341 151.50161743 155.11587524 151.46942139 152.24650574 C 151.38296509 149.33816528 151.31242371 146.16705322 151.74751282 142.96047974 C 152.61911011 139.87773132 153.59101868 136.64656067 154.61145020 133.38436890 C 156.04486084 130.35548401 157.73741150 127.51000977 159.40077209 124.69290161 C 161.32804871 122.01675415 163.44926453 119.58094788 165.69143677 117.29067230 C 168.23191833 115.13309479 170.73184204 113.20886230 173.33424377 111.61836243 C 176.05780029 110.41051483 178.74151611 109.03256989 181.34996033 107.72480011 C 184.10998535 106.90362549 186.78498840 106.40809631 189.34358215 106.07852936 C 191.95634460 105.42560577 194.58624268 105.56053925 197.10293579 105.70659637 C 199.59173584 106.18588257 201.96649170 106.42342377 204.28617859 106.69837952 C 206.32440186 107.61026764 208.44021606 109.02571869 210.83274841 110.51321411 C 213.29872131 112.03698730 215.70564270 113.47720337 217.81903076 115.37815857 C 219.79190063 117.71052551 221.50189209 120.22946167 223.08465576 122.76489258 C 224.62113953 125.25836945 226.17762756 127.75842285 227.24633789 130.39405823 C 227.50997925 133.11326599 227.52815247 135.71107483 227.48104858 138.16236877 C 227.59080505 140.75776672 227.93942261 143.31497192 228.41561890 145.89007568 C 228.95443726 148.38525391 229.54945374 150.87200928 230.09365845 153.36158752 C 230.54530334 155.75231934 230.75955200 158.06771851 230.68055725 160.28157043 C 230.43838501 162.52311707 229.77246094 164.60034180 228.71760559 166.60710144 C 227.34196472 168.68438721 225.65596008 170.79507446 223.57171631 172.84751892 C 221.05604553 174.76988220 218.33695984 176.68592834 215.45658875 178.60047913 C 212.53254700 180.58926392 209.61790466 182.61174011 206.83007812 184.74948120 C 204.15536499 187.03710938 201.60459900 189.52938843 202.96264648 187.44555664" stroke-width="2.00000000" fill="rgb(96, 168, 73)" opacity="1.0" stroke="rgb(3, 0, 3)" stroke-opacity="1.0" stroke-linecap="round" stroke-linejoin="round"/>
    <path d="M 296.95120239 147.38038635 C 294.32440186 144.79080200 291.72558594 142.10064697 289.19656372 139.36267090 C 286.64123535 136.75250244 284.14944458 134.17031860 281.69119263 131.55755615 C 279.29556274 128.91354370 277.06561279 126.31795502 274.95004272 123.74846649 C 273.02661133 121.23158264 271.20596313 118.72288513 269.94860840 116.09252930 C 269.36380005 113.16283417 269.40972900 109.97641754 269.50140381 106.63837433 C 269.81149292 103.31095123 270.62570190 100.03773499 271.76974487 96.76001740 C 273.25769043 93.62679291 275.04595947 90.55357361 277.05636597 87.60988617 C 279.31146240 84.80223846 282.03106689 82.29222107 284.91802979 79.92115784 C 287.85061646 77.78199005 291.01553345 76.07153320 294.46002197 74.73820496 C 297.94027710 73.54148102 301.53021240 72.68652344 305.28469849 72.38468933 C 309.09329224 72.21224976 312.97753906 72.28661346 316.77874756 72.57302094 C 320.41442871 73.92482758 323.86419678 75.78908539 327.31149292 78.05161285 C 330.49374390 80.77998352 333.31350708 83.77389526 335.91616821 87.10565948 C 338.13232422 90.55891418 339.91632080 94.06707001 341.02578735 97.79314423 C 341.73110962 101.34241486 341.91641235 104.72286987 341.81762695 108.09858704 C 341.67144775 111.55310059 341.22506714 114.88678741 339.99414062 118.07713318 C 338.22210693 121.36746979 336.21096802 124.67476654 333.73385620 127.74308777 C 330.78735352 130.60028076 327.76071167 133.29586792 324.65075684 135.31567383 C 321.33007812 136.25738525 317.94509888 136.85659790 314.47583008 137.44293213 C 311.04061890 137.99475098 307.60293579 138.69912720 296.95120239 147.38038635" stroke-width="2.00000000" fill="rgb(98, 171, 77)" opacity="1.0" stroke="rgb(0, 0, 0)" stroke-opacity="1.0" stroke-linecap="round" stroke-linejoin="round"/>
    <path d="M 238.21807861 191.74482727 C 236.27607727 192.47508240 234.24942017 192.92257690 232.09606934 193.16978455 C 229.80616760 193.40425110 227.50801086 193.51283264 225.20678711 193.47547913 C 222.76867676 193.15548706 220.27030945 192.91941833 217.86723328 192.37379456 C 215.53616333 191.32339478 213.24464417 190.19009399 211.06529236 188.48628235 C 209.03594971 186.61492920 207.24916077 184.43467712 205.32734680 182.25119019 C 203.82139587 179.77732849 202.85997009 177.02769470 202.29902649 174.12370300 C 201.87399292 171.09162903 201.60900879 168.03358459 201.57019043 165.03237915 C 201.90147400 162.20921326 202.75871277 159.51126099 203.89408875 156.82752991 C 205.30509949 154.24203491 206.92485046 151.80642700 208.78292847 149.49603271 C 210.97711182 147.37022400 213.33691406 145.44572449 215.95617676 143.79597473 C 218.71794128 142.36332703 221.52317810 141.41253662 224.39880371 140.66337585 C 227.26901245 140.51846313 230.11596680 140.62271118 232.93527222 140.76304626 C 235.76770020 141.11732483 238.57217407 141.79292297 241.13423157 142.88922119 C 243.62080383 144.16241455 246.08259583 145.67863464 248.36531067 147.33395386 C 250.22021484 149.14103699 251.74945068 151.24433899 253.03613281 153.66770935 C 254.14414978 156.11259460 255.25883484 158.52339172 256.30435181 160.73477173 C 256.95748901 162.88673401 256.80004883 165.06886292 255.99827576 167.32353210 C 255.04840088 169.64970398 254.43997192 172.21771240 254.09704590 175.02705383 C 253.32586670 177.64349365 251.87994385 180.07937622 250.03529358 182.45729065 C 248.23260498 185.13076782 246.45686340 187.80619812 238.21807861 191.74482727" stroke-width="2.00000000" fill="rgb(101, 176, 79)" opacity="1.0" stroke="rgb(0, 0, 0)" stroke-opacity="1.0" stroke-linecap="round" stroke-linejoin="round"/>
    <path d="M 308.20349121 169.10546875 C 305.64987183 170.64076233 303.07958984 172.13537598 300.47109985 173.40655518 C 297.85903931 174.45182800 295.03778076 175.24008179 292.19372559 175.72767639 C 289.37750244 176.16308594 286.51065063 176.36238098 283.64541626 176.16931152 C 280.79733276 175.56129456 277.88162231 174.94839478 274.94406128 174.33988953 C 272.04934692 173.25158691 269.44165039 171.75885010 266.94433594 170.00843811 C 264.76336670 167.72387695 262.68978882 165.28602600 260.83471680 162.73048401 C 259.50305176 159.74221802 258.35342407 156.65669250 257.65228271 153.55627441 C 257.24020386 150.41055298 257.21142578 147.12695312 257.49337769 143.82040405 C 257.97714233 140.65216064 258.88568115 137.63377380 260.20260620 134.76014709 C 261.68789673 131.78610229 263.60662842 129.15132141 265.96762085 126.91816711 C 268.51016235 124.74993896 271.24716187 122.55010986 273.98937988 120.48558044 C 276.92312622 118.81429291 280.04916382 117.70288086 283.24114990 116.94598389 C 286.38259888 116.49805450 289.53738403 116.46025085 292.73233032 116.63889313 C 295.83047485 117.21427155 298.74771118 117.86219025 301.54769897 118.89883423 C 304.31652832 120.09907532 306.77774048 121.80739594 309.09759521 123.75887299 C 311.27822876 125.85677338 313.23056030 128.13967896 314.94799805 130.59381104 C 316.37268066 133.02444458 317.39486694 135.74064636 318.08233643 138.54904175 C 318.64172363 141.37968445 319.05847168 144.21307373 319.30703735 147.05789185 C 319.01412964 149.86343384 318.46557617 152.67498779 317.77444458 155.58892822 C 316.88665771 158.53120422 315.91329956 161.35905457 308.20349121 169.10546875" stroke-width="2.00000000" fill="rgb(102, 177, 79)" opacity="1.0" stroke="rgb(0, 0, 0)" stroke-opacity="1.0" stroke-linecap="round" stroke-linejoin="round"/>
    <path d="M 237.68011475 215.91828918 C 236.75199890 215.88796997 235.90681458 215.94409180 235.17831421 216.20994568 C 234.64869690 216.77069092 234.11483765 217.44515991 233.49188232 218.02713013 C 232.65524292 218.16470337 231.76443481 218.13992310 230.72631836 218.04324341 C 229.59199524 217.98594666 228.49031067 218.05323792 227.62969971 218.02540588 C 226.94767761 217.60278320 226.39334106 216.88563538 226.00163269 216.02770996 C 225.85705566 215.02555847 225.95622253 213.88999939 226.06311035 212.62876892 C 226.14155579 211.37316895 226.13218689 210.14872742 226.02644348 208.83837891 C 225.96115112 207.56829834 225.96687317 206.40478516 226.02961731 205.37234497 C 226.50154114 204.43260193 227.10253906 203.54673767 227.81188965 202.70693970 C 228.62377930 201.83326721 229.46588135 200.93518066 230.44358826 200.15240479 C 231.51409912 199.52607727 232.51516724 198.89752197 233.39212036 198.15544128 C 234.48344421 197.55235291 235.55335999 197.05616760 236.55377197 196.77200317 C 237.60263062 196.81234741 238.62094116 196.99957275 239.62792969 197.15032959 C 240.48146057 197.74800110 241.19348145 198.51434326 241.77917480 199.27838135 C 242.10218811 200.07044983 242.17347717 200.96319580 242.18434143 201.99609375 C 242.09326172 203.03321838 241.94694519 204.08575439 241.88247681 205.19821167 C 241.98210144 206.26054382 242.05137634 207.35453796 242.04708862 208.42266846 C 242.08415222 209.26589966 242.08425903 210.08412170 242.07412720 210.90866089 C 241.86871338 211.60299683 241.49020386 212.15126038 240.99572754 212.57121277 C 240.32511902 212.92297363 239.72067261 213.31262207 237.68011475 215.91828918" stroke-width="0.67338693" fill="rgb(255, 255, 255)" opacity="1.0" stroke="rgb(255, 255, 255)" stroke-opacity="0.0" stroke-linecap="round" stroke-linejoin="round"/>
    <path d="M 264.71640015 61.95767593 C 264.72158813 61.94569778 264.69552612 61.97535706 264.73275757 61.92601013 C 264.69287109 61.97317505 264.68942261 61.97122192 264.73052979 61.91318512 C 264.69287109 61.97970963 264.68234253 61.94440460 264.70483398 61.95771790 C 264.69873047 61.95022583 264.68078613 61.95820618 264.68273926 61.94786835 C 264.70257568 61.96255112 264.66683960 61.94781494 264.70675659 61.94260406 C 264.69885254 61.96894836 264.66885376 61.93852615 264.68865967 61.93863297 C 264.70812988 61.94369125 264.65878296 61.95751190 264.69573975 61.90988541 C 264.69592285 61.95374298 264.67385864 61.92338181 264.70080566 61.94013596 C 264.67764282 61.92751312 264.71041870 61.92866898 264.66665649 61.90627670 C 264.72027588 61.94397736 264.67327881 61.89834976 264.71640015 61.95767593" stroke-width="2.00000000" fill="rgb(61, 209, 0)" opacity="1.0" stroke="rgb(75, 156, 58)" stroke-opacity="1.0" stroke-linecap="round" stroke-linejoin="round"/>
    <path d="M 353.89642334 362.96356201 C 345.71102905 363.23629761 337.50424194 363.65426636 329.27044678 364.21517944 C 320.86584473 364.23458862 312.14190674 364.10739136 303.27883911 364.24328613 C 294.12991333 364.23690796 284.57324219 364.18936157 274.77062988 364.20663452 C 264.67956543 364.17156982 254.32913208 364.20791626 243.72471619 364.23123169 C 232.98391724 364.31726074 222.20750427 364.22784424 211.48092651 364.23123169 C 200.87928772 364.18719482 190.63566589 364.21914673 180.88014221 364.26791382 C 171.78500366 364.17239380 163.61239624 364.20544434 156.47787476 364.18734741 C 150.65673828 364.21514893 146.34068298 364.44451904 143.68801880 364.27697754 C 142.96871948 362.78558350 143.16549683 360.43289185 143.35426331 357.61755371 C 143.22789001 354.71240234 142.99142456 352.01675415 143.52116394 350.19393921 C 145.85610962 349.43182373 149.63200378 350.04061890 154.92550659 351.26052856 C 161.70811462 351.71340942 169.72665405 351.59808350 178.66452026 351.51730347 C 188.25059509 351.50558472 198.37046814 351.46334839 208.71287537 351.52691650 C 219.11531067 351.55862427 229.39341736 351.55294800 239.49031067 351.22570801 C 249.06021118 350.43029785 258.34457397 350.40405273 267.26535034 351.12557983 C 276.00460815 351.51803589 284.34518433 351.59906006 292.41223145 351.53890991 C 300.13009644 351.49420166 307.61923218 351.49645996 314.74572754 351.54098511 C 321.69354248 351.71264648 328.31948853 351.66751099 334.70159912 351.64965820 C 340.82702637 351.80444336 346.78326416 351.21536255 352.52075195 349.93096924 C 358.53381348 349.17474365 364.52304077 348.51129150 353.89642334 362.96356201" stroke-width="2.00000000" fill="rgb(179, 66, 8)" opacity="1.0" stroke="rgb(0, 0, 9)" stroke-opacity="1.0" stroke-linecap="round" stroke-linejoin="round"/>
    <path d="M 353.22781372 366.88180542 C 353.07376099 371.36575317 352.84774780 375.84194946 352.58776855 380.35665894 C 352.33935547 384.83602905 352.11880493 389.23788452 351.82519531 393.70364380 C 351.36428833 398.12219238 351.00970459 402.51330566 350.75027466 406.89376831 C 350.41091919 411.17742920 350.15777588 415.39566040 349.90054321 419.53845215 C 349.66003418 423.42712402 349.45700073 427.27807617 349.31307983 430.84216309 C 349.08953857 434.16567993 348.78842163 437.12310791 348.58947754 439.78878784 C 348.47360229 441.97418213 348.23883057 443.57785034 347.63882446 444.72833252 C 346.59085083 445.08670044 345.16513062 445.00811768 343.61508179 444.87728882 C 342.03668213 444.89508057 340.51522827 444.92004395 339.42129517 444.68908691 C 338.82165527 443.99472046 338.76651001 442.80212402 338.83538818 441.06970215 C 339.00637817 438.91046143 339.27038574 436.35385132 339.53335571 433.37570190 C 339.72393799 430.08459473 339.92541504 426.61700439 340.15753174 422.81161499 C 340.44097900 418.89056396 340.71273804 414.85281372 340.92193604 410.73269653 C 341.16101074 406.55682373 341.45520020 402.41812134 341.63537598 398.32025146 C 341.87203979 394.32171631 342.06738281 390.55041504 342.22985840 386.89343262 C 342.43667603 383.45968628 342.63580322 380.27880859 342.73995972 377.45202637 C 342.81103516 374.89361572 342.83105469 372.62661743 342.83129883 370.87924194 C 342.90710449 369.44152832 342.82916260 368.32046509 342.70046997 367.58233643 C 342.61972046 367.17950439 342.71997070 366.98080444 342.92590332 366.98233032 C 343.22131348 366.95251465 343.52044678 366.89895630 353.22781372 366.88180542" stroke-width="0.61979747" fill="rgb(250, 167, 78)" opacity="1.0" stroke="rgb(255, 159, 92)" stroke-opacity="0.464405" stroke-linecap="round" stroke-linejoin="round"/>
    <path d="M 237.59680176 138.99833679 C 236.33804321 138.46298218 235.11009216 138.10020447 233.80735779 138.07524109 C 232.66171265 138.15158081 231.57447815 138.00416565 230.74584961 137.74861145 C 230.18611145 137.55480957 230.12083435 137.22109985 230.20602417 136.66049194 C 230.50321960 135.87432861 230.37149048 134.73695374 230.33564758 133.31172180 C 230.17521667 131.85877991 229.74479675 130.18824768 229.25697327 128.39543152 C 228.46766663 126.53945160 227.55299377 124.70084381 226.49992371 123.01953888 C 225.48193359 121.44725800 224.37104797 120.16054535 223.33959961 118.85888672 C 222.75283813 117.73920441 222.49868774 116.72514343 222.43426514 116.26747131 C 222.77476501 116.10565186 223.35008240 116.45142365 223.92448425 117.09356689 C 224.96301270 117.72943878 226.27917480 118.29425812 227.79953003 118.89453125 C 229.38917542 119.54450226 231.11491394 120.32360840 232.71797180 121.13468170 C 234.43954468 121.54880524 236.12500000 122.16622162 237.61784363 122.46977234 C 239.18054199 122.54485321 240.56674194 122.78144836 241.69549561 123.06287384 C 242.59127808 123.24684906 243.21861267 123.78440857 243.58282471 124.66046906 C 244.01898193 125.87689209 244.23100281 127.28839111 244.47566223 128.78157043 C 244.50309753 130.24061584 244.97018433 131.67762756 245.38397217 133.25245667 C 245.44731140 135.13612366 245.42657471 136.95106506 245.55224609 138.58497620 C 245.76579285 140.02381897 245.76585388 141.28736877 245.54301453 142.19532776 C 245.17816162 142.63476562 244.80659485 142.80094910 244.66362000 142.53048706 C 244.65129089 141.75814819 244.56716919 141.02958679 237.59680176 138.99833679" stroke-width="2.00000000" fill="rgb(246, 247, 248)" opacity="1.0" stroke="rgb(2, 4, 3)" stroke-opacity="1.0" stroke-linecap="round" stroke-linejoin="round"/>
    <path d="M 251.16255188 122.72692108 C 248.63488770 123.27095795 246.34397888 123.62473297 244.43551636 123.58100128 C 243.30360413 122.85993958 242.90084839 121.84474182 243.49626160 120.95214081 C 244.80952454 120.64756775 246.70486450 120.66202545 248.82655334 120.64302826 C 251.18759155 120.48983765 253.19183350 120.38426971 254.55708313 120.44482422 C 255.09101868 121.01602173 254.90682983 122.23289490 254.28179932 124.09008026 C 254.06694031 126.40624237 254.22338867 129.14230347 254.54258728 132.25260925 C 254.81419373 135.86340332 255.47215271 139.74118042 256.52966309 143.81979370 C 257.18057251 148.23956299 257.62240601 153.01910400 257.80783081 158.11836243 C 257.69497681 163.38204956 257.38986206 168.81375122 257.02679443 174.30599976 C 256.98764038 179.59701538 257.88595581 184.84222412 251.16255188 122.72692108" stroke-width="2.00000000" fill="rgb(13, 11, 5)" opacity="1.0" stroke="rgb(255, 202, 231)" stroke-opacity="0.24027199" stroke-linecap="round" stroke-linejoin="round"/>
    <path d="M 359.56820679 358.87481689 C 359.22726440 360.61178589 359.05233765 362.28610229 359.29278564 363.48840332 C 359.56845093 363.60015869 359.58856201 362.88952637 359.22027588 362.29162598 C 358.57669067 362.32485962 357.49688721 362.60278320 355.97186279 362.65991211 C 354.01815796 362.75070190 351.96191406 362.95956421 350.22256470 363.09020996 C 348.96255493 363.05029297 348.44686890 362.53094482 348.53097534 361.42413330 C 348.63122559 360.10800171 348.70678711 358.51208496 348.77706909 356.72470093 C 348.78219604 354.91165161 348.51123047 353.38549805 348.59231567 352.22457886 C 349.28070068 351.63287354 350.36926270 351.53524780 351.68939209 351.62377930 C 353.09701538 351.61825562 354.71783447 351.66683960 356.30804443 351.50158691 C 357.80255127 351.12185669 359.20965576 350.43063354 359.56820679 358.87481689" stroke-width="2.00000000" fill="rgb(232, 161, 85)" opacity="1.0" stroke="rgb(50, 14, 6)" stroke-opacity="1.0" stroke-linecap="round" stroke-linejoin="round"/>
  </g>
</svg>
