<?xml version="1.0" ?>
<svg xmlns="http://www.w3.org/2000/svg" version="1.1" width="512" height="512" viewBox="0 0 512 512">
  <defs/>
  <g>
    <path d="M 351.24853516 447.60540771 C 346.81692505 448.53616333 342.23532104 448.68594360 337.46832275 448.55673218 C 332.47616577 448.54473877 327.38485718 448.50827026 322.12490845 448.51394653 C 316.74349976 448.48852539 311.21609497 448.51327515 305.39749146 448.56436157 C 299.37170410 448.52508545 293.10537720 448.56890869 286.63351440 448.49359131 C 279.98602295 448.58218384 273.14196777 448.52478027 266.05270386 448.52920532 C 258.81561279 448.57467651 251.40614319 448.54519653 243.81243896 448.56072998 C 235.98934937 448.56335449 227.94810486 448.62261963 219.88145447 448.53860474 C 211.76475525 448.56265259 203.63209534 448.51229858 195.66171265 448.53622437 C 187.87101746 448.58599854 180.50845337 448.55953979 173.63742065 448.53433228 C 167.43647766 448.49246216 161.83734131 448.57220459 157.25520325 448.44738770 C 153.82536316 447.10638428 151.61651611 444.46484375 150.42570496 440.67745972 C 150.20457458 435.56546021 150.20028687 429.34518433 149.94990540 422.31854248 C 149.50825500 414.81338501 149.14495850 406.87377930 148.94105530 398.76934814 C 148.76158142 390.66088867 148.32655334 382.80859375 147.91490173 375.41595459 C 147.89561462 368.66418457 148.09379578 362.47479248 148.61122131 357.07473755 C 149.87455750 352.76293945 152.09170532 349.85284424 155.57838440 348.43261719 C 160.42953491 348.16424561 166.29968262 348.31503296 172.90782166 348.27587891 C 179.99069214 348.33001709 187.43858337 348.35342407 195.10475159 348.34350586 C 202.87561035 348.32308960 210.62988281 348.25387573 218.45976257 348.37237549 C 226.17466736 348.40502930 233.80653381 348.39245605 241.29428101 348.06448364 C 248.74438477 347.63293457 256.11621094 347.49432373 263.56555176 347.77255249 C 270.90795898 348.37118530 278.30673218 348.43823242 285.83029175 348.28741455 C 293.42105103 348.21078491 300.93902588 348.25057983 308.35140991 348.26516724 C 315.74288940 348.28359985 322.87591553 348.25555420 329.64129639 348.30676270 C 335.85992432 348.31130981 341.60156250 348.17401123 346.67681885 348.43597412 C 350.71945190 349.61621094 353.76034546 351.77072144 355.76437378 354.93679810 C 356.81631470 358.91690063 356.91510010 363.72213745 356.31198120 369.41479492 C 355.85708618 375.81921387 355.57473755 382.82751465 355.29913330 390.34881592 C 354.64108276 398.35003662 353.96694946 406.45501709 353.48400879 414.85244751 C 353.09133911 423.38433838 352.89382935 431.90887451 351.24853516 447.60540771" stroke-width="0.74418718" fill="rgb(17, 7, 9)" opacity="1.0" stroke="rgb(0, 0, 0)" stroke-opacity="0.3821313" stroke-linecap="round" stroke-linejoin="round"/>
    <path d="M 346.54421997 437.14273071 C 340.68112183 436.12194824 334.77111816 435.11349487 328.84561157 434.14022827 C 322.99673462 433.20944214 317.08105469 432.25622559 311.15893555 431.44244385 C 305.26486206 430.72244263 299.31732178 430.06036377 293.24713135 429.60284424 C 287.21817017 429.23983765 281.02816772 429.03894043 274.80435181 429.10745239 C 268.35275269 429.33697510 261.82986450 429.73007202 255.17837524 430.36773682 C 248.36198425 431.22515869 241.29600525 432.31469727 234.24273682 433.52566528 C 226.92481995 434.96087646 219.66787720 436.47454834 212.23463440 438.11199951 C 204.81681824 439.74108887 197.49314880 441.24304199 190.36724854 442.75411987 C 183.36827087 443.93460083 176.75386047 444.77481079 170.67892456 445.29043579 C 165.24295044 445.28958130 160.52447510 445.46896362 156.82008362 446.13726807 C 154.22158813 446.82577515 152.81536865 446.67657471 152.34974670 445.10510254 C 152.67007446 441.95782471 152.92140198 437.56945801 152.92851257 432.04229736 C 152.82432556 425.59600830 152.66590881 418.43951416 152.43673706 410.93017578 C 152.09187317 403.26239014 151.79090881 395.62030029 151.58392334 388.18713379 C 151.26954651 381.29876709 150.83779907 375.00656128 150.67271423 369.65499878 C 151.25758362 365.23165894 152.87074280 361.75494385 155.45921326 359.24905396 C 158.81356812 357.45208740 162.96981812 356.40979004 167.64477539 355.99722290 C 172.80180359 356.05126953 178.34828186 356.56234741 184.20602417 357.36654663 C 190.29983521 358.39370728 196.59062195 359.61672974 203.07301331 360.88064575 C 209.68028259 362.06536865 216.38554382 363.26980591 223.23376465 364.28652954 C 230.17625427 365.09268188 237.23199463 365.65374756 244.35876465 365.99108887 C 251.50115967 365.99365234 258.88464355 365.79461670 266.11901855 365.43347168 C 273.40692139 364.81658936 280.68768311 364.11694336 287.78402710 363.28683472 C 294.90069580 362.45129395 301.88757324 361.73513794 308.68487549 361.27056885 C 315.25814819 361.11511230 321.51336670 361.33001709 327.43228149 362.00061035 C 332.80075073 363.23504639 337.50274658 365.08673096 341.57656860 367.53674316 C 344.72351074 370.90139771 347.04632568 374.97772217 348.63900757 379.67968750 C 349.73257446 384.94607544 350.37203979 390.63177490 350.65649414 396.62896729 C 350.58291626 402.88702393 350.41961670 409.42135620 350.16921997 415.94183350 C 349.80242920 422.48092651 349.59115601 429.11318970 346.54421997 437.14273071" stroke-width="2.00000000" fill="rgb(177, 74, 0)" opacity="1.0" stroke="rgb(16, 2, 6)" stroke-opacity="1.0" stroke-linecap="round" stroke-linejoin="round"/>
    <path d="M 326.16406250 445.15277100 C 318.96820068 445.08987427 311.85156250 445.06375122 304.66955566 445.09048462 C 297.47943115 445.08627319 290.20147705 445.08917236 282.87368774 445.08416748 C 275.44790649 445.00427246 267.86944580 444.99484253 260.16589355 445.01934814 C 252.42639160 444.97952271 244.49829102 445.03176880 236.62239075 445.01922607 C 228.62843323 445.02276611 220.80393982 445.03515625 213.08691406 445.04278564 C 205.59307861 445.01467896 198.51690674 444.96453857 191.87988281 444.99114990 C 185.76159668 445.02462769 180.34028625 445.01275635 175.73027039 444.88098145 C 171.96829224 444.39431763 169.10926819 443.47033691 167.33775330 442.19351196 C 166.42274475 440.63534546 166.55943298 438.88000488 167.59501648 437.04843140 C 169.62673950 435.22729492 172.42520142 433.44274902 176.15576172 431.77764893 C 180.54399109 430.28576660 185.67561340 428.93951416 191.40135193 427.76785278 C 197.61480713 426.89166260 204.38960266 426.07870483 211.42764282 425.42791748 C 218.86717224 425.07943726 226.41142273 424.73638916 234.13533020 424.61093140 C 241.90222168 424.53402710 249.65925598 424.59613037 257.35995483 424.69564819 C 264.88177490 424.89373779 272.30941772 425.18469238 279.45465088 425.45806885 C 286.41848755 425.88601685 293.12277222 426.36157227 299.56088257 426.90704346 C 305.72082520 427.61260986 311.62698364 428.47381592 317.19094849 429.48992920 C 322.56375122 430.65600586 327.64730835 432.13140869 332.46188354 433.72915649 C 337.01205444 435.66909790 341.48190308 437.84048462 345.70175171 440.25598145 C 349.91027832 442.74395752 354.07638550 445.29003906 326.16406250 445.15277100" stroke-width="0.93428463" fill="rgb(176, 72, 1)" opacity="1.0" stroke="rgb(179, 66, 6)" stroke-opacity="0.48913434" stroke-linecap="round" stroke-linejoin="round"/>
    <path d="M 247.93617249 304.97189331 C 249.38824463 314.34368896 251.35765076 323.17892456 254.08602905 331.17593384 C 256.96820068 338.12774658 259.69625854 343.54067993 260.88183594 347.66488647 C 259.13726807 350.68392944 255.61192322 352.18017578 251.16891479 351.91479492 C 246.94946289 349.37469482 243.96252441 344.02755737 241.76939392 336.40563965 C 239.28364563 327.20108032 237.46104431 316.66687012 236.09640503 305.22836304 C 235.26026917 293.56655884 236.06471252 281.59317017 237.40394592 269.33605957 C 238.59298706 256.80554199 240.72331238 244.64807129 244.14291382 232.65802002 C 247.00091553 220.28761292 249.08106995 208.04461670 250.90205383 195.75375366 C 252.68606567 183.61476135 253.31111145 171.60220337 252.78988647 159.79144287 C 251.60934448 148.34545898 250.33300781 137.44859314 249.24925232 127.10689545 C 248.36544800 117.41098785 247.63456726 108.56452942 247.16601562 100.87953949 C 246.98715210 94.47805786 247.01811218 89.28020477 247.28648376 85.53569031 C 247.79281616 83.22433472 248.45083618 82.46911621 249.39828491 83.23492432 C 250.47618103 85.63758850 251.48474121 89.41802979 252.57429504 94.66404724 C 253.84944153 101.12552643 255.15042114 108.85726166 256.36523438 117.64434814 C 257.57843018 127.20328522 258.59585571 137.46533203 259.45016479 148.37826538 C 260.09335327 159.69606018 260.45333862 171.16625977 260.45117188 182.66418457 C 260.57388306 194.05360413 259.50439453 205.27969360 256.75296021 216.58293152 C 254.46914673 228.33744812 252.46662903 240.35894775 250.51449585 252.78541565 C 248.58802795 265.32952881 246.43328857 278.15884399 247.93617249 304.97189331" stroke-width="2.00000000" fill="rgb(184, 149, 102)" opacity="1.0" stroke="rgb(0, 0, 0)" stroke-opacity="1.0" stroke-linecap="round" stroke-linejoin="round"/>
    <path d="M 198.03750610 234.64068604 C 200.24485779 234.55349731 202.37078857 234.42399597 204.64048767 234.36169434 C 206.80210876 234.31286621 209.03155518 234.28781128 211.32911682 234.25990295 C 213.75689697 234.28656006 216.04093933 234.38714600 218.45309448 234.55300903 C 220.96961975 234.70095825 223.62007141 234.99685669 226.22734070 235.35343933 C 228.84906006 235.78485107 231.48464966 236.43701172 234.04760742 237.13652039 C 236.57606506 237.66671753 238.91014099 238.41390991 241.08135986 239.45675659 C 243.29525757 240.38700867 245.36195374 241.10469055 247.07130432 241.45343018 C 248.73617554 241.48472595 250.08763123 241.51393127 250.95059204 241.75312805 C 251.06141663 242.38665771 250.75555420 243.55221558 250.49569702 244.85548401 C 250.35536194 246.31117249 250.14161682 247.56497192 249.66217041 248.46675110 C 248.70857239 248.77812195 247.21131897 248.80270386 245.34997559 248.47317505 C 243.30590820 247.67774963 241.27290344 246.69343567 239.09281921 245.77252197 C 236.88551331 244.56193542 234.81733704 243.60197449 232.62532043 242.75341797 C 230.39372253 241.97406006 228.13681030 241.40330505 225.86532593 241.13403320 C 223.59799194 240.96823120 221.32440186 240.84124756 219.07261658 240.75563049 C 216.81146240 240.67082214 214.69409180 240.62512207 212.59036255 240.69433594 C 210.49548340 240.70783997 208.46893311 240.78327942 206.51325989 240.82748413 C 204.54037476 240.90367126 202.56213379 240.92594910 200.63923645 240.94995117 C 198.74188232 240.91799927 196.82218933 240.95932007 194.86619568 240.96690369 C 192.96502686 240.99594116 191.10960388 240.86505127 198.03750610 234.64068604" stroke-width="2.00000000" fill="rgb(190, 154, 112)" opacity="1.0" stroke="rgb(58, 52, 33)" stroke-opacity="1.0" stroke-linecap="round" stroke-linejoin="round"/>
    <path d="M 300.69131470 191.71623230 C 298.09323120 192.05049133 295.51052856 192.42359924 292.81735229 192.90243530 C 290.02847290 193.36729431 287.30697632 193.74150085 284.68270874 194.08982849 C 281.97167969 194.47419739 279.03338623 194.90571594 276.02941895 195.39703369 C 273.08663940 195.81340027 270.02145386 196.30561829 266.73303223 197.33586121 C 263.35635376 198.25947571 260.32693481 199.20127869 257.58456421 200.39077759 C 255.19195557 201.24134827 253.24421692 201.72178650 251.90164185 201.53372192 C 251.33384705 200.72984314 251.31483459 199.34082031 251.57788086 197.74948120 C 251.93659973 196.06913757 252.20695496 194.54142761 252.87687683 193.52943420 C 254.11515808 193.26431274 255.90814209 193.47262573 258.02508545 193.61198425 C 260.40368652 193.10244751 262.84570312 192.02352905 265.42398071 190.83126831 C 268.42434692 189.99279785 271.45147705 189.14852905 274.42880249 188.18283081 C 277.32138062 186.98750305 280.08142090 185.68696594 282.76086426 184.45420837 C 285.42987061 183.36743164 288.06875610 182.69174194 290.74703979 182.32490540 C 293.38995361 182.07490540 295.75442505 181.96578979 298.06637573 182.02252197 C 300.24722290 182.32101440 302.28778076 182.76025391 304.12252808 183.30245972 C 305.80966187 184.00852966 307.22445679 184.62902832 308.49902344 185.40370178 C 309.59756470 186.30255127 310.49951172 187.26062012 311.26962280 188.21804810 C 311.82775879 189.22645569 312.25247192 190.16891479 312.59176636 191.24253845 C 312.90167236 192.24993896 313.08840942 193.36767578 313.23107910 194.41619873 C 313.39096069 195.52416992 313.51791382 196.50759888 300.69131470 191.71623230" stroke-width="2.00000000" fill="rgb(195, 153, 113)" opacity="1.0" stroke="rgb(59, 42, 29)" stroke-opacity="1.0" stroke-linecap="round" stroke-linejoin="round"/>
    <path d="M 248.01757812 155.58818054 C 245.79049683 155.64004517 243.59475708 155.67361450 241.34934998 155.72586060 C 239.13598633 155.75540161 236.95469666 155.75524902 234.79563904 155.76783752 C 232.67771912 155.77017212 230.61009216 155.69250488 228.55003357 155.62207031 C 226.63333130 155.48606873 224.76033020 155.28433228 223.04037476 155.08618164 C 221.40118408 154.82495117 219.92631531 154.39886475 218.61340332 153.97677612 C 217.43922424 153.48619080 216.42829895 152.95132446 215.68959045 152.19650269 C 215.09072876 151.42185974 214.74459839 150.59776306 214.64311218 149.69311523 C 214.72784424 148.71011353 215.10203552 147.78663635 215.66636658 146.75733948 C 216.54074097 145.65159607 217.64134216 144.52586365 218.91195679 143.44029236 C 220.49250793 142.35780334 222.24162292 141.33659363 224.15481567 140.37882996 C 226.25631714 139.54240417 228.48538208 138.74826050 230.84945679 138.08709717 C 233.26754761 137.57177734 235.58421326 137.24760437 238.03306580 137.02861023 C 240.37831116 137.01159668 242.53842163 137.14964294 244.45059204 137.55207825 C 246.17010498 138.11293030 247.59361267 138.90293884 248.46417236 139.93988037 C 248.98231506 141.17695618 249.21569824 142.52821350 249.40458679 143.85603333 C 249.82983398 145.11724854 250.58036804 146.16152954 251.44308472 147.18664551 C 252.22517395 148.06674194 253.10662842 149.04856873 253.93261719 149.99000549 C 254.69338989 151.01080322 255.39987183 152.07061768 256.05709839 153.12609863 C 256.60327148 154.27821350 257.12939453 155.37585449 257.65945435 156.46525574 C 258.13122559 157.64855957 258.70092773 158.80023193 248.01757812 155.58818054" stroke-width="2.00000000" fill="rgb(52, 36, 26)" opacity="1.0" stroke="rgb(217, 205, 132)" stroke-opacity="1.0" stroke-linecap="round" stroke-linejoin="round"/>
    <path d="M 221.59635925 249.56785583 C 220.02265930 252.92045593 218.24723816 256.19384766 216.15010071 259.19866943 C 214.34283447 262.23519897 211.81074524 264.73345947 208.99247742 267.00765991 C 205.96260071 269.07196045 202.89482117 271.04388428 199.55064392 272.57138062 C 195.76055908 273.93817139 191.86135864 274.95404053 187.70628357 275.44323730 C 183.40153503 275.61035156 179.14038086 275.41790771 174.91213989 274.64178467 C 170.78950500 273.51110840 167.11573792 271.80932617 163.74252319 269.62982178 C 160.46096802 267.40829468 157.51647949 264.88220215 155.06431580 261.84646606 C 152.76757812 258.80285645 150.81233215 255.47302246 149.58052063 251.73423767 C 148.47599792 247.79782104 147.74176025 243.61804199 147.40127563 239.48513794 C 147.76231384 235.39338684 148.50268555 231.42341614 149.34143066 227.54379272 C 150.59095764 223.93217468 152.34204102 220.59913635 154.21264648 217.52362061 C 156.29136658 214.52046204 158.73448181 211.99943542 161.39088440 209.68113708 C 164.41802979 207.49053955 167.66070557 205.72734070 171.08822632 204.18353271 C 174.71012878 202.76281738 178.60084534 201.73432922 182.53863525 201.35496521 C 186.48588562 201.11489868 190.57566833 201.33171082 194.68307495 202.00077820 C 198.70117188 202.99839783 202.36167908 204.54067993 205.81695557 206.62879944 C 209.22862244 208.88026428 212.32452393 211.46913147 215.21484375 214.20596313 C 217.68563843 217.18356323 219.70320129 220.45387268 221.20893860 223.86447144 C 222.51722717 227.35807800 223.36726379 231.05322266 223.47801208 234.66542053 C 223.31826782 238.52320862 223.68901062 242.67658997 221.59635925 249.56785583" stroke-width="2.00000000" fill="rgb(63, 141, 49)" opacity="1.0" stroke="rgb(0, 0, 2)" stroke-opacity="0.97677743" stroke-linecap="round" stroke-linejoin="round"/>
    <path d="M 242.65118408 137.06867981 C 239.97521973 133.48577881 237.40885925 129.84812927 234.84274292 126.36078644 C 232.16868591 123.06230164 229.40682983 119.99913788 226.49836731 117.33069611 C 223.42466736 114.99617004 220.27037048 112.99852753 217.05332947 111.19992828 C 214.15832520 109.15299225 211.38378906 106.98408508 208.82872009 104.51661682 C 206.76919556 101.67897034 204.80702209 98.64115906 203.11329651 95.42380524 C 201.69279480 91.85565186 200.59098816 88.30776215 199.65145874 84.60911560 C 199.28068542 80.59666443 199.31950378 76.52730560 199.68237305 72.40746307 C 200.58508301 68.14439392 201.80760193 63.98513031 203.20849609 59.75111008 C 204.95983887 55.72315598 207.20362854 52.05970383 209.65570068 48.50255203 C 212.19586182 45.16469955 215.03567505 42.14945984 218.09934998 39.46935272 C 221.14479065 36.77420807 224.25028992 34.51005173 227.92533875 32.69697952 C 231.32228088 30.83119965 234.88311768 29.10891151 238.71997070 28.13810349 C 242.63920593 26.90432930 246.48402405 26.16734886 250.54914856 25.70672035 C 254.68771362 25.43822289 258.87313843 25.39159775 262.98779297 25.91526413 C 266.88973999 26.42624092 270.99444580 27.30972290 274.82192993 28.57245255 C 278.53762817 29.94707489 282.13668823 31.50474167 285.46197510 33.26119232 C 288.53073120 35.20841980 291.44723511 37.28910446 294.22586060 39.45296097 C 296.87026978 41.70288086 299.39263916 44.20975494 301.50051880 46.99522400 C 303.73370361 49.90211105 305.78219604 52.86707306 307.76065063 56.04026031 C 309.39242554 59.43723679 310.77813721 62.93230820 311.73297119 66.53330231 C 312.69940186 70.23977661 313.43521118 74.18200684 313.72515869 78.17469788 C 313.75613403 82.13480377 313.51177979 86.11795044 312.92379761 90.13777161 C 312.02645874 94.17998505 310.85946655 98.04999542 309.41189575 101.86532593 C 307.70825195 105.51113129 305.79159546 109.11161041 303.62338257 112.40798950 C 301.25085449 115.65149689 298.69290161 118.63605499 295.91775513 121.46675110 C 292.99783325 124.04762268 290.03457642 126.35494995 286.87341309 128.50941467 C 283.60906982 130.41662598 280.26284790 132.08670044 276.79196167 133.61482239 C 273.30447388 134.90040588 269.76596069 135.86354065 266.10723877 136.57090759 C 262.47109985 137.21290588 258.82281494 137.56674194 255.18179321 137.68550110 C 251.50906372 137.56399536 247.77333069 137.38298035 242.65118408 137.06867981" stroke-width="2.00000000" fill="rgb(78, 154, 62)" opacity="1.0" stroke="rgb(9, 4, 6)" stroke-opacity="1.0" stroke-linecap="round" stroke-linejoin="round"/>
    <path d="M 370.49612427 180.91168213 C 370.54620361 184.39384460 370.68133545 187.74627686 370.88214111 191.16923523 C 370.66232300 194.51316833 370.01403809 197.84236145 369.14898682 201.16577148 C 368.10952759 204.50451660 366.92919922 207.70405579 365.29602051 210.80668640 C 363.70684814 213.82939148 361.74081421 216.70353699 359.67382812 219.40145874 C 357.50323486 221.87663269 355.02029419 224.19102478 352.54302979 226.43984985 C 350.11724854 228.42849731 347.35018921 229.95484924 344.21441650 231.18330383 C 341.19653320 232.41047668 338.18612671 233.51919556 334.93524170 234.57656860 C 331.79156494 235.48445129 328.46377563 235.95748901 325.04327393 235.86511230 C 321.65478516 235.83755493 318.08917236 235.72077942 314.64624023 235.30569458 C 311.20416260 234.67059326 307.84625244 233.67893982 304.68954468 232.47267151 C 301.60589600 231.10800171 298.91162109 229.30619812 296.28524780 227.53514099 C 293.60943604 225.86326599 291.42001343 223.72210693 289.38412476 221.20674133 C 287.60229492 218.45054626 285.45852661 215.89819336 283.66796875 213.26309204 C 282.23370361 210.41023254 281.14105225 207.49418640 280.00515747 204.65454102 C 279.10867310 201.81526184 278.52835083 199.05578613 278.53878784 196.32255554 C 279.03552246 193.42578125 279.43307495 190.38909912 279.34570312 187.37777710 C 279.31851196 184.11363220 279.51586914 180.81767273 279.78283691 177.51478577 C 280.49169922 174.24867249 281.44213867 171.08139038 282.69863892 167.98751831 C 284.25402832 164.96632385 286.14166260 162.07958984 288.27792358 159.33708191 C 290.57171631 156.71426392 292.99389648 154.28865051 295.67709351 151.95765686 C 298.50402832 149.80036926 301.41131592 147.80265808 304.48330688 146.08364868 C 307.51226807 144.52613831 310.65481567 143.19955444 313.82553101 142.02221680 C 316.93222046 141.12890625 319.95941162 140.52416992 322.96612549 140.28251648 C 325.94259644 140.47090149 328.85754395 140.91323853 331.59292603 141.40042114 C 334.45242310 142.00770569 337.21240234 142.80163574 339.99169922 143.69854736 C 342.81567383 144.81297302 345.62936401 146.10755920 348.47344971 147.68588257 C 351.14053345 149.58781433 354.01351929 151.64344788 356.55667114 154.10987854 C 358.92056274 156.69619751 361.26550293 159.47247314 363.37716675 162.30867004 C 365.00732422 165.35124207 366.55908203 168.57966614 368.00799561 171.54446411 C 369.09323120 174.87864685 370.15661621 178.34768677 370.49612427 180.91168213" stroke-width="2.00000000" fill="rgb(63, 138, 49)" opacity="1.0" stroke="rgb(6, 4, 7)" stroke-opacity="0.9936136" stroke-linecap="round" stroke-linejoin="round"/>
    <path d="M 201.58351135 188.38873291 C 198.69108582 188.83764648 195.85293579 189.37351990 192.96076965 189.59854126 C 189.76763916 189.76573181 186.61317444 189.67637634 183.40864563 189.15811157 C 180.28350830 188.39750671 177.17153931 187.59963989 174.26785278 186.57643127 C 171.57373047 185.44122314 169.01528931 183.91104126 166.75419617 182.13386536 C 164.40736389 180.24462891 162.17036438 178.15107727 160.07666016 176.02847290 C 158.40679932 173.71356201 156.72952271 171.25820923 155.32595825 168.62713623 C 154.08715820 166.06039429 153.38951111 163.32402039 152.62004089 160.53338623 C 151.87890625 157.66755676 151.55056763 154.87562561 151.46112061 152.02081299 C 151.48611450 149.05934143 151.46348572 145.97970581 151.75167847 142.93467712 C 152.69926453 139.79130554 153.62734985 136.67837524 154.57267761 133.52984619 C 155.79544067 130.55151367 157.38580322 127.79856110 159.03033447 125.05180359 C 160.87722778 122.58047485 162.82955933 120.20230103 165.09500122 117.91938019 C 167.38565063 115.83109283 169.82801819 113.73751831 172.49177551 112.06942749 C 175.35226440 110.64819336 178.00971985 109.31987762 180.74450684 107.91047668 C 183.38047791 107.01330566 186.35244751 106.49039459 189.27488708 106.09291840 C 191.91630554 105.39578247 194.45907593 105.40245819 197.07646179 105.66212463 C 199.51194763 106.18122101 201.97563171 106.35801697 204.25575256 106.55012512 C 206.46784973 107.60276794 208.63922119 109.01351929 210.92649841 110.48492432 C 213.41233826 111.98871613 215.80174255 113.58517456 217.93075562 115.44955444 C 219.72622681 117.66635895 221.40774536 120.23515320 223.15475464 122.75514221 C 224.76200867 125.26634216 226.14465332 127.87882233 227.02896118 130.56831360 C 227.38330078 133.46177673 227.74879456 136.33157349 228.52453613 139.16584778 C 229.70732117 141.70092773 230.95622253 144.21031189 232.05668640 146.64089966 C 232.97868347 149.16288757 233.64025879 151.48475647 234.06907654 153.80392456 C 234.17433167 156.04127502 233.97763062 158.41552734 233.48014832 160.56988525 C 232.71826172 162.68316650 231.57611084 164.66699219 230.04345703 166.67237854 C 228.18316650 168.65484619 226.07949829 170.56689453 223.88769531 172.46342468 C 221.64031982 174.52861023 219.25845337 176.83815002 216.66886902 178.99203491 C 213.95303345 181.06452942 211.09147644 183.05816650 207.92716980 184.95390320 C 204.50230408 186.54299927 200.91200256 188.16346741 201.58351135 188.38873291" stroke-width="2.00000000" fill="rgb(97, 168, 76)" opacity="1.0" stroke="rgb(2, 0, 2)" stroke-opacity="1.0" stroke-linecap="round" stroke-linejoin="round"/>
    <path d="M 298.66006470 147.23764038 C 295.89428711 144.74945068 293.16189575 142.22032166 290.40402222 139.64038086 C 287.70547485 137.03230286 285.04223633 134.49499512 282.41079712 131.85313416 C 279.87594604 129.24017334 277.35110474 126.59864044 275.12298584 123.99103546 C 273.07778931 121.40353394 271.23519897 118.78730774 269.92825317 116.17502594 C 269.37789917 113.26670837 269.24542236 110.25102997 269.44381714 107.13612366 C 269.74298096 103.95454407 270.46182251 100.75017548 271.59988403 97.60326385 C 272.88107300 94.37529755 274.58438110 91.23492432 276.68051147 88.20111847 C 279.04370117 85.30667114 281.75698853 82.64303589 284.65634155 80.18486023 C 287.70077515 77.95829010 291.03335571 76.09436798 294.52899170 74.58843231 C 298.04907227 73.43009949 301.84832764 72.70493317 305.59274292 72.33771515 C 309.29513550 72.20375061 313.11569214 72.20251465 316.93933105 72.69920349 C 320.36932373 73.98015594 323.76577759 75.85845184 327.13052368 77.87912750 C 330.12908936 80.40164948 332.85748291 83.28041840 335.31396484 86.33644867 C 337.56494141 89.44157410 339.31124878 92.81980896 340.70025635 96.25533295 C 341.56771851 99.78363800 341.93429565 103.37145996 341.88998413 107.00238800 C 341.88085938 110.66374969 341.46661377 114.23265839 340.14385986 117.68111420 C 338.39901733 121.12023163 336.26849365 124.50289154 333.66384888 127.67789459 C 330.83035278 130.70310974 327.77282715 133.17553711 324.74703979 135.19061279 C 321.25915527 136.17539978 317.87347412 136.79724121 314.56268311 137.37136841 C 311.10986328 137.97515869 307.48226929 138.44055176 298.66006470 147.23764038" stroke-width="2.00000000" fill="rgb(98, 173, 76)" opacity="1.0" stroke="rgb(0, 0, 0)" stroke-opacity="1.0" stroke-linecap="round" stroke-linejoin="round"/>
    <path d="M 238.98641968 191.55822754 C 236.92820740 192.29292297 234.64974976 192.75595093 232.26074219 193.16105652 C 230.02873230 193.57861328 227.75486755 193.50712585 225.22062683 193.48873901 C 222.73577881 193.26582336 220.34831238 192.82173157 217.84075928 192.23130798 C 215.37231445 191.40020752 213.14450073 190.16658020 210.98908997 188.56385803 C 209.08120728 186.61528015 207.19963074 184.50547791 205.36155701 182.21720886 C 204.01533508 179.71737671 202.99975586 176.85762024 202.27839661 174.01966858 C 201.78434753 170.99584961 201.56430054 168.07708740 201.63177490 165.08374023 C 202.05049133 162.21659851 202.77456665 159.44433594 203.86831665 156.76754761 C 205.26928711 154.18659973 206.88610840 151.78651428 208.76530457 149.49954224 C 211.07836914 147.45289612 213.47332764 145.55126953 216.07589722 143.90388489 C 218.71748352 142.42509460 221.50944519 141.33161926 224.34103394 140.63346863 C 227.12657166 140.45564270 229.95072937 140.58267212 232.84605408 140.79942322 C 235.54197693 141.17233276 238.14735413 141.74142456 240.63124084 142.65757751 C 243.01757812 143.81579590 245.25680542 145.20083618 247.43994141 146.56303406 C 249.38026428 148.08229065 250.88723755 149.93516541 252.20161438 152.19650269 C 253.29933167 154.46681213 254.38705444 156.87287903 255.21427917 159.51771545 C 255.78320312 162.04991150 255.92459106 164.74212646 255.68302917 167.61158752 C 255.30168152 170.37980652 254.63102722 173.14418030 253.82849121 175.94111633 C 252.87959290 178.58815002 251.35534668 180.93502808 249.70790100 183.15838623 C 247.99127197 185.33636475 246.37237549 187.56593323 238.98641968 191.55822754" stroke-width="2.00000000" fill="rgb(99, 177, 79)" opacity="1.0" stroke="rgb(0, 0, 0)" stroke-opacity="1.0" stroke-linecap="round" stroke-linejoin="round"/>
    <path d="M 308.05200195 169.14193726 C 305.52972412 170.74931335 303.00024414 172.18612671 300.43133545 173.52352905 C 297.73767090 174.53550720 294.96252441 175.20626831 292.16427612 175.73422241 C 289.39620972 176.13677979 286.57406616 176.27481079 283.71279907 176.14082336 C 280.80734253 175.67810059 277.84741211 175.00436401 274.86416626 174.32341003 C 272.01538086 173.28514099 269.17178345 171.81881714 266.64877319 169.84558105 C 264.41461182 167.33981323 262.14801025 164.83682251 260.13946533 162.29148865 C 258.99374390 159.24291992 258.16232300 155.96716309 257.48275757 152.73887634 C 257.08541870 149.47424316 257.13919067 146.30952454 257.64477539 143.08448792 C 258.13064575 140.02349854 259.03329468 137.10884094 260.43328857 134.28260803 C 261.95062256 131.46421814 263.77691650 129.00456238 266.01434326 126.75444031 C 268.64770508 124.61601257 271.29299927 122.51854706 274.00628662 120.51358032 C 276.91955566 118.89250183 279.97943115 117.72875214 283.16906738 116.98315430 C 286.32266235 116.53258514 289.49942017 116.36583710 292.64898682 116.72662354 C 295.73135376 117.18854523 298.81634521 117.85084534 301.78207397 118.83599091 C 304.41265869 120.09677887 306.88928223 121.85401154 309.23443604 123.93496704 C 311.39041138 126.04709625 313.33465576 128.33390808 315.12704468 130.75715637 C 316.44140625 133.43638611 317.56048584 136.07029724 318.26132202 138.92166138 C 318.69656372 141.74893188 319.13052368 144.71119690 319.26193237 147.58044434 C 318.81610107 150.42283630 318.34606934 153.33024597 317.60317993 156.11349487 C 316.71350098 158.92150879 315.78585815 161.88299561 308.05200195 169.14193726" stroke-width="2.00000000" fill="rgb(102, 176, 81)" opacity="1.0" stroke="rgb(0, 0, 0)" stroke-opacity="1.0" stroke-linecap="round" stroke-linejoin="round"/>
    <path d="M 237.74215698 215.82366943 C 236.91406250 215.88597107 236.02359009 215.97662354 235.14439392 216.34376526 C 234.49093628 217.02911377 233.81324768 217.70231628 233.03645325 218.04716492 C 232.03656006 218.03851318 231.07054138 218.03344727 229.98991394 218.01393127 C 228.95164490 218.03930664 228.17176819 218.07043457 227.49754333 217.86254883 C 226.96897888 217.40492249 226.40272522 216.69615173 226.04516602 215.91635132 C 225.91255188 214.97813416 225.83052063 213.86877441 225.90722656 212.72778320 C 225.96499634 211.45028687 225.95829773 210.18833923 226.02201843 208.92175293 C 226.02772522 207.73255920 225.96672058 206.49916077 225.99818420 205.42283630 C 226.39743042 204.51737976 227.11701965 203.63154602 227.81356812 202.75466919 C 228.63906860 201.84057617 229.50355530 200.96669006 230.39921570 200.17170715 C 231.50364685 199.54751587 232.57089233 198.86064148 233.58970642 198.18649292 C 234.64117432 197.57417297 235.60151672 197.08006287 236.54745483 196.86820984 C 237.61712646 196.79000854 238.67103577 196.79600525 239.61875916 197.14776611 C 240.51275635 197.77934265 241.21237183 198.46124268 241.74938965 199.18124390 C 242.04768372 199.99775696 242.13352966 201.00270081 242.10005188 201.94923401 C 242.05838013 202.98194885 242.00737000 204.05528259 241.96899414 205.17248535 C 242.02554321 206.18074036 242.03863525 207.28381348 242.07322693 208.41685486 C 242.08410645 209.36061096 242.12611389 210.16093445 242.08711243 210.89505005 C 241.84773254 211.51068115 241.46324158 212.06768799 241.01998901 212.56838989 C 240.45191956 212.89540100 240.06288147 213.32151794 237.74215698 215.82366943" stroke-width="1.26009345" fill="rgb(255, 255, 255)" opacity="1.0" stroke="rgb(255, 255, 255)" stroke-opacity="0.0" stroke-linecap="round" stroke-linejoin="round"/>
    <path d="M 264.69750977 61.98527527 C 264.72473145 61.92898178 264.69525146 61.96038055 264.71636963 61.96075439 C 264.71115112 61.93751526 264.68930054 61.97764969 264.72888184 61.93945694 C 264.70346069 61.95972061 264.69055176 61.96147156 264.69369507 61.94990921 C 264.68063354 61.95753098 264.71231079 61.97941208 264.68185425 61.91563797 C 264.67868042 61.97932816 264.70104980 61.99261856 264.67272949 61.91139603 C 264.66918945 61.94598770 264.68777466 61.96680832 264.66796875 61.93098831 C 264.74258423 61.95507812 264.70877075 61.94298935 264.63784790 61.92512131 C 264.68637085 61.94534302 264.73471069 61.94494629 264.64587402 61.91592407 C 264.71673584 61.95095825 264.69976807 61.90803528 264.68981934 61.91912842 C 264.68157959 61.93610001 264.70944214 61.90772629 264.69750977 61.98527527" stroke-width="2.00000000" fill="rgb(61, 209, 0)" opacity="1.0" stroke="rgb(77, 156, 60)" stroke-opacity="0.9646519" stroke-linecap="round" stroke-linejoin="round"/>
    <path d="M 352.20916748 363.05651855 C 344.51251221 363.30966187 336.81433105 363.68884277 329.12048340 364.16760254 C 321.35873413 364.29400635 313.43917847 364.13839722 305.25387573 364.27395630 C 296.86828613 364.26858521 288.23092651 364.17730713 279.15512085 364.21939087 C 269.71359253 364.23010254 259.87612915 364.30178833 249.77305603 364.23913574 C 239.35429382 364.29354858 228.51893616 364.24298096 217.52354431 364.22540283 C 206.51112366 364.23364258 195.74757385 364.24057007 185.33592224 364.33319092 C 175.37133789 364.15710449 166.23188782 364.18395996 158.25610352 364.22558594 C 151.65792847 364.24798584 146.76277161 364.55560303 143.75814819 364.25329590 C 142.93716431 362.48947144 143.13037109 359.85260010 143.40190125 356.68945312 C 143.01623535 353.56640625 142.79782104 351.09896851 143.87577820 349.84677124 C 147.21459961 349.68795776 152.52891541 350.37658691 159.41741943 351.35235596 C 167.73480225 351.64498901 176.81166077 351.62982178 186.56167603 351.50848389 C 196.70800781 351.52011108 206.78810120 351.58050537 216.77087402 351.55056763 C 226.55232239 351.52810669 236.04788208 351.50387573 245.21160889 350.93411255 C 253.88815308 350.30242920 262.13586426 350.54788208 270.17807007 351.26321411 C 278.13119507 351.60202026 285.89959717 351.54660034 293.38623047 351.44793701 C 300.77603149 351.42819214 307.84310913 351.49176025 314.82766724 351.51666260 C 321.68679810 351.64309692 328.15405273 351.64608765 334.46948242 351.68984985 C 340.71246338 351.41952515 346.77780151 350.58520508 352.76748657 349.81991577 C 358.90435791 349.37442017 365.02380371 349.02438354 352.20916748 363.05651855" stroke-width="2.00000000" fill="rgb(176, 64, 6)" opacity="1.0" stroke="rgb(0, 0, 5)" stroke-opacity="1.0" stroke-linecap="round" stroke-linejoin="round"/>
    <path d="M 353.00997925 369.05920410 C 352.88412476 373.23757935 352.65670776 377.52252197 352.42370605 381.71148682 C 352.23541260 385.81237793 352.05606079 389.81872559 351.79855347 393.68585205 C 351.39910889 397.51715088 351.12310791 401.43203735 350.89065552 405.33840942 C 350.65911865 409.26635742 350.38046265 413.18768311 350.04278564 417.13549805 C 349.79281616 421.08239746 349.54870605 424.88604736 349.42254639 428.63385010 C 349.23321533 432.14987183 348.97808838 435.43267822 348.80273438 438.48138428 C 348.57196045 441.06304932 348.26602173 443.10543823 347.78436279 444.48168945 C 346.82791138 445.05065918 345.54031372 445.12933350 343.92803955 444.95468140 C 342.27249146 444.82583618 340.81137085 444.79565430 339.60946655 444.41683960 C 338.91516113 443.59420776 338.71057129 442.23870850 338.81451416 440.33050537 C 339.02667236 438.04968262 339.29302979 435.45806885 339.57687378 432.44299316 C 339.81481934 429.23385620 340.01525879 425.77282715 340.21432495 422.19583130 C 340.42214966 418.35003662 340.71734619 414.63339233 340.96423340 410.64175415 C 341.22851562 406.67608643 341.45562744 402.73281860 341.60095215 398.77301025 C 341.81918335 394.87634277 342.00662231 391.05468750 342.28106689 387.34024048 C 342.50134277 383.78555298 342.65341187 380.38809204 342.79275513 377.23739624 C 342.86682129 374.45510864 342.90557861 372.00271606 342.78689575 369.95053101 C 342.61676025 368.40686035 342.83325195 367.36843872 343.58990479 366.98968506 C 345.00448608 366.91497803 346.84448242 366.98071289 349.01254272 366.95654297 C 351.35678101 366.72979736 353.75012207 366.43203735 353.00997925 369.05920410" stroke-width="0.65416276" fill="rgb(252, 171, 78)" opacity="1.0" stroke="rgb(255, 159, 89)" stroke-opacity="0.4739301" stroke-linecap="round" stroke-linejoin="round"/>
    <path d="M 238.66769409 139.15577698 C 237.29776001 138.96864319 236.08847046 138.55438232 234.96406555 138.19509888 C 233.73757935 138.10017395 232.54003906 138.04676819 231.50276184 137.84997559 C 230.69088745 137.79774475 230.25424194 137.59176636 230.23162842 137.26367188 C 230.47439575 136.46278381 230.53121948 135.33618164 230.37577820 134.06640625 C 230.18669128 132.65213013 229.83541870 130.89154053 229.45988464 128.89376831 C 228.78282166 126.95935822 227.82284546 125.15470123 226.67913818 123.42898560 C 225.66433716 121.67821503 224.55325317 120.19830322 223.53492737 118.98625183 C 222.79641724 117.94584656 222.40994263 117.06041718 222.43676758 116.36634827 C 222.76373291 116.17591095 223.23315430 116.54197693 223.99725342 117.04889679 C 224.87141418 117.69278717 226.16029358 118.27897644 227.66346741 118.79869080 C 229.33207703 119.48596191 231.03153992 120.26792908 232.76582336 120.97760010 C 234.65931702 121.51036835 236.28907776 121.96669006 238.01449585 122.43216705 C 239.58653259 122.61009979 240.81958008 122.79944611 241.93087769 122.98014832 C 242.69032288 123.22487640 243.26068115 123.67588806 243.57881165 124.60285950 C 243.82992554 125.58414459 244.13992310 126.81076050 244.38186646 128.23019409 C 244.47055054 129.75450134 244.75610352 131.27282715 245.24542236 132.96769714 C 245.30873108 134.68302917 245.43008423 136.36149597 245.53283691 137.98686218 C 245.62129211 139.43600464 245.78723145 140.66513062 245.61322021 141.64161682 C 245.42533875 142.29307556 245.18907166 142.59265137 244.91629028 142.45033264 C 244.71417236 141.96719360 244.55168152 141.33663940 238.66769409 139.15577698" stroke-width="2.00000000" fill="rgb(246, 249, 240)" opacity="1.0" stroke="rgb(6, 8, 5)" stroke-opacity="1.0" stroke-linecap="round" stroke-linejoin="round"/>
    <path d="M 251.19306946 123.54079437 C 248.23495483 123.29578400 245.77944946 122.80437469 244.18937683 122.00281525 C 243.90333557 121.20728302 245.07936096 120.76210022 247.16838074 120.61444855 C 249.68188477 120.51673126 252.10386658 120.38269806 253.98022461 120.44454956 C 254.92697144 121.13555908 254.90597534 122.27683258 254.40792847 123.81989288 C 253.99461365 125.76924896 254.06759644 127.87584686 254.48739624 130.15374756 C 254.75770569 132.54765320 254.91944885 135.03759766 254.97213745 137.39768982 C 255.43869019 139.58862305 256.19235229 141.96479797 256.87030029 144.38856506 C 257.25573730 147.09431458 257.47045898 149.99032593 257.56097412 153.00363159 C 257.47332764 155.93949890 256.98529053 159.03610229 256.27340698 162.24229431 C 255.98118591 165.43284607 256.17794800 168.64262390 251.19306946 123.54079437" stroke-width="2.00000000" fill="rgb(20, 15, 13)" opacity="1.0" stroke="rgb(255, 198, 240)" stroke-opacity="0.26450476" stroke-linecap="round" stroke-linejoin="round"/>
    <path d="M 359.47985840 364.11120605 C 359.56799316 363.02880859 359.63824463 362.22378540 359.33804321 361.96838379 C 358.61001587 362.29788208 357.52444458 362.70013428 356.25720215 362.75231934 C 354.75985718 362.76660156 353.28628540 362.81115723 351.87234497 362.86541748 C 350.52420044 363.03482056 349.49121094 362.95254517 348.73300171 362.58456421 C 348.50256348 361.85037231 348.51177979 360.85168457 348.66265869 359.59793091 C 348.71789551 358.18765259 348.75906372 356.84902954 348.73599243 355.40689087 C 348.67285156 354.06072998 348.61016846 352.86111450 348.64495850 352.13906860 C 349.05532837 351.65615845 349.96469116 351.51159668 351.29440308 351.54705811 C 352.81588745 351.59088135 354.47442627 351.54495239 356.26095581 351.45251465 C 358.05545044 351.00842285 359.82275391 350.53607178 359.47985840 364.11120605" stroke-width="2.00000000" fill="rgb(236, 162, 81)" opacity="1.0" stroke="rgb(48, 10, 1)" stroke-opacity="1.0" stroke-linecap="round" stroke-linejoin="round"/>
  </g>
</svg>
