<svg xmlns="http://www.w3.org/2000/svg" viewBox="0 0 512 512" height="512.0px" width="512.0px">
<path id="" fill="rgb(10, 6, 13)" fill-opacity="1.0" stroke="rgb(37, 44, 44)" stroke-width="0.8317762" stroke-opacity="1.0" stroke-linecap="round" stroke-linejoin="round"  filling="0" d="M350.658569 443.471191 C350.405182 446.120483 347.819092 447.481537 343.508728 448.141449 C339.198364 448.801392 333.163696 448.760223 326.013184 448.605103 C318.862640 448.450012 310.596252 448.180908 301.822357 448.385040 C295.201141 448.222076 289.341766 448.164734 283.501526 448.160706 C277.661255 448.156677 271.840118 448.205994 265.295288 448.256348 C258.750488 448.306702 251.481995 448.358093 242.747086 448.358246 C237.520920 448.588776 231.780121 448.686554 225.639114 448.701355 C219.498108 448.716125 212.956924 448.647888 206.129974 448.546417 C199.303024 448.444946 192.190338 448.310242 184.906326 448.192017 C176.236343 448.979736 169.292664 448.875763 164.032944 447.455109 C158.773224 446.034485 155.197479 443.297180 153.263382 438.818298 C151.329300 434.339417 151.036865 428.118958 152.343796 419.731934 C152.385895 413.012756 152.157166 406.370941 152.156494 399.905243 C152.155838 393.439514 152.383240 387.149902 153.337601 381.135101 C154.291962 375.120300 155.973267 369.380310 158.880417 364.013855 C164.005646 359.333221 168.483627 355.852783 172.865952 353.382965 C177.248291 350.913147 181.534973 349.453979 186.277634 348.815857 C191.020279 348.177765 196.218903 348.360779 202.425095 349.175293 C210.692200 349.345856 217.871628 349.423248 224.443146 349.424988 C231.014679 349.426758 236.978302 349.352875 242.813797 349.220917 C248.649307 349.088959 254.356689 348.898926 260.415710 348.668335 C267.564514 348.658783 274.723877 348.718750 281.626465 348.802246 C288.529053 348.885742 295.174866 348.992767 301.296539 349.077301 C307.418213 349.161835 313.015778 349.223877 317.821838 349.217468 C326.657257 349.669952 334.312286 350.338379 340.399139 351.967590 C346.485962 353.596802 351.004639 356.186798 353.567322 360.482361 C356.130005 364.777954 356.736694 370.779114 354.999573 379.230713 C354.340332 385.680634 354.292480 391.273254 354.303589 397.095184 C354.314697 402.917114 354.384766 408.968353 353.961395 416.335480 C353.538025 423.702637 352.621216 432.385681 350.658569 443.471191"></path>
<path id="" fill="rgb(176, 73, 0)" fill-opacity="1.0" stroke="rgb(8, 2, 4)" stroke-width="1.59392202" stroke-opacity="1.0" stroke-linecap="round" stroke-linejoin="round"  filling="0" d="M341.673248 433.566010 C338.056335 433.788422 334.211670 433.357239 329.728577 432.723022 C325.245514 432.088806 320.124023 431.251617 313.953461 430.662048 C307.782898 430.072479 300.563232 429.730530 291.883789 430.086853 C285.931763 430.220947 280.188995 430.355347 274.290100 430.431274 C268.391235 430.507202 262.336212 430.524658 255.759705 430.424896 C249.183182 430.325134 242.085175 430.108154 234.100296 429.715210 C227.716446 430.217102 222.182571 430.942963 216.754608 431.922577 C211.326630 432.902191 206.004578 434.135559 200.044342 435.652527 C194.084106 437.169464 187.485703 438.969971 179.505066 441.083862 C170.338791 443.136658 164.230652 445.250397 160.193481 446.001282 C156.156311 446.752136 154.190140 446.140167 153.307785 442.741577 C152.425415 439.342987 152.626892 433.157776 152.925034 422.762146 C152.779236 419.326721 152.416962 413.427307 152.029419 406.625061 C151.641891 399.822815 151.229111 392.117706 150.982300 385.070862 C150.735504 378.024017 150.654663 371.635437 150.931046 367.466187 C153.748489 362.059418 157.019836 359.140442 160.734772 357.771912 C164.449707 356.403381 168.608200 356.585297 173.199951 357.380310 C177.791702 358.175293 182.816681 359.583405 188.264587 360.667267 C194.759583 360.543091 200.899246 360.709991 206.951477 361.030731 C213.003693 361.351440 218.968491 361.825958 225.113770 362.316956 C231.259048 362.807922 237.584808 363.315430 244.358948 363.702057 C249.931473 363.451050 255.902496 363.154480 262.158295 362.815308 C268.414093 362.476105 274.954681 362.094269 281.666321 361.672668 C288.377991 361.251038 295.260742 360.789673 302.200867 360.291443 C311.538086 359.819489 319.166992 359.615021 325.230499 360.366180 C331.294006 361.117371 335.792053 362.824188 338.867523 366.174866 C341.943024 369.525543 343.595947 374.520081 343.969177 381.846680 C344.007385 390.191467 345.013672 397.891418 345.922180 404.725311 C346.830688 411.559204 347.641479 417.527008 347.288605 422.407532 C346.935730 427.288055 345.419250 431.081299 341.673248 433.566010"></path>
<path id="" fill="rgb(178, 69, 1)" fill-opacity="1.0" stroke="rgb(183, 71, 15)" stroke-width="0.60289574" stroke-opacity="1.0" stroke-linecap="round" stroke-linejoin="round"  filling="0" d="M318.347778 444.851288 C313.917084 444.708374 309.910675 444.716858 304.595795 444.793884 C299.280914 444.870911 292.657593 445.016479 282.993042 445.147766 C275.948547 444.825073 269.181763 444.888763 262.378387 444.959412 C255.575012 445.030090 248.735031 445.107727 241.544128 444.812988 C231.428436 444.544800 225.201843 444.777069 219.172531 444.945587 C213.143234 445.114105 207.311234 445.218903 197.984756 444.695770 C190.598907 444.254608 184.065491 445.279724 177.400024 445.327393 C170.734543 445.375061 163.936996 444.445251 156.022903 440.094238 C153.463623 431.328888 153.886063 427.536499 157.709488 426.149323 C161.532928 424.762177 168.757355 425.780273 179.802094 426.635895 C188.394165 427.295807 194.076508 427.652802 198.942978 427.872742 C203.809448 428.092651 207.860031 428.175507 213.188568 428.287109 C221.904785 428.247406 229.140152 428.378479 235.801865 428.385803 C242.463577 428.393127 248.551636 428.276672 254.973297 427.741913 C263.478271 426.283447 270.175049 426.043488 276.852051 426.071350 C283.529022 426.099182 290.186218 426.394836 298.612030 426.007507 C305.841858 426.471924 313.257935 425.716187 320.493530 425.409515 C327.729126 425.102814 334.784241 425.245178 341.292145 427.505768 C346.853485 433.427612 348.296143 438.510681 344.759094 441.739929 C341.222046 444.969177 332.705261 446.344604 318.347778 444.851288"></path>
<path id="" fill="rgb(206, 163, 116)" fill-opacity="1.0" stroke="rgb(4, 0, 0)" stroke-width="1.66190946" stroke-opacity="1.0" stroke-linecap="round" stroke-linejoin="round"  filling="0" d="M246.403244 291.097626 C246.537582 300.385986 247.330841 310.002075 249.665314 319.868591 C251.999786 329.735107 255.875473 339.852081 262.174652 350.142151 C262.473145 360.911102 258.186951 361.871033 253.374847 357.043243 C248.562729 352.215454 243.224701 341.599945 241.419571 329.218018 C237.894714 317.061157 236.780685 307.746338 236.779388 297.951508 C236.778107 288.156677 237.889557 277.881805 238.815643 263.804810 C240.510803 252.164032 242.407288 243.230133 244.652649 233.340851 C246.898010 223.451569 249.492233 212.606873 252.582870 197.144501 C252.646667 184.667450 252.496033 175.351227 251.817123 165.343002 C251.138214 155.334778 249.931015 144.634521 247.881668 129.389450 C247.805542 114.631714 248.128265 108.331665 247.000092 102.445938 C245.871918 96.560204 243.292847 91.088783 237.413193 77.988297 C232.863312 60.524063 236.838409 57.576370 242.975159 62.130527 C249.111923 66.684685 257.410339 78.740692 261.507141 91.283859 C266.115540 103.808777 266.780701 114.077820 265.754639 124.189575 C264.728607 134.301331 262.011353 144.255798 259.854889 156.151581 C259.118286 167.320908 259.668488 177.139206 259.557404 187.093918 C259.446320 197.048630 258.673950 207.139755 255.292221 218.854721 C253.500000 230.692780 251.502563 239.904617 249.840759 250.581375 C248.178970 261.258148 246.852844 273.399841 246.403244 291.097626"></path>
<path id="" fill="rgb(210, 167, 117)" fill-opacity="1.0" stroke="rgb(88, 73, 58)" stroke-width="1.5842073" stroke-opacity="1.0" stroke-linecap="round" stroke-linejoin="round"  filling="0" d="M199.003021 236.670181 C201.170715 236.218323 203.064224 235.653656 204.946732 235.138748 C206.829254 234.623825 208.700775 234.158676 210.824524 233.905869 C213.262878 233.563873 215.456497 233.650040 217.586838 233.973816 C219.717178 234.297607 221.784241 234.859009 223.969498 235.467438 C226.605255 236.154755 228.866623 236.646744 230.967209 237.153030 C233.067795 237.659317 235.007614 238.179916 237.000290 238.924469 C239.179871 239.388367 241.314255 239.717682 243.396439 240.139801 C245.478638 240.561935 247.508652 241.076874 249.479523 241.912018 C249.539062 243.535919 250.128937 245.747086 250.044281 247.340332 C249.959625 248.933578 249.200439 249.908905 246.561905 249.061127 C243.355225 247.780823 241.863953 247.110687 240.777557 246.465302 C239.691147 245.819916 239.009613 245.199280 237.422394 244.017944 C234.364655 242.581482 232.913544 241.845978 231.406067 241.355789 C229.898590 240.865585 228.334763 240.620697 225.051605 240.165482 C222.660126 239.802277 220.712189 239.431076 218.659821 239.445068 C216.607452 239.459076 214.450638 239.858276 211.641418 241.035873 C209.942734 241.746292 208.209076 242.667770 206.289368 243.264679 C204.369659 243.861603 202.263916 244.133972 199.821045 243.546158 C197.605896 241.839386 195.687119 240.475128 195.179260 239.360214 C194.671402 238.245285 195.574463 237.379684 199.003021 236.670181"></path>
<path id="" fill="rgb(210, 172, 120)" fill-opacity="1.0" stroke="rgb(80, 68, 55)" stroke-width="1.54205167" stroke-opacity="1.0" stroke-linecap="round" stroke-linejoin="round"  filling="0" d="M299.292389 193.187653 C296.247559 192.638519 294.193298 192.159531 292.177063 191.979401 C290.160828 191.799286 288.182617 191.917999 285.290039 192.564270 C282.625793 193.568115 280.151215 194.009537 277.700073 194.359329 C275.248901 194.709122 272.821167 194.967285 270.250488 195.604599 C266.901428 196.383850 264.725098 196.897964 262.835876 197.627609 C260.946686 198.357254 259.344604 199.302444 257.144104 200.943863 C254.024414 202.420837 251.963303 201.759399 251.314804 200.381882 C250.666321 199.004364 251.430450 196.910782 253.961304 195.523483 C257.152527 194.247040 260.160400 193.141876 262.797974 192.255112 C265.435547 191.368347 267.702789 190.700012 269.412750 190.297272 C273.392639 189.191330 275.372253 188.633255 276.776215 187.936234 C278.180176 187.239212 279.008423 186.403244 280.685547 184.741501 C282.996887 182.883911 285.410004 182.303680 287.982056 182.164246 C290.554077 182.024811 293.285034 182.326172 296.232117 182.231827 C298.387024 182.440857 300.679657 182.501694 303.155426 182.710510 C305.631165 182.919327 308.290100 183.276123 311.177582 184.077087 C314.563171 185.403290 317.059540 186.907410 318.076599 188.484680 C319.093689 190.061966 318.631439 191.712402 316.099854 193.331299 C312.498779 194.973862 309.394379 195.410828 306.641510 195.200714 C303.888641 194.990601 301.487305 194.133392 299.292389 193.187653"></path>
<path id="" fill="rgb(82, 98, 33)" fill-opacity="1.0" stroke="rgb(255, 255, 108)" stroke-width="1.61967278" stroke-opacity="1.0" stroke-linecap="round" stroke-linejoin="round"  filling="0" d="M246.692795 156.226242 C245.523605 155.842285 243.871811 155.524826 241.979080 155.326874 C240.086349 155.128922 237.952682 155.050476 235.819733 155.144547 C233.816132 155.287323 231.914261 155.423462 230.006119 155.484421 C228.097961 155.545395 226.183563 155.531189 224.154892 155.373245 C221.864838 154.981476 219.741364 154.541901 217.892502 154.255051 C216.043640 153.968201 214.469406 153.834045 213.277847 154.053101 C212.681000 152.910309 212.459381 151.630280 212.629654 150.274689 C212.799927 148.919113 213.362091 147.487976 214.332809 146.042969 C215.713837 145.042313 217.260727 144.105270 218.990585 143.197662 C220.720459 142.290054 222.633301 141.411896 224.746277 140.529007 C226.921234 139.803925 228.287231 139.421127 229.565048 139.042984 C230.842865 138.664825 232.032501 138.291321 233.854736 137.584808 C235.754791 136.997070 237.632721 136.352692 239.563049 136.294373 C241.493378 136.236053 243.476105 136.763824 245.585815 138.520386 C247.583618 140.016388 248.990646 141.339569 250.341858 142.578217 C251.693085 143.816879 252.988510 144.971039 254.763107 146.129028 C256.650757 147.300476 258.277405 148.626038 259.093781 150.123367 C259.910156 151.620697 259.916290 153.289825 258.562866 155.148376 C257.505493 156.274872 255.861847 157.131363 253.820602 157.412735 C251.779358 157.694092 249.340515 157.400314 246.692795 156.226242"></path>
<path id="" fill="rgb(64, 142, 50)" fill-opacity="1.0" stroke="rgb(8, 12, 8)" stroke-width="1.4840678" stroke-opacity="1.0" stroke-linecap="round" stroke-linejoin="round"  filling="0" d="M220.194473 250.985504 C219.790405 251.768585 218.409561 254.437073 216.190582 257.613403 C213.971588 260.789734 210.914459 264.473877 207.157867 267.288269 C204.045074 269.487213 201.472763 271.015686 198.392395 272.149506 C195.312012 273.283325 191.723557 274.022461 186.578445 274.642700 C181.044250 274.502380 177.960434 274.563660 174.929886 273.901154 C171.899353 273.238647 168.922073 271.852386 163.600937 268.817047 C161.207642 267.311340 158.568680 265.022522 156.158737 261.919617 C153.748795 258.816742 151.567871 254.899780 150.090668 250.137894 C149.370575 247.681381 148.676910 244.104156 148.607452 239.958588 C148.537994 235.813034 149.092743 231.099136 150.869446 226.369293 C152.470123 223.145172 153.725967 220.305084 155.229111 217.835754 C156.732239 215.366409 158.482666 213.267822 161.072510 211.526703 C164.482925 208.561981 167.695068 206.428833 171.225815 204.946014 C174.756561 203.463196 178.605881 202.630707 183.290649 202.267349 C186.444473 202.123413 189.993164 202.130508 193.785767 202.820892 C197.578369 203.511276 201.614868 204.884933 205.744278 207.474091 C209.595398 210.063507 212.124832 212.072250 214.300385 214.590088 C216.475922 217.107910 218.297577 220.134827 220.733124 224.760605 C222.014618 228.318970 222.751816 231.440994 222.732697 235.390533 C222.713593 239.340057 221.938171 244.117111 220.194473 250.985504"></path>
<path id="" fill="rgb(75, 156, 59)" fill-opacity="1.0" stroke="rgb(0, 6, 0)" stroke-width="1.53707123" stroke-opacity="1.0" stroke-linecap="round" stroke-linejoin="round"  filling="0" d="M237.895355 133.821259 C235.495407 132.815735 233.247360 131.438644 230.962250 129.631546 C228.677139 127.824432 226.354950 125.587296 223.806702 122.861649 C221.258453 120.136002 218.484161 116.921844 215.294800 113.160706 C213.279953 109.179665 211.027512 105.847008 208.900818 102.749550 C206.774109 99.652084 204.773148 96.789825 203.261230 93.749573 C201.749329 90.709320 200.726471 87.491074 200.555969 83.681671 C200.159897 79.218864 200.325378 74.849159 200.950958 70.733597 C201.576538 66.618034 202.662231 62.756615 204.106567 59.310360 C205.550903 55.864105 207.353867 52.833015 209.414017 50.378128 C213.227219 45.601089 216.279694 42.215294 219.158173 39.617519 C222.036667 37.019741 224.741180 35.209980 227.858490 33.585014 C230.975784 31.960045 234.505859 30.519867 239.035477 28.661255 C244.357162 27.496887 248.802612 26.823313 252.751572 26.545641 C256.700531 26.267967 260.153015 26.386196 263.488708 26.805433 C266.824402 27.224670 270.043335 27.944916 273.525238 28.871277 C280.095367 32.009319 283.970490 33.748108 286.622498 35.065186 C289.274506 36.382263 290.703400 37.277630 292.381134 38.728828 C294.058899 40.180027 295.985474 42.187057 299.632812 45.727463 C302.627777 49.640472 305.048706 53.329880 306.986786 56.961208 C308.924866 60.592537 310.380157 64.165794 311.443878 67.846504 C312.507568 71.527206 313.179718 75.315369 313.551544 79.376511 C313.634796 82.800713 313.377502 86.594223 312.730560 90.482857 C312.083618 94.371498 311.046997 98.355270 309.571655 102.159981 C308.096313 105.964691 306.182190 109.590347 303.780243 112.762756 C301.490967 115.845375 298.955536 118.804665 296.147705 121.575195 C293.339874 124.345718 290.259644 126.927475 286.880859 129.255035 C283.502014 131.582611 279.824615 133.655975 275.822388 135.409698 C272.858459 136.581009 269.717072 137.644379 266.158936 138.258469 C262.600830 138.872559 258.626007 139.037384 253.995163 138.411621 C249.364319 137.785858 244.077484 136.369507 237.895355 133.821259"></path>
<path id="" fill="rgb(66, 143, 51)" fill-opacity="1.0" stroke="rgb(15, 20, 14)" stroke-width="1.52835023" stroke-opacity="1.0" stroke-linecap="round" stroke-linejoin="round"  filling="0" d="M370.165863 185.251801 C370.306396 188.066025 370.315155 190.467789 370.079803 192.849197 C369.844452 195.230621 369.364990 197.591690 368.529114 200.324524 C367.693237 203.057358 366.500916 206.161957 364.839844 210.030441 C363.402374 212.645004 361.572723 215.427170 359.441406 218.099487 C357.310059 220.771820 354.877014 223.334320 352.232758 225.509537 C349.588501 227.684753 346.733063 229.472717 343.756897 230.595947 C340.470154 231.934158 337.149628 233.074493 333.878845 233.909866 C330.608063 234.745239 327.387024 235.275620 324.299347 235.393936 C321.211670 235.512238 318.257324 235.218475 315.519867 234.405548 C312.194092 233.916901 309.195160 233.169357 306.364807 232.090775 C303.534485 231.012207 300.872711 229.602600 298.221313 227.789825 C295.569946 225.977066 292.928894 223.761139 290.140015 221.069946 C287.854065 218.012390 285.818756 214.945587 284.152588 211.874756 C282.486420 208.803925 281.189423 205.729065 280.380096 202.655350 C279.570770 199.581635 279.249146 196.509064 279.533691 193.442856 C279.790283 189.451569 279.963257 186.327805 280.214874 183.628036 C280.466492 180.928268 280.796692 178.652481 281.367737 176.357147 C281.938782 174.061798 282.750671 171.746918 283.965576 168.968918 C286.328766 165.163681 288.125366 162.226135 289.847107 159.735794 C291.568848 157.245453 293.215759 155.202332 295.279572 153.185913 C297.343384 151.169495 299.824158 149.179779 303.213593 146.796326 C305.301605 145.658432 307.945770 144.435364 310.961151 143.432510 C313.976562 142.429657 317.363190 141.647018 320.936188 141.389984 C324.509216 141.132965 328.268555 141.401550 332.029419 142.501129 C334.813599 143.048553 337.460144 143.733490 340.096283 144.720383 C342.732422 145.707275 345.358185 146.996094 348.100708 148.751297 C350.843262 150.506500 353.702637 152.728058 356.806000 155.580414 C358.912933 157.949203 360.832336 160.340042 362.544250 163.040237 C364.256165 165.740417 365.760559 168.749954 367.037476 172.356125 C368.314392 175.962280 369.363831 180.165085 370.165863 185.251801"></path>
<path id="" fill="rgb(97, 175, 77)" fill-opacity="1.0" stroke="rgb(10, 12, 9)" stroke-width="1.56590128" stroke-opacity="1.0" stroke-linecap="round" stroke-linejoin="round"  filling="0" d="M198.453247 187.785934 C196.860550 188.309174 194.565399 188.646759 191.908218 188.730652 C189.251038 188.814545 186.231812 188.644760 183.190979 188.153214 C180.150116 187.661682 177.087646 186.848389 174.343948 185.645309 C172.151901 184.644150 169.795792 183.265869 167.480530 181.535538 C165.165283 179.805206 162.890869 177.722839 160.862244 175.313492 C158.833603 172.904129 157.050751 170.167786 155.718567 167.129517 C154.876801 165.121277 154.014343 162.872070 153.343552 160.357590 C152.672760 157.843109 152.193665 155.063370 152.118622 151.994034 C152.043579 148.924683 152.372589 145.565765 153.318054 141.892944 C153.617493 139.914474 154.231888 137.566238 155.216583 134.996445 C156.201279 132.426636 157.556259 129.635269 159.336853 126.770485 C161.117432 123.905708 163.323639 120.967529 166.010742 118.104126 C167.580673 116.704689 169.332672 115.237602 171.440643 113.816254 C173.548615 112.394897 176.012573 111.019279 179.006409 109.802765 C182.000244 108.586258 185.523956 107.528854 189.751480 106.743927 C192.887131 106.775154 195.378220 106.691269 197.574478 106.731079 C199.770721 106.770889 201.672150 106.934402 203.628448 107.460434 C205.584747 107.986465 207.595917 108.875015 210.011719 110.364899 C213.151108 112.125580 215.970749 113.943756 218.502335 115.817528 C221.033936 117.691307 223.277481 119.620689 225.264740 121.603790 C227.251984 123.586899 228.982910 125.623718 230.489273 127.712372 C232.367996 130.612473 233.930450 133.557602 235.115891 136.453781 C236.301331 139.349945 237.109772 142.197159 237.480469 144.901413 C237.851166 147.605652 237.784119 150.166946 237.218582 152.491272 C236.517258 155.332382 235.490707 158.111465 234.197830 160.764267 C232.904953 163.417053 231.345749 165.943573 229.579117 168.279526 C227.812485 170.615494 225.838409 172.760895 223.715820 174.651505 C221.765671 176.504044 219.631866 178.135025 217.212479 179.634964 C214.793076 181.134888 212.088074 182.503784 208.995514 183.832108 C205.902969 185.160446 202.422852 186.448212 198.453247 187.785934"></path>
<path id="" fill="rgb(97, 176, 75)" fill-opacity="1.0" stroke="rgb(14, 14, 12)" stroke-width="1.43172753" stroke-opacity="1.0" stroke-linecap="round" stroke-linejoin="round"  filling="0" d="M302.388611 139.596680 C298.788391 139.966553 295.345978 139.660126 292.101440 138.939346 C288.856903 138.218567 285.810272 137.083435 283.001617 135.795898 C280.114685 133.554230 278.084167 131.488647 276.396149 129.070953 C274.708130 126.653259 273.362610 123.883453 271.845551 120.233368 C270.344849 116.261848 269.584839 112.230919 269.539276 108.592850 C269.493713 104.954788 270.162659 101.709579 271.519836 99.309509 C272.885925 94.884781 274.944305 91.208130 277.281891 88.146103 C279.619476 85.084084 282.236237 82.636696 284.719055 80.670502 C288.072998 78.112793 290.892151 76.448471 294.125977 75.239418 C297.359772 74.030365 301.008240 73.276596 306.020752 72.539993 C312.532745 73.130470 315.235199 73.195198 317.225220 73.635071 C319.215240 74.074951 320.492798 74.889977 324.155060 76.981049 C327.837463 79.248909 330.941956 81.997971 333.493622 85.069489 C336.045288 88.141006 338.044128 91.534988 339.515320 95.092697 C340.721924 100.283928 341.339111 103.225677 341.335297 106.229111 C341.331482 109.232552 340.706665 112.297684 339.429321 117.735687 C337.583008 120.884010 336.030731 123.476395 333.941467 126.026115 C331.852203 128.575836 329.225952 131.082916 325.231689 134.060623 C320.693146 136.483093 317.143707 137.797501 313.648254 138.541107 C310.152771 139.284698 306.711304 139.457474 302.388611 139.596680"></path>
<path id="" fill="rgb(102, 177, 79)" fill-opacity="1.0" stroke="rgb(15, 13, 19)" stroke-width="1.43726623" stroke-opacity="1.0" stroke-linecap="round" stroke-linejoin="round"  filling="0" d="M240.384521 190.220428 C239.387604 190.822327 237.399994 191.551758 234.862320 192.117599 C232.324646 192.683456 229.236877 193.085724 226.039627 193.033264 C223.595825 192.832886 220.738220 192.473282 217.930374 191.578461 C215.122528 190.683655 212.364441 189.253632 210.119720 186.912369 C208.510803 185.194901 206.914764 183.491516 205.549332 181.289856 C204.183899 179.088196 203.049042 176.388245 202.362518 172.677658 C202.051346 170.142776 201.781143 167.897171 202.002594 165.315338 C202.224030 162.733490 202.937119 159.815430 204.592514 155.935608 C206.132965 153.625656 207.402664 151.724258 209.183121 149.840729 C210.963562 147.957199 213.254761 146.091553 216.838196 143.853104 C219.625854 142.835297 221.634750 141.962296 223.521133 141.403015 C225.407516 140.843735 227.171371 140.598175 229.468933 140.835312 C232.635193 140.884583 235.637878 141.225403 238.488663 142.030319 C241.339447 142.835251 244.038345 144.104309 246.597031 146.010086 C249.313263 148.158844 251.413544 150.419006 252.918686 152.730148 C254.423813 155.041290 255.333801 157.403412 255.669418 159.756119 C255.869568 162.096878 255.739197 164.613998 255.306381 167.417633 C254.873566 170.221283 254.138321 173.311462 253.128723 176.798325 C252.091324 179.087738 251.098877 180.905212 249.268982 182.919357 C247.439087 184.933502 244.771729 187.144318 240.384521 190.220428"></path>
<path id="" fill="rgb(100, 181, 80)" fill-opacity="1.0" stroke="rgb(14, 11, 17)" stroke-width="1.35033047" stroke-opacity="1.0" stroke-linecap="round" stroke-linejoin="round"  filling="0" d="M309.528503 167.503403 C307.685913 169.439056 304.886353 171.207733 301.821014 172.604370 C298.755676 174.000992 295.424561 175.025574 292.518829 175.473038 C288.915985 175.857697 285.743500 176.056229 282.719025 175.792313 C279.694580 175.528412 276.818115 174.802048 273.807373 173.336929 C271.814392 172.159332 269.164429 170.802551 266.668243 168.942993 C264.172058 167.083450 261.829620 164.721161 260.451691 161.532562 C258.873718 159.153381 257.932739 156.409882 257.534637 153.323502 C257.136536 150.237122 257.281342 146.807861 257.874939 143.057159 C259.013824 139.346924 259.889374 136.714508 261.142670 134.271027 C262.395996 131.827545 264.027069 129.572998 266.677032 126.618561 C271.416687 123.115387 273.060181 121.571426 274.447357 120.614822 C275.834534 119.658226 276.965393 119.288986 280.679688 118.135254 C284.140869 117.130585 287.634888 116.751785 291.047424 116.919830 C294.459930 117.087868 297.790894 117.802742 300.925934 118.985413 C304.298889 120.523140 307.250183 122.527412 309.626831 124.679955 C312.003479 126.832489 313.805511 129.133301 314.880005 131.264099 C316.613525 134.518982 317.713135 137.774490 318.307190 140.961823 C318.901245 144.149155 318.989777 147.268311 318.701141 150.250549 C318.387360 153.419525 317.258820 156.724213 315.626434 159.740921 C313.994019 162.757629 311.857758 165.486359 309.528503 167.503403"></path>
<path id="" fill="rgb(255, 255, 255)" fill-opacity="1.0" stroke="rgb(255, 255, 255)" stroke-width="0.99926329" stroke-opacity="1.0" stroke-linecap="round" stroke-linejoin="round"  filling="0" d="M237.094376 215.684998 C236.697693 215.803314 235.701401 216.106979 234.600861 216.467087 C233.500320 216.827179 232.295517 217.243729 231.481796 217.587814 C230.095673 217.668640 229.135056 217.987885 228.322510 218.211365 C227.509949 218.434860 226.845459 218.562592 226.051544 218.260376 C226.052490 217.163956 226.056259 216.173111 226.049362 215.127945 C226.042480 214.082764 226.024933 212.983261 225.983261 211.669510 C225.919128 210.340073 225.900208 209.155518 225.959808 208.064682 C226.019409 206.973846 226.157516 205.976715 226.407440 205.022141 C226.898254 204.000916 227.409149 203.312149 228.100754 202.609924 C228.792358 201.907684 229.664673 201.191986 230.878311 200.116928 C231.870575 199.544601 232.562439 199.099884 233.201141 198.706131 C233.839859 198.312378 234.425430 197.969559 235.205109 197.601028 C236.092422 197.083328 237.170929 197.286377 238.218536 197.746552 C239.266144 198.206741 240.282837 198.924072 241.046539 199.434937 C242.026550 200.484726 242.292114 201.319183 242.285370 202.171555 C242.278625 203.023911 241.999573 203.894165 241.890381 205.015533 C241.829102 205.971741 241.814178 207.051361 241.870956 208.153244 C241.927734 209.255127 242.056229 210.379272 242.281784 211.424515 C242.230255 212.567993 241.662094 213.168701 240.742477 213.715729 C239.822861 214.262756 238.551773 214.756134 237.094376 215.684998"></path>
<path id="" fill="rgb(61, 209, 0)" fill-opacity="1.0" stroke="rgb(74, 158, 58)" stroke-width="2.0" stroke-opacity="1.0" stroke-linecap="round" stroke-linejoin="round"  filling="0" d="M264.712524 61.938599 C264.712494 61.940247 264.713165 61.944092 264.713593 61.948792 C264.713470 61.953568 264.714081 61.955139 264.711151 61.957657 C264.708313 61.959946 264.704315 61.961029 264.699890 61.960876 C264.696167 61.961212 264.691589 61.959595 264.687927 61.958191 C264.683746 61.956406 264.680908 61.953979 264.678833 61.950272 C264.677032 61.943375 264.677155 61.944733 264.678406 61.940948 C264.680054 61.937057 264.682617 61.933060 264.685120 61.929749 C264.689667 61.925552 264.690399 61.924515 264.694672 61.922974 C264.698761 61.922302 264.702637 61.924271 264.705658 61.926773 C264.709137 61.929153 264.710724 61.932114 264.712524 61.938599"></path>
<path id="" fill="rgb(191, 69, 3)" fill-opacity="1.0" stroke="rgb(21, 10, 15)" stroke-width="1.82167137" stroke-opacity="1.0" stroke-linecap="round" stroke-linejoin="round"  filling="0" d="M344.614380 362.872162 C338.541321 363.339020 333.410461 363.280518 326.840271 363.170288 C320.270050 363.060089 312.260498 362.898132 300.429993 363.158142 C293.899902 363.216492 287.357513 363.336334 279.761292 363.351410 C272.165070 363.366455 263.514984 363.276733 252.769455 362.915863 C246.239502 362.940491 239.709061 363.201263 232.392456 363.379181 C225.075836 363.557098 216.973053 363.652161 207.298416 363.345428 C198.104492 362.932861 190.144424 362.865814 181.919144 362.997589 C173.693848 363.129364 165.203339 363.459961 154.948517 363.842773 C147.401443 365.078979 143.060425 361.066742 142.918121 357.217499 C142.775818 353.368225 146.832214 349.681946 156.079987 351.569946 C168.496979 351.420532 174.385712 351.643982 179.404449 351.822021 C184.423187 352.000031 188.571930 352.132568 197.508987 351.801300 C208.671143 351.759949 215.083801 351.571716 221.159897 351.523560 C227.235977 351.475433 232.975494 351.567352 242.791382 352.086304 C251.836975 351.345337 258.911560 351.441772 266.286377 351.603699 C273.661224 351.765625 281.336304 351.993042 291.582947 351.513977 C301.245148 352.012878 309.110199 351.976929 316.478210 351.814117 C323.846252 351.651306 330.717255 351.361664 338.391357 351.353180 C348.793396 350.667053 356.059021 352.770966 357.869202 355.434326 C359.679382 358.097687 356.034119 361.320496 344.614380 362.872162"></path>
<path id="" fill="rgb(250, 161, 77)" fill-opacity="1.0" stroke="rgb(110, 34, 2)" stroke-width="1.69286358" stroke-opacity="1.0" stroke-linecap="round" stroke-linejoin="round"  filling="0" d="M353.034790 378.063538 C352.713074 381.672089 352.578461 383.749115 352.430115 385.988007 C352.281738 388.226898 352.119629 390.627686 351.742889 394.883698 C351.586365 397.993073 351.362396 400.471863 351.100647 403.244415 C350.838867 406.016968 350.539307 409.083252 350.231598 413.367645 C350.349548 415.497986 350.249939 418.537811 350.089966 421.700653 C349.929993 424.863464 349.709595 428.149323 349.585938 430.771698 C348.856171 434.289429 349.230072 437.977203 349.075012 440.786163 C348.919952 443.595154 348.235901 445.525330 345.390289 445.527832 C341.598389 445.605225 339.179230 444.612762 338.030548 442.634277 C336.881897 440.655792 337.003723 437.691284 338.293823 433.824524 C339.402771 429.426178 339.648285 427.082947 339.721375 425.197632 C339.794495 423.312317 339.695190 421.884888 340.114502 419.318176 C340.133789 415.889557 340.297272 412.863770 340.498932 409.997528 C340.700592 407.131287 340.940430 404.424622 341.112366 401.634247 C340.868286 398.761047 341.016113 395.927399 341.218903 392.963623 C341.421692 389.999847 341.679413 386.905945 341.655151 383.512268 C342.052856 380.347778 341.609192 377.118683 341.622833 374.165344 C341.636475 371.211975 342.107422 368.534363 344.334351 366.472809 C348.425720 365.472626 351.001923 366.016418 352.354736 367.987183 C353.707550 369.957977 353.836975 373.355743 353.034790 378.063538"></path>
<path id="" fill="rgb(249, 251, 249)" fill-opacity="1.0" stroke="rgb(28, 29, 28)" stroke-width="1.4996438" stroke-opacity="1.0" stroke-linecap="round" stroke-linejoin="round"  filling="0" d="M238.870026 139.317947 C238.463898 139.013824 237.686081 138.723099 236.590988 138.402817 C235.495911 138.082520 234.083557 137.732666 232.408356 137.310257 C230.926743 137.036713 230.318817 136.408447 230.100159 135.529694 C229.881485 134.650940 230.052063 133.521698 230.127457 132.246246 C230.156326 130.713120 229.880920 129.399933 229.468140 128.258408 C229.055344 127.116882 228.505188 126.147003 227.984558 125.300476 C227.122086 123.480255 226.439011 122.560753 225.790863 121.684364 C225.142715 120.807983 224.529510 119.974709 223.806778 118.326950 C224.209061 117.879112 225.385361 118.334091 226.709122 118.918175 C228.032867 119.502258 229.504089 120.215431 230.496170 120.283981 C232.736542 121.160576 233.645462 121.495667 234.328964 121.709656 C235.012466 121.923645 235.470551 122.016525 236.809235 122.408691 C238.261169 122.572998 239.841095 122.723541 241.127335 123.047913 C242.413574 123.372292 243.406128 123.870499 243.683365 124.730133 C244.261414 126.604622 244.427292 127.868004 244.510086 128.994537 C244.592896 130.121063 244.592606 131.110748 244.838318 132.437820 C245.029312 134.242676 245.088028 135.512146 245.150146 136.643463 C245.212280 137.774780 245.277817 138.767914 245.482452 140.020096 C245.233871 141.547882 244.628616 141.592148 243.561584 141.144562 C242.494553 140.696991 240.965729 139.757568 238.870026 139.317947"></path>
<path id="" fill="rgb(27, 21, 19)" fill-opacity="1.0" stroke="rgb(255, 183, 193)" stroke-width="2.0" stroke-opacity="1.0" stroke-linecap="round" stroke-linejoin="round"  filling="0" d="M253.006607 137.847992 C252.673157 135.837585 252.545639 135.113083 252.138763 132.975433 C251.908218 130.757736 252.080048 129.446594 251.327393 127.428131 C250.523621 124.887650 250.757935 123.469666 253.109131 124.876953 C254.487671 125.852295 254.633240 127.812561 254.132751 130.241318 C254.077621 131.597427 253.786362 132.722794 254.134583 135.266235 C254.797440 137.006363 254.258362 138.587280 256.365814 138.109955 C258.572968 139.367020 258.233978 140.375031 257.413940 142.567520 C256.458008 144.560120 257.771027 147.186630 256.232758 147.495010 C253.923706 147.884232 253.723053 145.597580 253.521698 143.779709 C253.094940 141.051895 253.354156 140.052841 253.006607 137.847992"></path>
<path id="" fill="rgb(255, 175, 83)" fill-opacity="1.0" stroke="rgb(53, 22, 16)" stroke-width="1.86264455" stroke-opacity="1.0" stroke-linecap="round" stroke-linejoin="round"  filling="0" d="M358.519806 355.644379 C358.362396 357.075958 358.010925 358.112946 357.998077 359.753052 C357.690430 361.328186 358.394379 362.614319 356.964783 362.929871 C355.631775 362.736755 354.737793 362.695862 352.857513 362.754120 C351.482971 362.692932 349.723022 363.082855 348.842285 362.529327 C348.777283 360.525879 348.862976 360.183807 349.154633 358.430267 C349.474060 356.151703 349.303009 356.651062 349.220276 354.929199 C349.221619 353.278717 348.605682 351.955719 350.018158 351.732452 C351.581818 351.673126 352.440338 351.847168 353.823639 351.448273 C355.457031 351.352325 356.575653 351.242554 357.740967 351.824982 C358.718140 352.658661 358.691742 354.317322 358.519806 355.644379"></path>
</svg>